<svg xmlns="http://www.w3.org/2000/svg" viewBox="0 0 960.13 998.54"><defs><style>.cls-1{fill:#ff8000;}</style></defs><g id="Warstwa_2" data-name="Warstwa 2"><g id="tlo"><path class="cls-1" d="M499.29,998.54c254.11,0,460.84-206.72,460.84-460.82C960.13,286.27,757.7,81.21,507.24,77L584.2,0H499.29C224,0,0,224,0,499.27S224,998.54,499.29,998.54ZM481.61,555.68c-12.25-16.16-18.21-34.52-18.77-54.62a101,101,0,0,1,.68-11.77,51.64,51.64,0,0,1,1.12-7c.89-3.83,1.78-7.68,3-11.41a98.93,98.93,0,0,1,4.26-10.6,73.16,73.16,0,0,1,4.72-8.65c2.11-3.33,4.4-6.57,6.83-9.68a79.24,79.24,0,0,1,6.57-7.38,84.59,84.59,0,0,1,7.68-6.85c3-2.36,6.17-4.55,9.39-6.62a85.27,85.27,0,0,1,14.3-7.24,88.86,88.86,0,0,1,0,172.19A93,93,0,0,1,481.61,555.68ZM496,404.53a95,95,0,0,0-40.88,10.86L333.84,203.66A336.77,336.77,0,0,1,496,160.47ZM449.3,418.69a96.1,96.1,0,0,0-30.36,29.87L208.35,325.74A341.4,341.4,0,0,1,328.08,207Zm-33.75,35.59A94.91,94.91,0,0,0,404,495.94H160.47A336.57,336.57,0,0,1,205,331.47Zm-11.62,48.3a94.8,94.8,0,0,0,11.05,42L205,667.06a336.71,336.71,0,0,1-44.51-164.48Zm14.36,47.76a96.39,96.39,0,0,0,30.42,30.53L328.07,791.57A341.32,341.32,0,0,1,208.35,672.79Zm36.17,33.87A94.86,94.86,0,0,0,496,595.39V838.07a336.84,336.84,0,0,1-162.12-43.19Zm48.13,11.19a94.77,94.77,0,0,0,41.54-11.1L666.94,798.78a375.09,375.09,0,0,1-164.35,39.31ZM549.89,581a96.36,96.36,0,0,0,30.53-30.54L805.14,681.51A380.1,380.1,0,0,1,672.86,795.76Zm33.85-36.3a94.94,94.94,0,0,0,11.11-42.1H874.29A375.06,375.06,0,0,1,809,676.07Zm11-48.74a94.85,94.85,0,0,0-11.62-41.77l258.89-151a375.17,375.17,0,0,1,34.53,157.65q0,17.76-1.62,35.12Zm-15-47.48a96.1,96.1,0,0,0-30.48-29.88L705.82,145.2a379.91,379.91,0,0,1,133.39,152Zm-36.25-33.17a95,95,0,0,0-40.93-10.77V160.43H584.2L507.4,83.62a374.91,374.91,0,0,1,192.83,58ZM499.29,6.64h68.87L494.59,80.21l73.57,73.58H499.29c-190.51,0-345.5,155-345.5,345.48s155,345.48,345.5,345.48c211.71,0,384-172.23,384-383.93,0-151-87.66-282-214.79-344.63,166.92,67.22,285,230.84,285,421.53,0,250.43-203.75,454.18-454.2,454.18-271.65,0-492.65-221-492.65-492.63S227.64,6.64,499.29,6.64Z"/><path class="cls-1" d="M422.46,92.16a7.68,7.68,0,1,0-7.68-7.67A7.67,7.67,0,0,0,422.46,92.16Z"/></g></g></svg>