<svg xmlns="http://www.w3.org/2000/svg" viewBox="0 0 96 101"><defs><style>.cls-1,.cls-2,.cls-3{fill:none;}.cls-1,.cls-2{stroke:#ff8000;stroke-width:2px;}.cls-2{stroke-miterlimit:10;}.cls-4{fill:#ff8000;}</style></defs><g id="Warstwa_2" data-name="Warstwa 2"><g id="tlo"><path class="cls-1" d="M48,55.1a27.05,27.05,0,1,0-27-27A27,27,0,0,0,48,55.1Z"/><line class="cls-2" x1="67.67" y1="28.05" x2="75.12" y2="28.05"/><line class="cls-2" x1="44.33" y1="28.05" x2="51.67" y2="28.05"/><line class="cls-2" x1="20.87" y1="28.05" x2="28.33" y2="28.05"/><path class="cls-3" d="M36.33,36.05a8,8,0,1,0-8-8,8,8,0,0,0,8,8"/><circle class="cls-1" cx="36.33" cy="28.05" r="8"/><path class="cls-3" d="M59.67,36.05a8,8,0,1,0-8-8,8,8,0,0,0,8,8"/><circle class="cls-1" cx="59.67" cy="28.05" r="8"/><path class="cls-4" d="M36.33,29.55a1.5,1.5,0,1,0-1.5-1.5,1.5,1.5,0,0,0,1.5,1.5"/><path class="cls-4" d="M59.67,29.55a1.5,1.5,0,1,0-1.5-1.5,1.5,1.5,0,0,0,1.5,1.5"/><path class="cls-1" d="M1,100H95c0-18.78-21-34-47-34S1,81.22,1,100Z"/></g></g></svg>