<svg xmlns="http://www.w3.org/2000/svg" viewBox="0 0 200 200"><defs><style>.cls-1{fill:none;stroke:#ff8000;stroke-miterlimit:10;stroke-width:2px;}</style></defs><g id="Warstwa_2" data-name="Warstwa 2"><g id="tlo"><path class="cls-1" d="M145.64,136a59.7,59.7,0,1,0-91.28,0"/><path class="cls-1" d="M159.7,97.5c0-27.17-26.73-49.2-59.7-49.2s-59.7,22-59.7,49.2"/><path class="cls-1" d="M66.63,101c-9.52,1-14.39,15.35-12.62,32.22s9.52,29.9,19,28.89Z"/><path class="cls-1" d="M127,162.14c9.52,1,17.26-12,19-28.89S142.89,102,133.37,101Z"/><circle class="cls-1" cx="100" cy="100" r="99"/><line class="cls-1" x1="170.36" y1="29.64" x2="29.64" y2="170.36"/><path class="cls-1" d="M83.41,155.47,78.13,105.3a5.46,5.46,0,0,0-6-4.85l-4,.43a5.46,5.46,0,0,0-1.47.36L73,162l5.53-.58A5.44,5.44,0,0,0,83.41,155.47Z"/><path class="cls-1" d="M135.06,101.37a2.75,2.75,0,0,0-.86-.24l-.71-.08A10.16,10.16,0,0,1,135.06,101.37Z"/><path class="cls-1" d="M133.37,101l-5.54-.59a5.44,5.44,0,0,0-6,4.84l-5.26,50.3a5.46,5.46,0,0,0,4.84,6l3.95.42a5.61,5.61,0,0,0,1.59-.07Z"/></g></g></svg>