<?xml version="1.0" standalone="no"?>
<!DOCTYPE svg PUBLIC "-//W3C//DTD SVG 1.1//EN" "http://www.w3.org/Graphics/SVG/1.1/DTD/svg11.dtd" >
<svg xmlns="http://www.w3.org/2000/svg" xmlns:xlink="http://www.w3.org/1999/xlink" version="1.1">
<metadata>
Created by FontForge 20201107 at Fri Mar 12 15:52:26 2021
 By Unknown
Copyright \(c\) 2021 by Olivier Gourvat. All rights reserved. Mostardesign Type Foundry
</metadata>
<defs>
<font id="NatomPro-Regular" horiz-adv-x="600" >
  <font-face 
    font-family="Natom Pro"
    font-weight="400"
    font-stretch="normal"
    units-per-em="1000"
    panose-1="2 1 5 3 6 3 0 0 0 3"
    ascent="800"
    descent="-200"
    x-height="510"
    cap-height="700"
    bbox="-434 -218 1332 1050"
    underline-thickness="50"
    underline-position="-100"
    stemh="74"
    stemv="82"
    unicode-range="U+0020-FB02"
  />
<missing-glyph horiz-adv-x="621" 
d="M98 -195v957h424v-957h-424z" />
    <glyph glyph-name="f_f" unicode="ff" horiz-adv-x="731" 
d="M657 688c-91 0 -145 -63 -145 -161v-17h204v-70h-204v-440h-82v440h-260v-440h-82v517c0 140 81 233 205 233c46 0 84 -8 109 -21v-74c-26 13 -60 21 -98 21c-85 0 -134 -69 -134 -161v-5h260v19c0 147 84 233 216 233c48 0 92 -9 118 -23v-74c-27 14 -67 23 -107 23z
" />
    <glyph glyph-name="f_f_i" unicode="ffi" horiz-adv-x="944" 
d="M872 510v-510h-82v440h-258v-440h-82v440h-280v-440h-82v517c0 147 92 233 224 233c48 0 92 -9 118 -23v-74c-27 14 -67 23 -107 23c-91 0 -153 -63 -153 -161v-5h280c2 158 85 252 217 252c72 0 131 -16 158 -44v-74c-28 28 -83 44 -147 44c-87 0 -143 -66 -146 -178
h340z" />
    <glyph glyph-name="f_f_l" unicode="ffl" horiz-adv-x="1019" 
d="M969 62c12 0 26 1 39 3v-73c-16 -3 -35 -4 -50 -4c-96 0 -160 64 -160 175v510c-44 12 -82 15 -108 15c-112 0 -164 -63 -164 -161v-17h175v-70h-175v-440h-82v440h-274v-440h-82v517c0 147 83 233 215 233c47 0 90 -9 116 -22v-74c-27 14 -65 22 -105 22
c-91 0 -144 -63 -144 -161v-5h274v19c0 147 90 233 239 233c80 0 148 -15 197 -39v-550c0 -73 35 -111 89 -111z" />
    <glyph glyph-name="fi" unicode="fi" horiz-adv-x="614" 
d="M525 510v-510h-82v440h-273v-440h-82v504c0 162 98 258 232 258c72 0 131 -16 158 -44v-74c-28 28 -83 44 -147 44c-87 0 -158 -66 -161 -178h355z" />
    <glyph glyph-name="fl" unicode="fl" horiz-adv-x="663" 
d="M612 62c13 0 27 1 39 3v-73c-15 -3 -34 -4 -49 -4c-96 0 -160 64 -160 175v510c-44 12 -83 15 -108 15c-112 0 -164 -63 -164 -161v-17h174v-70h-174v-440h-82v529c0 147 90 233 239 233c79 0 148 -15 197 -39v-550c0 -73 35 -111 88 -111z" />
    <glyph glyph-name=".notdef" horiz-adv-x="621" 
d="M98 -195v957h424v-957h-424z" />
    <glyph glyph-name="space" unicode=" " horiz-adv-x="245" 
 />
    <glyph glyph-name="A" unicode="A" horiz-adv-x="762" 
d="M381 711c173 0 289 -111 289 -275v-437h-88v218h-402v-218h-88v437c0 164 115 275 289 275zM180 437v-139h402v137c0 115 -80 194 -199 194c-122 0 -203 -77 -203 -192z" />
    <glyph glyph-name="Aacute" unicode="&#xc1;" horiz-adv-x="762" 
d="M524 891v-3l-116 -138h-65v5l83 136h98zM381 711c173 0 289 -111 289 -275v-437h-88v218h-402v-218h-88v437c0 164 115 275 289 275zM180 437v-139h402v137c0 115 -80 194 -199 194c-122 0 -203 -77 -203 -192z" />
    <glyph glyph-name="Abreve" unicode="&#x102;" horiz-adv-x="762" 
d="M382 750c-91 0 -160 56 -160 141h63c0 -48 34 -85 97 -85c64 0 98 37 98 85h63c0 -85 -69 -141 -161 -141zM381 711c173 0 289 -111 289 -275v-437h-88v218h-402v-218h-88v437c0 164 115 275 289 275zM180 437v-139h402v137c0 115 -80 194 -199 194
c-122 0 -203 -77 -203 -192z" />
    <glyph glyph-name="uni01CD" unicode="&#x1cd;" horiz-adv-x="762" 
d="M537 886l-151 -136h-9l-150 136v5h84l70 -60l68 60h88v-5zM381 711c173 0 289 -111 289 -275v-437h-88v218h-402v-218h-88v437c0 164 115 275 289 275zM180 437v-139h402v137c0 115 -80 194 -199 194c-122 0 -203 -77 -203 -192z" />
    <glyph glyph-name="Acircumflex" unicode="&#xc2;" horiz-adv-x="762" 
d="M449 750l-68 60l-70 -60h-84v5l150 136h9l151 -136v-5h-88zM381 711c173 0 289 -111 289 -275v-437h-88v218h-402v-218h-88v437c0 164 115 275 289 275zM180 437v-139h402v137c0 115 -80 194 -199 194c-122 0 -203 -77 -203 -192z" />
    <glyph glyph-name="Adieresis" unicode="&#xc4;" horiz-adv-x="762" 
d="M282 756c-30 0 -55 25 -55 56c0 30 25 55 55 55c33 0 56 -25 56 -55c0 -31 -25 -56 -56 -56zM483 756c-30 0 -55 25 -55 56c0 30 25 55 55 55c32 0 56 -25 56 -55c0 -31 -25 -56 -56 -56zM381 711c173 0 289 -111 289 -275v-437h-88v218h-402v-218h-88v437
c0 164 115 275 289 275zM180 437v-139h402v137c0 115 -80 194 -199 194c-122 0 -203 -77 -203 -192z" />
    <glyph glyph-name="Agrave" unicode="&#xc0;" horiz-adv-x="762" 
d="M415 755v-5h-64l-116 138v3h98zM381 711c173 0 289 -111 289 -275v-437h-88v218h-402v-218h-88v437c0 164 115 275 289 275zM180 437v-139h402v137c0 115 -80 194 -199 194c-122 0 -203 -77 -203 -192z" />
    <glyph glyph-name="Amacron" unicode="&#x100;" horiz-adv-x="762" 
d="M235 837h294v-60h-294v60zM381 711c173 0 289 -111 289 -275v-437h-88v218h-402v-218h-88v437c0 164 115 275 289 275zM180 437v-139h402v137c0 115 -80 194 -199 194c-122 0 -203 -77 -203 -192z" />
    <glyph glyph-name="Aogonek" unicode="&#x104;" horiz-adv-x="762" 
d="M651 -142c42 0 60 10 76 19v-55c-19 -13 -57 -23 -90 -23c-73 0 -120 37 -120 97c0 46 24 85 65 112v209h-402v-218h-88v437c0 164 115 275 289 275c173 0 289 -111 289 -275v-437h-32c-38 -19 -61 -51 -61 -77c0 -43 28 -64 74 -64zM180 437v-139h402v137
c0 115 -80 194 -199 194c-122 0 -203 -77 -203 -192z" />
    <glyph glyph-name="Aring" unicode="&#xc5;" horiz-adv-x="762" 
d="M462 702c127 -29 208 -129 208 -266v-437h-88v218h-402v-218h-88v437c0 138 82 239 211 267c-23 20 -37 49 -37 81c0 60 52 109 117 109s116 -49 116 -109c0 -32 -14 -62 -37 -82zM383 844c-36 0 -65 -27 -65 -60c0 -35 29 -61 65 -61s64 26 64 61c0 33 -28 60 -64 60z
M180 437v-139h402v137c0 115 -80 194 -199 194c-122 0 -203 -77 -203 -192z" />
    <glyph glyph-name="Aringacute" unicode="&#x1fa;" horiz-adv-x="762" 
d="M466 701c125 -30 204 -130 204 -265v-437h-88v218h-402v-218h-88v437c0 137 80 236 207 266c-20 20 -33 47 -33 77c0 54 41 98 95 108l62 102h98v-3l-90 -107c41 -17 68 -55 68 -100c0 -30 -12 -58 -33 -78zM383 839c-36 0 -65 -26 -65 -60s29 -60 65 -60s64 26 64 60
s-28 60 -64 60zM180 437v-139h402v137c0 115 -80 194 -199 194c-122 0 -203 -77 -203 -192z" />
    <glyph glyph-name="Atilde" unicode="&#xc3;" horiz-adv-x="762" 
d="M312 813c-30 0 -48 -22 -48 -55h-53c0 72 38 120 95 120c52 0 106 -50 147 -50c29 0 49 22 49 55h52c0 -72 -38 -117 -95 -118c-54 -1 -106 48 -147 48zM381 711c173 0 289 -111 289 -275v-437h-88v218h-402v-218h-88v437c0 164 115 275 289 275zM180 437v-139h402v137
c0 115 -80 194 -199 194c-122 0 -203 -77 -203 -192z" />
    <glyph glyph-name="AE" unicode="&#xc6;" horiz-adv-x="952" 
d="M903 700v-82h-333v-234h256v-81h-256v-221h333v-82h-421v215h-302v-216h-88v428c0 163 116 273 291 273h520zM180 428v-132h302v322h-99c-122 0 -203 -76 -203 -190z" />
    <glyph glyph-name="AEacute" unicode="&#x1fc;" horiz-adv-x="952" 
d="M663 891v-3l-116 -138h-64v5l82 136h98zM903 700v-82h-333v-234h256v-81h-256v-221h333v-82h-421v215h-302v-216h-88v428c0 163 116 273 291 273h520zM180 428v-132h302v322h-99c-122 0 -203 -76 -203 -190z" />
    <glyph glyph-name="B" unicode="B" horiz-adv-x="675" 
d="M476 353c78 -15 145 -80 145 -171c0 -105 -88 -182 -219 -182h-302v700h262c155 0 239 -84 239 -191c0 -79 -58 -139 -125 -156zM363 618h-175v-232h170c85 0 154 41 154 114c0 79 -60 118 -149 118zM188 82h198c83 0 146 37 146 106c0 68 -62 116 -147 116h-197v-222z
" />
    <glyph glyph-name="C" unicode="C" horiz-adv-x="730" 
d="M431 -12c-203 0 -380 146 -380 359c0 198 155 365 378 365c96 0 191 -32 253 -73v-91h-8c-60 49 -158 82 -240 82c-165 0 -293 -129 -293 -283c0 -158 136 -277 293 -277c82 0 180 33 240 82h8v-91c-64 -43 -161 -73 -251 -73z" />
    <glyph glyph-name="Cacute" unicode="&#x106;" horiz-adv-x="730" 
d="M425 750h-65v5l83 136h97v-3zM431 -12c-203 0 -380 146 -380 359c0 198 155 365 378 365c96 0 191 -32 253 -73v-91h-8c-60 49 -158 82 -240 82c-165 0 -293 -129 -293 -283c0 -158 136 -277 293 -277c82 0 180 33 240 82h8v-91c-64 -43 -161 -73 -251 -73z" />
    <glyph glyph-name="Ccaron" unicode="&#x10c;" horiz-adv-x="730" 
d="M560 886l-152 -136h-8l-150 136v5h84l70 -60l68 60h88v-5zM434 630c-165 0 -293 -129 -293 -283c0 -158 136 -277 293 -277c82 0 180 33 240 82h8v-91c-64 -43 -161 -73 -251 -73c-203 0 -380 146 -380 359c0 198 155 365 378 365c96 0 191 -32 253 -73v-91h-8
c-60 49 -158 82 -240 82z" />
    <glyph glyph-name="Ccedilla" unicode="&#xc7;" horiz-adv-x="730" 
d="M434 630c-165 0 -293 -129 -293 -283c0 -158 136 -277 293 -277c82 0 180 33 240 82h8v-91c-64 -43 -161 -73 -251 -73h-18l-25 -47c11 3 26 5 38 5c49 0 82 -28 82 -69c0 -50 -55 -84 -137 -84c-15 0 -39 3 -60 7v41c13 -4 32 -7 47 -7c45 0 75 17 75 42
c0 22 -22 36 -54 36c-15 0 -33 -4 -43 -9l-8 18l36 72c-173 28 -313 165 -313 354c0 198 155 365 378 365c96 0 191 -32 253 -73v-91h-8c-60 49 -158 82 -240 82z" />
    <glyph glyph-name="Cdotaccent" unicode="&#x10a;" horiz-adv-x="730" 
d="M401 756c-31 0 -56 25 -56 56c0 30 25 55 56 55c32 0 55 -25 55 -55c0 -31 -25 -56 -55 -56zM431 -12c-203 0 -380 146 -380 359c0 198 155 365 378 365c96 0 191 -32 253 -73v-91h-8c-60 49 -158 82 -240 82c-165 0 -293 -129 -293 -283c0 -158 136 -277 293 -277
c82 0 180 33 240 82h8v-91c-64 -43 -161 -73 -251 -73z" />
    <glyph glyph-name="D" unicode="D" horiz-adv-x="710" 
d="M100 700h215c209 0 342 -145 342 -350c0 -207 -138 -350 -342 -350h-215v700zM188 82h127c153 0 252 110 252 268c0 160 -100 268 -252 268h-127v-536z" />
    <glyph glyph-name="Eth" unicode="&#xd0;" horiz-adv-x="722" 
d="M113 700h215c208 0 341 -145 341 -350c0 -207 -138 -350 -341 -350h-215v315h-90v69h90v316zM201 82h127c153 0 251 110 251 268c0 160 -100 268 -251 268h-127v-234h224v-69h-224v-233z" />
    <glyph glyph-name="Dcaron" unicode="&#x10e;" horiz-adv-x="710" 
d="M506 886l-152 -136h-8l-150 136v5h84l70 -60l68 60h88v-5zM100 700h215c209 0 342 -145 342 -350c0 -207 -138 -350 -342 -350h-215v700zM188 82h127c153 0 252 110 252 268c0 160 -100 268 -252 268h-127v-536z" />
    <glyph glyph-name="Dcroat" unicode="&#x110;" horiz-adv-x="722" 
d="M113 700h215c208 0 341 -145 341 -350c0 -207 -138 -350 -341 -350h-215v315h-90v69h90v316zM201 82h127c153 0 251 110 251 268c0 160 -100 268 -251 268h-127v-234h224v-69h-224v-233z" />
    <glyph glyph-name="E" unicode="E" horiz-adv-x="548" 
d="M497 700v-82h-309v-234h245v-81h-245v-221h309v-82h-397v700h397z" />
    <glyph glyph-name="Eacute" unicode="&#xc9;" horiz-adv-x="548" 
d="M437 891v-3l-116 -138h-65v5l83 136h98zM497 700v-82h-309v-234h245v-81h-245v-221h309v-82h-397v700h397z" />
    <glyph glyph-name="Ecaron" unicode="&#x11a;" horiz-adv-x="548" 
d="M456 886l-151 -136h-9l-150 136v5h84l70 -60l68 60h88v-5zM497 700v-82h-309v-234h245v-81h-245v-221h309v-82h-397v700h397z" />
    <glyph glyph-name="Ecircumflex" unicode="&#xca;" horiz-adv-x="548" 
d="M368 750l-68 60l-70 -60h-84v5l150 136h9l151 -136v-5h-88zM497 700v-82h-309v-234h245v-81h-245v-221h309v-82h-397v700h397z" />
    <glyph glyph-name="Edieresis" unicode="&#xcb;" horiz-adv-x="548" 
d="M196 756c-30 0 -55 25 -55 56c0 30 25 55 55 55c32 0 55 -25 55 -55c0 -31 -25 -56 -55 -56zM397 756c-31 0 -56 25 -56 56c0 30 25 55 56 55c32 0 55 -25 55 -55c0 -31 -25 -56 -55 -56zM497 700v-82h-309v-234h245v-81h-245v-221h309v-82h-397v700h397z" />
    <glyph glyph-name="Edotaccent" unicode="&#x116;" horiz-adv-x="548" 
d="M297 756c-31 0 -56 25 -56 56c0 30 25 55 56 55c32 0 55 -25 55 -55c0 -31 -25 -56 -55 -56zM497 700v-82h-309v-234h245v-81h-245v-221h309v-82h-397v700h397z" />
    <glyph glyph-name="Egrave" unicode="&#xc8;" horiz-adv-x="548" 
d="M322 755v-5h-64l-116 138v3h97zM497 700v-82h-309v-234h245v-81h-245v-221h309v-82h-397v700h397z" />
    <glyph glyph-name="Emacron" unicode="&#x112;" horiz-adv-x="548" 
d="M150 837h294v-60h-294v60zM497 700v-82h-309v-234h245v-81h-245v-221h309v-82h-397v700h397z" />
    <glyph glyph-name="Eogonek" unicode="&#x118;" horiz-adv-x="548" 
d="M497 700v-82h-309v-234h245v-81h-245v-221h309v-82h-101c-41 -19 -66 -53 -66 -79c0 -43 28 -64 75 -64c42 0 60 10 75 19v-55c-19 -13 -56 -23 -90 -23c-72 0 -119 37 -119 97c0 42 20 78 55 105h-226v700h397z" />
    <glyph glyph-name="uni1EBC" unicode="&#x1ebc;" horiz-adv-x="548" 
d="M226 813c-30 0 -48 -22 -48 -55h-53c0 72 38 120 95 120c53 0 106 -50 147 -50c29 0 49 22 49 55h52c0 -72 -37 -117 -94 -118c-55 -1 -107 48 -148 48zM497 700v-82h-309v-234h245v-81h-245v-221h309v-82h-397v700h397z" />
    <glyph glyph-name="F" unicode="F" horiz-adv-x="530" 
d="M497 700v-82h-309v-234h247v-81h-247v-303h-88v700h397z" />
    <glyph glyph-name="G" unicode="G" horiz-adv-x="771" 
d="M397 282v82h313v-295c-83 -54 -192 -81 -289 -81c-209 0 -370 152 -370 359c0 217 168 365 369 365c97 0 199 -34 259 -86v-94h-7c-62 59 -160 98 -252 98c-149 0 -279 -115 -279 -283c0 -156 123 -277 281 -277c86 0 163 19 206 49v163h-231z" />
    <glyph glyph-name="Gbreve" unicode="&#x11e;" horiz-adv-x="771" 
d="M406 750c-92 0 -161 56 -161 141h63c0 -48 34 -85 98 -85c63 0 97 37 97 85h63c0 -85 -69 -141 -160 -141zM397 282v82h313v-295c-83 -54 -192 -81 -289 -81c-209 0 -370 152 -370 359c0 217 168 365 369 365c97 0 199 -34 259 -86v-94h-7c-62 59 -160 98 -252 98
c-149 0 -279 -115 -279 -283c0 -156 123 -277 281 -277c86 0 163 19 206 49v163h-231z" />
    <glyph glyph-name="uni0122" unicode="&#x122;" horiz-adv-x="771" 
d="M397 282v82h313v-295c-83 -54 -192 -81 -289 -81c-209 0 -370 152 -370 359c0 217 168 365 369 365c97 0 199 -34 259 -86v-94h-7c-62 59 -160 98 -252 98c-149 0 -279 -115 -279 -283c0 -156 123 -277 281 -277c86 0 163 19 206 49v163h-231zM323 -218v8l52 154h87v-8
l-72 -154h-67z" />
    <glyph glyph-name="Gdotaccent" unicode="&#x120;" horiz-adv-x="771" 
d="M406 756c-31 0 -56 25 -56 56c0 30 25 55 56 55c32 0 55 -25 55 -55c0 -31 -25 -56 -55 -56zM397 282v82h313v-295c-83 -54 -192 -81 -289 -81c-209 0 -370 152 -370 359c0 217 168 365 369 365c97 0 199 -34 259 -86v-94h-7c-62 59 -160 98 -252 98
c-149 0 -279 -115 -279 -283c0 -156 123 -277 281 -277c86 0 163 19 206 49v163h-231z" />
    <glyph glyph-name="H" unicode="H" horiz-adv-x="714" 
d="M526 384v316h88v-700h-88v303h-338v-303h-88v700h88v-316h338z" />
    <glyph glyph-name="Hbar" unicode="&#x126;" horiz-adv-x="718" 
d="M616 570h63v-69h-63v-501h-88v303h-338v-303h-88v501h-62v69h62v130h88v-130h338v130h88v-130zM190 384h338v117h-338v-117z" />
    <glyph glyph-name="Hcircumflex" unicode="&#x124;" horiz-adv-x="714" 
d="M424 750l-68 60l-70 -60h-84v5l150 136h8l152 -136v-5h-88zM526 384v316h88v-700h-88v303h-338v-303h-88v700h88v-316h338z" />
    <glyph glyph-name="I" unicode="I" horiz-adv-x="289" 
d="M188 0h-88v700h88v-700z" />
    <glyph glyph-name="IJ" unicode="&#x132;" horiz-adv-x="916" 
d="M188 0h-88v700h88v-700zM509 619v81h315v-439c0 -177 -119 -273 -261 -273c-166 0 -260 102 -260 257v18h81v-9c0 -119 65 -184 179 -184c93 0 173 66 173 191v358h-227z" />
    <glyph glyph-name="Iacute" unicode="&#xcd;" horiz-adv-x="289" 
d="M172 750h-65v5l83 136h98v-3zM188 0h-88v700h88v-700z" />
    <glyph glyph-name="uni01CF" unicode="&#x1cf;" horiz-adv-x="289" 
d="M143 831l68 60h88v-5l-152 -136h-8l-150 136v5h84zM188 0h-88v700h88v-700z" />
    <glyph glyph-name="Icircumflex" unicode="&#xce;" horiz-adv-x="289" 
d="M139 891h8l152 -136v-5h-88l-68 60l-70 -60h-84v5zM188 0h-88v700h88v-700z" />
    <glyph glyph-name="Idieresis" unicode="&#xcf;" horiz-adv-x="289" 
d="M44 756c-30 0 -55 25 -55 56c0 30 25 55 55 55c32 0 55 -25 55 -55c0 -31 -25 -56 -55 -56zM245 756c-31 0 -56 25 -56 56c0 30 25 55 56 55c32 0 55 -25 55 -55c0 -31 -25 -56 -55 -56zM188 0h-88v700h88v-700z" />
    <glyph glyph-name="Idotaccent" unicode="&#x130;" horiz-adv-x="289" 
d="M145 756c-30 0 -55 25 -55 56c0 30 25 55 55 55c32 0 55 -25 55 -55c0 -31 -25 -56 -55 -56zM188 0h-88v700h88v-700z" />
    <glyph glyph-name="Igrave" unicode="&#xcc;" horiz-adv-x="289" 
d="M181 750h-65l-115 138v3h97l83 -136v-5zM188 0h-88v700h88v-700z" />
    <glyph glyph-name="Imacron" unicode="&#x12a;" horiz-adv-x="289" 
d="M291 777h-294v60h294v-60zM188 0h-88v700h88v-700z" />
    <glyph glyph-name="Iogonek" unicode="&#x12e;" horiz-adv-x="289" 
d="M171 -142c42 0 60 10 75 19v-55c-19 -13 -56 -23 -90 -23c-72 0 -119 37 -119 97c0 46 23 84 64 112v692h88v-700h-29c-40 -19 -63 -52 -63 -78c0 -43 27 -64 74 -64z" />
    <glyph glyph-name="Itilde" unicode="&#x128;" horiz-adv-x="289" 
d="M25 758h-53c0 72 39 120 96 120c52 0 106 -50 147 -50c29 0 48 22 48 55h53c0 -72 -38 -117 -95 -118c-54 -1 -106 48 -148 48c-29 0 -48 -22 -48 -55zM188 0h-88v700h88v-700z" />
    <glyph glyph-name="J" unicode="J" horiz-adv-x="646" 
d="M239 619v81h315v-439c0 -177 -119 -273 -260 -273c-167 0 -261 102 -261 257v18h81v-9c0 -119 65 -184 180 -184c93 0 172 66 172 191v358h-227z" />
    <glyph glyph-name="K" unicode="K" horiz-adv-x="633" 
d="M325 325l292 -313v-12h-108l-321 344v-344h-88v700h88v-330c165 9 307 185 307 330h89c0 -142 -111 -309 -259 -375z" />
    <glyph glyph-name="uni0136" unicode="&#x136;" horiz-adv-x="633" 
d="M325 325l292 -313v-12h-108l-321 344v-344h-88v700h88v-330c165 9 307 185 307 330h89c0 -142 -111 -309 -259 -375zM247 -218v8l52 154h87v-8l-72 -154h-67z" />
    <glyph glyph-name="L" unicode="L" horiz-adv-x="526" 
d="M188 700v-618h309v-82h-397v700h88z" />
    <glyph glyph-name="Lacute" unicode="&#x139;" horiz-adv-x="526" 
d="M288 891v-3l-116 -138h-64v5l82 136h98zM188 700v-618h309v-82h-397v700h88z" />
    <glyph glyph-name="Lcaron" unicode="&#x13d;" horiz-adv-x="529" 
d="M451 750v-11l-79 -169h-66l69 180h76zM188 700v-618h309v-82h-397v700h88z" />
    <glyph glyph-name="uni013B" unicode="&#x13b;" horiz-adv-x="526" 
d="M188 700v-618h309v-82h-397v700h88zM184 -218v8l52 154h87v-8l-72 -154h-67z" />
    <glyph glyph-name="Ldot" unicode="&#x13f;" horiz-adv-x="528" 
d="M188 700v-618h309v-82h-397v700h88zM360 280c-32 0 -58 26 -58 59c0 32 26 58 58 58c34 0 59 -26 59 -58c0 -33 -26 -59 -59 -59z" />
    <glyph glyph-name="Lslash" unicode="&#x141;" horiz-adv-x="556" 
d="M217 302v-220h310v-82h-398v254l-87 -47v80l87 47v366h88v-318l155 85v-80z" />
    <glyph glyph-name="M" unicode="M" horiz-adv-x="907" 
d="M737 700l124 -700h-88l-86 472l-223 -440h-21l-223 441l-85 -473h-88l123 700h24l260 -501l259 501h24z" />
    <glyph glyph-name="N" unicode="N" horiz-adv-x="779" 
d="M591 198v502h88v-700h-23l-468 499v-499h-88v700h24z" />
    <glyph glyph-name="Nacute" unicode="&#x143;" horiz-adv-x="779" 
d="M530 891v-3l-116 -138h-65v5l83 136h98zM591 198v502h88v-700h-23l-468 499v-499h-88v700h24z" />
    <glyph glyph-name="Ncaron" unicode="&#x147;" horiz-adv-x="779" 
d="M550 886l-152 -136h-8l-150 136v5h83l70 -60l69 60h88v-5zM591 198v502h88v-700h-23l-468 499v-499h-88v700h24z" />
    <glyph glyph-name="uni0145" unicode="&#x145;" horiz-adv-x="779" 
d="M591 198v502h88v-700h-23l-468 499v-499h-88v700h24zM307 -218v8l52 154h87v-8l-72 -154h-67z" />
    <glyph glyph-name="Eng" unicode="&#x14a;" horiz-adv-x="779" 
d="M591 222v478h88v-634c0 -175 -117 -273 -263 -273c-18 0 -35 1 -51 4v82c17 -3 34 -4 51 -4c96 0 175 68 175 190v28l-403 424v-517h-88v700h40z" />
    <glyph glyph-name="Ntilde" unicode="&#xd1;" horiz-adv-x="779" 
d="M319 813c-29 0 -48 -22 -48 -55h-53c0 72 39 120 96 120c52 0 106 -50 146 -50c30 0 49 22 49 55h53c0 -72 -38 -117 -95 -118c-54 -1 -107 48 -148 48zM591 198v502h88v-700h-23l-468 499v-499h-88v700h24z" />
    <glyph glyph-name="O" unicode="O" horiz-adv-x="832" 
d="M416 -12c-207 0 -365 156 -365 362s160 362 365 362c209 0 365 -157 365 -362c0 -207 -162 -362 -365 -362zM416 70c153 0 275 122 275 280c0 160 -124 280 -275 280c-158 0 -275 -124 -275 -280c0 -157 118 -280 275 -280z" />
    <glyph glyph-name="Oacute" unicode="&#xd3;" horiz-adv-x="832" 
d="M440 750h-64v5l82 136h98v-3zM416 -12c-207 0 -365 156 -365 362s160 362 365 362c209 0 365 -157 365 -362c0 -207 -162 -362 -365 -362zM416 70c153 0 275 122 275 280c0 160 -124 280 -275 280c-158 0 -275 -124 -275 -280c0 -157 118 -280 275 -280z" />
    <glyph glyph-name="uni01D1" unicode="&#x1d1;" horiz-adv-x="832" 
d="M576 886l-152 -136h-8l-150 136v5h84l70 -60l68 60h88v-5zM416 712c209 0 365 -157 365 -362c0 -207 -162 -362 -365 -362c-207 0 -365 156 -365 362s160 362 365 362zM416 70c153 0 275 122 275 280c0 160 -124 280 -275 280c-158 0 -275 -124 -275 -280
c0 -157 118 -280 275 -280z" />
    <glyph glyph-name="Ocircumflex" unicode="&#xd4;" horiz-adv-x="832" 
d="M488 750l-68 60l-70 -60h-84v5l150 136h8l152 -136v-5h-88zM416 712c209 0 365 -157 365 -362c0 -207 -162 -362 -365 -362c-207 0 -365 156 -365 362s160 362 365 362zM416 70c153 0 275 122 275 280c0 160 -124 280 -275 280c-158 0 -275 -124 -275 -280
c0 -157 118 -280 275 -280z" />
    <glyph glyph-name="Odieresis" unicode="&#xd6;" horiz-adv-x="832" 
d="M316 756c-31 0 -56 25 -56 56c0 30 25 55 56 55c32 0 55 -25 55 -55c0 -31 -25 -56 -55 -56zM517 756c-31 0 -56 25 -56 56c0 30 25 55 56 55c32 0 55 -25 55 -55c0 -31 -25 -56 -55 -56zM416 -12c-207 0 -365 156 -365 362s160 362 365 362c209 0 365 -157 365 -362
c0 -207 -162 -362 -365 -362zM416 70c153 0 275 122 275 280c0 160 -124 280 -275 280c-158 0 -275 -124 -275 -280c0 -157 118 -280 275 -280z" />
    <glyph glyph-name="Ograve" unicode="&#xd2;" horiz-adv-x="832" 
d="M442 750h-65l-116 138v3h98l83 -136v-5zM416 -12c-207 0 -365 156 -365 362s160 362 365 362c209 0 365 -157 365 -362c0 -207 -162 -362 -365 -362zM416 70c153 0 275 122 275 280c0 160 -124 280 -275 280c-158 0 -275 -124 -275 -280c0 -157 118 -280 275 -280z" />
    <glyph glyph-name="Ohungarumlaut" unicode="&#x150;" horiz-adv-x="832" 
d="M370 750h-61v5l65 136h80v-3zM507 750h-61v5l65 136h81v-3zM416 -12c-207 0 -365 156 -365 362s160 362 365 362c209 0 365 -157 365 -362c0 -207 -162 -362 -365 -362zM416 70c153 0 275 122 275 280c0 160 -124 280 -275 280c-158 0 -275 -124 -275 -280
c0 -157 118 -280 275 -280z" />
    <glyph glyph-name="Omacron" unicode="&#x14c;" horiz-adv-x="832" 
d="M563 777h-293v60h293v-60zM416 -12c-207 0 -365 156 -365 362s160 362 365 362c209 0 365 -157 365 -362c0 -207 -162 -362 -365 -362zM416 70c153 0 275 122 275 280c0 160 -124 280 -275 280c-158 0 -275 -124 -275 -280c0 -157 118 -280 275 -280z" />
    <glyph glyph-name="Oslash" unicode="&#xd8;" horiz-adv-x="834" 
d="M750 687l-70 -82c64 -65 102 -154 102 -255c0 -207 -162 -362 -366 -362c-79 0 -150 23 -209 62l-71 -84l-52 42l72 84c-65 65 -104 155 -104 258c0 206 159 362 364 362c81 0 153 -23 212 -64l69 81zM142 350c0 -74 26 -141 71 -191l359 423c-44 31 -98 48 -156 48
c-157 0 -274 -124 -274 -280zM416 70c153 0 276 122 276 280c0 74 -26 139 -69 188l-360 -423c43 -28 96 -45 153 -45z" />
    <glyph glyph-name="Oslashacute" unicode="&#x1fe;" horiz-adv-x="834" 
d="M557 891v-3l-116 -138h-65v5l83 136h98zM750 687l-70 -82c64 -65 102 -154 102 -255c0 -207 -162 -362 -366 -362c-79 0 -150 23 -209 62l-71 -84l-52 42l72 84c-65 65 -104 155 -104 258c0 206 159 362 364 362c81 0 153 -23 212 -64l69 81zM142 350
c0 -74 26 -141 71 -191l359 423c-44 31 -98 48 -156 48c-157 0 -274 -124 -274 -280zM416 70c153 0 276 122 276 280c0 74 -26 139 -69 188l-360 -423c43 -28 96 -45 153 -45z" />
    <glyph glyph-name="Otilde" unicode="&#xd5;" horiz-adv-x="832" 
d="M298 758h-54c0 72 39 120 96 120c52 0 106 -50 147 -50c29 0 49 22 49 55h52c0 -72 -38 -117 -95 -118c-54 -1 -106 48 -148 48c-29 0 -47 -22 -47 -55zM416 -12c-207 0 -365 156 -365 362s160 362 365 362c209 0 365 -157 365 -362c0 -207 -162 -362 -365 -362zM416 70
c153 0 275 122 275 280c0 160 -124 280 -275 280c-158 0 -275 -124 -275 -280c0 -157 118 -280 275 -280z" />
    <glyph glyph-name="OE" unicode="&#x152;" horiz-adv-x="1140" 
d="M1089 700v-82h-309v-234h243v-81h-243v-221h309v-82h-397v120c-62 -81 -160 -132 -276 -132c-207 0 -365 156 -365 362s160 362 365 362c118 0 214 -50 276 -131v119h397zM416 70c153 0 275 122 275 280c0 160 -124 280 -275 280c-158 0 -275 -124 -275 -280
c0 -157 118 -280 275 -280z" />
    <glyph glyph-name="P" unicode="P" horiz-adv-x="614" 
d="M100 700h200c167 0 278 -88 278 -224s-111 -224 -278 -224h-112v-252h-88v700zM188 334h112c113 0 189 49 189 142s-76 142 -189 142h-112v-284z" />
    <glyph glyph-name="Thorn" unicode="&#xde;" horiz-adv-x="630" 
d="M188 575h118c167 0 278 -88 278 -224s-111 -224 -278 -224h-118v-127h-88v700h88v-125zM188 210h118c112 0 188 48 188 141s-76 142 -188 142h-118v-283z" />
    <glyph glyph-name="Q" unicode="Q" horiz-adv-x="832" 
d="M781 350c0 -190 -137 -337 -317 -359v-143h-95v143c-183 21 -318 169 -318 359c0 206 160 362 365 362c209 0 365 -157 365 -362zM416 70c153 0 275 122 275 280c0 160 -124 280 -275 280c-158 0 -275 -124 -275 -280c0 -157 118 -280 275 -280z" />
    <glyph glyph-name="R" unicode="R" horiz-adv-x="667" 
d="M595 122l19 -122h-90l-18 120c-16 101 -82 150 -167 150h-151v-270h-88v700h238c166 0 263 -79 263 -214c0 -88 -46 -152 -124 -180c49 -23 103 -82 118 -184zM188 352h150c113 0 173 52 173 135s-60 131 -173 131h-150v-266z" />
    <glyph glyph-name="Racute" unicode="&#x154;" horiz-adv-x="667" 
d="M456 891v-3l-116 -138h-65v5l83 136h98zM595 122l19 -122h-90l-18 120c-16 101 -82 150 -167 150h-151v-270h-88v700h238c166 0 263 -79 263 -214c0 -88 -46 -152 -124 -180c49 -23 103 -82 118 -184zM188 352h150c113 0 173 52 173 135s-60 131 -173 131h-150v-266z" />
    <glyph glyph-name="Rcaron" unicode="&#x158;" horiz-adv-x="667" 
d="M474 887l-152 -137h-8l-150 137v4h84l70 -60l68 60h88v-4zM595 122l19 -122h-90l-18 120c-16 101 -82 150 -167 150h-151v-270h-88v700h238c166 0 263 -79 263 -214c0 -88 -46 -152 -124 -180c49 -23 103 -82 118 -184zM188 352h150c113 0 173 52 173 135
s-60 131 -173 131h-150v-266z" />
    <glyph glyph-name="uni0156" unicode="&#x156;" horiz-adv-x="667" 
d="M595 122l19 -122h-90l-18 120c-16 101 -82 150 -167 150h-151v-270h-88v700h238c166 0 263 -79 263 -214c0 -88 -46 -152 -124 -180c49 -23 103 -82 118 -184zM188 352h150c113 0 173 52 173 135s-60 131 -173 131h-150v-266zM248 -218v8l52 154h87v-8l-73 -154h-66z" />
    <glyph glyph-name="S" unicode="S" horiz-adv-x="529" 
d="M252 -12c-74 0 -151 30 -189 68v87c44 -45 114 -71 184 -73c88 -1 147 41 147 112c0 50 -27 81 -73 100l-125 50c-94 36 -134 109 -134 188c0 114 90 192 221 192c54 0 126 -16 163 -38v-89c-40 29 -110 44 -161 45c-98 2 -134 -51 -134 -110c0 -40 16 -83 78 -112
l129 -52c76 -27 126 -88 126 -176c0 -127 -116 -192 -232 -192z" />
    <glyph glyph-name="Sacute" unicode="&#x15a;" horiz-adv-x="529" 
d="M291 750h-65v5l83 136h98v-3zM252 -12c-74 0 -151 30 -189 68v87c44 -45 114 -71 184 -73c88 -1 147 41 147 112c0 50 -27 81 -73 100l-125 50c-94 36 -134 109 -134 188c0 114 90 192 221 192c54 0 126 -16 163 -38v-89c-40 29 -110 44 -161 45
c-98 2 -134 -51 -134 -110c0 -40 16 -83 78 -112l129 -52c76 -27 126 -88 126 -176c0 -127 -116 -192 -232 -192z" />
    <glyph glyph-name="Scaron" unicode="&#x160;" horiz-adv-x="529" 
d="M427 886l-152 -136h-8l-150 136v5h84l70 -60l68 60h88v-5zM229 408l129 -52c76 -27 126 -88 126 -176c0 -127 -116 -192 -232 -192c-74 0 -151 30 -189 68v87c44 -45 114 -71 184 -73c88 -1 147 41 147 112c0 50 -27 81 -73 100l-125 50c-94 36 -134 109 -134 188
c0 114 90 192 221 192c54 0 126 -16 163 -38v-89c-40 29 -110 44 -161 45c-98 2 -134 -51 -134 -110c0 -40 16 -83 78 -112z" />
    <glyph glyph-name="Scedilla" unicode="&#x15e;" horiz-adv-x="529" 
d="M484 180c0 -116 -96 -180 -201 -190l-26 -49c11 3 26 5 38 5c50 0 83 -28 83 -69c0 -50 -56 -84 -137 -84c-15 0 -40 3 -60 7v41c13 -4 31 -7 47 -7c45 0 75 17 75 42c0 22 -22 36 -55 36c-15 0 -32 -4 -43 -9l-7 18l33 68c-67 5 -134 33 -168 67v87
c44 -45 114 -71 184 -73c88 -1 147 41 147 112c0 50 -27 81 -73 100l-125 50c-94 36 -134 109 -134 188c0 114 90 192 221 192c54 0 126 -16 163 -38v-89c-40 29 -110 44 -161 45c-98 2 -134 -51 -134 -110c0 -40 16 -83 78 -112l129 -52c76 -27 126 -88 126 -176z" />
    <glyph glyph-name="uni0218" unicode="&#x218;" horiz-adv-x="529" 
d="M252 -12c-74 0 -151 30 -189 68v87c44 -45 114 -71 184 -73c88 -1 147 41 147 112c0 50 -27 81 -73 100l-125 50c-94 36 -134 109 -134 188c0 114 90 192 221 192c54 0 126 -16 163 -38v-89c-40 29 -110 44 -161 45c-98 2 -134 -51 -134 -110c0 -40 16 -83 78 -112
l129 -52c76 -27 126 -88 126 -176c0 -127 -116 -192 -232 -192zM246 -218h-67v8l52 154h87v-8z" />
    <glyph glyph-name="uni1E9E" unicode="&#x1e9e;" horiz-adv-x="717" 
d="M625 660l-156 -234c118 -18 198 -112 198 -219c0 -116 -86 -219 -241 -219c-34 0 -123 7 -179 29v80c51 -17 132 -32 186 -27c98 8 145 77 145 144c0 87 -77 142 -205 144l-6 61l138 203c-34 5 -73 8 -106 8c-208 0 -221 -175 -221 -247v-383h-88v387
c0 93 14 325 326 325c88 0 166 -16 197 -27z" />
    <glyph glyph-name="T" unicode="T" horiz-adv-x="530" 
d="M29 700h472v-82h-191v-618h-88v618h-193v82z" />
    <glyph glyph-name="Tbar" unicode="&#x166;" horiz-adv-x="544" 
d="M509 700v-82h-191v-230h118v-69h-118v-319h-88v319h-135v69h135v230h-193v82h472z" />
    <glyph glyph-name="Tcaron" unicode="&#x164;" horiz-adv-x="530" 
d="M412 886l-151 -136h-9l-150 136v5h84l70 -60l68 60h88v-5zM29 700h472v-82h-191v-618h-88v618h-193v82z" />
    <glyph glyph-name="uni0162" unicode="&#x162;" horiz-adv-x="530" 
d="M310 618v-618h-37l-31 -59c10 3 25 5 37 5c50 0 83 -28 83 -69c0 -50 -55 -84 -137 -84c-15 0 -40 3 -60 7v41c13 -4 31 -7 47 -7c45 0 75 17 75 42c0 22 -22 36 -54 36c-16 0 -33 -4 -43 -9l-8 18l40 80v617h-193v82h472v-82h-191z" />
    <glyph glyph-name="uni021A" unicode="&#x21a;" horiz-adv-x="530" 
d="M29 700h472v-82h-191v-618h-88v618h-193v82zM165 -218v8l52 154h87v-8l-72 -154h-67z" />
    <glyph glyph-name="U" unicode="U" horiz-adv-x="761" 
d="M380 -12c-174 0 -290 126 -290 314v398h88v-399c0 -138 80 -231 204 -231c125 0 201 93 201 234v396h88v-397c0 -189 -116 -315 -291 -315z" />
    <glyph glyph-name="Uacute" unicode="&#xda;" horiz-adv-x="761" 
d="M404 750h-64v5l82 136h98v-3zM380 -12c-174 0 -290 126 -290 314v398h88v-399c0 -138 80 -231 204 -231c125 0 201 93 201 234v396h88v-397c0 -189 -116 -315 -291 -315z" />
    <glyph glyph-name="uni01D3" unicode="&#x1d3;" horiz-adv-x="761" 
d="M540 886l-152 -136h-8l-150 136v5h84l69 -60l69 60h88v-5zM583 304v396h88v-397c0 -189 -116 -315 -291 -315c-174 0 -290 126 -290 314v398h88v-399c0 -138 80 -231 204 -231c125 0 201 93 201 234z" />
    <glyph glyph-name="Ucircumflex" unicode="&#xdb;" horiz-adv-x="761" 
d="M452 750l-69 60l-69 -60h-84v5l150 136h8l152 -136v-5h-88zM583 304v396h88v-397c0 -189 -116 -315 -291 -315c-174 0 -290 126 -290 314v398h88v-399c0 -138 80 -231 204 -231c125 0 201 93 201 234z" />
    <glyph glyph-name="Udieresis" unicode="&#xdc;" horiz-adv-x="761" 
d="M280 756c-31 0 -56 25 -56 56c0 30 25 55 56 55c32 0 55 -25 55 -55c0 -31 -25 -56 -55 -56zM480 756c-30 0 -55 25 -55 56c0 30 25 55 55 55c33 0 56 -25 56 -55c0 -31 -25 -56 -56 -56zM380 -12c-174 0 -290 126 -290 314v398h88v-399c0 -138 80 -231 204 -231
c125 0 201 93 201 234v396h88v-397c0 -189 -116 -315 -291 -315z" />
    <glyph glyph-name="uni01D7" unicode="&#x1d7;" horiz-adv-x="761" 
d="M404 909h-64v5l82 136h98v-3zM280 756c-31 0 -56 25 -56 56c0 30 25 55 56 55c32 0 55 -25 55 -55c0 -31 -25 -56 -55 -56zM480 756c-30 0 -55 25 -55 56c0 30 25 55 55 55c33 0 56 -25 56 -55c0 -31 -25 -56 -56 -56zM380 -12c-174 0 -290 126 -290 314v398h88v-399
c0 -138 80 -231 204 -231c125 0 201 93 201 234v396h88v-397c0 -189 -116 -315 -291 -315z" />
    <glyph glyph-name="uni01D9" unicode="&#x1d9;" horiz-adv-x="761" 
d="M540 1046l-152 -137h-8l-150 137v4h84l69 -60l69 60h88v-4zM280 756c-31 0 -56 25 -56 56c0 30 25 55 56 55c32 0 55 -25 55 -55c0 -31 -25 -56 -55 -56zM425 812c0 30 25 55 55 55c33 0 56 -25 56 -55c0 -31 -25 -56 -56 -56c-30 0 -55 25 -55 56zM583 304v396h88v-397
c0 -189 -116 -315 -291 -315c-174 0 -290 126 -290 314v398h88v-399c0 -138 80 -231 204 -231c125 0 201 93 201 234z" />
    <glyph glyph-name="uni01DB" unicode="&#x1db;" horiz-adv-x="761" 
d="M406 909h-65l-116 138v3h98l83 -136v-5zM280 756c-31 0 -56 25 -56 56c0 30 25 55 56 55c32 0 55 -25 55 -55c0 -31 -25 -56 -55 -56zM480 756c-30 0 -55 25 -55 56c0 30 25 55 55 55c33 0 56 -25 56 -55c0 -31 -25 -56 -56 -56zM380 -12c-174 0 -290 126 -290 314v398
h88v-399c0 -138 80 -231 204 -231c125 0 201 93 201 234v396h88v-397c0 -189 -116 -315 -291 -315z" />
    <glyph glyph-name="uni01D5" unicode="&#x1d5;" horiz-adv-x="761" 
d="M527 936h-294v60h294v-60zM280 756c-31 0 -56 25 -56 56c0 30 25 55 56 55c32 0 55 -25 55 -55c0 -31 -25 -56 -55 -56zM480 756c-30 0 -55 25 -55 56c0 30 25 55 55 55c33 0 56 -25 56 -55c0 -31 -25 -56 -56 -56zM380 -12c-174 0 -290 126 -290 314v398h88v-399
c0 -138 80 -231 204 -231c125 0 201 93 201 234v396h88v-397c0 -189 -116 -315 -291 -315z" />
    <glyph glyph-name="Ugrave" unicode="&#xd9;" horiz-adv-x="761" 
d="M406 750h-65l-116 138v3h98l83 -136v-5zM380 -12c-174 0 -290 126 -290 314v398h88v-399c0 -138 80 -231 204 -231c125 0 201 93 201 234v396h88v-397c0 -189 -116 -315 -291 -315z" />
    <glyph glyph-name="Uhungarumlaut" unicode="&#x170;" horiz-adv-x="761" 
d="M334 750h-62v5l66 136h80v-3zM471 750h-61v5l65 136h81v-3zM380 -12c-174 0 -290 126 -290 314v398h88v-399c0 -138 80 -231 204 -231c125 0 201 93 201 234v396h88v-397c0 -189 -116 -315 -291 -315z" />
    <glyph glyph-name="Umacron" unicode="&#x16a;" horiz-adv-x="761" 
d="M527 777h-294v60h294v-60zM380 -12c-174 0 -290 126 -290 314v398h88v-399c0 -138 80 -231 204 -231c125 0 201 93 201 234v396h88v-397c0 -189 -116 -315 -291 -315z" />
    <glyph glyph-name="Uogonek" unicode="&#x172;" horiz-adv-x="761" 
d="M583 304v396h88v-397c0 -168 -92 -287 -235 -311c-33 -19 -52 -48 -52 -71c0 -43 28 -64 74 -64c42 0 60 10 76 19v-55c-19 -13 -57 -23 -90 -23c-73 0 -120 37 -120 97c0 36 15 68 42 93c-166 7 -276 131 -276 314v398h88v-399c0 -138 80 -231 204 -231
c125 0 201 93 201 234z" />
    <glyph glyph-name="Uring" unicode="&#x16e;" horiz-adv-x="761" 
d="M380 769c-65 1 -117 50 -117 111c0 60 52 109 117 109s117 -49 117 -109c0 -61 -52 -112 -117 -111zM380 819c36 0 64 27 64 61c0 33 -28 60 -64 60s-64 -27 -64 -60c0 -34 28 -61 64 -61zM380 -12c-174 0 -290 126 -290 314v398h88v-399c0 -138 80 -231 204 -231
c125 0 201 93 201 234v396h88v-397c0 -189 -116 -315 -291 -315z" />
    <glyph glyph-name="Utilde" unicode="&#x168;" horiz-adv-x="761" 
d="M262 758h-54c0 72 39 120 96 120c52 0 106 -50 147 -50c29 0 48 22 48 55h53c0 -72 -38 -117 -95 -118c-54 -1 -106 48 -148 48c-29 0 -47 -22 -47 -55zM380 -12c-174 0 -290 126 -290 314v398h88v-399c0 -138 80 -231 204 -231c125 0 201 93 201 234v396h88v-397
c0 -189 -116 -315 -291 -315z" />
    <glyph glyph-name="V" unicode="V" horiz-adv-x="682" 
d="M342 176l237 524h93v-8l-323 -692h-17l-321 692v8h92z" />
    <glyph glyph-name="W" unicode="W" horiz-adv-x="1081" 
d="M766 196l206 504h96v-8l-290 -692h-18l-219 481l-220 -481h-18l-290 692v8h96l206 -504l202 430h50z" />
    <glyph glyph-name="Wacute" unicode="&#x1e82;" horiz-adv-x="1081" 
d="M681 891v-3l-116 -138h-65v5l83 136h98zM766 196l206 504h96v-8l-290 -692h-18l-219 481l-220 -481h-18l-290 692v8h96l206 -504l202 430h50z" />
    <glyph glyph-name="Wcircumflex" unicode="&#x174;" horiz-adv-x="1081" 
d="M612 750l-68 60l-70 -60h-84v5l151 136h8l152 -136v-5h-89zM766 196l206 504h96v-8l-290 -692h-18l-219 481l-220 -481h-18l-290 692v8h96l206 -504l202 430h50z" />
    <glyph glyph-name="Wdieresis" unicode="&#x1e84;" horiz-adv-x="1081" 
d="M440 756c-30 0 -55 25 -55 56c0 30 25 55 55 55c32 0 56 -25 56 -55c0 -31 -25 -56 -56 -56zM641 756c-30 0 -55 25 -55 56c0 30 25 55 55 55c32 0 55 -25 55 -55c0 -31 -25 -56 -55 -56zM766 196l206 504h96v-8l-290 -692h-18l-219 481l-220 -481h-18l-290 692v8h96
l206 -504l202 430h50z" />
    <glyph glyph-name="Wgrave" unicode="&#x1e80;" horiz-adv-x="1081" 
d="M566 755v-5h-64l-116 138v3h98zM766 196l206 504h96v-8l-290 -692h-18l-219 481l-220 -481h-18l-290 692v8h96l206 -504l202 430h50z" />
    <glyph glyph-name="X" unicode="X" horiz-adv-x="564" 
d="M514 692l-180 -318l199 -366v-8h-94l-158 278l-158 -278h-94v8l204 359l-185 325v8h92l141 -247l140 247h93v-8z" />
    <glyph glyph-name="Y" unicode="Y" horiz-adv-x="686" 
d="M343 334l236 366h92v-8l-284 -433v-259h-88v258l-284 434v8h92z" />
    <glyph glyph-name="Yacute" unicode="&#xdd;" horiz-adv-x="686" 
d="M482 891v-3l-115 -138h-65v5l83 136h97zM343 334l236 366h92v-8l-284 -433v-259h-88v258l-284 434v8h92z" />
    <glyph glyph-name="Ycircumflex" unicode="&#x176;" horiz-adv-x="686" 
d="M414 750l-68 60l-70 -60h-84v5l150 136h8l152 -136v-5h-88zM343 334l236 366h92v-8l-284 -433v-259h-88v258l-284 434v8h92z" />
    <glyph glyph-name="Ydieresis" unicode="&#x178;" horiz-adv-x="686" 
d="M242 756c-31 0 -56 25 -56 56c0 30 25 55 56 55c32 0 55 -25 55 -55c0 -31 -25 -56 -55 -56zM443 756c-31 0 -56 25 -56 56c0 30 25 55 56 55c32 0 55 -25 55 -55c0 -31 -25 -56 -55 -56zM343 334l236 366h92v-8l-284 -433v-259h-88v258l-284 434v8h92z" />
    <glyph glyph-name="Ygrave" unicode="&#x1ef2;" horiz-adv-x="686" 
d="M368 755v-5h-65l-115 138v3h97zM343 334l236 366h92v-8l-284 -433v-259h-88v258l-284 434v8h92z" />
    <glyph glyph-name="uni1EF8" unicode="&#x1ef8;" horiz-adv-x="686" 
d="M272 813c-30 0 -48 -22 -48 -55h-53c0 72 38 120 95 120c53 0 106 -50 147 -50c29 0 49 22 49 55h52c0 -72 -38 -117 -95 -118c-54 -1 -106 48 -147 48zM343 334l236 366h92v-8l-284 -433v-259h-88v258l-284 434v8h92z" />
    <glyph glyph-name="Z" unicode="Z" horiz-adv-x="631" 
d="M589 684l-417 -602h425v-82h-576v17l413 601h-380v82h535v-16z" />
    <glyph glyph-name="Zacute" unicode="&#x179;" horiz-adv-x="631" 
d="M451 891v-3l-116 -138h-65v5l83 136h98zM589 684l-417 -602h425v-82h-576v17l413 601h-380v82h535v-16z" />
    <glyph glyph-name="Zcaron" unicode="&#x17d;" horiz-adv-x="631" 
d="M471 886l-152 -136h-8l-150 136v5h83l70 -60l69 60h88v-5zM589 684l-417 -602h425v-82h-576v17l413 601h-380v82h535v-16z" />
    <glyph glyph-name="Zdotaccent" unicode="&#x17b;" horiz-adv-x="631" 
d="M311 756c-30 0 -55 25 -55 56c0 30 25 55 55 55c32 0 56 -25 56 -55c0 -31 -25 -56 -56 -56zM589 684l-417 -602h425v-82h-576v17l413 601h-380v82h535v-16z" />
    <glyph glyph-name="A.alt" horiz-adv-x="727" 
d="M721 0h-91l-78 162h-378l-78 -162h-91l338 700h39zM363 554l-150 -311h300z" />
    <glyph glyph-name="Aacute.alt" horiz-adv-x="727" 
d="M509 891v-3l-116 -138h-64v5l82 136h98zM721 0h-91l-78 162h-378l-78 -162h-91l338 700h39zM363 554l-150 -311h300z" />
    <glyph glyph-name="Abreve.alt" horiz-adv-x="727" 
d="M364 750c-92 0 -161 56 -161 141h64c0 -48 33 -85 97 -85s97 37 97 85h63c0 -85 -69 -141 -160 -141zM721 0h-91l-78 162h-378l-78 -162h-91l338 700h39zM363 554l-150 -311h300z" />
    <glyph glyph-name="uni01CD.alt" horiz-adv-x="727" 
d="M519 886l-152 -136h-8l-150 136v5h83l70 -60l69 60h88v-5zM721 0h-91l-78 162h-378l-78 -162h-91l338 700h39zM363 554l-150 -311h300z" />
    <glyph glyph-name="Acircumflex.alt" horiz-adv-x="727" 
d="M431 750l-69 60l-70 -60h-83v5l150 136h8l152 -136v-5h-88zM721 0h-91l-78 162h-378l-78 -162h-91l338 700h39zM363 554l-150 -311h300z" />
    <glyph glyph-name="Adieresis.alt" horiz-adv-x="727" 
d="M263 756c-31 0 -56 25 -56 56c0 30 25 55 56 55c32 0 55 -25 55 -55c0 -31 -25 -56 -55 -56zM464 756c-31 0 -56 25 -56 56c0 30 25 55 56 55c32 0 55 -25 55 -55c0 -31 -25 -56 -55 -56zM721 0h-91l-78 162h-378l-78 -162h-91l338 700h39zM363 554l-150 -311h300z" />
    <glyph glyph-name="Agrave.alt" horiz-adv-x="727" 
d="M390 755v-5h-65l-116 138v3h98zM721 0h-91l-78 162h-378l-78 -162h-91l338 700h39zM363 554l-150 -311h300z" />
    <glyph glyph-name="Amacron.alt" horiz-adv-x="727" 
d="M217 837h294v-60h-294v60zM721 0h-91l-78 162h-378l-78 -162h-91l338 700h39zM363 554l-150 -311h300z" />
    <glyph glyph-name="Aogonek.alt" horiz-adv-x="727" 
d="M687 -142c41 0 60 10 75 19v-55c-19 -13 -56 -23 -90 -23c-72 0 -119 37 -119 97c0 49 26 88 71 116l-72 150h-378l-78 -162h-91l338 700h39l339 -700h-45c-40 -19 -64 -52 -64 -78c0 -43 28 -64 75 -64zM363 554l-150 -311h300z" />
    <glyph glyph-name="Aring.alt" horiz-adv-x="727" 
d="M721 0h-91l-78 162h-378l-78 -162h-91l323 669c-48 14 -81 56 -81 106c0 60 51 109 117 109c64 0 116 -49 116 -109c0 -51 -35 -94 -82 -108zM299 775c0 -35 28 -61 65 -61c35 0 64 26 64 61c0 33 -29 59 -64 59c-37 0 -65 -26 -65 -59zM363 554l-150 -311h300z" />
    <glyph glyph-name="Aringacute.alt" horiz-adv-x="727" 
d="M721 0h-91l-78 162h-378l-78 -162h-91l324 670c-48 15 -82 56 -82 106c0 51 36 94 88 106l67 110h98v-3l-94 -112c43 -15 74 -55 74 -101c0 -51 -35 -94 -83 -107zM299 776c0 -35 28 -61 65 -61c35 0 64 26 64 61c0 33 -29 60 -64 60c-37 0 -65 -27 -65 -60zM363 554
l-150 -311h300z" />
    <glyph glyph-name="Atilde.alt" horiz-adv-x="727" 
d="M293 813c-29 0 -48 -22 -48 -55h-53c0 72 38 120 95 120c53 0 106 -50 147 -50c30 0 49 22 49 55h53c0 -72 -38 -117 -95 -118c-55 -1 -107 48 -148 48zM721 0h-91l-78 162h-378l-78 -162h-91l338 700h39zM363 554l-150 -311h300z" />
    <glyph glyph-name="AE.alt" horiz-adv-x="882" 
d="M832 700v-82h-285v-234h238v-81h-238v-221h285v-82h-373v162h-276l-107 -162h-91l457 700h390zM459 582l-223 -339h223v339z" />
    <glyph glyph-name="AEacute.alt" horiz-adv-x="882" 
d="M743 891v-3l-116 -138h-65v5l83 136h98zM832 700v-82h-285v-234h238v-81h-238v-221h285v-82h-373v162h-276l-107 -162h-91l457 700h390zM459 582l-223 -339h223v339z" />
    <glyph glyph-name="K.alt" horiz-adv-x="652" 
d="M532 700h100v-8l-249 -342l249 -342v-8h-100l-225 307h-119v-307h-88v700h88v-312h116z" />
    <glyph glyph-name="uni0136.alt" horiz-adv-x="652" 
d="M532 700h100v-8l-249 -342l249 -342v-8h-100l-225 307h-119v-307h-88v700h88v-312h116zM255 -218v8l52 154h87v-8l-72 -154h-67z" />
    <glyph glyph-name="R.alt" horiz-adv-x="676" 
d="M469 290l163 -282v-8h-96l-153 272c-15 -1 -30 -2 -46 -2h-149v-270h-88v700h237c167 0 278 -79 278 -215c0 -95 -55 -163 -146 -195zM188 348h149c114 -1 188 54 188 137c0 84 -74 133 -188 133h-149v-270z" />
    <glyph glyph-name="Racute.alt" horiz-adv-x="676" 
d="M438 891v-3l-116 -138h-65v5l83 136h98zM469 290l163 -282v-8h-96l-153 272c-15 -1 -30 -2 -46 -2h-149v-270h-88v700h237c167 0 278 -79 278 -215c0 -95 -55 -163 -146 -195zM188 348h149c114 -1 188 54 188 137c0 84 -74 133 -188 133h-149v-270z" />
    <glyph glyph-name="Rcaron.alt" horiz-adv-x="676" 
d="M458 886l-152 -136h-8l-151 136v5h84l70 -60l68 60h89v-5zM469 290l163 -282v-8h-96l-153 272c-15 -1 -30 -2 -46 -2h-149v-270h-88v700h237c167 0 278 -79 278 -215c0 -95 -55 -163 -146 -195zM188 348h149c114 -1 188 54 188 137c0 84 -74 133 -188 133h-149v-270z" />
    <glyph glyph-name="uni0156.alt" horiz-adv-x="676" 
d="M469 290l163 -282v-8h-96l-153 272c-15 -1 -30 -2 -46 -2h-149v-270h-88v700h237c167 0 278 -79 278 -215c0 -95 -55 -163 -146 -195zM188 348h149c114 -1 188 54 188 137c0 84 -74 133 -188 133h-149v-270zM242 -218v8l52 154h87v-8l-72 -154h-67z" />
    <glyph glyph-name="a" unicode="a" horiz-adv-x="647" 
d="M477 457v53h82v-510h-82v53c-41 -38 -106 -65 -176 -65c-137 0 -254 103 -254 267s117 267 254 267c70 0 135 -27 176 -65zM312 62c57 0 121 27 165 72v242c-43 45 -106 72 -165 72c-96 0 -179 -72 -181 -193c2 -121 85 -193 181 -193z" />
    <glyph glyph-name="aacute" unicode="&#xe1;" horiz-adv-x="647" 
d="M455 762v-3l-146 -166h-66v5l111 164h101zM477 457v53h82v-510h-82v53c-41 -38 -106 -65 -176 -65c-137 0 -254 103 -254 267s117 267 254 267c70 0 135 -27 176 -65zM312 62c57 0 121 27 165 72v242c-43 45 -106 72 -165 72c-96 0 -179 -72 -181 -193
c2 -121 85 -193 181 -193z" />
    <glyph glyph-name="abreve" unicode="&#x103;" horiz-adv-x="647" 
d="M303 594c-92 0 -161 68 -161 168h63c0 -56 34 -103 98 -103c63 0 97 47 97 103h63c0 -100 -69 -168 -160 -168zM477 457v53h82v-510h-82v53c-41 -38 -106 -65 -176 -65c-137 0 -254 103 -254 267s117 267 254 267c70 0 135 -27 176 -65zM312 62c57 0 121 27 165 72v242
c-43 45 -106 72 -165 72c-96 0 -179 -72 -181 -193c2 -121 85 -193 181 -193z" />
    <glyph glyph-name="uni01CE" unicode="&#x1ce;" horiz-adv-x="647" 
d="M447 757l-152 -164h-8l-151 164v5h74l80 -82l79 82h78v-5zM477 457v53h82v-510h-82v53c-41 -38 -106 -65 -176 -65c-137 0 -254 103 -254 267s117 267 254 267c70 0 135 -27 176 -65zM312 62c57 0 121 27 165 72v242c-43 45 -106 72 -165 72c-96 0 -179 -72 -181 -193
c2 -121 85 -193 181 -193z" />
    <glyph glyph-name="acircumflex" unicode="&#xe2;" horiz-adv-x="647" 
d="M371 593l-74 77l-74 -77h-79v5l150 164h8l152 -164v-5h-83zM477 457v53h82v-510h-82v53c-41 -38 -106 -65 -176 -65c-137 0 -254 103 -254 267s117 267 254 267c70 0 135 -27 176 -65zM312 62c57 0 121 27 165 72v242c-43 45 -106 72 -165 72c-96 0 -179 -72 -181 -193
c2 -121 85 -193 181 -193z" />
    <glyph glyph-name="adieresis" unicode="&#xe4;" horiz-adv-x="647" 
d="M197 624c-30 0 -55 25 -55 56c0 30 25 55 55 55c32 0 56 -25 56 -55c0 -31 -25 -56 -56 -56zM401 624c-30 0 -55 25 -55 56c0 30 25 55 55 55c32 0 56 -25 56 -55c0 -31 -25 -56 -56 -56zM477 457v53h82v-510h-82v53c-41 -38 -106 -65 -176 -65c-137 0 -254 103 -254 267
s117 267 254 267c70 0 135 -27 176 -65zM312 62c57 0 121 27 165 72v242c-43 45 -106 72 -165 72c-96 0 -179 -72 -181 -193c2 -121 85 -193 181 -193z" />
    <glyph glyph-name="agrave" unicode="&#xe0;" horiz-adv-x="647" 
d="M345 598v-5h-66l-145 166v3h100zM477 457v53h82v-510h-82v53c-41 -38 -106 -65 -176 -65c-137 0 -254 103 -254 267s117 267 254 267c70 0 135 -27 176 -65zM312 62c57 0 121 27 165 72v242c-43 45 -106 72 -165 72c-96 0 -179 -72 -181 -193c2 -121 85 -193 181 -193z
" />
    <glyph glyph-name="amacron" unicode="&#x101;" horiz-adv-x="647" 
d="M161 711h294v-59h-294v59zM477 457v53h82v-510h-82v53c-41 -38 -106 -65 -176 -65c-137 0 -254 103 -254 267s117 267 254 267c70 0 135 -27 176 -65zM312 62c57 0 121 27 165 72v242c-43 45 -106 72 -165 72c-96 0 -179 -72 -181 -193c2 -121 85 -193 181 -193z" />
    <glyph glyph-name="aogonek" unicode="&#x105;" horiz-adv-x="647" 
d="M534 -143c42 0 60 10 76 19v-55c-19 -13 -57 -23 -91 -23c-72 0 -119 37 -119 97c0 51 29 92 77 120v38c-41 -38 -106 -65 -176 -65c-137 0 -254 103 -254 267s117 267 254 267c70 0 135 -27 176 -65v53h82v-510h-33c-41 -19 -66 -53 -66 -79c0 -43 28 -64 74 -64z
M312 62c57 0 121 27 165 72v242c-43 45 -106 72 -165 72c-96 0 -179 -72 -181 -193c2 -121 85 -193 181 -193z" />
    <glyph glyph-name="aring" unicode="&#xe5;" horiz-adv-x="647" 
d="M298 579c-65 1 -117 50 -117 111c0 60 52 109 117 109s117 -49 117 -109c0 -61 -52 -112 -117 -111zM298 750c-36 0 -64 -27 -64 -60c0 -34 28 -61 64 -61s64 27 64 61c0 33 -28 60 -64 60zM477 457v53h82v-510h-82v53c-41 -38 -106 -65 -176 -65
c-137 0 -254 103 -254 267s117 267 254 267c70 0 135 -27 176 -65zM312 62c57 0 121 27 165 72v242c-43 45 -106 72 -165 72c-96 0 -179 -72 -181 -193c2 -121 85 -193 181 -193z" />
    <glyph glyph-name="aringacute" unicode="&#x1fb;" horiz-adv-x="647" 
d="M305 577c-66 1 -117 50 -117 112c0 55 42 100 100 108l67 99h84v-11l-88 -96c41 -17 70 -55 70 -100c0 -62 -52 -113 -116 -112zM305 748c-37 0 -65 -26 -65 -59c0 -35 28 -61 65 -61c35 0 64 26 64 61c0 33 -29 59 -64 59zM477 457v53h82v-510h-82v53
c-41 -38 -106 -65 -176 -65c-137 0 -254 103 -254 267s117 267 254 267c70 0 135 -27 176 -65zM312 62c57 0 121 27 165 72v242c-43 45 -106 72 -165 72c-96 0 -179 -72 -181 -193c2 -121 85 -193 181 -193z" />
    <glyph glyph-name="atilde" unicode="&#xe3;" horiz-adv-x="647" 
d="M220 673c-30 0 -48 -22 -48 -55h-54c0 72 39 120 96 120c52 0 106 -50 147 -50c29 0 49 22 49 54h52c0 -71 -38 -118 -95 -117c-54 -1 -106 48 -147 48zM477 457v53h82v-510h-82v53c-41 -38 -106 -65 -176 -65c-137 0 -254 103 -254 267s117 267 254 267
c70 0 135 -27 176 -65zM312 62c57 0 121 27 165 72v242c-43 45 -106 72 -165 72c-96 0 -179 -72 -181 -193c2 -121 85 -193 181 -193z" />
    <glyph glyph-name="ae" unicode="&#xe6;" horiz-adv-x="962" 
d="M919 272c0 -9 -1 -19 -2 -27h-393c3 -111 77 -183 188 -183c52 0 120 18 177 44v-75c-43 -25 -119 -43 -188 -43c-103 0 -190 54 -232 136c-40 -83 -128 -136 -227 -136c-120 0 -199 68 -199 168c0 104 87 173 215 173c66 0 134 -10 182 -29c-7 91 -76 148 -176 148
c-51 0 -120 -16 -174 -42v72c46 26 124 44 195 44c85 0 162 -38 201 -101c44 62 121 101 206 101c137 0 227 -98 227 -250zM530 311h306c-4 83 -60 137 -144 137s-143 -52 -162 -137zM249 62c94 0 169 69 195 166c-35 19 -103 32 -178 32c-84 0 -139 -40 -139 -98
c0 -60 48 -100 122 -100z" />
    <glyph glyph-name="aeacute" unicode="&#x1fd;" horiz-adv-x="962" 
d="M635 762v-3l-146 -166h-66v5l111 164h101zM919 272c0 -9 -1 -19 -2 -27h-393c3 -111 77 -183 188 -183c52 0 120 18 177 44v-75c-43 -25 -119 -43 -188 -43c-103 0 -190 54 -232 136c-40 -83 -128 -136 -227 -136c-120 0 -199 68 -199 168c0 104 87 173 215 173
c66 0 134 -10 182 -29c-7 91 -76 148 -176 148c-51 0 -120 -16 -174 -42v72c46 26 124 44 195 44c85 0 162 -38 201 -101c44 62 121 101 206 101c137 0 227 -98 227 -250zM530 311h306c-4 83 -60 137 -144 137s-143 -52 -162 -137zM249 62c94 0 169 69 195 166
c-35 19 -103 32 -178 32c-84 0 -139 -40 -139 -98c0 -60 48 -100 122 -100z" />
    <glyph glyph-name="b" unicode="b" horiz-adv-x="647" 
d="M346 522c138 0 254 -103 254 -267s-116 -267 -254 -267c-70 0 -135 27 -176 66v-54h-82v750h82v-294c41 39 106 66 176 66zM336 62c96 0 179 72 181 193c-2 121 -85 193 -181 193c-59 0 -123 -28 -166 -72v-242c43 -44 108 -72 166 -72z" />
    <glyph glyph-name="c" unicode="c" horiz-adv-x="511" 
d="M325 -12c-155 0 -279 107 -279 267s124 267 279 267c52 0 99 -12 138 -34v-83h-5c-34 28 -86 43 -131 43c-108 0 -197 -77 -197 -193s89 -193 197 -193c45 0 97 15 131 43h5v-83c-39 -22 -86 -34 -138 -34z" />
    <glyph glyph-name="cacute" unicode="&#x107;" horiz-adv-x="511" 
d="M304 593h-66v5l111 164h101v-3zM325 -12c-155 0 -279 107 -279 267s124 267 279 267c52 0 99 -12 138 -34v-83h-5c-34 28 -86 43 -131 43c-108 0 -197 -77 -197 -193s89 -193 197 -193c45 0 97 15 131 43h5v-83c-39 -22 -86 -34 -138 -34z" />
    <glyph glyph-name="ccaron" unicode="&#x10d;" horiz-adv-x="511" 
d="M450 757l-152 -164h-8l-150 164v5h74l80 -83l78 83h78v-5zM327 448c-108 0 -197 -77 -197 -193s89 -193 197 -193c45 0 97 15 131 43h5v-83c-39 -22 -86 -34 -138 -34c-155 0 -279 107 -279 267s124 267 279 267c52 0 99 -12 138 -34v-83h-5c-34 28 -86 43 -131 43z" />
    <glyph glyph-name="ccedilla" unicode="&#xe7;" horiz-adv-x="511" 
d="M327 448c-108 0 -197 -77 -197 -193s89 -193 197 -193c45 0 97 15 131 43h5v-83c-37 -21 -81 -33 -130 -34l-25 -47c11 3 26 5 38 5c50 0 82 -28 82 -69c0 -50 -55 -84 -136 -84c-15 0 -40 3 -60 7v41c13 -4 31 -7 47 -7c44 0 75 17 75 42c0 22 -22 36 -55 36
c-15 0 -33 -4 -43 -9l-7 18l34 70c-135 17 -237 119 -237 264c0 160 124 267 279 267c52 0 99 -12 138 -34v-83h-5c-34 28 -86 43 -131 43z" />
    <glyph glyph-name="cdotaccent" unicode="&#x10b;" horiz-adv-x="511" 
d="M273 624c-30 0 -55 25 -55 56c0 30 25 55 55 55c33 0 56 -25 56 -55c0 -31 -25 -56 -56 -56zM325 -12c-155 0 -279 107 -279 267s124 267 279 267c52 0 99 -12 138 -34v-83h-5c-34 28 -86 43 -131 43c-108 0 -197 -77 -197 -193s89 -193 197 -193c45 0 97 15 131 43h5
v-83c-39 -22 -86 -34 -138 -34z" />
    <glyph glyph-name="d" unicode="d" horiz-adv-x="647" 
d="M477 457v293h82v-750h-82v53c-41 -38 -106 -65 -176 -65c-137 0 -254 103 -254 267s117 267 254 267c70 0 135 -27 176 -65zM312 62c57 0 121 27 165 72v242c-43 45 -106 72 -165 72c-96 0 -179 -72 -181 -193c2 -121 85 -193 181 -193z" />
    <glyph glyph-name="eth" unicode="&#xf0;" horiz-adv-x="637" 
d="M512 693l-101 -43c131 -120 175 -274 175 -394c0 -153 -119 -268 -270 -268c-150 0 -270 115 -270 268s120 266 270 266c43 0 92 -14 131 -43c-20 48 -58 96 -110 139l-141 -61l-27 54l113 48c-25 16 -52 32 -81 46l35 57c47 -21 88 -44 123 -70l126 53zM316 62
c101 0 187 84 187 194c0 109 -86 192 -187 192c-99 0 -186 -83 -186 -192c0 -110 87 -194 186 -194z" />
    <glyph glyph-name="dcaron" unicode="&#x10f;" horiz-adv-x="658" 
d="M477 457v293h82v-750h-82v53c-41 -38 -106 -65 -176 -65c-137 0 -254 103 -254 267s117 267 254 267c70 0 135 -27 176 -65zM599 570l69 180h77v-11l-80 -169h-66zM312 62c57 0 121 27 165 72v242c-43 45 -106 72 -165 72c-96 0 -179 -72 -181 -193
c2 -121 85 -193 181 -193z" />
    <glyph glyph-name="dcroat" unicode="&#x111;" horiz-adv-x="647" 
d="M559 658h74v-64h-74v-594h-82v53c-41 -38 -106 -65 -176 -65c-137 0 -254 103 -254 267s117 267 254 267c70 0 135 -27 176 -65v137h-181v64h181v92h82v-92zM312 62c57 0 121 27 165 72v242c-43 45 -106 72 -165 72c-96 0 -179 -72 -181 -193c2 -121 85 -193 181 -193z
" />
    <glyph glyph-name="e" unicode="e" horiz-adv-x="569" 
d="M526 278c0 -11 0 -20 -1 -27h-393c4 -119 83 -189 185 -189c53 0 123 18 180 44v-75c-46 -26 -122 -43 -186 -43c-167 0 -263 116 -263 271c0 165 108 263 248 263c147 0 230 -105 230 -244zM298 448c-81 0 -141 -49 -160 -131h303c-6 77 -59 131 -143 131z" />
    <glyph glyph-name="eacute" unicode="&#xe9;" horiz-adv-x="569" 
d="M456 762v-3l-146 -166h-66v5l111 164h101zM526 278c0 -11 0 -20 -1 -27h-393c4 -119 83 -189 185 -189c53 0 123 18 180 44v-75c-46 -26 -122 -43 -186 -43c-167 0 -263 116 -263 271c0 165 108 263 248 263c147 0 230 -105 230 -244zM298 448c-81 0 -141 -49 -160 -131
h303c-6 77 -59 131 -143 131z" />
    <glyph glyph-name="ecaron" unicode="&#x11b;" horiz-adv-x="569" 
d="M443 757l-152 -164h-8l-150 164v5h74l79 -82l79 82h78v-5zM526 278c0 -11 0 -20 -1 -27h-393c4 -119 83 -189 185 -189c53 0 123 18 180 44v-75c-46 -26 -122 -43 -186 -43c-167 0 -263 116 -263 271c0 165 108 263 248 263c147 0 230 -105 230 -244zM298 448
c-81 0 -141 -49 -160 -131h303c-6 77 -59 131 -143 131z" />
    <glyph glyph-name="ecircumflex" unicode="&#xea;" horiz-adv-x="569" 
d="M360 593l-73 77l-75 -77h-79v5l150 164h8l152 -164v-5h-83zM526 278c0 -11 0 -20 -1 -27h-393c4 -119 83 -189 185 -189c53 0 123 18 180 44v-75c-46 -26 -122 -43 -186 -43c-167 0 -263 116 -263 271c0 165 108 263 248 263c147 0 230 -105 230 -244zM298 448
c-81 0 -141 -49 -160 -131h303c-6 77 -59 131 -143 131z" />
    <glyph glyph-name="edieresis" unicode="&#xeb;" horiz-adv-x="569" 
d="M185 624c-31 0 -56 25 -56 56c0 30 25 55 56 55c32 0 55 -25 55 -55c0 -31 -25 -56 -55 -56zM389 624c-31 0 -56 25 -56 56c0 30 25 55 56 55c32 0 55 -25 55 -55c0 -31 -25 -56 -55 -56zM526 278c0 -11 0 -20 -1 -27h-393c4 -119 83 -189 185 -189c53 0 123 18 180 44
v-75c-46 -26 -122 -43 -186 -43c-167 0 -263 116 -263 271c0 165 108 263 248 263c147 0 230 -105 230 -244zM298 448c-81 0 -141 -49 -160 -131h303c-6 77 -59 131 -143 131z" />
    <glyph glyph-name="edotaccent" unicode="&#x117;" horiz-adv-x="569" 
d="M287 624c-30 0 -55 25 -55 56c0 30 25 55 55 55c32 0 56 -25 56 -55c0 -31 -25 -56 -56 -56zM526 278c0 -11 0 -20 -1 -27h-393c4 -119 83 -189 185 -189c53 0 123 18 180 44v-75c-46 -26 -122 -43 -186 -43c-167 0 -263 116 -263 271c0 165 108 263 248 263
c147 0 230 -105 230 -244zM298 448c-81 0 -141 -49 -160 -131h303c-6 77 -59 131 -143 131z" />
    <glyph glyph-name="egrave" unicode="&#xe8;" horiz-adv-x="569" 
d="M329 598v-5h-65l-146 166v3h100zM526 278c0 -11 0 -20 -1 -27h-393c4 -119 83 -189 185 -189c53 0 123 18 180 44v-75c-46 -26 -122 -43 -186 -43c-167 0 -263 116 -263 271c0 165 108 263 248 263c147 0 230 -105 230 -244zM298 448c-81 0 -141 -49 -160 -131h303
c-6 77 -59 131 -143 131z" />
    <glyph glyph-name="emacron" unicode="&#x113;" horiz-adv-x="569" 
d="M140 711h294v-59h-294v59zM526 278c0 -11 0 -20 -1 -27h-393c4 -119 83 -189 185 -189c53 0 123 18 180 44v-75c-46 -26 -122 -43 -186 -43c-167 0 -263 116 -263 271c0 165 108 263 248 263c147 0 230 -105 230 -244zM298 448c-81 0 -141 -49 -160 -131h303
c-6 77 -59 131 -143 131z" />
    <glyph glyph-name="eogonek" unicode="&#x119;" horiz-adv-x="569" 
d="M526 278c0 -11 0 -20 -1 -27h-393c4 -119 83 -189 185 -189c53 0 123 18 180 44v-75c-24 -13 -56 -24 -90 -32c-39 -19 -63 -52 -63 -78c0 -43 28 -64 74 -64c42 0 60 10 76 19v-55c-19 -13 -57 -23 -90 -23c-73 0 -120 37 -120 97c0 36 15 68 42 93h-15
c-167 0 -263 116 -263 271c0 165 108 263 248 263c147 0 230 -105 230 -244zM298 448c-81 0 -141 -49 -160 -131h303c-6 77 -59 131 -143 131z" />
    <glyph glyph-name="uni1EBD" unicode="&#x1ebd;" horiz-adv-x="569" 
d="M217 673c-30 0 -48 -22 -48 -55h-53c0 72 38 120 95 120c52 0 106 -50 147 -50c29 0 49 22 49 54h52c0 -71 -38 -118 -95 -117c-54 -1 -106 48 -147 48zM526 278c0 -11 0 -20 -1 -27h-393c4 -119 83 -189 185 -189c53 0 123 18 180 44v-75c-46 -26 -122 -43 -186 -43
c-167 0 -263 116 -263 271c0 165 108 263 248 263c147 0 230 -105 230 -244zM298 448c-81 0 -141 -49 -160 -131h303c-6 77 -59 131 -143 131z" />
    <glyph glyph-name="f" unicode="f" horiz-adv-x="388" 
d="M314 688c-91 0 -144 -63 -144 -161v-17h204v-70h-204v-440h-82v529c0 147 83 233 215 233c48 0 93 -9 119 -23v-74c-27 14 -67 23 -108 23z" />
    <glyph glyph-name="g" unicode="g" horiz-adv-x="658" 
d="M489 445v65h82v-453c-1 -161 -112 -264 -270 -264c-69 0 -150 19 -203 48v74c55 -29 136 -48 203 -48c112 0 188 67 188 195v3c-40 -45 -110 -77 -187 -77c-137 0 -254 103 -254 267s117 267 254 267c77 0 147 -32 187 -77zM313 62c62 0 133 33 176 84v218
c-43 52 -114 84 -176 84c-96 0 -179 -72 -181 -193c2 -121 85 -193 181 -193z" />
    <glyph glyph-name="gbreve" unicode="&#x11f;" horiz-adv-x="658" 
d="M313 594c-91 0 -160 68 -160 168h63c0 -56 33 -103 97 -103s97 47 97 103h64c0 -100 -70 -168 -161 -168zM489 445v65h82v-453c-1 -161 -112 -264 -270 -264c-69 0 -150 19 -203 48v74c55 -29 136 -48 203 -48c112 0 188 67 188 195v3c-40 -45 -110 -77 -187 -77
c-137 0 -254 103 -254 267s117 267 254 267c77 0 147 -32 187 -77zM313 62c62 0 133 33 176 84v218c-43 52 -114 84 -176 84c-96 0 -179 -72 -181 -193c2 -121 85 -193 181 -193z" />
    <glyph glyph-name="uni0123" unicode="&#x123;" horiz-adv-x="658" 
d="M438 762v-5l-111 -164h-101v3l131 166h81zM489 445v65h82v-453c-1 -161 -112 -264 -270 -264c-69 0 -150 19 -203 48v74c55 -29 136 -48 203 -48c112 0 188 67 188 195v3c-40 -45 -110 -77 -187 -77c-137 0 -254 103 -254 267s117 267 254 267c77 0 147 -32 187 -77z
M313 62c62 0 133 33 176 84v218c-43 52 -114 84 -176 84c-96 0 -179 -72 -181 -193c2 -121 85 -193 181 -193z" />
    <glyph glyph-name="gdotaccent" unicode="&#x121;" horiz-adv-x="658" 
d="M313 624c-30 0 -55 25 -55 56c0 30 25 55 55 55c32 0 56 -25 56 -55c0 -31 -25 -56 -56 -56zM489 445v65h82v-453c-1 -161 -112 -264 -270 -264c-69 0 -150 19 -203 48v74c55 -29 136 -48 203 -48c112 0 188 67 188 195v3c-40 -45 -110 -77 -187 -77
c-137 0 -254 103 -254 267s117 267 254 267c77 0 147 -32 187 -77zM313 62c62 0 133 33 176 84v218c-43 52 -114 84 -176 84c-96 0 -179 -72 -181 -193c2 -121 85 -193 181 -193z" />
    <glyph glyph-name="h" unicode="h" horiz-adv-x="610" 
d="M343 522c109 0 186 -73 186 -203v-319h-81v319c0 86 -52 129 -123 129c-62 0 -121 -39 -155 -97v-351h-82v750h82v-311c38 50 103 83 173 83z" />
    <glyph glyph-name="hbar" unicode="&#x127;" horiz-adv-x="610" 
d="M343 522c109 0 186 -73 186 -203v-319h-81v319c0 86 -52 129 -123 129c-62 0 -121 -39 -155 -97v-351h-82v594h-74v64h74v92h82v-92h190v-64h-190v-155c38 50 103 83 173 83z" />
    <glyph glyph-name="hcircumflex" unicode="&#x125;" horiz-adv-x="610" 
d="M288 797h-88l-68 60l-70 -60h-84v4l150 137h9l151 -137v-4zM343 522c109 0 186 -73 186 -203v-319h-81v319c0 86 -52 129 -123 129c-62 0 -121 -39 -155 -97v-351h-82v750h82v-311c38 50 103 83 173 83z" />
    <glyph glyph-name="i" unicode="i" horiz-adv-x="258" 
d="M129 629c-31 0 -57 26 -57 57c0 32 26 58 57 58c33 0 57 -26 57 -58c0 -31 -26 -57 -57 -57zM170 0h-82v510h82v-510z" />
    <glyph glyph-name="dotlessi" unicode="&#x131;" horiz-adv-x="258" 
d="M170 0h-82v510h82v-510z" />
    <glyph glyph-name="iacute" unicode="&#xed;" horiz-adv-x="258" 
d="M153 593h-66v5l111 164h101v-3zM170 0h-82v510h82v-510z" />
    <glyph glyph-name="uni01D0" unicode="&#x1d0;" horiz-adv-x="258" 
d="M128 680l79 82h78v-5l-152 -164h-8l-150 164v5h73zM170 0h-82v510h82v-510z" />
    <glyph glyph-name="icircumflex" unicode="&#xee;" horiz-adv-x="258" 
d="M125 762h8l152 -164v-5h-83l-74 77l-75 -77h-78v5zM170 0h-82v510h82v-510z" />
    <glyph glyph-name="idieresis" unicode="&#xef;" horiz-adv-x="258" 
d="M26 624c-30 0 -55 25 -55 56c0 30 25 55 55 55c33 0 56 -25 56 -55c0 -31 -25 -56 -56 -56zM230 624c-30 0 -55 25 -55 56c0 30 25 55 55 55c33 0 56 -25 56 -55c0 -31 -25 -56 -56 -56zM170 0h-82v510h82v-510z" />
    <glyph glyph-name="i.loclTRK" horiz-adv-x="258" 
d="M129 624c-31 0 -56 25 -56 56c0 30 25 55 56 55c32 0 55 -25 55 -55c0 -31 -25 -56 -55 -56zM170 0h-82v510h82v-510z" />
    <glyph glyph-name="igrave" unicode="&#xec;" horiz-adv-x="258" 
d="M170 593h-65l-146 166v3h100l111 -164v-5zM170 0h-82v510h82v-510z" />
    <glyph glyph-name="ij" unicode="&#x133;" horiz-adv-x="553" 
d="M129 629c-31 0 -57 26 -57 57c0 32 26 58 57 58c33 0 57 -26 57 -58c0 -31 -26 -57 -57 -57zM424 629c-31 0 -57 26 -57 57c0 32 26 58 57 58c33 0 57 -26 57 -58c0 -31 -26 -57 -57 -57zM170 0h-82v510h82v-510zM272 -207c-15 0 -34 3 -50 5v73c13 -2 27 -4 40 -4
c91 0 121 52 121 125v518h82v-528c0 -119 -63 -189 -193 -189z" />
    <glyph glyph-name="imacron" unicode="&#x12b;" horiz-adv-x="258" 
d="M276 652h-294v59h294v-59zM170 0h-82v510h82v-510z" />
    <glyph glyph-name="iogonek" unicode="&#x12f;" horiz-adv-x="259" 
d="M130 624c-31 0 -56 25 -56 56c0 30 25 55 56 55c32 0 55 -25 55 -55c0 -31 -25 -56 -55 -56zM159 -143c41 0 59 10 75 19v-55c-19 -13 -56 -23 -90 -23c-73 0 -119 37 -119 97c0 46 23 84 64 112v503h82v-510h-21c-41 -19 -66 -53 -66 -79c0 -43 28 -64 75 -64z" />
    <glyph glyph-name="itilde" unicode="&#x129;" horiz-adv-x="258" 
d="M10 618h-53c0 72 39 120 96 120c52 0 106 -50 147 -50c29 0 48 22 48 54h53c0 -71 -38 -118 -95 -117c-54 -1 -106 48 -148 48c-29 0 -48 -22 -48 -55zM170 0h-82v510h82v-510z" />
    <glyph glyph-name="j" unicode="j" horiz-adv-x="264" 
d="M135 629c-31 0 -57 26 -57 57c0 32 26 58 57 58c33 0 58 -26 58 -58c0 -31 -26 -57 -58 -57zM-17 -207c-15 0 -34 3 -49 5v73c13 -2 27 -4 39 -4c92 0 121 52 121 125v518h82v-528c0 -119 -63 -189 -193 -189z" />
    <glyph glyph-name="k" unicode="k" horiz-adv-x="515" 
d="M288 266l215 -254v-12h-96l-237 278v-278h-82v750h82v-439c113 7 189 88 211 199h85c-20 -119 -87 -201 -178 -244z" />
    <glyph glyph-name="uni0137" unicode="&#x137;" horiz-adv-x="515" 
d="M288 266l215 -254v-12h-96l-237 278v-278h-82v750h82v-439c113 7 189 88 211 199h85c-20 -119 -87 -201 -178 -244zM182 -218v8l52 154h87v-8l-73 -154h-66z" />
    <glyph glyph-name="kgreenlandic" unicode="&#x138;" horiz-adv-x="514" 
d="M290 236l205 -224v-12h-92l-233 253v-253h-82v510h82v-234c128 6 207 120 207 234h81c0 -112 -64 -236 -168 -274z" />
    <glyph glyph-name="l" unicode="l" horiz-adv-x="302" 
d="M241 -12c-96 0 -160 64 -160 175v587h82v-577c0 -73 35 -111 88 -111c13 0 27 1 40 3v-73c-16 -3 -35 -4 -50 -4z" />
    <glyph glyph-name="lacute" unicode="&#x13a;" horiz-adv-x="302" 
d="M165 800h-65v5l83 136h98v-3zM241 -12c-96 0 -160 64 -160 175v587h82v-577c0 -73 35 -111 88 -111c13 0 27 1 40 3v-73c-16 -3 -35 -4 -50 -4z" />
    <glyph glyph-name="lcaron" unicode="&#x13e;" horiz-adv-x="312" 
d="M241 -12c-96 0 -160 64 -160 175v587h82v-577c0 -73 35 -111 88 -111c13 0 27 1 40 3v-73c-16 -3 -35 -4 -50 -4zM281 570h-66l69 180h77v-11z" />
    <glyph glyph-name="uni013C" unicode="&#x13c;" horiz-adv-x="302" 
d="M241 -12c-96 0 -160 64 -160 175v587h82v-577c0 -73 35 -111 88 -111c13 0 27 1 40 3v-73c-16 -3 -35 -4 -50 -4zM172 -218h-67v8l52 154h87v-8z" />
    <glyph glyph-name="ldot" unicode="&#x140;" horiz-adv-x="316" 
d="M241 -12c-96 0 -160 64 -160 175v587h82v-577c0 -73 35 -111 88 -111c13 0 27 1 40 3v-73c-16 -3 -35 -4 -50 -4zM280 217c-32 0 -58 26 -58 58s26 58 58 58c34 0 58 -26 58 -58s-26 -58 -58 -58z" />
    <glyph glyph-name="lslash" unicode="&#x142;" horiz-adv-x="364" 
d="M287 62c13 0 27 1 40 3v-73c-16 -3 -35 -4 -50 -4c-96 0 -160 64 -160 175v111l-77 -42v80l77 42v396h82v-351l102 56v-80l-102 -56v-146c0 -73 35 -111 88 -111z" />
    <glyph glyph-name="m" unicode="m" horiz-adv-x="903" 
d="M641 522c108 0 181 -80 181 -203v-319h-82v319c0 81 -44 129 -107 129c-54 0 -107 -40 -139 -98c1 -10 2 -20 2 -31v-319h-82v319c0 81 -44 129 -107 129c-54 0 -105 -39 -137 -96v-352h-82v510h82v-70c34 48 88 82 145 82c73 0 131 -37 160 -99c35 58 106 99 166 99z
" />
    <glyph glyph-name="n" unicode="n" horiz-adv-x="610" 
d="M343 522c109 0 186 -73 186 -203v-319h-81v319c0 86 -52 129 -123 129c-62 0 -121 -39 -155 -97v-351h-82v510h82v-71c38 50 103 83 173 83z" />
    <glyph glyph-name="nacute" unicode="&#x144;" horiz-adv-x="610" 
d="M459 762v-3l-146 -166h-65v5l111 164h100zM343 522c109 0 186 -73 186 -203v-319h-81v319c0 86 -52 129 -123 129c-62 0 -121 -39 -155 -97v-351h-82v510h82v-71c38 50 103 83 173 83z" />
    <glyph glyph-name="ncaron" unicode="&#x148;" horiz-adv-x="610" 
d="M460 757l-152 -164h-8l-150 164v5h73l80 -82l79 82h78v-5zM343 522c109 0 186 -73 186 -203v-319h-81v319c0 86 -52 129 -123 129c-62 0 -121 -39 -155 -97v-351h-82v510h82v-71c38 50 103 83 173 83z" />
    <glyph glyph-name="uni0146" unicode="&#x146;" horiz-adv-x="610" 
d="M343 522c109 0 186 -73 186 -203v-319h-81v319c0 86 -52 129 -123 129c-62 0 -121 -39 -155 -97v-351h-82v510h82v-71c38 50 103 83 173 83zM221 -218v8l52 154h87v-8l-72 -154h-67z" />
    <glyph glyph-name="eng" unicode="&#x14b;" horiz-adv-x="610" 
d="M343 522c109 0 186 -73 186 -203v-337c0 -119 -63 -189 -192 -189c-16 0 -35 1 -50 4v73c13 -2 27 -3 39 -3c92 0 122 52 122 125v327c0 86 -52 129 -123 129c-62 0 -121 -39 -155 -97v-351h-82v510h82v-71c38 50 103 83 173 83z" />
    <glyph glyph-name="ntilde" unicode="&#xf1;" horiz-adv-x="610" 
d="M233 673c-29 0 -48 -22 -48 -55h-53c0 72 39 120 96 120c52 0 106 -50 147 -50c29 0 48 22 48 54h53c0 -71 -38 -118 -95 -117c-54 -1 -106 48 -148 48zM343 522c109 0 186 -73 186 -203v-319h-81v319c0 86 -52 129 -123 129c-62 0 -121 -39 -155 -97v-351h-82v510h82
v-71c38 50 103 83 173 83z" />
    <glyph glyph-name="o" unicode="o" horiz-adv-x="633" 
d="M316 -12c-150 0 -270 115 -270 268s120 266 270 266c151 0 270 -113 270 -266s-119 -268 -270 -268zM316 62c101 0 187 84 187 194c0 109 -86 192 -187 192c-99 0 -186 -83 -186 -192c0 -110 87 -194 186 -194z" />
    <glyph glyph-name="oacute" unicode="&#xf3;" horiz-adv-x="633" 
d="M326 593h-66v5l111 164h101v-3zM316 -12c-150 0 -270 115 -270 268s120 266 270 266c151 0 270 -113 270 -266s-119 -268 -270 -268zM316 62c101 0 187 84 187 194c0 109 -86 192 -187 192c-99 0 -186 -83 -186 -192c0 -110 87 -194 186 -194z" />
    <glyph glyph-name="uni01D2" unicode="&#x1d2;" horiz-adv-x="633" 
d="M472 757l-152 -164h-8l-150 164v5h74l79 -82l79 82h78v-5zM316 522c151 0 270 -113 270 -266s-119 -268 -270 -268c-150 0 -270 115 -270 268s120 266 270 266zM316 62c101 0 187 84 187 194c0 109 -86 192 -187 192c-99 0 -186 -83 -186 -192c0 -110 87 -194 186 -194z
" />
    <glyph glyph-name="ocircumflex" unicode="&#xf4;" horiz-adv-x="633" 
d="M389 593l-74 77l-74 -77h-79v5l150 164h8l152 -164v-5h-83zM316 522c151 0 270 -113 270 -266s-119 -268 -270 -268c-150 0 -270 115 -270 268s120 266 270 266zM316 62c101 0 187 84 187 194c0 109 -86 192 -187 192c-99 0 -186 -83 -186 -192c0 -110 87 -194 186 -194z
" />
    <glyph glyph-name="odieresis" unicode="&#xf6;" horiz-adv-x="633" 
d="M214 624c-31 0 -56 25 -56 56c0 30 25 55 56 55c32 0 55 -25 55 -55c0 -31 -25 -56 -55 -56zM418 624c-31 0 -56 25 -56 56c0 30 25 55 56 55c32 0 55 -25 55 -55c0 -31 -25 -56 -55 -56zM316 -12c-150 0 -270 115 -270 268s120 266 270 266c151 0 270 -113 270 -266
s-119 -268 -270 -268zM316 62c101 0 187 84 187 194c0 109 -86 192 -187 192c-99 0 -186 -83 -186 -192c0 -110 87 -194 186 -194z" />
    <glyph glyph-name="ograve" unicode="&#xf2;" horiz-adv-x="633" 
d="M374 593h-65l-146 166v3h100l111 -164v-5zM316 -12c-150 0 -270 115 -270 268s120 266 270 266c151 0 270 -113 270 -266s-119 -268 -270 -268zM316 62c101 0 187 84 187 194c0 109 -86 192 -187 192c-99 0 -186 -83 -186 -192c0 -110 87 -194 186 -194z" />
    <glyph glyph-name="ohungarumlaut" unicode="&#x151;" horiz-adv-x="633" 
d="M275 593h-61v5l80 164h81v-3zM412 593h-61v5l80 164h81v-3zM316 -12c-150 0 -270 115 -270 268s120 266 270 266c151 0 270 -113 270 -266s-119 -268 -270 -268zM316 62c101 0 187 84 187 194c0 109 -86 192 -187 192c-99 0 -186 -83 -186 -192c0 -110 87 -194 186 -194z
" />
    <glyph glyph-name="omacron" unicode="&#x14d;" horiz-adv-x="633" 
d="M463 652h-294v59h294v-59zM316 -12c-150 0 -270 115 -270 268s120 266 270 266c151 0 270 -113 270 -266s-119 -268 -270 -268zM316 62c101 0 187 84 187 194c0 109 -86 192 -187 192c-99 0 -186 -83 -186 -192c0 -110 87 -194 186 -194z" />
    <glyph glyph-name="oslash" unicode="&#xf8;" horiz-adv-x="637" 
d="M568 490l-47 -56c42 -46 67 -108 67 -178c0 -153 -120 -268 -270 -268c-53 0 -102 14 -144 39l-50 -59l-52 43l50 58c-46 48 -74 113 -74 187c0 153 119 266 270 266c56 0 108 -16 151 -43l46 54zM131 256c0 -48 17 -91 43 -124l244 286c-30 19 -64 30 -100 30
c-100 0 -187 -83 -187 -192zM318 62c100 0 186 84 186 194c0 44 -14 83 -37 115l-241 -283c27 -17 59 -26 92 -26z" />
    <glyph glyph-name="oslashacute" unicode="&#x1ff;" horiz-adv-x="637" 
d="M473 762v-3l-146 -166h-65v5l111 164h100zM568 490l-47 -56c42 -46 67 -108 67 -178c0 -153 -120 -268 -270 -268c-53 0 -102 14 -144 39l-50 -59l-52 43l50 58c-46 48 -74 113 -74 187c0 153 119 266 270 266c56 0 108 -16 151 -43l46 54zM131 256c0 -48 17 -91 43 -124
l244 286c-30 19 -64 30 -100 30c-100 0 -187 -83 -187 -192zM318 62c100 0 186 84 186 194c0 44 -14 83 -37 115l-241 -283c27 -17 59 -26 92 -26z" />
    <glyph glyph-name="otilde" unicode="&#xf5;" horiz-adv-x="633" 
d="M198 618h-54c0 72 39 120 96 120c52 0 106 -50 147 -50c29 0 49 22 49 54h52c0 -71 -38 -118 -95 -117c-54 -1 -106 48 -147 48c-30 0 -48 -22 -48 -55zM316 -12c-150 0 -270 115 -270 268s120 266 270 266c151 0 270 -113 270 -266s-119 -268 -270 -268zM316 62
c101 0 187 84 187 194c0 109 -86 192 -187 192c-99 0 -186 -83 -186 -192c0 -110 87 -194 186 -194z" />
    <glyph glyph-name="oe" unicode="&#x153;" horiz-adv-x="1025" 
d="M982 278c0 -11 -1 -20 -2 -27h-393c4 -119 83 -189 186 -189c52 0 123 18 179 44v-75c-46 -26 -122 -43 -185 -43c-105 0 -182 46 -225 119c-48 -73 -130 -119 -226 -119c-150 0 -270 115 -270 268s120 266 270 266c95 0 177 -44 225 -115c43 74 120 115 211 115
c146 0 230 -105 230 -244zM316 62c101 0 187 84 187 194c0 109 -86 192 -187 192c-99 0 -186 -83 -186 -192c0 -110 87 -194 186 -194zM754 448c-81 0 -142 -49 -161 -131h303c-6 77 -58 131 -142 131z" />
    <glyph glyph-name="p" unicode="p" horiz-adv-x="656" 
d="M355 522c136 0 254 -102 254 -267c0 -164 -117 -267 -254 -267c-77 0 -146 31 -185 75v-258h-82v705h82v-63c39 44 108 75 185 75zM345 62c95 0 179 72 180 193c-1 121 -84 193 -181 193c-63 0 -132 -32 -174 -82v-221c42 -50 112 -83 175 -83z" />
    <glyph glyph-name="thorn" unicode="&#xfe;" horiz-adv-x="647" 
d="M346 522c138 0 254 -103 254 -267s-116 -267 -254 -267c-70 0 -135 27 -176 66v-249h-82v945h82v-294c41 39 106 66 176 66zM336 62c96 0 179 72 181 193c-2 121 -85 193 -181 193c-59 0 -123 -28 -166 -72v-242c43 -44 108 -72 166 -72z" />
    <glyph glyph-name="q" unicode="q" horiz-adv-x="658" 
d="M490 443l68 67h12v-705h-82v260c-40 -45 -110 -77 -187 -77c-137 0 -254 103 -254 267s117 267 254 267c78 0 149 -33 189 -79zM312 62c62 0 133 33 176 84v218c-43 51 -114 84 -176 84c-96 0 -179 -72 -181 -193c2 -121 85 -193 181 -193z" />
    <glyph glyph-name="r" unicode="r" horiz-adv-x="381" 
d="M343 522c6 0 11 0 15 -1v-92c-8 3 -28 4 -37 4c-37 0 -100 -12 -151 -62v-371h-82v510h82v-79c35 41 100 91 173 91z" />
    <glyph glyph-name="racute" unicode="&#x155;" horiz-adv-x="381" 
d="M154 598l111 164h101v-3l-146 -166h-66v5zM170 510v-79c35 41 100 91 173 91c6 0 11 0 15 -1v-92c-8 3 -28 4 -37 4c-37 0 -100 -12 -151 -62v-371h-82v510h82z" />
    <glyph glyph-name="rcaron" unicode="&#x159;" horiz-adv-x="381" 
d="M209 680l79 82h78v-5l-152 -164h-8l-150 164v5h74zM170 510v-79c35 41 100 91 173 91c6 0 11 0 15 -1v-92c-8 3 -28 4 -37 4c-37 0 -100 -12 -151 -62v-371h-82v510h82z" />
    <glyph glyph-name="uni0157" unicode="&#x157;" horiz-adv-x="381" 
d="M343 522c6 0 11 0 15 -1v-92c-8 3 -28 4 -37 4c-37 0 -100 -12 -151 -62v-371h-82v510h82v-79c35 41 100 91 173 91zM35 -218v8l53 154h86v-8l-72 -154h-67z" />
    <glyph glyph-name="s" unicode="s" horiz-adv-x="460" 
d="M211 -12c-57 0 -127 19 -156 39v76c44 -26 115 -42 162 -42c65 0 120 28 120 75c0 40 -31 59 -72 70l-89 25c-88 24 -125 72 -125 148c0 90 88 143 191 143c56 0 113 -15 142 -34v-76c-43 25 -101 36 -147 36c-51 0 -102 -21 -102 -71c0 -33 24 -54 72 -67l79 -23
c101 -25 134 -77 134 -151c0 -97 -89 -148 -209 -148z" />
    <glyph glyph-name="sacute" unicode="&#x15b;" horiz-adv-x="460" 
d="M239 593h-66v5l111 164h101v-3zM211 -12c-57 0 -127 19 -156 39v76c44 -26 115 -42 162 -42c65 0 120 28 120 75c0 40 -31 59 -72 70l-89 25c-88 24 -125 72 -125 148c0 90 88 143 191 143c56 0 113 -15 142 -34v-76c-43 25 -101 36 -147 36c-51 0 -102 -21 -102 -71
c0 -33 24 -54 72 -67l79 -23c101 -25 134 -77 134 -151c0 -97 -89 -148 -209 -148z" />
    <glyph glyph-name="scaron" unicode="&#x161;" horiz-adv-x="460" 
d="M415 757l-151 -164h-9l-150 164v5h74l80 -82l78 82h78v-5zM207 310l79 -23c101 -25 134 -77 134 -151c0 -97 -89 -148 -209 -148c-57 0 -127 19 -156 39v76c44 -26 115 -42 162 -42c65 0 120 28 120 75c0 40 -31 59 -72 70l-89 25c-88 24 -125 72 -125 148
c0 90 88 143 191 143c56 0 113 -15 142 -34v-76c-43 25 -101 36 -147 36c-51 0 -102 -21 -102 -71c0 -33 24 -54 72 -67z" />
    <glyph glyph-name="scedilla" unicode="&#x15f;" horiz-adv-x="460" 
d="M420 136c0 -89 -75 -140 -181 -147l-25 -48c11 3 26 5 38 5c49 0 82 -28 82 -69c0 -50 -55 -84 -137 -84c-15 0 -39 3 -60 7v41c13 -4 32 -7 47 -7c45 0 75 17 75 42c0 22 -22 36 -54 36c-15 0 -33 -4 -43 -9l-8 18l34 68c-52 4 -108 21 -133 38v76
c44 -26 115 -42 162 -42c65 0 120 28 120 75c0 40 -31 59 -72 70l-89 25c-88 24 -125 72 -125 148c0 90 88 143 191 143c56 0 113 -15 142 -34v-76c-43 25 -101 36 -147 36c-51 0 -102 -21 -102 -71c0 -33 24 -54 72 -67l79 -23c101 -25 134 -77 134 -151z" />
    <glyph glyph-name="uni0219" unicode="&#x219;" horiz-adv-x="460" 
d="M211 -12c-57 0 -127 19 -156 39v76c44 -26 115 -42 162 -42c65 0 120 28 120 75c0 40 -31 59 -72 70l-89 25c-88 24 -125 72 -125 148c0 90 88 143 191 143c56 0 113 -15 142 -34v-76c-43 25 -101 36 -147 36c-51 0 -102 -21 -102 -71c0 -33 24 -54 72 -67l79 -23
c101 -25 134 -77 134 -151c0 -97 -89 -148 -209 -148zM207 -218h-67v8l52 154h87v-8z" />
    <glyph glyph-name="germandbls" unicode="&#xdf;" horiz-adv-x="633" 
d="M405 419c100 -18 183 -100 183 -212c0 -129 -94 -219 -233 -219c-44 0 -96 8 -127 22v74c19 -15 78 -22 114 -22c108 0 162 68 162 148c1 102 -90 151 -225 152v45c54 39 147 95 147 170c0 66 -50 111 -123 111c-80 0 -133 -56 -133 -141v-547h-82v548
c0 128 86 214 217 214c122 0 204 -73 204 -176c0 -76 -53 -131 -104 -167z" />
    <glyph glyph-name="t" unicode="t" horiz-adv-x="380" 
d="M283 62c28 0 55 5 78 11v-73c-24 -7 -56 -12 -90 -12c-131 0 -191 93 -191 216v391l70 59h12v-144h187v-70h-187v-234c0 -74 29 -144 121 -144z" />
    <glyph glyph-name="tbar" unicode="&#x167;" horiz-adv-x="376" 
d="M283 62c28 0 55 5 78 11v-73c-24 -7 -56 -12 -90 -12c-131 0 -191 93 -191 216v391l70 59h12v-144h187v-70h-187v-136h151v-64h-151v-34c0 -74 29 -144 121 -144z" />
    <glyph glyph-name="tcaron" unicode="&#x165;" horiz-adv-x="380" 
d="M235 590l61 160h77v-11l-70 -149h-68zM162 440v-234c0 -74 29 -144 121 -144c28 0 55 5 78 11v-73c-24 -7 -56 -12 -90 -12c-131 0 -191 93 -191 216v391l70 59h12v-144h187v-70h-187z" />
    <glyph glyph-name="uni0163" unicode="&#x163;" horiz-adv-x="380" 
d="M271 -12c-12 0 -23 1 -34 2l-26 -49c11 3 26 5 38 5c50 0 82 -28 82 -69c0 -50 -55 -84 -137 -84c-15 0 -39 3 -60 7v41c14 -4 32 -7 48 -7c44 0 74 17 74 42c0 22 -21 36 -54 36c-15 0 -33 -4 -43 -9l-8 18l41 81c-76 31 -112 107 -112 202v391l70 59h12v-144h187v-70
h-187v-234c0 -74 29 -144 121 -144c28 0 55 5 78 11v-73c-24 -7 -56 -12 -90 -12z" />
    <glyph glyph-name="uni021B" unicode="&#x21b;" horiz-adv-x="380" 
d="M283 62c28 0 55 5 78 11v-73c-24 -7 -56 -12 -90 -12c-131 0 -191 93 -191 216v391l70 59h12v-144h187v-70h-187v-234c0 -74 29 -144 121 -144zM143 -218v8l52 154h87v-8l-72 -154h-67z" />
    <glyph glyph-name="u" unicode="u" horiz-adv-x="609" 
d="M439 158v352h82v-510h-82v70c-38 -49 -103 -82 -173 -82c-109 0 -186 73 -186 203v319h82v-319c0 -86 51 -129 123 -129c61 0 120 39 154 96z" />
    <glyph glyph-name="uacute" unicode="&#xfa;" horiz-adv-x="609" 
d="M461 762v-3l-146 -166h-66v5l111 164h101zM439 158v352h82v-510h-82v70c-38 -49 -103 -82 -173 -82c-109 0 -186 73 -186 203v319h82v-319c0 -86 51 -129 123 -129c61 0 120 39 154 96z" />
    <glyph glyph-name="ubreve" unicode="&#x16d;" horiz-adv-x="609" 
d="M305 594c-91 0 -160 68 -160 168h63c0 -56 33 -103 97 -103s97 47 97 103h64c0 -100 -69 -168 -161 -168zM439 158v352h82v-510h-82v70c-38 -49 -103 -82 -173 -82c-109 0 -186 73 -186 203v319h82v-319c0 -86 51 -129 123 -129c61 0 120 39 154 96z" />
    <glyph glyph-name="uni01D4" unicode="&#x1d4;" horiz-adv-x="609" 
d="M461 757l-152 -164h-8l-150 164v5h74l79 -82l79 82h78v-5zM439 158v352h82v-510h-82v70c-38 -49 -103 -82 -173 -82c-109 0 -186 73 -186 203v319h82v-319c0 -86 51 -129 123 -129c61 0 120 39 154 96z" />
    <glyph glyph-name="ucircumflex" unicode="&#xfb;" horiz-adv-x="609" 
d="M378 593l-74 77l-74 -77h-79v5l150 164h8l152 -164v-5h-83zM439 158v352h82v-510h-82v70c-38 -49 -103 -82 -173 -82c-109 0 -186 73 -186 203v319h82v-319c0 -86 51 -129 123 -129c61 0 120 39 154 96z" />
    <glyph glyph-name="udieresis" unicode="&#xfc;" horiz-adv-x="609" 
d="M203 624c-31 0 -56 25 -56 56c0 30 25 55 56 55c32 0 55 -25 55 -55c0 -31 -25 -56 -55 -56zM407 624c-31 0 -56 25 -56 56c0 30 25 55 56 55c32 0 55 -25 55 -55c0 -31 -25 -56 -55 -56zM439 158v352h82v-510h-82v70c-38 -49 -103 -82 -173 -82c-109 0 -186 73 -186 203
v319h82v-319c0 -86 51 -129 123 -129c61 0 120 39 154 96z" />
    <glyph glyph-name="uni01D8" unicode="&#x1d8;" horiz-adv-x="609" 
d="M490 941v-3l-146 -166h-65v5l111 164h100zM203 624c-31 0 -56 25 -56 56c0 30 25 55 56 55c32 0 55 -25 55 -55c0 -31 -25 -56 -55 -56zM351 680c0 30 25 55 56 55c32 0 55 -25 55 -55c0 -31 -25 -56 -55 -56c-31 0 -56 25 -56 56zM439 158v352h82v-510h-82v70
c-38 -49 -103 -82 -173 -82c-109 0 -186 73 -186 203v319h82v-319c0 -86 51 -129 123 -129c61 0 120 39 154 96z" />
    <glyph glyph-name="uni01DA" unicode="&#x1da;" horiz-adv-x="609" 
d="M461 936l-152 -164h-8l-150 164v5h74l79 -82l79 82h78v-5zM203 624c-31 0 -56 25 -56 56c0 30 25 55 56 55c32 0 55 -25 55 -55c0 -31 -25 -56 -55 -56zM407 735c32 0 55 -25 55 -55c0 -31 -25 -56 -55 -56c-31 0 -56 25 -56 56c0 30 25 55 56 55zM439 158v352h82v-510
h-82v70c-38 -49 -103 -82 -173 -82c-109 0 -186 73 -186 203v319h82v-319c0 -86 51 -129 123 -129c61 0 120 39 154 96z" />
    <glyph glyph-name="uni01DC" unicode="&#x1dc;" horiz-adv-x="609" 
d="M335 777v-5h-65l-146 166v3h100zM147 680c0 30 25 55 56 55c32 0 55 -25 55 -55c0 -31 -25 -56 -55 -56c-31 0 -56 25 -56 56zM407 624c-31 0 -56 25 -56 56c0 30 25 55 56 55c32 0 55 -25 55 -55c0 -31 -25 -56 -55 -56zM439 158v352h82v-510h-82v70
c-38 -49 -103 -82 -173 -82c-109 0 -186 73 -186 203v319h82v-319c0 -86 51 -129 123 -129c61 0 120 39 154 96z" />
    <glyph glyph-name="uni01D6" unicode="&#x1d6;" horiz-adv-x="609" 
d="M158 889h294v-60h-294v60zM203 624c-31 0 -56 25 -56 56c0 30 25 55 56 55c32 0 55 -25 55 -55c0 -31 -25 -56 -55 -56zM407 735c32 0 55 -25 55 -55c0 -31 -25 -56 -55 -56c-31 0 -56 25 -56 56c0 30 25 55 56 55zM439 158v352h82v-510h-82v70
c-38 -49 -103 -82 -173 -82c-109 0 -186 73 -186 203v319h82v-319c0 -86 51 -129 123 -129c61 0 120 39 154 96z" />
    <glyph glyph-name="ugrave" unicode="&#xf9;" horiz-adv-x="609" 
d="M363 598v-5h-65l-146 166v3h100zM439 158v352h82v-510h-82v70c-38 -49 -103 -82 -173 -82c-109 0 -186 73 -186 203v319h82v-319c0 -86 51 -129 123 -129c61 0 120 39 154 96z" />
    <glyph glyph-name="uhungarumlaut" unicode="&#x171;" horiz-adv-x="609" 
d="M364 762v-3l-100 -166h-61v5l80 164h81zM401 593h-61v5l80 164h81v-3zM439 158v352h82v-510h-82v70c-38 -49 -103 -82 -173 -82c-109 0 -186 73 -186 203v319h82v-319c0 -86 51 -129 123 -129c61 0 120 39 154 96z" />
    <glyph glyph-name="umacron" unicode="&#x16b;" horiz-adv-x="609" 
d="M158 711h294v-59h-294v59zM439 158v352h82v-510h-82v70c-38 -49 -103 -82 -173 -82c-109 0 -186 73 -186 203v319h82v-319c0 -86 51 -129 123 -129c61 0 120 39 154 96z" />
    <glyph glyph-name="uogonek" unicode="&#x173;" horiz-adv-x="610" 
d="M522 -143c41 0 59 10 75 19v-55c-19 -13 -56 -23 -90 -23c-73 0 -119 37 -119 97c0 42 20 78 55 105h-4v70c-38 -49 -103 -82 -173 -82c-109 0 -186 73 -186 203v319h82v-319c0 -86 51 -129 123 -129c61 0 120 39 154 96v352h82v-493h9v-10l-9 -3v-4h-8
c-41 -19 -66 -53 -66 -79c0 -43 28 -64 75 -64z" />
    <glyph glyph-name="uring" unicode="&#x16f;" horiz-adv-x="609" 
d="M305 579c-65 1 -117 50 -117 111c0 60 52 109 117 109s116 -49 116 -109c0 -61 -51 -112 -116 -111zM305 750c-36 0 -65 -27 -65 -60c0 -34 29 -61 65 -61s64 27 64 61c0 33 -28 60 -64 60zM439 158v352h82v-510h-82v70c-38 -49 -103 -82 -173 -82
c-109 0 -186 73 -186 203v319h82v-319c0 -86 51 -129 123 -129c61 0 120 39 154 96z" />
    <glyph glyph-name="utilde" unicode="&#x169;" horiz-adv-x="609" 
d="M235 673c-30 0 -48 -22 -48 -55h-54c0 72 39 120 96 120c52 0 106 -50 147 -50c29 0 49 22 49 54h52c0 -71 -38 -118 -95 -117c-54 -1 -106 48 -147 48zM439 158v352h82v-510h-82v70c-38 -49 -103 -82 -173 -82c-109 0 -186 73 -186 203v319h82v-319
c0 -86 51 -129 123 -129c61 0 120 39 154 96z" />
    <glyph glyph-name="v" unicode="v" horiz-adv-x="533" 
d="M267 157l165 353h85v-7l-246 -503h-8l-247 503v7h85z" />
    <glyph glyph-name="w" unicode="w" horiz-adv-x="860" 
d="M616 164l135 346h88v-7l-209 -503h-11l-190 347l-187 -347h-12l-212 503v7h88l140 -349l169 322h26z" />
    <glyph glyph-name="wacute" unicode="&#x1e83;" horiz-adv-x="860" 
d="M584 762v-3l-146 -166h-65v5l111 164h100zM616 164l135 346h88v-7l-209 -503h-11l-190 347l-187 -347h-12l-212 503v7h88l140 -349l169 322h26z" />
    <glyph glyph-name="wcircumflex" unicode="&#x175;" horiz-adv-x="860" 
d="M502 593l-74 77l-75 -77h-78v5l150 164h8l152 -164v-5h-83zM616 164l135 346h88v-7l-209 -503h-11l-190 347l-187 -347h-12l-212 503v7h88l140 -349l169 322h26z" />
    <glyph glyph-name="wdieresis" unicode="&#x1e85;" horiz-adv-x="860" 
d="M326 624c-30 0 -55 25 -55 56c0 30 25 55 55 55c32 0 56 -25 56 -55c0 -31 -25 -56 -56 -56zM530 624c-30 0 -55 25 -55 56c0 30 25 55 55 55c33 0 56 -25 56 -55c0 -31 -25 -56 -56 -56zM616 164l135 346h88v-7l-209 -503h-11l-190 347l-187 -347h-12l-212 503v7h88
l140 -349l169 322h26z" />
    <glyph glyph-name="wgrave" unicode="&#x1e81;" horiz-adv-x="860" 
d="M487 598v-5h-66l-146 166v3h101zM616 164l135 346h88v-7l-209 -503h-11l-190 347l-187 -347h-12l-212 503v7h88l140 -349l169 322h26z" />
    <glyph glyph-name="x" unicode="x" horiz-adv-x="514" 
d="M473 503l-168 -227l200 -269v-7h-91l-157 211l-157 -211h-91v7l201 269l-169 227v7h90l126 -169l126 169h90v-7z" />
    <glyph glyph-name="y" unicode="y" horiz-adv-x="576" 
d="M292 73l175 437h86v-7l-209 -527c-37 -91 -117 -183 -258 -183c-24 0 -50 4 -71 9v74c23 -5 45 -9 66 -9c79 0 133 54 164 103l-227 533v7h89z" />
    <glyph glyph-name="yacute" unicode="&#xfd;" horiz-adv-x="576" 
d="M457 762v-3l-146 -166h-66v5l111 164h101zM292 73l175 437h86v-7l-209 -527c-37 -91 -117 -183 -258 -183c-24 0 -50 4 -71 9v74c23 -5 45 -9 66 -9c79 0 133 54 164 103l-227 533v7h89z" />
    <glyph glyph-name="ycircumflex" unicode="&#x177;" horiz-adv-x="576" 
d="M374 593l-74 77l-74 -77h-79v5l150 164h8l152 -164v-5h-83zM292 73l175 437h86v-7l-209 -527c-37 -91 -117 -183 -258 -183c-24 0 -50 4 -71 9v74c23 -5 45 -9 66 -9c79 0 133 54 164 103l-227 533v7h89z" />
    <glyph glyph-name="ydieresis" unicode="&#xff;" horiz-adv-x="576" 
d="M199 624c-31 0 -56 25 -56 56c0 30 25 55 56 55c32 0 55 -25 55 -55c0 -31 -25 -56 -55 -56zM403 624c-31 0 -56 25 -56 56c0 30 25 55 56 55c32 0 55 -25 55 -55c0 -31 -25 -56 -55 -56zM292 73l175 437h86v-7l-209 -527c-37 -91 -117 -183 -258 -183c-24 0 -50 4 -71 9
v74c23 -5 45 -9 66 -9c79 0 133 54 164 103l-227 533v7h89z" />
    <glyph glyph-name="ygrave" unicode="&#x1ef3;" horiz-adv-x="576" 
d="M359 598v-5h-65l-146 166v3h100zM292 73l175 437h86v-7l-209 -527c-37 -91 -117 -183 -258 -183c-24 0 -50 4 -71 9v74c23 -5 45 -9 66 -9c79 0 133 54 164 103l-227 533v7h89z" />
    <glyph glyph-name="uni1EF9" unicode="&#x1ef9;" horiz-adv-x="576" 
d="M231 673c-30 0 -48 -22 -48 -55h-54c0 72 39 120 96 120c52 0 106 -50 147 -50c29 0 49 22 49 54h52c0 -71 -38 -118 -95 -117c-54 -1 -106 48 -147 48zM292 73l175 437h86v-7l-209 -527c-37 -91 -117 -183 -258 -183c-24 0 -50 4 -71 9v74c23 -5 45 -9 66 -9
c79 0 133 54 164 103l-227 533v7h89z" />
    <glyph glyph-name="z" unicode="z" horiz-adv-x="508" 
d="M55 510h420v-16l-316 -420h306v-74h-432l-12 16l310 420h-276v74z" />
    <glyph glyph-name="zacute" unicode="&#x17a;" horiz-adv-x="508" 
d="M423 762v-3l-146 -166h-65v5l111 164h100zM55 510h420v-16l-316 -420h306v-74h-432l-12 16l310 420h-276v74z" />
    <glyph glyph-name="zcaron" unicode="&#x17e;" horiz-adv-x="508" 
d="M424 757l-152 -164h-8l-150 164v5h73l80 -82l79 82h78v-5zM55 510h420v-16l-316 -420h306v-74h-432l-12 16l310 420h-276v74z" />
    <glyph glyph-name="zdotaccent" unicode="&#x17c;" horiz-adv-x="508" 
d="M268 624c-31 0 -56 25 -56 56c0 30 25 55 56 55c32 0 55 -25 55 -55c0 -31 -25 -56 -55 -56zM55 510h420v-16l-316 -420h306v-74h-432l-12 16l310 420h-276v74z" />
    <glyph glyph-name="k.alt" horiz-adv-x="557" 
d="M514 499l-146 -220l167 -266v-13h-87l-148 234h-130v-234h-82v750h82v-438h129l129 198h86v-11z" />
    <glyph glyph-name="uni0137.alt" horiz-adv-x="557" 
d="M514 499l-146 -220l167 -266v-13h-87l-148 234h-130v-234h-82v750h82v-438h129l129 198h86v-11zM205 -218v8l52 154h87v-8l-73 -154h-66z" />
    <glyph glyph-name="germandbls.calt" horiz-adv-x="633" 
d="M405 419c100 -18 183 -100 183 -212c0 -129 -94 -219 -233 -219c-44 0 -96 8 -127 22v74c19 -15 78 -22 114 -22c108 0 162 68 162 148c1 102 -90 151 -225 152v45c54 39 147 95 147 170c0 66 -50 111 -123 111c-80 0 -133 -56 -133 -141v-547h-82v548
c0 128 86 214 217 214c122 0 204 -73 204 -176c0 -76 -53 -131 -104 -167z" />
    <glyph glyph-name="f_f_j" horiz-adv-x="965" 
d="M873 510v-528c0 -119 -63 -189 -193 -189c-15 0 -34 3 -49 5v73c13 -2 27 -4 39 -4c92 0 121 52 121 125v448h-259v-440h-82v440h-280v-440h-82v517c0 147 92 233 224 233c48 0 92 -9 118 -23v-74c-27 14 -67 23 -107 23c-91 0 -153 -63 -153 -161v-5h280
c2 158 85 252 217 252c72 0 131 -16 158 -44v-74c-28 28 -83 44 -147 44c-87 0 -143 -66 -146 -178h341z" />
    <glyph glyph-name="f_j" horiz-adv-x="610" 
d="M522 510v-528c0 -119 -63 -189 -193 -189c-15 0 -34 3 -50 5v73c13 -2 27 -4 39 -4c92 0 122 52 122 125v448h-270v-440h-82v504c0 162 98 258 232 258c72 0 131 -16 158 -44v-74c-28 28 -83 44 -147 44c-87 0 -158 -66 -161 -178h352z" />
    <glyph glyph-name="n_d.alt" horiz-adv-x="745" 
d="M613 533v167h71v-413h-71v35c-21 -26 -57 -42 -96 -42c-79 0 -136 59 -136 147s57 147 136 147c37 0 75 -16 96 -41zM134 477v-190h-71v281h71v-40c21 27 56 46 94 46c53 0 102 -33 102 -110v-177h-71v161c0 45 -26 67 -57 67c-27 0 -52 -16 -68 -38zM535 337
c28 0 58 13 78 34v113c-18 19 -46 34 -78 34c-51 0 -87 -36 -87 -91c0 -54 36 -90 87 -90zM672 146h-604v60h604v-60z" />
    <glyph glyph-name="r_d.alt" horiz-adv-x="624" 
d="M491 534v166h71v-413h-71v34c-22 -26 -59 -41 -95 -41c-80 0 -136 60 -136 147c0 88 56 147 136 147c37 0 73 -16 95 -40zM134 478v-191h-71v281h71v-52c23 35 58 58 90 58c4 0 7 0 9 -1v-71c-6 2 -17 3 -24 3c-24 0 -52 -9 -75 -27zM414 337c27 0 57 13 77 33v115
c-19 20 -48 33 -77 33c-51 0 -87 -36 -87 -91c0 -54 35 -90 87 -90zM556 146h-488v60h488v-60z" />
    <glyph glyph-name="s_t.alt" horiz-adv-x="570" 
d="M476 339c9 0 23 1 39 4v-56c-16 -4 -40 -7 -57 -7c-98 0 -123 73 -123 135v205l65 34h6v-87l102 1v-54h-102v-100c0 -38 17 -75 70 -75zM159 330c40 0 52 17 52 33c0 22 -17 28 -36 35l-53 17c-57 16 -65 54 -65 76c0 57 52 83 115 83c33 0 69 -8 90 -20v-51
c-22 13 -60 21 -87 21c-28 0 -51 -9 -51 -34c0 -12 5 -22 30 -30l55 -19c47 -16 70 -43 70 -80c0 -46 -35 -81 -114 -81c-38 0 -82 12 -105 26v54c27 -19 65 -30 99 -30zM508 146h-443v60h443v-60z" />
    <glyph glyph-name="t_h.alt" horiz-adv-x="619" 
d="M457 574c53 0 102 -33 102 -110v-177h-70v161c0 45 -27 67 -58 67c-25 0 -51 -15 -67 -37v-191h-72v413h72v-172c21 28 55 46 93 46zM179 280c-99 0 -123 73 -123 135v205l65 34h6v-87l102 1v-54h-102v-100c0 -38 17 -75 70 -75c9 0 23 1 39 4v-56c-17 -4 -39 -7 -57 -7z
M550 146h-488v60h488v-60z" />
    <glyph glyph-name="A.c2sc" horiz-adv-x="640" 
d="M320 569c143 0 239 -90 239 -224v-346h-86v166h-306v-166h-86v346c0 134 96 224 239 224zM167 345v-105h306v103c0 86 -61 147 -152 147s-154 -60 -154 -145z" />
    <glyph glyph-name="Aacute.c2sc" horiz-adv-x="640" 
d="M441 713v-4l-95 -109h-59v5l67 108h87zM320 569c143 0 239 -90 239 -224v-346h-86v166h-306v-166h-86v346c0 134 96 224 239 224zM167 345v-105h306v103c0 86 -61 147 -152 147s-154 -60 -154 -145z" />
    <glyph glyph-name="Abreve.c2sc" horiz-adv-x="640" 
d="M321 600c-75 0 -131 46 -131 113h54c0 -38 28 -67 77 -67c50 0 78 30 78 67h54c0 -67 -56 -113 -132 -113zM320 569c143 0 239 -90 239 -224v-346h-86v166h-306v-166h-86v346c0 134 96 224 239 224zM167 345v-105h306v103c0 86 -61 147 -152 147s-154 -60 -154 -145z" />
    <glyph glyph-name="uni01CD.c2sc" horiz-adv-x="640" 
d="M450 708l-126 -108h-7l-124 108v5h70l57 -48l57 48h73v-5zM320 569c143 0 239 -90 239 -224v-346h-86v166h-306v-166h-86v346c0 134 96 224 239 224zM167 345v-105h306v103c0 86 -61 147 -152 147s-154 -60 -154 -145z" />
    <glyph glyph-name="Acircumflex.c2sc" horiz-adv-x="640" 
d="M377 600l-57 48l-57 -48h-70v5l124 108h7l126 -108v-5h-73zM320 569c143 0 239 -90 239 -224v-346h-86v166h-306v-166h-86v346c0 134 96 224 239 224zM167 345v-105h306v103c0 86 -61 147 -152 147s-154 -60 -154 -145z" />
    <glyph glyph-name="Adieresis.c2sc" horiz-adv-x="640" 
d="M238 605c-27 0 -49 20 -49 47c0 26 22 46 49 46s49 -20 49 -46c0 -27 -22 -47 -49 -47zM406 605c-26 0 -49 20 -49 47c0 26 22 46 49 46s49 -20 49 -46c0 -27 -23 -47 -49 -47zM320 569c143 0 239 -90 239 -224v-346h-86v166h-306v-166h-86v346c0 134 96 224 239 224z
M167 345v-105h306v103c0 86 -61 147 -152 147s-154 -60 -154 -145z" />
    <glyph glyph-name="Agrave.c2sc" horiz-adv-x="640" 
d="M355 605v-5h-60l-94 109v4h87zM320 569c143 0 239 -90 239 -224v-346h-86v166h-306v-166h-86v346c0 134 96 224 239 224zM167 345v-105h306v103c0 86 -61 147 -152 147s-154 -60 -154 -145z" />
    <glyph glyph-name="Amacron.c2sc" horiz-adv-x="640" 
d="M200 677h243v-55h-243v55zM320 569c143 0 239 -90 239 -224v-346h-86v166h-306v-166h-86v346c0 134 96 224 239 224zM167 345v-105h306v103c0 86 -61 147 -152 147s-154 -60 -154 -145z" />
    <glyph glyph-name="Aogonek.c2sc" horiz-adv-x="640" 
d="M530 -110c32 0 50 9 62 16v-48c-15 -10 -46 -19 -73 -19c-60 0 -100 29 -100 78c0 36 19 68 54 91v157h-306v-166h-86v346c0 134 96 224 239 224s239 -90 239 -224v-346h-41c-29 -15 -46 -40 -46 -59c0 -33 22 -50 58 -50zM167 345v-105h306v103c0 86 -61 147 -152 147
s-154 -60 -154 -145z" />
    <glyph glyph-name="Aring.c2sc" horiz-adv-x="640" 
d="M390 561c103 -24 169 -105 169 -216v-346h-86v166h-306v-166h-86v346c0 112 67 193 173 217c-18 17 -29 40 -29 64c0 50 44 90 97 90s96 -41 96 -90c0 -25 -11 -48 -28 -65zM322 673c-28 0 -52 -21 -52 -47c0 -27 23 -48 52 -48c28 0 51 21 51 48c0 26 -23 47 -51 47z
M167 345v-105h306v103c0 86 -61 147 -152 147s-154 -60 -154 -145z" />
    <glyph glyph-name="Aringacute.c2sc" horiz-adv-x="640" 
d="M393 560c102 -25 166 -105 166 -215v-346h-86v166h-306v-166h-86v346c0 111 66 192 169 216c-16 16 -25 38 -25 62c0 43 33 79 77 87l49 79h87v-4l-73 -83c32 -15 53 -45 53 -79c0 -25 -10 -46 -25 -63zM322 670c-28 0 -52 -21 -52 -47c0 -27 23 -48 52 -48
c28 0 51 21 51 48c0 26 -23 47 -51 47zM167 345v-105h306v103c0 86 -61 147 -152 147s-154 -60 -154 -145z" />
    <glyph glyph-name="Atilde.c2sc" horiz-adv-x="640" 
d="M265 648c-24 0 -38 -17 -38 -42h-47c0 57 31 98 80 98c44 0 82 -39 119 -39c23 0 39 17 39 41h44c0 -57 -31 -95 -79 -95c-44 0 -83 37 -118 37zM320 569c143 0 239 -90 239 -224v-346h-86v166h-306v-166h-86v346c0 134 96 224 239 224zM167 345v-105h306v103
c0 86 -61 147 -152 147s-154 -60 -154 -145z" />
    <glyph glyph-name="AE.c2sc" horiz-adv-x="804" 
d="M746 560v-78h-263v-170h250v-73h-250v-161h263v-78h-349v166h-230v-167h-86l-1 338c1 132 95 223 241 223h425zM168 339v-98h229v240h-76c-92 0 -153 -57 -153 -142z" />
    <glyph glyph-name="AEacute.c2sc" horiz-adv-x="804" 
d="M553 713v-4l-94 -109h-60v5l66 108h88zM746 560v-78h-263v-170h250v-73h-250v-161h263v-78h-349v166h-230v-167h-86l-1 338c1 132 95 223 241 223h425zM168 339v-98h229v240h-76c-92 0 -153 -57 -153 -142z" />
    <glyph glyph-name="B.c2sc" horiz-adv-x="549" 
d="M378 283c64 -11 120 -64 120 -137c0 -85 -71 -146 -176 -146h-234v560h201c125 0 193 -67 193 -153c0 -64 -49 -113 -104 -124zM396 396c0 58 -46 89 -114 89h-107v-177h104c63 0 117 32 117 88zM175 75h126c62 0 111 28 111 80c0 51 -48 89 -111 89h-126v-169z" />
    <glyph glyph-name="C.c2sc" horiz-adv-x="606" 
d="M354 -10c-167 0 -307 118 -307 288c0 159 124 292 306 292c77 0 157 -26 206 -60v-84h-7c-47 38 -124 65 -191 65c-127 0 -226 -96 -226 -213c0 -119 104 -209 226 -209c68 0 144 27 191 65h7v-84c-50 -35 -131 -60 -205 -60z" />
    <glyph glyph-name="Cacute.c2sc" horiz-adv-x="606" 
d="M356 600h-59v5l67 108h87v-4zM354 -10c-167 0 -307 118 -307 288c0 159 124 292 306 292c77 0 157 -26 206 -60v-84h-7c-47 38 -124 65 -191 65c-127 0 -226 -96 -226 -213c0 -119 104 -209 226 -209c68 0 144 27 191 65h7v-84c-50 -35 -131 -60 -205 -60z" />
    <glyph glyph-name="Ccaron.c2sc" horiz-adv-x="606" 
d="M463 708l-125 -108h-7l-125 108v5h71l57 -48l57 48h72v-5zM361 491c-127 0 -226 -96 -226 -213c0 -119 104 -209 226 -209c68 0 144 27 191 65h7v-84c-50 -35 -131 -60 -205 -60c-167 0 -307 118 -307 288c0 159 124 292 306 292c77 0 157 -26 206 -60v-84h-7
c-47 38 -124 65 -191 65z" />
    <glyph glyph-name="Ccedilla.c2sc" horiz-adv-x="606" 
d="M361 491c-127 0 -226 -96 -226 -213c0 -119 104 -209 226 -209c68 0 144 27 191 65h7v-84c-50 -35 -131 -60 -205 -60h-11l-21 -36c9 3 23 5 32 5c41 0 69 -23 69 -57c0 -41 -47 -70 -117 -70c-14 0 -36 3 -55 7v36c13 -4 33 -6 45 -6c35 0 59 13 59 33
c0 16 -19 28 -46 28c-10 0 -25 -2 -34 -6l-8 15l30 56c-140 23 -250 133 -250 283c0 159 124 292 306 292c77 0 157 -26 206 -60v-84h-7c-47 38 -124 65 -191 65z" />
    <glyph glyph-name="Cdotaccent.c2sc" horiz-adv-x="606" 
d="M331 605c-26 0 -49 20 -49 47s22 47 49 47c29 0 50 -20 50 -47c0 -26 -22 -47 -50 -47zM354 -10c-167 0 -307 118 -307 288c0 159 124 292 306 292c77 0 157 -26 206 -60v-84h-7c-47 38 -124 65 -191 65c-127 0 -226 -96 -226 -213c0 -119 104 -209 226 -209
c68 0 144 27 191 65h7v-84c-50 -35 -131 -60 -205 -60z" />
    <glyph glyph-name="D.c2sc" horiz-adv-x="598" 
d="M88 560h182c171 0 279 -116 279 -280c0 -165 -112 -280 -279 -280h-182v560zM175 78h94c117 0 192 83 192 202c0 120 -77 202 -192 202h-94v-404z" />
    <glyph glyph-name="Eth.c2sc" horiz-adv-x="607" 
d="M97 560h183c170 0 278 -116 278 -280c0 -165 -112 -280 -278 -280h-183v249h-72v61h72v250zM184 78h95c116 0 191 83 191 202c0 120 -77 202 -191 202h-95v-172h169v-61h-169v-171z" />
    <glyph glyph-name="Dcaron.c2sc" horiz-adv-x="598" 
d="M425 708l-126 -108h-7l-124 108v5h69l58 -48l57 48h73v-5zM88 560h182c171 0 279 -116 279 -280c0 -165 -112 -280 -279 -280h-182v560zM175 78h94c117 0 192 83 192 202c0 120 -77 202 -192 202h-94v-404z" />
    <glyph glyph-name="Dcroat.c2sc" horiz-adv-x="607" 
d="M97 560h183c170 0 278 -116 278 -280c0 -165 -112 -280 -278 -280h-183v249h-72v61h72v250zM184 78h95c116 0 191 83 191 202c0 120 -77 202 -191 202h-95v-172h169v-61h-169v-171z" />
    <glyph glyph-name="E.c2sc" horiz-adv-x="472" 
d="M422 560v-78h-247v-169h196v-75h-196v-160h247v-78h-334v560h334z" />
    <glyph glyph-name="Eacute.c2sc" horiz-adv-x="472" 
d="M372 713v-4l-95 -109h-59v5l67 108h87zM422 560v-78h-247v-169h196v-75h-196v-160h247v-78h-334v560h334z" />
    <glyph glyph-name="Ecaron.c2sc" horiz-adv-x="472" 
d="M384 708l-125 -108h-7l-125 108v5h71l57 -48l57 48h72v-5zM422 560v-78h-247v-169h196v-75h-196v-160h247v-78h-334v560h334z" />
    <glyph glyph-name="Ecircumflex.c2sc" horiz-adv-x="472" 
d="M311 600l-57 48l-57 -48h-70v5l124 108h8l125 -108v-5h-73zM422 560v-78h-247v-169h196v-75h-196v-160h247v-78h-334v560h334z" />
    <glyph glyph-name="Edieresis.c2sc" horiz-adv-x="472" 
d="M168 605c-26 0 -49 20 -49 47c0 26 22 46 49 46c28 0 49 -20 49 -46c0 -27 -22 -47 -49 -47zM336 605c-26 0 -49 20 -49 47c0 26 22 46 49 46c28 0 49 -20 49 -46c0 -27 -23 -47 -49 -47zM422 560v-78h-247v-169h196v-75h-196v-160h247v-78h-334v560h334z" />
    <glyph glyph-name="Edotaccent.c2sc" horiz-adv-x="472" 
d="M252 605c-27 0 -49 20 -49 47s22 47 49 47c29 0 50 -20 50 -47c0 -26 -22 -47 -50 -47zM422 560v-78h-247v-169h196v-75h-196v-160h247v-78h-334v560h334z" />
    <glyph glyph-name="Egrave.c2sc" horiz-adv-x="472" 
d="M277 605v-5h-59l-95 109v4h88zM422 560v-78h-247v-169h196v-75h-196v-160h247v-78h-334v560h334z" />
    <glyph glyph-name="Emacron.c2sc" horiz-adv-x="472" 
d="M131 677h243v-55h-243v55zM422 560v-78h-247v-169h196v-75h-196v-160h247v-78h-334v560h334z" />
    <glyph glyph-name="Eogonek.c2sc" horiz-adv-x="472" 
d="M422 560v-78h-247v-169h196v-75h-196v-160h247v-78h-83c-31 -15 -50 -41 -50 -61c0 -33 23 -49 59 -49c32 0 50 9 61 15v-48c-16 -11 -46 -19 -73 -19c-60 0 -99 30 -99 79c0 33 16 62 44 83h-193v560h334z" />
    <glyph glyph-name="uni1EBC.c2sc" horiz-adv-x="472" 
d="M195 648c-24 0 -39 -17 -39 -42h-46c0 58 31 98 79 98c44 0 83 -39 119 -39c23 0 39 17 39 41h45c0 -57 -31 -95 -79 -95c-45 0 -83 37 -118 37zM422 560v-78h-247v-169h196v-75h-196v-160h247v-78h-334v560h334z" />
    <glyph glyph-name="F.c2sc" horiz-adv-x="458" 
d="M422 560v-78h-247v-172h196v-74h-196v-236h-87v560h334z" />
    <glyph glyph-name="G.c2sc" horiz-adv-x="638" 
d="M330 223v72h252v-239c-67 -43 -157 -66 -235 -66c-169 0 -300 122 -300 288c0 174 137 292 302 292c77 0 159 -26 206 -66v-85h-7c-48 43 -125 73 -196 73c-117 0 -217 -88 -217 -215c0 -118 93 -209 213 -209c65 0 123 14 155 36v119h-173z" />
    <glyph glyph-name="Gbreve.c2sc" horiz-adv-x="638" 
d="M332 600c-74 0 -131 45 -131 113h54c0 -37 27 -66 77 -66s77 29 77 66h55c0 -68 -57 -113 -132 -113zM330 223v72h252v-239c-67 -43 -157 -66 -235 -66c-169 0 -300 122 -300 288c0 174 137 292 302 292c77 0 159 -26 206 -66v-85h-7c-48 43 -125 73 -196 73
c-117 0 -217 -88 -217 -215c0 -118 93 -209 213 -209c65 0 123 14 155 36v119h-173z" />
    <glyph glyph-name="uni0122.c2sc" horiz-adv-x="638" 
d="M330 223v72h252v-239c-67 -43 -157 -66 -235 -66c-169 0 -300 122 -300 288c0 174 137 292 302 292c77 0 159 -26 206 -66v-85h-7c-48 43 -125 73 -196 73c-117 0 -217 -88 -217 -215c0 -118 93 -209 213 -209c65 0 123 14 155 36v119h-173zM261 -174v6l43 124h84v-7
l-67 -123h-60z" />
    <glyph glyph-name="Gdotaccent.c2sc" horiz-adv-x="638" 
d="M332 604c-27 0 -50 20 -50 48c0 27 23 47 50 47c29 0 50 -20 50 -47s-22 -48 -50 -48zM330 223v72h252v-239c-67 -43 -157 -66 -235 -66c-169 0 -300 122 -300 288c0 174 137 292 302 292c77 0 159 -26 206 -66v-85h-7c-48 43 -125 73 -196 73c-117 0 -217 -88 -217 -215
c0 -118 93 -209 213 -209c65 0 123 14 155 36v119h-173z" />
    <glyph glyph-name="H.c2sc" horiz-adv-x="677" 
d="M503 314v246h86v-560h-86v236h-328v-236h-87v560h87v-246h328z" />
    <glyph glyph-name="Hbar.c2sc" horiz-adv-x="684" 
d="M592 460h57v-56h-57v-404h-86v236h-328v-236h-86v404h-56v56h56v100h86v-100h328v100h86v-100zM178 314h328v90h-328v-90z" />
    <glyph glyph-name="Hcircumflex.c2sc" horiz-adv-x="677" 
d="M398 600l-57 48l-57 -48h-70v5l124 108h8l125 -108v-5h-73zM503 314v246h86v-560h-86v236h-328v-236h-87v560h87v-246h328z" />
    <glyph glyph-name="I.c2sc" horiz-adv-x="263" 
d="M175 0h-87v560h87v-560z" />
    <glyph glyph-name="IJ.c2sc" horiz-adv-x="777" 
d="M175 0h-87v560h87v-560zM430 483v77h266v-345c0 -142 -97 -225 -216 -225c-135 0 -217 83 -217 210v20h81v-13c0 -87 50 -138 135 -138c71 0 131 53 131 143v271h-180z" />
    <glyph glyph-name="Iacute.c2sc" horiz-adv-x="263" 
d="M155 600h-59v5l66 108h88v-4zM175 0h-87v560h87v-560z" />
    <glyph glyph-name="uni01CF.c2sc" horiz-adv-x="263" 
d="M130 666l56 47h73v-5l-125 -108h-7l-124 108v5h70zM175 0h-87v560h87v-560z" />
    <glyph glyph-name="Icircumflex.c2sc" horiz-adv-x="263" 
d="M127 713h7l125 -108v-5h-73l-56 47l-57 -47h-70v5zM175 0h-87v560h87v-560z" />
    <glyph glyph-name="Idieresis.c2sc" horiz-adv-x="263" 
d="M48 605c-27 0 -50 20 -50 47c0 26 23 46 50 46s49 -20 49 -46c0 -27 -23 -47 -49 -47zM215 605c-27 0 -49 20 -49 47c0 26 22 46 49 46c28 0 49 -20 49 -46c0 -27 -22 -47 -49 -47zM175 0h-87v560h87v-560z" />
    <glyph glyph-name="Idotaccent.c2sc" horiz-adv-x="263" 
d="M132 605c-28 0 -50 21 -50 47c0 27 22 47 50 47s49 -20 49 -47s-22 -47 -49 -47zM175 0h-87v560h87v-560z" />
    <glyph glyph-name="Igrave.c2sc" horiz-adv-x="263" 
d="M167 600h-60l-94 109v4h88l66 -108v-5zM175 0h-87v560h87v-560z" />
    <glyph glyph-name="Imacron.c2sc" horiz-adv-x="263" 
d="M253 622h-243v55h243v-55zM175 0h-87v560h87v-560z" />
    <glyph glyph-name="Iogonek.c2sc" horiz-adv-x="263" 
d="M154 -110c32 0 50 9 63 16v-48c-16 -10 -47 -19 -74 -19c-61 0 -100 30 -100 78c0 33 16 62 45 84v559h87v-560h-31c-31 -15 -48 -40 -48 -60c0 -33 22 -50 58 -50z" />
    <glyph glyph-name="Itilde.c2sc" horiz-adv-x="263" 
d="M36 606h-46c0 58 31 98 79 98c44 0 83 -39 118 -39c23 0 40 17 40 41h45c0 -57 -31 -95 -79 -95c-45 0 -83 37 -119 37c-23 0 -38 -17 -38 -42zM175 0h-87v560h87v-560z" />
    <glyph glyph-name="J.c2sc" horiz-adv-x="547" 
d="M200 483v77h266v-345c0 -142 -98 -225 -216 -225c-136 0 -217 84 -217 210v20h80v-13c0 -88 51 -138 136 -138c70 0 130 53 130 143v271h-179z" />
    <glyph glyph-name="K.c2sc" horiz-adv-x="547" 
d="M296 259l228 -248v-11h-104l-245 268v-268h-87v560h87v-265c124 10 234 149 234 265h88c0 -114 -84 -248 -201 -301z" />
    <glyph glyph-name="uni0136.c2sc" horiz-adv-x="547" 
d="M296 259l228 -248v-11h-104l-245 268v-268h-87v560h87v-265c124 10 234 149 234 265h88c0 -114 -84 -248 -201 -301zM205 -174v7l44 123h83v-6l-67 -124h-60z" />
    <glyph glyph-name="L.c2sc" horiz-adv-x="449" 
d="M175 560v-481h243v-79h-330v560h87z" />
    <glyph glyph-name="Lacute.c2sc" horiz-adv-x="449" 
d="M254 713v-4l-95 -109h-59v5l66 108h88zM175 560v-481h243v-79h-330v560h87z" />
    <glyph glyph-name="Lcaron.c2sc" horiz-adv-x="451" 
d="M392 600v-9l-64 -138h-60l53 147h71zM175 560v-481h243v-79h-330v560h87z" />
    <glyph glyph-name="uni013B.c2sc" horiz-adv-x="449" 
d="M175 560v-481h243v-79h-330v560h87zM154 -174v6l45 124h82v-7l-66 -123h-61z" />
    <glyph glyph-name="Ldot.c2sc" horiz-adv-x="451" 
d="M175 560v-481h243v-79h-330v560h87zM315 229c-28 0 -51 22 -51 50s23 50 51 50c29 0 51 -22 51 -50s-24 -50 -51 -50z" />
    <glyph glyph-name="Lslash.c2sc" horiz-adv-x="476" 
d="M201 247v-168h245v-79h-331v202l-69 -36v71l69 36v287h86v-243l123 64v-70z" />
    <glyph glyph-name="M.c2sc" horiz-adv-x="796" 
d="M660 560l89 -560h-83l-60 373l-200 -333h-16l-200 332l-60 -372h-83l90 560h24l237 -389l236 389h26z" />
    <glyph glyph-name="N.c2sc" horiz-adv-x="653" 
d="M478 180v380h86v-560h-20l-369 375v-375h-87v560h21z" />
    <glyph glyph-name="Nacute.c2sc" horiz-adv-x="653" 
d="M446 713v-4l-94 -109h-60v5l66 108h88zM478 180v380h86v-560h-20l-369 375v-375h-87v560h21z" />
    <glyph glyph-name="Ncaron.c2sc" horiz-adv-x="653" 
d="M459 708l-126 -108h-7l-124 108v5h69l58 -47l57 47h73v-5zM478 180v380h86v-560h-20l-369 375v-375h-87v560h21z" />
    <glyph glyph-name="uni0145.c2sc" horiz-adv-x="653" 
d="M478 180v380h86v-560h-20l-369 375v-375h-87v560h21zM252 -174v6l44 124h83v-7l-67 -123h-60z" />
    <glyph glyph-name="Eng.c2sc" horiz-adv-x="653" 
d="M478 200v360h86v-505c0 -144 -95 -221 -213 -221c-14 0 -28 1 -45 4v76c13 -2 28 -4 39 -4c74 0 133 53 133 142v32l-303 305v-389h-87v560h32z" />
    <glyph glyph-name="Ntilde.c2sc" horiz-adv-x="653" 
d="M268 648c-23 0 -38 -17 -38 -42h-46c0 57 31 98 80 98c44 0 82 -39 118 -39c23 0 40 17 40 41h44c0 -57 -31 -95 -79 -95c-44 0 -83 37 -119 37zM478 180v380h86v-560h-20l-369 375v-375h-87v560h21z" />
    <glyph glyph-name="O.c2sc" horiz-adv-x="688" 
d="M344 -10c-169 0 -297 126 -297 290s130 290 297 290c170 0 297 -126 297 -290c0 -165 -131 -290 -297 -290zM344 69c117 0 209 93 209 211c0 120 -93 211 -209 211c-120 0 -209 -94 -209 -211c0 -118 90 -211 209 -211z" />
    <glyph glyph-name="Oacute.c2sc" horiz-adv-x="688" 
d="M369 600h-59v5l67 108h87v-4zM344 -10c-169 0 -297 126 -297 290s130 290 297 290c170 0 297 -126 297 -290c0 -165 -131 -290 -297 -290zM344 69c117 0 209 93 209 211c0 120 -93 211 -209 211c-120 0 -209 -94 -209 -211c0 -118 90 -211 209 -211z" />
    <glyph glyph-name="uni01D1.c2sc" horiz-adv-x="688" 
d="M476 708l-125 -108h-7l-125 108v5h71l57 -48l57 48h72v-5zM344 570c170 0 297 -126 297 -290c0 -165 -131 -290 -297 -290c-169 0 -297 126 -297 290s130 290 297 290zM344 69c117 0 209 93 209 211c0 120 -93 211 -209 211c-120 0 -209 -94 -209 -211
c0 -118 90 -211 209 -211z" />
    <glyph glyph-name="Ocircumflex.c2sc" horiz-adv-x="688" 
d="M403 600l-57 48l-57 -48h-70v5l124 108h8l125 -108v-5h-73zM344 570c170 0 297 -126 297 -290c0 -165 -131 -290 -297 -290c-169 0 -297 126 -297 290s130 290 297 290zM344 69c117 0 209 93 209 211c0 120 -93 211 -209 211c-120 0 -209 -94 -209 -211
c0 -118 90 -211 209 -211z" />
    <glyph glyph-name="Odieresis.c2sc" horiz-adv-x="688" 
d="M260 605c-26 0 -49 20 -49 47c0 26 22 46 49 46s49 -20 49 -46c0 -27 -22 -47 -49 -47zM428 605c-26 0 -50 20 -50 47c0 26 24 46 50 46c28 0 49 -20 49 -46c0 -27 -23 -47 -49 -47zM344 -10c-169 0 -297 126 -297 290s130 290 297 290c170 0 297 -126 297 -290
c0 -165 -131 -290 -297 -290zM344 69c117 0 209 93 209 211c0 120 -93 211 -209 211c-120 0 -209 -94 -209 -211c0 -118 90 -211 209 -211z" />
    <glyph glyph-name="Ograve.c2sc" horiz-adv-x="688" 
d="M369 600h-59l-95 109v4h88l66 -108v-5zM344 -10c-169 0 -297 126 -297 290s130 290 297 290c170 0 297 -126 297 -290c0 -165 -131 -290 -297 -290zM344 69c117 0 209 93 209 211c0 120 -93 211 -209 211c-120 0 -209 -94 -209 -211c0 -118 90 -211 209 -211z" />
    <glyph glyph-name="Ohungarumlaut.c2sc" horiz-adv-x="688" 
d="M312 600h-52v5l53 108h66v-4zM424 600h-52v5l54 108h65v-4zM344 -10c-169 0 -297 126 -297 290s130 290 297 290c170 0 297 -126 297 -290c0 -165 -131 -290 -297 -290zM344 69c117 0 209 93 209 211c0 120 -93 211 -209 211c-120 0 -209 -94 -209 -211
c0 -118 90 -211 209 -211z" />
    <glyph glyph-name="Omacron.c2sc" horiz-adv-x="688" 
d="M466 622h-243v55h243v-55zM344 -10c-169 0 -297 126 -297 290s130 290 297 290c170 0 297 -126 297 -290c0 -165 -131 -290 -297 -290zM344 69c117 0 209 93 209 211c0 120 -93 211 -209 211c-120 0 -209 -94 -209 -211c0 -118 90 -211 209 -211z" />
    <glyph glyph-name="Oslash.c2sc" horiz-adv-x="690" 
d="M616 549l-56 -65c51 -52 82 -124 82 -204c0 -165 -132 -290 -297 -290c-64 0 -121 18 -168 48l-58 -67l-43 36l57 66c-53 52 -85 125 -85 207c0 164 129 290 297 290c65 0 123 -18 171 -50l55 64zM136 280c0 -55 20 -105 53 -142l272 318c-33 22 -73 35 -116 35
c-120 0 -209 -94 -209 -211zM345 69c116 0 208 93 208 211c0 54 -19 102 -50 138l-272 -316c33 -21 71 -33 114 -33z" />
    <glyph glyph-name="Oslashacute.c2sc" horiz-adv-x="690" 
d="M465 713v-4l-95 -109h-59v5l66 108h88zM616 549l-56 -65c51 -52 82 -124 82 -204c0 -165 -132 -290 -297 -290c-64 0 -121 18 -168 48l-58 -67l-43 36l57 66c-53 52 -85 125 -85 207c0 164 129 290 297 290c65 0 123 -18 171 -50l55 64zM136 280c0 -55 20 -105 53 -142
l272 318c-33 22 -73 35 -116 35c-120 0 -209 -94 -209 -211zM345 69c116 0 208 93 208 211c0 54 -19 102 -50 138l-272 -316c33 -21 71 -33 114 -33z" />
    <glyph glyph-name="Otilde.c2sc" horiz-adv-x="688" 
d="M248 606h-46c0 58 31 98 79 98c44 0 83 -39 118 -39c24 0 40 17 40 41h45c0 -57 -31 -95 -79 -95c-45 0 -83 37 -119 37c-23 0 -38 -17 -38 -42zM344 -10c-169 0 -297 126 -297 290s130 290 297 290c170 0 297 -126 297 -290c0 -165 -131 -290 -297 -290zM344 69
c117 0 209 93 209 211c0 120 -93 211 -209 211c-120 0 -209 -94 -209 -211c0 -118 90 -211 209 -211z" />
    <glyph glyph-name="OE.c2sc" horiz-adv-x="937" 
d="M887 560v-78h-247v-169h194v-75h-194v-160h247v-78h-327v88c-50 -61 -125 -98 -216 -98c-169 0 -297 126 -297 290s130 290 297 290c92 0 167 -37 216 -97v87h327zM344 69c117 0 209 92 209 211c0 121 -94 211 -209 211c-120 0 -209 -93 -209 -211s90 -211 209 -211z" />
    <glyph glyph-name="P.c2sc" horiz-adv-x="512" 
d="M88 560h165c134 0 224 -73 224 -182c0 -108 -90 -183 -224 -183h-78v-195h-87v560zM175 270h73c85 -1 141 38 141 107c0 68 -57 107 -141 107h-73v-214z" />
    <glyph glyph-name="Thorn.c2sc" horiz-adv-x="538" 
d="M175 464h95c134 0 224 -73 224 -182c0 -110 -90 -183 -224 -183h-95v-99h-87v560h87v-96zM175 176h89c85 0 142 37 142 106c0 68 -57 105 -142 105h-89v-211z" />
    <glyph glyph-name="Q.c2sc" horiz-adv-x="688" 
d="M641 280c0 -150 -108 -267 -252 -287v-115h-89v115c-147 20 -253 138 -253 287c0 164 130 290 297 290c170 0 297 -126 297 -290zM344 69c117 0 209 93 209 211c0 120 -93 211 -209 211c-120 0 -209 -94 -209 -211c0 -118 90 -211 209 -211z" />
    <glyph glyph-name="R.c2sc" horiz-adv-x="568" 
d="M504 99l15 -99h-89l-15 94c-12 78 -63 116 -129 116h-111v-210h-87v560h207c135 0 214 -68 214 -175c0 -67 -37 -120 -97 -144c39 -20 79 -65 92 -142zM175 282h114c85 0 132 40 132 102c0 63 -46 100 -132 100h-114v-202z" />
    <glyph glyph-name="Racute.c2sc" horiz-adv-x="568" 
d="M387 713v-4l-94 -109h-59v5l66 108h87zM504 99l15 -99h-89l-15 94c-12 78 -63 116 -129 116h-111v-210h-87v560h207c135 0 214 -68 214 -175c0 -67 -37 -120 -97 -144c39 -20 79 -65 92 -142zM175 282h114c85 0 132 40 132 102c0 63 -46 100 -132 100h-114v-202z" />
    <glyph glyph-name="Rcaron.c2sc" horiz-adv-x="568" 
d="M398 708l-125 -108h-7l-125 109v4h71l57 -47l56 47h73v-5zM504 99l15 -99h-89l-15 94c-12 78 -63 116 -129 116h-111v-210h-87v560h207c135 0 214 -68 214 -175c0 -67 -37 -120 -97 -144c39 -20 79 -65 92 -142zM175 282h114c85 0 132 40 132 102c0 63 -46 100 -132 100
h-114v-202z" />
    <glyph glyph-name="uni0156.c2sc" horiz-adv-x="568" 
d="M504 99l15 -99h-89l-15 94c-12 78 -63 116 -129 116h-111v-210h-87v560h207c135 0 214 -68 214 -175c0 -67 -37 -120 -97 -144c39 -20 79 -65 92 -142zM175 282h114c85 0 132 40 132 102c0 63 -46 100 -132 100h-114v-202zM207 -174v6l44 124h83v-7l-68 -123h-59z" />
    <glyph glyph-name="S.c2sc" horiz-adv-x="493" 
d="M238 -10c-47 0 -137 17 -183 50v80c48 -36 127 -53 178 -53c80 0 133 31 133 82c0 36 -25 62 -68 74l-135 40c-77 24 -106 89 -106 145c0 103 84 162 200 162c50 0 120 -12 155 -30v-82c-38 23 -103 35 -153 35c-84 0 -115 -37 -115 -85c0 -24 10 -59 60 -77l135 -41
c68 -20 114 -70 114 -140c0 -101 -92 -160 -215 -160z" />
    <glyph glyph-name="Sacute.c2sc" horiz-adv-x="493" 
d="M292 600h-59v5l66 108h88v-4zM238 -10c-47 0 -137 17 -183 50v80c48 -36 127 -53 178 -53c80 0 133 31 133 82c0 36 -25 62 -68 74l-135 40c-77 24 -106 89 -106 145c0 103 84 162 200 162c50 0 120 -12 155 -30v-82c-38 23 -103 35 -153 35c-84 0 -115 -37 -115 -85
c0 -24 10 -59 60 -77l135 -41c68 -20 114 -70 114 -140c0 -101 -92 -160 -215 -160z" />
    <glyph glyph-name="Scaron.c2sc" horiz-adv-x="493" 
d="M399 708l-126 -108h-7l-124 108v5h70l58 -48l57 48h72v-5zM204 331l135 -41c68 -20 114 -70 114 -140c0 -101 -92 -160 -215 -160c-47 0 -137 17 -183 50v80c48 -36 127 -53 178 -53c80 0 133 31 133 82c0 36 -25 62 -68 74l-135 40c-77 24 -106 89 -106 145
c0 103 84 162 200 162c50 0 120 -12 155 -30v-82c-38 23 -103 35 -153 35c-84 0 -115 -37 -115 -85c0 -24 10 -59 60 -77z" />
    <glyph glyph-name="Scedilla.c2sc" horiz-adv-x="493" 
d="M453 150c0 -88 -69 -144 -168 -157l-22 -39c10 3 23 5 32 5c42 0 69 -23 69 -57c0 -41 -47 -70 -116 -70c-15 0 -36 3 -56 7v36c14 -4 32 -6 44 -6c36 0 60 14 60 33c0 16 -18 28 -46 28c-10 0 -25 -2 -35 -6l-6 15l27 51c-47 0 -136 17 -181 50v80
c48 -36 127 -53 178 -53c80 0 133 31 133 82c0 36 -25 62 -68 74l-135 40c-77 24 -106 89 -106 145c0 103 84 162 200 162c50 0 120 -12 155 -30v-82c-38 23 -103 35 -153 35c-84 0 -115 -37 -115 -85c0 -24 10 -59 60 -77l135 -41c68 -20 114 -70 114 -140z" />
    <glyph glyph-name="uni0218.c2sc" horiz-adv-x="493" 
d="M238 -10c-47 0 -137 17 -183 50v80c48 -36 127 -53 178 -53c80 0 133 31 133 82c0 36 -25 62 -68 74l-135 40c-77 24 -106 89 -106 145c0 103 84 162 200 162c50 0 120 -12 155 -30v-82c-38 23 -103 35 -153 35c-84 0 -115 -37 -115 -85c0 -24 10 -59 60 -77l135 -41
c68 -20 114 -70 114 -140c0 -101 -92 -160 -215 -160zM252 -174h-60v6l45 124h83v-7z" />
    <glyph glyph-name="uni1E9E.c2sc" horiz-adv-x="603" 
d="M523 522l-117 -182c91 -17 151 -88 151 -172c0 -95 -71 -178 -196 -178c-28 0 -97 6 -140 22v75c38 -13 101 -23 138 -20c75 5 111 56 111 108c0 64 -59 107 -155 108l-3 45l101 156c-26 4 -55 7 -80 7c-154 0 -167 -129 -167 -185v-306h-86v308c0 61 10 262 265 262
c75 0 139 -15 168 -27z" />
    <glyph glyph-name="T.c2sc" horiz-adv-x="541" 
d="M30 560h481v-79h-196v-481h-87v481h-198v79z" />
    <glyph glyph-name="Tbar.c2sc" horiz-adv-x="549" 
d="M515 560v-79h-196v-173h123v-56h-123v-252h-87v252h-124v56h124v173h-198v79h481z" />
    <glyph glyph-name="Tcaron.c2sc" horiz-adv-x="541" 
d="M403 708l-126 -108h-7l-124 108v5h70l57 -48l57 48h73v-5zM30 560h481v-79h-196v-481h-87v481h-198v79z" />
    <glyph glyph-name="uni0162.c2sc" horiz-adv-x="541" 
d="M315 481v-481h-25l-26 -46c8 3 23 5 31 5c41 0 70 -23 70 -57c0 -41 -47 -70 -117 -70c-14 0 -37 3 -55 7v36c13 -4 32 -6 44 -6c35 0 59 14 59 33c0 16 -18 28 -45 28c-10 0 -25 -2 -35 -6l-8 15l33 61h-13v481h-198v79h481v-79h-196z" />
    <glyph glyph-name="uni021A.c2sc" horiz-adv-x="541" 
d="M30 560h481v-79h-196v-481h-87v481h-198v79zM183 -174v6l44 124h83v-7l-67 -123h-60z" />
    <glyph glyph-name="U.c2sc" horiz-adv-x="638" 
d="M318 -9c-142 0 -238 99 -238 253v316h86v-318c0 -104 60 -172 154 -172s151 69 151 174v316h87v-316c0 -154 -97 -253 -240 -253z" />
    <glyph glyph-name="Uacute.c2sc" horiz-adv-x="638" 
d="M344 600h-59v5l66 108h87v-4zM318 -9c-142 0 -238 99 -238 253v316h86v-318c0 -104 60 -172 154 -172s151 69 151 174v316h87v-316c0 -154 -97 -253 -240 -253z" />
    <glyph glyph-name="uni01D3.c2sc" horiz-adv-x="638" 
d="M451 708l-125 -108h-8l-123 108v5h69l57 -48l57 48h73v-5zM471 244v316h87v-316c0 -154 -97 -253 -240 -253c-142 0 -238 99 -238 253v316h86v-318c0 -104 60 -172 154 -172s151 69 151 174z" />
    <glyph glyph-name="Ucircumflex.c2sc" horiz-adv-x="638" 
d="M377 600l-56 47l-57 -47h-70v5l124 108h7l125 -108v-5h-73zM471 244v316h87v-316c0 -154 -97 -253 -240 -253c-142 0 -238 99 -238 253v316h86v-318c0 -104 60 -172 154 -172s151 69 151 174z" />
    <glyph glyph-name="Udieresis.c2sc" horiz-adv-x="638" 
d="M235 605c-27 0 -49 20 -49 47c0 26 22 46 49 46c28 0 49 -20 49 -46c0 -27 -23 -47 -49 -47zM403 605c-27 0 -49 20 -49 47c0 26 22 46 49 46s49 -20 49 -46c0 -27 -23 -47 -49 -47zM318 -9c-142 0 -238 99 -238 253v316h86v-318c0 -104 60 -172 154 -172s151 69 151 174
v316h87v-316c0 -154 -97 -253 -240 -253z" />
    <glyph glyph-name="uni01D7.c2sc" horiz-adv-x="638" 
d="M344 735h-59v5l66 107h87v-4zM235 605c-27 0 -49 20 -49 47c0 26 22 46 49 46c28 0 49 -20 49 -46c0 -27 -23 -47 -49 -47zM403 605c-27 0 -49 20 -49 47c0 26 22 46 49 46s49 -20 49 -46c0 -27 -23 -47 -49 -47zM318 -9c-142 0 -238 99 -238 253v316h86v-318
c0 -104 60 -172 154 -172s151 69 151 174v316h87v-316c0 -154 -97 -253 -240 -253z" />
    <glyph glyph-name="uni01D9.c2sc" horiz-adv-x="638" 
d="M451 841l-125 -106h-8l-123 107v5h69l57 -48l57 48h73v-6zM235 605c-27 0 -49 20 -49 47c0 26 22 46 49 46c28 0 49 -20 49 -46c0 -27 -23 -47 -49 -47zM403 698c27 0 49 -20 49 -46c0 -27 -23 -47 -49 -47c-27 0 -49 20 -49 47c0 26 22 46 49 46zM471 244v316h87v-316
c0 -154 -97 -253 -240 -253c-142 0 -238 99 -238 253v316h86v-318c0 -104 60 -172 154 -172s151 69 151 174z" />
    <glyph glyph-name="uni01DB.c2sc" horiz-adv-x="638" 
d="M343 735h-59l-94 108v4h87l66 -107v-5zM235 605c-27 0 -49 20 -49 47c0 26 22 46 49 46c28 0 49 -20 49 -46c0 -27 -23 -47 -49 -47zM403 605c-27 0 -49 20 -49 47c0 26 22 46 49 46s49 -20 49 -46c0 -27 -23 -47 -49 -47zM318 -9c-142 0 -238 99 -238 253v316h86v-318
c0 -104 60 -172 154 -172s151 69 151 174v316h87v-316c0 -154 -97 -253 -240 -253z" />
    <glyph glyph-name="uni01D5.c2sc" horiz-adv-x="638" 
d="M440 757h-243v54h243v-54zM235 605c-27 0 -49 20 -49 47c0 26 22 46 49 46c28 0 49 -20 49 -46c0 -27 -23 -47 -49 -47zM403 605c-27 0 -49 20 -49 47c0 26 22 46 49 46s49 -20 49 -46c0 -27 -23 -47 -49 -47zM318 -9c-142 0 -238 99 -238 253v316h86v-318
c0 -104 60 -172 154 -172s151 69 151 174v316h87v-316c0 -154 -97 -253 -240 -253z" />
    <glyph glyph-name="Ugrave.c2sc" horiz-adv-x="638" 
d="M343 600h-59l-94 109v4h87l66 -108v-5zM318 -9c-142 0 -238 99 -238 253v316h86v-318c0 -104 60 -172 154 -172s151 69 151 174v316h87v-316c0 -154 -97 -253 -240 -253z" />
    <glyph glyph-name="Uhungarumlaut.c2sc" horiz-adv-x="638" 
d="M281 600h-51v5l53 108h65v-4zM394 600h-52v5l54 108h65v-4zM318 -9c-142 0 -238 99 -238 253v316h86v-318c0 -104 60 -172 154 -172s151 69 151 174v316h87v-316c0 -154 -97 -253 -240 -253z" />
    <glyph glyph-name="Umacron.c2sc" horiz-adv-x="638" 
d="M440 622h-243v55h243v-55zM318 -9c-142 0 -238 99 -238 253v316h86v-318c0 -104 60 -172 154 -172s151 69 151 174v316h87v-316c0 -154 -97 -253 -240 -253z" />
    <glyph glyph-name="Uogonek.c2sc" horiz-adv-x="638" 
d="M471 244v316h87v-316c0 -137 -77 -230 -194 -249c-26 -16 -40 -38 -40 -56c0 -33 22 -49 58 -49c34 0 51 9 62 15v-48c-15 -11 -47 -19 -73 -19c-60 0 -100 30 -100 79c0 28 12 54 35 74c-136 6 -226 104 -226 253v316h86v-318c0 -104 60 -172 154 -172s151 69 151 174z
" />
    <glyph glyph-name="Uring.c2sc" horiz-adv-x="638" 
d="M319 615c-54 1 -97 40 -97 91c0 48 43 89 97 89c53 0 96 -40 96 -89c0 -51 -42 -92 -96 -91zM319 658c28 0 51 21 51 48c0 26 -23 47 -51 47c-29 0 -52 -21 -52 -47c0 -27 23 -48 52 -48zM318 -9c-142 0 -238 99 -238 253v316h86v-318c0 -104 60 -172 154 -172
s151 69 151 174v316h87v-316c0 -154 -97 -253 -240 -253z" />
    <glyph glyph-name="Utilde.c2sc" horiz-adv-x="638" 
d="M222 606h-46c0 58 31 98 80 98c43 0 83 -39 119 -39c23 0 39 17 39 41h44c0 -57 -31 -95 -79 -95c-45 0 -83 37 -118 37c-23 0 -39 -17 -39 -42zM318 -9c-142 0 -238 99 -238 253v316h86v-318c0 -104 60 -172 154 -172s151 69 151 174v316h87v-316
c0 -154 -97 -253 -240 -253z" />
    <glyph glyph-name="V.c2sc" horiz-adv-x="577" 
d="M289 156l183 404h91v-7l-262 -553h-26l-261 553v7h90z" />
    <glyph glyph-name="W.c2sc" horiz-adv-x="893" 
d="M622 177l159 383h94v-7l-232 -553h-26l-170 365l-171 -365h-27l-232 553v7h95l159 -383l155 330h42z" />
    <glyph glyph-name="Wacute.c2sc" horiz-adv-x="893" 
d="M566 713v-4l-95 -109h-58v5l66 108h87zM622 177l159 383h94v-7l-232 -553h-26l-170 365l-171 -365h-27l-232 553v7h95l159 -383l155 330h42z" />
    <glyph glyph-name="Wcircumflex.c2sc" horiz-adv-x="893" 
d="M505 600l-57 48l-57 -48h-69v5l123 108h8l125 -108v-5h-73zM622 177l159 383h94v-7l-232 -553h-26l-170 365l-171 -365h-27l-232 553v7h95l159 -383l155 330h42z" />
    <glyph glyph-name="Wdieresis.c2sc" horiz-adv-x="893" 
d="M362 605c-26 0 -49 20 -49 47c0 26 22 46 49 46c28 0 49 -20 49 -46c0 -27 -22 -47 -49 -47zM530 605c-26 0 -49 20 -49 47c0 26 22 46 49 46c28 0 49 -20 49 -46c0 -27 -22 -47 -49 -47zM622 177l159 383h94v-7l-232 -553h-26l-170 365l-171 -365h-27l-232 553v7h95
l159 -383l155 330h42z" />
    <glyph glyph-name="Wgrave.c2sc" horiz-adv-x="893" 
d="M471 605v-5h-59l-95 109v4h88zM622 177l159 383h94v-7l-232 -553h-26l-170 365l-171 -365h-27l-232 553v7h95l159 -383l155 330h42z" />
    <glyph glyph-name="X.c2sc" horiz-adv-x="564" 
d="M528 553l-194 -261l215 -285v-7h-98l-169 226l-169 -226h-98v7l216 286l-196 260v7h97l150 -200l149 200h97v-7z" />
    <glyph glyph-name="Y.c2sc" horiz-adv-x="574" 
d="M287 275l178 285h91v-7l-225 -349v-204h-86v203l-227 350v7h90z" />
    <glyph glyph-name="Yacute.c2sc" horiz-adv-x="574" 
d="M406 713v-4l-94 -109h-60v5l67 108h87zM287 275l178 285h91v-7l-225 -349v-204h-86v203l-227 350v7h90z" />
    <glyph glyph-name="Ycircumflex.c2sc" horiz-adv-x="574" 
d="M345 600l-56 48l-57 -48h-71v5l125 108h7l125 -108v-5h-73zM287 275l178 285h91v-7l-225 -349v-204h-86v203l-227 350v7h90z" />
    <glyph glyph-name="Ydieresis.c2sc" horiz-adv-x="574" 
d="M203 605c-27 0 -49 20 -49 47c0 26 22 46 49 46c28 0 49 -20 49 -46c0 -27 -23 -47 -49 -47zM371 605c-27 0 -49 20 -49 47c0 26 22 46 49 46s49 -20 49 -46c0 -27 -23 -47 -49 -47zM287 275l178 285h91v-7l-225 -349v-204h-86v203l-227 350v7h90z" />
    <glyph glyph-name="Ygrave.c2sc" horiz-adv-x="574" 
d="M311 605v-5h-59l-94 109v4h87zM287 275l178 285h91v-7l-225 -349v-204h-86v203l-227 350v7h90z" />
    <glyph glyph-name="uni1EF8.c2sc" horiz-adv-x="574" 
d="M229 648c-24 0 -39 -17 -39 -42h-46c0 57 31 98 80 98c44 0 82 -39 118 -39c24 0 40 17 40 41h44c0 -57 -31 -95 -79 -95c-45 0 -83 37 -118 37zM287 275l178 285h91v-7l-225 -349v-204h-86v203l-227 350v7h90z" />
    <glyph glyph-name="Z.c2sc" horiz-adv-x="536" 
d="M495 547l-326 -469h331v-78h-474v15l323 467h-299v78h445v-13z" />
    <glyph glyph-name="Zacute.c2sc" horiz-adv-x="536" 
d="M386 713v-4l-95 -109h-59v5l66 108h88zM495 547l-326 -469h331v-78h-474v15l323 467h-299v78h445v-13z" />
    <glyph glyph-name="Zcaron.c2sc" horiz-adv-x="536" 
d="M398 708l-126 -108h-7l-124 108v5h70l58 -48l57 48h72v-5zM495 547l-326 -469h331v-78h-474v15l323 467h-299v78h445v-13z" />
    <glyph glyph-name="Zdotaccent.c2sc" horiz-adv-x="536" 
d="M266 605c-26 0 -49 20 -49 47s22 47 49 47c28 0 50 -20 50 -47c0 -26 -23 -47 -50 -47zM495 547l-326 -469h331v-78h-474v15l323 467h-299v78h445v-13z" />
    <glyph glyph-name="A.alt.c2sc" horiz-adv-x="613" 
d="M602 0h-89l-60 125h-294l-59 -125h-89l270 560h50zM306 434l-112 -236h225z" />
    <glyph glyph-name="Aacute.alt.c2sc" horiz-adv-x="613" 
d="M428 713v-4l-94 -109h-60v5l66 108h88zM602 0h-89l-60 125h-294l-59 -125h-89l270 560h50zM306 434l-112 -236h225z" />
    <glyph glyph-name="Abreve.alt.c2sc" horiz-adv-x="613" 
d="M307 600c-76 0 -132 46 -132 113h55c0 -38 27 -67 77 -67s77 30 77 67h54c0 -67 -56 -113 -131 -113zM602 0h-89l-60 125h-294l-59 -125h-89l270 560h50zM306 434l-112 -236h225z" />
    <glyph glyph-name="uni01CD.alt.c2sc" horiz-adv-x="613" 
d="M435 708l-125 -108h-7l-125 108v5h70l58 -48l56 48h73v-5zM602 0h-89l-60 125h-294l-59 -125h-89l270 560h50zM306 434l-112 -236h225z" />
    <glyph glyph-name="Acircumflex.alt.c2sc" horiz-adv-x="613" 
d="M362 600l-56 48l-58 -48h-70v5l125 108h7l125 -108v-5h-73zM602 0h-89l-60 125h-294l-59 -125h-89l270 560h50zM306 434l-112 -236h225z" />
    <glyph glyph-name="Adieresis.alt.c2sc" horiz-adv-x="613" 
d="M222 605c-26 0 -49 20 -49 47c0 26 23 46 49 46c29 0 49 -20 49 -46c0 -27 -22 -47 -49 -47zM391 605c-27 0 -49 20 -49 47c0 26 22 46 49 46c28 0 49 -20 49 -46c0 -27 -23 -47 -49 -47zM602 0h-89l-60 125h-294l-59 -125h-89l270 560h50zM306 434l-112 -236h225z" />
    <glyph glyph-name="Agrave.alt.c2sc" horiz-adv-x="613" 
d="M332 605v-5h-59l-94 109v4h88zM602 0h-89l-60 125h-294l-59 -125h-89l270 560h50zM306 434l-112 -236h225z" />
    <glyph glyph-name="Amacron.alt.c2sc" horiz-adv-x="613" 
d="M185 677h243v-55h-243v55zM602 0h-89l-60 125h-294l-59 -125h-89l270 560h50zM306 434l-112 -236h225z" />
    <glyph glyph-name="Aogonek.alt.c2sc" horiz-adv-x="613" 
d="M559 -110c31 0 49 9 61 16v-48c-14 -10 -45 -19 -73 -19c-59 0 -99 29 -99 78c0 39 22 73 60 94l-55 114h-294l-59 -125h-89l270 560h50l271 -560h-54c-31 -15 -48 -40 -48 -60c0 -33 22 -50 59 -50zM306 434l-112 -236h225z" />
    <glyph glyph-name="Aring.alt.c2sc" horiz-adv-x="613" 
d="M602 0h-89l-60 125h-294l-59 -125h-89l258 536c-34 14 -58 45 -58 83c0 49 42 89 96 89c53 0 95 -40 95 -89c0 -38 -24 -71 -59 -84zM255 619c0 -27 23 -48 52 -48c28 0 51 21 51 48c0 26 -23 47 -51 47c-29 0 -52 -21 -52 -47zM306 434l-112 -236h225z" />
    <glyph glyph-name="Aringacute.alt.c2sc" horiz-adv-x="613" 
d="M602 0h-89l-60 125h-294l-59 -125h-89l258 535c-35 14 -58 46 -58 83c0 41 29 76 70 87l53 86h87v-4l-75 -87c33 -14 56 -46 56 -82c0 -38 -24 -71 -58 -84zM255 618c0 -26 22 -48 52 -48c29 0 51 21 51 48s-23 48 -51 48c-29 0 -52 -21 -52 -48zM306 434l-112 -236h225z
" />
    <glyph glyph-name="Atilde.alt.c2sc" horiz-adv-x="613" 
d="M250 648c-23 0 -38 -17 -38 -42h-47c0 57 31 98 80 98c44 0 83 -39 119 -39c23 0 40 17 40 41h44c0 -57 -31 -95 -80 -95c-44 0 -82 37 -118 37zM602 0h-89l-60 125h-294l-59 -125h-89l270 560h50zM306 434l-112 -236h225z" />
    <glyph glyph-name="AE.alt.c2sc" horiz-adv-x="738" 
d="M688 560v-78h-224v-170h187v-73h-187v-161h224v-78h-311v125h-214l-79 -125h-88l355 560h337zM377 461l-167 -262h167v262z" />
    <glyph glyph-name="AEacute.alt.c2sc" horiz-adv-x="738" 
d="M609 713v-4l-94 -109h-59v5l65 108h88zM688 560v-78h-224v-170h187v-73h-187v-161h224v-78h-311v125h-214l-79 -125h-88l355 560h337zM377 461l-167 -262h167v262z" />
    <glyph glyph-name="K.alt.c2sc" horiz-adv-x="560" 
d="M438 560h98v-8l-199 -272l199 -272v-8h-98l-177 242h-86v-242h-87v560h87v-245h85z" />
    <glyph glyph-name="uni0136.alt.c2sc" horiz-adv-x="560" 
d="M438 560h98v-8l-199 -272l199 -272v-8h-98l-177 242h-86v-242h-87v560h87v-245h85zM213 -174v6l44 124h84v-7l-68 -123h-60z" />
    <glyph glyph-name="R.alt.c2sc" horiz-adv-x="542" 
d="M371 225l128 -217v-8h-92l-119 207c-8 -1 -17 -1 -26 -1h-87v-206h-87v560h174c134 0 224 -68 224 -176c0 -74 -43 -131 -115 -159zM175 277h81c88 -1 144 42 144 105s-56 102 -144 102h-81v-207z" />
    <glyph glyph-name="Racute.alt.c2sc" horiz-adv-x="542" 
d="M371 713v-4l-94 -109h-59v5l66 108h87zM371 225l128 -217v-8h-92l-119 207c-8 -1 -17 -1 -26 -1h-87v-206h-87v560h174c134 0 224 -68 224 -176c0 -74 -43 -131 -115 -159zM175 277h81c88 -1 144 42 144 105s-56 102 -144 102h-81v-207z" />
    <glyph glyph-name="Rcaron.alt.c2sc" horiz-adv-x="542" 
d="M384 708l-125 -108h-7l-125 108v5h71l57 -47l56 47h73v-5zM371 225l128 -217v-8h-92l-119 207c-8 -1 -17 -1 -26 -1h-87v-206h-87v560h174c134 0 224 -68 224 -176c0 -74 -43 -131 -115 -159zM175 277h81c88 -1 144 42 144 105s-56 102 -144 102h-81v-207z" />
    <glyph glyph-name="uni0156.alt.c2sc" horiz-adv-x="542" 
d="M371 225l128 -217v-8h-92l-119 207c-8 -1 -17 -1 -26 -1h-87v-206h-87v560h174c134 0 224 -68 224 -176c0 -74 -43 -131 -115 -159zM175 277h81c88 -1 144 42 144 105s-56 102 -144 102h-81v-207zM200 -174v6l44 124h84v-7l-68 -123h-60z" />
    <glyph glyph-name="a.smcp" horiz-adv-x="640" 
d="M320 569c143 0 239 -90 239 -224v-346h-86v166h-306v-166h-86v346c0 134 96 224 239 224zM167 345v-105h306v103c0 86 -61 147 -152 147s-154 -60 -154 -145z" />
    <glyph glyph-name="aacute.smcp" horiz-adv-x="640" 
d="M441 713v-4l-95 -109h-59v5l67 108h87zM320 569c143 0 239 -90 239 -224v-346h-86v166h-306v-166h-86v346c0 134 96 224 239 224zM167 345v-105h306v103c0 86 -61 147 -152 147s-154 -60 -154 -145z" />
    <glyph glyph-name="abreve.smcp" horiz-adv-x="640" 
d="M321 600c-75 0 -131 46 -131 113h54c0 -38 28 -67 77 -67c50 0 78 30 78 67h54c0 -67 -56 -113 -132 -113zM320 569c143 0 239 -90 239 -224v-346h-86v166h-306v-166h-86v346c0 134 96 224 239 224zM167 345v-105h306v103c0 86 -61 147 -152 147s-154 -60 -154 -145z" />
    <glyph glyph-name="uni01CE.smcp" horiz-adv-x="640" 
d="M450 708l-126 -108h-7l-124 108v5h70l57 -48l57 48h73v-5zM320 569c143 0 239 -90 239 -224v-346h-86v166h-306v-166h-86v346c0 134 96 224 239 224zM167 345v-105h306v103c0 86 -61 147 -152 147s-154 -60 -154 -145z" />
    <glyph glyph-name="acircumflex.smcp" horiz-adv-x="640" 
d="M377 600l-57 48l-57 -48h-70v5l124 108h7l126 -108v-5h-73zM320 569c143 0 239 -90 239 -224v-346h-86v166h-306v-166h-86v346c0 134 96 224 239 224zM167 345v-105h306v103c0 86 -61 147 -152 147s-154 -60 -154 -145z" />
    <glyph glyph-name="adieresis.smcp" horiz-adv-x="640" 
d="M238 605c-27 0 -49 20 -49 47c0 26 22 46 49 46s49 -20 49 -46c0 -27 -22 -47 -49 -47zM406 605c-26 0 -49 20 -49 47c0 26 22 46 49 46s49 -20 49 -46c0 -27 -23 -47 -49 -47zM320 569c143 0 239 -90 239 -224v-346h-86v166h-306v-166h-86v346c0 134 96 224 239 224z
M167 345v-105h306v103c0 86 -61 147 -152 147s-154 -60 -154 -145z" />
    <glyph glyph-name="agrave.smcp" horiz-adv-x="640" 
d="M355 605v-5h-60l-94 109v4h87zM320 569c143 0 239 -90 239 -224v-346h-86v166h-306v-166h-86v346c0 134 96 224 239 224zM167 345v-105h306v103c0 86 -61 147 -152 147s-154 -60 -154 -145z" />
    <glyph glyph-name="a.alt.smcp" horiz-adv-x="613" 
d="M602 0h-89l-60 125h-294l-59 -125h-89l270 560h50zM306 434l-112 -236h225z" />
    <glyph glyph-name="aacute.alt.smcp" horiz-adv-x="613" 
d="M428 713v-4l-94 -109h-60v5l66 108h88zM602 0h-89l-60 125h-294l-59 -125h-89l270 560h50zM306 434l-112 -236h225z" />
    <glyph glyph-name="abreve.alt.smcp" horiz-adv-x="613" 
d="M307 600c-76 0 -132 46 -132 113h55c0 -38 27 -67 77 -67s77 30 77 67h54c0 -67 -56 -113 -131 -113zM602 0h-89l-60 125h-294l-59 -125h-89l270 560h50zM306 434l-112 -236h225z" />
    <glyph glyph-name="uni01CE.alt.smcp" horiz-adv-x="613" 
d="M435 708l-125 -108h-7l-125 108v5h70l58 -48l56 48h73v-5zM602 0h-89l-60 125h-294l-59 -125h-89l270 560h50zM306 434l-112 -236h225z" />
    <glyph glyph-name="acircumflex.alt.smcp" horiz-adv-x="613" 
d="M362 600l-56 48l-58 -48h-70v5l125 108h7l125 -108v-5h-73zM602 0h-89l-60 125h-294l-59 -125h-89l270 560h50zM306 434l-112 -236h225z" />
    <glyph glyph-name="adieresis.alt.smcp" horiz-adv-x="613" 
d="M222 605c-26 0 -49 20 -49 47c0 26 23 46 49 46c29 0 49 -20 49 -46c0 -27 -22 -47 -49 -47zM391 605c-27 0 -49 20 -49 47c0 26 22 46 49 46c28 0 49 -20 49 -46c0 -27 -23 -47 -49 -47zM602 0h-89l-60 125h-294l-59 -125h-89l270 560h50zM306 434l-112 -236h225z" />
    <glyph glyph-name="agrave.alt.smcp" horiz-adv-x="613" 
d="M332 605v-5h-59l-94 109v4h88zM602 0h-89l-60 125h-294l-59 -125h-89l270 560h50zM306 434l-112 -236h225z" />
    <glyph glyph-name="amacron.alt.smcp" horiz-adv-x="613" 
d="M185 677h243v-55h-243v55zM602 0h-89l-60 125h-294l-59 -125h-89l270 560h50zM306 434l-112 -236h225z" />
    <glyph glyph-name="aogonek.alt.smcp" horiz-adv-x="613" 
d="M559 -110c31 0 49 9 61 16v-48c-14 -10 -45 -19 -73 -19c-59 0 -99 29 -99 78c0 39 22 73 60 94l-55 114h-294l-59 -125h-89l270 560h50l271 -560h-54c-31 -15 -48 -40 -48 -60c0 -33 22 -50 59 -50zM306 434l-112 -236h225z" />
    <glyph glyph-name="aring.alt.smcp" horiz-adv-x="613" 
d="M602 0h-89l-60 125h-294l-59 -125h-89l258 536c-34 14 -58 45 -58 83c0 49 42 89 96 89c53 0 95 -40 95 -89c0 -38 -24 -71 -59 -84zM255 619c0 -27 23 -48 52 -48c28 0 51 21 51 48c0 26 -23 47 -51 47c-29 0 -52 -21 -52 -47zM306 434l-112 -236h225z" />
    <glyph glyph-name="aringacute.alt.smcp" horiz-adv-x="613" 
d="M602 0h-89l-60 125h-294l-59 -125h-89l258 535c-35 14 -58 46 -58 83c0 41 29 76 70 87l53 86h87v-4l-75 -87c33 -14 56 -46 56 -82c0 -38 -24 -71 -58 -84zM255 618c0 -26 22 -48 52 -48c29 0 51 21 51 48s-23 48 -51 48c-29 0 -52 -21 -52 -48zM306 434l-112 -236h225z
" />
    <glyph glyph-name="atilde.alt.smcp" horiz-adv-x="613" 
d="M250 648c-23 0 -38 -17 -38 -42h-47c0 57 31 98 80 98c44 0 83 -39 119 -39c23 0 40 17 40 41h44c0 -57 -31 -95 -80 -95c-44 0 -82 37 -118 37zM602 0h-89l-60 125h-294l-59 -125h-89l270 560h50zM306 434l-112 -236h225z" />
    <glyph glyph-name="ae.alt.smcp" horiz-adv-x="738" 
d="M688 560v-78h-224v-170h187v-73h-187v-161h224v-78h-311v125h-214l-79 -125h-88l355 560h337zM377 461l-167 -262h167v262z" />
    <glyph glyph-name="aeacute.alt.smcp" horiz-adv-x="738" 
d="M609 713v-4l-94 -109h-59v5l65 108h88zM688 560v-78h-224v-170h187v-73h-187v-161h224v-78h-311v125h-214l-79 -125h-88l355 560h337zM377 461l-167 -262h167v262z" />
    <glyph glyph-name="k.alt.smcp" horiz-adv-x="560" 
d="M438 560h98v-8l-199 -272l199 -272v-8h-98l-177 242h-86v-242h-87v560h87v-245h85z" />
    <glyph glyph-name="uni0137.alt.smcp" horiz-adv-x="560" 
d="M438 560h98v-8l-199 -272l199 -272v-8h-98l-177 242h-86v-242h-87v560h87v-245h85zM213 -174v6l44 124h84v-7l-68 -123h-60z" />
    <glyph glyph-name="r.alt.smcp" horiz-adv-x="542" 
d="M371 225l128 -217v-8h-92l-119 207c-8 -1 -17 -1 -26 -1h-87v-206h-87v560h174c134 0 224 -68 224 -176c0 -74 -43 -131 -115 -159zM175 277h81c88 -1 144 42 144 105s-56 102 -144 102h-81v-207z" />
    <glyph glyph-name="racute.alt.smcp" horiz-adv-x="542" 
d="M371 713v-4l-94 -109h-59v5l66 108h87zM371 225l128 -217v-8h-92l-119 207c-8 -1 -17 -1 -26 -1h-87v-206h-87v560h174c134 0 224 -68 224 -176c0 -74 -43 -131 -115 -159zM175 277h81c88 -1 144 42 144 105s-56 102 -144 102h-81v-207z" />
    <glyph glyph-name="rcaron.alt.smcp" horiz-adv-x="542" 
d="M384 708l-125 -108h-7l-125 108v5h71l57 -47l56 47h73v-5zM371 225l128 -217v-8h-92l-119 207c-8 -1 -17 -1 -26 -1h-87v-206h-87v560h174c134 0 224 -68 224 -176c0 -74 -43 -131 -115 -159zM175 277h81c88 -1 144 42 144 105s-56 102 -144 102h-81v-207z" />
    <glyph glyph-name="uni0157.alt.smcp" horiz-adv-x="542" 
d="M371 225l128 -217v-8h-92l-119 207c-8 -1 -17 -1 -26 -1h-87v-206h-87v560h174c134 0 224 -68 224 -176c0 -74 -43 -131 -115 -159zM175 277h81c88 -1 144 42 144 105s-56 102 -144 102h-81v-207zM200 -174v6l44 124h84v-7l-68 -123h-60z" />
    <glyph glyph-name="amacron.smcp" horiz-adv-x="640" 
d="M200 677h243v-55h-243v55zM320 569c143 0 239 -90 239 -224v-346h-86v166h-306v-166h-86v346c0 134 96 224 239 224zM167 345v-105h306v103c0 86 -61 147 -152 147s-154 -60 -154 -145z" />
    <glyph glyph-name="aogonek.smcp" horiz-adv-x="640" 
d="M530 -110c32 0 50 9 62 16v-48c-15 -10 -46 -19 -73 -19c-60 0 -100 29 -100 78c0 36 19 68 54 91v157h-306v-166h-86v346c0 134 96 224 239 224s239 -90 239 -224v-346h-41c-29 -15 -46 -40 -46 -59c0 -33 22 -50 58 -50zM167 345v-105h306v103c0 86 -61 147 -152 147
s-154 -60 -154 -145z" />
    <glyph glyph-name="aring.smcp" horiz-adv-x="640" 
d="M390 561c103 -24 169 -105 169 -216v-346h-86v166h-306v-166h-86v346c0 112 67 193 173 217c-18 17 -29 40 -29 64c0 50 44 90 97 90s96 -41 96 -90c0 -25 -11 -48 -28 -65zM322 673c-28 0 -52 -21 -52 -47c0 -27 23 -48 52 -48c28 0 51 21 51 48c0 26 -23 47 -51 47z
M167 345v-105h306v103c0 86 -61 147 -152 147s-154 -60 -154 -145z" />
    <glyph glyph-name="aringacute.smcp" horiz-adv-x="640" 
d="M393 560c102 -25 166 -105 166 -215v-346h-86v166h-306v-166h-86v346c0 111 66 192 169 216c-16 16 -25 38 -25 62c0 43 33 79 77 87l49 79h87v-4l-73 -83c32 -15 53 -45 53 -79c0 -25 -10 -46 -25 -63zM322 670c-28 0 -52 -21 -52 -47c0 -27 23 -48 52 -48
c28 0 51 21 51 48c0 26 -23 47 -51 47zM167 345v-105h306v103c0 86 -61 147 -152 147s-154 -60 -154 -145z" />
    <glyph glyph-name="atilde.smcp" horiz-adv-x="640" 
d="M265 648c-24 0 -38 -17 -38 -42h-47c0 57 31 98 80 98c44 0 82 -39 119 -39c23 0 39 17 39 41h44c0 -57 -31 -95 -79 -95c-44 0 -83 37 -118 37zM320 569c143 0 239 -90 239 -224v-346h-86v166h-306v-166h-86v346c0 134 96 224 239 224zM167 345v-105h306v103
c0 86 -61 147 -152 147s-154 -60 -154 -145z" />
    <glyph glyph-name="ae.smcp" horiz-adv-x="804" 
d="M746 560v-78h-263v-170h250v-73h-250v-161h263v-78h-349v166h-230v-167h-86l-1 338c1 132 95 223 241 223h425zM168 339v-98h229v240h-76c-92 0 -153 -57 -153 -142z" />
    <glyph glyph-name="aeacute.smcp" horiz-adv-x="804" 
d="M553 713v-4l-94 -109h-60v5l66 108h88zM746 560v-78h-263v-170h250v-73h-250v-161h263v-78h-349v166h-230v-167h-86l-1 338c1 132 95 223 241 223h425zM168 339v-98h229v240h-76c-92 0 -153 -57 -153 -142z" />
    <glyph glyph-name="b.smcp" horiz-adv-x="549" 
d="M378 283c64 -11 120 -64 120 -137c0 -85 -71 -146 -176 -146h-234v560h201c125 0 193 -67 193 -153c0 -64 -49 -113 -104 -124zM396 396c0 58 -46 89 -114 89h-107v-177h104c63 0 117 32 117 88zM175 75h126c62 0 111 28 111 80c0 51 -48 89 -111 89h-126v-169z" />
    <glyph glyph-name="c.smcp" horiz-adv-x="606" 
d="M354 -10c-167 0 -307 118 -307 288c0 159 124 292 306 292c77 0 157 -26 206 -60v-84h-7c-47 38 -124 65 -191 65c-127 0 -226 -96 -226 -213c0 -119 104 -209 226 -209c68 0 144 27 191 65h7v-84c-50 -35 -131 -60 -205 -60z" />
    <glyph glyph-name="cacute.smcp" horiz-adv-x="606" 
d="M356 600h-59v5l67 108h87v-4zM354 -10c-167 0 -307 118 -307 288c0 159 124 292 306 292c77 0 157 -26 206 -60v-84h-7c-47 38 -124 65 -191 65c-127 0 -226 -96 -226 -213c0 -119 104 -209 226 -209c68 0 144 27 191 65h7v-84c-50 -35 -131 -60 -205 -60z" />
    <glyph glyph-name="ccaron.smcp" horiz-adv-x="606" 
d="M463 708l-125 -108h-7l-125 108v5h71l57 -48l57 48h72v-5zM361 491c-127 0 -226 -96 -226 -213c0 -119 104 -209 226 -209c68 0 144 27 191 65h7v-84c-50 -35 -131 -60 -205 -60c-167 0 -307 118 -307 288c0 159 124 292 306 292c77 0 157 -26 206 -60v-84h-7
c-47 38 -124 65 -191 65z" />
    <glyph glyph-name="ccedilla.smcp" horiz-adv-x="606" 
d="M361 491c-127 0 -226 -96 -226 -213c0 -119 104 -209 226 -209c68 0 144 27 191 65h7v-84c-50 -35 -131 -60 -205 -60h-11l-21 -36c9 3 23 5 32 5c41 0 69 -23 69 -57c0 -41 -47 -70 -117 -70c-14 0 -36 3 -55 7v36c13 -4 33 -6 45 -6c35 0 59 13 59 33
c0 16 -19 28 -46 28c-10 0 -25 -2 -34 -6l-8 15l30 56c-140 23 -250 133 -250 283c0 159 124 292 306 292c77 0 157 -26 206 -60v-84h-7c-47 38 -124 65 -191 65z" />
    <glyph glyph-name="cdotaccent.smcp" horiz-adv-x="606" 
d="M331 605c-26 0 -49 20 -49 47s22 47 49 47c29 0 50 -20 50 -47c0 -26 -22 -47 -50 -47zM354 -10c-167 0 -307 118 -307 288c0 159 124 292 306 292c77 0 157 -26 206 -60v-84h-7c-47 38 -124 65 -191 65c-127 0 -226 -96 -226 -213c0 -119 104 -209 226 -209
c68 0 144 27 191 65h7v-84c-50 -35 -131 -60 -205 -60z" />
    <glyph glyph-name="d.smcp" horiz-adv-x="598" 
d="M88 560h182c171 0 279 -116 279 -280c0 -165 -112 -280 -279 -280h-182v560zM175 78h94c117 0 192 83 192 202c0 120 -77 202 -192 202h-94v-404z" />
    <glyph glyph-name="eth.smcp" horiz-adv-x="607" 
d="M97 560h183c170 0 278 -116 278 -280c0 -165 -112 -280 -278 -280h-183v249h-72v61h72v250zM184 78h95c116 0 191 83 191 202c0 120 -77 202 -191 202h-95v-172h169v-61h-169v-171z" />
    <glyph glyph-name="dcaron.smcp" horiz-adv-x="598" 
d="M425 708l-126 -108h-7l-124 108v5h69l58 -48l57 48h73v-5zM88 560h182c171 0 279 -116 279 -280c0 -165 -112 -280 -279 -280h-182v560zM175 78h94c117 0 192 83 192 202c0 120 -77 202 -192 202h-94v-404z" />
    <glyph glyph-name="dcroat.smcp" horiz-adv-x="607" 
d="M97 560h183c170 0 278 -116 278 -280c0 -165 -112 -280 -278 -280h-183v249h-72v61h72v250zM184 78h95c116 0 191 83 191 202c0 120 -77 202 -191 202h-95v-172h169v-61h-169v-171z" />
    <glyph glyph-name="e.smcp" horiz-adv-x="472" 
d="M422 560v-78h-247v-169h196v-75h-196v-160h247v-78h-334v560h334z" />
    <glyph glyph-name="eacute.smcp" horiz-adv-x="472" 
d="M372 713v-4l-95 -109h-59v5l67 108h87zM422 560v-78h-247v-169h196v-75h-196v-160h247v-78h-334v560h334z" />
    <glyph glyph-name="ecaron.smcp" horiz-adv-x="472" 
d="M384 708l-125 -108h-7l-125 108v5h71l57 -48l57 48h72v-5zM422 560v-78h-247v-169h196v-75h-196v-160h247v-78h-334v560h334z" />
    <glyph glyph-name="ecircumflex.smcp" horiz-adv-x="472" 
d="M311 600l-57 48l-57 -48h-70v5l124 108h8l125 -108v-5h-73zM422 560v-78h-247v-169h196v-75h-196v-160h247v-78h-334v560h334z" />
    <glyph glyph-name="edieresis.smcp" horiz-adv-x="472" 
d="M168 605c-26 0 -49 20 -49 47c0 26 22 46 49 46c28 0 49 -20 49 -46c0 -27 -22 -47 -49 -47zM336 605c-26 0 -49 20 -49 47c0 26 22 46 49 46c28 0 49 -20 49 -46c0 -27 -23 -47 -49 -47zM422 560v-78h-247v-169h196v-75h-196v-160h247v-78h-334v560h334z" />
    <glyph glyph-name="edotaccent.smcp" horiz-adv-x="472" 
d="M252 605c-27 0 -49 20 -49 47s22 47 49 47c29 0 50 -20 50 -47c0 -26 -22 -47 -50 -47zM422 560v-78h-247v-169h196v-75h-196v-160h247v-78h-334v560h334z" />
    <glyph glyph-name="egrave.smcp" horiz-adv-x="472" 
d="M277 605v-5h-59l-95 109v4h88zM422 560v-78h-247v-169h196v-75h-196v-160h247v-78h-334v560h334z" />
    <glyph glyph-name="emacron.smcp" horiz-adv-x="472" 
d="M131 677h243v-55h-243v55zM422 560v-78h-247v-169h196v-75h-196v-160h247v-78h-334v560h334z" />
    <glyph glyph-name="eogonek.smcp" horiz-adv-x="472" 
d="M422 560v-78h-247v-169h196v-75h-196v-160h247v-78h-83c-31 -15 -50 -41 -50 -61c0 -33 23 -49 59 -49c32 0 50 9 61 15v-48c-16 -11 -46 -19 -73 -19c-60 0 -99 30 -99 79c0 33 16 62 44 83h-193v560h334z" />
    <glyph glyph-name="uni1EBD.smcp" horiz-adv-x="472" 
d="M195 648c-24 0 -39 -17 -39 -42h-46c0 58 31 98 79 98c44 0 83 -39 119 -39c23 0 39 17 39 41h45c0 -57 -31 -95 -79 -95c-45 0 -83 37 -118 37zM422 560v-78h-247v-169h196v-75h-196v-160h247v-78h-334v560h334z" />
    <glyph glyph-name="f.smcp" horiz-adv-x="458" 
d="M422 560v-78h-247v-172h196v-74h-196v-236h-87v560h334z" />
    <glyph glyph-name="g.smcp" horiz-adv-x="638" 
d="M330 223v72h252v-239c-67 -43 -157 -66 -235 -66c-169 0 -300 122 -300 288c0 174 137 292 302 292c77 0 159 -26 206 -66v-85h-7c-48 43 -125 73 -196 73c-117 0 -217 -88 -217 -215c0 -118 93 -209 213 -209c65 0 123 14 155 36v119h-173z" />
    <glyph glyph-name="gbreve.smcp" horiz-adv-x="638" 
d="M332 600c-74 0 -131 45 -131 113h54c0 -37 27 -66 77 -66s77 29 77 66h55c0 -68 -57 -113 -132 -113zM330 223v72h252v-239c-67 -43 -157 -66 -235 -66c-169 0 -300 122 -300 288c0 174 137 292 302 292c77 0 159 -26 206 -66v-85h-7c-48 43 -125 73 -196 73
c-117 0 -217 -88 -217 -215c0 -118 93 -209 213 -209c65 0 123 14 155 36v119h-173z" />
    <glyph glyph-name="uni0123.smcp" horiz-adv-x="638" 
d="M330 223v72h252v-239c-67 -43 -157 -66 -235 -66c-169 0 -300 122 -300 288c0 174 137 292 302 292c77 0 159 -26 206 -66v-85h-7c-48 43 -125 73 -196 73c-117 0 -217 -88 -217 -215c0 -118 93 -209 213 -209c65 0 123 14 155 36v119h-173zM261 -174v6l43 124h84v-7
l-67 -123h-60z" />
    <glyph glyph-name="gdotaccent.smcp" horiz-adv-x="638" 
d="M332 604c-27 0 -50 20 -50 48c0 27 23 47 50 47c29 0 50 -20 50 -47s-22 -48 -50 -48zM330 223v72h252v-239c-67 -43 -157 -66 -235 -66c-169 0 -300 122 -300 288c0 174 137 292 302 292c77 0 159 -26 206 -66v-85h-7c-48 43 -125 73 -196 73c-117 0 -217 -88 -217 -215
c0 -118 93 -209 213 -209c65 0 123 14 155 36v119h-173z" />
    <glyph glyph-name="h.smcp" horiz-adv-x="677" 
d="M503 314v246h86v-560h-86v236h-328v-236h-87v560h87v-246h328z" />
    <glyph glyph-name="hbar.smcp" horiz-adv-x="684" 
d="M592 460h57v-56h-57v-404h-86v236h-328v-236h-86v404h-56v56h56v100h86v-100h328v100h86v-100zM178 314h328v90h-328v-90z" />
    <glyph glyph-name="hcircumflex.smcp" horiz-adv-x="677" 
d="M398 600l-57 48l-57 -48h-70v5l124 108h8l125 -108v-5h-73zM503 314v246h86v-560h-86v236h-328v-236h-87v560h87v-246h328z" />
    <glyph glyph-name="i.smcp" horiz-adv-x="263" 
d="M175 0h-87v560h87v-560z" />
    <glyph glyph-name="iacute.smcp" horiz-adv-x="263" 
d="M155 600h-59v5l66 108h88v-4zM175 0h-87v560h87v-560z" />
    <glyph glyph-name="uni01D0.smcp" horiz-adv-x="263" 
d="M130 666l56 47h73v-5l-125 -108h-7l-124 108v5h70zM175 0h-87v560h87v-560z" />
    <glyph glyph-name="icircumflex.smcp" horiz-adv-x="263" 
d="M127 713h7l125 -108v-5h-73l-56 47l-57 -47h-70v5zM175 0h-87v560h87v-560z" />
    <glyph glyph-name="idieresis.smcp" horiz-adv-x="263" 
d="M48 605c-27 0 -50 20 -50 47c0 26 23 46 50 46s49 -20 49 -46c0 -27 -23 -47 -49 -47zM215 605c-27 0 -49 20 -49 47c0 26 22 46 49 46c28 0 49 -20 49 -46c0 -27 -22 -47 -49 -47zM175 0h-87v560h87v-560z" />
    <glyph glyph-name="i.loclTRK.smcp" horiz-adv-x="263" 
d="M132 605c-28 0 -50 21 -50 47c0 27 22 47 50 47s49 -20 49 -47s-22 -47 -49 -47zM175 0h-87v560h87v-560z" />
    <glyph glyph-name="igrave.smcp" horiz-adv-x="263" 
d="M167 600h-60l-94 109v4h88l66 -108v-5zM175 0h-87v560h87v-560z" />
    <glyph glyph-name="ij.smcp" horiz-adv-x="777" 
d="M175 0h-87v560h87v-560zM430 483v77h266v-345c0 -142 -97 -225 -216 -225c-135 0 -217 83 -217 210v20h81v-13c0 -87 50 -138 135 -138c71 0 131 53 131 143v271h-180z" />
    <glyph glyph-name="imacron.smcp" horiz-adv-x="263" 
d="M253 622h-243v55h243v-55zM175 0h-87v560h87v-560z" />
    <glyph glyph-name="iogonek.smcp" horiz-adv-x="263" 
d="M154 -110c32 0 50 9 63 16v-48c-16 -10 -47 -19 -74 -19c-61 0 -100 30 -100 78c0 33 16 62 45 84v559h87v-560h-31c-31 -15 -48 -40 -48 -60c0 -33 22 -50 58 -50z" />
    <glyph glyph-name="itilde.smcp" horiz-adv-x="263" 
d="M36 606h-46c0 58 31 98 79 98c44 0 83 -39 118 -39c23 0 40 17 40 41h45c0 -57 -31 -95 -79 -95c-45 0 -83 37 -119 37c-23 0 -38 -17 -38 -42zM175 0h-87v560h87v-560z" />
    <glyph glyph-name="j.smcp" horiz-adv-x="547" 
d="M200 483v77h266v-345c0 -142 -98 -225 -216 -225c-136 0 -217 84 -217 210v20h80v-13c0 -88 51 -138 136 -138c70 0 130 53 130 143v271h-179z" />
    <glyph glyph-name="k.smcp" horiz-adv-x="547" 
d="M296 259l228 -248v-11h-104l-245 268v-268h-87v560h87v-265c124 10 234 149 234 265h88c0 -114 -84 -248 -201 -301z" />
    <glyph glyph-name="uni0137.smcp" horiz-adv-x="547" 
d="M296 259l228 -248v-11h-104l-245 268v-268h-87v560h87v-265c124 10 234 149 234 265h88c0 -114 -84 -248 -201 -301zM220 -174v6l45 124h82v-7l-67 -123h-60z" />
    <glyph glyph-name="l.smcp" horiz-adv-x="449" 
d="M175 560v-481h243v-79h-330v560h87z" />
    <glyph glyph-name="lacute.smcp" horiz-adv-x="449" 
d="M254 713v-4l-95 -109h-59v5l66 108h88zM175 560v-481h243v-79h-330v560h87z" />
    <glyph glyph-name="lcaron.smcp" horiz-adv-x="451" 
d="M392 600v-9l-64 -138h-60l53 147h71zM175 560v-481h243v-79h-330v560h87z" />
    <glyph glyph-name="uni013C.smcp" horiz-adv-x="449" 
d="M175 560v-481h243v-79h-330v560h87zM154 -174v6l45 124h82v-7l-66 -123h-61z" />
    <glyph glyph-name="ldot.smcp" horiz-adv-x="451" 
d="M175 560v-481h243v-79h-330v560h87zM315 229c-28 0 -51 22 -51 50s23 50 51 50c29 0 51 -22 51 -50s-24 -50 -51 -50z" />
    <glyph glyph-name="lslash.smcp" horiz-adv-x="476" 
d="M201 247v-168h245v-79h-331v202l-69 -36v71l69 36v287h86v-243l123 64v-70z" />
    <glyph glyph-name="m.smcp" horiz-adv-x="796" 
d="M660 560l89 -560h-83l-60 373l-200 -333h-16l-200 332l-60 -372h-83l90 560h24l237 -389l236 389h26z" />
    <glyph glyph-name="n.smcp" horiz-adv-x="653" 
d="M478 180v380h86v-560h-20l-369 375v-375h-87v560h21z" />
    <glyph glyph-name="nacute.smcp" horiz-adv-x="653" 
d="M446 713v-4l-94 -109h-60v5l66 108h88zM478 180v380h86v-560h-20l-369 375v-375h-87v560h21z" />
    <glyph glyph-name="ncaron.smcp" horiz-adv-x="653" 
d="M459 708l-126 -108h-7l-124 108v5h69l58 -47l57 47h73v-5zM478 180v380h86v-560h-20l-369 375v-375h-87v560h21z" />
    <glyph glyph-name="uni0146.smcp" horiz-adv-x="653" 
d="M478 180v380h86v-560h-20l-369 375v-375h-87v560h21zM252 -174v6l44 124h83v-7l-67 -123h-60z" />
    <glyph glyph-name="eng.smcp" horiz-adv-x="653" 
d="M478 200v360h86v-505c0 -144 -95 -221 -213 -221c-14 0 -28 1 -45 4v76c13 -2 28 -4 39 -4c74 0 133 53 133 142v32l-303 305v-389h-87v560h32z" />
    <glyph glyph-name="ntilde.smcp" horiz-adv-x="653" 
d="M268 648c-23 0 -38 -17 -38 -42h-46c0 57 31 98 80 98c44 0 82 -39 118 -39c23 0 40 17 40 41h44c0 -57 -31 -95 -79 -95c-44 0 -83 37 -119 37zM478 180v380h86v-560h-20l-369 375v-375h-87v560h21z" />
    <glyph glyph-name="o.smcp" horiz-adv-x="688" 
d="M344 -10c-169 0 -297 126 -297 290s130 290 297 290c170 0 297 -126 297 -290c0 -165 -131 -290 -297 -290zM344 69c117 0 209 93 209 211c0 120 -93 211 -209 211c-120 0 -209 -94 -209 -211c0 -118 90 -211 209 -211z" />
    <glyph glyph-name="oacute.smcp" horiz-adv-x="688" 
d="M369 600h-59v5l67 108h87v-4zM344 -10c-169 0 -297 126 -297 290s130 290 297 290c170 0 297 -126 297 -290c0 -165 -131 -290 -297 -290zM344 69c117 0 209 93 209 211c0 120 -93 211 -209 211c-120 0 -209 -94 -209 -211c0 -118 90 -211 209 -211z" />
    <glyph glyph-name="uni01D2.smcp" horiz-adv-x="688" 
d="M476 708l-125 -108h-7l-125 108v5h71l57 -48l57 48h72v-5zM344 570c170 0 297 -126 297 -290c0 -165 -131 -290 -297 -290c-169 0 -297 126 -297 290s130 290 297 290zM344 69c117 0 209 93 209 211c0 120 -93 211 -209 211c-120 0 -209 -94 -209 -211
c0 -118 90 -211 209 -211z" />
    <glyph glyph-name="ocircumflex.smcp" horiz-adv-x="688" 
d="M403 600l-57 48l-57 -48h-70v5l124 108h8l125 -108v-5h-73zM344 570c170 0 297 -126 297 -290c0 -165 -131 -290 -297 -290c-169 0 -297 126 -297 290s130 290 297 290zM344 69c117 0 209 93 209 211c0 120 -93 211 -209 211c-120 0 -209 -94 -209 -211
c0 -118 90 -211 209 -211z" />
    <glyph glyph-name="odieresis.smcp" horiz-adv-x="688" 
d="M260 605c-26 0 -49 20 -49 47c0 26 22 46 49 46s49 -20 49 -46c0 -27 -22 -47 -49 -47zM428 605c-26 0 -50 20 -50 47c0 26 24 46 50 46c28 0 49 -20 49 -46c0 -27 -23 -47 -49 -47zM344 -10c-169 0 -297 126 -297 290s130 290 297 290c170 0 297 -126 297 -290
c0 -165 -131 -290 -297 -290zM344 69c117 0 209 93 209 211c0 120 -93 211 -209 211c-120 0 -209 -94 -209 -211c0 -118 90 -211 209 -211z" />
    <glyph glyph-name="ograve.smcp" horiz-adv-x="688" 
d="M369 600h-59l-95 109v4h88l66 -108v-5zM344 -10c-169 0 -297 126 -297 290s130 290 297 290c170 0 297 -126 297 -290c0 -165 -131 -290 -297 -290zM344 69c117 0 209 93 209 211c0 120 -93 211 -209 211c-120 0 -209 -94 -209 -211c0 -118 90 -211 209 -211z" />
    <glyph glyph-name="ohungarumlaut.smcp" horiz-adv-x="688" 
d="M312 600h-52v5l53 108h66v-4zM424 600h-52v5l54 108h65v-4zM344 -10c-169 0 -297 126 -297 290s130 290 297 290c170 0 297 -126 297 -290c0 -165 -131 -290 -297 -290zM344 69c117 0 209 93 209 211c0 120 -93 211 -209 211c-120 0 -209 -94 -209 -211
c0 -118 90 -211 209 -211z" />
    <glyph glyph-name="omacron.smcp" horiz-adv-x="688" 
d="M466 622h-243v55h243v-55zM344 -10c-169 0 -297 126 -297 290s130 290 297 290c170 0 297 -126 297 -290c0 -165 -131 -290 -297 -290zM344 69c117 0 209 93 209 211c0 120 -93 211 -209 211c-120 0 -209 -94 -209 -211c0 -118 90 -211 209 -211z" />
    <glyph glyph-name="oslash.smcp" horiz-adv-x="690" 
d="M616 549l-56 -65c51 -52 82 -124 82 -204c0 -165 -132 -290 -297 -290c-64 0 -121 18 -168 48l-58 -67l-43 36l57 66c-53 52 -85 125 -85 207c0 164 129 290 297 290c65 0 123 -18 171 -50l55 64zM136 280c0 -55 20 -105 53 -142l272 318c-33 22 -73 35 -116 35
c-120 0 -209 -94 -209 -211zM345 69c116 0 208 93 208 211c0 54 -19 102 -50 138l-272 -316c33 -21 71 -33 114 -33z" />
    <glyph glyph-name="oslashacute.smcp" horiz-adv-x="690" 
d="M465 713v-4l-95 -109h-59v5l66 108h88zM616 549l-56 -65c51 -52 82 -124 82 -204c0 -165 -132 -290 -297 -290c-64 0 -121 18 -168 48l-58 -67l-43 36l57 66c-53 52 -85 125 -85 207c0 164 129 290 297 290c65 0 123 -18 171 -50l55 64zM136 280c0 -55 20 -105 53 -142
l272 318c-33 22 -73 35 -116 35c-120 0 -209 -94 -209 -211zM345 69c116 0 208 93 208 211c0 54 -19 102 -50 138l-272 -316c33 -21 71 -33 114 -33z" />
    <glyph glyph-name="otilde.smcp" horiz-adv-x="688" 
d="M248 606h-46c0 58 31 98 79 98c44 0 83 -39 118 -39c24 0 40 17 40 41h45c0 -57 -31 -95 -79 -95c-45 0 -83 37 -119 37c-23 0 -38 -17 -38 -42zM344 -10c-169 0 -297 126 -297 290s130 290 297 290c170 0 297 -126 297 -290c0 -165 -131 -290 -297 -290zM344 69
c117 0 209 93 209 211c0 120 -93 211 -209 211c-120 0 -209 -94 -209 -211c0 -118 90 -211 209 -211z" />
    <glyph glyph-name="oe.smcp" horiz-adv-x="937" 
d="M887 560v-78h-247v-169h194v-75h-194v-160h247v-78h-327v88c-50 -61 -125 -98 -216 -98c-169 0 -297 126 -297 290s130 290 297 290c92 0 167 -37 216 -97v87h327zM344 69c117 0 209 92 209 211c0 121 -94 211 -209 211c-120 0 -209 -93 -209 -211s90 -211 209 -211z" />
    <glyph glyph-name="p.smcp" horiz-adv-x="512" 
d="M88 560h165c134 0 224 -73 224 -182c0 -108 -90 -183 -224 -183h-78v-195h-87v560zM175 270h73c85 -1 141 38 141 107c0 68 -57 107 -141 107h-73v-214z" />
    <glyph glyph-name="thorn.smcp" horiz-adv-x="538" 
d="M175 464h95c134 0 224 -73 224 -182c0 -110 -90 -183 -224 -183h-95v-99h-87v560h87v-96zM175 176h89c85 0 142 37 142 106c0 68 -57 105 -142 105h-89v-211z" />
    <glyph glyph-name="q.smcp" horiz-adv-x="688" 
d="M641 280c0 -150 -108 -267 -252 -287v-115h-89v115c-147 20 -253 138 -253 287c0 164 130 290 297 290c170 0 297 -126 297 -290zM344 69c117 0 209 93 209 211c0 120 -93 211 -209 211c-120 0 -209 -94 -209 -211c0 -118 90 -211 209 -211z" />
    <glyph glyph-name="r.smcp" horiz-adv-x="568" 
d="M504 99l15 -99h-89l-15 94c-12 78 -63 116 -129 116h-111v-210h-87v560h207c135 0 214 -68 214 -175c0 -67 -37 -120 -97 -144c39 -20 79 -65 92 -142zM175 282h114c85 0 132 40 132 102c0 63 -46 100 -132 100h-114v-202z" />
    <glyph glyph-name="racute.smcp" horiz-adv-x="568" 
d="M387 713v-4l-94 -109h-59v5l66 108h87zM504 99l15 -99h-89l-15 94c-12 78 -63 116 -129 116h-111v-210h-87v560h207c135 0 214 -68 214 -175c0 -67 -37 -120 -97 -144c39 -20 79 -65 92 -142zM175 282h114c85 0 132 40 132 102c0 63 -46 100 -132 100h-114v-202z" />
    <glyph glyph-name="rcaron.smcp" horiz-adv-x="568" 
d="M398 708l-125 -108h-7l-125 109v4h71l57 -47l56 47h73v-5zM504 99l15 -99h-89l-15 94c-12 78 -63 116 -129 116h-111v-210h-87v560h207c135 0 214 -68 214 -175c0 -67 -37 -120 -97 -144c39 -20 79 -65 92 -142zM175 282h114c85 0 132 40 132 102c0 63 -46 100 -132 100
h-114v-202z" />
    <glyph glyph-name="uni0157.smcp" horiz-adv-x="568" 
d="M504 99l15 -99h-89l-15 94c-12 78 -63 116 -129 116h-111v-210h-87v560h207c135 0 214 -68 214 -175c0 -67 -37 -120 -97 -144c39 -20 79 -65 92 -142zM175 282h114c85 0 132 40 132 102c0 63 -46 100 -132 100h-114v-202zM207 -174v6l44 124h83v-7l-68 -123h-59z" />
    <glyph glyph-name="s.smcp" horiz-adv-x="493" 
d="M238 -10c-47 0 -137 17 -183 50v80c48 -36 127 -53 178 -53c80 0 133 31 133 82c0 36 -25 62 -68 74l-135 40c-77 24 -106 89 -106 145c0 103 84 162 200 162c50 0 120 -12 155 -30v-82c-38 23 -103 35 -153 35c-84 0 -115 -37 -115 -85c0 -24 10 -59 60 -77l135 -41
c68 -20 114 -70 114 -140c0 -101 -92 -160 -215 -160z" />
    <glyph glyph-name="sacute.smcp" horiz-adv-x="493" 
d="M292 600h-59v5l66 108h88v-4zM238 -10c-47 0 -137 17 -183 50v80c48 -36 127 -53 178 -53c80 0 133 31 133 82c0 36 -25 62 -68 74l-135 40c-77 24 -106 89 -106 145c0 103 84 162 200 162c50 0 120 -12 155 -30v-82c-38 23 -103 35 -153 35c-84 0 -115 -37 -115 -85
c0 -24 10 -59 60 -77l135 -41c68 -20 114 -70 114 -140c0 -101 -92 -160 -215 -160z" />
    <glyph glyph-name="scaron.smcp" horiz-adv-x="493" 
d="M399 708l-126 -108h-7l-124 108v5h70l58 -48l57 48h72v-5zM204 331l135 -41c68 -20 114 -70 114 -140c0 -101 -92 -160 -215 -160c-47 0 -137 17 -183 50v80c48 -36 127 -53 178 -53c80 0 133 31 133 82c0 36 -25 62 -68 74l-135 40c-77 24 -106 89 -106 145
c0 103 84 162 200 162c50 0 120 -12 155 -30v-82c-38 23 -103 35 -153 35c-84 0 -115 -37 -115 -85c0 -24 10 -59 60 -77z" />
    <glyph glyph-name="scedilla.smcp" horiz-adv-x="493" 
d="M453 150c0 -88 -69 -144 -168 -157l-22 -39c10 3 23 5 32 5c42 0 69 -23 69 -57c0 -41 -47 -70 -116 -70c-15 0 -36 3 -56 7v36c14 -4 32 -6 44 -6c36 0 60 14 60 33c0 16 -18 28 -46 28c-10 0 -25 -2 -35 -6l-6 15l27 51c-47 0 -136 17 -181 50v80
c48 -36 127 -53 178 -53c80 0 133 31 133 82c0 36 -25 62 -68 74l-135 40c-77 24 -106 89 -106 145c0 103 84 162 200 162c50 0 120 -12 155 -30v-82c-38 23 -103 35 -153 35c-84 0 -115 -37 -115 -85c0 -24 10 -59 60 -77l135 -41c68 -20 114 -70 114 -140z" />
    <glyph glyph-name="uni0219.smcp" horiz-adv-x="493" 
d="M238 -10c-47 0 -137 17 -183 50v80c48 -36 127 -53 178 -53c80 0 133 31 133 82c0 36 -25 62 -68 74l-135 40c-77 24 -106 89 -106 145c0 103 84 162 200 162c50 0 120 -12 155 -30v-82c-38 23 -103 35 -153 35c-84 0 -115 -37 -115 -85c0 -24 10 -59 60 -77l135 -41
c68 -20 114 -70 114 -140c0 -101 -92 -160 -215 -160zM252 -174h-60v6l45 124h83v-7z" />
    <glyph glyph-name="germandbls.smcp" horiz-adv-x="603" 
d="M523 522l-117 -182c91 -17 151 -88 151 -172c0 -95 -71 -178 -196 -178c-28 0 -97 6 -140 22v75c38 -13 101 -23 138 -20c75 5 111 56 111 108c0 64 -59 107 -155 108l-3 45l101 156c-26 4 -55 7 -80 7c-154 0 -167 -129 -167 -185v-306h-86v308c0 61 10 262 265 262
c75 0 139 -15 168 -27z" />
    <glyph glyph-name="t.smcp" horiz-adv-x="541" 
d="M30 560h481v-79h-196v-481h-87v481h-198v79z" />
    <glyph glyph-name="tbar.smcp" horiz-adv-x="549" 
d="M515 560v-79h-196v-173h123v-56h-123v-252h-87v252h-124v56h124v173h-198v79h481z" />
    <glyph glyph-name="tcaron.smcp" horiz-adv-x="541" 
d="M403 708l-126 -108h-7l-124 108v5h70l57 -48l57 48h73v-5zM30 560h481v-79h-196v-481h-87v481h-198v79z" />
    <glyph glyph-name="uni0163.smcp" horiz-adv-x="541" 
d="M315 481v-481h-25l-26 -46c8 3 23 5 31 5c41 0 70 -23 70 -57c0 -41 -47 -70 -117 -70c-14 0 -37 3 -55 7v36c13 -4 32 -6 44 -6c35 0 59 14 59 33c0 16 -18 28 -45 28c-10 0 -25 -2 -35 -6l-8 15l33 61h-13v481h-198v79h481v-79h-196z" />
    <glyph glyph-name="uni021B.smcp" horiz-adv-x="541" 
d="M30 560h481v-79h-196v-481h-87v481h-198v79zM183 -174v6l44 124h83v-7l-67 -123h-60z" />
    <glyph glyph-name="u.smcp" horiz-adv-x="638" 
d="M318 -9c-142 0 -238 99 -238 253v316h86v-318c0 -104 60 -172 154 -172s151 69 151 174v316h87v-316c0 -154 -97 -253 -240 -253z" />
    <glyph glyph-name="uacute.smcp" horiz-adv-x="638" 
d="M344 600h-59v5l66 108h87v-4zM318 -9c-142 0 -238 99 -238 253v316h86v-318c0 -104 60 -172 154 -172s151 69 151 174v316h87v-316c0 -154 -97 -253 -240 -253z" />
    <glyph glyph-name="uni01D4.smcp" horiz-adv-x="638" 
d="M451 708l-125 -108h-8l-123 108v5h69l57 -48l57 48h73v-5zM471 244v316h87v-316c0 -154 -97 -253 -240 -253c-142 0 -238 99 -238 253v316h86v-318c0 -104 60 -172 154 -172s151 69 151 174z" />
    <glyph glyph-name="ucircumflex.smcp" horiz-adv-x="638" 
d="M377 600l-56 47l-57 -47h-70v5l124 108h7l125 -108v-5h-73zM471 244v316h87v-316c0 -154 -97 -253 -240 -253c-142 0 -238 99 -238 253v316h86v-318c0 -104 60 -172 154 -172s151 69 151 174z" />
    <glyph glyph-name="udieresis.smcp" horiz-adv-x="638" 
d="M235 605c-27 0 -49 20 -49 47c0 26 22 46 49 46c28 0 49 -20 49 -46c0 -27 -23 -47 -49 -47zM403 605c-27 0 -49 20 -49 47c0 26 22 46 49 46s49 -20 49 -46c0 -27 -23 -47 -49 -47zM318 -9c-142 0 -238 99 -238 253v316h86v-318c0 -104 60 -172 154 -172s151 69 151 174
v316h87v-316c0 -154 -97 -253 -240 -253z" />
    <glyph glyph-name="uni01D8.smcp" horiz-adv-x="638" 
d="M344 735h-59v5l66 107h87v-4zM235 605c-27 0 -49 20 -49 47c0 26 22 46 49 46c28 0 49 -20 49 -46c0 -27 -23 -47 -49 -47zM403 605c-27 0 -49 20 -49 47c0 26 22 46 49 46s49 -20 49 -46c0 -27 -23 -47 -49 -47zM318 -9c-142 0 -238 99 -238 253v316h86v-318
c0 -104 60 -172 154 -172s151 69 151 174v316h87v-316c0 -154 -97 -253 -240 -253z" />
    <glyph glyph-name="uni01DA.smcp" horiz-adv-x="638" 
d="M451 841l-125 -106h-8l-123 107v5h69l57 -48l57 48h73v-6zM235 605c-27 0 -49 20 -49 47c0 26 22 46 49 46c28 0 49 -20 49 -46c0 -27 -23 -47 -49 -47zM403 698c27 0 49 -20 49 -46c0 -27 -23 -47 -49 -47c-27 0 -49 20 -49 47c0 26 22 46 49 46zM471 244v316h87v-316
c0 -154 -97 -253 -240 -253c-142 0 -238 99 -238 253v316h86v-318c0 -104 60 -172 154 -172s151 69 151 174z" />
    <glyph glyph-name="uni01DC.smcp" horiz-adv-x="638" 
d="M343 735h-59l-94 108v4h87l66 -107v-5zM235 605c-27 0 -49 20 -49 47c0 26 22 46 49 46c28 0 49 -20 49 -46c0 -27 -23 -47 -49 -47zM403 605c-27 0 -49 20 -49 47c0 26 22 46 49 46s49 -20 49 -46c0 -27 -23 -47 -49 -47zM318 -9c-142 0 -238 99 -238 253v316h86v-318
c0 -104 60 -172 154 -172s151 69 151 174v316h87v-316c0 -154 -97 -253 -240 -253z" />
    <glyph glyph-name="uni01D6.smcp" horiz-adv-x="638" 
d="M440 757h-243v54h243v-54zM235 605c-27 0 -49 20 -49 47c0 26 22 46 49 46c28 0 49 -20 49 -46c0 -27 -23 -47 -49 -47zM403 605c-27 0 -49 20 -49 47c0 26 22 46 49 46s49 -20 49 -46c0 -27 -23 -47 -49 -47zM318 -9c-142 0 -238 99 -238 253v316h86v-318
c0 -104 60 -172 154 -172s151 69 151 174v316h87v-316c0 -154 -97 -253 -240 -253z" />
    <glyph glyph-name="ugrave.smcp" horiz-adv-x="638" 
d="M343 600h-59l-94 109v4h87l66 -108v-5zM318 -9c-142 0 -238 99 -238 253v316h86v-318c0 -104 60 -172 154 -172s151 69 151 174v316h87v-316c0 -154 -97 -253 -240 -253z" />
    <glyph glyph-name="uhungarumlaut.smcp" horiz-adv-x="638" 
d="M281 600h-51v5l53 108h65v-4zM394 600h-52v5l54 108h65v-4zM318 -9c-142 0 -238 99 -238 253v316h86v-318c0 -104 60 -172 154 -172s151 69 151 174v316h87v-316c0 -154 -97 -253 -240 -253z" />
    <glyph glyph-name="umacron.smcp" horiz-adv-x="638" 
d="M440 622h-243v55h243v-55zM318 -9c-142 0 -238 99 -238 253v316h86v-318c0 -104 60 -172 154 -172s151 69 151 174v316h87v-316c0 -154 -97 -253 -240 -253z" />
    <glyph glyph-name="uogonek.smcp" horiz-adv-x="638" 
d="M471 244v316h87v-316c0 -137 -77 -230 -194 -249c-26 -16 -40 -38 -40 -56c0 -33 22 -49 58 -49c34 0 51 9 62 15v-48c-15 -11 -47 -19 -73 -19c-60 0 -100 30 -100 79c0 28 12 54 35 74c-136 6 -226 104 -226 253v316h86v-318c0 -104 60 -172 154 -172s151 69 151 174z
" />
    <glyph glyph-name="uring.smcp" horiz-adv-x="638" 
d="M319 615c-54 1 -97 40 -97 91c0 48 43 89 97 89c53 0 96 -40 96 -89c0 -51 -42 -92 -96 -91zM319 658c28 0 51 21 51 48c0 26 -23 47 -51 47c-29 0 -52 -21 -52 -47c0 -27 23 -48 52 -48zM318 -9c-142 0 -238 99 -238 253v316h86v-318c0 -104 60 -172 154 -172
s151 69 151 174v316h87v-316c0 -154 -97 -253 -240 -253z" />
    <glyph glyph-name="utilde.smcp" horiz-adv-x="638" 
d="M222 606h-46c0 58 31 98 80 98c43 0 83 -39 119 -39c23 0 39 17 39 41h44c0 -57 -31 -95 -79 -95c-45 0 -83 37 -118 37c-23 0 -39 -17 -39 -42zM318 -9c-142 0 -238 99 -238 253v316h86v-318c0 -104 60 -172 154 -172s151 69 151 174v316h87v-316
c0 -154 -97 -253 -240 -253z" />
    <glyph glyph-name="v.smcp" horiz-adv-x="577" 
d="M289 156l183 404h91v-7l-262 -553h-26l-261 553v7h90z" />
    <glyph glyph-name="w.smcp" horiz-adv-x="893" 
d="M622 177l159 383h94v-7l-232 -553h-26l-170 365l-171 -365h-27l-232 553v7h95l159 -383l155 330h42z" />
    <glyph glyph-name="wacute.smcp" horiz-adv-x="893" 
d="M566 713v-4l-95 -109h-58v5l66 108h87zM622 177l159 383h94v-7l-232 -553h-26l-170 365l-171 -365h-27l-232 553v7h95l159 -383l155 330h42z" />
    <glyph glyph-name="wcircumflex.smcp" horiz-adv-x="893" 
d="M505 600l-57 48l-57 -48h-69v5l123 108h8l125 -108v-5h-73zM622 177l159 383h94v-7l-232 -553h-26l-170 365l-171 -365h-27l-232 553v7h95l159 -383l155 330h42z" />
    <glyph glyph-name="wdieresis.smcp" horiz-adv-x="893" 
d="M362 605c-26 0 -49 20 -49 47c0 26 22 46 49 46c28 0 49 -20 49 -46c0 -27 -22 -47 -49 -47zM530 605c-26 0 -49 20 -49 47c0 26 22 46 49 46c28 0 49 -20 49 -46c0 -27 -22 -47 -49 -47zM622 177l159 383h94v-7l-232 -553h-26l-170 365l-171 -365h-27l-232 553v7h95
l159 -383l155 330h42z" />
    <glyph glyph-name="wgrave.smcp" horiz-adv-x="893" 
d="M471 605v-5h-59l-95 109v4h88zM622 177l159 383h94v-7l-232 -553h-26l-170 365l-171 -365h-27l-232 553v7h95l159 -383l155 330h42z" />
    <glyph glyph-name="x.smcp" horiz-adv-x="564" 
d="M528 553l-194 -261l215 -285v-7h-98l-169 226l-169 -226h-98v7l216 286l-196 260v7h97l150 -200l149 200h97v-7z" />
    <glyph glyph-name="y.smcp" horiz-adv-x="574" 
d="M287 275l178 285h91v-7l-225 -349v-204h-86v203l-227 350v7h90z" />
    <glyph glyph-name="yacute.smcp" horiz-adv-x="574" 
d="M406 713v-4l-94 -109h-60v5l67 108h87zM287 275l178 285h91v-7l-225 -349v-204h-86v203l-227 350v7h90z" />
    <glyph glyph-name="ycircumflex.smcp" horiz-adv-x="574" 
d="M345 600l-56 48l-57 -48h-71v5l125 108h7l125 -108v-5h-73zM287 275l178 285h91v-7l-225 -349v-204h-86v203l-227 350v7h90z" />
    <glyph glyph-name="ydieresis.smcp" horiz-adv-x="574" 
d="M203 605c-27 0 -49 20 -49 47c0 26 22 46 49 46c28 0 49 -20 49 -46c0 -27 -23 -47 -49 -47zM371 605c-27 0 -49 20 -49 47c0 26 22 46 49 46s49 -20 49 -46c0 -27 -23 -47 -49 -47zM287 275l178 285h91v-7l-225 -349v-204h-86v203l-227 350v7h90z" />
    <glyph glyph-name="ygrave.smcp" horiz-adv-x="574" 
d="M311 605v-5h-59l-94 109v4h87zM287 275l178 285h91v-7l-225 -349v-204h-86v203l-227 350v7h90z" />
    <glyph glyph-name="uni1EF9.smcp" horiz-adv-x="574" 
d="M229 648c-24 0 -39 -17 -39 -42h-46c0 57 31 98 80 98c44 0 82 -39 118 -39c24 0 40 17 40 41h44c0 -57 -31 -95 -79 -95c-45 0 -83 37 -118 37zM287 275l178 285h91v-7l-225 -349v-204h-86v203l-227 350v7h90z" />
    <glyph glyph-name="z.smcp" horiz-adv-x="536" 
d="M495 547l-326 -469h331v-78h-474v15l323 467h-299v78h445v-13z" />
    <glyph glyph-name="zacute.smcp" horiz-adv-x="536" 
d="M386 713v-4l-95 -109h-59v5l66 108h88zM495 547l-326 -469h331v-78h-474v15l323 467h-299v78h445v-13z" />
    <glyph glyph-name="zcaron.smcp" horiz-adv-x="536" 
d="M398 708l-126 -108h-7l-124 108v5h70l58 -48l57 48h72v-5zM495 547l-326 -469h331v-78h-474v15l323 467h-299v78h445v-13z" />
    <glyph glyph-name="zdotaccent.smcp" horiz-adv-x="536" 
d="M266 605c-26 0 -49 20 -49 47s22 47 49 47c28 0 50 -20 50 -47c0 -26 -23 -47 -50 -47zM495 547l-326 -469h331v-78h-474v15l323 467h-299v78h445v-13z" />
    <glyph glyph-name="ordfeminine" unicode="&#xaa;" horiz-adv-x="558" 
d="M404 642v48h71v-408h-71v48c-33 -35 -88 -58 -143 -58c-114 0 -203 84 -203 214s89 214 203 214c55 0 110 -23 143 -58zM273 333c46 0 98 23 131 58v190c-32 35 -82 58 -131 58c-82 0 -144 -59 -145 -153c1 -94 63 -153 145 -153zM474 154h-386v56h386v-56z" />
    <glyph glyph-name="ordmasculine" unicode="&#xba;" horiz-adv-x="571" 
d="M284 272c-121 0 -218 92 -218 215c0 122 97 213 218 213c120 0 217 -91 217 -213c0 -123 -97 -215 -217 -215zM284 335c80 0 147 65 147 152c0 86 -67 150 -147 150c-81 0 -148 -64 -148 -150c0 -87 67 -152 148 -152zM71 154v56h432v-56h-432z" />
    <glyph glyph-name="zero" unicode="0" horiz-adv-x="664" 
d="M332 -12c-163 0 -272 145 -272 362s109 362 272 362s272 -145 272 -362s-109 -362 -272 -362zM332 65c122 0 187 117 187 285s-65 285 -187 285c-123 0 -186 -117 -187 -285c1 -168 64 -285 187 -285z" />
    <glyph glyph-name="one" unicode="1" horiz-adv-x="355" 
d="M22 623v77h228v-700h-83v623h-145z" />
    <glyph glyph-name="two" unicode="2" horiz-adv-x="572" 
d="M385 278l-189 -201h326v-77h-475l-13 18l289 310c60 71 95 124 95 180c0 69 -53 127 -143 127c-80 0 -159 -42 -215 -93v92c66 53 141 78 216 78c136 0 226 -86 226 -204c0 -79 -41 -147 -117 -230z" />
    <glyph glyph-name="three" unicode="3" horiz-adv-x="551" 
d="M353 366c111 -20 140 -106 140 -170c0 -124 -105 -208 -270 -208c-46 0 -111 7 -175 30v82c58 -26 123 -35 173 -35c125 0 188 52 188 131c0 78 -62 122 -158 122h-88v76h74c107 0 144 75 144 131c0 70 -58 110 -150 110c-64 0 -130 -18 -162 -32v80c41 16 110 29 170 29
c142 0 226 -71 226 -179c0 -76 -42 -139 -112 -167z" />
    <glyph glyph-name="four" unicode="4" horiz-adv-x="595" 
d="M433 250h134v-77h-134v-173h-84v173h-317l-10 13l218 514h91l-193 -450h211v118l75 54h9v-172z" />
    <glyph glyph-name="five" unicode="5" horiz-adv-x="562" 
d="M283 435c130 0 233 -87 233 -219c0 -136 -109 -228 -260 -228c-63 0 -127 17 -181 46v87c53 -35 116 -56 177 -56c104 0 179 61 179 153c0 91 -72 152 -168 152c-61 0 -122 -19 -169 -50l-17 20v360h385v-77h-301v-211c32 12 74 23 122 23z" />
    <glyph glyph-name="six" unicode="6" horiz-adv-x="614" 
d="M336 448c132 0 231 -90 231 -229c0 -133 -92 -231 -233 -231c-165 0 -274 109 -274 341c0 212 112 383 299 383c49 0 110 -12 154 -29v-80c-34 19 -100 32 -145 32c-125 0 -208 -98 -221 -261c48 46 115 74 189 74zM332 65c88 0 149 64 152 157c-1 95 -62 152 -156 152
c-71 0 -141 -33 -182 -83c8 -154 80 -226 186 -226z" />
    <glyph glyph-name="seven" unicode="7" horiz-adv-x="530" 
d="M22 623v77h494v-8l-298 -692h-91l267 623h-372z" />
    <glyph glyph-name="eight" unicode="8" horiz-adv-x="615" 
d="M434 385c74 -36 126 -100 126 -187c0 -123 -104 -210 -252 -210s-253 87 -253 210c0 87 52 151 126 187c-51 34 -86 83 -86 146c0 105 84 181 213 181c128 0 212 -76 212 -181c0 -63 -35 -112 -86 -146zM308 635c-75 0 -129 -43 -129 -109c0 -68 59 -110 129 -110
s128 42 128 110c0 66 -54 109 -128 109zM308 65c93 0 168 53 168 139c0 84 -73 143 -168 143s-168 -59 -168 -143c0 -86 74 -139 168 -139z" />
    <glyph glyph-name="nine" unicode="9" horiz-adv-x="614" 
d="M290 712c151 0 264 -105 264 -330c0 -254 -132 -394 -299 -394c-48 0 -110 12 -154 29v80c35 -19 101 -32 145 -32c126 0 208 98 221 260c-48 -46 -114 -73 -187 -73c-133 0 -233 90 -233 231c0 135 93 229 243 229zM287 326c70 0 141 32 181 82c-7 156 -77 227 -178 227
c-96 0 -155 -58 -160 -157c2 -95 62 -152 157 -152z" />
    <glyph glyph-name="zero.BlackCircled" horiz-adv-x="891" 
d="M445 -12c-220 1 -386 180 -386 388c0 212 173 386 386 386s386 -174 386 -386c0 -214 -171 -389 -386 -388zM445 175c95 0 159 80 159 200c0 119 -64 199 -159 199c-94 0 -159 -80 -159 -199c0 -120 65 -200 159 -200zM445 244c-51 0 -84 51 -84 131s33 131 84 131
c53 0 85 -52 85 -131c0 -80 -32 -131 -85 -131z" />
    <glyph glyph-name="one.BlackCircled" horiz-adv-x="891" 
d="M445 -12c-220 1 -386 180 -386 388c0 212 173 386 386 386s386 -174 386 -386c0 -214 -171 -389 -386 -388zM411 502v-320h73v385h-149v-65h76z" />
    <glyph glyph-name="two.BlackCircled" horiz-adv-x="891" 
d="M445 -12c-220 1 -386 180 -386 388c0 212 173 386 386 386s386 -174 386 -386c0 -214 -171 -389 -386 -388zM305 192l9 -13h272v68h-148l76 85c41 49 61 85 61 126c0 66 -53 113 -130 113c-45 0 -91 -16 -126 -43v-72c29 26 71 46 111 46s66 -24 66 -57
c0 -28 -20 -54 -48 -89z" />
    <glyph glyph-name="three.BlackCircled" horiz-adv-x="891" 
d="M445 -12c-220 1 -386 180 -386 388c0 212 173 386 386 386s386 -174 386 -386c0 -214 -171 -389 -386 -388zM420 176c89 0 152 46 152 113c0 46 -31 88 -80 94c38 12 65 48 65 91c0 60 -51 100 -126 100c-38 0 -78 -7 -104 -16v-66c15 6 50 15 87 15c43 0 69 -19 69 -49
c0 -29 -27 -52 -66 -52h-40v-56h48c44 0 73 -21 73 -53c0 -33 -30 -55 -81 -55c-36 0 -75 7 -98 17v-68c33 -10 68 -15 101 -15z" />
    <glyph glyph-name="four.BlackCircled" horiz-adv-x="891" 
d="M445 -12c-220 1 -386 180 -386 388c0 212 173 386 386 386s386 -174 386 -386c0 -214 -171 -389 -386 -388zM585 270v61h-62v92h-9l-62 -28v-64h-90l94 238h-75l-113 -278l11 -21h173v-86h71v86h62z" />
    <glyph glyph-name="five.BlackCircled" horiz-adv-x="891" 
d="M445 -12c-220 1 -386 180 -386 388c0 212 173 386 386 386s386 -174 386 -386c0 -214 -171 -389 -386 -388zM315 276v-69c29 -18 68 -28 108 -28c90 0 154 54 154 132c0 73 -56 116 -126 116c-19 0 -45 -3 -65 -9v89h155v64h-225v-204l12 -10c30 15 60 23 91 23
c48 0 84 -27 84 -67c0 -41 -36 -69 -85 -69c-34 0 -71 12 -103 32z" />
    <glyph glyph-name="six.BlackCircled" horiz-adv-x="891" 
d="M445 -12c-220 1 -386 180 -386 388c0 212 173 386 386 386s386 -174 386 -386c0 -214 -171 -389 -386 -388zM466 430c-34 0 -68 -12 -93 -32c10 69 50 109 112 109c26 0 61 -6 79 -15v66c-21 8 -61 16 -92 16c-109 0 -176 -90 -176 -211c0 -123 62 -188 157 -188
c83 0 141 54 141 131c0 72 -55 124 -128 124zM452 240c-46 0 -78 34 -82 104c22 18 52 30 79 30c43 0 71 -26 72 -66c-1 -41 -30 -68 -69 -68z" />
    <glyph glyph-name="seven.BlackCircled" horiz-adv-x="891" 
d="M445 -12c-220 1 -386 180 -386 388c0 212 173 386 386 386s386 -174 386 -386c0 -214 -171 -389 -386 -388zM484 502l-133 -320h82l160 381v4h-294v-65h185z" />
    <glyph glyph-name="eight.BlackCircled" horiz-adv-x="891" 
d="M445 -12c-220 1 -386 180 -386 388c0 212 173 386 386 386s386 -174 386 -386c0 -214 -171 -389 -386 -388zM440 173c89 0 151 47 151 115c0 45 -28 83 -72 101c33 17 52 48 52 82c0 60 -53 101 -131 101s-131 -41 -131 -101c0 -34 19 -65 52 -82
c-45 -18 -72 -56 -72 -101c0 -68 62 -115 151 -115zM440 413c-33 0 -61 17 -61 50c0 30 26 50 61 50s61 -20 61 -50c0 -33 -27 -50 -61 -50zM440 236c-44 0 -78 25 -78 63c0 39 34 64 78 64c46 0 78 -25 78 -64c0 -38 -35 -63 -78 -63z" />
    <glyph glyph-name="nine.BlackCircled" horiz-adv-x="891" 
d="M445 -12c-220 1 -386 180 -386 388c0 212 173 386 386 386s386 -174 386 -386c0 -214 -171 -389 -386 -388zM440 574c-86 0 -144 -53 -144 -129c0 -75 56 -126 128 -126c36 0 68 12 93 33c-11 -70 -49 -110 -113 -110c-25 0 -60 6 -78 15v-66c23 -8 60 -16 93 -16
c105 0 175 84 175 215c0 121 -63 184 -154 184zM383 429c-7 33 10 59 43 66c36 9 68 -14 79 -69c-9 -15 -27 -29 -50 -44c-37 -4 -66 14 -72 47z" />
    <glyph glyph-name="zero.zero" horiz-adv-x="664" 
d="M332 712c163 0 272 -145 272 -362s-109 -362 -272 -362s-272 145 -272 362s109 362 272 362zM332 635c-123 0 -186 -117 -187 -285c0 -67 11 -126 30 -172l265 415c-28 27 -65 42 -108 42zM332 65c122 0 187 117 187 285c0 72 -12 135 -35 183l-267 -420
c29 -31 68 -48 115 -48z" />
    <glyph glyph-name="uni24EA" unicode="&#x24ea;" horiz-adv-x="891" 
d="M445 -12c-220 1 -386 180 -386 388c0 212 173 386 386 386s386 -174 386 -386c0 -214 -171 -389 -386 -388zM445 31c184 -1 343 152 343 344c0 188 -151 343 -343 343c-189 0 -342 -155 -342 -343c0 -192 158 -343 342 -344zM445 175c-94 0 -159 80 -159 200
c0 119 65 199 159 199c95 0 159 -80 159 -199c0 -120 -64 -200 -159 -200zM445 244c53 0 85 51 85 131c0 79 -32 131 -85 131c-51 0 -84 -51 -84 -131s33 -131 84 -131z" />
    <glyph glyph-name="uni2460" unicode="&#x2460;" horiz-adv-x="891" 
d="M445 762c213 0 386 -174 386 -386c0 -214 -171 -389 -386 -388c-220 1 -386 180 -386 388c0 212 173 386 386 386zM445 31c184 -1 343 152 343 344c0 188 -151 343 -343 343c-189 0 -342 -155 -342 -343c0 -192 158 -343 342 -344zM418 502h-75v65h148v-385h-73v320z" />
    <glyph glyph-name="uni2461" unicode="&#x2461;" horiz-adv-x="891" 
d="M445 762c213 0 386 -174 386 -386c0 -214 -171 -389 -386 -388c-220 1 -386 180 -386 388c0 212 173 386 386 386zM445 31c184 -1 343 152 343 344c0 188 -151 343 -343 343c-189 0 -342 -155 -342 -343c0 -192 158 -343 342 -344zM514 332l-76 -85h148v-68h-272l-9 13
l143 164c28 35 48 61 48 89c0 33 -26 57 -66 57s-82 -20 -111 -46v72c35 27 81 43 126 43c77 0 130 -47 130 -113c0 -41 -20 -77 -61 -126z" />
    <glyph glyph-name="uni2462" unicode="&#x2462;" horiz-adv-x="891" 
d="M445 762c213 0 386 -174 386 -386c0 -214 -171 -389 -386 -388c-220 1 -386 180 -386 388c0 212 173 386 386 386zM445 31c184 -1 343 152 343 344c0 188 -151 343 -343 343c-189 0 -342 -155 -342 -343c0 -192 158 -343 342 -344zM491 383c50 -6 81 -48 81 -94
c0 -67 -63 -113 -152 -113c-33 0 -68 5 -101 15v68c23 -10 62 -17 98 -17c51 0 81 22 81 55c0 32 -29 53 -73 53h-48v56h40c39 0 66 23 66 52c0 30 -26 49 -69 49c-37 0 -72 -9 -87 -15v66c26 9 66 16 104 16c75 0 126 -40 126 -100c0 -43 -27 -79 -66 -91z" />
    <glyph glyph-name="uni2463" unicode="&#x2463;" horiz-adv-x="891" 
d="M445 762c213 0 386 -174 386 -386c0 -214 -171 -389 -386 -388c-220 1 -386 180 -386 388c0 212 173 386 386 386zM445 31c184 -1 343 152 343 344c0 188 -151 343 -343 343c-189 0 -342 -155 -342 -343c0 -192 158 -343 342 -344zM514 423h9v-92h62v-61h-62v-86h-71v86
h-173l-11 21l113 278h75l-94 -238h90v64z" />
    <glyph glyph-name="uni2464" unicode="&#x2464;" horiz-adv-x="891" 
d="M445 762c213 0 386 -174 386 -386c0 -214 -171 -389 -386 -388c-220 1 -386 180 -386 388c0 212 173 386 386 386zM445 31c184 -1 343 152 343 344c0 188 -151 343 -343 343c-189 0 -342 -155 -342 -343c0 -192 158 -343 342 -344zM451 427c70 0 126 -43 126 -116
c0 -78 -64 -132 -154 -132c-40 0 -79 10 -108 28v69c32 -20 69 -32 103 -32c49 0 85 28 85 69c0 40 -36 67 -84 67c-31 0 -61 -8 -91 -23l-12 10v204h225v-64h-155v-89c19 6 45 9 65 9z" />
    <glyph glyph-name="uni2465" unicode="&#x2465;" horiz-adv-x="891" 
d="M445 762c213 0 386 -174 386 -386c0 -214 -171 -389 -386 -388c-220 1 -386 180 -386 388c0 212 173 386 386 386zM445 31c184 -1 343 152 343 344c0 188 -151 343 -343 343c-189 0 -342 -155 -342 -343c0 -192 158 -343 342 -344zM466 430c73 0 128 -52 128 -124
c0 -77 -58 -131 -141 -131c-95 0 -157 65 -157 188c0 121 67 211 176 211c31 0 71 -8 92 -16v-66c-18 9 -53 15 -79 15c-63 0 -102 -40 -112 -110c25 20 58 33 93 33zM452 240c39 0 68 27 69 68c-1 40 -29 66 -72 66c-27 0 -58 -12 -79 -30c4 -69 36 -104 82 -104z" />
    <glyph glyph-name="uni2466" unicode="&#x2466;" horiz-adv-x="891" 
d="M445 762c213 0 386 -174 386 -386c0 -214 -171 -389 -386 -388c-220 1 -386 180 -386 388c0 212 173 386 386 386zM445 31c184 -1 343 152 343 344c0 188 -151 343 -343 343c-189 0 -342 -155 -342 -343c0 -192 158 -343 342 -344zM484 502h-185v65h294v-4l-160 -381h-82
z" />
    <glyph glyph-name="uni2467" unicode="&#x2467;" horiz-adv-x="891" 
d="M445 762c213 0 386 -174 386 -386c0 -214 -171 -389 -386 -388c-220 1 -386 180 -386 388c0 212 173 386 386 386zM445 31c184 -1 343 152 343 344c0 188 -151 343 -343 343c-189 0 -342 -155 -342 -343c0 -192 158 -343 342 -344zM519 389c44 -18 72 -56 72 -101
c0 -68 -62 -115 -151 -115s-151 47 -151 115c0 45 27 83 72 102c-33 16 -52 46 -52 81c0 60 53 101 131 101s131 -41 131 -101c0 -34 -19 -65 -52 -82zM440 513c-35 0 -61 -20 -61 -50c0 -33 28 -50 61 -50c34 0 61 17 61 50c0 30 -26 50 -61 50zM440 236c43 0 78 25 78 63
c0 39 -32 64 -78 64c-44 0 -78 -25 -78 -64c0 -38 34 -63 78 -63z" />
    <glyph glyph-name="uni2468" unicode="&#x2468;" horiz-adv-x="891" 
d="M445 762c213 0 386 -174 386 -386c0 -214 -171 -389 -386 -388c-220 1 -386 180 -386 388c0 212 173 386 386 386zM445 31c184 -1 343 152 343 344c0 188 -151 343 -343 343c-189 0 -342 -155 -342 -343c0 -192 158 -343 342 -344zM440 574c91 0 154 -63 154 -184
c0 -131 -70 -215 -175 -215c-33 0 -70 8 -93 16v66c18 -9 53 -15 78 -15c64 0 102 40 112 109c-24 -20 -57 -32 -92 -32c-72 0 -128 51 -128 126c0 76 58 129 144 129zM369 442c0 -40 29 -66 71 -66c28 0 58 11 79 29c-3 71 -35 104 -79 104c-41 0 -69 -26 -71 -67z" />
    <glyph glyph-name="zero.lf" horiz-adv-x="664" 
d="M332 -12c-163 0 -272 145 -272 362s109 362 272 362s272 -145 272 -362s-109 -362 -272 -362zM332 65c122 0 187 117 187 285s-65 285 -187 285c-123 0 -186 -117 -187 -285c1 -168 64 -285 187 -285z" />
    <glyph glyph-name="one.lf" horiz-adv-x="355" 
d="M22 623v77h228v-700h-83v623h-145z" />
    <glyph glyph-name="two.lf" horiz-adv-x="572" 
d="M385 278l-189 -201h326v-77h-475l-13 18l289 310c60 71 95 124 95 180c0 69 -53 127 -143 127c-80 0 -159 -42 -215 -93v92c66 53 141 78 216 78c136 0 226 -86 226 -204c0 -79 -41 -147 -117 -230z" />
    <glyph glyph-name="three.lf" horiz-adv-x="551" 
d="M353 366c111 -20 140 -106 140 -170c0 -124 -105 -208 -270 -208c-46 0 -111 7 -175 30v82c58 -26 123 -35 173 -35c125 0 188 52 188 131c0 78 -62 122 -158 122h-88v76h74c107 0 144 75 144 131c0 70 -58 110 -150 110c-64 0 -130 -18 -162 -32v80c41 16 110 29 170 29
c142 0 226 -71 226 -179c0 -76 -42 -139 -112 -167z" />
    <glyph glyph-name="four.lf" horiz-adv-x="595" 
d="M433 250h134v-77h-134v-173h-84v173h-317l-10 13l218 514h91l-193 -450h211v118l75 54h9v-172z" />
    <glyph glyph-name="five.lf" horiz-adv-x="562" 
d="M283 435c130 0 233 -87 233 -219c0 -136 -109 -228 -260 -228c-63 0 -127 17 -181 46v87c53 -35 116 -56 177 -56c104 0 179 61 179 153c0 91 -72 152 -168 152c-61 0 -122 -19 -169 -50l-17 20v360h385v-77h-301v-211c32 12 74 23 122 23z" />
    <glyph glyph-name="six.lf" horiz-adv-x="614" 
d="M336 448c132 0 231 -90 231 -229c0 -133 -92 -231 -233 -231c-165 0 -274 109 -274 341c0 212 112 383 299 383c49 0 110 -12 154 -29v-80c-34 19 -100 32 -145 32c-125 0 -208 -98 -221 -261c48 46 115 74 189 74zM332 65c88 0 149 64 152 157c-1 95 -62 152 -156 152
c-71 0 -141 -33 -182 -83c8 -154 80 -226 186 -226z" />
    <glyph glyph-name="seven.lf" horiz-adv-x="530" 
d="M22 623v77h494v-8l-298 -692h-91l267 623h-372z" />
    <glyph glyph-name="eight.lf" horiz-adv-x="615" 
d="M434 385c74 -36 126 -100 126 -187c0 -123 -104 -210 -252 -210s-253 87 -253 210c0 87 52 151 126 187c-51 34 -86 83 -86 146c0 105 84 181 213 181c128 0 212 -76 212 -181c0 -63 -35 -112 -86 -146zM308 635c-75 0 -129 -43 -129 -109c0 -68 59 -110 129 -110
s128 42 128 110c0 66 -54 109 -128 109zM308 65c93 0 168 53 168 139c0 84 -73 143 -168 143s-168 -59 -168 -143c0 -86 74 -139 168 -139z" />
    <glyph glyph-name="nine.lf" horiz-adv-x="614" 
d="M290 712c151 0 264 -105 264 -330c0 -254 -132 -394 -299 -394c-48 0 -110 12 -154 29v80c35 -19 101 -32 145 -32c126 0 208 98 221 260c-48 -46 -114 -73 -187 -73c-133 0 -233 90 -233 231c0 135 93 229 243 229zM287 326c70 0 141 32 181 82c-7 156 -77 227 -178 227
c-96 0 -155 -58 -160 -157c2 -95 62 -152 157 -152z" />
    <glyph glyph-name="zero.lf.zero" horiz-adv-x="664" 
d="M332 712c163 0 272 -145 272 -362s-109 -362 -272 -362s-272 145 -272 362s109 362 272 362zM332 635c-123 0 -186 -117 -187 -285c0 -67 11 -126 30 -172l265 415c-28 27 -65 42 -108 42zM332 65c122 0 187 117 187 285c0 72 -12 135 -35 183l-267 -420
c29 -31 68 -48 115 -48z" />
    <glyph glyph-name="zero.osf" horiz-adv-x="624" 
d="M312 -12c-142 0 -258 115 -258 268s116 266 258 266s258 -113 258 -266s-116 -268 -258 -268zM312 62c94 0 174 84 174 194c0 109 -80 192 -174 192c-92 0 -174 -83 -174 -192c0 -110 82 -194 174 -194z" />
    <glyph glyph-name="one.osf" horiz-adv-x="350" 
d="M26 433v77h229v-510h-84v433h-145z" />
    <glyph glyph-name="two.osf" horiz-adv-x="547" 
d="M379 208l-162 -137l284 4l-16 -75h-436l-12 15l272 229c61 52 90 91 90 129c0 47 -51 86 -134 86c-76 0 -150 -32 -203 -68v85c63 39 133 58 205 58c129 0 216 -64 216 -154c0 -58 -28 -108 -104 -172z" />
    <glyph glyph-name="three.osf" horiz-adv-x="535" 
d="M343 176c112 -20 141 -112 141 -175c0 -124 -105 -208 -270 -208c-46 0 -111 6 -175 30v82c58 -26 122 -35 173 -35c125 0 188 52 188 131c0 78 -62 127 -158 127h-88v76h74c107 0 144 75 144 131c0 70 -58 110 -150 110c-64 0 -130 -18 -162 -32v80c41 16 110 29 170 29
c142 0 226 -71 226 -179c0 -76 -42 -139 -113 -167z" />
    <glyph glyph-name="four.osf" horiz-adv-x="594" 
d="M434 77h134v-77h-134v-195h-84v195h-317l-10 13l218 496h87l-186 -432h208v113l74 54h10v-167z" />
    <glyph glyph-name="five.osf" horiz-adv-x="547" 
d="M275 240c130 0 233 -87 233 -219c0 -136 -109 -228 -260 -228c-64 0 -128 17 -181 46v87c53 -35 116 -56 177 -56c103 0 179 61 179 153c0 91 -72 152 -168 152c-61 0 -122 -19 -169 -50l-17 20v365h385v-77h-301v-216c32 12 74 23 122 23z" />
    <glyph glyph-name="six.osf" horiz-adv-x="606" 
d="M327 479c136 0 236 -96 236 -242c0 -149 -95 -249 -236 -249c-162 0 -271 143 -271 359c0 247 121 415 298 415c49 0 110 -13 155 -31v-81c-36 21 -99 35 -151 35c-120 0 -203 -112 -216 -284c48 48 114 78 185 78zM327 62c87 0 150 73 153 176c-1 100 -64 167 -153 167
c-75 0 -145 -34 -186 -88c8 -154 80 -255 186 -255z" />
    <glyph glyph-name="seven.osf" horiz-adv-x="522" 
d="M18 433v77h494v-8l-298 -697h-92l268 628h-372z" />
    <glyph glyph-name="eight.osf" horiz-adv-x="608" 
d="M429 411c75 -37 127 -107 127 -200c0 -131 -104 -223 -252 -223s-252 92 -252 223c0 93 52 163 127 200c-53 36 -87 91 -87 158c0 112 83 193 212 193c128 0 212 -81 212 -193c0 -67 -35 -122 -87 -158zM304 688c-74 0 -128 -51 -128 -124c0 -76 58 -121 128 -121
s128 45 128 121c0 73 -54 124 -128 124zM304 62c93 0 168 61 168 155c0 91 -73 156 -168 156s-168 -65 -168 -156c0 -94 74 -155 168 -155z" />
    <glyph glyph-name="nine.osf" horiz-adv-x="615" 
d="M292 522c162 0 270 -134 270 -336c0 -232 -120 -393 -297 -393c-49 0 -111 12 -155 29v76c36 -19 97 -31 151 -31c121 0 203 109 216 269c-49 -46 -115 -74 -186 -74c-135 0 -236 90 -236 226c0 140 96 234 237 234zM292 136c75 0 144 31 186 82
c-10 138 -81 230 -186 230c-88 0 -150 -67 -153 -160c1 -91 62 -152 153 -152z" />
    <glyph glyph-name="zero.osf.zero" horiz-adv-x="624" 
d="M312 522c142 0 258 -113 258 -266s-116 -268 -258 -268s-258 115 -258 268s116 266 258 266zM312 448c-92 0 -174 -83 -174 -192c0 -53 19 -100 49 -134l193 311c-21 10 -44 15 -68 15zM312 62c94 0 174 84 174 194c0 54 -19 101 -50 135l-194 -312c22 -11 46 -17 70 -17
z" />
    <glyph glyph-name="zero.tf" 
d="M299 -12c-151 0 -252 146 -252 362c0 217 101 362 252 362s254 -145 254 -362c0 -216 -103 -362 -254 -362zM299 65c110 0 169 118 169 285c0 168 -59 285 -169 285s-168 -117 -168 -285c0 -167 58 -285 168 -285z" />
    <glyph glyph-name="one.tf" 
d="M356 700v-623h162v-77h-417v77h172v546h-145v77h228z" />
    <glyph glyph-name="two.tf" 
d="M399 278l-188 -201h325v-77h-475l-13 18l289 310c61 71 95 124 95 180c0 69 -53 127 -143 127c-80 0 -159 -42 -215 -93v92c67 53 141 78 216 78c136 0 226 -86 226 -204c0 -79 -40 -147 -117 -230z" />
    <glyph glyph-name="three.tf" 
d="M378 366c111 -20 140 -106 140 -170c0 -124 -105 -208 -270 -208c-46 0 -112 7 -175 30v82c57 -26 122 -35 172 -35c126 0 189 52 189 131c0 78 -63 122 -158 122h-88v76h74c106 0 143 75 143 131c0 70 -57 110 -150 110c-63 0 -130 -18 -161 -32v80c40 16 109 29 169 29
c143 0 227 -71 227 -179c0 -76 -42 -139 -112 -167z" />
    <glyph glyph-name="four.tf" 
d="M456 250h90v-77h-90v-173h-84v173h-317l-10 13l218 514h91l-193 -450h211v118l75 54h9v-172z" />
    <glyph glyph-name="five.tf" 
d="M302 435c130 0 233 -87 233 -219c0 -136 -109 -228 -260 -228c-64 0 -128 17 -181 46v87c53 -35 116 -56 177 -56c103 0 179 61 179 153c0 91 -72 152 -168 152c-61 0 -122 -19 -169 -50l-17 20v360h385v-77h-302v-211c32 12 74 23 123 23z" />
    <glyph glyph-name="six.tf" 
d="M328 448c132 0 232 -90 232 -229c0 -133 -92 -231 -234 -231c-164 0 -273 109 -273 341c0 212 111 383 298 383c49 0 111 -12 155 -29v-80c-35 19 -101 32 -146 32c-125 0 -208 -98 -221 -261c48 46 115 74 189 74zM324 65c88 0 150 64 153 157c-2 95 -63 152 -157 152
c-71 0 -141 -33 -182 -83c8 -154 80 -226 186 -226z" />
    <glyph glyph-name="seven.tf" 
d="M76 623v77h461v-8l-299 -692h-91l267 623h-338z" />
    <glyph glyph-name="eight.tf" 
d="M427 385c73 -36 125 -100 125 -187c0 -123 -104 -210 -252 -210s-252 87 -252 210c0 87 52 151 125 187c-51 34 -86 83 -86 146c0 105 84 181 213 181s213 -76 213 -181c0 -63 -35 -112 -86 -146zM300 635c-74 0 -128 -43 -128 -109c0 -68 58 -110 128 -110
s128 42 128 110c0 66 -54 109 -128 109zM300 65c93 0 168 53 168 139c0 84 -73 143 -168 143c-94 0 -168 -59 -168 -143c0 -86 75 -139 168 -139z" />
    <glyph glyph-name="nine.tf" 
d="M283 712c150 0 263 -105 263 -330c0 -254 -132 -394 -298 -394c-49 0 -110 12 -155 29v80c35 -19 101 -32 146 -32c125 0 208 98 221 261c-48 -46 -114 -74 -188 -74c-133 0 -232 90 -232 231c0 135 93 229 243 229zM279 326c71 0 142 33 182 83c-7 155 -78 226 -179 226
c-95 0 -155 -58 -160 -157c2 -95 63 -152 157 -152z" />
    <glyph glyph-name="zero.tf.zero" 
d="M299 712c151 0 254 -145 254 -362c0 -216 -103 -362 -254 -362s-252 146 -252 362c0 217 101 362 252 362zM299 635c-110 0 -168 -117 -168 -285c0 -51 5 -97 16 -137l245 385c-25 24 -56 37 -93 37zM299 65c110 0 169 118 169 285c0 78 -13 145 -38 195l-256 -401
c29 -50 70 -79 125 -79z" />
    <glyph glyph-name="zero.tosf" 
d="M300 -12c-145 0 -262 115 -262 268c0 154 117 267 262 267s261 -114 261 -267s-116 -268 -261 -268zM300 62c95 0 178 84 178 194s-83 193 -178 193s-178 -83 -178 -193s83 -194 178 -194z" />
    <glyph glyph-name="one.tosf" 
d="M359 510v-433h148v-77h-390v77h158v356h-145v77h229z" />
    <glyph glyph-name="two.tosf" 
d="M405 208l-162 -137l284 4l-16 -75h-436l-12 15l272 229c61 52 90 91 90 129c0 47 -51 86 -134 86c-76 0 -150 -32 -203 -68v85c63 39 133 58 205 58c129 0 216 -64 216 -154c0 -58 -28 -108 -104 -172z" />
    <glyph glyph-name="three.tosf" 
d="M376 176c112 -20 141 -112 141 -175c0 -124 -105 -208 -270 -208c-46 0 -112 6 -175 30v82c57 -26 122 -35 172 -35c126 0 189 52 189 131c0 78 -63 127 -158 127h-88v76h74c106 0 143 75 143 131c0 70 -57 110 -150 110c-63 0 -130 -18 -161 -32v80c40 16 109 29 169 29
c143 0 227 -71 227 -179c0 -76 -42 -139 -113 -167z" />
    <glyph glyph-name="four.tosf" 
d="M437 77h134v-77h-134v-195h-85v195h-316l-10 13l218 496h87l-186 -432h207v113l75 54h10v-167z" />
    <glyph glyph-name="five.tosf" 
d="M301 240c131 0 233 -87 233 -219c0 -136 -108 -228 -259 -228c-64 0 -128 17 -182 46v87c54 -35 117 -56 178 -56c103 0 179 61 179 153c0 91 -72 152 -168 152c-61 0 -122 -19 -169 -50l-17 20v365h385v-77h-302v-216c32 12 74 23 122 23z" />
    <glyph glyph-name="six.tosf" 
d="M325 479c135 0 236 -96 236 -242c0 -149 -96 -249 -237 -249c-162 0 -270 143 -270 359c0 247 120 415 297 415c49 0 111 -13 155 -31v-81c-36 21 -99 35 -151 35c-120 0 -203 -112 -216 -284c49 48 115 78 186 78zM324 62c87 0 150 73 153 176c-1 100 -64 167 -153 167
c-75 0 -145 -34 -186 -88c8 -154 80 -255 186 -255z" />
    <glyph glyph-name="seven.tosf" 
d="M57 433v77h494v-8l-298 -697h-92l268 628h-372z" />
    <glyph glyph-name="eight.tosf" 
d="M425 411c75 -37 127 -107 127 -200c0 -131 -104 -223 -252 -223s-252 92 -252 223c0 93 52 163 127 200c-53 36 -87 91 -87 158c0 112 83 193 212 193s212 -81 212 -193c0 -67 -34 -122 -87 -158zM300 688c-74 0 -128 -51 -128 -124c0 -76 58 -121 128 -121
s128 45 128 121c0 73 -54 124 -128 124zM300 62c93 0 168 61 168 155c0 91 -73 156 -168 156c-94 0 -168 -65 -168 -156c0 -94 75 -155 168 -155z" />
    <glyph glyph-name="nine.tosf" 
d="M284 522c162 0 271 -134 271 -336c0 -232 -121 -393 -298 -393c-49 0 -110 12 -155 29v76c36 -19 97 -31 151 -31c121 0 204 109 216 269c-48 -46 -114 -74 -185 -74c-136 0 -236 90 -236 226c0 140 95 234 236 234zM284 136c75 0 145 31 186 82
c-10 138 -81 230 -186 230c-88 0 -150 -67 -153 -160c1 -91 63 -152 153 -152z" />
    <glyph glyph-name="zero.tosf.zero" 
d="M300 522c142 0 258 -113 258 -266s-116 -268 -258 -268s-258 115 -258 268s116 266 258 266zM300 448c-92 0 -174 -83 -174 -192c0 -53 19 -100 49 -134l193 311c-21 10 -44 15 -68 15zM300 62c93 0 174 84 174 194c0 54 -20 101 -50 135l-194 -312c22 -11 46 -17 70 -17
z" />
    <glyph glyph-name="zero.subs" horiz-adv-x="384" 
d="M192 -202c-94 0 -158 80 -158 200c0 119 64 199 158 199s159 -80 159 -199c0 -120 -65 -200 -159 -200zM192 -133c53 0 85 51 85 131c0 79 -32 130 -85 130c-51 0 -84 -50 -84 -130c0 -81 33 -131 84 -131z" />
    <glyph glyph-name="one.subs" horiz-adv-x="224" 
d="M17 125v65h149v-385h-73v320h-76z" />
    <glyph glyph-name="two.subs" horiz-adv-x="334" 
d="M231 -42l-77 -85h149v-68h-273l-9 13l143 164c28 35 49 61 49 89c0 33 -27 57 -67 57s-82 -20 -111 -46v72c35 27 81 43 127 43c77 0 129 -47 129 -113c0 -41 -20 -77 -60 -126z" />
    <glyph glyph-name="three.subs" horiz-adv-x="317" 
d="M204 6c50 -6 81 -48 81 -94c0 -67 -63 -113 -153 -113c-32 0 -68 5 -101 15v68c23 -10 62 -17 99 -17c51 0 81 22 81 55c0 32 -29 53 -73 53h-48v56h40c39 0 66 23 66 52c0 30 -26 49 -70 49c-36 0 -72 -9 -86 -15v66c26 9 66 16 103 16c76 0 127 -40 127 -100
c0 -43 -27 -79 -66 -91z" />
    <glyph glyph-name="four.subs" horiz-adv-x="351" 
d="M268 -48h63v-61h-63v-86h-70v86h-174l-10 21l113 278h75l-94 -238h90v64l62 28h8v-92z" />
    <glyph glyph-name="five.subs" horiz-adv-x="329" 
d="M179 46c69 0 125 -43 125 -116c0 -78 -63 -132 -154 -132c-39 0 -79 10 -108 28v69c33 -20 69 -32 104 -32c48 0 84 28 84 69c0 40 -35 67 -83 67c-32 0 -62 -8 -92 -23l-12 10v204h225v-64h-154v-89c20 6 45 9 65 9z" />
    <glyph glyph-name="six.subs" horiz-adv-x="360" 
d="M203 53c74 0 129 -52 129 -124c0 -77 -59 -131 -141 -131c-95 0 -157 64 -157 188c0 121 66 211 175 211c31 0 71 -8 93 -16v-66c-18 9 -54 15 -79 15c-63 0 -102 -40 -112 -109c25 20 57 32 92 32zM190 -137c38 0 67 27 68 67c-1 41 -29 66 -71 66
c-28 0 -58 -11 -79 -29c4 -69 35 -104 82 -104z" />
    <glyph glyph-name="seven.subs" horiz-adv-x="318" 
d="M17 125v65h294v-4l-160 -381h-82l133 320h-185z" />
    <glyph glyph-name="eight.subs" horiz-adv-x="364" 
d="M261 14c44 -17 72 -56 72 -101c0 -68 -62 -115 -151 -115s-151 47 -151 115c0 46 27 84 73 101c-34 17 -53 47 -53 82c0 59 53 101 131 101s132 -42 132 -101c0 -35 -20 -66 -53 -82zM182 138c-35 0 -61 -20 -61 -50c0 -34 28 -51 61 -51c34 0 61 18 61 51
c0 30 -26 50 -61 50zM182 -140c43 0 78 26 78 64c0 39 -32 64 -78 64c-44 0 -77 -25 -77 -64c0 -38 33 -64 77 -64z" />
    <glyph glyph-name="nine.subs" horiz-adv-x="360" 
d="M171 197c92 0 155 -63 155 -184c0 -131 -70 -215 -175 -215c-33 0 -71 8 -93 16v66c18 -9 53 -15 78 -15c63 0 102 40 112 109c-24 -20 -57 -32 -92 -32c-72 0 -128 51 -128 125c0 77 58 130 143 130zM101 65c0 -41 29 -66 71 -66c28 0 58 11 79 28
c-3 72 -35 105 -79 105c-41 0 -70 -26 -71 -67z" />
    <glyph glyph-name="zero.dnom" horiz-adv-x="384" 
d="M192 -7c-94 0 -158 80 -158 200c0 119 64 199 158 199s159 -80 159 -199c0 -120 -65 -200 -159 -200zM192 62c53 0 85 51 85 131c0 79 -32 130 -85 130c-51 0 -84 -50 -84 -130c0 -81 33 -131 84 -131z" />
    <glyph glyph-name="one.dnom" horiz-adv-x="222" 
d="M15 320v65h149v-385h-73v320h-76z" />
    <glyph glyph-name="two.dnom" horiz-adv-x="334" 
d="M230 153l-76 -85h148v-68h-272l-9 13l143 164c28 35 48 61 48 89c0 33 -26 57 -66 57s-82 -20 -112 -46v72c36 27 82 43 127 43c77 0 130 -47 130 -113c0 -41 -20 -77 -61 -126z" />
    <glyph glyph-name="three.dnom" horiz-adv-x="316" 
d="M203 201c50 -6 81 -48 81 -94c0 -67 -63 -113 -153 -113c-32 0 -68 5 -101 15v68c23 -10 62 -17 99 -17c51 0 81 22 81 55c0 32 -29 53 -73 53h-48v56h40c39 0 66 23 66 52c0 30 -26 49 -70 49c-36 0 -72 -9 -86 -15v66c26 9 66 16 103 16c76 0 127 -40 127 -100
c0 -43 -27 -79 -66 -91z" />
    <glyph glyph-name="four.dnom" horiz-adv-x="349" 
d="M268 147h62v-61h-62v-86h-71v86h-174l-10 21l113 278h75l-94 -238h90v64l62 28h9v-92z" />
    <glyph glyph-name="five.dnom" horiz-adv-x="330" 
d="M179 241c70 0 126 -43 126 -116c0 -78 -64 -132 -154 -132c-39 0 -79 10 -108 28v69c32 -20 69 -32 103 -32c49 0 85 28 85 69c0 40 -35 67 -83 67c-32 0 -62 -8 -92 -23l-12 10v204h225v-64h-154v-89c20 6 45 9 64 9z" />
    <glyph glyph-name="six.dnom" horiz-adv-x="360" 
d="M203 248c74 0 129 -52 129 -124c0 -77 -59 -131 -141 -131c-95 0 -157 64 -157 188c0 121 66 211 175 211c31 0 71 -8 93 -16v-66c-18 9 -54 15 -79 15c-63 0 -102 -40 -112 -109c25 20 57 32 92 32zM190 58c38 0 67 27 68 67c-1 41 -29 67 -71 67c-28 0 -58 -12 -79 -30
c4 -69 35 -104 82 -104z" />
    <glyph glyph-name="seven.dnom" horiz-adv-x="318" 
d="M16 320v65h294v-4l-159 -381h-83l134 320h-186z" />
    <glyph glyph-name="eight.dnom" horiz-adv-x="364" 
d="M261 209c44 -17 72 -56 72 -101c0 -68 -62 -115 -151 -115s-151 47 -151 115c0 46 27 84 73 101c-34 17 -53 47 -53 82c0 59 53 101 131 101s132 -42 132 -101c0 -35 -20 -66 -53 -82zM182 333c-35 0 -61 -20 -61 -50c0 -34 28 -51 61 -51c34 0 61 18 61 51
c0 30 -26 50 -61 50zM182 55c43 0 78 26 78 64c0 39 -32 64 -78 64c-44 0 -77 -25 -77 -64c0 -38 33 -64 77 -64z" />
    <glyph glyph-name="nine.dnom" horiz-adv-x="360" 
d="M171 392c92 0 155 -63 155 -184c0 -131 -70 -215 -175 -215c-33 0 -71 8 -93 16v66c18 -9 53 -15 78 -15c63 0 102 40 112 109c-24 -20 -57 -32 -92 -32c-72 0 -128 51 -128 125c0 77 58 130 143 130zM101 260c0 -41 29 -66 71 -66c28 0 58 11 79 28
c-3 72 -35 105 -79 105c-41 0 -70 -26 -71 -67z" />
    <glyph glyph-name="zero.numr" horiz-adv-x="412" 
d="M205 308c-93 0 -158 80 -158 200c0 119 65 199 158 199c95 0 160 -80 160 -199c0 -120 -65 -200 -160 -200zM205 377c53 0 85 51 85 131c0 79 -32 130 -85 130c-51 0 -84 -50 -84 -130c0 -81 33 -131 84 -131z" />
    <glyph glyph-name="one.numr" horiz-adv-x="269" 
d="M35 635v65h149v-385h-73v320h-76z" />
    <glyph glyph-name="two.numr" horiz-adv-x="366" 
d="M247 468l-77 -85h149v-68h-273l-8 13l142 164c29 35 49 61 49 89c0 33 -26 57 -67 57c-39 0 -81 -20 -111 -46v72c35 27 82 43 127 43c77 0 129 -47 129 -113c0 -41 -19 -77 -60 -126z" />
    <glyph glyph-name="three.numr" horiz-adv-x="348" 
d="M221 516c49 -6 80 -48 80 -94c0 -67 -63 -113 -152 -113c-33 0 -68 5 -101 15v68c23 -10 62 -17 98 -17c51 0 81 22 81 55c0 32 -29 53 -73 53h-48v56h40c39 0 66 23 66 52c0 30 -26 49 -69 49c-37 0 -72 -9 -87 -15v66c26 9 66 16 104 16c75 0 126 -40 126 -100
c0 -43 -27 -79 -65 -91z" />
    <glyph glyph-name="four.numr" horiz-adv-x="380" 
d="M284 462h63v-61h-63v-86h-70v86h-174l-10 21l112 278h75l-94 -238h91v64l62 28h8v-92z" />
    <glyph glyph-name="five.numr" horiz-adv-x="362" 
d="M194 556c70 0 126 -43 126 -116c0 -78 -64 -132 -154 -132c-40 0 -79 10 -108 28v69c32 -20 69 -32 103 -32c49 0 85 28 85 69c0 40 -36 67 -84 67c-31 0 -61 -8 -91 -23l-12 10v204h225v-64h-154v-89c19 6 45 9 64 9z" />
    <glyph glyph-name="six.numr" horiz-adv-x="390" 
d="M217 563c74 0 128 -52 128 -124c0 -77 -58 -131 -141 -131c-95 0 -157 64 -157 188c0 121 67 211 176 211c31 0 71 -8 92 -16v-66c-18 9 -53 15 -78 15c-64 0 -103 -40 -113 -110c25 20 58 33 93 33zM203 373c39 0 68 27 69 67c-1 41 -29 67 -71 67
c-28 0 -59 -12 -80 -30c4 -69 36 -104 82 -104z" />
    <glyph glyph-name="seven.numr" horiz-adv-x="345" 
d="M29 635v65h294v-4l-159 -381h-83l134 320h-186z" />
    <glyph glyph-name="eight.numr" horiz-adv-x="394" 
d="M276 524c44 -17 72 -56 72 -101c0 -68 -62 -115 -151 -115c-90 0 -151 47 -151 115c0 45 27 84 72 101c-34 16 -53 47 -53 82c0 59 54 101 132 101s131 -42 131 -101c0 -35 -20 -66 -52 -82zM197 648c-35 0 -61 -20 -61 -50c0 -34 28 -51 61 -51c34 0 61 18 61 51
c0 30 -26 50 -61 50zM197 370c43 0 77 26 77 64c0 39 -32 64 -77 64s-78 -25 -78 -64c0 -38 34 -64 78 -64z" />
    <glyph glyph-name="nine.numr" horiz-adv-x="390" 
d="M188 707c92 0 155 -63 155 -184c0 -131 -71 -215 -176 -215c-33 0 -70 8 -93 16v66c19 -9 53 -15 79 -15c63 0 102 40 112 109c-24 -20 -57 -32 -92 -32c-73 0 -128 51 -128 125c0 77 58 130 143 130zM118 575c0 -41 29 -66 71 -66c28 0 58 11 79 29
c-3 71 -36 104 -80 104c-41 0 -69 -26 -70 -67z" />
    <glyph glyph-name="uni2070" unicode="&#x2070;" horiz-adv-x="384" 
d="M192 430c-94 0 -158 80 -158 200c0 119 64 199 158 199s159 -80 159 -199c0 -120 -65 -200 -159 -200zM192 499c53 0 85 51 85 131c0 79 -32 130 -85 130c-51 0 -84 -50 -84 -130c0 -81 33 -131 84 -131z" />
    <glyph glyph-name="uni00B9" unicode="&#xb9;" horiz-adv-x="222" 
d="M15 757v65h149v-385h-73v320h-76z" />
    <glyph glyph-name="uni00B2" unicode="&#xb2;" horiz-adv-x="335" 
d="M231 590l-76 -85h149v-68h-273l-9 13l143 164c28 35 49 61 49 89c0 33 -27 57 -67 57s-82 -20 -111 -46v72c35 27 81 43 126 43c77 0 130 -47 130 -113c0 -41 -20 -77 -61 -126z" />
    <glyph glyph-name="uni00B3" unicode="&#xb3;" horiz-adv-x="316" 
d="M203 638c50 -6 81 -48 81 -94c0 -67 -63 -113 -153 -113c-32 0 -68 5 -101 15v68c23 -10 62 -17 99 -17c51 0 81 22 81 55c0 32 -29 53 -73 53h-48v56h40c39 0 66 23 66 52c0 30 -26 49 -70 49c-36 0 -72 -9 -86 -15v66c26 9 66 16 103 16c76 0 127 -40 127 -100
c0 -43 -27 -79 -66 -91z" />
    <glyph glyph-name="uni2074" unicode="&#x2074;" horiz-adv-x="349" 
d="M268 584h62v-61h-62v-86h-71v86h-174l-10 21l113 278h75l-94 -238h90v64l62 28h9v-92z" />
    <glyph glyph-name="uni2075" unicode="&#x2075;" horiz-adv-x="329" 
d="M178 678c70 0 126 -43 126 -116c0 -78 -64 -132 -154 -132c-39 0 -79 10 -108 28v69c32 -20 69 -32 104 -32c48 0 84 28 84 69c0 40 -35 67 -83 67c-32 0 -62 -8 -92 -23l-12 10v204h225v-64h-154v-89c20 6 45 9 64 9z" />
    <glyph glyph-name="uni2076" unicode="&#x2076;" horiz-adv-x="360" 
d="M203 685c74 0 129 -52 129 -124c0 -77 -59 -131 -141 -131c-95 0 -157 64 -157 188c0 121 66 211 175 211c31 0 71 -8 93 -16v-66c-18 9 -54 15 -79 15c-63 0 -102 -40 -112 -109c25 20 57 32 92 32zM190 495c38 0 67 27 68 67c-1 41 -29 67 -71 67
c-28 0 -58 -12 -79 -30c4 -69 35 -104 82 -104z" />
    <glyph glyph-name="uni2077" unicode="&#x2077;" horiz-adv-x="319" 
d="M16 757v65h294v-4l-159 -381h-83l134 320h-186z" />
    <glyph glyph-name="uni2078" unicode="&#x2078;" horiz-adv-x="364" 
d="M261 646c44 -17 72 -56 72 -101c0 -68 -62 -115 -151 -115s-151 47 -151 115c0 46 27 84 73 101c-34 17 -53 47 -53 82c0 59 53 101 131 101s132 -42 132 -101c0 -35 -20 -66 -53 -82zM182 770c-35 0 -61 -20 -61 -50c0 -34 28 -51 61 -51c34 0 61 18 61 51
c0 30 -26 50 -61 50zM182 492c43 0 78 26 78 64c0 39 -32 64 -78 64c-44 0 -77 -25 -77 -64c0 -38 33 -64 77 -64z" />
    <glyph glyph-name="uni2079" unicode="&#x2079;" horiz-adv-x="360" 
d="M171 829c92 0 155 -63 155 -184c0 -131 -70 -215 -175 -215c-33 0 -71 8 -93 16v66c18 -9 53 -15 78 -15c63 0 102 40 112 109c-24 -20 -57 -32 -92 -32c-72 0 -128 51 -128 125c0 77 58 130 143 130zM101 697c0 -41 29 -66 71 -66c28 0 58 11 79 28
c-3 72 -35 105 -79 105c-41 0 -70 -26 -71 -67z" />
    <glyph glyph-name="fraction" unicode="&#x2044;" horiz-adv-x="146" 
d="M-65 -19h-67l341 735h67z" />
    <glyph glyph-name="onehalf" unicode="&#xbd;" horiz-adv-x="821" 
d="M142 -19l341 735h67l-341 -735h-67zM179 700v-385h-73v320h-76v65h149zM710 153l-77 -85h149v-68h-273l-9 13l143 164c28 35 49 61 49 89c0 33 -27 57 -67 57c-39 0 -81 -20 -111 -46v72c35 27 81 43 127 43c77 0 129 -47 129 -113c0 -41 -20 -77 -60 -126z" />
    <glyph glyph-name="onequarter" unicode="&#xbc;" horiz-adv-x="842" 
d="M166 -19l341 735h67l-341 -735h-67zM180 700v-385h-73v320h-75v65h148zM750 147h63v-61h-63v-86h-70v86h-174l-10 21l113 278h75l-95 -238h91v64l62 29h8v-93z" />
    <glyph glyph-name="threequarters" unicode="&#xbe;" horiz-adv-x="901" 
d="M233 -19l341 735h68l-341 -735h-68zM301 422c0 -67 -63 -113 -152 -113c-33 0 -68 5 -101 15v68c23 -10 62 -17 98 -17c51 0 81 22 81 55c0 32 -29 53 -73 53h-48v56h40c39 0 66 23 66 52c0 30 -26 49 -69 49c-37 0 -72 -9 -87 -15v66c26 9 66 16 104 16
c75 0 126 -40 126 -100c0 -43 -27 -79 -66 -91c50 -6 81 -48 81 -94zM809 147h63v-61h-63v-86h-70v86h-174l-10 21l112 278h76l-95 -238h91v64l62 28h8v-92z" />
    <glyph glyph-name="oneeighth" unicode="&#x215b;" horiz-adv-x="868" 
d="M154 -19l341 735h68l-341 -735h-68zM179 700v-385h-73v320h-76v65h149zM759 209c44 -17 72 -56 72 -101c0 -68 -62 -115 -151 -115c-90 0 -151 47 -151 115c0 45 27 84 72 101c-34 16 -53 47 -53 82c0 59 54 101 132 101s131 -42 131 -101c0 -35 -20 -66 -52 -82z
M680 333c-35 0 -61 -20 -61 -50c0 -34 28 -51 61 -51c34 0 61 18 61 51c0 30 -26 50 -61 50zM680 55c43 0 77 26 77 64c0 39 -32 64 -77 64s-78 -25 -78 -64c0 -38 34 -64 78 -64z" />
    <glyph glyph-name="threeeighths" unicode="&#x215c;" horiz-adv-x="894" 
d="M222 -19l341 735h67l-341 -735h-67zM295 422c0 -67 -62 -113 -152 -113c-32 0 -68 5 -101 15v68c23 -10 62 -17 99 -17c51 0 81 22 81 55c0 32 -29 53 -73 53h-48v56h40c39 0 66 23 66 52c0 30 -27 49 -70 49c-37 0 -72 -9 -86 -15v66c26 9 66 16 103 16
c76 0 127 -40 127 -100c0 -43 -28 -79 -66 -91c50 -6 80 -48 80 -94zM789 209c45 -17 72 -56 72 -101c0 -68 -61 -115 -150 -115c-90 0 -151 47 -151 115c0 46 27 84 72 101c-34 16 -53 47 -53 82c0 59 53 101 132 101c78 0 131 -42 131 -101c0 -35 -20 -66 -53 -82z
M711 333c-35 0 -61 -20 -61 -50c0 -34 28 -51 61 -51s60 18 60 51c0 30 -26 50 -60 50zM711 55c43 0 77 26 77 64c0 39 -32 64 -77 64s-78 -25 -78 -64c0 -38 33 -64 78 -64z" />
    <glyph glyph-name="fiveeighths" unicode="&#x215d;" horiz-adv-x="902" 
d="M240 -19l341 735h68l-341 -735h-68zM312 440c0 -78 -64 -132 -154 -132c-39 0 -79 10 -108 28v69c32 -20 69 -32 103 -32c49 0 85 28 85 69c0 40 -36 67 -84 67c-31 0 -61 -8 -91 -23l-12 10v204h225v-64h-154v-89c19 6 45 9 64 9c70 0 126 -43 126 -116zM798 209
c44 -18 72 -56 72 -101c0 -68 -62 -115 -151 -115s-151 47 -151 115c0 45 27 83 72 101c-34 17 -53 47 -53 82c0 60 54 101 132 101s131 -41 131 -101c0 -34 -19 -65 -52 -82zM719 333c-35 0 -61 -20 -61 -50c0 -33 28 -50 61 -50c34 0 61 17 61 50c0 30 -26 50 -61 50z
M719 56c43 0 77 25 77 63c0 39 -32 64 -77 64s-78 -25 -78 -64c0 -38 34 -63 78 -63z" />
    <glyph glyph-name="seveneighths" unicode="&#x215e;" horiz-adv-x="920" 
d="M209 -19l341 735h67l-341 -735h-67zM30 700h295v-4l-160 -381h-82l133 320h-186v65zM811 209c44 -18 72 -56 72 -101c0 -68 -62 -115 -151 -115s-151 47 -151 115c0 45 27 83 72 101c-34 17 -52 47 -52 82c0 60 53 101 131 101s131 -41 131 -101c0 -34 -19 -65 -52 -82z
M732 333c-35 0 -61 -20 -61 -50c0 -33 28 -50 61 -50c34 0 61 18 61 50c0 30 -26 50 -61 50zM732 56c43 0 78 25 78 64c0 38 -32 64 -78 64c-44 0 -78 -26 -78 -64c0 -39 34 -64 78 -64z" />
    <glyph glyph-name="period" unicode="." horiz-adv-x="226" 
d="M113 -9c-32 0 -58 26 -58 59c0 32 26 58 58 58c34 0 58 -26 58 -58c0 -33 -26 -59 -58 -59z" />
    <glyph glyph-name="comma" unicode="," horiz-adv-x="238" 
d="M69 -174h-76l93 277h96z" />
    <glyph glyph-name="colon" unicode=":" horiz-adv-x="256" 
d="M128 402c-33 0 -59 26 -59 58s26 58 59 58c34 0 58 -26 58 -58s-26 -58 -58 -58zM128 -9c-33 0 -59 26 -59 59c0 32 26 58 59 58c34 0 58 -26 58 -58c0 -33 -26 -59 -58 -59z" />
    <glyph glyph-name="semicolon" unicode=";" horiz-adv-x="280" 
d="M147 402c-32 0 -58 26 -58 58s26 58 58 58c34 0 58 -26 58 -58s-26 -58 -58 -58zM89 -174h-76l92 277h96z" />
    <glyph glyph-name="ellipsis" unicode="&#x2026;" horiz-adv-x="642" 
d="M113 -9c-32 0 -58 26 -58 59c0 32 26 58 58 58c34 0 58 -26 58 -58c0 -33 -26 -59 -58 -59zM321 -9c-32 0 -58 26 -58 59c0 32 26 58 58 58c34 0 58 -26 58 -58c0 -33 -26 -59 -58 -59zM529 -9c-32 0 -58 26 -58 59c0 32 26 58 58 58c34 0 58 -26 58 -58
c0 -33 -26 -59 -58 -59z" />
    <glyph glyph-name="exclam" unicode="!" horiz-adv-x="275" 
d="M174 188h-73l-5 512h82zM137 -9c-32 0 -58 26 -58 59c0 32 26 58 58 58c34 0 59 -26 59 -58c0 -33 -26 -59 -59 -59z" />
    <glyph glyph-name="exclamdown" unicode="&#xa1;" horiz-adv-x="260" 
d="M130 514c32 0 58 -26 58 -58c0 -33 -24 -59 -58 -59c-32 0 -58 26 -58 59c0 32 26 58 58 58zM89 -195l5 512h73l4 -512h-82z" />
    <glyph glyph-name="question" unicode="?" horiz-adv-x="518" 
d="M225 712c155 0 258 -90 258 -225c0 -130 -96 -218 -240 -218c-21 0 -36 2 -47 5l-6 -86h-72l-9 152l17 21c23 -17 67 -27 109 -27c98 0 164 61 164 151s-72 150 -179 150c-61 0 -124 -21 -178 -56v87c54 29 118 46 183 46zM154 108c34 0 59 -26 59 -58
c0 -33 -26 -59 -59 -59c-32 0 -58 26 -58 59c0 32 26 58 58 58z" />
    <glyph glyph-name="questiondown" unicode="&#xbf;" horiz-adv-x="510" 
d="M360 397c-34 0 -58 26 -58 59c0 32 26 58 58 58c33 0 59 -26 59 -58c0 -33 -26 -59 -59 -59zM295 -130c61 0 124 21 177 56v-87c-53 -29 -117 -46 -182 -46c-155 0 -259 90 -259 226c0 129 97 217 241 217c20 0 35 -2 46 -5l6 86h73l9 -152l-17 -21
c-23 17 -67 27 -109 27c-99 0 -164 -61 -164 -151s71 -150 179 -150z" />
    <glyph glyph-name="periodcentered" unicode="&#xb7;" horiz-adv-x="248" 
d="M124 217c-32 0 -58 26 -58 58s26 58 58 58c34 0 59 -26 59 -58s-26 -58 -59 -58z" />
    <glyph glyph-name="bullet" unicode="&#x2022;" horiz-adv-x="432" 
d="M216 235c-78 0 -140 63 -140 140s62 139 140 139c77 0 140 -62 140 -139s-63 -140 -140 -140z" />
    <glyph glyph-name="asterisk" unicode="*" horiz-adv-x="483" 
d="M274 554l127 73l32 -56l-127 -73l127 -74l-32 -56l-127 73v-146h-64v146l-128 -73l-32 56l127 74l-127 73l32 56l128 -73v146h64v-146z" />
    <glyph glyph-name="numbersign" unicode="#" horiz-adv-x="794" 
d="M763 507l-17 -60h-149l-40 -166h152l-17 -59h-148l-54 -222h-60l53 222l-254 -1l-53 -221h-61l54 221h-137l16 60h136l39 165h-137l16 61h136l47 193h61l-47 -193h254l47 193h60l-48 -193h151zM244 281h254l39 166l-254 -1z" />
    <glyph glyph-name="slash" unicode="/" horiz-adv-x="471" 
d="M95 -130h-72l353 870h72z" />
    <glyph glyph-name="backslash" unicode="\" horiz-adv-x="471" 
d="M448 -130h-72l-353 870h72z" />
    <glyph glyph-name="colon.case" horiz-adv-x="275" 
d="M138 492c-33 0 -59 26 -59 59c0 32 26 58 59 58c34 0 58 -26 58 -58c0 -33 -26 -59 -58 -59zM138 94c-33 0 -59 26 -59 58s26 58 59 58c34 0 58 -26 58 -58s-26 -58 -58 -58z" />
    <glyph glyph-name="exclamdown.case" horiz-adv-x="281" 
d="M140 709c33 0 59 -26 59 -58c0 -33 -25 -59 -59 -59c-32 0 -58 26 -58 59c0 32 26 58 58 58zM99 0l5 511h73l4 -511h-82z" />
    </font>
</defs>
</svg>
