<?xml version="1.0" standalone="no"?>
<!DOCTYPE svg PUBLIC "-//W3C//DTD SVG 1.1//EN" "http://www.w3.org/Graphics/SVG/1.1/DTD/svg11.dtd" >
<svg xmlns="http://www.w3.org/2000/svg" xmlns:xlink="http://www.w3.org/1999/xlink" version="1.1">
<metadata>
Created by FontForge 20201107 at Fri Mar 12 15:52:14 2021
 By Unknown
Copyright \(c\) 2021 by Olivier Gourvat. All rights reserved. Mostardesign Type Foundry
</metadata>
<defs>
<font id="NatomPro-ExtraLightitalic" horiz-adv-x="600" >
  <font-face 
    font-family="Natom Pro Extra Light italic"
    font-weight="200"
    font-style="italic"
    font-stretch="normal"
    units-per-em="1000"
    panose-1="2 1 5 3 6 3 0 0 0 3"
    ascent="800"
    descent="-200"
    x-height="510"
    cap-height="700"
    bbox="-359 -213 1223.77 1059"
    underline-thickness="50"
    underline-position="-100"
    stemh="28"
    stemv="28"
    unicode-range="U+0020-FB02"
  />
<missing-glyph horiz-adv-x="651" 
d="M35 -195l168 957h424l-168 -957h-424z" />
    <glyph glyph-name="f_f" unicode="ff" horiz-adv-x="702" 
d="M714 734c-151 0 -213 -117 -229 -207l-3 -17h255l-5 -28h-255l-85 -482h-30l85 482h-275l-85 -482h-30l91 517c25 140 120 233 257 233c27 0 56 -4 79 -10l-5 -28c-21 7 -46 10 -72 10c-151 0 -213 -117 -229 -207l-1 -5h275l3 19c25 140 120 233 257 233
c43 0 88 -9 111 -23l-4 -28c-25 14 -63 23 -105 23z" />
    <glyph glyph-name="f_f_i" unicode="ffi" horiz-adv-x="891" 
d="M730 734c-114 0 -182 -77 -205 -207l-3 -17h324l-90 -510h-30l85 482h-294l-85 -482h-30l85 482h-315l-85 -482h-30l91 517c25 140 112 233 249 233c43 0 88 -9 111 -23l-5 -28c-24 14 -62 23 -104 23c-151 0 -205 -117 -221 -207l-1 -5h315l3 19c26 146 104 233 233 233
c60 0 110 -9 134 -23l-4 -28c-26 14 -73 23 -128 23z" />
    <glyph glyph-name="f_f_l" unicode="ffl" horiz-adv-x="960" 
d="M879 16c14 0 22 1 34 2l-5 -28c-12 -1 -24 -2 -40 -2c-77 0 -117 61 -101 153l101 575c-40 14 -100 18 -132 18c-152 0 -221 -117 -237 -207l-3 -17h241l-5 -28h-241l-85 -482h-30l85 482h-289l-85 -482h-30l91 517c25 140 120 233 257 233c34 0 69 -6 95 -15l-5 -28
c-25 9 -55 15 -88 15c-151 0 -213 -117 -229 -207l-1 -5h289l3 19c25 140 127 233 265 233c70 0 104 -7 168 -23l-103 -588c-15 -81 18 -135 80 -135z" />
    <glyph glyph-name="fi" unicode="fi" horiz-adv-x="572" 
d="M399 734c-114 0 -196 -77 -219 -207l-3 -17h338l-90 -510h-30l85 482h-308l-85 -482h-30l93 529c26 146 118 233 247 233c59 0 110 -9 134 -23l-5 -28c-26 14 -73 23 -127 23z" />
    <glyph glyph-name="fl" unicode="fl" horiz-adv-x="640" 
d="M559 16c14 0 22 1 34 2l-5 -28c-12 -1 -24 -2 -40 -2c-76 0 -116 61 -100 153l101 575c-40 14 -100 18 -133 18c-151 0 -220 -117 -236 -207l-3 -17h241l-6 -28h-240l-85 -482h-30l93 529c25 140 127 233 264 233c70 0 105 -7 168 -23l-102 -588c-15 -81 17 -135 79 -135
z" />
    <glyph glyph-name=".notdef" horiz-adv-x="651" 
d="M35 -195l168 957h424l-168 -957h-424z" />
    <glyph glyph-name="space" unicode=" " horiz-adv-x="278" 
 />
    <glyph glyph-name="A" unicode="A" horiz-adv-x="761" 
d="M461 712c164 0 255 -109 228 -264l-79 -448h-30l42 239h-489l-42 -239h-30l79 449c27 154 158 263 321 263zM628 268l32 183c23 131 -57 232 -203 232c-148 0 -263 -100 -286 -230l-33 -185h490z" />
    <glyph glyph-name="Aacute" unicode="&#xc1;" horiz-adv-x="761" 
d="M607 891v-3l-114 -138h-30l1 4l111 137h32zM461 712c164 0 255 -109 228 -264l-79 -448h-30l42 239h-489l-42 -239h-30l79 449c27 154 158 263 321 263zM628 268l32 183c23 131 -57 232 -203 232c-148 0 -263 -100 -286 -230l-33 -185h490z" />
    <glyph glyph-name="Abreve" unicode="&#x102;" horiz-adv-x="761" 
d="M479 750c-80 0 -139 62 -125 141h26c-11 -65 40 -117 103 -117s133 52 144 117h27c-14 -79 -95 -141 -175 -141zM461 712c164 0 255 -109 228 -264l-79 -448h-30l42 239h-489l-42 -239h-30l79 449c27 154 158 263 321 263zM628 268l32 183c23 131 -57 232 -203 232
c-148 0 -263 -100 -286 -230l-33 -185h490z" />
    <glyph glyph-name="uni01CD" unicode="&#x1cd;" horiz-adv-x="761" 
d="M659 889l-176 -139h-9l-126 139v2h37l99 -108l138 108h37v-2zM461 712c164 0 255 -109 228 -264l-79 -448h-30l42 239h-489l-42 -239h-30l79 449c27 154 158 263 321 263zM628 268l32 183c23 131 -57 232 -203 232c-148 0 -263 -100 -286 -230l-33 -185h490z" />
    <glyph glyph-name="Acircumflex" unicode="&#xc2;" horiz-adv-x="761" 
d="M597 750l-99 108l-138 -108h-37l1 2l175 139h9l127 -139l-1 -2h-37zM461 712c164 0 255 -109 228 -264l-79 -448h-30l42 239h-489l-42 -239h-30l79 449c27 154 158 263 321 263zM628 268l32 183c23 131 -57 232 -203 232c-148 0 -263 -100 -286 -230l-33 -185h490z" />
    <glyph glyph-name="Adieresis" unicode="&#xc4;" horiz-adv-x="761" 
d="M388 796c-15 0 -25 13 -23 27c2 13 18 25 32 25c13 0 22 -12 20 -25c-2 -14 -16 -27 -29 -27zM588 796c-15 0 -25 13 -23 27c2 13 18 25 32 25c13 0 22 -12 20 -25c-2 -14 -16 -27 -29 -27zM461 712c164 0 255 -109 228 -264l-79 -448h-30l42 239h-489l-42 -239h-30
l79 449c27 154 158 263 321 263zM628 268l32 183c23 131 -57 232 -203 232c-148 0 -263 -100 -286 -230l-33 -185h490z" />
    <glyph glyph-name="Agrave" unicode="&#xc0;" horiz-adv-x="761" 
d="M499 754l-1 -4h-30l-64 138v3h32zM461 712c164 0 255 -109 228 -264l-79 -448h-30l42 239h-489l-42 -239h-30l79 449c27 154 158 263 321 263zM628 268l32 183c23 131 -57 232 -203 232c-148 0 -263 -100 -286 -230l-33 -185h490z" />
    <glyph glyph-name="Amacron" unicode="&#x100;" horiz-adv-x="761" 
d="M360 835h267l-4 -28h-267zM461 712c164 0 255 -109 228 -264l-79 -448h-30l42 239h-489l-42 -239h-30l79 449c27 154 158 263 321 263zM628 268l32 183c23 131 -57 232 -203 232c-148 0 -263 -100 -286 -230l-33 -185h490z" />
    <glyph glyph-name="Aogonek" unicode="&#x104;" horiz-adv-x="761" 
d="M540 -95c-10 -60 25 -82 83 -82c26 0 52 10 67 20l-4 -26c-15 -9 -42 -18 -68 -18c-69 0 -115 31 -102 102c4 28 20 67 64 99l42 239h-489l-42 -239h-30l79 449c27 154 158 263 321 263c164 0 255 -109 228 -264l-76 -430h18v-4c-7 -4 -14 -8 -21 -13v-1h-1
c-44 -31 -64 -69 -69 -95zM171 453l-33 -185h490l32 183c23 131 -57 232 -203 232c-148 0 -263 -100 -286 -230z" />
    <glyph glyph-name="Aring" unicode="&#xc5;" horiz-adv-x="761" 
d="M530 705c120 -27 182 -125 159 -257l-79 -448h-30l42 239h-489l-42 -239h-30l79 449c24 137 131 239 269 259c-26 19 -39 51 -32 87c10 57 67 104 129 104c61 0 102 -47 92 -104c-7 -38 -34 -71 -68 -90zM404 795c-8 -44 23 -79 70 -79c46 0 89 35 96 79
c7 43 -23 78 -69 78c-47 0 -90 -35 -97 -78zM628 268l32 183c23 131 -57 232 -203 232c-148 0 -263 -100 -286 -230l-33 -185h490z" />
    <glyph glyph-name="Aringacute" unicode="&#x1fa;" horiz-adv-x="761" 
d="M530 705c120 -27 182 -125 159 -257l-79 -448h-30l42 239h-489l-42 -239h-30l79 449c24 137 131 239 269 259c-26 19 -39 51 -32 87c9 54 61 99 120 104l98 121h32v-3l-99 -120c48 -10 79 -52 70 -102c-7 -38 -34 -71 -68 -90zM404 795c-8 -44 23 -79 70 -79
c46 0 88 35 96 79c7 43 -23 77 -69 77c-47 0 -90 -34 -97 -77zM628 268l32 183c23 131 -57 232 -203 232c-148 0 -263 -100 -286 -230l-33 -185h490z" />
    <glyph glyph-name="Atilde" unicode="&#xc3;" horiz-adv-x="761" 
d="M419 838c-32 0 -51 -23 -57 -58h-30c9 52 45 87 89 87c55 0 96 -55 143 -55c30 0 51 22 57 55h29c-9 -50 -45 -84 -89 -84c-56 0 -92 55 -142 55zM461 712c164 0 255 -109 228 -264l-79 -448h-30l42 239h-489l-42 -239h-30l79 449c27 154 158 263 321 263zM628 268
l32 183c23 131 -57 232 -203 232c-148 0 -263 -100 -286 -230l-33 -185h490z" />
    <glyph glyph-name="AE" unicode="&#xc6;" horiz-adv-x="1002" 
d="M1036 700l-4 -29h-383l-56 -313h304l-5 -28h-304l-53 -301h383l-5 -29h-413l42 239h-409l-42 -239h-30l79 450c27 150 158 250 329 250h567zM171 454l-33 -187h409l71 404h-153c-154 0 -271 -87 -294 -217z" />
    <glyph glyph-name="AEacute" unicode="&#x1fc;" horiz-adv-x="1002" 
d="M776 891v-3l-114 -138h-30l1 4l111 137h32zM1036 700l-4 -29h-383l-56 -313h304l-5 -28h-304l-53 -301h383l-5 -29h-413l42 239h-409l-42 -239h-30l79 450c27 150 158 250 329 250h567zM171 454l-33 -187h409l71 404h-153c-154 0 -271 -87 -294 -217z" />
    <glyph glyph-name="B" unicode="B" horiz-adv-x="665" 
d="M624 510c-15 -84 -98 -149 -166 -162c75 -11 143 -78 127 -170c-19 -109 -119 -178 -250 -178h-263l123 700h223c155 0 225 -84 206 -190zM165 359h223c49 0 185 36 205 151c21 121 -89 161 -178 161h-195zM554 178c19 106 -78 153 -171 153h-223l-53 -302h229
c78 0 199 33 218 149z" />
    <glyph glyph-name="C" unicode="C" horiz-adv-x="737" 
d="M380 -12c-205 0 -341 162 -305 362c35 200 228 362 433 362c91 0 186 -36 249 -89l-6 -37h-3c-52 54 -148 97 -242 97c-190 0 -367 -146 -400 -333c-33 -188 93 -333 282 -333c94 0 205 43 276 97h3l-6 -37c-82 -53 -190 -89 -281 -89z" />
    <glyph glyph-name="Cacute" unicode="&#x106;" horiz-adv-x="737" 
d="M514 750h-30l1 4l111 137h32v-3zM380 -12c-205 0 -341 162 -305 362c35 200 228 362 433 362c91 0 186 -36 249 -89l-6 -37h-3c-52 54 -148 97 -242 97c-190 0 -367 -146 -400 -333c-33 -188 93 -333 282 -333c94 0 205 43 276 97h3l-6 -37c-82 -53 -190 -89 -281 -89z
" />
    <glyph glyph-name="Ccaron" unicode="&#x10c;" horiz-adv-x="737" 
d="M680 889l-176 -139h-9l-126 139v2h37l100 -108l137 108h37v-2zM508 712c91 0 186 -36 249 -89l-6 -37h-3c-52 54 -148 97 -242 97c-190 0 -367 -146 -400 -333c-33 -188 93 -333 282 -333c94 0 205 43 276 97h3l-6 -37c-82 -53 -190 -89 -281 -89
c-205 0 -341 162 -305 362c35 200 228 362 433 362z" />
    <glyph glyph-name="Ccedilla" unicode="&#xc7;" horiz-adv-x="737" 
d="M508 712c91 0 186 -36 249 -89l-6 -37h-3c-52 54 -148 97 -242 97c-190 0 -367 -146 -400 -333c-33 -188 93 -333 282 -333c94 0 205 43 276 97h3l-6 -37c-82 -53 -190 -89 -281 -89h-11l-39 -50c16 3 33 5 43 5c55 0 87 -27 80 -68c-9 -49 -63 -82 -136 -82
c-22 0 -49 4 -66 10l5 25c19 -7 45 -11 65 -11c56 0 98 22 104 56c5 28 -20 46 -62 46c-24 0 -51 -3 -70 -8l-4 9l53 70c-183 19 -301 173 -267 360c35 200 228 362 433 362z" />
    <glyph glyph-name="Cdotaccent" unicode="&#x10a;" horiz-adv-x="737" 
d="M507 795c-14 1 -24 14 -22 27c2 14 18 26 31 25c14 1 23 -11 21 -25c-2 -13 -16 -26 -30 -27zM380 -12c-205 0 -341 162 -305 362c35 200 228 362 433 362c91 0 186 -36 249 -89l-6 -37h-3c-52 54 -148 97 -242 97c-190 0 -367 -146 -400 -333c-33 -188 93 -333 282 -333
c94 0 205 43 276 97h3l-6 -37c-82 -53 -190 -89 -281 -89z" />
    <glyph glyph-name="D" unicode="D" horiz-adv-x="716" 
d="M195 700h202c208 0 310 -150 275 -350c-36 -201 -194 -350 -398 -350h-202zM641 350c33 188 -63 321 -248 321h-172l-114 -642h172c186 0 329 136 362 321z" />
    <glyph glyph-name="Eth" unicode="&#xd0;" horiz-adv-x="721" 
d="M200 700h202c208 0 310 -150 275 -350c-36 -201 -194 -350 -398 -350h-202l59 336h-101l5 27h101zM646 350c33 188 -63 321 -248 321h-172l-55 -308h271l-5 -27h-271l-54 -307h172c186 0 329 136 362 321z" />
    <glyph glyph-name="Dcaron" unicode="&#x10e;" horiz-adv-x="716" 
d="M619 889l-176 -139h-9l-126 139v2h37l100 -108l137 108h37v-2zM195 700h202c208 0 310 -150 275 -350c-36 -201 -194 -350 -398 -350h-202zM641 350c33 188 -63 321 -248 321h-172l-114 -642h172c186 0 329 136 362 321z" />
    <glyph glyph-name="Dcroat" unicode="&#x110;" horiz-adv-x="721" 
d="M200 700h202c208 0 310 -150 275 -350c-36 -201 -194 -350 -398 -350h-202l59 336h-101l5 27h101zM646 350c33 188 -63 321 -248 321h-172l-55 -308h271l-5 -27h-271l-54 -307h172c186 0 329 136 362 321z" />
    <glyph glyph-name="E" unicode="E" horiz-adv-x="536" 
d="M566 700l-4 -29h-341l-56 -313h283l-5 -28h-283l-53 -301h341l-5 -29h-371l123 700h371z" />
    <glyph glyph-name="Eacute" unicode="&#xc9;" horiz-adv-x="536" 
d="M520 891v-3l-114 -138h-30l1 4l111 137h32zM566 700l-4 -29h-341l-56 -313h283l-5 -28h-283l-53 -301h341l-5 -29h-371l123 700h371z" />
    <glyph glyph-name="Ecaron" unicode="&#x11a;" horiz-adv-x="536" 
d="M398 783l137 108h37v-2l-176 -139h-9l-126 139v2h37zM443 0h-371l123 700h371l-4 -29h-341l-56 -313h283l-5 -28h-283l-53 -301h341z" />
    <glyph glyph-name="Ecircumflex" unicode="&#xca;" horiz-adv-x="536" 
d="M510 750l-99 108l-138 -108h-37l1 2l175 139h9l127 -139l-1 -2h-37zM566 700l-4 -29h-341l-56 -313h283l-5 -28h-283l-53 -301h341l-5 -29h-371l123 700h371z" />
    <glyph glyph-name="Edieresis" unicode="&#xcb;" horiz-adv-x="536" 
d="M300 796c-15 0 -25 13 -23 27c2 13 18 25 32 25c13 0 22 -12 20 -25c-2 -14 -16 -27 -29 -27zM500 796c-15 0 -25 13 -23 27c2 13 18 25 32 25c13 0 22 -12 20 -25c-2 -14 -16 -27 -29 -27zM566 700l-4 -29h-341l-56 -313h283l-5 -28h-283l-53 -301h341l-5 -29h-371
l123 700h371z" />
    <glyph glyph-name="Edotaccent" unicode="&#x116;" horiz-adv-x="536" 
d="M399 795c-14 1 -24 14 -22 27c2 14 18 26 31 25c14 1 23 -11 21 -25c-2 -13 -16 -26 -30 -27zM566 700l-4 -29h-341l-56 -313h283l-5 -28h-283l-53 -301h341l-5 -29h-371l123 700h371z" />
    <glyph glyph-name="Egrave" unicode="&#xc8;" horiz-adv-x="536" 
d="M405 754l-1 -4h-30l-64 138v3h32zM566 700l-4 -29h-341l-56 -313h283l-5 -28h-283l-53 -301h341l-5 -29h-371l123 700h371z" />
    <glyph glyph-name="Emacron" unicode="&#x112;" horiz-adv-x="536" 
d="M272 835h267l-4 -28h-267zM566 700l-4 -29h-341l-56 -313h283l-5 -28h-283l-53 -301h341l-5 -29h-371l123 700h371z" />
    <glyph glyph-name="Eogonek" unicode="&#x118;" horiz-adv-x="536" 
d="M566 700l-4 -29h-341l-56 -313h283l-5 -28h-283l-53 -301h341l-5 -29h-110c-52 -32 -75 -75 -81 -103c-10 -60 26 -82 84 -82c25 0 52 10 67 20l-4 -26c-15 -9 -42 -18 -68 -18c-69 0 -115 31 -102 102c5 30 23 74 76 107h-233l123 700h371z" />
    <glyph glyph-name="uni1EBC" unicode="&#x1ebc;" horiz-adv-x="536" 
d="M329 838c-32 0 -51 -23 -57 -58h-29c9 52 44 87 88 87c55 0 96 -55 143 -55c30 0 51 22 57 55h29c-9 -50 -45 -84 -89 -84c-56 0 -92 55 -142 55zM566 700l-4 -29h-341l-56 -313h283l-5 -28h-283l-53 -301h341l-5 -29h-371l123 700h371z" />
    <glyph glyph-name="F" unicode="F" horiz-adv-x="521" 
d="M566 700l-4 -29h-341l-56 -313h282l-5 -28h-282l-58 -330h-30l123 700h371z" />
    <glyph glyph-name="G" unicode="G" horiz-adv-x="768" 
d="M495 712c108 0 189 -35 241 -88l-6 -36h-3c-50 59 -130 96 -237 95c-182 0 -352 -150 -384 -333c-22 -126 8 -333 275 -333c88 0 175 27 262 73l39 222h-263l5 29h293l-47 -269c-105 -56 -212 -84 -299 -84c-263 0 -324 203 -296 362c35 201 223 362 420 362z" />
    <glyph glyph-name="Gbreve" unicode="&#x11e;" horiz-adv-x="768" 
d="M481 750c-80 0 -139 62 -125 141h27c-11 -65 39 -117 102 -117s134 52 145 117h26c-14 -79 -95 -141 -175 -141zM495 712c108 0 189 -35 241 -88l-6 -36h-3c-50 59 -130 96 -237 95c-182 0 -352 -150 -384 -333c-22 -126 8 -333 275 -333c88 0 175 27 262 73l39 222h-263
l5 29h293l-47 -269c-105 -56 -212 -84 -299 -84c-263 0 -324 203 -296 362c35 201 223 362 420 362z" />
    <glyph glyph-name="uni0122" unicode="&#x122;" horiz-adv-x="768" 
d="M495 712c108 0 189 -35 241 -88l-6 -36h-3c-50 59 -130 96 -237 95c-182 0 -352 -150 -384 -333c-22 -126 8 -333 275 -333c88 0 175 27 262 73l39 222h-263l5 29h293l-47 -269c-105 -56 -212 -84 -299 -84c-263 0 -324 203 -296 362c35 201 223 362 420 362zM244 -213
l1 5l80 152h28l-1 -5l-81 -152h-27z" />
    <glyph glyph-name="Gdotaccent" unicode="&#x120;" horiz-adv-x="768" 
d="M491 795c-13 1 -23 14 -21 27c2 14 17 26 30 25c15 1 24 -11 22 -25c-2 -13 -17 -26 -31 -27zM495 712c108 0 189 -35 241 -88l-6 -36h-3c-50 59 -130 96 -237 95c-182 0 -352 -150 -384 -333c-22 -126 8 -333 275 -333c88 0 175 27 262 73l39 222h-263l5 29h293
l-47 -269c-105 -56 -212 -84 -299 -84c-263 0 -324 203 -296 362c35 201 223 362 420 362z" />
    <glyph glyph-name="H" unicode="H" horiz-adv-x="703" 
d="M575 358l60 342h30l-123 -700h-30l58 330h-410l-58 -330h-30l123 700h30l-60 -342h410z" />
    <glyph glyph-name="Hbar" unicode="&#x126;" horiz-adv-x="703" 
d="M639 550h67l-5 -27h-67l-92 -523h-30l58 330h-410l-58 -330h-30l92 523h-66l5 27h66l26 150h30l-26 -150h410l26 150h30zM165 358h410l29 165h-410z" />
    <glyph glyph-name="Hcircumflex" unicode="&#x124;" horiz-adv-x="703" 
d="M558 750l-99 108l-138 -108h-37l1 2l175 139h9l127 -139l-1 -2h-37zM575 358l60 342h30l-123 -700h-30l58 330h-410l-58 -330h-30l123 700h30l-60 -342h410z" />
    <glyph glyph-name="I" unicode="I" horiz-adv-x="262" 
d="M102 0h-30l123 700h30z" />
    <glyph glyph-name="IJ" unicode="&#x132;" horiz-adv-x="889" 
d="M102 0h-30l123 700h30zM549 671l5 29h310l-72 -410c-33 -190 -159 -302 -304 -302c-147 0 -224 83 -203 276l1 9h30l-1 -9c-19 -171 50 -244 178 -247c139 0 243 124 270 274l67 380h-281z" />
    <glyph glyph-name="Iacute" unicode="&#xcd;" horiz-adv-x="262" 
d="M232 750h-29l1 4l111 137h32v-3zM102 0h-30l123 700h30z" />
    <glyph glyph-name="uni01CF" unicode="&#x1cf;" horiz-adv-x="262" 
d="M225 783l137 108h37v-2l-176 -139h-9l-126 139v2h37zM102 0h-30l123 700h30z" />
    <glyph glyph-name="Icircumflex" unicode="&#xce;" horiz-adv-x="262" 
d="M239 891h9l127 -139l-1 -2h-37l-99 108l-138 -108h-37l1 2zM102 0h-30l123 700h30z" />
    <glyph glyph-name="Idieresis" unicode="&#xcf;" horiz-adv-x="262" 
d="M128 796c-14 0 -24 13 -22 27c2 13 17 25 31 25s23 -12 21 -25c-2 -14 -17 -27 -30 -27zM328 796c-14 0 -24 13 -22 27c2 13 17 25 31 25s23 -12 21 -25c-2 -14 -17 -27 -30 -27zM102 0h-30l123 700h30z" />
    <glyph glyph-name="Idotaccent" unicode="&#x130;" horiz-adv-x="262" 
d="M228 795c-13 1 -23 14 -21 27c2 14 17 26 30 25c15 1 24 -11 22 -25c-2 -13 -17 -26 -31 -27zM102 0h-30l123 700h30z" />
    <glyph glyph-name="Igrave" unicode="&#xcc;" horiz-adv-x="262" 
d="M231 750h-30l-64 138v3h32l63 -137zM102 0h-30l123 700h30z" />
    <glyph glyph-name="Imacron" unicode="&#x12a;" horiz-adv-x="262" 
d="M363 807h-267l4 28h267zM102 0h-30l123 700h30z" />
    <glyph glyph-name="Iogonek" unicode="&#x12e;" horiz-adv-x="263" 
d="M12 -95c-10 -60 26 -82 84 -82c25 0 52 10 67 20l-4 -26c-15 -9 -42 -18 -68 -18c-69 0 -115 31 -102 102c5 32 25 79 86 113l121 686h30l-123 -700h-21c-45 -31 -65 -69 -70 -95z" />
    <glyph glyph-name="Itilde" unicode="&#x128;" horiz-adv-x="262" 
d="M102 780h-29c9 52 44 87 88 87c55 0 96 -55 143 -55c30 0 51 22 57 55h30c-9 -50 -46 -84 -90 -84c-56 0 -92 55 -142 55c-32 0 -51 -23 -57 -58zM102 0h-30l123 700h30z" />
    <glyph glyph-name="J" unicode="J" horiz-adv-x="641" 
d="M301 671l4 29h310l-72 -410c-33 -190 -158 -302 -304 -302s-223 83 -202 276l1 9h30l-1 -9c-19 -171 49 -244 177 -247c139 0 243 124 270 274l67 380h-280z" />
    <glyph glyph-name="K" unicode="K" horiz-adv-x="601" 
d="M597 700h31c-39 -218 -228 -347 -411 -372l313 -317l-2 -11h-31l-336 338l-59 -338h-30l123 700h30l-61 -348c183 4 395 128 433 348z" />
    <glyph glyph-name="uni0136" unicode="&#x136;" horiz-adv-x="601" 
d="M597 700h31c-39 -218 -228 -347 -411 -372l313 -317l-2 -11h-31l-336 338l-59 -338h-30l123 700h30l-61 -348c183 4 395 128 433 348zM183 -213l1 5l80 152h28l-1 -5l-82 -152h-26z" />
    <glyph glyph-name="L" unicode="L" horiz-adv-x="511" 
d="M225 700l-118 -671h341l-5 -29h-371l123 700h30z" />
    <glyph glyph-name="Lacute" unicode="&#x139;" horiz-adv-x="511" 
d="M350 891v-3l-115 -138h-29l1 4l111 137h32zM225 700l-118 -671h341l-5 -29h-371l123 700h30z" />
    <glyph glyph-name="Lcaron" unicode="&#x13d;" horiz-adv-x="514" 
d="M366 567l114 183h30l-2 -5l-113 -178h-29zM195 700h30l-118 -671h341l-5 -29h-371z" />
    <glyph glyph-name="uni013B" unicode="&#x13b;" horiz-adv-x="511" 
d="M225 700l-118 -671h341l-5 -29h-371l123 700h30zM107 -213l1 5l80 152h28l-1 -5l-81 -152h-27z" />
    <glyph glyph-name="Ldot" unicode="&#x13f;" horiz-adv-x="513" 
d="M225 700l-118 -671h341l-5 -29h-371l123 700h30zM358 295c-15 0 -26 13 -23 28c2 15 18 28 33 28s25 -13 23 -28c-3 -15 -19 -28 -33 -28z" />
    <glyph glyph-name="Lslash" unicode="&#x141;" horiz-adv-x="522" 
d="M156 257l-40 -228h342l-6 -29h-371l42 241l-90 -47l5 30l91 47l75 429h30l-73 -412l224 115l-5 -30z" />
    <glyph glyph-name="M" unicode="M" horiz-adv-x="931" 
d="M822 700l5 -700h-30l-10 623l-353 -580h-14l-149 581l-230 -624h-30l251 700h23l152 -591l362 591h23z" />
    <glyph glyph-name="N" unicode="N" horiz-adv-x="821" 
d="M641 59l113 641h30l-123 -700h-21l-425 643l-113 -643h-30l123 700h23z" />
    <glyph glyph-name="Nacute" unicode="&#x143;" horiz-adv-x="821" 
d="M628 891v-3l-114 -138h-30l1 4l111 137h32zM641 59l113 641h30l-123 -700h-21l-425 643l-113 -643h-30l123 700h23z" />
    <glyph glyph-name="Ncaron" unicode="&#x147;" horiz-adv-x="821" 
d="M680 889l-176 -139h-9l-126 139v2h37l99 -108l138 108h37v-2zM641 59l113 641h30l-123 -700h-21l-425 643l-113 -643h-30l123 700h23z" />
    <glyph glyph-name="uni0145" unicode="&#x145;" horiz-adv-x="821" 
d="M641 59l113 641h30l-123 -700h-21l-425 643l-113 -643h-30l123 700h23zM259 -213l1 5l80 152h28l-1 -5l-81 -152h-27z" />
    <glyph glyph-name="Eng" unicode="&#x14a;" horiz-adv-x="821" 
d="M654 129l100 571h30l-107 -605c-33 -190 -144 -302 -324 -302c-29 0 -55 3 -78 9l5 29c22 -7 47 -10 77 -10c171 0 260 119 289 266l-430 560l-114 -647h-30l123 700h23z" />
    <glyph glyph-name="Ntilde" unicode="&#xd1;" horiz-adv-x="821" 
d="M437 838c-32 0 -51 -23 -57 -58h-30c9 52 45 87 89 87c55 0 96 -55 143 -55c30 0 51 22 57 55h29c-9 -50 -45 -84 -89 -84c-56 0 -92 55 -142 55zM641 59l113 641h30l-123 -700h-21l-425 643l-113 -643h-30l123 700h23z" />
    <glyph glyph-name="O" unicode="O" horiz-adv-x="837" 
d="M371 -12c-208 0 -332 162 -296 362c35 201 219 362 424 362c208 0 331 -162 296 -362c-36 -201 -220 -362 -424 -362zM376 17c186 0 355 148 388 333c33 188 -85 333 -270 333c-189 0 -356 -150 -388 -333c-33 -187 85 -333 270 -333z" />
    <glyph glyph-name="Oacute" unicode="&#xd3;" horiz-adv-x="837" 
d="M520 750h-29l1 4l110 137h33v-3zM371 -12c-208 0 -332 162 -296 362c35 201 219 362 424 362c208 0 331 -162 296 -362c-36 -201 -220 -362 -424 -362zM376 17c186 0 355 148 388 333c33 188 -85 333 -270 333c-189 0 -356 -150 -388 -333c-33 -187 85 -333 270 -333z
" />
    <glyph glyph-name="uni01D1" unicode="&#x1d1;" horiz-adv-x="837" 
d="M686 889l-176 -139h-9l-126 139v2h37l100 -108l137 108h37v-2zM499 712c208 0 331 -162 296 -362c-36 -201 -220 -362 -424 -362c-208 0 -332 162 -296 362c35 201 219 362 424 362zM764 350c33 188 -85 333 -270 333c-189 0 -356 -150 -388 -333
c-33 -187 85 -333 270 -333c186 0 355 148 388 333z" />
    <glyph glyph-name="Ocircumflex" unicode="&#xd4;" horiz-adv-x="837" 
d="M624 750l-99 108l-138 -108h-37l1 2l175 139h9l127 -139l-1 -2h-37zM499 712c208 0 331 -162 296 -362c-36 -201 -220 -362 -424 -362c-208 0 -332 162 -296 362c35 201 219 362 424 362zM764 350c33 188 -85 333 -270 333c-189 0 -356 -150 -388 -333
c-33 -187 85 -333 270 -333c186 0 355 148 388 333z" />
    <glyph glyph-name="Odieresis" unicode="&#xd6;" horiz-adv-x="837" 
d="M414 796c-14 0 -25 13 -23 27c2 13 18 25 32 25c13 0 22 -12 20 -25c-2 -14 -16 -27 -29 -27zM614 796c-14 0 -25 13 -23 27c2 13 18 25 32 25c13 0 23 -12 20 -25c-2 -14 -16 -27 -29 -27zM371 -12c-208 0 -332 162 -296 362c35 201 219 362 424 362
c208 0 331 -162 296 -362c-36 -201 -220 -362 -424 -362zM376 17c186 0 355 148 388 333c33 188 -85 333 -270 333c-189 0 -356 -150 -388 -333c-33 -187 85 -333 270 -333z" />
    <glyph glyph-name="Ograve" unicode="&#xd2;" horiz-adv-x="837" 
d="M518 750h-29l-65 138v3h32l63 -137zM371 -12c-208 0 -332 162 -296 362c35 201 219 362 424 362c208 0 331 -162 296 -362c-36 -201 -220 -362 -424 -362zM376 17c186 0 355 148 388 333c33 188 -85 333 -270 333c-189 0 -356 -150 -388 -333c-33 -187 85 -333 270 -333z
" />
    <glyph glyph-name="Ohungarumlaut" unicode="&#x150;" horiz-adv-x="837" 
d="M452 750h-29l1 4l92 137h32v-3zM564 750h-29l1 4l93 137h32v-3zM371 -12c-208 0 -332 162 -296 362c35 201 219 362 424 362c208 0 331 -162 296 -362c-36 -201 -220 -362 -424 -362zM376 17c186 0 355 148 388 333c33 188 -85 333 -270 333c-189 0 -356 -150 -388 -333
c-33 -187 85 -333 270 -333z" />
    <glyph glyph-name="Omacron" unicode="&#x14c;" horiz-adv-x="837" 
d="M649 807h-267l4 28h267zM371 -12c-208 0 -332 162 -296 362c35 201 219 362 424 362c208 0 331 -162 296 -362c-36 -201 -220 -362 -424 -362zM376 17c186 0 355 148 388 333c33 188 -85 333 -270 333c-189 0 -356 -150 -388 -333c-33 -187 85 -333 270 -333z" />
    <glyph glyph-name="Oslash" unicode="&#xd8;" horiz-adv-x="849" 
d="M853 739l18 -21l-125 -113c52 -65 73 -155 56 -255c-36 -201 -220 -362 -424 -362c-94 0 -171 33 -223 88l-126 -113l-18 20l126 113c-51 65 -73 155 -55 254c35 201 219 362 424 362c93 0 169 -32 221 -86zM113 350c-16 -91 4 -172 49 -231l541 485
c-49 50 -119 79 -202 79c-189 0 -356 -150 -388 -333zM771 350c16 92 -4 174 -50 233l-541 -485c48 -51 119 -81 203 -81c185 0 355 148 388 333z" />
    <glyph glyph-name="Oslashacute" unicode="&#x1fe;" horiz-adv-x="849" 
d="M641 891v-3l-114 -138h-30l1 4l111 137h32zM853 739l18 -21l-125 -113c52 -65 73 -155 56 -255c-36 -201 -220 -362 -424 -362c-94 0 -171 33 -223 88l-126 -113l-18 20l126 113c-51 65 -73 155 -55 254c35 201 219 362 424 362c93 0 169 -32 221 -86zM113 350
c-16 -91 4 -172 49 -231l541 485c-49 50 -119 79 -202 79c-189 0 -356 -150 -388 -333zM771 350c16 92 -4 174 -50 233l-541 -485c48 -51 119 -81 203 -81c185 0 355 148 388 333z" />
    <glyph glyph-name="Otilde" unicode="&#xd5;" horiz-adv-x="837" 
d="M386 780h-29c9 52 44 87 88 87c55 0 96 -55 143 -55c30 0 51 22 57 55h29c-9 -50 -45 -84 -89 -84c-56 0 -92 55 -142 55c-32 0 -51 -23 -57 -58zM371 -12c-208 0 -332 162 -296 362c35 201 219 362 424 362c208 0 331 -162 296 -362c-36 -201 -220 -362 -424 -362z
M376 17c186 0 355 148 388 333c33 188 -85 333 -270 333c-189 0 -356 -150 -388 -333c-33 -187 85 -333 270 -333z" />
    <glyph glyph-name="OE" unicode="&#x152;" horiz-adv-x="1167" 
d="M1197 700l-4 -29h-341l-56 -313h284l-5 -28h-284l-53 -301h342l-6 -29h-371l36 203c-78 -127 -217 -215 -368 -215c-208 0 -332 162 -296 362c35 201 219 362 424 362c153 0 259 -87 292 -213l35 201h371zM376 17c180 0 345 139 385 315l7 37c22 179 -95 314 -274 314
c-189 0 -356 -150 -388 -333c-33 -187 85 -333 270 -333z" />
    <glyph glyph-name="P" unicode="P" horiz-adv-x="575" 
d="M195 700h138c167 0 265 -76 241 -212s-148 -212 -315 -212h-108l-49 -276h-30zM543 488c21 117 -65 183 -214 183h-108l-65 -366h109c148 0 258 65 278 183z" />
    <glyph glyph-name="Thorn" unicode="&#xde;" horiz-adv-x="615" 
d="M202 570h138c167 0 264 -76 240 -212s-148 -212 -315 -212h-137l-26 -146h-30l123 700h30zM549 358c21 117 -65 183 -214 183h-138l-64 -366h137c149 0 258 65 279 183z" />
    <glyph glyph-name="Q" unicode="Q" horiz-adv-x="837" 
d="M499 712c208 0 331 -162 296 -362c-35 -196 -211 -354 -408 -362l-28 -161h-31l28 161c-199 8 -316 167 -281 362c35 201 219 362 424 362zM764 350c33 188 -85 333 -270 333c-189 0 -356 -150 -388 -333c-33 -187 85 -333 270 -333c186 0 355 148 388 333z" />
    <glyph glyph-name="R" unicode="R" horiz-adv-x="676" 
d="M195 700h231c160 0 241 -74 219 -200c-17 -99 -85 -167 -188 -192c90 -32 119 -109 115 -204l-4 -104h-30l4 104c5 106 -48 192 -192 192h-196l-52 -296h-30zM614 500c19 107 -52 171 -192 171h-201l-62 -347h201c140 0 235 65 254 176z" />
    <glyph glyph-name="Racute" unicode="&#x154;" horiz-adv-x="676" 
d="M502 891v-3l-114 -138h-30l1 4l111 137h32zM195 700h231c160 0 241 -74 219 -200c-17 -99 -85 -167 -188 -192c90 -32 119 -109 115 -204l-4 -104h-30l4 104c5 106 -48 192 -192 192h-196l-52 -296h-30zM614 500c19 107 -52 171 -192 171h-201l-62 -347h201
c140 0 235 65 254 176z" />
    <glyph glyph-name="Rcaron" unicode="&#x158;" horiz-adv-x="676" 
d="M582 892l-176 -139h-9l-126 139v2h37l100 -108l137 108h37v-2zM195 700h231c160 0 241 -74 219 -200c-17 -99 -85 -167 -188 -192c90 -32 119 -109 115 -204l-4 -104h-30l4 104c5 106 -48 192 -192 192h-196l-52 -296h-30zM614 500c19 107 -52 171 -192 171h-201
l-62 -347h201c140 0 235 65 254 176z" />
    <glyph glyph-name="uni0156" unicode="&#x156;" horiz-adv-x="676" 
d="M195 700h231c160 0 241 -74 219 -200c-17 -99 -85 -167 -188 -192c90 -32 119 -109 115 -204l-4 -104h-30l4 104c5 106 -48 192 -192 192h-196l-52 -296h-30zM614 500c19 107 -52 171 -192 171h-201l-62 -347h201c140 0 235 65 254 176zM194 -213l1 5l80 152h28l-1 -5
l-81 -152h-27z" />
    <glyph glyph-name="S" unicode="S" horiz-adv-x="520" 
d="M207 -12c-70 0 -138 23 -182 60l5 34c35 -39 105 -65 178 -65c114 0 197 63 214 159c13 72 -20 118 -99 146l-99 35c-83 25 -119 84 -104 170c20 112 112 185 231 185c56 0 122 -16 153 -44l-6 -36c-23 28 -86 51 -149 51c-96 0 -180 -55 -198 -157
c-13 -74 17 -118 87 -143l106 -36c86 -28 125 -89 110 -173c-18 -101 -113 -186 -247 -186z" />
    <glyph glyph-name="Sacute" unicode="&#x15a;" horiz-adv-x="520" 
d="M351 750h-29l1 4l111 137h32v-3zM207 -12c-70 0 -138 23 -182 60l5 34c35 -39 105 -65 178 -65c114 0 197 63 214 159c13 72 -20 118 -99 146l-99 35c-83 25 -119 84 -104 170c20 112 112 185 231 185c56 0 122 -16 153 -44l-6 -36c-23 28 -86 51 -149 51
c-96 0 -180 -55 -198 -157c-13 -74 17 -118 87 -143l106 -36c86 -28 125 -89 110 -173c-18 -101 -113 -186 -247 -186z" />
    <glyph glyph-name="Scaron" unicode="&#x160;" horiz-adv-x="520" 
d="M358 783l137 108h37v-2l-176 -139h-9l-126 139v2h37zM120 527c20 112 112 185 231 185c56 0 122 -16 153 -44l-6 -36c-23 28 -86 51 -149 51c-96 0 -180 -55 -198 -157c-13 -74 17 -118 87 -143l106 -36c86 -28 125 -89 110 -173c-18 -101 -113 -186 -247 -186
c-70 0 -138 23 -182 60l5 34c35 -39 105 -65 178 -65c114 0 197 63 214 159c13 72 -20 118 -99 146l-99 35c-83 25 -119 84 -104 170z" />
    <glyph glyph-name="Scedilla" unicode="&#x15e;" horiz-adv-x="520" 
d="M351 712c56 0 122 -16 153 -44l-6 -36c-23 28 -86 51 -149 51c-96 0 -180 -55 -198 -157c-13 -74 17 -118 87 -143l106 -36c86 -28 125 -89 110 -173c-18 -99 -108 -182 -237 -186l-39 -50c16 3 33 5 43 5c55 0 87 -27 80 -68c-9 -49 -63 -82 -136 -82
c-22 0 -49 4 -66 10l5 25c19 -7 46 -11 66 -11c56 0 97 22 103 56c5 28 -20 46 -61 46c-24 0 -52 -3 -71 -8l-4 9l52 68c-63 4 -124 26 -164 60l5 34c35 -39 105 -65 178 -65c114 0 197 63 214 159c13 72 -20 118 -99 146l-99 35c-83 25 -119 84 -104 170
c20 112 112 185 231 185z" />
    <glyph glyph-name="uni0218" unicode="&#x218;" horiz-adv-x="520" 
d="M207 -12c-70 0 -138 23 -182 60l5 34c35 -39 105 -65 178 -65c114 0 197 63 214 159c13 72 -20 118 -99 146l-99 35c-83 25 -119 84 -104 170c20 112 112 185 231 185c56 0 122 -16 153 -44l-6 -36c-23 28 -86 51 -149 51c-96 0 -180 -55 -198 -157
c-13 -74 17 -118 87 -143l106 -36c86 -28 125 -89 110 -173c-18 -101 -113 -186 -247 -186zM135 -213h-26l1 5l80 152h28l-1 -5z" />
    <glyph glyph-name="uni1E9E" unicode="&#x1e9e;" horiz-adv-x="705" 
d="M678 666l-216 -262c131 -17 197 -96 178 -208c-21 -119 -129 -208 -265 -208c-58 0 -129 16 -181 39l5 29c52 -23 123 -39 178 -39c120 0 215 78 232 181c19 107 -58 171 -185 185l3 22l205 247c-45 22 -103 31 -163 31c-167 0 -279 -108 -306 -267l-74 -416h-30l74 416
c30 176 156 296 341 296c78 0 144 -13 199 -40z" />
    <glyph glyph-name="T" unicode="T" horiz-adv-x="479" 
d="M112 700h421l-4 -29h-210l-118 -671h-30l118 671h-181z" />
    <glyph glyph-name="Tbar" unicode="&#x166;" horiz-adv-x="494" 
d="M540 700l-4 -29h-210l-47 -266h126l-4 -28h-127l-66 -377h-30l66 377h-124l4 28h125l47 266h-181l4 29h421z" />
    <glyph glyph-name="Tcaron" unicode="&#x164;" horiz-adv-x="479" 
d="M498 889l-176 -139h-9l-126 139v2h37l100 -108l138 108h36v-2zM112 700h421l-4 -29h-210l-118 -671h-30l118 671h-181z" />
    <glyph glyph-name="uni0162" unicode="&#x162;" horiz-adv-x="479" 
d="M319 671l-118 -671h-18l-48 -62c16 3 33 5 43 5c55 0 87 -27 80 -68c-9 -49 -63 -82 -137 -82c-22 0 -48 4 -66 10l6 25c18 -7 45 -11 65 -11c56 0 98 22 104 56c5 28 -20 46 -62 46c-24 0 -52 -3 -70 -8l-5 9l67 88h12l117 663h-181l4 29h421l-4 -29h-210z" />
    <glyph glyph-name="uni021A" unicode="&#x21a;" horiz-adv-x="479" 
d="M112 700h421l-4 -29h-210l-118 -671h-30l118 671h-181zM67 -213l1 5l80 152h28l-1 -5l-81 -152h-27z" />
    <glyph glyph-name="U" unicode="U" horiz-adv-x="779" 
d="M343 -12c-171 0 -264 116 -233 291l74 421h30l-74 -425c-27 -154 56 -258 209 -258s273 104 300 260l74 423h30l-74 -420c-31 -175 -165 -292 -336 -292z" />
    <glyph glyph-name="Uacute" unicode="&#xda;" horiz-adv-x="779" 
d="M493 750h-30l1 4l111 137h32v-3zM343 -12c-171 0 -264 116 -233 291l74 421h30l-74 -425c-27 -154 56 -258 209 -258s273 104 300 260l74 423h30l-74 -420c-31 -175 -165 -292 -336 -292z" />
    <glyph glyph-name="uni01D3" unicode="&#x1d3;" horiz-adv-x="779" 
d="M659 889l-176 -139h-9l-126 139v2h37l100 -108l137 108h37v-2zM649 277l74 423h30l-74 -420c-31 -175 -165 -292 -336 -292s-264 116 -233 291l74 421h30l-74 -425c-27 -154 56 -258 209 -258s273 104 300 260z" />
    <glyph glyph-name="Ucircumflex" unicode="&#xdb;" horiz-adv-x="779" 
d="M597 750l-99 108l-138 -108h-37l1 2l175 139h9l127 -139l-1 -2h-37zM649 277l74 423h30l-74 -420c-31 -175 -165 -292 -336 -292s-264 116 -233 291l74 421h30l-74 -425c-27 -154 56 -258 209 -258s273 104 300 260z" />
    <glyph glyph-name="Udieresis" unicode="&#xdc;" horiz-adv-x="779" 
d="M387 796c-15 0 -25 13 -23 27c2 13 18 25 32 25c13 0 22 -12 20 -25c-2 -14 -16 -27 -29 -27zM587 796c-15 0 -25 13 -23 27c2 13 18 25 32 25c13 0 22 -12 20 -25c-2 -14 -16 -27 -29 -27zM343 -12c-171 0 -264 116 -233 291l74 421h30l-74 -425
c-27 -154 56 -258 209 -258s273 104 300 260l74 423h30l-74 -420c-31 -175 -165 -292 -336 -292z" />
    <glyph glyph-name="uni01D7" unicode="&#x1d7;" horiz-adv-x="779" 
d="M523 918h-30l1 4l111 137h32v-3zM387 796c-15 0 -25 13 -23 27c2 13 18 25 32 25c13 0 22 -12 20 -25c-2 -14 -16 -27 -29 -27zM587 796c-15 0 -25 13 -23 27c2 13 18 25 32 25c13 0 22 -12 20 -25c-2 -14 -16 -27 -29 -27zM343 -12c-171 0 -264 116 -233 291l74 421h30
l-74 -425c-27 -154 56 -258 209 -258s273 104 300 260l74 423h30l-74 -420c-31 -175 -165 -292 -336 -292z" />
    <glyph glyph-name="uni01D9" unicode="&#x1d9;" horiz-adv-x="779" 
d="M689 1057l-176 -139h-9l-126 139v2h37l100 -108l137 108h37v-2zM387 796c-15 0 -25 13 -23 27c2 13 18 25 32 25c13 0 22 -12 20 -25c-2 -14 -16 -27 -29 -27zM564 823c2 13 18 25 32 25c13 0 22 -12 20 -25c-2 -14 -16 -27 -29 -27c-15 0 -25 13 -23 27zM649 277l74 423
h30l-74 -420c-31 -175 -165 -292 -336 -292s-264 116 -233 291l74 421h30l-74 -425c-27 -154 56 -258 209 -258s273 104 300 260z" />
    <glyph glyph-name="uni01DB" unicode="&#x1db;" horiz-adv-x="779" 
d="M521 918h-30l-64 138v3h32l63 -137zM387 796c-15 0 -25 13 -23 27c2 13 18 25 32 25c13 0 22 -12 20 -25c-2 -14 -16 -27 -29 -27zM587 796c-15 0 -25 13 -23 27c2 13 18 25 32 25c13 0 22 -12 20 -25c-2 -14 -16 -27 -29 -27zM343 -12c-171 0 -264 116 -233 291l74 421
h30l-74 -425c-27 -154 56 -258 209 -258s273 104 300 260l74 423h30l-74 -420c-31 -175 -165 -292 -336 -292z" />
    <glyph glyph-name="uni01D5" unicode="&#x1d5;" horiz-adv-x="779" 
d="M652 975h-268l5 28h267zM387 796c-15 0 -25 13 -23 27c2 13 18 25 32 25c13 0 22 -12 20 -25c-2 -14 -16 -27 -29 -27zM587 796c-15 0 -25 13 -23 27c2 13 18 25 32 25c13 0 22 -12 20 -25c-2 -14 -16 -27 -29 -27zM343 -12c-171 0 -264 116 -233 291l74 421h30l-74 -425
c-27 -154 56 -258 209 -258s273 104 300 260l74 423h30l-74 -420c-31 -175 -165 -292 -336 -292z" />
    <glyph glyph-name="Ugrave" unicode="&#xd9;" horiz-adv-x="779" 
d="M491 750h-30l-64 138v3h32l63 -137zM343 -12c-171 0 -264 116 -233 291l74 421h30l-74 -425c-27 -154 56 -258 209 -258s273 104 300 260l74 423h30l-74 -420c-31 -175 -165 -292 -336 -292z" />
    <glyph glyph-name="Uhungarumlaut" unicode="&#x170;" horiz-adv-x="779" 
d="M425 750h-30l1 4l93 137h32v-3zM537 750h-29l1 4l93 137h32v-3zM343 -12c-171 0 -264 116 -233 291l74 421h30l-74 -425c-27 -154 56 -258 209 -258s273 104 300 260l74 423h30l-74 -420c-31 -175 -165 -292 -336 -292z" />
    <glyph glyph-name="Umacron" unicode="&#x16a;" horiz-adv-x="779" 
d="M622 807h-267l4 28h267zM343 -12c-171 0 -264 116 -233 291l74 421h30l-74 -425c-27 -154 56 -258 209 -258s273 104 300 260l74 423h30l-74 -420c-31 -175 -165 -292 -336 -292z" />
    <glyph glyph-name="Uogonek" unicode="&#x172;" horiz-adv-x="779" 
d="M649 277l74 423h30l-74 -420c-30 -167 -153 -281 -313 -291c-41 -31 -60 -67 -65 -92c-10 -60 26 -82 84 -82c25 0 52 10 67 20l-4 -26c-15 -9 -42 -18 -68 -18c-69 0 -115 31 -102 102c4 26 19 64 59 95c-167 3 -258 118 -227 291l74 421h30l-74 -425
c-27 -154 56 -258 209 -258s273 104 300 260z" />
    <glyph glyph-name="Uring" unicode="&#x16e;" horiz-adv-x="779" 
d="M483 774c-62 1 -103 48 -92 106c10 57 67 104 129 104c61 0 102 -47 92 -104c-11 -58 -68 -107 -129 -106zM488 801c46 0 89 35 97 79c6 43 -24 78 -70 78c-47 0 -90 -35 -97 -78c-8 -44 23 -79 70 -79zM343 -12c-171 0 -264 116 -233 291l74 421h30l-74 -425
c-27 -154 56 -258 209 -258s273 104 300 260l74 423h30l-74 -420c-31 -175 -165 -292 -336 -292z" />
    <glyph glyph-name="Utilde" unicode="&#x168;" horiz-adv-x="779" 
d="M359 780h-30c10 52 45 87 89 87c55 0 96 -55 143 -55c30 0 51 22 57 55h29c-9 -50 -45 -84 -89 -84c-56 0 -92 55 -142 55c-32 0 -51 -23 -57 -58zM343 -12c-171 0 -264 116 -233 291l74 421h30l-74 -425c-27 -154 56 -258 209 -258s273 104 300 260l74 423h30l-74 -420
c-31 -175 -165 -292 -336 -292z" />
    <glyph glyph-name="V" unicode="V" horiz-adv-x="677" 
d="M303 50l405 650h30v-4l-434 -696h-21l-188 696v4h30z" />
    <glyph glyph-name="W" unicode="W" horiz-adv-x="1117" 
d="M779 60l359 640h36v-4l-393 -696h-25l-141 573l-344 -573h-25l-147 696v4h36l134 -640l347 574h19z" />
    <glyph glyph-name="Wacute" unicode="&#x1e82;" horiz-adv-x="1117" 
d="M775 891v-3l-114 -138h-30l1 4l111 137h32zM779 60l359 640h36v-4l-393 -696h-25l-141 573l-344 -573h-25l-147 696v4h36l134 -640l347 574h19z" />
    <glyph glyph-name="Wcircumflex" unicode="&#x174;" horiz-adv-x="1117" 
d="M765 750l-99 108l-138 -108h-37l1 2l175 139h9l127 -139l-1 -2h-37zM779 60l359 640h36v-4l-393 -696h-25l-141 573l-344 -573h-25l-147 696v4h36l134 -640l347 574h19z" />
    <glyph glyph-name="Wdieresis" unicode="&#x1e84;" horiz-adv-x="1117" 
d="M555 796c-15 0 -25 13 -23 27c2 13 17 25 32 25c13 0 22 -12 20 -25c-2 -14 -16 -27 -29 -27zM755 796c-15 0 -25 13 -23 27c2 13 17 25 32 25c13 0 22 -12 20 -25c-2 -14 -16 -27 -29 -27zM779 60l359 640h36v-4l-393 -696h-25l-141 573l-344 -573h-25l-147 696v4h36
l134 -640l347 574h19z" />
    <glyph glyph-name="Wgrave" unicode="&#x1e80;" horiz-adv-x="1117" 
d="M660 754l-1 -4h-30l-64 138v3h32zM779 60l359 640h36v-4l-393 -696h-25l-141 573l-344 -573h-25l-147 696v4h36l134 -640l347 574h19z" />
    <glyph glyph-name="X" unicode="X" horiz-adv-x="525" 
d="M507 700h31v-4l-235 -309l155 -383l-1 -4h-31l-145 358l-273 -358h-30l1 4l290 382l-126 310v4h31l117 -286z" />
    <glyph glyph-name="Y" unicode="Y" horiz-adv-x="642" 
d="M325 277l342 423h35v-4l-368 -450l-43 -246h-30l43 244l-209 452v4h35z" />
    <glyph glyph-name="Yacute" unicode="&#xdd;" horiz-adv-x="642" 
d="M537 891v-3l-114 -138h-30l1 4l111 137h32zM325 277l342 423h35v-4l-368 -450l-43 -246h-30l43 244l-209 452v4h35z" />
    <glyph glyph-name="Ycircumflex" unicode="&#x176;" horiz-adv-x="642" 
d="M527 750l-99 108l-139 -108h-37l1 2l175 139h9l127 -139l-1 -2h-36zM325 277l342 423h35v-4l-368 -450l-43 -246h-30l43 244l-209 452v4h35z" />
    <glyph glyph-name="Ydieresis" unicode="&#x178;" horiz-adv-x="642" 
d="M316 796c-14 0 -24 13 -22 27c2 13 17 25 31 25s23 -12 21 -25c-2 -14 -16 -27 -30 -27zM516 796c-14 0 -24 13 -22 27c2 13 17 25 31 25s23 -12 21 -25c-2 -14 -16 -27 -30 -27zM325 277l342 423h35v-4l-368 -450l-43 -246h-30l43 244l-209 452v4h35z" />
    <glyph glyph-name="Ygrave" unicode="&#x1ef2;" horiz-adv-x="642" 
d="M422 754l-1 -4h-30l-64 138v3h32zM325 277l342 423h35v-4l-368 -450l-43 -246h-30l43 244l-209 452v4h35z" />
    <glyph glyph-name="uni1EF8" unicode="&#x1ef8;" horiz-adv-x="642" 
d="M345 838c-32 0 -51 -23 -57 -58h-29c9 52 44 87 88 87c55 0 96 -55 143 -55c30 0 51 22 57 55h30c-9 -50 -45 -84 -90 -84c-56 0 -92 55 -142 55zM325 277l342 423h35v-4l-368 -450l-43 -246h-30l43 244l-209 452v4h35z" />
    <glyph glyph-name="Z" unicode="Z" horiz-adv-x="621" 
d="M121 700h544l-1 -9l-627 -662h512l-5 -29h-567l1 6l628 665h-489z" />
    <glyph glyph-name="Zacute" unicode="&#x179;" horiz-adv-x="621" 
d="M534 891v-3l-115 -138h-30l1 4l111 137h33zM121 700h544l-1 -9l-627 -662h512l-5 -29h-567l1 6l628 665h-489z" />
    <glyph glyph-name="Zcaron" unicode="&#x17d;" horiz-adv-x="621" 
d="M585 889l-176 -139h-9l-126 139v2h37l100 -108l137 108h37v-2zM121 700h544l-1 -9l-627 -662h512l-5 -29h-567l1 6l628 665h-489z" />
    <glyph glyph-name="Zdotaccent" unicode="&#x17b;" horiz-adv-x="621" 
d="M412 795c-14 1 -24 14 -22 27c2 14 18 26 31 25c14 1 23 -11 21 -25c-2 -13 -16 -26 -30 -27zM121 700h544l-1 -9l-627 -662h512l-5 -29h-567l1 6l628 665h-489z" />
    <glyph glyph-name="A.alt" horiz-adv-x="695" 
d="M637 0h-32l-60 207h-412l-132 -207h-32l446 700h21zM417 651l-265 -415h385z" />
    <glyph glyph-name="Aacute.alt" horiz-adv-x="695" 
d="M570 891v-3l-115 -138h-29l1 4l111 137h32zM637 0h-32l-60 207h-412l-132 -207h-32l446 700h21zM417 651l-265 -415h385z" />
    <glyph glyph-name="Abreve.alt" horiz-adv-x="695" 
d="M435 750c-80 0 -139 62 -125 141h27c-11 -65 39 -117 102 -117s134 52 145 117h26c-14 -79 -95 -141 -175 -141zM637 0h-32l-60 207h-412l-132 -207h-32l446 700h21zM417 651l-265 -415h385z" />
    <glyph glyph-name="uni01CD.alt" horiz-adv-x="695" 
d="M615 889l-176 -139h-9l-126 139v2h37l100 -108l137 108h37v-2zM637 0h-32l-60 207h-412l-132 -207h-32l446 700h21zM417 651l-265 -415h385z" />
    <glyph glyph-name="Acircumflex.alt" horiz-adv-x="695" 
d="M553 750l-99 108l-138 -108h-37l1 2l175 139h9l127 -139l-1 -2h-37zM637 0h-32l-60 207h-412l-132 -207h-32l446 700h21zM417 651l-265 -415h385z" />
    <glyph glyph-name="Adieresis.alt" horiz-adv-x="695" 
d="M344 796c-14 0 -24 13 -22 27c2 13 17 25 31 25s23 -12 21 -25c-2 -14 -17 -27 -30 -27zM544 796c-14 0 -24 13 -22 27c2 13 17 25 31 25s23 -12 21 -25c-2 -14 -17 -27 -30 -27zM637 0h-32l-60 207h-412l-132 -207h-32l446 700h21zM417 651l-265 -415h385z" />
    <glyph glyph-name="Agrave.alt" horiz-adv-x="695" 
d="M438 754l-1 -4h-30l-64 138v3h32zM637 0h-32l-60 207h-412l-132 -207h-32l446 700h21zM417 651l-265 -415h385z" />
    <glyph glyph-name="Amacron.alt" horiz-adv-x="695" 
d="M316 835h268l-5 -28h-267zM637 0h-32l-60 207h-412l-132 -207h-32l446 700h21zM417 651l-265 -415h385z" />
    <glyph glyph-name="Aogonek.alt" horiz-adv-x="695" 
d="M623 -177c25 0 52 10 67 20l-4 -26c-15 -9 -42 -18 -68 -18c-70 0 -115 31 -102 102c5 32 25 79 85 112l-56 194h-412l-132 -207h-32l446 700h21l201 -700h-29c-44 -31 -64 -69 -69 -95c-10 -60 26 -82 84 -82zM417 651l-265 -415h385z" />
    <glyph glyph-name="Aring.alt" horiz-adv-x="695" 
d="M637 0h-32l-60 207h-412l-132 -207h-32l437 687c-52 8 -84 52 -74 104c10 57 67 104 129 104c61 0 102 -47 92 -104c-10 -53 -58 -98 -113 -105zM360 791c-8 -44 22 -79 69 -79c46 0 89 35 97 79c7 43 -24 77 -70 77c-47 0 -90 -34 -96 -77zM417 651l-265 -415h385z" />
    <glyph glyph-name="Aringacute.alt" horiz-adv-x="695" 
d="M637 0h-32l-60 207h-412l-132 -207h-32l435 683c-51 9 -83 52 -73 104c9 53 60 98 117 103l99 123h32v-3l-100 -121c50 -8 82 -51 73 -102c-10 -52 -57 -97 -111 -105zM359 787c-8 -44 22 -79 69 -79c46 0 89 35 97 79c7 43 -24 78 -70 78c-47 0 -89 -35 -96 -78z
M417 651l-265 -415h385z" />
    <glyph glyph-name="Atilde.alt" horiz-adv-x="695" 
d="M376 838c-32 0 -51 -23 -57 -58h-29c9 52 44 87 88 87c55 0 96 -55 143 -55c30 0 51 22 57 55h30c-9 -50 -46 -84 -90 -84c-56 0 -92 55 -142 55zM637 0h-32l-60 207h-412l-132 -207h-32l446 700h21zM417 651l-265 -415h385z" />
    <glyph glyph-name="AE.alt" horiz-adv-x="815" 
d="M845 700l-4 -29h-307l-55 -313h267l-5 -28h-267l-53 -301h306l-5 -29h-336l36 207h-274l-164 -207h-32l549 700h344zM501 653l-330 -417h256z" />
    <glyph glyph-name="AEacute.alt" horiz-adv-x="815" 
d="M779 891v-3l-114 -138h-30l1 4l111 137h32zM845 700l-4 -29h-307l-55 -313h267l-5 -28h-267l-53 -301h306l-5 -29h-336l36 207h-274l-164 -207h-32l549 700h344zM501 653l-330 -417h256z" />
    <glyph glyph-name="K.alt" horiz-adv-x="610" 
d="M627 700h33v-5l-312 -345l190 -345l-1 -5h-33l-185 336h-158l-59 -336h-30l123 700h30l-59 -336h158z" />
    <glyph glyph-name="uni0136.alt" horiz-adv-x="610" 
d="M627 700h33v-5l-312 -345l190 -345l-1 -5h-33l-185 336h-158l-59 -336h-30l123 700h30l-59 -336h158zM155 -213l1 5l80 152h28l-1 -5l-81 -152h-27z" />
    <glyph glyph-name="R.alt" horiz-adv-x="651" 
d="M195 700h191c167 0 265 -76 241 -207c-17 -98 -91 -168 -198 -197l122 -291l-1 -5h-34l-119 289c-26 -5 -55 -8 -85 -8h-160l-50 -281h-30zM596 493c20 112 -66 178 -215 178h-160l-64 -361h161c148 0 259 70 278 183z" />
    <glyph glyph-name="Racute.alt" horiz-adv-x="651" 
d="M490 891v-3l-114 -138h-30l1 4l111 137h32zM195 700h191c167 0 265 -76 241 -207c-17 -98 -91 -168 -198 -197l122 -291l-1 -5h-34l-119 289c-26 -5 -55 -8 -85 -8h-160l-50 -281h-30zM596 493c20 112 -66 178 -215 178h-160l-64 -361h161c148 0 259 70 278 183z" />
    <glyph glyph-name="Rcaron.alt" horiz-adv-x="651" 
d="M541 889l-176 -139h-9l-126 139l1 2h36l100 -108l138 108h36v-2zM195 700h191c167 0 265 -76 241 -207c-17 -98 -91 -168 -198 -197l122 -291l-1 -5h-34l-119 289c-26 -5 -55 -8 -85 -8h-160l-50 -281h-30zM596 493c20 112 -66 178 -215 178h-160l-64 -361h161
c148 0 259 70 278 183z" />
    <glyph glyph-name="uni0156.alt" horiz-adv-x="651" 
d="M195 700h191c167 0 265 -76 241 -207c-17 -98 -91 -168 -198 -197l122 -291l-1 -5h-34l-119 289c-26 -5 -55 -8 -85 -8h-160l-50 -281h-30zM596 493c20 112 -66 178 -215 178h-160l-64 -361h161c148 0 259 70 278 183zM148 -213l1 5l80 152h28l-1 -5l-81 -152h-27z" />
    <glyph glyph-name="a" unicode="a" horiz-adv-x="652" 
d="M575 16c14 0 22 1 34 2l-5 -28c-12 -1 -24 -2 -40 -2c-65 0 -91 50 -78 119l2 13c-39 -62 -126 -132 -233 -132c-154 0 -229 107 -201 267s149 267 303 267c78 0 153 -35 185 -90l14 78h30l-64 -359c-15 -81 -9 -135 53 -135zM497 167l39 228c-32 60 -99 99 -186 99
c-134 0 -241 -95 -266 -239s40 -239 174 -239c107 0 196 82 239 151z" />
    <glyph glyph-name="aacute" unicode="&#xe1;" horiz-adv-x="652" 
d="M489 762v-3l-143 -166h-29v4l140 165h32zM575 16c14 0 22 1 34 2l-5 -28c-12 -1 -24 -2 -40 -2c-65 0 -91 50 -78 119l2 13c-39 -62 -126 -132 -233 -132c-154 0 -229 107 -201 267s149 267 303 267c78 0 153 -35 185 -90l14 78h30l-64 -359c-15 -81 -9 -135 53 -135z
M497 167l39 228c-32 60 -99 99 -186 99c-134 0 -241 -95 -266 -239s40 -239 174 -239c107 0 196 82 239 151z" />
    <glyph glyph-name="abreve" unicode="&#x103;" horiz-adv-x="652" 
d="M365 597c-80 0 -137 73 -121 165h26c-13 -76 37 -137 100 -137s135 61 147 137h27c-16 -92 -99 -165 -179 -165zM575 16c14 0 22 1 34 2l-5 -28c-12 -1 -24 -2 -40 -2c-65 0 -91 50 -78 119l2 13c-39 -62 -126 -132 -233 -132c-154 0 -229 107 -201 267s149 267 303 267
c78 0 153 -35 185 -90l14 78h30l-64 -359c-15 -81 -9 -135 53 -135zM497 167l39 228c-32 60 -99 99 -186 99c-134 0 -241 -95 -266 -239s40 -239 174 -239c107 0 196 82 239 151z" />
    <glyph glyph-name="uni01CE" unicode="&#x1ce;" horiz-adv-x="652" 
d="M551 760l-180 -167h-9l-122 167v2h32l100 -132l146 132h33v-2zM575 16c14 0 22 1 34 2l-5 -28c-12 -1 -24 -2 -40 -2c-65 0 -91 50 -78 119l2 13c-39 -62 -126 -132 -233 -132c-154 0 -229 107 -201 267s149 267 303 267c78 0 153 -35 185 -90l14 78h30l-64 -359
c-15 -81 -9 -135 53 -135zM497 167l39 228c-32 60 -99 99 -186 99c-134 0 -241 -95 -266 -239s40 -239 174 -239c107 0 196 82 239 151z" />
    <glyph glyph-name="acircumflex" unicode="&#xe2;" horiz-adv-x="652" 
d="M486 593l-100 132l-145 -132h-33v2l180 167h9l122 -167v-2h-33zM575 16c14 0 22 1 34 2l-5 -28c-12 -1 -24 -2 -40 -2c-65 0 -91 50 -78 119l2 13c-39 -62 -126 -132 -233 -132c-154 0 -229 107 -201 267s149 267 303 267c78 0 153 -35 185 -90l14 78h30l-64 -359
c-15 -81 -9 -135 53 -135zM497 167l39 228c-32 60 -99 99 -186 99c-134 0 -241 -95 -266 -239s40 -239 174 -239c107 0 196 82 239 151z" />
    <glyph glyph-name="adieresis" unicode="&#xe4;" horiz-adv-x="652" 
d="M264 664c-14 0 -25 13 -21 27c2 13 16 25 30 25c13 0 24 -12 22 -25c-3 -14 -18 -27 -31 -27zM488 664c-15 0 -25 13 -22 27c2 13 17 25 31 25c13 0 23 -12 21 -25c-3 -14 -17 -27 -30 -27zM575 16c14 0 22 1 34 2l-5 -28c-12 -1 -24 -2 -40 -2c-65 0 -91 50 -78 119
l2 13c-39 -62 -126 -132 -233 -132c-154 0 -229 107 -201 267s149 267 303 267c78 0 153 -35 185 -90l14 78h30l-64 -359c-15 -81 -9 -135 53 -135zM497 167l39 228c-32 60 -99 99 -186 99c-134 0 -241 -95 -266 -239s40 -239 174 -239c107 0 196 82 239 151z" />
    <glyph glyph-name="agrave" unicode="&#xe0;" horiz-adv-x="652" 
d="M365 597v-4h-30l-85 166v3h33zM575 16c14 0 22 1 34 2l-5 -28c-12 -1 -24 -2 -40 -2c-65 0 -91 50 -78 119l2 13c-39 -62 -126 -132 -233 -132c-154 0 -229 107 -201 267s149 267 303 267c78 0 153 -35 185 -90l14 78h30l-64 -359c-15 -81 -9 -135 53 -135zM497 167
l39 228c-32 60 -99 99 -186 99c-134 0 -241 -95 -266 -239s40 -239 174 -239c107 0 196 82 239 151z" />
    <glyph glyph-name="amacron" unicode="&#x101;" horiz-adv-x="652" 
d="M243 695h267l-5 -27h-267zM575 16c14 0 22 1 34 2l-5 -28c-12 -1 -24 -2 -40 -2c-65 0 -91 50 -78 119l2 13c-39 -62 -126 -132 -233 -132c-154 0 -229 107 -201 267s149 267 303 267c78 0 153 -35 185 -90l14 78h30l-64 -359c-15 -81 -9 -135 53 -135zM497 167l39 228
c-32 60 -99 99 -186 99c-134 0 -241 -95 -266 -239s40 -239 174 -239c107 0 196 82 239 151z" />
    <glyph glyph-name="aogonek" unicode="&#x105;" horiz-adv-x="652" 
d="M520 -2c-50 -32 -71 -73 -77 -101c-10 -60 26 -82 84 -82c25 0 52 10 67 20l-4 -26c-15 -9 -42 -18 -68 -18c-70 0 -115 31 -102 102c5 32 26 80 88 114c-23 20 -30 56 -22 100l2 13c-39 -62 -126 -132 -233 -132c-154 0 -229 107 -201 267s149 267 303 267
c78 0 153 -35 185 -90l14 78h30l-64 -359c-15 -81 -9 -135 53 -135c14 0 22 1 34 2l-5 -28c-12 -1 -24 -2 -40 -2c-17 0 -32 4 -44 10zM497 167l39 228c-32 60 -99 99 -186 99c-134 0 -241 -95 -266 -239s40 -239 174 -239c107 0 196 82 239 151z" />
    <glyph glyph-name="aring" unicode="&#xe5;" horiz-adv-x="652" 
d="M352 584c-62 1 -103 48 -92 106c10 57 67 104 129 104c61 0 102 -47 92 -104c-11 -58 -68 -107 -129 -106zM287 690c-8 -44 23 -79 70 -79c46 0 89 35 97 79c7 43 -24 78 -70 78c-47 0 -90 -35 -97 -78zM575 16c14 0 22 1 34 2l-5 -28c-12 -1 -24 -2 -40 -2
c-65 0 -91 50 -78 119l2 13c-39 -62 -126 -132 -233 -132c-154 0 -229 107 -201 267s149 267 303 267c78 0 153 -35 185 -90l14 78h30l-64 -359c-15 -81 -9 -135 53 -135zM497 167l39 228c-32 60 -99 99 -186 99c-134 0 -241 -95 -266 -239s40 -239 174 -239
c107 0 196 82 239 151z" />
    <glyph glyph-name="aringacute" unicode="&#x1fb;" horiz-adv-x="652" 
d="M364 574c-62 1 -102 48 -92 106c9 51 56 94 110 103l84 91h32l-1 -5l-84 -86c54 -5 89 -50 80 -103c-10 -58 -68 -107 -129 -106zM299 680c-8 -44 23 -79 70 -79c46 0 89 35 97 79c8 43 -23 78 -69 78c-47 0 -90 -35 -98 -78zM575 16c14 0 22 1 34 2l-5 -28
c-12 -1 -24 -2 -40 -2c-65 0 -91 50 -78 119l2 13c-39 -62 -126 -132 -233 -132c-154 0 -229 107 -201 267s149 267 303 267c78 0 153 -35 185 -90l14 78h30l-64 -359c-15 -81 -9 -135 53 -135zM497 167l39 228c-32 60 -99 99 -186 99c-134 0 -241 -95 -266 -239
s40 -239 174 -239c107 0 196 82 239 151z" />
    <glyph glyph-name="atilde" unicode="&#xe3;" horiz-adv-x="652" 
d="M306 690c-32 0 -51 -23 -58 -58h-30c10 52 46 87 90 87c55 0 96 -55 143 -55c30 0 51 22 57 55h29c-9 -50 -45 -84 -89 -84c-56 0 -92 55 -142 55zM575 16c14 0 22 1 34 2l-5 -28c-12 -1 -24 -2 -40 -2c-65 0 -91 50 -78 119l2 13c-39 -62 -126 -132 -233 -132
c-154 0 -229 107 -201 267s149 267 303 267c78 0 153 -35 185 -90l14 78h30l-64 -359c-15 -81 -9 -135 53 -135zM497 167l39 228c-32 60 -99 99 -186 99c-134 0 -241 -95 -266 -239s40 -239 174 -239c107 0 196 82 239 151z" />
    <glyph glyph-name="ae" unicode="&#xe6;" horiz-adv-x="970" 
d="M753 522c137 0 200 -94 168 -271c0 -4 -1 -8 -2 -10h-423c-18 -139 52 -225 183 -225c64 0 119 17 181 47l-5 -32c-29 -15 -109 -43 -181 -43c-136 0 -207 80 -212 193c-67 -129 -182 -193 -277 -193c-118 0 -177 67 -160 163c18 102 120 166 242 166
c85 0 161 -24 201 -62l5 30c21 139 -53 209 -167 209c-61 0 -127 -19 -188 -51l5 30c39 24 122 49 192 49c99 0 177 -50 189 -153c50 94 139 153 249 153zM501 269h393c21 137 -24 225 -146 225c-124 0 -218 -86 -247 -225zM190 16c102 0 198 69 270 209
c-41 34 -115 64 -192 64c-113 0 -198 -53 -213 -137c-14 -80 36 -136 135 -136z" />
    <glyph glyph-name="aeacute" unicode="&#x1fd;" horiz-adv-x="970" 
d="M688 762v-3l-143 -166h-30v4l140 165h33zM753 522c137 0 200 -94 168 -271c0 -4 -1 -8 -2 -10h-423c-18 -139 52 -225 183 -225c64 0 119 17 181 47l-5 -32c-29 -15 -109 -43 -181 -43c-136 0 -207 80 -212 193c-67 -129 -182 -193 -277 -193c-118 0 -177 67 -160 163
c18 102 120 166 242 166c85 0 161 -24 201 -62l5 30c21 139 -53 209 -167 209c-61 0 -127 -19 -188 -51l5 30c39 24 122 49 192 49c99 0 177 -50 189 -153c50 94 139 153 249 153zM501 269h393c21 137 -24 225 -146 225c-124 0 -218 -86 -247 -225zM190 16
c102 0 198 69 270 209c-41 34 -115 64 -192 64c-113 0 -198 -53 -213 -137c-14 -80 36 -136 135 -136z" />
    <glyph glyph-name="b" unicode="b" horiz-adv-x="643" 
d="M389 522c141 0 228 -107 200 -267s-149 -267 -303 -267c-83 0 -154 35 -185 89l-14 -77h-30l132 750h30l-63 -358c49 75 133 130 233 130zM559 255c25 144 -52 239 -175 239c-95 0 -184 -58 -238 -161l-39 -218c33 -60 105 -99 186 -99c134 0 241 95 266 239z" />
    <glyph glyph-name="c" unicode="c" horiz-adv-x="501" 
d="M267 -12c-151 0 -241 108 -213 267s156 267 307 267c55 0 103 -14 139 -35l-5 -29h-5c-32 23 -78 36 -129 36c-137 0 -252 -96 -277 -239s57 -239 193 -239c51 0 101 13 141 36h5l-5 -29c-44 -21 -96 -35 -151 -35z" />
    <glyph glyph-name="cacute" unicode="&#x107;" horiz-adv-x="501" 
d="M355 593h-29v4l140 165h32v-3zM267 -12c-151 0 -241 108 -213 267s156 267 307 267c55 0 103 -14 139 -35l-5 -29h-5c-32 23 -78 36 -129 36c-137 0 -252 -96 -277 -239s57 -239 193 -239c51 0 101 13 141 36h5l-5 -29c-44 -21 -96 -35 -151 -35z" />
    <glyph glyph-name="ccaron" unicode="&#x10d;" horiz-adv-x="501" 
d="M356 630l145 132h33v-2l-180 -167h-9l-122 167v2h33zM54 255c28 159 156 267 307 267c55 0 103 -14 139 -35l-5 -29h-5c-32 23 -78 36 -129 36c-137 0 -252 -96 -277 -239s57 -239 193 -239c51 0 101 13 141 36h5l-5 -29c-44 -21 -96 -35 -151 -35
c-151 0 -241 108 -213 267z" />
    <glyph glyph-name="ccedilla" unicode="&#xe7;" horiz-adv-x="500" 
d="M360 522c55 0 103 -14 139 -35l-5 -29h-5c-32 23 -78 36 -129 36c-136 0 -252 -96 -277 -239s57 -239 193 -239c51 0 101 13 141 36h5l-5 -29c-43 -20 -93 -34 -146 -35l-39 -50c16 3 33 5 43 5c55 0 87 -27 80 -68c-9 -49 -63 -82 -136 -82c-22 0 -49 4 -66 10l5 25
c19 -7 46 -11 66 -11c55 0 97 22 103 56c5 28 -20 46 -61 46c-24 0 -52 -3 -71 -8l-4 9l52 69c-137 10 -217 115 -190 266c28 159 156 267 307 267z" />
    <glyph glyph-name="cdotaccent" unicode="&#x10b;" horiz-adv-x="501" 
d="M341 664c-14 0 -25 13 -21 27c2 13 16 25 30 25c13 0 24 -12 22 -25c-3 -14 -18 -27 -31 -27zM267 -12c-151 0 -241 108 -213 267s156 267 307 267c55 0 103 -14 139 -35l-5 -29h-5c-32 23 -78 36 -129 36c-137 0 -252 -96 -277 -239s57 -239 193 -239
c51 0 101 13 141 36h5l-5 -29c-44 -21 -96 -35 -151 -35z" />
    <glyph glyph-name="d" unicode="d" horiz-adv-x="644" 
d="M543 431l56 319h30l-132 -750h-30l21 120c-39 -63 -126 -132 -233 -132c-154 0 -229 107 -201 267s149 267 303 267c78 0 154 -36 186 -91zM258 16c107 0 196 82 238 151l40 227c-32 60 -99 100 -186 100c-134 0 -241 -95 -266 -239s40 -239 174 -239z" />
    <glyph glyph-name="eth" unicode="&#xf0;" horiz-adv-x="636" 
d="M546 722l-113 -45c143 -142 171 -286 148 -418c-27 -153 -166 -271 -312 -271s-243 118 -216 271c26 148 164 263 310 263c79 0 143 -34 182 -88c-20 75 -65 152 -145 229l-177 -71l-8 24l166 65c-21 19 -44 37 -70 56l21 25c31 -22 58 -45 83 -68l124 49zM551 259
c24 135 -64 235 -193 235c-130 0 -251 -100 -275 -235c-25 -139 62 -243 191 -243c130 0 252 104 277 243z" />
    <glyph glyph-name="dcaron" unicode="&#x10f;" horiz-adv-x="644" 
d="M543 431l56 319h30l-132 -750h-30l21 120c-39 -63 -126 -132 -233 -132c-154 0 -229 107 -201 267s149 267 303 267c78 0 154 -36 186 -91zM646 567l114 183h30l-1 -5l-114 -178h-29zM258 16c107 0 196 82 238 151l40 227c-32 60 -99 100 -186 100
c-134 0 -241 -95 -266 -239s40 -239 174 -239z" />
    <glyph glyph-name="dcroat" unicode="&#x111;" horiz-adv-x="644" 
d="M610 640h80l-5 -27h-80l-108 -613h-30l21 120c-39 -63 -126 -132 -233 -132c-154 0 -229 107 -201 267s149 267 303 267c78 0 154 -36 186 -91l32 182h-229l5 27h229l19 110h30zM258 16c107 0 196 82 238 151l40 227c-32 60 -99 100 -186 100c-134 0 -241 -95 -266 -239
s40 -239 174 -239z" />
    <glyph glyph-name="e" unicode="e" horiz-adv-x="553" 
d="M338 522c136 0 200 -99 176 -234c-1 -5 -2 -9 -3 -10h-422c-2 -6 -3 -12 -4 -18c-26 -147 48 -244 177 -244c54 0 125 17 184 45l-5 -30c-50 -26 -125 -43 -184 -43c-152 0 -231 108 -202 271c28 162 145 263 283 263zM333 494c-108 0 -201 -71 -237 -189h390
c14 111 -41 189 -153 189z" />
    <glyph glyph-name="eacute" unicode="&#xe9;" horiz-adv-x="553" 
d="M489 762v-3l-143 -166h-29v4l140 165h32zM338 522c136 0 200 -99 176 -234c-1 -5 -2 -9 -3 -10h-422c-2 -6 -3 -12 -4 -18c-26 -147 48 -244 177 -244c54 0 125 17 184 45l-5 -30c-50 -26 -125 -43 -184 -43c-152 0 -231 108 -202 271c28 162 145 263 283 263zM333 494
c-108 0 -201 -71 -237 -189h390c14 111 -41 189 -153 189z" />
    <glyph glyph-name="ecaron" unicode="&#x11b;" horiz-adv-x="553" 
d="M347 630l145 132h33v-2l-180 -167h-9l-122 167v2h33zM338 522c136 0 200 -99 176 -234c-1 -5 -2 -9 -3 -10h-422c-2 -6 -3 -12 -4 -18c-26 -147 48 -244 177 -244c54 0 125 17 184 45l-5 -30c-50 -26 -125 -43 -184 -43c-152 0 -231 108 -202 271c28 162 145 263 283 263
zM96 305h390c14 111 -41 189 -153 189c-108 0 -201 -71 -237 -189z" />
    <glyph glyph-name="ecircumflex" unicode="&#xea;" horiz-adv-x="553" 
d="M463 593l-99 133l-146 -133h-33v2l180 167h9l122 -167v-2h-33zM338 522c136 0 200 -99 176 -234c-1 -5 -2 -9 -3 -10h-422c-2 -6 -3 -12 -4 -18c-26 -147 48 -244 177 -244c54 0 125 17 184 45l-5 -30c-50 -26 -125 -43 -184 -43c-152 0 -231 108 -202 271
c28 162 145 263 283 263zM333 494c-108 0 -201 -71 -237 -189h390c14 111 -41 189 -153 189z" />
    <glyph glyph-name="edieresis" unicode="&#xeb;" horiz-adv-x="553" 
d="M241 664c-14 0 -24 13 -21 27c2 13 16 25 30 25s24 -12 22 -25c-3 -14 -18 -27 -31 -27zM465 664c-14 0 -25 13 -22 27c2 13 17 25 31 25c13 0 23 -12 21 -25c-3 -14 -17 -27 -30 -27zM338 522c136 0 200 -99 176 -234c-1 -5 -2 -9 -3 -10h-422c-2 -6 -3 -12 -4 -18
c-26 -147 48 -244 177 -244c54 0 125 17 184 45l-5 -30c-50 -26 -125 -43 -184 -43c-152 0 -231 108 -202 271c28 162 145 263 283 263zM333 494c-108 0 -201 -71 -237 -189h390c14 111 -41 189 -153 189z" />
    <glyph glyph-name="edotaccent" unicode="&#x117;" horiz-adv-x="553" 
d="M353 664c-14 0 -24 13 -21 27c2 13 16 25 30 25c13 0 24 -12 22 -25c-3 -14 -18 -27 -31 -27zM338 522c136 0 200 -99 176 -234c-1 -5 -2 -9 -3 -10h-422c-2 -6 -3 -12 -4 -18c-26 -147 48 -244 177 -244c54 0 125 17 184 45l-5 -30c-50 -26 -125 -43 -184 -43
c-152 0 -231 108 -202 271c28 162 145 263 283 263zM333 494c-108 0 -201 -71 -237 -189h390c14 111 -41 189 -153 189z" />
    <glyph glyph-name="egrave" unicode="&#xe8;" horiz-adv-x="553" 
d="M364 597v-4h-29l-85 166v3h32zM338 522c136 0 200 -99 176 -234c-1 -5 -2 -9 -3 -10h-422c-2 -6 -3 -12 -4 -18c-26 -147 48 -244 177 -244c54 0 125 17 184 45l-5 -30c-50 -26 -125 -43 -184 -43c-152 0 -231 108 -202 271c28 162 145 263 283 263zM333 494
c-108 0 -201 -71 -237 -189h390c14 111 -41 189 -153 189z" />
    <glyph glyph-name="emacron" unicode="&#x113;" horiz-adv-x="553" 
d="M225 695h267l-5 -27h-267zM338 522c136 0 200 -99 176 -234c-1 -5 -2 -9 -3 -10h-422c-2 -6 -3 -12 -4 -18c-26 -147 48 -244 177 -244c54 0 125 17 184 45l-5 -30c-50 -26 -125 -43 -184 -43c-152 0 -231 108 -202 271c28 162 145 263 283 263zM333 494
c-108 0 -201 -71 -237 -189h390c14 111 -41 189 -153 189z" />
    <glyph glyph-name="eogonek" unicode="&#x119;" horiz-adv-x="553" 
d="M338 522c136 0 200 -99 176 -234c-1 -5 -2 -9 -3 -10h-422c-2 -6 -3 -12 -4 -18c-26 -147 48 -244 177 -244c54 0 125 17 184 45l-5 -30c-32 -17 -74 -29 -115 -37c-46 -31 -67 -70 -72 -97c-10 -60 25 -82 83 -82c25 0 52 10 67 20l-4 -26c-15 -9 -42 -18 -68 -18
c-69 0 -115 31 -102 102c4 27 19 65 61 97c-12 -1 -23 -2 -34 -2c-152 0 -231 108 -202 271c28 162 145 263 283 263zM333 494c-108 0 -201 -71 -237 -189h390c14 111 -41 189 -153 189z" />
    <glyph glyph-name="uni1EBD" unicode="&#x1ebd;" horiz-adv-x="553" 
d="M283 690c-32 0 -51 -23 -58 -58h-29c10 52 45 87 89 87c55 0 96 -55 143 -55c30 0 51 22 57 55h30c-10 -50 -46 -84 -90 -84c-56 0 -92 55 -142 55zM338 522c136 0 200 -99 176 -234c-1 -5 -2 -9 -3 -10h-422c-2 -6 -3 -12 -4 -18c-26 -147 48 -244 177 -244
c54 0 125 17 184 45l-5 -30c-50 -26 -125 -43 -184 -43c-152 0 -231 108 -202 271c28 162 145 263 283 263zM333 494c-108 0 -201 -71 -237 -189h390c14 111 -41 189 -153 189z" />
    <glyph glyph-name="f" unicode="f" horiz-adv-x="396" 
d="M409 734c-151 0 -213 -117 -229 -207l-3 -17h255l-5 -28h-255l-85 -482h-30l93 529c25 140 120 233 257 233c43 0 88 -9 111 -23l-4 -28c-25 14 -63 23 -105 23z" />
    <glyph glyph-name="g" unicode="g" horiz-adv-x="650" 
d="M549 425l15 85h30l-83 -470c-30 -171 -171 -247 -310 -247c-57 0 -121 16 -160 39l5 28c41 -23 103 -39 159 -39c138 0 252 78 277 221l8 47c-48 -61 -143 -101 -226 -101c-154 0 -237 107 -209 267s149 267 303 267c81 0 161 -38 191 -97zM497 126l46 261
c-32 65 -114 107 -192 107c-134 0 -241 -95 -266 -239s48 -239 182 -239c79 0 175 44 230 110z" />
    <glyph glyph-name="gbreve" unicode="&#x11f;" horiz-adv-x="650" 
d="M367 597c-80 0 -137 73 -121 165h27c-13 -76 36 -137 99 -137s135 61 148 137h26c-16 -92 -99 -165 -179 -165zM549 425l15 85h30l-83 -470c-30 -171 -171 -247 -310 -247c-57 0 -121 16 -160 39l5 28c41 -23 103 -39 159 -39c138 0 252 78 277 221l8 47
c-48 -61 -143 -101 -226 -101c-154 0 -237 107 -209 267s149 267 303 267c81 0 161 -38 191 -97zM497 126l46 261c-32 65 -114 107 -192 107c-134 0 -241 -95 -266 -239s48 -239 182 -239c79 0 175 44 230 110z" />
    <glyph glyph-name="uni0123" unicode="&#x123;" horiz-adv-x="650" 
d="M499 762v-4l-140 -165h-32v3l143 166h29zM549 425l15 85h30l-83 -470c-30 -171 -171 -247 -310 -247c-57 0 -121 16 -160 39l5 28c41 -23 103 -39 159 -39c138 0 252 78 277 221l8 47c-48 -61 -143 -101 -226 -101c-154 0 -237 107 -209 267s149 267 303 267
c81 0 161 -38 191 -97zM497 126l46 261c-32 65 -114 107 -192 107c-134 0 -241 -95 -266 -239s48 -239 182 -239c79 0 175 44 230 110z" />
    <glyph glyph-name="gdotaccent" unicode="&#x121;" horiz-adv-x="650" 
d="M379 664c-14 0 -24 13 -21 27c2 13 16 25 30 25c13 0 24 -12 22 -25c-3 -14 -18 -27 -31 -27zM549 425l15 85h30l-83 -470c-30 -171 -171 -247 -310 -247c-57 0 -121 16 -160 39l5 28c41 -23 103 -39 159 -39c138 0 252 78 277 221l8 47c-48 -61 -143 -101 -226 -101
c-154 0 -237 107 -209 267s149 267 303 267c81 0 161 -38 191 -97zM497 126l46 261c-32 65 -114 107 -192 107c-134 0 -241 -95 -266 -239s48 -239 182 -239c79 0 175 44 230 110z" />
    <glyph glyph-name="h" unicode="h" horiz-adv-x="598" 
d="M368 522c95 0 175 -61 149 -206l-56 -316h-29l56 316c21 126 -47 178 -124 178c-79 0 -170 -58 -216 -148l-61 -346h-30l132 750h30l-61 -349c51 80 132 121 210 121z" />
    <glyph glyph-name="hbar" unicode="&#x127;" horiz-adv-x="598" 
d="M368 522c95 0 175 -61 149 -206l-56 -316h-29l56 316c21 126 -47 178 -124 178c-79 0 -170 -58 -216 -148l-61 -346h-30l108 613h-80l5 27h80l19 110h30l-19 -110h229l-5 -27h-229l-37 -212c51 80 132 121 210 121z" />
    <glyph glyph-name="hcircumflex" unicode="&#x125;" horiz-adv-x="598" 
d="M327 776l-99 108l-138 -108h-37l1 2l175 139h9l127 -139l-1 -2h-37zM368 522c95 0 175 -61 149 -206l-56 -316h-29l56 316c21 126 -47 178 -124 178c-79 0 -170 -58 -216 -148l-61 -346h-30l132 750h30l-61 -349c51 80 132 121 210 121z" />
    <glyph glyph-name="i" unicode="i" horiz-adv-x="233" 
d="M184 636c-14 0 -25 13 -22 27c2 14 18 27 32 27s24 -13 22 -27c-3 -14 -18 -27 -32 -27zM87 0h-30l90 510h30z" />
    <glyph glyph-name="dotlessi" unicode="&#x131;" horiz-adv-x="233" 
d="M87 0h-30l90 510h30z" />
    <glyph glyph-name="iacute" unicode="&#xed;" horiz-adv-x="233" 
d="M190 593h-29v4l140 165h32v-3zM87 0h-30l90 510h30z" />
    <glyph glyph-name="uni01D0" unicode="&#x1d0;" horiz-adv-x="233" 
d="M181 630l145 132h33v-2l-180 -167h-9l-122 167v2h33zM87 0h-30l90 510h30z" />
    <glyph glyph-name="icircumflex" unicode="&#xee;" horiz-adv-x="233" 
d="M199 762h9l122 -167v-2h-33l-99 132l-146 -132h-33v2zM87 0h-30l90 510h30z" />
    <glyph glyph-name="idieresis" unicode="&#xef;" horiz-adv-x="233" 
d="M75 664c-14 0 -24 13 -21 27c2 13 16 25 30 25s24 -12 22 -25c-3 -14 -17 -27 -31 -27zM299 664c-14 0 -25 13 -21 27c2 13 16 25 30 25c13 0 24 -12 22 -25c-3 -14 -18 -27 -31 -27zM87 0h-30l90 510h30z" />
    <glyph glyph-name="i.loclTRK" horiz-adv-x="233" 
d="M187 664c-14 0 -24 13 -21 27c2 13 16 25 30 25s24 -12 22 -25c-3 -14 -18 -27 -31 -27zM87 0h-30l90 510h30z" />
    <glyph glyph-name="igrave" unicode="&#xec;" horiz-adv-x="233" 
d="M194 593h-30l-85 166v3h33l82 -165v-4zM87 0h-30l90 510h30z" />
    <glyph glyph-name="ij" unicode="&#x133;" horiz-adv-x="533" 
d="M184 636c-14 0 -25 13 -22 27c2 14 18 27 32 27s24 -13 22 -27c-3 -14 -18 -27 -32 -27zM484 636c-14 0 -25 13 -22 27c2 14 18 27 32 27s24 -13 22 -27c-3 -14 -19 -27 -32 -27zM87 0h-30l90 510h30zM159 -207c-16 0 -29 1 -41 2l6 28c11 -1 19 -2 33 -2
c148 0 185 94 198 165l92 524h30l-94 -534c-21 -119 -95 -183 -224 -183z" />
    <glyph glyph-name="imacron" unicode="&#x12b;" horiz-adv-x="233" 
d="M321 668h-267l5 27h268zM87 0h-30l90 510h30z" />
    <glyph glyph-name="iogonek" unicode="&#x12f;" horiz-adv-x="233" 
d="M196 716c14 0 24 -12 22 -25c-3 -14 -18 -27 -31 -27c-14 0 -24 13 -21 27c2 13 16 25 30 25zM87 0h-9c-53 -32 -76 -75 -82 -103c-9 -60 26 -82 84 -82c25 0 52 10 67 20l-4 -26c-15 -9 -42 -18 -68 -18c-69 0 -115 31 -102 102c5 31 25 78 85 112l89 505h30z" />
    <glyph glyph-name="itilde" unicode="&#x129;" horiz-adv-x="233" 
d="M59 632h-29c10 52 45 87 89 87c55 0 96 -55 143 -55c30 0 51 22 57 55h30c-9 -50 -46 -84 -90 -84c-56 0 -92 55 -142 55c-32 0 -51 -23 -58 -58zM87 0h-30l90 510h30z" />
    <glyph glyph-name="j" unicode="j" horiz-adv-x="240" 
d="M191 636c-14 0 -25 13 -22 27c2 14 18 27 32 27s24 -13 22 -27c-3 -14 -19 -27 -32 -27zM-134 -207c-16 0 -28 1 -41 2l6 28c11 -1 19 -2 33 -2c148 0 185 94 198 165l92 524h30l-94 -534c-21 -119 -95 -183 -224 -183z" />
    <glyph glyph-name="k" unicode="k" horiz-adv-x="495" 
d="M458 510h30c-25 -138 -160 -218 -301 -237l250 -264l-2 -9h-32l-267 279l-49 -279h-30l132 750h30l-80 -454c141 3 295 77 319 214z" />
    <glyph glyph-name="uni0137" unicode="&#x137;" horiz-adv-x="495" 
d="M458 510h30c-25 -138 -160 -218 -301 -237l250 -264l-2 -9h-32l-267 279l-49 -279h-30l132 750h30l-80 -454c141 3 295 77 319 214zM128 -213l1 5l80 152h28l-1 -5l-81 -152h-27z" />
    <glyph glyph-name="kgreenlandic" unicode="&#x138;" horiz-adv-x="484" 
d="M447 510h29c-21 -117 -154 -245 -295 -265l242 -236l-2 -9h-34l-256 248l-44 -248h-30l90 510h30l-43 -246c142 6 292 130 313 246z" />
    <glyph glyph-name="l" unicode="l" horiz-adv-x="262" 
d="M174 -12c-76 0 -116 61 -100 153l107 609h30l-105 -599c-15 -81 18 -135 80 -135c14 0 22 1 34 2l-5 -28c-13 -1 -25 -2 -41 -2z" />
    <glyph glyph-name="lacute" unicode="&#x13a;" horiz-adv-x="262" 
d="M229 800h-30l1 4l111 137h32v-3zM174 -12c-76 0 -116 61 -100 153l107 609h30l-105 -599c-15 -81 18 -135 80 -135c14 0 22 1 34 2l-5 -28c-13 -1 -25 -2 -41 -2z" />
    <glyph glyph-name="lcaron" unicode="&#x13e;" horiz-adv-x="262" 
d="M174 -12c-76 0 -116 61 -100 153l107 609h30l-105 -599c-15 -81 18 -135 80 -135c14 0 22 1 34 2l-5 -28c-13 -1 -25 -2 -41 -2zM267 567h-28l113 183h30l-1 -5z" />
    <glyph glyph-name="uni013C" unicode="&#x13c;" horiz-adv-x="262" 
d="M174 -12c-76 0 -116 61 -100 153l107 609h30l-105 -599c-15 -81 18 -135 80 -135c14 0 22 1 34 2l-5 -28c-13 -1 -25 -2 -41 -2zM43 -213h-27l1 5l80 152h28l-1 -5z" />
    <glyph glyph-name="ldot" unicode="&#x140;" horiz-adv-x="278" 
d="M174 -12c-76 0 -116 61 -100 153l107 609h30l-105 -599c-15 -81 18 -135 80 -135c14 0 22 1 34 2l-5 -28c-13 -1 -25 -2 -41 -2zM246 241c-15 0 -26 13 -23 28c2 14 17 28 33 28c14 0 25 -14 23 -28c-3 -15 -18 -28 -33 -28z" />
    <glyph glyph-name="lslash" unicode="&#x142;" horiz-adv-x="324" 
d="M301 398l-142 -74l-30 -173c-15 -81 18 -135 80 -135c14 0 22 1 34 2l-5 -28c-12 -1 -24 -2 -40 -2c-77 0 -117 61 -101 153l29 166l-84 -44l5 30l84 43l73 414h30l-69 -396l142 73z" />
    <glyph glyph-name="m" unicode="m" horiz-adv-x="915" 
d="M699 522c92 0 159 -73 135 -206l-56 -316h-30l56 316c22 121 -39 178 -113 178c-85 0 -162 -72 -199 -143c0 -11 -2 -23 -4 -35l-56 -316h-30l56 316c22 121 -38 178 -114 178c-84 0 -156 -71 -195 -144l-62 -350h-30l90 510h30l-18 -104c37 58 110 116 193 116
c75 0 132 -46 140 -132c32 63 119 132 207 132z" />
    <glyph glyph-name="n" unicode="n" horiz-adv-x="598" 
d="M368 522c95 0 175 -61 149 -206l-56 -316h-29l56 316c21 126 -47 178 -124 178c-79 0 -169 -58 -216 -146l-61 -348h-30l90 510h30l-19 -108c51 79 132 120 210 120z" />
    <glyph glyph-name="nacute" unicode="&#x144;" horiz-adv-x="598" 
d="M512 762v-3l-143 -166h-30v4l140 165h33zM368 522c95 0 175 -61 149 -206l-56 -316h-29l56 316c21 126 -47 178 -124 178c-79 0 -169 -58 -216 -146l-61 -348h-30l90 510h30l-19 -108c51 79 132 120 210 120z" />
    <glyph glyph-name="ncaron" unicode="&#x148;" horiz-adv-x="598" 
d="M369 629l146 133h33v-2l-180 -167h-9l-122 167v2h33zM368 522c95 0 175 -61 149 -206l-56 -316h-29l56 316c21 126 -47 178 -124 178c-79 0 -169 -58 -216 -146l-61 -348h-30l90 510h30l-19 -108c51 79 132 120 210 120z" />
    <glyph glyph-name="uni0146" unicode="&#x146;" horiz-adv-x="598" 
d="M368 522c95 0 175 -61 149 -206l-56 -316h-29l56 316c21 126 -47 178 -124 178c-79 0 -169 -58 -216 -146l-61 -348h-30l90 510h30l-19 -108c51 79 132 120 210 120zM152 -213l1 5l80 152h28l-1 -5l-82 -152h-26z" />
    <glyph glyph-name="eng" unicode="&#x14b;" horiz-adv-x="598" 
d="M368 522c95 0 175 -61 149 -206l-60 -340c-21 -119 -95 -183 -224 -183c-16 0 -28 1 -40 2l5 28c11 -1 19 -2 33 -2c148 0 185 94 198 165l59 330c22 126 -47 178 -124 178c-79 0 -169 -58 -216 -146l-61 -348h-30l90 510h30l-19 -108c51 79 132 120 210 120z" />
    <glyph glyph-name="ntilde" unicode="&#xf1;" horiz-adv-x="598" 
d="M306 690c-32 0 -51 -23 -58 -58h-29c10 52 45 87 89 87c55 0 96 -55 143 -55c30 0 51 22 57 55h29c-9 -50 -45 -84 -89 -84c-56 0 -92 55 -142 55zM368 522c95 0 175 -61 149 -206l-56 -316h-29l56 316c21 126 -47 178 -124 178c-79 0 -169 -58 -216 -146l-61 -348h-30
l90 510h30l-19 -108c51 79 132 120 210 120z" />
    <glyph glyph-name="o" unicode="o" horiz-adv-x="633" 
d="M269 -12c-146 0 -243 118 -216 271c26 148 164 263 310 263s244 -115 218 -263c-27 -153 -166 -271 -312 -271zM274 16c130 0 252 104 277 243c24 135 -64 235 -193 235c-130 0 -251 -100 -275 -235c-25 -139 62 -243 191 -243z" />
    <glyph glyph-name="oacute" unicode="&#xf3;" horiz-adv-x="633" 
d="M381 593h-30v4l140 165h33v-3zM269 -12c-146 0 -243 118 -216 271c26 148 164 263 310 263s244 -115 218 -263c-27 -153 -166 -271 -312 -271zM274 16c130 0 252 104 277 243c24 135 -64 235 -193 235c-130 0 -251 -100 -275 -235c-25 -139 62 -243 191 -243z" />
    <glyph glyph-name="uni01D2" unicode="&#x1d2;" horiz-adv-x="633" 
d="M560 760l-180 -167h-9l-122 167v2h33l99 -133l146 133h33v-2zM363 522c146 0 244 -115 218 -263c-27 -153 -166 -271 -312 -271s-243 118 -216 271c26 148 164 263 310 263zM551 259c24 135 -64 235 -193 235c-130 0 -251 -100 -275 -235c-25 -139 62 -243 191 -243
c130 0 252 104 277 243z" />
    <glyph glyph-name="ocircumflex" unicode="&#xf4;" horiz-adv-x="633" 
d="M498 593l-100 132l-145 -132h-33v2l180 167h9l122 -167v-2h-33zM363 522c146 0 244 -115 218 -263c-27 -153 -166 -271 -312 -271s-243 118 -216 271c26 148 164 263 310 263zM551 259c24 135 -64 235 -193 235c-130 0 -251 -100 -275 -235c-25 -139 62 -243 191 -243
c130 0 252 104 277 243z" />
    <glyph glyph-name="odieresis" unicode="&#xf6;" horiz-adv-x="633" 
d="M276 664c-14 0 -24 13 -21 27c2 13 16 25 30 25s24 -12 22 -25c-3 -14 -18 -27 -31 -27zM500 664c-15 0 -25 13 -22 27c2 13 17 25 31 25c13 0 23 -12 21 -25c-3 -14 -17 -27 -30 -27zM269 -12c-146 0 -243 118 -216 271c26 148 164 263 310 263s244 -115 218 -263
c-27 -153 -166 -271 -312 -271zM274 16c130 0 252 104 277 243c24 135 -64 235 -193 235c-130 0 -251 -100 -275 -235c-25 -139 62 -243 191 -243z" />
    <glyph glyph-name="ograve" unicode="&#xf2;" horiz-adv-x="633" 
d="M400 593h-30l-85 166v3h33l82 -165v-4zM269 -12c-146 0 -243 118 -216 271c26 148 164 263 310 263s244 -115 218 -263c-27 -153 -166 -271 -312 -271zM274 16c130 0 252 104 277 243c24 135 -64 235 -193 235c-130 0 -251 -100 -275 -235c-25 -139 62 -243 191 -243z
" />
    <glyph glyph-name="ohungarumlaut" unicode="&#x151;" horiz-adv-x="633" 
d="M321 593h-29v4l109 165h32v-3zM434 593h-30v4l109 165h32v-3zM269 -12c-146 0 -243 118 -216 271c26 148 164 263 310 263s244 -115 218 -263c-27 -153 -166 -271 -312 -271zM274 16c130 0 252 104 277 243c24 135 -64 235 -193 235c-130 0 -251 -100 -275 -235
c-25 -139 62 -243 191 -243z" />
    <glyph glyph-name="omacron" unicode="&#x14d;" horiz-adv-x="633" 
d="M522 668h-267l5 27h267zM269 -12c-146 0 -243 118 -216 271c26 148 164 263 310 263s244 -115 218 -263c-27 -153 -166 -271 -312 -271zM274 16c130 0 252 104 277 243c24 135 -64 235 -193 235c-130 0 -251 -100 -275 -235c-25 -139 62 -243 191 -243z" />
    <glyph glyph-name="oslash" unicode="&#xf8;" horiz-adv-x="647" 
d="M612 524l19 -20l-79 -71c33 -46 47 -106 35 -174c-27 -153 -166 -271 -312 -271c-62 0 -116 22 -154 58l-73 -65l-17 20l72 64c-40 49 -58 117 -44 194c26 148 164 263 310 263c68 0 126 -25 166 -67zM89 259c-12 -69 3 -129 37 -173l386 348c-35 38 -87 60 -148 60
c-130 0 -251 -100 -275 -235zM557 259c11 60 -1 113 -28 153l-385 -345c34 -32 81 -51 136 -51c130 0 252 104 277 243z" />
    <glyph glyph-name="oslashacute" unicode="&#x1ff;" horiz-adv-x="647" 
d="M530 762v-3l-143 -166h-30v4l140 165h33zM612 524l19 -20l-79 -71c33 -46 47 -106 35 -174c-27 -153 -166 -271 -312 -271c-62 0 -116 22 -154 58l-73 -65l-17 20l72 64c-40 49 -58 117 -44 194c26 148 164 263 310 263c68 0 126 -25 166 -67zM89 259
c-12 -69 3 -129 37 -173l386 348c-35 38 -87 60 -148 60c-130 0 -251 -100 -275 -235zM557 259c11 60 -1 113 -28 153l-385 -345c34 -32 81 -51 136 -51c130 0 252 104 277 243z" />
    <glyph glyph-name="otilde" unicode="&#xf5;" horiz-adv-x="633" 
d="M260 632h-29c10 52 45 87 89 87c55 0 96 -55 143 -55c30 0 51 22 57 55h29c-9 -50 -45 -84 -89 -84c-56 0 -92 55 -142 55c-32 0 -51 -23 -58 -58zM269 -12c-146 0 -243 118 -216 271c26 148 164 263 310 263s244 -115 218 -263c-27 -153 -166 -271 -312 -271zM274 16
c130 0 252 104 277 243c24 135 -64 235 -193 235c-130 0 -251 -100 -275 -235c-25 -139 62 -243 191 -243z" />
    <glyph glyph-name="oe" unicode="&#x153;" horiz-adv-x="1050" 
d="M834 522c137 0 201 -99 177 -234c-1 -5 -2 -9 -3 -10h-423l-3 -11c0 -3 -1 -5 -1 -8l-1 -7c-22 -143 51 -236 179 -236c54 0 125 17 184 45l-5 -30c-50 -26 -126 -43 -185 -43c-119 0 -194 67 -206 174c-56 -103 -165 -174 -278 -174c-146 0 -243 118 -216 271
c26 148 164 263 310 263c113 0 197 -69 217 -168c50 105 145 168 254 168zM274 16c130 0 252 104 277 243v1c23 135 -64 234 -193 234c-130 0 -251 -100 -275 -235c-25 -139 62 -243 191 -243zM829 494c-107 0 -200 -71 -237 -189h391c14 111 -42 189 -154 189z" />
    <glyph glyph-name="p" unicode="p" horiz-adv-x="643" 
d="M389 522c141 0 228 -107 200 -267s-149 -267 -303 -267c-83 0 -154 35 -185 89l-48 -272h-30l124 705h30l-21 -118c49 75 133 130 233 130zM559 255c25 144 -52 239 -175 239c-95 0 -183 -57 -238 -161l-38 -217c32 -60 104 -100 185 -100c135 0 241 95 266 239z" />
    <glyph glyph-name="thorn" unicode="&#xfe;" horiz-adv-x="643" 
d="M389 522c141 0 228 -107 200 -267s-149 -267 -303 -267c-83 0 -154 35 -185 89l-48 -272h-30l166 945h30l-63 -358c49 75 133 130 233 130zM559 255c25 144 -52 239 -175 239c-95 0 -184 -57 -238 -161l-39 -218c33 -60 105 -99 186 -99c134 0 241 95 266 239z" />
    <glyph glyph-name="q" unicode="q" horiz-adv-x="650" 
d="M556 472l32 38h5l-124 -705h-30l50 283c-49 -60 -143 -100 -226 -100c-154 0 -237 107 -209 267s149 267 303 267c82 0 162 -39 190 -99zM266 16c79 0 174 44 229 109l46 260c-31 65 -112 109 -191 109c-134 0 -241 -95 -266 -239s48 -239 182 -239z" />
    <glyph glyph-name="r" unicode="r" horiz-adv-x="339" 
d="M354 522c4 0 9 0 11 -1l-5 -27h-12c-58 0 -147 -59 -197 -132l-64 -362h-30l90 510h30l-19 -110c50 75 139 122 196 122z" />
    <glyph glyph-name="racute" unicode="&#x155;" horiz-adv-x="339" 
d="M235 597l140 165h32v-3l-143 -166h-29v4zM177 510l-19 -110c50 75 139 122 196 122c4 0 9 0 11 -1l-5 -27h-12c-58 0 -147 -59 -197 -132l-64 -362h-30l90 510h30z" />
    <glyph glyph-name="rcaron" unicode="&#x159;" horiz-adv-x="339" 
d="M265 630l145 132h33v-2l-180 -167h-9l-122 167v2h33zM177 510l-19 -110c50 75 139 122 196 122c4 0 9 0 11 -1l-5 -27h-12c-58 0 -147 -59 -197 -132l-64 -362h-30l90 510h30z" />
    <glyph glyph-name="uni0157" unicode="&#x157;" horiz-adv-x="339" 
d="M354 522c4 0 9 0 11 -1l-5 -27h-12c-58 0 -147 -59 -197 -132l-64 -362h-30l90 510h30l-19 -110c50 75 139 122 196 122zM-32 -213l1 5l80 152h28l-1 -5l-82 -152h-26z" />
    <glyph glyph-name="s" unicode="s" horiz-adv-x="461" 
d="M182 -12c-61 0 -128 24 -166 55l6 34c37 -33 100 -61 165 -61c130 0 165 58 173 105c12 68 -36 89 -89 110l-97 36c-93 33 -100 77 -93 120c18 102 117 135 203 135c52 0 110 -16 146 -41l-5 -31c-35 26 -92 44 -146 44c-73 0 -153 -27 -168 -107c-6 -33 -2 -65 76 -93
l96 -36c63 -25 123 -50 107 -137c-10 -56 -51 -133 -208 -133z" />
    <glyph glyph-name="sacute" unicode="&#x15b;" horiz-adv-x="461" 
d="M300 593h-30v4l140 165h33v-3zM182 -12c-61 0 -128 24 -166 55l6 34c37 -33 100 -61 165 -61c130 0 165 58 173 105c12 68 -36 89 -89 110l-97 36c-93 33 -100 77 -93 120c18 102 117 135 203 135c52 0 110 -16 146 -41l-5 -31c-35 26 -92 44 -146 44
c-73 0 -153 -27 -168 -107c-6 -33 -2 -65 76 -93l96 -36c63 -25 123 -50 107 -137c-10 -56 -51 -133 -208 -133z" />
    <glyph glyph-name="scaron" unicode="&#x161;" horiz-adv-x="461" 
d="M301 630l146 132h32v-2l-180 -167h-9l-122 167v2h33zM81 387c18 102 117 135 203 135c52 0 110 -16 146 -41l-5 -31c-35 26 -92 44 -146 44c-73 0 -153 -27 -168 -107c-6 -33 -2 -65 76 -93l96 -36c63 -25 123 -50 107 -137c-10 -56 -51 -133 -208 -133
c-61 0 -128 24 -166 55l6 34c37 -33 100 -61 165 -61c130 0 165 58 173 105c12 68 -36 89 -89 110l-97 36c-93 33 -100 77 -93 120z" />
    <glyph glyph-name="scedilla" unicode="&#x15f;" horiz-adv-x="461" 
d="M279 494c-73 0 -153 -27 -168 -107c-6 -33 -2 -65 76 -93l96 -36c63 -25 123 -50 107 -137c-10 -55 -49 -129 -196 -133l-39 -50c16 3 33 5 43 5c55 0 87 -27 80 -68c-9 -49 -63 -82 -136 -82c-22 0 -49 4 -66 10l5 25c19 -7 45 -11 65 -11c56 0 98 22 104 56
c5 28 -20 46 -62 46c-24 0 -51 -3 -70 -8l-4 9l52 69c-56 3 -115 26 -150 54l6 34c37 -33 100 -61 165 -61c130 0 165 58 173 105c12 68 -36 89 -89 110l-97 36c-93 33 -100 77 -93 120c18 102 117 135 203 135c52 0 110 -16 146 -41l-5 -31c-35 26 -92 44 -146 44z" />
    <glyph glyph-name="uni0219" unicode="&#x219;" horiz-adv-x="461" 
d="M182 -12c-61 0 -128 24 -166 55l6 34c37 -33 100 -61 165 -61c130 0 165 58 173 105c12 68 -36 89 -89 110l-97 36c-93 33 -100 77 -93 120c18 102 117 135 203 135c52 0 110 -16 146 -41l-5 -31c-35 26 -92 44 -146 44c-73 0 -153 -27 -168 -107c-6 -33 -2 -65 76 -93
l96 -36c63 -25 123 -50 107 -137c-10 -56 -51 -133 -208 -133zM109 -213h-26l1 5l80 152h28l-1 -5z" />
    <glyph glyph-name="germandbls" unicode="&#xdf;" horiz-adv-x="619" 
d="M370 400c132 -11 208 -96 187 -213c-21 -119 -127 -199 -264 -199c-52 0 -108 10 -140 25l5 30c31 -16 86 -27 137 -27c122 0 215 69 232 171c20 107 -59 186 -198 196l4 21c80 56 176 116 189 191c15 83 -39 139 -135 139c-103 0 -184 -79 -206 -199l-94 -535h-30
l94 535c24 136 120 227 240 227c114 0 179 -66 161 -166c-13 -76 -96 -135 -182 -196z" />
    <glyph glyph-name="t" unicode="t" horiz-adv-x="363" 
d="M391 482h-229l-49 -276c-13 -73 -13 -190 138 -190c23 0 45 3 66 7l-5 -27c-23 -5 -48 -8 -72 -8c-137 0 -179 93 -157 216l78 443l28 23h6l-28 -160h229z" />
    <glyph glyph-name="tbar" unicode="&#x167;" horiz-adv-x="358" 
d="M396 510l-5 -28h-229l-36 -204h182l-5 -27h-182l-8 -45c-13 -73 -13 -190 138 -190c23 0 45 3 66 7l-5 -27c-23 -5 -48 -8 -72 -8c-137 0 -179 93 -157 216l78 443l28 23h6l-28 -160h229z" />
    <glyph glyph-name="tcaron" unicode="&#x165;" horiz-adv-x="363" 
d="M254 567l113 183h30l-1 -5l-114 -178h-28zM189 670h6l-28 -160h229l-5 -28h-229l-49 -276c-13 -73 -13 -190 138 -190c23 0 45 3 66 7l-5 -27c-23 -5 -48 -8 -72 -8c-137 0 -179 93 -157 216l78 443z" />
    <glyph glyph-name="uni0163" unicode="&#x163;" horiz-adv-x="363" 
d="M391 482h-229l-49 -276c-13 -73 -13 -190 138 -190c23 0 45 3 66 7l-5 -27c-23 -5 -48 -8 -72 -8c-18 0 -34 2 -49 5l-42 -55c16 3 33 5 43 5c55 0 87 -27 80 -68c-9 -49 -63 -82 -136 -82c-22 0 -49 4 -66 10l5 25c19 -7 45 -11 65 -11c56 0 98 22 104 56
c5 28 -20 46 -62 46c-24 0 -51 -3 -70 -8l-4 9l60 79c-79 28 -103 107 -85 205l78 443l28 23h6l-28 -160h229z" />
    <glyph glyph-name="uni021B" unicode="&#x21b;" horiz-adv-x="363" 
d="M391 482h-229l-49 -276c-13 -73 -13 -190 138 -190c23 0 45 3 66 7l-5 -27c-23 -5 -48 -8 -72 -8c-137 0 -179 93 -157 216l78 443l28 23h6l-28 -160h229zM90 -213l1 5l80 152h28l-1 -5l-81 -152h-27z" />
    <glyph glyph-name="u" unicode="u" horiz-adv-x="598" 
d="M451 164l61 346h29l-90 -510h-29l20 111c-51 -81 -133 -123 -212 -123c-94 0 -175 61 -149 206l56 316h30l-56 -316c-22 -126 46 -178 123 -178c79 0 170 58 217 148z" />
    <glyph glyph-name="uacute" unicode="&#xfa;" horiz-adv-x="598" 
d="M502 762v-3l-143 -166h-29v4l140 165h32zM451 164l61 346h29l-90 -510h-29l20 111c-51 -81 -133 -123 -212 -123c-94 0 -175 61 -149 206l56 316h30l-56 -316c-22 -126 46 -178 123 -178c79 0 170 58 217 148z" />
    <glyph glyph-name="ubreve" unicode="&#x16d;" horiz-adv-x="598" 
d="M354 597c-80 0 -137 73 -121 165h27c-13 -76 36 -137 99 -137s135 61 148 137h26c-16 -92 -99 -165 -179 -165zM451 164l61 346h29l-90 -510h-29l20 111c-51 -81 -133 -123 -212 -123c-94 0 -175 61 -149 206l56 316h30l-56 -316c-22 -126 46 -178 123 -178
c79 0 170 58 217 148z" />
    <glyph glyph-name="uni01D4" unicode="&#x1d4;" horiz-adv-x="598" 
d="M538 760l-180 -167h-9l-122 167v2h33l100 -132l145 132h33v-2zM451 164l61 346h29l-90 -510h-29l20 111c-51 -81 -133 -123 -212 -123c-94 0 -175 61 -149 206l56 316h30l-56 -316c-22 -126 46 -178 123 -178c79 0 170 58 217 148z" />
    <glyph glyph-name="ucircumflex" unicode="&#xfb;" horiz-adv-x="598" 
d="M476 593l-99 132l-146 -132h-33v2l180 167h9l122 -167v-2h-33zM451 164l61 346h29l-90 -510h-29l20 111c-51 -81 -133 -123 -212 -123c-94 0 -175 61 -149 206l56 316h30l-56 -316c-22 -126 46 -178 123 -178c79 0 170 58 217 148z" />
    <glyph glyph-name="udieresis" unicode="&#xfc;" horiz-adv-x="598" 
d="M254 664c-14 0 -24 13 -21 27c2 13 16 25 30 25s24 -12 22 -25c-3 -14 -17 -27 -31 -27zM478 664c-14 0 -25 13 -22 27c3 13 17 25 31 25c13 0 24 -12 22 -25c-4 -14 -18 -27 -31 -27zM451 164l61 346h29l-90 -510h-29l20 111c-51 -81 -133 -123 -212 -123
c-94 0 -175 61 -149 206l56 316h30l-56 -316c-22 -126 46 -178 123 -178c79 0 170 58 217 148z" />
    <glyph glyph-name="uni01D8" unicode="&#x1d8;" horiz-adv-x="598" 
d="M536 953v-3l-142 -166h-30v4l140 165h32zM254 664c-14 0 -24 13 -21 27c2 13 16 25 30 25s24 -12 22 -25c-3 -14 -17 -27 -31 -27zM456 691c3 13 17 25 31 25c13 0 24 -12 22 -25c-4 -14 -18 -27 -31 -27c-14 0 -25 13 -22 27zM451 164l61 346h29l-90 -510h-29l20 111
c-51 -81 -133 -123 -212 -123c-94 0 -175 61 -149 206l56 316h30l-56 -316c-22 -126 46 -178 123 -178c79 0 170 58 217 148z" />
    <glyph glyph-name="uni01DA" unicode="&#x1da;" horiz-adv-x="598" 
d="M394 820l145 133h33v-2l-180 -167h-9l-122 167v2h33zM254 664c-14 0 -24 13 -21 27c2 13 16 25 30 25s24 -12 22 -25c-3 -14 -17 -27 -31 -27zM509 691c-4 -14 -18 -27 -31 -27c-14 0 -25 13 -22 27c3 13 17 25 31 25c13 0 24 -12 22 -25zM451 164l61 346h29l-90 -510
h-29l20 111c-51 -81 -133 -123 -212 -123c-94 0 -175 61 -149 206l56 316h30l-56 -316c-22 -126 46 -178 123 -178c79 0 170 58 217 148z" />
    <glyph glyph-name="uni01DC" unicode="&#x1dc;" horiz-adv-x="598" 
d="M411 788v-4h-29l-85 166v3h32zM254 664c-14 0 -24 13 -21 27c2 13 16 25 30 25s24 -12 22 -25c-3 -14 -17 -27 -31 -27zM478 664c-14 0 -25 13 -22 27c3 13 17 25 31 25c13 0 24 -12 22 -25c-4 -14 -18 -27 -31 -27zM451 164l61 346h29l-90 -510h-29l20 111
c-51 -81 -133 -123 -212 -123c-94 0 -175 61 -149 206l56 316h30l-56 -316c-22 -126 46 -178 123 -178c79 0 170 58 217 148z" />
    <glyph glyph-name="uni01D6" unicode="&#x1d6;" horiz-adv-x="598" 
d="M270 874h267l-5 -27h-267zM254 664c-14 0 -24 13 -21 27c2 13 16 25 30 25s24 -12 22 -25c-3 -14 -17 -27 -31 -27zM456 691c3 13 17 25 31 25c13 0 24 -12 22 -25c-4 -14 -18 -27 -31 -27c-14 0 -25 13 -22 27zM451 164l61 346h29l-90 -510h-29l20 111
c-51 -81 -133 -123 -212 -123c-94 0 -175 61 -149 206l56 316h30l-56 -316c-22 -126 46 -178 123 -178c79 0 170 58 217 148z" />
    <glyph glyph-name="ugrave" unicode="&#xf9;" horiz-adv-x="598" 
d="M378 597v-4h-30l-84 166v3h32zM451 164l61 346h29l-90 -510h-29l20 111c-51 -81 -133 -123 -212 -123c-94 0 -175 61 -149 206l56 316h30l-56 -316c-22 -126 46 -178 123 -178c79 0 170 58 217 148z" />
    <glyph glyph-name="uhungarumlaut" unicode="&#x171;" horiz-adv-x="598" 
d="M411 762v-3l-112 -166h-29v4l109 165h32zM412 593h-30v4l109 165h32v-3zM451 164l61 346h29l-90 -510h-29l20 111c-51 -81 -133 -123 -212 -123c-94 0 -175 61 -149 206l56 316h30l-56 -316c-22 -126 46 -178 123 -178c79 0 170 58 217 148z" />
    <glyph glyph-name="umacron" unicode="&#x16b;" horiz-adv-x="598" 
d="M238 695h267l-5 -27h-267zM451 164l61 346h29l-90 -510h-29l20 111c-51 -81 -133 -123 -212 -123c-94 0 -175 61 -149 206l56 316h30l-56 -316c-22 -126 46 -178 123 -178c79 0 170 58 217 148z" />
    <glyph glyph-name="uogonek" unicode="&#x173;" horiz-adv-x="598" 
d="M365 -103c-10 -60 26 -82 84 -82c25 0 52 10 67 20l-4 -26c-15 -9 -42 -18 -68 -18c-69 0 -115 31 -102 102c5 31 24 76 80 110l20 108c-51 -81 -133 -123 -212 -123c-94 0 -175 61 -149 206l56 316h30l-56 -316c-22 -126 46 -178 123 -178c79 0 170 58 217 148l61 346
h29l-88 -500h4v-4c-2 -1 -4 -2 -5 -3l-1 -3h-4c-53 -32 -76 -75 -82 -103z" />
    <glyph glyph-name="uring" unicode="&#x16f;" horiz-adv-x="598" 
d="M352 584c-62 1 -103 48 -92 106c10 57 67 104 129 104c61 0 102 -47 92 -104c-11 -58 -68 -107 -129 -106zM288 690c-8 -44 22 -79 69 -79c46 0 89 35 97 79c7 43 -24 78 -70 78c-47 0 -90 -35 -96 -78zM451 164l61 346h29l-90 -510h-29l20 111
c-51 -81 -133 -123 -212 -123c-94 0 -175 61 -149 206l56 316h30l-56 -316c-22 -126 46 -178 123 -178c79 0 170 58 217 148z" />
    <glyph glyph-name="utilde" unicode="&#x169;" horiz-adv-x="598" 
d="M296 690c-32 0 -51 -23 -58 -58h-29c10 52 45 87 89 87c55 0 96 -55 143 -55c30 0 51 22 57 55h30c-9 -50 -46 -84 -90 -84c-56 0 -92 55 -142 55zM451 164l61 346h29l-90 -510h-29l20 111c-51 -81 -133 -123 -212 -123c-94 0 -175 61 -149 206l56 316h30l-56 -316
c-22 -126 46 -178 123 -178c79 0 170 58 217 148z" />
    <glyph glyph-name="v" unicode="v" horiz-adv-x="519" 
d="M224 53l288 457h30l-1 -4l-320 -506h-13l-142 506l1 4h30z" />
    <glyph glyph-name="w" unicode="w" horiz-adv-x="815" 
d="M554 60l250 450h30l-1 -4l-281 -506h-13l-100 429l-252 -429h-13l-103 506l1 4h30l91 -450l245 420h19z" />
    <glyph glyph-name="wacute" unicode="&#x1e83;" horiz-adv-x="815" 
d="M615 762v-3l-143 -166h-29v4l140 165h32zM554 60l250 450h30l-1 -4l-281 -506h-13l-100 429l-252 -429h-13l-103 506l1 4h30l91 -450l245 420h19z" />
    <glyph glyph-name="wcircumflex" unicode="&#x175;" horiz-adv-x="815" 
d="M589 593l-99 132l-146 -132h-33v2l180 167h9l122 -167v-2h-33zM554 60l250 450h30l-1 -4l-281 -506h-13l-100 429l-252 -429h-13l-103 506l1 4h30l91 -450l245 420h19z" />
    <glyph glyph-name="wdieresis" unicode="&#x1e85;" horiz-adv-x="815" 
d="M367 664c-14 0 -24 13 -21 27c2 13 16 25 31 25c13 0 23 -12 21 -25c-3 -14 -17 -27 -31 -27zM591 664c-14 0 -24 13 -21 27c2 13 16 25 30 25s24 -12 22 -25c-3 -14 -18 -27 -31 -27zM554 60l250 450h30l-1 -4l-281 -506h-13l-100 429l-252 -429h-13l-103 506l1 4h30
l91 -450l245 420h19z" />
    <glyph glyph-name="wgrave" unicode="&#x1e81;" horiz-adv-x="815" 
d="M491 597v-4h-30l-84 166v3h32zM554 60l250 450h30l-1 -4l-281 -506h-13l-100 429l-252 -429h-13l-103 506l1 4h30l91 -450l245 420h19z" />
    <glyph glyph-name="x" unicode="x" horiz-adv-x="511" 
d="M470 510h32l-1 -4l-222 -223l181 -279l-1 -4h-32l-170 260l-262 -260h-32l1 4l280 279l-145 223l1 4h32l133 -205z" />
    <glyph glyph-name="y" unicode="y" horiz-adv-x="545" 
d="M229 -10l308 520h29l-1 -4l-296 -498c-46 -75 -125 -215 -277 -215c-19 0 -39 3 -56 6l5 29c18 -4 37 -7 55 -7c96 0 163 69 206 129l6 8l-142 548l1 4h29z" />
    <glyph glyph-name="yacute" unicode="&#xfd;" horiz-adv-x="545" 
d="M528 762v-3l-142 -166h-30v4l140 165h32zM229 -10l308 520h29l-1 -4l-296 -498c-46 -75 -125 -215 -277 -215c-19 0 -39 3 -56 6l5 29c18 -4 37 -7 55 -7c96 0 163 69 206 129l6 8l-142 548l1 4h29z" />
    <glyph glyph-name="ycircumflex" unicode="&#x177;" horiz-adv-x="545" 
d="M503 593l-100 132l-146 -132h-32v2l180 167h9l122 -167v-2h-33zM229 -10l308 520h29l-1 -4l-296 -498c-46 -75 -125 -215 -277 -215c-19 0 -39 3 -56 6l5 29c18 -4 37 -7 55 -7c96 0 163 69 206 129l6 8l-142 548l1 4h29z" />
    <glyph glyph-name="ydieresis" unicode="&#xff;" horiz-adv-x="545" 
d="M281 664c-15 0 -25 13 -22 27c2 13 17 25 31 25c13 0 23 -12 21 -25c-3 -14 -17 -27 -30 -27zM504 664c-14 0 -24 13 -21 27c2 13 16 25 31 25c13 0 23 -12 21 -25c-3 -14 -17 -27 -31 -27zM229 -10l308 520h29l-1 -4l-296 -498c-46 -75 -125 -215 -277 -215
c-19 0 -39 3 -56 6l5 29c18 -4 37 -7 55 -7c96 0 163 69 206 129l6 8l-142 548l1 4h29z" />
    <glyph glyph-name="ygrave" unicode="&#x1ef3;" horiz-adv-x="545" 
d="M404 597v-4h-29l-85 166v3h32zM229 -10l308 520h29l-1 -4l-296 -498c-46 -75 -125 -215 -277 -215c-19 0 -39 3 -56 6l5 29c18 -4 37 -7 55 -7c96 0 163 69 206 129l6 8l-142 548l1 4h29z" />
    <glyph glyph-name="uni1EF9" unicode="&#x1ef9;" horiz-adv-x="545" 
d="M323 690c-32 0 -51 -23 -58 -58h-30c10 52 46 87 90 87c55 0 96 -55 143 -55c30 0 51 22 57 55h29c-9 -50 -45 -84 -89 -84c-56 0 -92 55 -142 55zM229 -10l308 520h29l-1 -4l-296 -498c-46 -75 -125 -215 -277 -215c-19 0 -39 3 -56 6l5 29c18 -4 37 -7 55 -7
c96 0 163 69 206 129l6 8l-142 548l1 4h29z" />
    <glyph glyph-name="z" unicode="z" horiz-adv-x="484" 
d="M108 510h385l-1 -6l-462 -476h380l-5 -28h-428l-3 6l459 476h-330z" />
    <glyph glyph-name="zacute" unicode="&#x17a;" horiz-adv-x="484" 
d="M443 762v-3l-142 -166h-30v4l140 165h32zM108 510h385l-1 -6l-462 -476h380l-5 -28h-428l-3 6l459 476h-330z" />
    <glyph glyph-name="zcaron" unicode="&#x17e;" horiz-adv-x="484" 
d="M480 760l-180 -167h-9l-122 167v2h32l100 -132l146 132h33v-2zM108 510h385l-1 -6l-462 -476h380l-5 -28h-428l-3 6l459 476h-330z" />
    <glyph glyph-name="zdotaccent" unicode="&#x17c;" horiz-adv-x="484" 
d="M307 664c-14 0 -24 13 -21 27c2 13 16 25 31 25c13 0 23 -12 21 -25c-3 -14 -17 -27 -31 -27zM108 510h385l-1 -6l-462 -476h380l-5 -28h-428l-3 6l459 476h-330z" />
    <glyph glyph-name="k.alt" horiz-adv-x="534" 
d="M499 510h31l-2 -5l-187 -217l128 -282l-1 -6h-30l-124 270h-179l-48 -270h-30l132 750h30l-80 -452h175z" />
    <glyph glyph-name="uni0137.alt" horiz-adv-x="534" 
d="M499 510h31l-2 -5l-187 -217l128 -282l-1 -6h-30l-124 270h-179l-48 -270h-30l132 750h30l-80 -452h175zM139 -213l1 5l80 152h28l-1 -5l-82 -152h-26z" />
    <glyph glyph-name="germandbls.calt" horiz-adv-x="619" 
d="M370 400c132 -11 208 -96 187 -213c-21 -119 -127 -199 -264 -199c-52 0 -108 10 -140 25l5 30c31 -16 86 -27 137 -27c122 0 215 69 232 171c20 107 -59 186 -198 196l4 21c80 56 176 116 189 191c15 83 -39 139 -135 139c-103 0 -184 -79 -206 -199l-94 -535h-30
l94 535c24 136 120 227 240 227c114 0 179 -66 161 -166c-13 -76 -96 -135 -182 -196z" />
    <glyph glyph-name="f_f_j" horiz-adv-x="933" 
d="M730 734c-114 0 -182 -77 -205 -207l-3 -17h326l-94 -534c-21 -119 -95 -183 -224 -183c-16 0 -28 1 -40 2l5 28c11 -1 19 -2 33 -2c148 0 185 94 198 165l87 496h-296l-85 -482h-30l85 482h-315l-85 -482h-30l91 517c25 140 112 233 249 233c43 0 88 -9 111 -23l-5 -28
c-24 14 -62 23 -104 23c-151 0 -205 -117 -221 -207l-1 -5h315l3 19c26 146 104 233 233 233c60 0 110 -9 134 -23l-4 -28c-26 14 -73 23 -128 23z" />
    <glyph glyph-name="f_j" horiz-adv-x="570" 
d="M399 734c-114 0 -196 -77 -219 -207l-3 -17h336l-94 -534c-21 -119 -95 -183 -224 -183c-16 0 -28 1 -40 2l5 28c11 -1 19 -2 33 -2c148 0 185 94 198 165l87 496h-306l-85 -482h-30l93 529c26 146 118 233 247 233c59 0 110 -9 134 -23l-5 -28c-26 14 -73 23 -127 23z
" />
    <glyph glyph-name="n_d.alt" horiz-adv-x="695" 
d="M648 530l30 170h28l-72 -413h-28l7 38c-28 -27 -74 -45 -115 -45c-81 0 -129 59 -114 147c16 89 86 147 166 147c42 0 80 -18 98 -44zM139 485l-35 -198h-29l49 281h29l-9 -49c25 31 64 55 110 55c54 0 96 -36 82 -113l-30 -174h-28l30 175c11 60 -21 86 -62 86
c-40 0 -83 -26 -107 -63zM618 356l25 144c-18 30 -54 48 -94 48c-65 0 -123 -47 -136 -121s28 -120 93 -120c39 0 84 19 112 49zM605 160h-547l5 27h547z" />
    <glyph glyph-name="r_d.alt" horiz-adv-x="570" 
d="M523 531l29 169h29l-72 -413h-29l6 37c-27 -26 -72 -44 -113 -44c-81 0 -128 59 -113 147c16 89 84 147 165 147c41 0 80 -18 98 -43zM144 504l-38 -217h-29l49 281h29l-7 -41c27 24 68 47 103 47h7l-6 -30h-11c-30 0 -68 -15 -97 -40zM492 355l25 146
c-19 29 -54 47 -93 47c-66 0 -123 -47 -136 -121c-13 -73 27 -120 93 -120c37 0 81 18 111 48zM478 160h-420l5 27h420z" />
    <glyph glyph-name="s_t.alt" horiz-adv-x="534" 
d="M520 543h-117l-25 -143c-7 -40 -4 -93 66 -93c11 0 24 1 40 4l-5 -25c-11 -3 -28 -6 -46 -6c-74 0 -96 52 -85 119l41 233l28 20h5l-15 -84h117zM282 357c-7 -40 -43 -77 -122 -77c-33 0 -69 13 -87 27l5 28c21 -17 58 -30 89 -30c57 0 81 26 86 52c5 31 -16 42 -43 51
l-50 18c-49 16 -57 43 -52 73c9 52 63 75 114 75c30 0 62 -9 79 -21l-5 -27c-22 16 -55 23 -79 23c-36 0 -75 -14 -81 -51c-3 -17 2 -34 38 -46l49 -17c39 -13 67 -35 59 -78zM452 160h-398l5 27h398z" />
    <glyph glyph-name="t_h.alt" horiz-adv-x="574" 
d="M460 574c54 0 96 -36 82 -113l-30 -174h-29l30 175c11 60 -21 86 -62 86s-83 -28 -108 -64l-34 -197h-29l72 413h29l-32 -181c25 31 65 55 111 55zM171 280c-74 0 -96 52 -85 119l41 233l28 20h5l-15 -84h116l-4 -25h-116l-25 -143c-7 -40 -4 -93 66 -93c14 0 28 2 39 4
l-5 -25c-11 -3 -27 -6 -45 -6zM481 160h-428l5 27h428z" />
    <glyph glyph-name="A.c2sc" horiz-adv-x="629" 
d="M370 570c131 0 205 -88 183 -213l-63 -357h-30l33 189h-381l-34 -189h-30l63 358c22 124 128 212 259 212zM498 217l25 142c19 103 -43 182 -157 182c-116 0 -206 -78 -224 -180l-26 -144h382z" />
    <glyph glyph-name="Aacute.c2sc" horiz-adv-x="629" 
d="M490 713l-1 -3l-93 -110h-27v3l89 110h32zM370 570c131 0 205 -88 183 -213l-63 -357h-30l33 189h-381l-34 -189h-30l63 358c22 124 128 212 259 212zM498 217l25 142c19 103 -43 182 -157 182c-116 0 -206 -78 -224 -180l-26 -144h382z" />
    <glyph glyph-name="Abreve.c2sc" horiz-adv-x="629" 
d="M383 600c-64 0 -113 49 -101 113h25c-9 -50 30 -91 80 -91c51 0 104 41 113 91h24c-12 -64 -76 -113 -141 -113zM370 570c131 0 205 -88 183 -213l-63 -357h-30l33 189h-381l-34 -189h-30l63 358c22 124 128 212 259 212zM498 217l25 142c19 103 -43 182 -157 182
c-116 0 -206 -78 -224 -180l-26 -144h382z" />
    <glyph glyph-name="uni01CD.c2sc" horiz-adv-x="629" 
d="M526 711l-140 -111h-7l-101 111l1 2h34l75 -82l104 82h35zM370 570c131 0 205 -88 183 -213l-63 -357h-30l33 189h-381l-34 -189h-30l63 358c22 124 128 212 259 212zM498 217l25 142c19 103 -43 182 -157 182c-116 0 -206 -78 -224 -180l-26 -144h382z" />
    <glyph glyph-name="Acircumflex.c2sc" horiz-adv-x="629" 
d="M472 600l-75 82l-104 -82h-34v2l140 111h7l101 -111v-2h-35zM370 570c131 0 205 -88 183 -213l-63 -357h-30l33 189h-381l-34 -189h-30l63 358c22 124 128 212 259 212zM498 217l25 142c19 103 -43 182 -157 182c-116 0 -206 -78 -224 -180l-26 -144h382z" />
    <glyph glyph-name="Adieresis.c2sc" horiz-adv-x="629" 
d="M309 634c-13 0 -22 11 -20 23c3 12 16 23 28 23s21 -11 19 -23s-15 -23 -27 -23zM469 634c-12 0 -21 10 -19 23c2 12 15 23 27 23s22 -11 19 -23c-2 -12 -15 -23 -27 -23zM370 570c131 0 205 -88 183 -213l-63 -357h-30l33 189h-381l-34 -189h-30l63 358
c22 124 128 212 259 212zM498 217l25 142c19 103 -43 182 -157 182c-116 0 -206 -78 -224 -180l-26 -144h382z" />
    <glyph glyph-name="Agrave.c2sc" horiz-adv-x="629" 
d="M400 603v-3h-27l-56 110l1 3h33zM370 570c131 0 205 -88 183 -213l-63 -357h-30l33 189h-381l-34 -189h-30l63 358c22 124 128 212 259 212zM498 217l25 142c19 103 -43 182 -157 182c-116 0 -206 -78 -224 -180l-26 -144h382z" />
    <glyph glyph-name="Amacron.c2sc" horiz-adv-x="629" 
d="M287 668h216l-5 -25h-216zM370 570c131 0 205 -88 183 -213l-63 -357h-30l33 189h-381l-34 -189h-30l63 358c22 124 128 212 259 212zM498 217l25 142c19 103 -43 182 -157 182c-116 0 -206 -78 -224 -180l-26 -144h382z" />
    <glyph glyph-name="Aogonek.c2sc" horiz-adv-x="629" 
d="M370 570c131 0 205 -88 183 -213l-61 -343h13l-1 -3c-5 -3 -9 -5 -13 -8l-1 -3h-4c-35 -24 -52 -53 -55 -74c-8 -47 19 -65 64 -65c23 0 45 9 55 16l-4 -23c-14 -9 -39 -15 -57 -15c-56 0 -92 26 -82 81c4 23 18 55 53 80l33 189h-381l-34 -189h-30l63 358
c22 124 128 212 259 212zM498 217l25 142c19 103 -43 182 -157 182c-116 0 -206 -78 -224 -180l-26 -144h382z" />
    <glyph glyph-name="Aring.c2sc" horiz-adv-x="629" 
d="M426 564c96 -22 146 -101 127 -207l-63 -357h-30l33 189h-381l-34 -189h-30l63 358c19 109 104 190 213 208c-20 16 -29 41 -24 69c8 46 55 84 104 84s82 -38 74 -84c-6 -30 -26 -56 -52 -71zM324 635c-6 -34 18 -62 54 -62s70 28 76 62c6 33 -18 61 -54 61
s-70 -28 -76 -61zM498 217l25 142c19 103 -43 182 -157 182c-116 0 -206 -78 -224 -180l-26 -144h382z" />
    <glyph glyph-name="Aringacute.c2sc" horiz-adv-x="629" 
d="M427 564c95 -22 145 -101 126 -207l-63 -357h-30l33 189h-381l-34 -189h-30l63 358c19 109 104 190 213 208c-19 16 -29 40 -24 68c8 43 49 79 95 84l78 96h32l-1 -3l-80 -95c37 -9 61 -42 54 -82c-5 -30 -26 -55 -51 -70zM324 634c-6 -34 18 -61 54 -61s70 28 76 61
c6 34 -18 61 -54 61s-70 -27 -76 -61zM498 217l25 142c19 103 -43 182 -157 182c-116 0 -206 -78 -224 -180l-26 -144h382z" />
    <glyph glyph-name="Atilde.c2sc" horiz-adv-x="629" 
d="M335 668c-25 0 -41 -18 -46 -46h-25c7 43 37 73 73 73c44 0 77 -44 114 -44c24 0 41 18 46 44h25c-8 -42 -38 -70 -74 -70c-45 0 -74 43 -113 43zM370 570c131 0 205 -88 183 -213l-63 -357h-30l33 189h-381l-34 -189h-30l63 358c22 124 128 212 259 212zM498 217l25 142
c19 103 -43 182 -157 182c-116 0 -206 -78 -224 -180l-26 -144h382z" />
    <glyph glyph-name="AE.c2sc" horiz-adv-x="830" 
d="M827 560l-6 -29h-301l-43 -242h287l-5 -28h-287l-41 -232h302l-5 -29h-332l33 189h-318l-36 -189h-30l68 358c23 121 127 202 264 202h450zM144 361l-28 -145h318l56 315h-118c-121 0 -210 -70 -228 -170z" />
    <glyph glyph-name="AEacute.c2sc" horiz-adv-x="830" 
d="M624 713l-1 -3l-93 -110h-28v3l89 110h33zM827 560l-6 -29h-301l-43 -242h287l-5 -28h-287l-41 -232h302l-5 -29h-332l33 189h-318l-36 -189h-30l68 358c23 121 127 202 264 202h450zM144 361l-28 -145h318l56 315h-118c-121 0 -210 -70 -228 -170z" />
    <glyph glyph-name="B.c2sc" horiz-adv-x="536" 
d="M484 408c-11 -66 -75 -118 -130 -129c60 -10 112 -63 99 -136c-15 -87 -95 -143 -200 -143h-196l99 560h164c124 0 179 -67 164 -152zM138 289h155c41 0 146 29 161 118c16 92 -67 124 -138 124h-135zM424 143c14 81 -60 119 -133 119h-158l-41 -233h162
c63 0 155 27 170 114z" />
    <glyph glyph-name="C.c2sc" horiz-adv-x="607" 
d="M304 -10c-163 0 -273 128 -245 290c28 159 182 290 348 290c74 0 148 -29 198 -70l-6 -35h-3c-40 42 -117 76 -191 76c-150 0 -289 -116 -315 -261c-26 -147 74 -261 222 -261c74 0 163 34 219 76h3l-6 -35c-65 -41 -149 -70 -224 -70z" />
    <glyph glyph-name="Cacute.c2sc" horiz-adv-x="607" 
d="M412 600h-27v3l88 110h32l-1 -3zM304 -10c-163 0 -273 128 -245 290c28 159 182 290 348 290c74 0 148 -29 198 -70l-6 -35h-3c-40 42 -117 76 -191 76c-150 0 -289 -116 -315 -261c-26 -147 74 -261 222 -261c74 0 163 34 219 76h3l-6 -35c-65 -41 -149 -70 -224 -70z
" />
    <glyph glyph-name="Ccaron.c2sc" horiz-adv-x="607" 
d="M543 711l-140 -111h-7l-102 111l1 2h34l76 -81l104 81h35zM407 570c74 0 148 -29 198 -70l-6 -35h-3c-40 42 -117 76 -191 76c-150 0 -289 -116 -315 -261c-26 -147 74 -261 222 -261c74 0 163 34 219 76h3l-6 -35c-65 -41 -149 -70 -224 -70c-163 0 -273 128 -245 290
c28 159 182 290 348 290z" />
    <glyph glyph-name="Ccedilla.c2sc" horiz-adv-x="607" 
d="M407 570c74 0 148 -29 198 -70l-6 -35h-3c-40 42 -117 76 -191 76c-150 0 -289 -116 -315 -261c-26 -147 74 -261 222 -261c74 0 163 34 219 76h3l-6 -35c-65 -41 -149 -70 -224 -70h-9l-31 -39c13 2 26 4 34 4c43 0 69 -22 63 -55c-6 -39 -51 -66 -110 -66
c-18 0 -40 4 -52 8l4 22c13 -5 34 -9 50 -9c42 0 76 17 81 44c4 21 -15 36 -48 36c-16 0 -39 -3 -53 -7l-3 8l42 56c-145 16 -239 137 -213 288c28 159 182 290 348 290z" />
    <glyph glyph-name="Cdotaccent.c2sc" horiz-adv-x="607" 
d="M405 633c-13 0 -23 12 -21 24s16 23 29 23c12 0 21 -11 19 -23s-15 -24 -27 -24zM304 -10c-163 0 -273 128 -245 290c28 159 182 290 348 290c74 0 148 -29 198 -70l-6 -35h-3c-40 42 -117 76 -191 76c-150 0 -289 -116 -315 -261c-26 -147 74 -261 222 -261
c74 0 163 34 219 76h3l-6 -35c-65 -41 -149 -70 -224 -70z" />
    <glyph glyph-name="D.c2sc" horiz-adv-x="590" 
d="M156 560h163c166 0 248 -120 219 -280c-28 -161 -155 -280 -318 -280h-163zM507 280c26 147 -49 251 -193 251h-133l-89 -502h133c145 0 257 106 282 251z" />
    <glyph glyph-name="Eth.c2sc" horiz-adv-x="594" 
d="M160 560h163c166 0 248 -120 219 -280c-28 -161 -155 -280 -318 -280h-163l47 267h-80l5 25h80zM511 280c26 147 -49 251 -193 251h-133l-42 -239h212l-5 -25h-212l-42 -238h133c145 0 257 106 282 251z" />
    <glyph glyph-name="Dcaron.c2sc" horiz-adv-x="590" 
d="M496 711l-140 -111h-7l-102 111l1 2h34l75 -82l105 82h35zM156 560h163c166 0 248 -120 219 -280c-28 -161 -155 -280 -318 -280h-163zM507 280c26 147 -49 251 -193 251h-133l-89 -502h133c145 0 257 106 282 251z" />
    <glyph glyph-name="Dcroat.c2sc" horiz-adv-x="594" 
d="M160 560h163c166 0 248 -120 219 -280c-28 -161 -155 -280 -318 -280h-163l47 267h-80l5 25h80zM511 280c26 147 -49 251 -193 251h-133l-42 -239h212l-5 -25h-212l-42 -238h133c145 0 257 106 282 251z" />
    <glyph glyph-name="E.c2sc" horiz-adv-x="449" 
d="M455 560l-5 -29h-269l-43 -242h222l-5 -28h-222l-41 -232h270l-6 -29h-299l99 560h299z" />
    <glyph glyph-name="Eacute.c2sc" horiz-adv-x="449" 
d="M421 713l-1 -3l-94 -110h-26v3l89 110h32zM455 560l-5 -29h-269l-43 -242h222l-5 -28h-222l-41 -232h270l-6 -29h-299l99 560h299z" />
    <glyph glyph-name="Ecaron.c2sc" horiz-adv-x="449" 
d="M319 631l105 82h35l-1 -2l-140 -111h-7l-102 111l1 2h34zM356 0h-299l99 560h299l-5 -29h-269l-43 -242h222l-5 -28h-222l-41 -232h270z" />
    <glyph glyph-name="Ecircumflex.c2sc" horiz-adv-x="449" 
d="M404 600l-75 82l-105 -82h-34v2l141 111h7l101 -111v-2h-35zM455 560l-5 -29h-269l-43 -242h222l-5 -28h-222l-41 -232h270l-6 -29h-299l99 560h299z" />
    <glyph glyph-name="Edieresis.c2sc" horiz-adv-x="449" 
d="M239 634c-12 0 -22 11 -20 23c3 12 16 23 28 23c13 0 21 -11 19 -23s-14 -23 -27 -23zM400 634c-13 0 -22 11 -20 23s15 23 28 23c12 0 22 -11 19 -23c-2 -12 -15 -23 -27 -23zM455 560l-5 -29h-269l-43 -242h222l-5 -28h-222l-41 -232h270l-6 -29h-299l99 560h299z" />
    <glyph glyph-name="Edotaccent.c2sc" horiz-adv-x="449" 
d="M320 633c-13 0 -22 12 -20 24s15 23 28 23c12 0 21 -11 19 -23s-15 -24 -27 -24zM455 560l-5 -29h-269l-43 -242h222l-5 -28h-222l-41 -232h270l-6 -29h-299l99 560h299z" />
    <glyph glyph-name="Egrave.c2sc" horiz-adv-x="449" 
d="M325 603v-3h-27l-55 110l1 3h32zM455 560l-5 -29h-269l-43 -242h222l-5 -28h-222l-41 -232h270l-6 -29h-299l99 560h299z" />
    <glyph glyph-name="Emacron.c2sc" horiz-adv-x="449" 
d="M217 668h216l-5 -25h-216zM455 560l-5 -29h-269l-43 -242h222l-5 -28h-222l-41 -232h270l-6 -29h-299l99 560h299z" />
    <glyph glyph-name="Eogonek.c2sc" horiz-adv-x="449" 
d="M455 560l-5 -29h-269l-43 -242h222l-5 -28h-222l-41 -232h270l-6 -29h-86c-41 -25 -61 -58 -65 -80c-7 -46 19 -64 64 -64c22 0 44 9 55 16l-4 -24c-12 -7 -35 -15 -57 -15c-55 0 -91 26 -81 82c4 25 20 59 60 85h-185l99 560h299z" />
    <glyph glyph-name="uni1EBC.c2sc" horiz-adv-x="449" 
d="M264 668c-25 0 -41 -18 -46 -46h-25c7 43 37 73 73 73c44 0 77 -44 114 -44c24 0 41 18 46 44h25c-8 -42 -38 -70 -74 -70c-45 0 -74 43 -113 43zM455 560l-5 -29h-269l-43 -242h222l-5 -28h-222l-41 -232h270l-6 -29h-299l99 560h299z" />
    <glyph glyph-name="F.c2sc" horiz-adv-x="437" 
d="M455 560l-5 -29h-269l-43 -242h222l-5 -28h-222l-46 -261h-30l99 560h299z" />
    <glyph glyph-name="G.c2sc" horiz-adv-x="633" 
d="M397 570c84 0 152 -28 193 -71l-6 -34h-3c-40 46 -105 77 -189 76c-142 0 -276 -116 -302 -261c-18 -103 13 -261 216 -261c70 0 139 21 204 56l31 172h-207l5 28h237l-39 -218c-83 -44 -168 -67 -240 -67c-205 0 -261 158 -238 290c29 162 180 290 338 290z" />
    <glyph glyph-name="Gbreve.c2sc" horiz-adv-x="633" 
d="M387 600c-65 0 -113 49 -101 113h24c-9 -50 30 -91 81 -91c50 0 103 41 112 91h25c-12 -64 -77 -113 -141 -113zM397 570c84 0 152 -28 193 -71l-6 -34h-3c-40 46 -105 77 -189 76c-142 0 -276 -116 -302 -261c-18 -103 13 -261 216 -261c70 0 139 21 204 56l31 172h-207
l5 28h237l-39 -218c-83 -44 -168 -67 -240 -67c-205 0 -261 158 -238 290c29 162 180 290 338 290z" />
    <glyph glyph-name="uni0122.c2sc" horiz-adv-x="633" 
d="M397 570c84 0 152 -28 193 -71l-6 -34h-3c-40 46 -105 77 -189 76c-142 0 -276 -116 -302 -261c-18 -103 13 -261 216 -261c70 0 139 21 204 56l31 172h-207l5 28h237l-39 -218c-83 -44 -168 -67 -240 -67c-205 0 -261 158 -238 290c29 162 180 290 338 290zM195 -171
l1 4l64 122h28l-1 -4l-67 -122h-25z" />
    <glyph glyph-name="Gdotaccent.c2sc" horiz-adv-x="633" 
d="M394 633c-13 0 -22 12 -20 24s15 23 28 23c12 0 22 -11 20 -23c-3 -12 -16 -24 -28 -24zM397 570c84 0 152 -28 193 -71l-6 -34h-3c-40 46 -105 77 -189 76c-142 0 -276 -116 -302 -261c-18 -103 13 -261 216 -261c70 0 139 21 204 56l31 172h-207l5 28h237l-39 -218
c-83 -44 -168 -67 -240 -67c-205 0 -261 158 -238 290c29 162 180 290 338 290z" />
    <glyph glyph-name="H.c2sc" horiz-adv-x="677" 
d="M551 289l48 271h30l-99 -560h-30l46 261h-413l-46 -261h-30l99 560h30l-48 -271h413z" />
    <glyph glyph-name="Hbar.c2sc" horiz-adv-x="678" 
d="M608 442h50l-5 -26h-49l-74 -416h-30l46 261h-413l-46 -261h-30l74 416h-50l5 26h49l21 118h30l-21 -118h413l21 118h30zM138 289h413l23 127h-413z" />
    <glyph glyph-name="Hcircumflex.c2sc" horiz-adv-x="677" 
d="M490 600l-75 81l-104 -81h-35v2l141 111h7l101 -111v-2h-35zM551 289l48 271h30l-99 -560h-30l46 261h-413l-46 -261h-30l99 560h30l-48 -271h413z" />
    <glyph glyph-name="I.c2sc" horiz-adv-x="234" 
d="M87 0h-30l99 560h30z" />
    <glyph glyph-name="IJ.c2sc" horiz-adv-x="735" 
d="M87 0h-30l99 560h30zM442 531l6 29h249l-59 -331c-26 -150 -128 -239 -244 -239c-119 0 -190 70 -164 219l1 8h30l-1 -7c-21 -118 26 -190 139 -191c108 -1 189 95 210 212l53 300h-220z" />
    <glyph glyph-name="Iacute.c2sc" horiz-adv-x="234" 
d="M190 600h-27v3l89 110h33l-1 -3zM87 0h-30l99 560h30z" />
    <glyph glyph-name="uni01CF.c2sc" horiz-adv-x="234" 
d="M183 632l105 81h34l-1 -2l-140 -111h-7l-102 111l1 2h34zM87 0h-30l99 560h30z" />
    <glyph glyph-name="Icircumflex.c2sc" horiz-adv-x="234" 
d="M194 713h7l101 -111v-2h-34l-76 81l-105 -81h-34v2zM87 0h-30l99 560h30z" />
    <glyph glyph-name="Idieresis.c2sc" horiz-adv-x="234" 
d="M104 634c-13 0 -22 11 -20 23s15 23 28 23s22 -11 20 -23s-16 -23 -28 -23zM264 634c-13 0 -22 11 -20 23s15 23 28 23s22 -11 20 -23s-16 -23 -28 -23zM87 0h-30l99 560h30z" />
    <glyph glyph-name="Idotaccent.c2sc" horiz-adv-x="234" 
d="M185 633c-13 0 -22 12 -20 24s15 23 28 23s22 -11 20 -23s-16 -24 -28 -24zM87 0h-30l99 560h30z" />
    <glyph glyph-name="Igrave.c2sc" horiz-adv-x="234" 
d="M191 600h-28l-55 110l1 3h32l50 -110v-3zM87 0h-30l99 560h30z" />
    <glyph glyph-name="Imacron.c2sc" horiz-adv-x="234" 
d="M292 643h-216l5 25h217zM87 0h-30l99 560h30z" />
    <glyph glyph-name="Iogonek.c2sc" horiz-adv-x="234" 
d="M14 -74c-8 -47 20 -65 65 -65c20 0 43 9 54 16l-4 -23c-12 -8 -36 -15 -56 -15c-56 0 -92 26 -82 81c5 26 22 64 69 90l97 550h30l-99 -560h-18c-35 -24 -53 -54 -56 -74z" />
    <glyph glyph-name="Itilde.c2sc" horiz-adv-x="234" 
d="M84 622h-26c7 43 37 73 74 73c43 0 76 -44 113 -44c24 0 41 18 46 44h27c-8 -41 -39 -70 -76 -70c-44 0 -74 43 -113 43c-25 0 -41 -19 -45 -46zM87 0h-30l99 560h30z" />
    <glyph glyph-name="J.c2sc" horiz-adv-x="533" 
d="M242 531l5 29h248l-59 -331c-26 -150 -127 -239 -243 -239c-119 0 -189 70 -163 219l1 8h29l-1 -7c-22 -122 31 -190 139 -191c107 -1 188 93 209 212l53 300h-218z" />
    <glyph glyph-name="K.c2sc" horiz-adv-x="504" 
d="M477 560h31c-29 -166 -176 -274 -321 -299l243 -252l-2 -9h-32l-261 271l-48 -271h-30l99 560h30l-49 -277c144 3 309 109 340 277z" />
    <glyph glyph-name="uni0136.c2sc" horiz-adv-x="504" 
d="M477 560h31c-29 -166 -176 -274 -321 -299l243 -252l-2 -9h-32l-261 271l-48 -271h-30l99 560h30l-49 -277c144 3 309 109 340 277zM140 -167v4l64 122h29l-1 -4l-67 -122h-25z" />
    <glyph glyph-name="L.c2sc" horiz-adv-x="428" 
d="M186 560l-94 -531h269l-5 -29h-299l99 560h30z" />
    <glyph glyph-name="Lacute.c2sc" horiz-adv-x="428" 
d="M287 713l-1 -3l-94 -110h-27v3l89 110h33zM186 560l-94 -531h269l-5 -29h-299l99 560h30z" />
    <glyph glyph-name="Lcaron.c2sc" horiz-adv-x="430" 
d="M293 454l91 146h29l-1 -5l-92 -141h-27zM156 560h30l-94 -531h269l-5 -29h-299z" />
    <glyph glyph-name="uni013B.c2sc" horiz-adv-x="428" 
d="M186 560l-94 -531h269l-5 -29h-299l99 560h30zM86 -171l1 4l64 122h28l-1 -4l-67 -122h-25z" />
    <glyph glyph-name="Ldot.c2sc" horiz-adv-x="429" 
d="M186 560l-94 -531h269l-5 -29h-299l99 560h30zM288 235c-14 0 -23 12 -21 25s16 26 31 26c12 0 22 -12 20 -26c-3 -14 -17 -25 -30 -25z" />
    <glyph glyph-name="Lslash.c2sc" horiz-adv-x="440" 
d="M134 210l-32 -181h270l-5 -29h-300l34 193l-72 -37l5 30l72 37l60 337h30l-57 -320l174 89l-6 -29z" />
    <glyph glyph-name="M.c2sc" horiz-adv-x="799" 
d="M369 95l319 465h15l-13 -560h-29l7 481l-301 -441h-14l-144 440l-163 -480h-30l186 560h14z" />
    <glyph glyph-name="N.c2sc" horiz-adv-x="674" 
d="M508 63l88 497h30l-99 -560h-16l-336 499l-88 -499h-30l99 560h18z" />
    <glyph glyph-name="Nacute.c2sc" horiz-adv-x="674" 
d="M505 713l-1 -3l-93 -110h-27v3l89 110h32zM508 63l88 497h30l-99 -560h-16l-336 499l-88 -499h-30l99 560h18z" />
    <glyph glyph-name="Ncaron.c2sc" horiz-adv-x="674" 
d="M543 711l-140 -111h-7l-102 111l1 2h33l76 -81l105 81h35zM508 63l88 497h30l-99 -560h-16l-336 499l-88 -499h-30l99 560h18z" />
    <glyph glyph-name="uni0145.c2sc" horiz-adv-x="674" 
d="M508 63l88 497h30l-99 -560h-16l-336 499l-88 -499h-30l99 560h18zM205 -171l1 4l64 122h28l-1 -4l-66 -122h-26z" />
    <glyph glyph-name="Eng.c2sc" horiz-adv-x="674" 
d="M517 113l79 447h30l-86 -487c-27 -150 -117 -239 -259 -239c-23 0 -43 3 -59 7l5 29c15 -5 36 -8 59 -8c130 0 201 91 223 206v2l-334 435l-88 -505h-30l99 560h20z" />
    <glyph glyph-name="Ntilde.c2sc" horiz-adv-x="674" 
d="M349 668c-25 0 -41 -18 -46 -46h-27c8 43 39 73 75 73c44 0 77 -44 114 -44c24 0 41 19 46 44h25c-8 -42 -38 -70 -74 -70c-45 0 -74 43 -113 43zM508 63l88 497h30l-99 -560h-16l-336 499l-88 -499h-30l99 560h18z" />
    <glyph glyph-name="O.c2sc" horiz-adv-x="687" 
d="M296 -10c-166 0 -265 130 -237 290c29 161 177 290 340 290c167 0 266 -130 237 -290c-28 -161 -177 -290 -340 -290zM301 19c146 0 279 116 304 261c26 147 -66 261 -211 261c-147 0 -278 -117 -304 -261c-26 -147 67 -261 211 -261z" />
    <glyph glyph-name="Oacute.c2sc" horiz-adv-x="687" 
d="M417 600h-26v3l89 110h32l-1 -3zM296 -10c-166 0 -265 130 -237 290c29 161 177 290 340 290c167 0 266 -130 237 -290c-28 -161 -177 -290 -340 -290zM301 19c146 0 279 116 304 261c26 147 -66 261 -211 261c-147 0 -278 -117 -304 -261c-26 -147 67 -261 211 -261z
" />
    <glyph glyph-name="uni01D1.c2sc" horiz-adv-x="687" 
d="M549 711l-140 -111h-7l-102 111l1 2h34l75 -82l105 82h35zM399 570c167 0 266 -130 237 -290c-28 -161 -177 -290 -340 -290c-166 0 -265 130 -237 290c29 161 177 290 340 290zM605 280c26 147 -66 261 -211 261c-147 0 -278 -117 -304 -261c-26 -147 67 -261 211 -261
c146 0 279 116 304 261z" />
    <glyph glyph-name="Ocircumflex.c2sc" horiz-adv-x="687" 
d="M495 600l-75 82l-105 -82h-34v2l141 111h7l101 -111v-2h-35zM399 570c167 0 266 -130 237 -290c-28 -161 -177 -290 -340 -290c-166 0 -265 130 -237 290c29 161 177 290 340 290zM605 280c26 147 -66 261 -211 261c-147 0 -278 -117 -304 -261
c-26 -147 67 -261 211 -261c146 0 279 116 304 261z" />
    <glyph glyph-name="Odieresis.c2sc" horiz-adv-x="687" 
d="M330 634c-12 0 -22 11 -20 23c3 12 16 23 28 23c13 0 21 -11 19 -23s-14 -23 -27 -23zM491 634c-13 0 -22 11 -20 23s15 23 28 23c12 0 21 -11 18 -23c-2 -12 -14 -23 -26 -23zM296 -10c-166 0 -265 130 -237 290c29 161 177 290 340 290c167 0 266 -130 237 -290
c-28 -161 -177 -290 -340 -290zM301 19c146 0 279 116 304 261c26 147 -66 261 -211 261c-147 0 -278 -117 -304 -261c-26 -147 67 -261 211 -261z" />
    <glyph glyph-name="Ograve.c2sc" horiz-adv-x="687" 
d="M416 600h-27l-55 110l1 3h32l49 -110v-3zM296 -10c-166 0 -265 130 -237 290c29 161 177 290 340 290c167 0 266 -130 237 -290c-28 -161 -177 -290 -340 -290zM301 19c146 0 279 116 304 261c26 147 -66 261 -211 261c-147 0 -278 -117 -304 -261
c-26 -147 67 -261 211 -261z" />
    <glyph glyph-name="Ohungarumlaut.c2sc" horiz-adv-x="687" 
d="M363 600h-27v3l75 110h30l-1 -3zM455 600h-27v3l75 110h31l-1 -3zM296 -10c-166 0 -265 130 -237 290c29 161 177 290 340 290c167 0 266 -130 237 -290c-28 -161 -177 -290 -340 -290zM301 19c146 0 279 116 304 261c26 147 -66 261 -211 261
c-147 0 -278 -117 -304 -261c-26 -147 67 -261 211 -261z" />
    <glyph glyph-name="Omacron.c2sc" horiz-adv-x="687" 
d="M519 643h-216l5 25h216zM296 -10c-166 0 -265 130 -237 290c29 161 177 290 340 290c167 0 266 -130 237 -290c-28 -161 -177 -290 -340 -290zM301 19c146 0 279 116 304 261c26 147 -66 261 -211 261c-147 0 -278 -117 -304 -261c-26 -147 67 -261 211 -261z" />
    <glyph glyph-name="Oslash.c2sc" horiz-adv-x="696" 
d="M675 590l18 -18l-97 -87c42 -53 59 -125 45 -205c-28 -161 -177 -290 -340 -290c-74 0 -134 26 -176 68l-96 -87l-17 18l97 88c-42 52 -59 124 -45 203c29 161 177 290 340 290c73 0 133 -25 175 -67zM95 280c-13 -71 3 -135 38 -181l422 382c-38 38 -92 60 -156 60
c-147 0 -278 -117 -304 -261zM610 280c13 72 -3 135 -39 182l-421 -382c37 -38 92 -61 156 -61c146 0 279 116 304 261z" />
    <glyph glyph-name="Oslashacute.c2sc" horiz-adv-x="696" 
d="M516 713l-1 -3l-93 -110h-26v3l89 110h31zM675 590l18 -18l-97 -87c42 -53 59 -125 45 -205c-28 -161 -177 -290 -340 -290c-74 0 -134 26 -176 68l-96 -87l-17 18l97 88c-42 52 -59 124 -45 203c29 161 177 290 340 290c73 0 133 -25 175 -67zM95 280
c-13 -71 3 -135 38 -181l422 382c-38 38 -92 60 -156 60c-147 0 -278 -117 -304 -261zM610 280c13 72 -3 135 -39 182l-421 -382c37 -38 92 -61 156 -61c146 0 279 116 304 261z" />
    <glyph glyph-name="Otilde.c2sc" horiz-adv-x="687" 
d="M309 622h-25c7 43 37 73 73 73c44 0 77 -44 114 -44c24 0 41 18 46 44h25c-8 -42 -38 -70 -74 -70c-45 0 -74 43 -113 43c-25 0 -41 -18 -46 -46zM296 -10c-166 0 -265 130 -237 290c29 161 177 290 340 290c167 0 266 -130 237 -290c-28 -161 -177 -290 -340 -290z
M301 19c146 0 279 116 304 261c26 147 -66 261 -211 261c-147 0 -278 -117 -304 -261c-26 -147 67 -261 211 -261z" />
    <glyph glyph-name="OE.c2sc" horiz-adv-x="950" 
d="M956 560l-5 -29h-270l-43 -242h224l-5 -28h-224l-41 -232h270l-5 -29h-300l27 153c-62 -97 -171 -163 -288 -163c-166 0 -265 130 -237 290c29 161 177 290 340 290c119 0 203 -66 230 -162l27 152h300zM301 19c146 0 280 116 305 261c26 147 -67 261 -212 261
c-147 0 -278 -117 -304 -261c-26 -147 67 -261 211 -261z" />
    <glyph glyph-name="P.c2sc" horiz-adv-x="481" 
d="M156 560h116c133 0 211 -62 192 -171c-20 -109 -121 -171 -253 -171h-85l-39 -218h-30zM433 389c16 91 -52 142 -167 142h-85l-51 -285h86c114 0 200 51 217 143z" />
    <glyph glyph-name="Thorn.c2sc" horiz-adv-x="512" 
d="M168 457h108c134 0 212 -63 192 -171c-19 -109 -120 -171 -254 -171h-107l-20 -115h-30l99 560h30zM437 286c16 91 -51 142 -167 142h-107l-51 -284h108c115 0 201 50 217 142z" />
    <glyph glyph-name="Q.c2sc" horiz-adv-x="687" 
d="M399 570c167 0 266 -130 237 -290c-27 -155 -167 -281 -323 -290l-22 -126h-31l22 126c-158 7 -250 135 -223 290c29 161 177 290 340 290zM605 280c26 147 -66 261 -211 261c-147 0 -278 -117 -304 -261c-26 -147 67 -261 211 -261c146 0 279 116 304 261z" />
    <glyph glyph-name="R.c2sc" horiz-adv-x="550" 
d="M156 560h176c129 0 193 -60 175 -161c-13 -78 -66 -132 -147 -153c67 -24 94 -86 90 -161l-4 -85h-30l3 85c3 84 -40 149 -148 149h-143l-41 -234h-30zM476 399c15 83 -40 132 -149 132h-146l-48 -269h146c110 0 183 51 197 137z" />
    <glyph glyph-name="Racute.c2sc" horiz-adv-x="550" 
d="M410 713l-1 -3l-93 -110h-28v3l89 110h33zM156 560h176c129 0 193 -60 175 -161c-13 -78 -66 -132 -147 -153c67 -24 94 -86 90 -161l-4 -85h-30l3 85c3 84 -40 149 -148 149h-143l-41 -234h-30zM476 399c15 83 -40 132 -149 132h-146l-48 -269h146c110 0 183 51 197 137
z" />
    <glyph glyph-name="Rcaron.c2sc" horiz-adv-x="550" 
d="M467 713l-141 -111h-7l-101 111v2h35l75 -81l105 81h34v-2zM156 560h176c129 0 193 -60 175 -161c-13 -78 -66 -132 -147 -153c67 -24 94 -86 90 -161l-4 -85h-30l3 85c3 84 -40 149 -148 149h-143l-41 -234h-30zM476 399c15 83 -40 132 -149 132h-146l-48 -269h146
c110 0 183 51 197 137z" />
    <glyph glyph-name="uni0156.c2sc" horiz-adv-x="550" 
d="M156 560h176c129 0 193 -60 175 -161c-13 -78 -66 -132 -147 -153c67 -24 94 -86 90 -161l-4 -85h-30l3 85c3 84 -40 149 -148 149h-143l-41 -234h-30zM476 399c15 83 -40 132 -149 132h-146l-48 -269h146c110 0 183 51 197 137zM154 -171l1 4l64 122h28l-1 -4l-67 -122
h-25z" />
    <glyph glyph-name="S.c2sc" horiz-adv-x="471" 
d="M185 -10c-63 0 -131 20 -169 49l6 33c32 -32 100 -53 165 -53c99 0 174 49 187 120c9 58 -25 101 -89 116l-100 25c-69 16 -102 74 -90 142c16 89 97 148 204 148c50 0 109 -13 138 -35l-5 -34c-24 22 -79 40 -136 40c-95 0 -158 -51 -171 -120c-10 -57 18 -101 76 -116
l106 -25c72 -16 109 -73 97 -140c-16 -83 -99 -150 -219 -150z" />
    <glyph glyph-name="Sacute.c2sc" horiz-adv-x="471" 
d="M326 600h-27v3l89 110h33l-1 -3zM185 -10c-63 0 -131 20 -169 49l6 33c32 -32 100 -53 165 -53c99 0 174 49 187 120c9 58 -25 101 -89 116l-100 25c-69 16 -102 74 -90 142c16 89 97 148 204 148c50 0 109 -13 138 -35l-5 -34c-24 22 -79 40 -136 40
c-95 0 -158 -51 -171 -120c-10 -57 18 -101 76 -116l106 -25c72 -16 109 -73 97 -140c-16 -83 -99 -150 -219 -150z" />
    <glyph glyph-name="Scaron.c2sc" horiz-adv-x="471" 
d="M320 632l104 81h34l-1 -2l-140 -111h-7l-101 111l1 2h34zM95 422c16 89 97 148 204 148c50 0 109 -13 138 -35l-5 -34c-24 22 -79 40 -136 40c-95 0 -158 -51 -171 -120c-10 -57 18 -101 76 -116l106 -25c72 -16 109 -73 97 -140c-16 -83 -99 -150 -219 -150
c-63 0 -131 20 -169 49l6 33c32 -32 100 -53 165 -53c99 0 174 49 187 120c9 58 -25 101 -89 116l-100 25c-69 16 -102 74 -90 142z" />
    <glyph glyph-name="Scedilla.c2sc" horiz-adv-x="471" 
d="M296 541c-95 0 -158 -51 -171 -120c-10 -57 18 -101 76 -116l106 -25c72 -16 109 -73 97 -140c-15 -79 -91 -143 -201 -149l-30 -40c13 2 25 4 34 4c43 0 69 -22 63 -55c-6 -39 -52 -66 -111 -66c-15 0 -37 3 -52 8l4 22c13 -5 33 -9 50 -9c44 0 77 18 81 44
c4 21 -14 36 -47 36c-18 0 -40 -3 -55 -7l-3 8l41 54c-61 1 -125 21 -162 49l6 33c32 -32 100 -53 165 -53c99 0 174 49 187 120c9 58 -25 101 -89 116l-100 25c-69 16 -102 74 -90 142c16 89 97 148 204 148c50 0 109 -13 138 -35l-5 -34c-24 22 -79 40 -136 40z" />
    <glyph glyph-name="uni0218.c2sc" horiz-adv-x="471" 
d="M185 -10c-63 0 -131 20 -169 49l6 33c32 -32 100 -53 165 -53c99 0 174 49 187 120c9 58 -25 101 -89 116l-100 25c-69 16 -102 74 -90 142c16 89 97 148 204 148c50 0 109 -13 138 -35l-5 -34c-24 22 -79 40 -136 40c-95 0 -158 -51 -171 -120c-10 -57 18 -101 76 -116
l106 -25c72 -16 109 -73 97 -140c-16 -83 -99 -150 -219 -150zM138 -171h-26l1 4l63 122h29l-1 -4z" />
    <glyph glyph-name="uni1E9E.c2sc" horiz-adv-x="584" 
d="M546 532l-172 -207c104 -14 156 -78 141 -167c-17 -95 -104 -168 -214 -168c-45 0 -103 13 -143 31l5 28c40 -18 100 -30 142 -30c94 0 166 63 179 141c15 83 -44 134 -146 144l2 21l160 193c-34 16 -77 23 -124 23c-137 0 -221 -93 -241 -211l-58 -330h-30l58 331
c23 131 118 239 278 239c60 0 115 -10 158 -31z" />
    <glyph glyph-name="T.c2sc" horiz-adv-x="509" 
d="M83 560h451l-6 -29h-209l-94 -531h-30l94 531h-211z" />
    <glyph glyph-name="Tbar.c2sc" horiz-adv-x="520" 
d="M537 560l-6 -29h-209l-37 -209h144l-5 -26h-143l-53 -296h-30l53 296h-147l5 26h146l37 209h-211l5 29h451z" />
    <glyph glyph-name="Tcaron.c2sc" horiz-adv-x="509" 
d="M459 711l-140 -111h-7l-101 111l1 2h34l76 -81l104 81h34zM83 560h451l-6 -29h-209l-94 -531h-30l94 531h-211z" />
    <glyph glyph-name="uni0162.c2sc" horiz-adv-x="509" 
d="M319 531l-94 -531h-6l-39 -49c13 2 25 4 34 4c43 0 69 -22 63 -55c-6 -39 -51 -66 -110 -66c-15 0 -37 3 -52 8l4 22c13 -5 33 -9 50 -9c44 0 78 18 82 44c4 21 -15 36 -48 36c-18 0 -40 -3 -55 -7l-2 8l49 66l94 529h-211l5 29h451l-6 -29h-209z" />
    <glyph glyph-name="uni021A.c2sc" horiz-adv-x="509" 
d="M83 560h451l-6 -29h-209l-94 -531h-30l94 531h-211zM119 -171l1 4l63 122h29l-1 -4l-67 -122h-25z" />
    <glyph glyph-name="U.c2sc" horiz-adv-x="641" 
d="M274 -10c-136 0 -211 94 -186 236l59 334h30l-60 -337c-21 -122 44 -204 163 -204s212 82 234 205l59 336h30l-59 -334c-25 -141 -133 -236 -270 -236z" />
    <glyph glyph-name="Uacute.c2sc" horiz-adv-x="641" 
d="M395 600h-26v3l89 110h32l-1 -3zM274 -10c-136 0 -211 94 -186 236l59 334h30l-60 -337c-21 -122 44 -204 163 -204s212 82 234 205l59 336h30l-59 -334c-25 -141 -133 -236 -270 -236z" />
    <glyph glyph-name="uni01D3.c2sc" horiz-adv-x="641" 
d="M527 711l-140 -111h-7l-102 111l1 2h34l75 -82l105 82h35zM514 224l59 336h30l-59 -334c-25 -141 -133 -236 -270 -236c-136 0 -211 94 -186 236l59 334h30l-60 -337c-21 -122 44 -204 163 -204s212 82 234 205z" />
    <glyph glyph-name="Ucircumflex.c2sc" horiz-adv-x="641" 
d="M473 600l-75 82l-105 -82h-34v2l141 111h7l101 -111v-2h-35zM514 224l59 336h30l-59 -334c-25 -141 -133 -236 -270 -236c-136 0 -211 94 -186 236l59 334h30l-60 -337c-21 -122 44 -204 163 -204s212 82 234 205z" />
    <glyph glyph-name="Udieresis.c2sc" horiz-adv-x="641" 
d="M308 634c-12 0 -22 11 -20 23s16 23 28 23c13 0 21 -11 19 -23s-14 -23 -27 -23zM469 634c-13 0 -22 11 -20 23s15 23 28 23c12 0 20 -11 18 -23s-14 -23 -26 -23zM274 -10c-136 0 -211 94 -186 236l59 334h30l-60 -337c-21 -122 44 -204 163 -204s212 82 234 205l59 336
h30l-59 -334c-25 -141 -133 -236 -270 -236z" />
    <glyph glyph-name="uni01D7.c2sc" horiz-adv-x="641" 
d="M418 734h-26l1 3l88 109h32v-2zM308 634c-12 0 -22 11 -20 23s16 23 28 23c13 0 21 -11 19 -23s-14 -23 -27 -23zM469 634c-13 0 -22 11 -20 23s15 23 28 23c12 0 20 -11 18 -23s-14 -23 -26 -23zM274 -10c-136 0 -211 94 -186 236l59 334h30l-60 -337
c-21 -122 44 -204 163 -204s212 82 234 205l59 336h30l-59 -334c-25 -141 -133 -236 -270 -236z" />
    <glyph glyph-name="uni01D9.c2sc" horiz-adv-x="641" 
d="M551 844l-141 -110h-7l-101 110v2h34l75 -82l105 82h35v-2zM308 634c-12 0 -22 11 -20 23s16 23 28 23c13 0 21 -11 19 -23s-14 -23 -27 -23zM449 657c2 12 15 23 28 23c12 0 20 -11 18 -23s-14 -23 -26 -23c-13 0 -22 11 -20 23zM514 224l59 336h30l-59 -334
c-25 -141 -133 -236 -270 -236c-136 0 -211 94 -186 236l59 334h30l-60 -337c-21 -122 44 -204 163 -204s212 82 234 205z" />
    <glyph glyph-name="uni01DB.c2sc" horiz-adv-x="641" 
d="M417 734h-27l-54 110v2h32l50 -109zM308 634c-12 0 -22 11 -20 23s16 23 28 23c13 0 21 -11 19 -23s-14 -23 -27 -23zM469 634c-13 0 -22 11 -20 23s15 23 28 23c12 0 20 -11 18 -23s-14 -23 -26 -23zM274 -10c-136 0 -211 94 -186 236l59 334h30l-60 -337
c-21 -122 44 -204 163 -204s212 82 234 205l59 336h30l-59 -334c-25 -141 -133 -236 -270 -236z" />
    <glyph glyph-name="uni01D5.c2sc" horiz-adv-x="641" 
d="M521 777h-216l4 25h216zM308 634c-12 0 -22 11 -20 23s16 23 28 23c13 0 21 -11 19 -23s-14 -23 -27 -23zM469 634c-13 0 -22 11 -20 23s15 23 28 23c12 0 20 -11 18 -23s-14 -23 -26 -23zM274 -10c-136 0 -211 94 -186 236l59 334h30l-60 -337
c-21 -122 44 -204 163 -204s212 82 234 205l59 336h30l-59 -334c-25 -141 -133 -236 -270 -236z" />
    <glyph glyph-name="Ugrave.c2sc" horiz-adv-x="641" 
d="M394 600h-27l-55 110l1 3h32l49 -110v-3zM274 -10c-136 0 -211 94 -186 236l59 334h30l-60 -337c-21 -122 44 -204 163 -204s212 82 234 205l59 336h30l-59 -334c-25 -141 -133 -236 -270 -236z" />
    <glyph glyph-name="Uhungarumlaut.c2sc" horiz-adv-x="641" 
d="M341 600h-27v3l75 110h30l-1 -3zM433 600h-27v3l75 110h31l-1 -3zM274 -10c-136 0 -211 94 -186 236l59 334h30l-60 -337c-21 -122 44 -204 163 -204s212 82 234 205l59 336h30l-59 -334c-25 -141 -133 -236 -270 -236z" />
    <glyph glyph-name="Umacron.c2sc" horiz-adv-x="641" 
d="M497 643h-216l5 25h216zM274 -10c-136 0 -211 94 -186 236l59 334h30l-60 -337c-21 -122 44 -204 163 -204s212 82 234 205l59 336h30l-59 -334c-25 -141 -133 -236 -270 -236z" />
    <glyph glyph-name="Uogonek.c2sc" horiz-adv-x="641" 
d="M514 224l59 336h30l-59 -334c-24 -134 -122 -226 -249 -235c-32 -23 -48 -51 -51 -71c-8 -46 19 -64 64 -64c24 0 46 10 55 16l-4 -24c-12 -7 -34 -15 -56 -15c-55 0 -92 26 -82 82c4 21 16 50 47 75c-132 3 -205 96 -180 236l59 334h30l-60 -337
c-21 -122 44 -204 163 -204s212 82 234 205z" />
    <glyph glyph-name="Uring.c2sc" horiz-adv-x="641" 
d="M385 619c-51 1 -82 39 -74 85s55 84 105 84c48 0 81 -38 73 -84c-8 -47 -54 -86 -104 -85zM390 643c35 0 69 27 75 61c6 33 -18 61 -53 61c-37 0 -71 -28 -77 -61c-6 -34 18 -61 55 -61zM274 -10c-136 0 -211 94 -186 236l59 334h30l-60 -337c-21 -122 44 -204 163 -204
s212 82 234 205l59 336h30l-59 -334c-25 -141 -133 -236 -270 -236z" />
    <glyph glyph-name="Utilde.c2sc" horiz-adv-x="641" 
d="M287 622h-25c7 43 37 73 73 73c44 0 77 -44 114 -44c24 0 41 18 46 44h25c-8 -42 -38 -70 -74 -70c-45 0 -74 43 -113 43c-25 0 -41 -18 -46 -46zM274 -10c-136 0 -211 94 -186 236l59 334h30l-60 -337c-21 -122 44 -204 163 -204s212 82 234 205l59 336h30l-59 -334
c-25 -141 -133 -236 -270 -236z" />
    <glyph glyph-name="V.c2sc" horiz-adv-x="558" 
d="M244 52l317 508h30l-1 -4l-348 -556h-16l-152 556l1 4h30z" />
    <glyph glyph-name="W.c2sc" horiz-adv-x="909" 
d="M621 63l282 497h35l-1 -4l-316 -556h-21l-112 448l-271 -448h-19l-120 556l1 4h35l106 -497l270 443h17z" />
    <glyph glyph-name="Wacute.c2sc" horiz-adv-x="909" 
d="M622 713l-1 -3l-93 -110h-26v3l88 110h32zM621 63l282 497h35l-1 -4l-316 -556h-21l-112 448l-271 -448h-19l-120 556l1 4h35l106 -497l270 443h17z" />
    <glyph glyph-name="Wcircumflex.c2sc" horiz-adv-x="909" 
d="M606 600l-75 82l-106 -82h-33v2l141 111h7l101 -111v-2h-35zM621 63l282 497h35l-1 -4l-316 -556h-21l-112 448l-271 -448h-19l-120 556l1 4h35l106 -497l270 443h17z" />
    <glyph glyph-name="Wdieresis.c2sc" horiz-adv-x="909" 
d="M441 634c-13 0 -22 10 -20 23c2 12 16 23 28 23s21 -11 19 -23s-15 -23 -27 -23zM601 634c-12 0 -22 11 -20 23c3 12 16 23 28 23c13 0 21 -11 19 -23c-2 -13 -15 -23 -27 -23zM621 63l282 497h35l-1 -4l-316 -556h-21l-112 448l-271 -448h-19l-120 556l1 4h35l106 -497
l270 443h17z" />
    <glyph glyph-name="Wgrave.c2sc" horiz-adv-x="909" 
d="M527 603v-3h-27l-56 110l1 3h33zM621 63l282 497h35l-1 -4l-316 -556h-21l-112 448l-271 -448h-19l-120 556l1 4h35l106 -497l270 443h17z" />
    <glyph glyph-name="X.c2sc" horiz-adv-x="520" 
d="M485 560h35l-1 -4l-229 -249l172 -303l-1 -4h-35l-160 281l-260 -281h-35l1 4l279 302l-142 250l1 4h34l131 -228z" />
    <glyph glyph-name="Y.c2sc" horiz-adv-x="535" 
d="M263 227l270 333h34l-1 -4l-293 -358l-35 -198h-30l35 197l-168 359l1 4h34z" />
    <glyph glyph-name="Yacute.c2sc" horiz-adv-x="535" 
d="M436 713l-1 -3l-93 -110h-28v3l89 110h33zM263 227l270 333h34l-1 -4l-293 -358l-35 -198h-30l35 197l-168 359l1 4h34z" />
    <glyph glyph-name="Ycircumflex.c2sc" horiz-adv-x="535" 
d="M419 600l-76 81l-104 -81h-35v2l141 111h7l101 -111v-2h-34zM263 227l270 333h34l-1 -4l-293 -358l-35 -198h-30l35 197l-168 359l1 4h34z" />
    <glyph glyph-name="Ydieresis.c2sc" horiz-adv-x="535" 
d="M254 634c-13 0 -22 11 -20 23s15 23 28 23s22 -11 20 -23s-16 -23 -28 -23zM414 634c-13 0 -22 11 -20 23s15 23 28 23s22 -11 20 -23s-15 -23 -28 -23zM263 227l270 333h34l-1 -4l-293 -358l-35 -198h-30l35 197l-168 359l1 4h34z" />
    <glyph glyph-name="Ygrave.c2sc" horiz-adv-x="535" 
d="M340 603v-3h-27l-55 110l1 3h32zM263 227l270 333h34l-1 -4l-293 -358l-35 -198h-30l35 197l-168 359l1 4h34z" />
    <glyph glyph-name="uni1EF8.c2sc" horiz-adv-x="535" 
d="M278 668c-25 0 -42 -19 -46 -46h-25c7 43 37 73 74 73c43 0 76 -44 113 -44c24 0 41 18 46 44h27c-8 -42 -40 -70 -76 -70c-44 0 -74 43 -113 43zM263 227l270 333h34l-1 -4l-293 -358l-35 -198h-30l35 197l-168 359l1 4h34z" />
    <glyph glyph-name="Z.c2sc" horiz-adv-x="516" 
d="M99 560h434l-2 -8l-490 -523h400l-5 -29h-454l1 6l492 525h-381z" />
    <glyph glyph-name="Zacute.c2sc" horiz-adv-x="516" 
d="M431 713l-1 -3l-94 -110h-26v3l89 110h32zM99 560h434l-2 -8l-490 -523h400l-5 -29h-454l1 6l492 525h-381z" />
    <glyph glyph-name="Zcaron.c2sc" horiz-adv-x="516" 
d="M468 711l-140 -111h-7l-102 111l1 2h34l75 -82l106 82h34zM99 560h434l-2 -8l-490 -523h400l-5 -29h-454l1 6l492 525h-381z" />
    <glyph glyph-name="Zdotaccent.c2sc" horiz-adv-x="516" 
d="M329 633c-12 0 -21 12 -19 24s15 23 27 23c13 0 22 -11 20 -23c-3 -12 -15 -24 -28 -24zM99 560h434l-2 -8l-490 -523h400l-5 -29h-454l1 6l492 525h-381z" />
    <glyph glyph-name="A.alt.c2sc" horiz-adv-x="577" 
d="M513 0h-31l-47 161h-326l-103 -161h-32l359 560h19zM333 511l-206 -322h300z" />
    <glyph glyph-name="Aacute.alt.c2sc" horiz-adv-x="577" 
d="M461 713l-1 -3l-93 -110h-27v3l89 110h32zM513 0h-31l-47 161h-326l-103 -161h-32l359 560h19zM333 511l-206 -322h300z" />
    <glyph glyph-name="Abreve.alt.c2sc" horiz-adv-x="577" 
d="M350 600c-65 0 -113 49 -101 113h25c-9 -50 29 -91 80 -91c50 0 103 41 112 91h25c-12 -64 -77 -113 -141 -113zM513 0h-31l-47 161h-326l-103 -161h-32l359 560h19zM333 511l-206 -322h300z" />
    <glyph glyph-name="uni01CD.alt.c2sc" horiz-adv-x="577" 
d="M493 711l-140 -111h-7l-102 111l1 2h34l76 -81l105 81h34zM513 0h-31l-47 161h-326l-103 -161h-32l359 560h19zM333 511l-206 -322h300z" />
    <glyph glyph-name="Acircumflex.alt.c2sc" horiz-adv-x="577" 
d="M440 600l-76 81l-105 -81h-34v2l141 111h7l101 -111v-2h-34zM513 0h-31l-47 161h-326l-103 -161h-32l359 560h19zM333 511l-206 -322h300z" />
    <glyph glyph-name="Adieresis.alt.c2sc" horiz-adv-x="577" 
d="M276 634c-13 0 -22 11 -20 23s15 23 28 23s21 -11 19 -23s-15 -23 -27 -23zM436 634c-13 0 -22 11 -20 23s15 23 28 23s22 -11 20 -23s-16 -23 -28 -23zM513 0h-31l-47 161h-326l-103 -161h-32l359 560h19zM333 511l-206 -322h300z" />
    <glyph glyph-name="Agrave.alt.c2sc" horiz-adv-x="577" 
d="M354 603v-3h-28l-55 110l1 3h33zM513 0h-31l-47 161h-326l-103 -161h-32l359 560h19zM333 511l-206 -322h300z" />
    <glyph glyph-name="Amacron.alt.c2sc" horiz-adv-x="577" 
d="M253 668h217l-6 -25h-216zM513 0h-31l-47 161h-326l-103 -161h-32l359 560h19zM333 511l-206 -322h300z" />
    <glyph glyph-name="Aogonek.alt.c2sc" horiz-adv-x="577" 
d="M498 -139c21 0 42 9 54 16l-4 -23c-13 -8 -36 -15 -57 -15c-55 0 -91 26 -81 81c5 27 22 64 69 90l-44 151h-326l-103 -161h-32l359 560h19l161 -560h-25c-35 -24 -52 -53 -55 -74c-8 -47 19 -65 65 -65zM333 511l-206 -322h300z" />
    <glyph glyph-name="Aring.alt.c2sc" horiz-adv-x="577" 
d="M513 0h-31l-47 161h-326l-103 -161h-32l351 547c-43 8 -67 43 -60 84c8 46 55 84 105 84c48 0 81 -38 73 -84c-7 -41 -45 -77 -87 -84zM289 631c-5 -34 19 -61 56 -61c35 0 68 27 74 61s-19 61 -53 61c-37 0 -71 -28 -77 -61zM333 511l-206 -322h300z" />
    <glyph glyph-name="Aringacute.alt.c2sc" horiz-adv-x="577" 
d="M513 0h-31l-47 161h-326l-103 -161h-32l349 545c-40 8 -66 41 -58 83c7 42 47 77 92 83l79 97h32l-1 -2l-81 -95c40 -7 64 -42 57 -83c-8 -44 -47 -77 -86 -84zM289 628c-5 -33 18 -61 55 -61c35 0 69 27 75 61s-18 61 -53 61c-36 0 -71 -27 -77 -61zM333 511l-206 -322
h300z" />
    <glyph glyph-name="Atilde.alt.c2sc" horiz-adv-x="577" 
d="M302 668c-25 0 -41 -18 -46 -46h-25c7 43 37 73 73 73c44 0 77 -44 114 -44c24 0 41 18 46 44h26c-8 -42 -39 -70 -75 -70c-44 0 -74 43 -113 43zM513 0h-31l-47 161h-326l-103 -161h-32l359 560h19zM333 511l-206 -322h300z" />
    <glyph glyph-name="AE.alt.c2sc" horiz-adv-x="678" 
d="M684 560l-5 -29h-244l-43 -242h212l-5 -28h-212l-41 -232h244l-5 -29h-274l28 161h-218l-128 -161h-32l443 560h280zM402 514l-259 -325h201z" />
    <glyph glyph-name="AEacute.alt.c2sc" horiz-adv-x="678" 
d="M632 713l-1 -3l-93 -110h-28v3l90 110h32zM684 560l-5 -29h-244l-43 -242h212l-5 -28h-212l-41 -232h244l-5 -29h-274l28 161h-218l-128 -161h-32l443 560h280zM402 514l-259 -325h201z" />
    <glyph glyph-name="K.alt.c2sc" horiz-adv-x="513" 
d="M502 560h33l-1 -4l-249 -276l152 -276l-1 -4h-33l-147 266h-122l-47 -266h-30l99 560h30l-47 -266h122z" />
    <glyph glyph-name="uni0136.alt.c2sc" horiz-adv-x="513" 
d="M502 560h33l-1 -4l-249 -276l152 -276l-1 -4h-33l-147 266h-122l-47 -266h-30l99 560h30l-47 -266h122zM127 -171l1 4l63 122h29l-1 -4l-66 -122h-26z" />
    <glyph glyph-name="R.alt.c2sc" horiz-adv-x="503" 
d="M156 560h117c133 0 211 -61 193 -166c-14 -78 -73 -134 -157 -158l96 -232l-1 -4h-33l-93 229c-21 -3 -42 -5 -64 -5h-87l-40 -224h-30zM436 394c15 86 -54 137 -168 137h-87l-50 -280h87c114 0 202 55 218 143z" />
    <glyph glyph-name="Racute.alt.c2sc" horiz-adv-x="503" 
d="M400 713l-1 -3l-93 -110h-28v3l89 110h33zM156 560h117c133 0 211 -61 193 -166c-14 -78 -73 -134 -157 -158l96 -232l-1 -4h-33l-93 229c-21 -3 -42 -5 -64 -5h-87l-40 -224h-30zM436 394c15 86 -54 137 -168 137h-87l-50 -280h87c114 0 202 55 218 143z" />
    <glyph glyph-name="Rcaron.alt.c2sc" horiz-adv-x="503" 
d="M436 711l-140 -111h-7l-102 111l1 2h35l76 -81l104 81h34zM156 560h117c133 0 211 -61 193 -166c-14 -78 -73 -134 -157 -158l96 -232l-1 -4h-33l-93 229c-21 -3 -42 -5 -64 -5h-87l-40 -224h-30zM436 394c15 86 -54 137 -168 137h-87l-50 -280h87c114 0 202 55 218 143z
" />
    <glyph glyph-name="uni0156.alt.c2sc" horiz-adv-x="503" 
d="M156 560h117c133 0 211 -61 193 -166c-14 -78 -73 -134 -157 -158l96 -232l-1 -4h-33l-93 229c-21 -3 -42 -5 -64 -5h-87l-40 -224h-30zM436 394c15 86 -54 137 -168 137h-87l-50 -280h87c114 0 202 55 218 143zM121 -171l1 4l63 122h29l-1 -4l-66 -122h-26z" />
    <glyph glyph-name="a.smcp" horiz-adv-x="629" 
d="M370 570c131 0 205 -88 183 -213l-63 -357h-30l33 189h-381l-34 -189h-30l63 358c22 124 128 212 259 212zM498 217l25 142c19 103 -43 182 -157 182c-116 0 -206 -78 -224 -180l-26 -144h382z" />
    <glyph glyph-name="aacute.smcp" horiz-adv-x="629" 
d="M490 713l-1 -3l-93 -110h-27v3l89 110h32zM370 570c131 0 205 -88 183 -213l-63 -357h-30l33 189h-381l-34 -189h-30l63 358c22 124 128 212 259 212zM498 217l25 142c19 103 -43 182 -157 182c-116 0 -206 -78 -224 -180l-26 -144h382z" />
    <glyph glyph-name="abreve.smcp" horiz-adv-x="629" 
d="M383 600c-64 0 -113 49 -101 113h25c-9 -50 30 -91 80 -91c51 0 104 41 113 91h24c-12 -64 -76 -113 -141 -113zM370 570c131 0 205 -88 183 -213l-63 -357h-30l33 189h-381l-34 -189h-30l63 358c22 124 128 212 259 212zM498 217l25 142c19 103 -43 182 -157 182
c-116 0 -206 -78 -224 -180l-26 -144h382z" />
    <glyph glyph-name="uni01CE.smcp" horiz-adv-x="629" 
d="M526 711l-140 -111h-7l-101 111l1 2h34l75 -82l104 82h35zM370 570c131 0 205 -88 183 -213l-63 -357h-30l33 189h-381l-34 -189h-30l63 358c22 124 128 212 259 212zM498 217l25 142c19 103 -43 182 -157 182c-116 0 -206 -78 -224 -180l-26 -144h382z" />
    <glyph glyph-name="acircumflex.smcp" horiz-adv-x="629" 
d="M472 600l-75 82l-104 -82h-34v2l140 111h7l101 -111v-2h-35zM370 570c131 0 205 -88 183 -213l-63 -357h-30l33 189h-381l-34 -189h-30l63 358c22 124 128 212 259 212zM498 217l25 142c19 103 -43 182 -157 182c-116 0 -206 -78 -224 -180l-26 -144h382z" />
    <glyph glyph-name="adieresis.smcp" horiz-adv-x="629" 
d="M309 634c-13 0 -22 11 -20 23c3 12 16 23 28 23s21 -11 19 -23s-15 -23 -27 -23zM469 634c-12 0 -21 10 -19 23c2 12 15 23 27 23s22 -11 19 -23c-2 -12 -15 -23 -27 -23zM370 570c131 0 205 -88 183 -213l-63 -357h-30l33 189h-381l-34 -189h-30l63 358
c22 124 128 212 259 212zM498 217l25 142c19 103 -43 182 -157 182c-116 0 -206 -78 -224 -180l-26 -144h382z" />
    <glyph glyph-name="agrave.smcp" horiz-adv-x="629" 
d="M400 603v-3h-27l-56 110l1 3h33zM370 570c131 0 205 -88 183 -213l-63 -357h-30l33 189h-381l-34 -189h-30l63 358c22 124 128 212 259 212zM498 217l25 142c19 103 -43 182 -157 182c-116 0 -206 -78 -224 -180l-26 -144h382z" />
    <glyph glyph-name="a.alt.smcp" horiz-adv-x="577" 
d="M513 0h-31l-47 161h-326l-103 -161h-32l359 560h19zM333 511l-206 -322h300z" />
    <glyph glyph-name="aacute.alt.smcp" horiz-adv-x="577" 
d="M461 713l-1 -3l-93 -110h-27v3l89 110h32zM513 0h-31l-47 161h-326l-103 -161h-32l359 560h19zM333 511l-206 -322h300z" />
    <glyph glyph-name="abreve.alt.smcp" horiz-adv-x="577" 
d="M350 600c-65 0 -113 49 -101 113h25c-9 -50 29 -91 80 -91c50 0 103 41 112 91h25c-12 -64 -77 -113 -141 -113zM513 0h-31l-47 161h-326l-103 -161h-32l359 560h19zM333 511l-206 -322h300z" />
    <glyph glyph-name="uni01CE.alt.smcp" horiz-adv-x="577" 
d="M493 711l-140 -111h-7l-102 111l1 2h34l76 -81l105 81h34zM513 0h-31l-47 161h-326l-103 -161h-32l359 560h19zM333 511l-206 -322h300z" />
    <glyph glyph-name="acircumflex.alt.smcp" horiz-adv-x="577" 
d="M440 600l-76 81l-105 -81h-34v2l141 111h7l101 -111v-2h-34zM513 0h-31l-47 161h-326l-103 -161h-32l359 560h19zM333 511l-206 -322h300z" />
    <glyph glyph-name="adieresis.alt.smcp" horiz-adv-x="577" 
d="M276 634c-13 0 -22 11 -20 23s15 23 28 23s21 -11 19 -23s-15 -23 -27 -23zM436 634c-13 0 -22 11 -20 23s15 23 28 23s22 -11 20 -23s-16 -23 -28 -23zM513 0h-31l-47 161h-326l-103 -161h-32l359 560h19zM333 511l-206 -322h300z" />
    <glyph glyph-name="agrave.alt.smcp" horiz-adv-x="577" 
d="M354 603v-3h-28l-55 110l1 3h33zM513 0h-31l-47 161h-326l-103 -161h-32l359 560h19zM333 511l-206 -322h300z" />
    <glyph glyph-name="amacron.alt.smcp" horiz-adv-x="577" 
d="M253 668h217l-6 -25h-216zM513 0h-31l-47 161h-326l-103 -161h-32l359 560h19zM333 511l-206 -322h300z" />
    <glyph glyph-name="aogonek.alt.smcp" horiz-adv-x="577" 
d="M498 -139c21 0 42 9 54 16l-4 -23c-13 -8 -36 -15 -57 -15c-55 0 -91 26 -81 81c5 27 22 64 69 90l-44 151h-326l-103 -161h-32l359 560h19l161 -560h-25c-35 -24 -52 -53 -55 -74c-8 -47 19 -65 65 -65zM333 511l-206 -322h300z" />
    <glyph glyph-name="aring.alt.smcp" horiz-adv-x="577" 
d="M513 0h-31l-47 161h-326l-103 -161h-32l351 547c-43 8 -67 43 -60 84c8 46 55 84 105 84c48 0 81 -38 73 -84c-7 -41 -45 -77 -87 -84zM289 631c-5 -34 19 -61 56 -61c35 0 68 27 74 61s-19 61 -53 61c-37 0 -71 -28 -77 -61zM333 511l-206 -322h300z" />
    <glyph glyph-name="aringacute.alt.smcp" horiz-adv-x="577" 
d="M513 0h-31l-47 161h-326l-103 -161h-32l349 545c-40 8 -66 41 -58 83c7 42 47 77 92 83l79 97h32l-1 -2l-81 -95c40 -7 64 -42 57 -83c-8 -44 -47 -77 -86 -84zM289 628c-5 -33 18 -61 55 -61c35 0 69 27 75 61s-18 61 -53 61c-36 0 -71 -27 -77 -61zM333 511l-206 -322
h300z" />
    <glyph glyph-name="atilde.alt.smcp" horiz-adv-x="577" 
d="M302 668c-25 0 -41 -18 -46 -46h-25c7 43 37 73 73 73c44 0 77 -44 114 -44c24 0 41 18 46 44h26c-8 -42 -39 -70 -75 -70c-44 0 -74 43 -113 43zM513 0h-31l-47 161h-326l-103 -161h-32l359 560h19zM333 511l-206 -322h300z" />
    <glyph glyph-name="ae.alt.smcp" horiz-adv-x="678" 
d="M684 560l-5 -29h-244l-43 -242h212l-5 -28h-212l-41 -232h244l-5 -29h-274l28 161h-218l-128 -161h-32l443 560h280zM402 514l-259 -325h201z" />
    <glyph glyph-name="aeacute.alt.smcp" horiz-adv-x="678" 
d="M632 713l-1 -3l-93 -110h-28v3l90 110h32zM684 560l-5 -29h-244l-43 -242h212l-5 -28h-212l-41 -232h244l-5 -29h-274l28 161h-218l-128 -161h-32l443 560h280zM402 514l-259 -325h201z" />
    <glyph glyph-name="k.alt.smcp" horiz-adv-x="513" 
d="M502 560h33l-1 -4l-249 -276l152 -276l-1 -4h-33l-147 266h-122l-47 -266h-30l99 560h30l-47 -266h122z" />
    <glyph glyph-name="uni0137.alt.smcp" horiz-adv-x="513" 
d="M502 560h33l-1 -4l-249 -276l152 -276l-1 -4h-33l-147 266h-122l-47 -266h-30l99 560h30l-47 -266h122zM127 -171l1 4l63 122h29l-1 -4l-66 -122h-26z" />
    <glyph glyph-name="r.alt.smcp" horiz-adv-x="503" 
d="M156 560h117c133 0 211 -61 193 -166c-14 -78 -73 -134 -157 -158l96 -232l-1 -4h-33l-93 229c-21 -3 -42 -5 -64 -5h-87l-40 -224h-30zM436 394c15 86 -54 137 -168 137h-87l-50 -280h87c114 0 202 55 218 143z" />
    <glyph glyph-name="racute.alt.smcp" horiz-adv-x="503" 
d="M400 713l-1 -3l-93 -110h-28v3l89 110h33zM156 560h117c133 0 211 -61 193 -166c-14 -78 -73 -134 -157 -158l96 -232l-1 -4h-33l-93 229c-21 -3 -42 -5 -64 -5h-87l-40 -224h-30zM436 394c15 86 -54 137 -168 137h-87l-50 -280h87c114 0 202 55 218 143z" />
    <glyph glyph-name="rcaron.alt.smcp" horiz-adv-x="503" 
d="M436 711l-140 -111h-7l-102 111l1 2h35l76 -81l104 81h34zM156 560h117c133 0 211 -61 193 -166c-14 -78 -73 -134 -157 -158l96 -232l-1 -4h-33l-93 229c-21 -3 -42 -5 -64 -5h-87l-40 -224h-30zM436 394c15 86 -54 137 -168 137h-87l-50 -280h87c114 0 202 55 218 143z
" />
    <glyph glyph-name="uni0157.alt.smcp" horiz-adv-x="503" 
d="M156 560h117c133 0 211 -61 193 -166c-14 -78 -73 -134 -157 -158l96 -232l-1 -4h-33l-93 229c-21 -3 -42 -5 -64 -5h-87l-40 -224h-30zM436 394c15 86 -54 137 -168 137h-87l-50 -280h87c114 0 202 55 218 143zM121 -171l1 4l63 122h29l-1 -4l-66 -122h-26z" />
    <glyph glyph-name="amacron.smcp" horiz-adv-x="629" 
d="M287 668h216l-5 -25h-216zM370 570c131 0 205 -88 183 -213l-63 -357h-30l33 189h-381l-34 -189h-30l63 358c22 124 128 212 259 212zM498 217l25 142c19 103 -43 182 -157 182c-116 0 -206 -78 -224 -180l-26 -144h382z" />
    <glyph glyph-name="aogonek.smcp" horiz-adv-x="629" 
d="M370 570c131 0 205 -88 183 -213l-61 -343h13l-1 -3c-5 -3 -9 -5 -13 -8l-1 -3h-4c-35 -24 -52 -53 -55 -74c-8 -47 19 -65 64 -65c23 0 45 9 55 16l-4 -23c-14 -9 -39 -15 -57 -15c-56 0 -92 26 -82 81c4 23 18 55 53 80l33 189h-381l-34 -189h-30l63 358
c22 124 128 212 259 212zM498 217l25 142c19 103 -43 182 -157 182c-116 0 -206 -78 -224 -180l-26 -144h382z" />
    <glyph glyph-name="aring.smcp" horiz-adv-x="629" 
d="M426 564c96 -22 146 -101 127 -207l-63 -357h-30l33 189h-381l-34 -189h-30l63 358c19 109 104 190 213 208c-20 16 -29 41 -24 69c8 46 55 84 104 84s82 -38 74 -84c-6 -30 -26 -56 -52 -71zM324 635c-6 -34 18 -62 54 -62s70 28 76 62c6 33 -18 61 -54 61
s-70 -28 -76 -61zM498 217l25 142c19 103 -43 182 -157 182c-116 0 -206 -78 -224 -180l-26 -144h382z" />
    <glyph glyph-name="aringacute.smcp" horiz-adv-x="629" 
d="M427 564c95 -22 145 -101 126 -207l-63 -357h-30l33 189h-381l-34 -189h-30l63 358c19 109 104 190 213 208c-19 16 -29 40 -24 68c8 43 49 79 95 84l78 96h32l-1 -3l-80 -95c37 -9 61 -42 54 -82c-5 -30 -26 -55 -51 -70zM324 634c-6 -34 18 -61 54 -61s70 28 76 61
c6 34 -18 61 -54 61s-70 -27 -76 -61zM498 217l25 142c19 103 -43 182 -157 182c-116 0 -206 -78 -224 -180l-26 -144h382z" />
    <glyph glyph-name="atilde.smcp" horiz-adv-x="629" 
d="M335 668c-25 0 -41 -18 -46 -46h-25c7 43 37 73 73 73c44 0 77 -44 114 -44c24 0 41 18 46 44h25c-8 -42 -38 -70 -74 -70c-45 0 -74 43 -113 43zM370 570c131 0 205 -88 183 -213l-63 -357h-30l33 189h-381l-34 -189h-30l63 358c22 124 128 212 259 212zM498 217l25 142
c19 103 -43 182 -157 182c-116 0 -206 -78 -224 -180l-26 -144h382z" />
    <glyph glyph-name="ae.smcp" horiz-adv-x="830" 
d="M827 560l-6 -29h-301l-43 -242h287l-5 -28h-287l-41 -232h302l-5 -29h-332l33 189h-318l-36 -189h-30l68 358c23 121 127 202 264 202h450zM144 361l-28 -145h318l56 315h-118c-121 0 -210 -70 -228 -170z" />
    <glyph glyph-name="aeacute.smcp" horiz-adv-x="830" 
d="M624 713l-1 -3l-93 -110h-28v3l89 110h33zM827 560l-6 -29h-301l-43 -242h287l-5 -28h-287l-41 -232h302l-5 -29h-332l33 189h-318l-36 -189h-30l68 358c23 121 127 202 264 202h450zM144 361l-28 -145h318l56 315h-118c-121 0 -210 -70 -228 -170z" />
    <glyph glyph-name="b.smcp" horiz-adv-x="536" 
d="M484 408c-11 -66 -75 -118 -130 -129c60 -10 112 -63 99 -136c-15 -87 -95 -143 -200 -143h-196l99 560h164c124 0 179 -67 164 -152zM138 289h155c41 0 146 29 161 118c16 92 -67 124 -138 124h-135zM424 143c14 81 -60 119 -133 119h-158l-41 -233h162
c63 0 155 27 170 114z" />
    <glyph glyph-name="c.smcp" horiz-adv-x="607" 
d="M304 -10c-163 0 -273 128 -245 290c28 159 182 290 348 290c74 0 148 -29 198 -70l-6 -35h-3c-40 42 -117 76 -191 76c-150 0 -289 -116 -315 -261c-26 -147 74 -261 222 -261c74 0 163 34 219 76h3l-6 -35c-65 -41 -149 -70 -224 -70z" />
    <glyph glyph-name="cacute.smcp" horiz-adv-x="607" 
d="M412 600h-27v3l88 110h32l-1 -3zM304 -10c-163 0 -273 128 -245 290c28 159 182 290 348 290c74 0 148 -29 198 -70l-6 -35h-3c-40 42 -117 76 -191 76c-150 0 -289 -116 -315 -261c-26 -147 74 -261 222 -261c74 0 163 34 219 76h3l-6 -35c-65 -41 -149 -70 -224 -70z
" />
    <glyph glyph-name="ccaron.smcp" horiz-adv-x="607" 
d="M543 711l-140 -111h-7l-102 111l1 2h34l76 -81l104 81h35zM407 570c74 0 148 -29 198 -70l-6 -35h-3c-40 42 -117 76 -191 76c-150 0 -289 -116 -315 -261c-26 -147 74 -261 222 -261c74 0 163 34 219 76h3l-6 -35c-65 -41 -149 -70 -224 -70c-163 0 -273 128 -245 290
c28 159 182 290 348 290z" />
    <glyph glyph-name="ccedilla.smcp" horiz-adv-x="607" 
d="M407 570c74 0 148 -29 198 -70l-6 -35h-3c-40 42 -117 76 -191 76c-150 0 -289 -116 -315 -261c-26 -147 74 -261 222 -261c74 0 163 34 219 76h3l-6 -35c-65 -41 -149 -70 -224 -70h-9l-31 -39c13 2 26 4 34 4c43 0 69 -22 63 -55c-6 -39 -51 -66 -110 -66
c-18 0 -40 4 -52 8l4 22c13 -5 34 -9 50 -9c42 0 76 17 81 44c4 21 -15 36 -48 36c-16 0 -39 -3 -53 -7l-3 8l42 56c-145 16 -239 137 -213 288c28 159 182 290 348 290z" />
    <glyph glyph-name="cdotaccent.smcp" horiz-adv-x="607" 
d="M405 633c-13 0 -23 12 -21 24s16 23 29 23c12 0 21 -11 19 -23s-15 -24 -27 -24zM304 -10c-163 0 -273 128 -245 290c28 159 182 290 348 290c74 0 148 -29 198 -70l-6 -35h-3c-40 42 -117 76 -191 76c-150 0 -289 -116 -315 -261c-26 -147 74 -261 222 -261
c74 0 163 34 219 76h3l-6 -35c-65 -41 -149 -70 -224 -70z" />
    <glyph glyph-name="d.smcp" horiz-adv-x="590" 
d="M156 560h163c166 0 248 -120 219 -280c-28 -161 -155 -280 -318 -280h-163zM507 280c26 147 -49 251 -193 251h-133l-89 -502h133c145 0 257 106 282 251z" />
    <glyph glyph-name="eth.smcp" horiz-adv-x="594" 
d="M160 560h163c166 0 248 -120 219 -280c-28 -161 -155 -280 -318 -280h-163l47 267h-80l5 25h80zM511 280c26 147 -49 251 -193 251h-133l-42 -239h212l-5 -25h-212l-42 -238h133c145 0 257 106 282 251z" />
    <glyph glyph-name="dcaron.smcp" horiz-adv-x="590" 
d="M496 711l-140 -111h-7l-102 111l1 2h34l75 -82l105 82h35zM156 560h163c166 0 248 -120 219 -280c-28 -161 -155 -280 -318 -280h-163zM507 280c26 147 -49 251 -193 251h-133l-89 -502h133c145 0 257 106 282 251z" />
    <glyph glyph-name="dcroat.smcp" horiz-adv-x="594" 
d="M160 560h163c166 0 248 -120 219 -280c-28 -161 -155 -280 -318 -280h-163l47 267h-80l5 25h80zM511 280c26 147 -49 251 -193 251h-133l-42 -239h212l-5 -25h-212l-42 -238h133c145 0 257 106 282 251z" />
    <glyph glyph-name="e.smcp" horiz-adv-x="449" 
d="M455 560l-5 -29h-269l-43 -242h222l-5 -28h-222l-41 -232h270l-6 -29h-299l99 560h299z" />
    <glyph glyph-name="eacute.smcp" horiz-adv-x="449" 
d="M421 713l-1 -3l-94 -110h-26v3l89 110h32zM455 560l-5 -29h-269l-43 -242h222l-5 -28h-222l-41 -232h270l-6 -29h-299l99 560h299z" />
    <glyph glyph-name="ecaron.smcp" horiz-adv-x="449" 
d="M319 631l105 82h35l-1 -2l-140 -111h-7l-102 111l1 2h34zM356 0h-299l99 560h299l-5 -29h-269l-43 -242h222l-5 -28h-222l-41 -232h270z" />
    <glyph glyph-name="ecircumflex.smcp" horiz-adv-x="449" 
d="M404 600l-75 82l-105 -82h-34v2l141 111h7l101 -111v-2h-35zM455 560l-5 -29h-269l-43 -242h222l-5 -28h-222l-41 -232h270l-6 -29h-299l99 560h299z" />
    <glyph glyph-name="edieresis.smcp" horiz-adv-x="449" 
d="M239 634c-12 0 -22 11 -20 23c3 12 16 23 28 23c13 0 21 -11 19 -23s-14 -23 -27 -23zM400 634c-13 0 -22 11 -20 23s15 23 28 23c12 0 22 -11 19 -23c-2 -12 -15 -23 -27 -23zM455 560l-5 -29h-269l-43 -242h222l-5 -28h-222l-41 -232h270l-6 -29h-299l99 560h299z" />
    <glyph glyph-name="edotaccent.smcp" horiz-adv-x="449" 
d="M320 633c-13 0 -22 12 -20 24s15 23 28 23c12 0 21 -11 19 -23s-15 -24 -27 -24zM455 560l-5 -29h-269l-43 -242h222l-5 -28h-222l-41 -232h270l-6 -29h-299l99 560h299z" />
    <glyph glyph-name="egrave.smcp" horiz-adv-x="449" 
d="M325 603v-3h-27l-55 110l1 3h32zM455 560l-5 -29h-269l-43 -242h222l-5 -28h-222l-41 -232h270l-6 -29h-299l99 560h299z" />
    <glyph glyph-name="emacron.smcp" horiz-adv-x="449" 
d="M217 668h216l-5 -25h-216zM455 560l-5 -29h-269l-43 -242h222l-5 -28h-222l-41 -232h270l-6 -29h-299l99 560h299z" />
    <glyph glyph-name="eogonek.smcp" horiz-adv-x="449" 
d="M455 560l-5 -29h-269l-43 -242h222l-5 -28h-222l-41 -232h270l-6 -29h-86c-41 -25 -61 -58 -65 -80c-7 -46 19 -64 64 -64c22 0 44 9 55 16l-4 -24c-12 -7 -35 -15 -57 -15c-55 0 -91 26 -81 82c4 25 20 59 60 85h-185l99 560h299z" />
    <glyph glyph-name="uni1EBD.smcp" horiz-adv-x="449" 
d="M264 668c-25 0 -41 -18 -46 -46h-25c7 43 37 73 73 73c44 0 77 -44 114 -44c24 0 41 18 46 44h25c-8 -42 -38 -70 -74 -70c-45 0 -74 43 -113 43zM455 560l-5 -29h-269l-43 -242h222l-5 -28h-222l-41 -232h270l-6 -29h-299l99 560h299z" />
    <glyph glyph-name="f.smcp" horiz-adv-x="437" 
d="M455 560l-5 -29h-269l-43 -242h222l-5 -28h-222l-46 -261h-30l99 560h299z" />
    <glyph glyph-name="g.smcp" horiz-adv-x="633" 
d="M397 570c84 0 152 -28 193 -71l-6 -34h-3c-40 46 -105 77 -189 76c-142 0 -276 -116 -302 -261c-18 -103 13 -261 216 -261c70 0 139 21 204 56l31 172h-207l5 28h237l-39 -218c-83 -44 -168 -67 -240 -67c-205 0 -261 158 -238 290c29 162 180 290 338 290z" />
    <glyph glyph-name="gbreve.smcp" horiz-adv-x="633" 
d="M387 600c-65 0 -113 49 -101 113h24c-9 -50 30 -91 81 -91c50 0 103 41 112 91h25c-12 -64 -77 -113 -141 -113zM397 570c84 0 152 -28 193 -71l-6 -34h-3c-40 46 -105 77 -189 76c-142 0 -276 -116 -302 -261c-18 -103 13 -261 216 -261c70 0 139 21 204 56l31 172h-207
l5 28h237l-39 -218c-83 -44 -168 -67 -240 -67c-205 0 -261 158 -238 290c29 162 180 290 338 290z" />
    <glyph glyph-name="uni0123.smcp" horiz-adv-x="633" 
d="M397 570c84 0 152 -28 193 -71l-6 -34h-3c-40 46 -105 77 -189 76c-142 0 -276 -116 -302 -261c-18 -103 13 -261 216 -261c70 0 139 21 204 56l31 172h-207l5 28h237l-39 -218c-83 -44 -168 -67 -240 -67c-205 0 -261 158 -238 290c29 162 180 290 338 290zM195 -171
l1 4l64 122h28l-1 -4l-67 -122h-25z" />
    <glyph glyph-name="gdotaccent.smcp" horiz-adv-x="633" 
d="M394 633c-13 0 -22 12 -20 24s15 23 28 23c12 0 22 -11 20 -23c-3 -12 -16 -24 -28 -24zM397 570c84 0 152 -28 193 -71l-6 -34h-3c-40 46 -105 77 -189 76c-142 0 -276 -116 -302 -261c-18 -103 13 -261 216 -261c70 0 139 21 204 56l31 172h-207l5 28h237l-39 -218
c-83 -44 -168 -67 -240 -67c-205 0 -261 158 -238 290c29 162 180 290 338 290z" />
    <glyph glyph-name="h.smcp" horiz-adv-x="677" 
d="M551 289l48 271h30l-99 -560h-30l46 261h-413l-46 -261h-30l99 560h30l-48 -271h413z" />
    <glyph glyph-name="hbar.smcp" horiz-adv-x="678" 
d="M608 442h50l-5 -26h-49l-74 -416h-30l46 261h-413l-46 -261h-30l74 416h-50l5 26h49l21 118h30l-21 -118h413l21 118h30zM138 289h413l23 127h-413z" />
    <glyph glyph-name="hcircumflex.smcp" horiz-adv-x="677" 
d="M490 600l-75 81l-104 -81h-35v2l141 111h7l101 -111v-2h-35zM551 289l48 271h30l-99 -560h-30l46 261h-413l-46 -261h-30l99 560h30l-48 -271h413z" />
    <glyph glyph-name="i.smcp" horiz-adv-x="234" 
d="M87 0h-30l99 560h30z" />
    <glyph glyph-name="iacute.smcp" horiz-adv-x="234" 
d="M190 600h-27v3l89 110h33l-1 -3zM87 0h-30l99 560h30z" />
    <glyph glyph-name="uni01D0.smcp" horiz-adv-x="234" 
d="M183 632l105 81h34l-1 -2l-140 -111h-7l-102 111l1 2h34zM87 0h-30l99 560h30z" />
    <glyph glyph-name="icircumflex.smcp" horiz-adv-x="234" 
d="M194 713h7l101 -111v-2h-34l-76 81l-105 -81h-34v2zM87 0h-30l99 560h30z" />
    <glyph glyph-name="idieresis.smcp" horiz-adv-x="234" 
d="M104 634c-13 0 -22 11 -20 23s15 23 28 23s22 -11 20 -23s-16 -23 -28 -23zM264 634c-13 0 -22 11 -20 23s15 23 28 23s22 -11 20 -23s-16 -23 -28 -23zM87 0h-30l99 560h30z" />
    <glyph glyph-name="i.loclTRK.smcp" horiz-adv-x="234" 
d="M185 633c-13 0 -22 12 -20 24s15 23 28 23s22 -11 20 -23s-16 -24 -28 -24zM87 0h-30l99 560h30z" />
    <glyph glyph-name="igrave.smcp" horiz-adv-x="234" 
d="M191 600h-28l-55 110l1 3h32l50 -110v-3zM87 0h-30l99 560h30z" />
    <glyph glyph-name="ij.smcp" horiz-adv-x="735" 
d="M87 0h-30l99 560h30zM442 531l6 29h249l-59 -331c-26 -150 -128 -239 -244 -239c-119 0 -190 70 -164 219l1 8h30l-1 -7c-21 -118 26 -190 139 -191c108 -1 189 95 210 212l53 300h-220z" />
    <glyph glyph-name="imacron.smcp" horiz-adv-x="234" 
d="M292 643h-216l5 25h217zM87 0h-30l99 560h30z" />
    <glyph glyph-name="iogonek.smcp" horiz-adv-x="234" 
d="M14 -74c-8 -47 20 -65 65 -65c20 0 43 9 54 16l-4 -23c-12 -8 -36 -15 -56 -15c-56 0 -92 26 -82 81c5 26 22 64 69 90l97 550h30l-99 -560h-18c-35 -24 -53 -54 -56 -74z" />
    <glyph glyph-name="itilde.smcp" horiz-adv-x="234" 
d="M84 622h-26c7 43 37 73 74 73c43 0 76 -44 113 -44c24 0 41 18 46 44h27c-8 -41 -39 -70 -76 -70c-44 0 -74 43 -113 43c-25 0 -41 -19 -45 -46zM87 0h-30l99 560h30z" />
    <glyph glyph-name="j.smcp" horiz-adv-x="533" 
d="M242 531l5 29h248l-59 -331c-26 -150 -127 -239 -243 -239c-119 0 -189 70 -163 219l1 8h29l-1 -7c-22 -122 31 -190 139 -191c107 -1 188 93 209 212l53 300h-218z" />
    <glyph glyph-name="k.smcp" horiz-adv-x="504" 
d="M477 560h31c-29 -166 -176 -274 -321 -299l243 -252l-2 -9h-32l-261 271l-48 -271h-30l99 560h30l-49 -277c144 3 309 109 340 277z" />
    <glyph glyph-name="uni0137.smcp" horiz-adv-x="504" 
d="M477 560h31c-29 -166 -176 -274 -321 -299l243 -252l-2 -9h-32l-261 271l-48 -271h-30l99 560h30l-49 -277c144 3 309 109 340 277zM152 -171l1 4l63 122h28l-1 -4l-67 -122h-24z" />
    <glyph glyph-name="l.smcp" horiz-adv-x="428" 
d="M186 560l-94 -531h269l-5 -29h-299l99 560h30z" />
    <glyph glyph-name="lacute.smcp" horiz-adv-x="428" 
d="M287 713l-1 -3l-94 -110h-27v3l89 110h33zM186 560l-94 -531h269l-5 -29h-299l99 560h30z" />
    <glyph glyph-name="lcaron.smcp" horiz-adv-x="430" 
d="M293 454l91 146h29l-1 -5l-92 -141h-27zM156 560h30l-94 -531h269l-5 -29h-299z" />
    <glyph glyph-name="uni013C.smcp" horiz-adv-x="428" 
d="M186 560l-94 -531h269l-5 -29h-299l99 560h30zM86 -171l1 4l64 122h28l-1 -4l-67 -122h-25z" />
    <glyph glyph-name="ldot.smcp" horiz-adv-x="429" 
d="M186 560l-94 -531h269l-5 -29h-299l99 560h30zM288 235c-14 0 -23 12 -21 25s16 26 31 26c12 0 22 -12 20 -26c-3 -14 -17 -25 -30 -25z" />
    <glyph glyph-name="lslash.smcp" horiz-adv-x="440" 
d="M134 210l-32 -181h270l-5 -29h-300l34 193l-72 -37l5 30l72 37l60 337h30l-57 -320l174 89l-6 -29z" />
    <glyph glyph-name="m.smcp" horiz-adv-x="799" 
d="M369 95l319 465h15l-13 -560h-29l7 481l-301 -441h-14l-144 440l-163 -480h-30l186 560h14z" />
    <glyph glyph-name="n.smcp" horiz-adv-x="674" 
d="M508 63l88 497h30l-99 -560h-16l-336 499l-88 -499h-30l99 560h18z" />
    <glyph glyph-name="nacute.smcp" horiz-adv-x="674" 
d="M505 713l-1 -3l-93 -110h-27v3l89 110h32zM508 63l88 497h30l-99 -560h-16l-336 499l-88 -499h-30l99 560h18z" />
    <glyph glyph-name="ncaron.smcp" horiz-adv-x="674" 
d="M543 711l-140 -111h-7l-102 111l1 2h33l76 -82l105 82h35zM508 63l88 497h30l-99 -560h-16l-336 499l-88 -499h-30l99 560h18z" />
    <glyph glyph-name="uni0146.smcp" horiz-adv-x="674" 
d="M508 63l88 497h30l-99 -560h-16l-336 499l-88 -499h-30l99 560h18zM205 -171l1 4l64 122h28l-1 -4l-66 -122h-26z" />
    <glyph glyph-name="eng.smcp" horiz-adv-x="674" 
d="M517 113l79 447h30l-86 -487c-27 -150 -117 -239 -259 -239c-23 0 -43 3 -59 7l5 29c15 -5 36 -8 59 -8c130 0 201 91 223 206v2l-334 435l-88 -505h-30l99 560h20z" />
    <glyph glyph-name="ntilde.smcp" horiz-adv-x="674" 
d="M349 668c-25 0 -41 -18 -46 -46h-27c8 43 39 73 75 73c44 0 77 -44 114 -44c24 0 41 19 46 44h25c-8 -42 -38 -70 -74 -70c-45 0 -74 43 -113 43zM508 63l88 497h30l-99 -560h-16l-336 499l-88 -499h-30l99 560h18z" />
    <glyph glyph-name="o.smcp" horiz-adv-x="687" 
d="M296 -10c-166 0 -265 130 -237 290c29 161 177 290 340 290c167 0 266 -130 237 -290c-28 -161 -177 -290 -340 -290zM301 19c146 0 279 116 304 261c26 147 -66 261 -211 261c-147 0 -278 -117 -304 -261c-26 -147 67 -261 211 -261z" />
    <glyph glyph-name="oacute.smcp" horiz-adv-x="687" 
d="M417 600h-26v3l89 110h32l-1 -3zM296 -10c-166 0 -265 130 -237 290c29 161 177 290 340 290c167 0 266 -130 237 -290c-28 -161 -177 -290 -340 -290zM301 19c146 0 279 116 304 261c26 147 -66 261 -211 261c-147 0 -278 -117 -304 -261c-26 -147 67 -261 211 -261z
" />
    <glyph glyph-name="uni01D2.smcp" horiz-adv-x="687" 
d="M549 711l-140 -111h-7l-102 111l1 2h34l75 -82l105 82h35zM399 570c167 0 266 -130 237 -290c-28 -161 -177 -290 -340 -290c-166 0 -265 130 -237 290c29 161 177 290 340 290zM605 280c26 147 -66 261 -211 261c-147 0 -278 -117 -304 -261c-26 -147 67 -261 211 -261
c146 0 279 116 304 261z" />
    <glyph glyph-name="ocircumflex.smcp" horiz-adv-x="687" 
d="M495 600l-75 82l-105 -82h-34v2l141 111h7l101 -111v-2h-35zM399 570c167 0 266 -130 237 -290c-28 -161 -177 -290 -340 -290c-166 0 -265 130 -237 290c29 161 177 290 340 290zM605 280c26 147 -66 261 -211 261c-147 0 -278 -117 -304 -261
c-26 -147 67 -261 211 -261c146 0 279 116 304 261z" />
    <glyph glyph-name="odieresis.smcp" horiz-adv-x="687" 
d="M330 634c-12 0 -22 11 -20 23c3 12 16 23 28 23c13 0 21 -11 19 -23s-14 -23 -27 -23zM491 634c-13 0 -22 11 -20 23s15 23 28 23c12 0 21 -11 18 -23c-2 -12 -14 -23 -26 -23zM296 -10c-166 0 -265 130 -237 290c29 161 177 290 340 290c167 0 266 -130 237 -290
c-28 -161 -177 -290 -340 -290zM301 19c146 0 279 116 304 261c26 147 -66 261 -211 261c-147 0 -278 -117 -304 -261c-26 -147 67 -261 211 -261z" />
    <glyph glyph-name="ograve.smcp" horiz-adv-x="687" 
d="M416 600h-27l-55 110l1 3h32l49 -110v-3zM296 -10c-166 0 -265 130 -237 290c29 161 177 290 340 290c167 0 266 -130 237 -290c-28 -161 -177 -290 -340 -290zM301 19c146 0 279 116 304 261c26 147 -66 261 -211 261c-147 0 -278 -117 -304 -261
c-26 -147 67 -261 211 -261z" />
    <glyph glyph-name="ohungarumlaut.smcp" horiz-adv-x="687" 
d="M363 600h-27v3l75 110h30l-1 -3zM455 600h-27v3l75 110h31l-1 -3zM296 -10c-166 0 -265 130 -237 290c29 161 177 290 340 290c167 0 266 -130 237 -290c-28 -161 -177 -290 -340 -290zM301 19c146 0 279 116 304 261c26 147 -66 261 -211 261
c-147 0 -278 -117 -304 -261c-26 -147 67 -261 211 -261z" />
    <glyph glyph-name="omacron.smcp" horiz-adv-x="687" 
d="M519 643h-216l5 25h216zM296 -10c-166 0 -265 130 -237 290c29 161 177 290 340 290c167 0 266 -130 237 -290c-28 -161 -177 -290 -340 -290zM301 19c146 0 279 116 304 261c26 147 -66 261 -211 261c-147 0 -278 -117 -304 -261c-26 -147 67 -261 211 -261z" />
    <glyph glyph-name="oslash.smcp" horiz-adv-x="696" 
d="M675 590l18 -18l-97 -87c42 -53 59 -125 45 -205c-28 -161 -177 -290 -340 -290c-74 0 -134 26 -176 68l-96 -87l-17 18l97 88c-42 52 -59 124 -45 203c29 161 177 290 340 290c73 0 133 -25 175 -67zM95 280c-13 -71 3 -135 38 -181l422 382c-38 38 -92 60 -156 60
c-147 0 -278 -117 -304 -261zM610 280c13 72 -3 135 -39 182l-421 -382c37 -38 92 -61 156 -61c146 0 279 116 304 261z" />
    <glyph glyph-name="oslashacute.smcp" horiz-adv-x="696" 
d="M516 713l-1 -3l-93 -110h-26v3l89 110h31zM675 590l18 -18l-97 -87c42 -53 59 -125 45 -205c-28 -161 -177 -290 -340 -290c-74 0 -134 26 -176 68l-96 -87l-17 18l97 88c-42 52 -59 124 -45 203c29 161 177 290 340 290c73 0 133 -25 175 -67zM95 280
c-13 -71 3 -135 38 -181l422 382c-38 38 -92 60 -156 60c-147 0 -278 -117 -304 -261zM610 280c13 72 -3 135 -39 182l-421 -382c37 -38 92 -61 156 -61c146 0 279 116 304 261z" />
    <glyph glyph-name="otilde.smcp" horiz-adv-x="687" 
d="M309 622h-25c7 43 37 73 73 73c44 0 77 -44 114 -44c24 0 41 18 46 44h25c-8 -42 -38 -70 -74 -70c-45 0 -74 43 -113 43c-25 0 -41 -18 -46 -46zM296 -10c-166 0 -265 130 -237 290c29 161 177 290 340 290c167 0 266 -130 237 -290c-28 -161 -177 -290 -340 -290z
M301 19c146 0 279 116 304 261c26 147 -66 261 -211 261c-147 0 -278 -117 -304 -261c-26 -147 67 -261 211 -261z" />
    <glyph glyph-name="oe.smcp" horiz-adv-x="950" 
d="M956 560l-5 -29h-270l-43 -242h224l-5 -28h-224l-41 -232h270l-5 -29h-300l27 153c-62 -97 -171 -163 -288 -163c-166 0 -265 130 -237 290c29 161 177 290 340 290c119 0 203 -66 230 -162l27 152h300zM301 19c146 0 280 116 305 261c26 147 -67 261 -212 261
c-147 0 -278 -117 -304 -261c-26 -147 67 -261 211 -261z" />
    <glyph glyph-name="p.smcp" horiz-adv-x="481" 
d="M156 560h116c133 0 211 -62 192 -171c-20 -109 -121 -171 -253 -171h-85l-39 -218h-30zM433 389c16 91 -52 142 -167 142h-85l-51 -285h86c114 0 200 51 217 143z" />
    <glyph glyph-name="thorn.smcp" horiz-adv-x="512" 
d="M168 457h108c134 0 212 -63 192 -171c-19 -109 -120 -171 -254 -171h-107l-20 -115h-30l99 560h30zM437 286c16 91 -51 142 -167 142h-107l-51 -284h108c115 0 201 50 217 142z" />
    <glyph glyph-name="q.smcp" horiz-adv-x="687" 
d="M399 570c167 0 266 -130 237 -290c-27 -155 -167 -281 -323 -290l-22 -126h-31l22 126c-158 7 -250 135 -223 290c29 161 177 290 340 290zM605 280c26 147 -66 261 -211 261c-147 0 -278 -117 -304 -261c-26 -147 67 -261 211 -261c146 0 279 116 304 261z" />
    <glyph glyph-name="r.smcp" horiz-adv-x="550" 
d="M156 560h176c129 0 193 -60 175 -161c-13 -78 -66 -132 -147 -153c67 -24 94 -86 90 -161l-4 -85h-30l3 85c3 84 -40 149 -148 149h-143l-41 -234h-30zM476 399c15 83 -40 132 -149 132h-146l-48 -269h146c110 0 183 51 197 137z" />
    <glyph glyph-name="racute.smcp" horiz-adv-x="550" 
d="M410 713l-1 -3l-93 -110h-28v3l89 110h33zM156 560h176c129 0 193 -60 175 -161c-13 -78 -66 -132 -147 -153c67 -24 94 -86 90 -161l-4 -85h-30l3 85c3 84 -40 149 -148 149h-143l-41 -234h-30zM476 399c15 83 -40 132 -149 132h-146l-48 -269h146c110 0 183 51 197 137
z" />
    <glyph glyph-name="rcaron.smcp" horiz-adv-x="550" 
d="M467 713l-141 -111h-7l-101 111v2h35l75 -81l105 81h34v-2zM156 560h176c129 0 193 -60 175 -161c-13 -78 -66 -132 -147 -153c67 -24 94 -86 90 -161l-4 -85h-30l3 85c3 84 -40 149 -148 149h-143l-41 -234h-30zM476 399c15 83 -40 132 -149 132h-146l-48 -269h146
c110 0 183 51 197 137z" />
    <glyph glyph-name="uni0157.smcp" horiz-adv-x="550" 
d="M156 560h176c129 0 193 -60 175 -161c-13 -78 -66 -132 -147 -153c67 -24 94 -86 90 -161l-4 -85h-30l3 85c3 84 -40 149 -148 149h-143l-41 -234h-30zM476 399c15 83 -40 132 -149 132h-146l-48 -269h146c110 0 183 51 197 137zM154 -171l1 4l64 122h28l-1 -4l-67 -122
h-25z" />
    <glyph glyph-name="s.smcp" horiz-adv-x="471" 
d="M185 -10c-63 0 -131 20 -169 49l6 33c32 -32 100 -53 165 -53c99 0 174 49 187 120c9 58 -25 101 -89 116l-100 25c-69 16 -102 74 -90 142c16 89 97 148 204 148c50 0 109 -13 138 -35l-5 -34c-24 22 -79 40 -136 40c-95 0 -158 -51 -171 -120c-10 -57 18 -101 76 -116
l106 -25c72 -16 109 -73 97 -140c-16 -83 -99 -150 -219 -150z" />
    <glyph glyph-name="sacute.smcp" horiz-adv-x="471" 
d="M326 600h-27v3l89 110h33l-1 -3zM185 -10c-63 0 -131 20 -169 49l6 33c32 -32 100 -53 165 -53c99 0 174 49 187 120c9 58 -25 101 -89 116l-100 25c-69 16 -102 74 -90 142c16 89 97 148 204 148c50 0 109 -13 138 -35l-5 -34c-24 22 -79 40 -136 40
c-95 0 -158 -51 -171 -120c-10 -57 18 -101 76 -116l106 -25c72 -16 109 -73 97 -140c-16 -83 -99 -150 -219 -150z" />
    <glyph glyph-name="scaron.smcp" horiz-adv-x="471" 
d="M320 632l104 81h34l-1 -2l-140 -111h-7l-101 111l1 2h34zM95 422c16 89 97 148 204 148c50 0 109 -13 138 -35l-5 -34c-24 22 -79 40 -136 40c-95 0 -158 -51 -171 -120c-10 -57 18 -101 76 -116l106 -25c72 -16 109 -73 97 -140c-16 -83 -99 -150 -219 -150
c-63 0 -131 20 -169 49l6 33c32 -32 100 -53 165 -53c99 0 174 49 187 120c9 58 -25 101 -89 116l-100 25c-69 16 -102 74 -90 142z" />
    <glyph glyph-name="scedilla.smcp" horiz-adv-x="471" 
d="M296 541c-95 0 -158 -51 -171 -120c-10 -57 18 -101 76 -116l106 -25c72 -16 109 -73 97 -140c-15 -79 -91 -143 -201 -149l-30 -40c13 2 25 4 34 4c43 0 69 -22 63 -55c-6 -39 -52 -66 -111 -66c-15 0 -37 3 -52 8l4 22c13 -5 33 -9 50 -9c44 0 77 18 81 44
c4 21 -14 36 -47 36c-18 0 -40 -3 -55 -7l-3 8l41 54c-61 1 -125 21 -162 49l6 33c32 -32 100 -53 165 -53c99 0 174 49 187 120c9 58 -25 101 -89 116l-100 25c-69 16 -102 74 -90 142c16 89 97 148 204 148c50 0 109 -13 138 -35l-5 -34c-24 22 -79 40 -136 40z" />
    <glyph glyph-name="uni0219.smcp" horiz-adv-x="471" 
d="M185 -10c-63 0 -131 20 -169 49l6 33c32 -32 100 -53 165 -53c99 0 174 49 187 120c9 58 -25 101 -89 116l-100 25c-69 16 -102 74 -90 142c16 89 97 148 204 148c50 0 109 -13 138 -35l-5 -34c-24 22 -79 40 -136 40c-95 0 -158 -51 -171 -120c-10 -57 18 -101 76 -116
l106 -25c72 -16 109 -73 97 -140c-16 -83 -99 -150 -219 -150zM138 -171h-26l1 4l63 122h29l-1 -4z" />
    <glyph glyph-name="germandbls.smcp" horiz-adv-x="584" 
d="M546 532l-172 -207c104 -14 156 -78 141 -167c-17 -95 -104 -168 -214 -168c-45 0 -103 13 -143 31l5 28c40 -18 100 -30 142 -30c94 0 166 63 179 141c15 83 -44 134 -146 144l2 21l160 193c-34 16 -77 23 -124 23c-137 0 -221 -93 -241 -211l-58 -330h-30l58 331
c23 131 118 239 278 239c60 0 115 -10 158 -31z" />
    <glyph glyph-name="t.smcp" horiz-adv-x="509" 
d="M83 560h451l-6 -29h-209l-94 -531h-30l94 531h-211z" />
    <glyph glyph-name="tbar.smcp" horiz-adv-x="520" 
d="M537 560l-6 -29h-209l-37 -209h144l-5 -26h-143l-53 -296h-30l53 296h-147l5 26h146l37 209h-211l5 29h451z" />
    <glyph glyph-name="tcaron.smcp" horiz-adv-x="509" 
d="M459 711l-140 -111h-7l-101 111l1 2h34l76 -81l104 81h34zM83 560h451l-6 -29h-209l-94 -531h-30l94 531h-211z" />
    <glyph glyph-name="uni0163.smcp" horiz-adv-x="509" 
d="M319 531l-94 -531h-6l-39 -49c13 2 25 4 34 4c43 0 69 -22 63 -55c-6 -39 -51 -66 -110 -66c-15 0 -37 3 -52 8l4 22c13 -5 33 -9 50 -9c44 0 78 18 82 44c4 21 -15 36 -48 36c-18 0 -40 -3 -55 -7l-2 8l49 66l94 529h-211l5 29h451l-6 -29h-209z" />
    <glyph glyph-name="uni021B.smcp" horiz-adv-x="509" 
d="M83 560h451l-6 -29h-209l-94 -531h-30l94 531h-211zM119 -171l1 4l63 122h29l-1 -4l-67 -122h-25z" />
    <glyph glyph-name="u.smcp" horiz-adv-x="641" 
d="M274 -10c-136 0 -211 94 -186 236l59 334h30l-60 -337c-21 -122 44 -204 163 -204s212 82 234 205l59 336h30l-59 -334c-25 -141 -133 -236 -270 -236z" />
    <glyph glyph-name="uacute.smcp" horiz-adv-x="641" 
d="M395 600h-26v3l89 110h32l-1 -3zM274 -10c-136 0 -211 94 -186 236l59 334h30l-60 -337c-21 -122 44 -204 163 -204s212 82 234 205l59 336h30l-59 -334c-25 -141 -133 -236 -270 -236z" />
    <glyph glyph-name="uni01D4.smcp" horiz-adv-x="641" 
d="M527 711l-140 -111h-7l-102 111l1 2h34l75 -82l105 82h35zM514 224l59 336h30l-59 -334c-25 -141 -133 -236 -270 -236c-136 0 -211 94 -186 236l59 334h30l-60 -337c-21 -122 44 -204 163 -204s212 82 234 205z" />
    <glyph glyph-name="ucircumflex.smcp" horiz-adv-x="641" 
d="M473 600l-75 82l-105 -82h-34v2l141 111h7l101 -111v-2h-35zM514 224l59 336h30l-59 -334c-25 -141 -133 -236 -270 -236c-136 0 -211 94 -186 236l59 334h30l-60 -337c-21 -122 44 -204 163 -204s212 82 234 205z" />
    <glyph glyph-name="udieresis.smcp" horiz-adv-x="641" 
d="M308 634c-12 0 -22 11 -20 23s16 23 28 23c13 0 21 -11 19 -23s-14 -23 -27 -23zM469 634c-13 0 -22 11 -20 23s15 23 28 23c12 0 20 -11 18 -23s-14 -23 -26 -23zM274 -10c-136 0 -211 94 -186 236l59 334h30l-60 -337c-21 -122 44 -204 163 -204s212 82 234 205l59 336
h30l-59 -334c-25 -141 -133 -236 -270 -236z" />
    <glyph glyph-name="uni01D8.smcp" horiz-adv-x="641" 
d="M418 734h-26l1 3l88 109h32v-2zM308 634c-12 0 -22 11 -20 23s16 23 28 23c13 0 21 -11 19 -23s-14 -23 -27 -23zM469 634c-13 0 -22 11 -20 23s15 23 28 23c12 0 20 -11 18 -23s-14 -23 -26 -23zM274 -10c-136 0 -211 94 -186 236l59 334h30l-60 -337
c-21 -122 44 -204 163 -204s212 82 234 205l59 336h30l-59 -334c-25 -141 -133 -236 -270 -236z" />
    <glyph glyph-name="uni01DA.smcp" horiz-adv-x="641" 
d="M551 844l-141 -110h-7l-101 110v2h34l75 -82l105 82h35v-2zM308 634c-12 0 -22 11 -20 23s16 23 28 23c13 0 21 -11 19 -23s-14 -23 -27 -23zM449 657c2 12 15 23 28 23c12 0 20 -11 18 -23s-14 -23 -26 -23c-13 0 -22 11 -20 23zM514 224l59 336h30l-59 -334
c-25 -141 -133 -236 -270 -236c-136 0 -211 94 -186 236l59 334h30l-60 -337c-21 -122 44 -204 163 -204s212 82 234 205z" />
    <glyph glyph-name="uni01DC.smcp" horiz-adv-x="641" 
d="M417 734h-27l-54 110v2h32l50 -109zM308 634c-12 0 -22 11 -20 23s16 23 28 23c13 0 21 -11 19 -23s-14 -23 -27 -23zM469 634c-13 0 -22 11 -20 23s15 23 28 23c12 0 20 -11 18 -23s-14 -23 -26 -23zM274 -10c-136 0 -211 94 -186 236l59 334h30l-60 -337
c-21 -122 44 -204 163 -204s212 82 234 205l59 336h30l-59 -334c-25 -141 -133 -236 -270 -236z" />
    <glyph glyph-name="uni01D6.smcp" horiz-adv-x="641" 
d="M521 777h-216l4 25h216zM308 634c-12 0 -22 11 -20 23s16 23 28 23c13 0 21 -11 19 -23s-14 -23 -27 -23zM469 634c-13 0 -22 11 -20 23s15 23 28 23c12 0 20 -11 18 -23s-14 -23 -26 -23zM274 -10c-136 0 -211 94 -186 236l59 334h30l-60 -337
c-21 -122 44 -204 163 -204s212 82 234 205l59 336h30l-59 -334c-25 -141 -133 -236 -270 -236z" />
    <glyph glyph-name="ugrave.smcp" horiz-adv-x="641" 
d="M394 600h-27l-55 110l1 3h32l49 -110v-3zM274 -10c-136 0 -211 94 -186 236l59 334h30l-60 -337c-21 -122 44 -204 163 -204s212 82 234 205l59 336h30l-59 -334c-25 -141 -133 -236 -270 -236z" />
    <glyph glyph-name="uhungarumlaut.smcp" horiz-adv-x="641" 
d="M341 600h-27v3l75 110h30l-1 -3zM433 600h-27v3l75 110h31l-1 -3zM274 -10c-136 0 -211 94 -186 236l59 334h30l-60 -337c-21 -122 44 -204 163 -204s212 82 234 205l59 336h30l-59 -334c-25 -141 -133 -236 -270 -236z" />
    <glyph glyph-name="umacron.smcp" horiz-adv-x="641" 
d="M497 643h-216l5 25h216zM274 -10c-136 0 -211 94 -186 236l59 334h30l-60 -337c-21 -122 44 -204 163 -204s212 82 234 205l59 336h30l-59 -334c-25 -141 -133 -236 -270 -236z" />
    <glyph glyph-name="uogonek.smcp" horiz-adv-x="641" 
d="M514 224l59 336h30l-59 -334c-24 -134 -122 -226 -249 -235c-32 -23 -48 -51 -51 -71c-8 -46 19 -64 64 -64c24 0 46 10 55 16l-4 -24c-12 -7 -34 -15 -56 -15c-55 0 -92 26 -82 82c4 21 16 50 47 75c-132 3 -205 96 -180 236l59 334h30l-60 -337
c-21 -122 44 -204 163 -204s212 82 234 205z" />
    <glyph glyph-name="uring.smcp" horiz-adv-x="641" 
d="M385 619c-51 1 -82 39 -74 85s55 84 105 84c48 0 81 -38 73 -84c-8 -47 -54 -86 -104 -85zM390 643c35 0 69 27 75 61c6 33 -18 61 -53 61c-37 0 -71 -28 -77 -61c-6 -34 18 -61 55 -61zM274 -10c-136 0 -211 94 -186 236l59 334h30l-60 -337c-21 -122 44 -204 163 -204
s212 82 234 205l59 336h30l-59 -334c-25 -141 -133 -236 -270 -236z" />
    <glyph glyph-name="utilde.smcp" horiz-adv-x="641" 
d="M287 622h-25c7 43 37 73 73 73c44 0 77 -44 114 -44c24 0 41 18 46 44h25c-8 -42 -38 -70 -74 -70c-45 0 -74 43 -113 43c-25 0 -41 -18 -46 -46zM274 -10c-136 0 -211 94 -186 236l59 334h30l-60 -337c-21 -122 44 -204 163 -204s212 82 234 205l59 336h30l-59 -334
c-25 -141 -133 -236 -270 -236z" />
    <glyph glyph-name="v.smcp" horiz-adv-x="558" 
d="M244 52l317 508h30l-1 -4l-348 -556h-16l-152 556l1 4h30z" />
    <glyph glyph-name="w.smcp" horiz-adv-x="909" 
d="M621 63l282 497h35l-1 -4l-316 -556h-21l-112 448l-271 -448h-19l-120 556l1 4h35l106 -497l270 443h17z" />
    <glyph glyph-name="wacute.smcp" horiz-adv-x="909" 
d="M622 713l-1 -3l-93 -110h-26v3l88 110h32zM621 63l282 497h35l-1 -4l-316 -556h-21l-112 448l-271 -448h-19l-120 556l1 4h35l106 -497l270 443h17z" />
    <glyph glyph-name="wcircumflex.smcp" horiz-adv-x="909" 
d="M606 600l-75 82l-106 -82h-33v2l141 111h7l101 -111v-2h-35zM621 63l282 497h35l-1 -4l-316 -556h-21l-112 448l-271 -448h-19l-120 556l1 4h35l106 -497l270 443h17z" />
    <glyph glyph-name="wdieresis.smcp" horiz-adv-x="909" 
d="M441 634c-13 0 -22 10 -20 23c2 12 16 23 28 23s21 -11 19 -23s-15 -23 -27 -23zM601 634c-12 0 -22 11 -20 23c3 12 16 23 28 23c13 0 21 -11 19 -23c-2 -13 -15 -23 -27 -23zM621 63l282 497h35l-1 -4l-316 -556h-21l-112 448l-271 -448h-19l-120 556l1 4h35l106 -497
l270 443h17z" />
    <glyph glyph-name="wgrave.smcp" horiz-adv-x="909" 
d="M527 603v-3h-27l-56 110l1 3h33zM621 63l282 497h35l-1 -4l-316 -556h-21l-112 448l-271 -448h-19l-120 556l1 4h35l106 -497l270 443h17z" />
    <glyph glyph-name="x.smcp" horiz-adv-x="520" 
d="M485 560h35l-1 -4l-229 -249l172 -303l-1 -4h-35l-160 281l-260 -281h-35l1 4l279 302l-142 250l1 4h34l131 -228z" />
    <glyph glyph-name="y.smcp" horiz-adv-x="535" 
d="M263 227l270 333h34l-1 -4l-293 -358l-35 -198h-30l35 197l-168 359l1 4h34z" />
    <glyph glyph-name="yacute.smcp" horiz-adv-x="535" 
d="M436 713l-1 -3l-93 -110h-28v3l89 110h33zM263 227l270 333h34l-1 -4l-293 -358l-35 -198h-30l35 197l-168 359l1 4h34z" />
    <glyph glyph-name="ycircumflex.smcp" horiz-adv-x="535" 
d="M419 600l-76 81l-104 -81h-35v2l141 111h7l101 -111v-2h-34zM263 227l270 333h34l-1 -4l-293 -358l-35 -198h-30l35 197l-168 359l1 4h34z" />
    <glyph glyph-name="ydieresis.smcp" horiz-adv-x="535" 
d="M254 634c-13 0 -22 11 -20 23s15 23 28 23s22 -11 20 -23s-16 -23 -28 -23zM414 634c-13 0 -22 11 -20 23s15 23 28 23s22 -11 20 -23s-15 -23 -28 -23zM263 227l270 333h34l-1 -4l-293 -358l-35 -198h-30l35 197l-168 359l1 4h34z" />
    <glyph glyph-name="ygrave.smcp" horiz-adv-x="535" 
d="M340 603v-3h-27l-55 110l1 3h32zM263 227l270 333h34l-1 -4l-293 -358l-35 -198h-30l35 197l-168 359l1 4h34z" />
    <glyph glyph-name="uni1EF9.smcp" horiz-adv-x="535" 
d="M278 668c-25 0 -42 -19 -46 -46h-25c7 43 37 73 74 73c43 0 76 -44 113 -44c24 0 41 18 46 44h27c-8 -42 -40 -70 -76 -70c-44 0 -74 43 -113 43zM263 227l270 333h34l-1 -4l-293 -358l-35 -198h-30l35 197l-168 359l1 4h34z" />
    <glyph glyph-name="z.smcp" horiz-adv-x="516" 
d="M99 560h434l-2 -8l-490 -523h400l-5 -29h-454l1 6l492 525h-381z" />
    <glyph glyph-name="zacute.smcp" horiz-adv-x="516" 
d="M431 713l-1 -3l-94 -110h-26v3l89 110h32zM99 560h434l-2 -8l-490 -523h400l-5 -29h-454l1 6l492 525h-381z" />
    <glyph glyph-name="zcaron.smcp" horiz-adv-x="516" 
d="M468 711l-140 -111h-7l-102 111l1 2h34l75 -82l106 82h34zM99 560h434l-2 -8l-490 -523h400l-5 -29h-454l1 6l492 525h-381z" />
    <glyph glyph-name="zdotaccent.smcp" horiz-adv-x="516" 
d="M329 633c-12 0 -21 12 -19 24s15 23 27 23c13 0 22 -11 20 -23c-3 -12 -15 -24 -28 -24zM99 560h434l-2 -8l-490 -523h400l-5 -29h-454l1 6l492 525h-381z" />
    <glyph glyph-name="ordfeminine" unicode="&#xaa;" horiz-adv-x="559" 
d="M496 629l11 61h28l-72 -408h-28l11 61c-40 -42 -109 -71 -172 -71c-122 0 -190 86 -167 214c22 128 120 214 242 214c64 0 123 -30 147 -71zM278 300c60 0 130 31 174 78l38 217c-26 46 -79 77 -146 77c-104 0 -188 -74 -207 -186c-20 -112 38 -186 141 -186zM439 187
h-344l5 28h344z" />
    <glyph glyph-name="ordmasculine" unicode="&#xba;" horiz-adv-x="574" 
d="M290 272c-117 0 -195 95 -174 217c21 119 132 211 249 211s196 -93 175 -211c-21 -122 -133 -217 -250 -217zM295 300c101 0 196 81 215 189c19 105 -49 183 -149 183c-101 0 -197 -78 -215 -183c-19 -108 48 -189 149 -189zM75 187l5 28h404l-5 -28h-404z" />
    <glyph glyph-name="zero" unicode="0" horiz-adv-x="658" 
d="M281 -12c-156 0 -235 145 -196 362c38 217 168 362 324 362c157 0 235 -145 197 -362c-39 -217 -168 -362 -325 -362zM286 16c139 0 254 134 290 334c35 200 -33 334 -172 334c-137 0 -253 -134 -289 -334c-35 -200 34 -334 171 -334z" />
    <glyph glyph-name="one" unicode="1" horiz-adv-x="309" 
d="M88 671l4 29h175l-123 -700h-30l118 671h-144z" />
    <glyph glyph-name="two" unicode="2" horiz-adv-x="549" 
d="M527 512c-17 -96 -91 -162 -171 -231l-303 -253h408l-6 -28h-443l-10 18l367 310c57 50 115 101 129 183c18 99 -38 173 -150 173c-72 0 -156 -31 -231 -87l7 36c75 51 158 79 230 79c126 0 194 -85 173 -200z" />
    <glyph glyph-name="three" unicode="3" horiz-adv-x="528" 
d="M486 535c-13 -71 -60 -133 -146 -163c82 -15 125 -95 110 -185c-20 -115 -131 -198 -283 -198c-50 0 -98 9 -163 29l6 31c34 -14 107 -33 171 -33c128 0 223 76 240 173s-52 170 -156 170h-95l4 26h97c106 0 174 74 187 153c15 86 -39 146 -148 146
c-68 0 -153 -23 -172 -31l5 29c55 20 133 30 174 30c125 0 188 -74 169 -177z" />
    <glyph glyph-name="four" unicode="4" horiz-adv-x="576" 
d="M409 215h134l-5 -29h-134l-33 -186h-30l33 186h-347l-8 12l314 502h32l-301 -485h315l31 177l26 18h7z" />
    <glyph glyph-name="five" unicode="5" horiz-adv-x="566" 
d="M530 700l-4 -29h-338l-52 -287c52 31 121 48 177 48c140 0 218 -86 195 -214c-24 -138 -147 -230 -289 -230c-70 0 -130 22 -175 62l6 36c42 -45 101 -70 173 -70c127 0 235 81 256 201c20 113 -48 188 -170 188c-58 0 -130 -20 -202 -58l-5 9l60 344h368z" />
    <glyph glyph-name="six" unicode="6" horiz-adv-x="609" 
d="M436 683c-151 0 -272 -124 -318 -322c60 53 149 87 235 87c140 0 219 -90 195 -227c-25 -139 -139 -233 -272 -233c-159 0 -235 111 -194 338c39 225 182 386 350 386c46 0 102 -12 144 -29l-5 -32c-30 19 -86 32 -135 32zM346 420c-84 0 -176 -37 -236 -95v-1
c-37 -211 33 -308 169 -308c117 0 216 85 240 206c20 119 -49 198 -173 198z" />
    <glyph glyph-name="seven" unicode="7" horiz-adv-x="501" 
d="M85 671l4 29h469l-1 -6l-423 -694h-35l409 671h-423z" />
    <glyph glyph-name="eight" unicode="8" horiz-adv-x="610" 
d="M559 538c-12 -62 -67 -142 -156 -159c101 -15 148 -97 132 -190c-20 -117 -137 -201 -276 -201c-143 0 -228 84 -208 201c16 93 93 175 200 190c-83 17 -112 97 -100 159c19 107 116 174 236 174c118 0 191 -67 172 -174zM331 394c95 0 181 44 199 144
c16 91 -53 146 -148 146c-97 0 -186 -55 -202 -146c-18 -100 55 -144 151 -144zM506 189c19 106 -54 177 -180 177c-125 0 -227 -71 -246 -177c-19 -109 68 -173 184 -173c115 0 223 64 242 173z" />
    <glyph glyph-name="nine" unicode="9" horiz-adv-x="608" 
d="M373 712c152 0 228 -106 189 -326c-43 -242 -184 -398 -352 -398c-46 0 -103 12 -145 29l6 32c29 -19 86 -32 135 -32c151 0 272 124 318 322c-61 -53 -150 -87 -236 -87c-137 0 -219 87 -194 228c24 138 136 232 279 232zM295 280c84 0 177 37 236 94v2
c40 225 -35 308 -161 308c-124 0 -220 -79 -248 -206c-20 -119 50 -198 173 -198z" />
    <glyph glyph-name="zero.BlackCircled" horiz-adv-x="908" 
d="M407 -12c-213 0 -356 175 -318 389c37 212 241 385 454 385c214 0 356 -173 319 -385c-38 -214 -242 -389 -455 -389zM439 176c88 0 161 80 182 200c21 119 -24 199 -112 199c-86 0 -159 -80 -180 -199c-21 -120 24 -200 110 -200zM444 203c-71 0 -104 69 -87 173
c18 103 77 172 148 172c72 0 104 -69 86 -172c-18 -104 -74 -173 -147 -173z" />
    <glyph glyph-name="one.BlackCircled" horiz-adv-x="908" 
d="M407 -12c-213 0 -356 175 -318 389c37 212 241 385 454 385c214 0 356 -173 319 -385c-38 -214 -242 -389 -455 -389zM492 541l-63 -358h29l68 385h-108l-5 -27h79z" />
    <glyph glyph-name="two.BlackCircled" horiz-adv-x="908" 
d="M407 -12c-213 0 -356 175 -318 389c37 212 241 385 454 385c214 0 356 -173 319 -385c-38 -214 -242 -389 -455 -389zM313 189l6 -10h251l4 27h-205l148 127c47 41 84 79 92 127c11 64 -28 111 -99 111c-40 0 -85 -15 -127 -44l-6 -33c40 30 85 50 126 50
c57 0 85 -37 77 -85c-7 -39 -36 -67 -71 -100z" />
    <glyph glyph-name="three.BlackCircled" horiz-adv-x="908" 
d="M407 -12c-213 0 -356 175 -318 389c37 212 241 385 454 385c214 0 356 -173 319 -385c-38 -214 -242 -389 -455 -389zM416 176c86 0 149 46 161 111c8 43 -10 89 -61 98c47 17 73 53 80 91c10 58 -28 98 -99 98c-28 0 -70 -7 -96 -17l-5 -28c14 6 57 18 93 18
c57 0 85 -30 78 -72c-7 -37 -40 -79 -98 -79h-48l-5 -25h51c54 0 89 -35 81 -84c-9 -49 -56 -85 -126 -85c-33 0 -70 9 -92 19l-5 -29c38 -13 68 -16 91 -16z" />
    <glyph glyph-name="four.BlackCircled" horiz-adv-x="908" 
d="M407 -12c-213 0 -356 175 -318 389c37 212 241 385 454 385c214 0 356 -173 319 -385c-38 -214 -242 -389 -455 -389zM599 282l5 27h-74l18 102h-4l-29 -18l-14 -84h-150l159 259h-31l-172 -279l5 -7h184l-18 -99h29l18 99h74z" />
    <glyph glyph-name="five.BlackCircled" horiz-adv-x="908" 
d="M407 -12c-213 0 -356 175 -318 389c37 212 241 385 454 385c214 0 356 -173 319 -385c-38 -214 -242 -389 -455 -389zM331 242l-6 -32c26 -20 61 -31 96 -31c80 0 149 51 162 127c13 71 -34 118 -108 118c-28 0 -60 -7 -85 -19l24 139h178l5 27h-206l-34 -193l4 -7
c38 21 76 30 106 30c60 0 97 -38 87 -95c-11 -60 -65 -100 -130 -100c-37 0 -70 13 -93 36z" />
    <glyph glyph-name="six.BlackCircled" horiz-adv-x="908" 
d="M407 -12c-213 0 -356 175 -318 389c37 212 241 385 454 385c214 0 356 -173 319 -385c-38 -214 -242 -389 -455 -389zM492 429c-45 0 -90 -18 -122 -46c24 102 86 164 164 164c26 0 58 -7 75 -17l5 29c-23 9 -56 16 -81 16c-97 0 -175 -92 -196 -212
c-22 -126 23 -187 111 -187c75 0 138 54 151 128c13 76 -32 125 -107 125zM452 203c-68 0 -104 48 -88 152c30 28 76 48 121 48c60 0 94 -38 85 -98c-13 -63 -63 -102 -118 -102z" />
    <glyph glyph-name="seven.BlackCircled" horiz-adv-x="908" 
d="M407 -12c-213 0 -356 175 -318 389c37 212 241 385 454 385c214 0 356 -173 319 -385c-38 -214 -242 -389 -455 -389zM593 541l-218 -358h32l232 381l1 4h-263l-5 -27h221z" />
    <glyph glyph-name="eight.BlackCircled" horiz-adv-x="908" 
d="M407 -12c-213 0 -356 175 -318 389c37 212 241 385 454 385c214 0 356 -173 319 -385c-38 -214 -242 -389 -455 -389zM440 175c77 0 143 47 155 113c8 49 -15 90 -63 104c43 15 70 52 75 84c10 58 -30 98 -97 98s-123 -39 -133 -98c-6 -35 10 -70 45 -85
c-52 -13 -90 -55 -98 -103c-12 -66 37 -113 116 -113zM480 403c-47 0 -83 24 -74 72c8 45 52 72 100 72c46 0 80 -27 72 -72c-9 -48 -52 -72 -98 -72zM444 202c-59 0 -102 32 -92 87c10 54 63 90 124 90s100 -36 90 -90c-10 -55 -64 -87 -122 -87z" />
    <glyph glyph-name="nine.BlackCircled" horiz-adv-x="908" 
d="M407 -12c-213 0 -356 175 -318 389c37 212 241 385 454 385c214 0 356 -173 319 -385c-38 -214 -242 -389 -455 -389zM506 575c-80 0 -141 -52 -154 -127c-14 -78 33 -126 107 -126c44 0 89 18 121 46c-24 -102 -85 -164 -163 -164c-28 0 -59 7 -76 17l-5 -29
c23 -9 55 -16 81 -16c92 0 174 83 198 218c21 122 -26 181 -109 181zM464 348c-60 1 -94 40 -83 99c14 63 63 101 123 100c61 0 98 -44 81 -150c-30 -30 -79 -49 -121 -49z" />
    <glyph glyph-name="zero.zero" horiz-adv-x="658" 
d="M409 712c157 0 235 -145 197 -362c-39 -217 -168 -362 -325 -362c-156 0 -235 145 -196 362c38 217 168 362 324 362zM115 350c-17 -97 -9 -179 19 -237l409 500c-31 45 -78 71 -139 71c-137 0 -253 -134 -289 -334zM576 350c17 100 9 183 -21 242l-408 -503
c31 -47 78 -73 139 -73c139 0 254 134 290 334z" />
    <glyph glyph-name="uni24EA" unicode="&#x24ea;" horiz-adv-x="908" 
d="M407 -12c-213 0 -356 175 -318 389c37 212 241 385 454 385c214 0 356 -173 319 -385c-38 -214 -242 -389 -455 -389zM412 16c197 -1 386 164 420 360c35 197 -95 357 -294 357c-197 0 -386 -160 -421 -357c-34 -196 98 -359 295 -360zM439 176c-86 0 -131 80 -110 200
c21 119 94 199 180 199c88 0 133 -80 112 -199c-21 -120 -94 -200 -182 -200zM444 203c73 0 129 69 147 173c18 103 -14 172 -86 172c-71 0 -130 -69 -148 -172c-17 -104 16 -173 87 -173z" />
    <glyph glyph-name="uni2460" unicode="&#x2460;" horiz-adv-x="908" 
d="M543 762c214 0 356 -173 319 -385c-38 -214 -242 -389 -455 -389s-356 175 -318 389c37 212 241 385 454 385zM832 376c35 197 -95 357 -294 357c-197 0 -386 -160 -421 -357c-34 -196 98 -359 295 -360s386 164 420 360zM501 541h-79l5 27h108l-68 -385h-29z" />
    <glyph glyph-name="uni2461" unicode="&#x2461;" horiz-adv-x="908" 
d="M543 762c214 0 356 -173 319 -385c-38 -214 -242 -389 -455 -389s-356 175 -318 389c37 212 241 385 454 385zM832 376c35 197 -95 357 -294 357c-197 0 -386 -160 -421 -357c-34 -196 98 -359 295 -360s386 164 420 360zM510 571c71 0 110 -47 99 -111
c-8 -48 -45 -86 -92 -127l-147 -127h204l-4 -27h-251l-6 10l196 170c35 33 64 61 71 100c8 48 -20 85 -77 85c-41 0 -86 -20 -126 -50l6 33c42 29 87 44 127 44z" />
    <glyph glyph-name="uni2462" unicode="&#x2462;" horiz-adv-x="908" 
d="M543 762c214 0 356 -173 319 -385c-38 -214 -242 -389 -455 -389s-356 175 -318 389c37 212 241 385 454 385zM832 376c35 197 -95 357 -294 357c-197 0 -386 -160 -421 -357c-34 -196 98 -359 295 -360s386 164 420 360zM497 574c71 0 109 -40 99 -98
c-7 -38 -33 -74 -79 -91c50 -9 68 -55 60 -98c-12 -65 -75 -111 -161 -111c-23 0 -53 3 -91 16l5 29c22 -10 59 -19 92 -19c70 0 117 36 126 85c8 49 -27 84 -81 84h-51l5 25h48c58 0 91 42 98 79c7 42 -21 72 -78 72c-36 0 -79 -12 -93 -18l5 28c26 10 68 17 96 17z" />
    <glyph glyph-name="uni2463" unicode="&#x2463;" horiz-adv-x="908" 
d="M543 762c214 0 356 -173 319 -385c-38 -214 -242 -389 -455 -389s-356 175 -318 389c37 212 241 385 454 385zM832 376c35 197 -95 357 -294 357c-197 0 -386 -160 -421 -357c-34 -196 98 -359 295 -360s386 164 420 360zM544 411h4l-18 -102h74l-5 -27h-74l-18 -99h-29
l17 99h-183l-5 7l172 279h31l-159 -259h149l15 84z" />
    <glyph glyph-name="uni2464" unicode="&#x2464;" horiz-adv-x="908" 
d="M543 762c214 0 356 -173 319 -385c-38 -214 -242 -389 -455 -389s-356 175 -318 389c37 212 241 385 454 385zM832 376c35 197 -95 357 -294 357c-197 0 -386 -160 -421 -357c-34 -196 98 -359 295 -360s386 164 420 360zM361 371l-4 7l34 193h206l-5 -27h-178l-24 -140
c25 12 57 20 85 20c74 0 121 -47 108 -118c-13 -76 -82 -127 -162 -127c-35 0 -70 11 -96 31l6 32c23 -23 56 -36 93 -36c65 0 119 40 130 100c10 57 -27 95 -87 95c-30 0 -68 -9 -106 -30z" />
    <glyph glyph-name="uni2465" unicode="&#x2465;" horiz-adv-x="908" 
d="M543 762c214 0 356 -173 319 -385c-38 -214 -242 -389 -455 -389s-356 175 -318 389c37 212 241 385 454 385zM832 376c35 197 -95 357 -294 357c-197 0 -386 -160 -421 -357c-34 -196 98 -359 295 -360s386 164 420 360zM337 363c21 120 99 212 196 212
c25 0 58 -7 81 -16l-5 -29c-17 10 -49 17 -75 17c-78 0 -140 -62 -165 -164c33 28 78 46 123 46c75 0 120 -49 107 -125c-13 -74 -76 -128 -151 -128c-88 0 -133 61 -111 187zM570 305c9 60 -25 98 -85 98c-45 0 -92 -20 -121 -48c-16 -104 20 -152 88 -152
c55 0 105 39 118 102z" />
    <glyph glyph-name="uni2466" unicode="&#x2466;" horiz-adv-x="908" 
d="M543 762c214 0 356 -173 319 -385c-38 -214 -242 -389 -455 -389s-356 175 -318 389c37 212 241 385 454 385zM832 376c35 197 -95 357 -294 357c-197 0 -386 -160 -421 -357c-34 -196 98 -359 295 -360s386 164 420 360zM593 541h-221l5 27h263l-1 -4l-232 -381h-32z
" />
    <glyph glyph-name="uni2467" unicode="&#x2467;" horiz-adv-x="908" 
d="M543 762c214 0 356 -173 319 -385c-38 -214 -242 -389 -455 -389s-356 175 -318 389c37 212 241 385 454 385zM832 376c35 197 -95 357 -294 357c-197 0 -386 -160 -421 -357c-34 -196 98 -359 295 -360s386 164 420 360zM510 574c67 0 107 -40 97 -98
c-5 -32 -32 -69 -75 -84c47 -14 71 -55 63 -104c-12 -66 -78 -113 -155 -113c-79 0 -128 47 -116 113c8 48 47 90 99 103c-36 15 -52 50 -46 85c10 59 66 98 133 98zM578 475c8 45 -26 72 -72 72c-48 0 -92 -27 -100 -72c-9 -48 27 -72 74 -72c46 0 89 24 98 72zM566 289
c10 54 -29 90 -90 90s-114 -36 -124 -90c-10 -55 33 -87 92 -87c58 0 112 32 122 87z" />
    <glyph glyph-name="uni2468" unicode="&#x2468;" horiz-adv-x="908" 
d="M543 762c214 0 356 -173 319 -385c-38 -214 -242 -389 -455 -389s-356 175 -318 389c37 212 241 385 454 385zM832 376c35 197 -95 357 -294 357c-197 0 -386 -160 -421 -357c-34 -196 98 -359 295 -360s386 164 420 360zM506 575c83 0 130 -59 109 -181
c-24 -135 -106 -218 -198 -218c-26 0 -58 7 -81 16l5 29c17 -10 48 -17 76 -17c78 0 140 62 164 164c-32 -28 -77 -46 -122 -46c-74 0 -121 48 -107 126c13 75 74 127 154 127zM586 397c17 107 -21 151 -83 151c-61 0 -110 -38 -124 -102c-10 -60 25 -99 86 -99
c43 0 92 20 121 50z" />
    <glyph glyph-name="zero.lf" horiz-adv-x="658" 
d="M281 -12c-156 0 -235 145 -196 362c38 217 168 362 324 362c157 0 235 -145 197 -362c-39 -217 -168 -362 -325 -362zM286 16c139 0 254 134 290 334c35 200 -33 334 -172 334c-137 0 -253 -134 -289 -334c-35 -200 34 -334 171 -334z" />
    <glyph glyph-name="one.lf" horiz-adv-x="309" 
d="M88 671l4 29h175l-123 -700h-30l118 671h-144z" />
    <glyph glyph-name="two.lf" horiz-adv-x="549" 
d="M527 512c-17 -96 -91 -162 -171 -231l-303 -253h408l-6 -28h-443l-10 18l367 310c57 50 115 101 129 183c18 99 -38 173 -150 173c-72 0 -156 -31 -231 -87l7 36c75 51 158 79 230 79c126 0 194 -85 173 -200z" />
    <glyph glyph-name="three.lf" horiz-adv-x="528" 
d="M486 535c-13 -71 -60 -133 -146 -163c82 -15 125 -95 110 -185c-20 -115 -131 -198 -283 -198c-50 0 -98 9 -163 29l6 31c34 -14 107 -33 171 -33c128 0 223 76 240 173s-52 170 -156 170h-95l4 26h97c106 0 174 74 187 153c15 86 -39 146 -148 146
c-68 0 -153 -23 -172 -31l5 29c55 20 133 30 174 30c125 0 188 -74 169 -177z" />
    <glyph glyph-name="four.lf" horiz-adv-x="576" 
d="M409 215h134l-5 -29h-134l-33 -186h-30l33 186h-347l-8 12l314 502h32l-301 -485h315l31 177l26 18h7z" />
    <glyph glyph-name="five.lf" horiz-adv-x="566" 
d="M530 700l-4 -29h-338l-52 -287c52 31 121 48 177 48c140 0 218 -86 195 -214c-24 -138 -147 -230 -289 -230c-70 0 -130 22 -175 62l6 36c42 -45 101 -70 173 -70c127 0 235 81 256 201c20 113 -48 188 -170 188c-58 0 -130 -20 -202 -58l-5 9l60 344h368z" />
    <glyph glyph-name="six.lf" horiz-adv-x="609" 
d="M436 683c-151 0 -272 -124 -318 -322c60 53 149 87 235 87c140 0 219 -90 195 -227c-25 -139 -139 -233 -272 -233c-159 0 -235 111 -194 338c39 225 182 386 350 386c46 0 102 -12 144 -29l-5 -32c-30 19 -86 32 -135 32zM346 420c-84 0 -176 -37 -236 -95v-1
c-37 -211 33 -308 169 -308c117 0 216 85 240 206c20 119 -49 198 -173 198z" />
    <glyph glyph-name="seven.lf" horiz-adv-x="501" 
d="M85 671l4 29h469l-1 -6l-423 -694h-35l409 671h-423z" />
    <glyph glyph-name="eight.lf" horiz-adv-x="610" 
d="M559 538c-12 -62 -67 -142 -156 -159c101 -15 148 -97 132 -190c-20 -117 -137 -201 -276 -201c-143 0 -228 84 -208 201c16 93 93 175 200 190c-83 17 -112 97 -100 159c19 107 116 174 236 174c118 0 191 -67 172 -174zM331 394c95 0 181 44 199 144
c16 91 -53 146 -148 146c-97 0 -186 -55 -202 -146c-18 -100 55 -144 151 -144zM506 189c19 106 -54 177 -180 177c-125 0 -227 -71 -246 -177c-19 -109 68 -173 184 -173c115 0 223 64 242 173z" />
    <glyph glyph-name="nine.lf" horiz-adv-x="608" 
d="M373 712c152 0 228 -106 189 -326c-43 -242 -184 -398 -352 -398c-46 0 -103 12 -145 29l6 32c29 -19 86 -32 135 -32c151 0 272 124 318 322c-61 -53 -150 -87 -236 -87c-137 0 -219 87 -194 228c24 138 136 232 279 232zM295 280c84 0 177 37 236 94v2
c40 225 -35 308 -161 308c-124 0 -220 -79 -248 -206c-20 -119 50 -198 173 -198z" />
    <glyph glyph-name="zero.lf.zero" horiz-adv-x="658" 
d="M409 712c157 0 235 -145 197 -362c-39 -217 -168 -362 -325 -362c-156 0 -235 145 -196 362c38 217 168 362 324 362zM115 350c-17 -97 -9 -179 19 -237l409 500c-31 45 -78 71 -139 71c-137 0 -253 -134 -289 -334zM576 350c17 100 9 183 -21 242l-408 -503
c31 -47 78 -73 139 -73c139 0 254 134 290 334z" />
    <glyph glyph-name="zero.osf" horiz-adv-x="623" 
d="M264 -12c-138 0 -230 118 -203 271c26 148 159 263 297 263s231 -115 205 -263c-27 -153 -161 -271 -299 -271zM269 16c122 0 239 104 264 243c24 135 -59 235 -180 235c-122 0 -238 -100 -262 -235c-25 -139 57 -243 178 -243z" />
    <glyph glyph-name="one.osf" horiz-adv-x="302" 
d="M57 481l5 29h175l-90 -510h-30l85 481h-145z" />
    <glyph glyph-name="two.osf" horiz-adv-x="530" 
d="M487 383c-13 -69 -78 -119 -156 -173l-269 -185l381 2l-11 -27h-419l-9 14l336 232c56 39 106 78 117 137c12 70 -44 124 -149 124c-68 0 -148 -25 -216 -66l6 34c68 38 147 59 215 59c119 0 189 -64 174 -151z" />
    <glyph glyph-name="three.osf" horiz-adv-x="510" 
d="M444 345c-13 -71 -60 -133 -146 -163c81 -16 123 -101 108 -191c-20 -115 -130 -198 -282 -198c-50 0 -99 9 -163 29l5 31c34 -14 107 -33 171 -33c128 0 224 76 241 173s-52 176 -156 176h-95l4 26h97c106 0 174 74 187 153c16 86 -39 146 -148 146
c-68 0 -153 -23 -171 -31l5 29c54 20 132 30 173 30c125 0 188 -74 170 -177z" />
    <glyph glyph-name="four.osf" horiz-adv-x="566" 
d="M377 29h134l-5 -29h-134l-34 -195h-30l34 195h-347l-8 12l313 493h32l-299 -476h314l25 139l26 19h7z" />
    <glyph glyph-name="five.osf" horiz-adv-x="548" 
d="M487 510l-5 -29h-338l-51 -291c51 30 121 47 176 47c140 0 218 -86 195 -214c-24 -138 -147 -230 -289 -230c-70 0 -131 22 -176 62l7 36c42 -45 100 -70 172 -70c127 0 236 81 257 201c20 113 -49 188 -171 188c-58 0 -129 -20 -201 -58l-6 9l62 349h368z" />
    <glyph glyph-name="six.osf" horiz-adv-x="601" 
d="M441 734c-151 0 -274 -135 -323 -348c60 56 149 93 236 93c140 0 220 -96 194 -243c-26 -148 -143 -248 -276 -248c-159 0 -230 142 -191 361c42 240 187 413 355 413c46 0 103 -13 145 -31l-6 -33c-29 21 -88 36 -134 36zM348 451c-84 0 -177 -40 -238 -102v-2
c-36 -204 29 -331 165 -331c116 0 217 91 243 221c22 129 -47 214 -170 214z" />
    <glyph glyph-name="seven.osf" horiz-adv-x="491" 
d="M46 481l5 29h469l-1 -6l-424 -699h-35l409 676h-423z" />
    <glyph glyph-name="eight.osf" horiz-adv-x="605" 
d="M564 576c-13 -67 -72 -155 -163 -171c104 -14 153 -103 135 -203c-22 -125 -141 -214 -280 -214c-143 0 -228 89 -206 214c18 100 97 189 206 203c-86 16 -115 104 -102 171c20 114 118 186 238 186c118 0 192 -72 172 -186zM332 421c95 0 183 48 202 155
c17 98 -51 158 -146 158c-97 0 -187 -60 -204 -158c-19 -107 52 -155 148 -155zM506 202c20 113 -53 190 -179 190c-125 0 -227 -77 -247 -190c-21 -117 65 -186 181 -186c115 0 224 69 245 186z" />
    <glyph glyph-name="nine.osf" horiz-adv-x="610" 
d="M342 522c159 0 232 -133 195 -338c-39 -225 -183 -391 -351 -391c-46 0 -103 12 -145 29l5 31c30 -19 86 -32 135 -32c151 0 273 130 319 328c-60 -53 -149 -87 -235 -87c-140 0 -220 90 -196 227c25 139 140 233 273 233zM272 90c84 0 176 37 236 95v1
c33 189 -33 308 -169 308c-117 0 -216 -85 -240 -206c-20 -119 50 -198 173 -198z" />
    <glyph glyph-name="zero.osf.zero" horiz-adv-x="623" 
d="M358 522c138 0 231 -115 205 -263c-27 -153 -161 -271 -299 -271s-230 118 -203 271c26 148 159 263 297 263zM91 259c-14 -80 7 -149 51 -193l322 394c-31 22 -68 34 -111 34c-122 0 -238 -100 -262 -235zM533 259c14 77 -8 143 -51 185l-320 -394
c29 -22 66 -34 107 -34c122 0 239 104 264 243z" />
    <glyph glyph-name="zero.tf" 
d="M252 -12c-145 0 -217 145 -178 362c38 218 161 362 306 362s217 -144 179 -362c-39 -217 -162 -362 -307 -362zM257 16c128 0 236 134 272 334c35 201 -26 334 -154 334c-127 0 -236 -134 -271 -334c-36 -199 26 -334 153 -334z" />
    <glyph glyph-name="one.tf" 
d="M407 700l-118 -671h170l-6 -29h-369l5 29h170l112 642h-144l5 29h175z" />
    <glyph glyph-name="two.tf" 
d="M552 512c-17 -96 -91 -162 -172 -231l-303 -253h408l-5 -28h-443l-10 18l367 310c57 50 115 101 129 183c18 99 -39 173 -150 173c-72 0 -156 -31 -231 -87l7 36c75 51 158 79 230 79c126 0 194 -85 173 -200z" />
    <glyph glyph-name="three.tf" 
d="M522 535c-13 -71 -60 -133 -146 -163c82 -15 125 -95 109 -185c-20 -115 -130 -198 -282 -198c-50 0 -98 9 -163 29l6 31c34 -14 107 -33 171 -33c128 0 222 76 239 173s-51 170 -155 170h-95l4 26h97c106 0 173 74 187 153c15 86 -39 146 -148 146
c-68 0 -153 -23 -172 -31l5 29c55 20 133 30 174 30c125 0 188 -74 169 -177z" />
    <glyph glyph-name="four.tf" 
d="M440 215h96l-5 -29h-96l-33 -186h-30l33 186h-347l-8 12l314 502h32l-301 -485h315l31 177l26 18h7z" />
    <glyph glyph-name="five.tf" 
d="M547 700l-4 -29h-338l-52 -287c52 31 121 48 177 48c140 0 218 -86 195 -214c-24 -138 -147 -230 -289 -230c-70 0 -130 22 -175 62l6 36c42 -45 101 -70 173 -70c127 0 235 81 256 201c20 113 -48 188 -170 188c-58 0 -130 -20 -202 -58l-5 9l60 344h368z" />
    <glyph glyph-name="six.tf" 
d="M432 683c-151 0 -272 -124 -318 -322c60 53 149 87 235 87c140 0 219 -90 195 -227c-25 -139 -139 -233 -272 -233c-159 0 -235 111 -194 338c39 225 182 386 350 386c46 0 102 -12 144 -29l-5 -32c-30 19 -86 32 -135 32zM342 420c-84 0 -176 -37 -236 -95v-1
c-37 -211 33 -308 169 -308c117 0 216 85 240 206c20 119 -50 198 -173 198z" />
    <glyph glyph-name="seven.tf" 
d="M157 671l4 29h428l-1 -6l-423 -694h-35l410 671h-383z" />
    <glyph glyph-name="eight.tf" 
d="M554 538c-12 -62 -67 -142 -156 -159c101 -15 148 -97 132 -190c-20 -117 -137 -201 -276 -201c-143 0 -228 84 -208 201c16 93 93 175 200 190c-83 17 -112 97 -100 159c19 107 116 174 236 174c118 0 191 -67 172 -174zM326 394c95 0 181 44 199 144
c16 91 -54 146 -148 146c-97 0 -186 -55 -202 -146c-18 -100 55 -144 151 -144zM501 189c19 106 -54 177 -180 177c-125 0 -227 -71 -246 -177c-19 -109 68 -173 184 -173c115 0 223 64 242 173z" />
    <glyph glyph-name="nine.tf" 
d="M369 712c152 0 228 -106 189 -326c-43 -242 -184 -398 -352 -398c-46 0 -103 12 -145 29l6 32c29 -19 86 -32 135 -32c151 0 272 124 318 322c-61 -53 -150 -87 -236 -87c-137 0 -219 87 -194 228c24 138 136 232 279 232zM291 280c84 0 177 37 236 94v2
c40 225 -35 308 -161 308c-124 0 -220 -79 -248 -206c-20 -119 50 -198 173 -198z" />
    <glyph glyph-name="zero.tf.zero" 
d="M380 712c145 0 217 -144 179 -362c-39 -217 -162 -362 -307 -362c-72 0 -126 35 -157 98l-2 -3l-17 18l8 10c-23 61 -27 143 -10 239c38 218 161 362 306 362zM529 350c35 201 -26 334 -154 334c-127 0 -236 -134 -271 -334c-15 -83 -13 -155 4 -210l386 472l15 -18
l-392 -481c27 -62 75 -97 140 -97c128 0 236 134 272 334z" />
    <glyph glyph-name="zero.tosf" 
d="M253 -12c-140 0 -232 119 -205 271c26 148 159 264 299 264c139 0 232 -115 206 -264c-27 -153 -161 -271 -300 -271zM258 16c123 0 240 104 265 243c24 136 -59 236 -181 236c-124 0 -240 -101 -264 -236c-25 -138 57 -243 180 -243z" />
    <glyph glyph-name="one.tosf" 
d="M376 510l-84 -481h141l-5 -29h-313l5 29h142l79 452h-145l6 29h174z" />
    <glyph glyph-name="two.tosf" 
d="M522 383c-13 -69 -78 -119 -156 -173l-269 -185l381 2l-11 -27h-419l-9 14l336 232c56 39 106 78 117 137c12 70 -45 124 -149 124c-68 0 -148 -25 -216 -66l6 34c68 38 147 59 215 59c119 0 189 -64 174 -151z" />
    <glyph glyph-name="three.tosf" 
d="M489 345c-13 -71 -60 -133 -146 -163c81 -16 123 -101 107 -191c-20 -115 -129 -198 -281 -198c-50 0 -99 9 -163 29l5 31c34 -14 107 -33 171 -33c128 0 223 76 240 173s-51 176 -155 176h-95l4 26h97c106 0 173 74 187 153c16 86 -39 146 -148 146
c-68 0 -153 -23 -171 -31l5 29c54 20 132 30 173 30c125 0 188 -74 170 -177z" />
    <glyph glyph-name="four.tosf" 
d="M394 29h134l-5 -29h-134l-34 -195h-30l34 195h-347l-8 12l313 493h32l-299 -476h314l25 139l26 19h7z" />
    <glyph glyph-name="five.tosf" 
d="M513 510l-5 -29h-338l-51 -291c51 30 121 47 176 47c140 0 218 -86 195 -214c-24 -138 -147 -230 -289 -230c-70 0 -131 22 -176 62l7 36c42 -45 100 -70 172 -70c127 0 236 81 257 201c20 113 -49 188 -171 188c-58 0 -129 -20 -201 -58l-6 9l62 349h368z" />
    <glyph glyph-name="six.tosf" 
d="M441 734c-151 0 -274 -135 -323 -348c60 56 149 93 236 93c140 0 220 -96 194 -243c-26 -148 -143 -248 -276 -248c-159 0 -230 142 -191 361c42 240 187 413 355 413c46 0 103 -13 145 -31l-6 -33c-29 21 -88 36 -134 36zM348 451c-84 0 -177 -40 -238 -102v-2
c-36 -204 29 -331 165 -331c116 0 217 91 243 221c22 129 -48 214 -170 214z" />
    <glyph glyph-name="seven.tosf" 
d="M101 481l5 29h468l-1 -6l-424 -699h-35l410 676h-423z" />
    <glyph glyph-name="eight.tosf" 
d="M562 576c-13 -67 -72 -155 -163 -171c104 -14 153 -103 135 -203c-22 -125 -141 -214 -280 -214c-143 0 -228 89 -206 214c18 100 97 189 206 203c-86 16 -115 104 -102 171c20 114 118 186 238 186c118 0 192 -72 172 -186zM330 421c95 0 183 48 202 155
c17 98 -52 158 -146 158c-97 0 -187 -60 -204 -158c-19 -107 52 -155 148 -155zM504 202c20 113 -53 190 -179 190c-125 0 -227 -77 -247 -190c-21 -117 65 -186 181 -186c115 0 224 69 245 186z" />
    <glyph glyph-name="nine.tosf" 
d="M337 522c159 0 232 -133 195 -338c-39 -225 -183 -391 -351 -391c-46 0 -103 12 -145 29l5 31c30 -19 86 -32 135 -32c151 0 273 130 319 328c-60 -53 -149 -87 -235 -87c-140 0 -220 90 -196 227c25 139 140 233 273 233zM267 90c84 0 176 37 236 95v1
c33 189 -33 308 -169 308c-117 0 -216 -85 -240 -206c-20 -119 50 -198 173 -198z" />
    <glyph glyph-name="zero.tosf.zero" 
d="M347 522c138 0 231 -115 205 -263c-27 -153 -161 -271 -299 -271s-230 118 -203 271c26 148 159 263 297 263zM80 259c-14 -80 7 -149 51 -193l322 394c-31 22 -68 34 -111 34c-122 0 -238 -100 -262 -235zM522 259c14 77 -8 143 -51 185l-320 -394
c29 -22 66 -34 107 -34c122 0 239 104 264 243z" />
    <glyph glyph-name="zero.subs" horiz-adv-x="363" 
d="M99 -202c-86 0 -130 80 -109 200c21 119 94 199 180 199c88 0 133 -80 112 -199c-21 -120 -95 -200 -183 -200zM104 -175c73 0 130 69 149 173c18 103 -15 172 -88 172c-71 0 -128 -69 -146 -172c-19 -104 15 -173 85 -173z" />
    <glyph glyph-name="one.subs" horiz-adv-x="181" 
d="M-9 163l5 27h109l-68 -385h-29l63 358h-80z" />
    <glyph glyph-name="two.subs" horiz-adv-x="305" 
d="M239 86c-8 -48 -44 -86 -91 -127l-148 -127h205l-5 -27h-251l-6 10l197 170c35 33 64 61 70 100c8 48 -19 85 -76 85c-42 0 -87 -20 -127 -50l6 33c42 29 87 44 127 44c71 0 110 -47 99 -111z" />
    <glyph glyph-name="three.subs" horiz-adv-x="295" 
d="M219 99c-7 -38 -32 -74 -78 -91c50 -9 67 -55 59 -98c-11 -65 -74 -111 -160 -111c-23 0 -54 3 -92 16l5 29c23 -10 60 -19 93 -19c70 0 118 36 126 85c9 49 -26 84 -81 84h-51l4 25h48c59 0 93 42 99 79c8 42 -21 72 -78 72c-36 0 -80 -12 -93 -18l5 28
c26 10 68 17 96 17c71 0 109 -40 98 -98z" />
    <glyph glyph-name="four.subs" horiz-adv-x="320" 
d="M176 -69h73l-5 -27h-73l-17 -99h-29l17 99h-184l-5 7l173 279h31l-160 -259h150l15 84l28 18h4z" />
    <glyph glyph-name="five.subs" horiz-adv-x="309" 
d="M239 190l-5 -27h-177l-24 -139c24 11 56 19 84 19c74 0 120 -47 108 -118c-14 -76 -83 -127 -163 -127c-35 0 -70 11 -95 31l5 32c24 -23 57 -36 94 -36c65 0 120 40 131 100c10 57 -27 95 -88 95c-30 0 -68 -9 -106 -30l-4 7l34 193h206z" />
    <glyph glyph-name="six.subs" horiz-adv-x="336" 
d="M185 169c-78 0 -140 -62 -164 -164c32 28 77 46 122 46c75 0 120 -49 107 -125c-13 -74 -76 -128 -151 -128c-88 0 -133 61 -111 187c22 120 100 212 197 212c25 0 58 -7 80 -16l-5 -29c-16 10 -49 17 -75 17zM222 -73c10 60 -24 99 -85 99c-45 0 -92 -21 -121 -49
c-16 -104 20 -152 87 -152c55 0 106 39 119 102z" />
    <glyph glyph-name="seven.subs" horiz-adv-x="280" 
d="M-10 163l5 27h264l-1 -4l-232 -381h-32l217 358h-221z" />
    <glyph glyph-name="eight.subs" horiz-adv-x="337" 
d="M255 99c-6 -32 -32 -69 -74 -84c47 -14 71 -56 62 -104c-11 -66 -78 -113 -155 -113c-79 0 -127 47 -116 113c9 48 47 90 99 104c-34 14 -50 49 -45 84c11 59 66 98 133 98s107 -40 96 -98zM129 26c46 0 90 24 98 72c8 45 -26 72 -73 72c-48 0 -91 -27 -99 -72
c-8 -48 27 -72 74 -72zM216 -88c9 54 -30 90 -92 90c-61 0 -113 -36 -122 -90c-10 -55 33 -87 91 -87s113 32 123 87z" />
    <glyph glyph-name="nine.subs" horiz-adv-x="336" 
d="M150 197c83 0 129 -59 108 -181c-24 -135 -106 -218 -198 -218c-26 0 -57 7 -81 16l5 29c17 -10 48 -17 76 -17c78 0 140 62 165 164c-33 -28 -78 -46 -123 -46c-74 0 -120 48 -107 126c14 75 75 127 155 127zM23 68c-10 -60 26 -99 86 -99c43 0 92 20 121 50
c17 107 -21 151 -84 151c-61 0 -109 -38 -123 -102z" />
    <glyph glyph-name="zero.dnom" horiz-adv-x="362" 
d="M134 -7c-86 0 -131 80 -110 200c21 119 94 199 180 199c88 0 133 -80 112 -199c-21 -120 -94 -200 -182 -200zM138 20c73 0 131 69 149 173c18 103 -14 172 -87 172c-71 0 -129 -69 -147 -172c-18 -104 15 -173 85 -173z" />
    <glyph glyph-name="one.dnom" horiz-adv-x="180" 
d="M25 358l5 27h109l-68 -385h-29l63 358h-80z" />
    <glyph glyph-name="two.dnom" horiz-adv-x="305" 
d="M273 281c-9 -48 -45 -86 -92 -127l-147 -127h205l-6 -27h-251l-5 10l197 170c35 33 64 61 69 100c9 48 -18 85 -75 85c-42 0 -88 -20 -127 -50l5 33c43 29 87 44 127 44c71 0 111 -47 100 -111z" />
    <glyph glyph-name="three.dnom" horiz-adv-x="293" 
d="M252 294c-7 -38 -33 -74 -79 -91c50 -9 67 -55 60 -98c-12 -65 -75 -111 -161 -111c-23 0 -53 3 -91 16l5 29c22 -10 59 -19 92 -19c70 0 118 36 127 85c8 49 -27 84 -82 84h-51l5 25h48c59 0 92 42 99 79c7 42 -21 72 -78 72c-36 0 -81 -12 -94 -18l5 28
c26 10 68 17 96 17c71 0 109 -40 99 -98z" />
    <glyph glyph-name="four.dnom" horiz-adv-x="317" 
d="M209 126h73l-5 -27h-73l-17 -99h-29l17 99h-184l-4 7l172 279h31l-160 -259h150l15 84l28 18h4z" />
    <glyph glyph-name="five.dnom" horiz-adv-x="310" 
d="M273 385l-5 -27h-177l-25 -140c24 12 58 20 85 20c74 0 121 -47 108 -118c-13 -76 -82 -127 -162 -127c-35 0 -70 11 -96 31l6 32c24 -23 56 -36 93 -36c65 0 121 40 131 100c10 57 -27 95 -88 95c-30 0 -68 -9 -105 -30l-5 7l34 193h206z" />
    <glyph glyph-name="six.dnom" horiz-adv-x="334" 
d="M218 364c-78 0 -139 -62 -163 -163c33 27 77 45 121 45c75 0 121 -49 107 -125c-13 -74 -75 -128 -150 -128c-88 0 -133 61 -111 187c21 120 99 212 196 212c25 0 58 -7 80 -16l-5 -29c-16 10 -49 17 -75 17zM256 122c9 60 -25 99 -86 99c-44 0 -91 -20 -120 -48
c-18 -105 18 -153 86 -153c55 0 106 39 120 102z" />
    <glyph glyph-name="seven.dnom" horiz-adv-x="279" 
d="M24 358l5 27h264l-1 -4l-232 -381h-32l218 358h-222z" />
    <glyph glyph-name="eight.dnom" horiz-adv-x="337" 
d="M290 294c-6 -32 -33 -69 -75 -84c48 -14 71 -55 63 -104c-12 -66 -78 -113 -155 -113c-79 0 -128 47 -116 113c8 48 47 90 99 103c-35 15 -51 50 -45 85c10 59 65 98 132 98s107 -40 97 -98zM163 221c46 0 90 24 99 72c8 45 -26 72 -73 72c-48 0 -91 -27 -99 -72
c-9 -48 26 -72 73 -72zM250 107c9 54 -29 90 -91 90c-61 0 -114 -36 -123 -90c-10 -55 33 -87 91 -87s113 32 123 87z" />
    <glyph glyph-name="nine.dnom" horiz-adv-x="336" 
d="M184 392c83 0 130 -59 108 -181c-24 -135 -105 -218 -197 -218c-26 0 -58 7 -81 16l5 29c17 -10 48 -17 76 -17c78 0 140 62 164 164c-33 -28 -77 -46 -122 -46c-74 0 -121 48 -107 126c13 75 74 127 154 127zM57 263c-9 -60 26 -98 86 -98c43 0 91 19 121 49
c17 107 -19 151 -83 151c-61 0 -109 -38 -124 -102z" />
    <glyph glyph-name="zero.numr" horiz-adv-x="364" 
d="M189 308c-86 0 -131 80 -109 200c21 119 94 199 180 199c89 0 134 -80 113 -199c-22 -120 -95 -200 -184 -200zM195 335c72 0 129 69 148 173c18 103 -15 172 -88 172c-70 0 -128 -69 -146 -172c-19 -104 15 -173 86 -173z" />
    <glyph glyph-name="one.numr" horiz-adv-x="181" 
d="M81 673l4 27h109l-67 -385h-29l63 358h-80z" />
    <glyph glyph-name="two.numr" horiz-adv-x="306" 
d="M330 596c-8 -48 -45 -86 -92 -127l-147 -127h204l-4 -27h-252l-6 10l197 170c35 33 64 61 71 100c8 48 -20 85 -77 85c-42 0 -87 -20 -127 -50l6 33c42 29 87 44 127 44c72 0 111 -47 100 -111z" />
    <glyph glyph-name="three.numr" horiz-adv-x="296" 
d="M310 609c-7 -38 -33 -74 -79 -91c50 -9 68 -55 60 -98c-11 -65 -74 -111 -161 -111c-23 0 -54 3 -92 16l5 29c23 -10 60 -19 94 -19c69 0 116 36 125 85s-26 84 -81 84h-51l4 25h48c59 0 93 42 99 79c8 42 -21 72 -78 72c-36 0 -80 -12 -93 -18l5 28c25 10 68 17 96 17
c72 0 110 -40 99 -98z" />
    <glyph glyph-name="four.numr" horiz-adv-x="321" 
d="M266 441h74l-5 -27h-74l-17 -99h-29l17 99h-184l-5 7l172 279h31l-159 -259h150l15 84l28 18h4z" />
    </font>
</defs>
</svg>
