<?xml version="1.0" encoding="utf-8"?>
<!-- Generator: Adobe Illustrator 24.0.0, SVG Export Plug-In . SVG Version: 6.00 Build 0)  -->
<svg version="1.1" id="Layer_1" xmlns="http://www.w3.org/2000/svg" xmlns:xlink="http://www.w3.org/1999/xlink" x="0px" y="0px"
	 viewBox="0 0 1801 3354" style="enable-background:new 0 0 1801 3354;" xml:space="preserve">
<style type="text/css">
	.st0{fill:#585A4D;}
</style>
<g id="Warstwa_2">
	<g id="Warstwa_1-2">
		<path class="st0" d="M645.6,2094.1c-2.5-2.6-4.8-5.4-6.8-8.4c-13.4-19.9-26.9-39.8-37.4-61.6c-7.7-15.9-14.5-32.1-17.8-49.6
			c-1-5.1-2.2-10.2-3.5-15.2c-0.6-1.7-1.2-3.4-2-5c-3.7-2.3-6.6-2.1-9.5,1.2c0,2.3-0.5,5.2,0.1,7.8c3.3,16.1,6.7,32.1,13,47.4
			c7.8,18.9,17.3,37,28.2,54.3c10.9,17.3,22.1,34.1,36.8,48.8c19.9,19.9,41,38.1,64.4,53.8c17.8,12,37,20.9,57.2,27.6
			c23.9,8,48.3,14.4,72.5,21.6c3.9,1,7.6,2.3,11.3,3.9c9.9,4.5,17.4,11,19.5,22.6c0.8,4.2,3.1,8.3,5.4,12
			c6.1,9.6,18.3,16.8,32.3,12.6c7.5-2.1,13.7-7.1,17.3-14c2.4-4.6,4.3-9.4,5.7-14.4c1.7-6.3,5.8-11.6,11.5-14.8
			c5.5-3.3,11.3-5.9,17.5-7.7c24.7-7,49.3-13.9,73.7-21.6c32.6-10.3,60.9-28.4,87.1-49.8c12.7-10.4,24.7-21.7,35.8-33.8
			c6-6.5,12.6-12.3,17.5-19.7c12.3-18.7,24.6-37.5,34.9-57.5c11.5-22.3,18.9-45.8,23.6-70.3c0.6-3.1,1.3-6.3-0.5-9.3
			c-1.6-2-4.2-2.7-6.6-1.8c-2.5,0.8-3.6,3-4.1,5.5c-0.9,3.9-1.7,7.8-2.6,11.7c-1.8,7.4-3.2,14.9-5.7,22.1
			c-4.4,12.5-9.6,24.6-15.5,36.4c-5.6,11.1-12.3,21.6-18.8,32.1c-9.7,15.7-20.1,30.7-33.3,43.9c-20.5,20.5-42.2,39.3-66.8,54.7
			c-6.7,4.4-13.7,8.3-20.9,11.9c-21.8,10.3-44.9,16.9-67.8,24.2c-0.9,0.2-1.9,0.2-2.8,0.2c-0.6-0.2-1.2-0.5-1.8-0.8
			c-1-0.7-1.9-1.5-2.7-2.3c-18.1-17.5-39.7-28-64.4-32.8c-12.2-2.4-24.7-2.4-36.9,0.1c-24.2,4.8-45.5,15.1-63.4,32.2
			c-1.4,1.4-3,2.5-4.7,3.9c-2-0.2-4-0.6-6-1.2c-17.7-6.4-35.8-11.3-53.3-18.4c-24.9-10.1-46.2-25.5-67-41.9
			C672.8,2122.5,659.4,2108.1,645.6,2094.1z M860.3,2177.3c16.6-6.4,33.7-10.6,51.6-8.1c13.9,1.9,27.5,5.6,39.7,13
			c8,4.9,16.8,9.1,22.4,17.4c-5.2,3.7-10.9,4.3-16.3,5.5c-8.9,2-16.4,6.4-23.6,11.5c-7,5.1-12,11.7-14,20.4c-0.4,2-0.6,4.1-1.5,5.8
			c-1.6,3.2-3,6.7-5.4,9.2c-7.7,8.1-16.3,8-24.1,0.2c-3.2-3.1-5.3-7.2-6.1-11.5c-3.6-20.2-18.7-28.6-35.9-34.9
			c-6-2.2-12.6-2.4-18.9-6.1C836,2191.1,850,2181.2,860.3,2177.3L860.3,2177.3z"/>
		<path class="st0" d="M466.1,2832.7c-4.8,15-12.2,25.2-22.9,33c-5.5,4-11.5,7.2-17.4,10.6c-5.2,3-10.7,5.5-15.8,8.7
			c-5.5,3.3-10.3,7.7-14.1,12.9c-3,4.3-5.4,8.9-5.8,14.3c-0.8,12.9,2.1,24.6,10.4,34.8c5.9,7.1,12.8,13.3,20.4,18.5
			c16.1,11.3,24.8,26.8,26.4,46.4c0.2,2.8,0.6,5.5,0.9,8.3c0.5,0,1-0.1,1.5-0.3c0.7-0.4,1.3-0.8,1.8-1.4c15.7-24,20.8-49.1,8.5-76.2
			c-1.2-2.6-2.3-5.1-3.2-7.8c-3.6-10.4-5.3-20.8-2.6-31.8c1.8-7,4.4-13.7,7.6-20.2c2.8-5.8,5.6-11.5,8.3-17.3
			c3.6-7.6,3.6-15.5,1.3-23.4C470.8,2839.3,468.8,2837.1,466.1,2832.7z"/>
		<path class="st0" d="M1394.7,2886.5c-5.4-3.4-11.1-6.4-16.6-9.6c-4.5-2.6-9.2-4.8-13.6-7.6c-11.7-7.6-20.8-17.4-25.9-30.7
			c-0.5-1.3-0.5-3.2-2.5-3.5c-3,1.1-4.2,3.7-4.9,6.4c-2,7.5-2.5,15,0.8,22.3c2.3,5.1,4.8,10.1,7.1,15.2c2.5,5.5,5.2,10.8,7.2,16.5
			c3.2,9.1,4.5,18.4,2.4,28.3c-1.3,6.3-3.3,12.3-6,18.1c-4.7,9.8-7,20.5-6.7,31.3c0.4,16.7,6,31.3,15,44.9c0.6,0.9,1.8,1.4,3.3,2.5
			c0.4-3.6,0.7-6.8,1.1-9.9c1.2-10.5,4-20.3,10.2-29.1c4.6-6.6,10.4-12.3,17-16.8c7.3-5,13.8-11,19.4-17.8
			c6.7-8.1,9.6-17.4,10.6-27.6s-2.4-18.9-9.6-26.1C1400.5,2890.8,1397.7,2888.5,1394.7,2886.5z"/>
		<path class="st0" d="M1164.1,2972c4.3-9.9,10.4-17.9,20.2-22.9c2.2-1.3,4.3-2.8,6.3-4.3c-4.7,0-7.9-0.2-11.1,0.1
			c-3.6,0.3-7.1,1.1-10.6,1.7c-12.5,1.8-22.4,8-29.9,18.1c-2.9,3.9-5.8,7.7-8.9,11.4c-6.1,7.6-14.6,12.7-24.2,14.6
			c-9.9,2-19.8,2.7-29.8,0.8c-5.5-1.1-11-2.2-16.6-2.7c-25-2.4-45.6,5.8-60.7,26.4c-2.3,3.3-4.4,6.7-6.3,10.2
			c-0.3,0.6,0.4,1.9,0.8,3.4c4.1-2,7.5-4,11.2-5.4c20.2-7.9,40.6-12,61.3-1.6c2.5,1.2,5.1,2.3,7.7,3.2c10.6,3.7,21.4,6.1,32.8,5.8
			c12.1-0.2,23.7-5.2,32.1-14c5.9-6,10.8-13,14.4-20.5C1156.8,2988,1160.6,2980.1,1164.1,2972z"/>
		<path class="st0" d="M713.8,3029.1c11-2.5,21.4-6.6,31.6-11.2c4.5-2,9-3.2,13.9-2.3c2,0.3,4,0.3,6,0.2c12.4,0,24.7,2.9,35.8,8.6
			c2.7,1.4,5.2,3.7,10.4,2.9c-2.7-4.4-4.5-7.9-6.8-11.1c-15.7-21.9-37-30.7-63.6-27.2c-5.5,0.7-11,1.9-16.6,2.7
			c-9.1,1.2-18.4,0.8-27.4-1.1c-9.9-1.9-18.8-7.4-25-15.4c-3.5-4.4-6.9-8.8-10.4-13.2c-5.5-7-13.1-12-21.7-14.3
			c-8.4-2.3-17.1-4.2-26.8-2.4c1.2,1.1,2.5,2.1,3.8,3c11.1,5.4,17.8,14.4,22.3,25.6c3,7.4,6.7,14.5,10.2,21.7
			c3.7,7.5,8.6,14.5,14.3,20.6c6.8,7.3,15.1,12.2,24.8,13.6C697.1,3031.1,705.6,3030.8,713.8,3029.1z"/>
		<path class="st0" d="M1510.6,2712.2c-7.1-4.6-15.2-7.4-23.6-8.4c-8-0.8-16-1.2-24-1.6c-2.8-0.2-5.7-0.3-8.6,2.9
			c3.1,3.3,6,6.1,8.4,9.2c3.8,4.6,7.3,9.5,10.4,14.7c4.6,8.2,7,17.2,6,26.6c-1.5,14-5.2,27.5-12.3,39.9c-5.2,9-9.2,18.7-11.9,28.8
			c-3.4,12.8-1,24.6,6.3,35.5c0.6,0.9,1.8,1.3,3.2,2.1c0.9-3.4,1.8-6.5,2.4-9.6c3.7-16.9,12-31.3,24-43.6c4.2-4.3,8.6-8.4,13.2-12.2
			c11-8.9,17.8-20.5,22.8-33.3C1533.9,2745.5,1527.4,2722.7,1510.6,2712.2z"/>
		<path class="st0" d="M335.4,2795c-4.2-7.3-7.3-15.2-9.2-23.4c-1.9-8.5-4.1-17-2.5-26.1c2-11.1,7.1-21.4,14.6-29.8
			c3.1-3.6,6.5-7.1,10.3-11.2c-2.3-0.9-4.1-2.3-5.8-2.2c-10.4,0.5-20.8,0.9-31.1,2.2c-5,0.6-10,2.8-14.7,5
			c-20.7,9.5-28.2,33.7-22,51.6c4.5,13,11,24.8,21.9,33.9c5.6,4.6,10.8,9.5,15.8,14.7c11.2,11.9,19.1,25.6,22.7,41.7
			c0.8,3.4,1.7,6.7,2.6,10.2c1.2-0.6,2.2-0.8,2.6-1.4c7.8-11.1,10.3-23.2,6.7-36.5C344.6,2813.7,340.6,2804,335.4,2795z"/>
		<path class="st0" d="M1190.2,2848.4c-4.1,2.5-8.4,4.6-12.7,6.9c-7.4,4-14.9,7.9-22,12.2c-8.3,5.1-14.8,12.2-19.9,20.5
			c-6.3,10.2-8.8,21.2-5.8,33.1c3.2-0.5,3.3-3.4,4.5-5.3c2.8-4.5,5.7-9.1,10.4-11.4c7.9-3.8,16-7.5,24.9-8.4
			c11.1-1.1,22.2-2.8,33.4-2.9c8-0.1,16-1.5,23.5-4.2c6.9-2.5,11.8-7.2,14-13.9c2.8-8.8,4.4-17.8,3-27.2
			c-2.9-20.4-12.7-39.2-27.8-53.2c-2.6-2.4-5.1-5-9.5-5.9c0,1.6,0.2,3.2,0.4,4.8c0.9,4.3,2.4,8.5,2.8,12.9
			C1211.2,2824,1206,2838.7,1190.2,2848.4z"/>
		<path class="st0" d="M595.5,2788.4c-1.7,0.9-3.3,1.9-4.8,3c-14.4,11.7-23.9,26.8-29.1,44.6c-3.4,11.7-4.1,23.5-0.6,35.5
			c2.6,8.8,7.4,15.2,16.3,17.6c6.9,1.9,14,3.2,21.2,3.9c9.1,0.9,18.3,1.1,27.4,2.2c8.3,1,16.5,2.9,24.4,5.7
			c7.7,2.5,14.1,7.8,18.1,14.9c1.2,2,1.3,4.9,4.3,5.3c3.7-15.9-0.4-23.9-5.7-33c-4.8-8.4-11.6-15.5-19.9-20.5
			c-8.2-4.9-16.8-9.2-25.2-13.9c-5.2-3-10.6-5.8-15.2-9.5c-7-5.5-11.7-13.4-13-22.2c-1.5-9.4-0.5-18.3,1.9-27.2
			C596.2,2792.7,597.2,2790.8,595.5,2788.4z"/>
		<path class="st0" d="M1044,2891.9c-7.3-2-14.7-3.9-22-5.8c-11.3-2.9-21.3,0-30.5,6.7c-2.2,1.6-4.3,3.6-6.5,5.3
			c-10.1,8-22.1,13.3-34.8,15.2c-7,1.1-14.2,1.8-21.8,2.7c7,5.3,14.7,7.1,22.3,9.3c5.8,1.8,11.9,2,17.8,0.5
			c8.1-2.1,16.3-3.9,24.2-6.7c7.6-2.7,15.9-2.5,23.4,0.6c7.1,2.8,14.1,5.8,21,8.9c5.1,2.5,10.6,3.8,16.2,4c10.4,0.1,20.8,0,29.6-7.3
			c5.3-4.3,9.7-9.6,12.9-15.6c6.3-12.5,11.7-25.4,16.1-38.7c3.3-9.9,7.6-19.4,16.4-26c0.8-0.8,1.5-1.7,2-2.8
			c-0.5-0.3-0.9-0.7-1.2-0.7c-13.5,1.7-23.8,8.6-31.7,19.5c-4,5.5-7.7,11.3-11.9,16.6C1074.7,2891.2,1061,2896.6,1044,2891.9z"/>
		<path class="st0" d="M717.1,2877.3c-3.8-5.2-7.4-10.4-11.2-15.6c-8.1-11.2-18.5-18.6-33.4-19.3c9.5,7.1,14.5,17.2,18.2,27.8
			c4.3,12.9,9.5,25.5,15.4,37.7c2.3,4.7,5.3,9,8.8,12.8c4.7,5.1,10.2,9.5,17,10.7c11.9,2.1,23.8,2.6,35.1-3.4
			c6-3.2,12.5-5.4,18.8-7.9c8.1-3.2,16.1-3.8,24.5-0.7c7.9,2.7,16,4.9,24.3,6.6c11.2,2.4,27.6-1.8,37.4-8.9c0.2-0.1,0.2-0.6,0.3-1.4
			c-2.4-0.2-4.8-0.3-7.1-0.5c-8.8-0.7-17.4-2-25.8-5.1c-9.5-3.4-18.2-8.5-25.7-15.1c-10.4-9.3-22.3-11.9-35.7-8.2
			c-7.3,2-14.7,4-22,6c-5.5,1.6-11,1.1-16.6-0.1C729.9,2890.4,722.7,2885,717.1,2877.3z"/>
		<path class="st0" d="M987.8,3067.5c-2.8-0.2-5.6-0.6-8.4-0.5c-13.2,0.5-25.3,3.6-34.6,13.9c-1.1,1.2-2.2,2.3-3.5,3.4
			c-3.7,3.1-7.1,6.5-11.2,9c-18.9,11.7-38.8,11.8-57.7,0c-5-3.2-9.7-7.1-13.7-11.6c-10.3-11.1-23.3-15.4-37.9-14.5
			c-11.4,0.7-22.3,0.3-32.7-4.9c-0.3-0.1-0.6-0.1-0.9,0c0,0.7,0.2,1.4,0.5,2c6.7,7.9,14.6,13.4,25.2,14.7c13.1,1.7,23,8.6,29.9,19.9
			c1.2,2,2.7,4,3.9,6c5.2,8.3,12.3,14.5,20.7,19.6s17.6,7.4,27.3,8.4c12,1.3,24.1-0.6,35-5.7c11.8-5.3,21.6-14.2,28.1-25.3
			c1.8-3.1,3.8-6.1,6.1-8.9c7-8.4,16.1-12.7,26.9-14.3c10.5-1.6,19.3-6.4,24.4-16.4c-1.4,0.2-2.8,0.5-4.1,1.1
			C1003.8,3067.4,995.9,3068,987.8,3067.5z"/>
		<path class="st0" d="M787,3062.2h0.3c0-0.1,0-0.2,0-0.2L787,3062.2z"/>
		<path class="st0" d="M1015.7,3062.2L1015.7,3062.2l0.3-0.3c-0.2,0-0.4,0.1-0.6,0.1l0,0l-0.2,0.3L1015.7,3062.2z"/>
		<path class="st0" d="M1274.8,3023.4c-5,1.6-9.4,4.6-12.8,8.6c-3.5,4.3-6.8,8.9-9.8,13.7c-3,4.8-5.3,9.9-8,14.8
			c-10.6,19.4-24.4,35.6-44.6,45.6c-7.5,3.7-15,7.5-22.4,11.6c-6,3.3-11.8,6.7-17.6,10.4c-6.5,4.1-11,10.1-15.9,17.8
			c3.7-1,5.9-1.5,8-2.3c9.5-3.3,19-6.4,29-7.6c12.3-1.5,24.6-2.9,36.9-4c30.5-2.9,46-17.7,52.6-41.5c2.1-7.3,3.6-14.8,4.7-22.3
			c2.2-16.1,6.1-31.4,16.4-44.4c0.3-0.4-0.2-1.4-0.4-2.6C1285.4,3020,1280.1,3021.6,1274.8,3023.4z"/>
		<path class="st0" d="M643.1,3128.1c-6.1-3.9-12.3-7.5-18.6-10.9c-8.8-4.8-17.8-9.2-26.6-14c-7.4-4.1-14.1-9.3-19.8-15.4
			c-8.5-9-15.7-19.3-21.3-30.4c-3.8-7.9-8.4-15.5-13.7-22.5c-7.5-9.6-17.3-13.8-29.2-14c-1,0-2,0.9-3.2,1.5
			c3.2,5.4,6.5,10.4,9.1,15.7c4.7,9.4,6.4,19.7,7.7,30.1c1.2,9.5,3.5,18.9,6.6,28c4.3,12.2,11.6,21.9,23.1,28.1
			c7.4,4,15.5,6.6,23.9,7.6c7.5,0.9,15.1,1.6,22.7,2c16,1,31.8,4.3,46.8,9.8c2.2,0.8,4.4,1.3,8,2.3
			C654.2,3138,649.5,3132.2,643.1,3128.1z"/>
		<path class="st0" d="M1097.2,3097.6c-5.4,3.2-10.2,7.7-15.2,11.7c-10,8.3-22.9,12.3-35.8,11l-6-0.5c-6.4-0.6-12.7-1.3-19.1-1.6
			c-15.6-0.7-29,4.4-39.7,16c-3.2,3.5-6.2,7.4-9.2,11.1c-8,9.7-16.6,18.6-30.9,21.3c7.5,4.1,13.8,4.2,20.5,1.8
			c7.5-2.7,14.7-6.2,21.6-10.4c11.2-6.7,23.1-8.2,35.8-5c7.3,1.9,14.8,3.3,22.3,4.2c11.7,1.2,23.1,0.8,33.6-6
			c5.4-3.4,10-8,13.5-13.4c5.2-8.1,10.6-16.1,15-24.6c5.3-10.4,13.8-16.2,24.3-20.1c1.4-0.5,2.7-1.2,6.4-2.9
			C1118.6,3086.7,1107.6,3091.4,1097.2,3097.6z"/>
		<path class="st0" d="M841.5,3168.4c6,2.5,12.9,2.1,18.5-1.1c-5.7-3-11.7-5.2-16.5-8.9c-5.3-4.1-9.5-9.6-14.1-14.7
			c-3.2-3.6-6-7.5-9.4-10.9c-10.1-10.2-22.5-15-36.7-14.7c-7.2,0.2-14.4,0.8-21.5,1.8c-16.8,2.2-31.7-1.6-44.4-13.2
			c-3.8-3.6-7.9-6.8-12.4-9.4c-9.8-5.5-20.1-10.1-31.8-8c-0.8,0.1-1.5,1-2.5,1.6c0.4,0.5,0.9,0.9,1.4,1.3c0.7,0.3,1.5,0.6,2.2,0.8
			c11,3.7,20,9.8,25.1,20.8c1.6,3.2,3.4,6.3,5.4,9.3c3.8,6.1,7.4,12.4,11.8,18.1c7.1,9.3,16.7,15,28.4,16.1
			c6.3,0.6,12.7,0.8,19.1-0.6c7.8-1.8,15.7-2.8,23.5-4.4c9.1-2,18.5-0.8,26.8,3.4c3.2,1.6,6.3,3.4,9.6,5
			C829.8,3163.2,835.5,3166,841.5,3168.4z"/>
		<path class="st0" d="M944.1,3223.7c-4.8-0.4-9.5-0.9-14.3-1.5c-8.8-1-17.5-3-26.2-2.9c-10,0.1-19.9,1.9-29.8,2.9
			c-5.2,0.5-10.3,1.2-15.5,1.5c-11.8,0.8-22-3.1-30.9-10.9c-2.3-2-4.8-3.8-8.3-6.7c0.2,3.4,0.1,5.4,0.6,7.2
			c3.2,11.4,10.1,19.8,20.9,25c11.9,5.7,23.2,12.7,33.7,20.7c3.5,2.6,7.3,5,11.2,6.9c10.7,5.4,21.6,5.5,32.3,0.1
			c4.3-2.2,8.4-4.7,12.2-7.6c9.9-7.5,20.5-14,31.7-19.5c3.6-1.8,7-3.9,10.1-6.4c8-6.5,11.8-14.7,12-26.4c-3.4,2.9-5.5,4.6-7.6,6.5
			C967,3221,956.3,3224.7,944.1,3223.7z"/>
		<path class="st0" d="M1129.2,3193.4c-2,1.3-4,2.6-5.9,4c-10.8,8.2-23.6,11.4-36.6,13.8c-6.6,1.3-13.5,1.6-20.2,2.3
			c-15.2,1.7-28.1,8.2-39.5,18.3c-12.8,11.4-21.8,25.4-30.8,43.1c5.6-2.7,8.7-4.3,11.8-5.8c12.2-6.1,24.9-10.8,38.6-12.2
			c8.7-0.9,17.5-1.6,26.2-2.9c24.2-3.7,42.6-15.3,51.8-39c2.3-5.9,4.1-12.1,6-18.2c0.3-1-0.1-2.3-0.2-3.4
			C1129.8,3193.4,1129.4,3193.2,1129.2,3193.4z"/>
		<path class="st0" d="M774.7,3231c-9.7-9-21.9-14.9-35-17.1c-7.5-1.2-15.1-1.6-22.6-2.6c-3.2-0.4-6.3-1-9.4-1.8
			c-12.4-3.4-24.5-7.4-35.6-18.3c0,3.5-0.2,4.7,0,5.8c2.4,9.3,5.8,18.3,10.2,26.8c3.1,5.6,7.1,10.6,12,14.8
			c10.6,9.4,23.2,13.8,36.9,15.6c8.7,1.1,17.5,1.6,26.2,2.9s17.3,2.9,25.3,6.8c6.1,2.9,12.2,5.8,18.4,8.8c1.4,0.7,2.8,1.4,4-0.4
			C793,3249.8,788.6,3243.8,774.7,3231z"/>
		<path class="st0" d="M427.4,2711.9c-1.9-0.2-3.1-0.6-4.2-0.4c-17.6,4-29,15.4-32.6,35.6c-1.6,9.1-0.7,18.3,1.3,27.4
			c2.2,10.1,4.2,20.4,6.5,30.5c1,3.9,1,8,0.1,11.9c-0.6,2.3-0.6,4.8-1,7.1c-0.4,2.6-0.9,5.3-1.5,8.8c10.5-4.8,18.5-11.3,26.3-18.1
			c4.6-4.1,7.6-9.2,10.4-14.6c4.1-8,4-16.2,0.5-24.4c-1.8-4-3.8-7.9-6.2-11.7c-5.4-8.7-8.7-18.5-9.9-28.7c1.3-3.6,2.5-7.9,4.2-11.9
			S425.2,2716,427.4,2711.9z"/>
		<path class="st0" d="M1380.7,2711.7c-1.6-0.4-3.8-1.2-5.2,1.6c5,7.1,9,14.9,10,23.7c-3.3,15.4-3.4,15.4-10.4,28.1
			c-2.1,3.9-4.2,7.7-6,11.8c-2.4,5.7-3.4,11.8-1.2,17.6c2.1,5.6,4.7,11.3,8.4,15.8c8,9.6,18.2,16.6,29.3,22.2c0.5-0.7,1-1.1,0.9-1.3
			c-0.2-1.2-0.4-2.3-0.7-3.5c-2.8-11.1-2.4-22.1,0.3-33.2c1.6-6.6,3-13.2,4.7-19.9c2-8.2,2.5-16.6,1.6-25
			C1410.5,2731.3,1399.3,2716.4,1380.7,2711.7z"/>
		<path class="st0" d="M517,2858.8c-0.2,0.6-0.2,1.4-0.4,3.9c10.2-7.2,14.2-16.8,17.7-26.6c3-8.4,2.6-17.6-1-25.8
			c-0.3-0.7-0.6-1.5-0.8-2.3c-4.2-18.6-0.6-35,14.5-47.6c4.3-3.5,8.9-6.8,13.6-9.8c8.8-5.8,14.4-13.7,15.9-24.2
			c0.1-0.9-0.5-1.8-0.7-2.8c-0.6,0.1-1.1,0.3-1.6,0.6c-1.5,1.3-3.1,2.6-4.4,4c-8.5,9.1-19.8,15.3-32.1,17.5
			c-7.1,1.4-13.9,4-20.1,7.5c-16.8,9.1-22.9,27.6-16.7,44c3.1,7.8,6.8,15.4,11,22.6C518.6,2832.1,522.6,2844.9,517,2858.8z"/>
		<path class="st0" d="M1285.1,2753.2c-7.1-3.7-14.6-6.4-22.5-8c-10.2-2.1-19.7-7.1-27.1-14.4c-2.6-2.5-5.2-4.9-9.6-9
			c1.1,13.1,5.4,21.6,14.4,27.5c2.3,1.5,4.6,3.1,6.9,4.8c3.2,2.4,6.4,4.7,9.5,7.3c11.2,9.5,15.9,21.7,15.2,36.2
			c-0.3,5.6-1.5,11.1-3.5,16.3c-2.4,6.4-2.5,13.5-0.5,20c2.9,10.2,7.2,19.5,15.2,26.7c0.7,0.6,1.8,0.6,3.3,1.1c-0.5-1.9-0.7-3-1.1-4
			c-3.6-10-2.5-19.7,1.7-29.1c1.6-3.6,3.5-7.2,5.2-10.8c3.3-6.8,6.9-13.5,9.7-20.6C1308.2,2780.8,1301.8,2762.3,1285.1,2753.2z"/>
		<path class="st0" d="M840.3,2985.7c5.2,2,10.7,3.4,16,5c7.3,2.3,14.5,4.6,20.5,9.6c6.9,5.7,15.3,9.2,24.2,10
			c8-0.9,15.5-3.3,21.9-8.6c7-5.7,15.1-8.8,23.6-11.4c5-1.5,10-2.8,14.9-4.6c9.4-3.5,14.2-8.3,20.1-20c-3.2,1.8-4.7,2.5-6,3.4
			c-11.5,8-24,10.4-37.6,6.9c-3.5-0.9-7-1.6-10.4-2.7c-13.6-4.3-27.3-6.1-41.4-2.8c-5.1,1.2-10.1,2.4-15.1,3.9
			c-10.5,3.1-21.1,4.9-31.8,1c-3.7-1.4-7.3-3-10.9-4.9c-2.3-1.2-4.1-3.5-7.3-3.4C825.8,2977.1,830.8,2982.2,840.3,2985.7z"/>
		<path class="st0" d="M1201,3011.8c7.8-4.9,15.9-9.4,24.9-11.9c26.1-7.1,43.8-24.4,55.9-47.6c6.2-11.8,9.7-24.6,7.3-38.3
			c-0.4-1-0.9-2-1.5-2.8c-0.9,0.8-1.8,1.1-2,1.8c-8.2,21-23.8,34.6-43.7,44.1c-7.2,3.5-14,7.8-20.9,11.8
			c-7.1,4.1-12.6,9.9-16.9,16.8c-5.5,8.4-10,17.4-13.3,26.8c-1.4,4.3-4.3,8.2-4.2,13.1c1.8-2,3.5-4,5.4-5.8
			C1194.9,3017,1197.7,3013.9,1201,3011.8z"/>
		<path class="st0" d="M615.9,3023.8c-3.9-12.6-9.3-24.7-16.1-36.1c-4.7-8-11.3-14.7-19.2-19.5c-7.2-4.3-14.3-8.8-22-12.2
			c-4-1.7-7.9-3.9-11.5-6.4c-13.1-9.6-24.6-20.6-30.1-36.5c-0.3-0.7-1.6-1.1-2.9-1.9c-1.8,7.8-2,15-0.2,22c7,27,22.5,47.5,47.2,60.7
			c4.5,2.4,9.6,4,14.5,5.7c15.4,5.2,29.8,11.9,39.7,25.6c0.2,0.2,0.4,0.4,0.7,0.6C616.1,3025.1,616,3024.4,615.9,3023.8z"/>
		<path class="st0" d="M698.7,2720.3c-6.6,11.8-17.2,16-29.9,16.7c-4,0.2-8,0-12,0.5c-3.1,0.4-6.6,0.9-9.2,2.5
			c-8.5,5.4-14,13-14.8,23.4c-0.6,7,1.7,12.4,7.5,16.5c7,5,14.8,7.9,23,9.9c4.3,1,8.7,1.6,12.8,3c13.3,4.7,26.2,10.1,32.7,25.2
			c2.7-9.1-0.6-16.5-2.8-24c-1.4-5.1-5.2-9.3-10.3-11c-4.9-1.8-9.9-2.9-14.9-4.4c-3.1-0.8-6.1-1.7-9.1-2.8c-4.8-1.9-7.9-5.4-8-10.9
			s2.6-9.2,7.4-11.2c4.1-1.6,8.2-3,12.5-4.1c2.3-0.6,4.8-0.6,7.1-1.3c5.5-1.5,9.1-4.9,9.8-10.8c0.3-2.4,0.8-4.8,0.8-7.1
			c0.2-6.1,3.1-10.6,8.2-13.9c1.1-0.5,2.1-1.2,3-2c0.8-0.9,2.9-0.9,2.1-3.4C708.2,2712.3,702.1,2714.2,698.7,2720.3z"/>
		<path class="st0" d="M1133.8,2737c-8.5-0.1-16.7-3-23.2-8.4c-2.9-2.3-4.7-5.3-6.6-8.3c-3.9-6.2-9.2-8.6-17.1-8
			c2.3,1.6,4.2,3,6.2,4.3c5,3.3,7.9,7.8,8.1,13.9c0.1,2,0.4,4,0.6,6c0.7,6.9,4.7,10.8,11.2,12.3c1.9,0.4,4,0.4,5.9,0.9
			c4.2,1.2,8.4,2.5,12.5,4.1c4.9,2,7.6,5.8,7.4,11.2s-3.2,8.9-8,10.9c-3,1.1-6,2-9.1,2.8c-5,1.4-10,2.7-14.9,4.4
			c-3.4,1.2-6.7,3.3-8.2,6.7c-3.9,8.6-7.3,17.5-5,29c6.2-15.4,18.8-20.7,31.7-25.5c3.7-1.4,7.8-1.9,11.6-2.9
			c4.3-1.1,8.5-2.1,12.7-3.6c5.7-1.9,10.9-5.1,15.3-9.2c1.8-1.6,3.1-3.6,4-5.8c4.5-13.7-6.4-31.6-20.8-33.8
			C1143.3,2737.3,1138.6,2737,1133.8,2737z"/>
		<path class="st0" d="M823.8,2781.2c1.8,8.9,6.8,13.5,12.3,17.2c10,6.8,18.2,15.8,24.2,26.3c6.4,10.9,16.3,17.5,27.5,22.4
			c8.2,3.7,17.5,3.8,25.8,0.4c11.3-4.6,21.4-10.9,28-21.7c1.6-2.8,3.3-5.5,5.2-8.1c5.4-7,11.2-13.5,18.7-18.5
			c5.9-4,11.4-8.6,13.4-17.9c-5.4,5.8-12.2,10.3-19.7,13c-7.6,2.7-14.4,7.2-19.7,13.3c-7.9,9.2-18.7,13.4-29.8,17.1
			c-5.3,1.8-11.2,1.8-16.5,0c-11.1-3.7-21.9-7.8-29.8-17c-5.3-6.1-12.1-10.7-19.6-13.3C836.1,2791.7,829.2,2787.2,823.8,2781.2z"/>
		<path class="st0" d="M977.9,2860.9c10.7,0,18.5-3.8,26.5-7.6c6.9-3.3,14-5.7,21.7-6.2c4.4-0.3,8.7-1.1,12.9-2.2
			c8.2-2.1,14.2-6.9,17.6-14.9c1.7-4.1,2.5-8.5,2.3-12.9c-0.2-9.6-0.2-19.1,1.7-28.6c0.1-0.4-0.7-1-1.1-1.4
			c-0.7,0.6-1.6,0.9-1.8,1.6c-4.3,10.2-12.4,16.3-22.4,20.4c-3.7,1.5-7.2,3.4-10.8,5.2c-6.7,3.3-12,7.9-15.1,14.8
			c-2.3,5.2-5.9,9.3-9.7,13.5C993.4,2849.7,986,2855.9,977.9,2860.9z"/>
		<path class="st0" d="M742.4,2785.7c-0.2,2.7-0.7,4-0.4,5c2.1,6.2,1.6,12.6,1.8,19c0.1,3.6-0.2,7.2,0,10.8
			c0.8,12.7,8.3,21.6,20.7,24.7c2.7,0.8,5.4,1.3,8.2,1.6c11,0.4,21.1,4.1,30.8,9.1c6.4,3.3,13.2,4.8,21.2,5.3
			c-2.4-1.6-4.1-2.6-5.7-3.8c-10.7-7.9-20.3-16.7-26.3-28.9c-2.9-5.8-7.6-10.4-13.3-13.3c-4.6-2.4-9.2-4.8-14-6.9
			c-8.8-3.8-15.7-9.3-19.8-18.2C745.2,2789,744.3,2788.1,742.4,2785.7z"/>
		<path class="st0" d="M899,2535.6c-3.6,9.3-7.3,18.6-10.6,28c-2.3,6.4-4.1,13-6,19.5c-0.6,2.3-0.9,4.7-0.8,7.1
			c0.2,10,7.8,18.4,17.8,19.5c9.5,1,17.7-4.7,20.8-14.5c1.4-4.4,1-8.6-0.1-13c-4.4-17.5-11.8-33.9-18.8-50.9
			C900.4,2532.7,899.7,2534.2,899,2535.6z"/>
		<path class="st0" d="M920.4,2410.4c-2.1-7.3-4.3-14.6-6.8-21.8c-3-8.7-6.5-17.2-9.8-25.8c-0.6-1.5-1.4-2.9-2.5-5.1
			c-1.2,2.3-2.2,3.9-2.8,5.6c-3.3,8.6-6.7,17.1-9.8,25.8c-2.4,6.8-4.4,13.7-6.4,20.6c-0.6,2.3-0.9,4.7-0.8,7.1
			c0.1,10.1,7.6,18.5,17.6,19.7c9.5,1.1,17.7-4.6,21-14.3C921.5,2418.4,921.6,2414.3,920.4,2410.4z"/>
		<path class="st0" d="M872.5,2754.8c2.8,11.2,10,17.1,20.8,19.2c5.9,1.2,11.9,1,17.7-0.4c10.9-2.5,17.3-9,19.2-19.3
			c-2.8-9.4-9-14-17.2-16c-7.8-2-15.9-1.9-23.7,0.1C881.1,2740.7,875,2745.4,872.5,2754.8z"/>
		<path class="st0" d="M1324,2707.1c-7.1-3.9-15.4-4.8-23.2-2.4c-10,2.9-19.8,2.1-29.4-1.3c-3.8-1.3-7.4-2.9-11-4.6
			c-6-2.8-12.3-3.1-18.7-1.8c-1.3,0.2-2.4,1.6-3.7,2.5c6,1.5,11.5,2.3,16.7,4.3c4.4,1.7,8.5,4.4,12.5,7c10.7,6.9,22.1,10.9,35.1,9.2
			c3.2-0.3,6.4-0.4,9.6-0.3c5.8,0.2,9.9,2.8,10.9,8.7c0.2,4.9-3.4,9.3-0.2,16.3c1.4-10.3,10.3-14.3,11.6-22.2
			C1334.3,2714.6,1330.1,2710.3,1324,2707.1z"/>
		<path class="st0" d="M535.3,2710.7c8.7-6.1,18-10.1,30.3-10.4c-2.3-1.7-3.3-3-4.6-3.3c-7.1-1.5-14.5-0.6-20.9,2.7
			c-12.9,6.4-26.3,8.9-40.6,4.4c-3.5-0.9-7.1-1.1-10.7-0.5c-6.4,0.8-12.3,3.7-17,8.2c-3.1,2.9-3.6,7-3.5,12.1
			c1.8,2.6,4.1,5.8,6.2,9.1s4.1,6.5,6.2,9.8c2.8-5.4-1.8-10.2-0.8-15.3c1.3-4.8,4.6-7.4,9.5-7.7c3.6-0.3,7.2-0.2,10.7,0.1
			C513.2,2721.6,524.8,2718,535.3,2710.7z"/>
		<path class="st0" d="M789.5,2733.2c3.3-3.4,7.3-6.1,10.1-13.1c-5.8,3.2-9.3,5.8-13.3,7.3s-8.5,2.1-12.7,3.1
			c-1.9,0.5-3.8,1-5.7,1.6c-13.8,4.6-13.5,15.9-8.6,24.9c2.1,3.5,5.3,6.1,9.2,7.3c5.6,2,11.3,3.6,17,5.3c1.7,0.5,3.1,0,3.5-2.4
			c-1.9-2.3-4.1-4.6-6-7.1c-4.6-6.1-4.7-12.6-0.5-18.9C784.3,2738.3,787,2735.8,789.5,2733.2z"/>
		<path class="st0" d="M1005,2724.3c3.2,3.6,6.5,7.1,9.9,10.4c10.5,10.4,10.9,17.9,1.6,29.1c-1.2,1.4-3.2,2.5-2.3,5.5
			c6.4,0.5,12.3-2,18.1-4.2c3-1.2,5.7-2.8,8.2-4.9c9.6-8.1,7.3-22.6-4.2-27.5c-3-1.2-6.1-2.1-9.2-2.6c-8-1.4-15.5-3.7-22.3-9.9
			C1004.9,2722.3,1004.5,2723.7,1005,2724.3z"/>
		<path class="st0" d="M869.2,2708.9c-7.8,3.1-16.1,4.5-24.5,4.1c-5.3-0.1-9.1,2.4-11.6,6.9c-1.1,2.1-2,4.3-2.8,6.5
			c-3.2,8.6-0.3,17,1,27.9c7.8-22.4,20.9-37,41.7-44.3c-0.9-0.6-1.2-1-1.5-1C870.7,2708.8,869.9,2708.8,869.2,2708.9z"/>
		<path class="st0" d="M955.7,2726.4c6.5,7.5,11.2,16.3,15.9,26.6c0.7-5.1,0.9-8.7,1.8-12.1c1.4-5.3,0.2-10.3-1.2-15.2
			c-2.6-9-6.9-12.4-16.3-12.6c-7.2-0.1-14.2-0.9-21-3.7c-1.3-0.6-3-0.3-7.1-0.7C939.2,2714.5,948.8,2718.5,955.7,2726.4z"/>
		<path class="st0" d="M632.1,2704.3c-2.3,0.6-4.5,1.5-6.6,2.6c-10.7,6.4-15.9,20.6-12.4,33.4c0.5-0.6,0.9-1.2,1.3-1.9
			c4.4-12.7,12.3-22.2,24.4-28.2c3.1-1.5,6.2-3.6,7.6-7.9l-9.5,1.3C635.2,2703.7,633.6,2703.9,632.1,2704.3z"/>
		<path class="st0" d="M1158.5,2706.1c2.5,2,5.1,3.8,7.9,5.4c9.8,5.5,16.8,13.3,20.7,23.9c0.7,1.8,0.7,4.4,3.7,5.2
			c0.3-6.8,0-13.2-2.2-19.3c-3.6-9.8-10.1-16.1-20.8-17.5c-3.5-0.4-7.1-1-12.2-1.8C1157.1,2704.2,1157.6,2705.4,1158.5,2706.1z"/>
		<path class="st0" d="M759.8,2696.9c-3.8,1.4-6.8,4.5-8,8.4c-2.1,6.1-3.7,12.3-4.8,18.7c4.7-3.3,7.2-7.4,9.6-11.4
			c2.9-4.9,7.1-8.5,11.9-11.4c4.4-2.7,9.2-4.7,14.3-5.8c1.3-0.3,2.9-0.8,2.4-3.4C776.4,2691.7,768.1,2694.2,759.8,2696.9z"/>
		<path class="st0" d="M1048.3,2716.1c1.6,3.3,4.3,5.9,7.5,7.6c-1.5-5.8-2.7-10.8-4.1-15.7c-1.7-6.2-5.4-10.5-11.9-12.1
			c-5-1.2-10-2.7-15-3.7c-2.6-0.5-5.3-0.1-8.2-0.1c0.4,1.1,0.5,1.6,0.7,1.8c0.9,0.7,2,1.3,3.1,1.6
			C1032.7,2698.5,1042.1,2705,1048.3,2716.1z"/>
		<path class="st0" d="M616.8,3026.5l-0.5-0.6l-0.3-0.2c0,0.1,0,0.3,0,0.4L616.8,3026.5z"/>
		<path class="st0" d="M1185.8,3026.5l0.8-0.4c0-0.2,0-0.4,0-0.6l-0.3,0.3L1185.8,3026.5z"/>
		<path class="st0" d="M783.9,3059.1l0.5,0.7l0.5,0.5c-0.1-0.3-0.1-0.6-0.2-0.9L783.9,3059.1z"/>
		<path class="st0" d="M1018.2,3059.8c0.7-0.9,0.2-0.6-0.3-0.4c0,0.3-0.1,0.6-0.2,0.9L1018.2,3059.8z"/>
		<path class="st0" d="M786.6,3061.9l-1.6-1.6C785.2,3061.1,785.8,3061.7,786.6,3061.9z"/>
		<path class="st0" d="M787,3062.2l0.2-0.2c-0.2,0-0.4,0-0.6-0.1L787,3062.2z"/>
		<path class="st0" d="M1017.7,3060.3l-1.7,1.6C1016.8,3061.7,1017.5,3061.1,1017.7,3060.3z"/>
		<polygon class="st0" points="1160.4,2507.2 1160.8,2507.3 1160.6,2507 		"/>
		<polygon class="st0" points="1412.3,2507.3 1412.7,2507.1 1412.5,2507 		"/>
		<path class="st0" d="M189,1670.5c0.9-1.2,1.2-2.7,0.9-4.1c-0.8-2.4-2.9-2.3-7.1,0.4C185.3,1671.1,187.4,1672.3,189,1670.5z"/>
		<path class="st0" d="M186.1,1636.2c1.2-0.4,2.1-1.7,2.8-2.2c0.1-2.9-1.7-4.8-3.5-4.4c-1.6,0.2-2.8,1.6-2.7,3.2
			C182.5,1634.7,184.4,1636.8,186.1,1636.2z"/>
		<path class="st0" d="M166.5,1533.5c-0.9-0.9-2.5-1.1-3.5-1.6c-2.1,2.1-2.7,4-1.2,5.7c0.9,0.9,2.5,1.1,3.5,1.5
			C167.5,1537,168.1,1535.2,166.5,1533.5z"/>
		<path class="st0" d="M173.9,1569.5c2.4-0.5,2.9-2.4,2.5-4.6c-1.5-1.6-3.1-2.5-5.1-0.8c-1.3,1-1.5,2.8-0.5,4.1c0,0,0.1,0.1,0.1,0.1
			C171.7,1569.2,172.8,1569.6,173.9,1569.5z"/>
		<path class="st0" d="M185.5,1697.3c-1.1,0.2-2,0.8-2.7,1.6c-0.9,1.3,0.1,3.4,1.6,3.4c0.9-0.2,1.8-0.5,2.6-1
			C187.7,1699.4,186.8,1697.2,185.5,1697.3z"/>
		<path class="st0" d="M179.7,1604.2c2.4,0.1,3.2-1.5,3.6-3.6c-3.5-4.4-3.5-4.4-7.1-0.2C176.5,1602.5,177.5,1604.1,179.7,1604.2z"/>
		<path class="st0" d="M155.2,1507.3c1.7,1,3.3,0.1,5.2-2.9c-1.9-2.8-1.9-2.8-5.2-3.1C153.5,1504.4,153.6,1506.3,155.2,1507.3z"/>
		<path class="st0" d="M1613.5,1664.7c-2.3,0.9-2.5,2.7-2,4.9c1.5,1.7,3.4,2.5,5,0.8c0.9-1.2,1.2-2.7,0.9-4.2
			c-0.6-1.4-2.2-2.2-3.6-1.6C1613.7,1664.6,1613.6,1664.7,1613.5,1664.7z"/>
		<path class="st0" d="M1614.2,1629.8c-1.6,2.2-2.3,4.4,1.7,6.7c2.4-0.9,3.8-2.2,3.2-4.4C1618.5,1630.1,1616.9,1629,1614.2,1629.8z"
			/>
		<path class="st0" d="M1636.2,1532.4c-1.9,1.9-2.5,4-0.2,5.9c0.9,0.5,2.1,0.5,3,0c0.9-1,1.8-2.6,1.7-3.8
			C1640.2,1532,1638.3,1531.8,1636.2,1532.4z"/>
		<path class="st0" d="M1626.2,1564.3c-1.7,1.8-0.9,3.6,0.6,5.2c4-0.7,4-0.7,4.5-4.6C1629.7,1563.2,1628,1562.4,1626.2,1564.3z"/>
		<path class="st0" d="M1617.1,1702.6c1.8-0.2,2.5-1.4,2.4-3.4c-0.4-1.4-1.8-2.3-3.3-2.1c-1.5,0.1-2.6,1.5-2.4,2.9
			c0,0.1,0,0.2,0.1,0.4C1614.1,1702.2,1615.4,1702.8,1617.1,1702.6z"/>
		<path class="st0" d="M1623.2,1597.7c-2.1-0.6-3.8-0.2-4.6,2.1c-0.7,1.5-0.1,3.3,1.4,4c0,0,0,0,0,0c1,0.5,2.2,0.4,3.3-0.1
			C1625.6,1601.8,1625.4,1599.7,1623.2,1597.7z"/>
		<path class="st0" d="M1646,1507.2c1-0.5,1.8-1.5,2.1-2.6c0.3-1.6-0.7-3.2-2.3-3.5c-2.9-0.9-4.4,0.6-5.1,3.3
			C1641.6,1507.1,1643.2,1508.5,1646,1507.2z"/>
		<path class="st0" d="M1100.6,1840.1c14.5-2,28.8-1.2,42.3,5.2c9.8,4.7,20.2,7.6,30.8,9.8c8.6,1.9,17.6,2,26.2,0.3
			c10.2-2.2,20.2-4.8,30.4-6.9c6.2-1.3,12.7-3.2,18.9-2.7c13.6,1,26.9,4.8,38.9,11.3c5.2,2.9,10.4,6,15.8,8.6
			c17.8,8.8,36.4,14.6,56.7,12.4c6.3-0.7,12.7-1.5,19-2.8s12.4-3.2,18.6-5c12.3-3.6,25.3-4.3,38-2c25,4.4,48.4,13.8,72.1,22.5
			c0.3,0.1,0.5,0.6,1,1.4c0.2,3,0.2,6,0,9c-2.8,27.5-5.8,55-8.5,82.5c-2.1,21.1-3.9,42.3-5.8,63.4c-0.8,9.2-1.7,18.4-2.6,27.5
			c-2,20.3-4.2,40.6-6.1,61c-1.9,19.9-3.6,39.9-5.5,59.8c-2.3,24.3-4.6,48.7-7,73c-0.8,8-1.5,15.9-2.4,23.9c-0.3,1.5-0.7,3-1.3,4.5
			c-1.2,0.4-2.5,0.7-3.8,0.8c-7.1-0.3-12.1,3.4-16.5,8.5c-1.6,1.8-2.8,3.9-4.3,5.8c-7.3,9-13.9,18.7-23.3,25.8
			c-7.3,5.6-14.8,11.1-22.6,15.9c-7.6,4.6-13.5,11.6-16.5,20c-1.7,4.5-3.3,9-4.8,13.6c-3.3,10.3-7.5,20.3-12.5,29.9
			c-5,9.2-8.4,19-11.9,28.9c-3.9,10.9-8.1,21.8-12.8,32.4c-2.5,5.4-5.6,10.6-9.2,15.4c-11,15.2-22.4,30.3-33.6,45.4
			c-3.8,5.1-7.7,10.3-11.5,15.4c-1.7,2.3-3.2,4.6-2.1,8.5c1.4,1,2.8,1.9,4.3,2.7c0.6,0.3,1.5-0.1,2.7-0.1c5.1-3.7,8.1-9.6,11.9-14.6
			c12.5-16.7,24.8-33.4,37.1-50.3c3.3-4.5,6.3-9.3,8.9-14.2c6.2-12.1,11.4-24.7,15.7-37.7c2.8-8.8,6.4-17.3,10.6-25.5
			c5.6-11.1,10.8-22.3,14.2-34.4c1.2-4.2,2.2-8.6,6.2-11.8c2.3-0.8,4.9-1.8,7.6-2.6c16.1-5.4,31.3-12.2,44.4-23.3
			c2.7-2.3,6-4,8.9-6.1c4.3-3,9.2-5,14.4-5.8c14.3-2.2,28.7-3.3,43-0.3c4.7,1,9.1,3,13.6,4.7c1,0.4,1.6,1.6,2.9,3.2
			c-1.7,0.3-3.4,0.4-5.1,0.4c-2.8-0.3-5.5-0.9-8.3-1.2c-10.3-1.3-19.8,0-28.5,6.4c-9,6.6-18.9,12.1-26.7,20.3
			c-1.5,1.4-3.1,2.6-4.8,3.8c-5.7,0-11.2-0.1-16.8,0c-6,0.1-12.1,0-17.6,2.9c-1.6,0.9-2.7,2.6-3.9,3.9c3.3,4.7,3.7,5.4,7.9,4.6
			c8.4-1.5,16.7-0.4,25.1,0.1c5.6,0.4,11.2,0.1,16.8,0.3c9.6,0.2,19.2,0.4,28.8,0.9c2.7,0.1,5.3,1.2,7.2,1.7c2.6,3.3,1.8,6.1,1,8.8
			c-2.2,7-6.4,12.7-11.7,18.2c-2.9-2.1-5.6-3.9-8.1-5.8c-4.8-3.7-9.6-7.2-14.1-11.2c-6.4-5.7-13.7-5.9-21.5-4.3
			c-2.5,0.3-4.5,2.2-5,4.6c-0.6,2.8,0.9,4.5,3.3,5.5l11-1.2c12.4,10.9,24.8,21.7,37.1,32.5c1.5,1.3,2.8,2.9,3.9,4.5
			c2.1,3.2,2.2,6.8,1.8,10.4c-0.1,2.3-1.7,4.2-3.9,4.8c-1.3-1.7-3-3.4-4-5.4c-5.5-10.8-15.1-17.5-24.1-24.8c-1-0.7-2-1.3-3.1-1.8
			c-2-0.9-4.1-1-5.6,0.4c-1,0.9-1.4,2.6-2.3,4.1c2.3,2.3,4.2,4.3,6.2,6.2c8,7.8,16.3,15.4,21.4,25.7c1.4,2.8,3.9,5,5.9,7.5
			c1.8,2.2,3.7,4.2,5.3,6.5s2.6,5,0.9,9c-8.1,6.7-18.7,10.1-29.6,12.5c-1.1,0.2-2.6-1.2-3.9-1.9c1.3-5.9,3.9-10.3,6.5-14.5l7.7-3.2
			c2.4-6.4-1.5-10.4-4.6-14.4c-1.6-2.1-4.2-3.3-6.8-5.3l-6,5.5c0.5,3,0.9,5.3,1,6.2c-6.5,13.9-12.9,26.4-18.2,39.3
			c-4.5,10.9-11.7,18.1-23.1,20.7c-8.2,1.9-14.6,6.4-20.2,12.2c-5.9,6-11,12.7-15.2,20.1c-5.1,9.1-10.3,18.1-15.4,27.2
			c-1.8,3.1-3.5,6.3-5.1,9.5c-0.3,0.6,0,1.6,0,2.8c1,3.2,3.5,4.6,7.1,4.6c4.4-1.4,5.6-5.5,7.6-8.9c7.4-12.9,14.2-26,22.9-38.1
			c6.3-8.7,13.9-14.9,24.7-17.9c12.9-3.6,22.6-11.9,27.7-24.7c1-2.5,2.4-4.9,3.4-6.9c1.5-0.4,2.3-0.8,3-0.8c15.6,1.4,29-5,41.8-12.6
			c7.6-4.5,9.4-9.7,7.5-18.4c-0.7-3.1-1.8-6.1-2.8-9.5c1.5-3.1,3.1-6.3,4.5-9.6c2.5-5.8,2.9-11.7,0.4-17.5c-1.5-3.2-3.3-6.4-5.2-9.4
			c-1.2-2-2.7-3.8-4.2-5.8c3.2-5.2,6.2-9.9,9.1-14.7c2.7-4.5,4.8-9.2,5-14.6c0.6-11.4-4.8-18.3-16.2-19.8c-6-0.8-12-0.6-18-1
			c-1.9-0.1-3.7-0.6-6.1-1.1c0.9-1.6,1.2-2.9,2.1-3.5c5-3.4,10.2-6.4,15-9.9c5.9-4.3,12.4-5.5,19.3-4.7c3.2,0.4,6.3,1.2,9.5,1.4
			c3.2,0.4,6.4,0.3,9.5-0.2c5.3-1,9.4-5.2,10.3-10.6c1-5.4-1.9-9.1-6.3-11.9c-8.5-5.4-18.2-8.6-28.2-9.5c-7.2-0.6-14.4-0.3-21.6-0.6
			c-2.4-0.2-4.7-0.6-7-1.1c0-3-0.2-5.4,0-7.8c1.2-12.3,2.7-24.7,3.8-37c2-21.5,3.7-43.1,5.7-64.6c2-20.7,4.3-41.4,6.3-62.1
			c2-21.5,3.8-43.1,5.7-64.6c1-10.8,2-21.5,3-32.3c1.2-12.8,2.6-25.5,3.8-38.2c1.1-11.6,1.8-23.2,2.9-34.7c2.3-25.5,4.7-51,7.1-76.6
			c0.4-3.9,0.2-8,2.8-11.5c1.1-0.3,2.3-0.5,3.4-0.6c4.8,0.4,9.6,0.9,14.3,1.5c14.2,1.8,28.2,0.1,41.1-6c10.8-5.1,21-11.5,28.9-21
			c6.5-7.6,12.5-15.7,17.9-24.1c5.7-8.8,8.7-19,8.9-29.5c0.4-13.9-3.4-27-7.5-39.9c-3.1-9.6-8.6-18-15-25.8
			c-3.5-4.4-7.2-8.7-7.9-14.6c1.2-7.6,6-11.9,13.2-13.8c8.4-2.2,16.7-6.2,25.7-2.3c0.4,0.1,0.8,0.2,1.2,0.2c4.5,0.4,7.5-1.5,9.5-5.7
			c1.2-2.4-0.1-5.8,3.1-7.4c5.4,0.6,9.5,3.6,13.8,6.6c4.9,3.4,4.5,10.2,8.9,13.6c4.2-1.6,5.6-3.2,4.8-5.6c-1.4-4-3.2-8-4.8-12
			c3.1-1.2,6.1-2.6,9-4.2c1.2-0.9,1.9-2.3,2.1-3.8c0.1-0.7-1.3-1.7-2.2-2.7c-10.7,3.1-21.2,4.4-31.3-0.2l-3-7.5
			c-5.9-4.6-12.8-3-18.7-5.4c0.8-1.1,1.2-2.1,1.8-2.2c7.8-1.9,15.5-3.7,24.2-5.7l5.2-4.8c4.2,0.4,6.7,3.2,9.6,5.2s4.8,5.5,8.7,5.8
			c2.8-3,2.8-3,1.8-5.8c-0.5-1.4-1.1-2.8-1.6-4.1l8.5-5.3l-2.4-4.1c-8,0.9-16.4,3.8-24.6-1c-0.5-1-1-2-1.3-3
			c-1.5-5.4-5.1-7.8-10.7-7.7c-4,0-8-0.2-12-0.7c-0.9-0.1-1.7-1.1-3.1-2.1c3.6-2.8,7.3-2.1,10.7-2.4c10.2-1.1,10.2-1,17.2-8.9
			c10.1,0.3,16.2,7.7,23.2,13.6c1.4-0.7,3-0.9,3.3-1.7c0.5-1.3,0.8-3.3,0.2-4.4c-2.1-3-4.3-5.8-6.7-8.6c1.7-2.7,3.3-5.5,4.7-8.3
			c0.5-1.2-0.3-3-0.8-4.4c-0.2-0.4-1.3-0.5-2-0.7c-9.8,8.3-9.8,8.3-22.9,5.3l-5.2-7.1c-16.9-2-19.3-2.7-24-7c4.4-3.4,9.6-4.1,14.8-4
			c5.4,0.1,10.2-1,13.7-4.4c6.7-0.3,13.4,1.8,18.8,5.8c2.6,1.8,5.2,3.9,9.3,2.6l1.5-3.7l-5.5-6.3c1.4-2.4,2.6-4.5,4-6.8l-3.5-3.6
			c-1.9,0.7-3.8,1.5-5.7,2.4c-3.9,2.2-8.4,2.9-12.8,2.1c-0.8-0.2-1.5-0.6-2.1-1c-1.2-2.4-2.3-4.9-3.4-7c-8.5-3.8-18.2,1.2-26-5.1
			c6.7-6.2,14.8-6.8,22.5-7.3c2.3-2.7,4.3-5,6.4-7.6c3.8,1.3,7.6,2,10.5,3.9c3.9,2.6,7.2,6.1,10.6,9.1c2.7,0.3,4.3-1.3,3.9-3.4
			c-0.6-3.1-2-6-3.1-8.9l5.3-5.6c-1.4-3.8-3.9-3.4-6.2-2.8c-7.6,2.1-15.6,1.7-23-1c-2.2-6.1-7-8.9-13.8-8.8c-1.6,0-3.7,0.6-4.8-1.8
			c8.5-2.1,16.8-1.1,24.4,0.2l5.7-4.8c7.1,1,13.6,4.2,18.9,9l3.2-3.6c-1.3-3-2.3-5.5-3.2-7.6l6.9-7.8l-2.9-4.1
			c-6.6,2.3-11.9,7.8-19.3,5.3l-4.6-7.6c-8.2-3.7-17.4-2.1-25.2-7.7c2.4-1.3,4.3-2.9,6.5-3.4c3.5-0.9,7.2-1.8,10.7-1.3
			c5.2,0.8,10.5-0.6,14.7-3.7c8.5-0.5,13.2,5.5,19.6,8c3.4-6.5-4.1-8.3-4.3-13c1.8-2.5,3.3-5.2,4.8-7.9c0.5-1.2,0.1-3.1-0.5-4.5
			c-0.3-0.8-1.8-1.2-3.2-2c-4.2,4.7-7.3,11.1-15.6,9.9c-3-1.8-5.1-5.2-9.4-6.2c-10.1-2.5-19.5-7.4-27.3-14.4
			c-11.5-10.1-25.6-16.9-40.6-19.7c-26-4.9-50.3,1.1-72.8,14c-13.6,7.8-25.5,18-33.9,31.7c-6.3,10.2-12.8,20.4-16.8,31.8
			c-2.7,7.6-5.2,15.2-7.2,22.9c-1.7,6.6-3.5,13.2-3.1,20.1c0.7,12.4,1.1,24.8,1.6,37.2c0.6,15.3,4.2,30.1,8.7,44.7
			c5.2,16.8,10.6,33.6,15.9,50.4c0.6,1.9,1.5,3.7,2,5.7c3.2,11.2,6.5,22.3,9.5,33.5c0.7,2.7,1,5.5,0.9,8.3c0.1,6.6-3,12.7-8.3,16.6
			c-7.9,6-16.7,9.1-27,7.3c-10.7-1.9-21-5.4-30.6-10.4c-9.7-4.9-20.2-7.7-30.6-10.7c-5.8-1.6-11.9-1.9-17.8-1
			c-10.4,1.4-20.5,3.2-30,8c-8.6,4.3-18,6.9-27.6,7.7c-2,0.2-4,0.6-5.9,1c-9.1,1.6-18.4,1.2-27.4-1.1c-8.2-2-16.2-4.5-24-7.5
			c-18.3-7.1-36.9-6.7-55.2-0.3c-7.6,2.6-14.8,6-22.2,9.2c-7.3,3.2-15.1,5.3-23.1,6.2c-13.1,1.4-26.2,2.9-39.3,4.6
			c-9.6,1.2-18.9,3.3-27.4,8.3c-3.8,2.2-8,3.8-11.8,6c-3.5,1.9-6.9,4-10,6.5c-7,6-13.8,12.2-20.6,18.4c-1.4,1.3-2.2,3.2-3.5,5.2
			c1.8,1.9,3.3,3.6,4.7,5C1085.6,1842.7,1093.1,1841.2,1100.6,1840.1z M1467.6,2326.7c-5,2.4-9.8,4.2-14.1,6.8
			c-3,1.8-5.9,3.8-8.8,5.8c-11.7,10.6-19.2,13.3-22.5,13.9l-0.1,0.2c0-0.1,0-0.1,0-0.2c-0.7,0.1-1.3,0.2-2,0.2
			c7.3-4.1,20.7-18.6,27.6-26.7c1-1.2,2.1-2.5,3.1-3.7c2.8-3.4,5.2-7,8-10.4c2.1-2.5,4.6-4.5,8.8-3
			C1470.6,2315.2,1467.9,2320.8,1467.6,2326.7L1467.6,2326.7z M1615.5,1766.3c8.9,16.9,13.8,34.9,12.4,54.3
			c-0.3,5.6-1.8,11.1-4.5,16.1c-6.3,11.2-13.6,21.8-22.8,30.8c-13.8,13.3-30.2,20.6-49.6,20.8c-16.6,0.1-32.5-3.5-48.2-8.7
			c-8.7-2.9-17.3-6.1-26-9.3c-13.9-5-28.3-8.7-43-10.8c-14.3-2.2-28.9-0.9-42.7,3.7c-14.5,4.8-29.8,6.9-45,6.1
			c-4.7-0.2-9.4-1-14-2.3c-14.8-4-28.3-11.2-41.8-17.9c-9.8-4.9-20.2-7.7-30.6-10.4c-5.7-1.5-11.9-1.2-18.8-1.8
			c4.2-3.4,8.5-3.9,12.7-4.4c16.2-1.7,31.9,0.1,46.9,6.9c6.9,3.1,14.2,5.5,21,8.8c7.5,3.6,15.3,4.5,23.3,4.1
			c2.8-0.1,5.6-0.4,8.4-0.3c11.6,0.3,23.2-1.2,34.3-4.7c20.6-6.2,41.7-7.6,62.9-3.1c9,1.9,17.7,4.9,26.5,7.2
			c15.1,3.9,29,11.4,44.6,13.7c11.5,1.7,22.8,3.8,34.6,2.2s21.9-6.3,31.6-13.3c16.1-11.6,23.5-27.9,27-46.5
			c2.1-11.1-0.5-21.5-6.5-31c-3.8-6-8-11.9-11.2-17.7c1.6-4.3,5-4.3,7.8-5.7C1609.8,1756.7,1612.9,1761.5,1615.5,1766.3
			L1615.5,1766.3z M1536,1731.5c0.2,2,0.1,4,0.1,6c-0.1,0.4-0.2,0.8-0.3,1.2c-5.5,3.3-5.5,3.3-15,1.7c-0.6-1.9-1.7-4.1-1.8-6.4
			c-0.2-11.6-0.9-23.2-0.1-34.8c2.8-39.2,28.9-68.4,66-77.2c3-0.7,6.2-0.5,9.3-0.7v24.4c-1.2,3.1-3.2,3.4-5.1,4
			c-8.8,2.7-17.1,6.8-24.5,12.4c-7.7,5.8-14,13.3-18.3,21.9C1539,1699,1534.5,1714.6,1536,1731.5z M1540,1759.5
			c-4.8,2.6-9.6,1.8-14.2,0.6c-2.3-3.2-3.2-6-2.2-9.6c4.8-1.9,9.9-2,14.7-2.2C1540.8,1752.1,1540.6,1755.5,1540,1759.5L1540,1759.5z
			 M1565.8,1676.7c7.3-7.9,12.3-10.8,25.3-14.8c0.2,4.6,0,8.2,0.5,11.6c0.6,3.4,1.4,6.9,2.4,10.2c-23.7,17.7-26.1,21.3-29.4,44.3
			c-2.8,0.7-5.9,1.1-8.8,2.1c-2.5,1-4.9,2.1-7.2,3.4c-0.9-0.9-1.9-1.4-1.9-2C1546.3,1711,1551.5,1692.3,1565.8,1676.7L1565.8,1676.7
			z M1562.1,1738.2c8-0.4,13.6,5.7,13.8,13.3c0.2,6.8-5.9,13-12.8,13.4c-7.6,0.5-14.6-6.4-14.4-14.3
			C1548.8,1743.7,1554.5,1738.4,1562.1,1738.2L1562.1,1738.2z M1574.6,1728.9c0.1-12,5-21.7,14.7-28.8c1-0.5,2.2-0.9,3.3-1.1
			c2.3,12.5,2.3,12.5,10.3,20.8c0.2,2.8-1.9,4.3-3.8,5.6c-6.7,4.7-14.2,7.1-22.9,7.7C1575.6,1731.7,1574.6,1730.3,1574.6,1728.9
			L1574.6,1728.9z M1595.5,1736.5c3.6,2,3.7,5,3.4,8.6c-3.4,3.9-7.8,5.6-13.6,5.5l-2.2-10L1595.5,1736.5z M1646.8,1694.1
			c-0.4,2.5-0.5,3.7-0.7,4.8c-0.1,0.8-0.3,1.6-0.6,2.6c1.2,2.6,2.5,5.4,4,8.7c-4.7,1.6-8.5-1-12.3-0.4c-4.3,0.7-8.7,1.2-13,2
			c-3.9,0.7-7.8,1.8-12,2.7c-2.3-1.3-4.9-2.3-7.1-4c-3.5-2.7-4.4-6.6-3.2-10.8c1.2-3.9,4.1-5.8,7.8-6.7c0.8-0.2,1.6-0.3,2.4-0.3
			C1623.3,1692.9,1634.4,1693,1646.8,1694.1L1646.8,1694.1z M1658.5,1659.7c-0.6,4.6-1,7.7-1.5,10.9c-0.5,0.3-1,1.1-1.8,1.2
			c-3.1,0.7-6.2,1.4-9.4,1.8c-6,0.7-11.7,2.9-16.6,6.4c-4.3,3-9.3,4.8-14.5,5.3c-6.6,0.7-12-3-14.5-10c-2.6-7.2-0.9-12.4,5.6-16.4
			c5.7-3.5,12.1-4,18.5-3.6c2.4,0.3,4.7,0.7,7,1.4C1639.9,1658.7,1648.4,1660.9,1658.5,1659.7L1658.5,1659.7z M1652.8,1629
			c1,2.8,2.1,5.7,3,8.4c-0.9,1-1.3,1.9-1.9,2c-9.5,1.3-18.8,3.6-27.8,6.9c-6.4,2.5-13.2,2.5-20.1,1.2c-3.7-3.8-5.4-9.1-4.5-14.3
			c1-7.8,6.8-12.9,14.8-12.7c2.8,0,5.6,0.3,8.3,0.9C1633.9,1623.8,1643.1,1626.4,1652.8,1629L1652.8,1629z M1657.1,1597.8
			c2,2.4,0.8,4.7-1,4.9c-10.1,1.1-19.2,4.8-28.5,8.7c-6,2.4-7.4,1.8-16.7-1c-4.2-6.2-4.6-12.1-0.4-17.2c4.1-5,10-4.2,15.6-2.7
			c0.4,0.1,0.8,0.2,1.1,0.4c4.9,1.6,9.8,3.5,14.8,4.7S1652.2,1597.1,1657.1,1597.8L1657.1,1597.8z M1656.9,1561.3
			c3.1,2.8,4.9,5.6,3.9,9.1c-7.4,2.9-14.5,5.5-21.5,8.4c-5.8,2.4-11.8,1.6-18,1.5c-7.1-4.7-9.6-11.2-7.3-19.9l12.1-5.6
			c2.4,0.5,5.3,0.7,7.8,1.9C1641,1560.4,1648.9,1562,1656.9,1561.3L1656.9,1561.3z M1664.9,1534.7c2.3,0.5,4.5,1.2,6.4,1.7
			c1.6,2.8-0.5,4.1-1.3,6.2c-1.4,0.5-2.8,0.8-4.3,1c-8.4,0.2-16.6,0.9-24.7,3.8c-7.2,2.5-14.1,1.3-19.8-4.9
			c-1.4-5.1-1.7-10.1,1.2-14.9c2.5-4.1,6.5-5.7,11.8-6.7c3,1.4,7,2.5,10,4.9C1650.4,1530.8,1657.5,1533.1,1664.9,1534.7
			L1664.9,1534.7z M1646.2,1491.6c4.9,3,9.3,5.8,13.7,8.4s9.9,3,14.1,7.9c-1.3,1.2-1.8,2.1-2.4,2.2c-6.7,0.7-13.3,2.3-19.6,4.9
			c-6.6,2.6-13.3,1.4-20.1-3.2c-0.8-2.3-1.4-4.7-1.9-7.1c-0.9-6.4,2.3-11.9,10.7-13C1642.5,1491.6,1644.3,1491.6,1646.2,1491.6
			L1646.2,1491.6z M1499,1535.1c1.1-2.6,2.7-4.9,3.9-7.4c8.3-17.6,21.6-30.6,37.6-41.1c2.4-1.5,4.9-2.8,7.4-3.9
			c2.6-1.2,5.3-1.8,7.8-3.2c15.1-8,31.4-9.1,48-7.7c10.9,0.9,20.9,4.9,30.7,11.2c-2.5,4.6-8.1,5.9-9.8,10.4
			c-1.5,4.1-2.3,8.4-3.5,13.2c-1.9-0.5-3.7-1.1-5.5-1.8c-16.1-7.1-32.3-7.1-49.2-2c-15.1,4.6-29.2,10.8-42,20.1
			c-9.1,6.7-16.4,15.2-24.4,23c-1.4,1.4-2.6,2.9-5.5,6.1C1494.4,1544.3,1497.1,1539.8,1499,1535.1z M1486.7,1601.4
			c-1.5-5.7-1.4-10.4,0.6-14.9c2.6-5.8,4.8-12,8.4-17.1c12.4-17.8,27.2-33.4,46-44.8c12.2-7.3,25.6-11.5,39.3-13.9
			c13-2.3,25.3,0.6,36.5,7.9c-1.6,4.4-3.4,8.4-4.3,12.6c-0.8,3.8-0.6,7.8-0.8,11.3c-3,2.5-5.8,1.5-8.4,1.2
			c-22.4-3-45.1,1.4-64.7,12.4c-18.8,10.3-35.2,23.4-48,40.8C1489.8,1598.5,1488.3,1600,1486.7,1601.4L1486.7,1601.4z
			 M1487.9,1621.7c0.2-1.9,1.3-3.8,2.3-5.4c15.2-25.7,38.6-45.5,66.3-56.4c12.8-5.1,26.2-6.7,40-5.8c2.7,0.2,5.4,1.1,8.5,1.8
			c0.5,6.9,0.9,13.5,1.4,20.6c-1.4,2-4,1.2-6.2,1.3c-14.4,0.8-28.6,2.4-42.3,7c-15.4,5.1-29.2,12.8-40.4,24.8
			c-5.4,5.9-10,12.5-13.8,19.5c-3.2,6-6.4,11.9-10.7,20C1488.3,1638.9,1487.2,1630.5,1487.9,1621.7L1487.9,1621.7z M1514.6,1670
			c-3,8.3-5.7,16.6-5.4,27c-2-1.4-3-1.7-3.3-2.3c-0.8-2.2-0.9-4.8-2.1-6.8c-6.5-11.2-4.3-22.9-0.5-33.7
			c5.6-15.8,13.6-30.7,26.5-42.2c4.8-4.3,10.1-7.9,15.8-10.8c13-6.5,26.6-11,41.1-12c3.2-0.2,6.3-1.1,9.5-1.3c1.5-0.1,3,0.5,4.7,0.8
			c-0.7,6.7-1.3,12.9-2,20c-1,1.8-3.6,1.6-5.9,1.7c-13.5,0.5-25.8,4.7-37.4,11.4C1536.3,1633,1522.3,1648.8,1514.6,1670L1514.6,1670
			z M1098.4,1824.3c13.9-10.4,28.6-19,46.3-21c12.7-1.4,25.4-3.2,38.1-4.6c10.4-1,20.5-3.7,30.1-7.9c4.7-2.1,9.6-4,14.4-6.1
			c9.3-4.2,19-5.6,29.2-5.8c11.2-0.4,22.4,1.8,32.7,6.4c11.8,5.4,24.6,7.1,37.3,8.1c4.3,0.3,8.7-1.2,13.1-1.5
			c13.3-1.1,26.1-4.2,38-10.3c8.8-4.5,18.4-5.4,27.9-6.4c3.6-0.3,7.2,0.1,10.7,1c10.5,2.7,20.8,5.9,30.5,10.8
			c10.4,5.2,21.1,9.6,33,10.4c13.6,4.7,35.2-6.4,42.3-20.7c1.1-2.1,2.1-4.2,3.2-6.2l20.3-2.3c2.1,1.1,4.8,2.7,7.8,4
			c9.7,4.1,19,2.1,26.2-5.7c1.3-1.5,2.2-3.4,3.7-4.7s3.3-1.7,5.4-2.6c1.3,1.7,2.3,2.9,3.1,4.2c3,5.2,5.7,10.6,9,15.6
			c5.5,8,7.6,17.9,5.9,27.5c-1.3,8.4-3.5,16.7-8.1,23.7c-11.4,17.3-26.7,28.6-48.3,29.1c-6.8,0.1-13.6-0.4-20.3-1.5
			c-11.9-1.8-23.5-4.5-34.6-9.6c-6.5-3-13.4-5.2-20.4-6.8c-9.7-2.2-19.2-5.2-29.2-6.7c-21-3.1-41.5-1.2-61.7,4.8
			c-8.4,2.6-17.2,3.8-26,3.7c-3.6-0.2-7.2,0-10.8,0.5c-7.4,1.4-14.3-0.4-21-3.1c-7-2.8-14.1-5.8-21.1-8.7
			c-14.6-6.1-29.6-10.1-45.6-8c-6.3,0.8-12.8,1.7-18.8,3.7c-10.6,3.6-21.5,7-31.2,12.5c-16.9,9.5-33.6,9-50.9,2.7
			c-4.1-1.5-8.1-3.4-12.2-5c-15.6-6.2-31.5-8.9-48.1-5.2c-1.9,0.3-3.8,0.4-5.7,0.4c-0.3-0.7-0.6-1.3-0.8-2
			C1093.9,1828.6,1095.9,1826.1,1098.4,1824.3L1098.4,1824.3z"/>
		<path class="st0" d="M99.9,1510.2c-6.6,8.7-6.6,8.7-3.6,12.1c2.6-1.8,5.2-3.4,7.9-4.9c2.7-1.2,5.5-2.3,8.3-3.2
			c7.8,3.8,7.8,3.7,17.7,4.3c3.6,0.2,7.2,0.7,10.7,1.6c1.7,0.4,3.1,2,5,3.3c-7.8,5.7-17.1,3.5-25,7.8c-1.4,2.3-3.1,5-4.6,7.4
			c-7.2,2.3-12.3-3.3-18.1-4.3c-2.7,1-3.6,2.9-2.3,4.8c1.5,2.3,3.6,4.2,5.5,6.2c-0.4,3.4-5.8,6.3-0.5,10.6c3-1.9,5.9-4,9-5.5
			c3.2-1.3,6.5-2.4,9.8-3.3l6.2,4.8c8-1.2,15.9-2,25.4,0.6c-5.5,1.1-9.4,1.8-13.2,2.7c-4.3,1-5,6.1-7,7.4
			c-9.6,3.8-17.9,1.7-26.2,0.6c-0.8,1.2-1.3,2.2-2,3.3l4.6,5.6l-3.6,10.3l5.3,2.8c5-8,11.7-13.3,21.2-13.2c1.9,2.4,3.6,4.5,5.4,6.8
			c7.8,1.2,16.3,0.3,21.9,7.6c-3.1,3.6-7.3,3-11.2,3.3c-4.7,0.4-9.6-0.9-14,1.8c-0.7,1-1.3,2-1.9,3.1c-0.7,1.4-1.1,2.8-1.7,4.3
			c-4,1.2-8.3,1-12.1-0.6c-2.2-0.9-4.4-2-6.6-2.8c-0.7-0.2-1.5,0.2-2.8,0.3l-1.8,3.5l3.8,6c-1.5,3.5-7.2,3.8-5.4,8.8
			c1.2,1.7,3.5,2.3,5.4,1.3c2.9-1.4,5.6-3.2,8.3-4.8c4.6-2.6,9.8-4,15.1-3.8l6.6,4c17.2,0.8,17.7,0.9,22.9,5.9
			c-7.8,3.8-16,4.7-24.5,5l-5.4,7.5c-4.2,1.8-8.1,1.8-12.2,1.7c-5.4-0.2-7.2-6-11.2-7.3c-3.3,1-3.5,3.2-2.6,5
			c1.6,2.9,3.3,5.8,5.2,8.5c-2.4,4.4-7.2,6.4-8,11.9l4.1,3.4c7.9-6.1,13.9-14.4,24.6-13.9c6,7.7,6,7.7,14.8,8.6
			c3.6,0.4,7.2,0.6,10.7,1.2c0.7,0.1,1.2,1.4,2.2,2.5c-4.3,1.6-9,2.2-13.6,1.7c-7-0.5-11.7,1.9-13,9.3c-0.1,0.7-1,1.2-0.7,0.9
			c-8.8,6.1-17.9,0.6-26.1,2.4c-1.2,6.8,5.7,5,7.7,8.8c-1.1,2.1-2.3,4.5-3.7,7.3l3.3,3.6c6.2-4.4,10.8-10.2,18.1-12.7l6.3,5.5
			c9.2,2.7,18.5,1.3,27,7.3c-7.3,2.6-14.9,0.5-20.2,5.9l-3.1,7.7c-10.8,3.8-21.3,2.4-32.3-0.4c-0.6,1.9-1,3.3-1.4,5l11.8,6.5
			c-2.6,5-6.3,9.2-4.3,14.9c1.4,1.8,3.1,2.4,5.7,0.4c2.8-10.4,10.1-16.9,21.6-19c0.8,2.8,1.7,5.6,2.8,8.3c1.5,3.5,5.1,5.5,8.8,5
			c2-0.2,3.9-1,5.9-1.2c2.7-0.3,5.6-0.7,8.3-0.2c5.1,1,10.1,2.4,15.1,4c2.3,0.8,4.4,2,6.2,3.6c5.2,4.3,6.2,10.2,3,16.2
			c-1.6,2.8-3.5,5.4-5.5,7.8c-6.3,7.8-11.4,16.5-15.1,25.8c-2.5,6.4-3.4,13.1-5.2,19.7c-2.5,9.5-2.5,19.1-1.5,28.7
			c0.5,6.4,2.6,12.6,6,18.1c2.6,4.1,5,8.2,7.8,12.1c8.8,12,18.3,23,31.4,31c16.2,9.9,33.3,13.1,51.8,11.1c5.9-0.7,11.8-1.3,17.9-2
			c2.9,4.8,2.6,9.6,3,14.3c1.2,14.4,2.3,28.8,3.6,43.1c1.1,12,2.5,23.9,3.6,35.9c1.2,13.6,2.1,27.2,3.4,40.7
			c2.8,29.1,5.8,58.2,8.5,87.3c2.8,29.9,5.4,59.8,8,89.7c0.8,9.2,1.7,18.3,2.6,27.5c1.2,12.4,2.6,24.7,3.8,37
			c1.6,15.9,3.1,31.9,4.6,47.8c0.2,2.7,1,5.6-2,8.3c-2.3,0-5,0.1-7.8,0c-9.2-0.5-18.5,0.2-27.5,2.2c-7.5,1.6-14.6,4.6-20.9,9
			c-6.5,4.5-7,11.9-1.5,17.6c2.7,3,6.7,4.7,10.8,4.5c4-0.2,8-0.7,11.9-1.4c8.7-1.4,16.7-0.4,23.9,5.1c4.5,3.4,9.4,6.1,14,9.3
			c0.8,0.5,0.9,2,1.5,3.5c-2.8,0.3-5.1,0.7-7.4,0.8c-5.2,0.3-10.4,0.4-15.6,0.9c-14,1.2-18.4,11-16.8,21.5c0.7,3.9,2,7.8,3.8,11.3
			c1.7,3.6,4.3,6.8,6.3,10.2c1.3,2.4,2.3,4.9,3.4,7.4c-1.9,2.3-3.6,4-4.9,5.9c-6,8.4-7.9,17.4-3.2,27.1c1.4,2.9,2.7,5.8,3.8,8.2
			c-1.1,4-2.3,7.4-3,11c-1.4,7,0.9,12.8,7.1,16.4c12.9,7.5,26,14.3,41.7,12.9c1.1-0.1,2.3,0.4,3.9,0.7c1.5,3.1,3,6.3,4.5,9.6
			c3.5,7.7,9.5,14.1,17,18c3.9,2.1,8,3.7,12.2,4.9c6.9,1.9,12.2,5.9,17,10.9c2,2,3.7,4.2,5.2,6.6c7.5,12.3,14.9,24.7,22.4,37
			c1.6,2.7,3.2,5.5,5.1,8.1c1.4,1.9,4.3,2.2,6.6,0.7c1.5-1.1,2.6-2.8,3.7-4.1c-0.2-1.4-0.6-2.7-1.1-4c-7.5-13.2-14.6-26.8-22.7-39.6
			c-8.7-13.8-19.2-25.5-36.4-29.2c-8.7-1.9-14.8-8.2-17.9-16.5c-5.6-14.1-12.2-27.7-19.7-40.9c1.4-9.1,1.4-9.1-5.5-12.2
			c-5.8,1.9-8.5,6.9-10.8,12c-0.8,1.9-0.1,4.5-0.1,6.9l8.1,3.3c2.1,5.1,6.5,9.2,5.5,15.8c-2.6,0-5.1,0.6-7.2-0.1
			c-6.8-2.4-13.4-5.1-20-8c-2.4-1.1-4.4-3.2-6.1-4.5c-1.4-5.4,1.3-8.4,3.7-11.6c3.5-4.4,7.4-8.5,10.3-13.2
			c3.6-6.3,8.1-11.9,13.4-16.8c3.3-2.9,6.5-6,9.5-9.2c1.1-1.4,2.1-2.8,2.9-4.4c-1.5-4-3.9-4.8-7-4c-0.8,0.2-1.5,0.5-2.2,1
			c-9.2,7.1-18.9,13.6-24.7,24.1c-1.5,2.6-2.6,5.7-6.4,7c-0.8-1.4-2-2.7-2.3-4.1c-1.1-5.9,0.2-11.1,4.9-15.2c3.6-3.2,7-6.5,10.7-9.7
			c9.1-7.8,18.2-15.6,27.2-23.2l12.8,1.1c0.5-2.3,1.3-4.2,1-5.9c-0.4-1.5-1.5-2.8-3-3.4c-7.5-2.3-14.9-2.9-21.6,2.4
			c-5.3,4.2-10.6,8.5-16,12.7c-2.5,1.9-5.1,3.5-8.1,5.5c-3.6-4-6.7-8.4-9.2-13.1c-1.2-2.5-2.1-5.2-2.6-7.9c-0.7-2.5,0.1-4.7,3.4-7
			c4.9-0.4,10.8-1.2,16.8-1.4c10.8-0.3,21.6-0.1,32.4-0.4c9.2-0.3,18.3-2,27.5-0.1c0.8,0.1,1.6,0.1,2.4-0.1c2.7-0.3,4.4-1.7,4.6-4.7
			c-1.4-3.9-5-5-8.5-5.6c-4.8-0.7-9.5-1-14.4-1.1c-5.2-0.2-10.4,0-15.3,0c-1.7-1.3-3.4-2.7-5-4.2c-7.8-8.2-17.7-13.6-26.8-20.2
			c-8.3-6.1-17.5-7.4-27.4-6.2c-3.6,0.4-7.1,1.1-10.7,1.4c-0.9,0.1-1.8-0.6-3.2-1.1c4.7-4.8,10.2-6,15.6-7.1
			c14.7-2.9,29.4-2.1,44.1,0.3c4.8,0.7,9.3,2.6,13.3,5.3c4.3,3,8.6,5.8,12.8,8.9c9.3,7,19.2,13,30.4,16.8c6.4,2.2,12.7,4.7,18.7,7
			c3.6,3.1,4.6,7.1,5.6,10.9c3.5,12.9,9.4,24.7,15,36.6c3.6,7.2,6.7,14.6,9.3,22.1c4.3,12.5,9.2,24.8,14.9,36.7
			c3.2,6.9,7.2,13.4,12,19.3c5.7,7.2,11.1,14.7,16.6,22.1c8.5,11.6,17,23.4,25.5,35c1.9,2.6,3.6,5.4,7.3,5.8
			c2.5-0.5,4.8-1.6,5.1-4.3c0.2-1.8-0.7-3.8-1.2-5.6c-0.3-0.7-0.8-1.4-1.4-2c-12.9-17.8-27.1-34.7-39.1-53.2c-0.9-1.3-1.9-2.6-3-3.7
			c-5.4-6-9.6-12.9-12.6-20.4c-4.4-10.8-8.4-21.6-12.7-32.4c-3.1-7.8-5.7-15.9-9.5-23.4c-6.3-12.5-11.6-25.5-16.1-38.8
			c-1.4-4.2-3.1-8.3-4.7-12.3c-2.5-6-6.8-11-12.2-14.4c-5.3-3.5-10.4-7.4-15.8-10.9c-10.3-6.6-18.7-15-26.1-24.6
			c-3-3.8-5.9-7.6-8.7-11.5c-5-6.9-11.2-11.4-20.1-11c-0.6,0-1.3-0.8-2.6-1.6c-0.3-2.2-0.7-4.9-0.9-7.7c-1.1-12-2.2-23.9-3.4-35.9
			c-1.2-12.8-2.6-25.5-3.8-38.3c-1.1-11.6-2-23.1-3.1-34.7c-2-19.9-4.2-39.8-6.1-59.8c-2-20.7-3.7-41.5-5.6-62.2
			c-0.9-9.6-1.9-19.1-2.9-28.7c-1.3-12.8-2.6-25.5-3.9-38.2c-1.1-11.6-2.1-23.1-3.2-34.7c-2-19.5-4-39-6-58.6c-0.1-2,0-4,0.2-6
			c2.5-1.1,4.7-2.1,6.9-2.9c5.6-2,11.5-3.7,17-6c15.6-6.4,31.9-10.5,48.4-13.8c12.9-2.6,25.4-1.6,38,2c8.5,2.4,17,4.7,25.6,6.4
			c11.9,2.4,24.1,3,35.9,0.5c16.5-3.5,31.8-10.3,46.5-18.8c19.3-11.1,39.8-16.4,62.1-9.3c8.7,2.8,17.9,4.3,26.9,6.2
			c9.5,1.9,19.2,1.7,28.6-0.5c10.2-2.1,20.1-5.3,29.6-9.6c13.1-6.2,27-7.1,41.1-5.2c7.5,1,15,2.7,22.5,4c0.7,0.1,1.5-0.3,3-0.6
			l3.1-4.7c-6.3-8-23.7-23.8-30-27.6c-1.4-0.8-2.8-1.6-4.2-2.3c-4.6-2.4-9.3-4.7-14-7c-5.3-2.8-11.1-4.7-17-5.6
			c-15.5-2-30.9-4.2-46.4-5.9c-8.4-1-16.5-3.2-24.3-6.4c-6.3-2.6-12.5-5.4-18.8-7.9c-19.9-7.8-39.9-8.2-59.8-0.4
			c-8.2,3.1-16.7,5.7-25.2,7.7c-5.8,1.5-11.9,1.9-17.9,1.3c-15.1-1.8-30.2-3.6-44.1-10.8c-4.3-2.2-8.8-3.8-13.6-4.5
			c-10.2-1.7-20.5-4.4-30.9-1s-20.8,5.9-30.5,10.8c-9.3,4.8-19.2,8.1-29.4,10.1c-9.8,1.8-18.2-0.5-26.2-5.8c-8-5.2-11.8-14.8-9.7-24
			c1-4.7,2.7-9.2,4-13.8c0.9-3.1,1.8-6.1,2.5-9.2c0.9-3.5,1.5-7.1,2.6-10.5c6.5-20.2,13.5-40.2,19.5-60.6
			c5.2-17.7,9.1-35.7,8.8-54.3c-0.1-6.8-0.3-13.7,0.2-20.4c0.8-10.8-0.8-21.7-4.7-31.8c-1-2.6-1.9-5.3-2.6-8
			c-3.9-16.3-12.5-30.3-22-43.8c-2.8-3.9-5.6-8-9.1-11.1c-21.4-19.5-46.2-31.6-75.6-32.1c-10-0.2-20.1,0.5-29.6,4.2
			c-11.2,4.4-22.3,9.3-31.2,17.7c-6.9,6.5-15.2,10.4-24,13.2c-4.8,1.5-8.8,3.4-11.7,7c-8.4-1.8-8.4-1.8-16-9.7
			c-3.6,1.5-4.9,3.5-3.7,5.7C95.9,1504.5,98,1507.4,99.9,1510.2z M334.1,2310.8c2.8-2.5,5-2,7.1-0.6c1.3,0.9,2.4,2,3.5,3.3
			c4.3,5.3,8.7,10.5,13,15.8c7.3,8.3,18.8,20.4,25.4,24.1c-0.9,0-1.8-0.1-2.7-0.3l0.4,0.3c-0.2-0.1-0.6-0.1-0.7-0.3v-0.1
			c-3.7-0.9-10.8-3.9-21.5-13.6l-0.2-0.2c-6.8-4.9-14-9.1-22-11.4C333.6,2321.9,333.5,2316.2,334.1,2310.8z M132.4,1543.5l-3.1-5
			c0.8-0.9,1.2-1.8,1.8-2c3.4-1,7-1.8,10.4-2.8c5-1.6,9.9-3.1,14-6.6c3.7-3.1,8.2-5.1,12.9-5.7c10.1,3.8,13.2,7.7,12.8,16.2
			c-0.2,5-2.6,8.5-7.4,9.7c-3.4,0.9-7.5,2-10.5,0.9C153.3,1544.6,143,1543.8,132.4,1543.5L132.4,1543.5z M157.1,1576.5
			c-3.8-2-8.2-2.7-12.4-4c-1.4-0.5-2.9-1-3.9-1.4c-1.5-3.6,1.3-5.7,1.2-8.6c1.9-0.4,3.4-1.1,4.9-1c6.4,0.3,12.7-1,18.5-3.8
			c3.5-1.6,7.6-2.2,11.1-3.1l10.6,5.8c1.9,10,1.4,11.7-6.1,19.6C172.8,1581.7,164.4,1580.4,157.1,1576.5L157.1,1576.5z
			 M146.5,1603.3c-0.7,0-1.4-0.7-2.3-1.2c-0.1-1-0.2-2.1-0.3-3.1c0.8-0.6,1.4-1.5,2-1.5c8.5-0.2,16.4-2.7,24.4-5.3
			c3.7-1.4,7.6-2.2,11.6-2.6c8.2-0.4,13.3,5.8,11.9,14.1c-0.2,1.2-0.6,2.3-1.1,3.4c-0.5,1-1,2-1.6,2.9c-6.5,4.5-13.4,3.7-19.5,0.7
			C163.7,1606.6,155.2,1604.1,146.5,1603.3L146.5,1603.3z M148.4,1639.5c-0.6-0.1-1.2-1-2.3-1.9c0.6-2.3,1.2-4.9,2.1-8.5
			c10.4-2.8,19.9-5.6,29.6-7.8c8.2-1.9,16-1.5,21.2,7.2c1.1,6.3,2,13-3.2,19.2c-6.5,1.5-13.3,1.1-19.6-1.2
			C167,1643.4,157.9,1640.7,148.4,1639.5L148.4,1639.5z M147,1672c-0.9-0.3-1.6-0.8-2.4-1.3c-0.6-3.1-1.2-6.5-1.9-10.1
			c5.6-0.5,10.8-0.8,15.9-1.5c4.8-0.6,9.5-1.6,14.1-3c6.1-1.9,12-0.7,17.8,0.6c5.2,1.1,10,3.9,11.2,9.6c1.4,6.8-0.4,12.7-6.2,17
			c-2.2,1.8-5.1,2.5-7.9,2.1c-3.9-0.8-8.4-1-11.4-3.2C167.4,1675.8,157.3,1673.8,147,1672z M266.8,1739.5c0-2.8-0.3-6-0.1-9
			c0.8-13.4-2-26.1-6.9-38.6c-8.6-21.7-24.4-35.1-46.3-42c-1.5-0.5-3.1-0.9-4.6-1.4c-0.6-0.3-1.1-0.6-1.6-1
			c0.5-4.1,0.8-8.2,0.9-12.4c-0.1-3.9-0.9-7.9-1.4-11.8c1.1-2.3,3.1-2.1,5.1-2c7.8,0.3,15,2.8,21.9,6c30.9,14.6,47.7,39.3,50.1,73.3
			c0.7,9.6,0.1,19.2-0.1,28.8c-0.1,3.6-0.5,7.2-3.2,10.9C273.4,1741.9,273.4,1741.8,266.8,1739.5L266.8,1739.5z M276.2,1759.5
			c-6.5,2.1-6.5,2.2-14.4,0.1c-0.4-4-1.1-7.5,1.5-10.9c5-1,9.7,1.1,14.1,1C279.2,1754.1,278.2,1756.9,276.2,1759.5L276.2,1759.5z
			 M237.9,1727.6c-1.1-9-2.4-18.5-8.6-26.2c-5.8-7.2-12.7-13.1-21.8-16.8c1.1-4.3,2.4-8,2.9-11.8c0.5-3.4,0.1-6.9,0.1-10.7
			c1.2,0,2.5-0.3,3.4,0c17.2,6.1,29,17.8,35.7,34.6c3.2,8.2,5.4,16.7,6.5,25.4c0.5,3.8,1.3,7.9-1.4,12.2L237.9,1727.6z
			 M252.4,1751.2c0,7.7-6.3,14.1-13.4,13.8c-7.4-0.3-13.7-6.8-13.5-14.1c0.3-7.1,6.1-12.7,13.2-12.7
			C247.2,1738.1,252.5,1743.1,252.4,1751.2L252.4,1751.2z M209.3,1699.1c5.6,1.7,10.3,5.5,13.3,10.6c4.1,6.6,6.4,13.7,5,21.2
			c-3.5,3.9-7.1,1.8-10.4,1c-7.4-1.8-14.6-4.2-19.1-11C206.9,1710.3,206.9,1710.3,209.3,1699.1L209.3,1699.1z M214.8,1750.5
			c-5.5,0.7-9.3-2.4-13.4-5.4c0.6-2.1,1-3.6,1.6-5c0.6-1.2,1.4-2.3,2.2-3.4c4.2,1.5,9,1.5,12.6,4.7
			C218.1,1744.7,217.1,1748,214.8,1750.5L214.8,1750.5z M189.1,1714.7c-19.6-5-19.6-5-35.8-4.3c0.3-3,1.1-5.9,2.4-8.6
			c-0.3-2.1-0.7-4.4-1.1-6.8c1.2-0.5,2.3-1.2,3.4-1.3c9.5-0.4,19.1-0.7,28.6-1c1.2-0.1,2.4,0,3.6,0.1c4.1,0.7,7.8,2.1,9.1,6.6
			c1.5,5.3-0.1,9.5-4.5,12.4C192.9,1712.9,191,1713.9,189.1,1714.7z M556.8,1837.3c-15.2-0.3-29.2,4.3-42.8,10.4
			c-8.4,3.8-16.5,8.1-24.8,12.1c-19.8,9.4-40.4,12.2-61.9,7.6c-9-1.9-17.8-4.6-26.8-6.6c-12.6-2.9-25.3-2.7-38.1-0.4
			c-20.6,3.7-40.2,10.5-59.7,17.8c-12.8,4.8-26,8-39.6,9.5c-25.4,3-47.4-4.2-65.1-23.2c-7.3-8-13.7-16.7-19.1-26.2
			c-5.5-9.5-7.5-20.5-5.7-31.3c1.8-11.4,4-22.8,9-33.5c3.4-7.4,7.9-13.8,13.9-21l7.6,4.4c-0.1,1.3,0.2,2.2-0.2,2.8
			c-3.3,5.5-6.6,11-10.1,16.3c-5.6,8.4-8,18.5-6.9,28.6c1.3,12,5.2,23.5,11.6,33.8c0.4,0.7,0.8,1.4,1.3,2
			c15.3,18.1,34.3,28.7,58.5,27.5c12.8-0.8,25.5-3,37.8-6.6c1.2-0.2,2.3-0.6,3.4-1.1c8.9-4.7,18.8-6.8,28.2-10
			c19.1-6.6,38.8-9.9,59-8.2c11.2,0.9,22.2,3.2,32.8,6.8c6.1,2,12.5,3,18.9,3c6.8,0.1,13.6,0.5,20.4,0.5s13.4-0.8,19.9-3.6
			c11-4.8,22.1-9.5,33.4-13.3c16-5.4,32.2-4.8,48.5-0.1C559.8,1838,558,1837.3,556.8,1837.3z M308.2,1797.6c3,0.8,6.4,0.6,9.5,0.4
			c12.8-1.1,25.3-4.7,36.6-10.7c9.3-4.8,19.3-7.8,29.3-10.7c3-1,6.2-1.5,9.4-1.5c9.6,0.4,19.5,0.9,28.1,5.3
			c15.3,7.9,31.8,10.5,48.5,12.8c8,1.1,16-0.6,23.8-2.2c7.8-1.6,15.5-3.9,22.9-7.1c16.1-6.8,37.4-6.8,53.9-0.6
			c6.7,2.6,13.4,5.4,20,8.2c8.9,3.7,18.2,6.1,27.8,7.2c14.3,1.6,28.6,3.3,42.9,5c1.2,0,2.4,0.2,3.6,0.5c17,6.2,33.4,13.3,45.9,27.2
			c-2.2,2.6-4.7,1.8-6.9,1.2c-17.1-4-33.5-1.3-49.2,5.6c-8.8,3.8-18,6.7-27.4,8.6c-10.2,2.2-19.8,0-29.2-4.3
			c-10.2-4.7-20.5-9.1-31-13.1c-19.8-7.6-39.8-8.6-59.9-1.2c-8.6,3.2-17.2,6.5-25.7,10.1c-9.7,4.2-19.5,7.2-30.3,5.1
			c-2.4-0.4-4.8-0.4-7.2-0.3c-8.8,0.2-17.6-1.1-26-3.7c-15.8-4.7-32-7.1-48.6-6.2c-15.7,0.9-30.8,4.6-45.7,9.4
			c-2.3,0.7-4.5,1.9-6.8,2.2c-4.5,0.5-8.4,2.5-12.5,4.2c-17.6,7.1-35.9,11.1-55,10.2c-10.7-0.5-20.4-3.9-28.6-10.9
			c-4-3.4-8.6-6.2-11.8-10.2c-9.1-11.2-13.4-24.5-14.2-38.8c-0.3-5.7,1.5-11.2,4.3-16.1c4.3-7.7,9-15.1,14.2-23.7
			c2.2,0.8,4,0.9,5.1,1.8c1.8,1.5,3,3.7,4.7,5.4c7.6,7.8,16.3,9.5,26.3,5.1c2.6-1.1,4.9-2.6,7-3.7l20.2,2.3c1,1.5,1.9,3,2.7,4.6
			C284.7,1787.5,295.4,1794,308.2,1797.6z M300.6,1680.3c-2,4.3-3,9-6.4,14.6c-3-16.6-7.1-30.7-15.5-43.4
			c-8.6-13-19.9-22.6-33.3-30.5c-13.2-7.8-27.6-10.2-42.9-11.3c-0.3-2.3-0.6-4.2-0.8-6c-0.5-4.7-1-9.5-1.6-14.6
			c0.8-0.4,1.8-1.3,2.8-1.2c18.1,1.2,35.6,4.3,52.1,12.3c13.8,6.7,25.3,17.3,33,30.6c2.7,4.5,5,9.1,7.4,13.7
			c4,7.5,5.9,15.7,6.8,24.1C302.8,1672.5,302.2,1676.6,300.6,1680.3L300.6,1680.3z M313.7,1629.8c-1.4,5.3-0.6,11.3-4.6,16.4
			c-2.6-2.2-3.4-5.3-5-7.8s-2.7-4.9-4-7.4c-4-7.9-9-15.2-15-21.7c-11.3-12-25.1-19.7-40.6-24.8c-13.8-4.5-28-6.2-42.5-6.9
			c-2.3-0.1-4.6-0.4-6.9-0.6c0.4-6.9,0.8-13.1,1.2-20.5c1.7-2.1,5.5-2.2,9-2.4c15-1.1,29.7,0.8,43.4,6.8
			c25.6,11.2,46.3,28.3,61.5,51.9C313.9,1618.3,315.3,1623.6,313.7,1629.8L313.7,1629.8z M313.8,1598.7c-1.3-1-2.4-2.1-3.5-3.3
			c-14.2-19-32.7-32.7-53.9-43c-17.4-8.4-35.8-10.9-54.9-9.2c-2.8,0.2-5.6,0.7-8.4,0.9c-0.9,0-1.8-0.1-2.6-0.3
			c-3-3.7-0.5-8.4-1.9-12.5c-1.3-3.8-2.7-7.4-4-11c0.3-2.6,2.3-3.3,4-4.1c13.1-6.3,26.6-7.9,40.8-3.9c13.6,3.8,26.8,8.3,38.3,16.7
			c16.9,12.4,31.5,27.2,42.3,45.3C315.8,1584,316.1,1587.6,313.8,1598.7L313.8,1598.7z M171.9,1480.2c10.6-5.7,22.4-8.7,34.4-8.8
			c13.6,0,27,2.8,39.6,8c12.9,5.2,23.5,13.4,34,22c1.6,1.2,3,2.6,4.2,4.2c9.1,12.2,17.1,25.1,22.2,39.6c0.2,0.6-0.1,1.5-0.3,4.1
			c-6.5-6.4-11.8-11.8-17.3-17c-12.9-12.4-27.6-21.6-44.8-26.8c-6.5-2-13.1-3.7-19.6-5.3c-11.3-2.7-22.2-0.8-33,3
			c-3.4,1.2-6.6,2.7-10.4,4.2c-1.4-4.7-1.9-9.5-4.1-13.5c-2-3.7-5.8-6.4-8.7-9.5C168.2,1481.9,170.2,1481,171.9,1480.2z
			 M129.2,1505.7c1.7-1.1,3.5-2,5.4-2.7c6.1-2.1,11.8-5.1,16.8-9.1c4.3-3.5,9.1-2.8,13.6-1c3.5,1.2,6,4.4,6.1,8.2
			c0.2,3.6,0.4,7.2-2,10.9c-6.1,4.6-14.2,5.5-21.2,2.4c-5.5-2.4-11.4-3.7-17.4-4c-1,0-2-1-3.3-1.7
			C128,1507.5,128.4,1506.3,129.2,1505.7L129.2,1505.7z"/>
		<path class="st0" d="M901.5,1102.1c-38.1,0-69,30.9-69,69s30.9,69,69,69s69-30.9,69-69l0,0C970.4,1133,939.6,1102.1,901.5,1102.1z
			 M901.5,1228.1c-31.5,0-57-25.5-57-57s25.5-57,57-57s57,25.5,57,57l0,0C958.4,1202.5,932.9,1228,901.5,1228.1z"/>
		<path class="st0" d="M1730.5,1025.2c-45.2-199.5-109.9-378.7-192.3-532.7c-40.7-75.9-85.4-144.9-133-204.9
			c-48.1-60.7-99.6-112.9-152.9-155c-54.4-43-111.5-76.1-169.4-98.2C1023.2,11.5,961.9,0,900.5,0S777.8,11.5,718.2,34.3
			c-58,22.2-115,55.2-169.4,98.2c-53.4,42.1-104.8,94.3-152.9,155c-47.6,60-92.3,129-133,204.9c-82.4,154-147.1,333.2-192.3,532.7
			C23.7,1231.6,0,1450.9,0,1677s23.7,445.4,70.5,651.8c45.2,199.5,109.9,378.7,192.3,532.7c40.7,75.9,85.4,144.9,133,204.9
			c48.1,60.7,99.6,112.9,152.9,155c54.5,43,111.5,76.1,169.4,98.2c59.6,22.8,120.9,34.3,182.3,34.3s122.8-11.6,182.3-34.3
			c58-22.2,115-55.2,169.4-98.2c53.4-42.1,104.8-94.3,152.9-155c47.6-60,92.3-129,133-204.9c82.4-154,147.1-333.2,192.3-532.7
			c46.8-206.5,70.5-425.8,70.5-651.9S1777.3,1231.6,1730.5,1025.2z M272.5,497.7c28.5-53.6,60.4-105.3,95.5-154.8
			c5.5,11.5,11.8,28.5,16,38.9c5,12.2,9.8,24.6,14.6,36.9c4.7,11.9,9.2,23.9,13.9,35.9s9.4,23.8,14.1,35.8S436,514,440.7,526
			c4.8,12.3,9.6,24.6,14.4,37c4.7,11.9,9.4,23.8,14.2,35.7c4.7,11.8,8.7,23.9,15,36.2c3.5-4.1,5.2-7.9,7.2-12.4
			c-12-31.9-25-63.8-37.5-95.9c-12.7-32.5-25.4-64.9-38.2-97.3c-12.1-30.9-26.7-67.7-38.9-98.7c9-12.4,18.2-24.4,27.5-36.1
			c30.9-39.3,64.8-76.1,101.2-110.3c5.5,19.5,32.1,121.6,45.7,174s27.2,104.6,40.8,157c0.6,2.2,0.4,4.9,3.3,6.4
			c3.6-0.5,5.9-3,8.6-6.4c-4.8-22.3-11.5-44.5-17-67s-11.5-45-17.4-67.5c-6-22.9-12.1-45.7-18.1-68.5c-5.9-22.5-11.6-45-17.5-67.5
			c-5.6-21.5-12.3-48.9-17.5-70.4c12.9-11.6,25.9-22.5,39-32.9c45.6-36.1,92.3-64.8,140.1-85.9c1,10.8,5.6,45.3,7.5,61
			c1.9,15.9,3.9,31.8,5.8,47.7c2.2,17.9,4.3,35.8,6.5,53.7c1.9,15.5,3.9,31,5.8,46.5c2.1,17.1,3.9,34.2,6,51.3
			c2,16.7,4.4,33.4,6.4,50c2,16.3,3.5,32.6,5.7,48.9c1.5,11,2.1,22.3,4.7,33.1c5.3-0.1,5.3-0.1,10.9-2.7
			c-0.7-14.1-3.2-28.2-4.7-42.5c-1.6-14.7-3.8-29.4-5.7-44.1c-1.8-14.3-3.5-28.6-5.3-43c-1.8-14.7-3.6-29.4-5.4-44.1
			c-1.7-14.3-3.4-28.6-5.2-42.9c-1.8-14.7-3.8-29.4-5.7-44.1c-1.8-14.3-3.7-28.6-5.5-42.9c-1.8-14.7-3.5-29.4-5.4-44.1
			c-1.7-13.3-4.7-32.5-5.8-46.4C768,25,831.1,11.7,895.3,11c0,15.4,0.2,68.3,0.2,94.1c-0.1,100.2-0.1,200.5-0.1,300.7
			c0,4.3-0.5,8.7,0.6,12.4c3.7,2.4,6.7,1.4,10.3,0.9c1.1-14,0.3-27.5,0.5-41.1c0.2-13.2,0-26.5,0-39.7c0-13.6,0-27.3,0-40.9
			c0-13.2-0.1-26.5-0.1-39.7c0-13.6,0-27.3,0-40.9s-0.1-27.3-0.1-40.9c0-13.2,0-26.5,0-39.7c0-13.6-0.1-27.3-0.1-40.9
			c0-13.2-0.1-26.5-0.1-39.7c0-12.9-0.3-30.9,0.1-44.7c64.6,0.8,128.2,14.4,190.2,40.7c-3.3,24.2-8.8,67.3-11.7,89.9
			c-3.7,28.6-7.5,57.2-11.1,85.8c-2.8,22.3-5.2,44.5-8,66.8c-2.8,22.7-5.9,45.3-8.7,68c-2.8,22.3-5.4,44.5-8.1,66.8
			c-0.6,5.1-1.3,10.3-1.9,15.3c2.9,3.1,6.3,4,10.3,4.2c2.2-4.3,2.6-9.1,3.2-13.8c3.8-31,7.7-62,11.5-93c3.5-29,6.9-58.1,10.4-87.1
			c2.9-24.2,6-48.5,9-72.7c2.8-23.5,5.4-47,8.2-70.4c1.5-13.1,5.8-44.2,7.5-55.1c47.1,21,93.1,49.3,138.2,84.9
			c13.7,10.8,27.3,22.3,40.7,34.5c-3.9,18.9-20.2,78.3-27.3,105.7c-8,31-16,62-24,93c-11.9,45.7-23.8,91.5-35.7,137.2
			c-0.2,1.2-0.3,2.3-0.3,3.5c2.1,3.2,4.6,5.5,8.2,6.3c2.4-0.9,2.7-2.9,3.2-4.9c8.7-33.3,17.3-66.7,26-100
			c11-42.3,21.9-84.5,32.8-126.8c7-26.9,22.1-85.4,27.2-104.9c36.2,34,69.7,70.6,100.4,109.6c9.6,12.1,19.1,24.7,28.5,37.5
			c-12.9,33.2-53.5,136-73.2,186.2c-12.2,30.9-24.3,61.9-36.5,92.8c-1.5,3.7-2.8,7.5-4.3,11.7c2,3.7,4,7.6,6,11.3
			c3.8-1.1,4.1-4.3,5.1-6.7c9-22.7,18-45.4,26.9-68.2c18.7-47.7,37.4-95.5,56.1-143.2c6.3-16,21.1-54.6,28.5-72.1
			c34.8,49.2,66.5,100.6,94.9,153.9c2.1,3.8,4.1,7.7,6.1,11.5c-10.8,20.2-54,99.9-71.4,131.8c-28.4,52.1-56.9,104.1-85.3,156.1
			c-24,44-48,88-71.9,132c-30.3,55.6-60.6,111.2-91,166.7c-37.2,68.3-74.4,136.5-111.6,204.8c-27.4,50.3-54.9,100.6-82.3,150.9
			c-18.8,34.5-37.6,69-56.4,103.4c-1.2,2.2-2.6,4.2-4.1,6.2c-1.5-0.8-3.1-1.6-4.7-2.3c0.5-1.5,1.1-3,1.8-4.4
			c8.8-22.8,17.8-45.5,26.8-68.2c24.9-63.4,49.8-126.8,74.7-190.2c27.8-70.4,55.6-140.9,83.4-211.3c26.4-67.1,52.7-134.2,79-201.4
			c23-58.5,45.9-117.1,68.9-175.7c2.3-5.9,5.1-11.7,6.7-18.1c-5.9,0.5-5.9,0.5-15.6,6.9c-30.1,76.8-60.4,154.4-90.9,232
			s-61,155-91.9,233.5c-7.4-8.2-13.7-15.8-20.7-22.8c-6.8-6.7-14.4-12.7-21.7-19c-0.5-4.8-0.2-9.7,1.1-14.4
			c4.7-18.6,9.3-37.3,14.1-55.9c16.1-62,32.2-124,48.3-186.1c6.5-25.2,13.1-50.4,19.6-75.7c-5.3,0.4-5.3,0.4-13.7,5.3
			c-9.5,34.4-18.2,69.8-27.5,104.9s-18.4,70.5-27.5,105.8s-18.3,70.4-27.3,105.1c-0.7,0.3-1.4,0.5-2.1,0.8c-0.4,0.1-0.8,0.1-1.1-0.1
			c-12.9-7.3-25.9-14.3-39.7-20c-5.9-2.4-11.8-4.8-18.2-7.4c-0.2-3-0.7-5.7-0.4-8.3c2.7-21.4,5.6-42.9,8.3-64.3
			c2-16.3,3.8-32.6,5.8-48.9c2.8-22.6,5.8-45.2,8.6-67.9c2.4-19.8,4.6-39.7,6.9-59.3c-2.1-2.3-4-0.7-5.8-0.2s-3.8,1-6.2,1.6
			c-0.9,4.3-2,8.6-2.5,12.9c-1.9,15.1-3.6,30.2-5.5,45.3c-2,16.3-3.9,32.6-5.9,48.9c-2.1,17.1-4.2,34.2-6.3,51.3
			c-2.1,16.7-4.3,33.4-6.4,50.1c-1.1,8.7-2.1,17.5-3.2,26.2c-0.3,2.3-0.9,4.6-1.5,7.3c-10.4-0.8-19.8-4.6-29.6-6s-19.8-2.8-29.4-4.1
			c-2.9-2.3-2.2-5.3-2.2-8c-0.1-24.9-0.1-49.7-0.1-74.6c0-40.9,0-81.8,0-122.7c0-4.4,0.5-8.8-0.9-13c-2.9-2.3-6-2-9.3-1
			c-2.5,3-1.5,6.8-1.5,10.3c-0.1,25.7,0,51.3,0,77c0,40.1,0,80.2,0,120.3c0,3.5-0.3,7.1-0.5,11.1c-10.5,2.5-20.9,3-31,4.7
			c-9.8,1.7-19.2,5.3-29.7,6.1c-4.7-26.9-6.8-53.6-10.5-80.1c-3.7-27-7-54-10.1-81.1c-3.1-26.6-6.1-53.3-10.1-80.4l-12-3.5
			c-1,4.5,0.6,8.3,0.6,12.2c0.1,3.6,0.5,7.2,1.1,10.8c1.2,9.1,2.4,18.2,3.6,27.4c2.2,17.5,4.5,34.9,6.7,52.4
			c1.9,15.1,3.5,30.2,5.3,45.3c2,16.7,4,33.4,6.1,50.1c1.9,15.1,3.8,30.2,5.7,45.3c0.1,2.1,0.1,4.2,0,6.3c-10,5.5-21,8.4-30.8,13.6
			l-28.4,14.8c-2.7-0.8-2.9-2.9-3.4-4.8c-8.7-33.7-17.5-67.4-26.2-101.2c-17.2-65.9-34.3-131.8-51.5-197.7
			c-1.1-4.2-2.3-8.5-3.4-12.6c-3.7-3.1-7.9-5.4-12.5-6.8c-2,1.7-0.7,3.2-0.3,4.6c6.6,26,13.3,52,20,78
			c13.9,53.5,27.8,107,41.7,160.4c6.5,25.2,12.8,50.5,19.2,75.7c1.3,4.6,1.7,9.5,1.1,14.3c-7.6,6.7-15.2,13.2-22.6,19.8
			c-7.1,6.3-12.2,14.6-19.6,22.3c-31.1-78.8-61.6-156.3-92.1-233.8s-60.8-155.1-91.2-232.9l-13.6-7.3c-2.1,2.4-0.9,4.3-0.2,6
			c6.2,16.1,12.5,32.1,18.7,48.2c28.1,71.6,56.2,143.2,84.4,214.8c26.5,67.5,53.1,135,79.7,202.4c16.4,41.7,32.8,83.5,49.3,125.2
			c18.8,47.7,37.6,95.4,56.3,143.1c15.8,40.3,31.7,80.5,47.6,120.8c1.2,3.2,2.4,6.3,3.5,9.4c-1.7,0.8-3.3,1.6-5,2.4
			c-1.3-2.1-2.7-4.2-3.8-6.4c-24-44-48-88-71.9-132c-21.5-39.4-43-78.8-64.5-118.2c-32.6-59.8-65.1-119.7-97.6-179.6
			c-20.3-37.3-40.9-74.5-61.2-111.8c-31.5-57.6-62.9-115.3-94.2-173.1c-34.1-62.7-68.3-125.3-102.5-187.9
			c-21.3-39-42.6-78.1-64-117.1c-3.6-6.6-10-17.8-14.6-26.5C268.8,504.7,270.6,501.1,272.5,497.7L272.5,497.7z M122.7,868.7
			c17.1,17.5,62.6,65.3,84.2,88c42,44.2,84,88.3,126,132.4c30.1,31.7,60.2,63.3,90.3,95c42.2,44.5,84.4,89,126.6,133.5
			c35.3,37.2,70.7,74.3,106.1,111.4c31.2,32.8,62.5,65.6,93.7,98.4c17.1,18,34.3,36,51.4,54c1.7,1.8,3.4,3.7,5.1,5.6
			c-1.9,2-3.7,4.1-5.5,6.2c-2.2-1.5-4.2-3.3-6.3-5c-34-26.8-68-53.6-102-80.4c-63.3-49.8-126.6-99.7-189.9-149.5
			c-57.3-45.1-114.6-90.3-171.8-135.5c-41.8-33.1-83.3-66.5-125-99.7c-4-3.2-7.6-7.2-13-8.7c-1,0.4-2.4,0.5-3.2,1.2
			c-4.1,3.5-4.6,6.8-1.3,10.2c3.1,3.1,6.4,6.1,9.8,8.8c35,27.5,70,55,105,82.4c58.2,45.9,116.5,91.8,174.6,137.7
			c36.2,28.5,72.5,56.9,108.8,85.3l164.5,129.1c13.9,10.9,27.8,21.8,41.6,32.7c0.3,0.2,0.6,0.5,0.9,0.8c-1.6,2.2-3.1,4.5-4.5,6.9
			c-1.5-0.7-2.9-1.4-4.3-2.2c-64.6-37.1-129.2-74.2-193.9-111.4c-74-42.5-148-85-222.1-127.4c-10.1-5.8-20.1-11.6-30.2-17.4
			c-2.8-1.6-5.7-2.9-8.6-4c-2-0.6-4.1,0.1-5.3,1.8c-1.4,1.7-1.6,5.2-0.1,6.7c1.7,1.7,3.6,3.2,5.6,4.4c10,5.9,20.1,11.6,30.2,17.4
			c67.8,38.8,135.6,77.6,203.4,116.5c69.5,39.9,139,79.8,208.5,119.7c3.7,2.1,7.4,4.3,11,6.6c-0.7,1.4-1.3,2.8-2,4.3
			c-1.9-0.6-3.5-1.4-5.2-2.1c-17-7-34.1-14.1-51.1-21.1l-221-91.5c-24-9.9-48.1-20-72.2-29.8c-3.9-1.6-7.9-4.4-13.4-1.8
			c-1.8,1.8-1.5,3.9-1.2,6c0.3,1.6,2.2,3.2,3.8,4.2c2,1.2,4.4,1.8,6.6,2.8c80.4,33,160.8,66,241.2,99.1l103.4,42.4
			c1.7,0.7,3.3,1.3,5,2.1c-0.6,1.6-1.1,3.3-1.6,4.9h-0.2c-17.8-4.9-35.5-9.7-53.3-14.6c-57.9-15.7-115.9-31.5-173.9-47.2
			c-10.4-2.8-20.8-5.8-31.2-8.7c-3.8-1.1-7.7-2-10.8-2.7c-5.5-0.4-6.9,6.9-4.2,9.8c2.7,2.5,5.2,2.7,8.2,3.5
			c26.6,7.3,53.3,14.6,79.9,21.8c59.5,16.2,119,32.4,178.5,48.7c1.3,0.4,2.8,0.6,4.1,1.1c-0.4,1.8-0.7,3.6-1,5.5
			c-5.3-0.7-10.6-1.5-15.8-2.3c-25.7-3.8-51.5-7.6-77.2-11.5c-17.4-2.6-34.8-5.4-52.2-8c-10.3-1.5-20.6-2.9-30.9-4.3
			c-2-0.3-4-0.3-6,0c-2.1,0.3-3.6,2-3.8,4.1c-0.2,2.1,0.7,3.6,2.4,5.1c2.1,1.8,5.2,2,8,2.4c30.1,4.3,60.3,8.5,90.4,12.8
			c28,4,56,8.1,84,12.2c-0.2,1.9-0.2,3.9-0.3,5.8c-2.9,0.3-5.8,0.4-8.7,0.3c-32.8-0.2-65.7-0.5-98.5-0.8c-4.4,0-8.8-0.1-13.2,0.1
			c-1.9,0.1-3.5-0.2-5.2,1.3c-2.6,3.8-1.6,6.5,1.1,9c4.1,1.9,8.6,1.2,13,1.3c28.5,0.1,56.9,0.1,85.4,0.3c8.8,0,17.6,0.5,26.4,0.8
			l0,0c0.1,1.8,0.2,3.5,0.4,5.2c-7,1-14.1,1.9-21.1,2.8c-17.8,2.4-35.7,4.9-53.5,7.3c-2,0.2-3.9,0.8-5.6,1.8c-1.2,1-2,2.4-2.2,4
			c-0.2,2.1,2,5.2,4,5.7c2.7,0.6,4.6,0,7.3-0.3c14.3-1.7,28.6-3.6,42.9-5.5c7.9-1,15.8-2.3,23.8-3.2c2.1-0.2,4.2-0.3,6.3-0.2
			c0.4,1.9,0.8,3.8,1.3,5.7c-1.6,0.6-3.2,1-4.8,1.4c-6.5,1.9-13.2,3.5-19.7,5.3c-3.1,0.8-6.1,1.9-9.1,3.1c-1.4,0.8-2.5,1.9-3.3,3.3
			c-1.8,2.8,0.4,7.2,3.7,7.2c2.8-0.1,5.5-0.5,8.2-1.2c9.3-2.4,18.5-5.1,27.9-7.4c0.2,0,0.4-0.1,0.6-0.1c0.6,1.7,1.2,3.4,1.9,5.1
			c-4.5,2-9,3.8-13.4,6c-1.7,0.9-3.4,2.1-4.8,3.4c-0.5,0.6-0.9,1.3-1.1,2.1c-0.3,2.7,1.2,4.5,3.4,5.8c0.8,0.1,1.7,0.5,2.3,0.3
			c4.9-1.8,9.7-3.7,14.6-5.5l3.8-1.4c0.8,1.5,1.6,3,2.4,4.5c-2.3,1.5-4.5,3-6.7,4.6c-3.3,2.5-5,7-0.2,10.4c4.1,0.9,8.7-3.1,12.8-5.3
			c1.3,2,2.7,3.9,4.2,5.8c-1.5,2-4.2,3.8-3.9,6.2c-0.2,2.8,2.3,4.8,5.3,5.5c1.7,0.2,3.9-1.8,5.6-2.8c0.1,0,0.2-0.1,0.2-0.1
			c1.7,1.9,3.5,3.7,5.3,5.5c0,0.3-0.1,0.6-0.2,0.8c-0.9,2.5,1.5,5.5,4.3,5.8c0.8,0.2,1.7,0,2.4-0.6c49,42.1,121.5,42,170.3-0.4
			l2.9,0.9c3.9-0.4,5.5-2.8,5.1-6.6c-0.1-0.5-0.2-1-0.3-1.5c1.5-1.6,3-3.2,4.5-4.8c1.9,1.2,3.6,3.2,6.1,3.1c3-0.4,4.7-2.4,5.4-6
			l-4.2-6.2c1.2-1.7,2.4-3.3,3.6-5c4.4,2.3,9.7,5.9,11.8,5.9c3.3-0.4,5.6-1.7,5.9-3.9c0.4-2.6-1.3-4.9-3.4-6.5
			c-2.6-2-5.5-3.6-8.2-5.6c0.8-1.4,1.5-2.8,2.2-4.3c6.9,1.9,13.3,6.3,20.4,7.7c1.1-0.4,3-0.5,3.6-1c1.1-1.1,2.2-1.8,2.3-4.1
			c0.1-2.7-2.6-4.3-4.4-5.3c-4.2-2.3-8.7-4-13.1-6c-1.3-0.7-2.6-1.4-3.9-2.2c0.6-1.5,1.1-2.9,1.6-4.4c0.3,0,0.6,0.1,0.9,0.2
			c9.3,2.4,18.6,4.9,27.9,7.3c2.7,0.7,5.4,1.3,8.2,1.7c2.1,0.3,4.1-0.8,4.9-2.7c1-2.1,0.5-5.3-1.5-6.5c-2.7-1.6-5.7-2.9-8.7-3.9
			c-7.3-2.1-14.7-3.8-22-5.9c-2.1-0.6-4.4-0.9-6.2-2.1c0.4-1.7,0.8-3.4,1.2-5.2c3.9,0.1,7.7,0.3,11.5,0.8c15.9,2,31.8,4.2,47.6,6.3
			c4.8,0.6,9.5,1.5,14.3,1.8c3.1,0.2,5.4,1.1,8.5,0.5c2-0.4,4.2-3.6,4-5.7c-0.2-1.6-1-3-2.2-4c-1.7-1-3.6-1.6-5.6-1.8
			c-11.5-1.7-23-3.4-34.5-4.9c-13.5-1.8-27-3.4-40.5-5.2c-0.4-0.1-0.8-0.2-1.2-0.3c0.2-1.6,0.3-3.2,0.4-4.7c0.6-0.2,1.2-0.3,1.9-0.3
			c9.2-0.4,18.4-0.8,27.6-0.8c28.1-0.2,56.1-0.2,84.2-0.3c4.4,0,8.8,0.6,12.8-1.2c2.8-2.8,3.7-5.5,0.9-9.3c-1.3-1-4.9-1.1-7.6-1.1
			c-20.8,0-41.7,0.2-62.5,0.3c-17.6,0.1-35.2,0.3-52.8,0.4c-1.4,0.1-2.8,0-4.1-0.2c-0.1-1.9-0.2-3.7-0.3-5.6
			c0.6-0.2,1.2-0.3,1.8-0.4c11.9-1.7,23.8-3.4,35.7-5.1c19.8-2.9,39.6-5.7,59.5-8.6c19.8-2.9,39.6-5.7,59.4-8.5
			c6.7-1,13.5-1.8,20.2-2.8c2.4-0.4,4.7-1.1,6.9-2c2.2-0.8,3.4-3.6,2.8-6c-0.4-2-2.1-3.6-4.2-3.7c-2.4-0.2-4.8-0.1-7.2,0.3
			c-14.3,2-28.6,4-42.8,6.1c-25,3.7-49.9,7.4-74.8,11.2c-18.2,2.8-36.4,5.6-54.6,8.4c-1.3,0.2-2.6,0.3-3.9,0.2
			c-0.2-1.5-0.5-3-0.8-4.5c14.5-5.1,29-8.3,43.4-12.3c15.1-4.1,30.2-8.1,45.2-12.2c15.4-4.2,30.9-8.5,46.3-12.8
			c15-4.2,30.1-8.4,45.1-12.5c15.4-4.2,30.9-8.4,46.4-12.6c15-4.1,28.9-7.4,43.2-12.2c3.9-1.2,4.8-3.6,4.6-6.1
			c-0.3-3.7-3.2-5.4-6.8-4.8c-11.4,2.1-21.5,5.6-33,8.7c-11.2,2.9-22.4,6.2-33.6,9.2c-11.6,3.2-23.2,6.3-34.8,9.4
			c-11.6,3.1-23.2,6.2-34.8,9.3c-11.2,3.1-22.4,6.2-33.6,9.3c-11.6,3.2-23.2,6.3-34.8,9.4c-11.2,3-22.4,6.2-33.6,9.2l-32.3,8.8
			c-0.5-1.5-0.9-3.1-1.4-4.6c2.1-1,4.2-1.9,6.3-2.7c65.2-26.7,130.5-53.4,195.7-80.2c50-20.5,100-41.1,150-61.8
			c1.8-0.8,3.9-1.2,5.5-2.3s3.6-2.6,3.9-4.2c0.4-2,0.8-4.3-1.1-6c-4.5-2.3-7.8-0.6-11.1,0.8c-10.7,4.4-21.5,8.8-32.2,13.3
			c-104,43.1-208,86.1-312,129.1c-3,1.2-6,2.4-9,3.5c-0.6-1.4-1.2-2.8-1.9-4.1c0.7-0.5,1.6-0.8,2.3-1.3c25-14.4,50-28.8,75-43.2
			c47.6-27.3,95.2-54.7,142.8-82c40.7-23.3,81.4-46.6,122.1-69.9c36.2-20.7,72.3-41.4,108.4-62.2c2.8-1.5,5.6-3.2,8.2-5.1
			c1.1-1.1,1.9-2.5,2.2-4.1c0.8-3.3-2.4-7-5.5-6.1c-3.1,0.9-6,2.1-8.7,3.7c-9.8,5.5-19.4,11.2-29.2,16.8
			c-95.2,54.7-190.4,109.3-285.6,164c-43.8,25.1-87.6,50.3-131.3,75.4c-2,1.1-4.1,2.2-6.3,3.3c-1.3-2.2-2.7-4.4-4.2-6.6
			c0.5-0.6,1-1.1,1.6-1.5c27.1-21.3,54.2-42.5,81.4-63.8c29.3-23,58.7-46,88-69c30.3-23.7,60.6-47.5,90.8-71.2
			c41.3-32.4,82.6-64.9,123.8-97.3c28-22,56.1-44,84.2-66c42.5-33.5,85-67,127.5-100.5c3.1-2.5,6.1-5.1,8.9-8
			c3.6-3.8,2.9-7.4-1.9-10.8c-0.7-0.3-1.5-0.6-2.3-0.7c-4.2,0.6-7,3.7-10.1,6.1c-26,20.7-52,41.5-78,62.2
			c-38.9,30.9-77.9,61.8-116.8,92.6c-43.4,34.1-86.9,68.1-130.4,102.3c-55.7,43.9-111.5,87.8-167.2,131.7
			c-32.7,25.8-65.5,51.6-98.1,77.5c-2.8,2.2-5.6,4.2-8.7,6.5c-1.6-1.9-3.3-3.8-5-5.7c1.2-1.7,2.6-3.3,4-4.8c25.7-27,51.4-54,77.1-81
			c31-32.5,61.9-65.1,92.8-97.6c49.7-52.3,99.4-104.6,149.2-156.8c30.9-32.5,61.9-65,92.8-97.6c41.7-43.9,83.3-87.8,124.9-131.8
			c19.6-20.7,39.2-41.3,58.8-61.9c25.7-27,51.3-54.1,77-81.1c1.9-2,3.8-3.8,6-5.9c15.1,51,28.8,103.7,41.1,157.8
			c46.6,205.7,70.2,424.2,70.2,649.4s-23.6,443.7-70.2,649.4c-45,198.6-109.3,376.9-191.3,529.9c-40.3,75.4-84.7,143.8-131.9,203.3
			c-47.6,60-98.4,111.6-151.1,153.2c-109.3,86.4-225.4,130.2-345,130.2s-235.6-43.8-345-130.2c-52.7-41.6-103.5-93.2-151.1-153.2
			c-47.2-59.5-91.6-127.9-131.9-203.3c-82-153.1-146.3-331.4-191.3-529.9C34.6,2120.7,11,1902.2,11,1677s23.6-443.7,70.2-649.4
			C93.6,973,107.4,920.1,122.7,868.7L122.7,868.7z M179.7,701.1c43.3,58.7,437.1,600.7,637.2,875.9c-0.8,0.6-1.5,1.3-2.2,1.9
			c-216.6-227.6-635.8-669.2-687.8-724.3C143,801.6,160.5,750.4,179.7,701.1L179.7,701.1z M857,1553.6c-5-12.7-10-25.3-14.9-38
			c-19.5-49.9-39-99.8-58.5-149.8c-19.6-49.9-39.3-99.8-58.8-149.7c-1.4-3.5-3.9-7.1-2.7-11.3c1.4,0.6,2.9,1,4,1.9
			c15.7,13.7,33.1,25.3,51.7,34.7c1,0.5,1.8,1.5,3.6,3c26.3,102.2,53.7,205,79.6,308.2c-1.3,0.4-2.7,0.9-4,1.3L857,1553.6z
			 M1076.4,1189.5c-16.8,17.6-36.7,30.9-58.3,41.9c-27.2,13.8-56.3,23.4-86.4,28.4c-22.8,3.8-45.4,2.9-68.1-1.4
			c-35.5-6.7-69.5-19.9-100.2-38.9c-13.7-8.4-26.3-18.5-37.4-30.1c-5-5.2-9.9-10.5-13.2-17.3c2.4-6.5,7.2-11.4,11.7-16.4
			c12.5-13.8,27-25.1,42.8-34.7c31.1-19.2,65.6-32.2,101.7-38.4c25.4-4.2,51.3-3.5,76.4,2.2c37.2,8.3,71.7,22.8,102.8,44.8
			c14.1,10,27.1,21.3,37.4,35.3c1.4,1.9,2.6,4,4.3,6.6C1086.4,1179,1081.4,1184.3,1076.4,1189.5L1076.4,1189.5z M1081.6,1203.7
			c0,0.3,0,0.7-0.2,0.8c-0.2,0.1-0.5,0.2-0.7,0.2L1081.6,1203.7z M1674.8,856.7c-0.7,1-1.5,2-2.4,2.9
			c-38.7,40.7-77.4,81.3-116.2,121.8c-34,35.7-68,71.4-102.1,107.1c-35.9,37.8-71.7,75.6-107.5,113.5c-14.9,15.7-29.8,31.4-44.8,47
			c-36.2,38-72.5,76-108.7,114c-24.6,25.8-49.2,51.7-73.7,77.6c-30.7,32.3-61.3,64.5-92,96.7c-11.3,11.9-22.6,23.8-33.9,35.8
			c-1.9,2-3.7,4.2-6,6.8c-0.8-0.7-1.5-1.4-2.3-2c4.5-6.6,9-13.2,13.7-19.7c207.7-285.1,415.4-570.3,623-855.4
			C1641.1,752.3,1658.7,803.6,1674.8,856.7L1674.8,856.7z M900.5,1796.5c-66,0-119.5-53.5-119.5-119.5s53.5-119.5,119.5-119.5
			S1020,1611,1020,1677C1019.9,1743,966.5,1796.4,900.5,1796.5z M891.5,1546.8c-1-7-2-14-2.9-21c-2-16.7-3.8-33.4-5.8-50.1
			c-1.7-13.9-3.5-27.8-5.3-41.7c-2.2-17.1-4.3-34.1-6.4-51.2c-2.1-17.1-4.3-34.1-6.4-51.2c-2.4-19.5-4.7-38.9-7-58.4
			c-0.1-0.7,0.4-1.5,1.1-3.3l34,3.7c3.2,2.9,2.5,5.9,2.5,8.6c0.1,28.4,0.1,56.9,0.1,85.3c0,58.5,0,116.9,0,175.4
			c0,1.3-0.1,2.5-0.2,3.8C893.9,1546.7,892.7,1546.7,891.5,1546.8L891.5,1546.8z M873.6,1549.3c-0.8-2.1-1.5-4.3-2.1-6.5
			c-16.7-64.3-33.4-128.6-50.1-193c-7.9-30.6-15.8-61.2-23.7-91.9c-0.5-1.8-0.7-3.7-1.2-7c16.5,5.6,31.3,10.6,46,15.6
			c0.3,0.1,0.6,0.5,1.4,1.3c1,8.1,2.2,16.8,3.3,25.5c3.1,24.6,6.3,49.2,9.3,73.8c2.7,22.2,5.2,44.5,7.9,66.8c2.8,23,5.9,46,8.8,69
			c1.8,13.9,3.5,27.8,5.1,41.7c0.1,1.2,0.1,2.5,0.1,3.7C876.8,1548.7,875.2,1549,873.6,1549.3L873.6,1549.3z M907.3,1281.9
			c0-2.3,0.4-4.7,0.6-7c1.4-0.7,2.4-1.5,3.5-1.6c10.7-1.2,21.4-2.2,32.6-3.3c0.3,1.6,0.9,3.2,0.8,4.6c-3.4,27.4-6.9,54.7-10.3,82.1
			c-2.8,23-5.4,46-8.2,69.1c-1.8,14.7-3.8,29.3-5.7,44c-2.1,16.7-4,33.3-6,50c-1,8.3-2,16.7-3,25c-0.1,0.7-0.2,1.5-0.4,2.2
			c-1.1-0.1-2.2-0.2-3.2-0.2C906.7,1517,906.1,1340.7,907.3,1281.9L907.3,1281.9z M929.2,1549.7c-1.7-0.4-3.3-0.7-5-1
			c-0.1-2.3,0-4.5,0.4-6.7c2.2-18.2,4.5-36.5,6.8-54.7c2.8-22.2,5.7-44.4,8.5-66.6c2-16.3,3.8-32.6,5.8-48.8s4.2-32.5,6.3-48.7
			s3.9-32.6,5.8-48.8c0.3-2.3,0.7-4.6,1.1-7.1c7.4-3.9,15.5-4.8,22.9-7.5s15-5.5,22.3-8.2c2.3,1.8,1.7,3.7,1.2,5.6
			c-9.9,37.9-19.8,75.8-29.8,113.8c-10.8,41.4-21.5,82.8-32.1,124.3c-4.1,15.9-8.1,31.8-12.4,47.6
			C930.5,1544.8,930.3,1547.3,929.2,1549.7L929.2,1549.7z M945.3,1554.4c-1.4-0.5-2.8-1-4.3-1.5c0.1-0.8,0.4-1.7,0.6-2.5
			c3.1-12,6.2-24,9.4-36c23-88.3,46-176.7,69-265c0.5-1.9,1.2-3.8,1.7-5.7c1.3-1,2.6-2,4-2.8c17.5-8.9,33.9-19.9,48.9-32.6
			c1.7-1.5,3.1-3.7,5.8-3.5c1.1,5.1-2,9.2-3.6,13.6c-5.8,15.4-12,30.6-17.9,45.8l-67.5,172.2c-15.1,38.4-30.1,76.8-45.1,115.2
			C946,1552.6,945.7,1553.5,945.3,1554.4L945.3,1554.4z M721.8,1203.8c0.1,0.2,0.2,0.4,0.2,0.7l-1-0.9
			C721.3,1203.7,721.7,1203.7,721.8,1203.8z M1617.2,690.4c-213.6,292.7-427.3,585.3-640.9,877.9c-0.4,0.5-0.9,1.1-1.4,1.5
			c-1.2-0.9-2.5-1.7-3.8-2.5l0,0c5.3-9.9,10.7-19.7,16-29.6c33-60.5,66-121,99-181.5c39.9-73.2,79.7-146.4,119.5-219.6
			c23.4-42.9,46.8-85.8,70.3-128.7c20.5-37.6,41-75.3,61.4-113c28.9-53.1,57.8-106.3,86.8-159.4c35.8-65.8,71.7-131.6,107.5-197.4
			c2-3.7,5.2-9.7,9.5-16.3C1569.3,576.7,1594.7,633,1617.2,690.4z M282.1,558.4c27,49.6,54,99.2,81,148.9
			c45,82.7,90,165.4,135,248.1c29.1,53.5,58.3,107,87.5,160.4c25.1,46.1,50,92.3,75.1,138.4c29,53.1,58,106.2,87.1,159.2
			c23.2,42.6,46.4,85.1,69.5,127.7c4.4,8.1,8.8,16.2,13.2,24.3c0.2,0.3,0.3,0.7,0.5,1.1c-1.4,0.9-2.7,1.8-4.1,2.7
			c-0.7-0.8-1.2-1.7-1.8-2.5c-13.5-18.4-26.9-36.9-40.3-55.4c-41.8-57.3-83.5-114.7-125.3-171.9c-41-56.3-82-112.7-123.1-169.1
			c-35.4-48.6-70.9-97.1-106.4-145.6c-42.8-58.6-85.6-117.1-128.4-175.7c-30-40.9-97-132.4-117.3-160.2
			c22.6-57.4,48-113.6,76.1-168.4C267.5,532.3,277.5,549.9,282.1,558.4L282.1,558.4z"/>
	</g>
</g>
</svg>
