<svg id="Layer_1" data-name="Layer 1" xmlns="http://www.w3.org/2000/svg" viewBox="0 0 605.52 283.47"><defs><style>.cls-1{fill:#f07f19;}</style></defs><title>logo-gi_orange</title><path class="cls-1" d="M231.78,103.91a51.69,51.69,0,1,0-51.7-51.69,51.69,51.69,0,0,0,51.7,51.69m0-91.86a40.18,40.18,0,1,1-40.17,40.18A40.18,40.18,0,0,1,231.78,12.05Z" transform="translate(0 -0.53)"/><path class="cls-1" d="M102.17,142.27a39.56,39.56,0,0,1,39.56-39.55V91.43a50.87,50.87,0,1,0,50.83,50.84H181.35a39.59,39.59,0,0,1-79.18,0" transform="translate(0 -0.53)"/><path class="cls-1" d="M68.3,142.27a73.47,73.47,0,0,0,146.94,0H204a62.21,62.21,0,1,1-62.26-62.15V68.84A73.42,73.42,0,0,0,68.3,142.27" transform="translate(0 -0.53)"/><path class="cls-1" d="M45.5,142.27a96.18,96.18,0,1,0,192.35,0H226.51a84.75,84.75,0,1,1-84.78-84.71V46.15A96.14,96.14,0,0,0,45.5,142.27" transform="translate(0 -0.53)"/><path class="cls-1" d="M141.73,23.22a119.05,119.05,0,1,0,119,119.05H249.38A107.61,107.61,0,1,1,141.73,34.7V23.22" transform="translate(0 -0.53)"/><path class="cls-1" d="M141.74,272.71a130.44,130.44,0,1,1,0-260.88V.53A141.74,141.74,0,1,0,283.47,142.27H272.25A130.5,130.5,0,0,1,141.74,272.71" transform="translate(0 -0.53)"/><path class="cls-1" d="M349.79,124.3c5.66,0,12.63-1.26,16.42-3V90.56H346.88v9.65h7.68V114a32.91,32.91,0,0,1-5.06.33c-8.56,0-15.19-4.52-15.19-19C334.31,81,341,76.5,351,76.5a39.7,39.7,0,0,1,13.15,2.3l1.18-9.74a45.59,45.59,0,0,0-15-2.53c-17.19,0-28.27,9-28.27,28.93,0,19.49,10.26,28.84,27.74,28.84" transform="translate(0 -0.53)"/><polyline class="cls-1" points="544.57 122.66 556.53 122.66 556.53 66.89 544.57 66.89 544.57 88.91 526.64 88.91 526.64 66.89 514.67 66.89 514.67 122.66 526.64 122.66 526.64 98.86 544.57 98.86 544.57 122.66"/><polyline class="cls-1" points="495.81 122.66 495.81 76.93 507.93 76.93 507.93 66.89 471.58 66.89 471.58 76.93 483.7 76.93 483.7 122.66 495.81 122.66"/><polyline class="cls-1" points="443.41 98.92 463.09 98.92 463.09 89.08 443.41 89.08 443.41 76.84 466.59 76.84 466.59 66.89 431.44 66.89 431.44 122.66 467.38 122.66 467.38 112.71 443.41 112.71 443.41 98.92"/><path class="cls-1" d="M398.61,124.83c15.84,0,23.49-8.51,23.49-29.56,0-20.6-7.65-29.48-23.49-29.48s-23.49,8.88-23.49,29.48,7.94,29.56,23.49,29.56m0-49.12c7.59,0,11.23,4.76,11.23,19.56S406.2,115,398.68,115s-11.31-4.9-11.31-19.71S391.09,75.71,398.61,75.71Z" transform="translate(0 -0.53)"/><polyline class="cls-1" points="604.33 112.71 580.36 112.71 580.36 98.92 600.04 98.92 600.04 89.08 580.36 89.08 580.36 76.84 603.54 76.84 603.54 66.89 568.39 66.89 568.39 122.66 604.33 122.66 604.33 112.71"/><polyline class="cls-1" points="429.81 151.48 440.9 151.48 440.9 195.62 452.6 195.62 452.6 151.48 463.69 151.48 463.69 141.79 429.81 141.79 429.81 151.48"/><rect class="cls-1" x="326.07" y="141.8" width="11.81" height="53.82"/><path class="cls-1" d="M554.61,177.43c0,6.24-2.14,9.69-8,9.69s-8-3.52-8-9.69v-35.1H526.9v35.53c0,12.91,6.65,19.23,19.72,19.23,12.92,0,19.57-6.32,19.57-19.23V142.33H554.61v35.1" transform="translate(0 -0.53)"/><path class="cls-1" d="M407.24,156.67c0-2.78,1.43-5.54,7.28-5.54a25,25,0,0,1,10.19,2.4l1.29-9.4a28.54,28.54,0,0,0-12.48-2.66c-12.42,0-17.78,7.18-17.78,16.29,0,17.32,21.4,14,21.4,23.62,0,3.69-2.32,6.18-7.22,6.18S401,185.93,397,183.67l-1.5,9.61a29.42,29.42,0,0,0,14.9,3.81c11.63,0,18.21-6.46,18.21-17,0-17.88-21.4-15.09-21.4-23.41" transform="translate(0 -0.53)"/><polyline class="cls-1" points="376.86 173.22 360.31 141.8 349.63 141.8 349.63 195.62 360.31 195.62 360.31 164.2 376.86 195.62 387.54 195.62 387.54 141.8 376.86 141.8 376.86 173.22"/><polyline class="cls-1" points="571.64 141.79 571.64 151.48 582.73 151.48 582.73 195.62 594.42 195.62 594.42 151.48 605.51 151.48 605.51 141.79 571.64 141.79"/><rect class="cls-1" x="469.67" y="141.8" width="11.81" height="53.82"/><polyline class="cls-1" points="487.45 151.48 498.55 151.48 498.55 195.62 510.24 195.62 510.24 151.48 521.33 151.48 521.33 141.79 487.45 141.79 487.45 151.48"/></svg>