<svg xmlns="http://www.w3.org/2000/svg" viewBox="0 0 2200 2200"><defs><style>.cls-1{fill:#ff9600;}</style></defs><g id="Warstwa_2" data-name="Warstwa 2"><g id="Warstwa_4" data-name="Warstwa 4"><path class="cls-1" d="M1246.6,1822.88c15.41-10,15.41-28.4.16-38.64-4.66-3.13-10.25-4.86-15.41-7.23-3.53-1.62-7.39-2.78-10.51-5-6-4.2-5.83-8.21.63-11.49a84.62,84.62,0,0,1,16-5.69c7-1.93,13.88-4.06,19.32-9.2,6.94-6.56,7.28-14.25,1.24-21.53-5-6.1-12-8.73-19.13-11.26-8-2.84-9.08-6.73-4.22-13.46.53-.73,1.15-1.39,1.67-2.13,4.52-6.38,5.07-13,.47-19.18a68.37,68.37,0,0,0-11.92-12.12c-11.17-9-25-11.47-38.4-14.64-20.2-4.78-18.21-4.44-22.72-21.74-2.8-10.74-9.32-17.88-19.61-21.82-16.93-6.48-34.58-7.83-52.38-6.8-12.28.71-24.53,2.38-36,7.54-8.76,3.94-14.66,10.27-17.33,19.51-.83,2.89-1.47,5.83-2.14,8.75-1.55,6.77-5.2,11-12.43,12.52-9.4,2-18.62,4.72-27.92,7.15-9.53,2.51-17.67,7.56-24.84,14.14-11.14,10.23-11.83,17.23-3.34,29.66.17.25.38.47.54.73,2.85,4.49,2.22,7.93-2.29,10.57a36.4,36.4,0,0,1-6.72,2.55c-6.4,2.15-12,5.45-16.25,10.86-4.77,6.07-5,13.09.27,18.8a29.88,29.88,0,0,0,9.31,6.91c4.59,2.11,9.73,3,14.5,4.76a113.78,113.78,0,0,1,15.59,6.69c3.24,1.8,3.48,5.1.7,7.57a42,42,0,0,1-9.78,6.08c-5.67,2.71-12,4.28-17.26,7.56-17.24,10.72-17,30.44.45,40.63a106.44,106.44,0,0,0,21.38,9.34c12.59,4,25.55,6.77,38.18,10.61a59,59,0,0,1,15.32,7.2c4,2.64,3.42,6.91-.44,9.79-1.9,1.42-4.29,2.21-6.2,3.63-8.1,6-8.6,15.29-1.42,22.36,5.1,5,11.39,7.9,18.12,9.6,19.26,4.88,38.68,8.92,56.77,7.93,28.16.31,38.71-2.56,60.75-7.75,7.38-1.74,14.2-4.88,19.6-10.53s6.07-11.75,1.32-17.79c-2.12-2.7-5.45-4.52-8.39-6.5-5.57-3.75-6-8.45-.27-12a56,56,0,0,1,14-6c13.27-3.85,26.8-6.82,40-11A89.51,89.51,0,0,0,1246.6,1822.88Z"/><path class="cls-1" d="M1713.1,1547.24a116.67,116.67,0,0,0-11.82-6.48c-5.41-2.61-11.11-4.66-16.42-7.46-11.44-6-12.93-11.92-5.32-22.1,8.49-11.35,9.08-23.16,3.16-35.62-7.86-16.54-20.6-27.2-38.6-31-13.22-2.78-25-8-35.5-16.72-15.73-13.07-34.11-19.85-54.38-22-24.73-2.62-47.91.94-68.72,15.69a65.51,65.51,0,0,0-19.83,21.8c-4.1,7.32-8.52,14.47-12.94,21.62a35.92,35.92,0,0,1-16.26,13.84c-6.29,2.84-12.92,5-19.15,7.89-7,3.32-14.15,6.68-20.55,11-6.2,4.18-8.2,10.5-6.47,18.26,1.55,7,5.39,11.81,10.64,16.16a69.17,69.17,0,0,1,10.89,10.67c4.38,5.7,3.46,11.37-2.17,15.83-2.79,2.2-6.18,3.64-9.34,5.35-5.28,2.86-10.83,5.3-15.84,8.55-11.41,7.4-13.12,19.92-4.43,30.14a37.52,37.52,0,0,0,27.58,13.47c10.5.57,21,.64,31.53.83,13.29.25,26.5,1.23,38.92,6.39,12.26,5.11,13.66,12.23,3.36,20.59-12.4,10.07-12.15,26.71-2.5,37.58a71.68,71.68,0,0,0,28.81,19.57c19.37,7.3,39.57,10,60.19,10.75,8.69-.55,17.41-.85,26.08-1.7a108.13,108.13,0,0,0,49.72-17.39c7-4.61,13.06-10.19,14.55-18.68.85-4.86.28-10.18-.65-15.11-2.29-12.2,2.34-21.29,12-28,7.65-5.26,15.71-10,23.75-14.64,13-7.6,23.7-17.3,30.1-31.31C1728.79,1573.53,1725.44,1555.12,1713.1,1547.24Zm-2.38,42.78a77.58,77.58,0,0,1-24.18,19.89A204,204,0,0,0,1665,1623c-13.3,9.07-20.26,21.2-16.29,37.77,2.69,11.19-1.18,19-10.8,25.13a101.62,101.62,0,0,1-41.07,15.22,185.82,185.82,0,0,1-48.57.37c-1.35-.16-2.63-.81-5.93-1.87,9.09-3,16-5,22.62-7.68,13.5-5.52,24.34-17.34,22.69-36.2-1.16-13.17,4.94-21.84,16.12-27.59,3.73-1.93,7.79-3.21,11.49-5.19a113.58,113.58,0,0,0,14.66-8.73c4.76-3.53,8-8.45,6.63-14.8s-6.31-9.19-12-10.93c-3.16-1-6.44-1.55-9.54-2.65-12.08-4.29-14.55-11.5-7.71-22.16,5.8-9,4.72-14.47-4.26-20.15-3.29-2.08-6.86-3.73-10.3-5.56-10.34-5.51-11.83-15.38-3.33-23.55,2.34-2.25,5.36-3.81,8.08-5.66,4-2.69,8.09-5.19,11.91-8.08,5.44-4.11,7.06-9.94,4.89-16.11a44.18,44.18,0,0,0-7.29-13.27,73.38,73.38,0,0,0-24.67-19.33c-12.2-6-24.73-10.9-38-13.87a68.18,68.18,0,0,1-12.86-4.06c-7.09-3.15-7.55-8.11-1.27-12.93a35.31,35.31,0,0,1,21.92-7.09c18.81,0,35.2,6.62,49.79,18.24,5.17,4.11,10.26,8.53,16,11.66,5.45,3,11.68,4.52,17.64,6.47,4.85,1.59,10,2.34,14.68,4.32,13.23,5.59,21.64,15.71,26.31,29.22,2.6,7.52,1.19,14.15-3.28,20.43a78.1,78.1,0,0,0-5.57,8.18c-3.91,7.32-3.24,14.9,2.63,20.78a55.9,55.9,0,0,0,13,9.38c5.8,3.12,12.09,5.35,18.18,7.91C1719.63,1558.24,1721.39,1577.26,1710.72,1590Z"/><path class="cls-1" d="M724.39,1679.52c8.83-11.73,7.45-24.74-3.31-34.73a33.85,33.85,0,0,1-5-5.12c-3.93-5.64-3.21-10.16,2.81-13.61a59,59,0,0,1,14.15-5.65c12.6-3.35,25.53-3.48,38.5-3.39a249.44,249.44,0,0,0,25.2-1.15,36.5,36.5,0,0,0,24.95-13c8.75-10.21,7.13-22.78-4.19-30.17-5-3.27-10.54-5.74-15.82-8.58-2.9-1.57-6-2.85-8.62-4.8-6.67-5-7.59-10.57-2.63-17.06,2.53-3.3,5.82-6,8.87-8.92,2-1.85,4.29-3.33,6.14-5.28,10.24-10.78,9-24-3-32.54a39,39,0,0,0-7-4c-9.37-4-18.8-8-28.23-11.89-6.52-2.71-12.37-6.51-16.37-12.32A227.29,227.29,0,0,1,737,1445.1a64.41,64.41,0,0,0-22.13-24.41c-16.08-10.49-33.38-15.91-52.75-15.58-24.75.42-47.78,5.66-67.34,21.62-11.45,9.35-24.26,15.1-38.69,18.3-18.32,4-30.73,15.7-38,32.89-4.85,11.45-3.9,22.27,3.54,32.4,1.42,1.93,2.82,3.9,4.07,5.94,2.34,3.8,2.19,7.68-1.06,10.7a46.47,46.47,0,0,1-10,7.4c-6.39,3.31-13.22,5.78-19.69,9-11,5.42-17.66,14-19,26.6-.72,6.93,1,13.15,4.21,19,4.05,7.48,9.24,14.22,16.21,19.1,7.12,5,14.9,9,22.15,13.81,6.5,4.29,13.18,8.52,18.87,13.77,7.83,7.22,8.64,16.81,6.21,26.73-3.2,13.09,2.8,22.19,12.87,29.21A116.38,116.38,0,0,0,573,1700.9c18.94,9.07,39.34,10.25,59.84,10.5,20.92-.19,41.44-2.82,61.09-10.23C705.9,1696.65,716.55,1689.91,724.39,1679.52ZM670,1434.17a90.24,90.24,0,0,1-15.48,4.75c-13.64,3-26.26,8.56-38.56,14.95a70.24,70.24,0,0,0-21.43,17.7,40.77,40.77,0,0,0-6.66,11.63c-2.5,6.79-1.31,13.16,4.87,17.73,3.85,2.85,8,5.25,11.93,8,3.39,2.43,7.15,4.66,9.76,7.8,6.05,7.29,4.16,15.75-4.11,20.52-3.9,2.25-8.08,4-11.87,6.46-8.58,5.48-9.68,11.06-4.23,19.53a35.12,35.12,0,0,1,2.79,4.61c2.87,6.55.84,12.86-5.59,16a60.56,60.56,0,0,1-11.92,4c-6.42,1.61-12.34,4.06-14.09,11-1.88,7.49,2.51,12.75,8.2,16.66a130.48,130.48,0,0,0,14.15,7.84c3.73,1.92,7.7,3.4,11.4,5.37,10.52,5.61,16.09,14.1,15,26.41-1.18,13.34,3.23,24.55,14.46,32,5.66,3.75,12.41,5.93,18.78,8.51,3.25,1.32,6.77,2,10.17,2.91-.09.82-.19,1.63-.28,2.45-8,.61-16,2.05-23.92,1.65a384.76,384.76,0,0,1-39.37-4c-12.07-1.85-22.64-7.87-32.62-14.73-7-4.84-10.64-11.31-8.65-20.13.33-1.46.37-3,.68-4.45,3.15-15.1-3-26.59-14.72-35.17a214.32,214.32,0,0,0-24.6-15,72.87,72.87,0,0,1-24.29-21.12c-4-5.46-6.08-11.59-5.05-18.62,1.32-8.91,6.45-14.71,14.31-18.34,6.27-2.9,12.85-5.19,19-8.35a54.56,54.56,0,0,0,12.51-8.58c7-6.65,7.76-14.53,3-22.93a62.74,62.74,0,0,0-4.64-6.64c-5.15-6.78-6.24-14-3.18-22.08,5.84-15.36,16.29-25.7,32.25-30.19a85.71,85.71,0,0,1,8.76-2.08,53.38,53.38,0,0,0,22.9-10.05c3.87-2.86,7.56-6,11.36-8.91,14.21-11,30.11-17.36,48.27-17.46a36.44,36.44,0,0,1,22,6.82C678.06,1425.73,677.6,1431,670,1434.17Z"/><path class="cls-1" d="M641.23,490.45c-79.79.9-149.58,62.87-149.8,150-.21,81.48,67.31,149,148.91,148.91,82.38-.06,149.67-64.87,150.08-148.58C790.83,555,722.89,491.17,641.23,490.45ZM781.08,640.8c-2.94,58.15-29.8,100.75-82.53,126.59-4.57,2.24-8.87,2.38-13.85.78a236.67,236.67,0,0,1-51.53-23.66c-23.53-14.45-38.6-35.86-48.66-61-20.78-51.92-8.43-110.67,31.1-148,14.61-13.8,32-23.31,50.37-31.23,3.92-1.7,7.63-1.05,11.42.06,44.37,13,75.69,40.79,93.56,83.42C778.25,605.19,780.88,621.33,781.08,640.8Z"/><path class="cls-1" d="M1560.61,490.45c-81.62.7-149.61,64.5-149.22,150.29.38,83.67,67.63,148.53,150,148.61,81.6.09,149.13-67.4,149-148.87C1710.19,553.44,1640.49,491.38,1560.61,490.45Zm46.85,213.36c-12.12,20-27.91,36-49,46.63a297.6,297.6,0,0,1-41.4,17.74,17.19,17.19,0,0,1-13.85-.8c-53-26.06-79.89-69-82.26-117,.09-73.36,41-127.78,100.85-145.37,6.4-1.88,12.07-1.91,18.21,1,23.71,11.13,45.39,24.74,61.15,46.37A137.19,137.19,0,0,1,1607.46,703.81Z"/><path class="cls-1" d="M1538.39,1755.25a63,63,0,0,0-15.7-6.58,276.84,276.84,0,0,0-30.08-5.72c-16.09-2.11-32.27-3.47-48.4-5.29a63.87,63.87,0,0,1-10.58-2.17c-10.43-3.07-16.47-10.41-19.67-20.55-2.39-7.6-1.11-14.73,1.41-22,3.44-9.93.73-18.24-7.55-24.8a37.14,37.14,0,0,0-6.1-3.81,64.65,64.65,0,0,0-36.78-6.69c-12.23,1.24-24.4,3.12-36.54,5.06-8.61,1.38-15.89,5.28-21.08,12.64-5.71,8.08-5.36,18.22,1.14,25.7,2.14,2.46,4.38,4.84,6.7,7.39-2.1,6.37-6.4,9.28-10.2,12.68-14.58,13-13.44,33.91,2.79,44.74,5.16,3.44,11.15,5.8,17,8,4.18,1.55,8.79,1.94,13.2,2.86,9.36,1.94,17.82,5.34,23.54,13.65,4.84,7,5,10.73-.93,16.68-3.12,3.13-6.77,6.26-10.79,7.86a211.2,211.2,0,0,1-24.88,7.84c-6.39,1.65-13.07,2.13-19.52,3.57-16.18,3.6-24.55,14.79-23.71,31.3.07,1.5.25,3,.39,4.49.75,8.24-2,15.11-9.26,19.11-6,3.3-12.51,5.66-18.94,8-6.75,2.49-13.85,4.08-20.48,6.82-10.19,4.21-15.84,15.1-14.43,26.39,1.25,10,9.35,18,20.79,19.22,7.1.77,14.38.39,21.53-.11,23.49-1.62,45.44-8.25,65.57-20.67a39.27,39.27,0,0,0,16.26-19.85,92.78,92.78,0,0,0,3.33-10.29c2.11-8.1,7.11-13.28,15.34-14.62,8.58-1.39,17.24-2.76,25.9-3s17.41.88,26.12,1.33c12,.62,23.94,1.53,35.91-1.26,16.49-3.84,26.29-13.64,28.61-30.35.9-6.5,3.82-11.4,9.33-14.61a67.72,67.72,0,0,1,12.13-5.78c7.11-2.42,14.46-4.11,21.62-6.37,16.31-5.14,26.77-15.59,29.24-33C1552.3,1771.22,1549.14,1761.35,1538.39,1755.25Zm.3,35.27c-3.46,8.34-10.45,13-18.66,15.81-6.54,2.2-13.4,3.43-19.93,5.65-5.92,2-12,4.15-17.26,7.37a26.7,26.7,0,0,0-13.11,19.61c-.21,1.49-.78,2.92-1,4.4-1.4,10.59-8.3,16.25-17.67,19.52-9.87,3.44-20.06,3.06-30.33,2.36-18.55-1.27-37.14-3.78-55.63.73-2.33.57-4.68,1.08-7,1.69-10.75,2.81-18,9.12-20.72,20.27a76.51,76.51,0,0,1-3.06,9.41,29.51,29.51,0,0,1-11.61,14.53c-15.6,10.28-32.81,16.16-51.14,18.93-6.53,1-13.13,1.54-19.72,2a51.78,51.78,0,0,1-10.78-.35c-7-1-12.32-6.13-12.92-11.93-.65-6.34,3.2-13.61,9.35-16a185.71,185.71,0,0,1,19.74-6.17c9.13-2.41,17.61-5.86,24.85-12.14a25.78,25.78,0,0,0,9.42-19.69,58.86,58.86,0,0,0-.13-9c-1.56-12.4,5.85-20.06,18.31-22.35,4.43-.82,9-1,13.33-2.2,10.67-3,21.34-6.06,31.78-9.76,7.29-2.59,12.4-8.4,16.86-14.53,3.44-4.72,3.81-10.09,1.8-15.48-3.87-10.38-10.85-18-21.25-22a110.62,110.62,0,0,0-17.37-4.55c-8-1.61-15.77-3.73-22.42-8.82-10.45-8-11.2-20.33-1.79-29.53,3.42-3.34,7.07-6.52,10-10.25,4.94-6.28,4.64-11.76-.38-17.94-1.51-1.86-3.44-3.38-5-5.23-3.73-4.57-3.73-10.11-.26-14.92,4.2-5.82,10.42-8,17-9.17,10.62-1.89,21.31-3.45,32-5.14,11.71-.27,22.94,1,33.41,6.45,9.81,5.14,11.89,10.06,8.44,20.5-5.3,16.08-1.92,30.16,9.46,42.5,6.24,6.76,14.37,10,23.11,11.12,16.36,2.15,32.86,3.34,49.23,5.51,11.28,1.5,22.45,3.92,33.65,6.07a36.78,36.78,0,0,1,6.8,2.36C1543.14,1766.33,1544,1777.67,1538.69,1790.52Z"/><path class="cls-1" d="M969.41,1896.45c-6.61-2.82-13.59-4.77-20.41-7.06-4.83-1.63-10-2.64-14.46-4.88-12.66-6.32-15.91-12.55-14.66-25a44.94,44.94,0,0,0,.31-4.49c0-13.25-6.08-22.49-18.47-27a81.72,81.72,0,0,0-15.79-3.54,140.24,140.24,0,0,1-33-9c-5.45-2.26-9.64-5.9-13.49-10.25-3.34-3.77-3.34-7.67-1.1-11.63,3.32-5.84,7.52-11,14.15-13.29,5.09-1.74,10.41-2.82,15.58-4.37,6.88-2.07,13.93-3.79,20.49-6.63a29.53,29.53,0,0,0,13.74-11.33c7.73-12.47,5.66-26.72-5.29-36.8-3.68-3.39-7.12-7.06-11.48-11.41,3.33-3.73,5.53-6.13,7.67-8.58,6.8-7.78,7.12-18.13.86-26.43a28.48,28.48,0,0,0-17-11.13c-5.56-1.22-11.17-2.39-16.81-3.06-10.73-1.27-21.48-2.69-32.25-3.07a55.33,55.33,0,0,0-25.35,5.57c-16.17,7.5-20.17,16.21-15.16,33.11,5.63,19-4.23,36.17-23.52,40.5a137.21,137.21,0,0,1-17.84,2.61c-20,1.83-40.14,3.27-59.88,7.57-8.25,1.79-16.29,4-23.58,8.64-8.16,5.19-11.85,12.79-12,22a38.44,38.44,0,0,0,5.5,20.65c5.59,9.31,13.95,14.71,24,17.86,8.32,2.6,16.85,4.57,25,7.51,10.53,3.79,18.39,10.09,18.63,22.71C724,1854.35,729.2,1860,735,1865c10,8.56,22.28,10.12,34.75,10.11,9.31,0,18.64-.79,27.93-1.5a156.89,156.89,0,0,1,36.86,1.16c11.7,1.88,19.07,7,21.78,19.23,2.91,13.2,10.89,22.83,23,29.63,23.5,13.15,48.9,18,75.33,19a40.3,40.3,0,0,0,10.72-1.35c9.35-2.25,16.56-10.48,17.5-19.54C984,1911.16,978.53,1900.34,969.41,1896.45Zm4.16,24.61a13.94,13.94,0,0,1-13.4,11.33,202.71,202.71,0,0,1-28.71-1.49A128.62,128.62,0,0,1,883.9,1915c-9.19-5.12-15.38-12.3-18.23-22.39-.25-.87-.53-1.73-.7-2.62-2.62-13.55-11.58-20-24.41-23.3-15.76-4-31.6-3.2-47.51-2.42-8.69.43-17.38,1.34-26.07,1.34-8.14,0-16.14-1.44-23.22-6-5.83-3.79-9.85-8.73-10.65-15.89-2.06-18.15-13.69-27.17-30.16-31.57-7-1.86-14-3.38-20.84-5.71-12.32-4.22-20.31-12.27-21.65-25.94-.79-8,1.52-14.55,9-17.9a109.85,109.85,0,0,1,20.37-6.83c19.67-4.52,39.82-5.49,59.84-7.49a151.93,151.93,0,0,0,16.05-2.28c24.34-5.07,38.62-28.69,30.31-52.07-3.74-10.54-.75-18,10.44-22.88,10.16-4.48,20.8-5.71,31.88-5.28,10.66,1.71,21.35,3.24,32,5.19,5.63,1,11,2.84,15.1,7.41,5.2,5.84,5.84,12.39,0,17.54-12.66,11.22-7.91,20.25,2,29.43a4.89,4.89,0,0,0,.72.55c12.68,8.13,14.52,26.34-3.79,35.09-5.61,2.67-11.89,4-17.92,5.7-5.47,1.58-11.16,2.49-16.49,4.43-10.13,3.7-17,11.06-21.11,20.94-2.79,6.67-1.91,12.83,2.74,18.55a48.07,48.07,0,0,0,20.08,14.77c12.4,4.9,25.27,7.6,38.38,9.58a42.28,42.28,0,0,1,10.28,3c6.74,2.88,10,8.31,10.22,15.59a70.81,70.81,0,0,1-.24,8.11c-1.35,15,6.36,24.58,18.84,30.93,5,2.55,10.65,4,16,5.74,6.27,2.07,12.73,3.63,18.86,6C970.56,1906.92,974.56,1914.5,973.57,1921.06Z"/><path class="cls-1" d="M1105.07,300.19c-86.38-1.51-152.56,64.79-153.91,148.55-.23,76.77,58.64,147.75,145.88,150,88.13,2.29,150.33-68,153.1-143.57C1253.17,372.63,1188.76,301.66,1105.07,300.19Zm-4,289.13A140,140,0,0,1,960.68,448.81c.24-80.07,66.35-140.35,139.33-139.63,78.86.79,140.3,62.64,140.46,139.69C1240.65,529.52,1176,589,1101,589.32Z"/><path class="cls-1" d="M1868.24,1286.18c-18-.73-33.77,5.45-47.74,16.18-16.53,12.71-35.35,17.41-55.71,17.21-11.11-.12-22.22-.71-32.73-1.07-3.92,0-7.23-.17-10.53,0-14.21.84-28,3.28-41.14,9.23-17.3,7.85-24.27,32.56-5.44,47.46a55.79,55.79,0,0,0,11.38,7.21c11.11,5,20.67,12.28,30,19.85,10.19,8.25,11.08,20.92,2.68,31a60.54,60.54,0,0,0-6.26,8.77c-10.2,17.85-2.82,39.67,19.71,43.38A82.16,82.16,0,0,1,1748,1490c12.59,4.76,13.81,8,8,20-4.7,9.69-1.52,23.63,7.27,29.09,11.49,7.14,23.83,9.17,35.64,1.26,7.16-4.79,14.19-10.46,19.55-17.12,11.17-13.87,17-29.86,12.64-48-2.37-9.91-5.34-19.71-8.5-29.41-3.53-10.84-7.84-21.43-11.31-32.3-2.41-7.52.07-14.17,5.36-19.9,6.29-6.8,13.58-11.9,22.86-13.55,5.3-.94,10.66-1.73,16-2.21,13.26-1.17,26.28-3.26,38.37-9.18,8.26-4,15.74-9.22,19-18.28a79,79,0,0,0,3.4-14.89c1.52-10-.89-19.07-6.71-27.32C1899.5,1293.87,1885.52,1286.88,1868.24,1286.18Zm38.45,52.34c-2.43,11.33-8.44,18.07-18.42,22.49-8.9,4-18.23,5.86-27.87,6.84-7.46.75-14.87,1.91-22.3,3a45,45,0,0,0-23.33,11.09c-9.6,8.33-14.68,19-12.42,32a103.77,103.77,0,0,0,5,17.23c5.09,14.12,10.92,27.93,14.2,42.7,4.18,18.77-1.26,34.37-14.14,47.86-5.19,5.44-10.57,11-18.47,12.18-4.66.67-9.65,1.1-14.18.16-10.51-2.16-14.49-11.73-9.91-21.51,1.74-3.72,3.72-7.79,3.79-11.74.16-8.33-4.68-14.28-12.17-17.34-7.19-2.93-14.63-6-22.23-7-15.77-2-20.11-18.75-13.49-29.5,1.72-2.79,3.47-5.77,5.88-7.91,12.24-10.88,8-34.88-2.57-43-9.77-7.5-19.25-15.37-30.55-20.66a61.29,61.29,0,0,1-12.28-7.42c-11.15-8.91-10.08-23.23,2.13-30.69,7.57-4.63,16.08-6.63,24.74-7.85,6.23-.88,12.55-1.15,18.83-1.69,0,.22,0,.44,0,.66,13.51.35,27,1.18,40.54.94,22.1-.38,42.58-5.71,60.22-20.26,5.88-4.84,13.31-8.08,20.44-11.08,13.37-5.64,26.94-3.13,39.42,2.43S1910.4,1321.23,1906.69,1338.52Z"/><path class="cls-1" d="M492.2,1450a54.88,54.88,0,0,0-9.17-16.32c-8.5-10.79-7.85-23.16,2.72-31.68,9.6-7.75,19.46-15.12,30.89-20.16a51.34,51.34,0,0,0,9.09-5.79c20.44-14.77,13.16-41.24-5.48-48.87a120.19,120.19,0,0,0-47.57-8.75c-12,.13-24,1-36.05,1.12-20,.11-38.62-4.4-54.89-16.93-13.17-10.14-28-16.32-45.64-16.56-16.08.15-29.88,6-41.52,18.69-14.84,16.26-13.18,54,14.48,64.55A132.2,132.2,0,0,0,349.4,1378c14.33.81,27.1,5.17,36.65,16.62,4.28,5.13,6.44,10.93,4.81,17.57-1.29,5.24-2.9,10.41-4.68,15.5-4.08,11.63-9,23-12.33,34.84-2.48,8.87-4.65,18.41-4,27.44,1.67,23.48,15.34,39.88,34.93,51.58,3.72,2.22,8.5,3.07,12.91,3.66,11.44,1.56,24.48-6.58,28.7-17.26,2.73-6.92,2.1-13.33-1.55-19.87-4.71-8.44-2.85-13.12,6-17a20.88,20.88,0,0,1,2.53-1q9.93-2.85,19.87-5.64C488.87,1480,497.25,1465.49,492.2,1450Zm-23.15,26a220.36,220.36,0,0,0-22.29,6.94c-13.05,5-17,15.92-10.67,28.29s.8,22.42-12.83,23.66a29.2,29.2,0,0,1-21.82-6.59,65.42,65.42,0,0,1-18-22.2c-3.12-6.34-4.95-12.88-4.58-20,.27-10.63,3.07-20.76,6.54-30.7,2.86-8.22,6.19-16.29,9.18-24.47a115.68,115.68,0,0,0,4.46-13.69c3.43-14.79-2.55-28.93-15-37.72-9.42-6.65-20-9.36-31.17-10.76-8-1-16.19-1.45-24.12-3a75.68,75.68,0,0,1-17-5.71c-12.85-6-18.53-16.74-17.33-31.66,1.07-13.29,12.29-26.07,25.05-30.08,21.6-6.79,40.36-1.66,57,12.59,9,7.66,19.54,11.51,30.53,14.82,15.56,4.69,31.48,4.06,47.41,3.45,12-.46,23.92-1.8,35.95-.13,10.5,1.45,20.86,3.29,29.74,9.46,10.25,7.11,11,20.39,1.68,28.58a36,36,0,0,1-8.9,6.05c-11.68,5.15-21.73,12.73-31.93,20.19-11.26,8.25-14.5,19.71-12.71,32.62.6,4.4,4.14,8.46,6.57,12.53s5.9,7.71,7.66,12C487.25,1462.35,481.41,1472.7,469.05,1476Z"/><path class="cls-1" d="M1101.63,142.13a7.09,7.09,0,0,0-6.91,7.71,6.17,6.17,0,0,0,6.71,5.73c3.64-.31,6.81-3.71,6.68-7.18A6.91,6.91,0,0,0,1101.63,142.13Z"/><path class="cls-1" d="M1016.8,1189.27c-.19,3.88-1.24,7.71-1.79,11.57-1.5,10.43.79,19.54,8.44,27.3a67.27,67.27,0,0,0,24,15.6c3.09,1.2,6.09,2.37,8.54,4.84a133.69,133.69,0,0,0,20.77,17.2,92.5,92.5,0,0,0,18.32,9.53c3.93,1.51,7.93,2.89,11.69,4.73,7.34,3.59,15,4.12,22.9,3.13a99.16,99.16,0,0,1,11.64-1.09,23.6,23.6,0,0,0,15.69-6,59.52,59.52,0,0,1,12.71-8.47,84.78,84.78,0,0,0,9.35-5.46c6.24-4.16,10.32-9.39,11.39-17.41a149.38,149.38,0,0,0,1.1-28.8c-.57-9.63-2.23-19.27-6.27-28-4.23-9.2-4.65-18.29-3.2-28.13,2.12-14.46,2-28.86-6.32-41.9a82.46,82.46,0,0,1-5.11-9.55,21.47,21.47,0,0,1-2.28-6.75c-1.28-12.69-5-24.7-9.38-36.59-4.55-12.24-10.3-23.65-19.49-33.18-4.58-4.75-8.81-9.87-13-15-4-4.91-7.67-10-11.37-15.13-4.06-5.59-7.74-11.46-12-16.86-6.37-8-12.91-15.85-16.71-25.56-1.08-2.75-2.46-5.56-6.4-6.9a10.12,10.12,0,0,0-2.58,1.31,8.09,8.09,0,0,0-2.06,2.89c-5.08,14.26-12.52,27.28-20.37,40.15-3.63,5.94-7.18,11.8-12.26,16.62a199.65,199.65,0,0,0-28.48,33.71,23.93,23.93,0,0,0-4.58,14.25c.14,9.63-.16,19.27,0,28.89a193.84,193.84,0,0,1-2.83,35.9c-1.81,11-1.63,21.89,3.86,32.51C1015.65,1168,1017.31,1178.59,1016.8,1189.27Zm38.67,14.39a58,58,0,0,0-4.37,22.88c.05,2.27-.74,4.56-1.24,7.4-2.07-.4-3.6-.38-4.83-1a47.88,47.88,0,0,1-16.72-13.41c-4.14-5.21-5.53-10.75-4.16-16.84,1.67-7.46,1.47-14.94,1.62-22.45.12-5.45-.12-10.83-2.19-16-2-4.87-.72-9.09,1.71-13.69,4.67-8.84,10.77-16.68,16.33-24.87a84.59,84.59,0,0,0,14.78-39.27,27.83,27.83,0,0,1,1.19-3.86c2,1,3.47,1.42,4.39,2.38,7.77,8.18,14,17.27,16.39,28.56.42,2,.94,4.3.39,6.17-2.81,9.5-5.94,18.91-9,28.34a28.38,28.38,0,0,1-6.28,10.84,23.43,23.43,0,0,0-6.6,18.11c.23,3.6-.31,7.32.4,10.8C1058.45,1193.4,1057.48,1198.54,1055.47,1203.66Zm46,46.09c1.34,5.18,2.49,10.42,4,16.79-2.49.17-3.69.53-4.74.27a27.65,27.65,0,0,1-6.8-2.29c-10.45-5.88-20.7-12.07-29.44-20.44a14.4,14.4,0,0,1-4.58-11.26c.08-8.47.67-16.8,4.06-24.71a36.07,36.07,0,0,0,2.28-22c-1.6-7.88-.54-15.4,5-22,5.66-6.83,8.64-15,10.32-23.72.44-2.29.35-4.81,3-6.85a35.77,35.77,0,0,1,3.18,2.7c1.83,2,3.44,4.18,5.31,6.12a61.79,61.79,0,0,1,11.22,16.23c2.09,4.32,4.3,8.59,6.49,12.87a17.23,17.23,0,0,1,1.39,12.21c-3.7,16.08-7.13,32.21-10.78,48.3A37.17,37.17,0,0,0,1101.42,1249.75Zm23.35,11c-.81,1.56-1.83,3-2.84,4.64-4.72,0-6.28-2.55-7.46-5.36-3.69-8.74-5.4-17.88-3.54-27.25,2.57-12.92,5.64-25.75,8.57-38.6a12.1,12.1,0,0,1,1.5-2.82c1,.31,1.86.3,2.07.66,6.16,10.68,11.33,21.76,13.88,33.94a17.24,17.24,0,0,1-.37,8.85c-2.08,6.86-3.67,13.88-8.67,19.53C1126.39,1256.05,1125.88,1258.63,1124.77,1260.75Zm54.07-53.93c1.34,1.34,2.77,2.12,3.07,3.21a36.24,36.24,0,0,1,1.15,8,124.35,124.35,0,0,1-1.41,24.21,16.62,16.62,0,0,1-7.36,11.78c-1.24.84-2.53,1.62-3.83,2.36a207.29,207.29,0,0,0-20.51,12.94c-6.24,4.56-11.38,4.87-20.37,2.2,3.05-7,4.84-13.68,9.7-18.88,2.8-3,3.64-6.85,4.39-10.69,1.1-5.56,4.2-9.05,9.77-10.51,10.23-2.68,17.43-9,21.71-18.66A51.69,51.69,0,0,1,1178.84,1206.82Zm-60.58-177.41c.13-1.38.92-2.69,1.69-4.76,1.91,1,2.88,1.24,3.43,1.84,11,12,21.07,24.71,26.2,40.57,1.39,4.29,3.22,8.46,4.33,12.82a188.58,188.58,0,0,1,4,19.37c.66,4.54,1.6,8.8,3.89,12.82,2.52,4.44,4.7,9.08,7.14,13.57,5,9.11,5.83,18.79,4.45,28.89-.66,4.75-1,9.56-1.24,14.35-.33,6.34-.16,12.65,2.58,18.59,1.52,3.28,1,6.43-.72,9.5-3.07,5.52-6,11.11-9.18,16.58-3.92,6.81-10.22,9.58-18.15,10.77-1.16-2.64-2.44-4.68-3-6.91a69.91,69.91,0,0,0-7.54-18.28,64.49,64.49,0,0,1-3.83-8.16,47.16,47.16,0,0,0-7.41-13.33,35.46,35.46,0,0,1-4-7,10.63,10.63,0,0,1-.83-7c2.79-14.76,5.77-29.49,8-44.33,1.85-12.18,3.24-24.46,2.42-36.85-.5-7.54-1.72-14.89-5-21.82-1.94-4.06-3.52-8.31-5.07-12.54A42,42,0,0,1,1118.26,1029.41ZM1055,1050c1.67-8.66,1.6-17.38,1.31-26.08a39.72,39.72,0,0,1,5.63-21.53c1.94-3.39,4.09-6.67,5.93-10.12,3-5.56,5.75-11.21,8.62-16.82.8-1.56,1.62-3.11,2.63-5,1.63.75,2.35.85,2.65,1.26,7.51,10.14,15.14,20.2,22.4,30.51,3.53,5,4.61,11.09,4.87,17.15.23,5.11.24,10.24,0,15.35a42.72,42.72,0,0,0,4.61,21.8,73.53,73.53,0,0,1,7.53,24.89,28.26,28.26,0,0,1,.47,5.39c-.86,10.46-1.59,21-2.89,31.37-1.08,8.64-2.85,17.19-4.42,25.76a31.51,31.51,0,0,1-1.6,4.72c-1.15-.13-2,0-2.24-.29-5.45-6.39-10.91-12.78-16.22-19.3a28.15,28.15,0,0,1-5.67-13c-2.06-10.66-5.59-20.75-13.06-29.28-5.55-6.35-10.87-12.85-17.58-18a8.14,8.14,0,0,1-3.41-7C1054.6,1057.8,1054.25,1053.8,1055,1050Zm-39.75,80.55c4.1-19,3.75-38.21,3-57.36-.48-12,1.78-22.42,9.92-31.47,4.4-4.9,8.24-10.29,12.48-15.32,1.08-1.29,2.75-2.09,4.82-3.6,2.94,5.42,2.18,10,1.78,14.33-.74,8.06-1.84,16.08-2.75,24.12-.41,3.61-.4,7.19,1.13,10.61,2.83,6.31,2.3,12.84,1.45,19.45-1.18,9.15-4.85,17.31-9.81,24.91-5.73,8.78-11.68,17.42-17.6,26.09-.46.67-1.39,1-2.52,1.83-.7-1-1.79-1.91-1.85-2.84C1015,1137.72,1014.49,1134,1015.23,1130.55Z"/><path class="cls-1" d="M1100,0C492.49,0,0,492.49,0,1100S492.49,2200,1100,2200s1100-492.49,1100-1100S1707.51,0,1100,0ZM94.27,675.14a1091.39,1091.39,0,0,1,2097.2,420.77c-2.13-.09-4.27-.06-6.41-.06-28.28-.1-60.57-.18-88.85-.31-3.23,0-6.46-.3-9.9-.47-.21-2.83-.48-4.9-.48-7q-.15-46.51-4.93-92.77a893.49,893.49,0,0,0-15.42-98,976.68,976.68,0,0,0-96-259.71c-63.62-117.68-146.92-219-251.63-302.52-93.1-74.24-196.38-128.78-311.39-160.56a731.49,731.49,0,0,0-157.18-25.84c-27.94-1.45-55.92-1.75-83.86.63-3.39.29-6.82,0-11.56,0,8.38-5.75,17-7.42,25.06-10.27,13.59-4.79,27.22-9.45,40.77-14.34,5.56-2,9.64-6.14,13-10.82,2.49-3.47,1.37-6.13-2.87-7.36a69.12,69.12,0,0,0-7.95-1.62c-35.11-5.8-70.52-8-106.05-8.26-82.25-.65-163.22,9.73-243,29.18-87.47,21.31-171.35,52.3-250.89,94.59C574.11,246,527.81,273.7,486,308.69c-47.65,39.9-92.54,82.49-133.18,129.47C293.28,507,242.94,582,202.94,663.81c-65.19,133.34-100.17,274-101.94,422.67,0,2.63-.28,5.27-.47,8.65-5.2.21-9.94.55-14.68.58-22.57.1-51.13.1-73.7.19-1.2,0-2.42,0-3.62.09A1099,1099,0,0,1,30.68,880,1086,1086,0,0,1,94.27,675.14Zm1965.74,539c5.55,9.28,12.11,17.94,17.76,27.17a63.07,63.07,0,0,1,7.14,15.44c4,14.06-1,26.47-13.15,34.43-7.3,4.77-14.87,9.14-22.09,14-17.15,11.54-23.23,27.67-19.16,47.76,1.07,5.31,2.22,10.6,3.5,15.86,5.69,23.41-.93,42.73-19.3,58.11-6.08,5.08-11.48,10.56-14.38,18.16-2.66,7-3.56,13.93-1.48,21.19,1.58,5.49,3.13,11,4.57,16.52,3.8,14.49,1.35,27.94-9.7,38.15-10.11,9.34-21.77,17-32.44,25.75a105.71,105.71,0,0,0-15.42,15c-7.29,9.06-9.75,19.91-8.36,31.43.9,7.44,2.24,14.85,3.72,22.21,4.9,24.2-2.82,39.21-25.58,49.17-9.92,4.33-20,8.32-29.8,12.88a107.45,107.45,0,0,0-15.62,9c-9.46,6.51-16.28,15.11-18.75,26.63q-1.89,8.82-3.57,17.68c-3.93,20.75-16.61,34.84-34.24,45.21-9.21,5.41-19.45,7.89-29.66,10.45-11.39,2.86-22.54,6.15-33,11.79-8.37,4.5-14.58,10.77-18.25,19.23-3.09,7.12-5.19,14.69-7.51,22.13-1.51,4.87-2.41,9.94-4,14.79-4.9,15.16-15.32,24.86-30.35,29.65-11.85,3.77-24.15,4.77-36.48,5.37-2.1.11-4.21.08-6.32.15-22.46.75-39.83,10.14-51.2,29.94-3.45,6-7.32,11.74-11,17.62-10.06,16.19-24.11,27.21-42,33.83a160.66,160.66,0,0,1-43.08,9.11c-17.68,1.44-35.3,3.56-52.94,5.37-17.91,1.84-30.81,11.07-39.27,26.73-2.86,5.29-5.63,10.64-8.13,16.11-5,11-13.93,17-25.3,19.86a106.9,106.9,0,0,1-39.39,2.59c-11.64-1.43-23.3-2.76-35-4.07-23.65-2.67-44.6,3.74-63.22,18.47-5.65,4.47-11.75,8.39-17.76,12.38-16,10.64-33.89,16.81-52.48,21-23.54,5.33-47.32,8.53-71.55,7.9-30.91-.8-61-5.95-90-16.64-12.5-4.61-23.72-11.67-34.54-19.36-5.88-4.18-11.74-8.41-17.76-12.38-11.87-7.82-25-12.15-39.19-11.58-13.2.52-26.43,1.51-39.52,3.24-16,2.12-31.73,2.56-47.48-1.38-11.72-2.93-20.92-8.85-26.08-20.21-2.23-4.93-4.78-9.71-7.25-14.53-8.27-16.14-21.12-26.11-39.34-28.08-17.62-1.9-35.29-3.43-53-4.7-13.8-1-27.67-1.08-41.21-4.49-12.31-3.1-24.21-7.34-35-14.16-9.79-6.21-17.49-14.63-23.68-24.42-3.69-5.85-7.58-11.59-11-17.61-11.78-20.94-30.06-30-53.57-30.74a233.78,233.78,0,0,1-34-3.66c-20.22-3.67-33.32-15.72-38.67-35.78-.85-3.2-1.54-6.44-2.32-9.65-.85-3.51-1.64-7-2.59-10.51-4.93-18.18-16.09-30.73-34.11-36.56-11.71-3.8-23.65-6.89-35.47-10.35-16.4-4.81-29.83-13.84-40.09-27.66a57.77,57.77,0,0,1-10.11-22,74.3,74.3,0,0,1-1.9-9.73c-1.91-21.81-14.4-35.72-33.38-44.6-10.34-4.84-21-9-31.41-13.69a86.25,86.25,0,0,1-13.32-7.49c-12-8.31-16.88-20-14.8-34.41,1.28-8.92,2.91-17.79,4.34-26.68,3.39-21.13-5.55-36.72-21.95-49-10.58-7.93-21.2-15.82-31.56-24a34.52,34.52,0,0,1-12.17-19.55c-1.73-7.18-2.14-14.2.19-21.33,1.58-4.86,2.75-9.85,4.16-14.76,4-13.8,0-25.5-9.63-35.55-5-5.19-10.69-9.74-15.33-15.21-11.1-13.07-13.77-28.38-10.51-44.92,1.16-5.9,2.57-11.75,3.83-17.63,4.79-22.2-1.44-37.72-20.43-50.46-6.24-4.18-12.53-8.33-19.1-12-13.83-7.68-20.43-25.16-12.37-41.44,3.71-7.5,8.76-14.33,13-21.58,4.7-8,9.59-16,13.63-24.31,3.94-8.14,3.9-17.08,1.58-25.64a141.86,141.86,0,0,0-8.24-22.82c-6.78-14.58-12-29.5-13.33-45.62-.12-1.47-.1-3.35-.1-5.41,8-.66,15.63-.46,23.27-.66s15.05,0,22.57,0h23.85c.62,3.39,1.44,6,1.53,8.58.68,21,8.95,39,21.16,55.59,3.39,4.6,6.94,9.11,10,13.9,8.36,13,9.35,26.39,1.69,40.08-3.95,7.08-8.31,14-11.9,21.23a38,38,0,0,0-2.78,27.2c1.58,6.12,5.32,10.79,9.42,15.14a155.1,155.1,0,0,0,13.92,12.82c10.43,8.67,16.08,19.44,14.52,33.16a45.17,45.17,0,0,1-3.69,12.81c-4.39,9.94-8.41,19.82-9.62,30.83-2,17.76,6.27,32.87,22.43,40.28,8.73,4,17.27,8.48,25.81,12.91a49.09,49.09,0,0,1,7.47,5c13.22,10.32,16.42,21.65,10.35,37.44-2.8,7.29-6,14.42-9.16,21.58-8.79,20.13-2.59,41.1,16,52.75,4.79,3,10.24,5,15.46,7.23,6.06,2.64,12.43,4.65,18.23,7.73,7.87,4.19,12,10.87,10.23,20.15-.83,4.41-1.75,8.83-3,13.14-6.2,21.44,3.06,42.23,23.44,51.7,4.6,2.14,9.64,3.33,14.46,5,7.39,2.53,15,4.6,22.1,7.74,13.45,5.94,19.23,16.55,17.87,31.2-.14,1.49-.42,3-.53,4.47-1.77,23.23,7.21,39.6,28.61,49.2,10.06,4.51,21,7.15,31.73,10,11.3,3,22.71,5.21,33.12,11.24,11.91,6.9,16.87,16.51,15.17,30a85.79,85.79,0,0,0-.78,12.6c.32,14.4,7,25.31,19.12,32.79,11.72,7.24,24.75,10.85,38.34,12.36,9.26,1,18.6,1.38,27.85,2.47a205.85,205.85,0,0,1,23,3.8c18,4.21,29.24,15.67,34.45,33.28.77,2.59,1.87,5.07,2.83,7.6,7.24,19,21.11,29.87,40.89,34.25,25.8,5.72,51.93,6,78.1,5.93a153.6,153.6,0,0,1,29.52,3.13c16.47,3.13,28,13,36.89,26.65.82,1.26,1.43,2.65,2.17,4,10.67,18.63,25.66,31.48,57.44,28.15,7.77-.82,15.51-1.92,23.23-3.11,18.72-2.91,37.27-1.37,55.54,2.8,6.61,1.51,13.05,4.7,19,8.16,17.55,10.27,36.26,17.42,55.82,22.63,27.74,7.4,54.81,4.47,81.57-4.81a208.62,208.62,0,0,0,38.55-17.45c19.73-11.71,41.53-13.51,63.66-12.35,12.27.64,24.45,2.94,36.68,4.51,11.35,1.45,22.18-.69,32.54-5.2,10.74-4.67,17.61-13.53,23.05-23.37,10.37-18.71,25.67-29.32,47.1-32.12,16.53-2.15,33-1.37,49.54-1.76a257.21,257.21,0,0,0,54.48-6.91c16.93-4.09,28.61-14.7,35.61-30.53a45,45,0,0,0,3.44-9.29c2.14-11,9-18.91,17-25.94a31.13,31.13,0,0,1,9.24-5.39,102.64,102.64,0,0,1,30.69-6.72c12.29-.8,24.58-2,36.78-3.68a79.55,79.55,0,0,0,28-9.71c15.16-8.45,22.37-21.3,21.47-38.63-.2-3.9-.74-7.79-1-11.69-.58-10.47,3.35-18.38,12.28-24.4,10.81-7.28,23-10,35.29-13,9-2.24,18.1-4.54,26.86-7.62a63.11,63.11,0,0,0,15-8.11c14.08-9.92,21.41-23.29,19.56-40.94-.28-2.69-.5-5.39-.8-8.08-1.46-13.25,4.39-22.76,15.55-29.07,4.39-2.48,9.4-3.93,14.24-5.49,7.43-2.38,15-4.31,22.44-6.69,14.36-4.61,22.66-15.44,28-28.7,3.3-8.13,1.87-16.55-.49-24.81-1.23-4.32-2.17-8.73-3-13.15-1.74-9.28,2.38-16,10.24-20.13,5.81-3.09,12.21-5,18.23-7.75s12.25-5.14,17.67-8.78c16.3-11,22.08-31.43,14.53-49.54-2.66-6.38-5.76-12.6-8-19.11a106.36,106.36,0,0,1-4.07-16.48c-1.57-8.8,1.84-15.89,8.41-21.63,10.58-9.25,23.39-14.61,35.75-20.8a65.14,65.14,0,0,0,13.4-8.83c9.45-8.2,11.62-19.22,10.79-31.15-.79-11.32-5-21.55-9.68-31.72a43,43,0,0,1-3.68-12.82c-1.56-13.72,4.15-24.41,14.5-33.17a175.72,175.72,0,0,0,16.24-15.58c10.06-11,10.44-23.82,5.37-37.08-1.81-4.74-4.58-9.12-7-13.6-1.14-2.11-2.63-4-3.83-6.12-10.81-18.76-9.39-32.84,3.71-50,7.08-9.29,13.2-19.36,19.17-29.43,4.66-7.85,6.4-16.81,7.56-25.82.68-5.31,1.38-10.63,2.14-16.39h52c1.63,6.09.87,12.11-.7,17.76-2.49,9-5.65,17.73-9,26.42-2.89,7.58-6.73,14.8-9.51,22.41C2050.51,1186.32,2052,1200.72,2060,1214.11Zm-921.71-1055c10.91,6.35,22,12.41,32.61,19.25,8.06,5.2,15.48,11.4,23.13,17.24a63.5,63.5,0,0,1,5,5c-5.72-1-9.71-1.8-13.74-2.31-17.59-2.21-35.14-5.27-52.8-6.26-25.21-1.41-50.52-1.84-75.77-1.65-33.14.25-66,3.88-98.74,9.25C918.33,206.11,880,217.5,842,230.06a1009.47,1009.47,0,0,0-277.6,142.1A954.11,954.11,0,0,0,377.63,550.45,911.27,911.27,0,0,0,258.16,746.37a875.81,875.81,0,0,0-76.73,339.17c-.06,2.41-.17,4.81-.35,7.21A8.71,8.71,0,0,1,180,1095H110.69c0-11.88-.52-23.25.11-34.55,1.13-20.11,2.69-40.19,4.54-60.24,4.1-44.39,12-88.16,22.58-131.43a984.79,984.79,0,0,1,73.22-201.3,1038.19,1038.19,0,0,1,105.21-170.1A1092.65,1092.65,0,0,1,422.61,377c24.52-24,49.6-47.46,76.7-68.53,29.72-23.1,61.39-43.43,94.09-62.07,102.77-58.58,212.33-98.9,328.34-121.82a1003.15,1003.15,0,0,1,126.88-16.84,910.42,910.42,0,0,1,110.93-.69c18.29,1,36.5,3.56,54.73,5.48,1.38.15,2.71.85,5.88,1.89-4.23,1.87-6.76,3.22-9.44,4.13-15.63,5.31-31.41,10.22-46.92,15.87-8.16,3-15.88,7.15-23.76,10.85a13.62,13.62,0,0,0-3,2C1131.7,151.91,1132.11,155.46,1138.3,159.07Zm843.61,1071.15c3.42,6,7.14,11.88,10,18.13,5.28,11.49,4.09,22.29-5.14,31.49-4.47,4.46-9,8.84-13.94,12.83-17,13.85-22.12,38-12.15,57.07,4.76,9.11,8.28,18.64,8.61,29.18.44,14.18-5.11,23.23-18,29.29-8.71,4.09-17.42,8.26-25.71,13.1a76.47,76.47,0,0,0-15.73,12c-10,10.12-12.08,22.82-8.14,36,2.74,9.15,7.47,17.68,11,26.6,1.54,3.85,3,7.91,3.42,12,1.77,19.12-9.27,29.11-23.82,35.09-6.11,2.51-12.4,4.59-18.53,7.07a39.27,39.27,0,0,0-15.32,10.84,24.46,24.46,0,0,0-5.94,20.1,74.75,74.75,0,0,0,3.37,14.91c7.31,20.43-7.22,39.39-22.62,43.88-6.92,2-13.84,4.07-20.84,5.78-10.46,2.54-19.94,6.77-27.31,14.87-7.05,7.74-10.35,16.75-9,27.32a83.74,83.74,0,0,1,.6,9.89c.13,18.82-7.88,31.34-25.42,38.46-7.48,3-15.42,5-23.25,7.14-7.25,2-14.65,3.35-22,5.18-10.69,2.68-20,8-28.44,15-6.14,5.12-9.54,11.6-9.27,19.68a140.53,140.53,0,0,0,1.23,16.16c2.15,14.22-3.36,26.49-15.8,33.55a73.41,73.41,0,0,1-28,9.53c-12.55,1.42-25.13,2.76-37.73,3.47a93.57,93.57,0,0,0-33.17,7.81c-12.88,5.76-21.31,16.33-27,29.07-1.58,3.56-2.56,7.38-3.79,11.08-5.22,15.74-15.62,25.73-31.76,30.37-16.39,4.71-33.07,6.13-49.93,6.48-11.13.22-22.29-.41-33.4.13a194.46,194.46,0,0,0-28.6,3.28c-18.77,3.77-32.4,15-42.18,31.23-3.1,5.14-6.53,10.08-9.76,15.15-3.59,5.65-8.88,8.92-15.16,10.61-7.89,2.13-15.89,3.33-24.1,2.09-8-1.21-16.09-2.28-24.12-3.54a149.79,149.79,0,0,0-59.12,2.9c-7.76,1.89-15.31,5.5-22.31,9.48a215.67,215.67,0,0,1-60.41,23.14,102.9,102.9,0,0,1-44.73,0,211,211,0,0,1-61.15-23.66c-20.52-11.93-43.22-14.27-66.32-13.13-11.68.57-23.31,2.55-34.9,4.32a67.38,67.38,0,0,1-23.32-.47c-8.61-1.66-15.91-5.32-20.64-13.15-2.17-3.6-5-6.85-6.94-10.53-11.41-21.12-28.8-32.9-52.74-36.19-17.45-2.39-34.84-1.14-52.25-1.64-16.55-.48-32.94-1.7-49.09-6-17.58-4.66-29.18-15.05-34-32.59a60.73,60.73,0,0,0-19.21-30.94,48.84,48.84,0,0,0-12.79-8.1,97.7,97.7,0,0,0-32.37-7.29c-12.3-.68-24.58-2-36.83-3.41a73.81,73.81,0,0,1-28-9.5c-12.46-7-18-19.33-15.9-33.5a140.91,140.91,0,0,0,1.2-17.06c.2-7.4-3-13.41-8.48-18.2a70.37,70.37,0,0,0-29.09-15.69c-11.66-3-23.39-5.62-35-8.64-9.76-2.53-18.55-6.91-25.75-14.22-6.43-6.51-10.33-14-9.93-23.34.19-4.5-.08-9.06.5-13.51,1.94-14.73-4.12-25.72-15.6-34.21-7.63-5.65-16.65-8.22-25.58-10.92-4-1.21-8.07-2.42-12.17-3.36-12.29-2.83-19.61-11.32-24.59-22.06-3.18-6.85-2.05-14.14-.2-21.25,1.06-4.07,2.22-8.11,3.11-12.22,3.3-15.15-3.79-25.41-15-31.66-6.26-3.49-13.23-5.71-19.85-8.54-3.86-1.65-7.76-3.23-11.49-5.12-17-8.6-20.8-28.92-13.53-43.4,4.31-8.57,8.45-17.38,11.23-26.52,4-13.17,1.91-25.84-8-36.05A71,71,0,0,0,279,1421.8c-8.28-4.86-17-9.1-25.68-13.15-14.32-6.63-19.8-15.73-18.89-31.38a62.87,62.87,0,0,1,8.07-26.57c10.93-20,5-45.22-12.95-59.14a126.94,126.94,0,0,1-13.79-13c-8.22-8.63-8.84-18.7-4.48-29.28a121.64,121.64,0,0,1,6.15-12c1.88-3.42,4.09-6.67,5.95-10.1,9.31-17.28,8.08-34.13-2.56-50.34-5.77-8.8-12.24-17.14-17.9-26-8.68-13.59-11.43-28.75-11.11-45.65,18.38-1.18,36.31-.31,54.22-.47s36,0,54.49,0c1,5,1.84,9.32,2.8,13.63,3.88,17.31,14,29.58,29.95,37.25,3.76,1.81,7.69,3.66,10.79,6.35,6.08,5.29,6.26,11.27,1,17.4-1.94,2.26-4.46,4-6.61,6.1-8.31,8.07-7.51,18.11,2.33,24.19a90.34,90.34,0,0,0,15.47,7.29c9.69,3.68,16.13,10.16,19.11,20.12,3.59,12,11.59,20,22.52,25.7,18.57,9.62,38.4,11.57,58.76,9.65a87.54,87.54,0,0,0,19.34-4.32,55.61,55.61,0,0,0,15.22-7.54c7.75-5.67,9.05-13.89,4.63-22.37-.41-.8-1-1.51-1.4-2.31-2.55-5.11-1.94-7.85,3.46-9.95a48.82,48.82,0,0,1,14-3.08c11.69-.84,23.43-1.56,35.15-1.47,10.12.09,18.91-3.17,27.16-8.38,13.16-8.3,17.63-25.37,2.22-38.61-2.28-1.95-5-3.37-7.3-5.3-5.91-5-7.17-12.35-2.51-18.49a36.87,36.87,0,0,1,10.47-9.69c12.93-7.47,20.89-17.85,21.81-33.08,0-.55.47-1.07,1.14-2.53,2.71-.14,5.9-.44,9.1-.44q156.2,0,312.4,0H923q0,28.19-.07,56.38c-1.3-.1-2.68,0-4,0-28.89.15-57.78.22-86.67.54-22.57.24-45.13,1.19-67.69,1.1-24.68-.09-49.29.38-73.67,4.49-12.15,2.05-24.24,4.46-35.32,10.37-17.45,9.32-22.1,25.83-11.79,42.5,1.11,1.79,2.48,3.44,3.41,5.31,2.72,5.46,1.76,10-3.2,13.44a30.08,30.08,0,0,1-8.16,3.68c-4.59,1.42-9.34,2.3-14,3.64-16.6,4.81-29.71,14-38,29.61-8.13,15.17-5.62,35,7.26,46.24a107.47,107.47,0,0,0,22.3,15.09c10.76,5.38,22.26,8.65,34.77,8,14.4-.77,28.86-.61,43.29-.64,21.11,0,42,1.81,62.5,7.25a46.08,46.08,0,0,1,21.5,12.66c11.88,12.19,11.34,32.36.79,41.53a27.33,27.33,0,0,0-4.08,4.81c-6.09,8.52-7.4,17.47-2.7,27.17,5.18,10.71,13.63,17.4,24.79,20.82,12.35,3.8,24.84,7.18,37.12,11.17,9.21,3,17.78,7.42,24.8,14.31,8.35,8.21,12.78,20.93,5.19,33.73-2.15,3.61-4.7,7-6.72,10.68-6.64,12.07-7.36,23.66,1.73,35.3,7.92,10.13,18.26,15.15,30.4,17.66,17,3.51,34.11,2.43,51.25,1.33,13.54-.87,27-2.33,40-6.36,12.64-3.9,25.32-7.67,37.89-11.77,18.62-6.06,37.37-11.91,57-13,16.79-.95,33.68-.35,50.53-.3,14.57,0,28.67,3.37,42.54,7.29,14.75,4.17,29.21,9.33,43.85,13.88,34.07,10.59,68.76,14,104.22,9.11,8.28-1.16,16-3.92,22.36-9,16.63-13.27,21.07-27.68,9.32-46.39-.64-1-1.41-2-2-3-1.12-1.78-2.19-3.6-3.26-5.41-7.6-12.88-3.16-25.56,5.13-33.74,7-6.92,15.6-11.27,24.78-14.35,9.4-3.15,19-5.72,28.46-8.65,5.17-1.6,10.49-2.93,15.36-5.19,22.24-10.35,26.91-32.7,10.81-50.76-.2-.23-.44-.42-.64-.64a26.32,26.32,0,0,1-6.72-17.23c-.69-16.44,10.75-29.42,27.61-34.76a150.28,150.28,0,0,1,43.4-7.39c20.75-.26,41.52-.91,62.23-.14,23.15.86,41.91-8.3,59.3-22.24,13.89-11.12,14.42-30.57,9.9-42-5.09-12.92-13.6-23.5-26.75-29.19-6.86-3-14.12-5-21.21-7.44-4.26-1.46-8.81-2.32-12.74-4.37-6.57-3.42-7.86-8.74-4.38-15.16,1-1.84,2.39-3.48,3.47-5.28,9.43-15.68,5.31-32-10.66-40.78a79.56,79.56,0,0,0-17.45-7.23c-19.52-5.23-39.53-7.55-59.71-8.15-14.72-.44-29.45-.35-44.18-.62-16-.29-31.89-.73-47.83-1.1,0-.14,0-.28,0-.42q-46.93,0-93.88,0a58,58,0,0,0-6,.09l0-56.56q20.82.11,41.66.1l272.67-.08h9a31.43,31.43,0,0,1,1.34,5c1,13.88,8.61,23.21,20.19,30.16a43.39,43.39,0,0,1,10.85,9.32c5.85,7,4.65,14.85-2.5,20.47-2.37,1.85-5,3.33-7.26,5.35-14.35,13.12-9.78,29.41,2.53,37.47,8.44,5.52,17.51,8.86,28,8.76,11.72-.12,23.47.58,35.15,1.5a50.41,50.41,0,0,1,14.74,3.59c4.33,1.75,4.82,4.61,2.83,8.86-.38.81-1,1.5-1.44,2.29-5.09,9.64-3.18,18.08,5.87,24.25a41.43,41.43,0,0,0,10.41,5.31c15.32,4.88,30.85,7.45,47.1,5.2,11.72-1.62,23-3.77,33.67-9.28,11.22-5.82,19.48-14,23.18-26.27,2.88-9.6,9.06-16,18.41-19.62a109.14,109.14,0,0,0,14.73-6.79c11.48-6.54,12.51-16.87,2.83-25.74-1.77-1.62-3.76-3-5.35-4.82-5.86-6.57-5.39-13,1.35-18.77a20.06,20.06,0,0,1,5.33-3.31c23.07-9.31,34.69-26.8,36.7-52.13a67.92,67.92,0,0,1,7.64-.87q49.2-.15,98.4-.13a56.52,56.52,0,0,1,5.77.64c.68,14.64-1,28.46-8.72,40.88-5.53,8.93-11.3,17.78-17.64,26.14C1971.68,1191.17,1970.18,1209.65,1981.91,1230.22ZM461.82,1142c-4.25-10.46-7.37-21-6.31-32.37.1-1.15.33-2.3.48-3.3,7.13-1.83,122.35-2.26,133.82-.5-.11,10.23-4.15,18.15-12.79,23.93-5.21,3.49-10.49,7.06-15,11.39-12.43,12-8.86,29.58,3.25,37.33a34.9,34.9,0,0,1,7,5.62c6.12,6.7,5.35,15.07-2.18,20.14-6.77,4.55-14.13,7.59-22.67,7.76-14.1.3-28.22.88-42.25,2.19a37.45,37.45,0,0,0-15.05,5.32c-8.17,4.87-9.41,11.76-4.67,19.91s3.85,12.49-4.71,16.45c-14.14,6.54-29.05,8.33-45.91,6.61,2-2.7,3.07-4.37,4.37-5.85,9.22-10.45,11.24-31.53.18-44.25-3.38-3.89-6-8.19-6.6-13.56-.72-6.28,1.17-11.26,6.51-14.76,4-2.63,8.21-5,12.15-7.77C464.81,1166.89,468,1157.11,461.82,1142Zm-6.58-180.65c56.09-3.55,132.12,48.63,134.52,133.43H456.66C456.18,1049.93,455.71,1005.6,455.24,961.31Zm523.85-80.18a287,287,0,0,1,33.31-1.68c62.89.12,125.79,0,188.68.12a143.58,143.58,0,0,1,24.24,2c20.21,3.53,33.37,15.46,39.69,35a95.56,95.56,0,0,1,4.81,32.8c-.52,16.84-.13,33.7-.22,50.56-.06,10.51-.12,21-1,31.54-.91,11.35-.22,22.84-.22,34.27,0,10.81,0,21.62,0,32.42,0,9.33-.1,18.66-.11,28q-.06,82.62-.09,165.22c0,11.36-1.94,22.25-8.09,31.94-8.48,13.38-19.53,23.64-35.73,26.79a52.38,52.38,0,0,1-9.85.88q-113.74.08-227.5,0c-13.29,0-24.69-4.51-34.11-14-4.67-4.69-9.2-9.39-12.4-15.38a60.57,60.57,0,0,1-7-27.72c-.21-9.32-.13-18.66-.14-28q0-51,0-102h-.06v-57.78c0-21.34.12-42.67-.06-64-.06-8.1-1.11-16.2-1.17-24.3-.19-25.88-.37-51.77-.05-77.64a69.76,69.76,0,0,1,11.12-37.6C951.48,889.87,963.85,882.88,979.09,881.13ZM979,836.74c.09-4.52,3-7,7.5-7.63a54,54,0,0,1,7.2-.25h214.68a47.84,47.84,0,0,1,7.19.3c4,.61,6.38,3.08,7.14,7.08a19.68,19.68,0,0,1,.28,3.59c0,7.82,0,15.64-.13,23.46a29.85,29.85,0,0,1-.81,4.89c-3,3.09-6.44,2.33-9.67,2.33-16.53,0-33.08.32-49.6-.16-26.74-.79-53.46.71-80.18.06-7.2-.17-14.4-.53-21.6-.76-2.7-.08-5.41-.06-8.11,0-21.93.3-43.86.65-65.8.9a48.58,48.58,0,0,1-6.18-.72c-.91-1.47-1.48-2-1.49-2.47C979.18,857.13,978.78,846.93,979,836.74Zm-44.74,496.53A79.67,79.67,0,0,0,953.61,1352c6,4.13,12.58,7.14,19.9,8a136.85,136.85,0,0,0,16.13,1.43q82.16.21,164.29.15c20.46,0,40.92,0,61.38-.15,11-.09,21.54-2.21,31-8.28a78.86,78.86,0,0,0,21.43-20.44,56.06,56.06,0,0,0,6.18-11.94c3.73-9.33,4.95-19.1,4.9-29.17,0-7.06,0-14.12-.07-21.19a65.44,65.44,0,0,0,8.9,1.94c28.16,3.74,44.79,28.42,37.51,55.77-3.16,11.88-9.16,22.17-17,31.51-15.22,18.15-34.23,31.18-56,40a145.44,145.44,0,0,1-30.17,8.87,238.21,238.21,0,0,1-37.73,3.23c-53.26.44-106.53.67-159.79.3-15.9-.11-32-1-47.61-4-29.66-5.64-55.33-19.85-76.72-41.29-11-11-19.73-23.54-23.52-38.92-4.31-17.51-.9-32.87,13.38-44.83,7.81-6.54,16.79-10.55,27.11-10.95a21.87,21.87,0,0,0,5.75-.91c0,9.12,0,18.23.24,27.34C923.47,1311.08,926.7,1323,934.24,1333.27Zm432.62,36.52a67.93,67.93,0,0,1,.88,9.88c.44,11.52-3.27,21.16-12.5,28.57-9.38,7.54-20.4,11.45-31.64,14.79-16.6,4.94-29.89,13.74-37.73,29.76a133.21,133.21,0,0,1-9,15.6c-8.34,12.49-19.43,20.72-34.58,24-14.9,3.19-29.23,2-43.68-1.82-20.63-5.38-41.24-10.9-62-15.86-23.76-5.69-47.57-5-71.52-.17-21,4.25-41.37,10.41-61.93,16.06-14.74,4-29.49,5.15-44.56,1.56A53.35,53.35,0,0,1,934.78,1480c-8.09-7.18-13.34-16.34-18-25.75-8.32-16.87-21.81-26.52-39.57-31.47a115.88,115.88,0,0,1-21.76-8.63c-13.52-7-22.08-17.56-21.46-33.68.17-4.5,1.25-9,1.21-13.46,0-5,0-10.36-1.53-15-5.63-17.07-17.4-29.49-32.71-38.12-13.33-7.52-27.51-13.51-41.13-20.55a64.64,64.64,0,0,1-14.08-9.51c-5.9-5.45-6.69-12.75-2.94-19.78a44.65,44.65,0,0,1,14-16.19c10.8-7.43,22.7-12.27,35.23-15.76,15.73-4.38,31.9-6.39,48.08-7.44,26.11-1.7,52.28-2.46,78.43-3.65,1.11,0,2.25-.08,3.38-.15,1.45,9.94.83,19.94.89,29.91q0,6.88,0,13.78a37.07,37.07,0,0,0-13.93.16c-30.38,5.11-49.23,33.19-42.61,63.31,2.77,12.59,8.57,23.71,16.3,33.88,11.25,14.79,25.27,26.44,41,36.23,27.39,17,57.68,24.24,89.35,24.63,58.66.72,117.33.42,176,0a177.75,177.75,0,0,0,36.74-3.94c33.7-7.41,63.16-23.06,86.67-48.77,11.11-12.15,19.52-25.93,23.08-42.29,5.6-25.79-7.13-50.34-31.65-60-8.07-3.16-16.41-5.1-25.16-3.23q0-21.79,0-43.57c.65,0,1.31,0,1.92,0q13.08.49,26.15,1c24.36.84,48.72,1.28,72.94,4.56,16.77,2.27,33.27,5.34,48.8,12.25,12,5.31,23,11.8,29.74,23.79,4.69,8.42,3.85,16.42-3.51,22.69a69.6,69.6,0,0,1-13.69,8.55c-8.59,4.34-17.48,8.07-26.11,12.33-13.54,6.67-26.41,14.29-36,26.49C1370.38,1343.53,1364.08,1355.12,1366.86,1369.79ZM922,1211.69c-.49,0-1,.06-1.45.07-30.68.63-61.39,0-91.95,3.74-22.82,2.8-45.09,7.47-66.07,17.15a59.52,59.52,0,0,0-28.5,26.59c-4.75,8.87-4.11,17.45.69,25.69a31.12,31.12,0,0,0,9,9.82,214.17,214.17,0,0,0,21.77,12.65c6.4,3.31,13.17,5.87,19.73,8.88,10.74,4.91,20.4,11.15,28.47,20.11,10.27,11.4,14.06,24,11.17,39.06-3.66,19,7.25,39.3,22.85,45.77,9.43,3.91,18.93,7.7,28.6,10.94,13.65,4.56,24.9,11.63,31.34,25.2,3.09,6.5,7.08,12.57,10.81,18.75,9,15,22.3,24.39,39.39,27.66,17.71,3.39,35.23,1.75,52.61-3.31,20.19-5.89,40.48-11.46,60.92-16.43a128.43,128.43,0,0,1,57.33-.41c17.61,3.73,35,8.75,52.26,13.87,19.78,5.85,39.5,10.46,60.34,6.63,14.07-2.59,26.71-7.84,35.41-19.52a194.39,194.39,0,0,0,17.32-27.39c6.83-13.37,17.82-20.53,31.47-25.08,9.68-3.22,19.17-7.05,28.59-11,15.37-6.37,26.25-26.61,22.81-45.86-1.67-9.28-2.07-18.61,2.94-27.21,6.46-11.1,14.72-20.56,26.37-26.4,10.21-5.11,20.78-9.51,30.93-14.71a166.45,166.45,0,0,0,21.68-12.82c12.7-9.17,15.22-23.69,7.46-37.37-6.51-11.47-16.26-19.1-28-24.6-18.46-8.66-38.12-13.31-58.11-15.84-20.27-2.56-40.75-3.35-56.85-4.59h-44.71q0-11.08,0-22.16,0-9.73,0-19.49c2,.12,4.07.11,6.1.14,66.76,1.15,133.59-1.91,200.28,3.46,15.63,1.26,31.07,3.33,46.08,8A48.86,48.86,0,0,1,1549,1192c6.1,5.37,7.44,10,4.36,17.7-1.54,3.85-4.05,7.33-6.13,11-4.41,7.69-3.58,16.31,3,22.17a39.11,39.11,0,0,0,11.49,6.79c5,2,10.4,3,15.59,4.51,14.12,4.15,25.41,11.84,32.75,25.06,7.06,12.71,5,28-5.72,37.73a82.69,82.69,0,0,1-33.89,18.14,41.29,41.29,0,0,1-10.62,1.58c-15,0-30.08,0-45.11-.39-23.9-.63-47.57,1.11-70.61,7.59-14.12,4-25.74,12.29-31.6,26.18-6.46,15.32-5.14,30,7.1,42.51,4.55,4.67,7.88,10.07,6.28,17-1.47,6.34-4.46,12.07-10.39,15.2a121.12,121.12,0,0,1-17.33,7.32c-12.8,4.36-25.85,8-38.55,12.58a50.85,50.85,0,0,0-24,18.42c-8.72,12.06-10.12,24.82-2.91,38.12,2.15,4,4.67,7.71,7,11.59,7.71,12.94,4.11,24.42-6.86,32.45a45.2,45.2,0,0,1-17.2,7.39,135.32,135.32,0,0,1-26.87,2.63c-13.22,0-26.44-.94-39.64-1.86a74.7,74.7,0,0,1-15-2.74c-20.24-5.76-40.31-12.16-60.64-17.58a309.63,309.63,0,0,0-40.56-8.4c-12.77-1.61-25.82-1.71-38.72-1.41-15.9.37-31.86.75-47.38,5.25-19.34,5.61-39,10.16-58.12,16.43-27.92,9.17-56.47,11.55-85.49,10-11.37-.61-22.89-1.72-32.79-8.49-10.64-7.28-17.17-19.81-7.85-34.38,2.43-3.8,4.81-7.65,6.91-11.63,6.69-12.72,5.33-25-2.71-36.58a50.79,50.79,0,0,0-24.48-19.18c-12.69-4.63-25.74-8.25-38.55-12.57-5.65-1.91-11.5-3.79-16.53-6.88-13.66-8.37-15.16-21.53-4.37-33.26.2-.22.44-.41.65-.63,6.17-6.35,8.94-14.09,9.37-22.82,1.09-22-13.78-37.76-33.36-44.06a157,157,0,0,0-46.13-7.78c-21.05-.25-42.13-.61-63.15.15s-38.05-7.37-53.28-20.48c-9.25-8-12.1-22.86-6.75-33.82,5-10.2,11.73-19.07,22.67-23.51,6.93-2.81,14.21-4.75,21.19-7.45,5.55-2.15,11.5-4,16.18-7.5,8.19-6.06,9.19-15.28,3.88-24.07-1.7-2.83-3.72-5.52-5.06-8.51-4-9-2.48-14.06,5.1-20.58,9.55-8.22,21.28-11.11,33.08-13.28,30-5.52,60.4-6.43,90.75-6.83,46.94-.6,93.89-.36,140.83-.49,1.38,0,2.77,0,4.15-.09C923,1184,923.7,1197.88,922,1211.69Zm823.54-106c2,9.49.82,18.83-2.41,28-1.4,4-3.2,7.79-4.5,11.78-3.39,10.4-1.72,19.73,7,26.89a164.9,164.9,0,0,0,14.76,10.3c9.29,6.06,11.46,14.27,6.09,23.93a44.56,44.56,0,0,1-3.07,4.45c-11.72,16.1-11.57,31.45.47,47.05.72.93,1.36,1.92,2.59,3.65a44.68,44.68,0,0,1-6.11,1.22c-13.39.59-26.41-1.33-38.67-6.85-9.16-4.13-10.25-8.3-5.23-16.94,4.49-7.73,3.41-14.63-4.18-19.36-4.46-2.78-9.8-5.09-15-5.6-13.72-1.38-27.54-2.07-41.34-2.25a43.36,43.36,0,0,1-22.93-6.93c-9.32-5.81-10.18-15.06-2.15-22.46,2.19-2,4.84-3.55,7.18-5.43,10.94-8.79,12.86-22.65,3.87-33.47-3.94-4.73-9.15-8.63-14.33-12.07-11-7.34-14-11.63-15.62-25.53C1618.48,1104.52,1734.53,1104.12,1745.55,1105.73ZM1612.44,1094c-.28-72.49,66.06-134.43,134.14-133.05-.48,44.76-.95,88.88-1.41,132.82C1736.91,1095.67,1620.35,1095.73,1612.44,1094Zm373,1.29c-9.32.15-18.65,0-28,0h-55.74c-.73-4.31-1.52-8-2-11.81-4-31.63-15.7-60-37.44-83.46-34.81-37.61-78-54.12-129.1-48.41-61.69,6.89-115.49,53.71-128.4,119.6-1.45,7.36-2.18,14.86-3.26,22.46-2.7,2.48-6.17,1.5-9.35,1.5q-140.87,0-281.71,0-15.93,0-31.87.07,0-80.54-.16-161.07c0-9.35-1.4-18.6-5.15-27.3-6.8-15.75-18.16-26.66-34.38-32.45a62,62,0,0,1-6.25-3,20.19,20.19,0,0,1-.79-4c.06-2.4.47-4.78.56-7.18.26-7.5,1.1-15.06.5-22.5-.9-11.15-6-18.73-21.63-19.2a38,38,0,0,0-4.49.4,33.42,33.42,0,0,1-3.59.3c-12.91-.23-25.82-.65-38.73-.72-23.17-.11-46.33,0-69.5,0-7.51,0-15,.06-22.55.06l-65.85,0c-4.79,0-9.58.22-14.36,0-14.49-.56-23.54,6.11-23.76,21.7-.1,7.19.65,14.39.93,21.59.12,3,0,5.9,0,9.56-3.08,1.32-5.24,2.34-7.46,3.18a56.9,56.9,0,0,0-32.07,28.78c-4.85,9.68-6.71,20-6.73,30.56q-.2,80.58-.17,161.18-22.75-.09-45.5-.06-134.09,0-268.17,0c-2.92,0-5.83-.32-8.64-.49-7.08-92.67-79.42-142.13-144-144.31-41.25-1.39-77.53,12-107.94,40.11-30.19,27.94-44.73,63.44-48,104.32H191.65c-.11-3.19-.49-6.4-.28-9.57,1.93-28.5,3-57.09,6.19-85.45,5.39-47.89,15.52-94.93,29.34-141.14Q273.15,704,370.74,575.34c69.34-91.73,153-167.91,249.84-229.69a1009.89,1009.89,0,0,1,254.47-116.2,699,699,0,0,1,187.5-29.5c40.4-.8,80.63.41,120.48,7.66,7.38,1.34,14.63,3.4,22,5.06,3.18.72,6.6,2,9-1.62s1.39-7.3-1.39-9.88c-9-8.37-18.18-16.61-27.62-24.49-4.82-4-10.39-7.17-15.58-10.76-1.38-1-2.63-2.11-3.93-3.17l.54-1.29c12.12,1.77,24.27,3.33,36.35,5.34,64.54,10.74,127.65,26.91,189.08,49.6C1503,257.6,1603.67,317,1692.74,396s160.16,171.89,214,278a973.29,973.29,0,0,1,77.35,209.38c11.68,47.67,20.26,95.91,24.61,144.83,1.84,20.67,3.11,41.39,4.61,62.08a40.88,40.88,0,0,1-.23,4.51C2003.93,1096.1,1994.66,1095.12,1985.47,1095.27Zm89.5-.31h-51.7c-.71-10.1-1.55-19.65-2-29.21-1.53-31.27-5.22-62.32-9.89-93.24a1003.27,1003.27,0,0,0-22.84-109.41c-35.89-134-96.16-255.82-183.8-363.64Q1672.27,336.5,1483,245.29c-79.78-38.67-163.4-65.54-250.48-81.82-9.15-1.71-18.35-3.22-27.52-4.85-.22,0-.37-.45-1-1.25,12.09,0,23.77-.49,35.41.08,112.56,5.52,218.68,35,319.06,85.9,93,47.16,174.89,109.13,246.9,184.29q131.73,137.52,202.84,314.29a950.62,950.62,0,0,1,50.91,170.87A932.76,932.76,0,0,1,2076.39,1065c.17,5.11.36,10.24.13,15.34C2076.3,1085.12,2075.54,1089.84,2075,1095Zm30.76,429.9A1091.39,1091.39,0,0,1,8.53,1104.07c1.35,0,2.68,0,3.81,0,22.57.09,38.06,0,60.63.14,4.75,0,22.58.42,27.14.61a19.18,19.18,0,0,1,1,3.25c2.19,19.35,8.23,37.43,16.89,54.87,3.28,6.61,4.91,14.17,6.47,21.47a27.88,27.88,0,0,1-3.28,20.07c-3.89,6.75-8.08,13.33-12,20-4.87,8.27-10.45,16.24-14.26,25-7.16,16.43-2.23,38.69,15.18,49.12,5.42,3.24,10.78,6.59,16,10.12,4.47,3,9.18,5.93,13,9.71,8.32,8.32,12.61,18.18,9.51,30.3-1.49,5.82-2.41,11.79-3.85,17.62-6.5,26.23.86,48,20.76,65.93a80.9,80.9,0,0,1,8.41,8.14c5.91,7.1,8.4,15.16,5.74,24.37q-2.25,7.8-4.31,15.65c-4.69,17.75-.8,33.53,12,46.52,6.51,6.59,14.14,12.09,21.43,17.88,4.71,3.74,9.71,7.1,14.58,10.63,15,10.91,20.1,25.57,16.53,43.59-1.51,7.66-3,15.35-4,23.09-1.57,12.45,1,23.93,9.31,33.74,6.34,7.5,14.28,12.78,23.16,16.81,13.13,6,26.53,11.41,39.24,18.17,12.3,6.55,20.16,17,21.24,31.51.14,1.79.51,3.57.78,5.36,4.11,27.24,19.66,46.11,43.79,58,8.8,4.32,18.59,6.78,28.1,9.47,11,3.11,22,6.11,31.94,12.07a30.2,30.2,0,0,1,10.26,9.87c5.29,8.26,7.92,17.41,9.84,26.92,3.72,18.49,12.22,33.74,29.48,43.18,9.17,5,19,7.66,29.12,9,11.6,1.51,23.31,2.23,35,3.45s21.3,6.35,28.42,15.65c4.19,5.48,7.72,11.46,11.66,17.13,5.3,7.65,10.18,15.67,16.16,22.75,12.73,15.06,30.11,22.53,48.55,27.9,19.85,5.77,40.35,6,60.74,7.41,15,1,29.91,2.87,44.85,4.47a28.19,28.19,0,0,1,18.75,9.86,117.75,117.75,0,0,1,10.82,15.41c3.28,5.38,5.79,11.22,9,16.67a36.55,36.55,0,0,0,17.86,15.87c16.23,6.77,33.14,8.43,50.43,6.89,10.78-.95,21.49-2.6,32.24-3.85,24-2.8,46.2.86,64.94,17.53a39.86,39.86,0,0,0,6.49,4.87c10.64,6.17,20.92,13.25,32.16,18.07,28.52,12.22,58.82,17,89.63,18.45,26,1.25,51.66-1.61,77-7.38,19.75-4.49,38.89-10.71,56-22,9-5.94,17.73-12.41,26.62-18.58a61,61,0,0,1,26.5-10.62c16-2.35,31.86-.52,47.6,1.82,17.75,2.63,35.29,3.1,52.84-1.2,14.15-3.48,25.41-10.61,31.94-24.13,2.35-4.87,4.84-9.67,7.35-14.47,7.46-14.29,18.42-23.31,35.22-24.46,13.47-.92,26.91-2.52,40.35-4,14.92-1.62,29.92-2.49,44.53-6.67,26.23-7.5,47.63-21.15,61.18-45.6,3-5.51,6.63-10.74,10.08-16,8.35-12.78,19.56-21,35.3-22.07,4.49-.29,9-1,13.46-1.17,13.27-.62,26.45-2.07,39-6.73,16.85-6.28,29.6-17.11,35.33-34.79a141.65,141.65,0,0,0,4.41-16.52c4-20.72,15-35,36.07-40.55,4.65-1.22,9.21-2.8,13.83-4.12,6.35-1.82,12.88-3.13,19.07-5.37,29.72-10.76,49.06-30.67,54.32-62.7.58-3.56,1.12-7.13,1.73-10.69a31.46,31.46,0,0,1,7.36-15.2c6.4-7.62,14.65-12.41,23.45-16.4,10.13-4.58,20.62-8.42,30.58-13.34,21.48-10.61,35.15-26.64,29.79-55.32-1.54-8.27-3.07-16.57-4-24.92-1.48-13.24,3.18-24.28,13.49-32.72,5.81-4.75,12-9,17.94-13.65,7.29-5.79,14.93-11.26,21.5-17.8,13.21-13.15,17.2-29.16,12.35-47.25q-2.1-7.85-4.3-15.65c-2.52-8.88-.15-16.73,5.45-23.6,2.82-3.47,6.35-6.38,9.67-9.44,19.14-17.65,26.13-39,20-64.52-1.69-7-3.15-14.09-4.51-21.17-1.24-6.44.07-12.48,3.17-18.28,4.44-8.3,11.49-13.73,19.29-18.5,6.15-3.76,12.26-7.61,18.26-11.61a34.18,34.18,0,0,0,12.64-14.91c5.09-11.41,5.06-22.7.48-34.15-4.3-10.73-11-20-17.87-29.14-12.35-16.6-15.14-34.32-6.37-53.42,1-2.18,2.15-4.29,3.18-6.46,6.86-14.47,12.66-29.24,13.76-45.47.2-2.93,1-5.82,1.72-9.43h10.2l89.76-.3c1.67,0,3.35,0,5-.06A1098.85,1098.85,0,0,1,2169.32,1320,1086,1086,0,0,1,2105.73,1524.86Z"/></g></g></svg>