<svg xmlns="http://www.w3.org/2000/svg" viewBox="0 0 823.8 832.76"><defs><style>.cls-1{fill:none;stroke:#ff8000;stroke-miterlimit:10;stroke-width:3px;}</style></defs><g id="Warstwa_2" data-name="Warstwa 2"><g id="tlo"><path class="cls-1" d="M672.88,728.61C764.13,653.34,822.3,539.42,822.3,411.9,822.3,185.24,638.56,1.5,411.9,1.5S1.5,185.24,1.5,411.9c0,127.52,58.17,241.44,149.42,316.71"/><path class="cls-1" d="M680.42,677C767.32,612.69,822.3,517.79,822.3,411.9c0-193.59-183.74-350.52-410.4-350.52S1.5,218.31,1.5,411.9C1.5,518,56.67,613,143.83,677.3"/><path class="cls-1" d="M205.35,539.27c-45.48,4.78-68.72,73.25-60.25,153.81S190.53,835.78,236,831Z"/><path class="cls-1" d="M587.79,831c45.48,4.78,82.45-57.36,90.91-137.92s-14.77-149-60.25-153.81Z"/><path class="cls-1" d="M618.45,539.3l-1.19-.16-21.48-2.25a28.79,28.79,0,0,0-31.65,25.63L539.48,797a28.82,28.82,0,0,0,25.64,31.66l21.48,2.25c.4,0,.8.07,1.2.1Z"/><path class="cls-1" d="M284.32,797,259.67,562.52A28.79,28.79,0,0,0,228,536.89l-21.48,2.25-1.19.16L236,831c.39,0,.79-.05,1.19-.1l21.48-2.25A28.82,28.82,0,0,0,284.32,797Z"/></g></g></svg>