<svg xmlns="http://www.w3.org/2000/svg" viewBox="0 0 850 850.01"><defs><style>.cls-1,.cls-3{fill:none;stroke-width:1.94px;}.cls-1{stroke:#585a4d;}.cls-2{fill:#585a4d;}.cls-3{stroke:#d0e0e7;}</style></defs><g id="Warstwa_2" data-name="Warstwa 2"><g id="Warstwa_1-2" data-name="Warstwa 1"><path class="cls-1" d="M710.5,688.13a22.37,22.37,0,1,0,22.37,22.37A22.37,22.37,0,0,0,710.5,688.13Z"/><path class="cls-2" d="M710.13,732.05v1.52a23.07,23.07,0,0,0,0-46.14V689a24.81,24.81,0,0,1,0,43.1"/><circle class="cls-1" cx="139.5" cy="710.5" r="22.37"/><path class="cls-2" d="M139.87,689v-1.52a23.07,23.07,0,1,0,0,46.14v-1.51a24.82,24.82,0,0,1,0-43.11"/><path class="cls-2" d="M425,1a22.38,22.38,0,1,0,22.37,22.38A22.37,22.37,0,0,0,425,1"/><circle class="cls-3" cx="425" cy="23.35" r="22.38" transform="translate(400.84 448.3) rotate(-89.89)"/><path class="cls-1" d="M425,804.29a22.37,22.37,0,1,0,22.37,22.38A22.37,22.37,0,0,0,425,804.29Z"/><path class="cls-1" d="M23.34,402.64A22.37,22.37,0,1,0,45.72,425,22.37,22.37,0,0,0,23.34,402.64Z"/><path class="cls-2" d="M23.34,403a22,22,0,0,0,0,44Z"/><path class="cls-1" d="M826.66,447.37A22.37,22.37,0,1,0,804.28,425,22.38,22.38,0,0,0,826.66,447.37Z"/><path class="cls-2" d="M826.66,447a22,22,0,0,0,0-44Z"/><path class="cls-1" d="M694.68,123.69a22.37,22.37,0,1,0,31.64,0A22.37,22.37,0,0,0,694.68,123.69Z"/><path class="cls-2" d="M726.05,155.06a22,22,0,0,0-8.91-36.52,22,22,0,0,0-8.92,36.53,22.11,22.11,0,0,0,8.92,5.41,21.81,21.81,0,0,0,8.91-5.42"/><path class="cls-1" d="M155.32,155.33a22.38,22.38,0,1,0-31.64,0A22.37,22.37,0,0,0,155.32,155.33Z"/><path class="cls-2" d="M124,124a22,22,0,0,0,8.91,36.53A22,22,0,0,0,141.78,124a21.76,21.76,0,0,0-8.92-5.41A21.79,21.79,0,0,0,124,124"/><path class="cls-1" d="M471.73,806.14c72.1-8.47,136.67-36.71,190.86-79.42"/><path class="cls-1" d="M188.53,727.61c54.2,42.7,119.06,70.22,191.17,78.69"/><path class="cls-1" d="M43.87,471.73c8.47,72.1,36.7,136.67,79.41,190.86"/><path class="cls-1" d="M122.4,188.54C79.7,242.73,52.17,307.6,43.7,379.69"/><path class="cls-1" d="M379.7,43.7a382.31,382.31,0,0,0-192.29,79.58"/><path class="cls-1" d="M806.14,378.28c-8.47-72.1-36.71-136.67-79.41-190.87"/><path class="cls-1" d="M727.61,661.47c42.7-54.19,70.23-119.06,78.69-191.16"/><circle class="cls-1" cx="425" cy="425" r="358.92"/><path class="cls-1" d="M661.47,122.4C607.28,79.69,542.41,52.17,470.31,43.7"/></g></g></svg>