<svg xmlns="http://www.w3.org/2000/svg" viewBox="0 0 1801 3354"><defs><style>.cls-1{fill:#ff8000;}</style></defs><g id="Warstwa_2" data-name="Warstwa 2"><g id="Warstwa_1-2" data-name="Warstwa 1"><path class="cls-1" d="M513.53,1299.29c-9,11.49-17.71,23.27-27.7,34-2.13,2.29-4.09,4.75-6.12,7.14-8.36,9.79-16.67,19.64-25.1,29.37-4.78,5.53-10.14,10.59-14.58,16.37-9.11,11.88-18,23.91-26.56,36.21a338.3,338.3,0,0,0-25.21,43.29c-1.85,3.74-3.75,7.47-5.87,11.06a263.42,263.42,0,0,0-25,58.42c-1.6,5.33-3.12,10.69-4.49,16.09-2.81,11.13-5.86,22.22-8.14,33.46-2.7,13.3-4.72,26.74-4.79,40.38-.1,20.2-.42,40.35,2.08,60.5,2.82,22.84,6.5,45.5,12.6,67.67,4.06,14.74,9.21,29.2,14.09,43.71a174.2,174.2,0,0,0,7.6,19.43q8.78,18.38,18.38,36.36c5.93,11,12.37,21.8,18.68,32.62,1.57,2.7,3.5,5.2,5.33,7.74q5.79,8.06,11.67,16.05c3.93,5.31,7.53,10.95,12,15.76,6.15,6.61,13,12.55,19.53,18.82a495.83,495.83,0,0,0,51.1,43c8.43,6.16,16.68,12.57,25,18.82,5.29,4,10.47,8.11,16,11.64a420.53,420.53,0,0,0,43.66,24.55c28.39,13.55,58.27,22.85,88.07,32.45.66.21,1.36.27,2,.43,23.33,5.64,46.64,11.36,70,16.87,6.08,1.44,12.3,2.31,18.47,3.29,5.15.82,10.33,1.42,15.5,2.14,10.68,1.48,21.33,3.36,32,4.38,12.47,1.18,25,1.77,37.5,2.33,10.43.47,20.76,2.13,31.25,1.86,12.17-.31,24.33,0,36.51-1.1,15.23-1.43,30.55-2,45.84-2.9,1.39-.09,2.78-.16,4.16-.35,16.89-2.31,33.78-4.6,50.65-7,4.13-.59,8.21-1.48,12.28-2.41,16.27-3.74,32.57-7.37,48.77-11.39,14.85-3.68,29.76-7.22,44.2-12.38,13.77-4.92,27.66-9.49,41.32-14.66a324.12,324.12,0,0,0,51.78-24.68c13.15-7.86,26.5-15.44,38-25.71,1.55-1.38,3.4-2.43,5.08-3.67,8.38-6.23,16.81-12.4,25.11-18.74,17.46-13.32,33.7-28.08,49.55-43.24,7.51-7.18,15.06-14.38,21-23.1s12.31-16.88,18.36-25.4a97.85,97.85,0,0,0,6-9.77c7.73-14,15.51-28,23-42.19,4.86-9.23,9.94-18.46,13.64-28.18,5.94-15.6,11-31.56,16.12-47.45,6.13-18.94,9.26-38.57,12.4-58.15,1.82-11.33,3.22-22.76,4-34.2.75-10.41.59-20.89.62-31.35.05-13.94-.52-27.87-2.87-41.64-4.34-25.45-11.5-50.19-19.21-74.77-1.25-4-3.2-7.72-4.67-11.63-7.49-20-18.93-38-28.68-56.84a273.41,273.41,0,0,0-25.6-40.61c-4.87-6.36-9.55-12.86-14.48-19.17-4.06-5.2-8.26-10.31-12.59-15.28-6-6.83-12.19-13.39-18.11-20.24q-12.62-14.62-24.93-29.52c-6.88-8.32-13.62-16.75-20.31-25.21-7.13-9-13.83-18.37-21.28-27.1-9.71-11.38-20.08-22.2-29.94-33.46-5.5-6.27-10.61-12.89-15.78-19.44-3.44-4.37-6.52-9-10.06-13.34q-18.94-23-37.08-46.57c-17.9-23.19-35-46.84-50.16-72-6.1-10.14-12.74-20-19.15-29.92-7.15-11.12-14.73-22-21.35-33.43a223.62,223.62,0,0,1-14.23-29c-4-10-7.64-20.13-11.85-30.06-6-14.1-10.7-28.73-17-42.66-7.8-17.18-13.27-35.14-19.59-52.83-.94-2.62-1.74-5.29-2.49-8-4.53-16.42-8.67-33-13.65-49.27s-8.52-33-12.08-49.63A114.48,114.48,0,0,1,992,753.53c-.8-8-1.08-16-2.08-23.94-2.52-20-7.45-39.69-8.58-59.92-2.93-10.13-2.72-20.65-3.93-31-2.58-22.18-2.12-44.51-3.76-66.75-.79-10.74-.15-21.59-.16-32.39,0-19.51,0-39-.12-58.52a71,71,0,0,1,9.87-36.87c3.61-6.24,8.21-11.23,15-14,6.25-2.52,11.42-6.67,16.43-11,8.52-7.33,11.65-21.06,7.5-31.53a37.63,37.63,0,0,0-17.58-20,61,61,0,0,0-24.83-7.44c-5.56-.35-11.13-.61-16.69-.63-20.9-.07-41.81,0-62.71,0v0H833.46c-11.58,0-22.88,1.37-33.59,6.26-10,4.55-17.17,11.65-21.25,21.89-4.14,10.42-.89,24.15,7.65,31.49,5,4.31,10.2,8.43,16.45,11s10.89,7.21,14.38,13.12c6.31,10.73,10.13,22.13,10.28,34.64,0,3.49,0,7,0,10.46,0,23.69.38,47.38-.13,71.06s-1.91,47.32-2.93,71c0,.34-.1.69-.13,1-.53,5.9-1,11.8-1.61,17.7a119.15,119.15,0,0,1-1.46,12.4,126.26,126.26,0,0,0-2.55,19.65,61.15,61.15,0,0,1-1,7.22c-3.13,18.89-6.88,37.68-7.73,56.89A120.24,120.24,0,0,1,807.56,763c-2,10.23-4.35,20.39-6.6,30.57-.6,2.72-1.3,5.42-2.07,8.09-5.64,19.74-11.4,39.44-16.93,59.2a544.42,544.42,0,0,1-19.21,56.27c-1.56,3.87-3.34,7.65-4.89,11.53q-7,17.45-13.83,34.94c-4.32,11-9.68,21.56-13.13,32.94-1.6,5.28-4.37,10.23-6.82,15.22a279.8,279.8,0,0,1-19.25,33.46q-7.89,11.67-15.46,23.57c-7.49,11.74-14.88,23.55-22.27,35.37-12.75,20.41-27.06,39.7-42,58.56-6.48,8.19-12.36,16.86-19,24.91-10.64,12.89-21.67,25.46-31,39.38a55.44,55.44,0,0,1-4.53,5.74c-10.82,12.27-21.52,24.66-32.58,36.7C529.26,1278.92,521.49,1289.18,513.53,1299.29Zm63.75-58a79.55,79.55,0,0,0,5.8-7.39c9.4-13.87,20.32-26.54,31.14-39.29,2.7-3.18,5.21-6.54,7.73-9.87q13.26-17.48,26.44-35c11.74-15.6,22.4-31.92,32.73-48.47,8.48-13.59,17.58-26.8,25.77-40.55,7.46-12.54,16.69-24.06,22.05-37.85a35.91,35.91,0,0,1,4.65-8.16c4.85-6.57,7.6-14,9.89-21.74a67.44,67.44,0,0,1,3.92-10.76c7.26-14.69,13.13-30,18.86-45.28a72.78,72.78,0,0,1,2.47-6.87c8.69-17.54,14.24-36.27,20.54-54.7,3.71-10.85,6.32-22.07,9.43-33.13s6.16-22.11,9.32-33.14a198.08,198.08,0,0,0,5.25-21.26c1.71-9.93,4.07-19.74,6.14-29.61a30.28,30.28,0,0,0,.89-5.13c.74-22.31,4.42-44.29,7.51-66.35.53-3.78.62-7.63,1.1-11.42.34-2.74.42-5.73,1.61-8.1,2.14-4.21,2.71-8.61,3-13.13.79-15,1.49-29.91,2.3-44.86.57-10.43,1.57-20.84,1.81-31.28.36-16,.24-32,.32-48.05.08-15.67-.17-31.36.3-47A82.27,82.27,0,0,0,826.77,438c-4.33-7.45-10.06-13.34-17.91-16.94A59.64,59.64,0,0,1,794,411.53c-6.56-5.81-8.39-13.69-5-21.7a27.26,27.26,0,0,1,14.32-14.53,62.55,62.55,0,0,1,28.21-6c23,.71,46,.23,69,.23s46,.48,69-.23a62.24,62.24,0,0,1,28.2,6,27.39,27.39,0,0,1,14.73,15.51,18,18,0,0,1-4.71,20.05,49.53,49.53,0,0,1-13.85,9.23c-10.15,4.26-16.76,12-21.81,21.53a81.73,81.73,0,0,0-9.36,40.23q.52,34.49.4,69c-.06,13.23-.07,26.46.67,39.67q1.76,31.29,3.59,62.56c.29,4.86.56,9.7,3.09,14.16,1,1.72,1.13,4,1.39,6,1.68,13.12,3.34,26.24,4.9,39.36,1.32,11.05,3.13,22.05,3.45,33.2.31,10.84,2.72,21.36,5.19,31.85.4,1.7,1,3.36,1.22,5.08,2.4,15.19,7.48,29.65,11.75,44.35,3.59,12.36,6.72,24.86,10.15,37.26,1.49,5.36,3.1,10.69,4.9,16,5.73,16.79,11.33,33.6,18.69,49.82,6,13.3,10.79,27.17,16.17,40.76,1.15,2.91,2.64,5.68,3.83,8.56,1.86,4.49,3.89,8.93,5.33,13.55,2.4,7.69,5.07,15.18,10,21.73a33,33,0,0,1,4.18,7.22c3.66,9.12,9,17.21,14.32,25.43q20.07,31.17,39.53,62.74c12.69,20.46,27,39.76,41.86,58.64.86,1.1,1.89,2.08,2.65,3.24,10.75,16.35,24,30.71,36.21,45.93,2,2.44,4,4.87,5.69,7.48,6.76,10.2,14.88,19.27,23,28.41,13.62,15.36,27,31,40.28,46.61,4.27,5,7.8,10.68,12,15.79q20.22,24.6,40.73,49c6.07,7.17,12.7,13.87,18.94,20.89,3.23,3.64,6.32,7.42,9.24,11.3,6.7,8.9,13.39,17.82,19.86,26.89a332.35,332.35,0,0,1,27.19,45.73c1.86,3.75,3.66,7.53,5.79,11.12a253.76,253.76,0,0,1,26.15,62.4c4.46,16.1,8.85,32.18,11.92,48.63,3.27,17.58,4.06,35.25,3.88,53,0,2.79-.26,5.57-.23,8.36.29,22-3.65,43.6-7.31,65.23-5,29.7-14.67,58-25.09,86.08-3.5,9.41-8.51,18.3-13.22,27.22-7.49,14.15-15.28,28.14-23,42.16a76.82,76.82,0,0,1-5.46,8.9q-14.37,19.24-29,38.32a46.26,46.26,0,0,1-5.57,6.21c-13.92,12.63-27.17,26-42.26,37.33-17,12.74-33.64,25.94-50.93,38.26a320.57,320.57,0,0,1-41.2,24.63c-29,14.69-59.75,24.84-90.65,34.52-11.26,3.52-22.89,5.88-34.37,8.68q-22.31,5.43-44.65,10.71a40.41,40.41,0,0,1-7.13,1.5c-12.56.67-24.79,3.51-37.19,5.25-13.45,1.9-27,2.71-40.52,3.63-10.4.71-20.79,1.46-31.19,2.15-2.42.16-4.85.21-7.27.21-9.38,0-18.76.2-28.13,0-8.69-.21-17.37-.77-26.05-1.33-6.58-.43-13.13-1.49-19.71-1.59-14.32-.23-28.41-2.48-42.52-4.46-24.1-3.37-48.09-7.27-71.57-14-14-4-28.49-6.59-42.47-10.75a683.94,683.94,0,0,1-70.8-25.2c-20.92-8.84-40.52-20.14-59.39-32.68-8.68-5.78-16.79-12.41-25.13-18.71-7.77-5.87-15.39-12-23.27-17.69-11.3-8.21-21.41-17.8-32-26.88-14.65-12.61-26.73-27.34-37.75-43.08-2.6-3.7-5.42-7.25-8.11-10.89a77.71,77.71,0,0,1-5.48-7.63q-10-17.72-19.77-35.59c-4.3-8-8-16.24-12.48-24.12-7.41-13.17-11.41-27.63-16.55-41.67-8.64-23.63-14-48.12-18.1-72.85-2.67-16.1-5.16-32.31-4.82-48.77.14-7-.12-13.92-.22-20.89a237.88,237.88,0,0,1,7.51-61c4-16.19,8.3-32.38,13.52-48.23a211.41,211.41,0,0,1,18.27-40.94c3-5.1,5.81-10.32,8.42-15.62a341.52,341.52,0,0,1,24.81-42.31c8.07-11.77,16.7-23.16,25.28-34.57,2.71-3.6,6.09-6.69,9.06-10.1q15.09-17.32,30.09-34.72c2.73-3.15,5.48-6.3,8.15-9.51,7.79-9.37,15.91-18.5,23.2-28.24,9-12,18.41-23.57,28.48-34.68C557.24,1264.48,567.21,1252.85,577.28,1241.29Z"/><path class="cls-1" d="M653.77,2666.37c4.87,2.68,9.85,5.22,14.47,8.3,11.59,7.7,23.2,15.39,34.42,23.61,10.94,8,22,16,31.38,25.88,6.49,6.79,12.46,14.07,19,20.85,13.34,13.94,24,29.8,33.91,46.24,5,8.34,10,16.76,12,26.51.19.93,1.09,1.71,1.55,2.4,2.55,1.46,4.8,1.39,7.78-.8,1.57-4.69.52-9.17-.61-13.49-5.2-19.87-10.38-39.69-18.94-58.53A287.86,287.86,0,0,0,766.76,2707c-6.9-10.39-13.73-21.1-23.08-29.58-8.51-7.7-17.27-15.16-26.4-22.11-19.67-15-40.14-28.84-59-44.88-16.9-14.37-31.18-30.8-41.29-50.65-3.94-7.75-7.89-15.52-11.43-23.47a91.9,91.9,0,0,0-24.87-33.1c-10.37-8.81-20-18.31-27.69-29.68-7-10.27-12.06-21.3-13.7-33.53-1.52-11.39-1.87-22.91.29-34.36,1.16-6.15,2.19-12.35,2.88-18.57,1.18-10.51-.16-20.84-2.87-31-1.36-5.09-2.09-10.28-1.12-15.51,1.67-9,4.31-17.54,9.85-25,5-6.72,9.65-13.64,14.38-20.53a54.78,54.78,0,0,0,9.07-21,320.5,320.5,0,0,0,4.45-32c1-12.14,1.48-24.29,3.79-36.32a52.28,52.28,0,0,0-.18-21.82c-1.75-7.47-6.66-10.25-14.11-8.27-5.29,1.41-9.24,4.76-12.38,9.1a60.53,60.53,0,0,0-10,21.68c-1,4.4-1.9,8.86-2.57,13.33a67.39,67.39,0,0,1-9.52,25.25c-5.1,8.38-12.56,13.7-22.11,15.41-3.76-1.89-5.46-5-6.72-8.21a22.25,22.25,0,0,1-1.8-8,84.82,84.82,0,0,1,1.33-14.5A73.61,73.61,0,0,1,513.75,2202c10.23-15.2,17.15-31.64,19.07-50.22,1.22-11.78,4.71-23.09,12-33,3.89-5.3,6.82-11.34,9.86-17.21a39.27,39.27,0,0,0,3.61-9.74,16,16,0,0,0-10.47-18.28,16.33,16.33,0,0,0-12.23.81c-8.37,3.75-15.81,8.73-20.87,16.73-3.94,6.23-6.62,13-9.2,19.85-3.8,10.12-7.91,20.1-14,29.12a45.64,45.64,0,0,1-6,7.08c-.82.82-2.45.81-3.64,1.16-4.61-10.19-4.72-12.61-.94-21.13,1.55-3.5,3.39-6.88,4.78-10.44a40.29,40.29,0,0,0,2.59-9c.93-6.54,1.68-13.13,2.05-19.72a70.29,70.29,0,0,1,7.9-28.95,85.26,85.26,0,0,0,5.56-13.49,34.5,34.5,0,0,0,1.55-10.24c0-9.52-8.84-18.76-18.39-19.59a13.69,13.69,0,0,0-10.68,3.3,24,24,0,0,0-4.69,5.52c-6.76,11.33-13.73,22.43-17.85,35.27-3.73,11.64-7.16,23.21-9.22,35.26s-4.88,23.85-10.7,34.8c-1.92,3.61-2.7,7.84-4,11.77-.62,1.85-.72,4.07-3.52,4.87a40.24,40.24,0,0,1-2.17-4.6c-2.84-8.58-2-17.18.13-25.75,1-4.05,2.38-8.05,2.92-12.16,1.41-10.71,3.59-21.25,6-31.76.94-4.13,1.51-8.33.46-12.42-2.72-10.67-2.26-21.4-1.36-32.2a73,73,0,0,0-.26-11.45c-.4-5.1-3-9.21-6.49-12.77a13.73,13.73,0,0,0-16.29-2.82,26,26,0,0,0-4.42,2.77c-10.79,8.36-18.4,19.08-22,32.21-1.71,6.28-3,12.81-1.46,19.59,1.61,7.35,0,14.53-2.78,21.44-1.42,3.56-3,7.07-4.13,10.71-3.67,11.89-4.43,24.09-1.24,36.06,1.89,7.13,2.62,14.36,4.09,21.5.88,4.27-.27,8.35-1.81,12.24a8.69,8.69,0,0,1-8,5.75c-5.47.39-9.4-2.11-10.61-7.89-2.43-11.57-4.19-23.27-2.81-35.16a69.22,69.22,0,0,0-1.73-26.93,44.47,44.47,0,0,0-3.83-9.68,15.48,15.48,0,0,0-23.31-4.75,22.35,22.35,0,0,0-7.17,8.85c-4.07,9.66-7.67,19.42-7.21,30.21.28,6.61.18,13.24.18,19.86a86,86,0,0,0,1.48,17.65c1.12,5.42,2.29,11.11,1.77,16.52-.67,7.09.24,13.9,1.26,20.75q1.77,11.86,4.28,23.61c4.64,21.66,14.3,40.47,30.8,55.72,14.32,13.23,28.05,27.09,42.11,40.61a57.89,57.89,0,0,1,11.06,15.1c8.28,15.83,14.69,32.3,16.88,50.19.64,5.17,1,10.41,2.05,15.51,4.4,21.2,10,42,21.84,60.54,1.12,1.76,2,3.67,3,5.52,10.16,19.42,24.67,35.3,40.68,49.95,4.88,4.46,9.93,8.74,14.79,13.23,17.5,16.18,32.85,34.07,44,55.34a117,117,0,0,0,24.45,32.31,245.47,245.47,0,0,0,19.08,16.23c11.14,8.34,22.4,16.59,34.11,24.09C633.9,2656.2,644,2661,653.77,2666.37Zm126.33,93.51c-.41-1.66-.65-2.61-.88-3.55C780.73,2756.7,781.12,2757.6,780.1,2759.88ZM556.73,2571.71c-11.44-21.95-27.93-39.82-45.11-57.18-3.42-3.46-6.95-6.86-10.7-10a215.15,215.15,0,0,1-25.08-25.07,158.05,158.05,0,0,1-14.14-19.36c-4.8-7.66-8.77-15.83-13.21-23.72-6.4-11.4-9.32-24-12.17-36.52-2-8.8-2.72-17.87-4.44-26.74-1.38-7.17-3.21-14.26-5.16-21.3-3-10.8-8.15-20.73-13.1-30.7a61.68,61.68,0,0,0-12.28-16.81q-17.56-17.15-35.13-34.3c-4.24-4.13-8.66-8.08-12.79-12.31-11.26-11.52-18.14-25.44-21.64-41-2.29-10.18-4.11-20.47-6-30.73a26.16,26.16,0,0,1-.39-6.25c.47-9.45-.74-18.73-2.38-28-2.12-12.07-1.62-24.3-1.42-36.47.13-8.5,3.47-16.3,6.57-24.05,1-2.58,2.77-4.85,5.92-5.61,4.86.56,7.42,3.9,7.83,8.31.71,7.54,2.15,14.93.93,22.79-2,12.81.05,25.7,2.28,38.42a30,30,0,0,0,2.25,6.95c3.64,8.1,10.23,12.16,18.89,12.53,8.86.37,15.4-3.75,19.43-11.63a30,30,0,0,0,2.89-14.2,95.3,95.3,0,0,0-3.22-24.79c-3.79-13.87-3.38-27.56,2.81-40.74a48.87,48.87,0,0,0,4.42-23.35c-.19-4.53-.64-9.09-.27-13.57,1.32-15.54,8.47-27.7,21.82-36a6.39,6.39,0,0,1,2.19-.35c4,2.18,5.54,5.94,5.62,10.33a53.27,53.27,0,0,1-.49,10.42c-1.48,8.35-1.6,16.69.59,24.85,2.08,7.76.72,15.19-1.22,22.58a144.33,144.33,0,0,0-3.52,18.43,148.28,148.28,0,0,1-3.95,18.34c-2.57,10-3,20,.33,29.84a41.47,41.47,0,0,0,5,10.3c4.84,6.95,13.63,6.64,18.18-.59a25.05,25.05,0,0,0,3.33-8.69,51.81,51.81,0,0,1,5.2-14.7,82.61,82.61,0,0,0,7.41-21.66c1.63-7.84,2.93-15.74,4.63-23.56,1-4.74,2.47-9.41,3.88-14.06.9-3,2.38-5.84,3.08-8.87,2.86-12.53,10.51-22.64,16.58-33.55.68-1.23,1.5-2.38,1.83-2.89,10.36,1.49,14,6.19,11.55,14.11a82.63,82.63,0,0,1-6.14,14.36c-4,7.48-6.19,15.52-7.63,23.74a136.36,136.36,0,0,0-2,18.69,52.93,52.93,0,0,1-5.42,21.07c-.6,1.26-1.12,2.56-1.78,3.78-4.37,8.15-4.62,16.55-2,25.3,2.08,6.9,1.9,6.95,8.79,12.19,6,1.55,11.1-.54,15.18-4.75a60.93,60.93,0,0,0,8.33-10.62,162.6,162.6,0,0,0,14.21-30.2c1.27-3.61,2.62-7.2,4.16-10.7a37.23,37.23,0,0,1,14.82-17.09,21.5,21.5,0,0,1,5.64-2.65,7.68,7.68,0,0,1,5,.23c1.36.69,2.15,2.5,3.33,4-.77,2.47-1.16,4.93-2.27,7-3.46,6.44-6.7,13.08-10.92,19-7.75,10.85-11.59,23.12-13,35.95a99,99,0,0,1-17.76,46.26,88.12,88.12,0,0,0-13.48,31.48,55.72,55.72,0,0,0,1.67,30.88c3.15,9.22,12.08,13.86,21.61,11.28,11.72-3.17,20.38-10.32,26.46-20.61a77.54,77.54,0,0,0,10.21-28.31,133.35,133.35,0,0,1,4-17.28,33.68,33.68,0,0,1,8-14.52,32,32,0,0,1,4.53-3.33,3.91,3.91,0,0,1,3,4.34c-.25,5.55-.2,11.19-1.21,16.62a170.74,170.74,0,0,0-3.24,28c-.23,12.23-2.7,24.2-4.93,36.16-1.48,8-5.49,15-10.21,21.56-4.86,6.79-9.6,13.67-14.44,20.48-6.69,9.42-8.5,20.48-10.17,31.47-.5,3.29.41,7,1.31,10.27a100,100,0,0,1,1.13,46.53c-1.16,5.78-2.37,11.72-2.29,17.56.31,22.38,2.05,37.16,13.71,57a60.25,60.25,0,0,0,10.06,13.26c7.8,7.47,15.47,15.07,23.33,22.46,9.48,8.91,17.7,18.58,22.55,30.95,2.91,7.44,6.75,14.52,10.37,21.66A170.72,170.72,0,0,0,647,2615.41c20.23,17.71,42.44,32.74,63.92,48.77,7.52,5.61,14.81,11.57,21.93,17.7a76.91,76.91,0,0,1,10,10.63,276.15,276.15,0,0,1,29.47,45.5c2.37,4.64,4.43,9.45,6.45,14.26.5,1.2.3,2.69.42,4.05-3.42-.7-4.72-3.82-6.72-6.06-8.34-9.35-16.48-18.87-24.83-28.2a141.85,141.85,0,0,0-26.48-23.51c-6.62-4.45-12.68-9.74-19.09-14.52-4.18-3.12-8.6-5.91-12.78-9-16.29-12.11-34.69-20.62-52.18-30.68-2.41-1.38-5-2.56-7.22-4.17-12.74-9.1-25.63-18-38.06-27.55C577.33,2601.48,565.22,2588,556.73,2571.71Z"/><path class="cls-1" d="M1331.61,2490c7-7.84,13.5-15.93,18.56-25.15,3.18-5.8,6.29-11.64,9.59-17.37,11.31-19.67,16.84-41.18,19.51-63.42a161.19,161.19,0,0,1,19.27-59.15,51.85,51.85,0,0,1,9.47-12.41c14.31-13.77,28.42-27.74,42.83-41.38,13.48-12.77,23.3-27.74,27.77-45.79,2.92-11.8,5-23.81,7.23-35.77,1.08-5.8,1.88-11.65.81-17.64-.41-2.3.24-4.82.56-7.22.86-6.55,2.29-13.07,2.6-19.65.48-10.43.41-20.9.25-31.35-.15-9.95-3.67-19.07-8-27.87a21.72,21.72,0,0,0-4.46-5.72c-6.57-6.4-13.17-6.88-20.75-1.82a15.27,15.27,0,0,0-5.68,7.31c-4,9.85-6,20.12-4.44,30.65,1.43,9.82,0,19.43-.79,29.1a56.82,56.82,0,0,1-2.34,11.22c-1.2,4-4.57,6.18-8.69,6.31-4.68.16-8.25-2-9.66-6.39-.94-2.95-1.94-6.17-1.66-9.15a113.44,113.44,0,0,1,3.2-19.51c4.39-16,3.64-31.65-2.67-47-.39-1-.83-1.92-1.23-2.88-3.24-7.88-4.75-15.92-3.13-24.49.57-3,.13-6.2-.06-9.31-.61-10.06-4.82-18.89-10.28-27A52.24,52.24,0,0,0,1393,2001.3c-6.39-3.86-13-2.8-18,2.55-3.42,3.65-5.87,7.84-6.11,13a100.1,100.1,0,0,0,0,12.49c.79,10.11,1.07,20.15-1.46,30.11-1,4.11-.55,8.29.29,12.44,1.8,8.84,3.48,17.72,5.26,26.58,1.16,5.79,2.48,11.55,3.58,17.35.84,4.44,1.93,8.91,2,13.39.14,6.12-.43,12.29-4.79,18.09-1-1.85-2-3-2.22-4.25-1.07-6.64-4-12.55-6.82-18.54a61.54,61.54,0,0,1-4.12-10.7c-1.81-7.07-3.36-14.23-4.66-21.41-1.86-10.3-3.93-20.51-8.16-30.15a40.23,40.23,0,0,1-2.13-5.89,76.57,76.57,0,0,0-10.7-22.54c-1.55-2.31-2.81-4.81-4.34-7.13a45.44,45.44,0,0,0-4.93-6.69c-3.66-3.75-8.34-5.28-13.4-3.91-7,1.9-12.71,5.84-15.61,12.76-2.1,5-1.71,10.34-.07,15.37a95,95,0,0,0,5.89,14.49,92.83,92.83,0,0,1,6.24,16.55c1.62,5.46,1.47,11,2.06,16.53,1.12,10.37,1.69,20.84,6.68,30.35.65,1.23,1.18,2.53,1.86,3.74,4,7.22,4.56,14.46-.27,22.63-4.74-.89-7.13-3.85-9-7.2-3.67-6.7-7.37-13.42-10.57-20.35-3.06-6.63-5.45-13.57-8.22-20.33-4.23-10.33-11-18.55-20.94-23.8a36.6,36.6,0,0,0-9.68-3.65c-12.27-2.43-20.4,9.45-17.91,19.28a41.94,41.94,0,0,0,3.78,9.68c3.66,6.73,7.76,13.21,11.5,19.89,2.2,3.93,4.66,7.87,5.93,12.13a133.27,133.27,0,0,1,4.44,20.35c1.45,10.82,4.12,21.21,9.25,30.84,3.6,6.75,7.55,13.32,11.58,19.82a71.3,71.3,0,0,1,11.12,38.59,19.59,19.59,0,0,1-8.75,16.86c-10.91-2.86-18.79-8.89-23.85-18.91a75.7,75.7,0,0,1-7.9-23.64,113.94,113.94,0,0,0-2.44-12.28,61.64,61.64,0,0,0-9.63-20.73c-2.89-4-6.43-7.32-11.24-9-8.28-2.84-13.77.08-15.64,8.45a25.15,25.15,0,0,0-.72,6.21c.16,5.57,0,11.21,1,16.66a187.45,187.45,0,0,1,3,29c.16,10.82,2.16,21.45,3.76,32.11a68.21,68.21,0,0,0,11.68,28.79c4.35,6.3,9.06,12.36,13.23,18.78,8.28,12.74,12.27,26.26,8,41.64a81.16,81.16,0,0,0-1.36,37.24c2.5,13,4,26.1,2.66,39.47a76.28,76.28,0,0,1-6.91,26.09,109.18,109.18,0,0,1-24,32.59c-4.59,4.26-9.3,8.4-14,12.59a90.33,90.33,0,0,0-19.67,25.52c-3.87,7.39-7.34,15-10.84,22.58a152.07,152.07,0,0,1-37.75,50.75c-6.26,5.54-12.5,11.13-19.14,16.18-15.51,11.8-31.36,23.17-46.9,34.93-9.7,7.36-19.52,14.67-27.73,23.74-4.88,5.4-8.89,11.58-13.6,17.16-10.45,12.36-17.67,26.72-24.91,41a252,252,0,0,0-13.65,32.74c-3.93,11.51-6.72,23.41-9.74,35.21a58.81,58.81,0,0,0-1.39,11.34c-.15,2.5,2.12,4.28,4.87,4.34s4.8-1.21,5.35-4c1.29-6.61,4.18-12.52,7.45-18.29,10.49-18.52,21.79-36.47,36.56-52,2.16-2.26,4.08-4.75,6.11-7.15,8.58-10.11,17.71-19.73,28.1-27.95a589.6,589.6,0,0,1,54.44-38.66c3.84-2.38,7.88-4.44,11.84-6.62,10.36-5.7,21.14-10.76,31-17.23,13.37-8.78,26.23-18.37,39-28.08a132.74,132.74,0,0,0,37.62-44.16,162.58,162.58,0,0,1,24.28-35.14c9-9.7,18.53-18.92,28.37-27.76A302.31,302.31,0,0,0,1331.61,2490Zm-310.38,269.26c-1.79-1.63-1-2.37.52-2.93C1021.59,2757.22,1021.43,2758.11,1021.23,2759.26Zm278.06-254c-15.34,13.71-29.58,28.55-41.7,45.23a196.71,196.71,0,0,0-12.69,20.36,139.76,139.76,0,0,1-33.29,39.84c-13.42,11.13-27.87,20.88-42.36,30.51-8.08,5.38-16.89,9.72-25.56,14.15-15.88,8.1-30.43,18.25-44.82,28.64-8.46,6.11-17,12.15-25.08,18.7a171,171,0,0,0-17.63,16.29c-9.48,10.19-18.42,20.87-27.69,31.25-2,2.24-3.29,5.36-6.72,6.06.12-1.36-.06-2.83.42-4.05,1.53-3.88,3.14-7.75,5-11.48a277.78,277.78,0,0,1,31.56-49.1,86.33,86.33,0,0,1,10.9-11.23,451,451,0,0,1,37.26-28.61c18.3-12.76,36.15-26.14,52.51-41.29a156.82,156.82,0,0,0,36.22-49.4c3.8-8.21,7.69-16.38,11.57-24.55,4.42-9.28,11.13-16.79,18.48-23.79,6.8-6.49,13.57-13,20.49-19.39a81.8,81.8,0,0,0,25-43.76c2.82-13.16,4.93-26.58,2-40.3-1.79-8.47-2.41-17.21-3.23-25.87a70.7,70.7,0,0,1,2.84-26.85c2.26-7.62,1.74-15-.1-22.62-2.23-9.3-5.49-17.9-11.39-25.49-2.78-3.56-4.88-7.67-7.78-11.11-10.06-11.88-14.65-25.8-16.55-41-1.25-10-2.23-20-2.7-30.13-.29-6.22-1.87-12.37-2.63-18.58-.68-5.51-1.15-11.06-1.46-16.61-.09-1.61.68-3.28,1-4.55,2.47-1.18,3.86-.07,5.15,1,4.92,4.26,7.66,9.93,9.45,16a123.71,123.71,0,0,1,4,17.27,77.48,77.48,0,0,0,10.21,28.31c6.08,10.3,14.74,17.45,26.46,20.62,9.54,2.59,18.45-2.05,21.61-11.28a55.78,55.78,0,0,0,1.68-30.87,88.26,88.26,0,0,0-13.48-31.49,98.84,98.84,0,0,1-17.77-46.26,79.32,79.32,0,0,0-13-36c-5.19-7.7-10.44-15.63-13.27-25.25,1-1.55,1.87-3.55,3.35-4.75,1.73-1.42,4-.74,6,.1,6.91,2.95,12.69,7.44,16.38,14a102.47,102.47,0,0,1,6.85,15.18,176,176,0,0,0,14.6,31.17,63,63,0,0,0,8.35,10.6,18.18,18.18,0,0,0,7,4.43c2.52.87,5.42.63,7.36.8,5.85-3,8.25-7.21,9.71-12.62,2.37-8.82,2.28-17.16-2-25.33-1.3-2.46-2.35-5.05-3.45-7.62a46.66,46.66,0,0,1-3.62-15.14c-.75-10.4-1.33-20.89-4.5-30.92-1.46-4.62-3.51-9.06-5.36-13.55-2.1-5.14-4.64-10.14-6.31-15.42-1.62-5.12.07-8.44,4.68-11.52a7.79,7.79,0,0,1,5.55-1.69c1.1,1.07,2.85,2.26,3.92,3.9,2.47,3.78,4.53,7.83,6.92,11.68,3.33,5.35,5.5,11.17,7.91,17,6.52,15.59,8.88,32.16,12.4,48.45A110.6,110.6,0,0,0,1356,2132c2.08,4.34,3.16,9.16,4.72,13.75.89,2.63,1.51,5.42,2.85,7.81,4.64,8.34,14.28,8.68,19.39.63a42.17,42.17,0,0,0,6.53-20.7c.31-6.28,0-12.54-1.92-18.6a111.06,111.06,0,0,1-4.43-22.5c-.46-4.13-1.58-8.19-2.44-12.27-.93-4.42-2-8.81-2.82-13.26a17.85,17.85,0,0,1,0-5.16,81.67,81.67,0,0,1,1.38-8.23,52.74,52.74,0,0,0,.45-20.72,66,66,0,0,1-.69-12.5c.11-5,.91-6,6.07-10.57,7,2.61,11.91,8,15.86,14.16,5.55,8.69,8.85,18.12,7.78,28.69-.28,2.77-.27,5.57-.38,8.35a46.84,46.84,0,0,0,4.43,22.3c6.18,13.19,6.61,26.88,2.81,40.75a83.92,83.92,0,0,0-3.13,24.78,41,41,0,0,0,2.11,12.25c3.16,9,10.51,13.72,20.12,13.65a21.28,21.28,0,0,0,19.32-13.55c2.67-6.56,3-13.59,3.86-20.45,1.14-9.33,1.55-18.77-.23-28.12-1.35-7.08,1-13.81,2-20.63.5-3.56,3.35-6,7.36-6.3,3.39,1,5.07,3.6,6.25,6.55,3.91,9.75,6.81,19.67,6.41,30.41-.52,13.57-.33,27.17-3.61,40.5a25.58,25.58,0,0,0-.43,7.27,99.88,99.88,0,0,1-2.37,25.91c-2.11,9.86-3.73,19.8-6.7,29.51-4.21,13.74-12,25-22,35-6.64,6.64-13.62,13-20.37,19.49-7.76,7.51-15.45,15.09-23.17,22.63-7.32,7.15-12.57,15.64-17,24.85-6.07,12.63-11,25.59-13.82,39.32a57.15,57.15,0,0,0-1.32,7.17c-1.15,15.74-5.19,30.87-9.67,45.88-4.61,15.43-23.25,47.7-34.06,59.51C1317,2488.55,1308.39,2497.15,1299.29,2505.29Z"/><path class="cls-1" d="M1671.63,1977.47c-5.32,10.78-13.27,19.48-22.8,26.66-15.58,11.73-31.29,23.27-46.45,35.55-16,13-30.81,27-41.81,44.84-12.56,20.33-19.79,42.2-20.53,66-.35,11.45.56,23,1.28,34.44.65,10.46,1.08,20.87-.66,31.26-2.89,17.25-9.33,32.77-22.31,45-4,3.82-8.06,7.73-12.43,11.16-15.74,12.34-29.25,26.82-41.34,42.66a59.58,59.58,0,0,0-11.35,24.45c-1.63,8.17-3,16.42-2.85,24.87.25,19.51.28,39,.19,58.54-.07,15.07-5.08,28.72-13.09,41.25-10,15.67-24.7,26.12-40.34,35.55-10.1,6.1-19.83,12.81-29.65,19.35a41.8,41.8,0,0,0-4.62,4.23c-1.8,1.64-3.44,3.55-5.48,4.84-5.72,3.62-9.85,8.71-13.86,14a143.57,143.57,0,0,0-20.49,36.23c-1.58,4.23-3.4,8.37-5.06,12.58a8.58,8.58,0,0,0-.28,2.09c.53,3,2,5.11,5.44,5.66a9.09,9.09,0,0,0,2.66-1.1,54,54,0,0,0,4.43-4.39c5-5.31,9.37-11.3,15.62-15.31,10-6.39,20.11-12.49,30-19,8.88-5.88,18.7-9.1,28.87-11.73,9.77-2.53,19.45-5.4,29.13-8.24a66.38,66.38,0,0,0,20.62-9.87c3.65-2.67,7.6-4.95,11.22-7.65,4.19-3.12,8.66-6.06,12.14-9.87,8.91-9.78,17.6-19.81,24.22-31.37,7.88-13.76,13.37-28.37,13.94-44.4.29-8.32-.2-16.66-.11-25a48.92,48.92,0,0,1,1.08-11.36c2.6-10.22,6.36-19.91,14.73-27.09,2.37-2,4.25-4.64,6.64-6.65,14-11.81,24.38-26.71,35.13-41.28a51.45,51.45,0,0,0,9.34-20.8c1.54-7.85,3.39-15.66,3.5-23.73a40.16,40.16,0,0,1,7.36-23.54c3-4.24,5.93-8.63,9.29-12.61,8.29-9.85,16.12-20,24.8-29.62,12.54-13.81,19.63-30.26,19.26-49.38-.25-13.58-.32-27.17-.71-40.75-.45-15.81,1-31.22,7-46.1,3.91-9.65,7-19.66,10.41-29.51a29.85,29.85,0,0,0,1.6-5,69.89,69.89,0,0,1,6.68-19.73c6.42-13.19,8.16-27.24,8.08-41.66a17.05,17.05,0,0,0-1.1-4.39C1676.09,1975.65,1673.86,1975.64,1671.63,1977.47Zm-8.68,38.69c-3.44,7.63-6.7,15.29-8.61,23.47a27.4,27.4,0,0,1-1.62,5c-5.62,12.4-8.65,25.7-13.34,38.43-4.14,11.27-5,23.11-4.9,35,.12,13.23.66,26.45,1.36,39.66,1,19-4.24,35.85-17.23,49.85-10,10.74-18.91,22.29-28.06,33.69a143,143,0,0,0-8.88,12.89,41.19,41.19,0,0,0-6,18.67c-.83,9-2.33,17.91-3.68,26.84a40.47,40.47,0,0,1-7.78,18.05c-5.57,7.57-11.13,15.16-17,22.53a117,117,0,0,1-9.31,9.86c-5.65,5.68-11.64,11.05-17,17-10.41,11.47-16.29,24.92-16.28,40.64,0,6.27-.18,12.55.05,18.81.76,21.11-6.48,39.62-18.48,56.47-4.64,6.51-10,12.47-15.11,18.68a5.72,5.72,0,0,1-.7.77c-13,11.18-26.26,21.78-43.15,26.54-10,2.83-20.06,5.74-30.13,8.47-8.12,2.19-15.92,5.07-23,9.58-8.52,5.41-16.94,11-25.47,16.35-1.92,1.21-3.44,3.36-6.13,3.14-.09-.71-.44-1.49-.19-1.94,1.82-3.36,3.45-6.89,5.73-9.93,5.41-7.22,11-14.21,18.42-19.74,6.95-5.17,13.13-11.35,21-15.26,2.14-1.06,3.89-2.92,5.85-4.36s3.77-3.22,5.94-4.18c11.65-5.15,21.16-13.47,30.77-21.4a84.41,84.41,0,0,0,22.55-29.73c6.56-14.07,10.1-28.82,9.72-44.46-.22-8.7,0-17.41,0-26.12a133.37,133.37,0,0,0-.51-13.57c-1.29-11.58.33-22.89,2.58-34.18a48.39,48.39,0,0,1,9.13-19.73c11.55-15.39,24.56-29.34,39.93-41a120.62,120.62,0,0,0,20.88-20.39c8.54-10.57,13-22.92,16.28-35.81,3.23-12.66,2.56-25.59,2-38.46-.42-10.42-1.74-20.82-1.8-31.23-.12-22.06,6.14-42.41,17-61.62,10.68-18.94,26-33.42,42.69-46.74,15.22-12.16,30.64-24.09,45.93-36.18,3.42-2.71,6.65-5.64,10.51-8.93C1667.09,2007.41,1664.91,2011.81,1663,2016.16Z"/><path class="cls-1" d="M452.91,2536.4a43.78,43.78,0,0,0-5.16-5.12c-3.94-3.43-7.89-6.85-12-10.1-3.26-2.59-6.68-5-10.1-7.35-3.7-2.58-7.48-5-11.2-7.57-2-1.37-3.82-3.19-6-4.14-8.74-3.81-15.8-10.09-23.58-15.32-10.13-6.81-17.57-16-23.56-26.21-6.75-11.47-11-24.05-11-37.68,0-16.37.06-32.75.17-49.13.07-10.11-.14-20.16-2-30.18a66.1,66.1,0,0,0-12.21-28.53,230.94,230.94,0,0,0-41.3-42.69,182.66,182.66,0,0,1-13.91-12.64c-9.23-9-14.85-20-18.37-32.31-3.9-13.6-4.33-27.44-3.22-41.43q.94-12,1.44-24a134,134,0,0,0-2.43-32.19c-5.57-27.48-18.8-50.9-38.11-70.73-13.61-14-29.43-25.57-44.82-37.54-8-6.2-16.42-11.79-24.32-18.07-8.75-7-16.62-14.83-21.34-25.28-.26-.58-1-.92-1.56-1.4a4.89,4.89,0,0,0-6.48,1.18,6.28,6.28,0,0,0-.81,1.92c-.67,11.93.16,23.83,4.44,35,4.37,11.37,8.2,22.89,12.3,34.33,4.46,12.46,8.37,25.08,12.66,37.58A63.48,63.48,0,0,1,154,2102c.68,8.32.65,16.71.61,25.06-.06,12.54-.39,25.08-.58,37.62-.31,19.89,7.32,36.75,20.59,51,10.25,11,19.14,23,28.56,34.64,1.53,1.89,2.79,4,4.2,6,5,7,6.86,15,7.47,23.54a210.07,210.07,0,0,0,3.12,22.73,52.86,52.86,0,0,0,10.21,22.66c3.57,4.72,7.16,9.43,10.62,14.23a134.43,134.43,0,0,0,17.84,20.43q7.68,7.08,14.84,14.72a38,38,0,0,1,6.78,9.17c4.54,9.46,8.37,19.15,6.68,30.11-.52,3.38,0,6.92-.07,10.39-.09,8.37-.19,16.81,1.76,24.93a111.13,111.13,0,0,0,19.22,41.41c3.78,5,7.87,9.77,11.75,14.69a81.48,81.48,0,0,0,17.71,16.11c2.86,2,5.86,3.78,8.64,5.88,8.47,6.41,18.06,10.39,28.19,13.23q15.58,4.36,31.21,8.56a68.2,68.2,0,0,1,19.12,8.19c8.54,5.38,17,10.91,25.7,16a83.82,83.82,0,0,1,21.23,18.34,45.28,45.28,0,0,0,4.16,4.68,23.4,23.4,0,0,0,3.91,2.45c3.85-.61,5.3-2.76,6-6.61-1.79-4.41-3.63-8.55-5.16-12.8C472.53,2563.42,463.54,2549.42,452.91,2536.4Zm-13.17,18.44c-4.09-2.66-8.3-5.12-12.44-7.68a85.29,85.29,0,0,0-23-9.67c-10.41-2.8-20.78-5.77-31.14-8.73-8.1-2.31-15.71-5.66-22.35-11a32.64,32.64,0,0,0-3.43-2.37c-17.91-10.74-30-26.86-40.07-44.53-7.46-13.14-11.62-27.51-11-42.95.26-7,.15-13.93,0-20.9-.27-15.25-5.79-28.51-15.94-39.73-5.36-5.93-11.44-11.21-17-17-4.57-4.76-8.93-9.73-13.16-14.8-3.34-4-6.14-8.47-9.52-12.43-7.73-9-11.85-19.57-13.34-31.22-.85-6.55-1.68-13.12-2.13-19.71a38.49,38.49,0,0,0-5.72-17.7A119.08,119.08,0,0,0,212,2243.2c-9.25-11.76-18.33-23.66-28.61-34.58-13.92-14.79-19.52-32.38-18.1-52.61,1.2-17,1.83-34.08.76-51.14a79.73,79.73,0,0,0-4.62-22.41c-4.65-12.73-8.5-25.74-13.13-38.5-3.91-10.78-7.46-21.67-12-32.23-1.21-2.81-1.78-5.89-2.92-9.79,1.63.61,2.52.73,3.12,1.21,10.58,8.49,21,17.14,31.67,25.54,15.58,12.3,31.62,24.14,45.42,38.41a128.56,128.56,0,0,1,34.71,66.65c2.29,12.1,2.06,24.09,1,36.32-1.15,13.85-1.8,27.91-.75,41.73,1.91,25.34,12.6,46.8,32.22,63.41,4.78,4.05,9.65,8,14.52,11.95,12,9.71,21.79,21.47,31.35,33.47a52.31,52.31,0,0,1,11.06,25.58c1.45,10.3,2.45,20.62,1.48,31.19-1,11.06-.39,22.27-.42,33.41,0,7.3-.05,14.56,1.19,21.85,4.41,25.94,16.77,46.89,38,62.55,3.08,2.27,6.05,4.7,9.14,7a49.26,49.26,0,0,0,7.78,5.23,69.7,69.7,0,0,1,16.56,10.76,6.63,6.63,0,0,0,1.69,1.21c10.41,4.6,17.94,13.08,26.72,19.86,7,5.39,15.17,17.41,19.87,28.9C451.88,2562.92,445.85,2558.81,439.74,2554.84Z"/><path class="cls-1" d="M822.37,238.68c5.53,4.79,11.07,9.57,16.67,14.27,17.34,14.56,34.65,29.15,52.09,43.59,7.51,6.22,11,6.12,18.48.35l.81-.66q25.25-21.12,50.49-42.24c6.92-5.82,13.72-11.79,20.55-17.67a42.4,42.4,0,0,0,.61-4.39q0-38.16-.15-76.32a79.06,79.06,0,0,0-.87-8.26c-3.88-3.86-7.46-7.66-11.3-11.18-12.06-11.07-24.23-22-36.34-33C925.17,95.61,917,88,908.73,80.56c-2.55-2.31-5-4.94-10.1-4.63a78.63,78.63,0,0,0-6.66,5q-31.35,28.43-62.57,57c-3.57,3.27-7.34,6.45-9.52,10.78-1.19,10.41-1.3,77.28-.12,87.15A33.73,33.73,0,0,0,822.37,238.68Zm72.12,43.38c-.07.55-.76,1-1.16,1.51-6.39-4.09-44.52-36.75-58.83-50.44,5.38-3.59,33.11-17.15,41.92-20.54,7,4.08,12.15,10.58,17.75,16C895,235.25,895.21,276.35,894.49,282.06ZM966,233.61a1.87,1.87,0,0,1-.48.91q-27.06,23.53-54.17,47a39.18,39.18,0,0,1-3.26,2.29c-.69-.75-1.45-1.18-1.5-1.68-.72-8-.52-46.38.26-53.48A174.29,174.29,0,0,1,924,212.47c8,2.05,14.64,6.57,21.78,9.9,6.86,3.19,13.92,6,20.25,9.84A8.29,8.29,0,0,1,966,233.61Zm4.52-73.38a12.87,12.87,0,0,1,.85,2.89c.58,12.67.1,50-.85,58.62-14.06-6.23-26.94-12.92-39.91-18.54a73.42,73.42,0,0,1,.05-28.19C938.58,171.1,964,161.67,970.55,160.23ZM906.36,99.32a13.12,13.12,0,0,1,1.07-3,11.3,11.3,0,0,1,2.9,1.18c9.14,7.34,51.64,46.52,55.07,50.69.06,1.78-1.35,2.26-2.61,2.74-12.29,4.72-24.6,9.42-37.4,14.3-6.86-5.2-12.58-11.64-18.27-17.53C906.27,140.81,905.73,107.44,906.36,99.32Zm-5.44,58.87a17.93,17.93,0,0,1,3.29,1.93c4.42,3.89,8.75,7.9,12.92,11.69,1.32,5.61.57,10.86.92,16s.58,10.35.86,15.58c-6.17,5.6-11.62,11.34-17.8,15.83a8.93,8.93,0,0,1-2.46-.85c-5.2-4.6-10.36-9.26-15.48-13.86-2-5.3-.27-10.48-.16-15.63s.26-10.42.39-15.32C889.35,166.1,893.63,162.32,900.92,158.19Zm-63-13.17q10.8-9.79,21.63-19.58Q874.28,112.18,889,99a42.74,42.74,0,0,1,4.11-2.9c.68.93,1.36,1.43,1.43,2,.7,5.43.32,42-.5,49.66l-17,16.92c-6.62-1.25-33-11.14-41.15-15.29C835.28,147.3,836.66,146.17,837.93,145Zm-7.69,15.69c.81-.2,1.53-.64,2-.46,12.68,4.62,25.33,9.3,37.67,13.86,2.29,7.62,2.46,11.31,1.36,27.69-5.62,4.86-13.21,6.63-19.91,10.06A223.31,223.31,0,0,1,831,221.48c-.67-1.46-1.2-2.08-1.2-2.69q-.14-27.58-.15-55.18A15.34,15.34,0,0,1,830.24,160.71Z"/><path class="cls-1" d="M936,2863.67c.63-12.89,1.49-25.7,5.76-38.07,2.16-6.24,3.71-12.69,5.52-19a89.44,89.44,0,0,0,3.59-20.53c.64-15,1.27-30-.75-44.88-1.82-13.43-4.5-26.77-7.28-40-4.55-21.8-10.18-43.36-12-65.69-1.3-16.37-.91-32.73-.49-49.09.23-8.69,1.49-17.35,1.66-26,.27-13.92.85-27.86-1.6-41.71-3.78-21.33-9.05-42.18-17.9-62a73.89,73.89,0,0,1-6.18-22.05,75.92,75.92,0,0,0-2.7-12.21c-.41-1.49-1.71-2.74-2.43-3.84-2.82.36-3.49,2.14-3.91,3.72a81.18,81.18,0,0,0-2.71,12.22,67.41,67.41,0,0,1-5.34,20.13,255.42,255.42,0,0,0-16.79,53.72c-1.79,8.89-3.52,17.78-3.6,26.87-.09,10.1,0,20.21.22,30.31.26,14.27,2,28.45,2,42.77a315.45,315.45,0,0,1-6.3,63.29c-1.59,7.84-3.74,15.56-5.41,23.39-5.38,25.21-10.55,50.39-9.82,76.46.43,15.1,1.83,29.8,6.82,44.15a162.83,162.83,0,0,1,8.71,52.3c.11,10.76,1.25,21.52,2,32.28a38.11,38.11,0,0,0,1.18,6.13c4.84,19.75,12.8,38.28,22.17,56.22a62.37,62.37,0,0,0,10,13.43,70.93,70.93,0,0,0,10.91-15.18,275.46,275.46,0,0,0,19.4-47.27c2.33-7.73,3.89-15.53,3.53-23.65a66,66,0,0,1,.3-7.3C935.06,2876.15,935.67,2869.92,936,2863.67Zm-4.76-40.82a117.89,117.89,0,0,0-5.77,38c0,5.55-.79,11.09-1.2,16.63a72.29,72.29,0,0,0-.55,9.38c.73,12.14-2.58,23.5-6.87,34.53s-9.38,21.71-14.17,32.52c-.38.85-1.22,1.49-2.68,3.23-9.39-18.25-17.11-35.69-21.43-54.46a66.37,66.37,0,0,1-1.15-9.26c-.57-6.93-1.12-13.86-1.52-20.8-.29-4.86-.46-9.74-.45-14.61a110.49,110.49,0,0,0-4.95-32.91c-2.24-7.32-4.68-14.6-6.51-22a96.26,96.26,0,0,1-3.11-18.46,291.1,291.1,0,0,1,0-33.42,264.19,264.19,0,0,1,4.51-32c2.84-14.68,6.57-29.18,9.56-43.84,4-19.46,7-39.05,6.62-59-.19-10.09-.1-20.2-.5-30.29-.38-9.38-1.56-18.74-1.83-28.12-.42-14.61-.65-29.23,2.18-43.73,4.07-20.86,9.19-41.37,18.35-60.67.7.22,1.71.25,1.86.62,2.84,7.09,5.77,14.15,8.3,21.35,5.35,15.15,8.57,30.85,11,46.67,1.84,12.07,1.37,24.34.89,36.52-.35,9-1.4,18-1.81,27.08-1,23.33-.92,46.6,2.5,69.82,2.54,17.26,7.56,33.95,10.63,51.06,2.27,12.67,5,25.27,6.63,38,1.12,8.94.74,18.07.86,27.12.18,13.31-1.24,26.38-5.95,39C933.16,2814.69,932.56,2818.9,931.22,2822.85Z"/><path class="cls-1" d="M827,2619.67a128.4,128.4,0,0,0,9.31-48.94c-.11-15-.11-30-5.2-44.39-2.67-7.53-5.71-14.94-8.6-22.39-3.77-9.72-8.16-19.26-11.21-29.2-5-16.2-3.12-32.39,2.33-48.21,4-11.51,8.13-22.95,12.35-34.37,3.57-9.66,4.5-19.53,3.73-29.78-.86-11.27-4.49-21.81-7.89-32.36-3.34-10.35-5.15-20.94-6.77-31.58a33,33,0,0,1,.27-11.43c1.64-7.93,1.58-15.95,1.76-23.93.27-12.22-1.09-24.18-5.64-35.82-5.35-13.67-15.9-23.55-24-35.2a2.82,2.82,0,0,0-1.62-1.25c-1.61-.17-3.24-.06-5.57-.06-.86,3.06-1.71,5-1.94,7.06-1.6,14.27-5.51,27.87-10.56,41.33a80.4,80.4,0,0,0-4.71,36c1,10.38,2.63,20.71,4.24,31a172,172,0,0,1-5,75.4c-5.7,19.72-11.33,39.45-16.69,59.26-3.27,12.09-5.79,24.32-5.68,37,.21,24,.74,48,4.17,71.85,1,7.21,1.67,14.51,3.12,21.64A188.61,188.61,0,0,0,759.65,2611c8.14,18.12,18,35.32,27.25,52.83,2.12,4,4.4,7.89,6.7,11.78q6.92,11.67,13.95,23.27c1.11,1.83,2.81,3.38,5.06,3.15,1.89-.2,3.7-1.16,5.91-1.91,0-2.52.31-4.63,0-6.61-1.53-8.31-.82-16.63-.69-25C818.06,2651.71,820.63,2635.48,827,2619.67Zm-12.6,1.81c-4.71,11.87-6.72,24.06-7.59,36.59-.31,4.49-.38,9-.56,13.58-1-.12-1.86,0-2-.3q-15.9-27.58-30-56.12c-9.82-19.92-16.14-40.72-18.09-62.86-.37-4.16-1.32-8.26-1.88-12.4-3.07-22.51-2.64-45.17-2.61-67.81a104.83,104.83,0,0,1,4-26.79c5-18.83,10.33-37.59,15.8-56.29,5.41-18.46,9.41-37.14,9.25-56.46a208.88,208.88,0,0,0-1.7-22.88c-1.31-11.06-2.81-22.1-4.71-33.07a54.79,54.79,0,0,1-.4-14.47,106,106,0,0,1,7.26-29.27,63.15,63.15,0,0,0,4.53-18.19c.12-1.64.81-3.24,1.64-6.42,12.93,13.28,18.45,27.8,19.28,44.44a152.52,152.52,0,0,1-1.39,31.24c-1.14,7.28-.51,14.48.26,21.82,1.55,14.72,6.77,28.41,10.85,42.39,4.37,15,4.23,29.42-1.65,43.93-3.92,9.67-7.33,19.55-11,29.33a86,86,0,0,0-5.69,30.63c0,2.09.08,4.2-.1,6.27-.81,9.29,1.62,18,5,26.41,3.66,9,7.33,18.06,11.21,27a138.86,138.86,0,0,1,8.68,26.78c1.29,6.1,1.66,12.4,2.33,18.62.22,2.07,0,4.18.12,6.27C826.37,2583.68,821.71,2602.93,814.36,2621.48Z"/><path class="cls-1" d="M983.08,2699.86c1.94,2.65,4.54,2.76,8.41,1.44,1.29-1.83,3.19-4.28,4.82-6.9,12.32-19.79,23.11-40.45,34.13-61,3.29-6.13,6.54-12.32,9.25-18.71a265.05,265.05,0,0,0,9.73-25.29c4.21-13.76,5.64-27.92,7.74-42,.88-5.84,1.85-11.7,2.15-17.58.78-14.95,1.13-29.92,1.79-44.87.64-14.76-1.6-29.16-5.43-43.31-5.37-19.81-11-39.53-16.7-59.25-5.42-18.88-8.17-38-7.12-57.73.81-15,3.09-29.77,5.37-44.55a66.79,66.79,0,0,0,.82-16.62c-1-10.42-2.67-20.73-6.88-30.43s-6.25-19.87-7.75-30.24c-.54-3.75-1.38-7.46-2.3-12.37-2.82.17-4.81-.29-6,.48a23,23,0,0,0-5.07,5.16c-3.87,4.93-7.54,10-11.37,15a69.07,69.07,0,0,0-14,35.47,145.72,145.72,0,0,0,1,39.56,38.18,38.18,0,0,1,.42,11.43c-1.34,9.64-2.62,19.3-5.65,28.63-2.35,7.28-4.55,14.62-6.52,22-4.06,15.17-4.19,30.19,1.56,45.1,4.25,11,8.18,22.2,12,33.39,5.42,15.82,7.22,32,2.24,48.21a190.56,190.56,0,0,1-10.9,28.19c-12.19,24.83-15.76,51-13.61,78.22,1.25,15.74,5.55,30.78,11.26,45.44a94,94,0,0,1,4.13,13.95c2.58,11.68,2.23,23.53,2.85,35.31.25,4.83-.37,9.71-.65,14.56C982.56,2693.65,981.68,2696.76,983.08,2699.86Zm-6.84-118.45c-1.94-20.23-.71-40.41,6.75-59.7,2.39-6.17,5.15-12.19,7.56-18.34,3.69-9.39,7.25-18.83,10.78-28.28a20.26,20.26,0,0,0,1.53-6c.67-16.42.52-32.72-5.78-48.36-3.9-9.68-7.07-19.65-11-29.32-5.59-13.84-5.92-27.77-1.65-41.92,2.31-7.66,5.15-15.18,7-22.94,3.75-15.58,6.75-31.15,3.72-47.48a99.13,99.13,0,0,1-.06-34.36c2.21-13.19,7.2-25.44,17.33-34.91a2.67,2.67,0,0,1,2.57,2.69,85.53,85.53,0,0,0,6.66,25.14c3.9,9.46,4.86,19.55,6,29.56a25.84,25.84,0,0,1-.57,7.25c-2.47,14.4-4.43,28.87-5.55,43.45-.37,4.86-1.19,9.69-1.29,14.55a153.18,153.18,0,0,0,5.26,41.32c3.72,14.49,8.33,28.74,12.2,43.19,3.5,13.1,7.65,26,9.91,39.47a153,153,0,0,1,1.92,28.09c-.17,10.11-.21,20.22-.68,30.31-.38,8-1,16-2.11,23.92-2,14.47-3,29.12-7.25,43.21a194.49,194.49,0,0,1-6.78,19.73,325.79,325.79,0,0,1-18.38,37.48c-5.57,9.63-10.54,19.61-15.81,29.42-.63,1.17-1.44,2.25-3.61,5.6-.33-5.81-.79-9.27-.68-12.71.26-8.09-1.24-16-2.69-23.82a80.67,80.67,0,0,0-4.7-14.89C981.62,2609.38,977.6,2595.6,976.24,2581.41Z"/><path class="cls-1" d="M1186.57,2226.3c1.31-6.46,3.75-12.72,4.73-19.21,2.79-18.56,6.57-37,6.75-55.91a48,48,0,0,1,.71-7.26c2.06-12.36-.11-24.26-3.87-36-.7-2.17-2.37-4-3.76-6.29l-5,1.27a15.54,15.54,0,0,0-1.48,3.27c-.63,3.42-1,6.88-1.62,10.32-1.7,10.3-3.15,20.65-5.23,30.87-2.8,13.73-8.75,26.38-14.2,39.2a104.05,104.05,0,0,1-18.38,29c-7.84,8.73-10.72,19.36-12.67,30.35-1.16,6.49-1.46,13.14-2,19.72a37.49,37.49,0,0,1-6.65,18.46c-7.29,10.62-14.7,21.15-22,31.76a62.6,62.6,0,0,0-4.24,7.2,170.16,170.16,0,0,0-14.39,40.19,88.76,88.76,0,0,0,.25,41.38c4.63,18.21,9.24,36.45,14.75,54.4,4.2,13.67,7.94,27.36,10.12,41.51,3.73,24.14.89,47.18-10.87,68.82-4.16,7.64-8.49,15.19-12.7,22.8a16.58,16.58,0,0,0-2.15,4.7,8,8,0,0,0,.42,5c.72,1.32,2.55,2,4.48,3.46a129.24,129.24,0,0,0,18.75-18.11c1.83-2.09,3.47-4.45,5.64-6.11a34.79,34.79,0,0,0,10.22-13,91.79,91.79,0,0,1,4.93-8c2.56-4.14,5.23-8.22,7.64-12.44,6.25-10.92,10-23,15-34.41a110.6,110.6,0,0,0,9.19-40.48,193.12,193.12,0,0,0,.11-19.84c-.45-7.27-1.91-14.48-2.47-21.76a198.16,198.16,0,0,1-.85-24c.44-9.71,1.46-19.51,4.76-28.75a160.3,160.3,0,0,1,8.43-19.08,126.13,126.13,0,0,0,14.07-54.11c.29-9-.09-18.1-.17-27.15-.08-9.4-.71-18.83-.1-28.18C1183.25,2242,1185,2234.12,1186.57,2226.3Zm-10.31-2.49a65.79,65.79,0,0,0-3,14.21c-1.41,12.05-2.8,24-1.57,36.33,2.34,23.34,1.24,46.63-7.66,68.82-3,7.41-6.47,14.63-10,21.78-4.42,8.83-6.81,18.21-8.17,27.89-.82,5.85-1.33,11.74-2,17.62a15.5,15.5,0,0,0-.06,3.12q1.5,16.1,3.06,32.17c1.43,14.95,1.48,29.86-1.27,44.68a15.18,15.18,0,0,1-.41,2.05c-6.52,19.09-13.17,38.13-23.15,55.78a70.72,70.72,0,0,1-4.88,6.64c-1.55-2.18-.61-3.76-.07-5.39a96.71,96.71,0,0,0,4.41-36,193.59,193.59,0,0,0-2.63-21.72c-2.13-12.34-5.77-24.3-9.36-36.31-5.38-18-9.9-36.2-14.73-54.33-3.59-13.5-2.35-26.92,1-40.22,4.21-16.65,10.72-32.2,21.14-46.12,6.87-9.18,12.72-19.11,19-28.71a29,29,0,0,0,4.8-12.57q1.2-10.35,2-20.74c1-11.67,3.9-22.53,11.9-31.56a108.68,108.68,0,0,0,19.28-32c3.76-9.35,7.29-18.8,10.86-28.22.62-1.65,1-3.35,3.17-3.66,1,3.87-.21,7.6-.77,11.34-1.28,8.6-2.79,17.16-4,25.76A150,150,0,0,1,1176.26,2223.81Z"/><path class="cls-1" d="M717,2406c2.37-9.07,4-18.45,2.87-27.91a196.18,196.18,0,0,0-3.63-20.54A131.63,131.63,0,0,0,700.31,2318c-6.55-10.66-13.75-21-21.16-31.06a45.35,45.35,0,0,1-9-24c-.84-10.7-1.43-21.48-5.55-31.73-2.23-5.56-4.66-10.72-8.61-15.32-4.3-5-8.75-10.12-11.83-15.89-8.21-15.36-15.72-31.15-19.77-48.19-2.73-11.48-4.39-23.23-6.4-34.88-.76-4.44-.79-9-2.83-13.72L609.6,2102c-1.06,1.49-2.25,2.5-2.58,3.74-1.95,7.38-3.71,14.81-5.52,22.22.88,14.58,1.64,29.18,2.71,43.75.38,5.19,1.58,10.31,2.31,15.47,1.67,11.72,2.64,23.61,6.44,34.87a102,102,0,0,1,5.47,31.72c.09,7.66-.11,15.32-.22,23-.12,8-.44,16-.39,24A131.19,131.19,0,0,0,632.3,2360c4.38,8.64,8.82,17.42,10.55,27.15,2.63,14.83,3.53,29.7,1.48,44.7-1.08,7.93-2.44,15.89-2.59,23.85-.37,19.59.81,39,9.34,57.22,2.8,6,4.93,12.26,7.42,18.39a177.91,177.91,0,0,0,16.19,30.31c5.51,8.46,10.6,17,18.39,23.74,5.76,5,10.56,11.07,15.89,16.56,1.16,1.2,2.79,2,4.46,3.09,1.58-1,3.27-1.63,4.32-2.83,1.48-1.7,1.2-4,.42-6a38,38,0,0,0-2.4-4.6c-4.55-8.22-9.39-16.3-13.62-24.68-6-11.9-10-24.52-10.82-37.89-1.18-20,2.22-39.48,7.85-58.69Q708.56,2438.31,717,2406Zm-29.13,61.26a161.52,161.52,0,0,0-7,33.64c-.49,4.83-1.31,9.65-1.48,14.5a97.09,97.09,0,0,0,4.77,34.94,32.16,32.16,0,0,1,.72,4.75c-1.55-1.18-2.49-1.6-3-2.33a88.66,88.66,0,0,1-4.94-8c-8.64-16.35-14.92-33.69-20.82-51.15a57,57,0,0,1-2.56-16.43c-.42-12.54-.61-25,1.45-37.46,1.4-8.55,2.42-17.37,1.93-26-.93-16.26-1.86-32.69-9.54-47.7-2.69-5.26-5.13-10.65-7.64-16a118,118,0,0,1-9.37-30.84c-2.74-16.25-2.47-32.53-.75-48.86a72.49,72.49,0,0,0,.1-14.58c-.84-8.64-2.22-17.22-3.43-25.82a21.1,21.1,0,0,0-1.2-5.06c-4.82-11.72-6.5-24.13-8.28-36.53-1.08-7.57-2.46-15.1-3.59-22.66-.41-2.71-.51-5.46-.75-8.19l1.73-.25a21.88,21.88,0,0,1,1.77,3.52c4.3,14.39,10.7,27.91,17,41.48,3.12,6.71,7.74,12.46,12.6,17.85,6.08,6.74,9,14.77,11.33,23.16a29.47,29.47,0,0,1,.94,5.11c.72,7.26,1.5,14.52,2,21.8a31.81,31.81,0,0,0,5,15.71c6.89,10.46,13.54,21.1,20.83,31.27,10.55,14.71,16.61,31.18,20.54,48.63,3.13,13.88,2.37,27.57-1.41,41.24C699.37,2427.15,694.34,2447.39,687.88,2467.25Z"/><path class="cls-1" d="M1513.72,1815c-5.49,8.89-8.63,18.06-8.56,28.5.08,13-2.36,25.55-6.19,37.93-2.6,8.41-6.74,16-11,23.58-11.26,19.72-13.08,41-9.38,62.7,2.63,15.4,7.51,30.38,13.47,44.87,4.35,10.6,9.54,20.86,13.19,31.76a11.68,11.68,0,0,0,1.72,2.28c1.44,0,3.5.51,5.3,0,2.23-.59,2.84-2.86,3.11-5,.17-1.38.15-2.78.21-4.17.58-12.5,1-25,1.81-37.5a61.18,61.18,0,0,1,5.77-23.13c4-8.11,7.77-16.33,12-24.32a126.4,126.4,0,0,1,10.21-17c8.47-11.32,13.9-24,18.43-37.24a59.12,59.12,0,0,0,2.37-27.71c-1.77-13.06-3.65-26.21-2.79-39.48.42-6.58,1.34-13.14,1.76-19.72a50.77,50.77,0,0,1,15.61-34.3c3.23-3.16,6.37-6.42,9.54-9.66a6.4,6.4,0,0,0,2.11-5.64c-.47-2.68-2.18-4.24-5.55-4.69-4.39,2.46-9.26,5.09-14,7.9s-9.51,5.76-14.14,8.83c-5.21,3.46-10.21,7.25-15.45,10.67A95.87,95.87,0,0,0,1513.72,1815Zm42.53-26.19c.43-.29,1.23,0,2.76,0-7.59,25.16-8.56,50.19-4.78,75.09,2.89,19-1.38,35.84-10.07,52.17a85.11,85.11,0,0,1-6.16,9.68,182,182,0,0,0-15.39,26c-3.22,6.55-6.5,13.08-9.66,19.67a61.08,61.08,0,0,0-6.08,20.91c-.63,6.88-1.68,13.72-2.75,22.2-1.79-3.47-3.23-5.45-3.88-7.65-3.84-13-8.37-25.88-11-39.13-3.82-19.18-2.49-38.13,7.38-55.72,1.19-2.13,2.25-4.33,3.48-6.43,7.5-12.8,11.47-26.85,14.25-41.24,1.05-5.43,1-11.08,1.35-16.63,1.37-19.19,1-16.74,10.48-32a60.26,60.26,0,0,1,17.17-18C1547.64,1794.69,1551.91,1791.7,1556.25,1788.8Z"/><path class="cls-1" d="M286.67,2045c2.14,2.55,4.62,2.91,8.33.84.63-1.41,1.31-2.62,1.74-3.92a207.76,207.76,0,0,1,9.92-24.09,130.18,130.18,0,0,0,6-15.55c2.51-7.59,4.55-15.33,7-22.93,4.5-13.84,4.28-28.1,4-42.36a40.25,40.25,0,0,0-1.74-9.2,104.8,104.8,0,0,0-10.17-25.07,116.12,116.12,0,0,1-11.66-27.82,133.31,133.31,0,0,1-4.36-33c-.05-6.34-.81-12.59-3.7-18.25-7-13.78-15.8-26.24-28.72-35.24-15.68-10.93-31.15-22.2-48.23-30.94a6.61,6.61,0,0,0-2.11-.25,5.17,5.17,0,0,0-4.25,4,5.83,5.83,0,0,0,1.63,5.75c3.86,4,7.8,8,11.68,11.94a47.54,47.54,0,0,1,13.21,26.71c1.3,8.92,1.87,18,2.37,27,.73,13.26-1.42,26.35-3,39.45-.79,6.62-1,13.1.79,19.64,3.92,14.55,9.57,28.26,18.08,40.78a228.79,228.79,0,0,1,12,19.52c4.48,8.24,8.57,16.72,12.44,25.27a59,59,0,0,1,4.06,12.86c2.81,14.38,3,29,3.49,43.61C285.65,2037.59,284.85,2041.47,286.67,2045Zm-15.87-107.2a64.72,64.72,0,0,0-6.21-9.65c-7.35-9.5-11.89-20.39-16.09-31.48a43.08,43.08,0,0,1-2.79-19.46c.86-9.36,1.82-18.71,2.49-28.08a199.9,199.9,0,0,0-2.59-46.8c-.72-4.39-2.33-8.64-3.69-13.53,1.22,0,2.33-.35,2.92.05,5.74,3.93,11.6,7.73,17,12.07,9.45,7.55,15.46,17.79,20.85,28.39a15,15,0,0,1,1.28,5c.52,4.49,1.1,9,1.22,13.5a129.37,129.37,0,0,0,15.67,57.88c3.41,6.43,6.28,13.17,9.11,19.89,2.59,6.17,3.31,12.68,3.41,19.4a117.51,117.51,0,0,1-4.72,36.06c-2.32,7.65-4.4,15.39-6.91,23-1,3.12-1.47,6.77-5.12,8.92-.9-7.1-2-14-2.57-20.85a51.69,51.69,0,0,0-4.84-18.05C283.44,1961.85,277.09,1949.85,270.8,1937.84Z"/><path class="cls-1" d="M1676.41,1724.21c-2.53-1.59-4.73-1.64-6.72.42a9.66,9.66,0,0,0-1.07,1.83c-4,13.55-11.06,25.4-20.17,36.15-8.1,9.55-16,19.27-23.88,29-11.21,13.86-18.48,29.34-19.09,47.5-.24,7.3-.8,14.58-1,21.88a112.41,112.41,0,0,0,.12,13.49c.64,7.26,1.89,14.47,2.56,21.73a81.62,81.62,0,0,1-7.35,41.65,38.62,38.62,0,0,0-3,15.18c-.15,4.87,1,5.84,7.38,6.53,4-4.32,7.56-8.1,11-12,1.39-1.55,2.57-3.28,3.8-5,7.15-9.81,14.14-19.75,21.47-29.42a81.53,81.53,0,0,0,16.86-44.15c.64-8.66,1.52-17.34,1.39-26-.16-11,3.06-21.28,5.7-31.69a46,46,0,0,1,4.3-10.6,96.18,96.18,0,0,0,8.63-23.41,112.37,112.37,0,0,0,.54-50.65A9.41,9.41,0,0,0,1676.41,1724.21Zm-6.83,37.12c-2.35,11.93-4.74,23.84-10.87,34.63a46.44,46.44,0,0,0-4.84,11.48c-3.18,12.77-7.17,25.35-7,38.82a195.41,195.41,0,0,1-1.8,27,66.31,66.31,0,0,1-13.95,33.23c-3.85,4.91-7.39,10.06-11.16,15a43.11,43.11,0,0,1-3.9,3.88c-.2-2-.55-3-.36-3.94,2.51-12.42,2.25-24.83.37-37.31a98,98,0,0,1-1.14-15.59c.12-12.85.21-25.73,2.39-38.46a42.35,42.35,0,0,1,2-8,87.63,87.63,0,0,1,14.65-25c10.93-13,21.4-26.47,32.11-39.71a19.12,19.12,0,0,1,3.14-2.29C1669.42,1757.55,1669.93,1759.53,1669.58,1761.33Z"/><path class="cls-1" d="M141.8,1834.4c1.34,9.59,1.5,19.39,1.66,29.11.34,19.91,6.93,37.34,19.47,52.73,5.48,6.72,11.16,13.42,15.53,20.85,5,8.54,12.49,14.75,18.43,22.94l6.76-2c.93-6.82.72-12.85-2-18.81-7.46-16.6-10.05-33.81-6.59-51.9a110.25,110.25,0,0,0,1.89-20.75c0-9-1.13-18-1.46-27.06a70.65,70.65,0,0,0-10.2-34.62,141.42,141.42,0,0,0-10.1-14.52c-8-10.07-16.28-19.94-24.49-29.85a98.54,98.54,0,0,1-17.7-31.69c-.54-1.61-1.25-3.17-1.72-4.33-2.77-1.9-5-1.84-8.12,1.19-5,25.73-3.23,50.86,9,74.79C137.69,1811.12,140.18,1822.72,141.8,1834.4Zm-10.11-79.18c1.28.81,2.35,1.18,3,1.92,10.94,13.49,21.67,27.16,32.79,40.5a90.55,90.55,0,0,1,14.47,25.17,20.94,20.94,0,0,1,1.42,5c2.46,20,4,40.07,1,60.25a89.36,89.36,0,0,0,.7,32.15,26.57,26.57,0,0,1,.27,4c-3,.45-3.68-1.9-4.78-3.33-3-3.84-5.46-8.07-8.6-11.75-11.32-13.27-16.25-28.87-17.37-46-.22-3.46-.44-7-.33-10.42.43-13-1.79-25.6-5-38.08a85.4,85.4,0,0,0-7.76-20.39c-6-10.81-8.33-22.74-10.22-34.78C131.06,1758.26,131.5,1756.9,131.69,1755.22Z"/><path class="cls-1" d="M162.18,1633.19a66.59,66.59,0,0,0,6.88,19.63c6.81,13.14,16,24.38,27.27,34.54,6.4-1,7.63-1.72,7.59-6a71.13,71.13,0,0,1,4-23.55,37.72,37.72,0,0,0,.94-5.13,149,149,0,0,1,5.94-23.2,35.21,35.21,0,0,0,1.88-9.15c1.35-17.81.63-35.44-4.3-52.81-5.61-19.74-10.81-39.59-16-59.44-2.66-10.09-5.37-20.19-5.06-30.81.05-2-.79-4-1.12-5.54-3-2.15-5.52-2.58-8.75,0-.38,2.12-1.58,4.89-1.23,7.46,1.52,11.12.57,22.27.55,33.38,0,9-1.14,18.05-2.05,27a25.94,25.94,0,0,1-2.33,8,97,97,0,0,0-5.49,16.85,39.8,39.8,0,0,1-3,8.88c-4.41,8.47-6.29,17.63-8.3,26.84-1.29,5.94-1,11.78-.26,17.63C160,1623,161.32,1628.05,162.18,1633.19Zm8-29.29c.46-8.07,3.21-15.61,6.14-23.09,2.28-5.81,4.23-11.76,6.23-17.68.67-2,.78-4.17,1.65-6,3.42-7.32,5.65-14.92,5.72-22.92a2.54,2.54,0,0,1,3.34,1.93,51.07,51.07,0,0,1,1.46,5c3.73,16.27,8.46,32.4,10.81,48.87,2.05,14.36,2.37,29.13-3.49,43.22-1.84,4.44-2.55,9.37-3.69,14.09-.74,3-1.25,6.12-2,9.15-1,4-2.17,8-3.45,12.68a25.63,25.63,0,0,1-3.44-2.88C174.85,1648,168.89,1627,170.21,1603.9Z"/><path class="cls-1" d="M1586.31,1630.08a131,131,0,0,1,5.48,21.16c.74,4.1,1.82,8.14,2.92,12.16a50.48,50.48,0,0,1,2.22,14.39,26.81,26.81,0,0,0,.6,6.19c.56,2.56,4.42,4.21,6.8,3.06a9.54,9.54,0,0,0,2.59-1.68,140.83,140.83,0,0,0,19.51-23.09c7.78-11.87,11.66-24.94,14.35-38.84,3.07-15.83.08-30.47-5.46-44.88a171.34,171.34,0,0,1-6.49-18.69c-1-4-2.79-7.85-4.06-11.82-1-3.3-2.31-6.62-2.7-10a315.08,315.08,0,0,1-1.41-57.29c.19-2.7-.57-5.47-1-8.18-.1-.6-.77-1.1-1.46-2h-7.34c-.56,3-1.19,4.65-1.14,6.31.31,12-3.1,23.38-6.18,34.82-5.33,19.82-10.22,39.76-15.72,59.53-4.67,16.75-4.61,33.72-3.39,50.8A30.85,30.85,0,0,0,1586.31,1630.08ZM1600,1567.5c2.2-7.68,3.3-15.67,5.33-23.4.92-3.52,1.2-7.51,4-10.25,2.36.51,1.91,2.16,1.93,3.29.08,5,1.45,9.61,3.06,14.23,1.7,4.92,3.34,9.86,5,14.78,1.46,4.27,2.57,8.7,4.47,12.77,7.32,15.74,8.52,31.91,5.44,48.92-2.62,14.51-9.1,26.9-17.77,38.43-.74,1-1.94,1.64-3.6,3-1.83-7.52-3.42-14.25-5.11-21-1.54-6-2.92-12.17-4.88-18.1a66.63,66.63,0,0,1-3.3-18.37A138.37,138.37,0,0,1,1600,1567.5Z"/><path class="cls-1" d="M881.43,2333.06c4.61,7.35,9.09,14.77,13.76,22.08,2.7,4.23,7.5,4.33,10.32.36.6-.84,1-1.83,1.55-2.7,6.38-9.93,12.66-19.92,19.2-29.74a84.86,84.86,0,0,0,13.16-32.62,52.1,52.1,0,0,0,.07-16.58c-1-6.48-3.16-12.79-5-19.1-2.39-8-5-15.89-7.54-23.84a173.53,173.53,0,0,0-10.79-27.07c-5.72-11.19-10.48-22.69-11.92-35.35-.16-1.48-1.67-2.8-2.59-4.24-3.86.81-4.6,2.67-5,4.82-.8,4.07-1.38,8.22-2.51,12.2a109.22,109.22,0,0,1-8.5,21.26,159.93,159.93,0,0,0-12.2,31c-1.63,5.67-3.68,11.22-5.38,16.87-2.09,7-4,14-6,21a39.48,39.48,0,0,0-.53,18.61c1.84,9.2,4.27,18.3,9.38,26.38C874.32,2322,877.92,2327.48,881.43,2333.06Zm-9-56.15c1.26-5.77,2.66-11.52,4.33-17.18,2.66-9,5.85-17.86,8.33-26.91,3.41-12.5,9.09-24,14.15-35.54,2.07-.84,2.64.25,3.33,1.57,8.83,17.13,13.67,35.69,19.43,53.93,2.42,7.63,5.2,15.12,6.48,23.08a34.09,34.09,0,0,1,.13,11.4c-1.53,9-3.73,17.69-8.84,25.43-5.38,8.13-10.61,16.35-15.94,24.5-.74,1.13-1.71,2.1-3.33,4.07-1.62-2-2.59-3-3.33-4.07-5.33-8.15-10.56-16.38-15.94-24.5-5.74-8.67-7.91-18.48-9.25-28.54A21,21,0,0,1,872.41,2276.91Z"/><path class="cls-1" d="M724.75,2275.4a24.56,24.56,0,0,0,.93,3.94,5.08,5.08,0,0,0,4.62,3.44,5.35,5.35,0,0,0,5.18-2.62,12,12,0,0,0,1.43-3.77c1.23-6,2.93-11.95,3.38-18,.71-9.46,1.41-19.06-1.55-28.34-2.17-6.79-4.12-13.73-7.11-20.16A188.56,188.56,0,0,1,716,2154.22c-1-7.81-1.46-15.55-.14-23.34a10.45,10.45,0,0,0-.46-2.7l-5.22-3c-1.3,1-2.38,1.41-2.86,2.21-5,8.44-10,17-15,25.42a66.09,66.09,0,0,0-7,18,64.32,64.32,0,0,0,2.3,38.12,76.09,76.09,0,0,0,16.4,26.81c2.59,2.69,4.87,5.68,7.47,8.37a43.09,43.09,0,0,1,11.37,21.29C723.55,2268.71,724.1,2272.07,724.75,2275.4Zm-10.51-43.84c-1.57-1.79-3.12-3.6-4.69-5.38-10.22-11.66-15.86-25.1-16.11-40.73-.18-11.22,3.11-21.4,8.87-30.88.26-.43,1.14-.49,1.74-.72.49.41,1.34.76,1.43,1.24,1.09,6,2.15,12,3.06,18,1.37,9.13,4.25,17.82,7.58,26.36,3.08,7.9,6.4,15.71,9.47,23.62a70.29,70.29,0,0,1,4.61,18.73,6.79,6.79,0,0,1-1.8,6c-2.66-3.08-5-5.85-7.41-8.59C718.75,2236.63,716.48,2234.11,714.24,2231.56Z"/><path class="cls-1" d="M1064.85,2279.12a6,6,0,0,0,5.61,3.68,5.51,5.51,0,0,0,5.14-4.2c.52-2.32.68-4.71,1.1-7,2-10.91,5.81-20.85,14-28.86a143.16,143.16,0,0,0,11.33-13.11,69,69,0,0,0,12.62-24.3c5-18,3.39-35.6-5.8-52.32-4.91-8.93-10.28-17.55-15.69-26.16-.33-.51-1.12-.73-1.73-1.1-2.72-.54-4.48.83-6.55,4.15a55.57,55.57,0,0,1,.7,20.13q-1.8,13.11-4.4,26.11c-2.23,11-6.73,21.33-10.9,31.74-2.91,7.24-5.91,14.51-7.92,22-4.33,16.24-1.95,32.36,2.12,48.33A5.74,5.74,0,0,0,1064.85,2279.12Zm6-35.09c.63-4.69,1-9.49,2.39-14a200.86,200.86,0,0,1,7-19.07c4.4-10.68,8.84-21.36,11.21-32.7,1.45-6.95,2.22-14.05,3.4-21.07.2-1.2.9-2.33,1.88-4.75,6.09,7.23,8.35,14.42,9.72,21.68,2.31,12.26,1.13,24.27-4.47,35.73a74.93,74.93,0,0,1-12.46,18.46c-5.72,6.18-11.08,12.71-16.5,19A2.67,2.67,0,0,1,1070.81,2244Z"/><path class="cls-1" d="M605.7,2391.73c-3.88-5.74-8.18-11.22-11.86-17.08-3.86-6.15-7.2-12.62-11-19.31-1.78,0-3.69-.53-5,.14a6,6,0,0,0-2.92,3.93c-1.05,10.08-4.35,19.65-6.2,29.54-2.6,13.94-2.67,27.63,3.23,40.88a46.8,46.8,0,0,1,2.2,5.85c2.29,7.83,6.68,14.43,11.82,20.63,5.77,6.94,11.44,14,17.22,20.89a49.27,49.27,0,0,0,4,3.78l6.38-2.23a23.13,23.13,0,0,0,.62-3.64c-.1-9.38-.34-18.76-.37-28.13a90.91,90.91,0,0,1,.56-13.52C616.62,2418.43,614.3,2404.44,605.7,2391.73Zm-2.14,37.52A198.26,198.26,0,0,0,602,2451a27.27,27.27,0,0,1-.83,3.9c-17.76-13.55-30.17-50.13-17.62-77a23.12,23.12,0,0,1,2.67,2.85c3.77,5.82,7.37,11.75,11.19,17.53C603.67,2407.79,605,2418.47,603.56,2429.25Z"/><path class="cls-1" d="M1186.88,2473.15c0,1.7,0,3.39,0,4.46,2.58,3.13,5.12,3.48,8.81,2.11,4.32-5.36,8.76-11.6,13.93-17.15,8.94-9.56,15-20.52,19.56-32.79,5.06-13.57,5.57-27,3-41-1.84-9.89-5.25-19.45-6.17-29.54a5,5,0,0,0-2.14-3.34c-1.33-.78-3.12-.75-5.3-1.19-2,3.46-3.53,5.79-4.84,8.22a118.22,118.22,0,0,1-11.72,18.39,93.8,93.8,0,0,0-10,15.85,48.94,48.94,0,0,0-4.79,13.66c-1.37,7.81-3,15.74-.53,23.74.59,1.93.34,4.14.33,6.22C1187,2451.61,1186.94,2462.38,1186.88,2473.15Zm16.64-74.77c4-6.09,7.81-12.29,11.78-18.39a10.72,10.72,0,0,1,2.18-1.88c12.36,26,.57,62.46-16.84,76.18-1.76-.44-1.62-2-1.67-3.21a201.09,201.09,0,0,0-1.55-21.73C1195.88,2418.58,1197.28,2407.89,1203.52,2398.38Z"/><path class="cls-1" d="M852.65,907.56c13.29,25.24,26.41,50.57,39.59,75.87.8,1.54,1.61,3.08,2.39,4.64,2.88,5.78,9.31,5.3,12-.44,1.74-3.79,3.88-7.39,5.8-11.1C924.1,954,935.69,931.4,947.57,909A25.79,25.79,0,0,0,950.74,896c-.14-11.49,0-23,0-34.46h-.16c0-11.14-.26-22.29.09-33.41a36.57,36.57,0,0,0-5.13-19.83c-12.85-22.7-25.39-45.59-38-68.41-.5-.91-1-1.82-1.6-2.68-3-4.41-8-4.24-11,.42-.94,1.45-1.67,3-2.52,4.56-2,3.65-4.1,7.27-6.12,10.93-10.63,19.17-21.19,38.37-31.9,57.5a27.51,27.51,0,0,0-3.91,13.83c.07,24.36,0,48.73-.14,73.1A20.59,20.59,0,0,0,852.65,907.56Zm42.14,49.63a22.63,22.63,0,0,1-.88,4.26c-4.86-6.85-27.69-49.83-31.42-59,3.22-8,13.23-24,18.35-29.08,4.33,7.61,8.69,15,12.75,22.62a13.31,13.31,0,0,1,1.15,6Q894.88,929.61,894.79,957.19Zm13.17,3.5c-2-.06-1.75-1.74-1.75-2.89-.06-18.38,0-36.76-.06-55.15a17,17,0,0,1,2.32-8.91c3.86-6.55,7.55-13.21,12.14-21.29,7,10.25,12.77,19.61,18,28.89C935.88,909.3,916,947.72,908,960.69Zm31.62-81c-4.76-4.6-7.29-8.59-12-19.1a118.84,118.84,0,0,1,11.8-20.08C940.64,852.37,940.66,871.79,939.58,879.73ZM906.44,766.68a6.45,6.45,0,0,1,.69-1.92c1.77-.67,2.35.78,3,1.84q13.74,23.89,27.4,47.85a34.67,34.67,0,0,1,1.58,4.09c-5.75,10.36-11.5,20.52-18.19,31.31-2.3-3.46-4.06-5.9-5.61-8.47-2.69-4.46-5.41-8.9-7.79-13.52a13.84,13.84,0,0,1-1.24-6C906.23,803.45,906.33,785.06,906.44,766.68Zm-7.64,74.23c.29-.48,1.15-.61,1.75-.9.58.33,1.39.51,1.69,1,3.93,6.53,7.79,13.1,11.66,19.65-2.91,8.67-8,15.56-12.1,22.83-1.49-.45-2.39-.44-2.7-.86a129.87,129.87,0,0,1-12.29-21.55C891,854,894.86,847.43,898.8,840.91Zm-35.17-26.77q14-24.37,28.07-48.66c.29-.5,1.11-.69,2.17-1.32a31.76,31.76,0,0,1,.82,4.94c.08,17,.06,34,.13,51a18.11,18.11,0,0,1-2.37,10c-3.81,6.18-7.51,12.43-12.14,20.11-7.13-11.33-12.85-21.52-18.32-31.67A30.86,30.86,0,0,1,863.63,814.14Zm-1.81,27.77a10.58,10.58,0,0,1,2.32,2.08c3.2,5.38,6.29,10.82,9.84,17l-10,16.85c-.53.88-1.11,1.73-2,3.15C860.16,872.82,860.17,850.71,861.82,841.91Z"/><path class="cls-1" d="M935.71,1060.35a39.8,39.8,0,0,1-16.91-26.66c-.49-3-1.91-5.86-2.94-8.91a42.21,42.21,0,0,0-31.05.09c-1,3.41-2.21,6.67-2.89,10a40.28,40.28,0,0,1-11.39,20.73,72.72,72.72,0,0,1-8.71,7.45c-4.94,3.56-7.18,8.23-7.27,14.25-.07,5.57-.57,11.13-.78,16.69-.51,13.57-.94,27.13-1.46,40.7a13.17,13.17,0,0,0,3.53,9.53c1.15,1.31,2.34,2.59,3.6,3.78a76.6,76.6,0,0,1,21.24,35.31c.85,3,2,5.89,3.28,9.69,2.32.55,4,1.3,5.62,1.27,8.65-.16,17.34.75,25.25-.49,4.52-3.22,4.64-7.76,5.76-11.64a77.94,77.94,0,0,1,10.89-22.42,64.68,64.68,0,0,1,10.88-12.59c4.41-3.86,6.78-8.51,6.27-14.72-.57-6.93-.25-13.92-.55-20.88-.43-9.73-1.68-19.47-1.45-29.18S943.74,1066,935.71,1060.35Zm-27.59,122c-4.89,2.15-9.61,1.68-14.54.6-2.38-5.89-4.36-11.8-7.12-17.32a102.26,102.26,0,0,0-9.28-15.08c-3.7-5-8.1-9.49-12.56-14.62-2-9.87.17-20.25.31-30.62.13-10.07.88-20.13,1.36-30.29,3.5-3.3,6.82-6.34,10.05-9.47,8.42-8.18,14.78-17.51,16.21-29.55a5.41,5.41,0,0,1,.83-1.9,13.68,13.68,0,0,1,1.78-1.61h11.27c.74,1.35,1.81,2.47,2,3.71,1.47,11.65,7.53,20.76,15.6,28.78,3.2,3.18,6.57,6.18,10.08,9.47,2.63,20.28,2.15,40.75,3.09,61.07C923.14,1148.91,912.89,1164,908.12,1182.35Z"/><path class="cls-1" d="M905.23,672.12c10.34-22.88,21.12-45.79,30.84-69-.77-2.13-1.24-3.79-1.94-5.35q-11.76-26.14-23.57-52.26c-1.73-3.8-3.54-7.56-5.5-11.24-1.73-3.26-2.71-3.42-7.74-2.06-6,9.9-29.83,62.57-32.39,71.94l30.41,67.62C898.82,674.39,901.4,674.51,905.23,672.12ZM907,565.92c3.7,4,9.36,16.32,14.16,31.07a39.65,39.65,0,0,1-13.8,0C905.66,588.6,905.57,575.61,907,565.92Zm-.51,42.83c5.43.81,9.87-1.25,14.11,1.06-.55,6-5.59,18.11-12.85,31.12-.47-.33-1.32-.63-1.35-1A229,229,0,0,1,906.49,608.75Zm-13.75-44c1,1.55,1.75,2.21,1.75,2.88.09,8.92.08,17.84,0,26.76,0,.62-.52,1.24-1,2.46-4.33,1.34-8.91.78-14.51.13C883.74,585.81,888,575.76,892.74,564.73Zm.83,76.41c-4.71-6.93-11.44-22-13.75-31,4.45-2.88,9.13-.77,13.54-1.1C895.29,617,895.32,633.54,893.57,641.14Z"/><path class="cls-1" d="M662.86,1537.55q-90.48-51.08-181.06-102a40,40,0,0,0-5.55-2.79,4.91,4.91,0,0,0-6,2.91c-.87,2-.53,4.58,1,5.76a46.18,46.18,0,0,0,5.24,3.36q77.72,43.95,155.45,87.88,75.93,42.94,151.83,86a129.69,129.69,0,0,0-7.87,19.43c-120.48-32.17-241.17-64.56-361.39-96.14-1.44.61-2.25.72-2.69,1.18-3.78,3.88-3.19,8,1.47,9.89a68.17,68.17,0,0,0,8,2.49c7.4,1.9,14.87,3.57,22.25,5.57,41.94,11.37,83.84,22.91,125.8,34.2q77.08,20.76,154.24,41.21l49.32,13.14a130.27,130.27,0,0,0-2.75,21.25l-1.38,0q-181.9-.12-363.79-.13a47.23,47.23,0,0,0-5.81.69,17,17,0,0,0-2.25,10.48c.44,5.9,1,11.79,1.55,17.68,2.94,30.07,10.94,58.86,22.79,86.54,16.78,39.22,40.84,73.61,70.62,104a402.6,402.6,0,0,0,61,50.68c36.44,24.9,75.79,44.07,117.43,58.54A615.31,615.31,0,0,0,798.24,2029c25.25,3.07,50.55,5.41,76,5.63,30.3.27,60.63.92,90.86-1.87,15.95-1.46,31.94-2.67,47.77-5,20.66-3,41.17-6.85,61.48-11.83,50.33-12.33,98.45-30.25,143.43-56.18,39.21-22.6,74.57-50,104.62-84,42.31-48,69.48-103.11,79.09-166.56,1.35-8.94,1.83-18,2.57-27,.31-3.81,0-7.58-2.33-10.65-9.1-1-316.06-1.59-370.87-.73a129.56,129.56,0,0,0-2.75-21.18c1.3-.31,2.6-.63,3.89-1q69-18.44,138-36.94l208.47-56q4-1.08,8-2.36a13.62,13.62,0,0,0,2.8-1.35,4.76,4.76,0,0,0,1.79-6.37c-1-1.62-2.86-2.68-4.22-3.87-14.65,3.84-28.77,7.5-42.87,11.24q-60,15.95-119.89,32-60.45,16.08-120.91,32.12-39.08,10.44-78.09,21.08a129.11,129.11,0,0,0-8-19.73q156.37-88.28,312.64-176.56c2.09-4,1.68-6.56-1-8.48-1.87-1.35-4-.92-6-.08a18.29,18.29,0,0,0-1.8,1.05q-21.79,12.33-43.62,24.65l-170,96q-47.73,26.94-95.43,53.92l-.14.08a131.63,131.63,0,0,0-16.68-21.74c4-5,8.37-9.67,12.81-14.31q26.76-27.93,53.42-55.94,34.2-36,68.27-72.12,44.58-47.06,89.14-94.11c6.71-7.08,13.3-14.28,19.85-21.51,2-2.27,4.52-4.48,3.92-8-1.94-2.32-4.29-2.57-6.51-.93a49.43,49.43,0,0,0-6.16,5.6q-22.58,23.25-45.06,46.58-23.17,24.12-46.24,48.34-45.49,47.61-91,95.23-19.48,20.42-38.91,40.88c-2.12,2.22-4.43,4.23-8,7.62.64-18-3.08-34-1.67-50.7,1.18-2.25,2.44-4.73,3.77-7.18q20.16-37.2,40.33-74.39,50.73-93.72,101.4-187.48c4.45-8.26,8.14-16.92,12.12-25.43.24-.51-.15-1.31-.34-2.62l-5.38-2a67.46,67.46,0,0,0-4.47,6.16c-7.89,14-15.8,27.89-23.49,41.94q-34.85,63.72-69.52,127.52-27.43,50.49-54.69,101.07c-1.48,2.73-3.18,5.33-5.18,8.66-2.05-2.7-3.86-4.75-5.31-7-4.93-7.78-11-14.32-19.15-18.84-2-1.12-3.68-3-5.61-4.58,1.84-6.77,3.53-13.13,5.31-19.47s2.55-13,5.57-19.11c3-1.16,5.83-2.44,8.8-3.38a43.34,43.34,0,0,0,13.76-7.33c17.4-13.63,23.76-36.6,4.84-57.4-.93-1-2.06-1.87-3.08-2.81l-4.65-4.36c1.24-4.94,2.37-9.66,3.62-14.35q14.1-53,28.23-105.94,15.12-57,30.07-114.13c3.7-14.14,7.22-28.34,10.77-42.52.15-.61-.21-1.34-.45-2.67l-4.74-1.43c-3.28,2.57-3.57,5.77-4.39,8.79q-22.95,84.67-46,169.33-12.44,45.86-24.76,91.76c-.63,2.32-.85,4.85-3.26,6.21-10.33-2.31-14.87-4.33-21.65-9.69a28,28,0,0,1,1.77-3.66,20.46,20.46,0,0,0,3.12-16.86,46,46,0,0,1,.07-19.72c1-4.42,1.37-9,2.31-13.37,1.81-8.59-1-15.75-6.45-22.19a32.53,32.53,0,0,0-14.71-9.61A55.43,55.43,0,0,1,922.36,1238a75.64,75.64,0,0,0-8.62-9.09c-8.72-7.54-17.59-7.54-26.3,0a87.92,87.92,0,0,0-9.3,9.88,53.62,53.62,0,0,1-23.64,16.59,46.32,46.32,0,0,0-8.48,4c-10.79,6.45-15.5,16.91-13.33,29.21.18,1,.52,2,.68,3.06,1.64,10.66,3.72,21.31,1,32.12-1,4,.26,7.54,2,11.06,1.17,2.37,3.55,4.28,3.31,7.16-8.61,5.82-13.94,7.92-22.57,8.81-.75-2.09-1.71-4.27-2.33-6.54-4-14.78-8-29.58-12-44.36q-17.89-66-35.82-132c-7.83-28.9-15.6-57.81-23.5-86.7-.61-2.23-2-4.24-2.82-5.94-3.56-.9-5.46,0-6.46,3.54,3.88,15,7.88,30.46,11.94,46s8.2,31,12.3,46.44,8.2,31,12.29,46.44,8.17,31,12.25,46.44,8.13,31,12.19,46.47,8.86,30.67,12,46.47c-1.92,1.62-3.52,2.9-5,4.26a38.41,38.41,0,0,0-12,20.44c-3.59,15.55,2.5,28,14.18,37.93a41.34,41.34,0,0,0,14.59,8,86.4,86.4,0,0,1,8.64,3.71c3.21,13.09,7.19,25.65,10,38.73-5.74,4.36-11.76,8-16.59,12.88s-8.48,10.89-12.93,16.79c-3.68-3.45-5.21-7.73-7.3-11.57q-27.21-50-54.26-100.12-30.64-56.48-61.4-112.9c-9.86-18-20-35.92-30-53.84a63.58,63.58,0,0,0-3.76-5.44c-3.38-1.25-5.41-.52-7,2.76,1.54,5.58,4.53,11.07,7.47,16.55q25.43,47.41,51,94.78,44,81.35,88,162.64c4,7.34,8,14.66,12,22.06-.31,8.12-.55,16.12-.93,24.12-.34,7-.81,13.9-1.26,20.84-.08,1.24.33,2.79-2,3.3-1.8-1.77-3.82-3.65-5.72-5.65-18-19-35.89-38-53.92-56.89q-49.41-51.82-99-103.51-33.64-35.08-67.55-69.91a70.45,70.45,0,0,0-6.84-6.44c-2.09-1.65-4.48-1.77-7.19,1,.37,3.72,2.54,6,4.65,8.29,8.28,9,16.49,18,24.87,26.83q43.13,45.54,86.34,91Q735.38,1512,796.6,1576.41c3.28,3.45,6.48,6.95,9.4,10.68a131,131,0,0,0-16.87,22Q726,1573.29,662.86,1537.55ZM436.14,1793.83c-.85-1.51-1.63-3.07-2.36-4.65a298.12,298.12,0,0,1-20-57.06c-3.44-14.57-6.47-29.26-7.21-44.28a34.81,34.81,0,0,1,.58-5.27,50.24,50.24,0,0,1,5.46-.61c5.57,0,11.13.23,16.69.23,30.24,0,60.48-.07,90.72,0,24.68,0,49.35.33,74,.41q50.69.18,101.38.2,37.35,0,74.71,0a129.81,129.81,0,0,0,3,22.73l-28.34,7.59c-14.44,3.89-28.87,7.83-43.33,11.69-14.79,4-29.6,7.81-44.39,11.79-14.45,3.9-28.86,7.91-43.3,11.85q-22.15,6-44.33,12c-14.78,4-29.6,7.82-44.39,11.8-14.45,3.89-28.84,8-43.32,11.76-14.74,3.83-29.22,8.68-43.85,11.77A14.75,14.75,0,0,1,436.14,1793.83ZM503.42,1887c-6.51-6.79-13-13.61-19.25-20.63a330,330,0,0,1-38.25-53.47c-1.33-2.28-2.93-4.57-2.86-7.78,2.61-.89,4.84-1.83,7.16-2.43,7.07-1.85,14.19-3.5,21.25-5.36q52-13.68,104-27.43,81.27-21.47,162.53-43,19.11-5,38.22-10.13a130.32,130.32,0,0,0,8.69,20.71l-57.76,32.65q-35.92,20.31-71.78,40.75-36.35,20.63-72.69,41.26c-23.9,13.59-47.78,27.22-72.07,41.06C508.06,1891,505.54,1889.2,503.42,1887Zm115.4,78.89c-27.7-10.24-88.94-50.83-100.14-66.42,3.93-2.27,7.8-4.57,11.73-6.77q54.24-30.37,108.47-60.74,59.21-33.29,118.31-66.74,16.48-9.3,32.94-18.64a131.65,131.65,0,0,0,17.15,21.66q-36.33,38.13-72.62,76.28-25.57,26.88-51.08,53.83-30.24,31.82-60.53,63.59C621.66,1963.38,620.1,1964.68,618.82,1965.87Zm100.46,37.22a542.88,542.88,0,0,1-86.44-29.9,20.73,20.73,0,0,1-3.47-2.56c3.72-4,7-7.53,10.35-11.05,3.59-3.8,7.22-7.56,10.82-11.35,3.35-3.54,6.66-7.12,10-10.67s6.72-7.07,10.1-10.58c3.62-3.77,7.29-7.5,10.91-11.26q5.07-5.28,10.09-10.6l10.76-11.41c3.35-3.54,6.69-7.1,10.07-10.62s6.81-7,10.19-10.5q5.43-5.65,10.8-11.37c3.35-3.54,6.69-7.1,10-10.64s6.7-7.09,10.08-10.61c3.63-3.76,7.32-7.46,10.93-11.24,3.37-3.53,6.65-7.14,10-10.69,3.6-3.79,7.24-7.54,10.84-11.33,3.36-3.53,6.68-7.11,10-10.64s6.81-7,10.18-10.51c3.17-3.31,6.31-6.66,9.45-10a131.53,131.53,0,0,0,21.53,15.18q-8.55,15.79-17.08,31.61-31.59,58.34-63.21,116.68-15.42,28.47-30.91,56.92C723.91,1998.64,723,2001.83,719.28,2003.09ZM801,2018.52q-8.29-.91-16.55-2.13c-15.83-2.35-31.57-5.15-47.17-8.78-1.73-.4-3.4-.78-4.35-3.5,9.26-18.42,19.89-36.76,29.83-55.46s20.24-37.36,30.38-56,20.36-37.29,30.43-56c7.35-13.64,14.91-27.19,22.37-41.09a130.38,130.38,0,0,0,17.72,6.67q-7.9,29.64-15.87,59.58c-6.89,25.9-13.58,51.86-20.69,77.7-7.19,26.12-13.45,52.51-21.64,78.5C803.67,2018.22,802.3,2018.67,801,2018.52Zm93.51-1.56c0,2.35.53,4.94-2.27,7.14-21.09,1.07-42.57-1.34-64.08-2.47-3.62-.19-7.64-.09-11.31-2.45.3-1.81.45-3.51.87-5.13,4.31-16.51,8.58-33,13-49.49q21.48-79.92,43.06-159.81a130,130,0,0,0,20.84,2.61q-.06,78.14-.11,156.28C894.51,1981.41,894.55,1999.19,894.51,2017Zm88.86,2.55c-11.81,2.9-46.57,5.26-71.64,4.82-2,0-4.23.42-6.33-2-1-4.17-.39-9-.39-13.85,0-30.31.15-60.62.2-90.94q.09-46,.07-92,0-9.09-.13-18.17a130.4,130.4,0,0,0,22.07-2.67q14.58,54,29.12,107.94,13.65,50.92,27.1,101.92C983.87,2016.23,984.6,2017.92,983.37,2019.51Zm80.78-12c-15.58,3.69-31.33,6.46-47.16,8.85-5.5.83-11,1.5-16.54,2.16-1.72.21-3.5.28-5.3-1.73-.66-2-1.65-4.61-2.36-7.27Q976,1947,959.21,1884.43q-11-41.12-21.84-82.24a131.11,131.11,0,0,0,17.68-6.65c1.46,2.51,2.91,5,4.21,7.62,4.22,8.4,9,16.52,13.47,24.78,4.66,8.57,9.27,17.16,13.92,25.73q6.72,12.4,13.48,24.79,7,12.86,13.92,25.72,6.74,12.4,13.47,24.79c4.65,8.57,9.25,17.17,13.91,25.74,4.49,8.26,9.21,16.4,13.49,24.77,4.37,8.57,10,16.51,13.32,26.13A25.14,25.14,0,0,1,1064.15,2007.49Zm15.65-4.67c-6.51-9.87-11.66-20.9-17.6-31.46-6.14-10.92-11.9-22.07-17.84-33.11q-8.67-16.1-17.37-32.18-9-16.54-18-33-8.73-16.08-17.42-32.17-9-16.53-17.9-33.08-4.65-8.52-9.32-17a131.83,131.83,0,0,0,21.56-15.19l12.23,12.83q12.62,13.24,25.22,26.5c8.19,8.57,16.42,17.08,24.58,25.67s16.23,17.27,24.4,25.85c8.41,8.83,16.93,17.55,25.35,26.38,8.17,8.57,16.27,17.22,24.43,25.8,8.41,8.84,16.95,17.55,25.26,26.47,8,8.57,16.68,16.49,23.92,25.88C1154.79,1980.75,1100.82,1999.56,1079.8,2002.82Zm102.36-36.26c-9-9.46-17.3-18.32-25.68-27.14s-16.86-17.62-25.27-26.45-16.8-17.68-25.2-26.51q-12.24-12.87-24.49-25.72-12.58-13.27-25.13-26.58t-25.19-26.52c-8.42-8.83-16.77-17.72-25.36-26.39-4.15-4.19-8.08-8.62-12.12-13a131.12,131.12,0,0,0,17.11-21.62q35.92,20.3,71.85,40.56,37.32,21,74.69,42l72,40.42c16.1,9,32.23,18,48.29,27.11,1.65.93,4,1.31,4.37,4.62C1252.43,1927.61,1219.15,1948.83,1182.16,1966.56Zm-151.3-283.78q49.42.09,98.83,0,58.47-.08,117-.21,20.85,0,41.72-.15c11.8,0,23.6-.06,35.4-.12l64.7-.38c2,0,4.24-.28,5.55,1.89,1.73,24.74-15.19,87.36-30.87,112-11.69-2.47-23.22-6.23-34.9-9.42-11.42-3.12-22.89-6-34.32-9.1-11.75-3.17-23.47-6.51-35.23-9.68-11.42-3.09-22.89-6-34.31-9.09-11.76-3.16-23.48-6.48-35.24-9.64s-23.58-6.14-35.34-9.31c-11.42-3.08-22.8-6.35-34.21-9.45-11.76-3.19-23.54-6.25-35.3-9.41-11.42-3.07-22.8-6.31-34.25-9.28-7.38-1.91-14.71-4.08-22.18-6A129.35,129.35,0,0,0,1030.86,1682.78Zm.09,35.7q62.58,16.57,125.17,33.07,77.73,20.49,155.49,41c13.12,3.46,26.29,6.75,39.4,10.24,2.55.67,5.47.93,7.14,4-.68,1.46-1.3,3.09-2.15,4.59a349.94,349.94,0,0,1-60.88,78,46.49,46.49,0,0,1-5,3.67c-2.46-1.35-4.6-2.49-6.7-3.69q-27.23-15.54-54.44-31.11-66.75-38-133.54-75.86-39.64-22.48-79.36-44.84a129.51,129.51,0,0,0,8.69-20.72Q1027.88,1717.67,1031,1718.48Zm-42.34-177.14c.08,8.34,0,16.69,0,25a32.88,32.88,0,0,1-2.47,12.21,132.17,132.17,0,0,0-15.92-11.87c5.34-9.52,10.45-19.41,16-28.83C988.89,1538.57,988.6,1540.21,988.61,1541.34ZM861.5,1465.8c1.51,2.21,2.68,3.79,3.71,5.46,8.83,14.23,27.9,23,44.17,19.3,10.8-2.43,19.68-8.63,26.59-17.39,1.28-1.62,2.29-3.45,3.61-5.46,5,.38,7.76,4,11.3,7.21-2.29,12.71-6.53,24.85-9.54,37.29-2.54,10.52-7,25.83-9.7,38a130.75,130.75,0,0,0-61.85-.1c-6.13-25-13.35-49.48-19.5-74.14C852.67,1471.11,857.48,1469.46,861.5,1465.8Zm-14.3-3.73c-3.54-7.17-4.58-14.71-6.77-23.26,7.72,2.54,12.9,7.38,17.26,15.56C855.37,1458.19,851.87,1460.57,847.2,1462.07Zm25.95-2.79a24.48,24.48,0,0,1,3.52-3c6.37-3.69,13.5-5.25,20.53-7.06a10.11,10.11,0,0,1,4.12-.3c9.9,1.7,19.49,4.26,27.63,10.1a14.73,14.73,0,0,1-5,11.58c-6.41,6.07-13.64,10.63-22.64,11.7-8.67-.85-15.7-5.07-21.95-10.8C876,1468.43,873.5,1464.75,873.15,1459.28Zm71.51-3.09c1.8-7.08,5.43-11.15,14.56-16.78.6,5.92-1.25,13.63-5.42,22.37C949.59,1461.49,947.53,1458,944.66,1456.19ZM900.5,1557.5a119.06,119.06,0,0,1,80.2,31q-1.22,1.79-2.51,3.52a48.75,48.75,0,0,1-18.58,14.86c-11.34,5.35-22.39,11.26-32.58,18.65a37.51,37.51,0,0,1-15.08,6.82c-3.74.72-7.38,1.94-10.9,2.89-1.26-.23-2.3-.32-3.3-.6-19.33-5.54-13-2.16-30.13-13.52-7.81-5.16-16.29-9.36-24.69-13.56-7-3.47-13.32-7.6-18.24-13.64q-2.24-2.73-4.2-5.59A119.05,119.05,0,0,1,900.5,1557.5Zm71.07-68.29a61.11,61.11,0,0,1,14.77,24.5c-7.67,15.86-17,31.24-25.4,47.66a129.69,129.69,0,0,0-20.26-8.53,1.77,1.77,0,0,0,.68-.81q6.74-24.66,13.36-49.35c1.54-5.7,3-11.43,4.63-17.12.26-.91,1.06-1.66,1.89-2.93C965.51,1483.63,968.73,1486.27,971.57,1489.21Zm17.3-114.81c.46-1.54,1.49-2.91,2.55-4.94,7.34,8.12,12.16,16.24,8.61,26.88-1.89,5.66-4.82,10.83-9.75,14.51-3.26,2.43-6.43,5.14-10.94,5.17C979.33,1408.35,980.79,1401.94,988.87,1374.4Zm-133.32-108c1.59-.68,3.25-1.23,4.83-1.93,9-4,17.26-9,23.52-16.82,2-2.44,4.14-4.7,6.26-7a37.53,37.53,0,0,1,3.63-3.72c4.41-3.63,8.93-3.73,13.31-.28a32,32,0,0,1,3.69,3.67c2.12,2.31,4.29,4.58,6.24,7,6.49,8.12,15,13.35,24.38,17.36,1.28.54,2.61,1,3.89,1.51,6.74,2.86,11.83,7.25,13.66,15.25-.46,2.24-1,5-1.56,7.66a104.2,104.2,0,0,0-2.16,33.17,31.2,31.2,0,0,1,.23,5.19,6.91,6.91,0,0,1-3.64,6c-4.87-2.13-7-6.56-8.91-11-1.51-3.5-2.8-7.11-4.07-10.7a25.86,25.86,0,0,0-9.3-12.33,118.25,118.25,0,0,0-13.2-8.34c-7.08-3.85-15.1-4.14-22.42-2.35-13.15,3.23-24.59,9.7-30.46,23-1.54,3.5-2.71,7.16-4.14,10.7-1.57,3.91-3.51,7.6-6.92,10.26a13.28,13.28,0,0,1-2.65,1.25,7.76,7.76,0,0,1-4-6,11.19,11.19,0,0,1-.09-3.11c1.89-14.72.14-29.14-3.52-42.71C843.87,1273.88,848.77,1269.33,855.55,1266.45ZM941.67,1342c-1.31,1.16-2,1.92-2.87,2.52a120.16,120.16,0,0,0-23.32,22.18,46,46,0,0,1-6.45,6.78c-5.56,4.56-11.45,4.44-17.08-.15a29.2,29.2,0,0,1-4.36-4.46,134.75,134.75,0,0,0-25.33-24.6,11,11,0,0,1-1.57-2.24,14.65,14.65,0,0,1,1.69-3.08,44.53,44.53,0,0,0,9.21-17.31c3.84-13.31,13.35-20.61,26.35-23.95,1-.26,2-.46,2.85-.64a35.66,35.66,0,0,1,15.66,5.74c6.4,4,11.27,9.09,13.45,16.57a64.67,64.67,0,0,0,4.55,11.6C936.35,1334.58,939,1337.87,941.67,1342Zm-123.57,73A31.07,31.07,0,0,1,802,1395.36c-.5-1.66-.88-3.36-1.36-5.24,1.21-7.93,4.08-14.12,8.94-19.32a4.53,4.53,0,0,1,1.12.61,4.92,4.92,0,0,1,1.18,1.67c3.73,13.76,7.42,27.52,11,41C821.32,1416.31,819.69,1415.72,818.1,1414.91Zm17.91,6.95c-5.74-17.78-9.77-35.75-14.76-53.44a24.09,24.09,0,0,1-.3-4.42c4.69-3.28,10.29-4.24,15.18-6.69s10-4.76,15-7.13a97.07,97.07,0,0,1,22.46,19.07c2,2.39,4,4.78,6.06,7.17.67.79,1.36,1.58,2.09,2.33,11.69,12,25.89,12.2,37.49.29,3.14-3.23,5.92-6.82,8.83-10.27a86.5,86.5,0,0,1,23.11-18.63c4.54,2.19,9.45,4.71,14.48,6.95,4.72,2.11,9.57,3.93,14.56,6,0,1.68.29,3.11,0,4.36q-6.84,25.68-13.85,51.31a39,39,0,0,1-1.61,3.87c-12.88,5.65-23.22,14.15-30.51,25.45-2.41,1.21-3.84-.2-5.26-.92-18.64-9.44-37.28-9.63-56-.26a43.71,43.71,0,0,1-4.34,1.6C860.45,1436.32,849.43,1427.62,836,1421.86Zm2.44,60.91c2.93.61,3.33,2.29,3.79,4q7.37,27.72,14.81,55.45c.93,3.45,1.94,6.88,3.06,10.67a130.4,130.4,0,0,0-19.87,8.37c-3.37-7.29-7.85-14.16-11.58-21.42-4.44-8.65-9.19-17.14-13.94-26C819.58,1500.7,826.27,1489.37,838.45,1482.77Zm-25,54.6c4.51,3.1,5.36,7.88,7.75,11.57,2.26,3.5,4,7.33,6.12,10.93,1.28,2.19,2.3,4.55,3.53,6.83a132.25,132.25,0,0,0-15.7,11.67,35.94,35.94,0,0,1-2.55-12.59q-.2-11.49-.15-23A34,34,0,0,1,813.43,1537.37Zm-1,59a57.28,57.28,0,0,0,22.29,19.41,315.8,315.8,0,0,1,37,21.46c8.9,6.07,19.3,8.52,29.74,8.2s20.74-2.65,29.55-9c10.76-7.79,22.4-14,34.27-19.94,9.47-4.71,17.67-11.11,23.46-20a119.5,119.5,0,1,1-176.33-.11Z"/><path class="cls-1" d="M893.85,467.33a24.75,24.75,0,0,0,3.12,2.75,5.88,5.88,0,0,0,6.81.08,31.81,31.81,0,0,0,3.9-3.43c7.43-7.77,14.88-15.53,22.18-23.42,1.58-1.7,2.58-3.94,3.7-5.7-4.15-7.45-12.29-16.77-26.95-30.75a43,43,0,0,0-5.53-3.92c-6.49,3.12-6.52,3.09-26.78,24.85-2.76,3-6.25,5.6-6.86,10.48a41.49,41.49,0,0,0,3.48,4.92C878.5,451.29,886.18,459.31,893.85,467.33Zm11-13.08c.5-6.27.78-9.83,1.1-14h12.21C915.94,446.47,911.75,449.65,904.87,454.25Zm9.8-23.24c-1.91.72-3.14,1.55-4.37,1.55-1.74,0-3.47-.62-5.91-1.13-.31-3.84-.59-7.33-1-11.84C909.16,422.54,912.43,426,914.67,431ZM895.1,420c1.92,5,1.92,5,.93,10.26-3,3.38-6.13,2.79-11.24-.06Zm-7.27,21.12c2.27-.2,4.57-.06,8.46-.06v13.24c-6.12-2.44-9.38-6.64-12.74-11.68C885.44,442,886.61,441.27,887.83,441.16Z"/><path class="cls-1" d="M1176.85,2689c-5.89,2.65-10.62,6.5-13.53,12.46-5.65,11.56-11.46,23-17.12,34.61-4.13,8.43-8.06,17-12.22,25.37a29,29,0,0,1-3.64,5.08c-9.2,11.37-18.17,23-29.42,32.46-5.32,4.48-10.74,8.85-16.34,13-10.64,7.84-21.28,15.71-32.22,23.13a136.24,136.24,0,0,0-29.45,26.4,132.29,132.29,0,0,0-19.65,33.14c-3.45,8.39-7.2,16.66-6.77,26a9.85,9.85,0,0,1-.3,2.06q-3,18-6,36c-1.2,7.2-1.75,14.59-3.73,21.57a132.5,132.5,0,0,1-18.41,39.59c-7.22,10.42-15.85,19.37-27,25.71-7,3.95-13.62,8.44-20.7,12.16-6.42,3.37-12.85,6.89-20,9.1-2.32-.93-4.6-1.74-6.8-2.73-12.4-5.59-23.91-12.78-35.56-19.72a73,73,0,0,1-21.43-19.62c-13-17.63-22.36-36.84-24.52-59-.17-1.72-.71-3.41-1-5.13-2.13-15.85-5.71-31.48-7.18-47.44-.31-3.4-1.59-6.76-2.73-10-1.26-3.61-2.76-7.15-4.33-10.64A141.15,141.15,0,0,0,778,2861.31a118.37,118.37,0,0,0-27-24.53c-13.13-8.6-25.53-18.14-38.2-27.33-17.46-12.67-31-28.92-44.26-45.52a14.09,14.09,0,0,1-1.69-2.64c-4.23-8.77-8.34-17.59-12.62-26.33-5.51-11.25-11.19-22.42-16.7-33.66-2.92-6-7.69-9.77-13.59-12.39-5-2.23-9-1.18-11.49,3.54-2.8,5.27-4.76,10.87-3.78,17,1.31,8.25,2.12,16.62,4.12,24.7,4.5,18.21,8.49,36.6,15.84,54,6.11,14.46,12.71,28.69,22.38,41.17a193.77,193.77,0,0,0,27.2,28.84c7.67,6.55,15.09,13.41,22.77,20,17.13,14.64,28.22,33.39,36.55,53.92,5,12.24,9.21,24.76,11.4,37.88a51,51,0,0,0,1.39,6.11c3.8,12.65,7.48,25.35,11.57,37.91,3.45,10.57,7.53,20.93,11.1,31.46a114.76,114.76,0,0,0,21.87,37.71,36.33,36.33,0,0,1,4.34,5.87c3.58,6.54,8.78,11.62,14.16,16.61,2.49,2.3,5.65,4.07,6.93,7.69a13.16,13.16,0,0,1-1.86,2.45c-10.83,8.92-19.85,19.47-28,30.82-13.26,18.47-17.69,39-14.56,61.37a52.08,52.08,0,0,0,2,8.09c3.74,12.15,11.21,22.34,17.48,33.16,1.46,2.51,3.83,4,7.61,4l3.15-4.1c-3-5.73-5.24-11.28-8.53-16.13-3.56-5.25-4.2-10.9-4.41-16.85a17.88,17.88,0,0,1,4.22-12.6c8.37-9.53,18.23-17.15,30.59-21,4.32-1.33,8.87-2.19,12.9-4.12,17.67-8.44,36.71-13,55-19.57a13,13,0,0,1,9.12,0c8.55,2.94,17.23,5.49,25.75,8.49,8.85,3.12,17.58,6.59,26.36,9.88,3.91,1.46,7.72,3.39,11.76,4.23,12.85,2.68,22.78,10.17,31.81,19,8.05,7.89,9.37,19.86,3.94,29.84-3.31,6.1-6.58,12.22-10.09,18.76l3.54,4.32c4.4-.63,6.8-2.95,8.61-6.11,2.25-3.92,4.25-8,6.84-11.72a70.66,70.66,0,0,0,9-18.77c4.33-13.2,4.5-26.65,1.48-40.18-4.08-18.28-14.4-33-26.76-46.5-5.37-5.86-11.23-11.27-16.94-17,2-3.67,5.4-5.69,8-8.44,3.82-4,7.64-8.09,11.16-12.38,3.08-3.75,5.64-7.93,8.62-11.77,7.71-10,14.49-20.38,18.61-32.44,5-14.81,10.82-29.37,15.68-44.24a329.26,329.26,0,0,0,9.42-34.18,211.65,211.65,0,0,1,13.92-43.63c8.07-17.86,18.19-34.47,33.45-47.4,8-6.74,15.66-13.82,23.54-20.67,12.43-10.79,23.81-22.63,32.53-36.56a201,201,0,0,0,26-61.23c.79-3.38,1.92-6.68,2.86-10,3.78-13.42,6-27.15,8.1-40.91.93-6.17-1.07-11.75-3.88-17C1185.89,2687.65,1181.92,2686.69,1176.85,2689ZM812.5,3088.18c-4.75-6.43-9.32-13-14.16-19.34a100.55,100.55,0,0,1-14.67-27.5c-5.6-15.71-11.76-31.23-16.15-47.34q-4.38-16.07-8.4-32.25c-4.65-18.89-10.84-37.28-20.47-54.46a151.6,151.6,0,0,0-32-39.52c-9.11-8.08-18.39-16-27.46-24.1-18.51-16.59-31.47-36.92-40.62-59.92-8.52-21.43-13.93-43.68-18.36-66.22-.74-3.75-1.52-7.5-2-11.28-.34-2.55.3-4.87,3.13-6,3,.4,4.85,2.39,6.17,4.92,4.36,8.32,8.8,16.6,12.93,25,5.81,11.87,11.32,23.88,17.07,35.79a34.14,34.14,0,0,0,4.36,7.07c9.42,11.18,18.59,22.55,29.4,32.5,9.25,8.51,19.5,15.72,29.43,23.33,6.9,5.28,14.23,10,21.51,14.77A115.21,115.21,0,0,1,768.78,2867c6.32,7.75,11,16.84,16.09,25.55a90.61,90.61,0,0,1,5.92,13.35,38.73,38.73,0,0,1,2.73,10c1.55,17,5.55,33.62,7.56,50.55.36,3.1.83,6.2,1.34,9.28A49.41,49.41,0,0,0,804,2984c4.79,13.81,9.85,27.52,18.17,39.74,8.72,12.82,19.09,23.86,32.71,31.65,9.66,5.52,19,11.68,29.11,16.31.57.26.94,1,1.8,1.91-.71.8-1.48,1.79-2.37,2.65a5.5,5.5,0,0,1-1.81,1c-9.86,3.6-18.72,9.1-27.82,14.21-6.08,3.41-12.22,6.62-17.58,11.15a38.71,38.71,0,0,1-4.19,2.76C824.49,3100.65,816.66,3093.8,812.5,3088.18Zm62.42,66.27c-9.19,3.11-18.46,6-27.54,9.44-8.74,3.3-17.39,6.77-26.35,9.57-10.76,3.36-19.26,10.8-27.62,18.16-2,1.8-4,3.66-7.36,6.7-1.83-15.92,2.35-28.69,9.59-40.34,8.65-13.9,19.23-26.31,32.53-36.13a33,33,0,0,1,3.07-1.75c1.58,1.12,3.32,2.2,4.88,3.5,9.66,8,19.91,15,31.54,20,4.65,2,9.46,3.83,13.47,7C879.8,3153.64,877.16,3153.69,874.92,3154.45Zm30.1-10.06a9.82,9.82,0,0,1-8.11.34c-18.57-7.86-37.48-15.12-53.27-28.23a21.45,21.45,0,0,1-2.44-3.06c3.79-4.68,8.21-7.38,12.81-9.88s9.07-5.16,13.61-7.73c2.42-1.37,4.83-2.78,7.33-4,6.88-3.35,13.8-6.62,20.72-9.9,1.55-.73,3.14-1.36,4.88-2.11,2,.91,3.9,1.72,5.76,2.6,6.29,3,12.59,5.94,18.84,9,2.81,1.37,5.54,2.91,8.27,4.44,4.55,2.55,9,5.23,13.61,7.72s9,5.24,12.75,9.74c-1.14,1.36-2,2.89-3.28,3.85-9.76,7.34-19.94,13.95-31.41,18.43C918.29,3138.26,911.7,3141.43,905,3144.39Zm75.7-16.19a149.74,149.74,0,0,1,24.58,29.49,61,61,0,0,1,9.63,38.62c-2,1.26-3.12-.51-4.15-1.59-5.31-5.56-11.48-10-17.7-14.46a51.07,51.07,0,0,0-16.8-8,152.9,152.9,0,0,1-17.58-6.34c-10-4-20.26-7.14-30.36-10.79-2.82-1-6.3-.83-8.82-4.87,9.22-4.52,18.24-8.26,26.53-13.21s15.84-11.08,24-16.88A50.17,50.17,0,0,1,980.72,3128.2Zm201.77-418.72c-3.21,13.52-5.38,27.24-9.28,40.66-3.3,11.36-6.48,22.7-10.84,33.72-9.09,23-22.16,43.29-40.65,59.9-5.43,4.88-10.88,9.76-16.47,14.46-11.2,9.43-21.94,19.32-31.17,30.73a60.82,60.82,0,0,0-4.8,6.8c-2.7,4.46-5.19,9.06-7.83,13.56-6.71,11.48-10.92,23.92-15,36.54-4.72,14.58-7.24,29.68-11.77,44.28-3.81,12.28-7.37,24.63-12.2,36.57-2.09,5.15-4,10.39-5.63,15.71-3.47,11.59-10.25,21.22-17.42,30.69-3.14,4.14-6,8.49-9.2,12.62a78.31,78.31,0,0,1-7.44,8.7c-4,3.86-8.3,7.38-13.36,11.82-8.61-7.45-18.17-11.82-26.84-17.5s-19.1-8.12-28.07-14.88c1.52-1.24,2.38-2.26,3.47-2.77,12-5.57,23.18-12.7,34.38-19.7,7.43-4.65,13.45-11,19-17.76a113.35,113.35,0,0,0,19.4-33.2c1.44-3.91,3.2-7.71,4.54-11.66a71.23,71.23,0,0,0,3-11c2.84-17.15,5.47-34.34,8.17-51.51a10.53,10.53,0,0,0,.29-2.07c-.46-11.25,4-21.17,9-30.72,4.67-8.91,9.58-17.91,15.81-25.72a103.93,103.93,0,0,1,26.48-23.47c15.42-9.56,29.66-20.75,43.89-31.9,9.86-7.73,18.06-17.3,26.69-26.41,12.74-13.45,19.86-30.06,27.82-46.26l16.11-32.76c1.55-3.15,3.26-6.13,7.87-6.73.73,1.27,1.9,2.61,2.23,4.12A11.9,11.9,0,0,1,1182.49,2709.48Z"/><path class="cls-1" d="M905.52,3093.36c-2.08-.11-3.8-.31-5.51-.26s-3.41.32-4.73.46c-3,1.93-5.6,3.65-8.24,5.29s-5.62,2.78-7.12,6.31c-.21,4.43-.44,9.25-.66,14.07a11.44,11.44,0,0,0,3.18,8.55c11.37,12,24.7,12,36.09,0a10.53,10.53,0,0,0,3.15-7.5c-.13-5.5-.46-11-.73-16.87Zm-15.14,16c2.5-2.87,6.33-4.27,8.74-6.08,3,0,4.41.69,5.25,3.7-4.33,2.59-8.35,5-11.93,7.13C889.52,3113.07,889.9,3111.42,890.38,3109.35Zm20.17,11.83a15.59,15.59,0,0,1-9.59,5.25c-1.68.24-3.37-.12-4.54-3.08l12.55-7.07C911.18,3118.53,911.61,3120,910.55,3121.18Z"/><path class="cls-1" d="M903.71,1069.19a16,16,0,0,0-3.47-.63,16.42,16.42,0,0,0-3.43,1,27.89,27.89,0,0,1-12.57,15.89c-.86,3.3-.56,5.57,1.91,7.07,2,1.23,4,.71,5.93-.28,3-1.56,6-3.23,8.7-4.71,4.43,2.35,7.72,5.88,12.53,5.67,3.88-1.36,4.58-4,3.31-8.09C910,1082.11,906.67,1075.6,903.71,1069.19Z"/><path class="cls-1" d="M899.86,1129c-3.38-2.42-6-6.13-10.41-6.44a8.12,8.12,0,0,0-2,.33c-2.58,3.1-2.58,3.1-2.52,7.62,5.63,3.27,8.9,8.86,10.86,14.71,3.21,1.88,5.77,1.87,8.71-.57.84-6.89,7.12-10.79,11.57-16.45l-3.57-5.48C906.57,1122,903.85,1126.28,899.86,1129Z"/><path class="cls-1" d="M1730.53,1025.16c-45.19-199.52-109.89-378.74-192.32-532.69-40.66-75.92-85.4-144.87-133-204.92-48.11-60.7-99.56-112.86-152.93-155-54.45-43-111.46-76.06-169.44-98.22C1023.25,11.55,961.9,0,900.5,0S777.75,11.55,718.16,34.32c-58,22.16-115,55.21-169.44,98.22-53.37,42.15-104.82,94.31-152.93,155-47.6,60.05-92.34,129-133,204.92C180.36,646.42,115.66,825.64,70.47,1025.16,23.71,1231.63,0,1450.94,0,1677s23.71,445.37,70.47,651.84c45.19,199.52,109.89,378.74,192.32,532.69,40.66,75.92,85.4,144.87,133,204.92,48.11,60.7,99.56,112.86,152.93,155,54.45,43,111.46,76.06,169.44,98.22C777.75,3342.45,839.1,3354,900.5,3354s122.75-11.55,182.34-34.32c58-22.16,115-55.21,169.44-98.22,53.37-42.15,104.82-94.31,152.93-155,47.6-60,92.34-129,133-204.92,82.43-154,147.13-333.17,192.32-532.69C1777.29,2122.37,1801,1903.06,1801,1677S1777.29,1231.63,1730.53,1025.16ZM1719.8,2326.41c-45,198.56-109.33,376.85-191.29,529.92-40.34,75.35-84.73,143.75-131.92,203.29-47.58,60-98.43,111.58-151.12,153.21C1136.12,3299.2,1020.06,3343,900.5,3343s-235.62-43.8-345-130.17c-52.69-41.63-103.54-93.18-151.12-153.21-47.19-59.54-91.58-127.94-131.92-203.29-82-153.07-146.32-331.36-191.29-529.92C34.62,2120.74,11,1902.24,11,1677s23.62-443.74,70.2-649.41c45-198.56,109.33-376.85,191.29-529.92,40.34-75.35,84.73-143.75,131.92-203.29,47.58-60,98.43-111.58,151.12-153.21C664.88,54.8,780.94,11,900.5,11s235.62,43.8,345,130.17c52.69,41.63,103.54,93.18,151.12,153.21,47.19,59.54,91.58,127.94,131.92,203.29,82,153.07,146.32,331.36,191.29,529.92,46.58,205.67,70.2,424.17,70.2,649.41S1766.38,2120.74,1719.8,2326.41Z"/><path class="cls-1" d="M1233.33,880.74c4.27,13.19,13.58,21.09,26.8,23.78,6.75,1.38,13.91.85,20.89,1,6.29.17,12.6-.15,18.86.25,5.9.38,10.78,2.66,12.53,10.23-2.61,1-5,2.22-7.57,2.69-4.11.77-8.44.54-12.46,1.59-5.34,1.4-10.9,2.88-15.59,5.64-8.21,4.85-12.15,12.8-10.72,22.27,2.5,16.61,10.32,29.57,28.2,33.91,5.43,1.31,11,1.94,16.49,3,8.14,1.61,9.81,4,6.47,11.41-4.65,10.36-1,18.42,6.07,25.58,2.6,2.65,6.36,4.16,9.6,6.17,2,1.25,4,2.47,6,3.66,0,3.29,0,6.08,0,8.86-.27,21.38,10.34,30.38,31,26.3,1.64-.32,3.27-.73,5.56-1.24,1.45,6.75,1.3,13,1.3,19.16,0,27.62-.34,55.25-.33,82.87,0,9.61-.76,18.87-6.69,26.95-1.55,2.11-2.3,4.5-.52,6.76s4.36,2,6.65.8c6.47-3.55,13.44-3.84,20.41-2.83,3.73.53,7.22,2.54,10.93,3.37a5.5,5.5,0,0,0,4.58-1.33c.91-1.05.7-3.16.75-4.81,0-.6-.54-1.27-1-1.83-6.24-8.36-7-18-6.74-28,.12-4.54,0-9.09,0-13.64q0-39.86.07-79.71c0-2.35.47-4.69.77-7.47,4.61.75,8.66,1.74,12.75,2,12.78.85,22.28-7.16,23.72-19.89a89.79,89.79,0,0,0,.14-9.43c0-2.39,0-4.78,0-7.52,3.26-1.53,6.11-2.75,8.86-4.16a28.65,28.65,0,0,0,13.33-14.3,18,18,0,0,0-1-17.1,7.8,7.8,0,0,1-.72-2c-1.08-4.13.23-6.69,4.47-8a68.84,68.84,0,0,1,7.21-1.32c4.46-.86,9-1.42,13.34-2.7,16.07-4.75,26.47-17.93,27.52-34.5.56-8.73-2.79-15.72-9.82-20.83a33.91,33.91,0,0,0-16.45-6.31c-4.17-.45-8.38-.71-12.5-1.45-2.58-.47-5-1.69-8.24-2.82,2.54-6.88,6.87-9.81,12.89-10.14,6.27-.35,12.57-.11,18.86-.24,6.63-.15,13.33.07,19.88-.77,11.55-1.49,20-8.25,25.6-18.1,4.52-8,5.56-16.66-.58-24.68-5.36-7-5-14-1.13-21.55a46.82,46.82,0,0,0,4.91-13.73c2.38-14.79-9.84-25.9-24.45-22.63-3.71.83-7.35,1.95-10.68,2.84a16.72,16.72,0,0,1-2.21-1.37c-10.14-9.28-15.12-9.75-26.9-2.75a32.32,32.32,0,0,1-7.54,3.58c-6.73,1.88-11.64-2.86-9-9.24,1.93-4.69,5.44-8.85,8.76-12.82,3.81-4.54,8.7-8.22,12.22-12.94,12-16.16,16-33.72,8.65-53.28-6.1-16.34-26.76-32.55-49.3-23.88-3.91,1.5-7.93,2.71-11.92,4-7.82,2.53-12.58.07-15.14-7.87-.86-2.66-1.32-5.46-2.31-8.06-5-13.11-12-18.12-26.13-18.53a58.11,58.11,0,0,0-9.42.41c-8.94,1.21-15.81,5.49-19.24,14.17-1.65,4.21-2.82,8.61-4.34,12.87-2.52,7-7.51,9.41-14.79,7.07-4-1.28-8-2.48-11.92-4-20.78-8.15-41.35,4.91-48.52,21.77-5.84,13.73-6.59,27.6-.25,41.68a67.84,67.84,0,0,0,14.84,21.35,121.34,121.34,0,0,1,9.41,9.84,26.34,26.34,0,0,1,4.76,8c2.24,6.63-2.24,11.43-8.89,9.43-3.6-1.08-6.85-3.36-10.16-5.27-7.57-4.37-14.59-4-21.43,1.33-1.85,1.46-3.52,3.15-5.24,4.71-3.51-1-6.48-2-9.51-2.75-16.66-4.15-29.42,8.62-25.11,25.25a40.07,40.07,0,0,0,3.83,9.73c4.59,8.11,5,15.68-1,23.39C1231.66,868.11,1231.26,874.34,1233.33,880.74Zm162.15,158.36q.27,72.87.32,145.73a26,26,0,0,1-.58,3.58h-9.46c0-4.87,0-9.33,0-13.78q.29-60.29.6-120.57c0-2.79-.11-5.59-.06-8.38.22-12.57-2.24-24.28-9.6-32.44l14.16-15.87,12.05,16.4,3-2.21c-1,1.34-2,2.65-2.91,4A40,40,0,0,0,1395.48,1039.1ZM1255,814.65c2.36.62,4.57,1.79,6.93,2.39,6,1.54,11.4,1.55,16.1-4s6.4-5.28,12.51-1.74c3.31,1.92,6.6,4.06,10.18,5.3a18.21,18.21,0,0,0,19.46-4.17c5.5-5.23,5.31-11.85,3.29-18.55-2.31-7.65-7.49-13.42-13.24-18.58-8-7.18-14-15.62-17.29-25.83-4.44-13.72-2.07-26.42,7.34-37.26,7.5-8.66,17.11-11.73,28.38-7.83,4.29,1.48,8.63,2.84,12.94,4.28,12.88,4.28,23.74-1.12,28.14-14.07,1.23-3.63,2.07-7.4,3.46-11a17.16,17.16,0,0,1,11-10.51c9.23-3.15,18.58.16,23.08,8.89,1.74,3.37,2.71,7.15,3.81,10.81,4.42,14.78,15.24,20.38,29.92,15.43,3.31-1.12,6.88-1.71,10-3.28,13-6.67,30.8,1.36,36.86,18,6.48,17.91.55,32.89-10.92,46.48-3.37,4-7.73,7.19-10.93,11.3a54.25,54.25,0,0,0-8,13.37c-2.5,6.5-2.19,13.26,3.4,18.44s12.36,6.48,19.5,3.92c3.57-1.27,6.84-3.43,10.16-5.34,5.75-3.31,7.81-3.64,11.77,1.23,5.15,6.31,11,6.51,17.84,4.19,2-.68,3.92-1.52,6-2,6.87-1.72,12.87,3.38,11.71,10.33a33.15,33.15,0,0,1-3.82,10.78c-6.16,10.8-6.08,21.09.79,31.59,4.29,6.54,3.75,11.14-1.23,17.09-4.38,5.22-9.57,9.22-16.79,9.57-5.58.28-11.15.67-16.72.84-7,.23-14,0-21,.48-8.23.53-14.5,4.78-19,11.61-4.74,7.26-3.32,14.09,3.8,19.12,4.75,3.35,10.24,4.07,15.87,4.69,5.16.57,10.5,1.2,15.27,3.07,7.92,3.09,10,8.49,8,16.8-2.89,12.16-10.16,19.64-22.62,21.74-3.44.59-7,.74-10.35,1.6-4,1-8.21,2.1-11.81,4.08-7.1,3.91-9.23,10-7,17.84.38,1.33,1,2.6,1.48,3.91,2.68,7.21.85,13-5.6,16.93-2.37,1.44-5.11,2.25-7.61,3.5-5.89,2.92-9,7.6-8.69,14.29.15,3.5.58,7,.43,10.48-.29,7.07-3.73,11.53-9.09,12.31-7.21,1-14.48-2.28-17-7.76-.14-.32-.26-.65-.37-1-3.17-10.26,3.87-26.49,13.63-31.4,4-2,8.2-3.93,12.09-6.24,2.08-1.23,4.24-3.43,2.4-6-.94-1.32-3.43-2-5.27-2.1-2.39-.13-4.82,1-7.23.93-10.32-.11-21.14-9.41-23.2-19.68a12.69,12.69,0,0,1,3.27-11.63c6.09-6.67,13.27-11.24,22.5-12.17,13.21-1.33,26.42-2.77,39.63-4.19a47.57,47.57,0,0,0,6.21-.86c2.53-.62,4.47-2,4.4-5a5,5,0,0,0-5.33-5.23,107.86,107.86,0,0,0-11.49.82c-10.77,1.16-21.5,2.65-32.29,3.53a45.09,45.09,0,0,0-24.19,9,21.77,21.77,0,0,1-3.77,1.61c-.19-2.44-.47-4.32-.48-6.21,0-11.54.23-23.1-.08-34.63a26.18,26.18,0,0,1,7.19-19.09c3.52-3.85,7.14-7.86,11.43-10.73,16.5-11,34.5-18.42,54.53-19.61,5.5-.32,11.1.66,16.62,1.38,3.8.49,7.5,1.65,11.28,2.34,4.81.89,7.46,0,7.84-2.75.58-4.1-2.6-5.43-5.53-6.54-3.82-1.43-7.78-2.49-13.12-4.15,3.68-2.58,6.5-4.38,9.13-6.43,3.83-3,7.67-6,11.22-9.35,1.84-1.71,2.89-4.12.55-6.44-2.11-2.09-4.37-1.73-6.66-.27-2.06,1.32-4.17,2.56-6.2,3.93-13.15,8.91-27.54,15-42.78,19.36-19.64,5.58-38.32,13.1-54.31,29-.52-3.49-1-5.33-1-7.18,0-17.84,0-35.68,0-53.53,0-7.91,1.67-15.43,6.17-21.87,6-8.58,12-17.22,19.09-24.91,8-8.75,17.14-16.45,25.75-24.65,2.71-2.58,6.54-4.28,7.15-8.58-1.06-2.92-3.18-4-5.8-2.7a48.05,48.05,0,0,0-8,5c-14.3,10.76-27.64,22.55-38.74,36.7-1.21,1.54-2.72,2.83-5.27,5.45-.18-4.65-.38-7.64-.4-10.63-.07-16.1,0-32.19-.16-48.29a31.31,31.31,0,0,0-1-9.3,5.92,5.92,0,0,0-4.51-3.31c-1.56,0-3.92,2-4.4,3.52a32.09,32.09,0,0,0-1,9.32c-.12,15-.11,30.09-.14,45.13,0,3.84,0,7.68,0,13.11-2.62-2.31-4.49-3.53-5.8-5.19-11.16-14.11-24.49-25.9-38.8-36.65a38.29,38.29,0,0,0-8-4.84,4.87,4.87,0,0,0-4.51,1.12c-.74.91-.58,3.54.25,4.51a68.09,68.09,0,0,0,7.64,7.14c13.26,11.46,25.67,23.69,36.36,37.67,8.82,11.53,13.76,23.92,13,38.8s-.16,30.08-.15,45.12v6.92c-1.61,0-2.52.29-2.87,0-14.84-13.55-32.67-21.24-51.73-26.56a155,155,0,0,1-44.67-20.25,34.19,34.19,0,0,0-7.22-4.16,5.18,5.18,0,0,0-4.53,1.39c-.85,1-1.14,3.65-.41,4.56a51,51,0,0,0,8.1,8.06c3.8,3,8,5.52,13.25,9.14l-6.38,2.13c-2.66.89-5.39,1.59-7.94,2.69s-5.28,2.84-4.27,6.25,4,3.33,7,2.76c2.4-.47,4.84-.81,7.18-1.51,15.74-4.71,31.17-3,46.27,2.54,14.12,5.21,28,10.86,38.65,22.34,6.49,7,10.24,14.56,9.8,24.45-.55,12.51-.13,25.06-.13,40.33-13.58-11.88-27.82-12.92-42.22-13.76-7.66-.45-15.27-1.75-22.91-2.59a51.12,51.12,0,0,0-7.31-.41,4.83,4.83,0,0,0-5,4.39,4.53,4.53,0,0,0,3.55,5.56,48.49,48.49,0,0,0,7.22,1.16q19.8,2.15,39.62,4.2c8.83.91,15.85,5.17,21.7,11.57,4.8,5.25,5.37,9.9,2.31,16.32-5.52,11.56-14.26,16.37-27,14.83-2.76-.34-6-1.38-7.27,2-1.46,3.84,1.82,5.62,4.48,7.17a59.36,59.36,0,0,0,9.43,4.56c8.25,3,11.78,9.4,13.23,17.43.56,3.09,1,6.22,1.24,9.36.65,7.56-4.2,12.86-12.41,13.71-8.39.87-12.82-2.33-13.91-10.44a47.72,47.72,0,0,1,.11-8.36c.52-11.82-1.15-14.65-11.64-19.61-1.27-.6-2.61-1-3.82-1.74-7.22-4.15-9.15-9.65-6.21-17.55,4.8-12.89.84-20.86-12.51-24.49-4.7-1.27-9.61-1.78-14.44-2.55-13.37-2.14-21-10-23.7-23.17-1.35-6.64-.07-11.15,5.76-14.14,4.23-2.17,9.13-3.17,13.84-4.22,4.06-.91,8.39-.72,12.38-1.83a26.29,26.29,0,0,0,9.19-4.66c5.26-4.22,6.3-10.14,3-16-4.38-7.81-11-12.66-20.15-13.23-7.32-.45-14.68-.14-22-.44a146.71,146.71,0,0,1-18.76-1.47c-7.37-1.26-12.31-6.41-15.85-12.66-2.37-4.16-2.54-8.51.54-12.8a29.56,29.56,0,0,0,4.84-9.22,27.5,27.5,0,0,0-2.07-20.38,53.1,53.1,0,0,1-5.07-12.55C1241.49,818.24,1247.62,812.74,1255,814.65Z"/><path class="cls-1" d="M253.19,881.56c4.64,13,14.05,20.74,27.39,23.13,6.47,1.16,13.23.72,19.87.87,6.28.14,12.59-.12,18.86.21,5.95.31,10.71,2.69,12.43,8.67-1.44,3.66-4.36,3.92-7.09,4.3-4.15.58-8.42.6-12.48,1.53-4.72,1.09-9.57,2.3-13.82,4.5-10.28,5.34-14.71,15.09-12.3,26.39,3.6,16.9,13.07,28.36,30.68,31.79,4.8.93,9.66,1.62,14.5,2.33,6.57,1,8.56,4.94,6,11.23-4.47,10.81-1.89,19.55,7.11,26.93,2.39,2,5.34,3.23,8,4.81l6.15,3.59c0,4.64-.11,8.82,0,13,.5,16.67,11.3,25.58,27.76,23,2.94-.46,5.86-1,9.1-1.55.26,2.25.55,3.62.55,5,.06,34.27.15,68.53,0,102.8a44.65,44.65,0,0,1-2.13,12.35c-.87,2.95-2.75,5.62-4.36,8.31-1.33,2.22-2.43,4.46-.68,6.78,2.16,2.87,4.91,1.84,7.55.65.32-.15.65-.27,1-.41a32.73,32.73,0,0,1,26.43.19,17,17,0,0,0,4,1.32,4.29,4.29,0,0,0,4.84-5.18,11.61,11.61,0,0,0-1.78-3.74c-5.35-7.53-6.37-16.1-6.26-25,.06-5.25,0-10.5,0-15.74q0-40.38.08-80.77c0-2,.41-4,.69-6.63,4.16.72,7.85,1.59,11.58,2,13.79,1.39,23.78-6.9,25-20.68.23-2.43.09-4.89.11-7.34,0-2.75,0-5.5,0-8.35,1.84-1.12,3.25-2.1,4.77-2.88s3.28-1.25,4.8-2.09c11.94-6.57,16.21-17.88,11.69-30.82-2.31-6.6-1.12-9.1,5.54-10.55,4.78-1,9.71-1.38,14.49-2.4,17.86-3.83,28.21-14.6,31.35-32.38,1.92-10.87-2.23-20.51-12-25.64-4.53-2.38-9.75-3.63-14.8-4.8-4.4-1-9.05-.93-13.49-1.85-2.07-.42-3.89-2.06-6.3-3.41,2.91-6,7-8.84,12.63-9.15,6.28-.34,12.58-.12,18.87-.26,6.63-.14,13.32.08,19.88-.73,11.56-1.44,20.07-8.15,25.69-18,4.57-8,5.7-16.65-.4-24.68-5.3-7-5.18-13.91-1.31-21.55a51.14,51.14,0,0,0,5.09-14.75C571,810,554.82,800.46,544.1,804c-3.61,1.19-7.33,2-11.15,3.07-1.17-1.08-2.17-2-3.19-2.91-8.51-7.49-14.76-8-24.59-2a48.32,48.32,0,0,1-7.4,3.88c-4,1.54-8,.79-9.62-1.69a8,8,0,0,1,0-9A95.49,95.49,0,0,1,497,783.73c3.67-4.21,8.16-7.75,11.5-12.18,12.41-16.49,16.2-34.38,8.42-54.22-6.26-16-26.73-31.58-48.78-23.15-3.91,1.5-7.94,2.69-11.93,4-7.92,2.57-12.69.21-15.27-7.63-.76-2.31-1.15-4.76-2-7.06-5-14.26-12.26-19.48-27.37-19.7a55.77,55.77,0,0,0-9.41.55c-8.52,1.34-15,5.62-18.31,13.87-1.67,4.2-2.87,8.58-4.37,12.85-2.52,7.15-7.46,9.62-14.67,7.32-4-1.27-8-2.45-11.92-4-20.49-8.21-41.23,4.44-48.61,21.54-5.91,13.68-6.72,27.56-.4,41.67A67.13,67.13,0,0,0,318.66,779c3,2.9,6,5.84,8.79,9a34.9,34.9,0,0,1,4.72,6.89c1.67,3.2,2.5,6.82-.23,9.78s-6.25,2.84-9.69,1.21c-2.51-1.2-4.95-2.56-7.33-4-9.11-5.5-15.78-5-23.82,1.94-1.27,1.1-2.51,2.23-3.74,3.33-4.11-1.15-7.79-2.16-11.47-3.21-11.18-3.18-26.18,6.83-23.9,21.45a49.11,49.11,0,0,0,4.9,14.8c4.15,8,4.23,15.17-1.37,22.47C251.12,868.35,250.81,874.9,253.19,881.56Zm161.7,162.59c.35,47.17.38,94.34.5,141.51a12.33,12.33,0,0,1-.7,2.56h-9.37v-7.09q.09-36.69.18-73.38c0-21-.16-41.93.16-62.9.19-12.33-2.15-23.61-9.72-31.91l14.66-15.41,15,14.27C417.16,1021.27,414.8,1032.15,414.89,1044.15ZM274.61,814.66c2.35.62,4.57,1.79,6.92,2.39,6.05,1.55,11.41,1.5,16.1-4s6.39-5.24,12.51-1.69c3.31,1.92,6.6,4.06,10.18,5.29,7.17,2.46,13.95,1.06,19.45-4.21s5.3-11.86,3.26-18.55c-2.55-8.38-8.52-14.41-14.75-20.05a55.85,55.85,0,0,1-15.77-24.37c-4.37-13.28-2.06-25.61,6.66-36.47,7.48-9.32,17.78-12.15,29.09-8.56,4.33,1.38,8.63,2.84,12.94,4.27,12.87,4.27,23.71-1.17,28.14-14.11,1.46-4.28,2.79-8.61,4.44-12.81,1.79-4.56,5.5-7,10-8.63,9.2-3.25,18.57.16,23.06,8.91,1.73,3.37,2.7,7.16,3.8,10.82,4.43,14.76,15.24,20.33,29.95,15.38,3.31-1.12,6.87-1.71,9.95-3.28,13.07-6.66,30.81,1.43,36.83,18.1,6.47,17.91.53,32.88-10.95,46.47-3.38,4-7.73,7.19-10.93,11.3a54.09,54.09,0,0,0-8,13.37c-2.49,6.51-2.17,13.27,3.43,18.43s12.38,6.46,19.52,3.89c3.56-1.28,6.83-3.44,10.15-5.35,5.74-3.3,7.76-3.62,11.77,1.28,5.16,6.3,11,6.47,17.84,4.14,2-.68,3.93-1.51,6-2,6.9-1.72,12.85,3.37,11.67,10.37A33.22,33.22,0,0,1,554,835.73c-6.17,10.8-6.41,21.34,1,31.49,4.29,5.9,3.08,11.29-.79,16.33-4.11,5.34-9.09,9.77-16.39,10.21-5.92.35-11.84.8-17.76,1-7,.25-14,0-21,.49-8.24.53-14.5,4.8-18.95,11.63C475.4,914.15,476.84,921,484,926c4.76,3.34,10.25,4,15.88,4.67,5.15.57,10.5,1.21,15.26,3.08,7.92,3.1,10,8.5,8,16.83-2.81,11.65-9.58,19.21-21.62,21.48-3.09.59-6.29.67-9.31,1.46-4.7,1.23-9.62,2.25-13.85,4.49-7.16,3.79-9.22,10-6.95,17.82.39,1.34,1,2.61,1.49,3.91,2.67,7.19.82,13-5.65,16.92-2.37,1.43-5.11,2.25-7.61,3.49-5.89,2.93-8.93,7.63-8.66,14.32.15,3.84.66,7.72.32,11.52-.75,8.64-5.5,12.2-14.24,11.19-8.21-.94-12.84-6.21-12.12-13.94a82.15,82.15,0,0,1,1.43-10.39c1.61-7.12,4.94-12.9,12.26-15.87a71.49,71.49,0,0,0,12.86-6.93c1.23-.82,1.81-3.6,1.53-5.3-.14-.93-2.63-1.68-4.18-2.12-.92-.27-2,.25-3.08.38-12.71,1.55-22.71-4.26-27.43-16-2.12-5.3-1.62-10.25,2.38-14.63,6.11-6.66,13.29-11.22,22.52-12.14,13.21-1.33,26.42-2.76,39.62-4.2,2.42-.26,5-.3,7.14-1.34a7.08,7.08,0,0,0,3.28-4.6c.44-2.7-1.37-4.78-4.17-5a44.92,44.92,0,0,0-8.35.31c-12.16,1.28-24.28,2.89-36.46,3.91a45.24,45.24,0,0,0-24.19,9c-.76.57-1.8.77-3.75,1.57-.19-2.44-.46-4.33-.47-6.22,0-11.55.23-23.1-.08-34.64A26.26,26.26,0,0,1,423,899.91c3.53-3.85,7.15-7.85,11.44-10.72,16.51-11,34.5-18.43,54.54-19.59,5.5-.32,11.11.63,16.61,1.39,4.84.66,9.57,2,14.4,2.76,2.29.37,4.38-.87,4.59-3.22a5.8,5.8,0,0,0-1.87-4.42,24,24,0,0,0-6.57-3.1c-2.85-1-5.8-1.77-10-3,3-2.24,5.18-3.78,7.28-5.38,3.89-2.94,8-5.66,11.58-9s4-6,1.87-8c-2.63-2.45-5.06-1.35-7.54.37-1.71,1.2-3.59,2.16-5.33,3.34-13.15,8.92-27.54,15-42.78,19.35-19.64,5.57-38.3,13.13-54.33,29-.5-3.54-1-5.38-1-7.23,0-17.5.08-35,0-52.48-.06-8.66,1.71-16.86,6.74-23.83A306.07,306.07,0,0,1,444,779.1c7-7.74,15.25-14.39,22.88-21.58,2.72-2.56,6.56-4.26,7.12-8.58-1.08-2.93-3.22-3.92-5.82-2.66a48.78,48.78,0,0,0-8,5C446,762,432.61,773.84,421.52,788a35.12,35.12,0,0,1-3.65,3.67c-.18.17-.64,0-2,0,0-3,0-6,0-9,0-16.1,0-32.19-.15-48.28a30.91,30.91,0,0,0-1.06-9.3,5.88,5.88,0,0,0-4.54-3.27c-1.56.05-3.89,2-4.38,3.54a32.89,32.89,0,0,0-.94,9.33c-.12,15-.11,30.09-.14,45.13,0,3.84,0,7.68,0,13.1-2.63-2.34-4.51-3.58-5.83-5.25-11.16-14.1-24.5-25.89-38.81-36.64a37.58,37.58,0,0,0-8-4.83,4.88,4.88,0,0,0-4.51,1.15c-.72.92-.53,3.54.3,4.52a69.06,69.06,0,0,0,7.65,7.14c13.26,11.45,25.66,23.69,36.36,37.67,8.82,11.53,13.69,23.93,13,38.8-.72,15.71-.14,31.48-.16,47.23,0,1.64-.23,3.28-.54,7.37-18.35-18-39.45-25-61.1-31.32a123.22,123.22,0,0,1-35-16.48,65.35,65.35,0,0,0-9.91-5.81c-1.13-.5-3.61.37-4.5,1.43s-1.09,3.6-.37,4.56a40.22,40.22,0,0,0,7.28,7.41c4.08,3.19,8.49,6,14.06,9.81-3,1-4.7,1.5-6.42,2.1-3,1-6,1.93-8.86,3.19-2.38,1-4.19,2.92-3.33,5.77s3.32,3.34,6,2.87a70.64,70.64,0,0,0,8.21-1.67c15.75-4.7,31.17-3,46.27,2.56,14.13,5.21,28,10.86,38.64,22.35,6.5,7,10.22,14.58,9.78,24.47-.55,12.5-.13,25.05-.13,37.49-1.36.14-2.25.53-2.63.24-8.64-6.56-18.48-9.52-29.17-10.43-11.48-1-22.94-2.29-34.41-3.43a43.79,43.79,0,0,0-6.26-.34,4.86,4.86,0,0,0-5,4.43,4.53,4.53,0,0,0,3.6,5.53A48.27,48.27,0,0,0,338,956q19.8,2.16,39.62,4.21c8.83.91,15.84,5.19,21.68,11.58,4.79,5.25,5.35,9.91,2.27,16.33-5.54,11.56-14.23,16.33-27.06,14.79-2.77-.34-6-1.37-7.26,2.08-1.41,3.85,1.87,5.62,4.53,7.16a60.18,60.18,0,0,0,9.43,4.55c8.25,3,11.77,9.43,13.21,17.45.55,3.1,1,6.23,1.24,9.36.64,7.56-4.22,12.84-12.46,13.68s-12.83-2.36-13.87-10.48a41.69,41.69,0,0,1,.21-9.4c.88-8.78-2.39-15-10.79-18.19a34.19,34.19,0,0,1-4.8-2.1c-7.16-4.11-9.46-9.85-6.08-17.52,6.35-14.39-2.52-22-12.64-24.52-4.73-1.18-9.61-1.77-14.44-2.54-13.38-2.15-21-10.07-23.68-23.19-1.34-6.63,0-11.15,5.8-14.13,4.23-2.16,9.14-3.15,13.85-4.2,4.06-.91,8.39-.73,12.37-1.84a26.08,26.08,0,0,0,9.19-4.68c5.25-4.23,6.27-10.13,3-16-4.39-7.81-11.07-12.63-20.16-13.21-7-.44-14-.19-21-.45-5.92-.21-11.84-.66-17.75-1.09-7.72-.55-12.81-5.43-16.87-11.24-3.12-4.46-4.17-9.48-.41-14.58,7.72-10.47,7.6-21.26,1.2-32.4a32.72,32.72,0,0,1-3.61-9.78C261.26,818.18,267.25,812.74,274.61,814.66Z"/></g></g></svg>