<?xml version="1.0" encoding="utf-8"?>
<!-- Generator: Adobe Illustrator 24.0.0, SVG Export Plug-In . SVG Version: 6.00 Build 0)  -->
<svg version="1.1" id="Layer_1" xmlns="http://www.w3.org/2000/svg" xmlns:xlink="http://www.w3.org/1999/xlink" x="0px" y="0px"
	 viewBox="0 0 2200 2200" style="enable-background:new 0 0 2200 2200;" xml:space="preserve">
<style type="text/css">
	.st0{fill:#FFFFFF;}
</style>
<g id="Warstwa_2">
	<g id="Warstwa_4">
		<path class="st0" d="M1246.6,1822.9c15.4-10,15.4-28.4,0.2-38.6c-4.7-3.1-10.2-4.9-15.4-7.2c-3.5-1.6-7.4-2.8-10.5-5
			c-6-4.2-5.8-8.2,0.6-11.5c5.1-2.4,10.5-4.3,16-5.7c7-1.9,13.9-4.1,19.3-9.2c6.9-6.6,7.3-14.2,1.2-21.5c-5-6.1-12-8.7-19.1-11.3
			c-8-2.8-9.1-6.7-4.2-13.5c0.5-0.7,1.2-1.4,1.7-2.1c4.5-6.4,5.1-13,0.5-19.2c-3.5-4.5-7.5-8.6-11.9-12.1c-11.2-9-25-11.5-38.4-14.6
			c-20.2-4.8-18.2-4.4-22.7-21.7c-2.8-10.7-9.3-17.9-19.6-21.8c-16.9-6.5-34.6-7.8-52.4-6.8c-12.3,0.7-24.5,2.4-36,7.5
			c-8.8,3.9-14.7,10.3-17.3,19.5c-0.8,2.9-1.5,5.8-2.1,8.8c-1.6,6.8-5.2,11-12.4,12.5c-9.4,2-18.6,4.7-27.9,7.2
			c-9.5,2.5-17.7,7.6-24.8,14.1c-11.1,10.2-11.8,17.2-3.3,29.7c0.2,0.2,0.4,0.5,0.5,0.7c2.8,4.5,2.2,7.9-2.3,10.6
			c-2.2,1.1-4.4,1.9-6.7,2.6c-6.4,2.2-12,5.4-16.2,10.9c-4.8,6.1-5,13.1,0.3,18.8c2.6,2.9,5.8,5.2,9.3,6.9c4.6,2.1,9.7,3,14.5,4.8
			c5.4,1.8,10.6,4.1,15.6,6.7c3.2,1.8,3.5,5.1,0.7,7.6c-3,2.5-6.3,4.5-9.8,6.1c-5.7,2.7-12,4.3-17.3,7.6
			c-17.2,10.7-17,30.4,0.5,40.6c6.8,3.9,13.9,7,21.4,9.3c12.6,4,25.5,6.8,38.2,10.6c5.4,1.7,10.6,4.1,15.3,7.2
			c4,2.6,3.4,6.9-0.4,9.8c-1.9,1.4-4.3,2.2-6.2,3.6c-8.1,6-8.6,15.3-1.4,22.4c5.1,5,11.4,7.9,18.1,9.6c19.3,4.9,38.7,8.9,56.8,7.9
			c28.2,0.3,38.7-2.6,60.8-7.8c7.4-1.7,14.2-4.9,19.6-10.5s6.1-11.8,1.3-17.8c-2.1-2.7-5.4-4.5-8.4-6.5c-5.6-3.8-6-8.4-0.3-12
			c4.4-2.6,9.1-4.6,14-6c13.3-3.8,26.8-6.8,40-11C1233,1830.4,1240.1,1827.1,1246.6,1822.9z"/>
		<path class="st0" d="M1713.1,1547.2c-3.8-2.4-7.8-4.5-11.8-6.5c-5.4-2.6-11.1-4.7-16.4-7.5c-11.4-6-12.9-11.9-5.3-22.1
			c8.5-11.3,9.1-23.2,3.2-35.6c-7.9-16.5-20.6-27.2-38.6-31c-13.2-2.8-25-8-35.5-16.7c-15.7-13.1-34.1-19.8-54.4-22
			c-24.7-2.6-47.9,0.9-68.7,15.7c-8.2,5.7-15,13.1-19.8,21.8c-4.1,7.3-8.5,14.5-12.9,21.6c-3.9,6.2-9.6,11-16.3,13.8
			c-6.3,2.8-12.9,5-19.2,7.9c-7,3.3-14.2,6.7-20.6,11c-6.2,4.2-8.2,10.5-6.5,18.3c1.6,7,5.4,11.8,10.6,16.2c4,3.1,7.7,6.7,10.9,10.7
			c4.4,5.7,3.5,11.4-2.2,15.8c-2.8,2.2-6.2,3.6-9.3,5.3c-5.3,2.9-10.8,5.3-15.8,8.6c-11.4,7.4-13.1,19.9-4.4,30.1
			c6.9,8.2,16.9,13.1,27.6,13.5c10.5,0.6,21,0.6,31.5,0.8c13.3,0.2,26.5,1.2,38.9,6.4c12.3,5.1,13.7,12.2,3.4,20.6
			c-12.4,10.1-12.2,26.7-2.5,37.6c7.8,8.8,17.7,15.5,28.8,19.6c19.4,7.3,39.6,10,60.2,10.8c8.7-0.6,17.4-0.8,26.1-1.7
			c17.8-1.6,34.8-7.6,49.7-17.4c7-4.6,13.1-10.2,14.6-18.7c0.8-4.9,0.3-10.2-0.7-15.1c-2.3-12.2,2.3-21.3,12-28
			c7.7-5.3,15.7-10,23.8-14.6c13-7.6,23.7-17.3,30.1-31.3C1728.8,1573.5,1725.4,1555.1,1713.1,1547.2z M1710.7,1590
			c-6.6,8.2-14.9,15-24.2,19.9c-7.4,3.9-14.6,8.3-21.5,13.1c-13.3,9.1-20.3,21.2-16.3,37.8c2.7,11.2-1.2,19-10.8,25.1
			c-12.4,8-26.4,13.2-41.1,15.2c-16.1,2.2-32.4,2.4-48.6,0.4c-1.3-0.2-2.6-0.8-5.9-1.9c9.1-3,16-5,22.6-7.7
			c13.5-5.5,24.3-17.3,22.7-36.2c-1.2-13.2,4.9-21.8,16.1-27.6c3.7-1.9,7.8-3.2,11.5-5.2c5.1-2.5,10-5.5,14.7-8.7
			c4.8-3.5,8-8.4,6.6-14.8s-6.3-9.2-12-10.9c-3.2-1-6.4-1.6-9.5-2.7c-12.1-4.3-14.6-11.5-7.7-22.2c5.8-9,4.7-14.5-4.3-20.2
			c-3.3-2.1-6.9-3.7-10.3-5.6c-10.3-5.5-11.8-15.4-3.3-23.6c2.3-2.2,5.4-3.8,8.1-5.7c4-2.7,8.1-5.2,11.9-8.1
			c5.4-4.1,7.1-9.9,4.9-16.1c-1.6-4.8-4.1-9.3-7.3-13.3c-6.7-8.1-15.2-14.7-24.7-19.3c-12.2-6-24.7-10.9-38-13.9
			c-4.4-0.9-8.7-2.3-12.9-4.1c-7.1-3.2-7.6-8.1-1.3-12.9c6.3-4.7,14-7.2,21.9-7.1c18.8,0,35.2,6.6,49.8,18.2
			c5.2,4.1,10.3,8.5,16,11.7c5.4,3,11.7,4.5,17.6,6.5c4.8,1.6,10,2.3,14.7,4.3c13.2,5.6,21.6,15.7,26.3,29.2
			c2.6,7.5,1.2,14.2-3.3,20.4c-2,2.6-3.9,5.3-5.6,8.2c-3.9,7.3-3.2,14.9,2.6,20.8c3.9,3.7,8.2,6.9,13,9.4c5.8,3.1,12.1,5.3,18.2,7.9
			C1719.6,1558.2,1721.4,1577.3,1710.7,1590L1710.7,1590z"/>
		<path class="st0" d="M724.4,1679.5c8.8-11.7,7.5-24.7-3.3-34.7c-1.8-1.5-3.5-3.2-5-5.1c-3.9-5.6-3.2-10.2,2.8-13.6
			c4.5-2.5,9.2-4.4,14.2-5.7c12.6-3.3,25.5-3.5,38.5-3.4c8.4,0,16.8-0.3,25.2-1.2c9.7-0.8,18.7-5.5,25-13
			c8.8-10.2,7.1-22.8-4.2-30.2c-5-3.3-10.5-5.7-15.8-8.6c-2.9-1.6-6-2.8-8.6-4.8c-6.7-5-7.6-10.6-2.6-17.1c2.5-3.3,5.8-6,8.9-8.9
			c2-1.8,4.3-3.3,6.1-5.3c10.2-10.8,9-24-3-32.5c-2.2-1.6-4.5-2.9-7-4c-9.4-4-18.8-8-28.2-11.9c-6.5-2.7-12.4-6.5-16.4-12.3
			c-5-7.1-9.7-14.5-13.8-22.2c-5.1-9.9-12.8-18.3-22.1-24.4c-16.1-10.5-33.4-15.9-52.8-15.6c-24.8,0.4-47.8,5.7-67.3,21.6
			c-11.5,9.3-24.3,15.1-38.7,18.3c-18.3,4-30.7,15.7-38,32.9c-4.8,11.4-3.9,22.3,3.5,32.4c1.4,1.9,2.8,3.9,4.1,5.9
			c2.3,3.8,2.2,7.7-1.1,10.7c-3,2.9-6.4,5.4-10,7.4c-6.4,3.3-13.2,5.8-19.7,9c-11,5.4-17.7,14-19,26.6c-0.7,6.9,1,13.2,4.2,19
			c4,7.5,9.2,14.2,16.2,19.1c7.1,5,14.9,9,22.2,13.8c6.5,4.3,13.2,8.5,18.9,13.8c7.8,7.2,8.6,16.8,6.2,26.7
			c-3.2,13.1,2.8,22.2,12.9,29.2c5.2,3.6,10.8,6.7,16.5,9.3c18.9,9.1,39.3,10.2,59.8,10.5c20.9-0.2,41.4-2.8,61.1-10.2
			C705.9,1696.7,716.5,1689.9,724.4,1679.5z M670,1434.2c-5,2-10.2,3.6-15.5,4.8c-13.6,3-26.3,8.6-38.6,14.9
			c-8.3,4.4-15.5,10.4-21.4,17.7c-2.8,3.5-5.1,7.4-6.7,11.6c-2.5,6.8-1.3,13.2,4.9,17.7c3.8,2.8,8,5.2,11.9,8
			c3.4,2.4,7.2,4.7,9.8,7.8c6,7.3,4.2,15.8-4.1,20.5c-3.9,2.2-8.1,4-11.9,6.5c-8.6,5.5-9.7,11.1-4.2,19.5c1,1.5,2,3,2.8,4.6
			c2.9,6.6,0.8,12.9-5.6,16c-3.8,1.7-7.8,3.1-11.9,4c-6.4,1.6-12.3,4.1-14.1,11c-1.9,7.5,2.5,12.8,8.2,16.7
			c4.5,2.9,9.3,5.5,14.2,7.8c3.7,1.9,7.7,3.4,11.4,5.4c10.5,5.6,16.1,14.1,15,26.4c-1.2,13.3,3.2,24.6,14.5,32
			c5.7,3.8,12.4,5.9,18.8,8.5c3.2,1.3,6.8,2,10.2,2.9c-0.1,0.8-0.2,1.6-0.3,2.4c-8,0.6-16,2.1-23.9,1.7c-13.2-0.7-26.3-2-39.4-4
			c-12.1-1.8-22.6-7.9-32.6-14.7c-7-4.8-10.6-11.3-8.7-20.1c0.3-1.5,0.4-3,0.7-4.4c3.2-15.1-3-26.6-14.7-35.2
			c-7.9-5.5-16.1-10.6-24.6-15c-9.6-5.1-17.9-12.4-24.3-21.1c-4-5.5-6.1-11.6-5-18.6c1.3-8.9,6.5-14.7,14.3-18.3
			c6.3-2.9,12.9-5.2,19-8.3c4.5-2.3,8.8-5.2,12.5-8.6c7-6.7,7.8-14.5,3-22.9c-1.4-2.3-3-4.5-4.6-6.6c-5.2-6.8-6.2-14-3.2-22.1
			c5.8-15.4,16.3-25.7,32.2-30.2c2.9-0.8,5.8-1.5,8.8-2.1c8.3-1.5,16.2-4.9,22.9-10.1c3.9-2.9,7.6-6,11.4-8.9
			c14.2-11,30.1-17.4,48.3-17.5c7.9-0.2,15.6,2.2,22,6.8C678.1,1425.7,677.6,1431,670,1434.2z"/>
		<path class="st0" d="M641.2,490.5c-79.8,0.9-149.6,62.9-149.8,150c-0.2,81.5,67.3,149,148.9,148.9
			c82.4-0.1,149.7-64.9,150.1-148.6C790.8,555,722.9,491.2,641.2,490.5z M781.1,640.8c-2.9,58.2-29.8,100.8-82.5,126.6
			c-4.6,2.2-8.9,2.4-13.8,0.8c-18.1-5.8-35.4-13.7-51.5-23.7c-23.5-14.5-38.6-35.9-48.7-61c-20.8-51.9-8.4-110.7,31.1-148
			c14.6-13.8,32-23.3,50.4-31.2c3.9-1.7,7.6-1,11.4,0.1c44.4,13,75.7,40.8,93.6,83.4C778.2,605.2,780.9,621.3,781.1,640.8z"/>
		<path class="st0" d="M1560.6,490.5c-81.6,0.7-149.6,64.5-149.2,150.3c0.4,83.7,67.6,148.5,150,148.6
			c81.6,0.1,149.1-67.4,149-148.9C1710.2,553.4,1640.5,491.4,1560.6,490.5z M1607.5,703.8c-12.1,20-27.9,36-49,46.6
			c-13.3,7-27.2,12.9-41.4,17.7c-4.5,1.7-9.6,1.4-13.8-0.8c-53-26.1-79.9-69-82.3-117c0.1-73.4,41-127.8,100.8-145.4
			c6.4-1.9,12.1-1.9,18.2,1c23.7,11.1,45.4,24.7,61.2,46.4C1633.5,597,1636,656.6,1607.5,703.8z"/>
		<path class="st0" d="M1538.4,1755.2c-4.9-2.9-10.2-5.1-15.7-6.6c-9.9-2.5-20-4.4-30.1-5.7c-16.1-2.1-32.3-3.5-48.4-5.3
			c-3.6-0.4-7.1-1.1-10.6-2.2c-10.4-3.1-16.5-10.4-19.7-20.6c-2.4-7.6-1.1-14.7,1.4-22c3.4-9.9,0.7-18.2-7.6-24.8
			c-1.9-1.5-3.9-2.7-6.1-3.8c-11.3-5.8-24.1-8.1-36.8-6.7c-12.2,1.2-24.4,3.1-36.5,5.1c-8.6,1.4-15.9,5.3-21.1,12.6
			c-5.7,8.1-5.4,18.2,1.1,25.7c2.1,2.5,4.4,4.8,6.7,7.4c-2.1,6.4-6.4,9.3-10.2,12.7c-14.6,13-13.4,33.9,2.8,44.7
			c5.2,3.4,11.2,5.8,17,8c4.2,1.6,8.8,1.9,13.2,2.9c9.4,1.9,17.8,5.3,23.5,13.7c4.8,7,5,10.7-0.9,16.7c-3.1,3.1-6.8,6.3-10.8,7.9
			c-8.1,3.1-16.4,5.7-24.9,7.8c-6.4,1.7-13.1,2.1-19.5,3.6c-16.2,3.6-24.6,14.8-23.7,31.3c0.1,1.5,0.2,3,0.4,4.5
			c0.8,8.2-2,15.1-9.3,19.1c-6,3.3-12.5,5.7-18.9,8c-6.8,2.5-13.8,4.1-20.5,6.8c-10.2,4.2-15.8,15.1-14.4,26.4
			c1.2,10,9.3,18,20.8,19.2c7.1,0.8,14.4,0.4,21.5-0.1c23.5-1.6,45.4-8.2,65.6-20.7c7.5-4.6,13.2-11.6,16.3-19.8
			c1.3-3.4,2.4-6.8,3.3-10.3c2.1-8.1,7.1-13.3,15.3-14.6c8.6-1.4,17.2-2.8,25.9-3s17.4,0.9,26.1,1.3c12,0.6,23.9,1.5,35.9-1.3
			c16.5-3.8,26.3-13.6,28.6-30.3c0.9-6.5,3.8-11.4,9.3-14.6c3.8-2.3,7.9-4.3,12.1-5.8c7.1-2.4,14.5-4.1,21.6-6.4
			c16.3-5.1,26.8-15.6,29.2-33C1552.3,1771.2,1549.1,1761.3,1538.4,1755.2z M1538.7,1790.5c-3.5,8.3-10.4,13-18.7,15.8
			c-6.5,2.2-13.4,3.4-19.9,5.7c-5.9,2-12,4.2-17.3,7.4c-7.2,4.1-12,11.4-13.1,19.6c-0.2,1.5-0.8,2.9-1,4.4
			c-1.4,10.6-8.3,16.2-17.7,19.5c-9.9,3.4-20.1,3.1-30.3,2.4c-18.6-1.3-37.1-3.8-55.6,0.7c-2.3,0.6-4.7,1.1-7,1.7
			c-10.8,2.8-18,9.1-20.7,20.3c-0.8,3.2-1.8,6.3-3.1,9.4c-2.2,6-6.3,11.1-11.6,14.5c-15.6,10.3-32.8,16.2-51.1,18.9
			c-6.5,1-13.1,1.5-19.7,2c-3.6,0.3-7.2,0.1-10.8-0.3c-7-1-12.3-6.1-12.9-11.9c-0.7-6.3,3.2-13.6,9.3-16c6.5-2.4,13.1-4.5,19.7-6.2
			c9.1-2.4,17.6-5.9,24.8-12.1c5.9-4.8,9.4-12.1,9.4-19.7c0.2-3,0.1-6-0.1-9c-1.6-12.4,5.8-20.1,18.3-22.3c4.4-0.8,9-1,13.3-2.2
			c10.7-3,21.3-6.1,31.8-9.8c7.3-2.6,12.4-8.4,16.9-14.5c3.4-4.7,3.8-10.1,1.8-15.5c-3.9-10.4-10.8-18-21.2-22
			c-5.7-2-11.5-3.5-17.4-4.6c-8-1.6-15.8-3.7-22.4-8.8c-10.4-8-11.2-20.3-1.8-29.5c3.4-3.3,7.1-6.5,10-10.2
			c4.9-6.3,4.6-11.8-0.4-17.9c-1.5-1.9-3.4-3.4-5-5.2c-3.7-4.6-3.7-10.1-0.3-14.9c4.2-5.8,10.4-8,17-9.2c10.6-1.9,21.3-3.4,32-5.1
			c11.7-0.3,22.9,1,33.4,6.4c9.8,5.1,11.9,10.1,8.4,20.5c-5.3,16.1-1.9,30.2,9.5,42.5c6.2,6.8,14.4,10,23.1,11.1
			c16.4,2.2,32.9,3.3,49.2,5.5c11.3,1.5,22.4,3.9,33.7,6.1c2.3,0.6,4.6,1.4,6.8,2.4C1543.1,1766.3,1544,1777.7,1538.7,1790.5
			L1538.7,1790.5z"/>
		<path class="st0" d="M969.4,1896.4c-6.6-2.8-13.6-4.8-20.4-7.1c-4.8-1.6-10-2.6-14.5-4.9c-12.7-6.3-15.9-12.6-14.7-25
			c0.2-1.5,0.3-3,0.3-4.5c0-13.2-6.1-22.5-18.5-27c-5.1-1.7-10.4-2.9-15.8-3.5c-11.3-1.6-22.4-4.7-33-9c-5.5-2.3-9.6-5.9-13.5-10.2
			c-3.3-3.8-3.3-7.7-1.1-11.6c3.3-5.8,7.5-11,14.2-13.3c5.1-1.7,10.4-2.8,15.6-4.4c6.9-2.1,13.9-3.8,20.5-6.6
			c5.6-2.3,10.4-6.2,13.7-11.3c7.7-12.5,5.7-26.7-5.3-36.8c-3.7-3.4-7.1-7.1-11.5-11.4c3.3-3.7,5.5-6.1,7.7-8.6
			c6.8-7.8,7.1-18.1,0.9-26.4c-4.1-5.7-10.2-9.6-17-11.1c-5.6-1.2-11.2-2.4-16.8-3.1c-10.7-1.3-21.5-2.7-32.2-3.1
			c-8.8-0.2-17.5,1.7-25.3,5.6c-16.2,7.5-20.2,16.2-15.2,33.1c5.6,19-4.2,36.2-23.5,40.5c-5.9,1.3-11.8,2.1-17.8,2.6
			c-20,1.8-40.1,3.3-59.9,7.6c-8.2,1.8-16.3,4-23.6,8.6c-8.2,5.2-11.8,12.8-12,22c-0.2,7.3,1.8,14.4,5.5,20.7
			c5.6,9.3,14,14.7,24,17.9c8.3,2.6,16.8,4.6,25,7.5c10.5,3.8,18.4,10.1,18.6,22.7c0.2,8.1,5.4,13.8,11.2,18.8
			c10,8.6,22.3,10.1,34.8,10.1c9.3,0,18.6-0.8,27.9-1.5c12.3-1.1,24.7-0.7,36.9,1.2c11.7,1.9,19.1,7,21.8,19.2
			c2.9,13.2,10.9,22.8,23,29.6c23.5,13.2,48.9,18,75.3,19c3.6,0,7.2-0.4,10.7-1.3c9.3-2.2,16.6-10.5,17.5-19.5
			C984,1911.2,978.5,1900.3,969.4,1896.4z M973.6,1921.1c-1.2,6.5-6.8,11.2-13.4,11.3c-9.6,0.2-19.2-0.3-28.7-1.5
			c-16.7-2.1-32.9-7.5-47.6-15.9c-9.2-5.1-15.4-12.3-18.2-22.4c-0.2-0.9-0.5-1.7-0.7-2.6c-2.6-13.6-11.6-20-24.4-23.3
			c-15.8-4-31.6-3.2-47.5-2.4c-8.7,0.4-17.4,1.3-26.1,1.3c-8.1,0-16.1-1.4-23.2-6c-5.8-3.8-9.8-8.7-10.7-15.9
			c-2.1-18.2-13.7-27.2-30.2-31.6c-7-1.9-14-3.4-20.8-5.7c-12.3-4.2-20.3-12.3-21.7-25.9c-0.8-8,1.5-14.6,9-17.9
			c6.6-2.9,13.4-5.2,20.4-6.8c19.7-4.5,39.8-5.5,59.8-7.5c5.4-0.5,10.7-1.2,16-2.3c24.3-5.1,38.6-28.7,30.3-52.1
			c-3.7-10.5-0.8-18,10.4-22.9c10.2-4.5,20.8-5.7,31.9-5.3c10.7,1.7,21.3,3.2,32,5.2c5.6,1,11,2.8,15.1,7.4c5.2,5.8,5.8,12.4,0,17.5
			c-12.7,11.2-7.9,20.2,2,29.4c0.2,0.2,0.5,0.4,0.7,0.6c12.7,8.1,14.5,26.3-3.8,35.1c-5.6,2.7-11.9,4-17.9,5.7
			c-5.5,1.6-11.2,2.5-16.5,4.4c-10.1,3.7-17,11.1-21.1,20.9c-2.8,6.7-1.9,12.8,2.7,18.6c5.3,6.6,12.2,11.7,20.1,14.8
			c12.4,4.9,25.3,7.6,38.4,9.6c3.5,0.6,7,1.6,10.3,3c6.7,2.9,10,8.3,10.2,15.6c0.1,2.7,0,5.4-0.2,8.1c-1.3,15,6.4,24.6,18.8,30.9
			c5,2.6,10.7,4,16,5.7c6.3,2.1,12.7,3.6,18.9,6C970.6,1906.9,974.6,1914.5,973.6,1921.1L973.6,1921.1z"/>
		<path class="st0" d="M1105.1,300.2c-86.4-1.5-152.6,64.8-153.9,148.5c-0.2,76.8,58.6,147.7,145.9,150
			c88.1,2.3,150.3-68,153.1-143.6C1253.2,372.6,1188.8,301.7,1105.1,300.2z M1101.1,589.3c-77.3,0.2-140.2-62.3-140.4-139.6
			c0-0.3,0-0.6,0-0.9c0.2-80.1,66.4-140.4,139.3-139.6c78.9,0.8,140.3,62.6,140.5,139.7C1240.7,529.5,1176,589,1101.1,589.3
			L1101.1,589.3z"/>
		<path class="st0" d="M1868.2,1286.2c-18-0.7-33.8,5.4-47.7,16.2c-16.5,12.7-35.3,17.4-55.7,17.2c-11.1-0.1-22.2-0.7-32.7-1.1
			c-3.9,0-7.2-0.2-10.5,0c-14.2,0.8-28,3.3-41.1,9.2c-17.3,7.8-24.3,32.6-5.4,47.5c3.5,2.9,7.3,5.3,11.4,7.2
			c11.1,5,20.7,12.3,30,19.8c10.2,8.2,11.1,20.9,2.7,31c-2.3,2.7-4.4,5.7-6.3,8.8c-10.2,17.8-2.8,39.7,19.7,43.4
			c5.3,1,10.5,2.6,15.5,4.6c12.6,4.8,13.8,8,8,20c-4.7,9.7-1.5,23.6,7.3,29.1c11.5,7.1,23.8,9.2,35.6,1.3
			c7.2-4.8,14.2-10.5,19.6-17.1c11.2-13.9,17-29.9,12.6-48c-2.4-9.9-5.3-19.7-8.5-29.4c-3.5-10.8-7.8-21.4-11.3-32.3
			c-2.4-7.5,0.1-14.2,5.4-19.9c6.3-6.8,13.6-11.9,22.9-13.6c5.3-0.9,10.7-1.7,16-2.2c13.3-1.2,26.3-3.3,38.4-9.2
			c8.3-4,15.7-9.2,19-18.3c1.6-4.8,2.8-9.8,3.4-14.9c1.5-10-0.9-19.1-6.7-27.3C1899.5,1293.9,1885.5,1286.9,1868.2,1286.2z
			 M1906.7,1338.5c-2.4,11.3-8.4,18.1-18.4,22.5c-8.9,4-18.2,5.9-27.9,6.8c-7.5,0.8-14.9,1.9-22.3,3c-8.7,1.3-16.8,5.2-23.3,11.1
			c-9.6,8.3-14.7,19-12.4,32c1.2,5.9,2.8,11.6,5,17.2c5.1,14.1,10.9,27.9,14.2,42.7c4.2,18.8-1.3,34.4-14.1,47.9
			c-5.2,5.4-10.6,11-18.5,12.2c-4.7,0.7-9.7,1.1-14.2,0.2c-10.5-2.2-14.5-11.7-9.9-21.5c1.7-3.7,3.7-7.8,3.8-11.7
			c0.2-8.3-4.7-14.3-12.2-17.3c-7.2-2.9-14.6-6-22.2-7c-15.8-2-20.1-18.8-13.5-29.5c1.7-2.8,3.5-5.8,5.9-7.9
			c12.2-10.9,8-34.9-2.6-43c-9.8-7.5-19.2-15.4-30.6-20.7c-4.4-2-8.5-4.5-12.3-7.4c-11.2-8.9-10.1-23.2,2.1-30.7
			c7.6-4.6,16.1-6.6,24.7-7.8c6.2-0.9,12.6-1.2,18.8-1.7c0,0.2,0,0.4,0,0.7c13.5,0.3,27,1.2,40.5,0.9c22.1-0.4,42.6-5.7,60.2-20.3
			c5.9-4.8,13.3-8.1,20.4-11.1c13.4-5.6,26.9-3.1,39.4,2.4S1910.4,1321.2,1906.7,1338.5z"/>
		<path class="st0" d="M492.2,1450c-2.1-5.9-5.2-11.4-9.2-16.3c-8.5-10.8-7.9-23.2,2.7-31.7c9.6-7.8,19.5-15.1,30.9-20.2
			c3.2-1.6,6.3-3.5,9.1-5.8c20.4-14.8,13.2-41.2-5.5-48.9c-15.1-6.1-31.3-9.1-47.6-8.8c-12,0.1-24,1-36,1.1
			c-20,0.1-38.6-4.4-54.9-16.9c-13.2-10.1-28-16.3-45.6-16.6c-16.1,0.2-29.9,6-41.5,18.7c-14.8,16.3-13.2,54,14.5,64.6
			c12.9,5,26.5,7.9,40.3,8.7c14.3,0.8,27.1,5.2,36.6,16.6c4.3,5.1,6.4,10.9,4.8,17.6c-1.3,5.2-2.9,10.4-4.7,15.5
			c-4.1,11.6-9,23-12.3,34.8c-2.5,8.9-4.6,18.4-4,27.4c1.7,23.5,15.3,39.9,34.9,51.6c3.7,2.2,8.5,3.1,12.9,3.7
			c11.4,1.6,24.5-6.6,28.7-17.3c2.7-6.9,2.1-13.3-1.5-19.9c-4.7-8.4-2.9-13.1,6-17c0.8-0.4,1.7-0.7,2.5-1c6.6-1.9,13.2-3.8,19.9-5.6
			C488.9,1480,497.2,1465.5,492.2,1450z M469.1,1476c-7.5,1.9-15,4.2-22.3,6.9c-13,5-17,15.9-10.7,28.3s0.8,22.4-12.8,23.7
			c-7.9,0.9-15.7-1.5-21.8-6.6c-7.6-6-13.7-13.6-18-22.2c-3.1-6.3-5-12.9-4.6-20c0.3-10.6,3.1-20.8,6.5-30.7
			c2.9-8.2,6.2-16.3,9.2-24.5c1.8-4.5,3.3-9,4.5-13.7c3.4-14.8-2.5-28.9-15-37.7c-9.4-6.7-20-9.4-31.2-10.8c-8-1-16.2-1.4-24.1-3
			c-5.9-1.2-11.6-3.1-17-5.7c-12.9-6-18.5-16.7-17.3-31.7c1.1-13.3,12.3-26.1,25-30.1c21.6-6.8,40.4-1.7,57,12.6
			c9,7.7,19.5,11.5,30.5,14.8c15.6,4.7,31.5,4.1,47.4,3.4c12-0.5,23.9-1.8,36-0.1c10.5,1.4,20.9,3.3,29.7,9.5
			c10.2,7.1,11,20.4,1.7,28.6c-2.6,2.5-5.6,4.5-8.9,6.1c-11.7,5.2-21.7,12.7-31.9,20.2c-11.3,8.2-14.5,19.7-12.7,32.6
			c0.6,4.4,4.1,8.5,6.6,12.5s5.9,7.7,7.7,12C487.2,1462.3,481.4,1472.7,469.1,1476L469.1,1476z"/>
		<path class="st0" d="M1101.6,142.1c-3.9,0.1-7,3.3-6.9,7.2c0,0.2,0,0.3,0,0.5c0.2,3.4,3.2,6,6.6,5.7h0.1c3.6-0.3,6.8-3.7,6.7-7.2
			C1107.8,145,1105,142.3,1101.6,142.1z"/>
		<path class="st0" d="M1016.8,1189.3c-0.2,3.9-1.2,7.7-1.8,11.6c-1.5,10.4,0.8,19.5,8.4,27.3c6.8,6.9,15,12.2,24,15.6
			c3.1,1.2,6.1,2.4,8.5,4.8c6.3,6.4,13.3,12.2,20.8,17.2c5.7,3.9,11.9,7,18.3,9.5c3.9,1.5,7.9,2.9,11.7,4.7c7.3,3.6,15,4.1,22.9,3.1
			c3.9-0.6,7.7-1,11.6-1.1c5.8,0,11.4-2.1,15.7-6c3.9-3.4,8.1-6.2,12.7-8.5c3.2-1.6,6.4-3.4,9.3-5.5c6.2-4.2,10.3-9.4,11.4-17.4
			c1.3-9.5,1.7-19.2,1.1-28.8c-0.6-9.6-2.2-19.3-6.3-28c-4.2-9.2-4.7-18.3-3.2-28.1c2.1-14.5,2-28.9-6.3-41.9
			c-1.9-3.1-3.6-6.3-5.1-9.6c-1.1-2.1-1.9-4.4-2.3-6.8c-1.3-12.7-5-24.7-9.4-36.6c-4.6-12.2-10.3-23.7-19.5-33.2
			c-4.6-4.8-8.8-9.9-13-15c-4-4.9-7.7-10-11.4-15.1c-4.1-5.6-7.7-11.5-12-16.9c-6.4-8-12.9-15.8-16.7-25.6c-1.1-2.8-2.5-5.6-6.4-6.9
			c-0.9,0.3-1.8,0.8-2.6,1.3c-0.9,0.8-1.6,1.8-2.1,2.9c-5.1,14.3-12.5,27.3-20.4,40.2c-3.6,5.9-7.2,11.8-12.3,16.6
			c-10.7,10.1-20.3,21.5-28.5,33.7c-3,4.1-4.6,9.1-4.6,14.2c0.1,9.6-0.2,19.3,0,28.9c0.2,12-0.8,24-2.8,35.9
			c-1.8,11-1.6,21.9,3.9,32.5C1015.7,1168,1017.3,1178.6,1016.8,1189.3z M1055.5,1203.7c-3,7.3-4.5,15-4.4,22.9
			c0.1,2.3-0.7,4.6-1.2,7.4c-2.1-0.4-3.6-0.4-4.8-1c-6.5-3.1-12.2-7.7-16.7-13.4c-4.1-5.2-5.5-10.8-4.2-16.8
			c1.7-7.5,1.5-14.9,1.6-22.4c0.1-5.4-0.1-10.8-2.2-16c-2-4.9-0.7-9.1,1.7-13.7c4.7-8.8,10.8-16.7,16.3-24.9
			c8.1-11.6,13.2-25.1,14.8-39.3c0.3-1.3,0.7-2.6,1.2-3.9c2,1,3.5,1.4,4.4,2.4c7.8,8.2,14,17.3,16.4,28.6c0.4,2,0.9,4.3,0.4,6.2
			c-2.8,9.5-5.9,18.9-9,28.3c-1.3,4-3.4,7.7-6.3,10.8c-4.7,4.8-7.1,11.4-6.6,18.1c0.2,3.6-0.3,7.3,0.4,10.8
			C1058.4,1193.4,1057.5,1198.5,1055.5,1203.7z M1101.5,1249.8c1.3,5.2,2.5,10.4,4,16.8c-2.5,0.2-3.7,0.5-4.7,0.3
			c-2.4-0.5-4.6-1.2-6.8-2.3c-10.4-5.9-20.7-12.1-29.4-20.4c-3.1-2.9-4.8-7-4.6-11.3c0.1-8.5,0.7-16.8,4.1-24.7
			c3-6.9,3.8-14.6,2.3-22c-1.6-7.9-0.5-15.4,5-22c5.7-6.8,8.6-15,10.3-23.7c0.4-2.3,0.3-4.8,3-6.8c1.1,0.8,2.2,1.7,3.2,2.7
			c1.8,2,3.4,4.2,5.3,6.1c4.6,4.8,8.4,10.3,11.2,16.2c2.1,4.3,4.3,8.6,6.5,12.9c1.9,3.8,2.4,8.1,1.4,12.2
			c-3.7,16.1-7.1,32.2-10.8,48.3C1100,1237.8,1100,1243.9,1101.5,1249.8L1101.5,1249.8z M1124.8,1260.8c-0.8,1.6-1.8,3-2.8,4.6
			c-4.7,0-6.3-2.6-7.5-5.4c-3.7-8.7-5.4-17.9-3.5-27.2c2.6-12.9,5.6-25.8,8.6-38.6c0.4-1,0.9-2,1.5-2.8c1,0.3,1.9,0.3,2.1,0.7
			c6.2,10.7,11.3,21.8,13.9,33.9c0.6,2.9,0.5,6-0.4,8.8c-2.1,6.9-3.7,13.9-8.7,19.5C1126.4,1256.1,1125.9,1258.6,1124.8,1260.8
			L1124.8,1260.8z M1178.9,1206.8c1.3,1.3,2.8,2.1,3.1,3.2c0.7,2.6,1.1,5.3,1.2,8c0.3,8.1-0.2,16.2-1.4,24.2
			c-0.6,4.8-3.3,9.1-7.4,11.8c-1.2,0.8-2.5,1.6-3.8,2.4c-7.1,3.9-13.9,8.2-20.5,12.9c-6.2,4.6-11.4,4.9-20.4,2.2
			c3.1-7,4.8-13.7,9.7-18.9c2.8-3,3.6-6.8,4.4-10.7c1.1-5.6,4.2-9.1,9.8-10.5c10.2-2.7,17.4-9,21.7-18.7
			C1176.3,1210.7,1177.5,1208.7,1178.9,1206.8L1178.9,1206.8z M1118.3,1029.4c0.1-1.4,0.9-2.7,1.7-4.8c1.9,1,2.9,1.2,3.4,1.8
			c11,12,21.1,24.7,26.2,40.6c1.4,4.3,3.2,8.5,4.3,12.8c1.7,6.4,3,12.8,4,19.4c0.7,4.5,1.6,8.8,3.9,12.8c2.5,4.4,4.7,9.1,7.1,13.6
			c5,9.1,5.8,18.8,4.4,28.9c-0.7,4.8-1,9.6-1.2,14.3c-0.3,6.3-0.2,12.7,2.6,18.6c1.5,3.3,1,6.4-0.7,9.5c-3.1,5.5-6,11.1-9.2,16.6
			c-3.9,6.8-10.2,9.6-18.2,10.8c-1.2-2.6-2.4-4.7-3-6.9c-1.6-6.4-4.2-12.6-7.5-18.3c-1.5-2.6-2.7-5.4-3.8-8.2
			c-1.7-4.8-4.2-9.3-7.4-13.3c-1.6-2.2-2.9-4.5-4-7c-1.1-2.2-1.4-4.6-0.8-7c2.8-14.8,5.8-29.5,8-44.3c1.8-12.2,3.2-24.5,2.4-36.8
			c-0.5-7.5-1.7-14.9-5-21.8c-1.9-4.1-3.5-8.3-5.1-12.5C1118.3,1042.1,1117.6,1035.7,1118.3,1029.4L1118.3,1029.4z M1055,1050
			c1.7-8.7,1.6-17.4,1.3-26.1c-0.2-7.6,1.7-15,5.6-21.5c1.9-3.4,4.1-6.7,5.9-10.1c3-5.6,5.8-11.2,8.6-16.8c0.8-1.6,1.6-3.1,2.6-5
			c1.6,0.8,2.3,0.8,2.7,1.3c7.5,10.1,15.1,20.2,22.4,30.5c3.5,5,4.6,11.1,4.9,17.2c0.2,5.1,0.2,10.2,0,15.3
			c-0.4,7.5,1.2,15.1,4.6,21.8c4,7.8,6.5,16.2,7.5,24.9c0.3,1.8,0.5,3.6,0.5,5.4c-0.9,10.5-1.6,21-2.9,31.4
			c-1.1,8.6-2.8,17.2-4.4,25.8c-0.4,1.6-0.9,3.2-1.6,4.7c-1.2-0.1-2,0-2.2-0.3c-5.4-6.4-10.9-12.8-16.2-19.3c-3-3.8-4.9-8.3-5.7-13
			c-2.1-10.7-5.6-20.8-13.1-29.3c-5.6-6.3-10.9-12.8-17.6-18c-2.3-1.6-3.5-4.2-3.4-7C1054.6,1057.8,1054.2,1053.8,1055,1050z
			 M1015.2,1130.6c4.1-19,3.8-38.2,3-57.4c-0.5-12,1.8-22.4,9.9-31.5c4.4-4.9,8.2-10.3,12.5-15.3c1.1-1.3,2.8-2.1,4.8-3.6
			c2.9,5.4,2.2,10,1.8,14.3c-0.7,8.1-1.8,16.1-2.8,24.1c-0.4,3.6-0.4,7.2,1.1,10.6c2.8,6.3,2.3,12.8,1.4,19.4
			c-1.2,9.2-4.8,17.3-9.8,24.9c-5.7,8.8-11.7,17.4-17.6,26.1c-0.5,0.7-1.4,1-2.5,1.8c-0.7-1-1.8-1.9-1.8-2.8
			C1015,1137.7,1014.5,1134,1015.2,1130.6L1015.2,1130.6z"/>
		<path class="st0" d="M1100,0C492.5,0,0,492.5,0,1100s492.5,1100,1100,1100s1100-492.5,1100-1100S1707.5,0,1100,0z M94.3,675.1
			C328.2,119.6,968.2-141,1523.7,93c403.7,170,666.6,564.9,667.7,1002.9c-2.1-0.1-4.3-0.1-6.4-0.1c-28.3-0.1-60.6-0.2-88.9-0.3
			c-3.2,0-6.5-0.3-9.9-0.5c-0.2-2.8-0.5-4.9-0.5-7c-0.1-31-1.7-61.9-4.9-92.8c-3.3-32.9-8.5-65.6-15.4-98
			c-19.5-90.7-51.8-178.1-96-259.7c-63.6-117.7-146.9-219-251.6-302.5c-93.1-74.2-196.4-128.8-311.4-160.6
			c-51.3-14.3-104-23-157.2-25.8c-27.9-1.4-55.9-1.8-83.9,0.6c-3.4,0.3-6.8,0-11.6,0c8.4-5.8,17-7.4,25.1-10.3
			c13.6-4.8,27.2-9.4,40.8-14.3c5.6-2,9.6-6.1,13-10.8c2.5-3.5,1.4-6.1-2.9-7.4c-2.6-0.7-5.3-1.2-7.9-1.6
			c-35.1-5.8-70.5-8-106.1-8.3c-82.2-0.7-163.2,9.7-243,29.2C785.2,147,701.4,178,621.8,220.3c-47.8,25.6-94.1,53.3-135.9,88.3
			c-47.6,39.9-92.5,82.5-133.2,129.5C293.3,507,242.9,582,202.9,663.8c-65.2,133.3-100.2,274-101.9,422.7c0,2.6-0.3,5.3-0.5,8.7
			c-5.2,0.2-9.9,0.6-14.7,0.6c-22.6,0.1-51.1,0.1-73.7,0.2c-1.2,0-2.4,0-3.6,0.1c0.2-72.6,7.7-144.9,22.1-216
			C45.1,809.8,66.4,741.2,94.3,675.1z M2060,1214.1c5.6,9.3,12.1,17.9,17.8,27.2c3.1,4.8,5.5,10,7.1,15.4c4,14.1-1,26.5-13.1,34.4
			c-7.3,4.8-14.9,9.1-22.1,14c-17.2,11.5-23.2,27.7-19.2,47.8c1.1,5.3,2.2,10.6,3.5,15.9c5.7,23.4-0.9,42.7-19.3,58.1
			c-6.1,5.1-11.5,10.6-14.4,18.2c-2.7,7-3.6,13.9-1.5,21.2c1.6,5.5,3.1,11,4.6,16.5c3.8,14.5,1.3,27.9-9.7,38.2
			c-10.1,9.3-21.8,17-32.4,25.8c-5.6,4.5-10.8,9.5-15.4,15c-7.3,9.1-9.8,19.9-8.4,31.4c0.9,7.4,2.2,14.8,3.7,22.2
			c4.9,24.2-2.8,39.2-25.6,49.2c-9.9,4.3-20,8.3-29.8,12.9c-5.4,2.6-10.7,5.6-15.6,9c-9.5,6.5-16.3,15.1-18.8,26.6
			c-1.3,5.9-2.4,11.8-3.6,17.7c-3.9,20.8-16.6,34.8-34.2,45.2c-9.2,5.4-19.4,7.9-29.7,10.4c-11.4,2.9-22.5,6.2-33,11.8
			c-8.4,4.5-14.6,10.8-18.2,19.2c-3.1,7.1-5.2,14.7-7.5,22.1c-1.5,4.9-2.4,9.9-4,14.8c-4.9,15.2-15.3,24.9-30.3,29.7
			c-11.8,3.8-24.2,4.8-36.5,5.4c-2.1,0.1-4.2,0.1-6.3,0.2c-22.5,0.8-39.8,10.1-51.2,29.9c-3.4,6-7.3,11.7-11,17.6
			c-10.1,16.2-24.1,27.2-42,33.8c-13.9,5-28.4,8.1-43.1,9.1c-17.7,1.4-35.3,3.6-52.9,5.4c-17.9,1.8-30.8,11.1-39.3,26.7
			c-2.9,5.3-5.6,10.6-8.1,16.1c-5,11-13.9,17-25.3,19.9c-12.9,3.3-26.2,4.2-39.4,2.6c-11.6-1.4-23.3-2.8-35-4.1
			c-23.7-2.7-44.6,3.7-63.2,18.5c-5.7,4.5-11.8,8.4-17.8,12.4c-16,10.6-33.9,16.8-52.5,21c-23.5,5.3-47.3,8.5-71.6,7.9
			c-30.9-0.8-61-5.9-90-16.6c-12.5-4.6-23.7-11.7-34.5-19.4c-5.9-4.2-11.7-8.4-17.8-12.4c-11.9-7.8-25-12.2-39.2-11.6
			c-13.2,0.5-26.4,1.5-39.5,3.2c-16,2.1-31.7,2.6-47.5-1.4c-11.7-2.9-20.9-8.8-26.1-20.2c-2.2-4.9-4.8-9.7-7.2-14.5
			c-8.3-16.1-21.1-26.1-39.3-28.1c-17.6-1.9-35.3-3.4-53-4.7c-13.8-1-27.7-1.1-41.2-4.5c-12.3-3.1-24.2-7.3-35-14.2
			c-9.8-6.2-17.5-14.6-23.7-24.4c-3.7-5.8-7.6-11.6-11-17.6c-11.8-20.9-30.1-30-53.6-30.7c-11.4-0.4-22.8-1.6-34-3.7
			c-20.2-3.7-33.3-15.7-38.7-35.8c-0.9-3.2-1.5-6.4-2.3-9.7c-0.9-3.5-1.6-7-2.6-10.5c-4.9-18.2-16.1-30.7-34.1-36.6
			c-11.7-3.8-23.6-6.9-35.5-10.3c-16.4-4.8-29.8-13.8-40.1-27.7c-4.9-6.5-8.3-14-10.1-22c-0.8-3.2-1.5-6.4-1.9-9.7
			c-1.9-21.8-14.4-35.7-33.4-44.6c-10.3-4.8-21-9-31.4-13.7c-4.7-2.1-9.1-4.6-13.3-7.5c-12-8.3-16.9-20-14.8-34.4
			c1.3-8.9,2.9-17.8,4.3-26.7c3.4-21.1-5.6-36.7-21.9-49c-10.6-7.9-21.2-15.8-31.6-24c-6.2-4.9-10.5-11.8-12.2-19.6
			c-1.7-7.2-2.1-14.2,0.2-21.3c1.6-4.9,2.8-9.8,4.2-14.8c4-13.8,0-25.5-9.6-35.6c-5-5.2-10.7-9.7-15.3-15.2
			c-11.1-13.1-13.8-28.4-10.5-44.9c1.2-5.9,2.6-11.8,3.8-17.6c4.8-22.2-1.4-37.7-20.4-50.5c-6.2-4.2-12.5-8.3-19.1-12
			c-13.8-7.7-20.4-25.2-12.4-41.4c3.7-7.5,8.8-14.3,13-21.6c4.7-8,9.6-16,13.6-24.3c3.9-8.1,3.9-17.1,1.6-25.6
			c-2.1-7.8-4.8-15.5-8.2-22.8c-6.8-14.6-12-29.5-13.3-45.6c-0.1-1.5-0.1-3.3-0.1-5.4c8-0.7,15.6-0.5,23.3-0.7s15.1,0,22.6,0h23.9
			c0.6,3.4,1.4,6,1.5,8.6c0.7,21,8.9,39,21.2,55.6c3.4,4.6,6.9,9.1,10,13.9c8.4,13,9.4,26.4,1.7,40.1c-3.9,7.1-8.3,14-11.9,21.2
			c-4.3,8.4-5.3,18.1-2.8,27.2c1.6,6.1,5.3,10.8,9.4,15.1c4.4,4.6,9,8.8,13.9,12.8c10.4,8.7,16.1,19.4,14.5,33.2
			c-0.6,4.4-1.8,8.7-3.7,12.8c-4.4,9.9-8.4,19.8-9.6,30.8c-2,17.8,6.3,32.9,22.4,40.3c8.7,4,17.3,8.5,25.8,12.9
			c2.6,1.4,5.1,3.1,7.5,5c13.2,10.3,16.4,21.7,10.4,37.4c-2.8,7.3-6,14.4-9.2,21.6c-8.8,20.1-2.6,41.1,16,52.8
			c4.8,3,10.2,5,15.5,7.2c6.1,2.6,12.4,4.7,18.2,7.7c7.9,4.2,12,10.9,10.2,20.2c-0.8,4.4-1.8,8.8-3,13.1
			c-6.2,21.4,3.1,42.2,23.4,51.7c4.6,2.1,9.6,3.3,14.5,5c7.4,2.5,15,4.6,22.1,7.7c13.5,5.9,19.2,16.6,17.9,31.2
			c-0.1,1.5-0.4,3-0.5,4.5c-1.8,23.2,7.2,39.6,28.6,49.2c10.1,4.5,21,7.2,31.7,10c11.3,3,22.7,5.2,33.1,11.2
			c11.9,6.9,16.9,16.5,15.2,30c-0.6,4.2-0.8,8.4-0.8,12.6c0.3,14.4,7,25.3,19.1,32.8c11.7,7.2,24.8,10.8,38.3,12.4
			c9.3,1,18.6,1.4,27.8,2.5c7.7,0.8,15.4,2.1,23,3.8c18,4.2,29.2,15.7,34.5,33.3c0.8,2.6,1.9,5.1,2.8,7.6
			c7.2,19,21.1,29.9,40.9,34.2c25.8,5.7,51.9,6,78.1,5.9c9.9,0.1,19.8,1.1,29.5,3.1c16.5,3.1,28,13,36.9,26.7c0.8,1.3,1.4,2.7,2.2,4
			c10.7,18.6,25.7,31.5,57.4,28.2c7.8-0.8,15.5-1.9,23.2-3.1c18.7-2.9,37.3-1.4,55.5,2.8c6.6,1.5,13,4.7,19,8.2
			c17.5,10.3,36.3,17.4,55.8,22.6c27.7,7.4,54.8,4.5,81.6-4.8c13.4-4.5,26.3-10.3,38.6-17.4c19.7-11.7,41.5-13.5,63.7-12.3
			c12.3,0.6,24.4,2.9,36.7,4.5c11.3,1.4,22.2-0.7,32.5-5.2c10.7-4.7,17.6-13.5,23.1-23.4c10.4-18.7,25.7-29.3,47.1-32.1
			c16.5-2.2,33-1.4,49.5-1.8c18.4-0.4,36.6-2.7,54.5-6.9c16.9-4.1,28.6-14.7,35.6-30.5c1.5-3,2.6-6.1,3.4-9.3c2.1-11,9-18.9,17-25.9
			c2.7-2.3,5.9-4.1,9.2-5.4c9.8-3.8,20.2-6.1,30.7-6.7c12.3-0.8,24.6-2,36.8-3.7c9.9-1.5,19.4-4.7,28-9.7
			c15.2-8.4,22.4-21.3,21.5-38.6c-0.2-3.9-0.7-7.8-1-11.7c-0.6-10.5,3.3-18.4,12.3-24.4c10.8-7.3,23-10,35.3-13
			c9-2.2,18.1-4.5,26.9-7.6c5.3-2,10.4-4.7,15-8.1c14.1-9.9,21.4-23.3,19.6-40.9c-0.3-2.7-0.5-5.4-0.8-8.1
			c-1.5-13.2,4.4-22.8,15.6-29.1c4.4-2.5,9.4-3.9,14.2-5.5c7.4-2.4,15-4.3,22.4-6.7c14.4-4.6,22.7-15.4,28-28.7
			c3.3-8.1,1.9-16.6-0.5-24.8c-1.2-4.3-2.2-8.7-3-13.2c-1.7-9.3,2.4-16,10.2-20.1c5.8-3.1,12.2-5,18.2-7.8s12.2-5.1,17.7-8.8
			c16.3-11,22.1-31.4,14.5-49.5c-2.7-6.4-5.8-12.6-8-19.1c-1.8-5.4-3.2-10.9-4.1-16.5c-1.6-8.8,1.8-15.9,8.4-21.6
			c10.6-9.2,23.4-14.6,35.8-20.8c4.8-2.4,9.3-5.3,13.4-8.8c9.4-8.2,11.6-19.2,10.8-31.2c-0.8-11.3-5-21.6-9.7-31.7
			c-1.9-4.1-3.1-8.4-3.7-12.8c-1.6-13.7,4.2-24.4,14.5-33.2c5.7-4.8,11.2-10,16.2-15.6c10.1-11,10.4-23.8,5.4-37.1
			c-1.8-4.7-4.6-9.1-7-13.6c-1.1-2.1-2.6-4-3.8-6.1c-10.8-18.8-9.4-32.8,3.7-50c7.1-9.3,13.2-19.4,19.2-29.4
			c4.7-7.8,6.4-16.8,7.6-25.8c0.7-5.3,1.4-10.6,2.1-16.4h52c1.6,6.1,0.9,12.1-0.7,17.8c-2.5,9-5.6,17.7-9,26.4
			c-2.9,7.6-6.7,14.8-9.5,22.4C2050.5,1186.3,2052,1200.7,2060,1214.1L2060,1214.1z M1138.3,159.1c10.9,6.4,22,12.4,32.6,19.2
			c8.1,5.2,15.5,11.4,23.1,17.2c1.8,1.6,3.4,3.2,5,5c-5.7-1-9.7-1.8-13.7-2.3c-17.6-2.2-35.1-5.3-52.8-6.3
			c-25.2-1.4-50.5-1.8-75.8-1.6c-33.1,0.2-66,3.9-98.7,9.2c-39.7,6.4-78,17.8-116,30.4c-99.3,32.7-193,80.6-277.6,142.1
			c-70,50.7-132.9,110.7-186.8,178.3c-47.9,60-88.1,125.8-119.5,195.9c-48,106.8-74.1,222.1-76.7,339.2c-0.1,2.4-0.2,4.8-0.4,7.2
			c-0.3,0.8-0.6,1.6-1.1,2.2h-69.3c0-11.9-0.5-23.2,0.1-34.6c1.1-20.1,2.7-40.2,4.5-60.2c4.1-44.4,12-88.2,22.6-131.4
			c17-69.6,41.6-137.1,73.2-201.3c29.5-60,64.7-116.9,105.2-170.1c32.4-42.7,67.9-82.9,106.3-120.4c24.5-24,49.6-47.5,76.7-68.5
			c29.7-23.1,61.4-43.4,94.1-62.1c102.8-58.6,212.3-98.9,328.3-121.8c41.9-8.3,84.3-13.9,126.9-16.8c36.9-2.5,74-2.7,110.9-0.7
			c18.3,1,36.5,3.6,54.7,5.5c1.4,0.2,2.7,0.8,5.9,1.9c-4.2,1.9-6.8,3.2-9.4,4.1c-15.6,5.3-31.4,10.2-46.9,15.9
			c-8.2,3-15.9,7.1-23.8,10.9c-1.1,0.5-2.1,1.2-3,2C1131.7,151.9,1132.1,155.5,1138.3,159.1L1138.3,159.1z M1981.9,1230.3
			c3.4,6,7.1,11.9,10,18.1c5.3,11.5,4.1,22.3-5.1,31.5c-4.5,4.5-9,8.8-13.9,12.8c-17,13.8-22.1,38-12.2,57.1
			c4.8,9.1,8.3,18.6,8.6,29.2c0.4,14.2-5.1,23.2-18,29.3c-8.7,4.1-17.4,8.3-25.7,13.1c-5.7,3.3-11,7.3-15.7,12
			c-10,10.1-12.1,22.8-8.1,36c2.7,9.2,7.5,17.7,11,26.6c1.5,3.8,3,7.9,3.4,12c1.8,19.1-9.3,29.1-23.8,35.1
			c-6.1,2.5-12.4,4.6-18.5,7.1c-5.9,2.3-11.2,6-15.3,10.8c-4.9,5.5-7.1,12.8-5.9,20.1c0.6,5.1,1.7,10.1,3.4,14.9
			c7.3,20.4-7.2,39.4-22.6,43.9c-6.9,2-13.8,4.1-20.8,5.8c-10.5,2.5-19.9,6.8-27.3,14.9c-7.1,7.7-10.3,16.8-9,27.3
			c0.4,3.3,0.6,6.6,0.6,9.9c0.1,18.8-7.9,31.3-25.4,38.5c-7.5,3-15.4,5-23.2,7.1c-7.2,2-14.7,3.3-22,5.2c-10.7,2.7-20,8-28.4,15
			c-6.1,5.1-9.5,11.6-9.3,19.7c0.1,5.4,0.5,10.8,1.2,16.2c2.2,14.2-3.4,26.5-15.8,33.6c-8.6,5-18.1,8.3-28,9.5
			c-12.6,1.4-25.1,2.8-37.7,3.5c-11.4,0.6-22.7,3.2-33.2,7.8c-12.9,5.8-21.3,16.3-27,29.1c-1.6,3.6-2.6,7.4-3.8,11.1
			c-5.2,15.7-15.6,25.7-31.8,30.4c-16.4,4.7-33.1,6.1-49.9,6.5c-11.1,0.2-22.3-0.4-33.4,0.1c-9.6,0.4-19.2,1.5-28.6,3.3
			c-18.8,3.8-32.4,15-42.2,31.2c-3.1,5.1-6.5,10.1-9.8,15.2c-3.6,5.7-8.9,8.9-15.2,10.6c-7.9,2.1-15.9,3.3-24.1,2.1
			c-8-1.2-16.1-2.3-24.1-3.5c-19.7-3-39.8-2-59.1,2.9c-7.8,1.9-15.3,5.5-22.3,9.5c-18.9,10.7-39.2,18.5-60.4,23.1
			c-14.7,3.3-30,3.3-44.7,0c-21.5-4.7-42.1-12.6-61.2-23.7c-20.5-11.9-43.2-14.3-66.3-13.1c-11.7,0.6-23.3,2.6-34.9,4.3
			c-7.7,1.2-15.6,1-23.3-0.5c-8.6-1.7-15.9-5.3-20.6-13.2c-2.2-3.6-5-6.8-6.9-10.5c-11.4-21.1-28.8-32.9-52.7-36.2
			c-17.5-2.4-34.8-1.1-52.2-1.6c-16.5-0.5-32.9-1.7-49.1-6c-17.6-4.7-29.2-15.1-34-32.6c-3.1-12-9.8-22.8-19.2-30.9
			c-3.8-3.3-8.1-6.1-12.8-8.1c-10.3-4.3-21.2-6.7-32.4-7.3c-12.3-0.7-24.6-2-36.8-3.4c-9.9-1.2-19.4-4.5-28-9.5
			c-12.5-7-18-19.3-15.9-33.5c0.7-5.7,1.1-11.4,1.2-17.1c0.2-7.4-3-13.4-8.5-18.2c-8.3-7.5-18.3-12.8-29.1-15.7
			c-11.7-3-23.4-5.6-35-8.6c-9.8-2.5-18.5-6.9-25.8-14.2c-6.4-6.5-10.3-14-9.9-23.3c0.2-4.5-0.1-9.1,0.5-13.5
			c1.9-14.7-4.1-25.7-15.6-34.2c-7.6-5.7-16.6-8.2-25.6-10.9c-4-1.2-8.1-2.4-12.2-3.4c-12.3-2.8-19.6-11.3-24.6-22.1
			c-3.2-6.8-2-14.1-0.2-21.2c1.1-4.1,2.2-8.1,3.1-12.2c3.3-15.2-3.8-25.4-15-31.7c-6.3-3.5-13.2-5.7-19.9-8.5
			c-3.9-1.7-7.8-3.2-11.5-5.1c-17-8.6-20.8-28.9-13.5-43.4c4.3-8.6,8.5-17.4,11.2-26.5c4-13.2,1.9-25.8-8-36.1
			c-4.4-4.5-9.4-8.4-14.8-11.6c-8.3-4.9-17-9.1-25.7-13.2c-14.3-6.6-19.8-15.7-18.9-31.4c0.7-9.3,3.4-18.4,8.1-26.6
			c10.9-20,5-45.2-12.9-59.1c-4.9-4-9.5-8.3-13.8-13c-8.2-8.6-8.8-18.7-4.5-29.3c1.8-4.1,3.9-8.1,6.1-12c1.9-3.4,4.1-6.7,5.9-10.1
			c9.3-17.3,8.1-34.1-2.6-50.3c-5.8-8.8-12.2-17.1-17.9-26c-8.7-13.6-11.4-28.8-11.1-45.7c18.4-1.2,36.3-0.3,54.2-0.5s36,0,54.5,0
			c1,5,1.8,9.3,2.8,13.6c3.9,17.3,14,29.6,30,37.2c3.8,1.8,7.7,3.7,10.8,6.3c6.1,5.3,6.3,11.3,1,17.4c-1.9,2.3-4.5,4-6.6,6.1
			c-8.3,8.1-7.5,18.1,2.3,24.2c4.9,2.9,10.1,5.4,15.5,7.3c9.7,3.7,16.1,10.2,19.1,20.1c3.6,12,11.6,20,22.5,25.7
			c18.6,9.6,38.4,11.6,58.8,9.7c6.6-0.7,13.1-2.2,19.3-4.3c5.4-1.7,10.6-4.3,15.2-7.5c7.8-5.7,9-13.9,4.6-22.4
			c-0.4-0.8-1-1.5-1.4-2.3c-2.5-5.1-1.9-7.8,3.5-9.9c4.5-1.7,9.2-2.7,14-3.1c11.7-0.8,23.4-1.6,35.1-1.5c10.1,0.1,18.9-3.2,27.2-8.4
			c13.2-8.3,17.6-25.4,2.2-38.6c-2.3-1.9-5-3.4-7.3-5.3c-5.9-5-7.2-12.3-2.5-18.5c2.8-3.9,6.4-7.2,10.5-9.7
			c12.9-7.5,20.9-17.8,21.8-33.1c0-0.6,0.5-1.1,1.1-2.5c2.7-0.1,5.9-0.4,9.1-0.4c104.1,0,208.3,0,312.4,0h1.5
			c0,18.8,0,37.6-0.1,56.4c-1.3-0.1-2.7,0-4,0c-28.9,0.2-57.8,0.2-86.7,0.5c-22.6,0.2-45.1,1.2-67.7,1.1
			c-24.7-0.1-49.3,0.4-73.7,4.5c-12.2,2.1-24.2,4.5-35.3,10.4c-17.5,9.3-22.1,25.8-11.8,42.5c1.1,1.8,2.5,3.4,3.4,5.3
			c2.7,5.5,1.8,10-3.2,13.4c-2.5,1.6-5.3,2.9-8.2,3.7c-4.6,1.4-9.3,2.3-14,3.6c-16.6,4.8-29.7,14-38,29.6c-8.1,15.2-5.6,35,7.3,46.2
			c6.8,5.9,14.3,11,22.3,15.1c10.8,5.4,22.3,8.7,34.8,8c14.4-0.8,28.9-0.6,43.3-0.6c21.1,0,42,1.8,62.5,7.2
			c8.2,2.2,15.6,6.5,21.5,12.7c11.9,12.2,11.3,32.4,0.8,41.5c-1.5,1.4-2.9,3.1-4.1,4.8c-6.1,8.5-7.4,17.5-2.7,27.2
			c5.2,10.7,13.6,17.4,24.8,20.8c12.3,3.8,24.8,7.2,37.1,11.2c9.2,3,17.8,7.4,24.8,14.3c8.3,8.2,12.8,20.9,5.2,33.7
			c-2.2,3.6-4.7,7-6.7,10.7c-6.6,12.1-7.4,23.7,1.7,35.3c7.9,10.1,18.3,15.2,30.4,17.7c17,3.5,34.1,2.4,51.2,1.3
			c13.5-0.9,27-2.3,40-6.4c12.6-3.9,25.3-7.7,37.9-11.8c18.6-6.1,37.4-11.9,57-13c16.8-0.9,33.7-0.3,50.5-0.3
			c14.6,0,28.7,3.4,42.5,7.3c14.8,4.2,29.2,9.3,43.8,13.9c34.1,10.6,68.8,14,104.2,9.1c8.3-1.2,16-3.9,22.4-9
			c16.6-13.3,21.1-27.7,9.3-46.4c-0.6-1-1.4-2-2-3c-1.1-1.8-2.2-3.6-3.3-5.4c-7.6-12.9-3.2-25.6,5.1-33.7c7-6.9,15.6-11.3,24.8-14.3
			c9.4-3.2,19-5.7,28.5-8.7c5.2-1.6,10.5-2.9,15.4-5.2c22.2-10.3,26.9-32.7,10.8-50.8c-0.2-0.2-0.4-0.4-0.6-0.6
			c-4.3-4.7-6.6-10.9-6.7-17.2c-0.7-16.4,10.8-29.4,27.6-34.8c14-4.6,28.6-7.1,43.4-7.4c20.8-0.3,41.5-0.9,62.2-0.1
			c23.2,0.9,41.9-8.3,59.3-22.2c13.9-11.1,14.4-30.6,9.9-42c-5.1-12.9-13.6-23.5-26.8-29.2c-6.9-3-14.1-5-21.2-7.4
			c-4.3-1.5-8.8-2.3-12.7-4.4c-6.6-3.4-7.9-8.7-4.4-15.2c1-1.8,2.4-3.5,3.5-5.3c9.4-15.7,5.3-32-10.7-40.8
			c-5.5-3.1-11.4-5.5-17.4-7.2c-19.5-5.2-39.5-7.6-59.7-8.2c-14.7-0.4-29.4-0.3-44.2-0.6c-16-0.3-31.9-0.7-47.8-1.1
			c0-0.1,0-0.3,0-0.4c-31.3,0-62.6,0-93.9,0c-2-0.1-4,0-6,0.1v-56.6c13.9,0.1,27.8,0.1,41.7,0.1l272.7-0.1h9c0.6,1.6,1,3.3,1.3,5
			c1,13.9,8.6,23.2,20.2,30.2c4.1,2.5,7.8,5.6,10.8,9.3c5.8,7,4.7,14.8-2.5,20.5c-2.4,1.8-5,3.3-7.3,5.3
			c-14.3,13.1-9.8,29.4,2.5,37.5c8.4,5.5,17.5,8.9,28,8.8c11.7-0.1,23.5,0.6,35.2,1.5c5.1,0.4,10,1.7,14.7,3.6
			c4.3,1.8,4.8,4.6,2.8,8.9c-0.4,0.8-1,1.5-1.4,2.3c-5.1,9.6-3.2,18.1,5.9,24.2c3.2,2.3,6.7,4,10.4,5.3c15.3,4.9,30.8,7.4,47.1,5.2
			c11.7-1.6,23-3.8,33.7-9.3c11.2-5.8,19.5-14,23.2-26.3c2.9-9.6,9.1-16,18.4-19.6c5.1-1.9,10-4.2,14.7-6.8
			c11.5-6.5,12.5-16.9,2.8-25.7c-1.8-1.6-3.8-3-5.3-4.8c-5.9-6.6-5.4-13,1.3-18.8c1.6-1.4,3.4-2.5,5.3-3.3
			c23.1-9.3,34.7-26.8,36.7-52.1c2.5-0.4,5.1-0.7,7.6-0.9c32.8-0.1,65.6-0.1,98.4-0.1c1.9,0.1,3.9,0.3,5.8,0.6
			c0.7,14.6-1,28.5-8.7,40.9c-5.5,8.9-11.3,17.8-17.6,26.1C1971.7,1191.2,1970.2,1209.7,1981.9,1230.3L1981.9,1230.3z M461.8,1142
			c-4.2-10.5-7.4-21-6.3-32.4c0.1-1.2,0.3-2.3,0.5-3.3c7.1-1.8,122.4-2.3,133.8-0.5c-0.1,10.2-4.2,18.2-12.8,23.9
			c-5.2,3.5-10.5,7.1-15,11.4c-12.4,12-8.9,29.6,3.2,37.3c2.6,1.6,4.9,3.5,7,5.6c6.1,6.7,5.3,15.1-2.2,20.1
			c-6.8,4.6-14.1,7.6-22.7,7.8c-14.1,0.3-28.2,0.9-42.2,2.2c-5.3,0.7-10.5,2.5-15,5.3c-8.2,4.9-9.4,11.8-4.7,19.9s3.9,12.5-4.7,16.4
			c-14.1,6.5-29,8.3-45.9,6.6c2-2.7,3.1-4.4,4.4-5.8c9.2-10.4,11.2-31.5,0.2-44.2c-3.4-3.9-6-8.2-6.6-13.6
			c-0.7-6.3,1.2-11.3,6.5-14.8c4-2.6,8.2-5,12.1-7.8C464.8,1166.9,468,1157.1,461.8,1142z M455.2,961.3
			c56.1-3.5,132.1,48.6,134.5,133.4h-133C456.2,1049.9,455.7,1005.6,455.2,961.3L455.2,961.3z M979.1,881.2
			c11.1-1.2,22.2-1.8,33.3-1.7c62.9,0.1,125.8,0,188.7,0.1c8.1,0,16.2,0.6,24.2,2c20.2,3.5,33.4,15.5,39.7,35
			c3.5,10.6,5.1,21.7,4.8,32.8c-0.5,16.8-0.1,33.7-0.2,50.6c-0.1,10.5-0.1,21-1,31.5c-0.9,11.3-0.2,22.8-0.2,34.3
			c0,10.8,0,21.6,0,32.4c0,9.3-0.1,18.7-0.1,28c0,55.1-0.1,110.2-0.1,165.2c0,11.4-1.9,22.2-8.1,31.9c-8.5,13.4-19.5,23.6-35.7,26.8
			c-3.2,0.6-6.5,0.9-9.8,0.9c-75.8,0.1-151.7,0.1-227.5,0c-13.3,0-24.7-4.5-34.1-14c-4.7-4.7-9.2-9.4-12.4-15.4
			c-4.5-8.5-6.9-18.1-7-27.7c-0.2-9.3-0.1-18.7-0.1-28c0-34,0-68,0-102h-0.1v-57.8c0-21.3,0.1-42.7-0.1-64
			c-0.1-8.1-1.1-16.2-1.2-24.3c-0.2-25.9-0.4-51.8,0-77.6c0-13.3,3.9-26.4,11.1-37.6C951.5,889.9,963.8,882.9,979.1,881.2
			L979.1,881.2z M979,836.7c0.1-4.5,3-7,7.5-7.6c2.4-0.2,4.8-0.3,7.2-0.2h214.7c2.4-0.1,4.8,0,7.2,0.3c4,0.6,6.4,3.1,7.1,7.1
			c0.2,1.2,0.3,2.4,0.3,3.6c0,7.8,0,15.6-0.1,23.5c-0.1,1.6-0.4,3.3-0.8,4.9c-3,3.1-6.4,2.3-9.7,2.3c-16.5,0-33.1,0.3-49.6-0.2
			c-26.7-0.8-53.5,0.7-80.2,0.1c-7.2-0.2-14.4-0.5-21.6-0.8c-2.7-0.1-5.4-0.1-8.1,0c-21.9,0.3-43.9,0.7-65.8,0.9
			c-2.1-0.1-4.1-0.3-6.2-0.7c-0.9-1.5-1.5-2-1.5-2.5C979.2,857.1,978.8,846.9,979,836.7z M934.3,1333.3c5.3,7.3,11.9,13.6,19.3,18.7
			c6,4.1,12.6,7.1,19.9,8c5.3,0.8,10.7,1.3,16.1,1.4c54.8,0.1,109.5,0.2,164.3,0.2c20.5,0,40.9,0,61.4-0.2c11-0.1,21.5-2.2,31-8.3
			c8.4-5.4,15.6-12.3,21.4-20.4c2.5-3.7,4.6-7.7,6.2-11.9c3.7-9.3,4.9-19.1,4.9-29.2c0-7.1,0-14.1-0.1-21.2c2.9,0.9,5.9,1.5,8.9,1.9
			c28.2,3.7,44.8,28.4,37.5,55.8c-3.2,11.9-9.2,22.2-17,31.5c-15.2,18.2-34.2,31.2-56,40c-9.7,4-19.8,7-30.2,8.9
			c-12.5,2.1-25.1,3.2-37.7,3.2c-53.3,0.4-106.5,0.7-159.8,0.3c-15.9-0.1-32-1-47.6-4c-29.7-5.6-55.3-19.8-76.7-41.3
			c-11-11-19.7-23.5-23.5-38.9c-4.3-17.5-0.9-32.9,13.4-44.8c7.8-6.5,16.8-10.6,27.1-10.9c1.9,0,3.9-0.4,5.8-0.9
			c0,9.1,0,18.2,0.2,27.3C923.5,1311.1,926.7,1323,934.3,1333.3L934.3,1333.3z M1366.9,1369.8c0.5,3.3,0.8,6.6,0.9,9.9
			c0.4,11.5-3.3,21.2-12.5,28.6c-9.4,7.5-20.4,11.4-31.6,14.8c-16.6,4.9-29.9,13.7-37.7,29.8c-2.6,5.4-5.7,10.6-9,15.6
			c-8.3,12.5-19.4,20.7-34.6,24c-14.9,3.2-29.2,2-43.7-1.8c-20.6-5.4-41.2-10.9-62-15.9c-23.8-5.7-47.6-5-71.5-0.2
			c-21,4.2-41.4,10.4-61.9,16.1c-14.7,4-29.5,5.2-44.6,1.6c-8.9-2-17.1-6.1-23.8-12.2c-8.1-7.2-13.3-16.3-18-25.8
			c-8.3-16.9-21.8-26.5-39.6-31.5c-7.5-2.1-14.8-5-21.8-8.6c-13.5-7-22.1-17.6-21.5-33.7c0.2-4.5,1.2-9,1.2-13.5c0-5,0-10.4-1.5-15
			c-5.6-17.1-17.4-29.5-32.7-38.1c-13.3-7.5-27.5-13.5-41.1-20.6c-5.1-2.5-9.8-5.7-14.1-9.5c-5.9-5.4-6.7-12.8-2.9-19.8
			c3.3-6.5,8.1-12,14-16.2c10.8-7.4,22.7-12.3,35.2-15.8c15.7-4.4,31.9-6.4,48.1-7.4c26.1-1.7,52.3-2.5,78.4-3.7
			c1.1,0,2.2-0.1,3.4-0.2c1.5,9.9,0.8,19.9,0.9,29.9c0,4.6,0,9.2,0,13.8c-4.6-0.8-9.3-0.8-13.9,0.2c-30.4,5.1-49.2,33.2-42.6,63.3
			c2.8,12.6,8.6,23.7,16.3,33.9c11.2,14.8,25.3,26.4,41,36.2c27.4,17,57.7,24.2,89.3,24.6c58.7,0.7,117.3,0.4,176,0
			c12.4,0,24.7-1.4,36.7-3.9c33.7-7.4,63.2-23.1,86.7-48.8c11.1-12.2,19.5-25.9,23.1-42.3c5.6-25.8-7.1-50.3-31.7-60
			c-8.1-3.2-16.4-5.1-25.2-3.2c0-14.5,0-29.1,0-43.6c0.7,0,1.3,0,1.9,0c8.7,0.3,17.4,0.7,26.2,1c24.4,0.8,48.7,1.3,72.9,4.6
			c16.8,2.3,33.3,5.3,48.8,12.2c12,5.3,23,11.8,29.7,23.8c4.7,8.4,3.8,16.4-3.5,22.7c-4.2,3.4-8.8,6.2-13.7,8.6
			c-8.6,4.3-17.5,8.1-26.1,12.3c-13.5,6.7-26.4,14.3-36,26.5C1370.4,1343.5,1364.1,1355.1,1366.9,1369.8L1366.9,1369.8z M922,1211.7
			c-0.5,0-1,0.1-1.5,0.1c-30.7,0.6-61.4,0-92,3.7c-22.8,2.8-45.1,7.5-66.1,17.2c-12.2,5.4-22.3,14.8-28.5,26.6
			c-4.8,8.9-4.1,17.4,0.7,25.7c2.3,3.9,5.3,7.2,9,9.8c7,4.6,14.3,8.9,21.8,12.7c6.4,3.3,13.2,5.9,19.7,8.9
			c10.7,4.9,20.4,11.2,28.5,20.1c10.3,11.4,14.1,24,11.2,39.1c-3.7,19,7.2,39.3,22.8,45.8c9.4,3.9,18.9,7.7,28.6,10.9
			c13.7,4.6,24.9,11.6,31.3,25.2c3.1,6.5,7.1,12.6,10.8,18.8c9,15,22.3,24.4,39.4,27.7c17.7,3.4,35.2,1.8,52.6-3.3
			c20.2-5.9,40.5-11.5,60.9-16.4c18.8-4.5,38.4-4.6,57.3-0.4c17.6,3.7,35,8.8,52.3,13.9c19.8,5.8,39.5,10.5,60.3,6.6
			c14.1-2.6,26.7-7.8,35.4-19.5c6.5-8.6,12.3-17.8,17.3-27.4c6.8-13.4,17.8-20.5,31.5-25.1c9.7-3.2,19.2-7.1,28.6-11
			c15.4-6.4,26.2-26.6,22.8-45.9c-1.7-9.3-2.1-18.6,2.9-27.2c6.5-11.1,14.7-20.6,26.4-26.4c10.2-5.1,20.8-9.5,30.9-14.7
			c7.5-3.7,14.8-8,21.7-12.8c12.7-9.2,15.2-23.7,7.5-37.4c-6.5-11.5-16.3-19.1-28-24.6c-18.5-8.7-38.1-13.3-58.1-15.8
			c-20.3-2.6-40.8-3.3-56.8-4.6h-44.7c0-7.4,0-14.8,0-22.2c0-6.5,0-13,0-19.5c2,0.1,4.1,0.1,6.1,0.1c66.8,1.2,133.6-1.9,200.3,3.5
			c15.6,1.3,31.1,3.3,46.1,8c6.6,2.1,12.8,5.6,17.9,10.3c6.1,5.4,7.4,10,4.4,17.7c-1.5,3.8-4.1,7.3-6.1,11c-4.4,7.7-3.6,16.3,3,22.2
			c3.4,2.9,7.3,5.2,11.5,6.8c5,2,10.4,3,15.6,4.5c14.1,4.2,25.4,11.8,32.8,25.1c7.1,12.7,5,28-5.7,37.7
			c-9.7,8.6-21.3,14.8-33.9,18.1c-3.5,1-7,1.5-10.6,1.6c-15,0-30.1,0-45.1-0.4c-23.9-0.6-47.6,1.1-70.6,7.6
			c-14.1,4-25.7,12.3-31.6,26.2c-6.5,15.3-5.1,30,7.1,42.5c4.6,4.7,7.9,10.1,6.3,17c-1.5,6.3-4.5,12.1-10.4,15.2
			c-5.6,2.9-11.4,5.3-17.3,7.3c-12.8,4.4-25.8,8-38.6,12.6c-9.7,3.6-18.1,10-24,18.4c-8.7,12.1-10.1,24.8-2.9,38.1
			c2.2,4,4.7,7.7,7,11.6c7.7,12.9,4.1,24.4-6.9,32.4c-5.2,3.6-11,6.2-17.2,7.4c-8.8,1.8-17.8,2.7-26.9,2.6
			c-13.2,0-26.4-0.9-39.6-1.9c-5.1-0.4-10.1-1.3-15-2.7c-20.2-5.8-40.3-12.2-60.6-17.6c-13.3-3.7-26.9-6.5-40.6-8.4
			c-12.8-1.6-25.8-1.7-38.7-1.4c-15.9,0.4-31.9,0.8-47.4,5.2c-19.3,5.6-39,10.2-58.1,16.4c-27.9,9.2-56.5,11.6-85.5,10
			c-11.4-0.6-22.9-1.7-32.8-8.5c-10.6-7.3-17.2-19.8-7.8-34.4c2.4-3.8,4.8-7.7,6.9-11.6c6.7-12.7,5.3-25-2.7-36.6
			c-6-8.8-14.5-15.5-24.5-19.2c-12.7-4.6-25.7-8.2-38.5-12.6c-5.7-1.9-11.5-3.8-16.5-6.9c-13.7-8.4-15.2-21.5-4.4-33.3
			c0.2-0.2,0.4-0.4,0.7-0.6c6.2-6.3,8.9-14.1,9.4-22.8c1.1-22-13.8-37.8-33.4-44.1c-14.9-4.9-30.5-7.5-46.1-7.8
			c-21-0.2-42.1-0.6-63.2,0.2s-38-7.4-53.3-20.5c-9.2-8-12.1-22.9-6.8-33.8c5-10.2,11.7-19.1,22.7-23.5c6.9-2.8,14.2-4.8,21.2-7.4
			c5.5-2.2,11.5-4,16.2-7.5c8.2-6.1,9.2-15.3,3.9-24.1c-1.7-2.8-3.7-5.5-5.1-8.5c-4-9-2.5-14.1,5.1-20.6
			c9.5-8.2,21.3-11.1,33.1-13.3c30-5.5,60.4-6.4,90.8-6.8c46.9-0.6,93.9-0.4,140.8-0.5c1.4,0,2.8,0,4.2-0.1
			C923,1184,923.7,1197.9,922,1211.7z M1745.5,1105.7c2,9.5,0.8,18.8-2.4,28c-1.4,4-3.2,7.8-4.5,11.8c-3.4,10.4-1.7,19.7,7,26.9
			c4.7,3.7,9.7,7.1,14.8,10.3c9.3,6.1,11.5,14.3,6.1,23.9c-0.9,1.5-2,3-3.1,4.4c-11.7,16.1-11.6,31.4,0.5,47.1
			c0.7,0.9,1.4,1.9,2.6,3.7c-2,0.5-4,1-6.1,1.2c-13.4,0.6-26.4-1.3-38.7-6.8c-9.2-4.1-10.2-8.3-5.2-16.9c4.5-7.7,3.4-14.6-4.2-19.4
			c-4.5-2.8-9.8-5.1-15-5.6c-13.7-1.4-27.5-2.1-41.3-2.2c-8.1-0.1-16.1-2.5-22.9-6.9c-9.3-5.8-10.2-15.1-2.2-22.5
			c2.2-2,4.8-3.6,7.2-5.4c10.9-8.8,12.9-22.7,3.9-33.5c-3.9-4.7-9.2-8.6-14.3-12.1c-11-7.3-14-11.6-15.6-25.5
			C1618.5,1104.5,1734.5,1104.1,1745.5,1105.7L1745.5,1105.7z M1612.4,1094c-0.3-72.5,66.1-134.4,134.1-133
			c-0.5,44.8-0.9,88.9-1.4,132.8C1736.9,1095.7,1620.3,1095.7,1612.4,1094z M1985.4,1095.3c-9.3,0.2-18.7,0-28,0h-55.7
			c-0.7-4.3-1.5-8-2-11.8c-4-31.6-15.7-60-37.4-83.5c-34.8-37.6-78-54.1-129.1-48.4c-61.7,6.9-115.5,53.7-128.4,119.6
			c-1.4,7.4-2.2,14.9-3.3,22.5c-2.7,2.5-6.2,1.5-9.3,1.5c-93.9,0-187.8,0-281.7,0c-10.6,0-21.2,0-31.9,0.1
			c0-53.7-0.1-107.4-0.2-161.1c0-9.3-1.4-18.6-5.2-27.3c-6.8-15.8-18.2-26.7-34.4-32.5c-2.1-0.9-4.2-1.9-6.2-3
			c-0.4-1.3-0.7-2.6-0.8-4c0.1-2.4,0.5-4.8,0.6-7.2c0.3-7.5,1.1-15.1,0.5-22.5c-0.9-11.2-6-18.7-21.6-19.2c-1.5,0-3,0.2-4.5,0.4
			c-1.2,0.2-2.4,0.3-3.6,0.3c-12.9-0.2-25.8-0.7-38.7-0.7c-23.2-0.1-46.3,0-69.5,0c-7.5,0-15,0.1-22.6,0.1h-65.8
			c-4.8,0-9.6,0.2-14.4,0c-14.5-0.6-23.5,6.1-23.8,21.7c-0.1,7.2,0.7,14.4,0.9,21.6c0.1,3,0,5.9,0,9.6c-3.1,1.3-5.2,2.3-7.5,3.2
			c-14,5-25.6,15.4-32.1,28.8c-4.8,9.7-6.7,20-6.7,30.6c-0.1,53.7-0.2,107.4-0.2,161.2c-15.2-0.1-30.3-0.1-45.5-0.1
			c-89.4,0-178.8,0-268.2,0c-2.9,0-5.8-0.3-8.6-0.5c-7.1-92.7-79.4-142.1-144-144.3c-41.2-1.4-77.5,12-107.9,40.1
			c-30.2,27.9-44.7,63.4-48,104.3h-109c-0.1-3.2-0.5-6.4-0.3-9.6c1.9-28.5,3-57.1,6.2-85.5c5.4-47.9,15.5-94.9,29.3-141.1
			c30.8-103,78.8-197.4,143.8-283.2c69.3-91.7,153-167.9,249.8-229.7c79-50.4,164.7-89.5,254.5-116.2
			c60.9-18.3,123.9-28.2,187.5-29.5c40.4-0.8,80.6,0.4,120.5,7.7c7.4,1.3,14.6,3.4,22,5.1c3.2,0.7,6.6,2,9-1.6s1.4-7.3-1.4-9.9
			c-9-8.4-18.2-16.6-27.6-24.5c-4.8-4-10.4-7.2-15.6-10.8c-1.4-1-2.6-2.1-3.9-3.2l0.5-1.3c12.1,1.8,24.3,3.3,36.3,5.3
			c64.5,10.7,127.7,26.9,189.1,49.6C1503,257.6,1603.7,317,1692.7,396s160.2,171.9,214,278c33.7,66.6,59.7,136.9,77.3,209.4
			c11.7,47.7,20.3,95.9,24.6,144.8c1.8,20.7,3.1,41.4,4.6,62.1c0,1.5-0.1,3-0.2,4.5C2003.9,1096.1,1994.7,1095.1,1985.4,1095.3
			L1985.4,1095.3z M2074.9,1095h-51.7c-0.7-10.1-1.6-19.7-2-29.2c-1.5-31.3-5.2-62.3-9.9-93.2c-5.6-36.9-13.2-73.4-22.8-109.4
			c-35.9-134-96.2-255.8-183.8-363.6c-88.3-108.7-195.5-193.4-321.7-254.2c-79.8-38.7-163.4-65.5-250.5-81.8
			c-9.2-1.7-18.3-3.2-27.5-4.9c-0.2,0-0.4-0.4-1-1.2c12.1,0,23.8-0.5,35.4,0.1c112.6,5.5,218.7,35,319.1,85.9
			c93,47.2,174.9,109.1,246.9,184.3c87.8,91.7,155.4,196.4,202.8,314.3c22.3,55.2,39.3,112.4,50.9,170.9
			c9.9,50.2,15.7,101.1,17.3,152.2c0.2,5.1,0.4,10.2,0.1,15.3C2076.3,1085.1,2075.5,1089.8,2074.9,1095L2074.9,1095z M2105.7,1524.9
			c-234,555.5-874,816.1-1429.5,582.1C272.6,1936.9,9.7,1542.1,8.5,1104.1c1.4,0,2.7,0,3.8,0c22.6,0.1,38.1,0,60.6,0.1
			c4.8,0,22.6,0.4,27.1,0.6c0.4,1.1,0.8,2.1,1,3.2c2.2,19.3,8.2,37.4,16.9,54.9c3.3,6.6,4.9,14.2,6.5,21.5c1.5,6.9,0.3,14-3.3,20.1
			c-3.9,6.8-8.1,13.3-12,20c-4.9,8.3-10.4,16.2-14.3,25c-7.2,16.4-2.2,38.7,15.2,49.1c5.4,3.2,10.8,6.6,16,10.1
			c4.5,3,9.2,5.9,13,9.7c8.3,8.3,12.6,18.2,9.5,30.3c-1.5,5.8-2.4,11.8-3.9,17.6c-6.5,26.2,0.9,48,20.8,65.9c3,2.5,5.8,5.2,8.4,8.1
			c5.9,7.1,8.4,15.2,5.7,24.4c-1.5,5.2-2.9,10.4-4.3,15.7c-4.7,17.8-0.8,33.5,12,46.5c6.5,6.6,14.1,12.1,21.4,17.9
			c4.7,3.7,9.7,7.1,14.6,10.6c15,10.9,20.1,25.6,16.5,43.6c-1.5,7.7-3,15.3-4,23.1c-1.6,12.4,1,23.9,9.3,33.7
			c6.3,7.5,14.3,12.8,23.2,16.8c13.1,6,26.5,11.4,39.2,18.2c12.3,6.6,20.2,17,21.2,31.5c0.1,1.8,0.5,3.6,0.8,5.4
			c4.1,27.2,19.7,46.1,43.8,58c8.8,4.3,18.6,6.8,28.1,9.5c11,3.1,22,6.1,31.9,12.1c4.2,2.4,7.7,5.8,10.3,9.9
			c5.3,8.3,7.9,17.4,9.8,26.9c3.7,18.5,12.2,33.7,29.5,43.2c9.2,5,19,7.7,29.1,9c11.6,1.5,23.3,2.2,35,3.4s21.3,6.3,28.4,15.7
			c4.2,5.5,7.7,11.5,11.7,17.1c5.3,7.7,10.2,15.7,16.2,22.8c12.7,15.1,30.1,22.5,48.5,27.9c19.8,5.8,40.3,6,60.7,7.4
			c15,1,29.9,2.9,44.8,4.5c7.3,0.7,14,4.3,18.8,9.9c4,4.8,7.6,10,10.8,15.4c3.3,5.4,5.8,11.2,9,16.7c4,7.1,10.3,12.7,17.9,15.9
			c16.2,6.8,33.1,8.4,50.4,6.9c10.8-0.9,21.5-2.6,32.2-3.9c24-2.8,46.2,0.9,64.9,17.5c2,1.8,4.2,3.5,6.5,4.9
			c10.6,6.2,20.9,13.2,32.2,18.1c28.5,12.2,58.8,17,89.6,18.4c26,1.2,51.7-1.6,77-7.4c19.8-4.5,38.9-10.7,56-22
			c9-5.9,17.7-12.4,26.6-18.6c7.9-5.6,17-9.2,26.5-10.6c16-2.4,31.9-0.5,47.6,1.8c17.8,2.6,35.3,3.1,52.8-1.2
			c14.2-3.5,25.4-10.6,31.9-24.1c2.3-4.9,4.8-9.7,7.3-14.5c7.5-14.3,18.4-23.3,35.2-24.5c13.5-0.9,26.9-2.5,40.3-4
			c14.9-1.6,29.9-2.5,44.5-6.7c26.2-7.5,47.6-21.2,61.2-45.6c3-5.5,6.6-10.7,10.1-16c8.3-12.8,19.6-21,35.3-22.1
			c4.5-0.3,9-1,13.5-1.2c13.3-0.6,26.4-2.1,39-6.7c16.8-6.3,29.6-17.1,35.3-34.8c1.8-5.4,3.3-10.9,4.4-16.5c4-20.7,15-35,36.1-40.6
			c4.7-1.2,9.2-2.8,13.8-4.1c6.3-1.8,12.9-3.1,19.1-5.4c29.7-10.8,49.1-30.7,54.3-62.7c0.6-3.6,1.1-7.1,1.7-10.7
			c1-5.6,3.6-10.9,7.4-15.2c6.4-7.6,14.7-12.4,23.4-16.4c10.1-4.6,20.6-8.4,30.6-13.3c21.5-10.6,35.2-26.6,29.8-55.3
			c-1.5-8.3-3.1-16.6-4-24.9c-1.5-13.2,3.2-24.3,13.5-32.7c5.8-4.8,12-9,17.9-13.7c7.3-5.8,14.9-11.3,21.5-17.8
			c13.2-13.2,17.2-29.2,12.3-47.2c-1.4-5.2-2.8-10.5-4.3-15.7c-2.5-8.9-0.2-16.7,5.4-23.6c2.8-3.5,6.3-6.4,9.7-9.4
			c19.1-17.7,26.1-39,20-64.5c-1.7-7-3.2-14.1-4.5-21.2c-1.2-6.4,0.1-12.5,3.2-18.3c4.4-8.3,11.5-13.7,19.3-18.5
			c6.1-3.8,12.3-7.6,18.3-11.6c5.6-3.6,10-8.8,12.6-14.9c5.1-11.4,5.1-22.7,0.5-34.2c-4.3-10.7-11-20-17.9-29.1
			c-12.4-16.6-15.1-34.3-6.4-53.4c1-2.2,2.1-4.3,3.2-6.5c6.9-14.5,12.7-29.2,13.8-45.5c0.2-2.9,1-5.8,1.7-9.4h10.2l89.8-0.3
			c1.7,0,3.4,0,5-0.1c-0.3,72.5-7.7,144.9-22.3,215.9C2154.9,1390.2,2133.6,1458.8,2105.7,1524.9L2105.7,1524.9z"/>
	</g>
</g>
</svg>
