<svg xmlns="http://www.w3.org/2000/svg" viewBox="0 0 1801 3354"><defs><style>.cls-1{fill:#ff8000;}</style></defs><g id="Warstwa_2" data-name="Warstwa 2"><g id="Warstwa_1-2" data-name="Warstwa 1"><path class="cls-1" d="M645.59,2094.14a58.77,58.77,0,0,1-6.79-8.39c-13.41-19.94-26.94-39.79-37.39-61.55-7.65-15.93-14.54-32.08-17.84-49.56-1-5.11-2.24-10.17-3.53-15.21a39.86,39.86,0,0,0-2-5c-3.71-2.35-6.57-2.08-9.54,1.22,0,2.3-.47,5.16.08,7.8,3.33,16.07,6.74,32.11,13,47.41a354.47,354.47,0,0,0,28.2,54.27c10.88,17.34,22.14,34.13,36.78,48.76,19.91,19.9,41,38.08,64.39,53.82,17.85,12,37,20.85,57.15,27.57,23.9,8,48.31,14.42,72.49,21.58a85.88,85.88,0,0,1,11.32,3.89c9.91,4.5,17.44,11,19.54,22.59.76,4.18,3.06,8.28,5.38,12,6.07,9.6,18.3,16.75,32.3,12.57a28,28,0,0,0,17.31-14,75.6,75.6,0,0,0,5.72-14.45,24.21,24.21,0,0,1,11.45-14.79,72.29,72.29,0,0,1,17.48-7.74c24.65-7,49.31-13.93,73.72-21.65,32.55-10.3,60.87-28.37,87.12-49.77a349.53,349.53,0,0,0,35.84-33.76c6-6.47,12.62-12.32,17.51-19.74,12.35-18.72,24.55-37.48,34.87-57.48,11.51-22.32,18.89-45.82,23.6-70.31.59-3.1,1.29-6.33-.5-9.29a5.7,5.7,0,0,0-6.58-1.75c-2.49.83-3.57,3-4.11,5.5-.86,3.91-1.67,7.84-2.62,11.73-1.81,7.38-3.17,14.93-5.67,22.08a298.62,298.62,0,0,1-15.53,36.42c-5.64,11.12-12.29,21.56-18.84,32.1-9.72,15.67-20.08,30.69-33.3,43.87-20.52,20.47-42.19,39.33-66.78,54.69a207.67,207.67,0,0,1-20.86,11.87c-21.76,10.34-44.89,16.94-67.77,24.24a13.38,13.38,0,0,1-2.79.19,11,11,0,0,1-1.83-.8,36,36,0,0,1-2.74-2.34c-18.1-17.52-39.71-28-64.37-32.8a93.59,93.59,0,0,0-36.91.09c-24.21,4.8-45.5,15.07-63.4,32.18-1.42,1.36-3,2.54-4.65,3.9a41,41,0,0,1-6-1.18c-17.67-6.43-35.84-11.28-53.33-18.35-24.89-10.06-46.17-25.49-67-41.87C672.78,2122.51,659.37,2108.12,645.59,2094.14Zm214.74,83.13c16.6-6.43,33.72-10.64,51.62-8.15,13.92,1.93,27.54,5.65,39.66,13,8,4.85,16.77,9.1,22.4,17.4-5.18,3.72-10.91,4.29-16.27,5.49-8.86,2-16.42,6.38-23.57,11.52-7,5.05-12,11.73-13.95,20.37-.43,2-.6,4.05-1.45,5.81-1.56,3.22-3,6.71-5.42,9.24-7.68,8.1-16.33,8-24.12.19a21.81,21.81,0,0,1-6.11-11.54c-3.64-20.22-18.72-28.64-35.87-34.85-6-2.16-12.56-2.39-18.94-6.07C836.05,2191.06,850,2181.25,860.33,2177.27Z"/><path class="cls-1" d="M466.15,2832.7c-4.78,15-12.25,25.23-22.89,33-5.48,4-11.49,7.24-17.38,10.64-5.19,3-10.66,5.53-15.78,8.66a47.2,47.2,0,0,0-14.1,12.9c-3.05,4.3-5.43,8.91-5.75,14.31-.76,12.85,2.07,24.58,10.37,34.81A99.05,99.05,0,0,0,421,2965.52c16.11,11.29,24.84,26.78,26.43,46.36.23,2.76.59,5.51.89,8.29a5.5,5.5,0,0,0,1.52-.3,5.92,5.92,0,0,0,1.84-1.45c15.74-24,20.75-49.1,8.48-76.18-1.16-2.55-2.33-5.11-3.24-7.75-3.57-10.37-5.33-20.81-2.62-31.8a102.87,102.87,0,0,1,7.61-20.16c2.78-5.78,5.58-11.54,8.32-17.33,3.62-7.61,3.6-15.53,1.32-23.41C470.81,2839.29,468.84,2837.15,466.15,2832.7Z"/><path class="cls-1" d="M1394.65,2886.49c-5.39-3.44-11.05-6.44-16.62-9.58-4.53-2.56-9.25-4.82-13.61-7.62-11.74-7.56-20.84-17.44-25.9-30.69-.5-1.33-.49-3.19-2.54-3.46-3,1.1-4.15,3.74-4.86,6.44-2,7.48-2.49,15,.77,22.32,2.28,5.12,4.79,10.14,7.11,15.24,2.49,5.46,5.23,10.84,7.24,16.48,3.25,9.15,4.54,18.44,2.36,28.28a86.89,86.89,0,0,1-6,18.15,68.9,68.9,0,0,0-6.69,31.32c.38,16.69,6,31.28,15,44.88.6.9,1.82,1.4,3.33,2.5.41-3.65.73-6.76,1.1-9.86,1.24-10.47,4-20.33,10.2-29.14a69,69,0,0,1,17-16.83,97.94,97.94,0,0,0,19.45-17.77c6.67-8.08,9.55-17.37,10.55-27.57s-2.41-18.93-9.57-26.14A48.26,48.26,0,0,0,1394.65,2886.49Z"/><path class="cls-1" d="M1164.11,2972c4.26-9.88,10.45-17.89,20.15-22.94a72.54,72.54,0,0,0,6.27-4.31c-4.73,0-7.92-.23-11.06.06-3.57.32-7.08,1.15-10.64,1.67-12.54,1.81-22.41,8-29.94,18.1-2.86,3.85-5.79,7.66-8.86,11.35a41.3,41.3,0,0,1-24.15,14.62c-9.87,2-19.78,2.69-29.77.75-5.49-1.06-11-2.16-16.57-2.69-25-2.42-45.57,5.84-60.68,26.35a99.42,99.42,0,0,0-6.33,10.18c-.35.63.41,1.87.79,3.35,4.08-2,7.55-4,11.24-5.42,20.21-7.92,40.56-12,61.3-1.63a65.39,65.39,0,0,0,7.73,3.24c10.62,3.74,21.38,6.1,32.83,5.76a45.1,45.1,0,0,0,32.06-14,77.92,77.92,0,0,0,14.43-20.54C1156.78,2988,1160.62,2980.05,1164.11,2972Z"/><path class="cls-1" d="M713.78,3029.1c11-2.46,21.37-6.63,31.58-11.22,4.51-2,9-3.16,13.93-2.33a35.16,35.16,0,0,0,6,.25,77.84,77.84,0,0,1,35.8,8.58c2.71,1.35,5.18,3.71,10.43,2.91-2.67-4.38-4.52-7.92-6.82-11.13-15.71-21.88-37.05-30.74-63.63-27.17-5.54.74-11,1.93-16.56,2.72a79.8,79.8,0,0,1-27.43-1.1,41.74,41.74,0,0,1-25-15.38c-3.49-4.38-6.91-8.82-10.36-13.23A40.36,40.36,0,0,0,640,2947.75c-8.43-2.28-17.11-4.22-26.76-2.41a25,25,0,0,0,3.82,3c11.08,5.37,17.78,14.41,22.33,25.57,3,7.39,6.69,14.52,10.21,21.7a84.43,84.43,0,0,0,14.34,20.62c6.79,7.26,15.12,12.17,24.82,13.55A69.46,69.46,0,0,0,713.78,3029.1Z"/><path class="cls-1" d="M1510.58,2712.18a54.14,54.14,0,0,0-23.57-8.35c-8-.77-16-1.16-24-1.64-2.79-.16-5.65-.29-8.57,2.85,3.08,3.32,6,6.08,8.45,9.22a125.13,125.13,0,0,1,10.37,14.68c4.62,8.16,7,17.18,6,26.56-1.47,14-5.16,27.47-12.28,39.87a118.54,118.54,0,0,0-11.86,28.81c-3.37,12.8-1,24.59,6.27,35.49.57.86,1.84,1.26,3.21,2.15.87-3.45,1.75-6.51,2.42-9.62,3.66-16.93,12-31.31,24-43.62a148.42,148.42,0,0,1,13.23-12.23c11-8.85,17.77-20.5,22.78-33.34C1533.86,2745.5,1527.42,2722.72,1510.58,2712.18Z"/><path class="cls-1" d="M335.43,2795a82.8,82.8,0,0,1-9.2-23.39c-1.87-8.51-4.11-17-2.46-26.09a61.71,61.71,0,0,1,14.58-29.82c3.13-3.62,6.46-7.08,10.26-11.22-2.31-.92-4.08-2.27-5.79-2.19-10.4.49-20.83.87-31.13,2.18-5,.65-10,2.84-14.71,5-20.7,9.5-28.22,33.67-22,51.61,4.54,13,11.05,24.82,21.88,33.9a188.36,188.36,0,0,1,15.82,14.73c11.22,11.85,19.1,25.63,22.72,41.68.76,3.4,1.74,6.74,2.65,10.23,1.24-.64,2.19-.82,2.59-1.38,7.83-11.11,10.27-23.23,6.7-36.46A120.9,120.9,0,0,0,335.43,2795Z"/><path class="cls-1" d="M1190.19,2848.38c-4.08,2.5-8.45,4.55-12.66,6.86-7.37,4-14.86,7.87-22,12.24-8.34,5.08-14.79,12.2-19.91,20.5-6.32,10.24-8.76,21.18-5.84,33.1,3.24-.49,3.34-3.41,4.52-5.34,2.75-4.5,5.73-9.07,10.44-11.37,7.88-3.84,16-7.51,24.87-8.43,11.11-1.14,22.17-2.77,33.39-2.92a72.21,72.21,0,0,0,23.53-4.17c6.86-2.47,11.78-7.2,14-13.93,2.85-8.75,4.45-17.79,3-27.19a89.93,89.93,0,0,0-27.85-53.22c-2.55-2.4-5.07-5-9.47-5.86a40.35,40.35,0,0,0,.42,4.75c.9,4.3,2.38,8.53,2.83,12.87C1211.25,2824,1206,2838.68,1190.19,2848.38Z"/><path class="cls-1" d="M595.52,2788.45a41.13,41.13,0,0,0-4.84,3c-14.44,11.74-23.9,26.84-29.08,44.56-3.42,11.7-4.11,23.52-.57,35.53,2.59,8.77,7.42,15.2,16.27,17.6a126.58,126.58,0,0,0,21.15,3.89c9.13.86,18.28,1.13,27.43,2.19a118.87,118.87,0,0,1,24.4,5.67,32,32,0,0,1,18.08,14.88c1.15,2,1.27,4.86,4.3,5.32,3.71-15.87-.38-23.94-5.65-33a57,57,0,0,0-19.86-20.52c-8.22-4.95-16.85-9.21-25.19-13.95-5.2-3-10.62-5.75-15.22-9.5a34.89,34.89,0,0,1-13-22.24c-1.54-9.42-.49-18.3,1.88-27.25C596.17,2792.66,597.24,2790.83,595.52,2788.45Z"/><path class="cls-1" d="M1044,2891.91c-7.33-2-14.67-3.93-22-5.82-11.28-2.89-21.35,0-30.52,6.69-2.25,1.65-4.3,3.58-6.49,5.34a73.3,73.3,0,0,1-34.78,15.2c-7,1.15-14.19,1.78-21.85,2.71,7,5.31,14.74,7.07,22.33,9.3a33.16,33.16,0,0,0,17.78.52c8.12-2.09,16.34-3.94,24.25-6.68a32.33,32.33,0,0,1,23.4.59q10.59,4.2,21,8.88a39.89,39.89,0,0,0,16.19,4c10.43.09,20.85,0,29.55-7.34a49.68,49.68,0,0,0,12.86-15.61,290.55,290.55,0,0,0,16.12-38.72c3.35-9.88,7.63-19.41,16.39-26a12,12,0,0,0,2-2.75c-.5-.29-.88-.7-1.2-.66-13.49,1.73-23.85,8.61-31.73,19.48-4,5.51-7.68,11.26-11.89,16.59C1074.66,2891.21,1061,2896.59,1044,2891.91Z"/><path class="cls-1" d="M717.07,2877.34c-3.8-5.16-7.41-10.45-11.15-15.65-8.06-11.2-18.49-18.55-33.43-19.31,9.49,7.13,14.5,17.19,18.15,27.83a321,321,0,0,0,15.4,37.72,54.8,54.8,0,0,0,8.78,12.81c4.67,5.11,10.25,9.47,17,10.67,11.89,2.09,23.8,2.56,35.14-3.45,6-3.17,12.45-5.45,18.77-7.94,8.06-3.18,16.07-3.76,24.54-.74a188.93,188.93,0,0,0,24.26,6.6c11.22,2.4,27.59-1.76,37.36-8.89.2-.15.16-.63.33-1.43-2.42-.17-4.78-.3-7.14-.49-8.79-.72-17.42-2-25.78-5.1a78.24,78.24,0,0,1-25.68-15.14c-10.38-9.29-22.32-11.9-35.71-8.2-7.31,2-14.65,4-22,6-5.55,1.55-11,1.15-16.6-.12C729.92,2890.35,722.7,2885,717.07,2877.34Z"/><path class="cls-1" d="M987.78,3067.48c-2.8-.18-5.61-.59-8.39-.49-13.18.47-25.31,3.64-34.56,13.93a35.23,35.23,0,0,1-3.45,3.35c-3.68,3.06-7.14,6.51-11.18,9-18.93,11.74-38.84,11.81-57.71,0a70.54,70.54,0,0,1-13.73-11.55c-10.35-11.1-23.28-15.45-37.87-14.51-11.4.74-22.33.32-32.7-4.92a1.83,1.83,0,0,0-.91,0,4.55,4.55,0,0,0,.53,2c6.65,7.89,14.56,13.4,25.2,14.74,13.12,1.66,23,8.56,29.86,19.9,1.24,2,2.65,4,3.93,6,5.24,8.29,12.34,14.51,20.73,19.55s17.61,7.43,27.26,8.45a66.05,66.05,0,0,0,35-5.67,62,62,0,0,0,28.09-25.31A66.39,66.39,0,0,1,964,3093c7-8.35,16.08-12.69,26.86-14.34,10.52-1.61,19.28-6.45,24.39-16.35a15.41,15.41,0,0,0-4.13,1.09C1003.77,3067.41,995.88,3068,987.78,3067.48Z"/><path class="cls-1" d="M787,3062.25l.28,0a1.57,1.57,0,0,0,0-.23Z"/><path class="cls-1" d="M1015.67,3062.24h0l.34-.32a3.5,3.5,0,0,1-.59.08h0l-.18.33Z"/><path class="cls-1" d="M1274.82,3023.43A28.22,28.22,0,0,0,1262,3032a134,134,0,0,0-9.77,13.66c-3,4.75-5.29,9.88-8,14.79-10.63,19.35-24.38,35.64-44.64,45.6-7.54,3.71-15,7.53-22.41,11.55-6,3.26-11.83,6.74-17.56,10.39-6.47,4.13-11,10.05-15.93,17.83,3.65-1,5.88-1.53,8-2.28,9.48-3.26,19-6.37,29-7.56,12.3-1.46,24.61-2.85,36.94-4,30.53-2.9,46-17.66,52.57-41.48a167.64,167.64,0,0,0,4.67-22.28c2.18-16.09,6.14-31.41,16.45-44.45.29-.37-.21-1.35-.45-2.64C1285.36,3020,1280.09,3021.55,1274.82,3023.43Z"/><path class="cls-1" d="M643.13,3128.09c-6.06-3.87-12.3-7.49-18.62-10.93-8.79-4.79-17.79-9.19-26.58-14a79.33,79.33,0,0,1-19.8-15.45,128.25,128.25,0,0,1-21.31-30.36,136.21,136.21,0,0,0-13.72-22.54c-7.45-9.56-17.33-13.83-29.19-14-1,0-2,.89-3.16,1.46,3.16,5.4,6.5,10.38,9.13,15.7,4.66,9.45,6.41,19.74,7.74,30.09a138.52,138.52,0,0,0,6.63,28c4.27,12.19,11.57,21.85,23.11,28.06a67.16,67.16,0,0,0,23.9,7.57c7.54.9,15.11,1.64,22.69,2a167.09,167.09,0,0,1,46.83,9.78c2.17.76,4.42,1.26,8,2.27C654.16,3138,649.54,3132.2,643.13,3128.09Z"/><path class="cls-1" d="M1097.2,3097.61c-5.45,3.25-10.23,7.66-15.2,11.69a48.25,48.25,0,0,1-35.77,11l-6-.52c-6.37-.55-12.73-1.31-19.11-1.6-15.63-.72-29,4.38-39.72,16-3.24,3.53-6.15,7.36-9.22,11.06-8,9.66-16.56,18.61-30.9,21.26,7.45,4.14,13.82,4.18,20.53,1.82a120.86,120.86,0,0,0,21.57-10.36c11.25-6.66,23.1-8.23,35.83-5a157.37,157.37,0,0,0,22.35,4.18c11.66,1.24,23.11.81,33.55-6a44.71,44.71,0,0,0,13.52-13.38c5.18-8.09,10.63-16.06,15-24.58,5.31-10.39,13.82-16.25,24.27-20.11,1.36-.5,2.65-1.18,6.43-2.88C1118.57,3086.71,1107.59,3091.41,1097.2,3097.61Z"/><path class="cls-1" d="M841.46,3168.42A21.38,21.38,0,0,0,860,3167.3c-5.71-3-11.72-5.2-16.5-8.94-5.3-4.14-9.54-9.64-14.11-14.66-3.23-3.55-6-7.51-9.38-10.92-10.06-10.23-22.53-15-36.73-14.73a184.43,184.43,0,0,0-21.49,1.8c-16.84,2.24-31.7-1.6-44.43-13.21a68.38,68.38,0,0,0-12.39-9.43c-9.82-5.5-20.07-10.06-31.85-8-.84.14-1.55,1-2.54,1.61a9.15,9.15,0,0,0,1.42,1.27,19.77,19.77,0,0,0,2.22.83c11,3.73,20,9.82,25.08,20.81a80.63,80.63,0,0,0,5.43,9.33c3.85,6.08,7.44,12.38,11.81,18.07,7.12,9.28,16.69,15,28.43,16.07,6.32.59,12.72.83,19.11-.63,7.78-1.77,15.73-2.77,23.55-4.4a40.74,40.74,0,0,1,26.85,3.36c3.23,1.57,6.34,3.42,9.59,5C829.8,3163.22,835.55,3166,841.46,3168.42Z"/><path class="cls-1" d="M944.09,3223.74c-4.78-.38-9.55-.93-14.31-1.48-8.75-1-17.5-3-26.24-2.93-9.95.05-19.9,1.86-29.85,2.89-5.17.54-10.33,1.18-15.51,1.54-11.83.83-22-3.11-30.89-10.85-2.31-2-4.78-3.84-8.33-6.67.25,3.4.07,5.42.59,7.24,3.24,11.4,10.11,19.82,20.9,25a195.87,195.87,0,0,1,33.73,20.72,74.35,74.35,0,0,0,11.23,6.93c10.69,5.43,21.57,5.51,32.27.07a84.26,84.26,0,0,0,12.24-7.58,198.68,198.68,0,0,1,31.65-19.53,53.76,53.76,0,0,0,10.11-6.4c8-6.47,11.75-14.69,12-26.4-3.37,2.89-5.51,4.65-7.58,6.5C967,3221,956.34,3224.72,944.09,3223.74Z"/><path class="cls-1" d="M1129.17,3193.35c-2,1.31-4,2.59-5.93,4-10.84,8.2-23.62,11.38-36.59,13.84-6.64,1.26-13.46,1.58-20.2,2.33-15.21,1.68-28.09,8.22-39.49,18.33-12.8,11.35-21.81,25.36-30.84,43.08,5.58-2.74,8.7-4.26,11.81-5.81,12.22-6.09,24.89-10.78,38.57-12.24,8.74-.94,17.52-1.56,26.2-2.88,24.19-3.69,42.63-15.27,51.75-39,2.29-5.95,4.14-12.08,6-18.17.32-1-.08-2.27-.15-3.36C1129.78,3193.42,1129.37,3193.22,1129.17,3193.35Z"/><path class="cls-1" d="M774.69,3231a67.61,67.61,0,0,0-35-17.07c-7.47-1.25-15.07-1.65-22.59-2.58a67.66,67.66,0,0,1-9.37-1.8c-12.41-3.35-24.51-7.4-35.58-18.34,0,3.49-.24,4.7,0,5.77a126.72,126.72,0,0,0,10.17,26.82,52.43,52.43,0,0,0,12,14.77c10.61,9.38,23.23,13.76,36.92,15.58,8.7,1.15,17.5,1.65,26.19,2.92s17.32,2.91,25.35,6.75c6.12,2.92,12.25,5.82,18.37,8.75,1.41.67,2.81,1.45,4-.41C793,3249.77,788.63,3243.75,774.69,3231Z"/><path class="cls-1" d="M427.41,2711.89c-1.86-.19-3.1-.63-4.18-.38-17.62,4-29,15.4-32.57,35.59-1.62,9.13-.74,18.32,1.26,27.41,2.25,10.15,4.22,20.37,6.45,30.52a25.08,25.08,0,0,1,.14,11.87c-.59,2.31-.6,4.77-1,7.14-.4,2.64-.91,5.27-1.53,8.84,10.53-4.76,18.53-11.26,26.33-18.11,4.63-4.07,7.64-9.21,10.38-14.59,4.1-8,4-16.23.46-24.36a94.76,94.76,0,0,0-6.17-11.66,70.83,70.83,0,0,1-9.94-28.72c1.26-3.64,2.46-7.88,4.2-11.89S425.21,2716,427.41,2711.89Z"/><path class="cls-1" d="M1380.66,2711.69c-1.63-.41-3.81-1.22-5.23,1.63,5,7.09,9,14.9,10,23.72-3.34,15.4-3.38,15.38-10.38,28.09-2.12,3.85-4.22,7.73-6,11.76-2.45,5.67-3.44,11.81-1.24,17.59,2.11,5.55,4.68,11.26,8.41,15.78,8,9.63,18.2,16.63,29.33,22.2.49-.69,1-1.05.91-1.34a29.69,29.69,0,0,0-.72-3.47c-2.83-11.1-2.45-22.15.26-33.22,1.62-6.6,3-13.25,4.67-19.86a74.28,74.28,0,0,0,1.62-25C1410.52,2731.32,1399.35,2716.37,1380.66,2711.69Z"/><path class="cls-1" d="M517,2858.83c-.25.65-.15,1.44-.38,3.85,10.22-7.22,14.24-16.77,17.69-26.57a34.53,34.53,0,0,0-1-25.75,14.17,14.17,0,0,1-.81-2.26c-4.23-18.64-.63-35,14.54-47.61a150.84,150.84,0,0,1,13.58-9.84c8.82-5.83,14.42-13.68,15.93-24.24.13-.86-.46-1.83-.73-2.79a6.45,6.45,0,0,0-1.58.6c-1.51,1.31-3.06,2.59-4.43,4a57.68,57.68,0,0,1-32.07,17.48,68.43,68.43,0,0,0-20.13,7.51c-16.76,9.08-22.87,27.61-16.73,44a166.61,166.61,0,0,0,11,22.6C518.6,2832.05,522.57,2844.87,517,2858.83Z"/><path class="cls-1" d="M1285.05,2753.2a82,82,0,0,0-22.48-8,54.22,54.22,0,0,1-27.13-14.44c-2.55-2.47-5.18-4.87-9.59-9,1.13,13.11,5.42,21.59,14.39,27.52q3.49,2.31,6.87,4.82c3.2,2.38,6.45,4.72,9.49,7.3,11.15,9.47,15.89,21.68,15.15,36.16a52.83,52.83,0,0,1-3.49,16.34,31,31,0,0,0-.5,20c2.88,10.16,7.21,19.48,15.22,26.68.67.59,1.83.63,3.35,1.12-.51-1.86-.73-3-1.11-4-3.61-10-2.53-19.66,1.66-29.15,1.6-3.65,3.46-7.18,5.18-10.77,3.27-6.84,6.9-13.54,9.69-20.58C1308.2,2780.84,1301.77,2762.3,1285.05,2753.2Z"/><path class="cls-1" d="M840.28,2985.73c5.24,2,10.68,3.35,16,5,7.28,2.26,14.54,4.65,20.55,9.58a43.84,43.84,0,0,0,24.2,10c8-.86,15.53-3.33,21.9-8.56,7-5.73,15.14-8.84,23.62-11.39,5-1.5,10-2.81,14.89-4.63,9.36-3.5,14.24-8.29,20.12-20-3.25,1.82-4.73,2.48-6,3.39-11.51,8-24,10.41-37.64,6.87-3.48-.9-7-1.64-10.43-2.73-13.58-4.3-27.32-6.05-41.38-2.81-5.06,1.16-10.09,2.45-15.06,3.92-10.54,3.13-21.11,4.89-31.81,1a106.44,106.44,0,0,1-10.86-4.86c-2.32-1.16-4.12-3.47-7.3-3.41C825.75,2977.14,830.84,2982.2,840.28,2985.73Z"/><path class="cls-1" d="M1201,3011.8c7.78-4.94,15.92-9.4,24.87-11.85,26.11-7.14,43.75-24.35,55.93-47.58,6.2-11.82,9.72-24.6,7.33-38.27a10.34,10.34,0,0,0-1.53-2.82c-.91.78-1.76,1.15-2,1.75-8.19,21-23.81,34.56-43.66,44.1-7.19,3.46-14,7.8-20.9,11.76-7.13,4.07-12.56,9.92-16.93,16.75a121.47,121.47,0,0,0-13.32,26.84c-1.43,4.32-4.29,8.25-4.18,13.05,1.78-2,3.5-4,5.41-5.83C1194.93,3017,1197.69,3013.91,1201,3011.8Z"/><path class="cls-1" d="M615.92,3023.79a161.9,161.9,0,0,0-16.09-36.07,56.52,56.52,0,0,0-19.19-19.48c-7.21-4.33-14.32-8.78-22-12.21a62.72,62.72,0,0,1-11.5-6.41C534,2940,522.54,2929,517,2913.08c-.26-.74-1.58-1.1-2.86-1.94-1.82,7.78-2,15-.21,22,7,27,22.5,47.53,47.19,60.74,4.54,2.43,9.58,4,14.49,5.68,15.38,5.2,29.77,11.89,39.65,25.6a2.24,2.24,0,0,0,.69.55A5.24,5.24,0,0,0,615.92,3023.79Z"/><path class="cls-1" d="M698.72,2720.3c-6.56,11.81-17.2,16-29.86,16.7-4,.22-8,0-12,.46-3.13.38-6.59.86-9.16,2.48-8.52,5.37-14,13-14.78,23.39-.56,7,1.69,12.36,7.52,16.52,7,5,14.75,7.93,23,9.91,4.28,1,8.71,1.57,12.83,3,13.34,4.67,26.25,10.1,32.69,25.22,2.69-9.15-.61-16.53-2.78-24a16,16,0,0,0-10.26-11c-4.87-1.75-9.93-2.94-14.9-4.4a94.51,94.51,0,0,1-9.14-2.77c-4.8-1.94-7.91-5.37-8-10.86s2.57-9.22,7.44-11.21a123.12,123.12,0,0,1,12.48-4.12c2.29-.65,4.76-.65,7.06-1.26,5.52-1.48,9.08-4.88,9.84-10.77.31-2.38.76-4.75.85-7.14.23-6.13,3.09-10.62,8.15-13.86a14.25,14.25,0,0,0,3-2c.8-.87,2.93-.94,2.14-3.43C708.2,2712.29,702.12,2714.17,698.72,2720.3Z"/><path class="cls-1" d="M1133.78,2737a37.34,37.34,0,0,1-23.25-8.38c-2.9-2.34-4.7-5.28-6.63-8.34-3.94-6.25-9.16-8.55-17.14-8,2.28,1.58,4.2,3,6.21,4.29,5,3.27,7.93,7.75,8.13,13.88.06,2,.44,4,.62,6,.65,6.94,4.7,10.78,11.23,12.28,1.94.44,4,.37,5.91.92a123.17,123.17,0,0,1,12.48,4.13c4.88,2,7.55,5.76,7.44,11.21s-3.22,8.92-8,10.85a94.51,94.51,0,0,1-9.14,2.77c-5,1.45-10,2.7-14.9,4.41-3.43,1.2-6.69,3.27-8.22,6.66-3.88,8.65-7.32,17.48-5,29,6.25-15.44,18.85-20.71,31.67-25.53,3.72-1.4,7.77-1.87,11.63-2.88,4.26-1.11,8.54-2.15,12.69-3.58a42.36,42.36,0,0,0,15.34-9.18,15.15,15.15,0,0,0,4-5.82c4.54-13.68-6.45-31.63-20.77-33.83A110.54,110.54,0,0,0,1133.78,2737Z"/><path class="cls-1" d="M823.81,2781.19c1.85,8.87,6.81,13.51,12.33,17.24a79.43,79.43,0,0,1,24.2,26.31c6.39,10.91,16.26,17.54,27.49,22.35a32.42,32.42,0,0,0,25.75.43c11.34-4.61,21.39-10.9,28-21.66a96,96,0,0,1,5.2-8.09c5.36-7,11.21-13.5,18.67-18.53,5.88-4,11.4-8.63,13.41-17.91a50.15,50.15,0,0,1-19.71,13,46.49,46.49,0,0,0-19.68,13.3c-7.94,9.25-18.69,13.44-29.8,17.11a25.42,25.42,0,0,1-16.5,0c-11.09-3.7-21.88-7.77-29.84-17a46.56,46.56,0,0,0-19.64-13.34A49.06,49.06,0,0,1,823.81,2781.19Z"/><path class="cls-1" d="M977.9,2860.94c10.65,0,18.54-3.8,26.48-7.56,6.87-3.26,14-5.71,21.72-6.25a71.07,71.07,0,0,0,12.94-2.23c8.15-2.15,14.2-6.92,17.61-14.89a30,30,0,0,0,2.29-12.85c-.24-9.57-.25-19.11,1.66-28.56.08-.39-.7-1-1.09-1.45-.66.56-1.55.95-1.82,1.59-4.33,10.25-12.44,16.29-22.36,20.45-3.67,1.54-7.2,3.44-10.78,5.19-6.66,3.27-12,7.94-15.07,14.8-2.34,5.16-5.92,9.28-9.73,13.46A101.5,101.5,0,0,1,977.9,2860.94Z"/><path class="cls-1" d="M742.43,2785.69c-.23,2.72-.71,4-.37,5,2.08,6.21,1.64,12.62,1.75,19,.06,3.59-.24,7.19,0,10.77.81,12.71,8.34,21.65,20.7,24.68a43.37,43.37,0,0,0,8.21,1.56c11,.44,21.08,4.14,30.75,9.06,6.42,3.27,13.2,4.82,21.24,5.27-2.38-1.6-4.06-2.64-5.65-3.82-10.68-7.87-20.3-16.73-26.31-28.85a29.33,29.33,0,0,0-13.34-13.28c-4.62-2.37-9.21-4.8-14-6.85-8.76-3.77-15.72-9.34-19.75-18.21C745.2,2789,744.29,2788.15,742.43,2785.69Z"/><path class="cls-1" d="M899,2535.63c-3.6,9.32-7.28,18.62-10.61,28-2.27,6.4-4.14,13-6,19.5a24,24,0,0,0-.78,7.12,20,20,0,0,0,17.78,19.51c9.53,1,17.71-4.73,20.83-14.48,1.4-4.38,1-8.63-.08-13-4.39-17.52-11.81-33.9-18.85-50.94A36.8,36.8,0,0,0,899,2535.63Z"/><path class="cls-1" d="M920.44,2410.44c-2.09-7.3-4.27-14.59-6.78-21.76-3-8.67-6.45-17.22-9.76-25.8-.56-1.47-1.38-2.85-2.5-5.09-1.18,2.31-2.16,3.88-2.82,5.58-3.32,8.58-6.72,17.13-9.77,25.8-2.39,6.78-4.42,13.7-6.39,20.62a24,24,0,0,0-.84,7.11,20,20,0,0,0,17.61,19.67c9.51,1.09,17.74-4.6,21-14.3A19.76,19.76,0,0,0,920.44,2410.44Z"/><path class="cls-1" d="M872.49,2754.83c2.85,11.25,10,17.08,20.84,19.25a40.86,40.86,0,0,0,17.68-.42c10.94-2.51,17.29-9,19.17-19.28-2.75-9.4-9-14-17.2-16a47.1,47.1,0,0,0-23.67.12C881.1,2740.69,875,2745.35,872.49,2754.83Z"/><path class="cls-1" d="M1324,2707.13a29.88,29.88,0,0,0-23.15-2.41c-10,2.91-19.75,2.06-29.39-1.3-3.75-1.31-7.43-2.89-11-4.56-6-2.8-12.34-3.1-18.72-1.84-1.29.25-2.37,1.58-3.68,2.51,6,1.48,11.53,2.34,16.68,4.29,4.41,1.66,8.46,4.41,12.47,7,10.74,6.87,22.13,10.89,35.1,9.24a59.71,59.71,0,0,1,9.55-.26c5.84.2,9.89,2.77,10.94,8.72.17,4.89-3.38,9.29-.16,16.31,1.37-10.26,10.35-14.26,11.64-22.24C1334.3,2714.58,1330.13,2710.34,1324,2707.13Z"/><path class="cls-1" d="M535.31,2710.74c8.74-6.06,18.05-10.07,30.29-10.39-2.31-1.71-3.33-3-4.57-3.3a31.39,31.39,0,0,0-20.92,2.73c-12.94,6.35-26.31,8.87-40.57,4.45a26.84,26.84,0,0,0-10.66-.51,29.9,29.9,0,0,0-16.95,8.18c-3.07,2.86-3.58,7-3.52,12.1,1.78,2.59,4.06,5.81,6.23,9.1s4.07,6.46,6.18,9.83c2.76-5.44-1.82-10.23-.79-15.34,1.34-4.83,4.62-7.39,9.5-7.67a59.24,59.24,0,0,1,10.74.12C513.24,2721.65,524.85,2718,535.31,2710.74Z"/><path class="cls-1" d="M789.5,2733.23c3.26-3.38,7.27-6.13,10.08-13.1-5.79,3.23-9.35,5.75-13.3,7.26s-8.48,2.06-12.72,3.1q-2.89.69-5.72,1.64c-13.76,4.62-13.53,15.94-8.62,24.89a16.75,16.75,0,0,0,9.19,7.3c5.58,2,11.33,3.62,17.05,5.26,1.65.47,3.12,0,3.49-2.36-1.93-2.28-4.09-4.61-6-7.13-4.64-6.12-4.66-12.59-.54-18.87C784.35,2738.27,787,2735.8,789.5,2733.23Z"/><path class="cls-1" d="M1005,2724.31c3.18,3.58,6.5,7.05,9.91,10.42,10.49,10.38,10.93,17.88,1.64,29.14-1.19,1.44-3.25,2.51-2.28,5.47,6.39.47,12.29-2,18.13-4.18a28.43,28.43,0,0,0,8.17-4.93c9.56-8.14,7.35-22.64-4.15-27.48a42.49,42.49,0,0,0-9.22-2.57c-8-1.37-15.55-3.7-22.27-9.9C1004.91,2722.27,1004.46,2723.72,1005,2724.31Z"/><path class="cls-1" d="M869.17,2708.93a59.18,59.18,0,0,1-24.48,4.12c-5.29-.13-9.13,2.45-11.64,6.94a46.62,46.62,0,0,0-2.79,6.53c-3.22,8.65-.3,17,1,27.85,7.75-22.43,20.88-37,41.7-44.33-.92-.64-1.18-1-1.49-1A4.85,4.85,0,0,0,869.17,2708.93Z"/><path class="cls-1" d="M955.71,2726.38c6.54,7.53,11.15,16.34,15.89,26.63.7-5.09.87-8.69,1.75-12.11,1.37-5.3.23-10.29-1.22-15.25-2.62-9-6.88-12.41-16.27-12.6-7.23-.15-14.24-.87-21-3.73-1.31-.56-3-.33-7.11-.69C939.22,2714.48,948.83,2718.47,955.71,2726.38Z"/><path class="cls-1" d="M632.06,2704.31a30.11,30.11,0,0,0-6.64,2.62c-10.68,6.35-15.89,20.59-12.39,33.41a8.75,8.75,0,0,0,1.27-1.94c4.36-12.69,12.28-22.2,24.43-28.2,3.14-1.54,6.25-3.56,7.61-7.91l-9.55,1.31A29.65,29.65,0,0,0,632.06,2704.31Z"/><path class="cls-1" d="M1158.48,2706.13a69.89,69.89,0,0,0,7.88,5.39c9.75,5.54,16.79,13.31,20.73,23.91.65,1.76.73,4.41,3.72,5.17.33-6.83,0-13.17-2.2-19.27-3.56-9.77-10.08-16.09-20.75-17.46-3.54-.45-7.06-1-12.22-1.75C1157.11,2704.24,1157.59,2705.45,1158.48,2706.13Z"/><path class="cls-1" d="M759.82,2696.93a13,13,0,0,0-8,8.38A121.42,121.42,0,0,0,747,2724c4.7-3.34,7.24-7.37,9.64-11.45,2.91-4.95,7.1-8.47,11.9-11.41a45.74,45.74,0,0,1,14.27-5.78c1.35-.29,2.93-.8,2.41-3.42C776.4,2691.72,768.06,2694.25,759.82,2696.93Z"/><path class="cls-1" d="M1048.35,2716.14a16.62,16.62,0,0,0,7.54,7.57c-1.52-5.82-2.74-10.78-4.11-15.69-1.73-6.17-5.42-10.47-11.86-12.05-5-1.24-10-2.72-15-3.69-2.56-.49-5.3-.08-8.23-.08.42,1.06.46,1.59.74,1.77a10.92,10.92,0,0,0,3.08,1.64C1032.71,2698.51,1042.14,2705,1048.35,2716.14Z"/><path class="cls-1" d="M616.77,3026.51l-.55-.6-.26-.18c0,.15,0,.3,0,.45Z"/><path class="cls-1" d="M1185.84,3026.48l.8-.38c0-.19,0-.38,0-.57l-.27.3Z"/><path class="cls-1" d="M783.94,3059.13l.52.66.52.51a4.37,4.37,0,0,1-.17-.86Z"/><path class="cls-1" d="M1018.22,3059.82c.68-.92.17-.64-.35-.35a5.19,5.19,0,0,1-.19.86l.54-.51Z"/><path class="cls-1" d="M786.64,3061.92,785,3060.3A2.2,2.2,0,0,0,786.64,3061.92Z"/><path class="cls-1" d="M787,3062.25l.25-.25a3.37,3.37,0,0,1-.59-.08Z"/><path class="cls-1" d="M1017.68,3060.33l-1.68,1.58A2.2,2.2,0,0,0,1017.68,3060.33Z"/><polygon class="cls-1" points="1160.43 2507.16 1160.81 2507.3 1160.56 2507.04 1160.43 2507.16"/><polygon class="cls-1" points="1412.3 2507.29 1412.66 2507.13 1412.53 2507 1412.3 2507.29"/><path class="cls-1" d="M189,1670.54a4.9,4.9,0,0,0,.86-4.09c-.8-2.41-2.93-2.33-7.12.36C185.3,1671.1,187.38,1672.27,189,1670.54Z"/><path class="cls-1" d="M186.13,1636.21c1.22-.44,2.15-1.72,2.75-2.23.11-2.86-1.71-4.75-3.51-4.44a3.19,3.19,0,0,0-2.73,3.2C182.47,1634.69,184.44,1636.8,186.13,1636.21Z"/><path class="cls-1" d="M166.46,1533.48c-.87-.93-2.51-1.13-3.52-1.55-2.15,2.07-2.72,4-1.18,5.66.85.93,2.53,1.1,3.52,1.48C167.5,1537,168.05,1535.15,166.46,1533.48Z"/><path class="cls-1" d="M173.9,1569.52c2.39-.47,2.87-2.36,2.49-4.57-1.49-1.56-3.11-2.51-5.07-.82a2.92,2.92,0,0,0-.38,4.22A3.6,3.6,0,0,0,173.9,1569.52Z"/><path class="cls-1" d="M185.48,1697.28a4.09,4.09,0,0,0-2.66,1.62c-.91,1.32.06,3.43,1.55,3.44a6.73,6.73,0,0,0,2.56-1C187.68,1699.43,186.79,1697.2,185.48,1697.28Z"/><path class="cls-1" d="M179.72,1604.15c2.35.11,3.24-1.5,3.58-3.55-3.48-4.44-3.48-4.44-7.06-.15C176.49,1602.53,177.48,1604.05,179.72,1604.15Z"/><path class="cls-1" d="M155.22,1507.27c1.66,1,3.3.09,5.25-2.92-1.86-2.82-1.86-2.82-5.23-3.09C153.53,1504.39,153.55,1506.28,155.22,1507.27Z"/><path class="cls-1" d="M1613.48,1664.73c-2.27.94-2.54,2.74-2,4.86,1.47,1.69,3.36,2.54,5,.8a5,5,0,0,0,.89-4.19A2.79,2.79,0,0,0,1613.48,1664.73Z"/><path class="cls-1" d="M1614.2,1629.78c-1.55,2.19-2.35,4.4,1.67,6.69,2.36-.93,3.83-2.23,3.18-4.42C1618.46,1630.09,1616.91,1629,1614.2,1629.78Z"/><path class="cls-1" d="M1636.17,1532.41c-1.87,1.88-2.5,4-.25,5.86a3.09,3.09,0,0,0,3,0c.92-1,1.85-2.62,1.67-3.81C1640.23,1532,1638.26,1531.77,1636.17,1532.41Z"/><path class="cls-1" d="M1626.17,1564.27c-1.72,1.81-.88,3.58.59,5.16,4-.68,4-.68,4.47-4.64C1629.68,1563.24,1628,1562.4,1626.17,1564.27Z"/><path class="cls-1" d="M1617.08,1702.63c1.77-.21,2.51-1.44,2.37-3.44a2.92,2.92,0,0,0-3.28-2.11,2.68,2.68,0,0,0-2.35,3.29C1614.07,1702.18,1615.45,1702.83,1617.08,1702.63Z"/><path class="cls-1" d="M1623.24,1597.68c-2.13-.61-3.82-.17-4.64,2.11a3,3,0,0,0,1.46,4,3.74,3.74,0,0,0,3.26-.11C1625.63,1601.8,1625.42,1599.66,1623.24,1597.68Z"/><path class="cls-1" d="M1646,1507.25a4.2,4.2,0,0,0,2.09-2.55,3,3,0,0,0-2.28-3.52c-2.88-.86-4.37.64-5.08,3.28C1641.59,1507.05,1643.18,1508.54,1646,1507.25Z"/><path class="cls-1" d="M1100.59,1840.11c14.52-2,28.85-1.24,42.27,5.22,9.85,4.74,20.19,7.6,30.8,9.84a62.58,62.58,0,0,0,26.24.28c10.17-2.17,20.24-4.82,30.42-6.94,6.24-1.3,12.71-3.21,18.91-2.72a95.64,95.64,0,0,1,38.92,11.34c5.24,2.89,10.39,6,15.76,8.61,17.85,8.78,36.4,14.63,56.65,12.36,6.35-.71,12.72-1.53,19-2.84s12.4-3.23,18.55-5a83.22,83.22,0,0,1,38-2c25,4.4,48.43,13.82,72.09,22.48.31.11.48.61,1,1.36a87.57,87.57,0,0,1,0,9c-2.79,27.49-5.8,55-8.53,82.46-2.09,21.13-3.88,42.28-5.83,63.41q-1.27,13.77-2.64,27.51c-2,20.32-4.17,40.64-6.12,61-1.91,19.94-3.6,39.89-5.48,59.83q-3.45,36.49-7,73c-.77,8-1.52,15.95-2.39,23.91a27.45,27.45,0,0,1-1.27,4.48,15.88,15.88,0,0,1-3.75.82c-7.11-.29-12.13,3.45-16.47,8.46-1.57,1.81-2.76,3.94-4.27,5.81-7.31,9-13.89,18.73-23.27,25.82-7.34,5.55-14.75,11.08-22.55,15.93a38.71,38.71,0,0,0-16.49,20q-2.51,6.76-4.8,13.6a194.17,194.17,0,0,1-12.53,29.88c-5,9.21-8.39,19-11.88,28.85-3.88,10.93-8.13,21.76-12.81,32.38a85.18,85.18,0,0,1-9.24,15.4c-11,15.24-22.39,30.26-33.62,45.37q-5.73,7.71-11.5,15.4c-1.73,2.3-3.21,4.65-2.06,8.53a49.31,49.31,0,0,0,4.31,2.7c.6.31,1.54-.05,2.65-.13,5.12-3.72,8.07-9.55,11.87-14.64q18.69-25,37.14-50.26a102.25,102.25,0,0,0,8.87-14.24,264.18,264.18,0,0,0,15.69-37.69,172.15,172.15,0,0,1,10.58-25.48c5.61-11.08,10.85-22.32,14.16-34.38,1.15-4.16,2.16-8.63,6.15-11.84,2.31-.81,4.94-1.76,7.58-2.65,16.07-5.37,31.32-12.23,44.42-23.3,2.74-2.32,6-4,8.91-6.12a33.6,33.6,0,0,1,14.38-5.77c14.29-2.2,28.65-3.3,43-.31,4.65,1,9.1,3,13.55,4.71,1,.37,1.56,1.65,2.9,3.16a32,32,0,0,1-5.07.42c-2.78-.28-5.53-.88-8.31-1.24-10.27-1.32-19.84,0-28.52,6.37-9,6.64-18.9,12.07-26.72,20.28a42.47,42.47,0,0,1-4.79,3.78c-5.66,0-11.25-.09-16.84,0-6,.13-12.12,0-17.6,2.95-1.57.85-2.66,2.6-3.89,3.85,3.35,4.73,3.71,5.35,7.88,4.6,8.43-1.52,16.74-.45,25.12.13,5.59.39,11.21.14,16.82.27,9.61.23,19.22.42,28.81.9,2.68.13,5.31,1.22,7.2,1.68,2.61,3.34,1.85,6.12,1,8.8-2.15,7-6.42,12.68-11.68,18.24-2.93-2.1-5.55-3.88-8.06-5.82-4.75-3.67-9.63-7.22-14.1-11.22-6.41-5.74-13.74-5.85-21.46-4.32a5.88,5.88,0,0,0-5,4.6c-.61,2.84.9,4.53,3.35,5.53l11-1.23c12.44,10.89,24.8,21.67,37.1,32.51a23.71,23.71,0,0,1,3.89,4.53c2.11,3.17,2.23,6.79,1.76,10.43a5.29,5.29,0,0,1-3.86,4.81c-1.28-1.68-3-3.36-4-5.38-5.47-10.78-15.09-17.47-24.09-24.78a15,15,0,0,0-3.13-1.77c-2-.93-4.06-1-5.64.42-1,.93-1.45,2.58-2.27,4.14,2.28,2.3,4.2,4.3,6.18,6.23,8,7.82,16.33,15.37,21.38,25.74,1.36,2.8,3.89,5,5.9,7.53,1.77,2.18,3.67,4.25,5.31,6.51s2.55,5,.89,9c-8.11,6.66-18.66,10.12-29.62,12.52-1.1.24-2.56-1.19-3.88-1.86,1.26-5.85,3.92-10.27,6.5-14.51l7.67-3.24c2.44-6.38-1.49-10.36-4.6-14.36-1.61-2.06-4.22-3.34-6.84-5.32l-6,5.48c.49,3,.86,5.33,1,6.24-6.49,13.9-12.89,26.39-18.18,39.33-4.48,10.94-11.74,18.12-23.11,20.69-8.23,1.86-14.59,6.38-20.25,12.21a94.38,94.38,0,0,0-15.15,20.09c-5.06,9.1-10.26,18.12-15.37,27.19-1.77,3.14-3.5,6.3-5.12,9.51-.31.63,0,1.56,0,2.78,1,3.17,3.49,4.65,7.07,4.57,4.37-1.45,5.61-5.46,7.58-8.9,7.37-12.85,14.17-26,22.88-38.09,6.28-8.69,13.93-14.88,24.7-17.85,12.94-3.56,22.55-11.85,27.71-24.7,1-2.53,2.42-4.91,3.43-6.91,1.48-.39,2.26-.83,3-.76,15.64,1.44,29-5,41.8-12.6,7.58-4.52,9.38-9.71,7.54-18.42-.66-3.11-1.77-6.12-2.76-9.46,1.46-3.11,3.06-6.33,4.5-9.61,2.53-5.77,2.91-11.7.36-17.51a78.1,78.1,0,0,0-5.25-9.35c-1.2-2-2.68-3.77-4.17-5.83,3.23-5.21,6.2-9.94,9.11-14.71,2.74-4.49,4.75-9.19,5-14.6.56-11.45-4.79-18.33-16.24-19.76-6-.75-12-.65-18-1-1.87-.13-3.72-.63-6.12-1.05.92-1.61,1.24-2.93,2.07-3.49,5-3.39,10.21-6.36,15-9.92,5.88-4.33,12.36-5.46,19.35-4.67,3.18.35,6.31,1.2,9.5,1.43a33,33,0,0,0,9.53-.22,12.79,12.79,0,0,0,10.28-10.57c1-5.45-1.87-9.09-6.32-11.86a63.22,63.22,0,0,0-28.22-9.49c-7.16-.62-14.39-.32-21.58-.58a62.33,62.33,0,0,1-7-1.08c0-3-.2-5.41,0-7.75,1.21-12.34,2.65-24.67,3.79-37,2-21.53,3.69-43.08,5.73-64.61,2-20.72,4.31-41.4,6.27-62.12,2-21.52,3.76-43.08,5.68-64.61,1-10.77,2-21.54,3-32.3,1.25-12.75,2.62-25.49,3.78-38.25,1.06-11.57,1.84-23.17,2.88-34.74q3.46-38.28,7.07-76.56c.37-3.92.15-8,2.85-11.53a14.1,14.1,0,0,1,3.42-.55q7.18.6,14.34,1.46c14.25,1.76,28.15.13,41.09-6,10.85-5.13,21-11.5,28.92-21a244.63,244.63,0,0,0,17.93-24.06,56.07,56.07,0,0,0,8.9-29.48c.38-13.86-3.37-27-7.53-39.92-3.09-9.63-8.62-18-15-25.85-3.54-4.36-7.16-8.69-7.9-14.61,1.23-7.63,6-11.89,13.22-13.8,8.43-2.21,16.69-6.21,25.67-2.27a4.18,4.18,0,0,0,1.19.15c4.49.44,7.48-1.48,9.51-5.73,1.15-2.4-.13-5.82,3.13-7.37,5.38.57,9.48,3.59,13.81,6.59,4.94,3.43,4.46,10.17,8.89,13.6,4.17-1.61,5.64-3.19,4.8-5.55-1.43-4-3.15-8-4.77-12a89.44,89.44,0,0,0,9-4.2,5.8,5.8,0,0,0,2.14-3.78c.11-.7-1.33-1.67-2.2-2.67-10.68,3.07-21.2,4.39-31.27-.22l-3-7.51c-5.87-4.56-12.79-3-18.73-5.4.85-1.07,1.24-2.07,1.83-2.21,7.75-1.89,15.52-3.65,24.2-5.66l5.25-4.76c4.2.41,6.66,3.22,9.63,5.17s4.79,5.5,8.72,5.82c2.77-3,2.78-3,1.77-5.84-.5-1.41-1.07-2.81-1.58-4.13l8.52-5.3-2.36-4.1c-8,.94-16.39,3.8-24.58-1a19.36,19.36,0,0,1-1.3-3c-1.53-5.43-5.13-7.75-10.68-7.72a116.6,116.6,0,0,1-12-.67c-.89-.09-1.69-1.13-3.06-2.12,3.63-2.75,7.34-2.07,10.72-2.44,10.22-1.11,10.22-1,17.15-8.9,10.08.32,16.25,7.67,23.2,13.63,1.39-.67,3-.93,3.27-1.68.51-1.33.83-3.34.17-4.38a101.63,101.63,0,0,0-6.65-8.55,73.12,73.12,0,0,0,4.66-8.35c.48-1.18-.29-3-.8-4.39-.15-.42-1.33-.48-2-.7-9.75,8.29-9.75,8.29-22.87,5.26l-5.25-7.11c-16.94-2-19.35-2.66-24-7,4.43-3.4,9.58-4.06,14.75-4,5.4.11,10.25-1,13.7-4.36a29.24,29.24,0,0,1,18.75,5.8c2.56,1.83,5.18,3.91,9.32,2.57l1.48-3.67-5.49-6.34c1.44-2.43,2.63-4.47,4-6.82l-3.47-3.58a58.45,58.45,0,0,0-5.69,2.39,19.24,19.24,0,0,1-12.78,2.11,8.87,8.87,0,0,1-2.14-1c-1.17-2.43-2.34-4.89-3.37-7-8.47-3.75-18.16,1.15-26-5.11,6.71-6.23,14.77-6.76,22.5-7.35,2.27-2.66,4.27-5,6.45-7.59,3.81,1.34,7.56,2,10.46,3.86,3.91,2.55,7.17,6.09,10.6,9.12,2.7.28,4.3-1.26,3.92-3.38-.55-3.07-2-6-3.11-8.94l5.29-5.6c-1.4-3.79-3.92-3.4-6.23-2.81a38,38,0,0,1-23-1c-2.19-6.12-7-8.9-13.76-8.85-1.56,0-3.65.64-4.77-1.76,8.48-2.12,16.77-1.08,24.45.19l5.7-4.8a35.13,35.13,0,0,1,18.88,9l3.16-3.58c-1.27-3-2.32-5.46-3.24-7.64l6.9-7.8-2.94-4.11c-6.55,2.31-11.9,7.85-19.33,5.28l-4.55-7.62c-8.23-3.71-17.38-2.1-25.2-7.71,2.4-1.31,4.31-2.87,6.46-3.4,3.48-.86,7.22-1.79,10.67-1.32a19.66,19.66,0,0,0,14.66-3.73c8.49-.52,13.18,5.54,19.58,8,3.42-6.51-4.14-8.33-4.31-13a72.76,72.76,0,0,0,4.75-7.94c.54-1.21.11-3.14-.47-4.49-.35-.83-1.82-1.17-3.21-2-4.18,4.73-7.32,11.1-15.55,9.9-3-1.75-5.14-5.2-9.41-6.21a63.67,63.67,0,0,1-27.3-14.37,85.87,85.87,0,0,0-40.64-19.7c-26-4.88-50.28,1.13-72.77,14-13.62,7.76-25.49,18-33.92,31.71-6.31,10.24-12.78,20.4-16.78,31.82-2.65,7.55-5.21,15.17-7.21,22.91-1.69,6.55-3.46,13.15-3.09,20.09.67,12.4,1.14,24.81,1.64,37.22.62,15.34,4.2,30.11,8.72,44.68,5.22,16.81,10.57,33.58,15.89,50.36.61,1.91,1.46,3.73,2,5.65,3.22,11.15,6.46,22.3,9.49,33.51a30.58,30.58,0,0,1,.88,8.33,20.45,20.45,0,0,1-8.31,16.62c-7.91,6-16.65,9.06-27,7.32a107.3,107.3,0,0,1-30.58-10.37c-9.74-4.91-20.2-7.71-30.57-10.71a43,43,0,0,0-17.85-1c-10.39,1.38-20.54,3.19-30,8a76.77,76.77,0,0,1-27.63,7.66c-2,.19-4,.59-5.93,1a64.48,64.48,0,0,1-27.4-1.07,198.59,198.59,0,0,1-24-7.53c-18.31-7.07-36.86-6.67-55.25-.29-7.56,2.62-14.84,6-22.21,9.15a81.32,81.32,0,0,1-23.09,6.25q-19.7,2.08-39.35,4.6c-9.57,1.22-18.9,3.33-27.39,8.32-3.79,2.23-8,3.8-11.79,6a63.29,63.29,0,0,0-10,6.54c-7,6-13.84,12.17-20.61,18.43-1.37,1.27-2.17,3.17-3.5,5.17,1.82,1.93,3.35,3.57,4.7,5C1085.62,1842.72,1093.07,1841.16,1100.59,1840.11Zm367,486.63c-5,2.37-9.8,4.2-14.14,6.82-3,1.8-5.91,3.77-8.79,5.79-11.67,10.63-19.18,13.27-22.54,13.91l-.13.18a.84.84,0,0,0,0-.17,7.74,7.74,0,0,1-2,.17c7.28-4.14,20.69-18.58,27.62-26.7,1-1.24,2.1-2.48,3.13-3.73,2.79-3.36,5.22-7,8-10.36,2.1-2.5,4.62-4.49,8.78-3C1470.62,2315.16,1467.86,2320.82,1467.6,2326.74Zm147.89-560.42c8.92,16.93,13.76,34.92,12.37,54.27a37.71,37.71,0,0,1-4.52,16.06c-6.31,11.2-13.59,21.79-22.84,30.77-13.77,13.35-30.21,20.63-49.62,20.78-16.61.12-32.54-3.48-48.17-8.7-8.72-2.91-17.34-6.13-26-9.29a217.14,217.14,0,0,0-43-10.77,91.08,91.08,0,0,0-42.67,3.74,121.91,121.91,0,0,1-45,6.08A66.24,66.24,0,0,1,1332,1867c-14.81-4-28.26-11.16-41.81-17.94-9.8-4.91-20.19-7.67-30.57-10.45-5.69-1.52-11.86-1.19-18.8-1.78,4.22-3.45,8.49-3.92,12.72-4.37,16.21-1.71,31.9.1,46.91,6.88,6.92,3.13,14.2,5.51,21,8.81,7.48,3.63,15.26,4.46,23.35,4.1,2.8-.12,5.6-.37,8.4-.28a105.74,105.74,0,0,0,34.29-4.66c20.61-6.19,41.71-7.57,62.89-3.14,9,1.87,17.67,4.92,26.54,7.24,15.06,3.94,29,11.44,44.6,13.67,11.46,1.65,22.81,3.84,34.55,2.16s21.94-6.31,31.63-13.29c16.12-11.63,23.51-27.88,27-46.51,2.08-11.11-.51-21.47-6.5-31-3.81-6-8-11.86-11.21-17.74,1.56-4.32,5-4.32,7.81-5.67C1609.76,1756.71,1612.93,1761.48,1615.49,1766.32ZM1536,1731.49c.18,2,.11,4,.11,6a5.09,5.09,0,0,1-.3,1.16c-5.5,3.28-5.5,3.28-15,1.72-.57-1.94-1.74-4.14-1.79-6.36-.22-11.6-.88-23.25-.06-34.79,2.76-39.18,28.88-68.4,66-77.2,3-.71,6.2-.48,9.26-.68v24.42c-1.18,3.08-3.2,3.42-5.09,4a77.9,77.9,0,0,0-24.46,12.39,63.33,63.33,0,0,0-18.32,21.9C1539,1699,1534.52,1714.59,1536,1731.49Zm4,28c-4.76,2.57-9.63,1.85-14.23.61-2.35-3.16-3.17-6-2.21-9.56,4.82-1.87,9.87-2,14.68-2.24C1540.85,1752.06,1540.64,1755.51,1540,1759.54Zm25.75-82.79c7.28-7.92,12.28-10.78,25.27-14.85.15,4.58,0,8.15.46,11.63a101.92,101.92,0,0,0,2.42,10.21c-23.71,17.74-26.06,21.27-29.4,44.31-2.78.66-5.87,1.14-8.78,2.14a63.61,63.61,0,0,0-7.19,3.41c-.92-.92-1.9-1.43-1.91-2C1546.3,1711,1551.49,1692.27,1565.73,1676.75Zm-3.67,61.5c8-.45,13.62,5.7,13.8,13.34.15,6.78-5.94,13-12.82,13.44-7.59.53-14.59-6.45-14.39-14.34C1548.83,1743.69,1554.54,1738.4,1562.06,1738.25Zm12.52-9.32c.11-12,5-21.68,14.72-28.79a11.7,11.7,0,0,1,3.31-1.08c2.35,12.5,2.35,12.5,10.28,20.81.18,2.85-1.93,4.26-3.82,5.59-6.7,4.71-14.22,7.11-22.92,7.71C1575.58,1731.69,1574.57,1730.3,1574.58,1728.93Zm20.9,7.64c3.58,2,3.74,5,3.42,8.61-3.38,3.91-7.77,5.55-13.62,5.54l-2.21-10Zm51.3-42.46c-.38,2.53-.52,3.66-.72,4.79-.13.78-.35,1.55-.59,2.61,1.19,2.59,2.49,5.39,4,8.69-4.65,1.61-8.46-1-12.3-.39-4.33.65-8.68,1.2-13,2-3.92.74-7.78,1.76-12,2.74-2.28-1.26-4.93-2.32-7.08-4-3.46-2.74-4.42-6.56-3.16-10.8,1.15-3.87,4.09-5.77,7.81-6.67a9.54,9.54,0,0,1,2.37-.33C1623.28,1692.9,1634.45,1693,1646.78,1694.11Zm11.67-34.36c-.63,4.64-1,7.71-1.49,10.92-.48.35-1,1.06-1.75,1.22-3.11.7-6.24,1.38-9.4,1.81a36.44,36.44,0,0,0-16.61,6.37,30,30,0,0,1-14.47,5.29c-6.6.74-12-3-14.51-10-2.64-7.21-.91-12.37,5.61-16.39,5.68-3.5,12.05-4,18.47-3.63a41,41,0,0,1,7,1.38C1639.89,1658.66,1648.39,1660.92,1658.45,1659.75Zm-5.64-30.74c1,2.84,2.07,5.74,3,8.39-.9,1-1.35,1.93-1.94,2a128.59,128.59,0,0,0-27.76,6.95c-6.36,2.49-13.22,2.48-20.11,1.2a16.68,16.68,0,0,1-4.5-14.34c1-7.81,6.81-12.89,14.76-12.73a37.36,37.36,0,0,1,8.32.93C1633.87,1623.78,1643.08,1626.37,1652.81,1629Zm4.25-31.19c2,2.43.84,4.74-1,4.94-10.08,1.1-19.22,4.85-28.46,8.66-6,2.45-7.41,1.83-16.69-1-4.17-6.16-4.64-12.07-.41-17.25,4.07-5,10-4.22,15.58-2.74.38.1.75.25,1.14.37,4.94,1.6,9.81,3.51,14.85,4.69S1652.22,1597.1,1657.06,1597.82Zm-.18-36.46c3.07,2.8,4.89,5.61,3.94,9.1-7.45,2.89-14.51,5.52-21.49,8.37-5.81,2.38-11.77,1.64-18,1.53-7.08-4.73-9.56-11.16-7.28-19.91l12.12-5.57c2.37.54,5.35.65,7.75,1.87A42.61,42.61,0,0,0,1656.88,1561.36Zm8-26.57c2.29.53,4.54,1.22,6.37,1.72,1.56,2.82-.49,4.13-1.34,6.24a20.93,20.93,0,0,1-4.29,1c-8.4.17-16.59.94-24.68,3.79-7.19,2.53-14.14,1.28-19.8-4.89-1.4-5.09-1.71-10.09,1.25-14.89,2.52-4.08,6.49-5.68,11.76-6.7,3,1.42,7,2.54,10,4.92C1650.39,1530.8,1657.46,1533.07,1664.89,1534.79Zm-18.75-43.1c4.92,3,9.27,5.8,13.72,8.41s9.94,3,14.11,7.89c-1.3,1.2-1.81,2.1-2.4,2.16A71.22,71.22,0,0,0,1652,1515c-6.6,2.63-13.3,1.44-20.14-3.15a54.37,54.37,0,0,1-1.92-7.12c-.92-6.45,2.32-11.9,10.74-13A40,40,0,0,1,1646.14,1491.69ZM1499,1535.11c1.06-2.57,2.74-4.88,3.93-7.41,8.26-17.61,21.61-30.57,37.57-41.11a54.46,54.46,0,0,1,7.43-3.86c2.55-1.16,5.32-1.85,7.77-3.16,15.12-8,31.41-9.06,48-7.69,10.88.9,20.88,4.92,30.7,11.18-2.5,4.61-8.14,5.93-9.79,10.4-1.5,4.06-2.26,8.38-3.51,13.19a56.51,56.51,0,0,1-5.47-1.81c-16.14-7.1-32.34-7.11-49.18-2-15.13,4.56-29.21,10.77-42,20.14-9.09,6.7-16.42,15.23-24.44,23-1.4,1.36-2.64,2.89-5.52,6.07C1494.4,1544.33,1497.09,1539.81,1499,1535.11Zm-12.32,66.31c-1.5-5.7-1.43-10.4.57-14.88,2.6-5.82,4.83-12,8.42-17.14,12.43-17.84,27.17-33.43,46-44.79,12.18-7.34,25.55-11.5,39.31-13.95,13-2.29,25.31.55,36.49,7.91-1.58,4.45-3.45,8.43-4.35,12.62-.82,3.8-.58,7.83-.78,11.32-3,2.53-5.77,1.48-8.42,1.16a104.61,104.61,0,0,0-64.74,12.38c-18.8,10.35-35.17,23.45-48,40.83A44.07,44.07,0,0,1,1486.72,1601.42Zm1.18,20.31c.16-1.87,1.31-3.75,2.33-5.44a134,134,0,0,1,66.33-56.4c12.75-5.11,26.24-6.73,40-5.82,2.74.18,5.42,1.1,8.5,1.76.46,6.88.9,13.53,1.37,20.6-1.4,2-4,1.17-6.25,1.3-14.37.77-28.6,2.42-42.35,7-15.4,5.11-29.19,12.79-40.39,24.8a93.49,93.49,0,0,0-13.78,19.52c-3.21,6-6.39,11.92-10.7,20C1488.35,1638.94,1487.15,1630.48,1487.9,1621.73Zm26.78,48.29c-3,8.27-5.74,16.64-5.45,27-2-1.38-3-1.68-3.26-2.26-.81-2.25-.93-4.84-2.09-6.84-6.5-11.18-4.33-22.87-.48-33.68,5.63-15.85,13.55-30.7,26.51-42.23a72.4,72.4,0,0,1,15.78-10.78c13-6.51,26.55-11,41.14-12,3.17-.22,6.31-1.06,9.49-1.31,1.47-.11,3,.52,4.71.85-.65,6.66-1.26,12.89-2,20-1,1.75-3.61,1.59-5.89,1.68-13.49.52-25.82,4.66-37.44,11.36C1536.29,1633,1522.29,1648.82,1514.68,1670Zm-416.27,154.24c13.87-10.44,28.61-19,46.34-21,12.7-1.45,25.37-3.2,38.08-4.57a98,98,0,0,0,30.05-7.89c4.74-2.14,9.61-4,14.36-6.13,9.3-4.15,19-5.56,29.2-5.84a72.07,72.07,0,0,1,32.65,6.41c11.82,5.44,24.55,7.14,37.32,8.13,4.29.33,8.69-1.17,13.07-1.54,13.29-1.13,26.06-4.22,38-10.3,8.8-4.5,18.37-5.4,27.89-6.4a31,31,0,0,1,10.66,1c10.47,2.71,20.77,5.95,30.51,10.77,10.44,5.17,21.14,9.61,33,10.37,13.6,4.66,35.2-6.39,42.35-20.74,1.05-2.1,2.13-4.19,3.15-6.23l20.32-2.34c2.11,1.09,4.84,2.74,7.75,4,9.65,4.13,19,2.08,26.24-5.68,1.35-1.46,2.2-3.45,3.69-4.7s3.34-1.65,5.36-2.58c1.27,1.73,2.29,2.91,3.07,4.24,3,5.18,5.68,10.6,9,15.58a37.36,37.36,0,0,1,5.9,27.5c-1.28,8.38-3.46,16.68-8.1,23.72-11.37,17.27-26.74,28.61-48.27,29.06a118.15,118.15,0,0,1-20.31-1.47c-11.87-1.83-23.5-4.51-34.57-9.6a104,104,0,0,0-20.37-6.81c-9.73-2.21-19.24-5.2-29.2-6.67-21-3.12-41.52-1.17-61.7,4.8a85.17,85.17,0,0,1-26,3.74,53.76,53.76,0,0,0-10.78.52c-7.45,1.37-14.3-.39-21-3.12-7-2.84-14.06-5.78-21.07-8.7-14.61-6.08-29.62-10.09-45.61-8-6.32.83-12.77,1.67-18.76,3.7-10.6,3.59-21.49,7-31.16,12.47-16.86,9.52-33.56,9-50.87,2.66-4.13-1.51-8.12-3.4-12.21-5-15.55-6.2-31.46-8.93-48.1-5.15a36.34,36.34,0,0,1-5.74.4c-.27-.67-.55-1.34-.83-2C1093.86,1828.61,1095.91,1826.14,1098.41,1824.26Z"/><path class="cls-1" d="M99.88,1510.17c-6.62,8.67-6.62,8.67-3.57,12.1a90.63,90.63,0,0,1,7.92-4.92,84.6,84.6,0,0,1,8.34-3.22c7.84,3.79,7.85,3.7,17.7,4.32A60,60,0,0,1,141,1520c1.68.42,3.08,2,5,3.28-7.75,5.74-17.12,3.52-25,7.82-1.45,2.31-3.09,5-4.6,7.37-7.25,2.33-12.3-3.3-18.07-4.29-2.72,1-3.56,2.9-2.32,4.81,1.48,2.3,3.63,4.16,5.5,6.21-.39,3.36-5.84,6.35-.54,10.57,3-1.86,5.86-4,9-5.46a87.78,87.78,0,0,1,9.82-3.29l6.18,4.82c8-1.18,15.87-2,25.38.55-5.48,1.12-9.36,1.8-13.18,2.73-4.33,1-5,6.06-7,7.42-9.61,3.82-17.93,1.74-26.25.56-.75,1.25-1.32,2.2-2,3.32l4.62,5.56-3.57,10.33,5.28,2.84c5-8,11.67-13.33,21.25-13.2,1.92,2.4,3.64,4.54,5.44,6.77,7.79,1.21,16.27.29,21.85,7.57-3.12,3.56-7.29,3-11.22,3.32-4.7.4-9.65-.93-14,1.85a34.24,34.24,0,0,0-1.91,3.11c-.66,1.38-1.15,2.84-1.71,4.27a18.43,18.43,0,0,1-12.11-.58c-2.21-.9-4.36-2-6.61-2.79-.66-.23-1.54.16-2.85.34l-1.8,3.48,3.77,6c-1.5,3.5-7.23,3.81-5.43,8.78a4.16,4.16,0,0,0,5.38,1.28c2.86-1.39,5.55-3.15,8.3-4.77a28.85,28.85,0,0,1,15.12-3.81l6.59,4c17.21.8,17.74.93,22.92,5.91-7.8,3.83-16,4.74-24.5,5l-5.4,7.51c-4.16,1.78-8.12,1.8-12.16,1.69-5.38-.15-7.17-6-11.23-7.35-3.26,1-3.47,3.24-2.63,5a83.08,83.08,0,0,0,5.22,8.5c-2.42,4.44-7.18,6.36-8,11.91l4.09,3.43c7.86-6.05,13.88-14.44,24.57-13.92,6,7.72,6,7.72,14.78,8.63,3.58.36,7.19.61,10.74,1.17.72.12,1.25,1.42,2.16,2.54a29.09,29.09,0,0,1-13.56,1.72c-7-.49-11.7,1.94-13,9.34-.12.67-1,1.22-.73.95-8.84,6.11-17.89.6-26.1,2.45-1.16,6.78,5.69,5,7.7,8.8-1.06,2.12-2.27,4.52-3.67,7.3l3.35,3.62c6.15-4.38,10.8-10.23,18.1-12.72l6.28,5.52c9.22,2.73,18.51,1.34,27,7.28-7.3,2.59-14.88.54-20.25,5.86l-3.08,7.73c-10.75,3.78-21.34,2.44-32.3-.39-.56,1.94-1,3.33-1.45,5l11.79,6.51c-2.55,5-6.28,9.25-4.28,14.9,1.45,1.84,3.12,2.38,5.7.41,2.85-10.45,10.09-16.88,21.64-19a76.55,76.55,0,0,0,2.78,8.26,8.3,8.3,0,0,0,8.79,5c2-.18,3.88-1,5.85-1.22,2.74-.26,5.61-.66,8.26-.15a129.43,129.43,0,0,1,15.08,4,19,19,0,0,1,6.18,3.57c5.17,4.34,6.25,10.2,3,16.17a55.19,55.19,0,0,1-5.53,7.84,97.12,97.12,0,0,0-15.08,25.79c-2.51,6.41-3.44,13.14-5.17,19.7-2.5,9.51-2.46,19.06-1.52,28.65a40.66,40.66,0,0,0,6,18.09c2.57,4.06,5,8.25,7.81,12.13,8.76,12,18.28,23,31.36,31,16.2,9.92,33.27,13.13,51.75,11.12,5.92-.65,11.84-1.34,17.9-2,2.89,4.77,2.63,9.63,3,14.32,1.22,14.37,2.3,28.75,3.6,43.11,1.08,12,2.47,23.9,3.56,35.86,1.22,13.57,2.12,27.17,3.41,40.73,2.78,29.1,5.82,58.17,8.55,87.27,2.81,29.9,5.36,59.82,8.05,89.74q1.23,13.74,2.62,27.49c1.24,12.35,2.6,24.68,3.82,37q2.37,23.89,4.57,47.82c.25,2.68,1,5.62-2,8.29-2.27,0-5,.14-7.79,0a102.18,102.18,0,0,0-27.47,2.2,57.14,57.14,0,0,0-20.85,9c-6.45,4.47-7,11.85-1.55,17.56a13.63,13.63,0,0,0,10.75,4.5,99.74,99.74,0,0,0,11.91-1.43c8.66-1.4,16.66-.36,23.92,5.14,4.45,3.37,9.38,6.12,14,9.33.75.52.85,2,1.46,3.54-2.77.32-5.1.68-7.44.84-5.2.33-10.42.42-15.61.87-13.95,1.23-18.4,11-16.77,21.46A40.76,40.76,0,0,0,288,2410c1.73,3.59,4.32,6.75,6.3,10.22,1.34,2.35,2.29,4.93,3.41,7.38-1.89,2.26-3.56,4-4.94,5.95-6,8.43-7.85,17.4-3.21,27.12,1.37,2.86,2.69,5.75,3.84,8.22-1.12,4-2.32,7.44-3,11-1.35,7,.86,12.81,7.12,16.45,12.89,7.49,26,14.32,41.72,12.94,1.13-.1,2.31.4,3.92.72,1.46,3.09,3,6.31,4.48,9.55a37.59,37.59,0,0,0,17,18,61.88,61.88,0,0,0,12.21,4.88c6.87,1.88,12.21,5.89,17,10.87a39.69,39.69,0,0,1,5.19,6.6c7.53,12.29,14.92,24.67,22.37,37,1.65,2.73,3.22,5.53,5.12,8.08,1.39,1.87,4.34,2.2,6.59.68,1.54-1.05,2.6-2.79,3.74-4.07a18.67,18.67,0,0,0-1.1-4c-7.48-13.25-14.59-26.75-22.7-39.61-8.67-13.78-19.25-25.46-36.43-29.22-8.71-1.9-14.75-8.21-17.94-16.46A317.78,317.78,0,0,0,339,2471.43c1.37-9.14,1.37-9.14-5.5-12.23-5.81,1.88-8.52,6.89-10.79,12-.84,1.89-.13,4.47-.13,6.89l8.11,3.26c2.09,5.06,6.46,9.2,5.53,15.79-2.61,0-5.12.61-7.16-.11q-10.17-3.59-20-8c-2.44-1.1-4.4-3.25-6.06-4.52-1.43-5.36,1.26-8.44,3.74-11.59,3.46-4.4,7.44-8.48,10.28-13.24a68.29,68.29,0,0,1,13.43-16.8c3.3-2.92,6.46-6,9.5-9.19a27.68,27.68,0,0,0,2.91-4.35c-1.45-4-3.86-4.81-7-4a6.16,6.16,0,0,0-2.16,1c-9.18,7.08-18.9,13.59-24.73,24.14-1.45,2.63-2.6,5.73-6.44,7-.82-1.44-2-2.68-2.26-4.09-1.15-5.91.24-11.09,4.92-15.21,3.62-3.17,7-6.54,10.69-9.68,9.07-7.82,18.22-15.55,27.21-23.21l12.78,1.12c.47-2.34,1.33-4.25,1-5.95a5.15,5.15,0,0,0-3-3.39c-7.5-2.28-14.94-2.93-21.65,2.44-5.32,4.25-10.64,8.51-16.05,12.66-2.45,1.88-5.12,3.48-8.1,5.49a71,71,0,0,1-9.25-13.12,35,35,0,0,1-2.64-7.93c-.66-2.54.1-4.74,3.35-7,4.87-.41,10.82-1.18,16.79-1.35,10.81-.3,21.63-.05,32.44-.38,9.17-.28,18.32-2,27.51-.11a7.69,7.69,0,0,0,2.39-.06c2.71-.31,4.4-1.69,4.65-4.71-1.39-3.88-5-5-8.49-5.57a105.52,105.52,0,0,0-14.35-1.07c-5.17-.17-10.35,0-15.3,0a59.05,59.05,0,0,1-5-4.17c-7.81-8.23-17.74-13.62-26.78-20.21-8.34-6.08-17.54-7.37-27.39-6.21-3.58.42-7.13,1.05-10.71,1.39-.85.08-1.76-.59-3.2-1.13,4.7-4.75,10.18-6,15.6-7.12,14.71-2.92,29.44-2.13,44.14.31a31.84,31.84,0,0,1,13.27,5.33c4.26,3,8.65,5.82,12.8,8.95,9.34,7,19.21,13,30.37,16.76,6.43,2.16,12.73,4.73,18.7,7,3.56,3.09,4.58,7.13,5.6,10.91,3.49,12.86,9.39,24.67,15,36.63a195.14,195.14,0,0,1,9.3,22.11,354.41,354.41,0,0,0,14.88,36.73,95.83,95.83,0,0,0,12,19.33c5.7,7.24,11.13,14.68,16.58,22.11,8.53,11.64,16.95,23.35,25.46,35,1.87,2.57,3.58,5.42,7.26,5.78,2.49-.5,4.84-1.57,5.14-4.26.2-1.82-.68-3.79-1.25-5.64a7.82,7.82,0,0,0-1.37-2c-12.92-17.84-27.13-34.73-39.14-53.25a28.4,28.4,0,0,0-3-3.74,67.87,67.87,0,0,1-12.59-20.35c-4.37-10.75-8.43-21.63-12.67-32.44-3.07-7.82-5.68-15.89-9.47-23.36A298.31,298.31,0,0,1,422.62,2382c-1.42-4.17-3.06-8.26-4.74-12.33a31.66,31.66,0,0,0-12.24-14.45c-5.33-3.54-10.43-7.43-15.83-10.87-10.29-6.55-18.71-15-26.14-24.57-2.95-3.8-5.91-7.59-8.73-11.48-5-6.88-11.18-11.37-20.11-11-.64,0-1.32-.75-2.63-1.56-.27-2.23-.68-4.95-.94-7.69-1.14-12-2.19-23.94-3.35-35.9-1.23-12.76-2.6-25.5-3.82-38.26-1.1-11.57-2-23.15-3.13-34.71-2-19.93-4.19-39.84-6.11-59.77-2-20.73-3.73-41.49-5.65-62.24-.88-9.57-1.93-19.12-2.9-28.68-1.3-12.75-2.64-25.5-3.88-38.25-1.13-11.56-2.09-23.14-3.25-34.7-2-19.53-4.05-39-6-58.58a45,45,0,0,1,.21-6c2.54-1.06,4.69-2.07,6.91-2.86,5.65-2,11.45-3.68,17-6,15.64-6.4,31.9-10.47,48.44-13.75,12.89-2.56,25.42-1.6,38,2,8.45,2.45,17,4.66,25.62,6.4,11.88,2.41,24.11,3,35.85.48,16.45-3.54,31.79-10.3,46.51-18.78,19.28-11.09,39.77-16.39,62.13-9.3,8.74,2.77,17.89,4.28,26.9,6.16a67.15,67.15,0,0,0,28.6-.47,137.9,137.9,0,0,0,29.62-9.64c13.08-6.19,27-7.08,41.12-5.22,7.53,1,15,2.68,22.46,4,.72.12,1.53-.3,3-.63l3.11-4.67c-6.32-8-23.71-23.82-30-27.56-1.38-.81-2.8-1.56-4.23-2.29-4.64-2.36-9.28-4.72-14-7a53.43,53.43,0,0,0-17-5.62c-15.48-2-30.93-4.21-46.44-5.92a89.2,89.2,0,0,1-24.27-6.45c-6.3-2.59-12.49-5.44-18.82-7.92-19.86-7.79-39.89-8.23-59.77-.37a200,200,0,0,1-25.22,7.65,49.71,49.71,0,0,1-17.89,1.27c-15.11-1.77-30.22-3.6-44.07-10.85a45.65,45.65,0,0,0-13.59-4.54c-10.22-1.69-20.53-4.37-30.91-1s-20.77,5.92-30.53,10.82a107.5,107.5,0,0,1-29.43,10.05c-9.77,1.76-18.22-.47-26.18-5.82a22.49,22.49,0,0,1-9.66-24c1.05-4.66,2.71-9.19,4-13.79.89-3.06,1.76-6.13,2.54-9.22.9-3.49,1.47-7.08,2.57-10.5,6.48-20.19,13.5-40.23,19.52-60.57,5.22-17.66,9.13-35.67,8.78-54.32-.13-6.81-.32-13.65.2-20.43a73.76,73.76,0,0,0-4.72-31.84,68.28,68.28,0,0,1-2.65-8c-3.91-16.31-12.52-30.26-22-43.75-2.75-3.91-5.56-8-9.07-11.14-21.41-19.54-46.22-31.62-75.63-32.13-10-.16-20.05.46-29.58,4.24-11.22,4.45-22.27,9.29-31.17,17.67-6.93,6.52-15.22,10.44-24,13.16-4.75,1.47-8.81,3.43-11.71,7-8.39-1.76-8.39-1.76-16-9.67-3.55,1.54-4.93,3.52-3.65,5.7C95.9,1504.54,98,1507.37,99.88,1510.17Zm234.19,800.67c2.78-2.49,5-2,7.07-.57a18.38,18.38,0,0,1,3.45,3.26q6.48,7.89,13,15.8c7.3,8.29,18.82,20.38,25.38,24.11a9.37,9.37,0,0,1-2.69-.32l.42.33c-.23-.1-.57-.14-.67-.32l0-.08c-3.69-.92-10.84-3.92-21.46-13.55l-.25-.19c-6.8-4.88-14-9.08-21.95-11.35C333.58,2321.94,333.52,2316.17,334.07,2310.84Zm-201.7-767.38-3.07-5c.77-.87,1.18-1.8,1.82-2,3.45-1,7-1.75,10.42-2.83,5-1.57,9.89-3.1,14-6.63a25,25,0,0,1,12.94-5.74c10.14,3.81,13.16,7.65,12.76,16.17-.23,5-2.62,8.51-7.44,9.72-3.41.86-7.48,2-10.53.93C153.28,1544.6,143,1543.82,132.37,1543.46Zm24.74,33.06c-3.77-2-8.25-2.72-12.39-4-1.45-.46-2.87-1-3.91-1.41-1.52-3.62,1.3-5.67,1.17-8.64,1.89-.43,3.41-1.12,4.88-1a38.09,38.09,0,0,0,18.48-3.75c3.52-1.63,7.55-2.18,11.09-3.14l10.56,5.79c1.89,10,1.37,11.71-6.1,19.62A35.09,35.09,0,0,1,157.11,1576.52Zm-10.64,26.76c-.71,0-1.38-.73-2.26-1.22-.11-1-.23-2.13-.33-3.12.81-.62,1.42-1.49,2-1.5,8.49-.15,16.42-2.73,24.39-5.3a45.78,45.78,0,0,1,11.58-2.56c8.22-.4,13.28,5.85,11.88,14.06a13.75,13.75,0,0,1-1.14,3.38,28.88,28.88,0,0,1-1.65,2.89c-6.52,4.52-13.37,3.73-19.51.68A68.17,68.17,0,0,0,146.47,1603.28Zm1.89,36.26c-.65-.08-1.2-1-2.34-1.91.57-2.3,1.21-4.91,2.09-8.5,10.38-2.78,19.91-5.57,29.57-7.84,8.2-1.93,16-1.5,21.19,7.23,1.13,6.34,2,13-3.25,19.21a35.14,35.14,0,0,1-19.6-1.19C167,1643.44,157.88,1640.72,148.36,1639.54ZM147,1672a9.35,9.35,0,0,1-2.37-1.34c-.57-3.11-1.19-6.49-1.86-10.09,5.6-.51,10.76-.77,15.85-1.51a91.87,91.87,0,0,0,14.07-3c6.09-1.9,12-.69,17.79.56,5.21,1.11,10,3.87,11.17,9.64,1.45,6.77-.4,12.71-6.16,17a10,10,0,0,1-7.93,2.06c-3.89-.75-8.4-1-11.4-3.2C167.35,1675.79,157.29,1673.79,147,1672Zm119.82,67.48c-.05-2.84-.32-6-.13-9,.82-13.45-1.95-26.13-6.91-38.63-8.6-21.71-24.44-35.07-46.27-42-1.52-.49-3.06-.89-4.59-1.37a11.4,11.4,0,0,1-1.64-1,123.7,123.7,0,0,0,.88-12.36c-.08-3.94-.93-7.87-1.44-11.8,1.05-2.32,3.14-2.09,5.08-2,7.76.26,15,2.82,21.85,6,30.92,14.6,47.67,39.26,50.12,73.32.69,9.56.09,19.21-.06,28.82-.06,3.6-.46,7.22-3.25,10.89C273.36,1741.89,273.36,1741.82,266.82,1739.51Zm9.37,20c-6.49,2.06-6.49,2.15-14.4.14-.44-4-1.07-7.49,1.47-10.89,5-1,9.72,1.14,14.15,1C279.25,1754.1,278.24,1756.91,276.19,1759.49Zm-38.25-31.92c-1.08-9-2.37-18.47-8.64-26.22-5.82-7.2-12.67-13.14-21.8-16.85,1.1-4.27,2.41-8,2.94-11.81.48-3.41.1-6.94.1-10.74,1.25,0,2.47-.3,3.45,0,17.18,6.08,29,17.77,35.68,34.64a101.48,101.48,0,0,1,6.45,25.4c.46,3.85,1.28,7.89-1.37,12.19Zm14.51,23.66c0,7.66-6.33,14.12-13.45,13.84-7.42-.3-13.67-6.82-13.49-14.08a13.26,13.26,0,0,1,13.22-12.74C247.19,1738.09,252.5,1743.11,252.45,1751.23Zm-43.11-52.12a23.31,23.31,0,0,1,13.26,10.62c4.08,6.6,6.35,13.72,5,21.22-3.53,3.87-7.14,1.79-10.45,1-7.39-1.84-14.56-4.25-19.14-11C206.91,1710.27,206.91,1710.27,209.34,1699.11Zm5.5,51.36c-5.48.67-9.33-2.36-13.42-5.45.65-2.09,1-3.6,1.61-5a27.08,27.08,0,0,1,2.18-3.41c4.25,1.51,9,1.51,12.59,4.73A11.88,11.88,0,0,1,214.84,1750.47ZM189.1,1714.7c-19.59-5-19.59-5-35.82-4.27a23.87,23.87,0,0,1,2.42-8.63c-.34-2.11-.72-4.41-1.12-6.83,1.24-.48,2.3-1.22,3.4-1.27,9.53-.41,19.07-.7,28.61-1a17.7,17.7,0,0,1,3.57.14c4.09.7,7.8,2.1,9.05,6.59,1.46,5.26-.06,9.49-4.46,12.44A50.32,50.32,0,0,1,189.1,1714.7Zm367.75,122.63c-15.18-.31-29.19,4.27-42.76,10.4-8.38,3.78-16.51,8.11-24.81,12.06-19.79,9.42-40.44,12.22-61.92,7.56-9-1.95-17.82-4.55-26.78-6.61-12.64-2.9-25.3-2.68-38.09-.41-20.6,3.65-40.2,10.47-59.67,17.81a166.79,166.79,0,0,1-39.57,9.53c-25.44,3-47.41-4.18-65.14-23.21a143.53,143.53,0,0,1-19.06-26.16,47.12,47.12,0,0,1-5.67-31.33c1.75-11.42,4-22.76,9-33.48,3.39-7.4,7.86-13.82,13.94-21l7.55,4.38c-.06,1.31.18,2.25-.18,2.84-3.3,5.48-6.61,11-10.11,16.32a42.67,42.67,0,0,0-6.85,28.58,79,79,0,0,0,11.64,33.75,15.49,15.49,0,0,0,1.32,2c15.31,18.11,34.29,28.73,58.52,27.5a171,171,0,0,0,37.75-6.59,17.75,17.75,0,0,0,3.43-1.06c8.89-4.74,18.76-6.78,28.18-10,19.09-6.56,38.8-9.86,59-8.23a140.59,140.59,0,0,1,32.82,6.79,62.71,62.71,0,0,0,18.87,3c6.81.11,13.61.52,20.41.52s13.43-.81,19.88-3.63c11-4.81,22.06-9.47,33.4-13.3,16-5.4,32.16-4.78,48.46-.05C559.8,1838,558,1837.35,556.85,1837.33ZM308.2,1797.55c3,.83,6.36.6,9.52.36a96.22,96.22,0,0,0,36.64-10.66c9.34-4.79,19.27-7.85,29.29-10.69a30.9,30.9,0,0,1,9.41-1.54c9.61.4,19.52.9,28.12,5.31,15.32,7.87,31.83,10.46,48.47,12.77,8,1.11,16-.63,23.82-2.21a117.09,117.09,0,0,0,22.86-7.07c16.13-6.84,37.36-6.82,53.92-.55,6.74,2.56,13.36,5.41,20,8.2a98.9,98.9,0,0,0,27.8,7.15c14.31,1.55,28.6,3.33,42.89,5a16.09,16.09,0,0,1,3.57.48c17,6.18,33.39,13.32,45.86,27.17-2.23,2.55-4.69,1.75-6.89,1.24-17.07-4-33.45-1.32-49.17,5.64a140.6,140.6,0,0,1-27.43,8.63c-10.16,2.19-19.78,0-29.17-4.31-10.17-4.7-20.49-9.12-31-13.11-19.76-7.55-39.82-8.56-59.92-1.23-8.64,3.15-17.24,6.46-25.68,10.12-9.72,4.2-19.5,7.18-30.26,5.07a33.23,33.23,0,0,0-7.2-.27,82.22,82.22,0,0,1-26-3.66c-15.83-4.7-32-7.14-48.58-6.22-15.73.86-30.79,4.64-45.7,9.36-2.28.72-4.5,1.86-6.83,2.15-4.49.54-8.37,2.53-12.46,4.18-17.63,7.11-35.92,11.09-55,10.18-10.68-.51-20.38-3.92-28.65-10.92-4-3.36-8.59-6.2-11.82-10.17-9.11-11.22-13.42-24.47-14.24-38.82-.33-5.72,1.53-11.16,4.27-16.08,4.27-7.67,9-15.09,14.18-23.71,2.22.75,4,.87,5.06,1.8,1.79,1.54,3,3.7,4.71,5.41,7.56,7.81,16.27,9.52,26.31,5.12,2.55-1.11,4.94-2.59,7-3.72l20.2,2.29a45.4,45.4,0,0,1,2.72,4.56C284.68,1787.51,295.39,1794,308.2,1797.55Zm-7.62-117.29c-2,4.3-3,9-6.38,14.55-3-16.63-7.1-30.69-15.47-43.36-8.6-13-19.9-22.64-33.26-30.49-13.2-7.76-27.59-10.17-42.92-11.29-.33-2.32-.63-4.17-.84-6-.54-4.73-1-9.47-1.58-14.57.76-.37,1.79-1.31,2.76-1.25,18.06,1.17,35.62,4.26,52.14,12.32a76.81,76.81,0,0,1,33,30.56c2.66,4.46,5,9.12,7.42,13.73,4,7.54,5.89,15.67,6.76,24.11A21.46,21.46,0,0,1,300.58,1680.26Zm13.07-50.45c-1.42,5.31-.57,11.26-4.59,16.44-2.59-2.24-3.43-5.28-4.95-7.82s-2.7-4.91-4-7.39a96.92,96.92,0,0,0-15-21.66c-11.26-12-25.08-19.67-40.55-24.75-13.8-4.52-28-6.24-42.46-6.9-2.31-.11-4.62-.41-6.9-.62.41-6.87.79-13.13,1.23-20.54,1.72-2.09,5.49-2.19,9-2.44,15-1.08,29.67.79,43.45,6.79,25.6,11.15,46.26,28.28,61.49,51.91C313.85,1618.27,315.32,1623.58,313.65,1629.81Zm.16-31.07a28,28,0,0,1-3.48-3.26c-14.25-19-32.73-32.73-53.9-43-17.35-8.39-35.8-10.92-54.89-9.23-2.79.25-5.56.65-8.35.89a14,14,0,0,1-2.64-.32c-3-3.7-.48-8.44-1.86-12.49-1.28-3.75-2.71-7.45-4-11,.28-2.56,2.31-3.29,4-4.12,13.1-6.35,26.55-7.87,40.78-3.91,13.6,3.77,26.8,8.27,38.26,16.68,16.94,12.41,31.46,27.2,42.27,45.31C315.81,1584,316.1,1587.61,313.81,1598.74ZM171.92,1480.16a73.57,73.57,0,0,1,34.44-8.78,103.21,103.21,0,0,1,39.57,8c12.92,5.2,23.47,13.42,34,22a24.19,24.19,0,0,1,4.24,4.22c9.09,12.23,17.06,25.11,22.22,39.56.23.64-.09,1.48-.3,4.09-6.49-6.43-11.82-11.8-17.26-17-12.85-12.41-27.65-21.63-44.83-26.77-6.49-2-13.05-3.7-19.63-5.27-11.29-2.71-22.23-.75-33,3-3.37,1.18-6.64,2.66-10.4,4.18-1.36-4.7-1.95-9.54-4.14-13.5-2-3.66-5.75-6.37-8.73-9.5C168.22,1481.86,170.23,1481,171.92,1480.16Zm-42.74,25.54a24.76,24.76,0,0,1,5.35-2.67,58.18,58.18,0,0,0,16.82-9.08c4.32-3.51,9.06-2.76,13.65-1a8.92,8.92,0,0,1,6.1,8.18c.22,3.6.44,7.21-2,10.91a21.12,21.12,0,0,1-21.17,2.43,50.35,50.35,0,0,0-17.41-4c-1,0-2-1-3.26-1.71C128,1507.54,128.35,1506.26,129.18,1505.7Z"/><path class="cls-1" d="M901.46,1102.06a69,69,0,1,0,69,69A69.07,69.07,0,0,0,901.46,1102.06Zm0,126a57,57,0,1,1,57-57A57.06,57.06,0,0,1,901.46,1228.06Z"/><path class="cls-1" d="M1730.53,1025.16c-45.19-199.52-109.89-378.74-192.32-532.69-40.66-75.92-85.4-144.87-133-204.92-48.11-60.7-99.56-112.86-152.93-155-54.45-43-111.46-76.06-169.44-98.22C1023.25,11.55,961.9,0,900.5,0S777.75,11.55,718.16,34.32c-58,22.16-115,55.21-169.44,98.22-53.37,42.15-104.82,94.31-152.93,155-47.6,60.05-92.34,129-133,204.92C180.36,646.42,115.66,825.64,70.47,1025.16,23.71,1231.63,0,1450.94,0,1677s23.71,445.37,70.47,651.84c45.19,199.52,109.89,378.74,192.32,532.69,40.66,75.92,85.4,144.87,133,204.92,48.11,60.7,99.56,112.86,152.93,155,54.45,43,111.46,76.06,169.44,98.22C777.75,3342.45,839.1,3354,900.5,3354s122.75-11.55,182.34-34.32c58-22.16,115-55.21,169.44-98.22,53.37-42.15,104.82-94.31,152.93-155,47.6-60,92.34-129,133-204.92,82.43-154,147.13-333.17,192.32-532.69C1777.29,2122.37,1801,1903.06,1801,1677S1777.29,1231.63,1730.53,1025.16Zm-1458-527.49A1430.07,1430.07,0,0,1,368,342.86c5.5,11.51,11.75,28.46,16,38.85,5,12.22,9.76,24.56,14.57,36.87,4.66,11.94,9.22,23.91,13.9,35.85s9.44,23.83,14.15,35.75S436,514,440.71,526c4.82,12.31,9.58,24.64,14.42,36.95q7,17.9,14.18,35.74c4.72,11.79,8.66,23.93,15,36.18,3.48-4.08,5.25-7.89,7.22-12.4-12-31.92-25-63.83-37.46-95.88q-19-48.7-38.22-97.32c-12.15-30.9-26.7-67.68-38.93-98.74q13.57-18.56,27.48-36.12a995.25,995.25,0,0,1,101.21-110.3c5.52,19.51,32.09,121.61,45.71,174s27.2,104.65,40.81,157c.59,2.25.38,4.91,3.32,6.37,3.58-.49,5.94-3,8.6-6.37-4.84-22.33-11.46-44.55-17-67s-11.55-45-17.42-67.48c-6-22.85-12.09-45.68-18.06-68.53-5.87-22.48-11.59-45-17.45-67.46-5.62-21.54-12.29-48.89-17.54-70.44q19.31-17.34,39-32.9Q624,87.11,695.67,55.39c1,10.81,5.64,45.31,7.49,61,1.87,15.92,3.9,31.82,5.82,47.73,2.17,17.9,4.28,35.8,6.46,53.7,1.9,15.5,3.92,31,5.79,46.5,2.06,17.1,3.91,34.22,6,51.31,2,16.69,4.4,33.35,6.44,50.05,2,16.29,3.55,32.64,5.7,48.91,1.47,11.05,2.09,22.26,4.74,33.06,5.29-.15,5.29-.15,10.87-2.7-.7-14.1-3.22-28.25-4.72-42.48-1.56-14.74-3.85-29.39-5.72-44.09-1.82-14.31-3.51-28.63-5.26-42.95q-2.7-22.07-5.41-44.14c-1.74-14.31-3.41-28.64-5.21-42.95-1.84-14.71-3.79-29.4-5.69-44.1-1.85-14.3-3.74-28.59-5.53-42.9-1.85-14.7-3.54-29.42-5.39-44.13-1.68-13.34-4.69-32.53-5.76-46.38C768,25,831.14,11.71,895.33,11c0,15.4.16,68.29.15,94.07q-.08,150.36-.11,300.72c0,4.31-.55,8.71.63,12.44,3.69,2.37,6.69,1.36,10.33.89,1.1-14,.32-27.54.48-41.06.16-13.23,0-26.46,0-39.69q0-20.44,0-40.9c0-13.23-.07-26.46-.08-39.69,0-13.63,0-27.26,0-40.89s-.12-27.26-.14-40.9c0-13.23,0-26.46,0-39.69,0-13.63-.08-27.26-.11-40.9,0-13.23-.09-26.46-.06-39.69,0-12.85-.28-30.9.14-44.7,64.62.81,128.19,14.43,190.22,40.67-3.31,24.17-8.76,67.33-11.65,89.87-3.68,28.61-7.49,57.19-11.08,85.81-2.79,22.26-5.25,44.55-8,66.82-2.81,22.66-5.87,45.29-8.71,68-2.78,22.26-5.41,44.53-8.11,66.8-.62,5.15-1.27,10.29-1.88,15.27,2.88,3.14,6.27,3.95,10.28,4.16,2.23-4.29,2.59-9.07,3.18-13.79q5.75-46.49,11.46-93c3.52-29,6.88-58.08,10.39-87.11,2.93-24.25,6-48.48,9-72.74,2.81-23.47,5.42-47,8.17-70.44,1.52-13.06,5.76-44.15,7.48-55.06q70.58,31.56,138.16,84.9,20.58,16.25,40.74,34.49c-3.89,18.92-20.23,78.26-27.35,105.67-8,31-16,62-24,93.05Q1217,443,1199.13,511.6a21.5,21.5,0,0,0-.31,3.51c2.06,3.18,4.63,5.47,8.21,6.3,2.38-.9,2.66-2.94,3.17-4.87q13-50,26-100,16.44-63.39,32.82-126.8c7-26.86,22.07-85.41,27.18-104.91a995.64,995.64,0,0,1,100.41,109.55q14.45,18.22,28.52,37.55c-12.93,33.16-53.48,136-73.22,186.17q-18.26,46.41-36.46,92.84c-1.46,3.71-2.77,7.47-4.34,11.74,2,3.73,4,7.56,6,11.31,3.8-1.09,4.1-4.27,5.08-6.72q13.57-34,26.9-68.2,28.07-71.6,56.09-143.22c6.26-16,21.08-54.6,28.51-72.06a1431.2,1431.2,0,0,1,94.86,153.88q3.08,5.74,6.11,11.55c-10.78,20.24-54,99.93-71.43,131.77q-42.63,78.09-85.35,156.14-36,66-71.86,132-45.45,83.39-91,166.75-55.82,102.39-111.58,204.81-41.15,75.48-82.3,150.94-28.2,51.72-56.38,103.45a46.39,46.39,0,0,1-4.11,6.15c-1.54-.8-3.1-1.58-4.68-2.32a27.59,27.59,0,0,1,1.79-4.42c8.84-22.78,17.84-45.49,26.78-68.24q37.35-95.07,74.69-190.16,41.63-105.66,83.4-211.27,39.62-100.63,79-201.38,34.44-87.82,68.86-175.67c2.33-5.93,5.08-11.69,6.73-18.06-5.92.47-5.92.47-15.56,6.89-30.09,76.83-60.41,154.42-90.87,232s-61,155-91.94,233.49c-7.38-8.17-13.68-15.84-20.72-22.76-6.81-6.71-14.37-12.66-21.66-19a38.31,38.31,0,0,1,1.13-14.37c4.74-18.64,9.28-37.32,14.1-55.93q24.1-93,48.35-186.06,9.81-37.78,19.56-75.69c-5.29.36-5.29.36-13.67,5.35-9.52,34.4-18.16,69.75-27.5,104.92s-18.39,70.53-27.53,105.81-18.29,70.43-27.29,105.08a16.4,16.4,0,0,1-2.06.75,1.94,1.94,0,0,1-1.13-.09c-12.89-7.32-25.94-14.33-39.67-20-5.9-2.42-11.82-4.79-18.17-7.37-.17-3-.74-5.7-.41-8.34,2.68-21.45,5.61-42.87,8.3-64.32,2-16.29,3.78-32.61,5.8-48.9,2.8-22.64,5.82-45.25,8.58-67.89,2.42-19.82,4.62-39.68,6.88-59.29-2.14-2.27-4-.65-5.8-.24s-3.81.95-6.23,1.56c-.87,4.34-2,8.57-2.53,12.86-1.92,15.1-3.64,30.22-5.46,45.33q-2.94,24.46-5.94,48.91-3.13,25.65-6.31,51.29c-2.1,16.68-4.29,33.36-6.39,50.05-1.1,8.74-2.07,17.5-3.19,26.24-.3,2.31-.93,4.58-1.51,7.34-10.42-.81-19.8-4.58-29.6-6s-19.78-2.79-29.36-4.13c-2.92-2.31-2.23-5.3-2.23-8q-.09-37.29-.06-74.57,0-61.35,0-122.7c0-4.37.55-8.8-.86-13-2.92-2.29-6-2-9.34-1-2.5,3-1.52,6.79-1.53,10.26-.08,25.66,0,51.32,0,77q0,60.15,0,120.29c0,3.54-.3,7.08-.48,11.1-10.51,2.5-20.88,3-31,4.71-9.75,1.68-19.15,5.29-29.7,6.07-4.71-26.88-6.84-53.59-10.48-80.09-3.7-27-6.95-54-10.06-81.09-3.07-26.64-6.13-53.28-10.12-80.37l-12-3.54c-1,4.49.61,8.34.63,12.18a90.93,90.93,0,0,0,1.06,10.76c1.17,9.12,2.42,18.24,3.59,27.36,2.25,17.47,4.53,34.93,6.69,52.4,1.86,15.1,3.53,30.22,5.34,45.32q3,25,6.12,50.07c1.88,15.1,3.83,30.18,5.68,45.28a55.35,55.35,0,0,1,0,6.35c-10,5.53-21,8.41-30.83,13.55l-28.4,14.79c-2.67-.82-2.91-2.88-3.41-4.81q-13.11-50.58-26.25-101.17Q706,905.44,680.3,806.62c-1.11-4.25-2.27-8.47-3.39-12.63a35.11,35.11,0,0,0-12.47-6.78c-2,1.65-.68,3.21-.33,4.58q9.95,39,20,78Q705,950,725.84,1030.22c6.52,25.21,12.78,50.48,19.21,75.71a37.77,37.77,0,0,1,1.13,14.28c-7.62,6.67-15.15,13.23-22.63,19.83-7.13,6.3-12.16,14.59-19.63,22.29-31.06-78.85-61.63-156.31-92.07-233.81s-60.78-155.14-91.22-232.86l-13.58-7.32c-2.11,2.4-.9,4.27-.21,6q9.31,24.11,18.74,48.16,42.17,107.4,84.36,214.79,39.79,101.23,79.65,202.43,24.63,62.61,49.28,125.23,28.17,71.58,56.33,143.14,23.77,60.39,47.58,120.75c1.24,3.15,2.37,6.33,3.49,9.43-1.67.77-3.32,1.56-4.95,2.4-1.34-2.1-2.65-4.21-3.84-6.39q-36-66-71.91-132-32.24-59.11-64.5-118.2-48.84-89.76-97.61-179.56c-20.33-37.3-40.9-74.47-61.24-111.77Q495,926.31,448,839.66q-51.19-94-102.48-187.88-32-58.56-63.95-117.12c-3.61-6.63-10-17.85-14.63-26.48C268.78,504.66,270.62,501.15,272.49,497.67Zm-149.87,371c17.09,17.52,62.65,65.31,84.23,88q63,66.24,126,132.43,45.17,47.49,90.32,95,63.33,66.72,126.6,133.49,53,55.79,106.14,111.45,46.85,49.21,93.65,98.45,25.69,27,51.38,54c1.74,1.83,3.41,3.72,5.07,5.61q-2.85,3-5.5,6.17c-2.2-1.49-4.21-3.32-6.31-5q-51-40.17-102-80.42-94.92-74.76-189.89-149.46-85.95-67.7-171.84-135.46c-41.79-33.08-83.33-66.48-125-99.67-4-3.21-7.6-7.18-13-8.71-1,.36-2.35.48-3.18,1.19-4.06,3.5-4.57,6.82-1.31,10.15a103.93,103.93,0,0,0,9.84,8.79q52.46,41.26,105,82.43,87.36,68.8,174.64,137.71,54.32,42.75,108.8,85.28L750.82,1569.2q20.82,16.32,41.61,32.66c.31.24.6.51.9.77-1.56,2.24-3.06,4.53-4.48,6.87-1.49-.71-2.92-1.41-4.28-2.2q-96.95-55.66-193.85-111.41-111-63.77-222.06-127.45c-10.08-5.78-20.11-11.64-30.23-17.36a55.31,55.31,0,0,0-8.65-4,4.77,4.77,0,0,0-5.34,1.82c-1.44,1.74-1.62,5.18-.07,6.7a28.88,28.88,0,0,0,5.61,4.37c10,5.86,20.14,11.59,30.23,17.37q101.7,58.23,203.4,116.46,104.28,59.79,208.49,119.7c3.71,2.13,7.39,4.3,11,6.56q-1,2.12-2,4.28c-1.86-.6-3.54-1.43-5.22-2.12-17-7-34.06-14.07-51.09-21.12l-221-91.46c-24.05-9.95-48.07-20-72.17-29.83-3.94-1.62-7.89-4.36-13.39-1.75-1.82,1.77-1.55,3.94-1.2,6,.28,1.6,2.22,3.21,3.81,4.2,2,1.25,4.42,1.84,6.65,2.76q120.6,49.53,241.21,99.06l103.39,42.43c1.65.68,3.32,1.34,5,2.07-.56,1.63-1.09,3.28-1.59,4.93l-.18,0q-26.64-7.32-53.29-14.59-86.92-23.62-173.86-47.24c-10.43-2.84-20.82-5.84-31.24-8.7-3.84-1.06-7.71-2-10.83-2.74-5.52-.38-6.85,6.93-4.24,9.79,2.71,2.46,5.23,2.65,8.21,3.47,26.62,7.35,53.29,14.57,79.94,21.83q89.25,24.3,178.48,48.65c1.34.37,2.76.62,4.11,1.06q-.55,2.71-1,5.47c-5.29-.67-10.57-1.49-15.85-2.28q-38.62-5.73-77.24-11.48c-17.42-2.62-34.82-5.41-52.24-8-10.3-1.54-20.62-2.92-30.94-4.28a20.11,20.11,0,0,0-6,0,4.47,4.47,0,0,0-3.78,4.1c-.25,2.14.74,3.63,2.36,5.08,2.07,1.85,5.24,2,8,2.44,30.12,4.34,60.27,8.53,90.39,12.84q42,6,84,12.19c-.15,1.93-.25,3.88-.31,5.83a81.9,81.9,0,0,1-8.72.34q-49.27-.36-98.53-.83c-4.41,0-8.83-.1-13.23.13-1.91.1-3.5-.16-5.22,1.27-2.64,3.8-1.64,6.52,1.12,9,4.14,1.93,8.62,1.24,13,1.26,28.46.14,56.92.12,85.37.29,8.81,0,17.62.48,26.42.85h0c.11,1.76.25,3.51.42,5.24-7,1-14.06,1.87-21.09,2.81q-26.77,3.63-53.55,7.32a13.77,13.77,0,0,0-5.58,1.82,6,6,0,0,0-2.2,4c-.24,2.09,2,5.16,4,5.65,2.67.63,4.57,0,7.28-.34,14.31-1.7,28.6-3.64,42.89-5.52,7.93-1,15.85-2.27,23.8-3.17a39.05,39.05,0,0,1,6.31-.15q.59,2.9,1.3,5.73a43,43,0,0,1-4.77,1.41c-6.54,1.9-13.17,3.46-19.73,5.28a65.1,65.1,0,0,0-9.07,3.11,8.73,8.73,0,0,0-3.32,3.29c-1.8,2.77.43,7.25,3.66,7.18a36.42,36.42,0,0,0,8.23-1.25c9.31-2.41,18.55-5.08,27.86-7.44a5.48,5.48,0,0,1,.56-.1q.9,2.57,1.89,5.07c-4.48,2-9,3.85-13.43,6a23.74,23.74,0,0,0-4.82,3.45,6.23,6.23,0,0,0-1.09,2.1c-.27,2.74,1.15,4.49,3.4,5.75.78.12,1.68.53,2.33.29,4.89-1.77,9.72-3.67,14.58-5.52l3.8-1.45q1.15,2.3,2.4,4.53c-2.3,1.5-4.55,3-6.68,4.6-3.33,2.52-5,7-.17,10.44,4.12.9,8.68-3.06,12.85-5.26,1.33,2,2.72,3.9,4.15,5.79-1.46,2-4.23,3.8-3.9,6.19-.18,2.85,2.31,4.85,5.34,5.51,1.74.23,3.91-1.77,5.56-2.85.07,0,.15-.08.23-.13,1.7,1.88,3.45,3.7,5.26,5.48a3.93,3.93,0,0,1-.18.84c-.93,2.48,1.51,5.48,4.35,5.78a3.1,3.1,0,0,0,2.42-.55,130.26,130.26,0,0,0,170.31-.38l2.89.89c3.93-.41,5.47-2.79,5.06-6.58a9.83,9.83,0,0,0-.33-1.48c1.54-1.56,3-3.16,4.49-4.8,1.87,1.18,3.56,3.23,6.1,3.13,3-.41,4.71-2.38,5.43-6l-4.15-6.19c1.22-1.65,2.42-3.34,3.57-5,4.41,2.26,9.67,5.93,11.8,5.87,3.32-.36,5.58-1.74,5.89-3.94.37-2.55-1.35-4.92-3.37-6.46-2.62-2-5.54-3.61-8.19-5.58.78-1.41,1.52-2.84,2.24-4.29,6.94,1.94,13.29,6.31,20.36,7.69,1.12-.43,3-.53,3.57-1,1.1-1.09,2.23-1.78,2.35-4.11.05-2.66-2.61-4.31-4.44-5.34-4.16-2.35-8.73-4-13.07-6a42.84,42.84,0,0,1-3.88-2.2q.85-2.19,1.62-4.42a7.78,7.78,0,0,1,.94.18c9.31,2.37,18.58,4.93,27.88,7.35a61,61,0,0,0,8.19,1.66,4.69,4.69,0,0,0,4.92-2.7c1-2.07.52-5.35-1.48-6.48a41.88,41.88,0,0,0-8.69-3.86c-7.3-2.13-14.73-3.82-22-5.91-2.09-.6-4.39-.92-6.23-2.1.42-1.72.81-3.44,1.15-5.18a113.87,113.87,0,0,1,11.53.77c15.88,2,31.75,4.17,47.62,6.27,4.76.63,9.51,1.46,14.3,1.8,3.14.23,5.4,1.07,8.48.46,2-.4,4.24-3.56,4-5.65a6.06,6.06,0,0,0-2.21-4,14.16,14.16,0,0,0-5.59-1.81c-11.48-1.7-23-3.36-34.48-4.88-13.49-1.79-27-3.38-40.51-5.16a6.49,6.49,0,0,1-1.25-.29c.15-1.57.28-3.15.38-4.73a8,8,0,0,1,1.88-.32c9.2-.37,18.41-.78,27.61-.84,28.06-.17,56.12-.15,84.18-.28,4.36,0,8.83.56,12.79-1.2,2.78-2.76,3.7-5.51.86-9.33-1.33-1-4.89-1.09-7.6-1.08-20.84,0-41.68.19-62.53.34-17.61.14-35.22.34-52.84.43a16.23,16.23,0,0,1-4.14-.25c-.06-1.86-.15-3.72-.29-5.57a10.86,10.86,0,0,1,1.75-.38c11.88-1.71,23.78-3.37,35.67-5.08q29.73-4.28,59.46-8.6t59.45-8.54c6.74-1,13.49-1.78,20.22-2.84a36.59,36.59,0,0,0,6.9-2c2.17-.8,3.4-3.62,2.84-6a4.52,4.52,0,0,0-4.18-3.69,33,33,0,0,0-7.16.26q-21.42,3-42.81,6.09-37.44,5.52-74.85,11.16c-18.22,2.75-36.41,5.62-54.63,8.37a20.66,20.66,0,0,1-3.94.2c-.23-1.5-.5-3-.79-4.47,14.51-5.06,29-8.35,43.37-12.29,15.06-4.13,30.16-8.13,45.22-12.24q23.17-6.31,46.33-12.75c15-4.15,30.08-8.36,45.14-12.48,15.45-4.23,30.92-8.36,46.36-12.58,15-4.1,28.93-7.39,43.21-12.17,3.87-1.2,4.82-3.61,4.61-6.14-.29-3.67-3.23-5.37-6.77-4.76-11.38,2.08-21.47,5.61-33,8.66-11.23,2.95-22.39,6.15-33.59,9.2q-17.39,4.73-34.79,9.39c-11.59,3.12-23.2,6.19-34.79,9.35-11.21,3.05-22.38,6.22-33.58,9.28-11.59,3.17-23.2,6.26-34.78,9.42-11.21,3-22.39,6.15-33.59,9.21l-32.3,8.79q-.69-2.31-1.45-4.59c2.14-1,4.2-1.87,6.27-2.72q97.86-40.08,195.72-80.15,75-30.8,150-61.76c1.85-.77,3.89-1.24,5.52-2.33s3.58-2.57,3.88-4.16c.38-2,.78-4.29-1.11-6-4.51-2.32-7.82-.62-11.14.75q-16.12,6.62-32.21,13.29-156,64.58-312,129.13c-3,1.24-6,2.36-9,3.47q-.92-2.09-1.89-4.13c.73-.48,1.57-.84,2.3-1.26q37.49-21.63,75-43.15,71.4-41,142.8-82,61-35,122.06-69.87,54.24-31.05,108.45-62.15a72.22,72.22,0,0,0,8.16-5.06,7.74,7.74,0,0,0,2.2-4.09c.84-3.26-2.39-7-5.49-6.09a40.08,40.08,0,0,0-8.74,3.73c-9.78,5.5-19.43,11.22-29.16,16.81q-142.82,82-285.63,164-65.69,37.71-131.34,75.43c-2,1.14-4.07,2.17-6.29,3.28q-2-3.35-4.19-6.56a13.86,13.86,0,0,1,1.63-1.54q40.65-31.92,81.38-63.78,44-34.49,88-69,45.42-35.61,90.84-71.19,61.93-48.64,123.81-97.35,42.06-33,84.17-66,63.78-50.19,127.46-100.49a91.93,91.93,0,0,0,8.92-8c3.63-3.75,2.91-7.43-1.89-10.84a7.16,7.16,0,0,0-2.27-.66c-4.25.57-7,3.69-10.13,6.14-26,20.69-52,41.52-78,62.21q-58.37,46.37-116.84,92.59Q1340.25,1327,1275,1378.2q-83.61,65.8-167.17,131.68-49.11,38.7-98.14,77.49c-2.75,2.16-5.61,4.23-8.68,6.47-1.61-1.95-3.29-3.85-5-5.69a60.37,60.37,0,0,1,4-4.8q38.54-40.53,77.14-81,46.43-48.78,92.79-97.61,74.58-78.42,149.19-156.81,46.41-48.78,92.85-97.55,62.5-65.84,124.93-131.76,29.39-31,58.83-61.87,38.5-40.54,77-81.12c1.86-1.95,3.84-3.81,6-5.9q22.66,76.56,41.09,157.83c46.58,205.67,70.2,424.17,70.2,649.41s-23.62,443.74-70.2,649.41c-45,198.56-109.33,376.85-191.29,529.92-40.34,75.35-84.73,143.75-131.92,203.29-47.58,60-98.43,111.58-151.13,153.21-109.34,86.37-225.4,130.17-345,130.17s-235.62-43.8-345-130.17c-52.69-41.63-103.54-93.18-151.12-153.21-47.19-59.54-91.58-127.94-131.92-203.29-82-153.07-146.32-331.36-191.29-529.92C34.62,2120.74,11,1902.24,11,1677s23.62-443.74,70.2-649.41Q99.73,945.77,122.62,868.64Zm57-167.59c43.29,58.74,437.12,600.66,637.22,875.87-.75.63-1.5,1.27-2.24,1.92C598.07,1351.23,178.8,909.72,126.86,854.53Q151,775.09,179.63,701.05ZM857,1553.6c-5-12.65-10-25.32-14.91-38q-29.26-74.88-58.54-149.77c-19.57-49.9-39.27-99.75-58.75-149.69-1.38-3.54-3.88-7.06-2.67-11.3,1.36.62,2.94,1,4,1.93a252.47,252.47,0,0,0,51.72,34.68c1,.53,1.85,1.51,3.57,3,26.31,102.23,53.67,205,79.64,308.17-1.33.42-2.65.87-4,1.33Zm219.44-364.09c-16.78,17.62-36.71,30.92-58.26,41.92a296.75,296.75,0,0,1-86.41,28.39c-22.78,3.81-45.38,2.93-68.09-1.41a293.19,293.19,0,0,1-100.21-38.9,186.6,186.6,0,0,1-37.36-30.06c-5-5.22-9.93-10.47-13.21-17.35,2.36-6.54,7.16-11.43,11.68-16.42,12.46-13.78,27-25.07,42.79-34.73a284.3,284.3,0,0,1,101.66-38.36,197.86,197.86,0,0,1,76.43,2.25c37.17,8.26,71.65,22.81,102.82,44.84,14.13,10,27.06,21.34,37.44,35.32,1.42,1.91,2.59,4,4.26,6.59C1086.37,1179,1081.42,1184.29,1076.46,1189.51Zm5.13,14.15c0,.26,0,.65-.17.76a1.52,1.52,0,0,1-.7.22Zm593.2-347a31.71,31.71,0,0,1-2.39,2.88q-58.05,61-116.16,121.84-51,53.52-102.06,107.07-53.82,56.65-107.48,113.5-22.34,23.57-44.78,47-54.36,57-108.71,114-36.9,38.74-73.66,77.64-46,48.39-92,96.74-17,17.86-33.87,35.82c-1.9,2-3.72,4.15-6,6.8-.76-.69-1.54-1.37-2.32-2,4.51-6.59,9-13.23,13.65-19.69q311.52-427.71,623.05-855.36Q1650.7,777,1674.79,856.69ZM900.5,1796.5A119.5,119.5,0,1,1,1020,1677,119.64,119.64,0,0,1,900.5,1796.5Zm-9-249.68c-1-7-2-14-2.87-21-2-16.69-3.79-33.4-5.79-50.08-1.67-13.9-3.53-27.79-5.28-41.68q-3.24-25.6-6.43-51.23c-2.13-17.06-4.3-34.13-6.39-51.21q-3.57-29.19-7-58.4c-.08-.7.44-1.46,1.06-3.35l34,3.72c3.25,2.91,2.5,5.88,2.5,8.57q.12,42.64.1,85.31,0,87.7,0,175.42c0,1.26-.07,2.51-.16,3.76C893.94,1546.67,892.71,1546.73,891.48,1546.82Zm-17.89,2.48a67.94,67.94,0,0,1-2.07-6.49q-25.11-96.46-50.13-193-11.91-45.91-23.67-91.87c-.47-1.83-.66-3.73-1.23-7,16.55,5.58,31.3,10.56,46,15.57.34.11.58.54,1.41,1.35,1,8.1,2.2,16.78,3.3,25.47,3.14,24.6,6.33,49.2,9.35,73.82,2.72,22.25,5.17,44.53,7.9,66.78,2.82,23,5.86,46,8.77,69,1.75,13.89,3.49,27.79,5.08,41.71a24.88,24.88,0,0,1,.07,3.68C876.8,1548.65,875.19,1549,873.59,1549.3Zm33.67-267.44c0-2.35.41-4.7.62-7,1.4-.65,2.44-1.47,3.54-1.59,10.69-1.16,21.39-2.2,32.64-3.33.29,1.64.93,3.16.76,4.58-3.37,27.38-6.9,54.74-10.26,82.13-2.83,23-5.43,46-8.24,69.07-1.8,14.68-3.85,29.33-5.67,44-2.06,16.67-4,33.35-6,50-1,8.34-1.95,16.68-3,25a11,11,0,0,1-.44,2.17c-1.08-.09-2.16-.16-3.25-.22C906.65,1517,906.13,1340.67,907.26,1281.86Zm21.91,267.82c-1.66-.37-3.32-.71-5-1a28.4,28.4,0,0,1,.43-6.74q3.36-27.37,6.83-54.73c2.81-22.21,5.71-44.4,8.46-66.61,2-16.27,3.79-32.57,5.81-48.84s4.24-32.48,6.26-48.74,3.87-32.57,5.82-48.85c.28-2.33.74-4.63,1.14-7.09,7.4-3.9,15.46-4.83,22.92-7.54s15-5.5,22.32-8.19c2.28,1.75,1.66,3.66,1.15,5.59q-14.89,56.86-29.75,113.75Q959.44,1432.8,943.5,1495c-4.1,15.88-8.07,31.8-12.4,47.61C930.5,1544.81,930.3,1547.34,929.17,1549.68Zm16.1,4.73c-1.42-.52-2.85-1-4.28-1.47.14-.84.39-1.69.61-2.52q4.64-18,9.36-36,34.5-132.5,69-265c.5-1.92,1.15-3.79,1.74-5.68a34.05,34.05,0,0,1,4-2.84,251.19,251.19,0,0,0,48.88-32.59c1.73-1.46,3.08-3.73,5.84-3.52,1.06,5.1-2,9.22-3.58,13.56-5.78,15.36-12,30.57-17.94,45.85l-67.5,172.23q-22.58,57.6-45.12,115.21C946,1552.58,945.68,1553.54,945.27,1554.41ZM721.78,1203.84a1.87,1.87,0,0,1,.23.69l-1-.88C721.3,1203.71,721.67,1203.68,721.78,1203.84Zm895.44-513.41q-320.45,439-640.93,877.9a11.09,11.09,0,0,1-1.4,1.51c-1.25-.87-2.5-1.72-3.78-2.54h0q8-14.82,16-29.6,49.49-90.75,99-181.51,59.79-109.77,119.5-219.59,35.08-64.39,70.32-128.68,30.78-56.46,61.44-113,43.38-79.71,86.79-159.41,53.74-98.71,107.51-197.42c2-3.69,5.24-9.67,9.48-16.28A1849.41,1849.41,0,0,1,1617.22,690.43Zm-1335.09-132q40.55,74.41,81,148.87,67.51,124.07,135,248.12,43.7,80.24,87.49,160.39c25.09,46.1,50,92.3,75.12,138.38q43.44,79.68,87.11,159.23,34.86,63.83,69.54,127.74c4.41,8.1,8.83,16.18,13.16,24.31.18.34.33.7.48,1.06q-2.07,1.31-4.08,2.68c-.68-.81-1.2-1.69-1.77-2.48q-20.21-27.67-40.34-55.4-62.65-86-125.33-171.95Q598,1254.86,536.42,1170.31q-53.11-72.84-106.37-145.6Q365.87,936.86,301.67,849c-30-40.94-97-132.43-117.27-160.17a1844.61,1844.61,0,0,1,76.15-168.43C267.48,532.35,277.5,549.93,282.13,558.44Z"/></g></g></svg>