<svg xmlns="http://www.w3.org/2000/svg" viewBox="0 0 1801 3354"><defs><style>.cls-1{fill:#ff8000;}</style></defs><g id="Warstwa_2" data-name="Warstwa 2"><g id="Warstwa_1-2" data-name="Warstwa 1"><path class="cls-1" d="M1730.53,1025.16c-45.19-199.52-109.89-378.74-192.32-532.69-40.66-75.92-85.4-144.87-133-204.92-48.11-60.7-99.56-112.86-152.93-155-54.45-43-111.46-76.06-169.44-98.22C1023.24,11.55,961.9,0,900.5,0S777.75,11.55,718.16,34.32c-58,22.16-115,55.21-169.44,98.22-53.37,42.15-104.82,94.31-152.93,155-47.6,60.05-92.35,129-133,204.92C180.36,646.42,115.66,825.64,70.47,1025.16,23.71,1231.63,0,1450.94,0,1677s23.71,445.37,70.47,651.84c45.19,199.52,109.89,378.74,192.32,532.69,40.65,75.92,85.4,144.87,133,204.92,48.11,60.7,99.56,112.86,152.93,155,54.45,43,111.46,76.06,169.44,98.22C777.75,3342.45,839.1,3354,900.5,3354s122.74-11.55,182.34-34.32c58-22.16,115-55.21,169.44-98.22,53.37-42.15,104.82-94.31,152.93-155,47.6-60,92.34-129,133-204.92,82.43-154,147.13-333.17,192.32-532.69C1777.29,2122.37,1801,1903.06,1801,1677S1777.29,1231.63,1730.53,1025.16ZM404.41,294.38c47.58-60,98.43-111.58,151.12-153.21C664.88,54.8,780.94,11,900.5,11s235.62,43.8,345,130.17c52.7,41.63,103.55,93.18,151.13,153.21q10.61,13.37,21,27.35c-.75,0-1.39,0-1.7,0q-188.31,0-376.62-.1c-2.38,0-4.75-.68-7.69-1.13-1.22-2.71-2.64-5.53-3.78-8.45a170.64,170.64,0,0,0-42.74-63.34,190.76,190.76,0,0,1-20-22.4c-10.5-13.44-15.35-28.85-17.14-45.5-1.3-12-2.61-23.9-4-35.83-1.06-8.92-4.44-17.15-9-24.74a39.91,39.91,0,0,0-68.84,0c-4.5,7.6-7.89,15.82-8.94,24.74-1.45,12.34-2.66,24.7-4.16,37-1.9,15.75-6.4,30.5-16.34,43.3-6.17,8-12.44,15.7-19.86,22.56a169.34,169.34,0,0,0-44,65.33c-.85,2.24-1.86,4.4-2.65,6.27-5.29,2.9-10.6,2.25-15.72,2.26-28.49,0-57-.15-85.47-.16-30,0-60.06.14-90.1.15q-76.44,0-152.89,0c-11.24,0-22.47.09-33.71.07-2.72,0-5.45-.31-8.57-.5Q394,307.6,404.41,294.38ZM986.2,331.72c4.5,23.35,15.36,43.77,29.15,62.82,1.64,2.26,3.33,4.48,5.08,6.84-2.18,10.5-6.92,19.77-12,28.85-1.72,3-3,6.65-7.44,8.26a14.81,14.81,0,0,1-3.17-2.73c-20.14-29.38-32.86-61.42-34.76-97.32-.21-4-.56-8-1.15-11.94a5.05,5.05,0,0,0-5.26-4,5.31,5.31,0,0,0-4.89,4.51,20.76,20.76,0,0,0-.12,3.61c1.61,23.73,5.23,47.08,14.44,69.19A213.75,213.75,0,0,0,985.75,437c2.66,3.95,5.34,7.89,8.29,12.26-12.33,14.34-27.31,23.85-44.33,31.22-3.59-4.22-4.38-9.13-5.44-13.65-2-8.58-4-17.29-4.64-26-1.13-15.67-4.72-30.93-6.58-46.46-2.1-17.52-4.55-35-8.06-52.3-.64-3.13-.33-6.44-.89-9.58a27.88,27.88,0,0,0-2.53-7.92c-.56-1.06-2.7-1.91-4-1.77a5,5,0,0,0-3.57,2.57,15.75,15.75,0,0,0-.84,7c1.2,9.15,2.74,18.24,4.1,27.36q2.57,17.25,5,34.51c1.09,7.54,2.11,15.09,3.14,22.64,1.32,9.53,2.8,19,3.88,28.59a212.31,212.31,0,0,0,6.39,31.81,57.9,57.9,0,0,1,1,7.28c-24.39,8.34-48.18,8.08-72.21.27,0-2.2-.4-3.89.06-5.3,5.14-15.76,6.71-32.15,8.75-48.46.94-7.56,1.83-15.14,3.15-22.64,3.2-18.16,4.14-36.65,8.49-54.65,1.69-7,2.06-14.29,2.85-21.47a22.51,22.51,0,0,0-.36-6c-.37-2.39-2-3.18-6.52-3.39-3.28,2.33-3.66,6-4.19,9.54-2.18,14.66-4.49,29.31-6.56,44-3,21-5.68,42.13-8.68,63.17-1.92,13.47-3.4,27.07-9.38,40.28-5-.27-8.93-3.13-13-5.3a110.16,110.16,0,0,1-11.28-6.91c-4-2.75-7.75-5.73-11.43-8.82-3.37-2.81-6.72-5.71-9.06-9.91,1.28-2.09,2.37-4.23,3.79-6.12,6.77-9,12.06-18.93,17.16-29a179.31,179.31,0,0,0,19.5-69c.27-3.6.87-7.17,1.24-10.76a50.39,50.39,0,0,0,.29-6c-.05-3.21-2.23-5.56-5.05-5.65s-5.07,2-5.61,5.22a41.26,41.26,0,0,0-.52,6c-.22,20.32-4.67,39.81-11.9,58.68a192.39,192.39,0,0,1-23.09,43.46,23,23,0,0,1-3,2.83c-1.24-.8-2.89-1.33-3.68-2.46a110.53,110.53,0,0,1-16.1-34.66c1.93-2.58,3.64-4.79,5.27-7.05,13.77-19.06,24.63-39.49,29.12-62.84a19.89,19.89,0,0,0,.27-7.08c-.24-1.29-1.8-2.58-3.07-3.37-1.48-.91-4.47.24-5.17,1.95a48.31,48.31,0,0,0-2.58,7.93c-3.6,16.69-10.84,31.86-19.52,46.4-1.58,2.65-3.76,4.94-5.78,7.55-3.19-3.39-3-7.09-3.26-10.64-1-15.4,1.37-30.45,5.49-45.21,7.05-25.25,20.11-47.14,38.19-66,10-10.44,20.43-20.42,29-32.13a78.12,78.12,0,0,0,11.31-21.1c4.08-11.83,6.87-23.78,7.2-36.43a156.71,156.71,0,0,1,5.45-38.07c3.32-11.88,11-19.32,23.4-21.47a28.22,28.22,0,0,1,31.73,18.12,83.33,83.33,0,0,1,4,16.35A260,260,0,0,1,934.15,176c.48,14.74,4.63,28.45,10.28,41.82,4,9.38,10.81,16.87,17.29,24.51,4.14,4.89,8.73,9.42,13.29,13.94,12.32,12.23,23.26,25.5,31.58,40.82,9.09,16.74,15.28,34.39,17.5,53.42,1,8.8,2.11,17.56,1,26.39-.33,2.66-1.36,5.23-2.41,9.08-2.71-3.52-4.89-5.85-6.48-8.52-8.68-14.55-15.91-29.71-19.5-46.42a30.12,30.12,0,0,0-2.69-7.85c-.6-1.12-2.53-1.81-4-2.1-1.69-.34-4.19,1.8-4.25,3.56A31.84,31.84,0,0,0,986.2,331.72Zm733.6,1994.69c-45,198.56-109.33,376.85-191.29,529.92-40.34,75.35-84.73,143.75-131.92,203.29-47.58,60-98.43,111.58-151.13,153.21-109.34,86.37-225.4,130.17-345,130.17s-235.62-43.8-345-130.17c-52.69-41.63-103.54-93.18-151.12-153.21-47.19-59.54-91.58-127.94-131.92-203.29-82-153.07-146.32-331.36-191.29-529.92C34.62,2120.74,11,1902.24,11,1677s23.62-443.74,70.2-649.41c45-198.56,109.33-376.85,191.29-529.92,31.62-59.06,65.73-113.81,101.71-163.41a29,29,0,0,1,3.36-.27q191.54.12,383.09.3a28.15,28.15,0,0,1,4.11.71c.22,1.39.89,2.93.63,4.29a149.57,149.57,0,0,0,.17,56.23,58.87,58.87,0,0,1,.57,5.9,52.91,52.91,0,0,1-10.62,13.23c-18.52,17.83-37.77,34.83-58.87,49.6-19.2,13.44-40.15,23.46-61.77,32.24a239.76,239.76,0,0,1-55.56,15.33c-9.51,1.4-19.11,2.34-28.71,2.95-3.92.26-7.92-.93-11.9-1.4-35.93-4.25-68-35.27-73.06-70.18-.41-2.83-.79-5.47-.12-8.28s.9-5.55,1.46-8.31c3.68-18.15,14.51-30.92,30.28-39.89,12.38-7,25.33-7.15,38.28-2.13a82.91,82.91,0,0,1,28.07,18.23A29.14,29.14,0,0,1,572.43,422a46.75,46.75,0,0,1-6.91,28.78A26.82,26.82,0,0,1,553.94,461c-7.86,3.8-21.3-.46-25.58-8a11.23,11.23,0,0,1-.23-10.46c1.28-2.86,3.29-5.41,5.32-8.66-1.25-1.31-2.33-3.13-3.92-3.93-2.35-1.19-4.65.17-6.67,1.54a7.79,7.79,0,0,0-1.76,1.63c-7.69,9.92-5.36,26,4.83,33.29,5.33,3.8,11.46,5.86,17.74,7.19a21.46,21.46,0,0,0,14.07-2c8.16-4,14.76-9.62,18.91-17.86a61.07,61.07,0,0,0,5.83-38.52,32.42,32.42,0,0,0-8.16-17.16c-12.06-12.89-26.44-22-43.76-26.15-16.77-4-31.58.28-45.54,9.88-16.17,11.12-25.23,26.63-29.39,45.33a43.61,43.61,0,0,0-1,13.13c1.9,22.12,11.25,40.82,27,56.32a112.38,112.38,0,0,0,13,10.75A90.28,90.28,0,0,0,545,525a172.09,172.09,0,0,0,38.34-2.46c53.32-9.88,100.24-32.95,142.16-67.06,15.26-12.41,29.5-25.89,43.54-39.41,1.06.56,2.13.75,2.38,1.31A186.22,186.22,0,0,0,790.7,451c-1.29,2.24-2.19,4.47-3.64,6.24-15.61,18.92-31.95,37.16-51.35,52.34-6.64,5.2-13.41,10.25-20.38,15-23.25,15.82-47.31,30.17-73.06,41.72-36.21,16.25-74.07,26-113.3,31.05a70.76,70.76,0,0,0-7.11,1.19c-25,5.74-49.91,12.08-74.15,20.63a154.24,154.24,0,0,0-21,9.05c-11,5.82-21.75,12.09-32.38,18.54C386.5,651.54,379,656.91,371.32,662a15.16,15.16,0,0,0-1.88,1.51c-38.27,34.83-59.5,77.18-57.12,129.87.55,12.21,4.48,23.62,9.29,34.69A135,135,0,0,0,329.52,843c16.1,27.23,40.29,43.17,70.85,49.43a79.06,79.06,0,0,0,40.52-2.29c14.48-4.74,28.59-10.81,40.54-20.69a89.53,89.53,0,0,0,25.87-34.27c8.7-20.64,6.37-40.92-4.3-60.25a116.06,116.06,0,0,0-11.78-16.68c-19.84-24.48-59.63-28.28-85.16-9.67-9.19,6.7-14.42,16-18,26.45a17,17,0,0,0-.76,7.13c1.83,17.24,10.58,29.91,26.35,33.7,16.68,4,27.93-1.92,34.56-16.54a12.92,12.92,0,0,0,1.06-4.63c.11-2.5-.59-5-3-6.13-1.61-.74-3.69-.45-6-.65-.84,2.29-1.53,4.08-2.17,5.89-4.07,11.51-13.64,15.7-24.89,11a22.86,22.86,0,0,1-13.24-13.22c-1.16-3-2.08-6.05-3.16-9.25,3.5-17,13.71-27.43,30.22-32.42a54.48,54.48,0,0,1,60.64,20.63c8.67,12.32,13.69,25.39,14,40.24.18,9.42-2.74,18.25-7.71,26.21-9.06,14.53-19.89,27.11-36.43,33.79-8.55,3.45-16.63,8-25.89,9.51-16.12,2.71-31.54,2.05-47.19-4.22-18.68-7.49-33-19.39-44.34-35.59a71.65,71.65,0,0,1-9.27-18.17c-3.86-11.44-7.17-22.87-7.63-35.14a140.43,140.43,0,0,1,1.94-26.32,135.64,135.64,0,0,1,21.44-55.76c8.77-13.12,20-24,32.21-34,15.28-12.53,32.2-22.49,49.44-32a170,170,0,0,1,32.17-13.44c18.78-5.77,37.47-12,56.92-15.3,12.25-2.08,24.56-3.88,36.79-6.06,23.37-4.16,46-11,68.46-18.64A223,223,0,0,0,648.14,575c13-6.27,26.2-12.34,38.55-19.78,29.27-17.61,57.71-36.51,81.54-61.39,8.88-9.28,17.22-19.07,25.81-28.62l4.05-4.53c8.55,6.58,16.42,13.43,25.08,19.07,8.32,5.43,17.46,9.62,26.53,14.51a23.17,23.17,0,0,1,0,4.72c-2.88,13.33-4.81,26.84-8.5,40-3,10.79-4.5,22-7.21,32.89-3.88,15.57-8.13,31-12.47,46.48-5.42,19.32-11.29,38.5-19,57.06a231.27,231.27,0,0,1-21.56,40.24c-2.69,4-5.56,7.88-8.2,11.9a85.59,85.59,0,0,1-34.81,30.65c-13.31,6.39-27.33,9.29-42.09,5.62-10.64-2.64-20.27-7.5-29.36-13.51a12.8,12.8,0,0,1-2.71-2.38c-10.63-12.31-19.33-25.66-22.18-42.05a26,26,0,0,1-.37-8.34c3.61-22.87,14.78-40.47,36-50.87,11.69-5.73,23.47-4.62,35,.26a43.14,43.14,0,0,1,17.88,13.88c7.71,10.29,6.5,21.09,1.65,31.86-1.43,3.18-4.19,5.88-6.7,8.45-4.35,4.46-9.53,7.42-16.07,6.71-6.71-.74-9.91-3.17-15.07-11.38.4-3,.88-6.48,1.31-9.72-4.74-3.68-7.94-3.38-9.86.62a18.73,18.73,0,0,0-.94,14.07c1.61,5.14,4.56,9.53,9.25,12.24,14.16,8.19,26.35,7.34,38.7-3.63,11.34-10.08,15.45-23.08,14.08-38a33.1,33.1,0,0,0-7.93-18.55c-15.13-18-34.71-23.85-57.33-19.81-8.38,1.5-15.67,6.42-22.24,11.63A74.27,74.27,0,0,0,631,693.05c-2.28,14.12,1.69,27.1,8.26,39.35,2.83,5.29,6.58,10.08,9.71,15.22,5.21,8.55,12.74,14.34,21.58,18.62,8.29,4,16.45,8.21,25.74,9.87,15.64,2.79,30.41,0,44.64-6.22,15.81-6.94,28.47-18.14,38.63-31.83A259.19,259.19,0,0,0,805.86,695c5.89-12.37,10-25.37,14.66-38.19,10.2-28.33,18.21-57.34,25.16-86.61,5.09-21.45,9.28-43.11,13.94-64.67a69.49,69.49,0,0,1,2.24-6.89c13.09,1.36,25.72,3,38.41,3.88s25.3-3,38.53-4.41c.94,2.66,2.05,4.78,2.44,7q3.56,20.78,9,41.13c1.76,6.57,2.1,13.52,3.85,20.09,5.44,20.55,10.9,41.1,17,61.44,4.87,16.11,10.91,31.87,16.14,47.87,4.39,13.46,10.73,26,18,38,5.19,8.59,10.38,17.28,16.6,25.1,15.14,19,33.68,33.14,58.48,37.38a68.28,68.28,0,0,0,20.37.56c15.54-2,29-9,41.59-17.89a17.7,17.7,0,0,0,3.59-3.2c11-13.51,20.47-27.85,23.93-45.32,2.09-10.56.34-20.87-3.29-30.78-7.56-20.66-21.47-35.56-41.8-44.13-10-4.21-20.55-3.5-30.84-1.43-13.53,2.72-24.37,10.27-32.62,21.19-10.06,13.32-9.13,35.35,1.46,48.38,6,7.33,12.67,13.68,22.42,15.06,10.52,1.48,20-1.27,27.16-9.42,5.44-6.2,6.74-13.55,3.51-21.36-1.71-4.13-4.75-4.63-10-1.41l1.25,9.26a13.49,13.49,0,0,1-6.72,9.41c-6.82,3.9-13.72,4.16-20.41-.51-10.47-7.29-14.93-17.62-14.48-30,.24-6.67,3.63-12.36,8.26-17,7.56-7.56,16.55-12.7,27.34-14.06a40.16,40.16,0,0,1,24.47,4.18c20.18,10.59,30.54,27.76,34.15,49.58a29.64,29.64,0,0,1-.46,9.51c-2.73,16-11.5,28.9-21.71,41a16.51,16.51,0,0,1-3.62,3.15c-8.82,5.67-18.12,10.34-28.32,13-14.73,3.79-28.78,1-42.13-5.36-14.42-6.83-25.93-17.24-35-30.45-8.41-12.26-16.93-24.43-23.13-38-3.66-8-7.58-16-10.66-24.2A615.93,615.93,0,0,1,976,606c-3.16-12-6.66-24-9.59-36-2.45-10.13-3.76-20.56-6.57-30.58-3.6-12.79-5.43-25.91-8.33-38.82a50.6,50.6,0,0,1-.58-6.09c5.66-4.48,12.61-5.8,18.31-9.42s11.64-7.15,17.1-11.2,10.4-8.68,16-13.45c1.62,1.7,3,3,4.25,4.45,7.75,8.7,15.23,17.63,23.25,26.07a290.76,290.76,0,0,0,51.6,43.23c13.42,8.78,26.36,18.4,40.73,25.67,21.12,10.7,42.12,21.68,64.79,28.9,29.87,9.51,60.19,17,91.39,20.79a132.58,132.58,0,0,1,18.86,3.88c14.71,4,29.39,8.09,44,12.51,23.31,7.06,44.09,19.4,64.15,32.71a197.94,197.94,0,0,1,39.14,33.72,125.13,125.13,0,0,1,20,31.34c6.51,14.31,11,29.32,12,45.13.41,6.37,1.32,12.64,1.09,19.15a102.72,102.72,0,0,1-8.85,37.29c-9.38,21.71-24.31,38.59-46.51,48.17-1.47.64-3,1.06-4.49,1.74-23.16,10.87-46,8.46-68.62-1.69a128.76,128.76,0,0,1-13-6.3c-17.71-10.46-30-25.66-35.39-45.34-3.82-13.91-1.33-27.92,5.76-40.72,2.14-3.85,4.81-7.4,7.28-11.06,9.73-14.35,23.73-21.65,40.58-22.6,13-.73,25.51,2.52,36.06,11,6.25,5,9.61,10.8,13.31,22.66-.09,4.27-2,8.29-3.76,12.31-3.24,7.2-9.29,11-16.57,12.75-6.54,1.57-15.51.08-19.86-9.7a43.8,43.8,0,0,1-1.84-6.4c-2.64-2.78-5.31-3.27-7.82-1.14a7,7,0,0,0-2.11,7.72c3.37,10.21,9.75,17.46,20.71,19.68a33.07,33.07,0,0,0,36.14-17.81,72.5,72.5,0,0,0,4.07-10,22.59,22.59,0,0,0-.1-14.24c-4.73-14.47-13.68-25.61-27.74-31.62-17.31-7.39-35-8.11-52.73-.77a56.69,56.69,0,0,0-22.25,16c-10,11.85-17.87,24.67-20.37,40.32-2.87,17.88.27,34.39,10.78,49.26,6.49,9.18,13,18.3,22.67,24.67,21.62,14.28,44.66,23.63,71.22,21.25a55.12,55.12,0,0,0,7.13-1c30-6.7,54-22.26,69.81-49,5.1-8.6,9.71-17.45,12.77-27.17a101.3,101.3,0,0,0,4.85-34.37c-1.13-32.59-10.38-62.51-30.34-88.52-7.56-9.84-16.47-18.65-24.84-27.85a24.45,24.45,0,0,0-4.64-3.83c-17.71-11.76-35.38-23.58-54.33-33.35-11.85-6.1-24.32-10.47-37-14.22s-25.53-6.95-38.26-10.55a288,288,0,0,0-40.09-7.94C1231.71,591.84,1205.17,584,1179,575c-8.32-2.84-16.28-6.84-24.21-10.72-12.25-6-24.82-11.55-36.38-18.69-20.47-12.64-40.68-25.68-59.26-41.18-16.48-13.74-30.28-29.84-44.19-45.93a42,42,0,0,1-3.53-4.85,6.18,6.18,0,0,1-.58-2l19.62-35.07c1.94-.83,3.16.9,4.54,2.3,20.68,20.86,42.72,40.12,67.17,56.48,23.81,15.95,49.27,28.79,76.58,37.42,22.56,7.14,45.54,12.66,69.56,12.54,25.15-.12,47.07-7.83,66.19-24.4,15.78-13.68,25.94-30.34,30.45-50.62,2.14-9.61,2.3-19.1-1.12-28.48-.69-1.88-1.3-3.79-1.9-5.71-6.47-20.73-21.35-33.6-40.4-42-13.59-6-27.64-4.46-41.07.86a99.27,99.27,0,0,0-26.7,16.11c-12.49,10.31-17.59,23.25-15.85,39.35a68.51,68.51,0,0,0,5.69,22,38.84,38.84,0,0,0,18.21,18.56,23.37,23.37,0,0,0,9.1,2.79,36.14,36.14,0,0,0,28.27-11c7.06-7.13,6.83-22.36.16-30.11a6,6,0,0,0-1.85-1.51c-1.44-.68-3-1.19-4.93-2l-5.35,4.68a67.51,67.51,0,0,1,4.47,6.23c4.25,7.64,2.63,14.25-4.76,18.52-11.85,6.84-21.71,5.43-30.46-6.49-7.15-9.75-9.4-21.18-7.51-33.23a26.72,26.72,0,0,1,8.16-15.7c11-10.46,23.15-18.24,38.38-21.15,12.36-2.36,22.94,1.13,33,7.61,1.34.86,2.4,2.15,3.72,3,13.65,9.16,19.8,22.71,22.48,38.31.48,2.77,1,5.53,1.49,8.28-1,4.34-1.76,8.69-2.94,12.92-5.17,18.49-16.11,32.8-31.12,44.62-14.5,11.4-31.26,15.83-49,18.13a18.16,18.16,0,0,1-3.61,0c-29.81-2.11-58.8-7.78-86.48-19.47-22.62-9.55-44.58-20.3-64.29-35.13-14.76-11.1-29.17-22.64-42.53-35.43-7.23-6.93-15-13.36-21.16-22.72a71.06,71.06,0,0,1,.59-8.58,141.4,141.4,0,0,0,0-52.64,25.21,25.21,0,0,1,0-4.76c2.58-2.79,6-1.93,9.06-1.95,18.47-.11,36.94-.05,55.42-.06q62,0,124.08-.1,65.65,0,131.31,0c20.88,0,41.76-.05,62.64,0,2.87,0,5.73.1,8.57.19,36,49.62,70.14,104.41,101.78,163.5,82,153.07,146.32,331.36,191.29,529.92,46.58,205.67,70.2,424.17,70.2,649.41S1766.38,2120.74,1719.8,2326.41Z"/><path class="cls-1" d="M1351.59,2776.45c-29.75-16.27-58.63-13.14-86,6.06-4.58,3.21-8.45,7.4-12.77,11a17.73,17.73,0,0,1-4,1.94c-.79-2.87.32-5.41,1.36-8a132.51,132.51,0,0,1,28-43.21c11.26-11.64,24.2-21.12,40.52-24.81a39.55,39.55,0,0,0,5.74-1.74c2.69-1,3.93-3.71,2.94-7-.42-1.4-1.76-2.52-2.41-3.39-6.48-1.79-11.79.48-17,2.37-17.84,6.45-32.11,17.95-44.3,32.21a158.65,158.65,0,0,0-21,32.2c-1,2-1.25,4.84-4.72,5.56-1.38-1.74-1.42-4.15-2.05-6.3a86.2,86.2,0,0,0-8.45-19.9c-16.13-27.17-45.21-39.29-76.61-29.95a39.71,39.71,0,0,0-6.66,2.74c-2.89,1.48-3.69,4.43-2.21,8.21.4,1,1.5,1.78,2.56,3a34.89,34.89,0,0,0,5.74-.42c3.12-.73,6.11-2,9.22-2.73,16.78-3.9,32-.53,44.9,10.93,17.13,15.2,23.26,35,22.39,57.32,0,.43-1,.82-1.87,1.5-1.75-1.6-3.47-3.24-5.26-4.78-22.85-19.57-49.37-27.76-79.21-25.18a52.34,52.34,0,0,0-21.64,6.9,34.14,34.14,0,0,0-12.78,12.47,19.45,19.45,0,0,0-2,5.6c-.59,2.71,1.2,5.27,4.44,6.08,1.41.35,3-.21,4.92-.4,4.88-11.27,14.54-15.64,25.54-18a36.31,36.31,0,0,1,4.77-.57c24.31-1.8,46,5.33,65.34,19.74,2.85,2.12,5.83,4.31,7.07,8.1-2.14,1.84-4.57,1-6.89.86-7.22-.3-14.44-.72-21.58,1-35.65,8.39-61.08,40-63.13,66.76,3.72,5.58,3.72,5.58,10.75,3,.79-2.4,1.65-5,2.51-7.69,9.35-28.7,29.35-45.26,58.65-50.66,9.75-1.8,19.11.36,27.57,6.52.22,2,.78,4,.59,5.9-.78,7.58-1.56,15.18-2.77,22.7-7.48,46.75-22.75,91-43.45,133.45a568.62,568.62,0,0,1-52.13,86.56c-26.45,36.13-56.33,69-91.45,96.94-20.82,16.57-43.11,30.74-67.45,41.64a184,184,0,0,1-53.12,14.75c-2.81.34-5.73.57-6.93-3,2.38-9.34,5.14-18.52,9.61-27.15a46.37,46.37,0,0,0,3.53-10.21c2.8-11.29,5.33-22.64,8.09-33.94a77.15,77.15,0,0,1,3.23-10.32c3.86-9.7,7.74-19.38,11.91-28.94a175.26,175.26,0,0,0,10.27-29.5c3.14-13.28,6.6-26.46,12.35-38.94,1.33-2.89,2-6.09,3-9.15,1.7-5.34,3.62-10.64,5.06-16.06,2.67-10.05,6.44-19.76,8.11-30.15,2.73-17.06,7-33.83,14-49.66a371.49,371.49,0,0,0,18.59-52.09c2.77-10.17,5.09-20.24,3.64-30.81-.69-5.1.84-9.51,3.78-13.53.95-1.3,2-2.48,3.11-3.68a101.57,101.57,0,0,0,20.11-34c2.78-8,6.11-15.74,8.66-23.76,2.44-7.63,5-15.36,6.09-23.24,3.63-27,6.71-54.16,9.8-81.28a53.45,53.45,0,0,1,4.16-16.24c5.47-12.06,10.93-24.13,16.68-36a58.16,58.16,0,0,0,4.57-13.61c1.92-9.14-.71-16.62-7.44-22.83-7.85-7.26-17.14-11.71-27.46-14.29-21.27-5.32-43-5.6-64.6-4.51a247,247,0,0,0-51.08,7.58c-3.48.92-7,1.57-10.58,2.23-26.22,5-50.94,14.16-74.73,26.09-17,8.51-32.16,19.68-46.74,31.67-8.38,6.89-16.22,14.41-22,23.79a36.81,36.81,0,0,1-4.39,5.72c-16.83,18-24.64,40.15-29.27,63.69-4.39,22.27-3.12,44.78-2.19,67.25a25.79,25.79,0,0,0,.91,5.94q8.64,30.69,17.42,61.34c1.88,6.55,4,13,5.86,19.59,1.43,5,2.49,10.13,4,15.11,3,10,5.5,20.07,6.1,30.58a56.25,56.25,0,0,0,2.11,11.84c4.49,16.25,9.16,32.48,16.79,47.6,7.29,14.44,12.06,29.7,15.78,45.36a34.3,34.3,0,0,0,2,6.91c5.56,11.62,9.3,23.9,13.55,36,7.56,21.57,15.36,43.07,22.29,64.86,1.83,5.73,4.2,11.29,5.94,17,5,16.53,11.61,32.45,18.45,48.26,2.37,5.46,5.07,10.75,6.3,16a5,5,0,0,1-5.63,2.82c-8-.94-16-1.62-23.8-3.17-23.12-4.56-44.17-14.42-64.36-26.22-40-23.38-73.44-54.44-103.5-89.27a554.74,554.74,0,0,1-61-86.5c-25.75-44.82-45.51-92-57.19-142.49-3.62-15.66-5.77-31.57-7.68-47.5-.27-2.3.29-4.69.44-6.71,11-7,18.84-8.52,30-6.59,29.91,5.16,52.24,30.37,56.61,51.5.55,2.64,1.94,5.1,2.87,7.47,4.95,1.52,8.45,1.09,10.42-5-1.43-4.92-2.6-10.89-4.93-16.36a84.22,84.22,0,0,0-8.93-15.61,81.9,81.9,0,0,0-26.37-24.23,99.72,99.72,0,0,0-16.34-7.58,55.23,55.23,0,0,0-17.68-3.25c-5.87-.15-11.82,1.26-18-.05,1.76-4.62,5.16-6.88,8.27-9.35a86,86,0,0,1,20.88-11.87c14.32-5.88,29.22-8.85,44.71-7,12,1.43,22.66,5.5,28.63,17.2.33.63,1.25.95,2.62,1.93,1.63-.54,4.19-.73,5.78-2.07,2.47-2.08,1.76-5.2.55-7.81a29.12,29.12,0,0,0-11.9-13.25,66.45,66.45,0,0,0-14.26-6.24c-12.58-3.69-25.52-3.4-38.19-1-20.08,3.85-38.19,12.11-53.05,26.63a24.7,24.7,0,0,1-3.89,2.51c-2.8-20.8,5.3-43.76,19.91-57.5,11.54-10.85,25.27-15.31,40.88-13.58,4.73.53,9.33,2.24,13.95,3.55,2.77.79,5.45,1.45,8.83-.79.37-1.59,1.55-3.92,1.2-6-.27-1.58-2.38-3-3.87-4.19a9.89,9.89,0,0,0-3.29-1.45c-20.66-6.63-40.36-5.26-58.65,7.23-13.47,9.19-21.94,22.07-27.18,37.27-1.25,3.63-2.33,7.32-3.51,11-4.13-1.52-4.46-5.16-5.86-7.85-8-15.47-17.88-29.53-30.75-41.35-11.07-10.17-23.45-18.17-38.05-22.4-4.25-1.23-8.47-2.64-12.8-.51-3.65,6.59-3,8.86,3.16,10.82a32,32,0,0,0,3.49.92c8.84,1.75,16.64,5.83,23.94,10.91,21.83,15.18,36.3,36,45.78,60.5.53,1.35.16,3,.16,4.58a17,17,0,0,1-4-1.93c-4.32-3.59-8.2-7.77-12.76-11-26.09-18.43-54-22.2-82.87-7.74-24.33,12.18-37.25,33.36-42.13,59.66-.86,4.59-1.63,9.53.79,13.85,3.9,3,6.91,2,10.1-1.71.3-1.79.67-4.14,1.09-6.48,1.49-8.31,3.32-16.49,7.15-24.14,16-31.87,52.19-46.64,86.76-30.27,11.92,5.65,21.42,14,29.28,24.42.58.75.54,2,.79,3a5.6,5.6,0,0,1-1.51.32,35.22,35.22,0,0,1-3.5-.9,73,73,0,0,0-43.85-.31c-35.18,10.31-60.13,32.7-75.7,65.73-1.87,4-3.51,8.06-3.63,12.93,1.09,1,2.05,2.45,3.38,3.08a11.65,11.65,0,0,0,4.63.68,3.18,3.18,0,0,0,2.14-1,20,20,0,0,0,2.77-3.82c.76-1.39,1.17-3,1.8-4.45,9.61-22.64,25.57-39.63,46.59-52,13.78-8.1,28.65-12.49,44.78-11.7,20.47,1,35.63,13.67,40.28,33.59.73,3.13,1.37,6.29,1.8,9.46,2.89,21.13,8,41.75,14.31,62.09a523.62,523.62,0,0,0,33.15,81.26c27.94,55.26,63.28,105.13,107.3,148.76,25.21,25,52.43,47.35,83.76,64.29,31.49,17,64.4,28.17,101,27.32,20.78-.48,40.7-3.64,60.12-10.5,30.59-10.81,58.09-27.28,83.32-47.43,35-28,65.46-60.4,92.06-96.41a585.5,585.5,0,0,0,58.34-96.81c16.57-34.91,29.94-71,37.76-108.9,2.19-10.6,3.79-21.33,5.89-32,4.27-21.68,20.89-34,41.69-34.8a73.3,73.3,0,0,1,32.8,6.42c25.16,11.19,44,29,55.85,54,1.54,3.26,2.76,6.68,4.44,9.86,1.24,2.35,3.57,3.13,6.17,2.72,3.06-.5,5.14-2.09,5.74-6.77-1.63-4-3.39-9.37-5.85-14.36-11-22.25-27.62-39.31-49.18-51.44-22.66-12.76-46.48-17.19-71.81-8.77-.37.12-1.06-.74-1.9-1.35a72.7,72.7,0,0,1,39.47-29.85c9.56-3,19.49-4.5,29.69-2.53,27.82,5.36,48,25.34,53.74,53.41,1,4.7,1.88,9.4,2.8,14a32.81,32.81,0,0,0,3,2.36,5.22,5.22,0,0,0,2.27.68,5.64,5.64,0,0,0,2.33-.36c3.22-1.2,3.59-4,3.69-6.89a56.21,56.21,0,0,0-3-19C1381.81,2803.57,1370.48,2786.78,1351.59,2776.45Zm-806.46,19.2,1.38.9C544.93,2797.72,545.25,2796.4,545.13,2795.65Zm251.06,104c-1.52-1.62-2.61-2.26-2.88-3.15-7.66-25.32-15.21-50.67-22.83-76a95.3,95.3,0,0,1-4-29.69c.22-10,.11-20.06.42-30.08.51-16.63,4.81-32.49,10.47-48,3.75-10.28,10-19.18,16.8-27.66a115.32,115.32,0,0,0,7.38-9.48,80.45,80.45,0,0,1,17-18.61c14-11.33,28.1-22.7,44.39-30.81,24.14-12,49-22,75.79-26.47,5.52-.92,10.89-2.73,16.4-3.8,14.16-2.76,28.45-5.1,42.87-5.56,20-.64,40.11-.6,59.81,4.32,8.32,2.07,15.82,5.54,22.22,11.36,4,3.6,5.48,7.93,4.08,13a65.39,65.39,0,0,1-3.85,10.08c-5.35,11.66-10.87,23.25-16.26,34.9a66.16,66.16,0,0,0-5.8,22c-.91,10-2.61,19.87-3.78,29.82-1.13,9.57-2.21,19.14-3,28.74a177.08,177.08,0,0,1-12.69,54.81c-2,4.81-3.66,9.77-5.26,14.73-3.4,10.56-9.81,19.23-16.91,27.49-.75.88-1.88,1.44-3.88,2.91-7.36-11.35-17.78-17.24-28.72-22.45a65.31,65.31,0,0,0-38.57-5.54c-4,.59-8,1.07-11.94,1.55-14.91,1.77-28.86,6.95-42.58,12.56-14.47,5.92-28.67,12.54-42.77,19.32-10.56,5.09-19.48,12.73-28,20.7-8.18,7.67-16.38,15.45-21.79,25.54C797.81,2897.2,797.12,2898.17,796.19,2899.63Zm27.94,106.28c-1.81-3.32-3.28-5.67-4.43-8.17a293,293,0,0,1-17.91-52.22,30.56,30.56,0,0,1-1.08-9.48c.57-7.58,1-15.27,2.69-22.66,2.06-9.14,7.35-16.93,13.66-23.73,13.16-14.2,27.75-26.58,45.94-34.13,15.16-6.3,30.17-12.95,45.3-19.32,13.47-5.67,27.88-7.54,42.17-9,17.18-1.74,32.26,4.6,45.5,15.33a27.58,27.58,0,0,1,9.14,15.26c2.36,9.78,3.37,19.73.34,29.69-5.5,18-9.89,36.35-18.51,53.28-2,3.9-3.22,8.2-4.72,12.34-1.35,3.73-2.53,7.54-4.8,10.5-2.9.65-4-1.25-5.38-2.61-8.34-8.49-18.29-12.65-30.3-11.93-5.19.31-10.43-.17-15.63,0a75.2,75.2,0,0,0-34.46,9.36c-8.72,4.91-17.63,9.51-26.1,14.82s-16.72,11-24.63,17.16C835.28,2994.8,830.38,3000.09,824.13,3005.91Zm20.94,63c-3-7-6.22-13.92-8.56-21.13A118,118,0,0,1,832,3028c-1.12-8,2.13-15,7.17-21a38.13,38.13,0,0,1,7.06-6.48c9.44-6.74,18.68-13.87,28.65-19.75,11.66-6.88,23.33-14,36.55-17.83,11.38-3.33,23-3.44,34.54-2.42,10.87,1,18.58,6.7,22.57,17.15,2.49,6.51,3.56,13,2,20A261.9,261.9,0,0,1,958.05,3039c-1.59-.85-2.79-1.19-3.57-1.95-10.64-10.21-23.49-11.27-37-8.59a82.15,82.15,0,0,0-26.61,10.69c-13.44,8.15-25.27,18.3-36.55,29.16-2,1.92-4.05,3.78-5.93,5.54C845.66,3072.88,845.78,3070.6,845.07,3068.93Zm16.3,44.63c-3.28-4.74-5.35-10.43-7-16.11-2.1-7.16.38-13.6,5.59-18.68,6.89-6.72,13.74-13.58,21.31-19.49,10.12-7.89,20.75-15.09,33.39-18.79a47.37,47.37,0,0,1,20.22-1.55c8.95,1.28,13.55,5.72,15.2,14.64a25.59,25.59,0,0,1,.25,8.37c-2,12.65-6.1,24.72-10.37,37.9-17.79-8.95-33.94-7-49.89.82-8.63,4.26-17.22,8.61-25.85,12.85C863.57,3113.83,862.67,3113.56,861.37,3113.56ZM874,3154.33l-8.08-21.82c.53-4.88,2.35-7.85,5.51-10a29.73,29.73,0,0,1,4-2.6c9.42-4.35,18.82-8.75,28.34-12.89,8.51-3.71,17.07-3.39,25.92.56,3.33,6.21,2.56,11.66.48,17-2.16,5.57-4.5,11.06-6.72,16.49-2.14,1.73-3.76-.14-5.54-.6a25.15,25.15,0,0,0-17.55,1.41q-10.3,4.86-20.62,9.67Zm12.1,33.39c-5.69-10.74-6.07-12.11-6.15-22.49,8.31-8.29,20.13-10.28,29-15.26,5.37.45,7,3,7.42,6.51.76,6.15-.57,12.66-4,21-4.47,1.34-9.14,2.43-13.55,4.15S890.33,3185.67,886.12,3187.72Zm9,23.9c-3.59-3.1-4.92-6.65-5.22-11.17,4-6.32,11.17-7.9,17.13-10.81,3.53.8,4.14,2.88,3,5.43-2.48,5.34-5.18,10.58-7.84,16ZM1248,2797.17c-1.38-1.32-.17-1.34.65-1.56Z"/><path class="cls-1" d="M1112.27,205.21c-1.52,4.8-5,7.51-7.51,10.92s-5,6.92-7.34,10.45c-.38.57-.18,1.51-.31,3l4.62,3.23c4.46-1.05,6.48-4.07,8.82-6.62s4.47-5.41,6.86-8c.58-.61,1.82-.59,3.16-1,.14,7.51.14,14.47.41,21.42s-1.42,14,1.62,20.31c3.48,2.27,6.22,2.09,9.2-1.81,1-13.36-.82-27.73.73-42.86,8.13,4.91,12,13.33,19.31,17.13,3.85-.28,5.41-2.05,5.18-6.46-2.19-2.57-5.07-5.7-7.65-9.07-2.73-3.55-7.09-6-8.28-11.16,4.54-1.48,8.85-.93,13.08-1.09,5.45-.2,10.91-.2,16.35-.52,3.31-.2,5.18-2.25,5.26-5.14.1-3.31-2.11-5.58-5.92-5.79-2.71-.14-5.45,0-8.18,0-6.57.06-13.14.14-21.06.23,4.24-9.78,13-14.57,15.78-24l-5.52-3.66c-7.29,3.68-10,11.5-17.14,15.78a40,40,0,0,1-1.17-5.92c-.24-7-.14-14-.51-21.05-.25-4.57-.1-9.38-3-12.9-2.75-1.15-4.31-.36-5.43,1.54-1.87,3.15-2,6.66-2.05,10.19-.09,8.18-.12,16.37-.27,24.56,0,1.81.5,3.89-2.07,5.51-6.2-4.1-9.83-11.87-18.14-14.72l-3.49,5.75c2.72,3.36,5.22,6.31,7.57,9.38,2.22,2.9,5.65,5.06,6.48,9.66-7.09,1.26-13.73.56-20.27,1.12-3.85.34-7.68.9-11.47,1.62-1,.19-1.75,1.38-3.06,2.48l2.15,6C1090.24,206.16,1101.18,203.28,1112.27,205.21Z"/><path class="cls-1" d="M630.1,203c4.27.35,8.57.35,12.85.55,5.8.26,11.66-.38,18.13,1a32.81,32.81,0,0,1-2.53,4.17c-3,3.55-6.24,7-9.33,10.49a49.84,49.84,0,0,0-3.63,4.57,4.89,4.89,0,0,0,.42,6.41c1.57,1.69,4.23,1.78,6.25-.2,4.17-4.1,8.14-8.4,12.24-12.58,1-1,1.73-2.59,4.08-1.6.91,4,.42,8.25.54,12.49.26,9.35.53,18.71.93,28.06,0,1,1,2,1.54,3.23,2.67,1.17,5.15,1.6,7.86-1.78,2.06-12.94-.67-27,1.67-41.41,7.64,4.68,10.44,13.74,19,16.59l4.87-3.37c-2.59-10.14-11.82-15.51-16.42-24.69,6.16-.77,11.6-.2,17-.25,4.68,0,9.37,0,14-.29,3.76-.26,4.79-2.27,4.41-7.62-3-3-6.95-2.94-10.83-3.07-6.63-.21-13.27-.3-19.89-.59-1.31-.06-2.59-.8-4.43-1.41,5.11-7.25,12.22-12.07,15.19-20.34-1.34-1.21-2.41-2.23-3.56-3.17-.24-.2-.75-.08-1.22-.12-3.81,1.27-6.19,4.49-9.1,7-2.74,2.38-4.51,6.1-9.19,7.26-1.16-13.78-.74-27-2.44-39.55-2.54-2.86-4.72-4-8-.45-.23,3.42-.64,7.66-.77,11.91-.24,7.41-.26,14.83-.48,22.24,0,1.37.13,3.15-2.43,3.63-6.5-3.67-8.76-12.7-16.52-15.18-4.3,2.9-5.32,4.78-3.68,7.31,1.9,2.94,4.06,5.71,6.22,8.48,2.61,3.35,5.33,6.61,8,9.84-2.49,3-5.37,1.85-7.92,1.86-7.41,0-14.82-.26-22.22-.19a5.71,5.71,0,0,0-5.45,5.17A5.36,5.36,0,0,0,630.1,203Z"/><path class="cls-1" d="M1702.8,1674a93.55,93.55,0,0,0-3.92-20c-3.68-11-9.65-20.35-21.93-23.65a39.38,39.38,0,0,1-5.54-2.36c-6.2-2.78-11.65-1.78-16.54,3a144.1,144.1,0,0,1-10.7,9.69,46,46,0,0,0-14.09,19.2c-1,2.52-2.29,4.94-3.58,7.68-4.85.11-9.23.29-13.6.3q-147.66.14-295.3.23-62.07,0-124.14-.11a75,75,0,0,1-7.8-.81c-2.32-10.43-2.2-34.76.21-44a52.07,52.07,0,0,1,5.29-1.64q36-7.32,72-14.56,82.1-16.35,164.2-32.64,91.53-18.3,183-36.73c2.25-.45,4.67,0,7.19,0,1.34,3.56,2.6,6.89,3.68,9.79,5.46,4,11.13,3.84,16.7,3a12.74,12.74,0,0,0,10.49-8.9c1.74-5,2.45-10,1-15.34a139.59,139.59,0,0,1-3.17-17.74c-.84-6.53-4.29-11.19-9.61-14.54s-10.57-3.17-16-.13c-5.31,9.32-6.36,19.76-8.11,30.17-7,3-14.16,3.79-21.18,5.21q-79.1,16-158.2,31.85-78.52,15.74-157.09,31.35-41.34,8.25-82.69,16.47c-2.65.53-5.45,1.79-8.56-1-1.55-4.48-.68-9.73-.8-14.87-.11-4.82-.12-9.65.07-14.46.19-5.14-1-10.46,1.65-15.6a42.53,42.53,0,0,1,4.11-2.23q193.54-80.51,387.12-160.93a8.19,8.19,0,0,1,2.66,0q2.77,3.42,5.93,7.27c1.77-.11,3.76.38,4.82-.4,5-3.66,10.88-5,16.61-6.69a18.74,18.74,0,0,0,9.8-6.64c5.95-7.73,3.52-18-5.22-22.17a13.48,13.48,0,0,0-2.23-.93c-7.35-2-14.68-4.08-22.11-5.73a16.4,16.4,0,0,0-11.63,2.09c-5.33,3-7.12,7.19-5.51,13.17.7,2.6,3.14,4.78,1.53,8.77C1445.23,1441,1318.22,1494.15,1191,1546.79a43.87,43.87,0,0,1-5,1.34c-.68-1.79-1.64-3.18-1.66-4.57-.14-15.67-.22-31.35-.1-47,0-2.28,1.13-4.56,1.79-7l319.53-214.78,17.94,3.5c1.78-.9,3-1.27,3.87-2a11.09,11.09,0,0,0,3.05-3.63c2-4.8,3.8-9.69,5.56-14.59,2.76-7.72.35-14.08-5.68-20.1-3.28,0-6.86-.06-10.44,0a11.82,11.82,0,0,0-9.3,4.89,43.35,43.35,0,0,0-4.88,8.26c-1.67,3.63-2.92,7.46-4.38,11.28-2.28,1.7-4.46,3.46-6.78,5q-34.93,23.63-69.92,47.19-93,62.58-186,125.15-24.49,16.47-49.09,32.82c-1.38.92-2.77,1.53-4.91-.06a87.14,87.14,0,0,1-1.31-8.86c-.86-15.7-3.65-31.08-7.2-46.35-.62-2.69-1.17-5.4-1.8-8.3,2.33-2.55,4.39-5,6.64-7.24q96.66-96.82,193.36-193.61c11.64-11.66,23.24-23.35,34.92-35,3.08-3.07,5.83-6.76,11.24-7,8.26,4.2,16.79,8.51,23.74,15.41,2.83,2.82,6.12,5.19,9.2,7.76,5.59,4.68,12.09,5.8,19.19,5.38,5.89-.35,10-3,12-8.39a57,57,0,0,0,3.68-12.65c1.25-9.27,4.2-17.93,7.84-26.45,2.69-6.27,5.34-12.56,7.83-18.92a88.78,88.78,0,0,0,3.78-11.42c1.19-4.89-.66-8.83-5-11.15a60.9,60.9,0,0,0-7.74-3.32c-9.69-3.57-17.68-9.23-23.58-17.9a95.56,95.56,0,0,0-9.35-11c-4.6-4.93-10.8-6.8-17.15-8.06-5.12-1-9.35,1.56-13.56,4-1,.6-2.11,1.16-3.17,1.74a47.41,47.41,0,0,1-21.8,6.17,51.9,51.9,0,0,0-8.37.77,7.65,7.65,0,0,0-6.42,6.42c-.9,5.16-1.3,10.45.71,15.46,5.22,13,8.93,26.66,16.21,38.85,2.23,3.73,4.5,7.68,3.75,12.87-3.44,5.56-8.74,10-13.51,14.75q-67.6,67.92-135.38,135.65-43,43.08-86,86.14c-2.15,2.14-3.84,5.13-7.4,5.43-5.32-9.61-10.45-19.11-15.8-28.48-5.64-9.86-14.28-17.1-22.43-24.22a13.41,13.41,0,0,1,.93-3q90.18-135.4,180.5-270.86c2.23-.94,4.47-1.81,6.64-2.83,8.54-4,13.38-10.67,16.25-19.72,2.79-8.82-4.58-17.49-12.43-18.37-9-1-16.54,2.28-23.34,7.65a9.66,9.66,0,0,0-3.21,4.94c-1.79,7.44-3.71,15,1.75,21.94.67.84.67,2.21,1.18,4.07Q1163.53,1270,1026.07,1475.5c-.62.93-1.75,1.54-3,2.61-2.34-3.74-2.71-7.7-3.31-11.59-1.89-12.29-3.27-24.69-5.88-36.83a31.18,31.18,0,0,1,2.12-19.8c7.43-17.35,14.55-34.83,21.73-52.29q29.32-71.32,58.6-142.67,39.93-96.93,80-193.81c2-4.78,3.64-9.77,7.12-14.49,10,1.16,17.09-4.57,23.9-11.13,3.14-3,7-5.29,10.55-7.88,1-.71,2.09-1.23,3-2,3.85-3.42,4.3-9.4.54-12.86-2.61-2.39-5.67-4.87-9-5.81a43.73,43.73,0,0,1-17.58-9.94c-7.25-6.52-16-6.66-25-3.92-8.38,2.57-11.86,9-13.53,16.93-.08.39-.24.77-.33,1.16-2.31,10.2-.34,15.2,8.59,21.41,3,2.09,6.07,4,6.74,9.24-53.49,129.35-107.37,259.62-161.29,389.87-.2.49-1.15.67-2.23,1.26-1-2.74-2.21-5.27-2.72-7.94-5.41-28.42-12.89-56.34-20.53-84.21a43.24,43.24,0,0,1-1-20.2c1.78-9.07,3.42-18.16,5.2-27.22q15.84-80.37,31.71-160.74,11.54-58.5,23-117c1.09-5.45,1.71-11.09,4.34-16.17,1.67-.66,3.19-1.16,4.62-1.84,9.71-4.69,12.58-15.53,6.18-24.07-2.87-3.83-6.22-7.31-9.11-10.66a36.84,36.84,0,0,0-20.54-2.37c-4.68.8-8,3.33-9.31,8.24a56.31,56.31,0,0,0-1.73,19.11,11.7,11.7,0,0,0,7.22,10.29c2.79,1.28,6.49,1.12,8,4.56-3.55,20.65-55.34,289-58.72,297.5-2.67-.17-2.84-2.45-3.5-4.25-5.6-15.47-10.79-31.11-16.84-46.41-12.73-32.16-26.75-63.71-48.2-92.26V1103.4q0-70.53,0-141.05c0-4.42-.11-8.86.23-13.26.18-2.23,1.24-4.4,2-7,4-.15,7.59-.39,11.16-.38,12.89.06,24.3-4,34.77-11.51,6.17-4.45,9.15-10.23,8.93-17.4-.42-13.14-3.89-25.35-12.79-35.53-5.54-6.32-12.32-10.25-20.8-10.77a72,72,0,0,0-12,0c-6.77.72-13.44,2.38-20.21,2.88-18,1.31-34.44,7.19-50.35,15.21-5.62,2.83-10.08,6.75-12.76,12.31a96,96,0,0,0-6.65,16.73c-3,11.3.81,19.5,11,25.32q7.85,4.49,15.8,8.76c6.86,3.68,13.86,5.74,21.95,4.21,5.3-1,11-1.8,15.88-.54a17.43,17.43,0,0,1,1.25,1.66,4,4,0,0,1,.31,1.14,17.45,17.45,0,0,1,.25,2.39q.1,66.91.18,133.82c0,8.43-.19,16.87-.31,25.3a2.07,2.07,0,0,1-.12.64c-6.06,9.26-11.59,16.65-16,24.66-7.68,14.09-15,28.4-21.81,42.94-10.37,22.22-18.49,45.34-26.45,68.51-.76,2.2-.82,4.89-4.28,6-.53-1.82-1.11-3.59-1.55-5.4-5.81-24.39-57.48-286.43-58.5-296.61,1.89-4,5.88-5.05,9.47-6.78,7.56-3.64,9.33-6.93,8.69-15.24-.53-7-3.48-13.21-6.11-19.46-3.39-8-11.91-10.06-19-4.56a57,57,0,0,0-9,9.57c-3.24,4-5.47,8.71-9.61,12.24-4.43,3.76-4.58,8.92-2.09,14.32,3,6.52,7.48,11.28,14.58,13.37,1,3.83,1.94,7.3,2.65,10.82,4.25,21.26,8.38,42.55,12.64,63.81q24.41,121.65,48.94,243.3a41.52,41.52,0,0,1-.73,20.14c-4.68,16.61-8.83,33.37-13,50.14-3.16,12.86-5.91,25.83-8.92,38.73-.43,1.8-.36,4.09-2.85,4.7-.4-.1-.89-.08-1.12-.32a6.13,6.13,0,0,1-1.46-1.85Q707.57,1195.15,626.88,1001a3.88,3.88,0,0,1-.18-1.18c0-.4,0-.81,0-1.51,4-5.32,7.26-11.22,6.39-18.31-10.29-15.88-21.93-20.36-39-15.11a13.56,13.56,0,0,0-1.94,2.84,63.3,63.3,0,0,0-2.58,8c-2.51,10.83,2.19,19.17,12.65,22.57,3.77,1.23,7.59,2.3,11.38,3.44,3.53,8.24,6.9,15.95,10.13,23.72q37.77,90.65,75.49,181.32,42.35,101.81,84.72,203.6a29.18,29.18,0,0,1,2.14,16.44c-2.55,15.43-5,30.88-7.56,46.32-.27,1.65-1,3-3.52,3.22-1.7-2.27-3.7-4.73-5.46-7.35q-34.69-51.46-69.32-103Q651.1,1293,602.05,1220q-48.72-72.54-97.42-145.1c-1.53-2.29-2.68-4.82-4-7.3a65.46,65.46,0,0,1,2.79-6.94c3.27-6,3.37-12.42,2.16-18.8a65.68,65.68,0,0,0-11.24-26.41,29.41,29.41,0,0,0-11.07-9.08c-8.44-4.18-15.21-2.05-18.65,6.59a77.66,77.66,0,0,0-4,16.29,25.85,25.85,0,0,0,2.34,15.29c4.16,8.85,9.35,17,17.84,22.25a34.93,34.93,0,0,1,11.67,11.86c1.88,3.08,4.12,6,6.13,9q82.37,122.54,164.7,245.09,51.43,76.51,102.89,153c2.9,4.32,5.58,8.78,8.42,13.27-.52,11.75-1.1,23.3-3.63,34.52a8.18,8.18,0,0,1-1.55.2,1.94,1.94,0,0,1-1.12-.35q-192.6-191.67-384.86-383c0-1.35-.24-2.24,0-2.91,2.62-6.3,5.15-12.65,8-18.82,3.3-7,4.79-14.44,5.76-22,.59-4.62-.77-8.69-3.31-12.52s-6.13-6.13-10.29-8c-10.76-4.73-22.21-6.84-33.57-9.33-12.27-2.7-24.71-2.89-37.18-2.42a35.24,35.24,0,0,0-8.3,1.26,13.46,13.46,0,0,0-9.6,9.93,32.51,32.51,0,0,0-1.08,8.34c-.1,10-.12,20.09.09,30.13s4,18.84,9.59,26.86c4.61,6.69,10.47,12.11,18.46,14.86,6.07,2.09,12,4.71,18,6.79a76.21,76.21,0,0,0,11.63,3c8.37,1.45,15.91,0,21.58-7.05,1.44-1.8,3.2-3.35,4.6-4.8,1.43.53,2.36.59,2.86,1.09q192.45,192,384.82,384c1.4,1.4,2.54,3.07,4.31,5.24-1.45,6.6.75,13.88-2,20.67-1.2,0-2.2.32-2.74,0q-229.19-152.65-458.28-305.43c-2.61-1.74-5-3.88-7.79-6.11,1.65-2.78,3.23-5.07,4.44-7.54a55.71,55.71,0,0,0,4.23-9.93,18.34,18.34,0,0,0-7.31-20.2c-2.45-1.72-5.34-2.5-8-1-5.58,3.15-11.38,6.15-16.25,10.21-7.09,5.9-13.51,12.6-20.06,19.12-3.41,3.41-6.56,7.11-7.17,12.76,3.15,9.68,9.94,14.61,20.59,14.32a67.29,67.29,0,0,1,7.22.46,13.61,13.61,0,0,0,10.1-3.07c1.52-1.22,3.13-2.34,4.25-3.16a11.36,11.36,0,0,1,1.93.22,10.6,10.6,0,0,1,2.19,1q230.61,153.74,461.21,307.52c3,2,5.91,4.16,8.85,6.27a3.74,3.74,0,0,1,.77.9c.23.33.41.69,1.27,2.13,0,3.69.15,8.49-.08,13.26-.08,1.78-1,3.51-1.67,5.55-2.58-.78-4.55-1.2-6.38-2q-262.77-108.6-525.51-217.27a19.86,19.86,0,0,1-3.18-2.19c0-3.11.07-6.27,0-9.42-.21-7.57-2.67-14.5-8.34-19.41-8.69-7.51-18.85-12.14-30.64-12.33-8.31-.14-13.89,4-16.53,11.53a50.41,50.41,0,0,0-3,15.26c-.24,10.75,3.86,19.49,13.87,24.84,12,6.43,24.13,8.34,36.67.73,4.21,1.64,8.33,3.17,12.39,4.85,12.24,5.07,24.43,10.26,36.69,15.31q89.1,36.74,178.22,73.43,97.45,40.19,194.89,80.43,56.25,23.19,112.54,46.28c3.26,1.34,7.07,1.92,9.73,6.09.31,3.84,1.65,8.52-1.72,13.35-3.13-.41-6.3-.67-9.4-1.26q-30.15-5.79-60.28-11.7-61.45-12-122.9-24.12-53.19-10.47-106.35-21-77.42-15.26-154.82-30.44c-18.91-3.71-37.83-7.34-56.74-11.06q-29-5.68-57.88-11.54c-2.23-.45-4.31-1.64-6.64-2.57,0-3.23,0-6,0-8.79a23.65,23.65,0,0,0-3.68-12.57c-6.59-10.92-17.91-12.61-27.2-3.85a25.45,25.45,0,0,1-9.15,5.55c-5,1.78-9.14,4.87-13.16,8.27-6.76,5.7-6.05,17.86,1.2,23.33,3.6,2.73,7.53,4.69,12.07,5,3.18.21,6.38,0,9.68,0,1.37.8,2.78,1.57,4.14,2.4,5.92,3.63,11.37,3.22,16.36-1.8,1.39-1.4,2.95-2.63,4.47-4a76.57,76.57,0,0,1,8.56.71q285.41,56.09,570.79,112.3c.69.13,1.26.91,2.08,1.54,1.65,3.67,1.61,7.52-.08,11.92-1.72.37-3.61,1.13-5.5,1.13-11.22,0-22.45-.23-33.67-.25-13.25,0-26.5.18-39.75.16-30.53-.06-61-.25-91.57-.28-10.44,0-20.87.39-31.31.39-16,0-32.08-.31-48.13-.28-18.47,0-36.94.45-55.41.46-24.89,0-49.77-.29-74.66-.31-22.49,0-45,.17-67.46.23q-39.75.12-79.51.15c-17.28,0-34.55.13-51.83,0-4.33,0-8.89.76-13.53-2.56-1.9-8.77-4.36-18.08-5.82-27.54-1.1-7.1-3.6-13.07-9-17.82-2.11-1.86-4-4-6.17-5.74-4.52-3.44-8.56-7.22-11.47-12.19-5.76-9.86-18.95-10.83-27.27-4.23-10.11,8-16.14,18.77-21.81,29.87a12.38,12.38,0,0,0-1.18,5.86c.27,7.61-.39,15.52,1.51,22.74,4.2,16,5.87,32.36,8.48,48.58a63.64,63.64,0,0,0,6.32,19.38c5.45,10.49,15.79,13.28,24.5,10.52,10.44-3.3,19.48-9.26,24.46-19.91s10.2-20.88,15.39-31.28a20.67,20.67,0,0,1,2.54-3.16c3.33-.14,6.91-.42,10.48-.43,12.45,0,24.91,0,37.36,0q204.9-.09,409.8-.22c42.18,0,84.37-.2,126.55-.26,2.71,0,5.68-1,8.17,2,.95,3.58,1.49,7.44-1.16,11a22.13,22.13,0,0,1-3.46,1.28q-279.3,55.93-558.62,111.8c-5.11,1-10.26,1.87-15.39,2.78a3.72,3.72,0,0,1-1.2,0,11.86,11.86,0,0,1-1.24-.34c-3.16-1.39-4.64-4.11-5.48-7.36-1.27-4.91-4.58-8.41-8.31-11.55s-8.25-3.53-12.24-.8c-11.78,8.07-19.45,18.92-21.8,33.21a18,18,0,0,0-.16,3.6,9.84,9.84,0,0,0,7.74,9.53c3.88,1,8,1.25,11.65,2.81,6.27,2.69,11.83.62,17.46-1.5,5.24-2,8.41-5.93,10-11.29.32-1.07,1.28-1.95,2.09-3.13,5.8-1.27,11.64-2.66,17.53-3.83,50-9.91,100.05-19.71,150-29.71,45.27-9,90.49-18.35,135.74-27.49q43.1-8.71,86.21-17.31,47.25-9.44,94.5-18.81c28.34-5.67,56.67-11.44,85-17.08,3.4-.67,6.87-1.84,11.36-.82.12,5.32,1.21,10.35-1.18,16.2q-267.32,111.33-535.51,223a51.72,51.72,0,0,1-5.92,1.63,84.19,84.19,0,0,0-5.46-6.74c-4.83-4.86-9.87-9.52-16.94-10.93-7.56-1.52-13.68,1.29-16.81,8.31a70.9,70.9,0,0,0-4,12.6,14.07,14.07,0,0,0,2.36,11.45c4.24,6.32,8.06,12.94,12.46,19.15,6.21,8.73,14.28,14.2,25.62,12.16a44.35,44.35,0,0,0,10.32-3.17,15.07,15.07,0,0,0,5.9-23.18c-1.89-2.48-4-4.83-6.25-7.61a36.16,36.16,0,0,1,4.57-2.85Q498.76,1848.31,761.21,1739a30.82,30.82,0,0,1,5-1.1,35.76,35.76,0,0,1,.08,19.25c-4,2.84-7.93,5.67-11.92,8.35q-68.49,46.08-137,92.13l-139,93.49q-57.51,38.67-115,77.31-32.52,21.84-65,43.68c-5.56,3.75-10.93,5.48-18,3.66-12.48-3.21-26.29,6.11-29.33,18.62a20.33,20.33,0,0,0,.59,11.86c1.16,3.22,3.42,5.65,6.75,6.34,11.31,2.33,21.77.8,29.68-8.45,4.65-5.44,9.87-10.62,11.36-17.74,5.33-3.77,10.17-7.35,15.17-10.71q96-64.59,192-129.12,65-43.68,130.05-87.34,45.49-30.62,90.9-61.36,17-11.46,34.06-22.79c1.86-1.23,3.68-3.28,7.24-1.29.45,7,.78,14.53.66,22.29-1.26,1.56-2.4,3.21-3.79,4.62-5.36,5.44-10.82,10.77-16.2,16.19q-46.32,46.56-92.62,93.13-79.16,79.38-158.37,158.7-53.65,53.75-107.35,107.44c-2.8,2.79-5.1,6.29-9.4,7.45a16.58,16.58,0,0,1-3.23-1.31c-10.86-7.26-22.93-8.86-35.69-8.37-9.65.38-15.86,4.68-19.09,13.68-2.57,7.18-5.39,14.27-7.89,21.47-2.64,7.61-4.63,15.36-4.53,23.54.16,13.59,5.23,21,18,25.2,13.48,4.46,27.5,6.77,41.55,5.11,11-1.31,21.88-4.67,32.68-7.58,6.25-1.68,10.27-6.19,11.83-12.55,2.51-10.28,3.07-20.63.3-31a30.78,30.78,0,0,0-10.22-16c-2.44-2-5-3.94-8.71-6.85,2.71-3.23,4.57-5.82,6.79-8q58.35-58.59,116.79-117.09,92.84-93,185.71-185.92,29.81-29.85,59.63-59.69c1.34-1.34,2.54-3.09,5.34-2.4,2.49,11.63,3.22,23.59,3.59,36.27-3,4.68-6.18,9.79-9.51,14.78q-40.78,61.15-81.62,122.29c-22.27,33.43-44.4,67-66.69,100.39Q580,2144.73,543,2199.76q-22.78,34.06-45.5,68.16c-2.21,3.3-4.67,6.42-6.52,8.93-7.33,1.64-13.55,3.27-19.86,4.4-9.34,1.67-16,7.33-21.62,14.31s-3.51,16.22,4.56,20.2c2.52,1.23,5.23,2,7.85,3.08a19.88,19.88,0,0,0,15.24-.19c5.92-2.36,11.93-4.53,18.67-7.07,7.92-6.58,6-15.88,4.32-25.34,3.07-4.66,6.13-9.36,9.24-14q26.42-39.6,52.86-79.2,52.13-78.24,104.21-156.51,40.08-60.18,80.24-120.33,12.7-19,25.52-38c1.28-1.89,2.19-4.43,5.91-4.09,2.81,17.63,5.61,35.42,8.5,53.19.75,4.62-.7,8.66-2.44,12.8q-11,26.12-21.7,52.31-29.31,71.33-58.57,142.68-39.48,95.8-79.13,191.56c-2.6,6.29-5.45,12.47-7.92,18.12-12.62,6-17.78,11.34-20.21,21.57-2.63,11.12.56,25.9,19,27.14,8,.55,15.17-.93,20.3-7.87,1.42-1.91,3.13-3.6,4.45-5.09,2.13-10-.52-17.92-8-24.21a45.61,45.61,0,0,1-4-4.33,32.24,32.24,0,0,1,1.17-5q79.71-193.27,159.52-386.52a5.78,5.78,0,0,1,1.52-1.8c.27-.26.74-.29,1.69-.62.78,2.65,1.74,5.23,2.3,7.9,6,29.11,13.32,57.9,21.38,86.5a37.2,37.2,0,0,1,.67,17.81q-14.1,71.51-28.1,143-9.87,50.24-19.77,100.46-7.12,36.06-14.34,72.09c-.37,1.81-1.48,3.48-2.21,5.14-3.42,0-6.19,0-9,0-7,.09-10.49,3.51-10.55,10.21-.07,8.6,8,20.79,16,23.81a14.41,14.41,0,0,0,7,1c9.11-1.51,18.2-3.31,26.32-8.09a29.3,29.3,0,0,0,5.76-4.3,10.49,10.49,0,0,0-3.69-17.61c-3.73-1.32-7.81-1.66-11.72-2.49-1.86-.4-3.71-.92-5.51-1.37-.12-1.77-.47-3-.25-4.12q28.92-147.78,58-295.53c.11-.59.88-1,1.27-1.48,2.54.72,2.74,2.87,3.4,4.73,4.3,12.1,8.32,24.32,13,36.28,13.74,35.2,28.47,69.92,52.34,101v12.39q0,47,0,94c0,18.49,0,37-.05,55.46,0,3.11.71,6.51-2.47,9.68-4.83,1-10.25,2.41-15.76,3.1-13.25,1.68-21.87,9.26-27.46,20.84-4.25,8.81-5.45,18.43-6.85,28a13.76,13.76,0,0,0,3.34,11.25c6.85,7.87,14.9,13.61,26.08,12.28a100.7,100.7,0,0,0,11.74-2.33c2.32-.57,4.53-1.61,6.81-2.4a24.4,24.4,0,0,1,17.6.19c4.85,1.89,9.88,3.32,14.89,4.74,11,3.13,21.8,1.32,31.57-3.83,18-9.48,21.76-26.28,11.74-42.67-4.54-7.43-10.91-13.74-16.63-20.77-6.74-1.89-13.76-3.61-20.61-5.87s-14.53-.58-21.14-5.24c-.2-2.29-.57-4.64-.58-7q-.2-54.26-.3-108.49c0-16.08,0-32.15-.07-48.23,0-4.56.85-8.53,3.71-12.34,11.16-14.84,19.6-31.29,27.54-48,13.14-27.61,23.91-56.15,33.47-85.16,1.08-3.26,1.61-6.82,3.9-9.48.89.36,1.39.41,1.6.68a5.5,5.5,0,0,1,1.21,2q30.33,151.8,60.53,303.62c.14.68-.42,1.49-.92,3.07-2.87.95-6.22,2.12-9.62,3.15a18.92,18.92,0,0,0-10.9,9c-7,11.86.89,27,13.31,26.87,4,0,7.94,1,11.92,1.41a47.4,47.4,0,0,0,29.92-6.91c7.8-4.68,11.29-19.08,1.7-27a27.88,27.88,0,0,0-7.11-4.41c-4.78-1.94-9.74-3.41-15.25-5.29-.4-1.54-1-3.41-1.38-5.32-2.16-10.21-4.35-20.42-6.4-30.65q-20.1-100.41-40.15-200.83c-6.21-31.12-12.34-62.24-18.62-93.34a25.17,25.17,0,0,1,0-11.83c7.5-28.33,15.26-56.59,20.63-85.44a21.81,21.81,0,0,1,1.46-4.58c.51-1.2.09-3.3,3-3.06,54.25,129,107.61,258.58,161.57,387.92a55.2,55.2,0,0,1,1.73,5.88c-1.8,2.34-3.8,4.39-5.13,6.8a92.16,92.16,0,0,0-5.58,11.91,8.76,8.76,0,0,0,.75,8.15c5.49,8,11,12.56,19.73,10.67,1.56-.34,3.26-.16,4.76-.64,13.48-4.28,25.76-9.9,27.95-26.23.1-.79.14-1.6.26-2.88a56.79,56.79,0,0,0-2.16-7.65c-3.51-8.25-10.49-11.87-19.37-10.28-3.09.56-6.16,1.24-9.24,1.86-3.59-3.59-4.9-7.88-6.58-11.89q-37.34-89.53-74.56-179.11-43.71-105.15-87.38-210.31c-1.69-4-3.1-8.21-4.18-11.07,1.74-10.56,2.83-19.76,4.84-28.74,2.07-9.26,1.1-19.16,5.41-28,1.09.52,2.1.66,2.48,1.23q134.91,200.46,269.69,401c.61.91.63,2.21,1,3.83-2.15,1.12-4.31,2.12-6.32,3.34a38,38,0,0,0-5.9,4.12c-4.35,3.94-5.28,9.35-1.8,14.06a126.57,126.57,0,0,0,11.26,12.5,12.89,12.89,0,0,0,8.85,4.2c2.78-.48,5.93-1.13,9.1-1.54,8.18-1,14.08-5.51,18.52-12.15,5.19-7.79,2.14-16.43-6.74-19.06-2.66-.78-5.43-1.2-8-1.75-4.93-7.27-9.67-14.24-14.37-21.23l-88.1-131q-38.67-57.51-77.33-115a53.09,53.09,0,0,1-2.82-5.47c1.71-1.68,3-3.17,4.53-4.39a74.75,74.75,0,0,0,18-20.89c4.25-7.26,7.83-14.91,11.83-22.32,1.07-2,1.28-4.79,4.72-5.4,3.73,1.87,6.43,5.47,9.51,8.54q81.5,81.3,162.91,162.69,30.27,30.24,60.53,60.5c2.74,2.75,6.18,5.07,7.37,8.84-.82,1.07-1.16,1.92-1.78,2.27-13.9,7.82-18.36,20.65-18.45,35.5-.06,10.65,5,17.44,14.75,21.16,1.87.71,3.85,1.13,5.75,1.76,16.73,5.53,16.7,5.44,32.39,0a19.23,19.23,0,0,0,9-5.74c1.28-1.54,2.68-3,3.7-4.1,2.83-1,5.14-1.68,7.38-2.55,9-3.49,17.83-7.44,25.65-13.13,13.47-9.79,15.13-26.32,4-38.69-4.81-5.38-10.12-10.31-14.91-15.7-6.41-7.21-13.67-12.37-23.86-11.76a3.47,3.47,0,0,1-1.18-.22c-5.38-1.53-10.18,0-15.1,2.23-4.58,2.1-7.75,5.51-11,9.14-2.55,2.87-3.84,7-7.57,8.7-9.81-8-210.3-207.26-241.38-239.83-1.64-1.71-3.08-3.62-4.64-5.48.35-1.84.66-3.39.94-4.94,1.94-10.66,4.13-21.28,5.74-32,1.26-8.32,1.81-16.74,2.68-25.12.21-2,.51-4,3.15-4.71a15.91,15.91,0,0,1,3.1,1.26q154.4,103,308.74,206.09a29.77,29.77,0,0,1,3.21,2.78c.28.92.55,1.32.49,1.68-.74,4.75-1.6,9.49-2.31,14.25-1.46,9.91,4,16.69,14.07,16.49,9.23-.18,18.44-1.32,27.17-4.72a30,30,0,0,0,11-7.2,16.81,16.81,0,0,0,4.87-13.11c-.54-12.48-11.11-25.86-23.32-29.22a15.08,15.08,0,0,0-3.76,0c-6.72,2.58-10,10.23-17,12.5-4.75-1-8.1-4-11.75-6.43l-88.25-58.79q-56.65-37.77-113.3-75.56-53.62-35.8-107.18-71.69c-3-2-6.36-3.56-8.72-8.48,0-15.42-.37-32.26.37-49.1,0-.94,1.25-1.83,2.29-3.25,7.53,3,15,5.91,22.34,9q90.76,37.47,181.51,75,83.52,34.47,167.06,68.88c4,1.66,8.43,2.79,11.6,6.45.45,2.65.9,5.42,1.4,8.17,1.14,6.33,4.87,9.57,11.27,10.72,8.71,1.57,17.54,2,26.23,3.27,7.76,1.17,14.21-.32,19.79-4.38,3.23-4.52,3.58-8.8,1.74-13.16-2-4.81-4.27-9.52-6.47-14.25-2.53-5.46-7.06-8.85-12.52-10.63-6.85-2.24-13.89-3.9-20.91-5.58-4.24-1-7.83.29-10.75,3.73-2.26,2.68-3.21,6.61-7.79,8-2.13-.8-4.77-1.7-7.34-2.76q-43.42-17.94-86.84-35.93-99.12-40.86-198.28-81.69-41.21-17-82.35-34.14c-4-1.67-8.55-2.47-12-7.22a416.69,416.69,0,0,1,0-42.41c.06-1,1.15-1.93,1.8-2.94a21.72,21.72,0,0,1,3.71,0c12.63,2.36,25.26,4.72,37.86,7.2q53.19,10.46,106.35,21,77.42,15.24,154.83,30.43c18.9,3.71,37.83,7.35,56.74,11.06q29.53,5.81,59.07,11.71c2.33.46,4.86.64,6.38,4-.17,1.26-.51,3.21-.68,5.17a60,60,0,0,0-.36,7.21c.26,6.3,3.47,9.17,9.89,9.72,6.72.57,12.47-2.49,18.6-4.3,5.77-1.72,9.66-5.53,13.1-10.08a15.65,15.65,0,0,0,3.24-12.43,69.91,69.91,0,0,0-5.37-18.46c-3.48-7.58-8.44-9-15.38-4.28a110.82,110.82,0,0,0-9.29,7.64c-2.11,1.81-4.12,3.74-6.39,5.82-5.65-1-11.18-1.88-16.66-3-29.93-5.9-59.84-11.91-89.78-17.77-39.4-7.71-78.83-15.29-118.24-23q-53.77-10.49-107.55-21.08-47.28-9.3-94.52-18.76a57.87,57.87,0,0,1-6.12-1.86c-.7-1.53-1.32-2.25-1.33-3-.06-12-.08-24.08,0-36.11,0-1,1.12-2,2-3.33,3.1-.15,6.27-.43,9.44-.44,16.86-.07,33.72,0,50.57-.11,23.27-.14,46.54-.55,69.82-.57,32.52,0,65,.28,97.56.26,34.54,0,69.08-.28,103.61-.39,14.86,0,29.71,0,44.57,0,16.47,0,32.94-.12,49.41,0,4.3,0,8.83-.71,13,2.25,0,3.6.08,7.16,0,10.73-.59,21.86,14,41,35.24,45.66,9.34,2,18.12,1.14,26-5.45a130.41,130.41,0,0,0,14.32-14.57,18.14,18.14,0,0,0,4.78-13.27C1704.27,1694.81,1703.87,1684.36,1702.8,1674Zm-76.3-170.73c.29-.6,1.27-.86,2-1.31,4.41,1.07,6.62,4.19,7.41,8.41,1.18,6.26,2.25,12.55,3.25,18.84a23.73,23.73,0,0,1,.1,4.77c-.09,2.09-.85,3.94-2.85,4.87a5.25,5.25,0,0,1-5.77-.65c-1.95-5-4-10.16-5.94-15.35C1622.12,1516,1623.42,1509.54,1626.5,1503.26Zm-18.92-121.87c1.22,4.38.83,5.58-1.6,6.94-4.62,2.57-9.81,2.66-14.35,4.1-8.11-8.81-9.42-11.1-10-17.13C1587.48,1375.36,1598.78,1378,1607.58,1381.39Zm-94.65-120.2a32.56,32.56,0,0,1,2.4-9.13c1.06-2.4,3-4.39,4.91-7,5.13,2.78,6.41,5.94,5.65,9.82-.83,4.3-2.23,8.41-4.7,11.09-3,1.35-5,.86-6.35-.66C1513.84,1264.24,1512.76,1262.5,1512.93,1261.19Zm-109.82-165.31c-.6-1.65,0-3.75.13-6,7.08-1.49,13.86-2.29,20.2-4.42s12.35-5.6,19.23-8.83c5.29,0,10,2.81,13.74,7.28,2.32,2.76,4.51,5.63,6.6,8.57,6.19,8.7,13.92,15.42,24,19.22,2.55,1,4.92,2.42,8.54,4.23-1.68,4.52-2.86,7.89-4.19,11.2-2.24,5.57-4.49,11.14-6.88,16.65a111.89,111.89,0,0,0-8.2,27.53c-.55,3.56-.71,7.26-4.09,10.49-2.85,1.94-6.36,1.39-9.44-.89a168.28,168.28,0,0,1-15-12,42.67,42.67,0,0,0-10.72-7.5c-4.64-2.25-9-5.07-13.32-7.53-.64-2.5-1.41-4.38-1.56-6.32-.43-5.75-2.56-10.94-5.25-15.85C1410.78,1120.34,1407.48,1107.9,1403.11,1095.88Zm-96.28-52.46c10.64-7.16,10.64-7.16,18.08-4,.2,7.21-3.86,11.65-9.91,14.7-4.5,2.27-8.93-.5-9.07-5.68C1305.88,1047,1306.46,1045.4,1306.83,1043.42Zm-140.62-63c-2.42-4.8-.2-9.63,1.25-14.54,5.66-3.64,11.45-4,17.4-2.63,4,3.14,7.5,6.49,11.57,9s8.46,4,13.28,6.21c-5.68,5.15-10.7,9.74-15.78,14.26-3.08,2.73-6.57,2.75-10.11,1a22.89,22.89,0,0,1-4-2.6C1175.37,987.73,1171,984.24,1166.21,980.44Zm-136.7-32.15c-3.15-6.44-1.33-12.51,0-18.16,3.24-3.22,6.58-4,11.22-3.14,1.45,2.06,3.23,4.62,5,7.15,1.63,2.27,3.3,4.5,4.84,6.6-.43,5-1.41,6.9-4.46,7.38C1040.72,949,1035.19,949.69,1029.51,948.29Zm-276.69.58c-5.77-4-5.78-4-7.09-11.11,6.19-2.78,10.38-7.8,13.55-14,1.16-2.27,3.85-3.75,6.89-6.57a48,48,0,0,1,7.34,20.94C766.37,941.68,760.36,947,752.82,948.87ZM618.74,989.59a18.48,18.48,0,0,1-3.69,1.63c-3.5-.67-7.43-1.19-11.23-2.2-4.79-1.27-6.81-4.58-6.56-9.9a6,6,0,0,1,6.06-6c6,.13,11.8,1.17,16.44,5.6C623.48,982.23,623.21,986.17,618.74,989.59Zm-127.46,71.22c-8.17-1.06-12.31-6.65-16.29-12-5.07-6.83-9.09-14.23-6.82-24.11l8.27-8.69c4.54.12,7.14,2.59,9.34,5.47,6,7.82,9.07,16.85,10.46,26.49C496.79,1051.77,496.47,1052.09,491.28,1060.81Zm-120.7,87.73c-3.58,7.6-5.79,9.48-14.17,15.29-3-.44-6.61-.55-10-1.58-6.13-1.86-12.08-4.35-18.14-6.44-10.32-3.56-16.49-11.14-20.1-21a38,38,0,0,1-2.67-11.68c-.28-10.43.05-20.88.23-31.31,0-1.16.61-2.31,1.11-4,2-.63,4.14-1.88,6.37-2,11.24-.44,22.48-.58,33.54,2.13,9.33,2.28,19,3.1,27.95,7.07,1.47.65,3.07,1,4.53,1.62,5.31,2.38,7.2,5.5,6.48,11.5a42.17,42.17,0,0,1-2.3,10.56C379.38,1128.75,375.21,1138.76,370.58,1148.54Zm-72.93,94a19.75,19.75,0,0,1-2.39,6.68c-4.84,7.21-10,14.22-15.12,21.47-5.59-.44-10.69-.76-15.76-1.33a6,6,0,0,1-2.92-1.9c-.51-.49-.63-1.39-1.15-2.67,5.54-8.92,14.08-15.61,21.14-23.56,2.86-3.23,6.15-6.27,11.2-7.57C297.15,1235.52,298.52,1238.54,297.65,1242.5ZM211.3,1394.34a25.48,25.48,0,0,1-22.56-4.4c-2.12-1.56-4.41-4-5-6.4-1.8-7.83-2.3-15.75,3.9-23.1,9.65-1.59,17.12,1.9,24.32,6.39,4.63,2.89,7.72,6.82,8.54,12.76C219.2,1385.29,215.33,1389.78,211.3,1394.34ZM180.72,1526.1l-7.42,11c-5.57,1-8.39-4-14.38-4.23a22.59,22.59,0,0,1-4.32.8,16.73,16.73,0,0,1-5.78-.53c-3.57-1.08-5.5-3.35-5.41-5.67.1-2.7,1.87-4.35,3.84-5.75a20.8,20.8,0,0,1,5.16-3c6.89-2.35,13.11-5.77,17.92-10.93C180.12,1511.42,181,1513,180.72,1526.1ZM159.07,1685c-1.21,4.18-3.56,8-5.55,12-2.17,4.26-4.73,8.34-6.73,12.67-3.63,7.87-10.47,11.84-17.87,15-3.68,1.6-9.09-.75-11-5.08a65.11,65.11,0,0,1-4.9-14.74c-2-11-3.34-22.14-5.08-33.2-.49-3.15-1.37-6.25-2.17-9.35-.69-2.71-1.51-5.38-2.29-8.07-5.41-18.72,3.1-32.56,15.82-44.84,2.68-2.59,5.88-4.23,11.16-1.92,3.87,6.38,8.45,12.35,15,16.68,2.29,1.52,4,3.91,6.11,5.75a15.94,15.94,0,0,1,4.94,9.35c1.34,6.66,2.37,13.43,4.38,19.88C163.6,1668.15,161.51,1676.62,159.07,1685Zm4.07,143.66-13.55-4.41c2.6-13.37,4.88-17,16.3-24.24,7.86,6.26,6.8,15.26,7.85,22.69C171,1827.38,167.39,1828,163.14,1828.69Zm51.52,154.41a17.55,17.55,0,0,1-8.5-6.7c-4.71-6.93-9.09-14.08-13.46-20.9a21.58,21.58,0,0,1,4.09-13c1.58-.12,3.26-.69,4.62-.26,5.57,1.76,9.58,5.58,13,10.59.19,3,.38,6.16.57,9.22a16.86,16.86,0,0,0,2.33,3c2.81,2.25,5.88,4.21,8.6,6.55,1.75,1.51,3.07,3.51,5.18,6C225.56,1982.9,220.3,1983.82,214.66,1983.1Zm56.07,119.55c-3.54.85-7.15,1.51-10-2.78.47-8.62,6.39-12.63,14.29-15.65l11.45,4C282.8,2095.6,278.32,2100.81,270.73,2102.65Zm134.82,117.61a42.87,42.87,0,0,1-3.23,22.71c-2.2.92-4.67,2.35-7.33,3-9.71,2.31-19.42,5.57-29.27,6.15-11.12.65-22.36-1.44-33.05-5.21-7.64-2.68-10.29-6.06-9.86-14.37a73.53,73.53,0,0,1,3-17.68c2.58-8.4,6.07-16.53,9.32-24.72.56-1.41,1.86-2.52,2.91-3.89,16.92-3,32-.18,43.65,12.91,2.36.63,3.12.91,3.91,1C398.3,2202.2,403.9,2207.83,405.55,2220.26Zm84.13,81.2c-5.27,2.24-10.34,4.46-15.47,6.56-6.35,2.61-11.48.15-16.27-3.41,1.82-9.88,11.69-14.42,30.84-17.37C489.83,2292.46,492.67,2296.72,489.68,2301.46Zm137.94,76.83c-3.16,3.58-7.06,5.3-11.78,4.27-2.29-.5-4.45-1.64-7.12-2.66-3.83-8.85-2.23-15.65,3.53-21.66,7.37,2.45,13,6.08,15.92,10.09A8.05,8.05,0,0,1,627.62,2378.29Zm141.74,26c3.09-.14,6.21.55,9,.84,1,2.59-.46,3.56-1.73,4.28-7.06,4-14.8,5.71-22.83,6.69-6.47-2.67-9.87-7.54-11.13-13.89,1.94-2.15,4.11-2.46,5.82-1.46C755.06,2404.65,762.12,2404.64,769.36,2404.32Zm294.74,1.21a6.31,6.31,0,0,1,4.23,5.4,6.72,6.72,0,0,1-3.65,7,33.85,33.85,0,0,1-20.78,4.27c-5.15-.53-10.26-1.38-16.86-2.29-.83-2.56-2.21-4.77-2.07-6.87a8.92,8.92,0,0,1,5.39-7.44,42.64,42.64,0,0,1,9.07-3C1047.93,2400.85,1056.12,2402.75,1064.1,2405.53ZM1183,2355.09c4.7-1.8,8.21-6.36,13.69-6.94.79-.08,1.58-.13,2.46-.21,4.13,1.66,6.3,4.88,6.08,9.29a12.88,12.88,0,0,1-5.3,10.31c-6.29,4.47-13,7.82-21.81,7.4l-5.69-5C1173.32,2362.78,1175.91,2357.8,1183,2355.09Zm-65.7-994.47c1.12,2.83,1.84,3.89,1.93,5,.76,9.59.09,73.56-.76,80.52-7.22,8.83-81.42,82.92-88.87,88.63-.69-1.48-1.72-2.77-1.88-4.16-1.11-9.95-2-19.91-3.11-30.6C1054.92,1454,1086,1408,1117.27,1360.62Zm2,483.11c.14,6.42.19,12.85,0,19.26-.15,5.92.89,12-1.09,18.11-1.46-.63-2.69-.86-3.5-1.56-9.14-8-80.2-79.86-85-86,.32-7.78.06-16.09,2.89-24.66,2.67,1.4,4.89,2.32,6.86,3.63,26.33,17.59,52.63,35.24,78.62,52.67C1120.18,1831.74,1119.1,1837.78,1119.24,1843.73Zm-.77-222.15c0,.63-.94,1.22-1.93,2.45L1034,1640.69c-3.58-4.46-2.13-8.78-1.91-13.5,1.58-1.06,3-2.45,4.81-3.18q37.08-15.39,74.24-30.6c2.11-.86,4.15-2.43,6.7-1.33,2.1,2.36,1.49,5.29,1.45,8C1119.15,1607.24,1118.83,1614.41,1118.47,1621.58Zm.8,38a69.05,69.05,0,0,1-.73,7.27c-2,.45-3.47,1.08-5,1.09q-38.41.28-76.83.4c-1.15,0-2.3-.53-4.73-1.12v-12.63c1.55-.77,2.86-1.79,4.32-2.09q39.4-7.9,78.85-15.61a6.17,6.17,0,0,1,2.24.43c.45.63,1.27,1.25,1.3,1.9C1119,1646,1119.21,1652.74,1119.27,1659.53Zm-87.58-65.13a44.49,44.49,0,0,1,4.72-4.25q36.49-24.54,73.09-49c2.29-1.53,4.76-2.8,7.39-4.34.89,1.39,2,2.29,2,3.21.16,11.24.18,22.49.16,33.73,0,.73-.57,1.47-1.14,2.85a60.63,60.63,0,0,1-5.8,3.09c-26,10.62-51.63,22-77.15,31.91-3.27-1.21-3.18-3.34-3.23-5.27C1031.62,1602.39,1031.69,1598.4,1031.69,1594.4Zm87.4-75.22c-9.1,7.54-19.11,13.41-28.59,20-9.21,6.39-18.59,12.53-27.88,18.81-9.59,6.49-19,13.22-30.29,20.08-.82-3-1.45-4.45-1.58-6-.51-6-.86-11.93-1.3-18.28,28.17-28.1,56-56.31,84.17-84.13a24.3,24.3,0,0,1,4.11-2.59c.58,1.6,1.31,2.69,1.34,3.8C1119.44,1486.87,1119.38,1502.86,1119.09,1519.18ZM1020,1677a119.5,119.5,0,1,1-119.5-119.5A119.64,119.64,0,0,1,1020,1677Zm98.47,32.83c-1.94.14-3.48.58-4.89.31q-36.49-6.95-72.95-14.07a71.39,71.39,0,0,1-7.64-2.34,14,14,0,0,1-.32-12c1.14-.45,2.24-1.28,3.34-1.28q40.08.13,80.16.48c.65,0,1.29.83,2.41,1.61A100.54,100.54,0,0,1,1118.47,1709.83Zm.3,45.84c-1.9.3-2.78.74-3.38.5q-39.53-15.92-79-32a24.07,24.07,0,0,1-4-2.63,29.26,29.26,0,0,1-.31-12.83c2.31-2.59,4.75-1.39,7-1,18.05,3.53,36.09,7.15,54.13,10.73,6.67,1.33,13.35,2.61,20,4a47.11,47.11,0,0,1,4.91,1.59C1120.28,1734.82,1119.28,1745.34,1118.77,1755.67ZM875.68,941a22.61,22.61,0,0,1-14.19-2.66c-5.94-3.34-12-6.53-17.76-10.08-4.76-2.89-6.25-7-4.71-12.42a102.09,102.09,0,0,1,4.1-11.28,19.22,19.22,0,0,1,9.8-10.1c14.47-7.12,29.25-13,45.67-13.69,2.76-.11,5.48-1.06,8.23-1.56,7.51-1.35,15-2.19,22.7-1.09a18.6,18.6,0,0,1,11.39,6.09c7.49,8.14,10.1,18,10.47,28.71a8.35,8.35,0,0,1-3.66,7.22c-7.6,5.53-15.91,9.2-25.43,9.69a57.38,57.38,0,0,1-6,0c-6.17-.36-11.95.53-17,4.41-1.23.94-3.05,1.09-4.35,2A29.2,29.2,0,0,1,875.68,941Zm17.81,176ZM788.7,1506.89c2.12-18.73,4.9-37.39,7.66-56q7.85-53,20.85-105,9-36.19,19.67-71.95c11.1-37.34,24.5-73.85,42.15-108.61,4.89-9.63,10.65-18.83,16.17-28.12,1.17-2,3-3.52,4.37-5,4.15,1.15,5.32,4.34,7,6.95,10.51,16.17,18.91,33.48,26.63,51.13,18.18,41.61,31.7,84.85,43.39,128.69,7.65,28.69,14.34,57.62,19.63,86.84,4.78,26.45,9,53,13.19,79.56,1.35,8.69,1.09,17.64,2.38,26.35,5.43,36.56,6.75,73.36,7,110.24a130.48,130.48,0,0,0-238.4,4.14c.35-18.55,1.58-37.11,2.5-55.62C783.92,1549.19,786.31,1528,788.7,1506.89Zm118.9,908c8.62,1.65,17.48,2.23,25.78,5.52a74.91,74.91,0,0,0,9,2.37c4.25,5.13,8.28,10.07,12.38,15,8.83,10.52,6.51,23.37-6.87,29.54a34.65,34.65,0,0,1-24.63,2,104.78,104.78,0,0,1-11.38-3.81c-8.59-3.63-17.11-3.5-25.72-.18-2.24.86-4.54,1.55-6.82,2.31-10.2,3.42-18.94,1.88-26-8.45a80.69,80.69,0,0,1,5.26-24.7c3.55-8.75,9.83-14.29,19.54-15.73,6.32-.93,12.5-2.73,18.8-3.7A32.5,32.5,0,0,1,907.6,2414.85ZM1014,1823.91c-2.79,28.35-6.39,56.62-11.77,84.63-3.18,16.55-5.6,33.25-9,49.76-12.68,62.22-29.13,123.37-52.57,182.43-9.47,23.87-20.07,47.25-34,68.89-1.69,2.62-3.76,5-5.49,7.27-4.22-1.11-5.46-4.25-7.18-6.89-11-16.83-19.67-34.89-27.67-53.28-18-41.28-31.18-84.2-42.79-127.64-9.63-36-17.37-72.56-23.85-109.3-3.7-20.93-7-42-9.58-63.06-2.53-20.29-4-40.73-5.92-61.1q-3.22-33.58-3.7-67.26a130.49,130.49,0,0,0,239.21,1.63c-.33,9.68-1,19.38-1.54,29C1017.05,1780.67,1016.16,1802.36,1014,1823.91Zm105,159.9c-3.52,1-4.28-1.23-5.28-2.71-11.21-16.64-22.33-33.34-33.52-50q-24.83-37-49.69-73.95c-2-3-3.86-6.06-6.11-9.62,2.55-10.61,1-22,4.25-32.55,3.48-1.24,4.89,1.12,6.46,2.66,9.14,9,18.17,18.14,27.26,27.21q23,23,46,45.9c3.4,3.4,6.63,7,10.44,11,.79,13.62.46,27.64.44,41.64C1119.3,1956.94,1119.73,1970.51,1119,1983.81Zm.25-193.57c.11,5.92.71,12-.68,17.57-3.83,1.53-5.79-1-8-2.42q-24.63-16.23-49.16-32.64c-7.69-5.12-15.38-10.23-23-15.4-2-1.33-3.83-2.84-5.88-4.38a26.78,26.78,0,0,1,.41-15.87,34.82,34.82,0,0,1,5.83,1.14c6,2.31,11.91,4.81,17.84,7.26q26.68,11.07,53.37,22.16c2.58,1.08,5.08,2.35,7.73,3.59C1120.63,1777.43,1119.15,1783.94,1119.27,1790.24Zm184.14,496.47a55.61,55.61,0,0,1,17.83,6.57c-4.36,9.62-11.72,11-20.25,10.56-3.93-3.45-8-6.65-10.83-11.6C1293.23,2286.94,1298,2285.62,1303.41,2286.71Zm-129.86-453.14c-.25,19.25-.58,38.55-2.13,57.73-2,25.36-7.65,50-19.24,73-3.79,7.48-8.66,14.43-13.27,21.48-1.22,1.86-3.27,3.19-7,6.71.71-212.6.73-422.22.07-631.85,0-.51,1.06-1,1.74-1.67,3.3.71,4.81,3.71,6.66,6.17,10.3,13.64,17,29.08,22,45.3,6.63,21.64,9.49,43.85,10.15,66.47.91,31.3,1.19,62.61,1.15,93.92q-.12,92.22-.05,184.44C1173.59,1781.34,1173.88,1807.46,1173.55,1833.57Zm258.07,357.6c3.63-7.68,8.62-14.52,17.71-17.62l13.22,3.3c1.82,1.52,4.42,3.41,6.68,5.64,4.85,4.79,9.55,9.72,14.24,14.66a56.76,56.76,0,0,1,4.61,5.53,8.78,8.78,0,0,1,1.3,8c-1.55,5.15-4.21,9.4-9.21,12-9.22,4.88-18.34,10-30.07,12.29l-7.9,8.34-13.29,5.06c-7.34-2.15-15.12-3.95-22.21-7.57-4.47-6.43-3.37-13.23-1.54-19.82a19.86,19.86,0,0,1,10.34-12.71C1422.94,2204.54,1428,2198.78,1431.62,2191.17Zm83.54-104.52c4.87-5.66,11-10.23,16.62-15.29,9,3.14,13,9.62,14.5,17.86a7.72,7.72,0,0,1-1.71,5.44A14.61,14.61,0,0,1,1539,2099a59.62,59.62,0,0,1-25.76,4.58C1509.83,2097.1,1511.28,2091.17,1515.16,2086.65Zm73.06-144.26,15.41,3.08c8.66,4.91,13.43,12.49,16.53,23-2.55,1-4.35,2.42-6.06,2.32-6.78-.39-13.56-1.06-20.28-2-3.89-.56-7.68-1.87-11.88-2.94C1580.27,1956.73,1582.26,1949.18,1588.22,1942.39Zm50-139.85c4.22,5.24,5.65,10.9,6.07,16.89.27,4-2,7.09-5,9.06-4.66,3-9.85,5.24-15.57,5.43-1,0-2.09-.85-3.54-1.48C1620.72,1819.19,1628.74,1810.78,1638.21,1802.54Zm54.42-94.91a57.59,57.59,0,0,1-20.61,19.8c-13.28,1.3-23.73-3.91-31.22-16.24-5.18-8.53-5.52-17.34-4.11-26.64.72-4.74,1.46-9.48,2.3-14.21,1.59-8.9,5.1-16.82,12.12-22.86,2.43-2.09,4.81-4.23,7.35-6.47,7.68-1.29,13.71.87,19.37,2.74,7.4,5.9,10.61,13.73,11.79,22.15,1.61,11.49,2.32,23.1,3.29,34.67A53.3,53.3,0,0,1,1692.63,1707.63Z"/></g></g></svg>