<svg xmlns="http://www.w3.org/2000/svg" viewBox="0 0 200 200"><defs><style>.cls-1{fill:#0b1a16;}.cls-1,.cls-2{stroke:#ff8000;stroke-miterlimit:10;stroke-width:2px;}.cls-2{fill:none;}</style></defs><g id="Warstwa_2" data-name="Warstwa 2"><g id="tlo"><circle class="cls-1" cx="100" cy="100" r="99"/><path class="cls-2" d="M166,126c0-21-8.5-40-17.34-55C140.9,58,137.45,55,126.45,55H76c-11,0-14.45,3-22.17,16C45,86,36.5,105,36.5,126a17.24,17.24,0,0,0,17,17.46C65,143.5,73,131,81.71,124a33.17,33.17,0,0,1,19.51-7,33.17,33.17,0,0,1,19.52,7c8.71,7,16.71,19.5,28.21,19.5A17.24,17.24,0,0,0,166,126Z"/><circle class="cls-2" cx="116.97" cy="86" r="4"/><circle class="cls-2" cx="136.97" cy="86" r="4"/><circle class="cls-2" cx="126.97" cy="76" r="4"/><circle class="cls-2" cx="126.97" cy="96" r="4"/><path class="cls-2" d="M89.47,86a4,4,0,0,0-4-4h-6V76a4,4,0,0,0-8,0v6h-6a4,4,0,0,0,0,8h6v6a4,4,0,0,0,8,0V90h6A4,4,0,0,0,89.47,86Z"/></g></g></svg>