<svg xmlns="http://www.w3.org/2000/svg" x="0px" y="0px" viewBox="0 0 60 60" style="enable-background:new 0 0 60 60;" xml:space="preserve">
<style type="text/css">
	.st0{fill:#ff8000;}
</style>
<path class="st0" d="M0,53.9C0,38,0,22,0,6.1c0.3-0.8,0.6-1.7,1-2.5c1.1-2,2.9-3,5.1-3.6C22,0,38,0,53.9,0c0.9,0.4,1.8,0.6,2.6,1.1
	c2,1.1,2.9,2.9,3.5,5C60,22,60,38,60,53.9c-0.3,0.7-0.5,1.5-0.9,2.1c-1.1,2.2-3,3.3-5.2,3.9c-4.6,0-9.2,0-13.8,0
	c0-0.5,0.1-0.9,0.1-1.4c0-6.6,0-13.1,0-19.7c0-0.5,0-0.9,0-1.5c2.7,0,5.2,0,7.8,0c0.5-3.3,1-6.4,1.5-9.7c-3.2,0-6.1,0-9.3,0
	c0-0.6,0-1.1,0-1.6c0-1.7,0-3.4,0.1-5c0.2-3.1,1.9-4.7,5-4.9c1.5-0.1,3,0,4.6,0c0-2.8,0-5.5,0-8.4c-2.9-0.1-5.8-0.5-8.7-0.4
	C34.7,7.8,30.8,11.4,30,17.9c-0.4,2.8-0.2,5.7-0.2,8.5c0,0.4,0,0.8,0,1.3c-2.9,0-5.6,0-8.4,0c0,3.2,0,6.4,0,9.7c2.8,0,5.5,0,8.5,0
	c0,7.6,0,15.1,0,22.6c-7.9,0-15.8,0-23.7,0c-0.7-0.3-1.5-0.5-2.1-0.9C1.8,58.1,0.6,56.2,0,53.9z"/>
</svg>
