<?xml version="1.0" encoding="utf-8"?>
<!-- Generator: Adobe Illustrator 24.0.0, SVG Export Plug-In . SVG Version: 6.00 Build 0)  -->
<svg version="1.1" id="Layer_1" xmlns="http://www.w3.org/2000/svg" xmlns:xlink="http://www.w3.org/1999/xlink" x="0px" y="0px"
	 viewBox="0 0 200 200" style="enable-background:new 0 0 200 200;" xml:space="preserve">
<style type="text/css">
	.st0{fill:none;stroke:#FF8000;stroke-width:2;stroke-miterlimit:10;}
	.st1{fill:#0B1A16;stroke:#FF8000;stroke-width:2;stroke-miterlimit:10;}
</style>
<g id="Warstwa_2">
	<g id="tlo">
		<path class="st0" d="M7.5,96.1c0,21.2,7.3,42.4,21.8,59.7"/>
		<path class="st0" d="M170.7,155.8c14.7-17.4,21.8-38.6,21.8-59.7"/>
		<path class="st1" d="M192.5,96.1c0-42.1-41.4-76.3-92.5-76.3S7.5,54,7.5,96.1c0-21.2,7.3-42.4,21.8-59.6
			c32.9-39.1,91.3-44,130.4-11.1C181.3,43.7,192.5,69.8,192.5,96.1"/>
		<path class="st1" d="M48.3,101.5c-14.8,1.6-22.3,23.8-19.6,49.9s14.8,46.3,29.5,44.8L48.3,101.5z"/>
		<path class="st1" d="M141.9,196.3c14.8,1.6,26.8-18.6,29.5-44.8s-4.8-48.4-19.6-50L141.9,196.3z"/>
		<path class="st1" d="M74.3,186l-8.2-77.8c-0.5-4.6-4.7-8-9.3-7.5l-6.2,0.7c-0.8,0.1-1.5,0.3-2.3,0.6l9.8,94.2l8.6-0.9
			C71.4,194.8,74.7,190.6,74.3,186C74.3,186,74.3,186,74.3,186z"/>
		<path class="st0" d="M154.3,102.1c-0.4-0.2-0.9-0.3-1.3-0.4l-1.1-0.1C152.7,101.7,153.6,101.9,154.3,102.1z"/>
		<path class="st1" d="M151.7,101.5l-8.6-0.9c-4.6-0.5-8.8,2.8-9.3,7.5c0,0,0,0,0,0l-8.2,78c-0.5,4.6,2.9,8.8,7.5,9.3l6.1,0.7
			c0.8,0.1,1.7,0,2.5-0.1L151.7,101.5z"/>
	</g>
</g>
</svg>
