<svg id="Warstwa_1" data-name="Warstwa 1" xmlns="http://www.w3.org/2000/svg" viewBox="0 0 2200 2200"><defs><style>.cls-1{fill:#f7b221;}</style></defs><path class="cls-1" d="M1100,0C492.49,0,0,492.49,0,1100S492.49,2200,1100,2200s1100-492.49,1100-1100S1707.51,0,1100,0ZM30.68,880A1085.1,1085.1,0,0,1,194.91,489.74,1094.83,1094.83,0,0,1,675.14,94.27,1086,1086,0,0,1,880,30.68a1102,1102,0,0,1,440,0,1085.1,1085.1,0,0,1,390.28,164.23,1094.83,1094.83,0,0,1,395.47,480.23A1086,1086,0,0,1,2169.32,880a1099.13,1099.13,0,0,1,22.18,220c0,32.64-1.45,65.27-4.33,97.72a53.34,53.34,0,0,1-6.34-1c-17.53-4.62-34.63-10.46-49.79-20.69-9.81-6.62-20.32-11.83-31-16.71-16.36-7.47-33.37-12.12-51.61-10.85-2.4.17-7.83,0-10.23.15-7.82.65-15.58,1.65-23,4.33-5.66,2-11.32,4.14-16.86,6.49a138.62,138.62,0,0,0-13,6.32q-17,9.43-33,20.49a29.31,29.31,0,0,1-6.26,3.57c-13.92,5.14-28.08,9.13-43.18,7.6-3.58-.37-7.15-.94-10.73-1.32-16.17-1.74-31.18-7.37-45-15.49-10.12-6-20.5-11.48-30.46-17.71a106.45,106.45,0,0,0-19.44-9.52c-12.25-4.56-24.68-7.87-37.93-6.76-2.4.2-4.84-.1-7.23.19-5.66.7-11.59.78-16.9,2.61-10.22,3.53-20.75,6.37-30.29,11.77a121.19,121.19,0,0,1-16.51,7.7,47.69,47.69,0,0,1-4-3.71q-13.32-15.36-26.56-30.81c-8.82-10.29-17.57-20.64-26.4-30.93-5.29-6.17-10.69-12.26-16-18.43-9.62-11.2-19.17-22.46-28.79-33.66-9-10.51-18.16-20.94-27.19-31.45q-20.33-23.64-40.59-47.33c-4.52-5.26-9.07-10.48-13.58-15.75q-14.68-17.16-29.34-34.34c-4.9-5.72-9.84-11.4-14.74-17.12q-14.12-16.47-28.19-33-13.52-15.81-27-31.61-13.82-16.12-27.7-32.21c-8.45-9.81-16.95-19.58-25.4-29.4q-15.63-18.14-31.21-36.32c-8.44-9.82-16.92-19.62-25.34-29.46-12.93-15.11-25.79-30.27-38.74-45.36-8.62-10.06-17.38-20-26-30.06q-20-23.3-40-46.67c-12.37-14.39-24.85-28.69-37.21-43.1q-24.4-28.47-48.72-57a19.23,19.23,0,0,0-1.9-1.93,5.3,5.3,0,0,0-6.67,0,18.22,18.22,0,0,0-1.9,1.93c-8.08,9.34-16.19,18.67-24.21,28.06-15.86,18.54-31.61,37.17-47.51,55.68-13.35,15.54-26.91,30.91-40.26,46.45-16.08,18.74-32,37.62-48.08,56.37-12.75,14.86-25.64,29.59-38.42,44.42q-22.42,26-44.74,52.11c-4.9,5.72-9.69,11.53-14.58,17.25q-12,14.09-24.15,28.09c-9.64,11.18-19.33,22.32-28.94,33.53-12,14-23.83,28-35.81,41.91-10.21,11.87-20.59,23.61-30.79,35.5-16.09,18.74-32.07,37.56-48.12,56.33Q656.71,1002,643.72,1017q-14.73,17.15-29.43,34.3-8.82,10.31-17.61,20.62-12.34,14.41-24.71,28.82c-9,10.5-18.15,20.94-27.18,31.45s-18,21.11-27,31.62c-1.54,1.78-3.39,3.29-5.3,5.11-3.24-1.44-6.35-2.57-9.21-4.14a195,195,0,0,0-34.13-14.28,58.86,58.86,0,0,0-6-1.8c-7.7-1.58-15.5-1.86-23.33-2.24-16.86-.82-32.12,4.56-46.87,11.58-9.23,4.4-17.92,9.91-26.84,14.93a38.54,38.54,0,0,0-3.86,2.35,107.59,107.59,0,0,1-25.57,13.35c-20.33,7.74-41,11.7-62.76,6.83-10.65-2.38-20.86-5.6-29.8-12.27-9.43-7-19.84-12.57-30-18.46-10.76-6.24-22.75-9.51-34.32-13.79a4.9,4.9,0,0,0-.88-.18c-18.57-3.1-40.11-4.31-58.44,1.41-5.16,1.61-10.33,3.28-15.32,5.36-10,4.16-19.92,8.64-29.07,14.53-10.91,7-21.93,13.71-34.39,17.8C32.23,1193,23.08,1197,13,1197.66l-.17,0c-2.88-32.43-4.33-65-4.33-97.68A1099.13,1099.13,0,0,1,30.68,880ZM1760,1320a110.31,110.31,0,0,0,3.91,13.88,94,94,0,0,1,6,38.05c-.66,12.33-2.34,24.52-7.19,36.09a183.08,183.08,0,0,0-12.12,41.48c-1.44,9-1,18-.13,27,.71,7.47,1.86,14.9,3,22.32,1.46,9.2,3.48,18.32,4.7,27.55,2,15,2.68,29.87-1.84,44.69a203.39,203.39,0,0,1-8,22.06,33,33,0,0,1-2.38,3.9,14.53,14.53,0,0,1-2.3-2c-4.86-7.3-47.46-82.06-49.71-87.15,1.59-5,3.34-10.15,4.81-15.35a47.43,47.43,0,0,0,1.16-23.19c-.82-3.81-1-7.75-1.55-11.61-1.4-9.61-5.19-18.51-8.16-27.66a113.3,113.3,0,0,1-4-15.7c-1.92-11.24-.26-22.17,2-33.07a47.62,47.62,0,0,1,3.29-9.32c3.31-7.42,6.89-14.73,10.2-22.15,4.55-10.2,8.23-20.81,9.63-31.84,1-8.28.58-16.85-.13-25.22-1.13-13.29-5.15-25.85-10.84-38a217.07,217.07,0,0,1-11.58-32.26c-3.14-10.9-2.8-22-2-33.17a4.06,4.06,0,0,1,.75-1.59c.14-.24.43-.38.66-.58,1.41-.59,2.31.37,3.07,1.23,2.79,3.15,5.49,6.39,8.24,9.58q18.29,21.2,36.58,42.39c7.26,8.44,14.46,16.95,21.66,25.45a17,17,0,0,1,1.42,2.29,15.32,15.32,0,0,1,0,3.59C1755.06,1287.9,1756.33,1304,1760,1320Zm87.59,62a64.34,64.34,0,0,0-1.33-7.08c-.27-1.46-.62-3,.29-4.35.59.17,1.3.15,1.6.49q25.63,29.73,51.32,59.67c-1.64,3.55-3.09,6.78-4.63,10-4.75,9.87-7,20.47-9,31.12-.28,1.47-.53,3-.93,4.41-4.71,16.66-3.48,33.41-.49,50.12a48.35,48.35,0,0,0,3.88,11c8.38,18.59,12.7,38.28,15.34,58.31,1.84,13.89-.12,27.59-4.72,40.91-4.32,12.53-8.62,25-13.92,37.21s-8.76,25.17-7.89,38.6c1.09,16.78,2.1,33.6,6.66,50,3.39,12.16,5.88,24.58,8.63,36.92a57.8,57.8,0,0,1,.53,19.8c-.87,6.83-2.76,13.54-4.32,20.27-.16.69-1.18,1.19-1.88,1.86a10.44,10.44,0,0,1-2.06-1.92q-37.09-64.11-74.29-128.5a68.45,68.45,0,0,1,3.45-6.4c7.32-10.78,12.78-22.5,17.66-34.52a80.36,80.36,0,0,0,5.48-22.73c.6-6.29,1.23-12.55,1.41-18.89.29-10.59-1.73-21-2.45-31.45-1.09-15.69-6-30.66-8.79-46q-2.25-12.42-4.25-24.9a17.47,17.47,0,0,1-.09-5.4c1.39-8.92,1.07-18,3-26.9,1.7-7.92,2.63-16,3.92-24a71.45,71.45,0,0,1,4.36-15.61c4.22-10.31,8.27-20.68,10.75-31.6A139.56,139.56,0,0,0,1847.59,1381.94ZM1949,1675.52a67.34,67.34,0,0,0,3.56,19.47c3.49,11.21,7.08,22.39,10.34,33.67a142.37,142.37,0,0,1,3.65,16.75,41.6,41.6,0,0,1-2.24,21.21q-32.58,42.17-69.16,81.08a49.82,49.82,0,0,0,2.11-5.6,119.35,119.35,0,0,0,4-16.67c1.31-9.27,1.87-18.72,0-27.93-2.72-13.57-6.11-27-9.27-40.47a159.25,159.25,0,0,1-3.15-16.85c-1-8.07-1.32-16.18-2-24.27-1-12,.41-23.54,5-34.47,5.4-12.78,9.87-25.89,14.82-38.82,6.75-17.64,8.22-35.67,5.52-54.11a246.51,246.51,0,0,0-8.8-37.78,84.58,84.58,0,0,0-4.49-11.82,71.31,71.31,0,0,1-7-23.19c-1.45-12.36-1.84-24.6,1.09-36.79.57-2.34,1.2-4.68,1.6-7a142.92,142.92,0,0,1,8.54-30.36c.43-1.06.74-2.33,2.83-2.36a34,34,0,0,1,2.93,2.72c3.76,4.31,7.45,8.69,11.18,13,11.2,13,22.3,26.12,33.67,39a38.23,38.23,0,0,1,8.15,14.88c3.75,12.73,6.46,25.68,9.29,38.63a78.72,78.72,0,0,1,1.35,23.34c-.26,3.29-1,6.54-1.62,9.8-2.23,12.49-5.4,24.69-10.57,36.34-2.32,5.23-4.5,10.53-6.48,15.9a78,78,0,0,0-5,22.83C1948.59,1662.24,1949,1668.88,1949,1675.52ZM238.18,1769.85a37.94,37.94,0,0,1-4.13-19,85.61,85.61,0,0,1,3.75-21.28c3.26-11.28,6.85-22.47,10.37-33.67,2.18-6.93,3.8-13.94,3.84-21.25.05-6.33.11-12.66.09-19a30.44,30.44,0,0,0-.49-5.39,127.2,127.2,0,0,0-9.9-30.88c-7.19-15.14-10.87-31.27-13.13-47.71a60.26,60.26,0,0,1,.16-18.91A381.73,381.73,0,0,1,239.52,1507a32.39,32.39,0,0,1,6.46-11.78c9.69-11.14,19.18-22.46,28.8-33.65,5.89-6.85,11.89-13.61,17.86-20.39,1-1.09,1.91-2.36,4.15-1.82a113.65,113.65,0,0,1,7.56,22.76c1.09,4.69,1.56,9.54,2.93,14.13,3.33,11.21,3.39,22.63,2.41,34.07-.79,9.31-2.47,18.44-6.91,26.94a78.39,78.39,0,0,0-5.51,14.31c-4.45,15.32-8.18,30.76-9.49,46.8a93.62,93.62,0,0,0,4.18,37.33c4.9,14.87,9.8,29.77,16.41,44,4.52,9.76,5.75,20.25,6.23,30.79.25,5.37-.6,10.81-1.1,16.2-.83,9-1.62,18-3.69,26.79-2.68,11.42-5.52,22.81-8.14,34.25a101.67,101.67,0,0,0-3,19.6c-.4,12.53,1.9,24.58,5.56,36.44a53.54,53.54,0,0,0,2.82,6.24Q270.74,1811.66,238.18,1769.85Zm74.15,69.27c-2.45-9.92-5-19.79-4.67-30.21a94.07,94.07,0,0,1,2.81-17.79c3-13.2,6.18-26.37,9.16-39.57,1.59-7,2.9-14.15,2.85-21.44a41.42,41.42,0,0,1,.49-7.21c2.91-16.89-.11-33-6.69-48.52-5.06-11.93-9.47-24.09-13.69-36.33-4.47-13-6.79-26.26-5.42-40,.71-7.16,2.07-14.28,3.47-21.35,2.7-13.62,6.29-27,12.24-39.61,3.66-7.76,5.21-16,5.75-24.47.39-6,.28-12,.34-18.07a56.19,56.19,0,0,0-2-15.18c-1.32-4.93-2.37-9.94-3.34-15a105.42,105.42,0,0,0-12-32.7c4.57-6.92,44.94-54.35,52.13-61.3,1.52.49,1.32,1.8,1.12,2.84-4.13,21.25-1.66,42,5.15,62.27,2,6,4.13,12,6.66,17.75,3.56,8.12,4.63,16.79,6.32,25.32.87,4.42,1,9,2,13.37,2.09,9.46,2.34,19.12,3.06,28.69.44,5.91-.63,12-1.71,17.92-2.18,11.84-4.34,23.72-7.47,35.32a145.57,145.57,0,0,0-4.09,24.88c-1,11.06-2.67,22.08-2.15,33.29.79,16.72,3.58,32.87,11.14,48,4.17,8.35,8.07,16.84,13.52,24.5a61.09,61.09,0,0,1,3.29,5.87c-5,8.85-10,17.77-15.06,26.61-4.95,8.62-10,17.16-15,25.76-5.13,8.86-10.21,17.75-15.33,26.62-5,8.61-9.78,17.31-15,25.78s-9.4,18-15.7,26.47C313.43,1840.45,312.51,1839.88,312.33,1839.12ZM442.19,1273.6a31.89,31.89,0,0,1-.71-5.24c.82-1.18,1.42-2.23,2.19-3.12q32.93-38.4,65.89-76.74a11.87,11.87,0,0,1,2-1.52c2,.23,2.61,1.64,2.68,3.17.53,12,.71,23.94-3.15,35.73-3.65,11.17-7.66,22.16-12.31,32.95-4,9.41-7.38,19-8.34,29.4-.47,5.06-1.11,10.13-1.47,15.23-.84,12,2,23.23,5.76,34.45s8.73,21.78,13.92,32.3a56.07,56.07,0,0,1,6,22.51,24.92,24.92,0,0,0,.35,4.5c2,8.52.09,16.79-1.94,25-1.52,6.11-3.72,12.07-5.83,18a101.15,101.15,0,0,0-5.69,25.47c-.15,1.78-.67,3.54-.88,5.32-.68,6-1.05,12,.72,17.9,1.88,6.34,3.62,12.71,5.67,19.9-5.3,9.31-10.89,19.26-16.59,29.15s-11.5,19.77-17.31,29.62-10.91,20-17.67,29.8a22.5,22.5,0,0,1-2.5-3.27c-4.72-9.81-7.67-20.25-10.52-30.7a21.49,21.49,0,0,1-.62-5.37c-.1-8.13-.32-16.27,0-24.38a72.9,72.9,0,0,1,1.91-13.37c2.69-12.06,4.31-24.24,5.79-36.5.83-6.89,1.39-13.74,1.64-20.65.43-11.6-2.15-22.73-5.42-33.69-2.32-7.78-5.25-15.38-8.06-23a79.37,79.37,0,0,1-5.13-21c-.42-5.09-1.27-10.15-1.46-15.24a93.6,93.6,0,0,1,5.67-35.4,123.19,123.19,0,0,0,7.5-38.84C444.43,1288.51,444.41,1280.93,442.19,1273.6Zm80.8-83.55c-.18-2.59-1.69-5.09-2.57-7.63-.58-1.63-1.14-3.26-1.65-4.76,14.64-17.07,28.94-33.75,43.27-50.41a6,6,0,0,1,1.51-1c1.75.13,1.43,1.59,1.51,2.63.13,1.8.05,3.61.05,5.42q-.17,127.44-.32,254.89c0,3.62-.26,7.25,0,10.84a27.25,27.25,0,0,1-4.21,16.3c-5.24,8.8-10.24,17.74-15.35,26.61q-13.31,23.08-26.65,46.16c-1.31,2.25-2,5.13-5.19,5.83a23.37,23.37,0,0,1-3.07-11.22,105.86,105.86,0,0,1,6.27-41.66c2.6-7,4.71-14.3,6.61-21.56,2.55-9.75,2.25-19.68.9-29.6-.21-1.49-.59-3-.75-4.45a58.46,58.46,0,0,0-6.7-21.39,217,217,0,0,1-13.55-31.49,85.36,85.36,0,0,1-4-40.84,125.53,125.53,0,0,1,9.79-34.58,230.62,230.62,0,0,0,11.59-32.28C523.89,1214.12,523.82,1202.09,523,1190.05Zm101.85,106.74a25.53,25.53,0,0,1-3.67,14.6c-10.36,17.67-20.49,35.47-30.72,53.21q-5.88,10.19-11.8,20.33a16.15,16.15,0,0,1-4.22,5.18c-.2-1.76-.45-2.93-.45-4.1q0-136.08,0-272.55c16-18.61,31.64-37.67,48.33-55.84.3-.32,1.07-.2,2.1-.36.09,3,.25,6,.25,9q0,104.43,0,208.87C624.66,1282.33,624.52,1289.57,624.84,1296.79Zm70.37-324.21c2-2.64,3.43-4.94,5.19-7q21.32-24.55,42.75-49c.35-.39,1-.49,1.6-.74,1.78.76,1.39,2.42,1.4,3.78.05,9.64,0,19.28,0,28.92q0,67.8.07,135.6c0,2.11-.07,4.22,0,6.33a15.12,15.12,0,0,1-2.37,8.53c-7.91,13.51-15.68,27.1-23.5,40.66q-10.59,18.4-21.19,36.79c-.73,1.26-1.61,2.44-2.29,3.47-2.25-.06-2-1.54-2.06-2.56-.16-1.79-.1-3.61-.09-5.42l.45-193.45C695.22,976.7,695.21,974.89,695.21,972.58ZM867.1,790.29c0,28.92,0,57.85.11,86.77,0,5.28-.84,10-3.59,14.62-5.71,9.56-11.06,19.34-16.63,29q-12.21,21.11-24.51,42.16a49.83,49.83,0,0,1-4.94,7.54c-.58-.79-1.17-1.22-1.17-1.64,0-45.78,0-91.55,0-136.65,7.5-10.66,43.5-52.28,49.36-57.19,1.67.28,1.39,1.71,1.41,2.74C867.18,781.85,867.1,786.07,867.1,790.29Zm273-222.13c-1.11.81-1.57,1.45-2,1.45q-36.49.2-73,.26a21.19,21.19,0,0,1-3.77-.74,21.87,21.87,0,0,1,1.25-3.6q17.88-31.28,35.85-62.51c.41-.71,1.22-1.19,2.76-2.65C1114.63,523.49,1127.25,545.93,1140.07,568.16Zm-4.49-27c4.3,3.39,6.67,7.47,9.43,11.15a4.24,4.24,0,0,1-.12,5C1141.24,553.71,1138.46,549,1135.58,541.14Zm-79.69,16.92c-.27-6.85.07-7.43,8.88-16.28C1064.17,545.66,1060.91,551.77,1055.89,558.06Zm2.07,20.67q42.48,0,85,0a18.21,18.21,0,0,1,3.18.67,13.58,13.58,0,0,1,1.4,1.8Q1172.76,625,1198,668.9a11.54,11.54,0,0,1,.79,2.5c-.56.4-1,1-1.49,1q-96.27.14-192.55.15a9,9,0,0,1-2.54-.86,12.63,12.63,0,0,1,.8-2.71q25.18-43.89,50.45-87.73a12.59,12.59,0,0,1,1.52-1.84A15.74,15.74,0,0,1,1058,578.73Zm96.27-14.13c1.26.3,2,.25,2.33.6,15.68,18.16,31.33,36.35,46.54,54,.93,9.51.87,30.78,0,37.57-1.47.45-2.09-.65-2.64-1.6q-17.79-30.81-35.55-61.64c-3-5.21-5.82-10.52-9-15.58C1153.24,573.87,1152.64,569.73,1154.23,564.6ZM1045,578.15c-10.37,17.58-20.51,35.3-30.72,53-4.35,7.54-8.66,15.11-13,22.64-.71,1.24-1.61,2.36-2.42,3.54-1.79-12.92-1.62-25.18-1.5-37.36,8.6-10.11,17-19.94,25.34-29.73,7.39-8.64,14.85-17.23,22-25.52,2.16.07,2.64,1,2.8,2.31A16.81,16.81,0,0,1,1045,578.15ZM998.76,681.78q101.74,0,203.49,0a16.66,16.66,0,0,1,3.07.67c1.33,2,2.94,4.16,4.26,6.48q25.08,43.94,50,87.92c.11.19-.12.57-.38,1.65a11.1,11.1,0,0,1-2.76.79q-156,0-312,0a8.2,8.2,0,0,1-2.32-.68c-1.32-1.65-.65-3,.1-4.33q9.91-17.22,19.87-34.44,13.54-23.49,27-47c2.09-3.63,3.92-7.44,6.74-10.45A15,15,0,0,1,998.76,681.78Zm214.79-48.28c.57.13,1.32.07,1.68.42,3.75,3.52,43.75,50.42,49.24,57.62.67,6.4.52,64.17-.17,70.3-2.35.34-3-1.61-3.83-3.05q-6.66-11.26-13.18-22.63c-11.41-19.83-22.8-39.67-34.1-59.35C1212.11,663.83,1212.33,639.25,1213.55,633.5ZM988.09,676.62c-16.31,28-32.82,56.36-49.36,84.68-.23.39-1.05.44-1.59.65-.32-.43-.91-.85-.91-1.28,0-22.87,0-45.75,0-68.45,7.18-10.11,45.08-54,50.69-58.69.41.35,1.16.71,1.16,1.07C988.1,648.44,988.09,662.27,988.09,676.62ZM937.3,788.35q163.21,0,326.42,0a10.78,10.78,0,0,1,2.49.56c4.89,6.36,50.3,85.05,53.75,93.13a8.41,8.41,0,0,1-2.47.84q-217.47,0-434.93-.16c-.5,0-1-.56-1.5-.87,3.71-8.46,49-86.86,53.74-93A11.29,11.29,0,0,1,937.3,788.35Zm447.24,77.49c.1,11.45.1,22.9.13,34.35q.06,17.63.08,35.25c0,11.41.22,22.82,0,34-2.14,1-2.51-.53-3-1.35q-7-11.61-13.83-23.3c-8.62-14.84-17.11-29.75-25.79-44.55-8.21-14-8.27-14-8.27-30.55q0-43.85,0-87.68c0-2.36.23-4.72.36-7.13,1,.16,1.73,0,2,.38,16.62,17.85,32,36.76,48.13,55.47C1384.88,842.4,1384.44,854.13,1384.54,865.84Zm70.22,175.75q0-58.75,0-117.51c0-2.66.23-5.33.34-7.75,1.84-.86,2.65.07,3.4.93q10.11,11.57,20.17,23.17,9.77,11.27,19.45,22.59c2.54,3,4.95,6,7.63,9.3-.21,69.18.43,138.39.44,207.62-2.79,0-3.34-1.52-4-2.74q-16.17-28.21-32.31-56.44c-3.74-6.53-7.31-13.18-11.45-19.45-3-4.55-3.82-9.24-3.75-14.52C1454.86,1071.73,1454.76,1056.66,1454.76,1041.59Zm112.83,72.73q0,82.28.05,164.56c0,2.62.82,5.4-1.27,8.33-1.46-2.14-2.93-4-4.1-6-14.15-24.52-28.2-49.1-42.41-73.59a25.52,25.52,0,0,1-3.73-13.65c.21-16.88.16-33.76,0-50.64-.12-11.08-.74-22.16-.9-33.25-.2-13-.16-25.91-.2-38.87q-.15-38.43-.25-76.85c0-3,.15-6,.29-10.89,3.22,3.45,5.1,5.35,6.85,7.37q13.86,16.08,27.67,32.21c4.51,5.25,8.94,10.58,13.59,15.71a16.85,16.85,0,0,1,4.5,12.29C1567.48,1072.12,1567.58,1093.22,1567.59,1114.32Zm-3,190.48a1.52,1.52,0,0,1-.58,2.33l-406.64.1A215.4,215.4,0,0,0,1285,1209.6l3.58,0,123.93-.06c9.94,0,19.91.41,29.82-.09,18.65-.93,37.29-.81,55.94-.86,3.94,0,7.84,0,12,2.11C1528.38,1241.69,1546.55,1273.25,1564.63,1304.8Zm-274.35-285.18A206.43,206.43,0,0,1,1100,1306.5h0v-413h0a206.75,206.75,0,0,1,190.28,126.12ZM1499.06,1191c1.19,2,2.11,4.25,3.06,6.18-1.45,2.86-3.79,2.22-5.72,2.22-13.26,0-26.53,0-39.8,0l-165.82-.19a214,214,0,0,0,24.18-95.91c1.75,0,3.5,0,5.25,0q58.8,0,117.6,0c3.29,0,6.59.14,9.43.2a15.13,15.13,0,0,1,2.41,2.32Q1474.4,1148.39,1499.06,1191Zm-53.2-114.26c-2.72-1.42-3.65-3.58-4.75-5.48-4.7-8.07-9.27-16.21-13.95-24.29-11-19-22-38-33.72-58.22,0-47.66,0-95.56,0-143.46,0-.53.5-1.05.85-1.73a7.9,7.9,0,0,1,2.22,1.29c16.5,19.14,33,38.33,49.32,57.38Zm-44.43-54.9c4.73,8.05,9.31,16.2,14,24.28,4.53,7.82,9.32,15.5,13.59,23.46s9.5,15.17,13,23.49c-3.21,2-6.3,1.18-9.23,1.19q-56.55.08-113.08,0c-1.6,0-3.19,0-4.73.08a214,214,0,0,0-25.42-96c1.25,0,2.51-.13,3.75-.13q42.06.06,84.13,0c3.29,0,6.57.14,9.92.22C1392.94,1006,1396.87,1014.13,1401.43,1021.88ZM1340.7,916.49c4.88,8,9.32,16.2,14,24.29,4.52,7.84,9.35,15.5,13.56,23.49s9.84,15.06,12.58,23.7c-3.11,2.08-6.21,1.29-9.14,1.3-27.44.06-54.88,0-82.32,0-1.67,0-3.35-.1-5,0A215.48,215.48,0,0,0,1158.38,893c89,0,165.27.23,168.49.57C1332.35,900.51,1336,908.83,1340.7,916.49Zm-15.53-61.81c0,3,0,6-.07,9a19.92,19.92,0,0,1-.69,3.33c-2.09-.45-2.58-2-3.32-3.24l-40.65-70.46c-.15-.27-.32-.52-.47-.78-6.22-10.69-6.19-10.69-6.25-23-.07-13.26-.12-26.52-.32-39.77-.11-7.22-.55-14.44-.77-21.66-.05-1.73.2-3.48.3-5.16.76,0,1.18-.13,1.35,0a42.6,42.6,0,0,1,3.9,3.69q23.25,27.07,46.4,54.23a8.63,8.63,0,0,1,1.07,2.16C1324.69,793.83,1325.23,824.25,1325.17,854.68Zm-397-134.55c-1.32,16.25-.72,32.51-.87,48.77-.12,13-.09,13-6.36,23.83Q900.33,828.34,879.81,864c-.74,1.27-1.31,2.7-3.09,3-1.56-2.85-.88-5.92-.88-8.87-.05-24.43,0-48.85,0-73.27,0-6.91-.29-13.83-.49-22.25,1.15-1.49,2.47-3.51,4.07-5.27,16.18-17.79,30.64-37.09,47.51-54.28.12-.13.54,0,1.36.09A126.77,126.77,0,0,1,928.15,720.13ZM1041.55,893a215.49,215.49,0,0,0-125.82,96.14c-1.33,0-2.66.15-4,.15-27.44-.06-54.88,0-82.32-.06-3,0-6,.72-8.78-.92a3.28,3.28,0,0,1-.25-.92,4.27,4.27,0,0,1,.27-1.74c7-12.33,13.8-24.74,21-36.93,10.87-18.39,20.95-37.25,32.06-55.08C876.74,893.33,952.67,893.12,1041.55,893ZM839.71,998.28c8.44-.09,16.89,0,25.33,0l26.24,0h19.26a213.89,213.89,0,0,0-25.47,96.06c-17.78-.06-35.55,0-53.33,0q-32.12,0-64.23,0c-2.65,0-5.3-.26-7.83-.39-.17-1.08-.5-1.76-.3-2.16,7.88-15.29,50.26-87.71,54.52-93.13C822.28,997.78,831,998.36,839.71,998.28Zm-81.79,76.14a27.23,27.23,0,0,1-2.82,3.11V903.14c4.43-7.25,11-13.14,16.44-19.93,5.64-7.05,11.4-14,17.51-20.67,5.82-6.32,10.78-13.47,17.35-19.5.64,1.3,1.12,1.83,1.12,2.36,0,47.9,0,95.8,0,143.35C790.83,1017.64,774.39,1046,757.92,1074.42Zm5.08,28.86q59.25,0,118.5,0c1.19,0,2.37,0,3.54,0a214,214,0,0,0,24.19,96q-50.68,0-101.36.07t-101.32.14c-2.35,0-4.7-.32-7.61-.53a18.71,18.71,0,0,1,.83-3.71c1.16-2.44,2.44-4.84,3.79-7.19q22.83-39.54,45.73-79c1-1.79,2.41-3.4,3.39-4.77C756.36,1102.78,759.71,1103.28,763,1103.28Zm-61.36,105.29c13.86.29,27.71,0,41.57.43,9.59.31,19.21.94,28.85.56,9.32-.36,18.67,0,28,0q57,0,114,0c.31,0,.63,0,1,0a215.47,215.47,0,0,0,127.7,97.69l-405,.1c-1.07-.42-1.61-1-1-2,2.91-6.79,47.44-84.42,54.44-94.92C694.42,1208.68,698,1208.5,701.64,1208.57Zm-15.75-133.36c0,2.72,0,5.43,0,8.14q.14,21.2-.82,42.37c-.51,11.41-.24,22.85-.27,34.28s-.19,22.91.08,34.36a23.31,23.31,0,0,1-3.48,12.81q-13,22.23-25.86,44.55c-5.42,9.39-10.75,18.83-16.16,28.23-1.33,2.31-2.82,4.53-4.8,7.68-.72-1.75-1.14-2.29-1.14-2.84q0-119.79,0-239.65c4.43-7.76,11.22-13.47,16.57-20.33,5.55-7.12,11.79-13.69,17.69-20.54,5.65-6.56,11-13.38,18-20.24.27,3.09.61,5.09.6,7.1Q686.09,1033.18,685.89,1075.21Zm396.91,241c10,.2,20,0,30,.15,3.77.07,7.53.09,11.3-.15h446.61a7.13,7.13,0,0,1,1.25,1.43q25.35,43.83,50.62,87.7c.74,1.28,1.28,2.68,1.87,3.92-1.51,2.69-3.85,1.74-5.75,1.74q-34.38.11-68.75.06l-271.4,0q-171,0-342,0-171.89,0-343.76.1c-3.92,0-7.85,0-11.76-.07-1.46,0-2.9-.34-4.74-.57a21.57,21.57,0,0,1,1.26-3.74c17.4-30.31,34.83-60.59,51.86-90.19l.55-.31Zm494.32-259c.78.26,1.53.27,1.86.66,16,18.38,32,36.8,47,54.17.62,1.68.74,2,.82,2.24a3.37,3.37,0,0,1,.14.89c0,2.41.12,4.82.12,7.23q0,132.47-.11,264.93a5.68,5.68,0,0,1-.39,1.74c-.06.19-.36.3-.92.74-1.64-2.5-3.39-4.91-4.87-7.47-13.43-23.21-26.72-46.49-40.28-69.62a32.19,32.19,0,0,1-4.38-17.13q.27-114.83.22-229.67C1576.34,1063,1575.65,1060,1577.12,1057.15Zm-1002.91,363q526.31,0,1052.63,0a29.61,29.61,0,0,1,3.87.55,49.65,49.65,0,0,1,3.68,4.87q17.22,29.71,34.34,59.5c3.17,5.48,6.42,10.9,9.59,16.38,1.5,2.57,3.46,5,3.06,8.87a39.71,39.71,0,0,1-17.3,14.57,48.71,48.71,0,0,1-18.37,4.14c-14.83.6-28.71-2.87-42-8.89-8.23-3.72-16.4-7.67-24.27-12.09a149.69,149.69,0,0,0-45.65-16.6c-10.07-1.91-20.43-1.42-30.63-.06-14.93,2-28.27,8.1-40.83,16.17-6.59,4.24-13.09,8.62-19.84,12.6a170.14,170.14,0,0,1-15.28,7.8c-9.58,4.41-19.25,8.53-29.73,10.49-9.21,1.73-18.42,3.06-27.8,2.66a60,60,0,0,1-20.12-4.76,206.08,206.08,0,0,1-35.13-18.46c-9.83-6.4-20.21-12-30.41-17.81a60,60,0,0,0-15.92-6.29c-5.56-1.33-11-3.38-16.62-4.17-9.23-1.29-18.53-1.95-27.81.42-8.18,2.08-16.5,3.68-24.06,7.59-5.62,2.91-11.09,6.07-16.59,9.19-10.74,6.1-21.37,12.39-32.19,18.33-12.52,6.87-26.1,11-40,13.79-11.11,2.21-22.13.31-33-2.9-17.48-5.18-33.56-13.24-49-22.76q-11.53-7.11-23.4-13.69a72.85,72.85,0,0,0-17.58-7c-2.92-.75-5.86-1.38-8.78-2.12a67.54,67.54,0,0,0-34.8.53,30.47,30.47,0,0,1-3.48,1c-12.17,1.81-23,7.11-33.34,13.35-10.84,6.51-21.62,13.13-32.42,19.73-9,5.52-18.84,9.42-28.71,13.13-9.26,3.49-18.95,3.7-28.55,2.52a137.86,137.86,0,0,1-36.58-9.39c-14.88-6.21-28.28-14.77-41.77-23.29a121.22,121.22,0,0,0-25-12.56,100.74,100.74,0,0,0-28.33-5c-16.69-.82-32.18,3.53-47.46,9.47-9.58,3.73-18.4,9-27.5,13.65a197,197,0,0,1-27.39,11.7,78.59,78.59,0,0,1-33,3.4,41.5,41.5,0,0,1-31-18.16c-.52-3.46.87-5.52,2.06-7.58,9.24-15.88,18.56-31.73,27.8-47.62,5.29-9.12,10.47-18.31,15.74-27.44,1.34-2.33,2.86-4.55,4.48-7.12A39,39,0,0,1,574.21,1420.14Zm1107.87-188.78a279.05,279.05,0,0,0,11.55,30.38,88,88,0,0,1,7.83,28.61c.33,3.59,1,7.15,1.34,10.74,1,10.38-1,20.36-4.14,30.19a179,179,0,0,1-13.66,32.41c-6.19,11.13-7.91,23.23-8.94,35.58-1.25,14.84,3,28.67,8.09,42.24a106.53,106.53,0,0,1,6.59,40.7c-.16,5.71-.39,6.27-3.42,12.67-2.15-.26-2.86-2.1-3.73-3.61q-15.13-26.2-30.19-52.46c-4.5-7.83-8.92-15.71-13.54-23.47a27.52,27.52,0,0,1-3.69-14.63q0-110.71-.21-221.45c0-15.36-.09-30.73-.08-46.1,0-2.33.3-4.67.52-8,6.51,5.5,10.66,11.82,15.61,17.37,5.21,5.83,10.19,11.88,15.29,17.82,4.89,5.7,9.82,11.38,14.52,16.82,0,1,.32,1.72.07,2.14-3.84,6.48-4.34,13.55-4.4,20.89A97.85,97.85,0,0,0,1682.08,1231.36Zm47.37,383.81c-14.29,10.11-29,19.55-45,26.83-7.16,3.26-14.42,6.38-22.23,7.33-6.55.8-13.23.59-19.86.83a69.8,69.8,0,0,1-27.46-4.54q-11-4.17-21.61-9.14c-6-2.81-11.68-6.27-17.59-9.28-13.78-7-28.19-12.79-43.47-14.74-19.06-2.44-37.86-.54-55.53,8.24-10,5-19.32,11.15-28.7,17.16a156.73,156.73,0,0,1-21.43,11.62c-9.37,4.12-18.73,8.19-28.91,10.14-9.21,1.76-18.42,3-27.8,2.72a58.8,58.8,0,0,1-20.14-4.68,205.82,205.82,0,0,1-35.16-18.42c-10.34-6.73-21.21-12.67-32-18.59a72.56,72.56,0,0,0-13.41-5.27,129.56,129.56,0,0,0-17.48-4.49,75.82,75.82,0,0,0-26.07-.19c-15.34,2.81-29.26,9-42.48,17.14-11,6.81-22.29,13.22-33.74,19.25a135.91,135.91,0,0,1-39.27,13.2c-10.82,2-21.54.15-32.11-3-17.49-5.18-33.59-13.19-49.06-22.71-7.69-4.74-15.51-9.28-23.39-13.71a75.34,75.34,0,0,0-17.57-7c-2.62-.7-5.27-1.29-7.89-2a69.23,69.23,0,0,0-36.58.52c-2.89.82-5.86,1.36-8.79,2-9.83,2.25-18.61,6.93-27.17,12-10.87,6.47-21.65,13.11-32.44,19.72-9.3,5.71-19.38,9.72-29.55,13.47-9,3.3-18.4,3.42-27.7,2.26a138.31,138.31,0,0,1-36.6-9.35c-14.88-6.22-28.29-14.75-41.78-23.28a122.05,122.05,0,0,0-25-12.58,100.42,100.42,0,0,0-28.33-5c-16.69-.83-32.2,3.5-47.47,9.44-9.59,3.73-18.42,9-27.52,13.64a173.86,173.86,0,0,1-26.54,11.42,73.63,73.63,0,0,1-23.94,4c-3.62-.07-7.24-.21-10.86-.1-11.75.38-22.54-3.09-33.07-7.9-16-7.31-30.68-16.72-45-26.78-3.19-2.24-6.32-4.54-9.82-7.06,2.86-8.13,7.94-14.91,12-22.22,4.21-7.65,8.67-15.17,13-22.74,4.21-7.31,8.22-14.75,12.72-21.88s7.63-15,13.48-21.77c2.75,2.14,5.41,4,7.87,6.14,12.12,10.46,26.47,14.18,42,13,10.48-.79,21-2.51,30.68-7,7.94-3.63,16-7.1,23.63-11.3,15.39-8.47,31.26-15.54,48.45-19.54,9.26-2.16,18.57-1.57,27.88-1.14a84.14,84.14,0,0,1,9.81,1.47,45.41,45.41,0,0,1,17,5.93c9.95,6.24,20,12.37,29.88,18.71a109.75,109.75,0,0,0,19.14,10.11,30.5,30.5,0,0,1,3.31,1.46,108.83,108.83,0,0,0,39.61,11.81c9.23,1,18.66.69,28,.32,5.41-.22,10.52-2.54,15.41-4.93a345.3,345.3,0,0,0,35.55-19.72c9.61-6.18,19.85-11.38,29.72-17.17a60.86,60.86,0,0,1,17.7-6.57c8.5-1.93,16.88-4.11,25.78-4.13a61.55,61.55,0,0,1,34.19,9.91c15.75,10.06,32,19.35,48.47,28.11,13.46,7.15,27.79,11.14,42.83,13.53,10.12,1.61,19.71.12,29.52-1.52,15.43-2.58,29.27-9,42.78-16.53q21-11.61,41.24-24.37a56.25,56.25,0,0,1,31.7-9c7.25.16,14.46.36,21.41,2.73a10.73,10.73,0,0,0,1.73.52c13.13,2,24.32,8.47,35.5,15.1,16.32,9.66,32.13,20.21,49.39,28.27a62.75,62.75,0,0,0,27,6.44A134.71,134.71,0,0,0,1406,1546a166,166,0,0,0,16.17-5.7,122.69,122.69,0,0,0,11.6-5c5.36-2.73,10.69-5.57,15.83-8.69,10.3-6.25,20.47-12.73,30.7-19.1,5.73-3.57,12-5.3,18.68-6.31a138.49,138.49,0,0,1,22.47-1.68,77.05,77.05,0,0,1,19.57,3c15.24,4.15,29.35,10.8,43.11,18.42,11.61,6.42,23.57,12.22,36.61,15.17a110.06,110.06,0,0,0,17.8,2.81c15.25.86,29.27-2.75,41.19-12.87,2.51-2.13,5.16-4.11,7.82-6.2a10.19,10.19,0,0,1,2.13,1.9q23.83,41,47.58,82.14a41.87,41.87,0,0,1,1.89,4.3C1735.72,1610.64,1732.61,1612.93,1729.45,1615.17Zm13.87,1.59c1.37.93,2.06,1.15,2.33,1.61q24.21,41.87,48.34,83.78a12.67,12.67,0,0,1,.81,2.68,8.73,8.73,0,0,1-2.4,1.15c-4.47.6-9,1.15-13.44,1.59-14.73,1.43-28,6.94-40.45,14.6-7.69,4.74-15,10.1-22.48,15.18a189.93,189.93,0,0,1-41.53,21.76c-13.85,5-28.16,5.55-42.76,3.63-13.1-1.72-24.92-6.81-36.66-12.3-5.73-2.69-11.42-5.51-16.89-8.67-12.93-7.47-26.94-12.15-41.35-15.36-9.36-2.08-19-3.28-28.69-1-2.9.69-6,.69-9,1.11-11.87,1.67-22.44,6.73-32.59,12.76-6.74,4-13.26,8.36-19.91,12.51-17.54,11-36.16,19.48-56.78,22.28-11.9,1.62-24.16,2.52-35.81-1.71-9-3.29-18-6.91-26.3-11.94-10.56-6.42-21.08-12.89-31.63-19.32-2.32-1.41-4.71-2.69-7-4.07-15.13-8.93-32-12.12-49-14.42a31.8,31.8,0,0,0-12.55.79c-8.72,2.33-17.71,3.69-26,7.6-3,1.42-6,2.85-8.85,4.48-14.13,8-28.11,16.39-42.38,24.21s-29.54,12-45.4,14.53a29.21,29.21,0,0,1-9,0,139,139,0,0,1-16.8-3.44,170.83,170.83,0,0,1-40.59-17.41c-10.63-6.3-21.14-12.81-31.95-18.78a99.29,99.29,0,0,0-16.62-6.93c-5.41-1.8-11.12-2.68-16.62-4.24a31.83,31.83,0,0,0-12.56-.8c-19.91,2.41-39,7.33-56.1,18.46-10.35,6.73-21,13-31.59,19.37-8.28,5-17.32,8.46-26.3,12a44.67,44.67,0,0,1-15.06,2.62c-13.37.39-26.57-.8-39.23-5.11A169.29,169.29,0,0,1,755,1752.28c-9.87-6.37-19.66-12.87-30.18-18.2a80.45,80.45,0,0,0-29.33-8.39c-3.89-.37-7.76-1.09-11.66-1.25a83.87,83.87,0,0,0-26.73,3.65,168.12,168.12,0,0,0-35.17,14,325.46,325.46,0,0,1-30.11,14.51c-16.16,6.85-33.11,8.54-50.49,6.15-9.06-1.25-17.48-4.29-25.74-8.12-15.94-7.4-30.58-16.89-44.81-27.07a128.25,128.25,0,0,0-25.22-14.07c-11-4.61-22.6-6.16-34.3-7.38-1.69-.17-3.34-.63-5.37-1a31.69,31.69,0,0,1,1.53-3.81q23.94-41.5,47.95-83c.26-.46,1-.68,1.55-1.07,2.9-.1,4.79,2.1,7,3.51,9.39,6,18.51,12.48,28.11,18.12,8.3,4.87,17,9.1,25.74,13.16,7.4,3.44,15.39,5.24,23.46,6.4,6.84,1,13.63,2.51,20.64,1.79,12.95-1.32,25.63-3.72,37.41-9.55,9.72-4.8,19.43-9.62,29-14.65a160.83,160.83,0,0,1,38.11-13.87c9.23-2.18,18.55-1.6,27.87-.93,3,.21,6,.83,8.92,1.3a45.13,45.13,0,0,1,17,5.82c9.73,6,19.51,12,29.14,18.2a118.73,118.73,0,0,0,20.7,11c3.08,1.21,6.06,2.68,9.05,4.11,8.24,3.92,17,5.85,25.89,7.8s17.95,1.73,27,2a50.31,50.31,0,0,0,23.56-5.36,383.92,383.92,0,0,0,35.59-19.64c11-6.81,21.89-13.91,33.71-19.29a59.72,59.72,0,0,1,8.44-3.1q7.38-2.1,14.89-3.77c17.78-3.94,34.69-2.23,50.34,7.84,16,10.28,32.46,19.68,49.25,28.57,13.21,7,27.28,10.83,42,13.21,10.11,1.64,19.72.24,29.53-1.42,15.11-2.54,28.78-8.68,42-16q21.36-11.84,42-24.82c9.62-6.07,20.1-9.44,31.66-9.19,7.25.15,14.46.3,21.43,2.64a11.81,11.81,0,0,0,1.72.54c13.42,2.07,24.88,8.67,36.32,15.47,16,9.53,31.61,19.9,48.59,27.85a64.45,64.45,0,0,0,27.84,6.57,139,139,0,0,0,35.74-4.47,148.92,148.92,0,0,0,15.3-5.44c3.92-1.53,7.83-3.17,11.59-5.07,5.37-2.71,10.71-5.52,15.85-8.64,9.79-5.94,19.46-12.08,29.12-18.22,6.75-4.29,14.1-6.48,22-7.53a149.14,149.14,0,0,1,20.68-1.47,75.48,75.48,0,0,1,19.58,2.91c15.23,4.16,29.37,10.75,43.13,18.37,11.88,6.56,24.11,12.49,37.45,15.5,7.92,1.78,16,3.42,24.15,2.74,14.13-1.18,28-3.59,41.1-9.6,17.05-7.85,32.93-17.64,48.3-28.33C1737.58,1620.45,1740.37,1618.7,1743.32,1616.76ZM435.65,1291.05a166.43,166.43,0,0,1-4.74,33,35.9,35.9,0,0,1-1.94,6,79.8,79.8,0,0,0-6.36,25.31,165.22,165.22,0,0,0,.23,27.06c1,11.75,4.36,23,9,33.93a134.7,134.7,0,0,1,9.6,34.73c1,7.7.71,15.65.25,23.44-.43,7.19-1.76,14.33-2.87,21.47-1.35,8.62-2.58,17.28-4.43,25.8-1.5,6.86-1.73,13.73-1.76,20.65,0,4.52.17,9,.21,13.57,0,4.85,1.17,9.5,2.11,14.24,2.69,13.43,8.46,25.69,13.94,39.19-15.91,28.58-32.58,56.5-48.7,84.75a37.61,37.61,0,0,1-2.94,4c-2.36.39-3.27-1-4-2.17a76.17,76.17,0,0,1-8-16.17,248.86,248.86,0,0,1-11.47-46.39,101.6,101.6,0,0,1-.32-23.45c.84-9,1.16-18,3.19-26.86,1.47-6.45,2.58-13,3.9-19.47,2-10,4.25-20,6.1-30.07a73.23,73.23,0,0,0,.13-22.51c-1.48-11.63-2.94-23.28-4.91-34.83-1.77-10.37-4-20.59-8.33-30.39a134.51,134.51,0,0,1-11.83-55.25c.07-12.93,3.43-25,7.6-37a24.69,24.69,0,0,1,4.76-7.59c12.94-15.09,26-30,39-45.1,5.12-5.92,10.08-12,15.18-17.92,1.33-1.54,2.36-3.58,4.79-3.75A23.51,23.51,0,0,1,435.65,1291.05ZM324.86,1844.5c2.49-5.44,70.73-122.8,74-127.45,4.66-2.62,9.86-2.3,14.9-1.68,11.69,1.41,23.23,3.65,33.89,9a106.83,106.83,0,0,1,10.33,5.57c7.32,4.75,14.44,9.83,21.74,14.62,14.39,9.47,29.33,18,45.79,23.26,25.43,8.14,50.47,7.13,74.74-4.53,9.49-4.56,18.85-9.39,28.21-14.23a153.76,153.76,0,0,1,36.35-13.42,35.76,35.76,0,0,1,7.12-1c6.93-.17,13.87-.33,20.79-.11,11,.36,21.43,2.9,30.84,9q14.42,9.32,29,18.38a111.61,111.61,0,0,0,10.3,5.63c13.84,6.71,27.81,13.13,43.24,15.26,7.74,1.07,15.44,2.47,23.33,2.31,9.79-.2,19.12-2,27.8-6.7,9-4.85,18.18-9.45,27.07-14.52s17.5-10.61,26.24-15.93c1.54-.94,3.13-1.8,4.67-2.75,13.41-8.19,28.47-11.44,43.66-13.68,13.26-2,25.72,1.74,37.23,8.45,6.25,3.63,12.31,7.59,18.57,11.2,11,6.31,22,12.49,33,18.67,12.52,7,26.13,11,40.16,13.11a91.14,91.14,0,0,0,30.56-1c16.86-3.22,32.11-10.08,46.76-18.61,12.49-7.28,25.08-14.4,37.36-22,16.31-10.15,33.53-12.67,52-7.48,1.45.41,2.92.77,4.39,1,11.46,2.09,21.67,7.16,31.53,13.09,12.64,7.6,25.24,15.26,38,22.66,5.73,3.31,11.75,6.14,17.72,9,10.93,5.28,22.61,6.29,34.42,5.09a158.11,158.11,0,0,0,27.52-4.89,65.1,65.1,0,0,0,8.6-2.72c8.81-3.9,17.73-7.63,26.22-12.16,7.42-4,14.31-8.9,21.46-13.37,4.59-2.88,9.27-5.64,13.83-8.58,8.61-5.56,18.22-7.88,28.25-8.38a200.26,200.26,0,0,1,23.5.11c4.74.31,9.45,1.72,14.07,3,12.56,3.47,24.25,9,35.71,15.12,8.23,4.39,16.53,8.71,25.1,12.36,17.29,7.35,35.23,9.24,54,6.54s35-10.93,50.94-20.08c9.64-5.54,18.75-12,27.94-18.33,12.88-8.84,26.82-14.88,42.41-16.79,3.88-.48,7.75-1.21,11.64-1.31,3.25-.08,6.52.6,9.39.9,3.49,3.48,5.34,7.3,7.44,10.93q26.48,45.76,52.86,91.6c4.37,7.57,8.84,15.07,13.22,22.64.74,1.28,1.24,2.69,2.82,6.22-3.9-1.74-5.8-2.43-7.56-3.39-8.45-4.62-16.85-9.33-25.28-14-8-4.41-16.72-6.66-25.61-8.41a134.67,134.67,0,0,0-35.1-1.75,94.54,94.54,0,0,0-44.17,14.58c-8.17,5.1-16,10.71-24,16.1a212,212,0,0,1-40.72,21.41,54.72,54.72,0,0,1-20.25,4c-2.71,0-5.43.07-8.14.25-15.43,1-29.9-2.78-43.76-9.15-7.94-3.65-15.84-7.43-23.45-11.72a149.63,149.63,0,0,0-45.65-16.62c-10.06-1.92-20.42-1.43-30.62-.07-14.94,2-28.29,8.09-40.84,16.16-6.59,4.24-13.1,8.62-19.84,12.6-4.92,2.9-10.1,5.41-15.29,7.81-9.57,4.41-19.25,8.52-29.73,10.49-9.2,1.73-18.42,3.07-27.8,2.67a60.25,60.25,0,0,1-20.12-4.75,206.89,206.89,0,0,1-35.14-18.46c-9.83-6.41-20.21-12-30.41-17.82a59.81,59.81,0,0,0-15.91-6.29c-5.56-1.33-11-3.38-16.63-4.17-9.23-1.29-18.53-2-27.81.41-8.18,2.08-16.5,3.69-24.07,7.6-5.61,2.9-11.09,6.06-16.59,9.18-10.73,6.1-21.36,12.39-32.19,18.33-12.52,6.87-26.1,11-40,13.79-11.12,2.22-22.13.32-33-2.9-17.49-5.18-33.57-13.24-49-22.76q-11.55-7.11-23.41-13.69a73.1,73.1,0,0,0-17.58-7c-2.92-.74-5.86-1.37-8.78-2.12a67.43,67.43,0,0,0-34.8.54,31,31,0,0,1-3.48,1c-12.18,1.8-23,7.12-33.34,13.35-10.85,6.51-21.63,13.14-32.43,19.73-9,5.53-18.84,9.43-28.71,13.14-9.26,3.47-19,3.69-28.56,2.5a137.88,137.88,0,0,1-36.58-9.4c-14.88-6.21-28.28-14.76-41.76-23.29a120.55,120.55,0,0,0-25-12.56,101.14,101.14,0,0,0-28.34-5c-16.69-.82-32.18,3.55-47.45,9.48-9.59,3.73-18.4,9-27.51,13.65a172.78,172.78,0,0,1-26.54,11.4,74.2,74.2,0,0,1-23.95,4c-3.62-.07-7.24-.23-10.85-.1-11.77.4-22.54-3.13-33.06-8-16.23-7.45-31.23-17-45.68-27.37-11.84-8.55-24.61-15.28-38.9-18.54-15.42-3.51-31-3.52-46.64-1-9.9,1.56-19.51,3.71-28.38,8.45-8.49,4.54-16.89,9.26-25.32,13.92-2,1.13-3.89,2.74-6.43,2.5C325.13,1845.54,324.69,1844.88,324.86,1844.5Zm1508.58-415.08c-2.09,6.59-4.6,13.07-7.28,19.45-3.89,9.27-5.5,19.05-7.22,28.84-.57,3.25-1.09,6.51-1.54,9.78-1.23,9-2.76,17.87-3.49,26.85-.57,7.17-.66,14.37.91,21.58,3,13.82,5.35,27.78,8.25,41.62,1.6,7.67,3.2,15.29,3.45,23.17.15,4.49,1,9,1.38,13.46.93,12.76-1.08,25.25-4.12,37.56-2.31,9.34-5,18.62-8.06,27.74-1.81,5.37-4.65,10.42-7.26,15.5-.74,1.45-2.3,2.48-3.77,4a21.71,21.71,0,0,1-2.68-3c-16.73-28.59-33.35-57.25-49.91-86.46,1.93-4.62,3.44-8.56,5.2-12.39,4.68-10.18,7.16-21.05,10-31.79a8.33,8.33,0,0,0,.33-1.78c.64-13.53,1.6-27-.82-40.54q-4.21-23.55-7.44-47.26c-2.05-15.16.09-30,4.66-44.57q3-9.48,6.68-18.72c7.08-17.71,9.13-36.17,7.89-55a91.47,91.47,0,0,0-6.13-26.29,112.89,112.89,0,0,1-6.61-32.62c-.38-5.68-1.05-11.4.39-17a11.5,11.5,0,0,1,1.1-2.19c2.39-.27,3.41,1.45,4.53,2.75q27.45,31.8,54.86,63.66a31.61,31.61,0,0,1,5.88,10.07C1841.55,1380.27,1841.21,1404.83,1833.44,1429.42ZM30.68,1320a1088.82,1088.82,0,0,1-17-113.76,36.83,36.83,0,0,0,9.65-.62c17.66-4.32,34.63-10.5,49.78-20.79,12-8.17,25-14.46,38.28-20.25,18.36-8,40.3-8.69,59.71-6.08,9.68,1.31,18.43,5.48,27.49,8.69a61.25,61.25,0,0,1,11.45,5.28c11.32,6.89,22.51,14,33.67,21.15a44.05,44.05,0,0,0,12.15,5.88c5.51,1.51,11.08,2.79,16.52,4.51,8.67,2.74,17.28,5.21,26.48,2.66a18.65,18.65,0,0,1,4.5-.24,86.15,86.15,0,0,0,24-4.05c14.16-4.35,27.7-10.17,40-18.58,2.73-1.86,5.68-3.4,8.54-5.06,3.91-2.26,7.89-4.41,11.74-6.77,8-4.88,16.24-9.27,25.36-11.69,6.38-1.69,12.55-4.31,19.27-4.66,20.38-1.08,39.39,4,57.58,12.8,4.06,2,8.17,3.83,12.19,5.89a24.67,24.67,0,0,1,3.59,2.88c-1.13,1.61-1.89,2.88-2.83,4-4.51,5.27-9.11,10.45-13.6,15.73-12.5,14.67-24.92,29.42-37.46,44q-28.82,33.64-57.76,67.17-22.68,26.4-45.33,52.83c-4.32,5-8.66,10-13,15.08q-13.2,15.45-26.39,30.92-14.37,16.83-28.79,33.62-12.94,15.1-25.93,30.16c-9,10.5-18.13,21-27.13,31.51-8.42,9.84-16.71,19.8-25.14,29.63-9.61,11.2-19.35,22.31-29,33.5q-14.75,17.12-29.4,34.32-4.52,5.3-9,10.63-22.18-41.88-40.64-85.44A1086,1086,0,0,1,30.68,1320Zm135,337.73c-.34,1.75-.71,3.56-.89,5.4q-13.16-21.79-25.29-44.2c.3-.33.6-.66.9-1,5.9-6.85,11.88-13.62,17.86-20.39,1-1.11,2.05-2.27,4.19-1.2a90.88,90.88,0,0,1,4.46,23.54C167.47,1632.45,168.1,1645.12,165.7,1657.71Zm4.52,14.26a7.48,7.48,0,0,0,2.74-2.81,8.74,8.74,0,0,0,.72-3.49c.28-2.7.35-5.42.72-8.11,2.45-18,2.65-36-1.81-53.79-1.45-5.82-2.61-11.71-4-18.11,11.75-14.91,25-28.91,37.21-43.8,5.73-7,11.85-13.65,17.82-20.43a4.94,4.94,0,0,1,1.5-1c.2-.11.51,0,1.12,0a16.08,16.08,0,0,1,0,3.4c-1.7,7.94-3.31,15.91-5.31,23.77-2.51,9.86-2.3,19.85-.7,29.64,2.78,17,7.33,33.48,14.69,49.18,5.94,12.68,9.11,26.09,8.44,40.27-.3,6.32-.11,12.64-1.91,18.81-3.19,11-6,22.09-9.51,33a161,161,0,0,0-6.19,25.39,46.51,46.51,0,0,0-.42,9.1q-15.71-21-30.37-42.71Q182.16,1691.39,170.22,1672ZM1320,2169.32a1102,1102,0,0,1-440,0,1086,1086,0,0,1-204.88-63.59q-16.64-7-33-14.65c4.53-1.52,9-3,13.43-4.62,17.05-6.19,34.36-5,51.68-1.74a40.09,40.09,0,0,1,14.17,5.73c9.89,6.35,19.83,12.62,29.9,18.66,5.67,3.4,11.61,6.35,17.51,9.35a105.53,105.53,0,0,0,9.91,4.4c5.33,2,10.65,4.22,16.15,5.73a132.51,132.51,0,0,0,37.55,4.33,51,51,0,0,0,21.86-4.86c8.4-4.07,16.71-8.36,24.81-13,10.45-6,20.57-12.54,31-18.62,9.88-5.79,20-10.81,31.47-13.22,8.3-1.75,16.45-3.31,25-3.36a56.41,56.41,0,0,1,30.82,9c13.54,8.48,27.22,16.71,41.24,24.36,9.27,5,18.5,10.21,28.73,13.11,15.1,4.29,30.27,7.74,46.21,4.78,13.41-2.49,26.41-5.95,38.55-12.33,17.08-9,33.87-18.46,50.07-28.94,15.92-10.31,33.05-12.08,51.15-8,3.23.73,6.44,1.54,9.67,2.3a59.56,59.56,0,0,1,16.84,6.32c9.86,5.79,20.11,11,29.72,17.14a343.37,343.37,0,0,0,35.53,19.75c5.17,2.51,10.54,4.9,16.29,5.11,9,.34,18.15.69,27.07-.35,13.79-1.6,27.23-5.1,39.62-11.76a30.41,30.41,0,0,1,3.3-1.47,110.44,110.44,0,0,0,19.93-10.55c9.64-6.18,19.4-12.16,29.12-18.2a44.85,44.85,0,0,1,18.69-6.25c2.39-.28,4.75-.84,7.14-1.06,9.61-.86,19.29-1.58,28.73.95,7.85,2.11,15.67,4.44,23.29,7.24q-16.55,7.66-33.31,14.78A1086,1086,0,0,1,1320,2169.32Zm249.46-83.67c-2.19-1-4.21-1.89-6.23-2.73-16-6.63-32.5-10.84-50.09-9.83a100.32,100.32,0,0,0-24,4.07c-9.86,3-18.85,7.93-27.54,13.44-13.48,8.54-26.88,17.08-41.76,23.3a138.27,138.27,0,0,1-36.58,9.4c-9.61,1.19-19.3,1-28.56-2.51-9.87-3.71-19.67-7.6-28.71-13.13-10.8-6.59-21.58-13.22-32.43-19.73-10.38-6.23-21.16-11.55-33.34-13.35a31.72,31.72,0,0,1-3.48-1,67.4,67.4,0,0,0-34.79-.53c-2.92.75-5.87,1.38-8.79,2.11a73.46,73.46,0,0,0-17.58,7q-11.83,6.58-23.4,13.68c-15.46,9.52-31.53,17.59-49,22.77-10.86,3.21-21.88,5.11-33,2.9-13.9-2.76-27.48-6.92-40-13.79-10.83-5.94-21.46-12.23-32.19-18.32-5.5-3.12-11-6.29-16.59-9.19-7.57-3.91-15.89-5.52-24.07-7.6-9.27-2.37-18.57-1.71-27.81-.41-5.62.78-11.06,2.84-16.62,4.16a59.88,59.88,0,0,0-15.92,6.29c-10.2,5.84-20.58,11.41-30.41,17.81A206.51,206.51,0,0,1,851.45,2119a60.31,60.31,0,0,1-20.12,4.75c-9.39.4-18.61-.87-27.8-2.68-15.59-3.07-29.55-10.15-43.5-17.3-1.07-.54-2-1.27-3.06-1.92-6.6-4.22-13.23-8.39-19.79-12.68-20.26-13.22-42.54-17.84-66.42-15.71a41.81,41.81,0,0,0-4.46.71,173.09,173.09,0,0,0-35.38,11.69,1092.2,1092.2,0,0,1-141.18-80.73q-40.77-27.54-79.08-58.81h.41a93.21,93.21,0,0,1,32.46,7,116.16,116.16,0,0,1,22,12.38c15.34,10.73,31.2,20.52,48.21,28.46,13.07,6.1,26.93,8.56,41,9.89,8.44.8,16.83-.9,25-2.77,13.33-3,25.51-9,37.44-15.53a239.92,239.92,0,0,1,37.92-16.86c17.2-5.81,34.39-5,51.72-1.82a39.71,39.71,0,0,1,14.21,5.65q15.23,9.75,30.68,19.14c5.14,3.11,10.5,5.89,15.86,8.61a116.83,116.83,0,0,0,10.77,4.69,165,165,0,0,0,16.13,5.79,136.8,136.8,0,0,0,35.74,4.43c9.94,0,18.92-2.47,27.82-6.64,17.25-8.09,33-18.67,49.37-28.32,10.94-6.47,21.89-12.71,34.68-14.74a10.66,10.66,0,0,0,1.73-.5c7.25-2.44,14.74-2.74,22.3-2.88a55.56,55.56,0,0,1,30.86,8.82c13.56,8.47,27.26,16.66,41.24,24.39,13.51,7.46,27.29,14,42.73,16.66,10.12,1.74,20,3.26,30.41,1.56,14.71-2.39,28.78-6.27,42-13.27,16.78-8.9,33.26-18.32,49.25-28.58,15.65-10,32.58-11.69,50.36-7.7,4.7,1,9.39,2.2,14,3.57a80.71,80.71,0,0,1,10.11,3.76c11.32,5.06,21.63,12,32.14,18.4,11.33,7,22.81,13.5,34.73,19.34,5.44,2.66,11,5.27,17.09,5.55,9,.41,18.15.73,27.08-.3,13.48-1.55,26.66-4.87,38.83-11.3a39,39,0,0,1,4.11-1.87,110.81,110.81,0,0,0,19.94-10.54c9.9-6.33,19.9-12.51,29.9-18.68,5.21-3.22,11-4.82,17-5.75,3-.46,5.93-1.13,8.92-1.32,9.32-.58,18.65-1.24,27.87,1a163.73,163.73,0,0,1,38.1,13.92c9.59,5,19.3,9.89,29,14.64,12.93,6.32,26.77,9.12,41,9.44,5.66.12,11.37-1,17-1.78,8.06-1.17,16-3,23.44-6.44,8.73-4.09,17.46-8.27,25.72-13.2,10.86-6.48,21.26-13.73,31.86-20.65a93,93,0,0,1,48.32-15.61q-38.22,31.17-79,58.77A1091.73,1091.73,0,0,1,1569.44,2085.65Zm302.37-213.84q-34.36,34.37-71.79,65.65c-11.64-.54-22.38.15-33,3-13.57,3.6-25.8,10-37.14,18.13-14.45,10.43-29.46,19.9-45.7,27.36-10.51,4.83-21.31,8.29-33.07,7.91-3.61-.12-7.23,0-10.85.1a73.7,73.7,0,0,1-24-4,174.7,174.7,0,0,1-26.53-11.41c-9.11-4.69-17.93-9.91-27.52-13.64-15.28-6-30.78-10.27-47.47-9.44a100.13,100.13,0,0,0-28.34,5,122,122,0,0,0-25,12.58c-13.49,8.53-26.91,17-41.79,23.28a138.34,138.34,0,0,1-36.59,9.35c-9.3,1.16-18.73,1-27.7-2.27-10.18-3.75-20.26-7.76-29.56-13.46-10.79-6.62-21.56-13.25-32.44-19.73-8.56-5.09-17.33-9.77-27.17-12-2.93-.67-5.9-1.22-8.79-2a69.19,69.19,0,0,0-36.57-.52c-2.63.67-5.28,1.26-7.9,2a75.7,75.7,0,0,0-17.56,7c-7.88,4.43-15.71,9-23.4,13.71-15.46,9.52-31.57,17.53-49.06,22.71-10.57,3.14-21.29,5-32.11,3a136.21,136.21,0,0,1-39.27-13.2c-11.45-6-22.73-12.45-33.74-19.26-13.22-8.19-27.14-14.33-42.48-17.13a75.82,75.82,0,0,0-26.07.19,129.56,129.56,0,0,0-17.48,4.49,72.56,72.56,0,0,0-13.41,5.27c-10.84,5.93-21.71,11.87-32,18.6a206.49,206.49,0,0,1-35.16,18.41,61.27,61.27,0,0,1-20.14,4.69,108.45,108.45,0,0,1-26.05-2.34c-16.45-3.19-31.47-10.22-46-18.32-6.83-3.81-13.28-8.32-19.86-12.57-12.54-8.08-25.81-14.27-40.75-16.41-10.22-1.46-20.58-1.94-30.63-.16a147.81,147.81,0,0,0-44.95,16c-8.47,4.6-17.07,9-25.85,13-13.33,6-27.25,9.62-42.07,8.68-3.31-.2-6.64-.06-9.94-.33s-6.56-.78-9.82-1.28c-6.63-1-12.64-3.89-18.69-6.59-15.75-7-30.26-16.25-44.24-26.29-14.38-10.33-29.74-18-47.48-20.87-8.14-1.31-16.17-1.24-24.63-1q-37.42-31.3-71.95-65.78-5.1-5.11-10.14-10.29l.88-.18a15.28,15.28,0,0,0,4.14-1.66c6-3.4,12-7,18-10.32,7.9-4.37,15.8-8.79,23.88-12.81a58.36,58.36,0,0,1,11.92-4.12,130.84,130.84,0,0,1,36.73-3.71,52.86,52.86,0,0,1,6.29.56,105.37,105.37,0,0,1,27.63,8.11A119.1,119.1,0,0,1,465.39,1848c15.62,10.85,31.71,20.85,49,28.83,13.07,6,27,8.42,41.1,9.59,8.15.68,16.23-1,24.15-2.75,13.33-3,25.56-9,37.44-15.51,13.77-7.6,27.9-14.21,43.14-18.36a79.53,79.53,0,0,1,19.58-2.92,136.61,136.61,0,0,1,21.57,1.63c7,1,13.55,2.75,19.55,6.51,10.21,6.41,20.38,12.87,30.69,19.11,5.14,3.12,10.49,5.92,15.86,8.64,3.75,1.9,7.66,3.54,11.58,5.07a145.87,145.87,0,0,0,15.31,5.43,138.92,138.92,0,0,0,35.73,4.47,64.21,64.21,0,0,0,27.83-6.58c17.52-8.23,33.54-19,50.16-28.77,10.68-6.27,21.37-12.42,33.88-14.32a14.91,14.91,0,0,0,2.6-.77c7-2.34,14.18-2.49,21.43-2.63,11.55-.24,22,3.12,31.65,9.2q20.66,13,42,24.82c13.25,7.33,26.92,13.46,42,16,9.81,1.65,19.43,3,29.54,1.41,14.71-2.39,28.79-6.23,42-13.22,16.79-8.89,33.28-18.29,49.26-28.57,15.64-10.06,32.55-11.77,50.33-7.83q7.5,1.66,14.89,3.77a60.09,60.09,0,0,1,8.44,3.11c11.82,5.38,22.72,12.47,33.71,19.29a383.83,383.83,0,0,0,35.59,19.63,50.44,50.44,0,0,0,23.56,5.37c9-.25,18,0,27-2s17.65-3.88,25.89-7.81c3-1.42,6-2.89,9-4.11a118.06,118.06,0,0,0,20.7-11c9.63-6.2,19.4-12.16,29.14-18.2a45.12,45.12,0,0,1,17-5.81c3-.47,5.93-1.09,8.92-1.3,9.32-.67,18.64-1.26,27.87.93a162.11,162.11,0,0,1,38.12,13.87q14.8,7.76,29.86,15a96.87,96.87,0,0,0,41.1,9.16c5.37.06,10.78-.94,16.12-1.78a105.49,105.49,0,0,0,28.42-8.58c16.48-7.67,31.8-17.2,46.64-27.57a122.46,122.46,0,0,1,23.59-13.24,90.94,90.94,0,0,1,29.83-6.5,122.57,122.57,0,0,1,25.21,1.63,87.21,87.21,0,0,1,25,7.29c11.7,5.63,22.79,12.34,33.93,18.91a47.69,47.69,0,0,0,10,4.51Q1877.13,1866.48,1871.81,1871.81Zm104-120.36a73,73,0,0,0-2.77-19.08c-3.47-13.09-7.38-26.08-11.57-39-4.29-13.21-4.62-26.74-3.3-40.24a78.38,78.38,0,0,1,7.85-26.76c7.62-15.58,12-32.19,14.75-49.15,1.6-9.79,1.81-19.78-.7-29.64-2-7.86-3.61-15.83-5.31-23.77a17,17,0,0,1,0-3.51c.88.23,1.61.2,1.91.54q24.93,28.62,49.77,57.31c2.15,2.48,4.07,5.16,6,7.7-.28,1.5-.42,2.69-.74,3.83-4.28,15.12-7.48,30.4-6.67,46.25.06,1.21,0,2.42,0,3.62-.46,9.41,2,18.55,2.44,27.88a3,3,0,0,0,.51,1.71,21.15,21.15,0,0,0,2.09,2.32q-12.09,19.65-25,38.76Q1991,1731.17,1975.84,1751.45Zm58.39-100c-1.16-18.1-1.18-36.14,3.78-53.81.22-.75,1-1.34,1.84-2.42a57.29,57.29,0,0,1,4.69,4.25c5.48,6.2,10.88,12.48,16.3,18.74q-12.06,22.3-25.16,44C2035.19,1658.69,2034.47,1655.1,2034.23,1651.48Zm71.5-126.62q-18.26,43.16-40.3,84.8-7.17-8.39-14.35-16.76l-30-35q-13.24-15.43-26.49-30.87c-8.81-10.31-17.56-20.66-26.37-31-8.42-9.84-16.91-19.63-25.33-29.47-9.41-11-18.76-22-28.18-33-8.64-10.05-17.36-20-26-30.08-9.6-11.2-19.11-22.49-28.71-33.69-9.42-11-18.93-21.88-28.34-32.87q-23.82-27.79-47.59-55.65c-9.21-10.75-18.51-21.43-27.74-32.17q-19.72-23-39.4-46-9.69-11.34-19.32-22.72c-1-1.14-2-2.28-1.15-4.61.81-.47,2-1.27,3.35-1.91,3-1.44,6.06-2.69,9-4.22,17.94-9.34,36.82-14.83,57.23-14.16a32.09,32.09,0,0,1,6.3.42c10,2.35,20.06,4.71,29.2,9.36a348.21,348.21,0,0,1,31.33,18c11.23,7.27,23.21,12.72,35.64,17.44,13.47,5.11,27.75,5.08,41.7,7.12a4.36,4.36,0,0,0,1.8-.1c5.19-1.48,10.76-1.16,15.81-3.49,2.13-1,4.66-1.1,7-1.7,8.49-2.18,16.64-4.92,24-10,9.44-6.45,19.41-12.12,29-18.33a69,69,0,0,1,15.38-7.53c7.69-2.6,15.34-5.34,23.16-7.51,9.39-2.62,22.11-2,31.75-2a73,73,0,0,1,26.44,5.36c14.62,5.63,28.8,12.24,41.8,21.26,15.54,10.79,33,17.3,51.29,21.78a37.77,37.77,0,0,0,8.67.7,1083.46,1083.46,0,0,1-80.62,318.54Z"/><path class="cls-1" d="M529.79,560.33a148.24,148.24,0,0,0,12.89,38.34c6.53,12.87,15.45,22.87,27.78,30s25.76,10.46,39.91,9c13.46-1.39,26.78-4,39.38-9.38,1.94-.83,3.93-1.55,5.85-2.41,12.65-5.62,25.42-11,36.89-19,11.12-7.76,22.37-15.26,32.64-24.2A235.66,235.66,0,0,0,742.91,566a95.44,95.44,0,0,0,19.66-32.18c5.77-15.52,1.83-30.85-10.48-41.8-2.46-2.19-5-4.33-7.76-6.76,5.6-5.45,12-9.39,17.69-13.46,7.52-1.08,14.24.5,21,2.34,8.41,2.32,16.9,4.38,25.31,6.7,4.63,1.28,9.45,2.33,13.71,4.44a270.57,270.57,0,0,1,25.29,14,104.51,104.51,0,0,1,18.5,14.39c10.25,10.44,17.43,23.18,22.14,36.91,3.68,10.76,5.52,22.15,8.19,33.26a34.77,34.77,0,0,0,1.16,4.32,4.78,4.78,0,0,0,9-.38c.42-1.42.39-3,.71-4.44a41.38,41.38,0,0,1,1.61-6.07c.36-1,1.42-1.65,2.53-2.85,1.59,2.15,2.81,3.81,4,5.46a79.93,79.93,0,0,0,4.91,6.45,4.75,4.75,0,0,0,5.07,1,4.26,4.26,0,0,0,3.19-4c.17-3.3,0-6.62,0-9.93,0-1.7.36-3.4.62-5.76,2.15,1.22,3.74,2,5.21,3S937,573,938.5,574a4.67,4.67,0,0,0,5.13.35,12.94,12.94,0,0,0,2.56-2.89c-.79-5.13-6-7.62-5.53-12.56,1-2.23,2.9-2.11,4.68-1.82,3,.47,5.87,1.21,8.82,1.63.76.11,1.63-.56,2.65-1,1.13-2.25,1.44-4.47-.57-7.59-2.21-1-5.19-2.41-8.14-3.83-8.8-4.26-17-9.51-22.05-18.08a115.71,115.71,0,0,1-10.53-22.94c-4.3-13.21-9.39-26-18.25-37-8.39-10.39-17.44-19.84-29.6-26.05-11.85-6.05-23.8-11.67-36.64-15.26-1-.28-2.46-.18-2.53-1.84a7.93,7.93,0,0,1,1-1.46c.89-.81,1.85-1.54,2.82-2.26a223.89,223.89,0,0,1,44.59-25.62c5.23-2.3,10.44-4.89,15.93-6.37,16.57-4.49,33.28-8.17,50.65-8.26,14.79-.07,29.48,1.3,44.21,2.11a15.23,15.23,0,0,1,2.69.34c12.6,2.93,25.24,5.71,37.79,8.9,7.28,1.85,14.31,4.78,21.63,6.45a268.65,268.65,0,0,1,26,7.59,76.33,76.33,0,0,0,17.58,4c5.09.44,10.17,1.13,15.23,1.93a128.35,128.35,0,0,0,38.69.14c5.66-.81,11.32-1.67,17-2.27a218.6,218.6,0,0,0,31.13-5.29,52.74,52.74,0,0,1,9.72-1.92c5.18-.32,10.08-1.71,15-3q4.8-1.25,9.58-2.59c9.31-2.62,18.89-3.84,28.42-5,9.26-1.12,18.73-1.77,28,0,18.5,3.56,36,9.85,51.76,20.49,8.23,5.58,16.33,11.34,24.46,17.08a7.57,7.57,0,0,1,1.44,2,6.69,6.69,0,0,1-1.17,1.6c-13.13,9.07-23.21,20.92-31.62,34.34-2.88,4.59-5.67,9.28-9,13.56-5.17,6.65-10.34,13.38-16.24,19.34-9.08,9.17-19.82,15.68-33.08,17.06-9.87,1-19.69,2.69-29.65,2.76a63,63,0,0,0-8.13.37,8.75,8.75,0,0,0-4,1.84c-2.12,1.67-1.81,5.11.6,6,3.09,1.12,6.34,1.81,9.52,2.66,2.19.57,3.9,1.59,4.19,4.15-.56,2.81-2.51,4.66-4.68,6.33-1.43,1.1-3,2-4.34,3.23-2.1,1.83-2,3.28,0,6.93,5.22,3.23,10.49-2.6,15.6,0,0,.66.13,1.09,0,1.24-1.64,1.71-3.35,3.36-5,5a5.19,5.19,0,0,0-1,6.58c1,1.79,3.07,2.54,5.53,1.82,2.88-.85,5.7-2,8.59-2.78a4.17,4.17,0,0,1,5.15,1.91,15.94,15.94,0,0,1-.93,3.78,62.24,62.24,0,0,1-3.38,5.34c-1,1.61-1.66,3.55-.67,5.12.85,1.34,2.58,2.12,3.64,2.93,3.47-1,4.93-3.41,6.49-5.56,5.57-7.66,13.53-12.79,20.11-19.38a17.63,17.63,0,0,1,3.86-2.31c2.35-1.34,4.66-2.79,7.1-3.94a97.26,97.26,0,0,1,9.95-4.17c3.41-1.17,6.94-2,10.45-2.86,7.86-2,15.59-4.28,23.84-4.83a65.92,65.92,0,0,0,23.55-5.81c4.37-2,8.68-4.21,13-6.35A91.91,91.91,0,0,0,1418,497c.8-1.17,1.25-2.85,3.61-2.51,2.69,3.26,5.53,6.76,8.44,10.2,9,10.58,17.77,21.31,27.85,30.85,7,6.63,14.44,12.77,21.51,19.31,7.76,7.18,16.36,13.29,24.82,19.55,11.7,8.66,25.1,14.38,38.32,20.2,15.73,6.93,32.28,11.69,48.74,16.56,20.5,6.07,41.18,11.44,61.3,18.83,15.85,5.82,31.62,11.77,47.05,18.61a88.69,88.69,0,0,1,15.59,9.06c8.15,5.8,15.31,12.66,22.51,19.52A116.23,116.23,0,0,1,1765,717.22c3.59,8.61,7,17.3,10.16,26.1a323.74,323.74,0,0,0,14.24,35.12c4,8.09,6.89,16.76,12.43,24,4.19,5.5,8.68,10.79,13,16.21,11.19,14.09,25.48,23.68,42.46,29.41,1.43.48,2.87.95,4.24,1.56,7.54,3.37,15.59,4.08,23.47,4.88,3.62-2.66,3-5.88,2.3-9.12l-2.52-2.78c-11.72-12.87-21-27.26-25.63-44.15-2.88-10.39-6.65-20.67-6.21-31.75.07-1.77-.55-3.56-.79-5.35-.31-2.38-.57-4.76-.83-7.15-1-8.67-1.54-17.4-2.91-26-1.47-9.2-3.63-18.29-5.59-27.41-.69-3.23-1.57-6.42-2.54-9.58-2.37-7.77-5.07-15.45-7.23-23.27a85.48,85.48,0,0,0-9.56-21.39c-7.81-13-17.74-24.3-27.7-35.59-9.61-10.89-21.36-19.49-31.66-29.63-.64-.62-1.5-1-2.21-1.58-10.12-8.18-21.3-14.71-32.79-20.74-8.53-4.48-17.11-8.87-25.52-13.58a246.74,246.74,0,0,0-39.67-17.33c-16.51-5.74-32.93-11.53-48.24-20.19-8.66-4.91-17.35-9.78-25.45-15.5-11.56-8.15-22.69-16.92-33.91-25.55a36.3,36.3,0,0,1-6.45-6.3c-7.23-9.27-14.2-18.73-20-29-4.11-7.34-7.48-15.1-12.55-21.91-.64-.86-.61-2.22-.91-3.42,3.88-3.25,7.72-6.16,11.19-9.46a148.57,148.57,0,0,0,25.95-33.47c4.08-7,8.38-14,13.07-20.59,6.3-8.91,13.81-16.85,23-22.75,13.24-8.46,27.09-15.77,42.52-19.55,4.09-1,8.25-1.72,12.32-2.8a47.22,47.22,0,0,0,6-2.54c-.27-2-.17-3.85-.81-5.36-.78-1.83-2.78-2.22-4.64-2.13-2.09.1-4.16.56-6.25.7-.71,0-1.44-.42-2.74-.83,3.08-3.28,6.66-5,9.63-7.41,2.52-2.08,3.29-4.07,2.49-6.23-.89-2.38-3.45-3.39-6.93-2.49s-6.93,2.08-10.42,3c-1.76.46-3.6.62-5.15-1.31.58-6.62,7.45-9.85,9.29-15.77-.28-2.05-1-3.62-3-4.23a5.15,5.15,0,0,0-5,1.14c-2.08,1.72-4.11,3.52-6.27,5.16-1,.72-2.14,1.18-3.5-.48.42-1.68.83-3.69,1.44-5.64,1.16-3.74,2.46-7.43,3.63-11.17a5.19,5.19,0,0,0-.09-1.78,4.84,4.84,0,0,0-5.51-3.06,36.76,36.76,0,0,0-4.13,4c-2.61,3.31-5.08,6.74-7.42,10.25a26.75,26.75,0,0,1-9.78,9.15c-16.53,8.73-33.15,17.32-50.59,24.07A290.71,290.71,0,0,0,1511,299.8c-9.87,5.35-19.2,11.33-27.18,19.26-4.06,4-7.92,8.26-11.91,12.37-1,1-1.83,2.46-3.79,1.89C1458.47,320,1449,306.4,1439,293.19c-6.52-8.65-13.44-17-20.7-25.08-14-15.54-30.9-27.75-47.72-40-5.12-3.71-10-7.82-15.48-10.94-12.56-7.16-25.28-14.08-38.16-20.64-11.81-6-24-11.29-35.88-17.16a144.83,144.83,0,0,0-23.52-9.25c-21.39-6.24-43-11.87-64.88-15.86-9.18-1.67-18.42-3.16-27.7-4.06-8.37-.81-16.81-.91-25.22-1.68a233.88,233.88,0,0,0-28-.69c-9.3.27-18.51-2.85-27.86-.39-1.63.43-3.56-.37-5.36-.42-4.8-.14-9.62-.37-14.42-.22s-9.59,1.1-14.38,1.05c-10.91-.12-21.59,1.87-32.38,2.9-4.48.43-8.91,1.45-13.39,2-7.79.88-15.4,2.7-23.1,4.07-13.34,2.38-26.66,4.68-39.44,9.4-2,.73-4,1.16-6,1.82-11.73,3.86-23.64,7.24-35.12,11.74-15.13,5.94-30.18,12.19-44.16,20.67-5.14,3.12-10.46,6-15.76,8.82a253.38,253.38,0,0,0-25.56,15.33c-5.18,3.63-10.35,7.33-15.83,10.48-7.63,4.38-14.41,9.85-21.09,15.48Q763,263.06,748.26,275.72c-1.83,1.57-3.52,3.31-5.19,5-6.27,6.5-12.27,13.23-19.22,19.08-3.65,3.07-6.57,7-9.79,10.59s-6.17,7.36-10.61,11c-1.73-2.87-3-4.93-4.2-7a194.4,194.4,0,0,0-34.36-41.78C652.24,261,638.28,251,624.49,240.76a33.67,33.67,0,0,0-3.83-2.4c-11.34-6.25-22.67-12.54-34.09-18.65a75.63,75.63,0,0,0-9.19-3.69c-.49-.18-1.16.12-1.8.2-1.9,1.17-3.14,2.7-2.46,5.73,3.66,4.71,11.61,6,13.35,13.57-.75.36-1.65,1.17-2.17,1a66.14,66.14,0,0,1-7.37-3.24c-1.87-1-3.54-2.29-5.41-3.25a5.15,5.15,0,0,0-5.19-.09c-1.66,1-2.41,2.61-1.81,5.18,3.93,5.26,12,7.38,14.54,14.47-1.58,2.1-3.47,2-5.18,1.53-4.36-1.16-8.7-2.4-12.94-3.91-2.6-.93-5.09-1.9-7.87-1.19a6.7,6.7,0,0,0-1.57.91c-1.48,1.88-1.23,3.85,0,6.17,5.39,4.14,13.12,5,18.25,10.29-2.6,3.55-2.58,3.62-3.86,3.94-2.92.74-5.87,1.35-8.78,2.11a56.05,56.05,0,0,0-6.9,2.09,4.18,4.18,0,0,0-2.92,4.16,4.34,4.34,0,0,0,2.92,4.2,30,30,0,0,0,7.91,1.45,109,109,0,0,1,21.55,2c7.07,1.47,14.18,2.75,21.24,4.25a35.41,35.41,0,0,1,6.9,2.16c11.41,5,20.77,12,25,24.44,2.25,6.55,5.34,12.8,7.76,19.29,4.48,12,11.37,22.56,19.16,32.6,1.82,2.35,3.83,4.55,5.68,6.72a14.3,14.3,0,0,1-1.1,2.86q-10.71,15.12-21.54,30.15a18,18,0,0,1-3.07,2.72c-4.93-2.65-9.53-4.88-13.89-7.52-10.57-6.38-30.48-4.58-39.8,1.78-9.09,6.19-17,13.51-23.11,22.6a202.94,202.94,0,0,0-16.4,30.12c-4.81,10.77-9.32,21.54-11.74,33.13-3.26,15.63-6.29,31.29-6.19,47.36,0,4.82,0,9.65.13,14.47A62.41,62.41,0,0,0,529.79,560.33ZM869.93,454.49a29.49,29.49,0,0,1,6.42,4.95c6.92,7.13,13.91,14.27,19.2,22.7,4.33,6.9,7,14.67,9.83,22.28,2.76,7.31,5.87,14.49,9,21.66a49.29,49.29,0,0,0,16.26,20.16c1.19.88,2.26,1.93,3.12,2.68.16.71.37,1.05.28,1.29-.86,2.21-1.76,4.4-2.67,6.64a9.57,9.57,0,0,1-2.66.7c-5.39-.23-8.53,2.23-9.43,7.57-.09.54-.59,1-1.19,2-6.85-3-6.85-3-15.3-1.42-2-2.66-2.47-5.89-3.3-9.08a97.67,97.67,0,0,0-4.55-14.6A149.48,149.48,0,0,0,881,516.69c-5.34-7.74-12.3-14-19.82-19.63-10.41-7.8-21.77-14-33.25-20-6.71-3.5-14.09-5.27-21.52-6.53-9.54-1.62-18.62-4.85-27.87-7.47-.52-.15-.93-.72-1.38-1.1,5.55-7.12,27.3-22.91,40.64-29.48C836.39,436.85,853.47,445,869.93,454.49ZM1397.6,506c-9.61,8.7-20.8,14.3-32.21,19.73-7.71,3.67-16.17,4.49-24.49,5.76-4.16.63-8.37,1-12.44,2-7.31,1.76-14.54,3.86-21.78,5.86a14.15,14.15,0,0,0-3.36,1.32c-8.83,5.07-18.55,8.81-25.4,16.87a19.53,19.53,0,0,1-2.38,2.11c-2.18.62-3.08-.75-4.3-1.56-2.23-1.47-4.59-2.74-7.32-4.35-.72-2.32-1.41-5.2-2.53-7.91s-4.07-3.3-6.73-4.21v-11.8c1.85-2.23,4.41-1.92,6.74-1.93a90.81,90.81,0,0,0,20.51-2.95c15.32-3.72,26.75-13.27,36.76-24.91,8.46-9.85,15.54-20.66,22.54-31.58a111.86,111.86,0,0,1,20.94-23.59,29.37,29.37,0,0,1,9.38-5.85,14.57,14.57,0,0,1,3,1.72,394,394,0,0,1,35,37.69c1.51,1.83,2.66,4,4.31,6.45A72.64,72.64,0,0,1,1397.6,506Zm422.11,303.78c-8.65-9.84-15.12-21-20.49-32.86-3.24-7.13-6.53-14.25-9.58-21.46-1.52-3.59-2.39-7.45-3.84-11.08-4.23-10.63-8.6-21.21-12.94-31.8a117.68,117.68,0,0,0-20.34-32.91,200.05,200.05,0,0,0-34-30.89c-6.42-4.62-13.57-7.9-20.75-11-14.66-6.3-29.42-12.37-44.53-17.6-18-6.21-36-11.82-54.45-16.49-6.41-1.63-12.62-4-18.94-6-6.89-2.19-13.8-4.3-20.68-6.52a70.17,70.17,0,0,1-9.34-3.37c-12.19-5.95-24.52-11.66-36.34-18.28-10-5.59-18.57-13.33-27.39-20.61-1.62-1.34-3-3-4.67-4.26-12.15-8.66-21.65-20-31.58-30.91-11.16-12.28-21.27-25.41-31.56-38.4-13.32-16.8-28.18-32.18-43.73-46.91a57.24,57.24,0,0,0-4.94-3.94,356,356,0,0,0-32.89-22.33,142,142,0,0,0-39.32-15.59,109.37,109.37,0,0,0-30.41-3.4c-3.9.15-7.78.63-11.67,1-5.09.52-10.22.82-15.24,1.75-7.1,1.31-14.09,3.18-21.15,4.68-5.88,1.25-11.8,2.24-17.68,3.49-5,1.06-9.92,2.52-14.94,3.44-7.1,1.3-14.25,2.41-21.4,3.32-8,1-16.15,1.76-24.22,2.64-1.79.2-3.57.7-5.36.74a137.92,137.92,0,0,1-14.38-.06c-7.49-.61-14.91-2-22.39-2.52a79.15,79.15,0,0,1-19.39-4,257.8,257.8,0,0,0-26-7.52c-7-1.53-13.94-3.8-20.84-6a236.71,236.71,0,0,0-36.88-8.61c-4.16-.61-8.34-1.1-12.53-1.42-6.89-.54-13.72-1.7-20.69-1.52-7.53.2-15.07-.16-22.6-.22a114.87,114.87,0,0,0-25,3c-3.24.7-6.47,1.46-9.74,2-12.64,2-24.34,6.62-35.58,12.61-2.65,1.41-5.5,2.45-8.24,3.7-10.75,4.89-20.59,11.31-30.29,18-10.18,7-20.21,14.19-30.54,21-7.07,4.64-13.82,9.64-20.41,14.92-4.23,3.39-8.72,6.45-13,9.72q-19.82,15-39.57,30.07c-5.26,4-10.34,8.29-15.49,12.46-2.57,2.07-5,4.34-9,4.87-9.81-6.43-19.45-13.54-28.89-21a9.91,9.91,0,0,1,1-2.73c11.47-14,22.91-27.95,34.55-41.77a167.42,167.42,0,0,1,11.92-12.36C733,415.5,744.89,404.37,756.5,393c7.32-7.19,15.16-13.77,23.06-20.31,12.28-10.16,24.57-20.34,37-30.37,9.63-7.79,20.21-14.2,30.75-20.66a438.79,438.79,0,0,1,40.47-22.07c4.89-2.33,9.83-4.62,14.91-6.49,15.81-5.85,31.6-11.83,48.16-15.34a253.09,253.09,0,0,1,55.65-5.3c15.1.19,30,2.33,44.79,5.09,17.15,3.19,34.34,6.24,51.73,8,13.16,1.35,26.28,3.15,39.42,4.71,1.79.21,3.61.22,5.42.29a359.12,359.12,0,0,0,58.63-2.49c7.75-1,15.65-.66,23.48-1,5.12-.2,10.23-.53,15.35-.65,4.19-.1,8.39.06,12.58,0,9.92-.06,19.85-.07,29.71.79,16.66,1.46,32.51,5.77,47.15,14.29,10.73,6.24,20.52,13.71,30.16,21.44a30.1,30.1,0,0,1,3.27,3.12c7.77,8.41,15.68,16.7,23.21,25.33a87.66,87.66,0,0,1,8.77,12.59c8.38,14,16.86,27.83,24.32,42.32,4.27,8.3,8.33,16.7,12.56,25,11.91,23.35,24,46.66,39.22,68.1,4.55,6.38,9.15,12.72,14,18.85a58.21,58.21,0,0,0,8.26,8.35,189.83,189.83,0,0,0,28.18,19.48c13.42,7.63,27.69,13.25,41.77,19.36a114.62,114.62,0,0,0,18.87,6.15c13.75,3.35,27.33,7.36,41.09,10.66,17,4.08,33.92,8.42,51.1,11.38,26.19,4.51,49.14,15.83,70.32,31.2,23.1,16.77,39,39.21,49.47,65.48,3.09,7.77,4.83,16.14,6.58,24.37,2.64,12.34,4.72,24.8,7.07,37.2,1.11,5.91,2.34,11.8,3.43,17.71,2.32,12.57,7.6,24.08,12.69,35.66,3.44,7.82,8.47,14.54,14,20.94,1.52,1.75,3.8,3,4.14,6.65C1835.59,827.15,1827.51,818.69,1819.71,809.82Zm-338-476a124.26,124.26,0,0,1,32.43-25.6c14.62-7.92,30.14-13.67,45.46-19.88A296.19,296.19,0,0,0,1587.23,275c6.6-3.52,13.13-7.19,19.66-10.78l8.85,8.49c.24,1.59.6,3.93,1,6.53l5.92,4.1L1621,293.52c-8.14,4-15.93,7.83-23.79,11.56-15.32,7.28-27.28,18.52-37.6,31.74A175.61,175.61,0,0,0,1545,359.58a149.33,149.33,0,0,1-22.13,29.55,66.6,66.6,0,0,1-7.54,6.45,28.46,28.46,0,0,1-4,2.22c-3.59-2.45-5.39-6-7.26-9.31a467.4,467.4,0,0,0-28.19-44.06,7.66,7.66,0,0,1-.45-1.44A33.32,33.32,0,0,1,1481.71,333.8ZM663.56,357.45a135.7,135.7,0,0,1-14.85-27.79c-2.62-6.41-5.42-12.76-7.58-19.32-3.28-10-10-16.95-18.3-22.79a57.5,57.5,0,0,0-22.32-9.26c-7.07-1.4-14.14-2.79-21.2-4.24A11.15,11.15,0,0,1,577,273c-1.36-2.5,1-3.9,1.48-5.81s1-4.06,1.68-6.76c4.1-2.94,10.18-5.33,8.28-12.44,2.25-1.89,4.34-3.17,5.75-5s2.09-4.14,3.3-6.67c1.71.65,3.11,1,4.4,1.69,8.65,4.25,17.19,8.65,24.45,15.16a86.06,86.06,0,0,0,8,5.93,221.67,221.67,0,0,1,39.65,35.32c8.09,9.31,15.48,19.2,21,30.32.8,1.61,1.38,3.31,2.27,5.5-9,12-17.07,23.89-26.79,34.82C667.15,363,665.45,360.09,663.56,357.45Zm-17.77,60.26c3-4.88,6.55-9.38,9.83-14.07,5.19-7.4,10.57-14.68,15.46-22.28a283.54,283.54,0,0,1,16.76-23.54c8.26-10.36,16.19-21,24.45-31.36a170.67,170.67,0,0,1,20.81-22.53c2.94-2.59,5.73-5.36,8.42-8.2,16-16.9,34.33-31.19,52-46.18a16.09,16.09,0,0,1,2.16-1.63c19.34-11.68,37.57-25.14,57.54-35.83,17-9.11,34.18-18,52.35-24.53,19.82-7.13,39.69-14.27,60.37-18.64,12.35-2.6,24.81-4.74,37.28-6.73,11.86-1.89,23.78-3.48,35.72-4.87,5.37-.63,10.84-.38,16.25-.68,3.6-.2,7.18-.68,10.77-1,1.79-.16,3.6-.37,5.4-.37,14.47,0,29-.62,43.38.43,12.3.89,24.71.29,36.93,2.44a32.49,32.49,0,0,0,5.41.31c15.46.14,30.57,3.08,45.53,6.43,17.91,4,35.85,8.08,53.32,13.81a180,180,0,0,1,17.66,6.84c11,4.94,21.75,10.42,32.79,15.24a218.13,218.13,0,0,1,20.06,10.33c6.82,3.86,13.75,7.52,20.57,11.37a101.07,101.07,0,0,1,10,6.16c9.23,6.76,18.44,13.57,27.45,20.64a240,240,0,0,1,41.57,41.3c12.23,15.7,23.65,32,34.78,48.43,2.2,3.24,4.55,6.38,6.91,9.51A402.13,402.13,0,0,1,1496,392.59c3.69,6.56,7.6,13,11.77,19.27,5,7.55,9.3,15.5,13.67,23.41a194.41,194.41,0,0,0,21.2,30.35,76.93,76.93,0,0,0,8.92,8.95A372.73,372.73,0,0,0,1601,511c2.31,1.41,4.77,2.59,7.15,3.89,5.29,2.87,10.56,5.79,15.88,8.61a64.73,64.73,0,0,0,8.16,3.88c10.18,3.71,20.52,7,30.63,10.91,12.63,4.87,25.18,9.88,37.17,16.36,11.12,6,22.17,12.16,33.35,18a132.94,132.94,0,0,1,28.74,20.22c8,7.37,16.35,14.23,23.78,22.18,10.92,11.68,21.47,23.63,29.75,37.38a67.28,67.28,0,0,1,7.92,18.12c1.85,7.28,4.52,14.36,6.82,21.53a66.63,66.63,0,0,1,3.27,14,47.89,47.89,0,0,0,2.05,8.77,86.71,86.71,0,0,1,3.44,17.67c.8,9.57,2.08,19.11,3.15,28.66a29.85,29.85,0,0,1,.4,4.5c-.45,10.78,3.45,20.74,5.93,30.93a95.4,95.4,0,0,0,8.92,23.63c1.32,2.37,2.79,4.65,4.11,7,.84,1.53,1.53,3.13,2.76,5.68-1.71-.54-2.6-.56-3.05-1-9.71-9.53-18.61-19.58-24.43-32.18a191.72,191.72,0,0,1-14.42-47.39c-2.46-13.91-4.94-27.83-7.74-41.68-5.56-27.51-18-51.56-36.71-72.49A162,162,0,0,0,1729.6,601c-13.72-6.9-27.76-13.48-43.06-15.94-14.9-2.39-29.48-6.06-44.14-9.44-14.07-3.25-28-7-42-10.5-4.67-1.17-9.45-2-14-3.47-7.71-2.55-15.32-5.44-22.89-8.4-5.33-2.07-10.54-4.45-15.78-6.75-18.67-8.22-35.62-19.06-49.42-34.2a204.75,204.75,0,0,1-24.46-33.55q-11.3-19-22.25-38.28c-2.81-5-5.22-10.17-7.57-15.38a376.94,376.94,0,0,0-21.42-40.79c-3.13-5.15-6.27-10.3-9.17-15.58-7.43-13.57-16.86-25.65-27.27-37a201.18,201.18,0,0,0-40.56-34.41,99.29,99.29,0,0,0-21-10.32c-3.14-1.07-6.3-2.08-9.39-3.28-8.52-3.32-17.57-4.09-26.48-5.29-12.25-1.66-24.62-1.65-37-1.51-4.51.05-9-.19-13.49,1-2,.51-4.19.23-6.3.27-7.53.14-15.07.22-22.61.41-4.5.12-9-.1-13.44,1.34a10,10,0,0,1-2.69.29c-10.52.53-21.07,1.73-31.56,1.37s-21-.69-31.44-2.46a39.59,39.59,0,0,0-4.48-.49c-13.84-.75-27.47-3.19-41.17-5.06-14-1.93-27.87-4.77-41.8-7.14-8.58-1.45-17.35-1.77-26-2.62-3-.29-6-.72-9-.9a79.5,79.5,0,0,0-9-.13c-4.2.24-8.37.88-12.57,1.17-19.57,1.32-38.9,3.84-57.5,10.53-9.63,3.47-19.38,6.62-29,10.12-4.53,1.64-8.94,3.62-13.29,5.69a436.93,436.93,0,0,0-95.5,61.51c-8.26,7-17,13.48-25.27,20.44-6,5-11.81,10.31-17.46,15.73-13,12.54-26.2,25-38.8,37.93a429.29,429.29,0,0,0-36.17,42.76c-2.32,3.11-4.49,6.4-7.82,8.48-11-6.11-31.26-21.49-36.94-28.08A28.86,28.86,0,0,1,630,445.1C635.19,435.94,640.32,426.72,645.79,417.71ZM537.92,530.43c.81-10.47,2.63-20.87,4.18-31.27a117.42,117.42,0,0,1,2.76-13.24c1.49-5.51,2.85-11.14,5.16-16.32,5.87-13.2,11.82-26.39,19.86-38.49A67.87,67.87,0,0,1,591,410.41c8.73-5.36,22-5.76,31.23-1.27,3,1.44,6,2.87,8.85,4.52a35.15,35.15,0,0,1,4.33,3.51c-4.49,11.81-12.84,21.3-17.35,32.51.19,3.62,2.21,5.74,4.71,7.59,7.25,5.39,14.45,10.85,21.73,16.21q25.11,18.47,50.28,36.88c2.65,1.95,5.11,4.25,8.57,4.75,3.53-.4,5.92-2.69,8.5-4.8,6.77-5.51,13.66-10.88,20.55-16.24a21.19,21.19,0,0,1,3.6-1.77,36.5,36.5,0,0,1,16.39,15.91c3.68,7.17,3.51,14.49.86,21.89a89,89,0,0,1-21.34,33.14,267.37,267.37,0,0,1-54.2,41.92c-18.23,10.68-37.73,19-58.92,21.89-10.71,1.47-21.62,2-32.27-1.22a52.07,52.07,0,0,1-20.17-11.56c-10.66-9.65-16.78-21.92-21.49-35A116.89,116.89,0,0,1,537.92,530.43Z"/><path class="cls-1" d="M568.63,534c6.14,2.48,14.91.45,18.91-4.85,3.56-4.7,5.7-9.92,3.26-16A16.18,16.18,0,0,0,572.69,503c-7.66,1.43-13.43,8.73-13.34,16.89C559.42,526.53,562.76,531.62,568.63,534Zm2.22-20a22.58,22.58,0,0,1,4.34-2.08,11.37,11.37,0,0,1,2.27.5c5.38,2.85,6.12,7.34,1.9,11.41-3,2.87-6.82,2.73-9.41-.34A6.41,6.41,0,0,1,570.85,514Z"/><path class="cls-1" d="M657.56,592.91a16.64,16.64,0,0,0,16.16-17.06c-.15-8.84-6.87-15.41-15.58-15.22-9.38.2-17.28,8.39-16.91,17.55C641.54,586,649,593.42,657.56,592.91Zm.47-23.22c4.17,1.07,6.77,3.16,6.3,7.6a7.63,7.63,0,0,1-6.47,6.51,7.71,7.71,0,0,1-3.46-.58c-1.64-.63-1.8-1-4.23-5.53C650.58,572.75,653.64,570.47,658,569.69Z"/></svg>