<svg id="Warstwa_1" data-name="Warstwa 1" xmlns="http://www.w3.org/2000/svg" viewBox="0 0 2200 2200"><defs><style>.cls-1{fill:#d6d9c7;}</style></defs><path class="cls-1" d="M1751.2,1734.06c-7.63-13-15.42-26-22.86-39.1-7-12.38-15.06-24.06-23.17-35.71-1.75-2.52-3.53-5-7.14-5.22-3.32.52-5.73,2.94-8.31,5q-23.54,18.43-47,37c-1.85,1.45-3.87,2.69-6.47,4.47-.67-6.71-1.48-12.66-1.83-18.65a140,140,0,0,0-8.45-39.69c-3.83-10.54-9.49-20.21-14.18-30.33-9.32-20.1-23.49-36.46-39-51.81-5.8-5.73-12.07-11-17.85-16.71-8.14-8.08-16.82-15.63-24.1-24.55-1.71-2.09-3.92-3.77-5.76-5.76-5.92-6.44-11.84-12.89-17.65-19.43-3.21-3.61-6-7.55-9.32-11.07-7.81-8.4-15.63-16.76-24.73-23.88-4.52-3.54-8.72-7.5-13.82-10.17-16.57-8.68-33-17.73-51.31-22.39-3.21-.82-6.33-2-9.51-3-12.59-3.79-23.88-10.34-34.61-17.58a134,134,0,0,1-26.06-23.75c-3-3.43-5.91-6.87-9-10.19a95.61,95.61,0,0,1-12.15-16.86c-8.68-14.72-14.16-30.63-18.26-47.1q-2.51-10.1-5.43-20.07c-.38-1.29-1.63-2.33-2.26-3.2-3.13-.17-4.79,1.13-4.94,3.51a28.26,28.26,0,0,0,.55,8.06c5,21.49,7.59,43.34,9.89,65.23,1.49,14.11,3.45,28.12,6.92,41.92,1.68,6.7,3.79,13.3,4.87,20.21,1,6.19,3.25,12.24,5.49,18.15,4.61,12.19,11.11,23.45,18.3,34.28,8.39,12.62,17.54,24.59,29.59,34,3.32,2.61,6.46,5.45,9.66,8.21,7.57,6.52,14.82,13.32,20.41,21.71a134.19,134.19,0,0,1,13.69,25.51c6.35,16.3,12.49,32.69,18.58,49.1s13.87,32.12,25.57,45.53c8.16,9.36,16.68,18.32,26.58,25.87a16.85,16.85,0,0,0,3.11,1.81,4,4,0,0,0,4.79-1.48,3.32,3.32,0,0,0-.2-4.2c-2.63-2.91-5.4-5.69-8.23-8.4-18.11-17.35-33.09-36.78-41.39-60.83-4.33-12.56-8.93-25-13.59-37.45-5-13.31-10.66-26.31-18.49-38.24-5.65-8.62-12-16.62-20.16-23.12-5.89-4.71-11.58-9.7-17.13-14.81a125.7,125.7,0,0,1-12-12.3,200.15,200.15,0,0,1-21.66-32.29c-4.7-8.71-9.27-17.64-11.3-27.56a166.27,166.27,0,0,0-4.09-16.68c-4.69-15-7-30.55-9.46-46-.31-2,0-4.08,0-7.25,3.08,4.77,5.25,8.77,8,12.28,4.88,6.14,10.1,12,15.25,17.93,11.16,12.84,23.71,24,38.52,32.61a161.23,161.23,0,0,0,33,14.73c7.2,2.27,14.29,4.85,21.41,7.34,10,3.51,19.11,9,28.63,13.53a56.49,56.49,0,0,1,10,6.24c12,9.26,23.15,19.56,32.38,31.55,13.68,17.79,29.82,33.25,45.25,49.39,8.53,8.92,18,16.93,27,25.4a197.53,197.53,0,0,1,24.09,27,150.37,150.37,0,0,1,10.08,16.11c3.66,6.59,6.91,13.42,10.28,20.17a139.19,139.19,0,0,1,15,58.29c.09,2.7.49,5.4.8,8.1.64,5.71.89,11.37-.38,17.1-1.16,5.29-1.61,10.74-2.67,16.06-1.35,6.75-1.39,13.79-4.11,20.64-2.69,1.13-5.37,2.52-8.22,3.4a14.66,14.66,0,0,0-8,5.57c-1,1.45-2.11,2.87-2.88,3.9-13.25,4.17-13.43,4.36-19.07,19-4.47,1.06-9.08,2.46-12.82,5.74s-4.52,8.41-7,12.56c-1.35.2-2.52.42-3.7.54a14.28,14.28,0,0,0-11.12,7c-2.85,4.56-5.09,9.5-7.5,14.1.48,2.15.61,4,1.33,5.64,1.47,3.29,3.26,6.44,5.14,10.1.05,10.14,1.88,20.07,11.76,26.65.36,2.75.76,5.41,1,8.08.83,7.7,4.88,12.79,12.23,15.21,1.68.55,3.41.93,4.92,1.33.78,1.83,1.42,3.19,2,4.59,2.2,5.71,6.43,9.32,11.86,11.84a48.45,48.45,0,0,0,14.77,4.07c2,.24,4.1.57,6.24.87,4.37,9.67,11.9,14.43,21.75,15a94.59,94.59,0,0,0,6.35,7,12.22,12.22,0,0,0,17.15-.73,58.21,58.21,0,0,0,4.28-6c6.88-2.32,13.26-5.55,18-11.4a9.93,9.93,0,0,1,3.65-2.42,79,79,0,0,1,8.35-3.34c8.11-2.64,13.73-7.4,14.45-15.26,2.69-4.56,5.06-8.06,6.88-11.82,2-4.06,3.18-8.47,5.12-12.53s1.44-8.25,2.34-12.79c4.78-1.63,7.64-5.6,10.79-9.24,4.35-5,8.54-10.18,12.9-15.19,3.08-3.53,5.09-7.33,5.2-12.19.07-3,1-5.94,1.45-8.92,2.68-17.59,5-35.25,8.14-52.75,1.43-7.93.6-14.92-3.57-21.65C1752.29,1736.22,1751.81,1735.1,1751.2,1734.06Zm-12.53-1.82a19.24,19.24,0,0,1-2.62,1.76,17.6,17.6,0,0,1-2.82.66,52,52,0,0,1-8.13-11c-.64-5.7-1.3-11.63-2-17.55C1729.32,1714.37,1733.78,1723.36,1738.67,1732.24Zm-39.48-65.84a37.51,37.51,0,0,1,7.09,11.53c-4.62,1.11-8.72.71-12.88.38C1694,1672.61,1694.57,1671.5,1699.19,1666.4ZM1695.4,1688c2.7,0,5.41,0,8.12.08s5.46-.11,7.82,2.2c3.17,9,1.81,18.78,3.62,29.38-12.42-.54-23.76-1-35.09-1.59a44.28,44.28,0,0,1-7-1.46c3.19-8.33,10.59-22.65,14.82-28.61ZM1641,1709.54q17.31-13.63,34.7-27.16a10,10,0,0,1,2.24-1c1.23,1.42,0,2.39-.45,3.28-3.34,6.72-6.82,13.36-10.2,20s-6.63,13.3-10.38,20.84c-5.92-5-11.7-9.18-16.78-14C1640.52,1710.55,1640.58,1709.84,1641,1709.54Zm-5.73,10.46c3.24,2.55,5.38,4.11,7.38,5.84,3.64,3.14,7.19,6.38,11,9.79-2.39,14.14-4.6,28.09-7.15,42-2.5,13.63-4.21,27.4-7.15,40.15a6.67,6.67,0,0,1-6.25,2.72c-2.49-.09-2.49-.15-7.71-3.4,0-3,.23-6.3-.24-9.51s-1.72-6.31-3-10.88C1626.64,1772.71,1629.79,1747,1635.24,1720Zm42.09,162.37a17.85,17.85,0,0,1-1.78,3.06,13.82,13.82,0,0,0-3.41,10.9,22.42,22.42,0,0,1,0,2.72c-.33,8.58-4.41,14.18-12.52,16.92-2.83,1-5.77,1.58-8.8,2.39-.83,1.86-1.46,3.53-2.31,5.06a39.4,39.4,0,0,1-2.8,3.86c-1.73-2.11-3.08-3.66-4.3-5.3s-2.35-3.4-3.29-4.77c-15.16-2.49-13.68-.57-20.78-14.44-3.33-2.56-7.32-2.51-11.22-2.39-4.67.14-8.89-1.18-13.14-2.87a13.32,13.32,0,0,1-8.23-9c-.62-2-.82-4.14-1.43-6.15a17.51,17.51,0,0,0-1.78-3.26c-1.35.07-2.5.11-3.66.18-5.7.32-8.59-1.59-10-6.86a21,21,0,0,1-.62-5.36c0-5.64-1.79-10.07-7.38-12.31a5.43,5.43,0,0,1-1.3-1.13c-2.36-3.1-2.89-6.78-2.91-10.36a25.64,25.64,0,0,0-4.52-14.41,38.51,38.51,0,0,1-2.13-4.31c1.77-4.34,2.93-9,6.82-12.89l12.39-2.56c3-2,3.24-4.9,3.83-7.5,1.19-5.15,4.47-7.64,9.56-8.07.9-.08,1.82,0,2.71-.17,5.43-.71,7.11-2.51,7.69-8.2a22.41,22.41,0,0,0,.1-2.72c0-4.15,1.86-6.85,6.24-7.44,6.31-.84,10-5.13,12.87-10.29l5.21-1.21c.39.94.88,1.52.8,2-1.27,8.3-2.6,16.59-4,25.13a57.35,57.35,0,0,0-5.68-.8,4.55,4.55,0,0,0-4.11,3,4.12,4.12,0,0,0,1.67,4.77c4,2.29,7.63,4.85,10.3,9.63,0,2.34,0,5.34,0,8.34-.1,6.22,3,10.31,8.59,12.49a27.42,27.42,0,0,0,7,1.65c2.68.28,5.42.06,8.53.06l6.28,3.86c7.37,12.44,7.7,12.66,21.42,14.71,2,2.87,2.33,6.54,3.42,9.93a16.55,16.55,0,0,0,6.58,8.32Zm30.09-16.48c-2,4.67-4.11,9.33-6.3,13.92a18.23,18.23,0,0,1-2.94,4.49,16.71,16.71,0,0,0-4.77,11.19c-2.92,3.28-6,5.27-10.92,4.54-.37-1.89-.75-3.82-1.11-5.67.82-1.27,1.39-2.32,2.12-3.25a14.7,14.7,0,0,0,3-10.12c-.16-3.57,0-7.15,0-11.07,3.8-1.69,7.28-3.33,10.83-4.78,3.29-1.34,6.67-2.47,11.52-4.24A46,46,0,0,1,1707.42,1865.89Zm2.24-28.35c-7.16,7.46-15.34,14.54-23.57,22.11l-5-1.89c-2.08-2.63-2.8-5.51-3.36-8.5-1.22-6.53-4.15-9.54-10.3-10.77a15.4,15.4,0,0,0-2.71-.22,8.28,8.28,0,0,1-7.9-5,31.47,31.47,0,0,0-3.15-5.47,47.75,47.75,0,0,0-5-4.68c.65-4.53,1.25-9.27,2-14,2.68-16,5.48-32.08,8.13-48.13,1-6.25,1.78-12.54,2.71-18.8.8-5.38,1.72-10.72,6-15.38l49,3.08c3.54,3.13,5.5,6.87,7.59,10.1C1719.33,1772.51,1714.54,1804.69,1709.66,1837.54Zm38.27-81.18q-2.88,16.91-5.73,33.81c-1.65,9.79-3.36,19.57-4.84,29.38a14.53,14.53,0,0,1-3,7.4c-4.78,5.81-9.5,11.67-14.31,17.46a7.47,7.47,0,0,1-6,3.11c.43-3.42,3.67-5.26,5.44-9.77,4.26-29.91,8.75-61.43,13.22-92.77,4-2.7,8.22-2.41,12-2.89C1748.43,1746.8,1748.77,1751.45,1747.93,1756.36Z"/><path class="cls-1" d="M723.3,1474.94c7-6.73,14.15-13.32,22.56-18.1a249.08,249.08,0,0,1,26.81-13.14,281.24,281.24,0,0,1,27.3-9.61A151,151,0,0,0,842,1413.27,142.58,142.58,0,0,0,868.84,1389c2.37-2.75,4.71-5.52,7.22-8.13a103.94,103.94,0,0,0,14.64-19.52c.73-1.27,1.58-2.46,3.17-4.92a47.14,47.14,0,0,1,0,5.9c-1.52,9.53-2.86,19.09-4.79,28.53-1.68,8.27-4.4,16.33-6.06,24.6a133.94,133.94,0,0,1-19.34,47.47c-1.66,2.52-3.06,5.21-4.75,7.7-7.5,11-15.39,21.64-25.82,30.17-6.55,5.35-12.86,11-19.18,16.61a61.49,61.49,0,0,0-7,7.11A148.81,148.81,0,0,0,787,1556.79c-7.65,16.79-13.32,34.32-19.72,51.57-3.79,10.21-7.74,20.33-13.48,29.63-8.14,13.2-18.4,24.65-29.47,35.44-3,2.93-5.79,6.09-8.61,9.22-.34.37-.22,1.14-.41,2.33l3.6,3.16a23.18,23.18,0,0,0,4.34-2.07,174.17,174.17,0,0,0,37.56-40.2c6.66-9.85,11-20.77,15.23-31.79,6.21-16.36,12.07-32.86,18.65-49.07,6.89-17,16.42-32.3,30.69-44.23,1.85-1.55,3.73-3.07,5.57-4.64,9.63-8.25,19.19-16.47,27-26.63a235.57,235.57,0,0,0,19.87-30.25c4.78-8.65,9.33-17.6,11.45-27.49,1.39-6.47,2.89-12.94,4.8-19.27,6.13-20.34,8.42-41.33,10.8-62.3.92-8.09,1.52-16.24,2.81-24.27,1.64-10.11,3.91-20.12,5.75-30.2a38.92,38.92,0,0,0,.5-8.07c-.07-2.33-1.62-3.07-6.11-3-1.63,4.79-3.64,9.71-4.74,15-4.12,19.92-10.38,39.09-21.06,56.56a119.26,119.26,0,0,1-8.86,12.55c-4,4.93-8.34,9.56-12.55,14.31-7.65,8.62-16,16.58-25.6,22.9-12.34,8.16-25.42,15.13-39.94,18.92a132.52,132.52,0,0,0-24.74,8.67c-6.24,3-12.4,6.25-18.79,8.93-12.76,5.35-23.37,13.83-33.32,23.08a200.75,200.75,0,0,0-24,25.87,186.07,186.07,0,0,1-20.75,22.73,116.62,116.62,0,0,0-8.71,9.21c-7.44,8.79-16,16.47-24.52,24.11a331.8,331.8,0,0,0-34.45,35.9,94.67,94.67,0,0,0-10.36,14.84c-7.59,14.07-15.44,28-21.13,43.06a135.21,135.21,0,0,0-8.71,40.54,182.81,182.81,0,0,1-2.11,18.48c-2.21-1.55-4-2.67-5.63-4q-23.52-18.45-47-36.93c-2.82-2.21-5.4-4.89-8.93-5.49a8,8,0,0,0-6.13,3.87c-5.8,8.47-11.92,16.75-17.25,25.52-10.34,17-20.25,34.33-30.28,51.56-1.51,2.6-2.57,5.47-4,8.12a15.19,15.19,0,0,0-1.56,9.65c.8,5.68,1.45,11.38,2.33,17,2.73,17.59,5.6,35.15,8.26,52.74.47,3.1,1.29,5.87,3.39,8.19,8.47,9.35,15.18,20.29,25.78,27.67a25.41,25.41,0,0,0,3.58,14.93,13.53,13.53,0,0,1,1.74,4.16c1.24,6.12,4.38,11.19,8.52,15.79.21,8.1,5.38,12.42,12,15.53,1.34.64,3,.61,4.34,1.22,3.27,1.46,6.45,3.12,9.67,4.7,4.74,6.29,11.36,9.75,18.57,12,.92,1.44,1.65,2.77,2.56,4,5.58,7.35,13.85,7.93,20.14,1.37,1.67-1.73,3.15-3.64,4.94-5.73,10.58-.25,17.65-6.23,22.36-15.17,3.1-.39,5.79-.75,8.48-1.07a40.67,40.67,0,0,0,12.88-4.11c4.81-2.3,8.52-5.64,10.6-10.66.79-1.91,1.79-3.74,2.64-5.49,1.49-.36,2.67-.6,3.83-.92,7.92-2.18,12.12-7.46,13-15.54.29-2.67.72-5.33,1.09-8,10-6.6,11.6-16.62,11.74-26.13,2.18-4.77,4-8.55,5.65-12.42a8,8,0,0,0-.57-7c-1.52-2.94-3-5.86-4.7-8.73-2.83-4.94-6.71-8.51-12.68-9.16-1.18-.12-2.35-.37-3.33-.53-7.21-14.14-5.59-13.4-20.58-18.8-1.91-4.17-2.29-9.11-5.93-12.83s-8.84-3.65-13.33-6.17c-2.56-5.22-6.92-8.5-12.93-9.9-2.22-.52-4.18-2.18-6.35-3.37-1.74-10.38-3.27-20.51-5.17-30.58-1.7-9-2.34-17.92-.47-27a28.38,28.38,0,0,0,.17-4.53A133.11,133.11,0,0,1,583.8,1645c5.72-14.67,13.29-28.43,20.82-42.21.28-.53.66-1,1-1.51,8-12.21,17.83-22.78,28.11-33,6.21-6.19,13.15-11.6,19.35-17.72,13.76-13.56,27-27.69,40.34-41.63a80.17,80.17,0,0,0,5.84-6.91A244.33,244.33,0,0,1,723.3,1474.94ZM521.82,1681.4a9.26,9.26,0,0,1,2.3.84c12.68,9.09,31.66,24.35,35.89,28.85-4.73,5.45-10.93,9.19-16.09,13.84-2.15-.16-2.47-1.64-3-3-1-2.49-1.88-5-3.09-7.41-4.75-9.36-9.63-18.66-14.4-28C522.65,1685,521.48,1683.59,521.82,1681.4Zm-21.37-15.6c4.13,3.43,5.07,7.5,7.57,12.38-3.33.19-5.39.39-7.44.39s-4.12-.17-6.66-.3C494.88,1673.19,498.42,1670.29,500.45,1665.8Zm-13.34,31.49a67.55,67.55,0,0,1,1.28-6.78c5.48-2.77,10.49-3.19,24.54-2.14,5.27,8.68,9.66,18.18,14.64,28a23.94,23.94,0,0,1-4.52,1.29c-12.24.8-24.48,1.49-37.76,2.28C485.94,1711.62,486.45,1704.45,487.11,1697.29Zm-11.41,8.37c1.72,1.74,1,3.51.84,5-.4,4.18-1.1,8.33-1.76,13.13a45,45,0,0,1-8.39,11.18l-5.17-2.42C466.14,1723.4,470.84,1714.69,475.7,1705.66Zm4.23,138.74c-4.81-5.8-9.55-11.64-14.31-17.47a13.36,13.36,0,0,1-2.87-6.5q-5.26-32.07-10.7-64.09c-.83-4.94-.32-9.53,2.7-13.82a22.75,22.75,0,0,1,12.46,2.08c4.52,31.74,9,63.26,13.27,93.09,1.76,4.59,5,6.41,5.42,9.85A7.58,7.58,0,0,1,479.93,1844.4ZM518.18,1899c-.92.58-1.38,1.09-1.89,1.16-3.63.53-6.33-1.3-9.2-4-.87-4.62-2.41-9.43-6.28-13.12a10,10,0,0,1-1.88-3c-2.26-4.9-4.5-9.81-6.62-14.76-.42-1-.28-2.15-.48-3.92,7.66,2.06,14,5.28,21.44,8.29a71,71,0,0,1,.31,7.58c-.42,6.19-.08,12.09,4.9,16.21C518.35,1895.78,518.26,1897.52,518.18,1899Zm1.2-41.45-5.36,2.06c-8-6.8-15.56-14.08-23.61-21.77-4.78-32.08-9.62-64.55-14.61-98l6.91-9.88,49.59-3.17a18.35,18.35,0,0,1,5.17,10.48c.91,5.65,1.89,11.3,2.81,17q3.35,20.52,6.65,41c1.48,9.2,3,18.39,4.49,27.88a24.89,24.89,0,0,0-8.49,10.44,7.3,7.3,0,0,1-7.14,4.65,15.6,15.6,0,0,0-8.59,2.41c-2.63,1.74-4.65,3.88-4.8,7.23A21.69,21.69,0,0,1,519.38,1857.51Zm65-41c0-3,0-6,0-9.16a20.88,20.88,0,0,1,8-8.31,19.16,19.16,0,0,0,3-2,3.36,3.36,0,0,0,.93-4.11c-.67-1.19-2-2.59-3.17-2.81-1.94-.35-4,.2-6.56.41-1.34-8.42-2.67-16.71-3.94-25-.07-.49.42-1.07.81-2l4.79,1.11a15.51,15.51,0,0,1,1.9,2.34,14.75,14.75,0,0,0,11.4,8c4.33.72,6.26,3.29,6.22,7.48,0,.6,0,1.21.06,1.81.65,7,2,8.34,8.65,9.16a28.59,28.59,0,0,1,4.47.55,9,9,0,0,1,6.38,5.89c1,2.82.91,6,3.52,8.77,3.61,2.11,8.49,1.15,13.5,3.43,3.55,2.44,4.2,7.51,6.26,11.44a6.63,6.63,0,0,1-.29,2.11c-3.74,6.28-6.22,12.9-6.46,20.36-.08,2.6-1.32,5.17-2,7.85-7.23,2.66-9.66,8-9.24,15.07a11.42,11.42,0,0,1-.54,3.55c-1.43,5.24-4.28,7.16-10,6.83-.89,0-1.77-.13-2.66-.13-.28,0-.55.22-1.41.59a26.6,26.6,0,0,0-1.57,3.53c-.63,2-.88,4.12-1.55,6.11a12.33,12.33,0,0,1-7.09,7.74c-4.49,1.93-9,3.43-14,3.26-3.9-.13-7.9-.17-11.68,2.75-.54,1.22-1.37,2.81-2,4.49-1.94,5.47-5.91,8.12-11.55,8.6-2.09.17-4.17.42-5.46.55-4.73,2.36-4.38,8.13-8.87,9.69-3.88-.85-2.41-5.24-4.23-6.68-2.63-2.34-5.34-2.74-8-3.39-9.19-2.26-14.93-9-14.19-18.26a18.37,18.37,0,0,0-5.15-14.89v-15.56c2-2.75,4.5-5.44,6.06-8.59s2.2-6.83,3.34-10.6a20.83,20.83,0,0,1,4.36-.82c6.89.21,11.31-3.45,14.62-9,.77-1.29,1.39-2.67,2.25-4.33l6.68-4.55c3.43,0,6.14,0,8.85,0a18,18,0,0,0,8.64-2.41C581.81,1825.05,584.43,1821.58,584.43,1816.51Zm-6.32-18.5c-4.27,5.42-3.16,12.25-3.39,18.87-3.91,4.06-8.24,4.54-13.32,2.28a31.18,31.18,0,0,1-1.42-4.33c-4.54-26.12-9-52.26-13.49-78.19a62.67,62.67,0,0,1,18.06-15.53c2.72,8.4,3.67,17,5,25.57,1.28,8.35,2.67,16.67,4.06,25C575,1780.31,576.54,1788.92,578.11,1798Z"/><path class="cls-1" d="M453.48,1561c17-9.16,33.78-18.75,51.36-26.82a316,316,0,0,0,37.46-20.13c9.17-5.82,18.23-11.88,27.7-17.18a136,136,0,0,0,26.11-19.44c11.91-11.1,23.11-23,34.23-34.93,7.82-8.4,15.46-17,24.43-24.15a253.82,253.82,0,0,1,31.35-21.5c5.48-3.17,10.72-6.75,16.12-10.08,2.83-1.74,5.69-3.43,8.64-4.94,7.53-3.83,15.16-7.49,22.68-11.36a52.89,52.89,0,0,0,6.84-4.38,128.5,128.5,0,0,0,17.07-14.74c7.35-7.58,15.45-14.43,23-21.85a100,100,0,0,1,14-11.37c11.72-8,23.49-15.92,35.22-23.89a17.73,17.73,0,0,0,2.84-2.24c7.57-7.81,15.3-15.56,20.7-25.07,4.76-8.39,9.09-17.06,13-25.88a76.9,76.9,0,0,0,5.84-18c1.81-10.69,2.62-21.55,3.77-32.34a15.15,15.15,0,0,0-.19-4.51c-.57-2.85-2-5-5.07-5.39-3.56.39-5.53,2.56-7,5.38-3.94,7.84-8.89,15.06-13.5,22.5-5.76,9.31-13,17.38-20.28,25.47a48.36,48.36,0,0,1-6.78,6c-4.55,3.49-9.15,6.93-13.86,10.2-16.37,11.37-32.43,23.17-48.32,35.18a204.84,204.84,0,0,0-32.46,30.12A75.91,75.91,0,0,1,722,1322a239.22,239.22,0,0,1-27,21.31c-4.71,3.23-9.14,6.94-14.59,9-6.76,2.58-13.35,5.69-20.23,7.86-8,2.53-16,5.15-24.35,6.89-13.57,2.85-27.2,5.3-40.87,7.65a181.77,181.77,0,0,1-25.14,3,20.85,20.85,0,0,0-4.44.63c-1.56.4-2.86,2.55-2.8,4.26s1.58,3.71,3.21,4a32.56,32.56,0,0,0,5.4.4,119.73,119.73,0,0,0,19.81-1.81c10.68-1.91,21.45-3.39,32.07-5.56,11.22-2.3,22.59-4,33.43-8,4.81-1.76,9.7-3.31,14.59-4.85a88.94,88.94,0,0,0,26.62-13.24c7-5.22,14.35-10.07,21.12-15.59,6.07-5,11.66-10.51,17.29-16,3.89-3.77,7.4-7.94,11.23-11.78,13.93-14,30.83-24.26,46.09-36.59,7.73-6.24,16.41-11.28,24.41-17.22,7.75-5.75,15.65-11.36,22.06-18.72a180.91,180.91,0,0,0,17.55-23c1.74-2.79,3.29-5.75,6.81-8.77-1,9.6-2.14,18-5.42,25.78-3.5,8.34-7.35,16.55-11.32,24.68-5,10.17-12.88,18.18-20.47,26.37a36.33,36.33,0,0,1-6.44,4.9c-6,4.1-12,8.09-18,12.19-4,2.73-7.89,5.56-11.79,8.41-4.63,3.37-9.6,6.39-13.75,10.29-10.33,9.73-20.24,19.9-30.4,29.82a82.91,82.91,0,0,1-19.67,14.31c-13.63,7.13-27.52,13.68-40.4,22.3-11.78,7.88-24.06,15-35.44,23.52-6.57,4.94-12.21,10.81-18,16.47-9.92,9.71-19,20.24-28.65,30.24-5.44,5.65-11,11.23-17,16.31-8.5,7.24-17.16,14.34-27.33,19.27-1.34.65-2.47,1.72-3.76,2.51-10.26,6.37-20.5,12.77-30.82,19-4.13,2.5-8.35,4.88-12.69,7-15.76,7.62-31.67,14.93-46.9,23.6-7.09,4-14.55,7.5-21.24,12.1s-13.56,7.85-20.59,11.32a39.82,39.82,0,0,0-6.37,3.37c-10.62,8-22,15-31.33,24.57a33.55,33.55,0,0,1-4.22,3.19c-2.08-1.44-3.88-2.55-5.52-3.85-10.42-8.25-20.79-16.56-31.21-24.8a46.62,46.62,0,0,0-4.67-2.86,22.71,22.71,0,0,0-4.16,2c-13.57,10.59-27.07,21.27-40.63,31.88a9.09,9.09,0,0,0-3.86,7.77c0,1.51-.07,3-.07,4.53-.05,19,0,38.08-.18,57.11a16.46,16.46,0,0,0,6,13.47c9.34,8.14,18.48,16.5,27.75,24.72,2.71,2.4,5.51,4.72,8.44,6.84a41.51,41.51,0,0,0,5.56,2.86,27,27,0,0,0,4.14-2.35c14.22-12.12,28.52-24.14,42.3-37,.07-3.17.19-6.17.2-9.17.07-18.43.09-36.86.16-55.29,0-2.39.25-4.77.36-6.89,1-1.27,1.72-2.28,2.57-3.12,10.46-10.16,22.9-17.72,34.61-26.24a3.38,3.38,0,0,1,.77-.47,132.86,132.86,0,0,0,27.73-15.16A8.73,8.73,0,0,1,453.48,1561ZM302.32,1665.36a18.63,18.63,0,0,1-.69-3.23c-.72-21.62-.33-39.63,1-45.8,1.79-.35,2.75,1,3.77,2,8.1,8,17.44,14.62,25.23,23.38-9.3,7.93-18.21,15.55-27.16,23.13C304,1665.19,303.32,1665.14,302.32,1665.36Zm31.88,32.22a8.21,8.21,0,0,1-.92,2.47c-6.1-3.82-21.53-17.56-26.39-23.58,7.6-7.58,16.1-14.21,24.25-21.21a7.05,7.05,0,0,1,2.37-1c.22-.07.55.17,1.23.41C335.79,1668.87,334.38,1683.22,334.2,1697.58Zm1-103.94c.09,3.92,0,7.85,0,11.77s0,7.85-.05,11.78.46,7.65-.59,12.07c-10-7.71-18.5-16.22-28-24.76,9.29-8.38,18.24-15.47,28-22.72C335.8,1586.08,335.15,1589.9,335.23,1593.64Zm10.08-10.93c5.4,2.54,22.87,15.86,29.5,22.63-9.56,7.94-18.61,15.46-27.69,23-.4.32-1.09.28-1.64.41C344.54,1621.43,344.44,1592.55,345.31,1582.71ZM371.1,1679q-10.94,9.45-22,18.79a36.75,36.75,0,0,1-3.71,2.44c-1-7.8-1-37.61.11-46.82,9.43,8.41,17.91,16,26.18,23.36C371.42,1677.92,371.46,1678.7,371.1,1679Zm5.2-13.5c-.78-.13-1.8,0-2.29-.42q-11.83-10.44-23.52-21a23.71,23.71,0,0,1-2.42-3.1,52.08,52.08,0,0,1,4.43-4.55c8.08-6.52,15.26-14.15,24.1-20.24C377.39,1624.63,377.18,1658,376.3,1665.51Z"/><path class="cls-1" d="M1907.78,1615.92c0-2.72-.13-5.44-.08-8.15a9.19,9.19,0,0,0-3.75-7.83c-13.56-10.61-27-21.31-40.64-31.87-1.32-1-3.19-1.37-5-2.12-4.69,3.63-9.22,7.1-13.71,10.63s-8.85,7.32-13.49,10.7-8.47,7.64-13.35,10c-1.12-.51-1.81-.61-2.19-1-8.94-9.58-20-16.52-30.31-24.38a44.9,44.9,0,0,0-10.16-5.85c-4.73-2-9.56-4-13.7-7-7.18-5.1-15-9.08-22.61-13.31-10-5.56-19.87-11.44-30.45-16a249.22,249.22,0,0,1-26.75-13.28c-17.71-10.36-35.11-21.27-52.6-32-2.06-1.26-4-2.76-5.9-4.21-11.16-8.35-20.78-18.38-30.7-28.1-11.42-11.2-21.53-23.63-33.28-34.54a226.58,226.58,0,0,0-30.16-23c-8.58-5.63-17.34-11-26-16.43-2-1.28-4.15-2.48-6.3-3.57q-11.31-5.76-22.67-11.4a82.7,82.7,0,0,1-21.78-16c-9.6-9.63-19.35-19.1-29.09-28.58a49.05,49.05,0,0,0-5.62-4.53c-7.85-5.63-15.71-11.24-23.64-16.76-4.7-3.28-9.53-6.37-14.3-9.55-1.75-1.17-3.79-2.1-5.16-3.62-5.85-6.5-12.18-12.72-17.08-19.9a135.65,135.65,0,0,1-18-38.4c-1.69-5.75-2.38-11.8-3.47-17.73-.07-.38.39-.86.72-1.56,3.07,2.76,4.79,6.32,7,9.54,9,13.32,18.73,26,32.13,35.3,4,2.76,7.7,5.83,11.63,8.64,7.37,5.25,14.89,10.32,22.19,15.66s14.44,10.94,21.65,16.41c12,9.15,23.61,18.82,33.3,30.55a55.08,55.08,0,0,0,5.11,5.14,301,301,0,0,0,32.66,25.8,104.94,104.94,0,0,0,17.33,9.76c3.84,1.72,8,2.66,11.91,4.26,14.62,6,30,9,45.41,12.06,10.64,2.1,21.4,3.65,32.08,5.54a116.18,116.18,0,0,0,21.62,1.83,9,9,0,0,0,4.35-.81,6.41,6.41,0,0,0,2.49-3.43c.5-1.59-1-3.88-2.56-4.3a23.46,23.46,0,0,0-4.41-.72c-3.31-.27-6.66-.23-9.94-.69-10.74-1.52-21.56-2.74-32.17-4.94-15.34-3.18-30.86-5.69-45.71-10.93-6.54-2.31-13.1-4.59-19.52-7.22a87.77,87.77,0,0,1-18.65-11c-13.12-9.67-26.48-19.08-36.67-32.12a33.15,33.15,0,0,0-3.83-3.85c-3.54-3.28-7.07-6.58-10.69-9.77s-7.25-6.4-11.06-9.36c-6-4.62-12.11-9-18.14-13.56-3.61-2.73-7.05-5.7-10.73-8.33-11.77-8.45-23.63-16.78-35.44-25.17-5-3.53-9-8-13-12.56a163.71,163.71,0,0,1-17.71-24c-3.52-6-7.14-11.89-10.6-17.9-1.58-2.73-3.37-5-7.38-5.55a6.59,6.59,0,0,0-4.87,6.18,30.77,30.77,0,0,0,0,5.43c.41,5.11.82,10.23,1.45,15.31,1,8.07,2.15,16.08,4.67,23.92,3.07,9.55,7.41,18.47,11.8,27.41,5.8,11.83,14.35,21.57,23.29,31a41,41,0,0,0,6.29,5.13c8.16,5.72,16.17,11.68,24.63,16.92a172.16,172.16,0,0,1,32.2,26.23c6.11,6.25,12.7,12,18.94,18.14a79.17,79.17,0,0,0,18.82,14c7.5,3.9,15.15,7.51,22.68,11.36,3.22,1.65,6.34,3.5,9.42,5.39q12,7.35,23.85,14.83c14.6,9.21,28.38,19.47,39.92,32.43q16.88,19,35,36.7c10.2,9.93,21,19.06,33.5,26.06,2.37,1.33,4.73,2.7,7,4.23a423.68,423.68,0,0,0,59,33.54c12,5.67,23.91,11.56,35.45,18.15,6.3,3.59,13,6.61,18.88,10.73,6.51,4.55,13.64,7.75,20.57,11.4a80.13,80.13,0,0,1,7.89,4.32c6.24,4.24,12.48,8.51,18.47,13.09,5.49,4.19,11,8.44,15.49,14.41,0,2.8,0,5.81,0,8.81q.06,27.64.16,55.29c0,2.39.31,4.77.49,7.39,14.24,12.28,28.39,24.5,42.59,36.67a13,13,0,0,0,2.82,1.49c4.12,0,6.53-2.46,9-4.61,11.14-9.74,22.15-19.64,33.36-29.3,4.49-3.88,6.23-8.44,6.15-14.33C1907.7,1651,1907.81,1633.45,1907.78,1615.92Zm-80.48-13.16,27.23-21.22c1,9.73.92,39.38,0,47.53-5.67-3.19-10-7.68-14.81-11.68s-9.26-7.73-13.76-11.47C1825.46,1604.29,1826.35,1603.51,1827.3,1602.76Zm-3.18,63c-.39-.7-.9-1.19-.9-1.7q-.23-23-.32-46c0-.5.46-1,.89-1.88,9.68,7.68,18.71,15.94,27.44,23.61.41,2.61-.91,3.57-2,4.53q-11.35,10.29-22.83,20.45A7.83,7.83,0,0,1,1824.12,1665.75Zm30.71,33.61c-.19.16-.37.41-.59.45a1.2,1.2,0,0,1-.86-.17q-11.52-9.48-23-19a19.17,19.17,0,0,1-2.22-2.64c3.82-4.92,19.69-19.06,26.18-23.39C1855.53,1660.48,1855.81,1688.3,1854.83,1699.36Zm10.28-116.8c.78.18,1.69.11,2.21.53,8.49,6.76,16.93,13.58,25.93,20.84-8.09,8.72-19.86,19.22-27.46,24.61C1864.54,1622.66,1864.16,1598.2,1865.11,1582.56Zm1.94,117.37c-.36-.41-1-.82-1-1.25-.59-14.65-1.58-29.31-.75-45.8,10.8,7.75,19.16,15.78,27.87,23.34C1889.22,1681.58,1874.05,1695.28,1867.05,1699.93Zm30.45-34.7c-.3,0-.72.22-.88.09-9.27-7.64-18.51-15.31-28.21-23.35,6.49-7.26,23.61-22.43,28.76-25.65.35.42,1,.82,1,1.26C1899,1630,1898.52,1659.79,1897.5,1665.23Z"/><path class="cls-1" d="M1141.54,2004.94c-12.78-24.78-22.32-50.85-30.43-77.47-4.77-15.69-7.73-31.64-6.07-48.2,1.38-13.81,2.43-27.66,3.71-41.48a64,64,0,0,1,1.39-8c3.41-15.32,6.81-30.63,10.35-45.92a125.66,125.66,0,0,1,3.57-12.13c3.57-10.6,6.93-21.24,8.39-32.38,1.18-9,2-18,3.47-26.94,3.15-19,2.18-38,.43-56.91-1.11-12-2.74-24-3.18-36-.19-5.12-.63-10.24-.63-15.35,0-3.92.69-7.82.77-11.74.14-7,1.51-13.75,3-20.55q4-18.12,7.19-36.39c.94-5.34.64-10.88,1.49-16.23,2.41-15.13,1.19-30.1-1.45-45-.63-3.55-1.41-7.09-2.37-10.57-3.77-13.66-7.84-27.2-10.65-41.13-3-14.89-5-29.74-4.07-44.93.17-2.71.33-5.44.24-8.15a76.42,76.42,0,0,1,3-22.35c.69-2.59,1.21-5.22,1.75-7.55-2.62-2.91-3.34-3.44-4.4-3.39a5.32,5.32,0,0,0-4.43,2.74,15.07,15.07,0,0,0-1.77,4.13c-2,8.5-4.35,17-3.71,25.88a53.7,53.7,0,0,1-.26,6.33c-.47,10-1.08,20,.45,29.83,2.47,15.77,5.3,31.48,10,46.81,3,9.77,6.27,19.56,7.21,29.86.53,5.69,1.34,11.37,1.59,17.07a92.22,92.22,0,0,1-.67,11.72c-.85,9.91-1.28,19.89-2.78,29.71-1.6,10.41-4,20.72-6.47,31a152.55,152.55,0,0,0-3.33,24.17c-1.27,16.3.9,32.55,1.73,48.82a13.85,13.85,0,0,0,.23,1.8c3,15.8,3.41,31.78,3.1,47.79-.1,5.1-1,10.19-1.52,15.28-.75,6.6-1.55,13.19-2.33,19.78-1.42,12-3.61,23.86-7.73,35.29a164.08,164.08,0,0,0-6.84,24.37c-2.21,11.25-4.72,22.43-7.12,33.64a34.35,34.35,0,0,1-1.14,4.38c-.41,1.12,0,2.76-2,3.49-1.25-5.82-2.49-11.4-3.63-17-3.44-16.84-6.73-33.71-12.48-50a110.32,110.32,0,0,1-6.22-26.38c-.82-8.7-2.21-17.35-3.37-26-.44-3.28-1.17-6.55-1.37-9.85-1-16.62-.76-33.27,2-49.67,1.74-10.49.71-21.13,2.94-31.51.61-19.08-.17-38-5.49-56.53a70.63,70.63,0,0,1-1.49-7.08c-1.78-9.78-3.62-19.53-4.38-29.51-.5-6.6-.91-13.22-1.46-19.82a86,86,0,0,1,.54-20.67c1.26-8,2.13-16.1,4.77-23.91a312.9,312.9,0,0,0,11.06-44.76,142.78,142.78,0,0,0,2.61-21.52c.32-11.49-.33-22.94-.8-34.38-.28-6.55-2.35-13-3.72-19.51a9.63,9.63,0,0,0-1.62-3.21,5,5,0,0,0-4.54-2.49c-2,.11-3.28,1.34-4.13,3.87.66,2.64,1.62,5.81,2.24,9a122.81,122.81,0,0,1,2.44,15.17c.52,8.13.52,16.3.53,24.46,0,4.83.21,9.77-.69,14.46-3.16,16.57-5.71,33.29-11.08,49.38a109.71,109.71,0,0,0-4.42,15.67c-2.14,12.17-4.63,24.35-3.58,36.85.48,5.71,1,11.41,1.3,17.12a243.4,243.4,0,0,0,8.28,49c3.47,13,3.47,26.3,4,39.53.28,7.19-.88,14.45-1.35,21.67-.16,2.41.09,4.89-.35,7.23-2.62,13.71-3.41,27.56-3.53,41.47-.09,10.57-.25,21.13,1.84,31.59A121.54,121.54,0,0,1,1066,1727c1.2,15.79,5,31,10.4,45.78a80.28,80.28,0,0,1,2.8,9.54c3.58,15.58,7.14,31.17,10.54,46.8a109.5,109.5,0,0,1,1.77,12.53c1.09,11.11,2,22.24,3.07,33.35,1.1,12.08,1.46,24.15-1.53,36-2.13,8.49-4.24,17-6.93,25.32-7.78,24.17-16.85,47.84-28.55,70.44a129.27,129.27,0,0,0-9.69,26.3,73.5,73.5,0,0,0,.68,42c5.74,18,17,31.07,35.85,36.47,6.53,1.87,13.19,1.46,19.81,1.37,16.25-.2,28.94-7.35,38.55-20.31,9-12.19,12-26.28,12-41a70,70,0,0,0-3.37-21.4C1148.66,2021.59,1145.72,2013,1141.54,2004.94Zm3,54.25a52.79,52.79,0,0,1-6.84,23.24c-8.38,14.74-21.59,22-38.11,21.87-16.13-.14-29.06-7.38-37.25-21.8a53,53,0,0,1-6.87-23.23,80.86,80.86,0,0,1,7.57-39.58c5.33-11.5,10.72-23,15.57-34.68,7.29-17.56,13.92-35.38,18.8-53.79.69-2.61,1.49-5.19,2.55-8.88l5.73,19.2a463.19,463.19,0,0,0,19.87,53.4c3.63,8.3,7.5,16.49,11.35,24.68A80.11,80.11,0,0,1,1144.54,2059.19Z"/><path class="cls-1" d="M1462.35,1868.34c-1.32-.69-2.57-1.49-4-2.31-.17-2.24-.28-4.33-.48-6.41-.59-6.06-1.83-12-4.9-17.31-6-10.45-15.12-16.15-27.3-16.57-10.86-.37-20.28,3.84-28.12,10.76-10.46,9.22-17.27,20.87-19.42,34.92a28.19,28.19,0,0,1-1.2,3.67c-2.1-1-3.66-1.79-5.31-2.4-4-1.45-7.86-3.3-12-4.1-15.07-2.93-28.16.54-38.08,13-.92,1.15-1.73,2.38-2.82,3.88a10.26,10.26,0,0,1-1.71-1c-16.07-19.65-25.36-41.58-22.77-67.54.33-3.3.3-6.64.48-10,.15-2.71-.07-5.53.61-8.11,2.67-10.28,3.12-20.88,4.95-31.27,1.05-6,2.16-11.85,2-18s-.28-12.07,1.05-18c.45-2,.09-4.2-.05-6.3-.24-3.61-1-7.23-.85-10.82.43-11.9-1.9-23.42-4.39-34.93-.31-1.47-.67-2.94-1-4.42-2.43-12.16-5.3-24.18-11.09-35.29a55.4,55.4,0,0,1-2.57-5.79c-3-8-7.86-14.92-13-21.68a99.06,99.06,0,0,1-6.25-8.87c-3.08-5.19-5.88-10.55-8.78-15.84-8.46-15.4-12.22-32.12-13.18-49.45-.57-10.23-.5-20.49-1.6-30.72-.88-8.16-2.41-16-5.66-23.65-5.84-13.68-12.65-26.72-22-38.42a127.22,127.22,0,0,1-16.29-26c-7.15-15.54-11.59-31.69-12.29-48.82a56.23,56.23,0,0,0-.71-7.21q-2.4-13.82-5-27.61a44.47,44.47,0,0,0-1.62-6.12c-.72-2.15-2.18-3.58-5.17-3.61l-3.67,2.74a15.4,15.4,0,0,0-.16,3.1c1.51,8.61,3.15,17.2,4.62,25.82.81,4.75,1.82,9.53,2,14.32a124.42,124.42,0,0,0,9.65,44c3.23,7.78,6.38,15.69,11.16,22.72,3.74,5.49,7.57,10.94,11.73,16.11,9,11.24,14.47,24.35,20.07,37.38a37.94,37.94,0,0,1,1.95,7.89,130.82,130.82,0,0,1,2.18,27.93,120.18,120.18,0,0,0,1.8,23.42c2.12,12.24,4.86,24.32,10.33,35.52,4,8.13,8.53,16,13.07,23.81a77.44,77.44,0,0,0,6.4,8.75,79,79,0,0,1,11.2,18.56c1.62,3.9,3.48,7.7,5,11.63a94.89,94.89,0,0,1,4.44,12.79c3,12.62,5.57,25.32,8.27,38a25.79,25.79,0,0,1,.47,4.48c.45,13.87.91,27.74.29,41.63-.22,5.14-.32,10.27-1.51,15.27a89.63,89.63,0,0,0-2.17,16.12,27.08,27.08,0,0,1-.51,4.49,192,192,0,0,0-3.93,25c-1.08,12.68-1.36,25.45,2.11,37.78,5,17.62,12.31,34.08,25.9,47,.83.8,1.91,1.57,1.21,3.42-1.19.33-2.63.67-4,1.14-3.43,1.17-6.9,2.25-10.23,3.65-7.4,3.12-13.31,8.32-18.48,14.3a45.87,45.87,0,0,1-11.59,9.94,44.49,44.49,0,0,0-9.67,8.09c-8.21,8.84-11.66,19.72-11.72,31.53,0,7,2.13,13.69,5,20.07,1.11,2.45,2.28,4.87,3.47,7.39-.94,1.45-1.67,2.76-2.58,3.94-8.8,11.38-11.74,24.3-10.07,38.4,1.27,10.64,5.77,19.67,14.1,26.52,7.34,6.05,15.78,8.84,25.3,7,4.4-.85,8.69-2.27,12.87-3.39,3.38,2.09,6.57,4.38,10,6.13,8.27,4.17,16.73,4.79,25.21.44,1.62-.82,3.3-1.52,4.9-2.36,12.94-6.73,22.06-16.64,25.85-31,.38-1.44.58-3,2.47-3.76,1.84.48,3.86,1,5.87,1.54a26.24,26.24,0,0,0,15.17-.48,35.26,35.26,0,0,0,19.74-15.06c4.64-7.25,7.62-15.06,7.49-23.86,0-2,.33-4.06.55-6.55,2.53.37,4.58.56,6.58,1a38.13,38.13,0,0,0,24.73-3c17.31-8,23.87-27.63,15.6-43.35-.69-1.31-1.41-2.59-2.19-4,1.17-1,2-1.81,3-2.56s2-1.44,2.84-2.25c11.44-10.43,17-23.39,15.74-38.83C1478.86,1884.05,1473.6,1874.22,1462.35,1868.34Zm-6.43,62.13c-1.59,1.24-3.74,1.79-5.68,2.55-1.38.54-2.91.75-4.26,1.36-1.93.87-2.68,3.9-1.35,5.41a35.6,35.6,0,0,0,3.89,3.78c8.62,7.27,8.71,22.11-.49,30.67-7.25,6.73-15.87,9.77-25.81,7.84-3.81-.75-7.55-1.9-11.23-2.84-1.53-2.38-2.71-4.48-4.14-6.38a42.15,42.15,0,0,0-5.33-6.12,6.32,6.32,0,0,0-4.14-1.21,4,4,0,0,0-3.74,3.46c0,2.66,2.06,4.22,3.61,6,10.49,12,8.83,34.45-4.45,45.93-8.85,7.64-18.72,8.39-29.33,1.85-1-1.88-2.08-4-3.23-6.14a16.62,16.62,0,0,0-6.86-7,7.14,7.14,0,0,0-4.32-.6c-1.9.36-3.08,1.8-3.07,4.52a28.87,28.87,0,0,0,3.07,3.69c5.94,5.31,6.61,11.91,4.79,19.09a34.69,34.69,0,0,1-6.56,12.83c-5.73,7.33-13,12.64-22,15.11-8,2.19-14.78,0-20.7-6.46,1.42-2.06,2.83-3.92,4.05-5.89,1.81-2.94.81-4.75-3.81-6.56-1.6,1.46-3.38,3.05-5.13,4.65a35.91,35.91,0,0,1-12.92,8.15,24,24,0,0,1-26.79-8,34.64,34.64,0,0,1-7.63-22.73,42.49,42.49,0,0,1,7.6-24.72c4.92-7,11.32-11.61,19.72-13.39,1.18-.25,2.39-.38,3.54-.72a4.51,4.51,0,0,0,3.51-4.64,4.4,4.4,0,0,0-5.13-4,36.77,36.77,0,0,0-7.92,1.55c-3.14,1-6.14,2.45-9.57,3.85-.84-.76-2-1.37-2.48-2.32-5-9.83-6.19-20-3-30.72,4.22-14,17.39-25.29,34.47-26.44,4.46-.31,9,.33,13.65.54,2.89-2.42,2.89-2.42,2.46-6.53a5.58,5.58,0,0,0-1.26-1.16,25.92,25.92,0,0,0-10.56-2.19c-2.08,0-4.15-.08-6.4-.12.37-1,.42-1.65.77-1.93,9-7.34,19.26-11.08,31-10.54a34.11,34.11,0,0,1,17.12,5.26c9.54,6.12,13.63,15,12.36,26.25-.1.89-.44,1.75-.61,2.64-.34,1.9-.09,3.74,1.55,4.88a4.53,4.53,0,0,0,6-.29c3.83-7,3.13-14.38.87-21.73a34.28,34.28,0,0,0-13.78-18.56,38.26,38.26,0,0,0-14-6.08c-1.75-.35-3.47-.92-5.18-1.44-.25-.07-.4-.41-.62-.64-1-1.78-.43-3.49.39-5.14,3.7-7.47,10.26-11,18-12.18a35.74,35.74,0,0,1,29.58,8.37c5.21,4.46,8.61,10.05,9.12,17.12.12,1.78.4,3.55.57,4.91,1.83,2.28,3.76,2.73,5.93,1.73,1.83-.85,2.45-2.55,2.7-4.41a21.37,21.37,0,0,0-2.39-12.31c-5.13-10.44-3.56-20.57.58-30.61,2.88-7,6.85-13.49,12.68-18.53,6.12-5.27,13.06-8.54,21.39-8.42a24.36,24.36,0,0,1,23.81,19.67,36.9,36.9,0,0,1,.54,6.31,19.89,19.89,0,0,1-.64,3.69c-6.16,1.91-13.62,1-17.66,8.06.91,1.34,1.47,2.93,2.59,3.61a7.42,7.42,0,0,0,4.29.6c1.47-.14,2.86-.93,4.32-1.3,14-3.51,26.42,4.64,28.34,19.08C1472.54,1909.19,1467.59,1921.31,1455.92,1930.47Z"/><path class="cls-1" d="M1026.58,1325.88c-3.66,1.51-4.29,4.31-4.74,6.94-2.36,14-6,27.71-6.58,42a76.68,76.68,0,0,1-2.07,15.23c-4.47,18.32-11.11,35.71-23,50.74-3.17,4-6.09,8.26-9.07,12.44-8.31,11.66-13.92,24.69-19,38a24.09,24.09,0,0,0-1,4.4,190.45,190.45,0,0,0-3.15,35.1c.14,12.8-2.08,25.17-5.45,37.49-3.24,11.84-9.45,22.18-15.25,32.75a56.62,56.62,0,0,1-6.47,9.81c-10.85,12.65-16.61,27.91-22.67,43a16.93,16.93,0,0,0-.82,2.59c-1.93,8.23-3.93,16.43-5.71,24.69-1.4,6.48-3.59,13-3.53,19.54.13,13-3.11,25.86-.41,38.81a11.67,11.67,0,0,1,0,2.71,125.2,125.2,0,0,0,2.23,27.91c1.47,7.38,1.9,15,3.41,22.34a103.65,103.65,0,0,1,2,18,46,46,0,0,0,.35,6.33c1.1,6.34.5,12.57-.32,18.91-2.32,17.93-10.2,33.31-21,47.43a19.3,19.3,0,0,1-2.93,2.48c-.95-1.2-1.7-2.07-2.36-3-7.48-10.46-17.92-14.73-30.47-14.86-7.47-.08-14.22,2.36-20.87,5.35-1.56.7-3,2.22-5.35,1-.2-1.22-.36-2.7-.7-4.13-4.44-18.63-14-33.3-32.17-41.14-9-3.86-18.17-4.47-27.24-.31-9.63,4.41-16,11.71-18.47,22.12-.83,3.51-1.17,7.13-1.71,10.7-.26,1.74-.45,3.48-.65,5a75.62,75.62,0,0,0-6.69,3.89,41.1,41.1,0,0,0-6.08,5.33c-5.79,6.28-8.35,13.95-8.64,22.34-.52,15.11,5,27.7,16.41,37.67,1.58,1.39,3.27,2.65,5.23,4.23-1,1.92-2.12,3.69-2.92,5.59-4,9.46-3.84,18.79,1.14,27.91a32.49,32.49,0,0,0,15.84,14.31,37.81,37.81,0,0,0,24.77,2.53c1.95-.46,4-1.55,6.24.47.11,2.72,0,5.72.37,8.67,1.26,11.59,6,21.59,15,29,8.36,6.84,17.89,9.87,28.77,6.65,1.64-.48,3.26-1.74,5.53-.63a19.83,19.83,0,0,1,1.18,3c2,8.48,6.5,15.44,12.55,21.64,5.64,5.77,12.54,9.3,19.72,12.59s14.09,2.93,21.07.07a70.94,70.94,0,0,0,8.79-4.64,39.13,39.13,0,0,0,4-3c2.73,1,5,2,7.26,2.69,10.83,3.23,21,1.83,30-5.17a36.07,36.07,0,0,0,12.89-18.23c4.7-15.58,3.09-30.41-5.72-44.3-1.59-2.5-4.16-4.43-4.57-7.84,1.11-2.34,2.33-4.76,3.43-7.23,2.86-6.41,5-13.16,4.78-20.13-.57-16.73-7.28-30.42-21.95-39.34a40,40,0,0,1-10.28-8.7c-8.18-9.83-18.41-16.42-31-19.13-1.13-.24-2.44-.35-2.88-2.36,1.42-1.49,3.07-3.17,4.66-4.91a52.27,52.27,0,0,0,4.77-5.45c13.12-19.09,21.47-39.75,20.75-63.41a172.13,172.13,0,0,0-3.15-30.53c-1.18-5.58-1.52-11.34-2.23-17a46.17,46.17,0,0,0-.8-6.26,80.15,80.15,0,0,1-2.43-23.33c.06-1.81,0-3.63-.09-5.44-.8-17.22-.4-34.35,3.69-51.22.5-2,1.06-4.1,1.4-6.18,2.08-12.55,4.89-24.87,11-36.19a40.15,40.15,0,0,0,2-5,61.82,61.82,0,0,1,10.9-18.7c9.32-11,15.69-23.71,21.39-36.65a132,132,0,0,0,10.86-52.83c0-6,.09-12.09.52-18.11.5-6.92,1-14,3.61-20.42,5.31-13.16,11-26.17,20-37.42,10.43-13.05,19-27.19,24.59-43a139,139,0,0,0,6.48-24.44c1-6.3.86-12.66,1.78-18.9,1.72-11.63,4-23.16,6-34.76a37.41,37.41,0,0,0,0-5.75ZM909.46,1916.25c-3.38.18-6.33.27-9.28.5a20.42,20.42,0,0,0-8.57,2.31c-1.81,4.29-1.81,4.29,1.64,7.54,3.47-.24,7-.7,10.64-.71,11.07,0,20.68,3.71,28.5,11.68,9.7,9.89,12.4,21.82,9.79,35.09-.86,4.38-2.18,8.76-5.27,12.46-3.65,0-6.39-2.12-9.42-3.23-3.43-1.27-6.86-2.36-10.59-1.8a4.26,4.26,0,0,0-1.2,8.05,16.74,16.74,0,0,0,2.56.86c.88.21,1.8.23,2.68.44a31.13,31.13,0,0,1,18.4,12.32c7.78,10.69,9.9,22.62,7.13,35.27-1.87,8.53-6.5,15.59-14.55,19.8-8.26,4.31-16.4,3.38-24.17-1.22a65.23,65.23,0,0,1-7.86-6.08c-1.62-1.31-3.12-2.77-4.43-3.94-3.53-.16-4.77,1.5-4.87,4.85l4.8,7.24c-5.34,6.24-11.95,8.89-19.5,6.83-15-4.11-25.38-13.71-29.85-28.83-2-6.74-.89-13.19,4.69-18.27a39.81,39.81,0,0,0,3.25-3.69c.13-2.6-.85-4.17-2.77-4.63a7,7,0,0,0-4.34.37,16.39,16.39,0,0,0-7,6.92c-1.18,2.1-2.25,4.27-3.29,6.26-10.27,6.64-20.29,6-29.19-1.54-13.49-11.44-15.14-33.91-4.84-45.89,1.53-1.78,2.79-3.8,3.87-5.29-.33-2.8-1.66-3.9-3.55-4.39a4.72,4.72,0,0,0-4.92,1.57c-2.88,3.46-5.57,7.09-9.08,11.6a32.91,32.91,0,0,1-23.35,3,28.21,28.21,0,0,1-15.23-9.26c-7.45-8.56-7-22.41,1.61-29.32a40,40,0,0,0,4-4.08c.44-3.23-1.1-5.07-3.21-5.33-8.78-1.07-13.77-7-18.1-13.7-5.15-7.94-6.58-16.83-5.08-26.09a25.06,25.06,0,0,1,6.38-12.81c5.67-6.28,12.82-7.48,20.71-6,2.06.4,4,1.35,6.09,1.73a5.06,5.06,0,0,0,3.44-.56c1.12-.78,1.83-2.17,2.74-3.33-3.65-7.69-11.14-6.65-17.5-8.32-1.88-9.22.41-17,7-23.16,8.1-7.49,17.56-8.68,27.77-4.55a35.18,35.18,0,0,1,17.55,15,116,116,0,0,1,6.27,12c2.77,6.22,3.12,12.88,2.54,19.56a27.91,27.91,0,0,1-1.75,6c-1,3.15-2.24,6.25-3.09,9.44a18.53,18.53,0,0,0-.43,5.37,5,5,0,0,0,2.46,4.56c2.12,1.14,4,.8,6-1.33a15.18,15.18,0,0,0,.64-3.08c.11-10.46,5.6-17.68,14.15-22.71,9.89-5.81,20.44-7.17,31.32-3a19.62,19.62,0,0,1,11.57,10.87,14.74,14.74,0,0,1,.67,3.76c-1.72,2.66-4,2.43-6,2.85a37.48,37.48,0,0,0-20.88,11.91,36.23,36.23,0,0,0-8.47,17.76,28.76,28.76,0,0,0,2.11,17.22c1.31.2,2.77.77,4.1.56a4,4,0,0,0,3.57-4.45c-.11-1.19-.44-2.37-.66-3.55-2-10.7,3.9-22.29,13.59-27.35a38.69,38.69,0,0,1,20.07-4.46C891.8,1904.46,901,1908.31,909.46,1916.25Z"/><path class="cls-1" d="M1087.2,391q-3.69,21.85-8,43.6a485.52,485.52,0,0,1-12.87,50.87c-8,25.43-17.93,50-32.17,72.68a167.19,167.19,0,0,0-19.26,42.79,184.67,184.67,0,0,0-6.32,38.3c.61,11.2,1.82,22.26,5.3,33a86.21,86.21,0,0,0,35.44,46.71,103.35,103.35,0,0,0,33.16,14.16c9.48,2.27,19,3.78,28.64,1.35,5.27-1.33,10.65-2.3,15.77-4,12.69-4.31,24.42-10.44,34.42-19.55,22.37-20.38,30.62-46.46,29.87-75.82a118.81,118.81,0,0,0-4.94-30.31c-4.08-13.93-8.79-27.54-16.53-40-6.35-10.26-12-21-17.49-31.72-6.1-11.82-10.46-24.38-14.91-36.91-8.92-25.12-14.54-51.08-19.71-77.12a513.9,513.9,0,0,1-8.07-56.42c-1.15-13.53-2.45-27.05-3.18-40.61-.35-6.63-.94-13.25-1.61-19.86a15.86,15.86,0,0,0-1.63-5.09c-1.14-2.34-4.8-2.52-5.93-.24a17.05,17.05,0,0,0-1.85,5.94c-.78,9-1.34,18.06-2,27.09-.19,2.71-.22,5.44-.47,8.14-.91,9.92-1.82,19.83-2.85,29.73C1089.19,375.39,1088.5,383.23,1087.2,391Zm6.78,18.1c2-13.11,3.94-26.22,6-40.22,1.43,9.65,2.93,18.41,4,27.23,1.8,15,4.7,29.76,7.79,44.51a518.13,518.13,0,0,0,17.78,64.49c4.19,12,9.57,23.44,14.86,34.95,6.07,13.2,14,25.36,20.81,38.12,12.61,23.54,18,48.65,15.12,75.15-2.69,24.38-14.43,43.84-34.92,57.7a97.36,97.36,0,0,1-39.37,15.24,38.12,38.12,0,0,1-12.61-.06c-18.16-3.21-34.68-10.14-48.55-22.68a75.8,75.8,0,0,1-22-34.72c-5.78-19-4.85-38.06-.69-57.23,3.37-15.55,9.8-29.79,17.93-43.28A358.92,358.92,0,0,0,1079,477.94,596.17,596.17,0,0,0,1094,409.06Z"/><path class="cls-1" d="M455,950.19c-20.28-29.94-44.52-56.37-71.92-79.89a494,494,0,0,0-70.67-50.5,434.21,434.21,0,0,0-75-35c-4.15,3.15-4.74,4.74-2.83,7.63,1.32,2,2.92,3.83,4.4,5.74,8.51,11,17.39,21.68,25.46,33a526,526,0,0,1,54.22,96.05,437,437,0,0,1,26.86,81.54A179.94,179.94,0,0,1,350,1041.9a103.85,103.85,0,0,0,1.64,14.36c3.59,21,11.65,39.88,26,55.89a71,71,0,0,0,32.18,21.09,60.35,60.35,0,0,0,25,2.3c19.15-2.11,42.58-18.92,51-40.44A105.65,105.65,0,0,0,493,1058c.22-15.85-2.89-31.21-7.64-46.24C478.38,989.67,468,969.28,455,950.19Zm27.43,111a89.81,89.81,0,0,1-4.95,27.51c-7,19.85-21.12,32.12-41.55,36.46-14.37,3-27.5-1.25-39.35-9.6a73.31,73.31,0,0,1-19.13-20.35,105.61,105.61,0,0,1-16.9-51.89c-.56-9-2.24-18-3.9-26.84-7.23-38.85-20.62-75.61-37.71-111.15a567.89,567.89,0,0,0-58-95c-2-2.62-4-5.2-6-7.8,19.77,6.91,37.51,16.6,54.91,26.91a439.18,439.18,0,0,1,50,34.3c21.27,17,41.33,35.25,59.13,56a349.9,349.9,0,0,1,29.46,39c12.25,19.15,22.5,39.26,28.63,61.31A137.58,137.58,0,0,1,482.46,1061.2Z"/><path class="cls-1" d="M1962.26,796.73a21.13,21.13,0,0,0,3.16-4.4,6.58,6.58,0,0,0,.65-4.26c-.37-1.22-1.87-2.1-3.12-3.38a433.35,433.35,0,0,0-57.32,25,495.22,495.22,0,0,0-75.55,49.75c-32.37,25.74-60.8,55.19-84.16,89.34-17.54,25.64-30.64,53.29-36.55,84.1a116.28,116.28,0,0,0,1.24,51.14c5.45,21.55,18.38,37,38.3,46.7a54.39,54.39,0,0,0,25.47,5.4,59.2,59.2,0,0,0,22.75-5.44c13.6-6.16,24.2-15.78,32.67-27.89,12.44-17.79,18.4-37.83,20.16-59.27.35-4.21.19-8.47.72-12.66a304.44,304.44,0,0,1,9.49-45.11c11.77-41.49,29.38-80.46,51.22-117.55A493.14,493.14,0,0,1,1962.26,796.73ZM1849,990.61c-4.17,15.79-6.73,31.88-9.39,47.95-.44,2.66-.16,5.44-.43,8.14-2.42,24.21-11.1,45.59-28.64,62.92a58,58,0,0,1-13,9.69c-21.27,11.63-43.26,7.55-60.29-7.81-9.86-8.88-15-20.3-17.55-33-3.94-19.34-2.31-38.4,2.87-57.32,4.65-17,11.79-32.94,20.42-48.24,17.2-30.53,39.39-57.1,64.74-81.13a463.12,463.12,0,0,1,102.76-73.67c9.87-5.21,20-10,30-14.87,1.24-.6,2.47-1.82,4.32-1a12.58,12.58,0,0,1-1.14,2.19,541.49,541.49,0,0,0-57.33,90C1870.63,925.29,1857.84,957.19,1849,990.61Z"/><path class="cls-1" d="M599.85,589.6c20-.81,34.38-10.42,43-28.25a61.29,61.29,0,0,0,5.85-33.43c-.53-5.06-.18-10.23-.07-15.34.07-3.62.33-7.24.62-10.85.77-9.62,1.16-19.3,2.51-28.84,2.53-17.92,5.69-35.74,10-53.34,8.33-34.38,18.85-68,33.35-100.37,6.8-15.17,14.24-30,23.87-43.64,5.93-8.4,12.12-16.59,20.8-22.49a18,18,0,0,0,2.7-2.39c2-2,1.73-3.56-1.19-6.85-3.55-.17-6.1,2.07-8.75,4-5.87,4.25-11.79,8.44-17.47,12.93-8,6.36-16.13,12.71-23.79,19.52-21.3,18.92-39.93,40.33-57.26,62.86a555.89,555.89,0,0,0-58.89,94.32,407.68,407.68,0,0,0-25.56,64.74c-3.8,12.94-4.67,26.07-3.71,39.43,1.09,15.3,8.67,27.35,19,38a18,18,0,0,0,4.57,2.89A58.29,58.29,0,0,0,599.85,589.6Zm-39.87-31c-2.67-6.1-4.71-12.42-5-19.16a100.49,100.49,0,0,1,3.08-30.42c8.33-31.12,21.23-60.22,36.56-88.41a573.37,573.37,0,0,1,40.29-63.36,506,506,0,0,1,63.39-71.89c1.31-1.23,2.72-2.37,4.08-3.55l1.08.82c-.67,1.3-1.28,2.63-2,3.88C685.8,313.23,674.4,341.75,665,371.13a580.46,580.46,0,0,0-18.32,72.75q-4.64,25.35-6.92,51.06c-1.32,14.78-1.14,29.52-1.06,44.29.1,17.29-11,33.47-27.36,38.74-15.85,5.1-30.42,1.55-43.47-8.41C564.21,566.79,561.81,562.79,560,558.63Z"/><path class="cls-1" d="M1463.09,255.27a111.07,111.07,0,0,1,9.1,8.78,158.74,158.74,0,0,1,17.16,24.41,355.28,355.28,0,0,1,17.73,35.66c15.46,35.57,26.41,72.53,34.5,110.39a476.35,476.35,0,0,1,8.37,53.61c1,10.5,1.39,21.07,1.91,31.62a47,47,0,0,1-.46,8.12c-1.48,11.74,1,22.85,5.71,33.45a44.92,44.92,0,0,0,19.73,21.77c19,10.36,37.75,8.16,56.12-1.89a18.05,18.05,0,0,0,4-3.56c1.44-1.53,2.67-3.27,4.08-4.83,8-8.86,12-19.43,13.11-31.14,1.59-16.19-.93-31.85-6-47.25a451.94,451.94,0,0,0-31.55-73,576.27,576.27,0,0,0-80.2-113.68c-20.92-23.25-44.81-43-70.36-60.95-2.2-1.53-4.4-3.23-7.33-2.92-2.9,3.18-3.26,4.8-1.22,6.76C1459.3,252.26,1461.32,253.63,1463.09,255.27Zm33.78,25.63c13.22,12.36,25.28,24.21,36.46,36.88a555.16,555.16,0,0,1,48.25,63.32c19.56,29.86,36.67,61,49.51,94.4a291.33,291.33,0,0,1,12.38,39.7c3.2,14.07,2.83,28.19-2.7,41.79-3.17,7.82-8.38,13.9-16.14,17.59-7.45,3.54-15.15,5.79-23.53,5.57a40.48,40.48,0,0,1-39.76-40.93c0-5.44.19-10.87.19-16.3,0-23.29-2.73-46.3-6.49-69.25a578.92,578.92,0,0,0-19.45-80.83c-9.47-30-21-59.11-37.06-86.31-.61-1-1.13-2.12-1.64-3.21A11.82,11.82,0,0,1,1496.87,280.9Z"/><path class="cls-1" d="M2019.36,1453c-7.43-1-13.39,2.59-19.47,6.73l-7.89-4.41c-6.39-3.58-13.26-5.54-20.44-7-8.4-1.68-16.8-1.4-25.23-1.51-6.33-.09-12.75.27-18.95-.69-9.33-1.44-17.67-6.08-25.79-10.61-8.74-4.88-16-11.71-22.42-19.52a126.26,126.26,0,0,0-13-13.88c-8.51-7.67-17.19-15.21-26.24-22.25a124.69,124.69,0,0,1-47.53-79.7c-2.07-12.75-4-25.62-3.84-38.64a12.76,12.76,0,0,0-1-4.35c-.72-1.93-3.95-2.53-5.36-1a7.37,7.37,0,0,0-1.94,2.95,46,46,0,0,0-1.06,7.12c-.57,7.28,1.09,14.43,1.43,21.65.58,12.19,3.35,23.87,6.83,35.46,4.67,15.55,12.53,29.42,22.39,42.15a102.4,102.4,0,0,0,12.36,13.22c7.17,6.45,14.83,12.36,22.16,18.65,9.84,8.44,19.72,16.82,27.84,27.11a80.35,80.35,0,0,0,20.15,18.07,105.92,105.92,0,0,0,31.32,13.77,34.77,34.77,0,0,0,7.07,1.37c5.43.19,10.86.06,16.29,0,9.37-.1,18.72-.26,27.91,2.06,7.08,1.78,13.59,4.61,19,9.21-2,16.42,2.92,26.35,14.76,30.82a23.72,23.72,0,0,0,28.61-9.42c6-9.32,5.28-20.6-2.23-29.38C2031.06,1456.14,2025.53,1453.84,2019.36,1453Zm-2.75,37.71c-7.69-.1-13.95-6.3-13.76-13.62a14.05,14.05,0,0,1,28.1.69C2030.77,1485.23,2024.61,1490.78,2016.61,1490.68Z"/><path class="cls-1" d="M331.14,1420.7a137.41,137.41,0,0,1,11.15-11.86c4.85-4.52,10.09-8.62,15.15-12.93,7.81-6.65,16.06-12.86,23.3-20.08,15.68-15.63,26.25-34.34,32.77-55.58,4.58-14.91,5.4-30.25,7.19-45.51a58.13,58.13,0,0,0,0-10,26,26,0,0,0-1.15-6.18,4.36,4.36,0,0,0-4.73-3.32c-2.82,1-3.48,3.35-3.36,5.85.38,7.89-1.05,15.64-1.76,23.44-1.18,12.94-3.43,25.71-7.91,38-7.29,19.89-18.13,37.44-34.52,51.23-8.55,7.18-17,14.55-25.65,21.56a151.23,151.23,0,0,0-21.68,21.77,87.45,87.45,0,0,1-16.59,15.32c-7.19,5.15-15.32,8.42-23.39,11.71a35.76,35.76,0,0,1-15,2.71c-7.53-.32-15.08-.11-22.62,0-12.87.26-25.12,3-36.37,9.48-1.82,1.05-3.65,2.09-5.66,3.23-1.86-1.14-3.61-2.29-5.43-3.31a23.68,23.68,0,0,0-18.28-2.51A24.19,24.19,0,1,0,190,1500.22c12-3.85,17.42-15.6,16.72-24.2-.2-2.36-.53-4.71-.82-7.26a54,54,0,0,1,19.61-9.15c9.23-2.2,18.56-2,27.92-1.91,6.33,0,12.8.59,19-.49,11.67-2,22.4-7,32.6-13S323.48,1429.73,331.14,1420.7Zm-148.24,70c-7.91-.06-14-6-13.86-13.42a14,14,0,0,1,28.09.29C197.05,1485,190.74,1490.74,182.9,1490.68Z"/><path class="cls-1" d="M1714.39,1377.13c-.25,8.75-.55,17.49-1,26.23-.65,13.1.86,25.78,5.77,38.1a54.77,54.77,0,0,0,16.31,22.39c8.47,7,17.51,12.85,28.68,14.55a27.45,27.45,0,0,1,3.46,1c6.79,1.92,12.88,5,17.7,10.33a88.35,88.35,0,0,0,7.73,7.63,78.12,78.12,0,0,0,8.61,6.55c3.22,2.09,6.26,1.48,7.9-1.17,1.47-2.4,1-4.93-2.07-6.93a75.15,75.15,0,0,1-11.56-10.1c-2.77-2.77-5.74-5.34-8.54-8.09a19.85,19.85,0,0,0-7.55-4.84c-5.7-2-11.33-4.22-17.16-5.68C1750,1464,1741,1455.78,1733.12,1446a13.28,13.28,0,0,1-1.35-2.35,80,80,0,0,1-7.58-47.47c1.68-12.32,2.1-24.65-1.11-36.84-1.92-7.28-3.74-14.6-5.88-21.82-1.81-6.12-3.17-12.28-2.7-18.68.42-5.7.66-11.47,1.78-17,2.73-13.64,6.45-27,14.46-38.71,2-3,3.51-6.26,5.09-9.13-.79-3.38-2-4.58-4-4.84a4.79,4.79,0,0,0-4.66,2.21c-3.26,4.7-6.67,9.33-9.5,14.29-4.66,8.17-7.51,17.09-9.79,26.19-4.57,18.19-5.25,36.22.77,54.36C1712,1356.13,1714.69,1366.41,1714.39,1377.13Z"/><path class="cls-1" d="M412.93,1477.34c-7.22,6.37-13.33,14-21.47,19.36a4.33,4.33,0,0,0-1.23,5.68,5,5,0,0,0,6.08,2.56,37,37,0,0,0,4-2.14c5.1-2.88,8.89-7.29,12.72-11.5,6.38-7,14.36-10.76,23.27-13,.58-.15,1.17-.31,1.76-.42,14.68-2.92,25.45-11.93,35-22.68a31,31,0,0,0,5.41-8.31c4.11-9.72,7.71-19.51,8-30.4a212.82,212.82,0,0,0-.56-25.27,109.8,109.8,0,0,1,5.78-46.33c2.92-8.43,3.77-16.94,3.94-25.77.29-15.4-3.41-29.89-8.86-44.06a79.47,79.47,0,0,0-14.26-24,6.35,6.35,0,0,0-3.89-1.9c-1.92-.18-3.39,1-4.26,3.7a20.07,20.07,0,0,0,4.11,9.13c5.61,7.68,9,16.37,11.72,25.34a144,144,0,0,1,4.58,22.1,64.17,64.17,0,0,1-2.09,28.56c-2.23,7.19-3.87,14.56-5.86,21.83-3.18,11.59-2.8,23.4-1.23,35.06,2.1,15.64.65,30.57-5.66,45.11A40.79,40.79,0,0,1,458,1455.58c-2.1,1.72-4.29,3.33-6.43,5a36.87,36.87,0,0,1-12.91,6.29c-6.08,1.7-12.07,3.78-18.07,5.8A22.33,22.33,0,0,0,412.93,1477.34Z"/><path class="cls-1" d="M211.22,1314c9.82-4.65,19.36-9.85,28.74-15.38a102.68,102.68,0,0,0,25.85-21.06c3.57-4.11,6.94-8.4,10.7-12.32,9.94-10.35,17.4-22.43,24.22-34.88,3.31-6,7.24-11.9,8.68-18.84a7.2,7.2,0,0,0-.13-1.86c-1-2.4-2.69-3.82-5.94-3.18a16.33,16.33,0,0,0-2.07,2.54c-2.36,4.22-4.57,8.52-6.91,12.75-7.17,13-14.58,25.77-25.23,36.34a31.25,31.25,0,0,0-2.87,3.5c-11.07,14.83-25.37,25.7-41.73,34-7.8,4-15.68,7.79-23.49,11.72a47.4,47.4,0,0,0-5.5,3.15c-8.23,5.63-16.4,11.33-24.59,17-9.42,6.53-18.68,13.24-28.95,18.55-10.62,5.5-21.66,7.17-33.33,6.31-6-.44-11.93-1.05-17.9-1.46-3.92-.26-4.7.49-6.73,5.57.6,2.71,2.57,4.07,5,4.59a41,41,0,0,0,6.29.58c3.32.18,6.76-.24,9.93.53,9.77,2.36,19.16.13,28.59-1.8,7.83-1.6,14.67-5.64,21.29-9.78,9.46-5.92,18.49-12.52,27.7-18.83S201,1318.85,211.22,1314Z"/><path class="cls-1" d="M2109.71,1350.93c-5.68.37-11.35.76-17,1.31-12.31,1.2-24-.28-35.06-6.39a185.23,185.23,0,0,1-19.32-11.75c-6.85-5-13.66-10-20.73-14.63-6.81-4.46-13.22-9.51-20.64-13a377,377,0,0,1-33.6-17.79,90.94,90.94,0,0,1-20.35-16.42c-4.67-5.13-9-10.59-13.74-15.64a119.38,119.38,0,0,1-10.68-13.47c-7.14-10.16-12.86-21.15-18.82-32a58,58,0,0,0-3.3-4.84c-3.37-.09-5.09,1.27-5.91,4a18.45,18.45,0,0,0,2.62,8.44c1.42,2.66,2.66,5.42,4.11,8.07,7,12.73,14.26,25.24,24.08,36.08,2.64,2.91,5.16,5.92,7.68,8.94,9.16,11,19.58,20.37,32.15,27.51,10.52,6,21.24,11.49,32,17a57.16,57.16,0,0,1,6.35,3.45c11.21,7.68,22.5,15.25,33.46,23.28a145.27,145.27,0,0,0,25,14.58c9.71,4.51,20.26,5.56,30.9,5.54a9,9,0,0,0,2.7-.28c4.11-1.36,8.36-1,12.58-1.21a50.77,50.77,0,0,0,6.3-.46,6.6,6.6,0,0,0,5.59-4.77C2115.32,1352.61,2113.31,1350.7,2109.71,1350.93Z"/><path class="cls-1" d="M723.12,1792c.35-2.38.38-4.81.5-7.23a68.87,68.87,0,0,1,10-32.54,238.23,238.23,0,0,1,20.74-28.54,94.41,94.41,0,0,1,7.19-8.14c5-4.82,10.35-9.27,15.26-14.16,7.91-7.88,16.08-15.61,21.65-25.46,4.16-7.35,8.32-14.74,11.94-22.36,7-14.74,13.08-29.82,16.15-46,1.91-10.07,4.66-20,5.17-30.28.16-3.13-.71-5.28-4.11-6.25l-3.38,1.39c-.75,2.22-2.1,4.47-2.16,6.76-.22,7.36-2.58,14.24-4.14,21.29-2.74,12.37-5.73,24.64-11.11,36.27-3.93,8.5-8.18,16.83-12.22,25.27-6.26,13.07-16,23.3-25.92,33.41-6.78,6.87-14.67,12.6-20.68,20.25-5.41,6.89-10.86,13.74-16.15,20.72-10.83,14.29-17.39,30.28-18.71,48.27a51.46,51.46,0,0,0,0,7.24,4.89,4.89,0,0,0,4.48,4.87C720.3,1797.06,722.66,1795.15,723.12,1792Z"/><path class="cls-1" d="M1485.62,1776.05a70,70,0,0,0-7.7-24c-5.79-10.67-12.94-20.39-20.52-29.81-4-4.93-7.91-10-12.58-14.23q-13.44-12.16-25.68-25.46c-1.83-2-3.43-4.19-5.09-6.33-4.64-6-7.81-12.89-11.37-19.55-9.3-17.4-16.65-35.53-20.37-55-1.41-7.39-4.19-14.5-4.3-22.18,0-2.3-1.3-4.58-1.91-6.58-5-2.42-5-2.42-7.67,1.88-.14,13.16,3.59,25.34,6.34,37.68a124.4,124.4,0,0,0,3,12.29c5.75,17.26,14,33.41,22.67,49.31a64,64,0,0,0,8.79,12.61c7.78,8.43,15.69,16.8,24.21,24.46a130.37,130.37,0,0,1,14.35,15c4.37,5.4,8.75,10.82,12.61,16.58,6.75,10,13.09,20.36,14.88,32.68.56,3.88.83,7.8,1.23,11.7.18,1.8.17,3.63.51,5.39a4.92,4.92,0,0,0,5.08,4.23,4.76,4.76,0,0,0,4.75-4.53,33.5,33.5,0,0,0,.11-6.33C1486.66,1782.61,1486.07,1779.34,1485.62,1776.05Z"/><path class="cls-1" d="M79.86,1182.5c1.67.67,3.44,1.11,5.17,1.63,12.58,3.79,25.57,3.9,38.53,4,20.34.34,40.27-2.62,59.92-7.72,27.38-7.11,53.24-17.64,76.54-33.92,4.44-3.1,8.7-6.5,12.89-10a19.8,19.8,0,0,0,4-4.81,3.61,3.61,0,0,0-.58-4.21c-1.15-1.47-3.45-2.24-4.84-1.42-1.81,1.06-3.51,2.33-5.22,3.55-5.4,3.85-10.59,8-16.21,11.54-23.51,14.66-48.95,24.53-76,30.54a295.57,295.57,0,0,1-42,6.1c-15.11,1.13-30.09-.66-44.88-4-1.47-.33-2.92-.78-4.41-1-3.41-.5-5.74.72-6.59,3.32S76.7,1181.25,79.86,1182.5Z"/><path class="cls-1" d="M1973.73,1154.17a189.87,189.87,0,0,1-40.78-25,30.89,30.89,0,0,0-4.48-3c-1.39-.79-3.71,0-4.84,1.47-1,1.29-1.46,3-.53,4.2a32,32,0,0,0,6.09,6.57c7.54,5.52,15,11.3,23,16a245.76,245.76,0,0,0,124.24,33.57c4.52,0,9,0,13.56,0,9.15.09,18-2,26.74-4.17a15.13,15.13,0,0,0,5.64-2.67c1-.77,1.4-2.59,1.48-4a4.22,4.22,0,0,0-3.15-4,12.22,12.22,0,0,0-4.47,0c-8.49,2.18-17.15,3.18-25.83,4.28a110.42,110.42,0,0,1-23.47.42,319,319,0,0,1-34.89-4.66A259.8,259.8,0,0,1,1973.73,1154.17Z"/><path class="cls-1" d="M671,1098.46c-11.12-2.88-22-6.5-32.23-11.78a219.51,219.51,0,0,1-44.55-30.88,48.3,48.3,0,0,0-7.42-5.14c-2.88-1.7-5.6-1.2-7.32,1s-1.09,5,1.58,7.1c2.36,1.88,4.89,3.55,7.17,5.52,13.28,11.49,27.34,21.87,42.85,30.18a88.88,88.88,0,0,0,8.85,4.53c19.7,7.89,39.77,14.27,61.29,14.5a15.72,15.72,0,0,1,1.81.12c10.77,1.33,21.48,3.19,32.37,3.47.9,0,1.79.22,2.69.34l22.44,2.85c1.18-.15,2.38-.22,3.55-.46a4.17,4.17,0,0,0,3-4,3.8,3.8,0,0,0-2.32-3.58,17.48,17.48,0,0,0-4.3-1.29c-4.76-.75-9.63-1-14.29-2.11-11.8-2.78-23.87-3.28-35.82-4.74C697.2,1102.44,683.92,1101.81,671,1098.46Z"/><path class="cls-1" d="M1437.66,1120.17h.18c6.73-.57,12.83-.57,18.72-1.69,10.11-1.93,20.43-1.73,30.53-3.58a84.36,84.36,0,0,1,12.58-1.39,133.79,133.79,0,0,0,19.75-2.18c28.56-5,54-16.91,76.85-34.51,3.11-2.4,6.19-4.84,9.25-7.29,4.7-3.77,9.41-7.54,14.06-11.38a4.65,4.65,0,0,0,1.39-5.69,5,5,0,0,0-6.12-2.54,7.91,7.91,0,0,0-1.66.71c-2.27,1.48-4.63,2.86-6.76,4.53-4.51,3.54-8.86,7.27-13.34,10.85-15,12-31.23,21.57-49.38,28a167.34,167.34,0,0,1-31.55,7.84c-11.91,1.74-24,2.57-36,3.77-10.51,1.05-20.81,3.44-31.35,4.15a43.09,43.09,0,0,0-8.8,2,4.1,4.1,0,0,0-3,4.87A4.57,4.57,0,0,0,1437.66,1120.17Z"/><path class="cls-1" d="M2143.65,1269.88a38.73,38.73,0,0,0-5.38-.64c-4.22-.28-8.53,0-12.65-.8-24.51-4.59-46.81-13.87-65.13-31.39a72.67,72.67,0,0,0-18.65-12.7c-15.57-7.59-32-12.54-48.83-16.36a13.4,13.4,0,0,0-4.47-.14,3.69,3.69,0,0,0-3.09,2.93,3.19,3.19,0,0,0,1.57,3.88,63.56,63.56,0,0,0,8.34,3.43c6,2,12.15,3.64,18.2,5.52a124.23,124.23,0,0,1,46.25,25.81c23.12,20.37,51,29.19,83.05,30-.92.13-.32.07.27,0a4.93,4.93,0,0,0,4.29-5A4.67,4.67,0,0,0,2143.65,1269.88Z"/><path class="cls-1" d="M143.37,1246.82c7-6.33,14.52-11.9,23.29-15.48q11.72-4.8,23.69-9c5.4-1.9,11-3.24,16.46-5,2.83-.91,5.94-1.47,7.9-4.83-.13-3.41-1.79-4.82-4.61-4.9a15,15,0,0,0-3.58.43A241.49,241.49,0,0,0,166,1220.74a95.14,95.14,0,0,0-28.18,17.8A110.51,110.51,0,0,1,92.36,1264c-9.91,2.82-19.81,5.28-30.2,5.28a27.22,27.22,0,0,0-7.06,1.21c-1.72.47-2.61,2.42-2.52,4.39a3.83,3.83,0,0,0,2.26,3.63,14.55,14.55,0,0,0,5.21,1c2.09,0,4.18-.84,6.26-.78,13,.38,25-3.68,37-7.74C118.42,1265.89,131.6,1257.51,143.37,1246.82Z"/><path class="cls-1" d="M734.43,1196.28c-.1,1.29-.59,2.8-.23,4.07.44,1.58,2.16,2.07,3.7,2,8.16-.19,16.36-.61,24.2-3a114.31,114.31,0,0,0,35.27-18.16,54.93,54.93,0,0,0,7.42-6.63c5.57-6,10.88-12.13,16.43-18.1a167.49,167.49,0,0,0,26.8-37.45c3.85-7.51,8-14.87,12-22.33a26.23,26.23,0,0,0,1.37-3.8c-1.25-2.85-2.79-4.51-5.5-4.42-2.91,1-4.41,3.26-5.7,5.72-2.38,4.54-4.83,9.06-7.2,13.61-6.55,12.63-13.65,24.91-23.08,35.67-5.37,6.13-10.85,12.17-16.36,18.18-3.06,3.33-6.2,6.58-9.46,9.71-6,5.72-13.16,9.72-20.42,13.35-8.62,4.31-17.55,8.14-27.54,8.28A24.58,24.58,0,0,0,734.43,1196.28Z"/><path class="cls-1" d="M1351.58,1118.38a145.91,145.91,0,0,0,18.46,27.88c5.73,6.62,11.11,13.54,17.06,20,6.35,6.85,12.6,13.87,20.77,18.78s16.07,9.46,25,12.72c9.57,3.5,19.4,4.23,29.36,4.65,1.52.07,3.24-.48,3.63-2.1.32-1.29-.2-2.79-.33-4-4.21-2.37-8.38-2.84-12.58-3.39-4.48-.59-9.06-1.09-13.31-2.51a107.33,107.33,0,0,1-26.61-13.43,78.66,78.66,0,0,1-11.72-9.93c-6.13-6.24-12.11-12.67-17.75-19.37-8-9.48-15.7-19.15-21.35-30.3-4-7.81-8.18-15.49-12.43-23.15a24,24,0,0,0-4-4.83c-.56-.58-1.62-.67-2.35-.95-2.62.85-4.42,2.25-4.71,5.5.47,1,1,2.41,1.74,3.73C1344.15,1104.56,1347.93,1111.43,1351.58,1118.38Z"/><path class="cls-1" d="M600.08,1179c8.36,6.25,15.42,13.51,19.46,23.33.57,1.4,1.29,2.73,1.93,4.1,8.48,18.26,20.87,33.11,38.15,43.69,4.63,2.84,9.36,5.52,14,8.42,7.75,4.88,14.67,10.62,19,19a14.29,14.29,0,0,0,2.12,2.9,4.17,4.17,0,0,0,5.74.3,4.79,4.79,0,0,0,1.54-6.42,52.71,52.71,0,0,0-13.34-17c-6.73-5.71-14.38-10-21.88-14.47-16.84-10.13-28.83-24.46-37-42.22-2.25-4.91-4.66-9.94-8-14.14-7.58-9.55-17.76-16.26-27.55-23.32a6.67,6.67,0,0,0-2.5-1c-2.74-.58-4.74.28-5.79,4.07a19,19,0,0,0,2.32,2.93C592.14,1172.53,596,1176,600.08,1179Z"/><path class="cls-1" d="M1499.12,1272.13a16.32,16.32,0,0,0-1.59,4.19c-.48,1.92.89,4,3,5a4.26,4.26,0,0,0,4.94-1.1,10.88,10.88,0,0,0,1.63-2.15c4.69-9.26,12.39-15.42,21.08-20.59,3.9-2.31,7.77-4.66,11.64-7,17.6-10.67,30.21-25.71,38.79-44.29,1.39-3,3.07-5.89,4.43-8.92a31.66,31.66,0,0,1,6.26-8.8,86.93,86.93,0,0,1,13-11.22,51.21,51.21,0,0,0,11.82-11.21c-1.4-3.73-3.51-4.61-6.14-3.74a18.1,18.1,0,0,0-4.7,2.61c-3.2,2.27-6.26,4.74-9.45,7-10.77,7.73-19.11,17.33-24.24,29.73-4.68,11.31-12.1,20.78-20.8,29.34-6.32,6.22-13.71,10.8-21.23,15.34-5.41,3.27-10.57,7-15.7,10.67C1506.42,1261,1502.48,1266.34,1499.12,1272.13Z"/><path class="cls-1" d="M138,1104.91a14.36,14.36,0,0,0,2.37,1.3c6.69,2.76,13.26,5.91,20.12,8.13a154.73,154.73,0,0,0,28.1,6.78c7,.91,13.85,0,20.75-.35a89.66,89.66,0,0,0,37.26-10.08c9.77-5,18.08-12,26.3-19.08a85.77,85.77,0,0,0,8.28-8.34,5.79,5.79,0,0,0,1.25-4.11c-.17-1.27-1.48-2.39-2.83-4.36a66.25,66.25,0,0,0-6.16,3.82c-4.94,4-9.78,8-14.65,12.08A86.26,86.26,0,0,1,216.56,1110c-19.69,3.19-38.4.57-56.73-6.61-4.77-1.87-9.53-3.77-14.33-5.56a20.62,20.62,0,0,0-4.36-1.09,4.62,4.62,0,0,0-4.8,3.33A4.56,4.56,0,0,0,138,1104.91Z"/><path class="cls-1" d="M1922.23,1087.11c6.83,5.94,13.51,12.14,20.89,17.32a87.45,87.45,0,0,0,34.72,14.77c6.59,1.21,13.21,1.19,19.77,2,7.62,1,15.09.07,22.44-1.58,10-2.24,20-4.66,29.18-9.5a59,59,0,0,1,6.79-2.49c1.69-.64,3.39-1.29,5-2.09a4.64,4.64,0,0,0-2.77-8.81,19.9,19.9,0,0,0-3.48,1c-4.25,1.57-8.52,3.07-12.69,4.82-15.82,6.63-32.15,10.23-49.39,8.55-3.59-.35-7.15-1-10.74-1.41-14.22-1.72-26.46-8.08-37.74-16.45-5.8-4.31-11.12-9.26-16.72-13.84a44.88,44.88,0,0,0-5.23-3.49c-.45-.27-1.16-.1-2.28-.16-.87,1.08-1.92,2.41-2.72,3.41C1917.69,1083,1920,1085.18,1922.23,1087.11Z"/><path class="cls-1" d="M317.35,1354.24a12,12,0,0,0,3.07-.87c10.58-7.1,20.33-15.11,27.37-25.94,3.46-5.31,7-10.58,10.2-16,4.31-7.29,8-14.9,9.82-23.24q1.76-8,3.27-15.94a36.75,36.75,0,0,0,.65-6.28c.07-6.63.07-13.27,0-19.91a22.43,22.43,0,0,0-.84-5.31c-.43-1.66-2.31-2.73-4.26-2.71a3.81,3.81,0,0,0-3.83,3.16,52.45,52.45,0,0,0-.45,8.11c.52,13.71-2,27-5.57,40.13a45.75,45.75,0,0,1-4.4,10.85c-4.22,7.3-8.66,14.51-13.44,21.46s-10.19,13.47-17.5,18.07a45.54,45.54,0,0,0-5.06,3.81C312.33,1347,312.51,1349.59,317.35,1354.24Z"/><path class="cls-1" d="M1836.5,1300.8a161.38,161.38,0,0,0,24.06,37.08c5.77,6.59,12.91,11.69,20.53,16a2.32,2.32,0,0,0,.89.11c5.38-3,6.08-6.7,1.81-10.29-2.77-2.32-5.81-4.31-8.61-6.6a59.86,59.86,0,0,1-6.65-6.07c-8.71-9.72-15.38-20.85-21.69-32.2a27.52,27.52,0,0,1-2.7-6.69c-1.86-7.59-3.54-15.23-5.19-22.88-1.55-7.14-1-14.41-1.25-21.63a39.68,39.68,0,0,0-.74-7.15,3,3,0,0,0-3.35-2.42,6.71,6.71,0,0,0-3.84,1.78,7,7,0,0,0-1.35,4.17c-.18,12.63-1,25.27,2.47,37.74C1832.67,1288.15,1833.6,1294.76,1836.5,1300.8Z"/><path class="cls-1" d="M578.06,1024.33a118.57,118.57,0,0,0,36.63,12.73c6.81,1.25,13.78,1.56,20.64,2.57,11.27,1.66,22.3.26,33.19-2.49a42.44,42.44,0,0,0,9.05-4c1.64-.86,2.95-2.57,2.52-4.45-.37-1.57-1.69-2.92-2.93-4.92-2.48.88-3.9,1.32-5.27,1.89a56.67,56.67,0,0,1-19.39,4.09,149.7,149.7,0,0,1-57.82-8.74c-7.14-2.57-13.94-5.81-19.62-11a16.4,16.4,0,0,0-2.09-1.73,4.8,4.8,0,0,0-6.87,2.11,10.46,10.46,0,0,0-.54,3.33C568.73,1018.74,573.29,1021.66,578.06,1024.33Z"/><path class="cls-1" d="M1626,1009c-.24.18-.46.39-.68.59-6.52,6.19-14.55,9.64-22.89,12.46a148.26,148.26,0,0,1-28.2,6.39c-17,2.22-33.69,3-49.88-4.21-3.21.86-4.52,2.38-4.53,4.76a4.93,4.93,0,0,0,2.82,4.37,38.56,38.56,0,0,0,8.23,3.63c9.1,2.35,18.34,3.83,27.79,3.19,14.17-1,28.24-2.53,41.87-6.89,8.09-2.58,16-5.63,23.19-10.12a62.89,62.89,0,0,0,9.15-7.32,4.6,4.6,0,0,0,.41-6.52C1631.44,1007.19,1628.68,1007.06,1626,1009Z"/><path class="cls-1" d="M532.7,1262.11c2.88,11.19,9.09,20.31,17.34,28.15,3.93,3.74,8.09,7.25,12.19,10.82,6.46,5.63,12,11.92,14.55,20.35a11.85,11.85,0,0,0,1.14,2.45,4.33,4.33,0,0,0,6.25,1.57c1.16-.7,1.87-2.15,2.77-3.25-2.67-11.7-9.22-20.45-17.82-28-5.67-5-11.07-10.26-16.39-15.61a33.53,33.53,0,0,1-8.38-12.8c-3.83-11.42-8.35-22.66-9.57-34.83a14.53,14.53,0,0,0-2.23-5.8,3.76,3.76,0,0,0-3.15-1.09,5.11,5.11,0,0,0-2.78,2,4,4,0,0,0-.65,2.58c.19,3.9,0,7.91.87,11.68C528.49,1247.62,530.82,1254.81,532.7,1262.11Z"/><path class="cls-1" d="M1613.25,1321.92a5.8,5.8,0,0,0,.47,1.3c3.45,4.09,7,3.9,9-.51.51-1.09.79-2.28,1.22-3.41a37.27,37.27,0,0,1,8.9-13.52c2.8-2.74,5.82-5.27,8.71-7.92,3.78-3.47,7.72-6.79,11.23-10.51,4.57-4.83,8.84-10,11.31-16.29a170.75,170.75,0,0,0,9.56-33c.75-4.31,1.41-9-1-13.55l-3.83-.62a8.18,8.18,0,0,0-3.64,6.58c-.71,10.08-4.54,19.34-7.28,28.9a49.4,49.4,0,0,1-13.39,22.23c-4.56,4.41-9.24,8.68-14,12.87C1622,1302.05,1615.45,1310.82,1613.25,1321.92Z"/><path class="cls-1" d="M622.19,1150.42A131.81,131.81,0,0,0,640,1153c9,.48,18.07.32,27.11.27a42,42,0,0,0,8-.93,4.42,4.42,0,0,0,3.72-3.54,4.15,4.15,0,0,0-3.85-4.24,53.08,53.08,0,0,0-6.31-.21c-12.93-.23-25.92.31-38.7-2.33-5.31-1.1-10.54-2.5-15.85-3.54a54.87,54.87,0,0,1-17.65-6.69,75,75,0,0,0-8.08-4c-1.69-.74-3.67-.94-5.14.33-1,.91-1.58,2.39-2.52,3.9,1.16,1.56,1.54,2.53,2.24,3,7.77,4.58,15.36,9.56,24.26,11.8C612.25,1148,617.17,1149.46,622.19,1150.42Z"/><path class="cls-1" d="M1542.37,1153.43c7.53-.09,15.08-.12,22.56-.85,9-.87,17.75-3.21,26.49-5.43,9.48-2.4,17.76-7.32,25.89-12.51.46-.3.71-1,1.81-2.49-.95-1.51-1.56-3.36-2.84-4.24a5.23,5.23,0,0,0-4.29-.23,91,91,0,0,0-9.71,4.78,50.9,50.9,0,0,1-13.37,5.35c-4.4,1-8.76,2.24-13.19,3.07a150,150,0,0,1-17.81,2.75c-9,.6-18.06.51-27.1.7-1.81,0-3.63-.1-5.42.11a4.53,4.53,0,0,0-4.31,3.93c2.2,3.61,2.75,4.27,6,4.5C1532.13,1153.25,1537.26,1153.48,1542.37,1153.43Z"/><path class="cls-1" d="M1011.22,1296l-2.27-1.16A3.11,3.11,0,0,0,1011.22,1296Z"/><path class="cls-1" d="M1007.63,1294.22l-2.34-1.14A2.84,2.84,0,0,0,1007.63,1294.22Z"/><path class="cls-1" d="M1053.45,657.45c.09,1.89.11,4,.35,6.1.17,1.48.65,2.93,1,4.4,3.65,17.13,19,33.46,42.22,37a18.44,18.44,0,0,0,5.4,0c16.43-2.44,29.59-10.21,38-24.73,7-12.1,8.39-25,3.21-38.26a44.94,44.94,0,0,0-23.71-24.92c-8-3.71-16.44-6.16-25.43-4.51-10.28,1.87-19.63,5.85-27.19,13.3C1058.53,634.46,1053.5,644.76,1053.45,657.45Zm48.06,37.28c-7.54.22-12.67-4-12.94-10.77s4.84-11.85,11.92-11.76a11.13,11.13,0,0,1,11.35,11.46C1111.89,690.42,1108.05,694.53,1101.51,694.73Zm-27.11-63.57c24.34-21.19,52.43-6.11,60.1,12.09,5.76,13.68,4,26.57-5.48,38.17a55.82,55.82,0,0,1-5.84,5.66c-.35.32-1,.26-1.91.44-.11-2.12-.14-4.2-.34-6.27a21.23,21.23,0,0,0-20.71-19.11c-10.32-.3-19.93,8.1-21.19,18.58-.25,2.08-.24,4.19-.37,6.62-2.6.18-3.69-1.8-5-3.11a35.53,35.53,0,0,1-11.19-27.63A33.8,33.8,0,0,1,1074.4,631.16Z"/><path class="cls-1" d="M439.93,994.56c-16-30.73-36.93-57.94-60.83-82.9-10.86-11.35-22.85-21.49-35-31.39-2.75-2.24-5.42-4.9-10.5-5.65-1.08,1.35-2.49,2.54-3.15,4.07-.78,1.81.41,3.49,1.57,4.92.94,1.17,2.06,2.21,3,3.4,5.18,6.66,10.78,13,15.4,20.08,17.59,26.72,29.34,56,37.25,86.9,2.84,11.09,5.15,22.31,5.79,33.81.42,7.52,1.07,15,1.46,22.55.52,10.08,3.52,19.5,7,28.86,3.8,10.12,10.84,17.31,19.77,22.82,6.55,4,13.47,5,20.64,1.24a31.12,31.12,0,0,0,8-5.76,36.39,36.39,0,0,0,10.17-21.76,93.29,93.29,0,0,0-1.09-28.81C455.73,1028.42,448.61,1011.18,439.93,994.56Zm-2.27,100.36a29.33,29.33,0,0,1-4.86,1.67c-2.34-1-4.47-1.6-6.1-2.83a10.39,10.39,0,0,1,5.17-18.77c5.49-.4,8.84,1.46,10.94,6.07C445,1085.85,442.78,1092,437.66,1094.92Zm13.84-23c-2.69.49-3.29-1.66-4.56-2.65-10.51-8.28-23.1-6.69-30.91,4-1.18,1.61-2.23,3.31-3.52,5.24a16.6,16.6,0,0,1-1.85-2.68c-3.92-9.9-6.69-20.09-6.41-30.81s-1.32-21-2.92-31.48c-3.1-20.4-8.85-40-16.2-59.25a263.52,263.52,0,0,0-17.88-37.6c-.87-1.51-1.67-3.07-2.5-4.61a274.24,274.24,0,0,1,36.05,38.77,321.74,321.74,0,0,1,37.61,61.79,159,159,0,0,1,12.29,37.79A74.84,74.84,0,0,1,451.5,1071.94Z"/><path class="cls-1" d="M1866.47,874.54c-5.44.9-8.53,4-11.7,6.66-14.35,12-28.38,24.28-41,38.19-17.72,19.51-33.67,40.25-46.94,63-10.37,17.77-19,36.32-24.38,56.29a103.19,103.19,0,0,0-3.2,35c.74,10,4.53,18.82,12.17,25.48,7.08,6.17,15.32,8.81,24.21,4.29,7.58-3.86,14.38-9,18.68-16.63a84.33,84.33,0,0,0,10.58-33.4c.87-8.69,1.18-17.44,1.77-26.16.18-2.71.32-5.43.72-8.1a277.89,277.89,0,0,1,13.87-54.22A297,297,0,0,1,1845,914.17a165.77,165.77,0,0,1,20.4-27.63c2-2.17,4.56-4.1,4.32-8.14Zm-95.13,220.38a28.05,28.05,0,0,1-4.13,1.42c-5.23-.89-7.94-3.27-9.92-7-3.28-6.25,2.09-14.48,8.63-14.4,5.35.07,9.81,2.64,11.23,7.23C1778.7,1087.17,1776.41,1092.32,1771.34,1094.92Zm54.37-165a282.31,282.31,0,0,0-25.66,75.18c-2.53,13-4.86,26.09-4.3,39.5.44,10.74-2.44,20.92-6.23,30.86a15.6,15.6,0,0,1-2,2.87c-10.4-16.92-23.77-18.86-38.67-5.79-1.46-7.71-.84-15.18.53-22.58,2.71-14.65,7.81-28.52,14.29-41.88A333.42,333.42,0,0,1,1817.55,929c5.45-6,11.06-11.82,16.59-17.73l.84,1.11C1831.88,918.22,1828.73,924.05,1825.71,930Z"/><path class="cls-1" d="M620,525.2c-6.45-10.67-19.89-16.86-32.9-12-3.08,1.15-5.86,3.06-8.86,4.46-5.37,2.51-8,7.22-9.79,12.43a34.76,34.76,0,0,0-1.32,8.9c-1,15.21,12.25,29.44,28.68,28.74,7.21.16,13.71-2.58,19.24-7.76A28.1,28.1,0,0,0,620,525.2Zm-26,31.8a6.45,6.45,0,0,1-4.28-2,5.63,5.63,0,0,1-1.37-4.41c.51-1.79,2.15-3.26,3.06-4.52,4.75-.6,6.6,1.93,8.21,5.2C598.53,555.18,596.78,557,594.05,557Zm13.75-2.56a65.37,65.37,0,0,0-1.16-7.67A12.49,12.49,0,0,0,595,537c-5.45-.28-10,1.87-12.72,6.92-1,1.84-1.67,3.83-2.64,6.1-2.25-2-2.86-4.46-3.06-7.09-.29-3.92-.61-8,1.42-11.48,1.78-3.09,3.74-6.38,6.44-8.58,7-5.69,20.22-3.53,26.14,3.87a20,20,0,0,1,4.29,16.1C614.13,547.66,612.51,552,607.8,554.44Z"/><path class="cls-1" d="M1604.63,567.9c16.3.13,28.8-13.89,28.26-28,.69-18.38-13.73-26.68-28.86-28.49-17.62.77-27.72,14.13-28,27.58C1575.71,554,1588.24,567.77,1604.63,567.9Zm5.51-12.84a6.36,6.36,0,0,1-4.26,1.94c-2.71,0-4.44-1.83-5.3-4.83.49-4,2.84-6.21,7.81-6.17,1,1.44,2.65,2.91,3.15,4.7C1611.9,552,1611.11,554,1610.14,555.06Zm-24.62-20.29c1.73-8.06,7.26-13,15.42-14.65,13.59-2.67,21.41,6.89,22.51,17.42.43,4.18.38,8.44-2.43,12.06-1.85,0-1.35-1.57-1.8-2.42-.57-1-.91-2.23-1.49-3.28-2.75-5-7.3-7.19-12.74-6.9a12.49,12.49,0,0,0-11.63,9.79,66.88,66.88,0,0,0-1.17,7.65C1584.77,549.68,1583.89,542.38,1585.52,534.77Z"/><path class="cls-1" d="M2017.1,1471.06a5.81,5.81,0,0,0-5.32,5.18,4.87,4.87,0,0,0,4.22,5,5.75,5.75,0,0,0,5.81-5.6A5,5,0,0,0,2017.1,1471.06Z"/><path class="cls-1" d="M182.77,1471.05a5,5,0,0,0-4.58,4.7,5.73,5.73,0,0,0,5,5.42,4.78,4.78,0,0,0,5-4.16A5.78,5.78,0,0,0,182.77,1471.05Z"/><path class="cls-1" d="M1100,0C492.49,0,0,492.49,0,1100S492.49,2200,1100,2200s1100-492.49,1100-1100S1707.51,0,1100,0Zm576.15,1052.62c.89,19.74,4.33,39,12.22,57.23,8.33,19.28,20.46,35.53,37.89,47.5,15.43,10.61,32.51,15.2,51.3,14.44,21.76-.87,40.43-9.36,57.25-22.34,23.37-18,38.77-42,49.43-69.16,1-2.52,1.84-5.09,2.8-7.75,2.34,1.82,2.48,4.29,2.76,6.65.54,4.48,1,9,1.4,13.48a32.63,32.63,0,0,1,.08,4.53c-1.6,34-13.38,63.53-38,87.45-18.52,18-40.74,28.92-66.13,33.21a101.39,101.39,0,0,1-21.61,1.69c-11.11-.55-22.24-1.7-33-5.11-37-11.75-63.43-35.32-79-70.81a108.38,108.38,0,0,1-8.64-33.16c-.53-5.4-1.43-10.75-1.21-16.2,1.24-29.92,10.68-56.74,30.2-79.72a61.74,61.74,0,0,1,4.56-4.38c1.79,2.69.81,5.07.43,7.31C1676.92,1029.11,1675.61,1040.8,1676.15,1052.62Zm211-17.9a262.75,262.75,0,0,1-14.4,46.67c-8.94,22.16-22,41.59-40.35,57.2a101.44,101.44,0,0,1-37.91,20.61,72.67,72.67,0,0,1-32.28,2.2c-20.59-3.4-37-14-49.88-30.3-19.83-25.14-26-54.61-26.86-85.7,1.67-10.13,1.26-20.45,3.32-30.57a207.36,207.36,0,0,1,15.61-47.16A261.67,261.67,0,0,1,1734,920c5-6.45,10.5-12.47,15.48-18.91a277.58,277.58,0,0,1,22.76-25.81,453.64,453.64,0,0,1,45-39.3c38.68-29.77,80.42-54.6,124.06-76.32,28.67-14.27,58.06-26.94,88-38.36q36-13.73,73-24.42c3.19-.93,6.44-1.68,9.55-2.82a5.59,5.59,0,0,0,1.35-.74q4.18,10.44,8.18,21c-.82.2-1.63.44-2.44.71-3.73,1.22-7.49,2.36-11.18,3.69-26.71,9.67-50.59,24.31-72.67,41.94-30.22,24.13-55.6,52.79-77.09,84.85A423,423,0,0,0,1906.52,951a387.3,387.3,0,0,0-13.42,52.6C1891.27,1014,1889.23,1024.36,1887.16,1034.72ZM1136,18.11c.28,3.62.71,7.22,1,10.83.81,9.62,1.33,19.28,2.44,28.87,2,17.07,4.25,34.12,6.54,51.15,1.93,14.35,3.73,28.74,6.21,43,4.28,24.66,8.51,49.32,13.54,73.85,5.39,26.32,10.9,52.6,17.41,78.64,7.32,29.27,15.29,58.39,24.81,87.05,6.85,20.64,13.88,41.19,22.88,61,5.11,11.27,9.93,22.68,14.75,34.09a283.86,283.86,0,0,1,21.64,90.28c1.14,15.41.15,30.83-1.9,46.08a211.48,211.48,0,0,1-17,59.88c-11.84,26-28.3,48.41-50.66,66.33a151,151,0,0,1-71.17,31.68,145.3,145.3,0,0,1-15.26,1.81c-12.08.69-24.17.59-36.1-1.65a228.3,228.3,0,0,1-22.93-5.16,143.2,143.2,0,0,1-35.25-16.3c-27.93-17.51-48.19-41.84-62.73-71.1-13.51-27.17-19.78-56.27-21.47-86.37a220.38,220.38,0,0,1,.89-33.47,286.12,286.12,0,0,1,12.93-61c5.2-16.13,12.24-31.52,19-47,7-16,14.08-32.08,19.51-48.75,5.7-17.5,11.51-35,16.72-52.63,5.48-18.51,10.69-37.13,15.31-55.87,5.19-21.09,9.79-42.33,14.28-63.58,3.61-17.11,6.82-34.31,10-51.52,2.91-16,5.59-32.09,8.16-48.17q3.29-20.55,6-41.19c1.54-11.66,2.77-23.36,4-35.06,1.68-16.51,3.23-33,4.78-49.56a41.47,41.47,0,0,0,.06-5.23q9.06-.3,18.13-.44c-.12,3.6-.23,7-.4,10.32q-1.47,28-3,56.08c-.72,13-1.49,25.93-2.24,38.89,0,.61-.12,1.21-.18,1.81-1,11.12-2,22.23-3,33.36-.86,9.92-1.53,19.87-2.52,29.78-1.46,14.71-3.11,29.4-4.73,44.1-1.39,12.6-2.67,25.22-4.34,37.78-2,14.66-4.45,29.24-6.43,43.89-3.1,23-7.26,45.91-11.73,68.7-5.41,27.61-12.88,54.69-24,80.6-8.92,20.81-18.22,41.46-27.57,62.09-12.78,28.17-23.43,57-26.72,88-.83,7.84-1.26,15.64.1,23.46.83,4.76,1.71,9.52,2.29,14.31a137.37,137.37,0,0,0,9.61,35.75c12.06,29.4,31,53,58.6,69.28,18.3,10.8,38.32,16,59.28,18.11,8.52.85,16.92-.78,25.17-2.31,27.5-5.1,51.39-17.5,70.92-37.58,17.61-18.11,29.4-39.7,36.27-64,3-10.78,4.37-21.88,6.19-32.89a85.45,85.45,0,0,0,.65-19.88c-.35-5.11-1.11-10.21-1.94-15.27-3.91-23.7-11.63-46.22-21.38-68.08-8.37-18.75-17.09-37.35-25.33-56.16-10.07-23-18.85-46.46-24.56-70.95-3.35-14.4-6.45-28.87-9.08-43.41-3.54-19.6-6.7-39.27-9.67-59-2.33-15.52-4.2-31.1-6.12-46.68-2.24-18.27-4.52-36.54-6.41-54.84-1.67-16.21-2.88-32.47-4.2-48.72-1.27-15.64-2.42-31.29-3.62-46.94-.07-.9-.1-1.81-.16-2.71-1-13.86-2.06-27.7-2.8-41.56-.81-15.13-1.31-30.26-2-45.39q9,.13,18,.43Q1135.62,13.61,1136,18.11Zm-26.33-9.55c.27,9.69.42,19.76.9,29.83.83,17.49,1.87,35,2.86,52.47q1.15,20.36,2.4,40.7c.46,7.23,1.08,14.45,1.65,21.67.65,8.13,1.19,16.26,2,24.37,1.46,14.11,3.38,28.17,4.62,42.29,1.34,15.34,3.48,30.57,5.35,45.85q3.91,31.89,9.13,63.58c4.51,27.72,9.93,55.25,17,82.41A329,329,0,0,0,1171.4,458c1.19,2.77,2,5.7,3.1,8.51,1.74,4.5,3.43,9,5.39,13.43,2.58,5.79,5.47,11.44,8.1,17.21,3.76,8.24,7.14,16.67,11.15,24.79a291.27,291.27,0,0,1,18.4,46.22,145.89,145.89,0,0,1,6.23,31.92,177.31,177.31,0,0,1-1,37c-2.11,14.78-5.76,29-12,42.54-12.9,28.14-32.58,50-60.73,63.51-21.45,10.28-44,14.81-67.74,10.55-21.84-3.93-41.57-12.85-58.41-27.34-19.71-17-33.2-38.15-40.88-63a171.58,171.58,0,0,1-6-28.28,157.64,157.64,0,0,1,2.15-54,203.09,203.09,0,0,1,12.1-37.91c6.46-15,13-29.92,20.12-44.57a521,521,0,0,0,20.42-48.35c5.1-13.87,10.22-27.77,13.42-42.27,2.4-10.9,5.06-21.74,7.54-32.63,4.82-21.19,8.26-42.65,11.65-64.1,2.39-15.19,4.15-30.48,6.06-45.74,2.3-18.26,4.66-36.52,6.62-54.81,1.67-15.6,2.83-31.26,4.17-46.9.7-8.12,1.29-16.25,1.94-24.37,1-12.64,2.23-25.27,3-37.93,1.06-18.39,1.75-36.81,2.62-55.21.08-1.81.34-3.61.45-5.42.65-10.83,1-21.66,1-32.3,3.27,0,6.53-.06,9.8-.06S1106.43,8.53,1109.64,8.56ZM521,1017.15a39.65,39.65,0,0,1-.46-4.5,15.83,15.83,0,0,1,.7-2.93c2.14,2.14,3.73,3.5,5.06,5.08a123.18,123.18,0,0,1,28,60c1.44,8.6,2.64,17.34,2,26.13-1.84,25.26-9.42,48.48-24.83,68.84-19.66,26-45.56,42.45-77.55,47.69-43.93,7.21-81.8-5.84-112.42-38.28-16.8-17.8-26.8-39.32-30.83-63.43a116.09,116.09,0,0,1-.22-37.8,37.17,37.17,0,0,1,1.62-5.15c2.06.67,1.68,2.42,2.31,3.55a25.25,25.25,0,0,1,1.26,3.38c9.11,23.74,22.15,44.92,40.87,62.34,14.41,13.39,30.87,23.34,50.2,27.63,23.44,5.21,45.69,1.92,65.87-11.52A103,103,0,0,0,507,1119.3c8.64-16.57,13.4-34.1,15.69-52.58C524.76,1050,523.84,1033.6,521,1017.15Zm-6.72,36.24c-.22,2.71-.82,5.39-.93,8.09a120.88,120.88,0,0,1-5.8,31.06c-5.83,18.76-15,35.62-29.63,49-13.59,12.47-29.5,19.71-48.1,20.54-13.57.6-26.35-2.58-38.58-8.25-14.21-6.59-26.17-16.17-36.5-27.82a154.69,154.69,0,0,1-30.32-52.14c-5.39-15.4-10.48-30.84-13-47.06-1.54-10.14-3.58-20.21-5.73-30.24-9.2-42.8-24.09-83.47-45.68-121.63-15.83-28-34.24-54.07-56.06-77.7-20-21.63-42-40.84-67-56.46-17-10.59-34.8-19.39-54-25.2-1.44-.44-2.86-.93-4.34-1.26q4-10.56,8.21-21A65.71,65.71,0,0,0,94,695.93c15.27,4.77,30.68,9.11,45.81,14.29a958.82,958.82,0,0,1,145.22,63.16c42.11,22.74,82.2,48.51,118.62,79.7,12.15,10.41,24.09,21.11,34.46,33.39,8.18,9.69,16.72,19.09,24.49,29.09C479,936.63,493.11,959,502.59,984.2c7.53,20,10.65,40.79,11.9,62A53.08,53.08,0,0,1,514.28,1053.39Zm1591.45,471.47A1091.79,1091.79,0,0,1,75.73,722c1.61.61,3.23,1.17,4.86,1.72a227.14,227.14,0,0,1,33.3,14.2,285.73,285.73,0,0,1,56.38,39.26,375.05,375.05,0,0,1,49.17,53.14A421.94,421.94,0,0,1,274.21,926a389.73,389.73,0,0,1,23.38,77c2.73,14.52,4.5,29.23,8.36,43.53,1.09,4,.09,7.66-1.39,11.41-5.75,14.57-7.38,29.78-6.46,45.3a133.62,133.62,0,0,0,9.68,43.07A136.43,136.43,0,0,0,338.23,1192a126.76,126.76,0,0,0,36.94,25.83c22.62,10.27,46.32,15,71.37,12,17.92-2.18,34.85-7,50.62-15.86q45-25.2,62.32-73.7a131.93,131.93,0,0,0,7.44-43.54,128.23,128.23,0,0,0-2.79-27,132,132,0,0,0-20.9-48.75c-7.06-10.24-15.13-19.62-25-27.34a15.89,15.89,0,0,1-5.5-8.07,116.45,116.45,0,0,0-4.39-11.87,273.63,273.63,0,0,0-19.61-36.74c-11.46-18.22-25.09-34.75-39-51.1a360.9,360.9,0,0,0-42.52-42c-27.05-22.86-56.12-42.91-86.55-61a916.49,916.49,0,0,0-85.85-44.93q-36.25-16.65-73.71-30.28c-21.28-7.76-42.78-14.84-64.58-21a53.51,53.51,0,0,0-6.49-1.38c1.39-3.38,2.78-6.76,4.2-10.12A1089.73,1089.73,0,0,1,1055.87,9.39c-.72,7.79-1.35,15.58-2.1,23.35-.84,8.72-1.68,17.43-2.72,26.12-1.41,11.69-3,23.36-4.55,35-2,14.65-3.76,29.34-6.14,43.93-3,18.46-6.7,36.8-9.85,55.24-5.33,31.25-12.31,62.16-19.52,93q-10,42.78-22.86,84.79c-8.29,27.15-17.54,54-29.15,79.94-3,6.61-5.78,13.29-8.37,20.05-3.35,8.74-6.17,17.68-9.61,26.38a255.64,255.64,0,0,0-17.5,77.42,234.93,234.93,0,0,0,1.2,47c3.72,27.49,11.25,53.67,24.44,78.19a185.15,185.15,0,0,0,42.07,52.86,166.78,166.78,0,0,0,70.26,36c13,3.22,26.22,4.21,39.52,4.17a155.24,155.24,0,0,0,33.3-3.2c40.19-8.9,72.85-29.78,98.38-62a192,192,0,0,0,27.19-46.86,224,224,0,0,0,17-78.34,265.16,265.16,0,0,0-1.34-38c-2-17.49-5.26-34.62-10.94-51.24-5.56-16.28-11.52-32.43-17.32-48.63-.41-1.13-.94-2.22-1.45-3.32-14.82-31.83-26.28-64.88-36.24-98.51q-12.48-42.12-22.42-84.9c-6.6-28.53-12.92-57.11-17.82-86-3.19-18.73-7-37.36-9.94-56.14-3.44-22.36-6.22-44.83-9.22-67.27-.76-5.68-1.36-11.39-1.94-17.09-.81-8.11-1.53-16.22-2.32-24.33-.49-5.11-1-10.21-1.57-15.3-.09-.83-.22-1.65-.36-2.46a1092.93,1092.93,0,0,1,961.77,665.75c1.4,3.31,2.77,6.64,4.14,10a6.77,6.77,0,0,0-1,.13c-3.24.68-6.44,1.63-9.62,2.56a981.45,981.45,0,0,0-152,58.53c-41.92,20.36-82.3,43.33-120.08,70.71-26.48,19.19-51.58,39.92-73.22,64.59-15.56,17.73-30.62,35.83-43.12,55.91-9.43,15.16-18,30.74-23.55,47.83a18.47,18.47,0,0,1-6.12,8.71,133.78,133.78,0,0,0-39.77,56.34,128.92,128.92,0,0,0-6.74,65.89,131,131,0,0,0,37.74,74.68c25.12,25.09,55.7,37.62,90.79,39.69,5.67.34,11.43-.56,17.14-.93a120.29,120.29,0,0,0,45.17-12.27c30.23-14.71,52.34-37.6,65.55-68.55,8.75-20.51,12.79-41.93,10.33-64.46-1-9.1-2.38-18-6-26.37-2-4.76-2-9.19-.83-14.08,1.85-7.92,3.29-16,4.68-24,2.79-16.06,5.86-32,10.35-47.74a430.15,430.15,0,0,1,48.72-109.77c22-35.39,48.61-66.91,81-93.34,24.78-20.24,51.85-36.43,82.51-46.19.82-.26,1.64-.56,2.44-.87a1085.7,1085.7,0,0,1,45,157.88,1102,1102,0,0,1,0,440A1086,1086,0,0,1,2105.73,1524.86Z"/><path class="cls-1" d="M1001.66,1291.24a2.75,2.75,0,0,0,2.28,1.16l-.5-.27.53.27h0l.85.43.5.25,0,0,2.44,1.19h-.08l.81.4.51.26-.05-.1,2.87,1.34-.55-.08.82.42.51.1-.11-.15.55.24-.44-.09c.39.55.8,1.1,1.69.64,1.55.67,3.12,1.33,4.69,2a2.42,2.42,0,0,0-.33.2l1.34.21,1.76.71c.36.51.75,1,1.54.59q2.35.9,4.73,1.74l-.1.19.77.2-.16-.21A214.66,214.66,0,0,0,1100,1315c118.74,0,215-96.26,215-215s-96.26-215-215-215-215,96.26-215,215A215,215,0,0,0,1001.66,1291.24ZM893.5,1100a206.75,206.75,0,0,1,126.12-190.28q9.36-4,19-7c41.58,14.53,75.3,38.51,101.39,72.92,27.59,36.39,41,77.71,42.27,123,.25,8.82-.75,17.69-1.53,26.51a113.25,113.25,0,0,1-2.53,15.73c-2,8.62-4,17.29-6.76,25.69a221.11,221.11,0,0,1-9.57,23.86,167.68,167.68,0,0,1-10.63,19.48c-4.76,7.49-9.91,14.78-15.37,21.79a179.27,179.27,0,0,1-14.8,16.62,196,196,0,0,1-17.29,15.42c-6.78,5.31-13.9,10.23-21.14,14.91-12.63,8.14-26.27,14.23-40.64,19.58A206.3,206.3,0,0,1,893.5,1100Z"/></svg>