<svg xmlns="http://www.w3.org/2000/svg" x="0px" y="0px" viewBox="0 0 60 60" style="enable-background:new 0 0 60 60;" xml:space="preserve">
<style type="text/css">
	.st0{fill:#ff8000;}
</style>
<path class="st0" d="M0,53.1C0,37.7,0,22.3,0,6.9c0-0.1,0-0.1,0-0.2c0-0.2,0-0.4,0.1-0.7c0.4-2.1,1.5-3.8,3.3-5c1-0.6,2-1,3.1-1.1
	C6.7,0,6.8,0,6.9,0c15.4,0,30.8,0,46.1,0c0,0,0.1,0,0.1,0c0.3,0,0.5,0.1,0.8,0.1c2,0.4,3.6,1.4,4.8,3.1c0.7,1,1.1,2.1,1.2,3.4
	c0,0,0,0.1,0,0.1c0,15.5,0,31,0,46.6c0,0.1,0,0.2,0,0.3c-0.1,0.5-0.2,1-0.3,1.5c-0.9,2.6-3.2,4.5-6,4.9c-0.1,0-0.2,0-0.4,0.1
	c-15.5,0-31,0-46.5,0c0,0-0.1,0-0.1,0c-0.5,0-1.1-0.2-1.6-0.3c-2.8-0.9-4.8-3.4-5.1-6.3C0,53.2,0,53.2,0,53.1z M9.5,29.3
	c0,3.4,0,6,0.1,8.6c0,0.8,0.1,1.7,0.2,2.5c0.1,1,0.4,2,0.8,3c0.8,2.1,2.2,3.8,4,5c1,0.7,2.1,1.1,3.3,1.4c1.2,0.3,2.3,0.5,3.5,0.5
	c1.1,0,2.1,0.1,3.2,0.1c1.6,0,3.1,0,4.7,0c2.9,0,5.8,0,8.7-0.1c0.8,0,1.6-0.1,2.4-0.2c0.9-0.1,1.8-0.3,2.7-0.6
	c2.2-0.8,3.9-2.1,5.2-3.9c0.7-1,1.2-2.1,1.5-3.2c0.3-1.1,0.5-2.3,0.6-3.5c0.1-1.1,0.1-2.3,0.1-3.4c0-1.8,0-3.6,0-5.4
	c0-2.7,0-5.4-0.1-8.2c0-0.8-0.1-1.6-0.2-2.3c-0.1-0.9-0.3-1.7-0.6-2.6c-0.7-2.1-2-3.8-3.8-5.1c-1-0.8-2.2-1.3-3.4-1.6
	c-1.2-0.3-2.3-0.5-3.5-0.6c-1.1-0.1-2.2-0.1-3.4-0.1c-1.1,0-2.1,0-3.2,0c-3.5,0-7,0-10.5,0.1c-0.8,0-1.5,0.1-2.3,0.2
	c-1,0.1-2,0.4-2.9,0.7c-2.1,0.8-3.8,2.2-5.1,4c-0.6,0.9-1,1.9-1.3,3c-0.4,1.3-0.5,2.5-0.6,3.9c0,1.1-0.1,2.1-0.1,3.2
	C9.5,26.4,9.5,28.2,9.5,29.3z"/>
<path class="st0" d="M29.1,46.8c-1,0-3,0-4.9,0c-1,0-2.1-0.1-3.1-0.1c-1-0.1-1.9-0.2-2.9-0.5c-1.5-0.5-2.8-1.5-3.6-2.9c-0.4-0.7-0.7-1.5-0.9-2.3
	c-0.2-0.6-0.2-1.2-0.3-1.8c-0.1-1.6-0.2-3.2-0.2-4.8c0-2.9,0-5.8,0-8.7c0-1.4,0-2.8,0.1-4.1c0.1-1,0.2-1.9,0.4-2.8
	c0.2-0.8,0.5-1.6,1-2.2c0.9-1.2,2-2.1,3.4-2.5c0.7-0.2,1.4-0.4,2.1-0.5c0.6-0.1,1.3-0.1,1.9-0.1c2-0.1,3.9-0.1,5.9-0.1
	c2.4,0,4.7,0,7.1,0c1.2,0,2.4,0.1,3.6,0.1c1,0.1,2,0.2,2.9,0.5c1.5,0.5,2.7,1.3,3.6,2.6c0.5,0.7,0.8,1.4,1,2.2
	c0.2,0.6,0.3,1.2,0.4,1.8c0.1,0.7,0.1,1.5,0.1,2.2c0.1,3.6,0.1,7.1,0.1,10.7c0,1,0,2,0,3c0,0.9-0.1,1.8-0.1,2.7
	c-0.1,1-0.3,2.1-0.6,3c-0.8,2-2.1,3.3-4.1,4c-0.7,0.3-1.5,0.4-2.2,0.5c-0.7,0.1-1.4,0.1-2,0.1C35.1,46.8,32.6,46.8,29.1,46.8z
	 M30,40.5c5.9,0,10.5-4.8,10.5-10.5c0-5.8-4.7-10.5-10.5-10.6c-5.8,0-10.6,4.7-10.6,10.5C19.5,35.8,24.2,40.5,30,40.5z M38.5,19.1
	c0,1.4,1.1,2.5,2.5,2.5c1.4,0,2.5-1.1,2.5-2.5c0-1.4-1.1-2.5-2.5-2.5C39.6,16.6,38.5,17.7,38.5,19.1z"/>
<path class="st0" d="M23.2,30c0-3.8,3.1-6.8,6.9-6.8c3.8,0,6.8,3.1,6.8,6.9c0,3.7-3,6.8-6.9,6.8C26.2,36.8,23.2,33.8,23.2,30z"/>
</svg>
