<svg xmlns="http://www.w3.org/2000/svg" x="0px" y="0px" viewBox="0 0 60 60" style="enable-background:new 0 0 60 60;" xml:space="preserve">
<style type="text/css">
	.st0{fill:#ff8000;}
</style>
<path class="st0" d="M60,6.6c-0.1-1.2-0.5-2.4-1.2-3.4C57.6,1.6,56,0.5,54,0.1c-0.3-0.1-0.5-0.1-0.8-0.1c0,0-0.1,0-0.1,0C37.7,0,22.3,0,6.9,0
	C6.8,0,6.7,0,6.6,0.1C5.4,0.2,4.4,0.5,3.4,1.2C1.6,2.3,0.5,4,0.1,6.1c0,0.2-0.1,0.4-0.1,0.7c0,0.1,0,0.1,0,0.2c0,15.4,0,30.8,0,46.1
	c0,0.1,0,0.2,0.1,0.2c0.2,2.9,2.3,5.4,5.1,6.3c0.5,0.2,1,0.3,1.6,0.3c0,0,0.1,0,0.1,0c15.5,0,31,0,46.5,0c0.1,0,0.2,0,0.4-0.1
	c2.8-0.3,5.1-2.2,6-4.9c0.2-0.5,0.3-1,0.3-1.5c0-0.1,0-0.2,0-0.3c0-15.5,0-31,0-46.6C60,6.7,60,6.7,60,6.6z M45.1,25.5
	c-3.1,0-6-0.9-8.6-2.8c0,0.1,0,0.1,0,0.2c0,1.6,0,3.3,0,4.9c0,2.2,0,4.4,0,6.7c0,1.9-0.5,3.7-1.4,5.4c-1.6,2.7-4,4.5-7.1,5.2
	c-0.9,0.2-1.9,0.3-2.8,0.2c-4.9-0.3-8.8-3.8-9.9-8.3c-0.2-1-0.3-1.9-0.3-2.9c0.2-4.5,3.2-8.4,7.4-9.8c1.3-0.4,2.6-0.6,4-0.5
	c0.2,0,0.4,0,0.7,0.1c0,0,0.1,0,0.1,0c0,1.9,0,3.8,0,5.8c-0.2,0-0.4-0.1-0.6-0.1c-1.9-0.4-4,0.5-5.1,2.1c-0.7,1-0.9,2-0.9,3.2
	c0.1,2.3,1.9,4.2,4.1,4.6c2.8,0.5,5.4-1.2,5.9-4c0.1-0.3,0.1-0.6,0.1-0.9c0-0.1,0-0.2,0-0.3c0-7.6,0-15.3,0-22.9c0-0.1,0-0.1,0-0.2
	c2,0,4,0,6,0c0,2.3,0.8,4.3,2.5,5.9c1.6,1.6,3.6,2.4,5.9,2.5C45.1,21.5,45.1,23.5,45.1,25.5z"/>
</svg>
