<svg id="Warstwa_1" data-name="Warstwa 1" xmlns="http://www.w3.org/2000/svg" viewBox="0 0 2200 2200"><defs><style>.cls-1{fill:#ded1a6;}</style></defs><path class="cls-1" d="M1100,0C492.49,0,0,492.49,0,1100S492.49,2200,1100,2200s1100-492.49,1100-1100S1707.51,0,1100,0ZM2181.06,948.5a14.56,14.56,0,0,0-5.95,1.34,49.19,49.19,0,0,1-24.52,5c-1.47-.07-3,.52-4.46.68a99.55,99.55,0,0,1-19.07.05c.24-2.11,1.59-2.84,2.7-3.78,4.14-3.51,8.27-7,12.35-10.61s8-7.35,12.21-10.79c6.65-5.45,13.66-10.17,22.14-11.9Q2179,933.45,2181.06,948.5Zm-50.61,17.58c4.51.19,9,.32,13.55.22s9-.74,13.52-.72a33.06,33.06,0,0,0,14.94-3,28.9,28.9,0,0,1,10.07-3q2.38,18.58,4.13,37.3c-3.1.18-6.62.51-8.27.73-8.94,1.2-18,1.47-26.77,4.06a45.89,45.89,0,0,1-8,1.63c-12.47,1.38-24,5.68-35.16,11.15-9.21,4.51-18.47,8.94-27.84,13.11-3.83,1.7-7.94,3.41-12,3.7a202.12,202.12,0,0,1-23.48,0,23.4,23.4,0,0,1-14.67-6.32,59.53,59.53,0,0,0-8.15-5.67c-4.36-2.7-8.84-5.2-13.22-7.87-.9-.55-2.25-1-1.88-2.57.43-.43.79-1.09,1.28-1.22,3.21-.85,6.41-2.05,9.67-2.26,8.72-.54,16.47-3.67,23.62-8.35a100.38,100.38,0,0,1,21.94-10.64,97.84,97.84,0,0,0,17.13-8.17c4.42-2.6,8.88-5.15,13.45-7.46,7.37-3.72,15.13-6,23.52-5.53C2122,965.46,2126.24,965.89,2130.45,966.08Zm44-59.19c-9.43,3.92-19,7.52-26.78,14.63-3.77,3.47-7.84,6.64-11.45,10.27a103.51,103.51,0,0,1-31.85,22c-11.37,5-22.14,11.05-32.86,17.23a47.9,47.9,0,0,1-8.92,4.38,118.58,118.58,0,0,0-28.34,14,31.41,31.41,0,0,1-13.41,5.08,79,79,0,0,0-23.45,6.46,31.49,31.49,0,0,1-12.27,2.68c-11,.41-21.51,2.76-31.1,8.48a45.66,45.66,0,0,1-4.84,2.44c-7.17,3.2-14.31,6.45-21.55,9.48-4.5,1.88-5.82,1.69-11.22-.42a23.56,23.56,0,0,1,11.93-7.79,80.62,80.62,0,0,0,11.84-4.45c8.92-4.42,17.66-9.2,26.5-13.78,3.21-1.66,6.46-3.27,9.79-4.71q14.12-6.1,28.32-12a49,49,0,0,0,12.37-7.41c7.25-5.91,14.58-11.73,21.71-17.77,5.75-4.87,11.29-10,16.88-15,6.72-6.07,13.05-12.63,20.17-18.18,10.57-8.24,19-18.52,28.31-28a46.33,46.33,0,0,0,4.77-6.59c2.55-3.73,4.95-7.57,7.58-11.25a33.36,33.36,0,0,0,5.73-12.18c1.77-7.92,6-15.16,6.63-23.4a10,10,0,0,1,.87-2.57c2.35-6.21,4.57-12.47,7.08-18.61,3.38-8.28,6.79-16.55,11.68-23.78q12,41.58,20.73,84Q2172.07,893.4,2174.47,906.89Zm-517.92,29.84c-1.7-5.75-3.47-11.49-5.09-16.85,1.23-2.24,2.75-1.87,4.15-1.41a50.7,50.7,0,0,1,5.91,2.26c6.59,3.1,13.56,4.93,20.59,6.7,5.22,1.32,10.51,2.46,15.09,5.79,3.17,2.32,6.91,2,10.21-.21a95.91,95.91,0,0,0,8.76-6.37,169.46,169.46,0,0,1,19.56-14.54c9.52-5.88,17.93-13.25,26.33-20.58,12.27-10.7,24.62-21.31,37.82-30.86,2.43-1.76,4.95-3.38,7.43-5.07l1,.91c-5.38,14-10.28,28.26-16.31,42-4.59,10.45-10.59,20.29-16.06,30.35a30.61,30.61,0,0,1-3.31,4.28,14.58,14.58,0,0,1-1.76,2.07c-6.35,5.54-10,13.79-17.66,18-7.45,4.07-13.89,9.56-20.85,14.32a24.91,24.91,0,0,1-3.16,1.75c-8.7,4.16-17.38,8.35-26.12,12.42a44.19,44.19,0,0,1-8.43,3.21c-8.28,1.91-16.06,5.1-23.76,8.57-3.22,1.45-6.39,3.22-10.61,3.34-.19-2.1-.53-4.13-.52-6.15,0-10.26.1-20.51.32-30.76C1660.3,951.92,1658.77,944.28,1656.55,936.73Zm72.72-77.07a5.6,5.6,0,0,0,6.82-3,32.65,32.65,0,0,0,1.47-3.31c4.5-11,10.62-20.89,19.31-29.17,5.24-5,10.06-10.42,15.11-15.62,3.43-3.53,4.75-7.48,3.31-12.39-1.62-5.49-2.65-11.13-5.25-16.33-2.3-4.58-4.23-9.34-6.23-14.06-.38-.89-1.47-2-.07-2.82,6.34,4.24,12.34,8.82,18.87,12.45,6.8,3.79,13.76,7.46,21.64,10,2.83-1.52,6-2.76,8.59-4.68,6.09-4.45,12.13-9,17.82-13.92a55,55,0,0,1,13.53-8.92c2.48-1.12,4.93-2.29,7.41-3.38,7.21-3.18,14.14-6.75,20.05-12.13a142.93,142.93,0,0,1,11.31-9c3.63-2.68,7.35-5.29,11.22-7.6a25.46,25.46,0,0,1,14.68-3.85c5.2.31,10.21-1,15.17-2.2,17-4.23,33.87-8.75,50.84-13q13.16-3.3,26.44-6.12a221.62,221.62,0,0,0,32.15-9.14,323.8,323.8,0,0,1,33.66-10.5c12-3.09,24.16-5.22,36.25-7.81.45-.1.9-.21,1.34-.33l1,2.36A1084.11,1084.11,0,0,1,2144,780.58a70.21,70.21,0,0,0-16.16,3.54C2113.51,789,2098.75,792,2084,795a95.91,95.91,0,0,1-12.58,1.28c-6.32.42-12.67.5-19,1-14.76,1.21-29.49,1.58-44.24-.06-10.94-1.23-21.9-.83-32,3.84a110.45,110.45,0,0,1-23,7.89,46,46,0,0,0-16.38,7.34c-8.21,5.65-16.39,11.31-23.88,17.92a22.32,22.32,0,0,1-7.65,4.68c-9.48,3-19.09,5.62-28.68,8.29a17.7,17.7,0,0,1-4.49.45,273,273,0,0,0-28,1.31,19.07,19.07,0,0,1-9.8-1c-7.64-3.22-15.79-3.56-23.93-4-4.75-.26-8.65,1.33-12.56,4.07-15.6,10.94-30,23.36-44.44,35.71-7.34,6.28-14.6,12.66-22.81,17.82a193.16,193.16,0,0,0-22.48,16.75,58.1,58.1,0,0,1-5.24,3.61c-8.85-3.6-17.87-5.94-27-8.12-4.87-1.17-9.72-2.8-14-6.2a60.58,60.58,0,0,1,9-13.89,66.76,66.76,0,0,0,9.1-13.46c1.7-3.19,3.64-6.26,5.59-9.31a265.17,265.17,0,0,0,18.3-33.29,140.35,140.35,0,0,1,12.76-22.89,43.7,43.7,0,0,0,7.37-17.35,43.06,43.06,0,0,1,7.11-17.48c4.87-6.85,9.67-13.75,14.56-20.58.25-.35,1.07-.3,1.86-.49,7.37,7.56,9.54,17.81,13.42,27.19,1.85,4.47,3.29,9.06,2.56,14.65-4.43,4.74-8.77,10.23-14,14.75-8.88,7.73-14.36,17.79-20.17,27.63-1.79,3.05-2.61,6.73-3.57,10.21A5.1,5.1,0,0,0,1729.27,859.66Zm294.34-341.53a1091.34,1091.34,0,0,1,76.73,144.5c-1.32.13-2.64.3-3.94.53-4.75.84-9.4,2.21-14.15,3.06A277,277,0,0,0,2030,680.58a174.09,174.09,0,0,1-31.26,8.91c-2.06.4-4.13.85-6.17,1.37q-19.72,5-39.44,10.06c-10.81,2.75-21.63,5.5-32.47,8.11a25.75,25.75,0,0,1-15.13-.24,8.76,8.76,0,0,1-.16-2.5c2.68-11.48,3.45-23.25,5.36-34.85,1.67-10.13.69-20.47,3.08-30.56.78-3.31,1.63-6.36,3.62-9.08,1.25-1.71,2.56-3.38,3.67-5.17A27.47,27.47,0,0,1,1933,615.88c5.54-2.6,10.14-6.51,14.78-10.37,3.7-3.1,7.37-6.24,11.14-9.25,5.91-4.72,11.54-9.7,16.11-15.79a49.48,49.48,0,0,1,6-6.75,34.09,34.09,0,0,0,7.85-11,69,69,0,0,1,10.22-15.95c5.13-5.94,9.93-12.15,14.77-18.33C2016.84,524.72,2019.82,521,2023.61,518.13Zm.06,291.7a33.46,33.46,0,0,1-.71,3.9,48.78,48.78,0,0,1-8,15.14c-9.06,11.68-17.9,23.56-27.58,34.7-6.5,7.48-14.2,13.95-21.54,20.66-4.89,4.48-10.14,8.57-15.15,12.92a72.75,72.75,0,0,0-6.48,6.3c-5.42,6.09-10.73,12.26-16,18.44a112.29,112.29,0,0,1-12.1,12.2,31.64,31.64,0,0,1,4.05-10.24q6.64-11.85,13.38-23.64c6.34-11,10.6-23,15.48-34.69a27,27,0,0,0,1.53-7.93,54.31,54.31,0,0,1,8-24.74c3.38-5.33,7.35-10.28,11.11-15.35a6.42,6.42,0,0,1,2.06-1.74c10.76-6.07,22.08-9.47,34.62-7.4,3.56.58,7.2.62,10.8.92Zm-360.08,199.4c9.16-4.58,18.35-9.09,28.32-11.71a96.49,96.49,0,0,0,20.27-7.63c5.88-3.06,11.92-5.83,18-8.51a91.54,91.54,0,0,0,17-10.27,109.47,109.47,0,0,1,9.79-6.45A50.66,50.66,0,0,0,1770.68,953c2.7-3.24,5.45-6.46,8.32-9.54,5-5.36,8.56-11.64,12.26-17.87,9.75-16.45,16.37-34.24,22.66-52.2a130,130,0,0,1,5.83-13.2c.61-1.29,1.82-2.3,3-3.75a51.43,51.43,0,0,1,7,1.83,29.67,29.67,0,0,0,12.39,2c9.35-.25,18.71-.15,28-.65a69.91,69.91,0,0,0,13.31-2.39c6.71-1.7,13.31-3.85,20-5.67A44.21,44.21,0,0,0,1923,840.71c7.23-6.94,15.8-12.07,24.19-17.42a23,23,0,0,1,3.88-1.45,15,15,0,0,1-.54,2.92c-.62,1.37-1.42,2.66-2.14,4-4.49,8.27-8.2,16.82-8.74,26.37a32.93,32.93,0,0,1-2.68,10.45,326.92,326.92,0,0,1-21.61,43.77,179,179,0,0,0-10.7,20.91c-3.87,9.15-9.22,16.91-17.44,22.57-7.2,5-14.19,10.3-21.73,14.68a297.07,297.07,0,0,0-41,28.08,15.54,15.54,0,0,1-4.69,2.61,36.8,36.8,0,0,0-13.62,8.7c-7.22,7-15.59,12.31-24.45,17q-24.43,12.83-48.79,25.8a15.6,15.6,0,0,1-9.55,2c-6-.75-11.81-1.77-17-5.36-10.19-7-20.53-13.78-29.76-22.07-2.25-2-4.66-3.83-6.92-5.83-2.71-2.39-5.32-4.88-6.73-8.1C1663.31,1009.7,1663.38,1009.33,1663.59,1009.23Zm198.88-27.51c10.72-6.15,21.45-12.29,32-18.71a199.09,199.09,0,0,0,51.77-44.79A109.82,109.82,0,0,1,1963,901.83c6.11-4.91,11.6-10.6,17.77-15.42,13.76-10.73,23.64-24.83,34.24-38.34,1.49-1.9,2.84-3.9,4.37-5.75,7.76-9.41,14-19.61,16.59-31.73a7.84,7.84,0,0,1,2.46-1.2c11.73-.78,23.47-1.32,35.18-2.25a132.14,132.14,0,0,0,16.06-2.42,348.39,348.39,0,0,0,43.6-11.84c1.31-.45,2.69-1.57,4.62-.14-1.29,2.53-2.68,5.09-3.93,7.71s-2.58,5.46-3.7,8.25c-4,10.08-8,20.19-12,30.28-.86,8.2-5.3,15.32-7.06,23.27-.56,2.54-2.09,5-3.51,7.21q-3.6,5.74-7.65,11.19a118.16,118.16,0,0,1-8.5,10.53c-6,6.36-12.07,12.68-18.44,18.66-7.47,7-15.64,13.3-22.9,20.51-11.81,11.73-25.25,21.5-37.76,32.38a54.43,54.43,0,0,1-15.42,9.3c-9.21,3.76-18.34,7.72-27.48,11.65-2.21,1-4.36,2.07-6.48,3.23-9.26,5.06-18.48,10.21-27.77,15.2a38.44,38.44,0,0,1-7.5,3.12,44.74,44.74,0,0,0-17.78,10.44c-1.54,1.4-3.21,2.66-4.8,4-6.16-.51-11.27-3.37-15.91-6.54-7.4-5-15.49-7.9-24-10a176.78,176.78,0,0,1-23.36-7.68A178,178,0,0,1,1862.47,981.72Zm155-473.18A108.49,108.49,0,0,0,2004.93,522c-3,3.73-6.22,7.37-9.2,11.16-5.22,6.64-11.22,12.75-15,20.37A71.35,71.35,0,0,1,1968.05,571c-1.88,2-3.46,4.19-5.23,6.24a38.56,38.56,0,0,1-4.32,4.61c-13.6,11.31-26.91,23-42.62,32.46a52.45,52.45,0,0,1,.45-7.29c1-5,2.55-9.93,3.53-15,1.85-9.43,5.58-17.57,13-24.13,7-6.13,10.56-14.51,12.94-22.88-.7-3.24-2.4-4.68-5-5.07-4.68,2.51-5,2.4-6.6,6.77-2.39,6.41-6.57,11.47-11.16,16.31a51,51,0,0,1-4.51,4.44,16.72,16.72,0,0,0-4.93,7.41c-3.11,8.21-5,16.75-7,25.24a139.9,139.9,0,0,0-2.55,17c-1,9-1.94,18-2.56,27-.54,7.82-.29,15.71-1,23.51-.74,8.71-1.85,17.41-3.3,26-1.1,6.5-1.24,13.23-3.82,19.49-1.06.68-2,1.39-3.09,2a92.4,92.4,0,0,0-17,11.94c-9.35,8.13-19.17,15.59-31.19,19.67-6.62,2.25-12.32,6.27-17.49,11.06a152.68,152.68,0,0,1-11.83,9.84,34.33,34.33,0,0,1-9.6,5.52c-8.94-3.44-17.94-7.21-25.23-13.6-6.47-5.67-14-9.44-21.15-13.86-4.34-2.68-8.6-2.19-12.84.22a26.56,26.56,0,0,0-9.55,9.43,119.46,119.46,0,0,1-7.58,11.24c-6.61,8.45-11.7,17.63-13.72,28.22a34.62,34.62,0,0,1-5.89,14.07c-6.08,8.38-10,17.85-14.72,27-5.37,10.46-11.23,20.66-16.91,31q-2.17,4-4.54,7.83c-3.92,6.44-7.62,13-11.91,19.21-3.42,5-7.49,9.5-13.35,11.87-3.21,1.29-5.23,3.86-7.33,6.5a76,76,0,0,1-9.66,10.74c-6.17,5.3-12.81,10.05-19.26,15-2,1.54-4.3,1.93-6.76,2.23-4.78.57-9.57,1.28-14.29,2.25a31.62,31.62,0,0,1-12.56.09c-5-1-10-2-15.12-2.79a23.57,23.57,0,0,1-11-4.84c-.29-9.87.24-19.8.08-29.72-.15-10.26,0-20.53,0-30.8,0-9.94,0-19.88,0-29.18,2.78-4.19,5.2-7.66,7.41-11.25,2.53-4.11,5.06-8.23,7.21-12.54a16.76,16.76,0,0,0,1.77-6.9c.22-8.14.49-16.32-1.52-24.32-2.39-9.46-2.73-19.06-2.23-28.73.56-10.83,1.1-21.66,1.69-32.49a8.16,8.16,0,0,1,1-2.12c2.53-.63,5.38-1.56,8.3-2a57.92,57.92,0,0,1,9-.69c10.26,0,20.53,0,30.79.23a60.49,60.49,0,0,0,20.48-3c7.74-2.55,15.51-5,23.25-7.48q12.92-4.17,25.8-8.41c5.43-1.79,10.76-4,16.29-5.43,11.67-3,23.38-6,35.18-8.45,6-1.27,10-3.93,11.09-10.18,1.56-8.77,5.4-16.7,10-24.15,7.17-11.64,12.55-24,17.18-36.84,3-8.24,6.55-16.22,12.25-23.07a172,172,0,0,1,27.86-27.08c9.38-7.13,18.77-14.2,27.43-22.2,2.87-2.65,6.1-4.92,9.19-7.34,4-3.16,8.18-6.19,12.1-9.47a93.42,93.42,0,0,1,23.75-14.76c5.83-2.46,11.6-5.11,17.43-7.58a46.67,46.67,0,0,0,13.69-8.67,64.42,64.42,0,0,1,14.81-10.31,82.36,82.36,0,0,0,23.15-17.17A138.8,138.8,0,0,1,1965,463c4.41-3.77,8.93-7.4,13.36-11.13q13.8,18.64,26.78,37.84Q2011.39,499.07,2017.49,508.54ZM1649,993.12c0,6.44-1.53,12.57-3.53,18.58a21.69,21.69,0,0,1-3.69,6.15c-6.25,8.14-12.65,16.16-18.92,24.28-2.06,2.68-4.21,5.12-8.23,6.11-7.46-3.22-24.83-13.43-30.16-17.76a15,15,0,0,1,2-2.68q8.65-7.27,17.43-14.4a29.89,29.89,0,0,0,8.09-10.77,140.75,140.75,0,0,1,12.5-21,85,85,0,0,0,10.79-20.83,74.63,74.63,0,0,1,9.3-18.26c1.85-.39,2.41.6,2.67,1.82a73.25,73.25,0,0,1,1.86,17C1649,972,1649,982.56,1649,993.12Zm-355.74,251.24a31.25,31.25,0,0,0,6.06,1.68c2.88.62,5.91.78,8,2.49.61,5.76-4.17,10.83-.08,16.72,5.82,1.23,12.39.44,18,3.19,3.84,4.94,4.46,11.61,9.6,15.21a12.61,12.61,0,0,0,3,.18,23.16,23.16,0,0,0,4.3-1.3c4.46-1.85,8.87-3.82,13.33-5.66,1.31-.55,2.62-1.62,4.68-.35l4.39,8.33c1.41,2.66,2.68,5.42,4.31,8,.92,1.42,2.44,2.46,3.85,3.82l33.46-12.29c1.41,1.6,2.65,2.88,3.73,4.27,3.52,4.52,6.89,9.17,10.53,13.59,1.27,1.54,3.18,2.54,5,4,6.22-3.73,12.08-7.4,18.08-10.8,6.21-3.52,11.77-8.23,19.33-11,1,1.3,1.8,2.57,2.77,3.72,4.69,5.51,9.44,11,14.11,16.5,2.16,2.56,4.36,5,8.15,6.07,7.51-1.31,14.16-5.75,21.44-8.56,7.54-2.92,14.52-7.23,22.71-9.47a54.07,54.07,0,0,1,2.86,4.77c3.1,6.54,6.1,13.13,9.14,19.7,2.27,4.92,4.74,9.71,8.64,13.53a28.94,28.94,0,0,0,3.79.47c8.15-.1,16.38.38,24.42-.59,9.35-1.12,18.69-.64,28-1.12,1.36-.07,2.76.61,4.21,1,.7,12.14,1.4,23.87,2,35.6.23,4.23.49,8.43,3,12.49a36.69,36.69,0,0,0,4.82,1.71q17.24,3.7,34.51,7.2c2.64.54,5.33.77,7.71,2.72a18.15,18.15,0,0,1,.15,3.52c-2.06,13.39-4.24,26.77-6.25,40.16-.49,3.23-1.16,6.59.89,9.72a9.2,9.2,0,0,0,6.76,1.94q11.28-.47,22.56-1.22c4.16-.27,8.32-1.24,12.56.36a51.63,51.63,0,0,1,1.72,5.19c.83,3.82,1.39,7.71,2.25,11.53.92,4.11,2,8.2,3.14,12.25a7.32,7.32,0,0,0,5.89,5.71c8.29-2.1,16.56-5.83,25.12-8.68s16.68-6.73,25.81-9c5.39,14.41,7,29.61,12.86,42.66,4.37,3,7.66,1.71,10.8-.45,6.21-4.28,12.37-8.64,18.55-13l12.7-8.87c2.31,2.13,4.32,3.93,6.25,5.81,6.91,6.75,13.69,13.63,20.69,20.28,5.78,5.5,8.13,5.42,13.73.15,1.54-1.45,3-3,4.5-4.47,6-6,12-11.92,18-17.85,1.25-1.22,2.39-2.79,5.11-2.41.87,1,2.14,2.22,3.21,3.62,5.52,7.18,11,14.4,16.45,21.6,1.86,2.45,3.87,4.66,7.82,4.91,2.27-1.07,5-2.26,7.68-3.65,6.41-3.37,12.75-6.87,19.15-10.25,1.24-.65,2.51-1.82,4.5-.31,1.31,5.45,2.67,11.3,4.15,17.12s2.2,11.83,6.2,17.22c9.23,1.44,18.1-3.1,28.07-2.61a76.34,76.34,0,0,1-.66,13.48,49.19,49.19,0,0,0-.54,9c.06,2.65,1.69,4.44,4.23,5.28a14.76,14.76,0,0,0,2.64.56c5.38.72,10.76,1.38,16.12,2.13,2.35.33,4.81.45,7,2.6-1.2,4.43-2.52,9-3.67,13.61s-3.52,9-2.14,14.16c7.24,4.27,15.86,5.62,22.83,10.8-1.37,9.75-8.35,17.66-8.31,27.93,6.47,6.3,14.74,9.77,22.35,14.22q-4.82,8.36-9.79,16.61c-5.86-2.59-13-3.12-18.69-7.13-.06-7.19,3-13.9,1.43-20.82-3.24-6.83-11.4-7.7-16-13.22,0-5.07,0-10.18,0-15.3,0-3.91-1.26-7.06-5.52-9.45-3.2-.11-7.1-.18-11-.43a52.56,52.56,0,0,1-5.5-1c0-3.07,0-5.76,0-8.45,0-4.23.17-8.46.12-12.68,0-3.62-1.51-6.4-5.65-8-1.85.43-4.17,1-6.5,1.5-2.57.57-5,2.45-8.36.89-.37-1.65-.93-3.62-1.25-5.62-.76-4.76-1.32-9.56-2.15-14.3a4.87,4.87,0,0,0-6-4.11c-3.22.77-6.36,1.87-9.54,2.81l-12.2,3.63c-1.78-2.53-3.36-4.7-4.86-6.93-2.53-3.76-4.87-7.65-7.55-11.29-1-1.33-2.7-2.13-4.69-3.63-10.75,6.42-18.74,16-28.58,23.68-1.56-1.45-2.88-2.65-4.16-3.9q-10.32-10.15-20.63-20.34c-1.71-1.7-3.25-3.63-6.43-3.83-4.51,1.71-8.08,5.49-12,8.71-4.19,3.45-8.12,7.21-12.24,10.75-3.84,3.3-7.32,7-11.39,10a24.23,24.23,0,0,1-2.63-1.78c-8.23-7.54-16.42-15.13-24.66-22.67-2.67-2.45-5.5-4.72-8.16-7.18-3.07-2.85-6.46-3-10-1.32-3,1.39-6,2.88-8.91,4.43-8.55,4.5-17,9.09-25.61,13.55a34.11,34.11,0,0,1-5.17,1.69c-5.23-8.58-9.43-17.25-14.09-25.65s-8.61-17.21-14-24.77c-5.13-1.56-9.53-.89-13.95.32-8.15,2.23-16.31,4.4-24.47,6.57-1.71.45-3.46.78-5.12,1.14-2.26-2.7-2.47-5.79-3.26-8.65-2.72-9.89-5.45-19.77-8-29.69-1.26-4.85-3.71-7.81-9-8.65-9.22-1.46-18.34-3.53-27.51-5.31-3.21-.62-6.47-1.08-9.49-3.22,0-2.51,0-4.91,0-7.3q.27-16.74.57-33.47a42.52,42.52,0,0,0,.12-4.51,6,6,0,0,0-5.89-5.76c-2.4-.2-4.82-.17-7.23-.14-10,.15-19.93.35-29.89.49-2.06,0-4.13-.14-7.35-.26-.5-4.4-1-8-1.3-11.53-.76-9.32-1.39-18.65-2.15-28a16,16,0,0,0-1-4.37,5,5,0,0,0-4.85-3.44,28,28,0,0,0-6.25.76c-4.1,1-8.14,2.23-12.21,3.38-5.78,1.64-11.55,3.3-17.61,5-9.17-10.13-16.46-21.56-25.44-32-12.49,4-22.26,12.49-34,17.47-3.06-2.87-5.92-5.51-8.73-8.21-4.35-4.18-8.66-8.4-13-12.6a7.39,7.39,0,0,0-8.33-1.75c-1.69.64-3.42,1.2-5.07,1.94-6.06,2.7-12.08,5.49-18.15,8.17a50.34,50.34,0,0,1-5,1.62c-1.08-1.16-1.94-2-2.7-2.91-4.42-5.34-8.8-10.72-13.22-16.07-1.55-1.87-3.22-3.62-5.81-4.09-8.79.37-16.21,6.16-25.06,6.86-4.9-6.86-7.39-14.71-11.42-21.46-7.64-2.45-14.55,2.35-21.72,1.14-3.31-6.07-3-13.19-6.8-18.81-3.17-1.2-6.27-2.36-9.35-3.57-3.3-1.3-7.26-.86-10-3.79-1.83-5.65,2.61-11.17.24-17.59-5.65-4.44-12.62-6.78-20-8.12q6.42-7.58,12.14-15.73c4.94,2.25,10.32,1.73,14.63,5.25-.62,2.46-1.25,4.72-1.75,7C1288.12,1239.74,1289.4,1242.63,1293.27,1244.36Zm-93.65,115a10.41,10.41,0,0,1,11.81.27,11.29,11.29,0,0,1,4.49,11.81,11.17,11.17,0,0,1-8.81,7.9,14.81,14.81,0,0,1-9.19-1.41,47.12,47.12,0,0,1-3-7A10.15,10.15,0,0,1,1199.62,1359.34Zm-10.83-15.08c-4,.07-7-3.29-6.88-7.67.11-4.84,3.27-8.23,7.58-8.14,4,.09,7,3.31,7,7.67A7.93,7.93,0,0,1,1188.79,1344.26Zm6.69-34.85c-2.67-1.05-3.14-2.82-3-4.62a9.44,9.44,0,0,1,1.38-4.08,2.88,2.88,0,0,1,3.91-1,4.44,4.44,0,0,1,2,2.62C1200.36,1305.2,1199.6,1306.24,1195.48,1309.41Zm-105.74,16.27c-2.38,3.22-4,3.55-8.33,1.63-.53-3,.84-5.12,3.25-6.72a4.06,4.06,0,0,1,4.95.25C1090.93,1322,1091,1324,1089.74,1325.68ZM979.2,1289c-2.89,2.34-5.8,2.33-8.64.28-1.07-2.62.1-4.2,2.05-5.27a5.8,5.8,0,0,1,6.59.4A3,3,0,0,1,979.2,1289ZM954,1246A206.43,206.43,0,0,1,1100,893.5v413A205.79,205.79,0,0,1,954,1246ZM904.73,982.7c.15-2.15.82-4.06,3.36-4.46,3.91,2.71,4.84,5,3.49,8.59-.59,1.58-3,2.2-4.52,1.23C905.08,986.77,904.57,984.84,904.73,982.7Zm-4.29-23.12c-2.89-.15-5.05-2-6.53-4.85a7.1,7.1,0,0,1,.66-7.65,7.38,7.38,0,0,1,7.76-3.37,3.78,3.78,0,0,1,.87.2c3,1.12,5.47,6.16,4.74,9.83A7.49,7.49,0,0,1,900.44,959.58Zm17.48,11c-1.24-1.2-2.66-2.23-4-3.38,1.55-2.69,3.09-4.91,4.18-7.34,3.3-7.37,1.47-17-4.42-21.55-4.06-3.12-8.54-5.74-14-5.75-1.45,0-2.89-.2-4.67-.33-.43-3-.67-5.65-1.23-8.26-1.91-8.95-8.52-14.46-17.76-15-1.2-.07-2.41-.16-3.61-.26a18.81,18.81,0,0,0-13.63,3.76c-.91.7-1.85,1.61-3.34.68-.31-.66-.73-1.44-1.06-2.27s-.46-1.77-.85-2.57c-3.83-8-8.71-14.58-18.81-14.36a5.45,5.45,0,0,1-1.77-.34c-4.66-1.4-9-.07-13.18,1.74-2.2.95-4.22,2.31-6.59,3.63a76.17,76.17,0,0,0-5.26-7.25c-7.24-7.92-15.5-13.42-27-10.43a24.86,24.86,0,0,1-3.58.47A26.31,26.31,0,0,0,762,888.93c-1.23,1.12-2.5,2.18-3.76,3.27a44.81,44.81,0,0,1,1.16-6.58q8.08-25.9,16.36-51.76,17.4-54.29,34.89-108.54,19.13-59.45,38.26-118.88,23.69-73.66,47.31-147.33,14.67-45.66,29.38-91.32Q942.8,314.39,960,261,977.47,206.71,995,152.44q20.81-64.62,41.63-129.22c1.38-4.3,2.73-8.62,4-13a.65.65,0,0,1,0-.13q16.37-.88,32.78-1.29-1.91,17.56-3.7,35.16c-1.44,14.09-2.82,28.19-4.31,42.28-1.51,14.39-3.18,28.76-4.68,43.15-1.44,13.8-2.69,27.62-4.14,41.41-1.58,15-3.37,29.94-4.92,44.93-1.47,14.09-2.72,28.21-4.13,42.31-.66,6.6-1.48,13.18-2.2,19.78-1,8.69-1.93,17.38-2.81,26.08-.82,8.09-1.46,16.21-2.32,24.3-1.58,14.69-3.36,29.36-4.88,44-1.48,14.4-2.72,28.81-4.12,43.22-.61,6.3-1.34,12.59-2,18.88q-1.53,13.94-3.08,27.85c-.62,5.69-1.26,11.38-1.81,17.08-.82,8.4-1.5,16.82-2.37,25.22-1.62,15.59-3.36,31.17-5,46.76-.88,8.39-1.58,16.8-2.48,25.19-1.43,13.19-3,26.35-4.43,39.54-1.51,14.38-2.83,28.79-4.25,43.19-.59,6-1.18,12-1.84,18-1.59,14.38-3.31,28.75-4.8,43.14-1.47,14.09-2.68,28.2-4.07,42.3-.68,6.9-1.53,13.78-2.28,20.68q-1.47,13.48-2.9,27-1.29,12.13-2.55,24.28c-.94,9-1.9,18-2.8,27-.85,8.4-1.55,16.82-2.45,25.21-1.29,12-2.67,24.1-4,36.15a216.12,216.12,0,0,0-55.45,55.59A18.55,18.55,0,0,0,917.92,970.54Zm-36.74-35.16a11.08,11.08,0,0,1-12.78,4.22,10.83,10.83,0,0,1-7.08-11.34c.52-3.74,2.13-6.94,5.73-8.63,1.87-.87,3.9-1.38,6.36-2.23a67,67,0,0,1,6.41,4.74A10.41,10.41,0,0,1,881.18,935.38Zm-38.37-11.6c-2.46,5-7.82,8.44-15,7.44A13.4,13.4,0,0,1,816,919.48a14.23,14.23,0,0,1,8.35-15.39,13.78,13.78,0,0,1,2.54-.85c1.44-.36,2.89-.62,3.85-.82,3.92.77,6.5,2.91,9,5A13.25,13.25,0,0,1,842.81,923.78Zm-40-13.2c-.41,1.67-.72,3.46-1.29,5.17a18.48,18.48,0,0,1-16.93,12.78c-8.09.34-15.85-4.39-18.91-11.53-3.48-8.12-.69-17.18,6.48-22.4,7.64-5.56,14.86-3.87,23.3,1.87C800,899.52,802,904.29,802.84,910.58ZM701,881.39c-.75-2.26-1.59-4.46-2.22-6.72a34.12,34.12,0,0,0-10.26-16.77c-9.52-8.46-20.11-13.26-33.12-8.68-2,.7-4.05,1.21-6.1,1.72-1,.26-2.17,1.23-3.12-.19.58-2.65,1.17-5.28,1.73-7.93,3-14.21-1.53-26.15-11.24-36.42a14.12,14.12,0,0,0-5.07-3.69c-6.22-2.22-11.75-6.25-18.48-7.17-.46-.06-.82-.79-1.5-1.47,1.82-2.87,3.82-5.78,5.59-8.83,7.4-12.79,7.18-25.9,1.12-39-1.49-3.22-3.59-6.59-6.33-8.69a133,133,0,0,0-16-10c-2.29-1.29-5-1.84-8.39-3,16.8-30.11,33.68-59.65,50.41-89.27s33.62-59.34,50.41-89,33.54-59.4,50.33-89.09,33.64-59.33,50.46-89q25.46-44.9,50.93-89.78,25.2-44.52,50.33-89.08c16.78-29.68,33.39-59.47,50.43-89,19.35-33.54,41.61-73.24,48-86.2q20.1-2,40.31-3.32c-.5,1.37-1,2.71-1.42,4.05q-8.52,26.27-17,52.54Q995.17,116,979.5,164.72q-20.85,64.59-41.77,129.17-17,52.51-34,105.05c-10.24,31.88-20.32,63.81-30.55,95.69q-19,59-38.05,118Q820,659.56,805,706.53c-6.57,20.38-13.29,40.72-19.86,61.1Q767.46,822.32,749.89,877c-.51,1.6-.75,3.63-2.81,4.32C730.89,872.77,727.82,869.67,701,881.39Zm44.3,32.26C742,925,730.45,932.3,719.58,930a22.68,22.68,0,0,1-18.16-26.12c1.49-8.47,6.16-14.21,13.66-17.85a43.36,43.36,0,0,1,6.2-2c3.1.68,5.49,1.08,7.8,1.73,10.21,2.88,16.45,10.25,17.3,20.78A20.31,20.31,0,0,1,745.34,913.65Zm-280.24-280a36.4,36.4,0,0,0-15.27.76,43.82,43.82,0,0,0-24.45,16.15c-1,1.32-1.43,3.33-3.48,3.48-1.38-3.06-2.67-6.11-4.12-9.08-3.42-7-8.32-12.48-15.85-15.34-5-1.91-9.91-4.18-15.28-6.48a32.42,32.42,0,0,1,2.49-3.68q15.62-17.61,31.32-35.15C432.31,571,444.21,557.74,456,544.42q26.14-29.46,52.21-59,15.6-17.62,31.25-35.22l54.66-61.64q15-16.94,30.06-33.86Q650.63,324.89,677,295c10.8-12.2,21.67-24.35,32.46-36.57q23.68-26.79,47.33-53.62c16.81-19,33.73-37.87,50.53-56.86q30.6-34.57,61.1-69.25c15.8-17.86,31.7-35.63,47.52-53.46.45-.5.95-1,1.39-1.53q29.67-5,59.68-8.36-1.15,1.89-2.27,3.82-17,29.93-33.94,59.86Q908.16,136.54,875.49,194t-65.1,115q-29.7,52.38-59.5,104.69-21,37-41.92,74.06Q665.2,565,621.42,642.14q-22.56,39.76-45.13,79.52a12.5,12.5,0,0,1-2,3c-1.12,1.06-2.5,1.68-3.89.32a2.52,2.52,0,0,1-.12-.89c.44-1.75.9-3.49,1.4-5.23,3.47-12.1,1.16-23.33-5.45-33.75-4.3-6.79-10.12-12.27-17.84-14.69-14.43-4.53-28.57-4.61-41.38,5.07-1,.73-2,1.38-3.57.19-.15-1.43-.3-3.21-.51-5C500.38,649.51,484.31,636.82,465.1,633.63Zm26.53,42.49c.1,14.43-11.85,31.56-31.87,31.35-18.64-.19-31.4-15.41-31.32-31.92.08-17.09,14.4-31.14,32-31.27C478.07,643.07,491.52,660.19,491.63,676.12Zm-87.56,4.44c-9.21,10.86-25.45,11.51-34.56,6.11-9.28-5.5-16.91-16.89-12.79-31.8,3.43-12.4,15.49-22.41,33.31-19.22a55.23,55.23,0,0,1,6.6,2c3,3,5.31,5,7.32,7.18C412.75,654.57,412.36,670.78,404.07,680.56Zm128.17-3.38c11.53-.11,29.79,11.18,29.66,30.72-.12,17.77-14.84,30-29.32,29.22-16,1.13-30.8-13-30.35-30C502.67,690.49,515.59,677.33,532.24,677.18Zm26.38,70.24c8.8-12.09,23.48-14.34,32.93-10.86,3.09,1.14,6.1,2.5,8.92,3.67,2.37,3.6,4.7,6.76,6.64,10.15,10.26,18-1,36.32-14.7,41.09-12.54,4.36-25.42,1-33.8-10.21C551.05,771.18,551.55,757.13,558.62,747.42Zm38.11,60.49c7.89-3.33,15-3.17,25.91.74,2.71,2.91,5.32,5.43,7.58,8.22,13,16,5.79,40.6-13.88,46-15.56,4.27-30.1-1.89-36.26-18.44C574.88,830.45,582.44,813.93,596.73,807.91Zm39.86,74c1.09-9.36,6.13-16.14,14.11-20.81a54.39,54.39,0,0,1,6.67-2.8c3.89.62,6.85,1.1,9.81,1.55,10.83,1.65,20.79,10.47,21.46,25.36.59,13-11.12,24.67-24.2,25.72A26.11,26.11,0,0,1,636.59,881.94Zm645-858.39q15.06,17.07,30.21,34.05,16.85,19,33.66,37.92,24.91,28.14,49.77,56.32c11.81,13.33,23.7,26.59,35.51,39.92q25.82,29.15,51.58,58.34c11,12.42,22.09,24.78,33.1,37.21q26.11,29.47,52.18,59,15.6,17.63,31.25,35.22,25.8,29.16,51.58,58.34,20.38,23.06,40.79,46.11a17,17,0,0,1,1.75,3.29,40.38,40.38,0,0,1-3.92,2.72c-4.26,2.26-8.54,4.51-12.9,6.59-14.45,6.89-28.63,14.21-41.9,23.27a81.82,81.82,0,0,1-15.23,7.92c-12.28,5-25.29,8.06-37.25,14a6.54,6.54,0,0,1-1.72.56c-8.33,1.34-16.62,3.09-25,3.87-7.53.7-15,1.47-22.29,3.49-1.9.53-4.06.08-6.38.08q-31-54.61-61.74-108.82-31-54.74-62.08-109.48l-61.63-108.68q-31-54.74-62.11-109.46c-19-33.42-37.81-66.92-56.86-100Q1251.93,18.6,1281.6,23.55ZM1932.31,398a17.3,17.3,0,0,0,3.29-.24q18.45,21.93,35.73,44.8l-1.25,1.07q-5.77,5.07-11.5,10.21c-4.5,4-9.18,7.84-13.42,12.11a69.07,69.07,0,0,1-18.87,13.84,60.4,60.4,0,0,0-15,10,51.56,51.56,0,0,1-15.26,9.57c-6.65,2.85-13.31,5.7-19.88,8.76a63.79,63.79,0,0,0-11.09,6c-10.19,7.52-20.12,15.38-30.14,23.12-.24.18-.43.43-.66.63-6.5,5.39-12.73,11.14-19.55,16.08a231.6,231.6,0,0,0-36.28,32.66,64.29,64.29,0,0,0-10.85,15.54c-2.56,5.46-5.33,10.9-7.17,16.61-3.94,12.17-9.8,23.37-16.22,34.3a101.47,101.47,0,0,0-9.37,21.52c-.52,1.67-1.21,3.3-1.67,4.55a15.31,15.31,0,0,1-2.17,1c-18.15,4.39-36.37,8.47-54,15-15.55,5.75-31.43,10.61-47.21,15.73a52.14,52.14,0,0,1-17,2.45c-8.75-.14-17.51-.06-26.26,0-9.76,0-19.13,2.21-28.37,5.18a21.23,21.23,0,0,0-9.75,6.3c-2,2.27-3.91,4.59-5.71,7-6.85,9.19-13.71,18.37-20.43,27.66-8.5,11.72-17,23.44-25.27,35.35-12.92,18.67-26.64,36.57-45.14,50.21-.73.54-1.37,1.19-2.05,1.78a144.83,144.83,0,0,1-45.82,26.9c-12.43,4.56-22.9,12-33.84,19a10.39,10.39,0,0,0-2.62,2.46c-5.41,7-12.38,12.32-19.36,17.62-1.2.91-2.36,1.88-3.49,2.87-7,6.2-14,12.45-21,18.6-3,2.58-6,5.07-9.15,7.39a13,13,0,0,1-3.66,1.43c1.91-2.87,3.7-5.83,5.79-8.57,5.3-7,11.33-13.34,15.71-21,2.42-4.23,4.65-8.58,5.28-13.39,1.3-9.85,2.46-19.74,3.17-29.64a81.21,81.21,0,0,1,2.82-16.9c1.84-6.36,3.35-12.83,4.93-19.27,1.08-4.38,2-8.81,3.05-13.2,2.63-10.84,5.25-21.67,8-32.49a79.69,79.69,0,0,0,2-21.55c-.14-6.34-.17-12.68-.2-19,0-1.45.22-2.91.36-4.77,3-1,5.78-2.07,8.6-3a241.11,241.11,0,0,0,25.26-9.88c16.42-7.8,31.28-18.18,46.77-27.53a56.22,56.22,0,0,0,17.83-17.73c7.47-11.41,16.26-21.73,25.15-32a88.64,88.64,0,0,0,9.28-12.25c6-10.1,12.39-20,17-30.93.65-1.55,1-3.38,3.46-4.1.66,3.29,1.28,6.52,2,9.74.82,3.83,1.24,7.82,2.66,11.42,2.53,6.44,5.09,13,8.72,18.85,3.79,6.1,4.16,11.79,1.14,17.93-2.4,4.87-5,9.64-7.57,14.42a183.85,183.85,0,0,1-22.3,31.8c-5.66,6.64-10.59,13.91-15.59,21.09-4.48,6.43-8.52,13.17-12.89,19.68-6.09,9-10.15,19.11-14.85,28.23a13.38,13.38,0,0,0,.62,2.47c1.94,3.59,4.15,4.47,7.22,2.59a12.85,12.85,0,0,0,3.83-3.66,60.74,60.74,0,0,0,3.42-6.37c2.66-5.08,5-10.36,8-15.19,5.78-9.19,11.85-18.22,18-27.15a177.85,177.85,0,0,1,11.55-15.07c15.37-17.76,27.53-37.36,34.92-59.75a48.88,48.88,0,0,1,6.92-12.65c5-7.15,10.32-14.13,15.6-21.1a28.65,28.65,0,0,1,3.76-3.53A78.63,78.63,0,0,1,1586,631a14.79,14.79,0,0,0,10.66,4.19c4.52-.05,9,0,13.5-1a81,81,0,0,1,32.31-1.05c5,.9,10.23.32,15.35.22a4.68,4.68,0,0,0,4.36-3.94,5.35,5.35,0,0,0-3-6,6.5,6.5,0,0,0-2.56-.79c-7.86.17-15.6-1.23-23.41-1.71a85.47,85.47,0,0,0-26,2.25,28.92,28.92,0,0,1-12.63.29l-15-11.22a20.15,20.15,0,0,1,4.12-.65c6.18.49,11.9-1.24,17.67-3.17,6.85-2.3,13.81-4.36,20.82-6.09,15.21-3.76,28.74-10.82,41.06-20.34a21.4,21.4,0,0,0,3.29-3.09,5.73,5.73,0,0,0-.37-7.44,5.11,5.11,0,0,0-6.62-.62c-1.5,1-2.84,2.23-4.28,3.33a96.59,96.59,0,0,1-34.59,17.26c-7.87,2-15.62,4.59-23.32,7.23a34.23,34.23,0,0,1-12.34,2.31,42.53,42.53,0,0,0-14.23,2.31,12.61,12.61,0,0,0-8.15,6.68c-5.11,10.8-13,19.53-20.83,28.35a32.48,32.48,0,0,1-2.94,2.6c-4.94-7.48-8.78-14.88-10.72-23.14-1.44-6.16-2.44-12.43-4-18.57-2.9-11.54-1.17-22.7,2.3-33.77.16-.49.82-.82,1.34-1.32,3.66-.92,7.41-2,11.24-2.79,4.13-.82,8.33-1.34,12.51-1.91,4.77-.64,9.55-1.17,14.32-1.81,4.18-.57,8.38-1.12,12.52-1.91a58.53,58.53,0,0,0,8.71-2.31c8-2.82,15.77-6,23.77-8.71,12.36-4.16,24.21-9.25,34.9-16.88a151.22,151.22,0,0,1,22.81-13q9-4.31,17.88-8.76a135.83,135.83,0,0,0,28-18.26,187.13,187.13,0,0,1,20.32-15.12c2.27-1.48,4.45-3.11,6.67-4.68,13.3-9.41,26.56-18.89,39.94-28.18a84.63,84.63,0,0,1,11-6.22c8.11-4,16.23-8,24.52-11.65,12.74-5.55,25.74-10.32,39.51-12.77,9.5-1.69,19-3.64,28.42-5.47C1900.49,400.76,1916.21,397.78,1932.31,398Zm-416.2,158.09c-1.08,6.13-1.8,11.82-3.13,17.37a134,134,0,0,1-5.17,17.27c-2.4,6.18-5.4,12.14-8.36,18.08-7,14.06-14.49,27.86-25.26,39.52a248.35,248.35,0,0,0-23.46,29.86,51.59,51.59,0,0,1-15.31,15.2c-11,6.88-22.12,13.56-33.22,20.28-1.25.76-2.59,1.61-4.8.64-2.46-2.93-3.14-7.19-4.41-11.12-6.48-20.1-12.75-40.26-19.22-60.36-5.08-15.8-10.43-31.51-15.51-47.31-12.56-39-25-78.14-37.54-117.2-9.79-30.44-19.74-60.83-29.53-91.27q-19.41-60.3-38.7-120.64-18-56-36.11-112-14.19-43.93-28.46-87.83-9-27.93-18.06-55.88,19.8,1.26,39.52,3.23Q1362.79,285.7,1516.11,556.08Zm-356-540.47q9.36,29.31,18.77,58.61,23,71.52,46,143,25.88,80.56,51.74,161.13,16.89,52.56,33.87,105.08,23.85,74.09,47.64,148.19,13.58,42.21,27.19,84.41a51.14,51.14,0,0,1,1.13,5.27c-5.73,3.7-11.9,5.3-17.89,7.16a148.56,148.56,0,0,0-20.83,8.73c-5,2.41-7.78,6-9.84,11.07A224.92,224.92,0,0,1,1318,786.85c-13.54,20.76-28.81,40.22-44.93,59a105.6,105.6,0,0,0-11.32,15.24A149.79,149.79,0,0,1,1240.27,889c-5.85,6.09-11.46,12.41-17.19,18.61-.73.79-1.18,2.12-2.82,1.59-1.51-3.3-1.73-6.9-2-10.49-.18-2.41-.26-4.83-.51-7.23q-1.63-16.2-3.34-32.39c-.82-7.8-1.6-15.6-2.46-23.39-1.46-13.19-3-26.36-4.41-39.55-.89-8.4-1.52-16.82-2.32-25.23q-.9-9.45-2-18.89c-.94-8.39-2.08-16.76-2.92-25.15-1.49-14.7-2.74-29.43-4.23-44.13-1.7-16.79-3.57-33.57-5.34-50.36-.69-6.59-1.3-13.2-2-19.8q-2.61-25.18-5.25-50.37c-.16-1.5-.38-3-.55-4.49-.93-8.39-1.89-16.77-2.76-25.17-.84-8.1-1.53-16.22-2.38-24.31-1.57-15-3.23-30-4.8-45-.84-8.1-1.49-16.21-2.36-24.31-1.54-14.38-3.27-28.75-4.76-43.15-1.53-14.7-2.8-29.42-4.34-44.12-1.47-14.09-3.23-28.15-4.7-42.25-1.49-14.4-2.77-28.82-4.18-43.23q-1-9.9-2.08-19.8c-1.5-13.48-3.14-26.94-4.54-40.44-1.55-15-2.88-30-4.34-45-.58-6-1.28-12-1.93-18-1.66-15.29-3.37-30.57-5-45.87-1.35-12.89-2.54-25.8-3.88-38.7q-2.52-24.3-5.2-48.57c0-.35-.09-.7-.15-1q16.43.38,32.82,1.25C1159,11.92,1159.52,13.77,1160.1,15.61Zm68.83,901.85c8.27-8.8,16.44-17.69,24.74-26.46a133,133,0,0,0,15-19.27c3.76-5.81,7.79-11.48,12.09-16.91,8.62-10.88,17.61-21.46,26.23-32.33a308.17,308.17,0,0,0,40.28-65.35c.7-1.55,1.49-3.06,3-6.27.12,11.74,1.11,21.63-1.22,31.45-1.67,7-3.09,14.14-4.85,21.16-2.27,9.06-4.81,18-7.17,27.08-1.91,7.29-3.8,14.59-5.55,21.92-1.11,4.68-2.62,9.41-2.76,14.15-.22,7.86-1.07,15.62-1.76,23.43a43.3,43.3,0,0,1-8.9,23.32c-9.59,12.41-19.18,24.84-30.59,35.7a107,107,0,0,0-7.6,7.76,152,152,0,0,0-9.69,11.78,216.47,216.47,0,0,0-47.61-45.26C1225.19,921,1228.11,918.33,1228.93,917.46ZM1279.75,982c6.94-7.92,15.39-14,24.06-19.84,10.73-7.28,21.32-14.76,30.89-23.63,7.74-7.16,16.09-13.66,24.09-20.55,4.34-3.74,8.65-7.53,12.71-11.56a35.66,35.66,0,0,1,7.71-6.19,102.64,102.64,0,0,0,9.19-5.77,61.71,61.71,0,0,1,16.09-8.15c15.57-5.22,29.67-13.34,43.36-22.26,1.76-1.15,3.4-2.5,5.08-3.78,13.23-10.1,25.59-21,36.07-34.11,5.67-7.07,11.67-13.88,16.54-21.51,13.18-20.63,28.61-39.64,42.81-59.53.59-.83,1.19-2.06,3.17-1-.33,3.68-.79,7.55-1,11.43-.54,9.93-1.25,19.82.86,29.73,1.49,7.06,2.34,14.26,3.25,21.43.45,3.61.39,7.31-1.56,10.58-5.1,8.55-9.9,17.31-17,24.48q-15.25,15.5-30.64,30.85a118.63,118.63,0,0,1-10.13,9,158.93,158.93,0,0,0-17.81,16.7,54.67,54.67,0,0,0-12.06,20c-2.1,6.29-4,12.64-5.91,19-1,3.51-2,6.95-4.61,9.7a7.61,7.61,0,0,0-1.33,2.34c-1.57,3.92,1.27,7.44,5.46,6.93a10,10,0,0,0,6.25-3.3,21.84,21.84,0,0,0,4.59-8.74c1.9-6,3.7-12.11,5.61-18.15,2.58-8.18,6.54-15.6,12.67-21.66,4.07-4,8.39-7.81,12.66-11.63,5.39-4.82,11-9.37,16.23-14.4,6.07-5.87,11.74-12.15,17.63-18.21,1-1,2.1-1.78,3.41-2.88,1.17,8.7.84,66.27-.43,77.1-9.27,6-19,12-29.1,17.38a20.88,20.88,0,0,1-2.55.94,140,140,0,0,0-30.61,15.48c-8.09,5.37-16.4,9.93-26.23,11.65a38,38,0,0,0-21,11.69c-6.24,6.55-12.4,13.18-18.69,19.68-2.29,2.36-4.6,4.89-7.36,6.56a148.75,148.75,0,0,1-14.53,7.36,41.93,41.93,0,0,1-12.13,3.4,75.2,75.2,0,0,0-14,3.3,38.86,38.86,0,0,1-14.22,2.12c-12.38-.48-24.68-1.56-36.7-4.75-1.69-.45-5.26-1-8-1.56A214.16,214.16,0,0,0,1279.75,982Zm144.31,31.11a127.74,127.74,0,0,1,17.08-17.41,21.77,21.77,0,0,1,6.24-3.46,54,54,0,0,1,10.38-3.08,34,34,0,0,0,12.56-4.8c4.63-2.84,9.39-5.46,14-8.4a124.68,124.68,0,0,1,25.11-12.31,80.06,80.06,0,0,0,9.78-4.63c3.72-2,7.32-4.13,12.84-7.26-3.43,9-5.8,15.8-6.16,23.1-3.74,10.78-4.89,22.41-10.76,32.51a36.5,36.5,0,0,0-3,6.59c-4,11.61-11.27,21.24-18.4,31a8.43,8.43,0,0,1-1.54,1.22c-3.15,1-6.31.5-9.55-.56a122.79,122.79,0,0,0-12.17-3.42c-11-2.41-21.12-7-30.75-12.76-3.11-1.86-6.3-3.58-9.32-5.57s-6.38-3.5-8.51-7.24A30.56,30.56,0,0,1,1424.06,1013.13Zm87.58,24.12a70,70,0,0,0,9.24-16.55c1-2.51,2-5.06,3.23-7.48,6.89-13.58,10.85-28.06,13.31-43a9.46,9.46,0,0,1,.31-1.78c2.49-7.07,5-14.13,7.43-20.94.81-.13,1.17-.31,1.4-.21,9,3.85,18.69,4.35,28,6.44a42.44,42.44,0,0,0,18-.24,42.47,42.47,0,0,1,8.91-1.28c6.74.07,12.27-2.56,17.34-6.67,4-3.23,8-6.46,12.07-9.54a15.57,15.57,0,0,1,3.86-1.58,21.92,21.92,0,0,1-1.06,4.05c-3.12,6.85-6.47,13.61-9.51,20.5a101.72,101.72,0,0,1-8.94,16.72c-5,7.21-9.72,14.56-13.25,22.62a23.22,23.22,0,0,1-6.57,8.5c-4.59,3.9-9.08,7.94-13.52,12a39.18,39.18,0,0,1-11.1,7.68,23.51,23.51,0,0,1-10.52,2c-6-.3-12.06.14-18.09.13a33.81,33.81,0,0,0-16.38,4.5c-4.77,2.58-9.62,5-14.33,7.43C1509.85,1039.07,1511,1038.08,1511.64,1037.25ZM1635,934.19c.16-.36.33-.72.5-1.07C1636.43,934.17,1635.63,934.12,1635,934.19Zm75.24-739.28a1099.38,1099.38,0,0,1,161.55,133.28q28.7,28.71,55.26,59.55l-.93.09a69.06,69.06,0,0,1-8.1.84c-12.43.18-24.52,2.75-36.68,4.91-1.76.31-3.54.54-5.34.8-1.63-1.11-3.14-2.07-4.57-3.15q-27.79-21-55.55-42.12-50.13-38-100.23-76.11-69.93-53.15-139.84-106.33-47.22-35.88-94.48-71.71c-14.57-11.06-29.11-22.18-43.7-33.22q44.31,14.4,87.21,32.53A1091.44,1091.44,0,0,1,1710.26,194.91Zm-301.08-142Q1451.27,85,1493.45,117q51.55,39.15,103.12,78.3,62.4,47.31,124.85,94.58,52.68,39.93,105.33,79.89c8.9,6.74,17.86,13.41,26.72,20.2,2.56,2,5.46,3.68,7.4,7.14-1.65.39-2.74.7-3.85.91a188.23,188.23,0,0,0-31.38,8.47c-12.19,4.56-23.75,10.42-35.54,15.81a107.83,107.83,0,0,0-17.36,9.68q-25.56,18-51,36.08c-5.15,3.68-10.06,7.71-15.1,11.55-1.38,1.05-2.44,2.72-5.09,2.46-2-2.08-4.34-4.39-6.53-6.84q-16.26-18.25-32.45-36.58-14.11-15.92-28.22-31.85-25.17-28.51-50.33-57c-10.79-12.21-21.66-24.36-32.46-36.57q-24.9-28.15-49.76-56.33c-11.62-13.1-23.35-26.09-35-39.19-16.2-18.31-32.3-36.72-48.51-55q-32.74-36.93-65.59-73.76-27.64-31.22-55.17-62.53c7.49,1.37,15,2.79,22.4,4.32Q1365,39.88,1409.18,52.93ZM1114.9,8.61a50.31,50.31,0,0,0,.68,8.29c.94,8.69,1.94,17.37,2.8,26.07s1.49,17.43,2.37,26.13c1.66,16.49,3.44,33,5.16,49.47.78,7.49,1.48,15,2.31,22.49.86,7.79,1.93,15.55,2.72,23.35.92,9,1.55,18,2.45,27,1.72,17.09,3.54,34.18,5.31,51.27.69,6.59,1.33,13.2,2,19.79,1,8.68,2,17.35,2.92,26s1.57,17.41,2.42,26.12c.62,6.29,1.36,12.58,2.07,18.87.89,7.78,1.9,15.55,2.69,23.34.89,8.7,1.57,17.42,2.39,26.13.66,6.9,1.33,13.8,2.1,20.69.9,8.09,2,16.15,2.84,24.24s1.48,16.21,2.25,24.31q.94,9.91,2,19.8c1.56,14.38,3.24,28.75,4.73,43.13s2.81,28.81,4.23,43.21q1,9.9,2.07,19.78c.87,7.79,1.91,15.55,2.7,23.34.92,9,1.61,18,2.46,27q.94,9.9,2,19.79c1,9.28,2.1,18.56,3.07,27.85.85,8.09,1.54,16.2,2.38,24.3.94,9,2,18,2.94,26.95.83,8.1,1.55,16.21,2.34,24.31.61,6.3,1.18,12.61,1.9,18.89.86,7.49,2,14.94,2.77,22.43.9,8.69,1.52,17.42,2.34,26.12.68,7.21,1.44,14.4,2.22,21.6,1.51,13.78,3.11,27.55,4.6,41.33,1.17,10.79,2.25,21.59,3.42,32.38a215.13,215.13,0,0,0-218.14.48c.39-3.9.77-7.74,1.15-11.59.82-8.39,1.55-16.8,2.46-25.19,1.49-13.78,3.15-27.54,4.62-41.32.89-8.4,1.54-16.82,2.34-25.22.65-6.9,1.3-13.81,2-20.69,1.54-14.08,3.21-28.14,4.71-42.22.9-8.39,1.53-16.81,2.34-25.21q1-9.88,2.08-19.77c.88-7.78,2-15.54,2.74-23.34.92-9,1.6-18,2.43-27q.91-9.9,2-19.79c1-9,2.12-18,3.05-26.93.85-8.1,1.48-16.21,2.26-24.31q.91-9.44,2-18.87c1.53-13.48,3.24-26.93,4.63-40.41,1.55-15,2.81-30,4.24-45,.63-6.6,1.34-13.19,2.06-19.78,1.55-14.07,3.22-28.13,4.68-42.22,1.48-14.38,2.76-28.8,4.15-43.2.63-6.6,1.26-13.2,2-19.79,1.5-13.47,3.15-26.92,4.59-40.4.93-8.69,1.57-17.41,2.38-26.11q.93-9.9,2-19.79c1.71-16.18,3.47-32.35,5.19-48.53.8-7.49,1.55-15,2.33-22.48,1-9.29,2-18.58,2.94-27.87.79-7.8,1.48-15.61,2.28-23.4,1-10.19,2.21-20.37,3.26-30.56.74-7.2,1.33-14.41,2.09-21.6,1.59-15,3.26-30,4.87-44.94,1.16-10.79,2.33-21.57,3.35-32.37a55.79,55.79,0,0,0,.55-6.39c5.24-.07,10.49-.12,15.73-.12Q1107.46,8.5,1114.9,8.61ZM901.38,26.55l-.51.55C888.47,41.51,875.58,55.5,863,69.73q-25.23,28.44-50.35,57C801,139.83,789.32,152.87,777.72,166q-31.2,35.27-62.36,70.56Q691,264,666.65,291.39q-24.92,28.13-49.77,56.31-24,27.12-48.09,54.17Q540.25,434,511.73,466.24q-15.32,17.29-30.58,34.61Q458.1,527,435.06,553.16q-18.26,20.72-36.55,41.41c-8,9-16.08,18-24.06,27.07a23.66,23.66,0,0,1-7.73,6.14,39.3,39.3,0,0,0-16.19,14.07c-.67,1-1.3,2-3.26,1.53-2.1-6.85-8.08-10.59-13.73-14.56s-12.09-5-18.94-4.82c-7.31.13-13,4.25-18.92,7.39a6.66,6.66,0,0,1-.77-1.16,6.49,6.49,0,0,1-.47-1.71c-.69-10.27-7.27-16.21-15.54-20.66a22.35,22.35,0,0,0-19.24-1.51c-2.09.79-4,2.39-6.47,2.21-1.05-10.87-2-13.73-5.89-18s-5.28-4.71-17.2-7c.52-1.42,1.09-2.79,1.51-4.2,3.19-10.65-1.67-20-12.21-23.69-2-.67-3.89-1.4-6.46-2.32,1.26-1.57,2.2-2.62,3-3.76,6-8.49,5.31-17.21-1.81-24.58-1.42-1.47-3.78-2.12-4.11-4.55,7.2-9.87,6.84-14.22-2.41-25.86l28.06-21.28c9.38-7.11,18.79-14.18,28.16-21.31s18.69-14.31,28.06-21.43,18.8-14.18,28.19-21.28,18.77-14.2,28.16-21.3,18.79-14.18,28.16-21.31,18.69-14.3,28.06-21.43S423.25,331.1,432.64,324s18.77-14.21,28.15-21.32,18.76-14.23,28.14-21.35q14.42-10.95,28.82-21.92,14.07-10.67,28.16-21.3L574,216.78q14.07-10.65,28.16-21.31t28.07-21.42q14.06-10.7,28.12-21.36t28.17-21.29q14.07-10.66,28.12-21.37t28.13-21.34c9.39-7.11,18.84-14.13,28.14-21.34,6-4.63,12.12-9.09,18.42-14Q834.21,40.06,880,30.68C887.12,29.22,894.24,27.86,901.38,26.55ZM337.7,655.92c0,11-9.45,19.67-20.77,19.39-9.35.12-20.34-8.45-19.64-21.55a20.3,20.3,0,0,1,20.9-19.44C330.6,634.56,337.67,644.36,337.7,655.92Zm-66.61-10.31c-2.83.53-5.45-.4-7.82-1.54-5.48-2.62-8.78-6.82-9.26-13.25-.74-9.79,7.79-17,17.6-15,2.28.48,4.39,1.78,6.53,2.68a81.8,81.8,0,0,1,3.93,7.34C285.76,634.79,280.64,643.85,271.09,645.61Zm-76-110.4c1.39-3,5.26-5,8.12-4.16a7.41,7.41,0,0,1,5.78,8c-.21,2.79-.67,3.41-5.74,7.3a31.36,31.36,0,0,1-5.26-1.8A7.12,7.12,0,0,1,195.12,535.21Zm-1.48-27.88a7.63,7.63,0,0,1,2.4-2.4c.41-.31,1.13-.2,2.33-.37a18.08,18.08,0,0,1,4.14,2.09,3.6,3.6,0,0,1,.8,3.16,4.12,4.12,0,0,1-2.35,2.26,6,6,0,0,1-5.9-.92C193.88,510.24,192.86,508.9,193.64,507.33Zm14.09,58a12.76,12.76,0,0,1,5.23-.81c4.07.25,8.52,5,8.75,8.92.23,3.8-3.78,7.34-7.82,6.7a11.84,11.84,0,0,1-9.14-6.5A6.16,6.16,0,0,1,207.73,565.31ZM225.18,597c1.85-1.37,4.24-2,6.69-3.13,2.37,1.58,4.82,2.77,6.72,4.56,3.78,3.56,3.89,9,.65,13-3.42,4.24-9.37,5.39-13.66,2.63C220,610.47,219.68,601.05,225.18,597Zm103-268.82a1093.68,1093.68,0,0,1,347-233.92q42-17.74,85.42-31.93Q729.15,86.18,697.71,110q-48.29,36.72-96.5,73.55-62.36,47.4-124.79,94.69Q426,316.56,375.57,355q-40,30.4-80.06,60.74C260.81,442.17,226.27,468.8,191.4,495c1.17-1.75,2.33-3.51,3.51-5.25A1099.38,1099.38,0,0,1,328.19,328.19Zm-233.92,347a1092.58,1092.58,0,0,1,89.15-168,14.12,14.12,0,0,0,3.77,11.32c1.23,1.27,2.45,2.55,3.65,3.81C180.36,534.76,179,548,199,557.91c-1,1.47-2.08,2.86-3,4.34-3.52,5.64-3.36,11.44-.39,17.2a20.62,20.62,0,0,0,13.85,10.77c1.66.43,3.7,0,5,2.44-4.56,9.1-6.41,18.61,1.57,27.28,7.65,8.32,16.9,7.92,26.54,3.94,1.31,13.77,1.75,15.63,4.47,20.19,4,6.67,10.14,10,17.36,12s13.55-.9,20.35-3.78c.69,3.51,1.36,6.69,1.95,9.89a27.93,27.93,0,0,0,11.23,18c7.82,5.74,16.37,8.67,26.33,6.21a34,34,0,0,0,17.56-10.51c1-1.06,1.76-2.54,3.93-1.8,1,2.28,2,4.82,3.21,7.22,7.49,14.57,25.09,23,41.08,19.92,8.94-1.71,16.47-5.62,22.48-12.5,1.28-1.46,2.06-3.7,4.46-3.81.32.26.66.4.76.64.89,2.24,1.65,4.53,2.62,6.73,7,16,19.18,25.14,36.77,26.65,10.67.92,20.28-2,29-8.18,1.31-.94,2.38-2.92,5-1.53.15,1.22.34,2.69.51,4.16,2.53,21.91,24.85,38.89,47,34.86,2-.37,4.1-1.25,6.4.39-.5,1.57-1.15,3.22-1.54,4.92-2.21,9.64-2.21,19.07,2.24,28.26,5.6,11.58,14.39,19.1,26.92,22.25a64.09,64.09,0,0,1,6.2,2.27c-12.67,16.15-15.48,32.92-5.07,50.79a32.87,32.87,0,0,0,5.16,6.28,49.32,49.32,0,0,0,6.83,5.85,35.53,35.53,0,0,0,7.2,3.71,49.5,49.5,0,0,0,8.67,2.54,34.8,34.8,0,0,0,8.09.55,62.7,62.7,0,0,0,8.92-1.31c2.55-.52,5-1.33,7.38-2,1.4,2,.15,3.31,0,4.71-.59,6-1.07,12.08.69,18,6.68,22.42,31.16,33.06,50.5,24.35,3.27-1.47,6.23-3.63,9.35-5.45,1-.56,2-1,3.37-1.76.55,2,.88,3.4,1.35,4.8,4.46,13.13,13.48,21.54,27.09,23.83s24.91-2.56,33.34-13.68c1.06-1.4,2.27-2.69,3.66-4.33,1.16,1.56,2.09,2.73,2.94,4,10.58,15.27,32.58,16.78,45,6.79,1.58-1.27,2.91-3.14,5.52-2.9.56.52,1.24,1.1,1.85,1.74,10.67,11.19,23.14,12.49,35.66,3.76,1.12-.78,2-2.32,3.73-1.68,2.39,3.57,4.42,7.3,7.13,10.45s6.84,4.67,11,6,8.28-.71,12.22-.44c6.06,14,6.06,14,16.53,20.72a40.13,40.13,0,0,0-2.45,5.8c-1.89,7.54-1,14.47,5.35,19.77a14.07,14.07,0,0,0,9.66,3.31,213.66,213.66,0,0,0-23.72,82.82,18.49,18.49,0,0,0-7.66-4.48c-2.22-.64-4.54-.93-7-1.42,0-2.76.33-5.21-.06-7.55-1.21-7.31-4.73-13.42-12.06-15.59-6.07-1.79-12.53-1.84-18.33,1.87-1.19.76-1.93,2.43-4.07,1.9-1.61-1.87-3.32-4-5.13-6a18,18,0,0,0-10.13-5.58,20.36,20.36,0,0,0-13.06,1.93c-6.75,3.14-11.49,7.54-13.73,14.62-.06.2-.42.3-.87.6-2.09-1.52-4.15-3.29-6.45-4.66-7.17-4.27-14.55-5.7-22.21-1.07-1,.62-2.18,1-3.27,1.55a19.53,19.53,0,0,0-9,8.58c-1,1.81-2.05,3.57-3.22,5.6-3.19-1.26-5.92-2.41-8.7-3.43a29.19,29.19,0,0,0-19.52-.07c-4.25,1.37-7,4.59-10.21,7.28-6.05,5.07-10,11.18-10.6,19.24-.11,1.52-.55,3-2.49,3.5-1.77-.86-3.63-1.86-5.57-2.7-7.81-3.36-15.88-3.23-23.95-1.29a15.48,15.48,0,0,0-6.39,3.19c-5.65,4.95-11.64,9.7-14.53,17a11.76,11.76,0,0,1-1.9,2.41c-2.09-1.85-4-3.76-6.08-5.35-12.58-9.47-26.09-12-40.77-5.22a18.08,18.08,0,0,0-6.48,4.78c-2.69,3.18-5.66,6.11-9.41,10.1-1-3.43-1.46-5.49-2.22-7.43-5.6-14.24-15.56-23.43-30.85-26.35-1.17-.22-2.47-.69-3.55-.42-6.7,1.71-13.91.84-20.32,4-.71.35-1.69.19-3,.32.17-2.56.34-4.87.46-7.19.86-15.91-5.95-28-18.76-36.91-4.77-3.31-10-5.5-16.14-4.72a44.76,44.76,0,0,1-7.22-.14,34.59,34.59,0,0,0-22.79,7.31c-2.15,1.63-4.21,3.36-6.77,5.41-1.18-3.44-2.13-6.53-3.29-9.53a41.33,41.33,0,0,0-39.49-26.52c-6.57.12-12.34,2.79-18,5.51a37,37,0,0,0-17.61,17.57c-1.06,2.16-2,4.39-3,6.8a12.72,12.72,0,0,1-2.19-1.63c-1.19-1.36-2.11-3-3.37-4.24-9.29-9.39-19.86-15.65-33.79-13.5a33.42,33.42,0,0,1-3.62.12c-11.21.53-20.16,5.6-27.45,13.87A40.43,40.43,0,0,0,289.23,1071c-.06,1.37.4,3-1.69,4-2.06-1.4-4.2-3-6.49-4.38-7.44-4.41-15.16-7.52-24.07-4.86-1.42.43-3,.2-4.5.4a33.93,33.93,0,0,0-22.35,12.46c-5.58,6.76-8.24,14.63-9.21,23.21a44.44,44.44,0,0,1-1,4.47,36.74,36.74,0,0,0-30.13-3.65c-10.74,3.14-16.3,11.58-20.55,21.09-3.87-3.13-7.15-6.28-10.9-8.69-4.19-2.7-9.34-2.43-14.06-2.63-4.45-.19-8.82,1.43-12.86,3.76-4.29,2.46-6.6,6.83-10.27,10.47-1.11-1.14-2-1.91-2.67-2.78s-1.34-2-2.14-2.92c-6.62-7.43-15.58-8.87-24.42-4-1,.52-1.87,1.72-3.63.34-.39-1.28-.86-3-1.45-4.68-3.54-10.06-12.64-14.85-22.91-12.18-1.88.49-3.78,2-5.85.6.26-13.06-.77-21.09-19.75-25.07a20.94,20.94,0,0,1-.48-2.48c-.07-.9,0-1.81,0-2.72.34-11.16-11.92-16.61-19.69-13.94-3.68,1.27-6.24,3.64-8.6,6.35-.17.2-.32.42-.48.62A1086.37,1086.37,0,0,1,94.27,675.14Zm784.56,422.92a4,4,0,0,1-3.15.89c-3.66-.73-4.69-3.11-3.66-8.64,5.29.29,6.82,1.15,7.66,4.63A3.85,3.85,0,0,1,878.83,1098.06Zm-19.37-26.82c-1.39,6.13-2.81,7.82-6.68,8-4.41.16-7.95-2.3-8.54-6.35a12.54,12.54,0,0,1,.65-5.23c.44-1.49.93-1.61,5.86-4.22C855.57,1064.58,858.42,1066.94,859.46,1071.24Zm-33.48-.17c-1.31,5.69-7.75,9.23-13.4,7.55-7.16-2.14-10-11-6.5-16.06,1.17-1.71,2.6-3.24,4.26-5.28,3.16.18,5.61,0,7.94.52C824.15,1059,827.43,1064.81,826,1071.07Zm-46.17,22c-6.18,3.07-12,1.51-16.43-2.9a13.56,13.56,0,0,1-2.49-16.51,16.25,16.25,0,0,1,7.21-7.06c2.07,0,4.46.07,6.84,0,5.19-.19,11,3.86,12.64,10.82A14,14,0,0,1,779.81,1093Zm-35.1,17.65c-3.93,4.53-9,7-14.93,6.68a17.89,17.89,0,0,1-17.29-11.09c-2.66-6.71-.61-16.13,4.44-21,2.55-2.43,5.9-3.08,9.05-3.8,5.06-1.16,10.09-.94,14.82,1.92C749.74,1088.84,753.07,1101.05,744.71,1110.67ZM701,1128.24a22.64,22.64,0,0,1-22.54,23.3c-12.18,0-22.88-10.25-22.64-22.36.29-15.32,7.7-21.56,22.39-22.83C690.09,1105.33,701.65,1117.07,701,1128.24Zm-62.24,24.14c-3.94,9.36-11.21,14.73-21.44,15.79-.9.09-1.81,0-2.72,0-14.9.65-28.78-13.73-25.64-31.14,1.87-10.34,8-16.85,18-19.23,10.31-2.44,19.84-1,27.24,7.6C641.13,1133.48,642.83,1142.6,638.71,1152.38Zm-68.08-22.3c.41,19.51-20.52,33-37.15,27.25-12-4.18-19.78-13.36-20.88-25.68-1-11.44,6.19-24.39,16.19-29.05a60.31,60.31,0,0,1,6.68-2.72,9.48,9.48,0,0,1,4.42-.64c8.31,1.55,16.56,3.42,22.73,9.88A27.27,27.27,0,0,1,570.63,1130.08ZM511,1083.87c.46,17.24-14.81,28.59-28.93,28.25-15.81-.38-29.11-13.33-28.9-28.8.23-16.55,14-30.78,30.15-29.61C497.21,1054.71,511.75,1066.23,511,1083.87Zm-71.38-21.64c-.16,17-14,29.47-30.33,29.63-14,.13-29.4-12-29.67-30.31-.21-14.24,13.88-31.17,29.2-29.23C423.64,1031.51,439.84,1043.55,439.66,1062.23Zm-76,11.87c-.09,16.83-15.55,31.67-31.49,30.74-18.65.62-31.61-15.2-31.81-31.23-.2-16.62,13.55-32,31.3-32.19C349.1,1041.22,363.73,1056.74,363.64,1074.1Zm-76.18,28.71c-.39,14.32-10.07,28.15-27.22,28.1-18.4-.05-27.24-12.53-28.18-27.1-.89-14.06,12.75-28.44,26.13-28.49C273.78,1075.26,287.28,1087.93,287.46,1102.81Zm-67.59,34.43c-2.62,9.29-10.25,14.92-20.09,14.79-9.15-.12-16.06-5.12-19-13.75a20,20,0,0,1,6.82-22.49c3.74-2.92,5.25-3.49,14.27-5.19,2.69,1.23,5.5,2.3,8.12,3.73A19.9,19.9,0,0,1,219.87,1137.24Zm-60,5.75c-2.11,5.17-6.11,8-11.61,8.66-.89.12-1.8.1-2.36.13-11.59-.24-18.67-11.86-13.58-21.74,3.34-6.5,12-9.43,18.53-6a23.56,23.56,0,0,1,6.41,4.77A12.78,12.78,0,0,1,159.9,1143Zm-49.35-7.2c0,6.29-3.82,10.39-9.79,10.44a10.44,10.44,0,0,1-10.28-10.34,9.68,9.68,0,0,1,9.91-10.35C106.48,1125.71,110.53,1129.8,110.55,1135.79Zm-37.31-12.37a11.82,11.82,0,0,1-10.46.51c-3.09-1.26-4.45-3.88-4.4-7.16a9.32,9.32,0,0,1,6.11-6.27,11.44,11.44,0,0,1,7.93.79,7.09,7.09,0,0,1,4.44,5.31C77.32,1118.84,75.5,1122.19,73.24,1123.42ZM46,1099.82c-2.61,2-5.08,3.28-7.88,2.18a11.51,11.51,0,0,1-4.31-3c-1.92-2.2-1.55-5.83.46-8.33a7.64,7.64,0,0,1,9-2.08,6.43,6.43,0,0,1,2.68,2.27C47.7,1093.56,47.58,1096.49,46,1099.82ZM25,1074a7.13,7.13,0,0,1-2.31,1.26c-2.66.83-5.2-.14-6.08-2.21s.5-4.24,3.35-5.37a14.69,14.69,0,0,1,2.19-.56,4.45,4.45,0,0,1,4.35,3A3.72,3.72,0,0,1,25,1074ZM30.68,1320A1099.13,1099.13,0,0,1,8.5,1100c0-6.53.08-13.06.2-19.6a14.23,14.23,0,0,0,5,4.13c2.63,1.33,5.62,1.93,8.43,2.86-2.72,18,7,28.36,25.74,25.5.1,2.39.18,4.75.28,7.11a14.43,14.43,0,0,0,4.33,9.68c3.51,3.65,7.73,6,12.78,5.9,4.43-.06,8.85-.85,13.8-1.37.33,1.18.71,2.57,1.1,4a57.22,57.22,0,0,0,1.76,6.08,20.4,20.4,0,0,0,33.58,6.91c1.69-1.7,3.11-3.67,4.66-5.53,8.91,13.29,10.82,12.75,15.14,14.9,6.54,3.25,13.46,3.1,20.25.8,6.47-2.19,8.23-3.95,16-14.39,1.71,2.19,3.26,4.34,5,6.34a30.23,30.23,0,0,0,24.86,10.83c16.12-.66,28.07-12.07,30.38-28.27.16-1.1-.16-2.45,2.1-3.15,7.6,5.94,16.41,10.28,26.9,9.84a39.22,39.22,0,0,0,27.43-12.11c5.85-6,7.51-9.85,11.71-27,2.53,1.88,4.86,3.74,7.31,5.42,17.32,11.87,37.38,10.29,52.83-2.31,4.79-3.91,8.05-8.9,10.94-14.25,1.24-2.3,1.38-5.25,4.13-7.23,1,1.1,2.12,2.07,3,3.18,12.6,15.61,38.31,20.8,57,6.12,1.42-1.12,2.77-2.34,4.23-3.4a25.6,25.6,0,0,1,2.94-1.6,20.45,20.45,0,0,1,.8,2.16c.21.87.24,1.8.49,2.66,3.12,11,9.43,19.41,19.59,24.86,10.37,5.58,21.09,6.86,32.33,3,1.83-.63,3.58-2.37,5.91-1,0,2.73,0,5.41,0,8.09.21,15.4,6.63,27.53,19.94,35.29,13.57,7.91,27.59,7.83,41.36.07A43.41,43.41,0,0,0,575,1153.88c.73-.89,1.33-2.07,3.55-1.61,2.11,5.81,4.86,11.75,9.68,16.5a38.94,38.94,0,0,0,17,9.88,35,35,0,0,0,19.64-.05,38.58,38.58,0,0,0,16.94-10c4.76-4.78,7.22-10.92,10.48-16.94,2.83,2,5.18,3.86,7.64,5.51a32.45,32.45,0,0,0,27.7,4.41c13.09-3.57,21.09-12.34,24.22-25.49.83-3.46,1.3-7,2-10.79,2.63,1,4.81,2,7.09,2.57,4.08,1,8.19,2.2,12.49,1.44,13.23-2.37,22.73-9.25,27-22.4.46-1.4.54-3,2.27-3.59,15.42,3.85,28.72,2.38,36.72-19.26,15.5,9.16,22,8,35-2.42,9.61,7.85,9.61,7.85,24.71,9.2a36.61,36.61,0,0,1,.76,4.16c.43,5.58,3.49,9.55,7.79,12.68,5.12,3.74,10.75,3.81,16.29,1.24a12.15,12.15,0,0,0,1.18-.64,214.26,214.26,0,0,0,17.15,76.38,18.13,18.13,0,0,0-10.71-.28c-2.22.66-4,2.84-6.68,2.15a77.17,77.17,0,0,0-4.72-6.64c-5.65-6.46-15.36-8.63-22.15-4.73-4.43,2.55-8.73,5.46-10.68,10.65a13.93,13.93,0,0,1-1.91,2.85c-3.21-1-6.05-2-9-2.61-6-1.22-11.9-.06-16,4.28-4.9,5.23-9.14,11.26-8.74,19.2.11,2,1,4.21-1.2,6.37-7.73-.18-16-.56-23,5.88a91.16,91.16,0,0,0-4.9,8,41.3,41.3,0,0,0-3,8.47c-.77,3.13.45,6.53-.62,9.7-3.9.92-7.53,1.39-10.87,2.63-8.83,3.28-16,8.36-18.14,18.39a52.19,52.19,0,0,1-1.82,6.07,20.53,20.53,0,0,0,.06,13.34c.93,2.8,1.92,5.58,3.07,8.9-3.21.61-6.12,1.2-9,1.72a34,34,0,0,0-15.41,7.22,25.18,25.18,0,0,0-8.21,11.63,47.08,47.08,0,0,0-2.84,19.54,29.37,29.37,0,0,1-.34,4.38c-2.6-.46-4.68-.8-6.74-1.21-13.28-2.65-24.47,1.66-33.89,10.76-4.34,4.2-7.6,9.25-8,15.79-.2,3.54-1.45,7-2.36,11.16-1.87-1.62-3.39-3-5-4.28-11.65-9.65-24.77-11.9-39-7.44a22,22,0,0,0-7,4c-5.14,4.15-10.42,8.16-14.55,13.42-.13.15-.56.06-1.38.13-1.17-2.11-2.42-4.44-3.76-6.72-5.09-8.64-12.16-15.18-21.82-18-10.63-3.13-21.38-4.43-31,3.37a13.68,13.68,0,0,1-2.41,1.24c-8.71,4.54-14.51,11.59-17.94,20.71-.82,2.21-1.67,4.41-2.67,7-2.76-2.32-4.94-4.4-7.36-6.15-11.19-8.09-23.45-10.5-36.86-6.72-14.89,4.19-22.6,15.28-27.52,28.87a28.88,28.88,0,0,0-1,17c.35,1.41,1,2.91-.35,4.57-5.06-1-10.23-2.38-15.49-3a40.47,40.47,0,0,0-16.11,1.49c-5.4,1.58-9.59,5-14,8.17A40.56,40.56,0,0,0,389,1447.11a39.79,39.79,0,0,0-5.64,15.18c-.89,5.39-1.14,10.88.48,16.16,1.56,5.1,3.64,10,5.63,15.4-10.8-.76-20.95-.55-30,6.71-8.28,6.63-14.72,13.78-17.12,24.57-2.47,11.15,1.45,20.7,5.84,30.25-.92.47-1.46,1-2,1-5.65-.15-10.48,2-15.35,4.67-11.72,6.39-17.79,15.83-17.22,29.37.1,2.31,1.12,4.78-.47,7-21.36-4.62-37.27,6.67-38.27,28.56-11.85-4-12.31-4.08-18.3-2.48-5.3,1.41-5.77,1.82-14.12,12.34-1.51-1.41-2.91-2.91-4.5-4.18a18.2,18.2,0,0,0-24.65,1.24c-1.69,1.64-3.36,3.3-5.31,5.21-2.46-4-3.76-8.2-7.58-10.57a23,23,0,0,0-10.94-3.89c-4.4-.27-7.93,2.46-12.11,3.36-.88-1.56-1.53-2.91-2.35-4.14-4.56-6.85-12.54-8.83-19.81-5.14-6,3.06-7.89,8.23-8.41,14.41A1083.11,1083.11,0,0,1,30.68,1320Zm871.54-119a3.67,3.67,0,0,1-3.62,2.09c-3.39,0-5.45-1.8-6.51-5.56,5-3,6.5-3,9.15-.53A3.28,3.28,0,0,1,902.22,1201Zm-31.23-3.2a8.55,8.55,0,0,1-9.27,1,7.3,7.3,0,0,1-3.91-8.28c.29-1.41,1.2-2.69,2.19-4.81a48.91,48.91,0,0,1,6.66-.45,7.25,7.25,0,0,1,6.6,5.28A6.83,6.83,0,0,1,871,1197.82Zm-30,17.83c-4.14,4.64-10.83,5-15.09.65a17.59,17.59,0,0,1-3.69-6c-1.12-3-.29-5.87,2-9.46a44.09,44.09,0,0,1,6.42-2.74,9.88,9.88,0,0,1,9.32,1.78C844.94,1204.14,845.84,1210.2,841,1215.65ZM726.15,1336.52c-1.49-5.12-.93-10.16,2.47-14.58,1.1-1.44,2.15-2.92,3.34-4.28a21.34,21.34,0,0,1,16.72-7.64c12.54-.48,22.45,9,23,22.86.35,9.31-7.35,18.28-16.65,21.48-7.91,2.72-19.43-.87-24.68-8.86A33.67,33.67,0,0,1,726.15,1336.52Zm-16.66,66.19a26.13,26.13,0,0,1-31.84-15.19c-1.89-4.8-3.76-9.68-2-14.87,3.63-10.46,12.95-21.1,26.53-20.73,12,0,24.83,7.95,25.85,24.92C728.88,1390.34,719.47,1399.66,709.49,1402.71Zm50.43-114.5c-1.17-2.72-1.59-5.77-2.35-8.66a14.64,14.64,0,0,1,3.55-9.24c4.59-5.69,10-9.38,17.72-9.18,12.42.31,19.33,12.53,16.21,23-2.59,8.73-8.78,13.59-17.71,14.62A17.45,17.45,0,0,1,759.92,1288.21Zm29.82-49.39a52.35,52.35,0,0,1,1.7-6.75,84.94,84.94,0,0,1,8.34-4.37c5.84-2.26,11.9-.17,15.81,5.11,3.12,4.2,3.14,11.2,0,16.1a13.75,13.75,0,0,1-14.79,5.93C793.89,1253.27,788.89,1247.52,789.74,1238.82Zm-147.8,194.35a28.86,28.86,0,0,1-33.17-11.84,30.39,30.39,0,0,1,2.27-36.12c1.56-1.83,3.09-3.69,4-4.74,4.69-1.32,8.12-2.42,11.62-3.26A28.62,28.62,0,0,1,660,1393.9C666.18,1408.84,660,1427.41,641.94,1433.17Zm-58.82-20.43c-7.39,11.89-19.58,16-32.11,12.87-14-3.51-21.53-16.6-21.65-27-.1-8.65,2.63-16,8.65-22.07,1.9-1.93,4-3.67,6.11-5.62,3.77-.66,6.78-1,9.68-1.73,8.78-2.28,22.84,3.22,28.43,12C588.84,1391.58,589.6,1402.3,583.12,1412.74Zm-230.5,119.53c.52-15.42,9.34-27.07,28.62-26.86,13.51.14,26.32,11,26.61,27.52-.41,14-11.09,27.18-28,27.27C366.82,1560.27,352,1549.89,352.62,1532.27Zm12.32,56a20.37,20.37,0,0,1-20.41,20.63c-11.07,0-19.75-8.84-20-20.06-.26-10.26,6.12-21.48,20.68-20.77C359,1568.77,365.29,1578.84,364.94,1588.3Zm29-119.64c.63-17.51,11.85-31.22,31.76-31.12,17.51.09,31.74,13.93,31.37,31.79.39,16.11-14,31.58-31.88,31.32C406.17,1500.38,393.43,1484.31,394,1468.66Zm64.33-64.31c3.44-7.44,10-11.23,17-14a29.28,29.28,0,0,1,37.28,15.12c6.5,14.7.79,31.6-13.14,38.91-5.19,2.71-8.66,3.62-13.85,3.62C462.3,1447.61,448.87,1424.77,458.31,1404.35ZM316.88,1622.46a16,16,0,0,1-13.48,13.76c-6.16.85-12.54-2-15.29-7.28-2.87-5.56-2.17-11.11,1.51-16.08,1.39-1.88,3.43-3.26,5.31-5,3-.14,5.14-.35,7.22-.3a16,16,0,0,1,4.41.68C313,1610.29,317.57,1616.74,316.88,1622.46Zm-45.25,26.93c-1.95,4.8-9.09,6.75-13.87,4-3.28-1.92-5.4-4.71-5.49-8.64a61.54,61.54,0,0,1,.51-6.25c2.4-1.36,4.32-2.89,6.51-3.59a9.52,9.52,0,0,1,10.61,2.76C272.94,1641.1,273.3,1645.25,271.63,1649.39Zm-38.14-4c-.43,5.59-7,10.25-12.48,8.72a6.25,6.25,0,0,1-4.69-5,7.48,7.48,0,0,1,2.35-7.38,13,13,0,0,1,8.17-3.35A6.7,6.7,0,0,1,233.49,1645.43Zm-36.29-4.17a8.7,8.7,0,0,1-3.77,6.43,7.17,7.17,0,0,1-8.32.19,7.47,7.47,0,0,1-2.64-8.7,7.33,7.33,0,0,1,7-4.57C192.85,1634.73,194.38,1636,197.2,1641.26Zm-31.69-10.71a5.61,5.61,0,0,1-2.87,5.16,4.4,4.4,0,0,1-5-.25,3.86,3.86,0,0,1-.45-4.87c1.11-1.88,2.55-3.27,5-3.33A3.27,3.27,0,0,1,165.51,1630.55Zm162.68,241.26a1099.38,1099.38,0,0,1-133.28-161.55q-21.27-31.47-40.31-64.43a13.09,13.09,0,0,0,9.6.83c2-.64,3.86-1.39,5.77-2.07,2,3.27,3.76,6.42,5.83,9.33,2.18,3.08,5.51,4.75,9,5.66,3.85,1,7.89,1.14,11.51-.76,3.13-1.64,6-3.78,9.26-5.9.91,1.51,1.62,2.79,2.43,4,5.09,7.54,12.62,10.1,21.29,7.44a22.93,22.93,0,0,0,9.76-6.3c1.38-1.41,1.65-4,4.32-4.21,2.08,2.16,4,4.48,6.26,6.44,5.93,5.19,12.89,6.68,20.25,4.06s12-7.91,13.38-15.76c.36-2,.62-4,.94-6.09,11.82,4.6,14.79,5.34,20.33,4.65a26.52,26.52,0,0,0,18.29-10.57c4.39-5.7,5.15-12.63,6-20,7.37,2.55,14.29,4.7,21.61,3.43a30.71,30.71,0,0,0,19.11-11.2c9.17-11.36,9.43-23.68,2.95-37.07,4.59-.85,8.81,0,12.91-.5a38.55,38.55,0,0,0,23-11.57,36,36,0,0,0,7.26-10.3c1.73-3.88,3.5-7.75,3.46-12.09,0-4.51.12-9.1-.66-13.51-.7-4-2.55-7.77-4-11.88h13c22.71,0,43.87-20.89,41.07-46.41-.32-2.91-1-5.9-.27-8.91,2.76-.55,5,.58,7.17,1.2,18.25,5.16,41-4.88,48.55-25.07.64-1.69,1.14-3.44,1.76-5.14.39-1.07.47-2.43,2-2.57,21.18,19.18,47.32,18,66.16-5.48,2.8,1.29,3,4.36,4.48,6.56,9.07,13.69,21.74,21.14,38.16,19.73,15.86-1.36,27.68-9.65,34.24-24.59a40.2,40.2,0,0,0,3.64-13,20.74,20.74,0,0,1,1-3.61c2.71,1.9,4.82,3.55,7.1,4.94a36.87,36.87,0,0,0,45.81-5.17c9.62-9.84,13-21.44,10.57-34.85-.25-1.42-1.18-2.86.44-4.18,2.3.35,4.65.87,7,1a34.85,34.85,0,0,0,35.31-24.23c2.63-8.5,1.53-16.68-2.08-24.67-1-2.09-2.8-3.84-2.69-6.49,3-.78,6-1.37,8.83-2.29,15.65-5.05,24.35-19.87,21.39-36.16a56.27,56.27,0,0,1-.51-5.94c20-7.28,23.66-16.76,21.44-35.41,22.23-2.74,22.3-7.8,28.36-21.08,4.57.13,9.19,1.09,13.41.17s8-3.71,12-5.69c1.6,1.77,3.12,3.65,4.85,5.3,4.26,4,9.46,5.22,15.11,4.33a14.83,14.83,0,0,0,11.1-8,216.16,216.16,0,0,0,58.44,66.18,18.1,18.1,0,0,0-9.44,5.56c-1.35,1.55-2.5,3.29-4,5.28-7.95-5.92-16.24-7.59-24.49-1.81-7.7,5.4-9.58,13.43-8.24,22.54a97.82,97.82,0,0,0-9.65,2.51c-6.64,2.48-11.61,7-12.48,14.22-1,8.14-.74,16.39,5.93,22.74.15.15.08.53.19,1.35-2.16,1.71-5.18,2.39-7.66,4-6.71,4.31-11,9.93-11,18.45-.08,6.6,1.13,12.55,4.94,17.95.66.94,1.18,2,1.87,3.17a95.64,95.64,0,0,0-7.52,6.77c-7.07,7.79-11.13,16.49-7.33,27.26a29.65,29.65,0,0,1,.75,3.54,26.72,26.72,0,0,0,10,15.71c1.36,1.09,2.6,2.33,3.8,3.42-.32.66-.39,1-.6,1.19-1.63,1.33-3.36,2.55-4.93,3.94-9.67,8.64-14.8,18.76-11.32,32.17,1.46,5.63,3.18,11,6.63,15.71a18.29,18.29,0,0,1,1.52,3.33c-2.89,1.14-5.43,2.06-7.9,3.12-5.63,2.43-10.69,5.73-14.47,10.6-7.62,9.82-11.19,20.56-6.69,32.9.83,2.27,1.57,4.57,2.24,6.89.29,1,1.38,2.16-.09,3.14a3.52,3.52,0,0,1-.9.15c-.89-.12-1.78-.27-2.66-.45-16-3.28-29.15,1.53-39.8,13.65a14.57,14.57,0,0,0-3,4.49c-2,5.68-3.68,11.45-5.48,17.19-.43,1.39-.81,2.81-1.18,4.12-.75-.05-1.08,0-1.29-.11-1.54-.94-3-2-4.58-2.89-15.26-9.29-30.33-8.57-45.17.94a21.78,21.78,0,0,0-7.6,7.63c-1.75,3.14-3.48,6.3-5.09,9.52-3.31,6.63-4.85,13.58-3.57,21,.25,1.49.49,3,.61,4.48.13,1.71,1.68,3.3.43,5.13-1.82,1.23-3.46-.08-5.15-.39-10.43-1.89-20.49-1-29.79,4.38-13.14,7.59-19.43,19.25-20,34.26a39.24,39.24,0,0,0,6.46,24.05c1,1.51,2.19,2.9,3.13,4.44a22.31,22.31,0,0,1,1.39,3.49c-2.62.55-4.65.92-6.66,1.41a41.94,41.94,0,0,0-22.24,13.16c-4.69,5.31-7.24,11.78-9.32,18.43a37.56,37.56,0,0,0,.73,24.87c3.24,8.68,8.35,16,16.23,21.21,1.61,1.07,4.09,1.51,4.34,4.4-2.79,1.56-5.64,3.21-8.54,4.77-13,7-19.68,28.29-17.57,39.24.17.89.45,1.75.66,2.63,2.45,10.19,8.41,17.87,16.83,23.87,1.58,1.14,4.15,1.31,4.41,4-2.65,2-5.67,3.63-7.84,6a40.52,40.52,0,0,0-5.82,9.1,35.63,35.63,0,0,0-3.26,9.32,51.24,51.24,0,0,0-.25,9.92,20.51,20.51,0,0,0,3.32,10.22c1.65,2.74,3.44,5.38,5.41,8.45-6.36,2.33-12.76,3.66-16.77,9.14-3.59,4.91-6.51,10.07-7.54,16.24-1.1,6.56,2.51,12,4.15,17.85-4.48,1.45-8.58,2.46-12.39,4.12s-6,4.92-8.12,8.28c-2.38,3.74-1.44,8.14-2.24,11.9-5,0-9.45-.45-13.81.13s-7.47,3.55-10.34,6.83c-3.12,3.58-2.23,8.61-4.54,12.43-17.35-7.58-21.36-6.75-32.19,6.49a59.64,59.64,0,0,0-5.4-3.07,14.45,14.45,0,0,0-18.74,6.21c-3,5.16-2.65,10.36-.39,15.63.21.47.43.9.66,1.33q-26.06-15.57-51.22-32.54A1099.38,1099.38,0,0,1,328.19,1871.81Zm623.56-574.57c-.1,4.08-4,7.51-8.55,7.43a7.53,7.53,0,0,1-7.4-7.44c-.12-4.29,4.14-7.51,9.5-7.19A6.91,6.91,0,0,1,951.75,1297.24Zm-99,329.61c-10.9,1.38-20.16-2.7-27-11.38-5.9-7.52-7.5-16.25-5.79-25.59a12.93,12.93,0,0,1,4.11-7.83,53.74,53.74,0,0,0,4.38-4.54c10.24-11.31,31.41-12,42.63,1a27,27,0,0,1,6.86,18.73C878.77,1611.52,867.92,1624.93,852.72,1626.85Zm16.06-84.58c-.17-16.54,10.38-28.78,26.85-28.77,14.07,0,25.69,12.3,25.31,26.46-.44,16.41-13.76,26.06-27,25.72C880.43,1565.32,868.6,1554.23,868.78,1542.27Zm26.32-50.64a16.93,16.93,0,0,1-5-14c.79-8.53,3.54-15.82,11.41-20.36,12.91-7.44,26.4-.4,31.25,8.65,6.19,11.54,1.51,26.13-10.34,31.31-3,1.29-6.34,1.65-9.52,2.44C905.6,1499.69,899.9,1496.56,895.1,1491.63ZM919,1434.32c-6.83,3.69-13.49,2.59-19.52-1.93-7.27-5.44-8.89-12.39-5.42-21.77,3.53-9.57,11.22-12.93,17.92-12.71,8.65.29,14.95,6.24,16.81,15.06.31,1.47.55,3,.8,4.31C928.84,1424.85,925.58,1430.74,919,1434.32Zm-19.48-64.94c1.64-2.93,2.88-5.68,4.58-8.09a13.19,13.19,0,0,1,14.29-5.1c4.74,1.27,9.88,5.85,10.33,12.18.58,8.18-3.16,13.28-10.54,15.57-6.23,1.93-13.23-1.47-16.42-7.84A53.54,53.54,0,0,1,899.48,1369.38Zm24.11-31.48c-4.19-.09-7.57-1.64-9.59-5.46-.83-1.56-1.38-3.26-2.34-5.57a59.55,59.55,0,0,1,4-6.48,10.2,10.2,0,0,1,12.87-2.89c4.48,2.27,7.12,7.4,6.1,11.86A10.76,10.76,0,0,1,923.59,1337.9ZM657.13,1943.32a16,16,0,0,1,14.81-7,12.87,12.87,0,0,1,12,9.42c.36,1.14.65,2.31,1.24,4.38a76.36,76.36,0,0,1-2.67,7.69c-3.28,7-12.82,9.24-18.47,7.17A14.58,14.58,0,0,1,657.13,1943.32Zm.75,47.14c-.09,5.36-5.27,10.06-10.83,9.83s-10.67-5.11-10.45-10.26c.22-5.33,5.28-9.91,10.83-9.82S658,1985.14,657.88,1990.46Zm11.89-91.24c.26-11.6,10.08-19,21.1-19.11,12.57-.06,20,9.84,20,20a20.51,20.51,0,0,1-20.49,20.71C679,1921,669.51,1911.13,669.77,1899.22Zm24-37.22c-16.08.17-28-12.19-28.14-28.1-1.84-14.16,15.29-27.15,27.18-27.12,15.52,0,28.7,12.45,28.19,28.11C720.46,1852.1,707.32,1861.87,693.79,1862Zm6.41-73.77c-18.06-.39-30.59-14.69-31-32.36-.42-17,16.51-31.64,32.48-30.65,15.41-.5,31.12,13.69,31,31.25C732.46,1772.2,720.66,1788.67,700.2,1788.23Zm1.21-90.39c-5.92-9.74-6.06-19.8.18-29.92,5.69-9.22,15.28-15.19,26.14-15.16a29.57,29.57,0,0,1,29.57,31.13c-.58,13.84-9.89,24.57-23.24,27.84C723.4,1714.34,709.72,1711.48,701.41,1697.84ZM752,1620.6c.49-1.74.92-3.5,1.49-5.21a36,36,0,0,1,1.52-3.3c3.06-2.47,6-5,9.17-7.35,12.12-9,35.5-6.87,43,12.82,6.67,17.49-2.92,34.06-19,38.8C767.09,1662.54,746,1642.11,752,1620.6ZM623.44,2010.36a10.76,10.76,0,0,1-7.78,8.94,6.18,6.18,0,0,1-6.35-2.26,8.23,8.23,0,0,1-.53-9.24c2-3.07,4.23-5.86,8-5.75A7.2,7.2,0,0,1,623.44,2010.36Zm-33.89,15.41a6.57,6.57,0,0,1-7.77,5.75A7.28,7.28,0,0,1,583,2017c2.55.18,4.59,1.31,6.56,4.22A25.74,25.74,0,0,1,589.55,2025.77Zm-39.85,6.65a6.69,6.69,0,0,1,1.27-6.65,9.82,9.82,0,0,1,2.29-1.4,7.23,7.23,0,0,1,2.33,1.13,5.86,5.86,0,0,1-.85,8.6A3.33,3.33,0,0,1,549.7,2032.42Zm125.44,73.31A1088.66,1088.66,0,0,1,554,2045.27a15.13,15.13,0,0,0,8.59-3.8c1.77-1.52,3.37-3.24,5-4.78,16.15,10.89,28.79,5.75,34.26-10.55a21,21,0,0,1,3,1.14c12.8,7.6,26.36-1,28.81-13,.41-2,1.12-4,1.77-6.25,3,.78,5.6,1.34,8.13,2.12,5,1.55,9.49.29,14-1.75,8.87-4,13.58-16.51,10.47-23.63a63.22,63.22,0,0,1-2.12-6.91c3.9-.82,7.45-1.36,10.88-2.33,14.82-4.21,24.12-21.9,16.36-37a17.86,17.86,0,0,1-1.31-2.37,23.4,23.4,0,0,1-.59-3.38c3.4-.76,6.37-1.25,9.23-2.09,17.33-5.11,25-23.19,21.58-36.9A34,34,0,0,0,710.14,1875c-1.13-.92-2.66-1.56-2.43-3.84,2.36-1.4,5-2.78,7.46-4.45,11.57-7.92,17.49-19,17.45-33,0-12.14-5.12-22.13-14.47-30-1.76-1.48-4.44-2.12-5-5.22,2.93-1.44,5.93-2.81,8.83-4.37A40.59,40.59,0,0,0,742.76,1768c3.2-12.17,1.65-24-5.31-34.72-1.93-3-4-5.87-6-8.77.59-.47.79-.74,1.06-.82,2-.61,4.06-1.16,6.08-1.77,15.15-4.58,24.47-14.74,28.68-29.86a37.16,37.16,0,0,0,.1-19.66c-.44-1.69-.89-3.59,1.33-5a49.27,49.27,0,0,1,5.09.77c16.34,4.07,39.43-6.53,45.7-28.18,1-3.44,1.75-6.94,2.75-11,3.26,1.82,6,3.55,9,5a40.48,40.48,0,0,0,53.3-16.43c6.84-12.52,7.3-25.24,1.48-38.23-.46-1-1.46-2.07-.09-3.16a104.53,104.53,0,0,0,10.74.47c11.46-.58,20.86-5.3,28-14.42,10-12.71,11-33.45-1.35-47.7-1.07-1.23-3-2.06-2.44-4.28,2.5-1.1,5-2.06,7.44-3.3a34.09,34.09,0,0,0,10.51-52.46c-2.49-2.92-6-5-9-7.45-1.13-.91-2.8-1.27-2.91-3.51.94-.83,2-1.8,3.17-2.76,15.27-13.28,13.54-34.91,3-45.34a50.72,50.72,0,0,1-3.54-4.41c5.17-6.17,10.12-12,10.08-20.71s-3.78-15-9.6-21.15c2.55-1.69,4.92-3,7-4.69,7-5.81,10.64-13,8.35-22.34a39.28,39.28,0,0,1-.62-5c14.05-6.47,11.73-4.77,19.26-17.28,2.51.61,5.08,1.35,7.7,1.85a17.67,17.67,0,0,0,13.77-3A14.6,14.6,0,0,0,992,1285.9a213.45,213.45,0,0,0,83.29,27.67,20.18,20.18,0,0,0-5.33,9.89c-.45,2-.67,4-1,5.94a50.77,50.77,0,0,0-5.86,0,24.41,24.41,0,0,0-5.27,1.27c-8,2.89-12.24,9.61-12.18,18.1a21.65,21.65,0,0,0,5.76,15.14c-2.62,2.53-5.17,4.66-7.34,7.13-5.5,6.24-6.26,13.7-2.37,20.89.58,1.06,1.2,2.09,1.75,3.17a19.49,19.49,0,0,0,11.08,10.12c1.28.45,3,.73,3.07,2.68-1.4,2-2.93,3.86-4.14,5.93a24.53,24.53,0,0,0-3.54,12.94A13,13,0,0,0,1051,1432c3.71,7.74,8.2,14.82,16.82,18.06.48.18.79.84,1.13,1.22-1.17,4.38-2.8,8.65-3.4,13.07-1.18,8.72.19,16.85,7.45,23a46.43,46.43,0,0,1,3.79,3.89,24.16,24.16,0,0,0,15.84,7.87c1.69.18,3.36.61,5.68,1-.94,2.19-1.53,3.88-2.35,5.44-3.24,6.16-3.29,12.76-2.77,19.44a19,19,0,0,0,4,10.93c5,6,10,12.21,17.68,15.13,1.35.52,3,.85,3,2.81a4.76,4.76,0,0,1-.45.81c-.58.69-1.18,1.37-1.8,2-8.13,8.7-11.35,19-10.1,30.79.86,8.07,3.45,15.14,10.28,20.31a35.52,35.52,0,0,1,7.87,7.78c-3.19,1.34-6,2.39-8.66,3.64-12.75,5.92-19.93,16.23-22.9,29.65a18.77,18.77,0,0,0,.24,7.11c1.15,6.49,2.55,12.93,3.88,19.49-2.31,1.9-5.13.85-7.74.9-14.75.29-26.06,6.84-34.22,18.88-3.78,5.58-6.33,11.63-4.82,18.74.43,2,0,4.2,0,6.32a32.86,32.86,0,0,0,6.21,19.51c1.54,2.22,3.43,4.21,5.06,6.37a27.34,27.34,0,0,1,1.81,3.27c-2.17.81-3.8,1.55-5.5,2a36.23,36.23,0,0,0-17.19,11.27c-10.62,12-14.85,25.33-8.36,40.84.24.56.37,1.15.59,1.71a40.05,40.05,0,0,0,22.65,23.36c1.64.68,3.24,1.45,5.11,2.3a17.13,17.13,0,0,1-1.94,2.35c-14.65,11.8-19.64,26.85-15.36,45.12,4.73,20.17,22.09,30.84,35.3,32,2.94.25,5.87.62,9.42,1-3.41,6.06-7,11.17-8.88,17.25-2,6.48-.21,12.56.49,18.76s3.62,11.51,7.41,16.29a38.56,38.56,0,0,0,15.12,11.22c5.86,2.57,12.28,2.09,19.73,3.57-4.93,5.87-4.84,12.27-5.07,18.53-.44,12.14,4.27,21.71,15,27.87,2.59,1.49,5.38,2.63,8.46,4.12a18.36,18.36,0,0,1-2.24,2.85c-8,6.91-9,16-7.72,25.61.83,6.26,4.22,11.15,9,15.2,1.72,1.44,4.58,1.89,4.92,5.16-1.31,1-2.76,2.09-4.11,3.26-4.06,3.49-6.18,8-7.17,13.23-.85,4.55.62,8.28,3,12a23,23,0,0,1,1.4,3.6c-1.83.57-3.23,1-4.59,1.44-10.53,3.73-15.3,13-12.27,23.7.55,1.94,1,3.9,1.5,5.71-.72.41-1,.65-1.23.66a5.1,5.1,0,0,1-1.79-.09c-5.16-1.55-9.51.48-13.64,3.16s-6.18,6.51-7.22,11.1c-.45,2-.89,4-1.36,6a65.81,65.81,0,0,0-6.67.5c-5.45,1-9.31,4-11.2,9.36-2,5.58-1.43,10.71,2.41,15.28a31.6,31.6,0,0,0,4.62,4.33l.33.24A1099.12,1099.12,0,0,1,880,2169.32,1086,1086,0,0,1,675.14,2105.73Zm468.62-8.72c.34-6.26,4.14-9.85,10.47-9.68s10.12,4.07,9.85,10.24a10.42,10.42,0,0,1-10.71,9.85C1145.9,2106.59,1143.44,2102.88,1143.76,2097Zm.42,33.23c-.18,1.77-.2,2.67-.37,3.54-.67,3.51-3.63,6.23-6.67,6.17-3.46-.06-7.27-3.09-7.52-6.47a20.56,20.56,0,0,1,.74-7,5.93,5.93,0,0,1,5.12-4.42,6.35,6.35,0,0,1,6.84,3.2A26.76,26.76,0,0,1,1144.18,2130.24Zm10.52-63a12.12,12.12,0,0,1-9.28-2.62c-4.51-3.49-7.47-8-6.37-14,1.28-7,6.89-12.54,12.93-13.52,8.53-1.4,16,4.45,16.48,14.64A16.09,16.09,0,0,1,1154.7,2067.25Zm-8.11-48.74c-10.9.18-21.47-10.3-20.85-20.83.62-10.72,10.71-20.88,20.6-20.27,11.17,0,20.89,9.27,20.65,20.83A20.77,20.77,0,0,1,1146.59,2018.51Zm-3.09-78.78c-.7,18.84-15,27.24-28,27-14.28-.14-28-13-27.65-25.82.49-16.61,12.78-28.8,28.48-29.07C1127.81,1911.59,1144.19,1921.61,1143.5,1939.73ZM1115,1869.26c.23,14.62-12.7,31-32.56,30.4-17.22-.49-31.34-16-30.85-30.65.65-19.47,15.33-32.82,32.09-32.49C1105.29,1837,1116.12,1854.81,1115,1869.26Zm-41.23-48.56c-6.82,1.35-13.27-.29-19.18-3.53a34.45,34.45,0,0,1-11.13-10.44c-3.24-4.47-3.16-9.61-3.25-14.09-.78-12.67,4.38-21.64,14.5-27.77,16.94-10.27,40.4.33,43.76,19.83C1102,1804.75,1089.53,1817.57,1073.81,1820.7Zm-15.23-101a13.43,13.43,0,0,1,.8-7.09c.95-2.2,1.67-4.52,2.66-6.71,5.15-11.39,14.75-17.39,27.23-17.1,14.3-.45,26.28,12,27.56,24.88,1.49,15.15-6.94,27.69-21,31.69C1078.8,1750.22,1060.74,1738.4,1058.58,1719.7Zm44.25-56.67a9.75,9.75,0,0,1-.6-3.53c1.37-11.78,4.91-22.33,16.22-28.5a29.26,29.26,0,0,1,41.18,15.1c7,17.32-5.86,40.19-27.61,39.51A30.16,30.16,0,0,1,1102.83,1663Zm41.74-53.68a26.88,26.88,0,0,1-21-7.27c-1.5-2.87-2.8-5.25-4-7.67a26,26,0,1,1,25,14.94Zm-9.11-68.41c-2.66,1.2-5.79,1.36-8.7,2a26.82,26.82,0,0,1-12.23-3.36c-3.52-2-6.32-4.57-7.36-8.7-.45-1.74-1.25-3.39-1.76-5.13a22.06,22.06,0,0,1,9.63-25,22.65,22.65,0,0,1,27.54,2.84C1153.13,1513.28,1152.7,1533.13,1135.46,1540.94Zm-25-60.25a16.73,16.73,0,0,1-14.83,7.5c-4.55.18-8.6-1.73-12.41-4.26a5.67,5.67,0,0,1-1.92-1.88c-2.8-5.39-5.18-10.92-3.89-17.23,2.82-13.88,18.75-19.52,29.51-10.3A19.73,19.73,0,0,1,1110.47,1480.69Zm-35.58-39.84c-7.61-.12-13.82-5.72-13.74-12.6.14-10.67,6.06-15.86,14.42-16.07,7.73-.2,14.09,6.76,13.93,14.65A14.33,14.33,0,0,1,1074.89,1440.85Zm-10.71-45.5a14.73,14.73,0,0,1-6.2-.16,9.84,9.84,0,0,1-6.7-5.35,54.08,54.08,0,0,1,0-6.46,10.44,10.44,0,0,1,10.33-9.41,11.31,11.31,0,0,1,10.94,10.09A10.9,10.9,0,0,1,1064.18,1395.35Zm-8.41-44.7a11.3,11.3,0,0,1,3.57-7.44,7.19,7.19,0,0,1,9.71-.2,7.38,7.38,0,0,1,1.08,9.69c-3,4.47-8.24,5.1-12.18,1.32A16,16,0,0,1,1055.77,1350.65Zm66.45,809.08a6.79,6.79,0,0,1-6.87,6.72c-4.77-.09-7.95-3.46-7.54-8a7.81,7.81,0,0,1,8-6.89C1119.53,2151.66,1122.39,2155.28,1122.22,2159.73Zm-34,16.53c.3-1.7,2.42-3.26,3.87-2.84a5.94,5.94,0,0,1,4,7.63,3.77,3.77,0,0,1-3.66,2.47,6.29,6.29,0,0,1-2.06-.91A6.58,6.58,0,0,1,1088.21,2176.26Zm231.77-6.94a1099,1099,0,0,1-219.14,22.17A13.47,13.47,0,0,0,1106,2185c1-2.47,1.61-5.08,2.53-8.05,1.54.13,3,.28,4.41.38,5.32.36,10.17-.81,14.21-4.51a17.83,17.83,0,0,0,6.22-13.56c0-2.6-1.29-5.38.95-8.09,7.68-.46,14.57-2.9,18.5-10.47,3.77-7.28,2.13-14.51-.74-21.94,3.32-.92,6.25-1.53,9.05-2.53a20.3,20.3,0,0,0,13.85-21,19.62,19.62,0,0,0-7.69-14.78c-1.34-1.06-3.3-1.7-3-4a91.73,91.73,0,0,0,7.56-6.42c6.49-6.76,8.87-14.75,7-24.09-1.62-8-6.24-13.55-13-17.66-1.22-.74-2.81-1.18-2.48-3.39,11.67-8,17.18-19,14.59-33.34a30.34,30.34,0,0,0-8-16c-6.38-6.61-14.59-9.16-23.66-10.2.61-3.58,3-5.71,4.32-8.31,9.67-18.41,2.88-41-13.49-51a37.75,37.75,0,0,0-14.24-5.51c-2.49-.37-5.3-.27-7.37-2.23,2.63-4.49,5.33-8.51,7.45-12.81,8.39-17,2.5-36.55-7.69-47-5.2-5.36-11.42-8.82-18.14-11.65-1.35-.57-2.88-1-2.9-2.89,2.84-3.12,6-6,8.41-9.41a44.08,44.08,0,0,0,5.7-11.24,39.87,39.87,0,0,0,1.63-11.58,45.3,45.3,0,0,0-1.22-12.53,43.65,43.65,0,0,0-5.38-11.39c-2.2-3.48-5.14-6.49-8.29-10.36,8.87-2.51,16.52-5.75,22.51-12.06,6.26-6.59,9.73-14.48,11.28-23.27,1.52-8.63-1.53-16.6-4.55-25.13,2.89-.13,5.24-.42,7.57-.3,10.22.51,18.89-3.29,26.69-9.46,11.61-9.16,17.09-26.46,13.24-40.79a43.07,43.07,0,0,0-16.5-24.18c-1-.71-1.94-1.36-1.43-3.12,2.47-1.25,5.22-2.48,7.81-4a37.46,37.46,0,0,0,16.83-43.76c-3.56-11-10.93-18.56-21.37-23.25-2.15-1-4.4-1.72-7.05-2.75,1-1.4,1.68-2.37,2.43-3.24,9.61-11.36,10.93-24.19,5-37.25-5.56-12.23-15.81-18.64-29.49-19.1-1.73,0-3.45-.4-5.69-.68.92-3,1.77-5.58,2.46-8.16a28.79,28.79,0,0,0-.06-15.19c-2.94-11-9.72-18.53-20.44-22.43-1.94-.71-4.24-.71-5.54-3.5.61-4.51,2.3-9.43.91-14.62a29,29,0,0,0-8.1-13.85c-3.83-3.69-9.11-4.43-13.37-6.65,1.79-4.31,3.6-8.08,4.93-12a15.82,15.82,0,0,0-1.58-13.13c-2-3.59-4.74-6.79-7.14-10.15,8.13-9.94,8.13-9.94,8.28-24.68,2.71-.62,5.08-1,7.33-1.72A17.5,17.5,0,0,0,1101,1328.9a14.6,14.6,0,0,0-.93-13.9,214.19,214.19,0,0,0,81.69-16.09,18.26,18.26,0,0,0-.17,11.45c.61,2,1.43,3.92,2.24,6.11-1.06.81-2,1.56-2.92,2.24s-2,1.28-3,2c-7,5.07-11,17.53-3.38,26.52,2.17,2.55,4.34,5,7.36,6.58,1.27.67,2.42,1.56,3.6,2.33-.9,3.66-1.93,6.82-2.44,10.06-1,6.37.58,12.55,5.54,16.39,5.62,4.36,11.86,8.53,19.82,7.48,1.33-.17,2.77.45,4.37.74a72.61,72.61,0,0,0,.06,8.53c.9,7.38,2.66,14.33,10.51,17.66a44.22,44.22,0,0,1,3.83,2.39,22,22,0,0,0,11.25,2.94c2.06,0,4.11-.2,6.48-.33.83,3.69,1.31,7.28,2.46,10.65,3.27,9.61,8.6,17.3,19.53,19.24,1.18.21,2.3.76,3.47,1,6.92,1.59,13.74,1.76,20.37-1.35,1-.47,2.1-1.39,3.81.1a37.24,37.24,0,0,1,1.18,5.54c.64,8,4.5,14.33,9.77,19.92,1.82,1.94,4.08,4,6.52,4.73,6.85,2.12,13.57,5.23,21.1,4.22,1.7-.23,3.61-.69,4.82.5-.16,6.28-.64,12.27-.38,18.23.34,7.86,4,14.43,9.23,20.17,5,5.54,10.84,9.49,18.62,10,2.9.21,6,.47,8.59,3.14-1.53,1.95-3.1,3.74-4.45,5.68-7.66,11-10.42,23-6.31,36.05a17.92,17.92,0,0,0,3.12,6.45c4.2,4.72,7.39,10.33,12.56,14.2,1.17.88,2.41,1.89,1.71,3.71-2.87,1.68-5.87,3.15-8.55,5-12.89,9.13-18.72,21.72-17.79,37.41.26,4.25,1.27,8.35,4.17,11.74a13.71,13.71,0,0,1,1.94,3c5.07,10.86,13.64,17.4,25.09,20.41,1.17.31,2.33.68,2.59,2.55-1.37,1.61-3,3.39-4.46,5.25-5.88,7.29-9.4,15.69-9.38,25,0,19.13,8,29.91,24.95,38.48a31.28,31.28,0,0,0,15.79,3.36c2.72-.13,5.43-.34,8.14-.33a13.07,13.07,0,0,1,3.14.84c-7.31,26-1.63,36.57,11.85,50.85,5,5.28,11.71,8.19,19,10,11.92,2.93,22.59-.62,33.12-5.55,1.68,3-.19,5.67.24,8.29.48,3,.61,6,1.27,9a29.45,29.45,0,0,0,2.65,7.64,50.43,50.43,0,0,0,5.32,7.26,49.79,49.79,0,0,0,5.46,6,42.81,42.81,0,0,0,7.28,5.29,29.07,29.07,0,0,0,7.58,2.91,47.11,47.11,0,0,0,9,1,36.63,36.63,0,0,0,8.11-.49c2.94-.57,5.75-1.79,8.65-2.58,2.48-.69,4.3-3.09,7.56-3.14.26,5.47.88,10.44,3.7,15,2.69,4.36,4.79,9.07,8.89,12.42s8.53,5.95,13.69,6.64c5,.66,10,.44,15.07.61-5.3,20.63,6.22,36.85,28.45,39.08a62.16,62.16,0,0,0-2.18,5.9,23.74,23.74,0,0,0,.4,14.25,15.53,15.53,0,0,0,9.22,9.41,2.63,2.63,0,0,1,1.89,2.86,12.85,12.85,0,0,1-1.64,2c-8.84,7.44-7.73,21.86.68,27.77,1.42,1,3,2.16,2.91,4.27-15,9.13-16,16.77-10.28,30.59-2,1.16-3.69,1.92-5.15,3a13.3,13.3,0,0,0-5.69,8.92c-1,6.18.78,11.54,5.74,15.29a17.67,17.67,0,0,0,9.87,3.65A1082.5,1082.5,0,0,1,1320,2169.32Zm-96.26-771.61c-.23-7.62,6.44-14.28,14.28-14.24,7.15,0,14.14,6.54,14.18,13.62,0,8.61-5.81,15-14.45,14.9C1230,1412.12,1224,1406,1223.72,1397.71Zm34.3,25.93c0-11.73,10.32-19.68,22.34-17.17,10.61,2.22,19.17,15.24,13.63,26.8-3.34,7-12.79,11.9-20.38,10.43a11.39,11.39,0,0,1-1.73-.49C1264.5,1440.54,1258,1431.38,1258,1423.64Zm164.17,321.81c-8.75,2.22-16.74.61-24.14-4.22-5.54-3.62-8.44-9.37-10.85-15.21-7.06-17.12,6.12-40.23,28-39.37,16.38-.6,28.26,13.57,29.52,25.33C1446.44,1728.29,1437.47,1741.56,1422.19,1745.45Zm43.68-.85c19.28,0,32.19,16,31.64,31.32.34,17.19-12.81,31-31.3,32-20.23-2.1-31-11.88-31.57-31.5C1434.12,1757.45,1449.56,1744.64,1465.87,1744.6Zm-80.42-73.77a39.21,39.21,0,0,1-9.57-5c-5.55-4-9.32-9.12-9.35-16.59,0-6.34-.61-12.53,2.18-18.6,6-13.15,21.17-19.06,35-15,11.29,3.34,20.67,15.56,19.62,28.27C1423.86,1661.88,1404.31,1677.69,1385.45,1670.83Zm16.81-73a33.19,33.19,0,0,1-12.27-2.52c-7.69-2.92-13.38-8-14.86-16.66-.6-3.53-1.28-7.05-1.92-10.58-.12-13.12,9.34-27.11,27.24-28.84,11.9-1.14,22.69,5,28.4,17C1438.21,1576,1423.39,1597.25,1402.26,1597.85Zm-5.25-84.41c-5.16,8.6-13.26,12.84-24.34,12.79-6.79.3-12.28-4.25-17-9.25-7.44-7.94-9.07-17.58-4.81-27.67,4.12-9.78,12-15,22.45-15.64s18.75,4,24,13.13C1402.44,1495.62,1402.16,1504.87,1397,1513.44Zm-68.4-37.27c-10.12.51-22-12.77-21.88-22.65.24-13.35,9.78-22.88,22.64-23.37,12.09-.46,22.62,10.11,22.78,22.25S1342.66,1475.47,1328.61,1476.17ZM1529.55,1794c15.76.09,27.39,11.54,27.57,27.37.92,13.33-11.39,28-27.42,27.47-15.32-.47-26.87-9.23-27.37-27.12C1501.93,1807.63,1513.5,1793.9,1529.55,1794Zm100,251.36c-2.91-1.23-4.65-2.74-5.25-5.33a3.67,3.67,0,0,1,2.56-4.17,5.86,5.86,0,0,1,6.29,4C1633.8,2041.88,1633,2043.21,1629.51,2045.35Zm2.1-32.58c-.3-3.84,2.93-7.63,6.92-8.15,3.53-.45,7.32,3.29,7.5,7.41a7,7,0,0,1-6.3,7.49A7.53,7.53,0,0,1,1631.61,2012.77Zm7.11-30.12a24.14,24.14,0,0,1-3-6.46c-1.35-4.65,3.29-9.06,8-7.82a10.62,10.62,0,0,1,7.68,10,6.89,6.89,0,0,1-4.61,7A7.63,7.63,0,0,1,1638.72,1982.65Zm2.3-33c-5,.11-9.46-4.41-9.69-9.8a10.6,10.6,0,0,1,10.55-11c5.09-.14,9.56,4.37,9.67,9.77A10.65,10.65,0,0,1,1641,1949.65Zm-21.53-34.31a14.73,14.73,0,0,1-15-14.59c-.1-9.12,6.33-16.1,14.67-16,7.8.15,14.16,7.22,14.11,15.69C1633.2,1908.76,1627.3,1915.14,1619.49,1915.34Zm-13.6-57.63a20.53,20.53,0,0,1-21.5,19.59c-11-1.24-19.69-6.93-19.1-21.45a20.34,20.34,0,0,1,20.69-19.58C1597.27,1836.63,1606.49,1847.3,1605.89,1857.71Zm265.92,14.1a1099.38,1099.38,0,0,1-161.55,133.28q-32.79,22.15-67.19,41.92a12.45,12.45,0,0,0,1-7c-.39-2.92-1.21-5.78-1.82-8.6,15.64-7.21,20.3-19.65,8.16-35.08,15.65-8.81,16.61-24.91.26-38,2.19-2,4.44-4,6.52-6,9.13-9.17,6.9-28.84-9.39-33.5-2.57-.74-5.2-1.27-8.38-2,.9-1.81,1.76-3.31,2.42-4.88,7.79-18.59-3.53-36.82-23.68-38.19-1.43-.1-2.84-.44-4.78-.75.91-2.46,1.71-4.38,2.33-6.35a31.73,31.73,0,0,0-40.39-40.1c-1.93.7-3.89,1.28-5.68,1.87-.49-.63-.81-.86-.83-1.1-.19-2.68-.34-5.36-.48-8-.81-15.22-8.14-26.27-21.65-33.09-10.58-5.34-21.45-5.39-32.38-.81-1.78.74-3.36,2.57-6,1.44.14-1.84.23-3.61.42-5.37,1.85-17.43-4.11-31.44-18.63-41.38a42,42,0,0,0-32-6.72c-1.66.29-3.43,1.49-5.13-.58a67.83,67.83,0,0,0,2-6.78c2.76-14.89-.24-28.14-11.23-39.13-5.28-5.27-11.67-8.47-18.67-10.68-1.41-.44-2.93-.79-3-2.63,2.59-3.41,5.21-6.72,7.66-10.14s3.48-7.62,4.54-11.74a29.69,29.69,0,0,0,.9-12.55,54.27,54.27,0,0,0-3.31-12.16,46.68,46.68,0,0,0-6.68-10.68c-2.6-3.19-5.93-5.78-9.35-9,1.69-1,2.91-1.79,4.16-2.5s2.67-1.42,4-2.19c14.1-8.36,22.7-27.74,17.64-44.82-5.17-17.46-17.19-27.06-34.82-30.17-1.62-.29-3.71.66-4.79-2,.55-.81,1.19-1.78,1.87-2.73.87-1.23,1.87-2.38,2.64-3.67,7.43-12.47,7.83-25.34.87-37.92-6.79-12.27-17.57-18.81-31.8-19a84.62,84.62,0,0,0-9.9.78c-1.21.12-2.35.4-3.1-.9.26-3.29.75-6.58.73-9.87a32.94,32.94,0,0,0-9.79-23.64c-10.33-10.49-25.4-12.54-38.53-6.93-2.15.92-3.86,3.07-7,2.33-.65-2.39-1.26-5-2.07-7.52-3.83-12-12-19.28-24.12-22.16a26.54,26.54,0,0,0-13.44.38c-1.62.46-3.4.29-5.52.44a30.53,30.53,0,0,0-6.5-14.12c-3.48-4.09-8.06-6-13-7.66s-10.06.54-14.6.11c-.63-.71-1-.91-1-1.16a35.64,35.64,0,0,1-.43-3.56c-.61-11.28-6.37-18.52-17.08-21.91-1.38-.43-3-.34-3.77-2.6,2.86-8.63,1.54-16.85-5.69-24,1.71-1.39,3.1-2.49,4.45-3.63,5.69-4.82,7.07-11.12,5.69-18a13.88,13.88,0,0,0-7.56-9.94,216.18,216.18,0,0,0,55.87-44,25.94,25.94,0,0,0,4.36,2.86c2.5,1,5.22,1.54,7.74,2.52a31.71,31.71,0,0,1,4.34,2.48c-.84,5.56-1.62,10.62-2.33,15.32.84,4.13,3.44,6,6.93,6.73,5,1.08,10,2,15.31,3.09.77,2,1.6,3.89,2.23,5.85,1.1,3.44,1.91,7,3.18,10.37,1.17,3.1,2.63,6.17,7.19,7.29,3.37-.65,7.48-1.57,11.64-2.2a42.84,42.84,0,0,1,6.22-.05c1.32,2.32,2.5,4.41,3.69,6.49,2.41,4.18,4.71,8.44,7.3,12.51,1.07,1.68,2.78,3,4.36,4.59,8.5-1.91,15.76-6.75,24.07-8,4.23,3,6.85,7.08,10,10.69,2.78,3.17,5.38,6.52,8.3,9.56,1.4,1.45,3.35,2.37,5.12,3.59,2.51-1,4.77-1.77,7-2.75,6-2.73,12-5.58,18.1-8.3,1.88-.84,3.89-1.4,5.73-2,5.81,3.56,9.88,8.49,14.49,12.8,2.65,2.48,5.23,5,7.91,7.45,3,2.73,6.53,3,10.17,1.68a30.17,30.17,0,0,0,4.79-2.54c5.74-3.32,11.45-6.7,17.21-10,1.53-.87,3-2.18,5.5-1.41,3,2.74,5.45,6.59,8.27,10.08,4.19,5.15,8.32,10.34,12.55,15.46,1.52,1.86,3.1,3.73,6.09,4.34,5.13-1.46,10.6-3.14,16.13-4.58s10.7-4,16.87-3.79a43.31,43.31,0,0,1,.88,4.5c.8,9.61,1.61,19.22,2.26,28.84.25,3.66.68,7.19,2.72,10.23a14.09,14.09,0,0,0,10.2,3.23c5.71-.31,11.42-.72,17.14-.92,6-.21,12-.24,18.08-.28.51,0,1,.52,1.82,1,1.15,2.66.58,5.71.6,8.66.1,10.86.06,21.73.16,32.6,0,2.35.44,4.71.71,7.37,2.13.92,3.93,2.07,5.89,2.49q14.14,3,28.37,5.67c3.54.66,7.09,1.14,10.57,2.94,1,3.47,2,6.93,3,10.37q4.52,15.18,9,30.33c1,3.42,2.79,6,6.94,6.48,6.16-1.7,12.53-3.55,18.95-5.2,6.64-1.72,13.07-4.37,20.2-5.14,1,1.7,2.07,3.17,2.92,4.73,3.76,6.89,7.43,13.82,11.21,20.7q6.54,11.9,13.25,23.69c1.18,2.07,2.43,4.24,5.86,4.87,1.63-.72,3.87-1.56,6-2.65,11.25-5.82,22.47-11.72,33.72-17.56,1.8-.94,3.71-1.67,5.68-2.54,8.37,7.57,16.4,14.87,24.48,22.11,3.6,3.22,7.21,6.42,11,9.42a38.4,38.4,0,0,0,5.44,3.18c3.87-.36,5.73-2.48,7.75-4.25,8.17-7.15,16.29-14.36,24.43-21.55,1.11-1,2.11-2.21,4.5-1.93,1.58,1.47,3.59,3.24,5.49,5.13,5.8,5.73,11.52,11.54,17.33,17.26,2.37,2.34,4.84,4.61,8.49,4.36,3.48-.83,5.83-3.22,8.24-5.5,4.82-4.56,9.62-9.15,14.45-13.71,1.07-1,2.08-2.22,4.36-1.69,1.33,1.85,2.92,4,4.46,6.23,1.89,2.72,3.68,5.52,5.63,8.21,1.45,2,3.26,3.56,5.88,3.83,6.86-.78,12.86-4.79,20.1-5.81a66.37,66.37,0,0,1,2.35,9.9,60.34,60.34,0,0,0,2.17,9.69c.6,1.9,2,3.55,2.79,4.91,1.25.28,1.88.63,2.41.52,4.39-.91,8.76-1.9,13.57-3a29.88,29.88,0,0,1,.66,4.3c.07,3.93-.08,7.85,0,11.78a36.8,36.8,0,0,0,.44,6.3,6.8,6.8,0,0,0,6.26,5.63c3.31.22,6.65,0,10,.13a29.43,29.43,0,0,1,4.81,1c1.11,7.37-.91,14.4,1.45,21.76l15.14,9.29c.41,3.73-.26,7.24-.79,10.81-.7,4.7-1.92,9.56,1,13.91a146.13,146.13,0,0,0,21.46,8q-12.71,20.75-26.3,40.9A1099.38,1099.38,0,0,1,1871.81,1871.81Zm233.92-347a1087.07,1087.07,0,0,1-55,111.71c-4.3-2.71-8.72-5.24-13-7.93a38.47,38.47,0,0,1-4-3.33l10-25.34a15.07,15.07,0,0,0-1.3-2.83,5.78,5.78,0,0,0-2.05-1.69c-3-1.43-6.08-2.67-9.07-4.11-4-1.95-8.44-3.19-12.37-6.34,2.53-8.67,5-17.28,7.28-25-.88-3.72-2.83-5.19-5.27-5.73-4.11-.91-8.29-1.59-12.46-2.19a87.13,87.13,0,0,1-13.8-2.78,10.17,10.17,0,0,1-.33-2.24c.81-6.28,1.66-12.55,2.49-18.82a6.22,6.22,0,0,0-2.94-6.74c-9.75-1.61-19.62,2.49-30.23,2.5-4-11.51-4.83-24-9-36.08-1.59-.33-3.34-1.15-4.92-.91a20.66,20.66,0,0,0-5.85,2.3c-7,3.51-14,7.16-21,10.67-2.09,1-4.32,1.8-6.63,2.75-1.42-1.72-2.61-3.06-3.69-4.48q-8.16-10.86-16.26-21.74c-2-2.73-4.26-5.1-8.13-5.51-3.55.83-6,3.57-8.56,6.08-7.14,7-14.23,14-21.37,20.9-1.25,1.22-2.4,2.77-4.58,2.58-8-8.07-16.08-16.22-24.22-24.27-5.37-5.3-8.16-5.57-14.32-1.75-1.28.79-2.48,1.7-3.72,2.57-7.18,5-14.35,10-21.56,15-1.14.78-2.26,2.12-4.51.94-.53-1.56-1.3-3.49-1.83-5.48-2.41-9-4.83-18.07-7.07-27.14-1-4-2.67-7.27-5.48-9.27-3.23-1-5.46.11-7.73.89q-19.65,6.82-39.3,13.68c-2,.68-3.85,1.85-6,.69-.33-.51-.85-1-1-1.51q-2.16-10.62-4.22-21.27c-.57-3-1-6-3.24-8.22-3.08-2-6.47-1.23-9.73-1.24s-6.64.13-10,.21-6.64.12-10,.26-6.46.38-9.49.56c-1.69-2.73-.72-5.09-.35-7.41,2.1-13.09,4.28-26.16,6.29-39.27.26-1.66-.33-3.46-.51-5.1a21.13,21.13,0,0,0-8.55-3.65c-10.9-2.37-21.77-4.83-32.64-7.3-3.2-.72-6.49-1.19-9.65-3-.2-2.48-.49-4.84-.56-7.2-.26-8.75-.34-17.51-.71-26.25a95.22,95.22,0,0,0-1.41-11.65,5,5,0,0,0-4.35-4.06,17.25,17.25,0,0,0-3.59-.31c-16.59.29-33.2-.21-49.76,1.26-2.36.2-4.75,0-7.09,0a39.5,39.5,0,0,1-2-3.47q-7.12-16.14-14.17-32.31c-1-2.3-2.17-4.32-5.89-5-15.14,5.22-30.19,12.94-46.1,19.39-1.49-1.53-3-2.94-4.34-4.51q-7.32-8.62-14.54-17.33a10.78,10.78,0,0,0-8.51-4.25c-12.31,4.62-23.06,13.8-35.7,19.63-6.72-5.22-9.09-13.77-15.33-18.47-3.25-.86-5.82,0-8.4.92-7.07,2.6-14.14,5.25-21.27,7.69-1.87.64-3.71,2.21-6.51.8-2.76-6.13-5.72-12.68-9.06-20.07-10,.34-17.65,7-27.08,8.46-1.22-2.41-2.34-4.51-3.37-6.66s-2-4.31-2.88-6.3c-5.36-2.29-11.37-.4-16.26-4.28.61-2.63,1.26-5.21,1.8-7.82.44-2.13.4-4.21-1.53-6.17-3.14-1.89-7.08-2.31-10.81-3.41-2.19-.64-4.8-.52-6.23-2.55-.33-4.67,4.23-8.51,1.17-14a70,70,0,0,0-19-6.13,213.73,213.73,0,0,0,33.13-101.75c4.61,3.09,11.78,8,16,10.89,4,2.72,8,5.34,11.93,8.21a11.7,11.7,0,0,0,12.77,1.31c3.82-1.77,7.57-3.7,11.33-5.61,2.91-1.49,5.76-3.13,9.39-3,7.57,11,13.66,22.79,21.75,33.32l7.31,1.31c11.55-6.21,20.64-15.7,32-22.73a15,15,0,0,1,1.86,3.34c1.45,6.16,2.72,12.36,4.15,18.53a62,62,0,0,0,2.26,7.79,5.08,5.08,0,0,0,6.09,2.68,22.14,22.14,0,0,0,4.77-2.5c7.46-5.12,14.86-10.34,22.29-15.51,2.7-1.87,5.43-3.7,8.53-5.81,1,1.68,2,2.81,2.46,4.13,2.65,8.33,5.13,16.72,7.74,25.06,2.33,7.49,4.65,15,7.2,22.39,2,5.73,6.25,7,11.32,3.74a58.77,58.77,0,0,0,5-3.83q22.74-18.67,45.44-37.37,3.49-2.88,7-5.69c2.55-2,4.6-4.77,8.17-6.18a38.59,38.59,0,0,1,2.4,4.9c2.6,8,5,16.11,7.59,24.16q4.49,14.25,9,28.46c.83,2.59,1.69,5.22,5.76,6.44,6.09-3.51,12.88-7.31,19.64-11.15,7.08-4,14.22-8,21.35-11.9,6.84-3.78,13.7-7.53,20.95-11.51,1.06,2,2,3.52,2.67,5.12q11.06,25.79,22,51.6a62.19,62.19,0,0,0,3.89,8.15c.84,1.38,2.56,2.23,4.14,3.54,3.4-2,6.57-3.73,9.55-5.72,14.84-9.84,29.61-19.77,44.44-29.61,1.39-.92,2.63-2.58,5.15-1.62.49,1.07,1.14,2.39,1.7,3.75,5,12,9.86,24,14.85,36a50.87,50.87,0,0,0,3.64,7.27,5.48,5.48,0,0,0,9.16.56,40.19,40.19,0,0,0,2.88-4.59q15.9-27.4,31.78-54.81c.88-1.51,1.9-2.94,3.61-5.56,1.29,3.79,2.06,6.07,2.83,8.35q8.55,25.27,17.12,50.55a41.53,41.53,0,0,0,2.29,5.89c2,4,5.56,4.74,9,2.05a55.56,55.56,0,0,0,4.62-4.33c4.91-4.9,9.78-9.85,14.7-14.75,1-1,2-2.31,4.28-1.47,3.69,8.18,7.49,16.7,11.39,25.16,2.91,6.3,5.8,12.62,9,18.77,2.67,5.15,5.76,5.41,9.83,1a74.45,74.45,0,0,0,5.09-6.35q16.54-22.11,33.06-44.22a63,63,0,0,1,4.4-4.73c1.93,1.7,3.56,3,5,4.46,5.58,5.52,11.06,11.14,16.67,16.62,5.19,5.06,10.44,10.06,15.8,14.92,1.24,1.13,3.06,1.62,4.84,2.51,8.36-6.61,14.13-15.18,21-22.66s13.37-15.41,20.21-22.67c3.23.7,4,3.21,5.33,5.12,7.29,10.73,14.47,21.54,21.74,32.29,2.34,3.47,4.5,7.16,8.8,9.09a16.82,16.82,0,0,0,3.2-1.46q31.72-23.31,63.39-46.69c1.15-.85,2.17-2.19,4.54-1.2.91,2,2.09,4.4,3.12,6.86,3.39,8.06,6.65,16.18,10.12,24.21a55,55,0,0,0,3.77,6.26c2.37-.16,4.53,0,6.46-.5,4-1.14,7.94-2.42,11.89-3.71q-4.8,34.77-11.81,69A1086,1086,0,0,1,2105.73,1524.86Zm76.84-284.76c-3.24,1.05-6.46,2.1-9.69,3.09a34.1,34.1,0,0,1-4.48.73c-.91-2-1.7-3.6-2.38-5.24-3.77-9.21-7.49-18.44-11.29-27.64a29.45,29.45,0,0,0-2.46-4.81,5.08,5.08,0,0,0-6.41-1.86,65.23,65.23,0,0,0-7.66,4.77q-26.05,18.79-52,37.69c-3.37,2.44-6.53,5.18-10,7.07-.67-.36-1-.44-1.18-.66q-14.44-21.87-28.82-43.8c-1.18-1.82-2.22-3.59-4.53-4.16-3.74,0-5.89,2.72-8.07,5.16-6,6.76-11.91,13.63-17.88,20.43-6.35,7.24-12.72,14.46-19.27,21.9-1.47-1.2-2.7-2-3.75-3.09q-15.11-15-30.14-30c-1.07-1.06-2.09-2.19-3.25-3.15-2.68-2.21-5.71-2.25-8.17.07a48.29,48.29,0,0,0-4.84,5.37q-7.79,10-15.44,20.1c-7.11,9.36-14.17,18.75-21.19,28-.64-.26-1.07-.29-1.17-.48q-10.58-22.47-21.13-45l-3.27-1.46c-6,1.72-9.11,6.94-13.31,10.71-4.45,4-8.31,8.64-13,12-2.78-1.25-3-3.45-3.62-5.41q-9.06-27.5-18.18-55a33.78,33.78,0,0,0-2.44-5.82,5.76,5.76,0,0,0-9.27-.89,34.73,34.73,0,0,0-3.61,5.18q-8.33,14-16.54,28.06c-5.32,9.12-10.56,18.29-15.89,27.4-.71,1.22-1.39,2.78-3.69,2.26-.59-1.15-1.38-2.42-1.93-3.8-3.46-8.68-6.85-17.39-10.31-26.08-1.67-4.2-3.45-8.36-5.18-12.54-.86-2.08-2.19-3.6-4.58-4-3.24,0-5.45,2.36-7.92,4-14.92,9.72-29.76,19.55-44.64,29.32-2.25,1.48-4.57,2.84-7.34,4.55-1.49-3.09-2.88-5.72-4.05-8.46q-6.9-16.23-13.7-32.53c-2.91-6.95-5.75-13.93-8.69-20.88-1.1-2.6-2.67-4.76-6.77-4.86-2.81,1.38-6.35,3-9.82,4.84s-6.85,3.81-10.29,5.68c-3.19,1.72-6.41,3.37-9.6,5.09-3.45,1.87-6.85,3.82-10.3,5.69s-6.89,3.75-10.39,5.52-6.51,4.11-10.69,5.22c-.82-2-1.61-3.62-2.13-5.3-3.23-10.37-6.38-20.76-9.59-31.12-2.06-6.63-4.53-13.14-6.2-19.86-1.75-7.06-6.86-8.85-12.72-3.86-3.9,3.32-8.15,6.23-12.14,9.45q-23.61,19-47.16,38.13c-1.59,1.28-2.9,3.14-5.75,3.14-.85-2.34-1.83-4.8-2.65-7.31-4.2-12.9-8.34-25.81-12.56-38.71a45.67,45.67,0,0,0-2.68-6.7,5.35,5.35,0,0,0-7.73-2.23,62.93,62.93,0,0,0-6,4c-8.11,5.77-16.2,11.58-24.33,17.33a23.58,23.58,0,0,1-3.29,1.6c-1.8-3.74-2.16-7.35-3-10.79-1.47-5.85-2.71-11.75-4.22-17.58-.81-3.12-2.63-5.4-6.72-5.56a37.17,37.17,0,0,0-3.45,2.17c-9.07,7-18.1,14.08-27.18,21.08-1.58,1.23-2.87,3.17-5.93,2.63-2.9-4.46-6-9.25-9.13-14-3.32-5-6.62-10.1-10-15.06-1.89-2.73-3.91-5.45-6.74-5.59-10.36,1.65-17.64,8.16-26.55,11.66-4.72-3.12-9.25-6.07-13.74-9.08-3.76-2.52-7.39-5.23-11.24-7.59-1.33-.81-6.43-3.9-10.45-6.08,0-1.06,0-2.12,0-3.19a215,215,0,0,0-8.16-58.87c3.6.52,7.14,1.07,10.7,1.49,8.08,1,16.16,2,24.27,2.67s16.22.21,24.06-2.71a47,47,0,0,1,11.39-2.69,50.65,50.65,0,0,0,18-5.71c3-1.51,5.83-3.2,8.84-4.57,3.27-1.5,6.56-3.16,10.22-2.64,6.54,4,13,7.91,19.35,11.94a109.18,109.18,0,0,0,34,14.32c4.12,1,8.13,2.13,12.16,3.38,9.5,3,19,3,28.12-1.68,7.26-3.69,14.65-7.15,21.83-11a39.32,39.32,0,0,1,14.64-4.23c11.54-1.23,22.82,1.6,33.57,1.3,9.27,5.43,17.85,10.48,26.45,15.49a20,20,0,0,0,4.06,2c11.1,3.34,14,2.49,20.65-5.45.58-.69,1.1-1.44,1.65-2.16q10.85-13.92,21.71-27.83c.89-1.14,1.75-2.46,3.53-2.25,18,17.1,20.39,18.9,42.25,34,5.27,3.63,10.84,6.59,17.24,7.56,9.11,1.39,18,1.5,26.14-4,3.72-2.53,8-4.3,12-6.41,13.36-7,26.75-14,40-21.08a75.8,75.8,0,0,0,16.27-11.41,65.44,65.44,0,0,1,9.18-7.35c6.81-4.41,14.12-6.71,22.33-4.12,9.2,2.89,18.44,5.65,27.65,8.5a45,45,0,0,1,10.68,4.82,134.87,134.87,0,0,0,33.77,15,25.86,25.86,0,0,0,18.47-1.06c9.69-4.19,19.53-8,28.86-13,5.6-3,11.39-5.6,18.09-4.78a11.89,11.89,0,0,0,4.44-.7c4-1.12,7.75-.3,11.44,1.3a146,146,0,0,1,30.27,18c6,4.61,12.46,7.21,20,7.27,7,0,13.89,0,20.83.11a43.08,43.08,0,0,0,20.06-4.66q15.48-7.52,31.06-14.79c7.67-3.58,15.49-6.73,24-7.89a93.53,93.53,0,0,0,11.56-2.06,103,103,0,0,1,23.13-3.87c2.68-.09,7.79-.74,12-1.37q3.77,45.51,3.8,91.35A1104.52,1104.52,0,0,1,2182.57,1240.1Z"/></svg>