<?xml version="1.0" encoding="utf-8"?>
<!-- Generator: Adobe Illustrator 26.0.1, SVG Export Plug-In . SVG Version: 6.00 Build 0)  -->
<svg version="1.1" id="Warstwa_1" xmlns="http://www.w3.org/2000/svg" xmlns:xlink="http://www.w3.org/1999/xlink" x="0px" y="0px"
	 viewBox="0 0 2200 2200" style="enable-background:new 0 0 2200 2200;" xml:space="preserve">
<style type="text/css">
	.st0{fill:#FFAB00;}
</style>
<g>
	<path class="st0" d="M1100,0C492.5,0,0,492.5,0,1100s492.5,1100,1100,1100s1100-492.5,1100-1100S1707.5,0,1100,0z M1092.7,1452.9
		c0.2,21.7,0.3,43.4,0.6,65.1c0.1,7.6-1.2,15-3.7,22.2c-2.8,8-5.7,15.9-9.7,23.3c-2,3.7-3.1,7.8-4.2,11.9
		c-1.7,6.1-2.8,12.3-4.4,18.4c-1.6,5.9-2,11.9-1.9,17.9c0,1.8,0.1,3.6,0.1,5.4c0.2,4.4-1.2,8.3-4.2,11.6c-2.5,2.6-4.8,5.4-7.5,7.8
		c-6,5.5-11.7,11.3-16.8,18.4c-1.3,7-0.1,14.5-0.7,22c-0.5,7.5-1.4,15-2.1,22.6c-3.9,5.6-8.2,11-13.2,15.9
		c-9.6,9.6-18.7,19.6-27.1,30.3c-2,2.6-4.7,4.7-6.9,7.2c-2.8,3.1-5.6,6.3-8.2,9.6c-5.5,7.2-6.2,15.4-5.1,24.1
		c0.5,3.9,1,7.8,1.1,11.7c0.7,21.1,2.6,42.1,2.1,63.2c2.1,15.8,1.4,31.9,4.6,47.6c1.1,5.1,0.3,10-2.1,14.9
		c-3.7,7.6-6.3,15.7-10.3,23.1c-5.9,10.9-9.9,22.6-15.6,33.5c-1.4,2.7-2.7,5.4-4.1,8.1c2.5,8.4,2.1,16.8,0.7,25.2
		c-0.4,2.7-0.4,5.4-0.4,8.1c-0.1,9.6-0.1,19.3-0.2,28.9c0,2.7,0,5.5-2.4,7.5c-0.3,0.1-0.5,0.4-0.8,0.4c-9.9,1.1-19.8,1.1-29.7,0
		c-4.4-0.5-8.8-1.6-12.7-4.3c-2.2-1.5-4.8-2.3-7.9-3.7c-0.8-2.4-1.8-5.2-2.5-8.1c-2.7-11.1-4.4-22.4-5.8-33.8
		c-0.6-4.7-1.8-9.4-3-14.1c-1.9-7.5-6.2-13.7-11.1-19.4c-3.5-3.9-6-8.3-7.6-13.2c-0.6-2-1.4-4-2.4-5.8c-3.8-6.8-5.5-14-4.8-21.7
		c0.1-1.5-0.1-3,0-4.5c0.6-6.8-0.6-13.2-4.4-19c-0.2-0.2-0.3-0.5-0.4-0.8c-4.5-11.5-9.3-22.9-14.7-34c-2.7-5.4-2.7-11.1-1.8-16.8
		c1.8-11.9,3-23.9,3.3-35.9c0.1-3.9-0.2-7.9,2.1-12.1c5.3-2.8,11.1-5.9,17-8.8c5.7-2.8,11.4-5.5,17.1-8.3c6.5-3.2,12.7-7,18.6-11.2
		c5.7-4,9.2-9.4,10.4-16.2c1.2-6.8,2.2-13.7,3.3-20.5c1.5-9.5,3.1-19,4.6-28.5c0.5-3,0.9-6,1-9c0.4-10.8,1.5-21.6,3.3-32.3
		c0.5-3.2,0.4-6.6,0.5-9.9c0.1-3.3,0.1-6.6,0.2-9.8c3.4-4.2,6.4-8.4,9.9-12.1c6.8-7.1,11.6-15.4,15.3-24.3c1-2.5,2.1-5,3.3-7.8
		c1.7-0.9,3.4-2.1,5.3-2.9c7.4-3.1,13.6-7.7,19-13.5c12-12.7,23.1-26.2,33-40.7c12.8-18.8,22.9-38.9,31.3-59.9
		c2.2-5.4,5.8-9.8,8.7-14.8c3.4-5.8,7.9-10.4,13.7-14c6.9-4.4,11.9-11,17.3-17.1c2.6-2.9,5.1-5.9,7.8-8.8c0.7-0.8,3.7-2.7,5.1-3.6
		C1092.7,1444.8,1092.7,1448.3,1092.7,1452.9z M1029.1,2189.2c-3.8-0.2-7.6-0.5-11.3-0.8c-2.4-5.1-6.8-12.4-8-14.2
		c-2.1-3.3-4.5-6.4-6.4-9.9c-4.5-8.2-8.9-16.4-13.2-24.7c-7.3-13.9-14.2-28-19.1-42.9c-1-3.1-2.3-6.2-3.2-9.4
		c-2.4-8.7-4.6-17.4-6.9-26.4c0.5-2.4,1.4-5,1.6-7.7c0.4-8.7,1.8-17.4,1.6-26.1c-0.2-10.8,0.3-21.7,0.3-32.6c0-3.1,0.8-5.9,2.1-8.6
		c2.7-5.7,5.2-11.5,7.9-17.2c1.4-3,2.9-6,4.3-8.9c1.6-3.2,3.3-6.4,4.8-9.7c3.4-7.4,6.6-14.8,10-22.2c1.9-4.1,3.5-8.3,3.2-13
		c-0.1-1.1-0.1-2.4,1.4-2.8c13.8,10.1,27.3,20.7,42.9,28.8c0.4,1.8,1,3.9,1.1,5.9c0.5,7.8,1.6,15.6,3.6,23.2
		c4.9,19.2,10.1,38.4,15.2,57.7c1.4,0.8,2.7,1.4,3.6,1.9c3.1-0.6,4.9-2.1,5.6-5.1c-0.9-5.9-1.9-12.1-4.4-18c-1-2.5-1.5-5.2-2.2-7.8
		c-1.1-4.1-2-8.2-3.2-12.2c-3.7-12.7-6.8-25.6-7.8-38.9c-0.3-4.2-1.3-8.3-2-12.6c-2.2-1.4-4.1-2.9-6.2-3.9
		c-12.7-5.7-23.6-14.5-35.1-22.2c-4.5-3-8.2-7.1-13.4-8.7c-0.4-1.4-0.8-2.6-1-3.7c-1-6.5-1.6-13.1-1.8-19.8
		c-0.3-10.8-1.6-21.7-1.5-32.5c0.1-18.4-1.9-36.7-2.3-55.1c0-1.8-0.3-3.6-0.7-5.4c-1.1-4.7-0.2-8.9,2.1-13c2-3.7,4.6-7,7.5-10.1
		c11.7-12.5,23.3-25.2,34.9-37.9c3.3-3.6,6.4-7.2,9.7-10.7c3.5-3.6,5.5-8,6-12.9c0.9-8.1,1.5-16.2,1.9-24.3
		c0.3-5.4,0.2-10.8,0.2-15.6c7.9-9.6,16.2-17.5,21.5-20.5c0.9,1.9,1.8,3.7,2.6,5.7c3.2,8.2,7.4,15.8,12.3,23.1
		c4,5.8,8.5,10.9,14.7,14.4c4.3,2.4,7.4,6,10.3,10c3.8,5.2,6.2,11,7.4,17.3c2.8,15.2,8.8,29.4,13.8,43.9c1.7,4.9,4.5,9.3,7.9,13.1
		c4.5,5.1,6.9,11.3,9.8,17.2c0.9,1.8,1.4,4,1.6,6.1c0.4,4.8,0.5,9.6,0.7,14.4c0.3,7.8,0.4,15.6,2.2,23.3c2.7,11.4,5.3,22.8,6.5,34.6
		c0.6,5.7,1.8,11.3,3.4,16.8c3.3,10.9,7,21.8,10.9,32.6c1.9,5.4,2.7,11.1,4.4,16.6c2.2,7,3,14.1,4.2,21.2c0.3,2.1,0.7,4.1,1.2,6.2
		c2.1,9.1,4.3,18.1,6.5,27.2c-1.7,3.5-3.1,6.8-5,9.9c-3.1,5.1-6.5,10.1-9.9,15.1c-1.2,1.7-2.4,3.5-4,4.9c-4.7,4.2-8.9,9.1-14.8,11.8
		c-1.6,0.7-2.9,2.1-4.3,3.3c-3.1,2.4-5.9,5.3-9.2,7.3c-7.1,4.2-11.5,10.4-14.6,17.8c-6.2,14.6-16.3,25.8-30.3,33.5
		c-4,2.2-7.9,4.4-11.9,6.5c-6.3,3.4-11.3,8-14.2,14.6c-1.3,3-2.8,6-4.5,8.9c-3.6,5.9-6.5,12.2-9.4,18.5c-3.7,7.9-7.7,15.7-12.1,23.3
		c-5.4,9.4-11.4,18.5-17.1,27.7C1031.3,2185.5,1030,2187.5,1029.1,2189.2z M913.8,1679c-0.9,8.4-2,16.7-3,25.1
		c-0.6,5.4-1,10.8-1.9,16.1c-1.4,8.6-3.2,17.2-4.8,25.7c-1,5.3-2.1,10.6-3.1,16c-1.3,7.4-5.6,12.6-11.8,16.3
		c-3.9,2.3-7.9,4.4-11.9,6.4c-10.8,5.4-21.6,10.8-32.4,16.2c-2.7,1.3-5.5,2.5-7.8,5.4c-1.3,5.9-2.5,12.5-2.6,19.1
		c-0.3,12.1-1.5,24-3.5,35.9c-1,5.7-0.7,11.4,2,16.8c2.4,4.8,4.5,9.8,6.7,14.8c1.2,2.7,2.5,5.5,3.6,8.3c2.3,5.6,4.5,11.2,6.9,16.7
		c1.4,3.1,2.3,6.2,2.2,9.6c-0.1,4.2,0.1,8.4-0.1,12.7c-0.2,5.6,1,10.7,3.4,15.7c2.2,4.6,4.1,9.4,6,14.1c1.7,4.2,4.3,7.9,7.3,11.4
		c5.7,6.4,9.8,13.7,11.6,22.2c0.9,4.1,1.7,8.3,2,12.5c0.9,13,4.2,25.5,7.2,38c0.1,0.3,0,0.6-0.1,1.5c-1.4,0.9-3,2.2-4.9,3
		c-15.5,6.8-30.2,14.9-43.6,25.4c-7.4,5.8-17.3,10.9-24.5,13.1c-2.2-1-2.6-3.1-3.3-5.1c-2.8-8.6-5.6-17.2-8.5-25.7
		c-1.3-3.7-2.8-7.3-4-11c-1.8-5.4-3.6-10.8-5.2-16.3c-3-10.1-5.7-20.3-8.7-30.4c-1-3.5-2.2-6.9-3.8-10.1c-2.3-4.6-2.5-9.3-1.5-14.1
		c1.3-6.5,2.8-13,4.6-19.3c3.6-12.7,7.6-25.4,11.3-38.1c3-10.4,5.1-21.1,5.2-32c0.1-10.6,0.1-21.1,0.5-31.6
		c0.2-4.8,0.6-9.7,1.8-14.3c3.6-13.7,7.7-27.2,11.7-40.8c4.6-15.6,9.4-31.2,14.2-46.7c1.3-4,1.1-7.5-0.6-11.3
		c-3-6.6-5.5-13.3-8.3-20.1c-0.8-1.9-1.7-3.9-0.1-6.1c2.4-1.7,5.1-1.1,7.7-0.5c8.3,2,16.7,1.2,25.1,0.9c3.9-2.8,6.1-5.7,8-8.8
		c3.6-5.9,7.3-11.8,10.8-17.8c1.6-2.7,3.6-4.6,6.2-6.4c4.5-3,8.8-6.3,13.1-9.6c6.1-4.8,12.6-9.1,19.8-13.5c0.6,1.5,1.2,2.6,1.3,3.6
		C914.1,1674.2,914.1,1676.6,913.8,1679z M820.7,1760.8c-4,12.9-7.8,26-11.9,38.9c-4,12.6-8,25.3-11.1,38.1c-1.2,5-3.1,9.8-4.6,14.7
		c-0.8,2.7-2.2,4.9-4.2,6.8c-10.1,9.5-20,19.2-30.5,28.3c-8.7,7.5-17.4,14.8-25.6,22.8c-4.5,4.4-9.5,8.3-14.3,12.4
		c-3,2.5-5.6,5.3-7.4,8.9c-3.5,7-7.7,13.6-11.3,20.6c-2.4,4.5-4.5,9.2-6.4,13.9c-3,7.5-5.7,15.2-8.6,22.8c-0.6,1.7-1.6,3.2-2.7,4.7
		c-6,7.9-12,15.9-18.1,23.7c-9.7,12.4-17.8,25.7-24.9,39.8c-1.9,3.8-4,7.4-6.2,11c-2.1,3.5-5.5,10.1-7.1,15.2
		c-12.5-6-24.8-12.3-37.1-18.8c3.3-8.3,9.3-18,14.2-25c2.2-3.2,4.2-6.6,6.2-10c3.6-6,6-12.4,6.2-19.6c0.1-5.4,1.4-10.7,3.1-15.9
		c2.4-7.2,4.7-14.3,6.7-21.6c2.5-9,4.7-18.1,4.8-27.5c0-1.5,0.3-3,0.5-4.7c2.2-1.6,4.3-3.3,6.6-4.7c7.8-4.7,14.5-10.7,20.8-17.3
		c4.1-4.3,8.9-8.1,13.2-12.3c7-6.6,14.6-12.6,19.8-21c3.7-5.9,7.7-11.5,11.5-17.3c3.7-5.5,7.7-10.8,10.9-16.6
		c2.6-4.8,6.3-8,11.1-10.1c6.6-2.8,13.3-5.6,20-8.4c3.6-1.6,7.1-3.2,10.5-5.2c7.7-4.4,13.8-10.7,19.5-17.4c2.9-3.4,5.2-7.3,7-11.5
		c4.3-9.9,9-19.7,13.5-29.6c1.9-4.1,4.2-8.1,5.7-12.3c2.8-7.7,7.5-14.4,11.4-21.5c0.3-0.5,0.9-0.7,1.8-1.3c0.8,1.2,1.9,2.3,2.4,3.6
		c1.6,3.9,2.8,8,4.4,11.9C822,1753.1,821.9,1756.9,820.7,1760.8z M620.3,1950.1c-1.7,8.3-3.3,16.5-6.1,24.5
		c-2.2,6.2-4.3,12.6-6.3,18.9c-0.8,2.6-1.6,5.3-1.7,7.9c-0.1,10.6-3.7,20-9.5,28.7c-5.1,7.7-12.3,21-17.4,29.4
		c-18.5-10-36.7-20.6-54.5-31.7c3.9-3.8,9.4-9.9,12.1-12.9c7.9-8.7,15.5-17.6,23.3-26.4c1.2-1.3,2.6-2.6,3.9-3.8
		c4.6-4.3,9.4-8.4,13.9-12.9c10.1-10.2,22.4-17.3,34.5-24.5c1.3-0.8,2.7-1.3,4.2-1.7c0.8-0.2,1.7,0.1,2.4,0.1
		C620.7,1947.1,620.6,1948.7,620.3,1950.1z M634.7,2087.6c2-4.3,4.7-10.5,6.3-13.3c2.2-3.9,4.6-7.8,6.7-11.8
		c7.7-14,15.5-27.9,25.7-40.3c4.8-5.8,8.9-12.1,13.7-17.9c2.9-3.5,5.5-7.2,7.2-11.4c3.2-7.8,6.2-15.7,9.2-23.6
		c1.6-4.2,3.1-8.4,5.5-12.4c3.9-6.4,7.6-13,11.1-19.7c1.7-3.3,3.8-6,6.8-8.2c7-5.2,13.6-10.9,19.7-17.2c4-4.1,8.3-7.9,12.6-11.7
		c3.6-3.2,7.4-6.2,10.9-9.5c6.5-5.9,12.8-11.9,19.3-17.8c0.6-0.5,1.5-0.6,2.8-1.1c0.2,1.8,0.5,3.2,0.5,4.7
		c-0.1,5.4-0.3,10.9-0.3,16.3c0.1,11.3-2,22.1-5.3,32.8c-1.4,4.6-2.6,9.3-3.9,13.9c-1,3.5-2,7-3,10.4c-1.2,4-2.7,8-3.8,12
		c-1.8,6.7-3.4,13.4-4.9,20.2c-1.4,6.6-1.2,13,1.9,19.4c2.4,4.8,4.1,10,5.7,15.2c2.3,7.8,4.2,15.7,6.3,23.5
		c1.9,7.3,3.6,14.6,7.2,21.3c0.7,1.3,1.1,2.8,1.6,4.2c3.6,10.6,7.1,21.1,10.6,31.7c0.5,1.7,0.7,3.4,0.9,4.8
		c-5.2,6.8-11.4,11.4-18.1,15.7c-7.6,4.9-14.8,10.3-22.1,15.6c-0.9,0.7-3.6,2.4-5.7,3.9c-28.8-9.4-57.2-20-85-31.8
		C661.6,2100,648.1,2093.9,634.7,2087.6z M771.3,2141.1c3-1.7,5.9-3.9,8.2-5.5c4.4-3.2,9.1-5.8,13.6-8.9c4.7-3.2,9.6-6.3,13.7-10.2
		c3.6-3.4,7.5-6,11.9-8c11.3-5.1,22.1-11,31.9-18.6c11.6-8.9,24.5-15.3,37.6-21.5c4.6-2.2,9.5-3.6,13.9-5.2c3.6,1.7,6.4,3.7,9.6,4.4
		c5.6,1.2,11.3,1.8,17,2.2c5.7,0.4,11.5,0,17.2,0.1c1.8,0,3.5,0.3,5.3,0.4c3.1,3.3,3.3,7.4,4,11.1c2.8,14.7,9.4,28,14.3,41.8
		c0.7,2,1.8,3.8,2.9,5.6c5.9,10.8,12.2,21.5,17.6,32.6c4.3,8.7,10.3,16.3,15.4,24.4c0.2,0.3,0.6,0.9,1,1.7
		c-42.5-3.6-84.8-9.7-126.3-18.2C843.4,2161.8,807,2152.4,771.3,2141.1z M1040.9,2189.9c0.8-1.4,1.4-2.8,1.9-3.7
		c4-7.4,8.4-14.6,13.3-21.5c2.1-2.9,3.8-6.1,5.4-9.4c4.4-8.9,8.6-17.9,13-26.9c2.5-5.1,5.2-10.2,7.8-15.3c2.8-5.5,6.6-10,12.3-12.7
		c4.6-2.2,9.1-4.8,13.5-7.4c8.9-5.3,16.6-11.9,22.7-20.3c4-5.7,7.7-11.5,10.3-18c2-4.9,5.3-8.4,9.6-11.6c9.6-7.3,20-13.4,28.6-22
		c0.7-0.7,2-0.9,3.5-1.5c1.7,2.9,3.2,5.5,4.8,8c2.6,4.2,3.4,8.8,3.5,13.8c0.2,15.4,0.1,30.7-2.5,46c-2.1,12.7-1.7,25.1,1.5,37.6
		c1.3,5.1,1.3,11,0.2,16.1c-1.8,9-1.6,18-1.3,27c0.1,5.1,1.4,10.1,2.3,15.1c0.2,1,0.5,2.7,1,4.4c-30.7,2.6-61.5,3.9-92.3,3.9
		C1080.3,2191.5,1060.6,2191,1040.9,2189.9z M1197.9,2156.8c0.6-5.7,1.3-11.4,2.4-17c0.8-4.2,1-8.3,0-12.5c-0.5-2-0.6-4.2-1.1-6.2
		c-3.1-11.6-1.6-23.4-1-35.1c0.1-2.3,0.5-4.8,2.6-6.4c0.3,0.1,0.7,0,0.9,0.2c0.5,0.3,1,0.6,1.4,1.1c4.8,6.3,10.6,11.5,18.1,14.5
		c3.2,1.3,5.4,3.8,7.1,6.7c3,5,5,10.3,5.7,16.1c0.7,5.7,1.1,11.4,2,17c0.7,4.4,1.6,8.9,3.1,13.1c3.1,8.7,8.1,22.5,12,32.7
		c-16.3,2.3-32.6,4.1-49.1,5.6C1200.2,2178.3,1197.1,2165,1197.9,2156.8z M1260.6,2179.7c-1.1-3.4-2.7-8-3.2-9.3
		c-2.7-7-5.4-14-8.1-21.1c-2.1-5.7-3.7-11.5-4.4-17.5c-0.8-6-1.5-11.9-2.2-17.9c-0.9-8.1-5.2-14.7-9.5-21.2
		c-0.8-1.2-2.2-2.1-3.4-2.8c-1.8-1.1-3.7-2.1-5.6-2.9c-4.9-1.9-8.9-5-12.3-8.9c-1.8-2.1-3.6-4-5.6-6c-3.4-3.4-5-7.5-4.9-12.2
		c0-4.5-0.1-9,0-13.6c0.1-9-2.1-17.3-7.3-24.7c-2.2-3.2-4.4-6.5-5.4-10.5c1.6-4.6,4.5-8.5,7.3-12.4c2.9-4,4.6-8.4,6.2-13
		c0.9-2.7,1-5.3,0.3-8c-2-8.2-4-16.4-6-24.6c-0.8-3.2-1.6-6.5-2-9.7c-1.7-14.1-5.5-27.7-10.1-41.1c-3.2-9.4-6.4-18.8-9.2-28.3
		c-1.3-4.3-2-8.8-2.6-13.3c-1.1-9.3-2.6-18.5-5-27.5c-2.8-10.8-4.6-21.8-4-33.1c0.1-2.7-0.1-5.4,0-8.1c0.2-4.3-0.8-8.5-2.5-12.3
		c-3-6.5-5.8-13.3-10.6-18.9c-4.5-5.4-7.6-11.5-9.8-18.2c-1-3.2-2.2-6.2-3.2-9.4c-0.2-0.7,0-1.6,0-2.6c4,1,7.7,2.4,11.5,2.6
		c10.1,0.7,19.6,3.2,28.2,8.6c0.5,0.3,1.1,0.6,1.6,0.8c10.1,5.5,20.6,9.9,31.8,12.8c2.8,0.7,6,1.2,8.2,3.5c0.1,0.3,0.4,0.5,0.4,0.8
		c3,15.4,7.3,30.5,13.2,45c6.6,16.3,15.1,31.5,27.9,44c2.4,2.3,4.7,4.8,6.4,7.5c4.9,7.7,10.5,14.7,16.8,21.3c1,1.1,1.8,2.4,2.8,3.8
		c-0.4,7.9,1.4,15.5,4.7,22.6c2.3,4.9,4.9,9.7,7.5,14.4c2.4,4.5,5.4,8.7,6.7,14.2c-1.1,2.5-2.3,5.2-3.6,7.9c-1.9,4.1-4,8.1-5.9,12.2
		c-2.8,6.1-4.8,12.4-5.1,19.1c-0.3,5.2-1.4,10.1-2.4,15.1c-0.9,5-2.1,10-2.9,15.1c-0.5,3.2-1,6.6,0.7,10.4c1.2,0.9,2.9,2.2,4.6,3.4
		c6.5,4.5,12.9,9.1,17.6,15.4c7.7,10.5,18.4,17.2,29.1,24c1.2,0.8,2.8,1,3.8,1.3c2.9-1.3,4-3.3,4.3-6.2c-1.7-3-4.5-5.5-7.7-7.1
		c-7.7-4-13.5-9.9-19.3-16.1c-5.7-6.2-11.6-12.2-18.6-17.1c-1.5-1-2.7-2.3-3.8-3.2c-0.8-3.5-0.1-6.4,0.5-9.4
		c1.5-7.7,3.4-15.3,4.1-23.1c0.6-7.1,2.5-13.6,5.6-19.8c2.6-5.1,5-10.3,7.6-15.4c2.4-4.7,2.5-9.2,0-13.8c-2.3-4.2-4.6-8.5-6.8-12.7
		c-1.6-2.9-3.2-5.8-4.7-8.8c-0.5-0.9-0.4-2.1-0.6-3.6c4.7-1.1,8.9-1.1,12.9,0.2c8.2,2.6,16.5,3.2,25,3.1c5.2-0.1,10.2,0.7,15,2.6
		c0.5,0.9,1.2,1.6,1.4,2.4c3.3,9.5,8.3,18.1,13.5,26.5c5.5,8.8,12.2,16.4,20.1,23.1c3.7,3.1,7.4,6.2,10.8,9.5
		c4.5,4.4,9.4,8.4,14.7,12c5,3.3,9.8,7,14.2,10.2c2.7,7.6,5.1,14.7,7.6,21.7c3.4,9.4,8.1,18.1,13,26.8c2.7,4.8,6.5,8.6,11.8,10.8
		c2.5,1,4.8,2.4,7.3,3.5c4.4,1.9,7.2,5.1,9.2,9.5c7,15.3,14.2,30.6,21.3,45.9c0.3,0.6,1.7,3.8,3,6.7
		c-59.1,23.4-120.4,41.7-182.6,54.5C1300.3,2173.3,1280.5,2176.8,1260.6,2179.7z M1512.5,2110.8c-1.5-2.7-3.5-6.1-4.1-7.3
		c-7.5-16.1-15.1-32.2-22.6-48.3c-1.9-4-4.7-6.9-8.6-9c-2.9-1.6-5.7-3.5-8.8-4.5c-5.6-1.9-8.8-6.1-11.5-10.9
		c-7.2-13-13.1-26.5-16.5-40.9c-1.1-4.6-3.3-7.5-7.1-9.8c-10.6-6.4-20.5-13.8-29.2-22.6c-2.3-2.4-4.9-4.5-7.5-6.5
		c-6.3-4.8-11.7-10.4-16.1-17c-6.6-9.8-13.1-19.6-16.4-31c-1.1-3.9-3.9-5.7-7.9-6.3c-6.9-1-13.7-1.6-20.7-1.6c-4.5,0-9.1,0-13.5-0.9
		c-5.4-1.2-10.7-1.5-16.1-1.5c-2.7,0-5.4,0.6-7.9-1c-2-2.2-2.5-4.9-2.3-7.6c0.4-5.6-2-9.8-5.6-13.8c-6-6.7-11.7-13.7-16.6-21.4
		c-1.3-2-3-3.8-4.7-5.5c-12.8-12.7-22.1-27.8-28.3-44.7c-2.6-7.1-4.8-14.3-6.9-21.5c-1.9-6.6-3.5-13.4-5-20.1
		c-0.8-3.6-2.8-6-6.1-7.3c-3.1-1.2-6.2-2.3-9.4-3.1c-6.8-1.7-13.3-3.9-19.6-6.9c-6-2.8-11.9-5.9-17.8-8.8c-4.1-2-8.2-3.8-12.8-4.4
		c-4.2-0.6-8.4-1.4-12.5-1.5c-6.3-0.1-10.5-3.9-15-7.5c-4-3.2-5.7-7.4-6.6-12.4c-2.6-14.2-10.8-24.5-22.9-32c-2-1.3-4.3-2.4-5.9-4.1
		c-9.1-10-15.5-21.5-19.4-34.3c-0.9-2.8-1.4-5.9-1.4-8.9c-0.1-5.4,0.4-10.8,0.5-16.2c0-5.8,0.8-11.4,2.2-17
		c3.2-13.5,7-26.8,14.1-38.9c0.9-1.5,2-2.8,3.2-4.5c1.5,1.4,2.8,2.3,3.6,3.5c5.7,8.3,13.1,14.9,20.1,22c1.9,1.9,3.8,3.9,5.8,5.7
		c1.6,1.5,4.2,1.4,5.8,0c1.6-1.4,2.1-4.1,0.8-5.7c-1.7-2.1-3.5-4.2-5.5-6c-8.9-8.2-16.7-17.3-24.5-26.5c-2.2-2.6-3.6-5.5-3.3-9.1
		c0.2-2.1-0.2-4.3,0.3-6.3c1.5-5.6,1.1-11.4,1.4-17.1c0.1-1.5,0.4-4.3,0.5-5.6c3.3-0.4,5.4-0.4,8-0.4c8.7-0.1,17.5-0.1,26.2-0.2
		c2.7,0,5.4-0.3,8.1-0.4c6-0.3,12-0.6,18-0.7c1.4,0,2.8,0.7,3.9,1.1c1.4,3.6,0.9,7,0.9,10.3c-0.1,18.1-0.2,36.2-0.3,54.3
		c0,2.3-0.5,4.9,1.8,7.1c2.5,1.2,5.5,0.8,8.5,0.8c17.5,0.1,35,0,52.5,0.1c2.3,0,4.9-0.6,7.3,1.7c0.9,2.4,0.6,5.5,0.6,8.4
		c0,15.7-0.2,31.4-0.2,47c0,2.7-0.5,5.5,1.9,7.8c3.6,0.6,7.5,1.3,11.4,1.7c2.7,0.3,5.4,0.1,8.1,0.2c12.4,0.1,24.7,0.1,37.1,0.3
		c2.1,0,4.3-0.4,6.4,2.2c0.1,2.3,0.2,5.3,0.2,8.3c0,14.8,0,29.6,0,44.3c0,2.7-0.4,5.5,2.3,7.8c0.9,0.1,2,0.5,3.2,0.5
		c17.2,0.2,34.3,0.6,51.5,1.9c2.1,0.2,4.3-0.2,6.1,2.7c0,2.5,0.1,5.8,0.1,9.1c0,13.9,0.1,27.7,0.1,41.6c0,2.4-0.2,4.9,2.2,7.3
		c0.8,0.2,2.2,0.8,3.7,0.9c3.3,0.2,6.6,0.2,9.9,0.1c14.8-0.1,29.6-0.2,44.3-0.3c2.3,0,4.9-0.5,7.2,2.5c0.4,8.3,1,17.3,1.3,26.3
		c0.2,6.3,0.2,12.7,0.3,19c0,2.7,0.1,5.4,0.2,8.1c0.1,2.2,0.9,4.1,3.7,5.6c1.1,0,2.9,0,4.7,0c13.6,0,27.1,0,40.7,0.1
		c2,0,4.3-0.5,6.3,1.9c0.1,1.8,0.4,4.2,0.4,6.6c0.2,17.2-0.2,34.4,1.4,51.5c0.2,1.7,0.8,3.3,1.3,5.3c9.7,0.6,18.9,1.4,28.2,1.7
		c9.9,0.3,19.9,0.2,29.8,0.4c1.7,0,3.4,0.5,5.5,0.8c0.2,2.7,0.6,5.1,0.6,7.4c0.1,13.3,0,26.5,0.2,39.8c0.1,5.4,0.7,10.8,1.2,16.2
		c0.1,1.4,0.9,2.7,1.5,4.3c9.3,0.6,18.3,1.3,27.3,1.6c11.8,0.4,23.5,0.3,35.3,0.5c2,0,4,0.6,6.2,0.9c0.3,1.9,0.6,3.3,0.6,4.8
		c0.1,5.1-0.3,10.3,0.4,15.4c0,30-0.2,53.2,0.2,62.8c-35,19.6-71.1,37.3-108,52.9C1520.8,2107.5,1516.7,2109.2,1512.5,2110.8z
		 M2105.7,1524.9c-27.4,64.7-61.2,127.1-100.6,185.4c-39,57.8-83.9,112.2-133.3,161.5c-49.4,49.4-103.7,94.2-161.5,133.3
		c-21.6,14.6-43.7,28.4-66.2,41.4c-0.2-18.2-0.7-66.8-1.3-78.9c0-0.6-0.1-1.2-0.2-1.8c-0.5-2.9-2.3-5.1-5.2-5.5
		c-2.7-0.4-5.4-0.5-8.1-0.5c-7.5-0.1-15.1,0.4-22.6-0.4c-8.1-0.9-16.2-0.8-24.4-1c-2.1,0-4.2,0.1-6.3-0.1c-1.4-0.1-2.8-0.5-3.9-0.7
		c-1.9-3-1.4-5.8-1.4-8.4c-0.2-15.7-0.3-31.4-0.5-47c0-3.9,0-7.9-2.6-11.2c-3.1-2.9-7-3-11-3.1c-14.8-0.1-29.6-0.2-44.3-0.3
		c-2.4,0-4.9,0.4-7.3-2.1c-0.1-3.7,0-7.9-0.2-12.1c-0.2-4.2-0.9-8.4-1-12.6c-0.2-11.2-0.2-22.3-0.4-33.5c0-2,0.4-4.3-2-6.5
		c-2.1-0.1-4.7-0.3-7.4-0.3c-13.3,0-26.5,0.2-39.8,0.2c-2.1,0-4.2,0.4-6.3-1.3c-0.2-0.6-0.7-1.4-0.7-2.2
		c-0.6-11.1-1.2-22.3-1.8-33.4c-0.2-4.5-0.1-9-0.3-13.6c-0.1-3.6-0.3-7.2-2.8-10.9c-5.1-0.7-10.5-0.3-15.8-0.4
		c-5.1,0-10.2,0-15.4,0.1c-5.4,0.1-10.9,0.6-16.3,0.1c-5.3-0.5-10.6,2.5-16.3-0.1c-0.2-2.4-0.4-4.8-0.5-7.1
		c-0.4-15.7-0.8-31.3-1.2-47c0-0.6,0.1-1.2-0.1-1.8c-0.5-1.7-1-3.3-1.5-5c-6.9-1.5-13.6-0.4-20.1-0.9c-6.6-0.4-13.2-0.9-19.8-1.3
		c-6.6-0.4-13.2,0.3-19.4-0.9c-2.8-2.8-2.2-5.9-2.2-8.9c-0.2-14.8-0.2-29.6-0.4-44.3c0-2.4-0.4-4.7-0.6-7.3
		c-1.9-0.7-3.5-1.6-5.2-1.9c-2.1-0.4-4.2-0.3-6.3-0.3c-14.8-0.1-29.6-0.2-44.3-0.3c-2.3,0-4.9,0.5-7.1-2.4c-0.1-2.4-0.2-5.4-0.2-8.4
		c0-13.9,0.1-27.7,0-41.6c0-3-0.4-6-1.2-8.9c-0.8-3.2-3.3-5-6.6-5.4c-2.4-0.2-4.8-0.2-7.2-0.2c-16,0-32,0.1-47.9,0.1
		c-2.3,0-4.9,0.5-7.1-2.5c0-2.3,0-5.3,0-8.3c0-16,0-32-0.1-47.9c0-2.4,0-4.8-0.3-7.2c-0.3-2.4-1-4.7-2.8-5.9
		c-5.4-2.4-10.5-1-15.6-0.9c-16.9,0.2-33.8,0.4-50.7,0.5c-2.1,0-4.1-0.3-6.3-0.5c-1.2,0-1.6-0.9-1.5-1.9c0-20.5-0.3-44.1-0.3-64.1
		c0-6.2-1.9-6.1-2.1-6.7c-1.3-1.3-2.8-1.2-4.1-0.4c-1.5,1-2.7,2.4-4,3.7c-8.6,9.3-18.1,18.7-26.7,27.9c-2.7,2.8-5.4,5.9-8.7,7.8
		c-7.4,4.2-12.5,10.2-16.7,17.4c-0.9,1.6-1.9,3.1-3.1,4.4c-2,2.3-3.3,5-4.5,7.8c-9.5,21.8-19.2,43.5-33.5,62.9
		c-7.4,9.9-13.8,20.5-22.9,29.1c-1.5,1.4-2.7,3.3-4,4.9c-5.6,6.5-11.7,12.2-19.9,15.1c-1.4,0.5-2.7,1.2-4.1,1.9
		c-3.4,1.6-5.9,3.9-7.1,7.7c-0.9,2.9-2.3,5.6-3.4,8.4c-2.2,5.3-4.8,10.3-8.7,14.7c-4.3,4.7-8,9.8-12.1,14.6
		c-6.5,7.6-13.5,14.6-22.3,19.6c-1.8,1-3.8,2-5.3,3.5c-5,4.9-10.8,8.7-16.6,12.4c-2.8,1.8-5.1,4.1-6.8,7.1
		c-3.4,6-7.1,11.9-10.8,17.7c-1.3,2-2.9,3.8-4.3,5.7c-6.3,0.1-12.3,0.4-18.3-0.9c-6.5-1.4-13.1-1-19.2-0.2c-3.8,2.2-5.4,5.5-6.9,8.8
		c-1.4,3-2.7,6.1-4.2,9c-4.4,8.2-9.5,16.1-12.4,25.1c-0.5,1.7-1.5,3.3-2.3,4.9c-4.8,10.1-9.8,20-14.2,30.3
		c-2.9,6.8-7,12.6-12.3,17.6c-1.8,1.7-3.4,3.4-5.3,5c-4.2,3.5-8.4,7-13.7,8.6c-9.6,2.8-18.3,7.8-27.2,12c-4.3,2-7.4,5.1-9.4,9.4
		c-2.1,4.7-5.1,8.8-8.1,13c-5.4,7.6-10.4,15.5-15.7,23.2c-2.4,3.4-5.2,6.7-8.2,9.6c-8.8,8.7-17.8,17.2-26.8,25.6
		c-8.4,7.9-17.8,14.8-28.4,18.9c-12,4.7-22.5,11.5-32.9,18.7c-4.9,3.4-9.8,7.1-14,11.4c-8.4,8.6-18,16.1-25.1,26
		c-0.9,1.2-2.2,2.1-3.2,3.2c-2.9,3-5.9,6-8.7,9.2c-4.2,4.7-8.3,9.6-12.4,14.4c-1.1,1.2-3.3,3.7-4.8,6.3
		c-9.1-5.8-18.2-11.7-27.1-17.7c-57.8-39-112.2-83.9-161.5-133.3c-49.4-49.4-94.2-103.7-133.3-161.5
		c-39.4-58.4-73.3-120.7-100.6-185.4C66.4,1459,45,1390.1,30.7,1320C16,1248.1,8.5,1174.1,8.5,1100S16,951.9,30.7,880
		C45,809.9,66.4,741,94.3,675.1c27.4-64.7,61.2-127.1,100.6-185.4c39-57.8,83.9-112.1,133.3-161.5c49.4-49.4,103.7-94.2,161.5-133.3
		c58.4-39.4,120.7-73.3,185.4-100.6C741,66.4,809.9,45,880,30.7C951.9,16,1025.9,8.5,1100,8.5c74.1,0,148.1,7.5,220,22.2
		c70.1,14.3,139,35.7,204.9,63.6c64.7,27.4,127.1,61.2,185.4,100.6c57.8,39,112.2,83.9,161.5,133.3
		c49.4,49.4,94.2,103.7,133.3,161.5c39.4,58.4,73.3,120.7,100.6,185.4c27.9,65.9,49.3,134.8,63.6,204.9
		c14.7,71.9,22.2,145.9,22.2,220s-7.5,148.1-22.2,220C2155,1390.1,2133.6,1459,2105.7,1524.9z"/>
	<path class="st0" d="M752.4,675.2c-2.9-6.4-3.8-13.1-3.6-20.2c0.2-8.8-3-16.5-10-22.3c-3-2.5-6-5.1-7.8-8.7
		c-1.3-9.2,6.4-13.8,10.1-20.6c1.4-4.7-0.2-8.8-3.2-12.4c-4.3-5-8.7-10-13.1-15c-3.9-4.3-7.1-8.9-9.2-14.4c-1.9-5.1-4.2-10-6.5-14.9
		c-1.2-2.4-2.6-4.8-4.3-6.9c-3.2-4-7.3-6.2-12.5-6c-4.2,0.2-8.4,0.2-12.7,0.1c-2.4,0-4.8-0.2-7.2-0.6c-6.2-1.2-12.3-2.8-18.5-4
		c-4.7-0.9-9.5-2-14.2-2.2c-10.5-0.4-21.1-0.4-31.6-0.4c-2.7,0-5.5,0.3-8,1.2c-10.8,3.9-21.1,9-29.5,17.1c-2.4,2.3-4.6,5-7.4,6.7
		c-8.8,5.3-15.5,13.3-24.3,18.7c-9,5.4-17.2,12.1-25.6,18.5c-4.5,3.3-9.4,5.6-14.8,6.5c-4.6,0.8-8.7,2.5-12.8,4.3
		c-3.3,1.5-6.6,3.1-9.9,4.4c-8,3.3-14.6,8.4-19.8,15.3c-4.3,5.8-8.4,11.8-12.6,17.6c-4.2,5.9-8.3,11.9-13.9,16.6
		c-5.3,4.4-10.7,8.8-16,13.3c-11.3,9.4-20.2,20.7-25.5,34.5c-5.6,14.6-11,29.3-16.6,43.9c-4.4,11.6-9.8,22.5-18,32.1
		c-7.4,8.7-13.4,18.6-17,29.6c-3.8,11.5-8.7,22.4-14.4,33.1c-1.5,2.9-2.6,6.1-3.8,9.2c-5.1,13.2-9.7,26.6-16.6,39
		c-3.1,5.5-5.9,11.2-7.8,17.3c-3.9,12.4-6.5,25-6.2,38.2c0.1,4.2-0.2,8.4-0.5,12.6c-0.3,3.6-0.7,7.2-1.2,10.7
		c-0.8,5.9-1.6,11.9-2.8,17.8c-1.2,6.2-2.8,12.3-4.1,18.5c-2.1,9.8-2.8,19.6-0.6,29.6c1.2,5.4,0.6,10.8-2.6,15.6
		c-1.7,2.5-2.9,5.3-4.3,8c-3.4,6.4-6.8,12.8-10.3,19.1c-5.3,9.3-6.2,19.4-5.3,29.7c0.3,3.3,0.6,6.6,1.3,9.8
		c1.7,7.7,3.8,15.2,7.7,22.1c2.2,3.9,4.4,7.9,6.6,11.8c5.5,10.2,12.5,19.3,21.3,26.6c6.6,5.4,10.6,12.1,13.4,19.9
		c0.6,1.7,1,3.5,1.6,5.2c4.8,13.6,8.7,27.6,16.6,39.9c2.8,4.4,6.5,7.9,9.5,12c6.3,8.5,12.3,17.1,18.3,25.8c3.8,5.6,6,11.8,6.1,18.7
		c0.3,12,0.2,24.1,1.8,36.1c0.6,4.5,0.8,9,1.5,13.4c0.8,4.6-0.4,8.3-3.8,11.5c-1.1,1-2.3,2-3.4,2.9c-9.7,7.6-19.5,15.1-29.1,22.8
		c-5.8,4.7-11.4,9.9-16.8,15.1c-2.1,2.1-3.9,4.6-5.4,7.2c-4.3,7.6-8.2,15.4-12.4,23.1c-2.2,3.9-4.3,8.1-7.5,11.2
		c-6.2,6.3-11.4,13.2-16.6,20.3c-11,15.1-22,30.2-33,45.3c-3.9,5.3-8,10.6-11.8,16c-4.5,6.4-9.8,12.5-11.8,20.1
		c-2.3,8.4-4.2,17-4,25.8c0.2,6.6,0.3,13.3,0.5,19.9c0.3,8.8,3.3,16.4,9.7,22.6c2.2,2.1,4.2,4.3,6.5,6.3c4.1,3.6,7.5,7.7,10.5,12.3
		c2.3,3.5,4.9,6.9,7.7,10c6.6,7.1,12.6,14.6,16,23.8c2,5.3,5.5,9.3,10.5,12c1.6,0.9,3.1,1.8,4.6,2.8c6.1,4.1,12.3,4.2,18.8,0.7
		c3.4-1.8,6.8-3.8,11.1-4.5c4.9,1,9.4,3.4,13.9,5.8c4.9,2.6,10.1,4.4,15.5,4.7c6.9,0.4,13.9,0.4,20.8-0.3c6.9-0.7,13.2-3.8,18.1-8.6
		c0-4.9,0-9.4,0-14.6c-1-0.8-2.1-1.9-3.4-2.5c-6.5-2.8-11.6-7.5-17.1-11.7c-3.9-2.9-8.2-5.3-13-6.2c-6-1.1-11.3-4-17-5.9
		c-4.4-1.5-8.1-4.1-11.2-7.4c-2.1-2.2-4-4.6-6.3-6.5c-7.1-5.7-11.3-12.8-13.5-21.7c-1.3-5.5-2.9-11-4.1-16.6
		c-0.8-3.6,0.2-6.4,2.6-9.1c5.4-6.3,11.9-11.1,18.8-15.4c5.5-3.4,10.2-7.4,14.7-11.8c8.4-8.2,16.9-16.3,25.4-24.5
		c2.4-2.3,4.8-4.7,6.7-7.3c6.7-8.9,13.3-17.9,19.9-26.9c3.5-4.9,7.3-9.6,11.5-13.9c5.4-5.6,10.7-11.4,15.7-17.5
		c4-4.9,7.5-10.2,11.2-15.3c1.9-2.7,4.2-4.9,7.1-6.8c3.8-2.4,7.4-5.2,10.4-8.5c6.5-7.2,11.3-15.6,15-24.6c3.5-8.4,8-16.1,14.2-22.9
		c7.5-8.3,13.4-17.8,14.8-29.4c0.1-1.1,1-2,2.3-4.3c1.3,2.4,2,3.3,2.3,4.5c2.1,6.3,4.5,12.5,8.8,17.6c1.1,1.3,1.9,3.1,2.3,4.9
		c1.9,7.3,2.7,14.8,1.8,22.4c-0.7,5.4-1,10.8-1.5,16.2c-0.2,2.1-0.2,4.2-0.5,6.3c-1.8,13.7-3.2,27.5-3.3,41.4
		c-0.1,12.4,1.5,24.6,2.6,36.9c0.5,6,0.8,12.1,2,17.9c1.5,7.5,1.4,15,1.5,22.5c0.1,7.5,0.4,15.1,0.6,22.6
		c0.2,10.8,0.5,21.7,0.6,32.5c0,1.5-0.5,3-0.7,4.4c-1.7,10.4-3.1,20.8-2.7,31.5c0.2,5.5,1.2,10.8,3.1,15.9
		c3.1,8.2,6.3,16.3,9.8,24.3c2,4.7,4.6,9.2,9.1,12.2c5.3,3.5,10.7,6.8,16.1,10.1c3.9,2.4,8.1,3.7,12.8,3.6
		c6.6-0.2,13.3,0.4,19.9,0.2c5.3-0.2,10.4,0.7,14.9,3.1c7.3,3.9,15,5.8,23.1,6.9c5.8,0.8,11.4,1,17.1,0.3
		c10.4-1.3,20.8-3.1,31.3-4.4c6-0.8,12-1.1,18,0.2c8.4,1.8,16.8,0.7,25.1-1c3.7-0.8,5.7-3.2,6-6.9c0.5-6.2-0.3-12.1-4.2-17.2
		c-3.5-4.6-6.1-9.6-7.2-15.4c-0.9-4.5-4.1-7.3-8.4-8.7c-3.2-1-6.3-2.2-9.5-3c-4.3-1-7.9-2.9-10.9-6c-5.3-5.5-11.9-7.9-19.6-7.7
		c-4.5,0.2-9,0.2-13.6,0.4c-8,0.3-15.7-1.3-22.6-5.1c-3.6-2-6.7-5-10.2-7.4c-5.1-3.6-7.5-8.7-7.7-14.6c-0.3-6.4-1.8-12.5-2.9-18.7
		c-1.5-8.6-3.3-17.2-2.6-26c0.3-3.9,1.2-7.8,1.3-11.6c0.2-8.2,2-16.1,3.3-24.1c2.5-15.2,4.7-30.4,4.3-45.8
		c-0.2-9.7,0.8-19.2,2.4-28.8c2.4-14,3.7-28,2.3-42.3c-0.1-1.5,0-3,0.1-4.5c0.1-8,2.8-15.4,5.1-22.8c1.3-4.3,2.9-8.6,3.7-13
		c1-5.3,1.8-10.7,1.7-16.1c-0.1-7.6-1.9-14.9-4.8-21.9c-2.9-6.9-6-13.8-9.2-20.6c-3.6-7.6-7.3-15.2-11.2-22.7
		c-3.5-6.7-6.8-13.5-11.2-19.6c-7.7-10.8-16-21.1-24.3-31.4c-5.8-7.3-12.5-13.9-17-22.2c-0.7-1.3-1.8-2.4-2.8-3.5
		c-5.8-6.9-11.7-13.8-17.5-20.7c-6.7-8.1-13.4-16.3-20.1-24.4c-5.6-6.8-10.5-13.9-12.8-22.6c-0.5-2-1.5-3.9-2.3-5.9
		c-2.3-5.6-5.1-11-6.8-16.7c-2.4-8.3-4-16.9-5.6-23.9c1.2-9.1,5.6-14.2,11.9-17.9c2.3-1.4,4.5-3.1,6.9-4.2c4.8-2.1,8.8-5.2,12.4-8.9
		c4.2-4.3,8.6-8.4,13.1-12.7c1.9,0.9,3.5,1.6,5,2.6c3.5,2.4,6.2,5.7,8.5,9.3c4.1,6.3,7.8,12.9,12.3,18.9
		c5.6,7.5,10.9,15.1,16.3,22.8c12.1,17.3,25.5,33.6,38.8,50c8.9,11,14.6,23.5,18,37.1c2.1,8.8,2.7,17.8,3.7,26.8
		c0.4,3.9,0.7,7.8,0.7,11.7c0,4.2-0.5,8.4-0.5,12.6c0,7.8-0.1,15.6-2.4,23.3c-2.4,8.1-0.7,15.5,6.2,21.2c0.9,0.8,1.6,1.8,2.7,3
		c0.2,2.7,0.5,5.7,0.8,8.7c0.2,2.5,1,4.7,3,6.4c4.9,4.2,10.7,6.7,17.1,7.6c5.2,0.7,8.7-1.7,11.2-5.9c0.6-1,0.9-2.2,1.4-3.3
		c1.9-5.1,3.1-10.3,3.2-15.9c0-6.5,2.1-12.2,6.5-17.3c4.5-5.2,8.1-11.2,12-17c1.9-2.8,2.7-6,2.9-9.4c0.1-2.1,0.2-4.2,0.2-6.3
		c0-5.1,0.6-10.2,1.3-15.2c1.4-10.5,1.6-21.1-1.3-31.4c-1.4-5.2-2.9-10.4-4.6-15.6c-2.1-6.3-4.7-12.3-8.8-17.7
		c-2.1-2.9-3.7-6.2-5.5-9.3c-3.4-6.1-6.6-12.2-10-18.2c-8.5-14.6-15.6-29.9-23-45.1c-2.6-5.4-5.1-10.9-8.5-15.9
		c-3.8-5.5-6.5-11.5-8.2-18c-2.2-8.5-4.7-16.8-7.7-25c-2.1-5.6-3.6-11.5-5.4-17.2c-1.2-3.7-2-7.6-3.7-11.1c-3-6.4-4.2-13.2-4.8-20.1
		c-0.9-9.7-2.8-19-5.8-28.2c-2.5-7.7-4.9-15.5-7.5-23.2c-1.4-4.2-1.7-8.1-0.1-12.3c2.5-6.3,2.8-12.9,2.6-19.6
		c-0.1-3.3,0-6.6,0.2-9.9c0.2-3.6,0.9-7.2,0.9-10.8c0-7.1,1.8-13.7,4.8-20c3.6-7.6,6.9-15.4,10.4-23.1c1.9-4.1,3.3-8.4,3.5-13
		c0.3-6,1.1-12,1.5-18c0.7-10.8,1.3-21.6,2-32.5c0.1-1.2,0.4-2.4,0.6-3.6c1.7-11.1,1.5-22.2,0.5-33.4c-0.5-5.9-1.6-11.8-2.4-17.6
		c2.6-3.5,5.2-6.4,9.1-7.6c6.6-2.1,13.2-4,19.9-5.9c2-0.6,4.1-0.8,6-1.1c1.2,1,2.3,1.6,3,2.5c2.5,3,5,6,7.4,9.1
		c8.5,11,19.7,16.4,33.5,16.8c4.9,0.2,9.6-0.7,14.2-2.2c4.6-1.5,8.9-1.3,13,1.2c5.2,3.2,10.9,3.1,16.7,2.3c2.1-0.3,4.1-1,6.2-1.2
		c5.1-0.5,9.1-3,12.8-6.2c3.6-3.2,6.9-6.7,9.3-11c1.3-2.3,2.8-4.7,4.7-6.5c4.9-4.7,8.2-10.4,11.3-15.8c0.6-3.7,0.4-7-0.7-10.2
		C752.9,676.9,752.8,676,752.4,675.2z M457.2,1360.6c-2.5,3.8-4.7,7.8-7.8,11c-6.4,6.7-11.2,14.3-14.3,22.8
		c-2.6,7.2-6.7,13.5-10.7,19.9c-2.9,4.6-6.8,8.5-11.8,11c-3.9,1.9-6.8,4.9-9.2,8.4c-3,4.5-5.8,9.2-9.3,13.4
		c-5.3,6.5-10.9,12.9-16.8,18.9c-5.5,5.6-10.3,11.7-14.9,18.2c-5.4,7.6-11,15.1-16.7,22.5c-2.6,3.3-5.8,6.1-8.8,9.1
		c-7.9,7.9-15.9,15.7-23.7,23.6c-3.6,3.6-7.5,6.8-12,9.5c-8,4.8-15.1,10.9-21.5,17.9c-3.4,3.7-5.4,8-4.8,13.1
		c0.7,5.1,1,10.2,2.3,15.2c1.6,6.4,3.8,12.7,6.1,18.9c0.9,2.4,2.8,4.6,4.6,6.6c4.8,5,9.8,9.8,14.6,14.8c2.8,2.9,6,5.1,9.6,6.6
		c6.7,2.8,13.3,5.8,20.3,7.6c5.8,1.5,10.8,4,15.2,7.6c3.7,3.1,7.3,6.2,11.7,8.3c0.9,0.4,1.4,1.8,2.2,2.9c-2.6,3.1-5.3,5.2-9.1,5.6
		c-2.1,0.2-4.2,0.3-6.3,0.7c-8.7,1.9-16.7-0.2-24.5-3.6c-3.9-1.7-7.7-3.5-11.6-5c-5.6-2.2-11.2-1.9-16.7,0.3c-2.5,1-5,2.2-7.4,3.3
		c-2.7,1.2-5.3,1.1-7.8-0.5c-2.1-1.3-4.1-2.6-6.1-3.8c-2.4-1.4-4.3-3.5-5.1-6.1c-3.1-9.8-9.7-17.3-16.3-24.7
		c-3.4-3.8-6.7-7.8-9.3-12.2c-3.2-5.2-6.6-10-11.8-13.5c-2.2-1.5-3.9-3.7-5.9-5.6c-4.3-4.3-6.4-9.4-6.5-15.4
		c-0.1-6.9-0.7-13.9-0.3-20.8c0.4-6.9,1.5-13.7,2.9-20.5c0.6-2.8,2.2-5.6,3.9-8.1c4-5.7,8.4-11.1,12.4-16.7
		c5.4-7.6,10.6-15.4,16.1-22.9c7.8-10.7,16.3-20.9,23.8-31.8c5.5-8.1,12.5-14.3,20.2-20.3c8.6-6.7,17.8-12.4,27.1-17.8
		c2.9-1.7,5.9-2.9,9.3-3.2c3-0.3,6-0.8,8.9-1.7c7.1-2.1,14.3-2.2,21.5-1.6c6,0.5,11.8,1.9,17.8,2.8c2.4,0.4,4.8,0.8,7.1,0.5
		c1.5-0.2,2.9-1.7,4.2-2.6c-0.3-4.4-2.6-6.8-6.1-7.4c-10.3-1.9-20.6-4.7-31.3-3.7c-0.9,0.1-1.8,0-2.7,0.1
		c-8.8,1.9-17.7,3.5-26.4,5.8c-3.4,0.9-6.5,3.1-9.6,4.9c-3.6,2.1-6.7,4.9-11.3,5.9c0.1-1.1,0-2,0.3-2.7c1.7-3.2,3.5-6.3,5.2-9.5
		c1.8-3.3,4.3-5.7,7.4-7.7c4.8-3.2,9.4-6.5,13.9-10c4.3-3.4,9.1-5.9,14.1-8.1c4.2-1.9,8.5-3,13.2-2.8c2.7,0.1,5.4,0.1,8.1,0
		c4.3-0.1,8.3,0.3,12.3,2.3c3.9,2,8,2.2,13.4,0.4c-0.3-2.4-0.5-4.4-0.6-6.2c-8.5-3.8-16.7-6.4-25.7-5.6c-3.6,0.3-7.2,0.2-10.8,0.2
		c-1.1,0-2.1-0.4-4.2-0.8c2.8-2.3,4.8-4,6.9-5.7c1.9-1.5,3.7-3.1,5.6-4.6c4.6-3.7,8-7.9,9.4-13.9c1.2-5.4,4.2-9.9,8.2-13.8
		c4.6-4.4,9-8.9,13.4-13.5c2.3-2.4,4.2-5.1,6.4-7.6c3.2-3.9,4.6-8.3,4.5-13.4c0-3,0.5-6,0.8-9c0.4-3.9,1-7.8,0-11.6
		c-0.8-0.6-1.6-1.1-2.3-1.6c-3.4,0.2-4.8,2.6-5.4,5.3c-1,4.4-1.8,8.9-2.1,13.4c-0.3,4.7-1.9,8.7-4.8,12.4c-5.5,6.9-11.6,13-18,18.5
		c-1.8-0.1-2.6-0.9-2.7-2.3c-0.2-3.9-0.5-7.8-0.5-11.7c0-1.8,0.4-3.6,0.9-5.3c2.9-8.2,5.1-16.6,7-25.2c1.9-8.9,5.6-17.2,10-25.1
		c1-1.8,2.3-3.5,3.8-5c8.5-8.1,13.9-18.1,18.6-28.6c3.3-7.4,4.2-15,1.9-22.9c-1.1-3.7-1.9-7.6-2.8-11.2c-0.7-0.5-1.2-1.2-1.7-1.1
		c-1.4,0.2-2.7,0.7-3.8,0.9c-1.7,4.4-1.4,8.3-0.3,12.1c1.9,6.9,0.4,13.1-2.6,19.3c-3.8,7.9-7.9,15.8-14.3,21.8
		c-8.1,7.5-11.8,17.3-15.6,27.1c-1,2.5-1.8,5-2.6,7.3c-0.8,0.2-1.1,0.3-1.3,0.2c-0.3-0.1-0.5-0.3-0.7-0.6
		c-3.2-5.8-6.4-11.6-9.7-17.6c-0.1-8,2.5-15.7,5.6-23.2c1-2.5,2.5-4.8,4-7c2.2-3.2,4.8-6.2,7.1-9.4c1.9-2.7,3.8-5.4,5.5-8.3
		c7.7-13.1,9.3-27.2,5.6-41.8c-1.8-7-3.7-14-5.9-20.8c-1.8-5.5-3.3-10.9-3.2-16.8c0-1.7-0.6-3.5-1.2-5.1c-0.6-1.6-3.7-1.6-4.6-0.1
		c-0.6,1-1.3,2.2-1.3,3.3c-0.1,7.2-0.7,14.4,1.6,21.5c2.1,6.3,3.4,12.8,4.9,19.3c1.6,7.1,1.6,14.5,0.5,21.6
		c-0.7,4.6-3.1,9.1-5.4,13.3c-2.8,5-6,9.7-9.5,14.3c-3.9,5.1-7.2,10.3-9.1,16.5c-0.9,3.1-2.6,6.1-3.9,9.1
		c-5.2-4.1-13.3-14.7-16.4-21.7c3.1-5.1,6.5-10.4,9.5-15.9c4.4-8.2,8.6-16.6,12.7-25c1.8-3.6,2.1-7.4,2.3-11.4
		c0.6-11.7-1.5-22.7-6-33.5c-2.8-6.7-4.9-13.6-7.1-20.5c-2.7-8.3-2.5-16.6,0.1-24.9c1.5-4.9,3.3-9.7,5.1-14.7
		c-0.1-1.9-1.5-3.2-3.5-3.1c-1.3,0.1-2.9,0.9-3.8,1.9c-1.2,1.3-2,3-2.8,4.6c-3.5,6.4-5.3,13.5-6.7,20.5c-0.6,3.2-0.6,6.7,0,9.9
		c1.2,6.5,2.6,13,5.1,19.2c2.3,5.9,4.3,11.9,6.2,17.9c1.1,3.7,2.1,7.6,2.6,11.4c1.1,9.2-0.1,17.9-5,26.1c-3.9,6.4-7,13.3-10.5,20
		c-0.8,1.6-1.9,3-3.4,5.1c-1.2-2.2-2.3-3.6-2.9-5.2c-1.9-5.4-3.8-10.8-5.4-16.3c-1.9-6.4-4.5-12.4-8.2-18c-2-3-4.4-5.6-7.1-8.1
		c-9.6-8.4-17.7-18-23.3-29.6c-1-2.2-2.1-4.4-3.4-6.4c-6-9.1-8.6-19.1-8.8-29.9c-0.3-15.4-0.5-15.4,6.7-29.3
		c3.6-7,7.4-13.8,11.4-20.6c3.5-6,4.9-12.2,4-19.1c-0.3-2.4-0.2-4.8-0.4-7.2c-0.7-10,0.2-19.9,2.5-29.6c1.1-4.7,2.2-9.4,3.3-14.1
		c0.3-1.5,0.9-2.9,1-4.4c0.9-8.7,1.9-17.3,2.4-26c0.5-8.1,0.3-16.2,1.5-24.3c1.9-13,5.5-25.3,12.1-36.6c3.5-6,6.4-12.3,8.9-18.7
		c1.4-3.6,2.9-7.3,4.1-11c4.1-13,10.9-24.8,16-37.4c1.5-3.6,3-7.2,4.2-11c2.9-9.6,7.9-18.1,13.4-26.1c2-0.4,2.5,0.6,2.8,1.8
		c0.7,2.9,1.6,5.8,2,8.8c0.3,2.3,0.1,4.8-0.4,7.1c-2.6,12.4-5.5,24.7-8,37.1c-0.9,4.4-1.3,8.9-1.8,13.4c-0.8,7.5-1.1,15-2.2,22.5
		c-0.6,4.1-2.2,8.1-3.6,12.1c-0.9,2.6-2,5.1-3.2,7.5c-5.9,11.7-9,24.4-10.6,37.2c-1,8-0.3,16.2,0.3,24.3c0.6,9.3,1.4,18.6,3,27.8
		c2,11.9,0.7,24.1,3.3,35.9c0.5,2.3,0.8,4.7,1.4,7.1c3.6,14,7.8,27.8,13.3,41.2c0.9,2.2,1.8,4.5,3.1,6.5
		c6.3,9.7,10.5,20.4,15.2,30.8c2.6,5.8,5.8,11.2,9.5,16.3c5.8,8.1,10.9,16.5,14.3,26c3.7,10.5,8.6,20.5,15.2,29.7
		c2.5,3.4,4.8,7,6.5,10.8c3.3,7.2,5.3,14.6,3.4,22.7c-3.6,15.5-2.3,31.1-1.2,46.8c0.5,7.2,0.5,14.5,0,21.6
		c-0.5,8.2-0.1,16.3,1.4,24.2c1.3,6.7,4.6,13,7.1,19.5c0.3,0.8,1,1.5,1.6,2.2c1.7,2,4.3,2.4,6.5,1.1c1-0.6,1.8-1.6,2.8-2.3
		c0.7-0.4,1.5-0.6,2.7-1.1c0.2,2.4,0.4,4.5,0.5,6.6c0.3,3.4,2.2,5.5,5.3,6.7c2.8,1,5.6,2,8.4,3
		C460.7,1349.3,460.8,1355,457.2,1360.6z M484,1183.9c1.7,1.5,2.9,2.3,3.8,3.5c8.1,9.7,16.1,19.5,24.1,29.3c1,1.2,2,2.3,2.8,3.6
		c5,8.7,11.9,15.8,18.2,23.5c10.8,13.3,21.9,26.5,30,41.7c2.4,4.5,4.4,9.3,6.5,13.9c4,8.8,9.1,17,12.6,26c2.2,5.6,4.5,11.2,6.6,16.8
		c2,5.5,1.8,11.3,1,17c-0.8,5.6-2.5,11.1-3.8,16.7c-0.3,1.2-0.8,2.3-1.2,3.4c-4.1,11.1-6.4,22.6-5.4,34.5c0.3,3.3,0,6.6,0.1,9.9
		c0.4,10.3-1.9,20.3-2.9,30.5c-0.2,1.8-0.8,3.6-0.9,5.3c-0.6,9.6-1.3,19.2-1.5,28.8c-0.2,10.9-1.7,21.6-3.3,32.3
		c-2.4,15.8-5.3,31.5-4.4,47.6c0.3,4.5,0.9,9,1.5,13.4c1.3,8.9,2.8,17.8,4.1,26.8c1,6.8,3.4,12.8,9,17.2c1.7,1.3,3.3,2.6,4.9,4
		c4.3,3.7,8.7,7.2,12.4,11.7c3.8,4.6,8.4,8.6,12.9,12.7c2,1.8,4.2,3.4,6.6,4.7c7.2,3.8,14.7,7,22.5,9.2c1.8,0.5,3.7-0.5,4.6-2.1
		c1.1-1.9,0.7-4.4-1-5.7c-1.2-0.9-2.5-1.6-3.9-2.2c-4.2-1.8-8.3-3.4-12.6-5.1c-4.6-1.8-8.7-4.2-12.3-7.4c-0.6-0.5-0.9-1.4-1.3-2.1
		c0.5-0.6,0.9-1.4,1.3-1.3c3,0.3,5.9,0.3,8.9-0.2c3.8-0.6,7.8-0.6,11.7-0.6c4.7-0.1,9.1,1.2,12.2,4.9c4.5,5.4,10.5,7.9,17.1,9.4
		c2.9,0.7,5.7,1.8,7.8,2.5c0.9,1.2,1.4,1.6,1.6,2.2c2.3,6.5,4,13.2,9.1,18.4c2.1,2.1,1.9,3.5,1.8,8.9c-5,1.7-10,3-15.6,2
		c-10.2-1.8-20.4-1.5-30.6,0.1c-9.8,1.5-19.7,2.8-29.5,3.9c-2.6,0.3-5.4,0.2-8.1-0.3c-8-1.3-15.9-2.4-23.3-6.4
		c-5.8-3-12.4-4.3-19.3-3.9c-5.7,0.3-11.4-0.2-17.2-0.1c-4.1,0.1-7.7-0.8-11.1-3c-4.8-3.1-9.7-6.1-14.4-9.4
		c-2.8-1.9-4.8-4.6-6.1-7.7c-3-7.6-6.1-15.1-8.9-22.7c-1.5-4.2-2.4-8.7-3.4-13.1c-0.3-1.4-0.5-3-0.3-4.5c0.6-6.6,1-13.2,2.2-19.7
		c0.8-4.5,1.3-8.9,1.3-13.4c0-20.2-0.1-40.4-0.2-60.6c0-1.8,0.2-3.7-0.1-5.4c-2.5-14.4,1.4-28,5-41.7c1.9-7.3,4.3-14.4,6.6-21.6
		c1.6-4.9,4-9.5,7.4-13.4c5.6-6.5,9.6-13.9,13.9-21.1c6.3-10.4,17-18.8,28.6-22.1c1.4-0.4,2.9-0.8,4.2-1.2c1.6-3.6,0.9-6-1.9-6.3
		c-2.3-0.3-4.9-0.4-7.1,0.3c-3.2,0.9-6.2,2.3-9.1,3.9c-3.4,1.9-6.6,4.3-9.8,6.4c-4.1,2.7-7.5,6-10.1,10.2c-1.3,2-2.8,4-4,6
		c-4.1,7.1-8.7,13.7-13.8,20.1c-3.6,4.5-6,9.7-7.9,15.2c-1.4,4-2.6,8-4.1,12c-0.5,1.3-0.8,2.9-2.9,3.6c-1.9-10.5-3-20.9-0.3-31.3
		c0.5-2,1.3-4,2-6c1.7-5.1,3.6-10.2,5.1-15.4c2.2-7.7,5.7-14.5,11.6-20.1c4.2-3.9,8.2-8,12.1-12.2c6.7-7.3,15.1-10.6,24.8-11.4
		c1.5-0.1,3-0.3,4.3-0.4c1.8-3.5,1.2-5.7-1.6-6.4c-0.6-0.1-1.2-0.3-1.8-0.3c-11.3-0.4-21.5,2.1-29.9,10.2
		c-6.3,6.1-12.4,12.4-18.6,18.5c-1,1-2.1,2-3.6,3.3c-1.3-4.3-0.5-7.8-0.1-11.3c1-8.8-0.6-17.4-3.3-25.7c-0.6-1.9-1.8-3.9-3.2-5.4
		c-2.9-3.2-4.5-7-5.9-11c-2.4-6.5-5.1-12.8-7.9-19.8c0.6-1,1.5-2.6,2.5-4c1.8-2.4,3.7-4.7,5.6-7.1c4.4-5.7,6.8-12.1,6.1-19.3
		c-0.5-5.8,0.9-11.2,3-16.7c3.5-9.3,3.4-18.9,0.6-28.4c-1.3-4.3-2.6-8.7-4.3-12.8c-3.1-7.3-4.2-15-4.9-22.8
		c-0.9-10.2-2.1-20.3-4.2-30.4C483.9,1186.4,484,1185.6,484,1183.9z M569.8,1004.7c1.6,4.5,3,9.1,4.4,13.7c0.1,0.4-0.3,1.1-0.4,1.6
		c-0.6,0.2-1.2,0.6-1.6,0.4c-6.2-1.4-12.3-3-18.4-4.4c-5.1-1.2-10.1-0.9-15.1,0.8c-6,2-12,4-16.7,8.5c1,3.5,2.2,4.8,4.5,4.2
		c2-0.5,4-1.2,5.9-2.1c8.3-3.9,16.7-4.6,25.5-1.8c3.7,1.2,7.6,2,11.2,3.5c10.7,4.3,15.5,12.6,15.3,24c-2.3,0.5-3.8-1.1-5.7-1.8
		c-3.7-1.3-7.3-2.9-11-4c-8.2-2.4-16.1-0.2-23.7,2.8c-1,0.4-1.6,1.6-2.3,2.2c0.2,1,0.3,1.6,0.5,2.1c0.3,0.5,0.7,0.9,1.2,1.5
		c3.4,1.6,7.2,0.9,10.5,0c7-1.8,13.2-0.1,19.1,3.1c4.5,2.4,9,5,13.2,7.9c2.4,1.7,4.6,3.9,6.2,6.4c2.3,3.5,4,7.4,6.1,11.4
		c-1,0.1-1.9,0.4-2.6,0.1c-5.6-2.2-11.2-4.5-16.8-6.6c-8.3-3.3-15.9-1.2-22.9,3.2c-0.1,0.9-0.5,1.8-0.2,2.1c0.7,0.8,1.7,2,2.6,2
		c3.9,0,7.8-0.5,12.9-0.8c6.2,2.3,13.8,4.1,20.4,8.7c2,1.4,4.2,2.4,6.3,3.6c8.1,4.5,14.4,10.8,18.3,19.3c2.3,5.1,5.1,10.1,7.6,15.6
		c-1.5,0.2-2.4,0.6-3.2,0.5c-2.4-0.4-4.8-0.8-7-1.7c-5.8-2.3-11.3-1-16.8,0.7c-1.2,0.4-2.5,1.7-3,3c-0.8,1.9,0.2,3.5,1.9,4.5
		c0.6,0.1,1.3,0.5,1.7,0.4c8.8-2.9,16.6,0.9,24.3,4c7.4,3,13.3,8.1,17.4,15.2c1.5,2.6,3.1,5.2,4.9,7.6c4.5,5.9,6.4,12.8,8.2,19.6
		c-2,1.8-3.3,0.4-4.3-0.4c-5.1-3.5-10.9-5.2-16.8-6.4c-1.8-0.4-3.6-0.5-5.4-0.5c-1.9,0-3.6,0.4-4.6,2.3c-0.6,1.1-0.5,1.6,1.2,5.3
		c1.8,0.4,3.8,0.8,5.8,1.1c10.3,1.8,18.1,7.9,25.5,14.7c2.3,2.1,3.4,5,3.3,8.2c0,3.9,0.4,8-0.5,11.7c-1.7,6.6-1.4,13.2-1.5,19.8
		c0,1.8-0.2,3.6-0.4,6c-3.4,4.8-6.5,10.4-10.7,15c-7.2,7.8-10,16.9-10.5,27.1c-0.2,4.6-0.6,9-3.5,13c-4.3,1.2-7.4-1.1-10.6-3.6
		c-0.8-3.8-1.6-7.6-2.4-11.4c-0.6-2.7-1.8-5-4.2-6.7c-4.3-3-5.2-7.1-4.1-11.9c0.5-2,0.7-4.2,1.4-6.2c1.2-3.5,1.4-7,1.4-10.7
		c0-6.6-0.7-13.3,1.1-19.8c0.2-0.8,0.2-1.8,0.1-2.7c-0.8-7.2-1.5-14.4-2.4-21.5c-0.7-6-1.6-11.9-2.5-17.9c-1-6.6-3.4-12.7-6.2-18.8
		c-4.6-10.2-10.9-19.3-17.9-28.1c-14.6-18.4-29.8-36.4-42.2-56.4c-0.5-0.8-0.9-1.6-1.5-2.2c-7.4-7.7-12.4-17-18.2-25.8
		c-4-6.1-8.4-11.7-14.8-15.6c-0.5-0.3-0.7-0.9-1.3-1.8c0.2-0.8,0.4-2,0.9-3.1c3.2-6.5,5.5-13.3,7.3-20.4c1.9-7,4.9-13.6,9.1-19.6
		c4.5-6.4,10.3-9.7,18.4-9.2c10.5,0.7,19.1,4.9,26.3,12.3C568.6,1002.6,569.4,1003.6,569.8,1004.7z M561.9,966.6
		c2.4,6.6,3,13.1,2.5,20.1c-2.9,0.5-4.7-1.4-6.9-2.1c-2.3-0.7-4.6-1.4-6.9-1.9c-2.3-0.6-4.7-1.1-7.1-1.5c-2.3-0.3-4.7-0.4-6.8-0.5
		c-0.4-1.1-0.9-1.7-0.7-2.1c2.8-6.3,5.6-12.6,8.3-18.6C553.3,957.1,556.9,963.5,561.9,966.6z M549.3,951.2c0.5-6,1.8-8.9,5.3-11.5
		c1.6,3.8,3.2,7.4,3.5,11.7c-1.2,0.3-2.1,0.7-2.9,0.6C553.2,951.9,551.3,951.5,549.3,951.2z M735.3,696.4c-1.4-0.8-2.7-1.4-4-2.1
		c-4.2-2.4-8.3-4.9-12.5-7.2c-1-0.6-2.3-0.9-3.4-1c-0.8-0.1-1.8,0.2-2.6,0.4c-2.1,4.2-2,6.1,0.7,7.7c3.1,1.8,6.4,3.3,9.6,5
		c2.1,1.1,4.5,1.9,5.8,5.1c-2.1,6.4-7.2,10.3-13.6,12.6c-6.7,2.4-13.4,2.9-20.1-0.9c-4.3-2.4-9.1-3.1-14-1.5c-2.3,0.7-4.7,1-7.1,1.5
		c-10,2.3-19.1,0.1-27.5-5.4c-2-1.3-3.6-3.2-5.1-5.1c-2.7-3.2-5.4-6.5-7.8-10c-3.1-4.4-7.1-7.2-12.4-9c-7.4,4.1-15.5,6.2-23.6,8.5
		c-4.3,1.2-8.4,3-13.1,4.7c-2.9-3.8-2.2-8.3-2-12.6c2.9-4.4,6.7-7.1,11.4-8.8c7.3-2.8,14.6-5.8,21.8-8.7c1.1-0.4,2.3-0.9,3.2-1.6
		c1.5-1.3,2-3,0-5.2c-3.7-1.1-7.8-0.5-11.8,0.9c-7.4,2.6-14.7,5.5-22,8.2c-0.8,0.3-1.7,0.5-2.5,0.7c-1.5-4.6-0.5-9.5,3.5-18.1
		c5.2-3.3,11.9-3.1,17.5-6.1c5.2-2.9,10.9-4.8,16.3-7.1c-0.2-4.5-1.5-6.2-4.2-5.6c-3.8,0.8-7.6,2-11.3,3.2c-3.1,1-6.2,2.5-9.3,3.4
		c-2,0.6-4.1,1.1-6.3-1c0.8-2,1.7-4.2,2.6-6.4c0.6-1.4,1.5-2.7,1.7-4.2c0.2-1.4,0.1-3.1-0.5-4.3c-0.9-1.8-2.8-2.1-5.2-1.4
		c-0.6,0.9-1.7,2-2.3,3.3c-3.6,7.3-6.5,14.9-7.9,23c-0.8,4.7-2.3,9.4-3.5,14c-2.3,8.6-1.8,17.3-1,26c1.3,13.8,4.6,27.3,6.1,41
		c1,9.9,1,19.9-0.6,29.7c-0.2,1.2-0.5,2.4-0.5,3.6c-0.7,11.7-1.4,23.4-2.2,35.1c-0.4,6-0.9,12-1.6,18c-0.2,2.1-0.9,4.1-1.8,6
		c-2.9,6.6-5.9,13.2-8.9,19.8c-1.2,2.7-2.5,5.5-3.7,8.2c-3.9,8.7-4.5,18-5.2,27.3c-0.4,4.8-0.4,9.6-0.3,14.5
		c0.2,8.3-1.3,16.2-5,23.6c-0.7,1.4-1.3,2.7-1.9,4.1c-5.3,13.1-10.4,26.3-15.8,39.4c-2.1,5-4.6,9.9-7.3,14.5
		c-3.5,6-7.2,11.8-11,17.6c-4.7,7.1-7.9,14.9-9.9,23.1c-4.1,16.7-13.5,30-26.5,41.1c-1.6,1.4-3.3,2.7-5.2,3.6
		c-5.7,2.8-10.9,6.5-15.9,10.3c-0.7,0.5-1.6,0.7-2.9,1.2c-0.7-0.9-1.7-1.7-1.9-2.7c-1.4-7.4-2.6-14.8-3.9-22.2
		c-0.3-1.5-0.6-2.9-1-4.4c-3.5-14.4-5.3-28.9-6.6-43.7c-1-11.1-3.3-21.9-8.9-31.9c-4.5-8-6.1-17-5.2-26.2c0.2-2.1,0.9-4.1,1.6-6.1
		c3.4-9,7-18,10.5-26.9c1.4-3.6,2.9-7.3,4.7-10.8c4.8-9.2,6.8-19.2,8.4-29.4c1.3-8.3,2.8-16.6,4.5-24.8c1-4.7,2.9-9.2,5.7-13.2
		c4.2-6.2,8.4-12.5,13-18.4c3.4-4.3,6.5-8.7,9.3-13.3c3.5-5.6,7-11.3,10.5-16.9c2.5-3.9,4.2-8,5.3-12.4c2.7-10.8,5.5-21.6,8-32.4
		c0.8-3.5,1.1-7.1,1.6-10.7c0.5-3.6,1-7.1,1.5-10.5c-1.1-2.8-3.1-3.7-5.8-3.2c-2.3,0.5-3.7,2-4.2,4.2c-0.7,3.2-1.4,6.5-1.7,9.8
		c-0.3,4.2-0.9,8.4-2,12.5c-2.2,8.2-4.1,16.3-6.2,24.5c-1.5,5.9-4.2,11.1-7.4,16.3c-7.4,12.1-15.1,23.9-24,34.9
		c-9.5,11.8-14.5,25.6-16.7,40.5c-0.7,5.1-1.1,10.2-2.1,15.2c-1.4,7.4-2.7,14.8-6.3,21.6c-2,3.7-3.6,7.6-5.2,11.5
		c-3.4,8.4-6.6,16.8-10.1,25.2c-6.5,15.4-3.9,30.2,3.3,44.4c4.5,8.8,6.6,18,7.6,27.6c0.8,8.4,1.7,16.8,2.9,25.1
		c2.5,17,6.8,33.6,9.4,50.5c0.8,5.4,1.2,10.8,2.1,16.1c1.4,7.7,2.5,15.4,4.7,23c1.9,6.7,4.4,13.1,7,19.5c3,7.6,6.3,15,9,22.7
		c3.8,11.1,7.4,22.3,10.7,33.5c2,6.6,2.6,13.6,3.3,20.5c1,10.8,2,21.6,6.4,31.7c1.6,3.6,2.5,7.4,3.8,11.1c2.7,7.7,3.1,15.5,0,23
		c-2.7,6.6-3.8,13.2-3.3,20.3c0.3,4.6-1,9-3.8,12.7c-3.8,5.1-7.6,10.1-11.6,15c-1.3,1.5-3.2,2.7-5,3.6c-2.6,1.3-5.4,2.3-8.2,3.5
		c-2.3-0.4-3.7-1.7-3.8-4.2c-0.1-2.1,0.1-4.2-0.1-6.3c-0.2-1.8-0.5-3.6-1.3-5.2c-3-5.9-6.9-6.7-12.4-2.7c-0.7,0.5-1.4,1-2.1,1.6
		c-4-4.6-5.8-8.3-6.1-13.6c-0.3-4.8-0.2-9.6-0.2-14.5c-0.1-13.3-0.1-26.5-0.1-39.8c0-1.2,0.2-2.5-0.1-3.6
		c-2.2-8.8-0.1-17.3,1.6-25.9c2.1-10.7,1.2-21-4.1-30.7c-2.7-5-5.8-9.9-8.7-14.8c-0.9-1.5-2.1-2.9-3-4.5c-3.7-6.6-6.1-13.3-5.6-21.4
		c0.8-11.7,0.1-23.5,0.1-35.3c0-8.7-0.2-17.5,0.2-26.2c0.6-11.3,2.9-22.1,9.9-31.4c1.8-2.4,3.8-4.6,5.9-7.1c0.5-1.7,0-3.3-1.8-4.4
		c-2.1-1.2-4.2-0.9-5.8,0.8c-2.5,2.6-5.2,5.1-7.2,8.1c-5.7,8.7-9,18.2-10.1,28.7c-1.4,13.8-1.4,27.7-1.3,41.5c0,3-0.2,5.9-0.3,8.8
		c-2.1,0.4-2.3-1-2.9-1.9c-2.3-3.5-4.3-7.3-7-10.5c-2.8-3.5-4.2-7.4-4.5-11.6c-0.5-8.7-1.1-17.4,0.8-26.1c1.2-5.3,1.7-10.7,2.4-16.1
		c1.3-10.6,5.1-20.4,10.1-29.8c1.1-2,2.8-4,4.6-5.4c4.1-3,8.5-5.7,12.8-8.5c1.8-1.1,3.7-2.1,5.4-3.3c1.6-1.2,2.1-2.9,1.1-4.9
		c-2.3-2.2-5-1.7-7.6-0.7c-8,3.1-15.1,7.7-21.1,13.7c-2.3,2.3-3.8,5.4-5.3,8.3c-5.6,11.5-9,23.6-10.6,36.2c-0.2,1.8-0.4,3.6-0.8,5.4
		c-0.5,2.9-1.2,5.8-1.7,8.6c-1.7,0.8-2.5,0.1-3.1-1c-0.5-0.8-0.9-1.6-1.4-2.3c-5.4-8.2-7.5-17-4.7-26.7c0.3-1.1,0.4-2.4,0.4-3.6
		c0.3-10.2,3.7-19.4,8.9-28.1c3-4.9,5.9-9.8,9.2-14.5c4.9-7,11.9-10.9,19.4-14.2c3.3-1.4,6.5-0.3,9.8,0.4c1.1-1.2,2.1-2.3,2.9-3.2
		c-1.2-3.7-3.9-5-6.8-6c-2.6-0.9-5.4-0.9-8,0.1c-9.7,3.7-18.5,8.6-24.8,17.3c-8.9,12.2-16.6,25-19.9,41.1c-1.2-1.6-2.2-2.4-2.5-3.4
		c-1.2-3.7-2.2-7.5-3.2-11.3c-1.7-6.6-1.6-13,1.2-19.4c3.2-7.5,6.9-14.7,10.8-21.9c1.1-2.1,2.5-4.1,4-6c5-6.4,11.3-10.7,19.5-11.9
		c5.3-0.8,10.7-1.8,16.4-2.8c0.5-1.5,1-3.1,1.4-4.5c-3.2-3.4-6.8-3.4-10.4-2.9c-3.9,0.5-7.7,1.1-11.6,1.9c-11.1,2.2-19,8.8-25,18
		c-2.3,3.5-4.2,7.3-6.4,10.9c-0.6,0.9-1.4,1.7-2.1,2.5c-0.8-0.6-1.6-0.9-1.6-1.4c-1.7-12.2-2.8-24.4-4-37c1.9-0.7,3.5-1.5,5.2-1.9
		c5.8-1.4,10.4-4.6,14.4-8.9c8.6-9.5,15-20.4,19.6-32.3c1.9-5.1,3.6-10.2,5.2-15.4c1.7-5.8,2.6-11.7,2.5-17.8
		c-0.4-14.9,2.4-29.3,8.1-43.1c4.3-10.3,7-21.2,9-32.1c0.9-4.7,0.7-9.6,0.8-14.4c0.1-6,0-12.1-0.1-18.1c-0.1-4.3,0.7-8.4,2-12.4
		c2.8-8.6,6.2-17,10.7-24.8c4.2-7.4,9.1-14.1,15.2-20.1c6.6-6.6,12.7-13.7,19-20.6c2.1-2.3,3.4-4.9,4.5-7.8c1.6-4.2,3.6-8.3,5-12.6
		c4-11.9,12.6-20.4,21.1-28.9c1.2-1.2,3-2.1,4.6-2.8c4.5-1.8,8.9-3.7,13.5-5.1c6.4-1.9,12.4-4.7,18.2-7.8c4.2-2.3,8.5-4.5,12.7-7
		c2.9-1.7,5.7-3.4,8.3-5.4c4.4-3.2,8.5-6.7,12.8-10c7-5.5,12.1-12.6,17.6-19.4c0.8-1,1-2.8,1-4.3c0-1.6-0.9-3.1-2.4-3.4
		c-1.4-0.3-3.2-0.5-4.2,0.1c-1.7,1.1-3.1,2.8-4.4,4.5c-11,14.5-25.3,24.8-41,33.4c-10.3,5.7-21.2,10.1-32.4,13.6
		c-5.7,1.8-10.4,4.7-14.3,9.1c-2.6,2.9-5.4,5.7-8,8.6c-5,5.7-9.5,11.7-11.8,19c-1,3.1-2.5,6.1-3.6,9.3c-2.3,6.7-6.2,12.3-11,17.4
		c-4.4,4.6-8.7,9.3-13.2,13.7c-6.5,6.4-11.8,13.6-16,21.7c-3.8,7.2-7.7,14.3-10.3,22.1c-2.5,7.5-4.2,15-4.2,23
		c0.1,7.5,0.1,15.1-0.1,22.6c-0.1,3.6-0.5,7.2-1.5,10.7c-2.8,10.1-5.4,20.3-9.5,30.1c-2.6,6.3-3.6,13.3-5.2,20
		c-1.7,7.4-2,14.9-1.7,22.5c0.2,4.9-0.7,9.5-2.1,14.2c-2.7,9.3-5.7,18.4-10.5,26.9c-3.6,6.3-7.3,12.6-12.7,17.5
		c-1.8,1.6-3.7,3.1-5.8,4.2c-1.1,0.6-2.8,0.1-4.6,0.1c-0.3-1.7-0.8-3.2-0.7-4.5c1.4-11.7,4.4-23,9.2-33.8c2-4.4,3.9-8.8,5.5-13.4
		c1.2-3.4,2.3-6.9,2.8-10.5c1-8.4,1.8-16.8,2.2-25.2c0.2-3.9,0.8-7.7,1.7-11.6c2.5-11.5,4.9-22.9,7.1-34.4c1-5,1.3-10-0.5-15.1
		c-3.1-8.9-2.4-17.8,1.6-26.3c8.1-17.2,14.3-35.1,20.7-53c2-5.7,4.4-11.2,7-16.7c2.3-4.9,5.2-9.5,9.3-13.3
		c7.3-6.7,14.5-13.7,22.1-20c7.7-6.5,14-14.1,19.7-22.3c2.3-3.2,4.5-6.4,6.6-9.7c3.5-5.7,8.6-10.1,13.3-14.8c1-1,2.4-1.9,3.7-2.5
		c8.8-4,17.3-8.7,26.8-10.8c7.2-1.6,13.5-5,19.3-9.4c9.4-7,19-13.8,28.5-20.7c2.2-1.6,4.4-3.2,6.4-5c8-6.8,16.1-13.6,24-20.5
		c6.3-5.4,13.7-8.7,21.1-12.1c1.6-0.7,3.5-1.1,5.2-1.2c3.3-0.3,6.6-0.3,9.9-0.4c6.3-0.1,11.8,2,16.2,6.7c3.5,3.7,7.2,7.1,12,9.4
		c5.5,2.7,11.1,4.7,17.3,4.2c1.2-0.1,2.4,0,3.6,0.1c8.5,0.8,15.8,3.8,20.4,11.6c1.4,2.3,3,4.6,6.3,5.8c3.5-2.5,4.5-4.2,3.4-6.6
		c-1.1-2.4-2.4-4.9-4.1-6.9c-6.9-8.3-15.7-13.2-26.7-12.7c-8,0.4-14.7-2.6-21.1-6.7c-0.4-0.3-0.6-1-1-1.5c0.4-1.5,1.8-1.3,2.8-1.2
		c3.3,0.5,6.5,1.2,9.8,1.8c5.3,1,10.6,2.3,15.9,3c3.5,0.4,7.2,0,10.8-0.1c1.8-0.1,3.6-0.7,5.3-0.8c4.3-0.3,7.7,1.3,10,4.9
		c1.1,1.8,2.1,3.7,2.9,5.6c2,4.7,4.2,9.4,5.9,14.2c2.4,6.7,6.3,12.3,11.2,17.3c4.4,4.5,8.3,9.4,12.5,15.2c-2.5,0.3-4.2,0.7-5.9,0.7
		c-5.4,0-10.8-0.3-16.3-0.1c-5.8,0.2-10.3,3.1-14.1,7.2c-1.3,1.4-1.4,3.6-0.5,5c1.1,1.8,3.6,2.7,5.5,1.9c1.1-0.5,2.3-1,3.1-1.8
		c3.1-2.9,6.8-3.7,10.8-3.6c3.2,0.1,6.6-0.9,10,1.6c-0.7,2.2-1.4,4.5-2.1,6.7c-1.7,5.3-1,10.2,2.4,14.5c2.6,3.3,5.3,6.6,8.4,9.4
		c4.8,4.4,6.9,9.7,6.5,16.1c-0.1,1.5-0.1,3-0.2,4.5c-0.3,3.7,0.4,7.2,1.8,10.6c1.8,4.1,3.7,8.3,3.6,13.3
		C742,689.1,738.9,692.6,735.3,696.4z"/>
	<path class="st0" d="M1494.4,271.4c3.3-2.2,6-5,6.7-8.7c-0.8-4.3-3.3-6.4-6.9-6.8c-8.4-1-16.8-2.4-25.1-2.3
		c-24.7,0.4-49.4-1.5-74.1,1.5c-6.9,0.8-13.7,1.5-20.6,2.6c-2.7,0.4-5.3,1-8,1.5c-11.3,1.8-22.6,3.7-33.9,5.4
		c-2.3,0.3-4.5,2.1-7,0.8c0-1.8,1.5-2.4,2.6-3.3c6.8-5.4,14.3-10,20.6-16.2c5.4-5.3,11.2-10.1,16.6-15.3c3.1-2.9,6.2-5.8,8.8-9
		c12.1-14.6,24-29.4,36-44.1c4.4-5.4,7.5-11.6,9.3-18.1c-1.3-3.8-4.1-4.8-7.2-4.5c-3.3,0.3-6.6,0.9-9.7,2c-8.8,3-17.9,5.7-26.3,9.5
		c-15.3,7-31.2,12.9-45.8,21.5c-18.7,11-37.2,22.4-54.7,35.2c-2.1,1.5-4.1,3.3-7.2,4.5c0.3-1.5,0.3-2.4,0.7-3
		c4.9-6.9,8.9-14.3,12.7-21.9c4.8-9.7,9.3-19.6,13.7-29.5c3.3-7.4,6.1-15.1,9.1-22.6c3.8-9.5,7.8-18.9,11.6-28.4c0.8-2,1.5-4,1.9-6
		c0.5-2.6,0.9-5.4-1.2-8.1c-4-2.4-8-1.1-11.6,1.2c-6.1,3.9-12,8-18,12.2c-4.2,2.9-8.1,6.4-12.4,9c-10.4,6.4-19.2,14.5-27.6,23.2
		c-5.8,6.1-11.7,12.2-17.7,18.1c-5.9,5.7-11,12-16,18.4c-4.8,6.1-10.1,12-15.2,17.9c-0.5,0.5-1.4,0.6-2.1,0.9c-1.4-2-0.5-3.7,0-5.4
		c2.4-8.4,4.8-16.8,7.1-25.2c2.7-9.9,4.5-20,4.9-30.2c0.1-2.4,0.6-4.8,0.9-7.2c0.8-6.6,2-13.1,2.2-19.7c0.4-9,0.2-18.1,0.1-27.1
		c0-2.1-0.1-4.3-0.6-6.3c-0.3-1.3-1.3-2.9-2.5-3.5c-1.1-0.7-2.8-0.4-4.2-0.5c-2.4,3.1-4.8,5.8-6.8,8.8c-4.8,6.9-9.5,14-14.3,20.8
		c-14,19.8-24.8,41.3-34.5,63.4c-3,6.9-6,13.8-9.1,20.7c-0.5,1.2-1,2.9-3.2,2.2c-0.6-3.5-1.3-7.1-1.7-10.6
		c-0.9-7.2-1.9-14.3-2.3-21.5c-0.4-6.6-1.2-13.2-2.5-19.7c-0.4-1.8-0.9-3.5-1-5.3c-0.9-10.5-3-20.9-5.8-31
		c-3.6-13.1-8-25.9-14.6-37.9c-1.3-2.3-2.8-4.7-4.6-6.7c-2.2-2.4-5.9-2.4-8.1,0c-1.8,2-3.3,4.3-4.6,6.7c-11,20.7-16.9,43-20.3,66.2
		c-1.6,11.3-3.6,22.5-4.2,34c-0.4,8.1-2,16.1-3.1,24.2c-0.1,0.7-0.7,1.4-1.1,2.3c-2-1.2-2.6-2.9-3.3-4.5
		c-5.5-12.7-11.1-25.4-17.1-37.9c-6.4-13.4-13.5-26.2-21.7-38.5c-4.5-6.8-8.9-13.6-13.5-20.3c-3.8-5.4-7.4-10.9-11.9-15.1
		c-3.5-0.8-5.4,0.4-6.2,3c-0.6,2-0.8,4.1-0.8,6.2c-0.1,8.1-0.1,16.3,0,24.4c0,4.5,0.3,9,1.2,13.5c1.1,5.6,1.8,11.3,2.1,17
		c0.6,10.3,2.2,20.3,4.9,30.2c2.5,9,5.1,18,7.6,27c0.3,1.2,1,2.9-1.5,3.7c-1.4-1.3-3-2.7-4.3-4.3c-4.1-4.8-8.2-9.6-12.1-14.6
		c-5-6.5-10.2-12.7-16-18.4c-6.1-5.9-11.7-12.1-17.8-18.1c-5.6-5.5-11-11.3-17.2-15.9c-9.9-7.3-20.2-14.2-30-21.7
		c-3.8-2.9-8-5.3-12.3-7.6c-3.5-1.9-7.4-2.8-10.7,0.4c-1.3,3.2-1,6.2,0,9.1c1.4,4,2.8,8,4.4,11.9c3.3,8.1,7,16,10.1,24.2
		c5.1,13.6,10.6,26.9,17,39.9c5,10,9.9,20,16.1,29.2c0.8,1.1,2.2,2.2,1,4.3c-2.2-0.9-4-2.4-5.9-3.7c-6.7-4.6-13.2-9.5-20-13.9
		c-20.2-13.2-40.5-26.2-62.9-35.4c-10-4.1-19.6-9.2-30.1-12.3c-4-1.2-7.9-3-11.9-4.2c-4-1.2-8.1-2.3-12.3-2.9
		c-3.1-0.4-6,0.8-7.2,4.6c2.1,6.7,5.3,13,10,18.7c8.6,10.5,17.1,21.1,25.6,31.6c7.2,8.9,14.3,17.9,23.5,24.9c3.1,2.4,5.9,5.2,8.6,8
		c5.2,5.5,11,10.3,17.2,14.6c2.7,1.9,5.4,3.9,8,6c0.6,0.5,0.9,1.3,1.3,2c-0.5,0.3-0.8,0.6-1,0.5c-8-1.2-16-2.6-24-3.7
		c-15.5-2.2-30.6-6.7-46.4-6.9c-0.6,0-1.2-0.2-1.8-0.2c-4.2-0.4-8.4-1.2-12.5-1.2c-18.7-0.2-37.4-0.4-56.1-0.1
		c-8.7,0.1-17.4,1.3-26.1,2.2c-4.3,0.5-7.3,2.6-7.7,7.2c1,3.6,3.2,6,6,8c2.7,1.9,5.4,3.8,8.3,5.4c8.4,4.7,16.8,9.4,25.3,14
		c14.6,7.9,29.2,15.6,44.7,21.7c13.8,5.3,27.4,10.9,41.2,16.1c11.5,4.4,23,9.2,34.8,12.7c17,5.1,34.3,9.3,51.5,13.6
		c13.7,3.4,27.6,6.3,41.4,9.4c11.2,2.5,22.3,4.9,33.5,7.2c4.4,0.9,8.9,1.4,13.4,2c6,0.7,12,1.3,17.9,2c1.1,0.1,2.4,0.3,2.6,2.5
		c-1.2,0.4-2.5,1-3.8,1.3c-14,3.9-27.5,8.9-40.3,15.8c-18.6,9.9-34.9,22.5-47.8,39.3c-14.1,18.1-22.6,38.3-23.1,61.5
		c0,1.1-0.5,2.2-0.9,3.8c-6.4,0.2-11.9,0.3-18.4,1.9c-5.1-7.3-6.9-13-10.6-32.7c-1.6-2-3.7-3.1-6.2-1.9c-2.4,1.2-3.3,3.4-3.2,6
		c0.1,1.2,0.3,2.4,0.5,3.6c1,6.9,3,13.5,5.4,20c0.9,2.5,1.8,5.1,2.6,7.5c-13.6,4.9-17.6,7.8-19.2,9.6c-1-1.6-3.3-4.3-4.3-6.1
		c-3.5-6.3-7-12.7-10.5-19c-1.4-2.5-3.3-4.3-7-3.9c-3,0.7-4.3,3.3-3.5,5.5c0.2,2.6,2.9,6.2,4.7,9.6c1.7,3.2,3.7,6.2,5.4,9.4
		c1.8,3.4,4.1,6.6,5,10.4c-6.3,6.2-12.3,12-18.5,18.1c-8.7-9.1-13.8-20.1-20.3-29.8c-4.2-0.6-6.2,1.2-7.4,4.6
		c0.8,3.5,2.7,6.6,4.6,9.7c9.2,15.1,20.8,28.1,35,38.6c20.7,15.4,44,23.6,69.8,24c16.8,0.3,33-3.1,48.2-10.2
		c15.5-7.2,29.3-16.8,39.8-30.5c2.9-3.8,5.7-7.8,8.1-11.9c4.6-7.8,9-15.7,13.2-23.6c1-1.8,1.3-4,1.6-6c0.3-2.2-1.2-4.1-3.3-4.8
		c-1.6-0.5-3.8,0.2-4.8,1.6c-0.8,1.2-1.5,2.6-2.2,3.9c-3.3,6.4-6.5,12.9-10.1,19.2c-1.5,2.8-2.6,4.5-6.2,7.8
		c-4.5-3.7-8.9-7.3-13.3-11c-0.4-0.3-0.5-1.1-0.9-1.9c0.5-0.8,1.1-1.8,1.6-2.8c2.9-5.3,6-10.5,8.7-15.8c1.2-2.4,2.1-5,2.7-7.6
		c0.6-2.3-0.4-4.2-2.6-5.2c-1-0.5-2.2-0.7-3.4-1.1c-5,3.5-5,9.6-7.9,14c-2.9,4.5-4.3,9.9-8.5,14.5c-6.9-3.7-14.4-5.7-21.4-9.5
		c0.6-4.9,2.3-9.1,4-13.2c1.8-4.5,3.7-8.9,5.3-13.5c0.8-2.3,1.2-4.7-0.7-6.8c-3.3-0.9-3.3-0.9-6.8,0.1c-0.4,0.5-0.9,0.9-1.1,1.4
		c-3.1,8.5-6.9,16.7-9,25.5c-0.4,1.6-1.6,3-2.2,4.1c-6-0.5-11.4-1-16.8-1.5c-2.1-0.2-4.3-0.2-5.6-2.2c-0.9-7,0-15,2.2-23.1
		c6.4-23,20.2-40.9,38.4-55.7c22.2-18,47.9-28.8,75.8-34.4c5-1,10.1-1.5,15.2-2c1.7-0.2,3.4,0.5,4.9,0.8c2.1,6.3,2.5,12.3,2.4,18.3
		c-0.3,19.6,2.6,62.9,2.8,65c0.9,9,2.3,17.9,2.3,27c0,9.6,0,19.3,0.1,28.9c0.2,9.6-0.3,19.2-0.2,28.9c0.3,26.2,0.3,52.5,0.5,78.7
		c0.1,8.7,1.8,31.5,1.8,34.2c0.1,6.9,0,13.9,0.1,20.8c0,2.4,1.4,46.3,1.5,55.1c0.1,10-0.3,20,0.7,29.8c1,9.6,1,19.2,1.4,28.9
		c0.2,4.2,2.8,28.1,3.4,35.9c0.8,9.9,1.3,19.8,1.9,29.7c0,0.6,1.4,15.5,2.1,23C966.2,900.8,885,990.9,885,1100
		c0,118.7,96.3,215,215,215s215-96.3,215-215c0-108.8-80.8-198.7-185.7-213c0-0.2,0-0.5,0-0.7c0.1-5.8,4-58.1,4.3-62
		c0.8-8.7,2.6-41.1,2.9-48.7c0.2-5.1,2.9-89.3,3-94.8c0-6.3,0-12.7,0.1-19c0-3,0.3-6,0.6-9c0.3-3.9,1.4-88.2,1.5-126.5
		c0-4.5,0-33.8,0.9-42.2c0.9-8.1,1.8-16.2,2.2-24.3c0.9-17.7,1.4-35.5,2-53.3c0.1-3.6,0.1-7.2,0.2-10.9c0.1-4.5,0.9-8.9,2.3-13.4
		c1.4-0.2,2.6-0.6,3.7-0.6c2.7,0.1,5.4,0.1,8.1,0.6c21.2,3.6,41.6,9.8,60.6,20.3c18.2,10,34,22.8,46.4,39.6
		c10.4,14.2,16.5,30,18.3,47.5c0.3,2.6,0.6,5.4-0.9,7.9c-0.5,0.4-1,0.9-1.6,1c-1.8,0.4-3.5,0.9-5.3,0.9c-5.2,0-10.2,1-15.2,2
		c-15,2.9-29,8.4-41.4,17.2c-17,12-30.7,27.1-40.7,45.4c-0.6,1-1.1,2.2-1.4,3.3c-0.6,2.2-0.4,3.3,0,4.7c0.9,2.1,2.5,2.5,3.9,2.5
		c3.8-0.7,5-3.2,6.2-5.6c4.1-7.8,8.9-15,14.1-21.7c0.6-0.2,1-0.4,1.2-0.3c6.2,3.3,9.9,9.5,15.8,13.2c1.4,0.9,2.4,2.5,3.7,4
		c-3.8,6.8-7.5,13.4-11.1,20c-1.1,2.1-2.3,4.2-3.1,6.5c-1,3.1,0.8,5.7,4.5,6.3c0.8,0.1,1.7-0.3,2.7-0.4c3.7-3.7,5.6-8.5,8.1-12.9
		c2.7-4.6,4.2-10,8.9-13.7c6.2,3,12.7,5.2,18.9,8.8c-0.3,1.4-0.4,2.6-0.7,3.7c-1.1,3.4-2.5,6.8-3.5,10.3c-1.6,5.5-3.4,11-3,16.8
		c0.1,1.7,0.1,3.7,1.5,5.1c2.2,1.5,5.3,1.3,6.2,0.4c1.9-1.1,2.5-3.9,2.7-6.4c0.5-7.9,2.9-15.4,5.7-22.7c0.6-1.6,1.8-3,2.8-4.7
		c6.9,2.1,14.1,0.8,20.8,4.4c0.1,2.3,0.3,4.6,0.3,7c0,6.3-0.1,12.7-0.1,19c0,2.4,0.1,4.9,2.1,6.7c0.6,0.6,1.6,1.3,3,1.3
		c2.4,0,4.7-1.5,4.7-4.6c-1-13.9-0.1-19.8,1.7-30c6.3-2.2,13.2-3.2,20.9-2.8c3.1,10.2,6.7,20.4,11.2,30.5c1.3,1.1,3.8,1.9,6.3,0.5
		c2.1-1,2.5-3.9,2.1-5.4c-2.8-7.1-5.6-13.8-8-20.6c-0.9-2.7-2.8-5.4-1.6-8.8c5.7-2.7,11.4-5.5,17.1-8.1c1.3-0.6,2.7-0.8,4.1-1.2
		c3.3,3.8,5,8,6.9,12.1c2.1,4.7,4.3,9.3,6.5,13.9c0.2,0.5,0.9,0.8,1.3,1.2c2.1,1,4.7,0.4,6.4-1.2c2.4-2.7,0.8-5.9-1.7-11
		c-3.3-6.7-6.9-13.3-10.4-20c4.2-5.3,7-7.6,14.3-11.9c3.1,1.2,4.1,4.2,5.5,6.8c3.9,7.5,7.7,15,11.6,22.5c1.3,2.6,4.2,3.5,6.9,2.3
		c2.3-1,3.2-3.3,2.4-6.1c-0.4-1.4-0.8-2.9-1.5-4.2c-4.4-7.9-8.6-15.9-13.4-23.6c-5.4-8.8-13.7-15.2-20.7-22.7
		c-4.8-5.1-10.5-9-16.5-12.6c-14.8-8.8-30.7-13.7-47.8-15.2c-1.4-0.1-2.7-0.9-3.9-1.3c-0.7-5.8-1.1-11.2-1.9-16.6
		c-3.6-22.2-14.2-40.8-29.3-57c-15.7-16.8-34.6-29-55.9-37.5c-8.7-3.4-17.7-6-26.5-9c-1.2-0.4-2.2-0.8-1.6-2.9
		c1.5-0.2,3.3-0.6,5-0.8c12.9-1,25.7-2.8,38.4-5.7c16.1-3.7,32.3-7,48.5-10.7c13.2-3,26.4-6.2,39.5-9.6c12.8-3.4,25.7-6.6,38.2-11
		c18.7-6.6,37.2-14.1,55.7-21.4c14-5.5,28-11.2,41.3-18.4c10.3-5.6,20.8-11,31.1-16.6C1483.7,278.2,1489.1,274.8,1494.4,271.4z
		 M835.2,544.1c2.5-4.7,5.7-8.4,12.5-13.7c10.1-7.8,15.9-12.5,28.2-16c1.9-0.5,9.3-2.9,11.3-1.2c-16.5,17.2-18.9,35.3-1.8,56
		C874.2,570.2,850.4,558.3,835.2,544.1z M984.1,538.9c-0.3,0.7-0.4,1.8-0.9,2.4c-13.6,14.4-27.5,23.1-46.6,28.1
		c-0.8,0.2-4.2,0.5-6.1,0.3c20.3-20.8,14.4-44.2-2.6-58.1C942.1,509.7,972.3,524.3,984.1,538.9z M932.6,541.9
		c-0.1,15.4-13.3,24.5-24.4,23.3c-13.5-0.1-23.8-10.7-23.7-24.2c0.1-12.6,10.7-23.7,22.5-23.6C921.9,517.4,932.7,527.8,932.6,541.9z
		 M1325.5,515.8c14.3,5.3,27.2,13,37.4,24.6c0.8,0.9,1.4,1.9,2.6,3.3c-16.4,15-34.8,24.1-55.7,27.9c-19.3,3.5-38.4,1.4-56.7-5.7
		c-14.6-5.6-30-16.8-37-26.4c0-2.1,1.5-3.2,2.8-4.4c12.2-11.3,26.6-18.9,42.7-22.6C1283,507.6,1304.6,508.1,1325.5,515.8z
		 M1270.3,238.3c21.4-15.1,43-29.8,65.8-42.8c12.9-7.3,26.5-12.8,39.9-19.1c8.1-3.8,16.9-6.4,25.4-9.4c1.4-0.5,2.9-0.8,4.2,1.2
		c-0.7,1-1.3,2.4-2.2,3.5c-11.1,13.5-22,27.1-33.4,40.3c-5.1,5.9-11.1,11-16.8,16.4c-1.7,1.7-3.8,3-5.4,4.7
		c-8.7,9.3-18.9,16.7-29.3,24c-5.6,4-11.1,8.3-16.6,12.5c-3.4,2.6-7.1,4.4-11,6c-16.2,6.5-32.4,13.1-48.5,19.8
		c-7.5,3.1-14.8,6.8-22.2,10.1c-0.7,0.3-1.6,0.3-2.4,0.3c0.4-1.3,0.5-2.8,1.3-3.9c5.8-8.4,11.8-16.7,17.7-25
		c4.2-5.9,8.6-11.6,12.4-17.7c3.1-4.9,7-9,11.3-12.8C1263.6,243.4,1266.8,240.7,1270.3,238.3z M1134.7,285.5
		c1.5-7.5,1.3-15,1.4-22.5c0.1-7.5,0.5-15.1,0-22.6c-0.6-9.1,2-17.2,5.5-25.3c4.9-11,10-21.9,14.6-33c5.7-13.6,12-27,19.3-39.8
		c7.4-13.1,15.8-25.6,23.9-38.3c0.5-0.8,1.7-1.2,3.3-2.3c0.2,2.6,0.4,4.4,0.4,6.1c-0.1,4.8,0.1,9.7-0.4,14.4
		c-0.6,5.7-1.8,11.3-2.5,16.9c-0.8,5.7-1.5,11.3-1.9,17c-0.7,10.9-4,21.2-6.8,31.7c-3.8,14.3-8.7,28.2-13.9,42
		c-1.5,3.9-3.6,7.6-5.9,11.1c-7.4,11.3-15.1,22.5-22.5,33.8c-3.8,5.8-7.1,11.9-10.6,17.8c-0.7,1.3-1.2,2.8-3.5,3.1
		C1133.7,292.5,1134,288.8,1134.7,285.5z M1072.9,202c0-2.7,0.5-5.4,0.7-8.1c0.2-2.4,0.5-4.8,0.7-7.2c0.7-9.3,1-18.7,2.3-27.9
		c1.7-11.6,4.2-23.1,6.3-34.6c2.1-11.6,5.4-22.8,9.6-33.8c1.6-4.2,3.6-8.3,5.5-12.4c0.3-0.7,1.2-1.1,1.7-1.6
		c2.1,0.3,2.5,1.9,3.2,3.1c5.1,10.3,8.7,21.2,11.4,32.3c2.6,10.2,4.6,20.5,6.5,30.9c1.3,7.4,1.9,14.9,3.1,22.3c1.8,10.4,1,21,3,31.4
		c0.4,2,0.2,4.2,0.2,6.3c0,21.7,0,43.4-0.1,65.1c0,3.9-0.7,7.8-1,11.7c-0.2,2.4-0.5,4.8-0.6,7.2c-0.2,17.3-3.5,34-8.3,50.6
		c-2.4,8.4-5,16.7-8.8,24.6c-1.7,3.5-4.1,5.9-8.2,6.6c-4.2-0.3-7-2.7-8.7-6.6c-2.1-5-4.4-9.9-6.1-15.1c-5.1-15.8-8.7-31.9-10.6-48.4
		c-0.3-2.7-0.1-5.4-0.3-8.1c-0.3-4.5-0.9-9-1.2-13.5c-0.2-2.4-0.4-4.8-0.4-7.2C1072.8,247.2,1072.8,224.6,1072.9,202z M1099.2,378.4
		c-0.5,1.6-0.6,2.8-1.2,3.6c-4.1,6.3-8.2,12.5-12.5,18.7c-0.6,0.9-1.7,1.6-2.9,2.7c-7-6.9-12.2-15-18.8-22.5c1.4-0.9,2.3-2,3.3-2
		C1077.7,378.2,1088.1,377.5,1099.2,378.4z M1000.6,148.9c-0.8-8.4-2.2-16.7-3.1-25c-0.8-7.1-1.1-14.2-0.1-21.3
		c2.3-0.1,3.1,1.3,3.9,2.5c14.9,21.9,28.2,44.8,39.1,69.1c6.3,14,12.3,28.1,18.4,42.2c3.4,7.8,5.4,15.8,5,24.5
		c-0.4,9.6-0.2,19.3,0.1,28.9c0.1,4.8,0.7,9.6,1.2,14.4c0.4,3.9,0.7,7.7,0.1,12c-1.1-0.6-2.1-0.8-2.5-1.3c-1.1-1.4-2.1-3-2.9-4.5
		c-9.1-17-20.7-32.5-31.3-48.6c-2.8-4.3-5.1-8.8-6.9-13.7c-6.3-16.6-11.4-33.6-16.2-50.7C1002.9,168,1001.6,158.4,1000.6,148.9z
		 M864.9,244.7c-0.7-0.5-1.5-1-2.2-1.6c-8.2-7.5-16.5-14.9-24.5-22.7c-4.3-4.2-8.2-8.8-12.1-13.4c-9.9-11.7-19.7-23.5-29.5-35.3
		c-0.9-1.1-1.6-2.4-2.3-3.6c0.8-0.6,1.3-1.3,1.7-1.3c1.5,0.2,3,0.4,4.3,0.9c5.7,2,11.4,3.8,17,6.2c14.7,6.2,29.5,12.2,43.4,20
		c14.7,8.3,29.2,16.9,43.1,26.4c11.1,7.7,22.6,15,33,23.7c5.3,4.5,10.2,9.3,14.1,15.2c4.8,7.3,10.2,14.1,15.3,21.2
		c5.2,7.4,10.3,14.8,15.4,22.2c0.6,0.8,0.6,2.1,0.8,3.2c-1.1-0.2-2.3-0.2-3.2-0.7c-20.2-10.2-41.1-18.6-62.2-26.6
		c-8.8-3.3-17-7.3-24.5-13.2C883.3,258.2,874,251.5,864.9,244.7z M1028.9,367.2c-7.5-0.9-14.9-2.4-22.3-2.9
		c-10-0.6-19.6-2.8-29.3-4.9c-11.5-2.5-23-4.6-34.4-7.3c-14.1-3.3-28-7-42-10.5c-4.7-1.2-9.4-2-14.1-3.2c-5-1.2-10-2.3-14.8-4
		c-14.2-5-28.4-10-42.5-15.3c-11.6-4.3-22.9-9.1-34.5-13.5c-24.6-9.4-47.5-22-70.5-34.6c-3.1-1.7-6.1-3.7-9.1-5.5
		c0.6-2.1,2-2.6,3.5-2.7c4.8-0.3,9.6-0.7,14.4-0.7c18.7,0,37.4-0.2,56.1,0.4c11.4,0.3,22.8,1.9,34,3.9c9.8,1.8,19.6,3.3,29.3,5
		c23.8,4.1,47.2,9.4,69.6,18.8c14.7,6.2,29.6,12,44.1,18.7c10.1,4.7,19.7,10.4,29.3,16c3.3,1.9,6.3,4.7,9.1,7.4
		c6.4,6.4,12.5,13,18.9,19.4c4.7,4.7,9.6,9.1,14.5,13.6c0.3,0.3,0.4,1,0.7,1.8C1035.4,368.1,1032.1,367.5,1028.9,367.2z
		 M982.5,306.2c0.2,0.2,0.4,0.3,0.6,0.5c-0.2,0-0.4,0-0.5-0.2C982.6,306.4,982.6,306.3,982.5,306.2z M1060.5,368.2
		c-4-1.1-7.8-3.4-11.2-5.8c-10.6-7.6-19.6-16.9-28.3-26.5c-2.8-3.1-5.5-6.4-8.4-9.4c-6.3-6.5-12.1-13.4-17.2-20.9
		c-6.4-9.5-12.9-18.9-19.6-28.2c-4.4-6.1-9.3-11.9-13.4-18.1c-5.9-9.1-11.4-18.4-17-27.7c-3.4-5.7-6.7-11.4-10.1-17.1
		c-0.3-0.5-0.7-1-1-1.5c-10.2-18.8-20.1-37.8-27.3-58c-1.7-4.8-3.7-9.5-5.5-14.3c-2-5.4-3.9-10.7-5.8-16.1c-0.2-0.5,0.2-1.1,0.5-2
		c0.7,0.1,1.7-0.1,2.3,0.3c2.8,1.8,5.6,3.6,8.3,5.5c4.9,3.5,9.6,7.3,14.6,10.6c11.1,7.4,20.9,16.2,29.4,26.6c2.5,3,5.2,5.9,8.2,8.5
		c10.7,9.1,18.9,20.2,27.6,31c1.7,2.1,3.5,4.2,5.4,6.1c11.6,11.9,22.1,24.7,31.3,38.6c7.9,12.1,16,24.1,23.9,36.2
		c15.3,23.5,24.7,49.5,32.9,76.1c0.4,1.4,0.4,2.9,0.6,4.4c-0.9,1-1.1,1.4-1.3,1.5C1072.9,370.2,1066.5,369.9,1060.5,368.2z
		 M1062.5,430.4c-0.6-3.9-0.6-28.8-0.1-34.2c0.5,0,1.3-0.3,1.5-0.1c4.3,5.4,9.1,10.4,12.7,16.9c-3.2,6.7-7.7,12.6-12.2,19.4
		C1063.3,431.2,1062.6,430.8,1062.5,430.4z M1063.9,453.4c0-2,0.4-4.3,1.5-6c5.7-8.5,11.6-16.8,18.3-26.3
		c9.7,12.4,18.5,23.7,27.5,35.2c-0.8,1.9-1.3,3.6-2.2,5.1c-9.5,15.7-20.2,31-24.8,35.6c-1.1-1-2.2-1.9-3.2-3
		c-3.7-4.3-7.3-8.7-11-13.1c-2.7-3.3-4.3-6.9-5-11.3C1064.1,464.2,1063.7,458.8,1063.9,453.4z M1066.4,492.9
		c5.3,3.6,8.1,7,11.7,13.6c-3.2,7.2-5.7,10.9-10.7,15.5C1066.4,512.2,1067.6,502.7,1066.4,492.9z M1067.1,546c0.1-2,0.6-4.3,1.7-5.9
		c5.2-8.1,10.6-16,16-24c1.2,0.4,2.3,0.5,2.8,1c6.7,8.1,13.4,16.2,20,24.4c0.7,0.9,1.1,2.1,1.8,3.3c-1.3,4.8-4.8,8.3-7.2,12.3
		c-2.5,4.1-5,8.2-7.7,12.2c-2.7,3.9-4.6,8.4-8.3,11.5c-6-3.8-10.3-8.4-19.1-20.1C1067.1,556.2,1066.9,551.1,1067.1,546z
		 M1067.1,581.8c-0.1-1.1,0.4-2.3,0.7-4c5.7,3.6,8.2,9.1,12.1,13.5c-3,6.1-6.8,11.2-10.3,16.6c-1.1-0.8-1.4-0.9-1.5-1.1
		C1066.5,598.5,1067.8,590.1,1067.1,581.8z M1067.4,639.9c0-3,0-5.1,0-7.2c-0.1-2.5,0.6-4.8,2-6.8c5.3-8,10.7-16,16-23.9
		c0.3-0.4,1-0.6,1.9-1.2c3.7,1.3,5.7,4.8,8.2,7.6c2.6,2.9,5.1,5.9,7.6,8.8c2.5,2.9,5.6,5.4,7.5,9.1c-1.1,3.5-3,6.5-5.1,9.5
		c-5.6,8.1-9.9,17-16.3,24.8c-3.7-1.1-5.3-4.3-7.7-6.4c-2.5-2.2-4.7-4.6-7-7C1072.2,644.9,1069.9,642.5,1067.4,639.9z M1069.5,689
		c-0.5-10.1-0.3-20.3-0.2-30.3c1-0.1,1.7-0.4,1.9-0.2c4.1,3.5,8,7.1,11.4,12.2c-2.8,7.7-7.4,13.4-11.5,19.6
		C1070.3,689.7,1069.5,689.4,1069.5,689z M1072.4,705.7c5.8-8.7,11.6-17.5,17.3-26c0.8,0.1,1.2,0,1.4,0.2c2.2,2,4.6,3.9,6.6,6
		c6.3,6.4,12.6,12.9,18.7,19.2c-0.2,1.4,0,2.5-0.5,3.2c-6.2,10.6-12.8,21-19.2,30.9c-1,0.2-1.4,0.5-1.5,0.4
		c-8.9-6.8-15.8-15.6-23.9-23C1070.5,712,1070.4,708.7,1072.4,705.7z M1105.8,824.8c-0.7-0.1-1.8,0-2.4-0.5
		c-9.5-8.8-18.9-17.6-28.3-26.5c-0.6-0.6-1-1.5-1.4-2.2c2.2-5.4,17-28.6,23.1-36.4c0.6,0,1.3-0.1,1.6,0.2c9.7,9,18.7,18.7,28.1,28.3
		C1123.8,794.3,1110.2,818.5,1105.8,824.8z M1125.2,821.7c-0.2,2.1-0.7,4.1-1,6.1c-0.3,2.4-0.3,4.7-0.6,7.1c-0.2,2-0.6,3.9-1,6.4
		c-4.5-1.4-6.6-4.6-9-7.3c2-5.7,6.6-13.9,10.4-18.6C1125.4,818.6,1125.5,819.1,1125.2,821.7z M1078.2,863.1
		c-1.1-18.9-3-31.8-3.7-49.4c0-0.5,0.5-1.1,0.7-1.6c0.5,0.1,1.2-0.1,1.6,0.2c4.3,3.5,19.6,19,22.9,23.2c-0.3,0.9-0.5,2.1-1.1,3.1
		c-5.8,10.4-12.9,21.3-19.1,32.3C1078.1,869.7,1078.4,867.7,1078.2,863.1z M1072.3,731.4c5.1,5,9.7,9.8,14.2,14.5
		c1,1,1.8,2.3,2.7,3.6c-1.1,5.3-4.8,9.1-7.3,13.4c-2.5,4.4-5.3,8.6-8.2,13.2c-1-0.8-2.2-1.2-2.2-1.7c-0.2-13.7-0.4-27.5-0.5-41.2
		C1071.1,732.8,1071.4,732.6,1072.3,731.4z M1071.6,886.9C1071.6,886.9,1071.6,886.9,1071.6,886.9
		C1071.5,886.4,1071.6,886.4,1071.6,886.9z M1246,954c19,19,33.9,41.1,44.3,65.6c10.8,25.5,16.2,52.5,16.2,80.4
		c0,27.9-5.5,54.9-16.2,80.4c-10.4,24.6-25.3,46.7-44.3,65.6c-19,19-41.1,33.9-65.6,44.3c-6.2,2.6-12.6,5-19,7
		c-41.6-14.5-75.3-38.5-101.4-72.9c-27.6-36.4-41-77.7-42.3-123c-0.2-8.8,0.8-17.7,1.5-26.5c0.5-5.3,1.3-10.6,2.5-15.7
		c2-8.6,4-17.3,6.8-25.7c2.7-8.1,6-16.1,9.6-23.9c3.1-6.7,6.7-13.2,10.6-19.5c4.8-7.5,9.9-14.8,15.4-21.8
		c4.5-5.8,9.5-11.4,14.8-16.6c5.5-5.4,11.2-10.7,17.3-15.4c6.8-5.3,13.9-10.2,21.1-14.9c12.6-8.1,26.3-14.2,40.6-19.6
		c7.6,2.2,15.1,4.9,22.4,8C1205,920.1,1227.1,935,1246,954z M1100,885c-5.4,0-10.7,0.2-16,0.6c0.2-0.5,0.4-0.9,0.6-1.1
		c6.9-12.4,13.7-24.8,20.7-37.1c0.7-1.3,1.7-2.4,2.7-3.7c6.1,3.1,10.1,7.9,13.9,12.8c0.3,5.4-0.5,10.4-0.9,15.6
		c-0.4,4.4-0.9,9.5-1.5,13.9C1113,885.3,1106.6,885,1100,885z M1129.3,723.3c-0.1,15-0.3,30.1-0.5,45.1c0,1.2-0.4,2.3-0.7,3.7
		c-1.1-0.1-2.2,0.1-2.7-0.3c-7-7-13.9-14.1-20.8-21.3c-0.4-0.4-0.5-1.1-1-2.2c4.5-8.7,16.6-27.8,20.9-32.9c2.7-0.4,3.8,1.4,4.4,3.5
		C1129.3,720.3,1129.3,721.8,1129.3,723.3z M1130.9,660.1c0,6-0.3,12,0,18c0.2,4.7-0.9,8.9-3.7,12.6c-1.2,1.7-2.3,3.4-3.3,4.8
		c-0.8,0.2-1.1,0.4-1.3,0.3c-0.3,0-0.6-0.1-0.8-0.3c-7.8-7.9-15.7-15.7-23.5-23.6c-0.6-0.6-0.9-1.5-1.5-2.6c0.7-1.5,1.4-3.1,2.3-4.6
		c6-9.3,12.1-18.6,18.2-27.8c0.3-0.4,1-0.5,1.9-0.9c4.5,3.8,7.6,8.9,11.7,13.3C1130.9,652.9,1130.9,656.5,1130.9,660.1z
		 M1132.6,627.3c0.1,1.7-0.3,3.4-0.5,5.5c-1.3-0.4-2.3-0.4-2.7-0.9c-1.8-2-3.4-4.1-5.3-6.5c2.1-3.4,4.1-6.7,6.2-9.9
		c0.2-0.4,1-0.4,1.8-0.7C1133.1,619,1132.4,623.1,1132.6,627.3z M1132.4,590.9c-0.1,1.7-1,3.5-1.9,5c-4,7-8.4,13.8-13.5,20.8
		c-9.2-7.6-15.2-17.5-23-24.8c-0.8-3.4,1.1-5.3,2.3-7.3c10.9-18.2,16.5-26.2,21.1-30.4c5.8,4.8,9.5,11.5,14.8,16.8
		C1133.7,577.8,1133,584.4,1132.4,590.9z M1123.1,544.4c2.1-5.8,5.4-9.5,8.3-14c0.8,1.4,1.3,2,1.3,2.5c0.1,5.9,0.2,11.9,0.3,17.8
		c0,1.1-0.3,2.3-0.5,3.4c-2.2,0-2.6-1.6-3.5-2.6C1126.9,549.3,1125.1,547,1123.1,544.4z M1133.8,492.9c-0.5,3-1,6-0.8,9
		c0.4,5.4-1.2,10-4.3,14.3c-3.5,4.9-6.6,10-10,15.1c-0.8,1.2-1.8,2.3-3,3.8c-3.7-2.7-5.8-6.5-8.6-9.5c-2.7-2.8-4.9-6.1-7.5-9.1
		c-2.8-3.2-5.2-6.5-7.6-10.1c0.8-1.9,1.3-3.7,2.3-5.1c8-11.2,14.6-23.4,23.1-34c1.1,0.2,1.9,0.2,2.2,0.5c3.8,4.6,7.5,9.4,11.4,14
		C1133.9,485.2,1134.5,488.8,1133.8,492.9z M1135.7,464.9c-0.1,1-1,2-1.8,3.4c-3.6-3.5-6.2-7-8.9-10.9c1.9-6.3,6.5-11,10.6-17.8
		C1136.8,449.2,1136.1,457.1,1135.7,464.9z M1139.4,385.4c-1.6,8.3-1.5,16.8-1.5,25.2c0,5.1-1.4,9.3-4.3,13.4
		c-5.1,7.4-9.9,15-15.1,23c-1.4-0.7-2.7-0.9-3.3-1.7c-8.4-10.6-16.7-21.3-24.9-31.9c-0.2-0.2-0.1-0.6-0.2-0.9
		c2.6-5.8,16.3-26.5,22.4-34c5.7-0.9,11.7-0.1,17.6,0.1c2.6,0.1,5.3,0.9,8.7,1.6C1139.2,382.5,1139.7,384,1139.4,385.4z
		 M1141.3,367.7c-3.8,1.7-7.6,1.5-11.5,1.5c-3.3,0-6.7,0.5-10.2-2.6c0.3-2,0.4-3.8,0.9-5.5c4.8-15.2,9.9-30.3,16.2-45.1
		c4.3-10,9.9-19.3,15.5-28.6c6.6-10.8,13.7-21.2,20.7-31.8c2.2-3.3,4.5-6.4,6.7-9.7c7.2-10.8,15.7-20.6,24.3-30.3
		c5.2-5.8,10.4-11.7,15.4-17.7c3.9-4.6,7.6-9.3,11.4-14c0.4-0.5,0.7-1,1.2-1.4c10.4-8.3,18.5-19,27.8-28.4
		c5.1-5.1,10.7-9.7,16.8-13.7c6-4,12.1-7.9,17.6-12.7c2.7-2.4,5.9-4,8.7-5.8c1.8,0.9,1.9,2.1,1.5,3.3c-1.1,3.4-2.1,6.9-3.6,10.2
		c-8.4,19.7-14.8,40.1-25.2,59c-4.5,8.2-8.6,16.6-13.7,24.5c-4.4,6.8-8.3,14-12.1,21.2c-5.8,11-13.1,21-20.5,30.9
		c-8.4,11.4-16.2,23.2-24.6,34.6c-5.4,7.3-11,14.3-17.2,20.9c-7.9,8.3-15.5,16.9-23.6,24.9C1157.2,357.9,1150,363.8,1141.3,367.7z
		 M1217.3,306c-0.2,0.2-0.3,0.4-0.5,0.6c0.1-0.2,0.1-0.4,0.2-0.5C1217.1,306.1,1217.2,306.1,1217.3,306z M1419.2,299.9
		c-10.6,5-21.7,9-32.6,13.3c-12.4,4.8-24.7,9.5-37.2,13.9c-13.3,4.7-26.6,9.4-40.6,12.3c-14.4,3-28.6,7.3-42.9,10.6
		c-13.2,3.1-26.2,6.7-39.6,8.7c-5.3,0.8-10.6,2.4-15.9,3.3c-7.7,1.3-15.4,2.4-23.2,3.4c-6.3,0.8-12.6,1.4-18.8,2
		c-2.4,0.2-4.7,0.5-7.1-0.2c0.3-0.8,0.4-1.5,0.7-1.8c9.6-7.9,18.1-16.9,26.4-26c8-8.8,17.3-15.6,27.7-21.3
		c21.7-11.9,44.7-20.9,67.5-30.3c9.8-4,20-6.7,30.2-9.4c15.7-4.1,31.7-6.9,47.8-9.2c5.4-0.8,10.6-2.1,16-3c13.7-2.2,27.4-4,41.3-4
		c12.4,0.1,24.7-0.2,37.1-0.2c8.1,0,16.3,0.3,24.4,0.5c1.8,0.1,3.5,0.5,4.5,2.8c-2.9,1.8-5.7,3.6-8.5,5.2
		C1457.7,281.2,1438.6,290.9,1419.2,299.9z"/>
	<path class="st0" d="M1963.2,1001.4c-0.3-4.8-0.4-9.6-0.7-14.4c-0.3-3.9-0.8-7.8-1.2-11.7c-0.2-2.4-0.2-4.8-0.5-7.2
		c-1-9-2-17.9-3-26.9c-0.8-7.8-1-15.7-2.4-23.3c-1.9-10.4-1.6-21-2.7-31.5c-0.9-8.1-0.5-16.2-2.1-24.3c-0.8-4.1-1.4-8.3-1.7-12.5
		c-0.8-14.2-3.5-28.1-5.8-42c-1.8-11.3-4.7-22.4-9.4-32.9c-3.8-8.5-7.8-17-12.5-25.1c-6.3-10.8-14.7-19.7-25.6-26.2
		c-5.5-3.3-11.3-5.8-17.1-8.1c-11.5-4.4-23.7-5.6-35.6-3.4c-15.4,2.8-30.5,7-44.5,14.6c-4.3,2.4-8.3,4.9-11.6,8.5
		c-3.6,4-7.1,8.2-10.9,12c-4.3,4.4-7.4,9.4-10,14.9c-1.5,3.3-3.3,6.4-5.1,9.5c-4.8,8.2-11.2,14.1-21.1,15.3
		c-0.9,0.1-1.8,0.1-3.1,0.2c-5.9-2.3-10.3-6.7-13.9-12c-2.8-4.1-4.3-8.5-4.2-13.6c0.2-8.1,0-16.3,0.2-24.4c0.1-4.8,0-9.7,0.8-14.4
		c1.6-10.6,6.1-20.1,11.3-29.3c0.3-0.5,0.7-1,1.1-1.5c7.3-9.8,16.5-17.6,26.7-24c7.1-4.5,14.8-8,22.2-12.1
		c11.2-6.1,23.3-10,35.6-12.7c10.8-2.4,21.8-4,33.1-2.9c4.8,0.5,9.7,0.3,14.5,0c3.9-0.3,7.8-1,11.5-1.9c3.7-0.9,6.3-3.6,7.5-7.2
		c1.8-5.4,1.5-10.7-2.2-15.4c-2.1-2.6-4.5-4.8-7.6-6.3c-9.9-5.2-20-9.7-31.1-12c-5.4-1.1-10.8-1.1-16.1-2.1
		c-7-1.3-13.9-0.3-20.6,1.2c-12.9,2.8-25.8,5.9-38.3,10.4c-1.7,0.6-3.5,1.1-5.2,1.3c-6.8,0.9-11.6-1.8-14.6-8
		c-1.9-3.7-1.9-7.6-0.9-11.5c0.6-2.6,1.5-5.2,2.7-7.7c8.1-16.8,18.9-31.4,34.9-41.7c5.8-3.8,11.7-7.5,17.3-11.5
		c4.9-3.4,6.8-8.2,6.5-14.1c-0.2-3.4-1.7-5.7-4.7-7.1c-3.8-1.8-7.9-3.3-12.2-3c-4.8,0.3-9.6,0.9-14.3,1.7
		c-28.7,5.4-51.4,20.1-67.2,44.8c-6.3,9.8-14,18.1-22.7,25.6c-8.1,7-17.7,11.4-27.8,14.5c-7.2,2.2-14.4,4.4-21.2,7.8
		c-3.2,1.6-6.7,2.7-10.2,3.6c-6.4,1.7-12.9,2.9-19.3,4.6c-12.5,3.4-24.9,7-37.3,10.6c-4.9,1.4-9.7,3.1-14.6,4.8
		c-7.5,2.6-12.7,7.9-16.8,14.4c-2.7,4.2-3.7,8.8-4.4,13.6c0.5,4.8,1.9,9.4,4,13.8c1.6,3.2,2.8,6.7,4.3,9.9c1.9,4,2.4,8,0.8,12.3
		c-0.7,2-1.3,4-1.8,6.1c-1.2,5.3-0.3,10.6,2.7,14.7c5,7.1,12.2,11.7,21.2,12.2c5.7,0.3,11.3-0.2,17-1.6c12-2.9,24-6,35.6-10.1
		c7.8-2.8,15.8-3.9,24-3.1c4,0.4,8,1.2,11.1,3.6c5.2,4.1,10.1,8.7,13.4,14.6c1.8,3.2,2.8,6.6,2.7,10.4c-0.1,2.7-0.1,5.4,0.1,8.1
		c0.4,5.8-0.4,11.4-2.5,16.8c-1.3,3.4-2.4,6.9-2.8,10.4c-1.3,11.1,1.5,20.9,9.7,28.8c3.3,3.1,6.5,6.3,7.9,10.7
		c-0.6,0.9-0.9,1.9-1.6,2.3c-3.1,1.9-6.6,3-10.3,2.3c-3.3-0.6-6.5-1.4-9.7-2c-7.8-1.4-14.9-4.8-22.3-7.3c-8-2.7-16-5.2-24.1-7.6
		c-12.4-3.7-24.6-7.9-37.3-10.7c-15.3-3.4-30.4-3.7-45.4,1.5c-5.8,2-10.9,4.9-15.3,9.2c-2.8,2.7-6,5-9,7.5c-4.4,3.7-9,7.2-12,12.2
		c-3.9,6.5-7.4,13.1-9.7,20.4c-2.5,7.8-3.8,15.8-4.7,23.9c-0.5,4.5-0.9,9-0.6,13.5c0.4,5.4,1.5,10.7,2.3,16.1c2,12.6,7,24.3,11.6,36
		c4.6,11.8,10.3,23.1,15.6,34.6c7.2,15.3,14.5,30.5,21.7,45.7c1.1,2.4,1.8,5.1,2.8,7.6c1.6,4.2,3,8.5,5.2,12.5
		c1.9,3.5,3.4,7,4.6,10.7c2.5,7.7,5.2,15.4,7.9,23.1c1.1,3.1,2.1,6.3,3.1,9.4c1.1,3.8,1.3,7.6,1.1,11.6c-0.3,6.6-3.1,12.2-5.6,18
		c-4.2,10-8.4,20-12.8,29.9c-6.5,14.6-13.1,29.1-19.6,43.7c-1.4,3-2.6,6.1-4,9.1c-3.9,8.2-6.4,16.9-9.8,25.3
		c-4.1,10.1-6.9,20.6-10,30.9c-1.6,5.5-4.2,9.8-8.7,13.3c-7.9,6.2-13.5,14.5-20.3,21.7c-0.6,0.6-0.9,1.6-1.2,2.4
		c-0.2,0.5-0.2,1.2-0.2,1.8c0.7,2.5,2.5,3.2,5.8,2.8c4.7-3.9,9.6-8.8,14.4-13.8c1.9-2,3.7-4,5.8-5.7c2.5-2.2,5.3-2.5,8.4-0.9
		c-0.3,3.7-2.3,6.4-3.7,9.3c-2.8,5.7-5.8,11.3-8.5,17c-1.3,2.7-2.2,5.7-0.1,8.3c2,1.2,3.9,0.8,5.1-0.7c2.1-2.5,4-5.2,5.7-8.1
		c3.6-6.2,7-12.6,10.6-18.9c0.4-0.7,1.3-1.1,2.3-2c1.4,0.8,2.9,1.6,4.6,2.6c-0.4,3.3-0.6,6.3-1.2,9.2c-1.1,5.6-2.4,11.2-3.5,16.8
		c-0.5,2.6-0.9,5.3-1.1,8c-0.2,1.9,1.3,3.8,2.9,4.1c1.6,0.3,3.4-0.7,4.4-2.5c0.6-1,1.1-2.1,1.4-3.3c2.1-8.2,5.2-16,5.9-24.6
		c0.1-1.6,1.3-3.2,2.1-5.1c2.4,0.2,4.4,0.4,6.4,0.6c0.6,1.4,1.3,2.5,1.4,3.6c1,7.1,2.8,14.2,2.6,21.5c-0.1,2.7,0,5.4,0.5,8.1
		c0.2,1.3,1.4,2.4,2,3.4c2.2,0.2,3.6-0.4,4.3-1.9c0.7-1.6,1.5-3.4,1.6-5.1c0.3-6.6,0.6-13.2-0.5-19.8c-1.6-9.9-2.2-19.8,3.7-28.8
		c1.5-2.3,2.3-4.9,3.6-7.3c12-22,21-45.4,30.6-68.4c2-4.7,3.3-9.7,5.5-14.3c5.8-11.9,11.6-23.8,15.5-36.6c0.2-0.6,0.5-1.1,0.7-1.7
		c4-10.7,8.4-21.3,10.5-32.6c1.1-5.9,2.3-11.8,3-17.8c0.9-7.6-1-15-2.5-22.4c-2-10-4.8-19.9-7.2-29.8c-4.9-19.6-9.9-39.1-14.8-58.7
		c-3-12-5.8-24-8.8-36c-1.6-6.6-1.8-13.3-0.5-19.7c1.4-7.3,5.4-9.2,11.6-4.7c0.2,0.2,0.5,0.4,0.7,0.5c10.8,8.3,20.4,17.9,29.5,27.9
		c7.3,8,14,16.6,21.6,24.3c10,10.1,18.6,21.4,27.5,32.4c7.2,9,14.9,17.4,22.7,25.8c5.7,6.2,11.5,12.4,16.5,19.2
		c8.9,12.1,17.4,24.6,25.7,37.1c4.5,6.8,8.3,14,12.1,21.2c3.4,6.4,5.9,13.2,9.3,19.6c4.3,8,4.4,16,2,24.5c-2.5,8.9-6.9,16.7-12.3,24
		c-9.5,12.8-19.5,25.2-30,37.3c-4.7,5.5-9.2,11.2-13.7,16.8c-5.7,7-11.4,14.1-17,21.1c-7.7,9.7-15.9,18.9-22.6,29.3
		c-5.5,8.6-10.9,17.3-17.3,25.4c-0.9,1.2-1.5,2.6-2.4,3.8c-5.2,7.5-8.6,15.9-12.1,24.2c-3.3,7.8-6.7,15.5-9.1,23.6
		c-5.1,17-9,34.4-8.8,52.3c0,1.2,0.1,2.5-0.2,3.6c-2.9,11.2-0.5,22.3,0.9,33.2c2,16.1,5.4,32,8.6,48c3.8,19.2,7.5,38.4,11.9,57.4
		c4.1,17.6,9.1,34.9,14.3,52.2c2.4,8.1,5.2,16.1,8.2,23.9c2.8,7.3,5.4,14.7,6.9,22.8c-1.9,5.1-5.4,7.9-9.9,9.3
		c-3.4,1.1-7,1.7-10.5,2.4c-6.8,1.3-13.7,2.1-20.4,3.8c-11,2.9-17.4,10.1-19.9,23.3c-0.2,1.2-0.3,2.5,0.1,3.6
		c2.2,7.4,5.4,14.1,13,17.5c11.5,5.2,23.6,7.6,36,6.9c12.9-0.8,25.8-1.9,38.4-4.9c7.6-1.8,15.2-3.8,22.6-6.4
		c7.4-2.5,13.4-7.5,16.2-14.9c3.4-9,5.4-18.5,4.5-28.3c-0.5-5.1-1.4-10.1-2.7-15.1c-5-19.8-10.2-39.7-15.4-59.4
		c-4-15.1-8.3-30.2-12.2-45.3c-2.1-8.1-4-16.4-5.9-24.6c-1.8-7.6-3.6-15.2-5-22.9c-1.9-10.1-3.6-20.1-4.9-30.3
		c-0.9-7.2-0.9-14.3,0.7-21.6c1.8-8,5-15.4,8.6-22.7c4.1-8.4,9.3-16.2,14.6-23.9c5.5-7.9,11.5-15.4,17.4-23.1
		c0.1-0.2,0.6-0.1,1.4-0.3c0.2,1.7,0.6,3.4,0.7,5.1c0.2,4.2-0.3,8.5,0.5,12.6c1.2,6.3,1.3,12.6,1.2,18.9
		c-0.1,16.7,4.8,32.1,11.9,46.9c7.1,14.7,16.9,27.8,26.3,41c6.8,9.6,14.3,18.6,21.3,28c6.1,8.2,11.3,17.1,17.5,25.2
		c2.7,3.6,5.6,7.1,7.9,11c6.2,10.8,13.7,20.6,21.1,30.4c6.9,9.2,12.6,19.1,18.4,29c3.9,6.7,3.7,13.9-0.7,20.6c-2,3-4.3,5.7-7.3,7.9
		c-5.9,4.3-12.3,7.6-18.6,11.1c-10.8,6-20.3,13.3-21.2,27.6c2,9.4,8.7,15.1,17.6,18.5c8.9,3.4,18.1,4,27.6,2.3
		c5.9-1,11.7-2.5,17.6-4c13.8-3.6,26.9-8.9,39.3-15.8c9.5-5.2,16.7-12.9,21.7-22.4c2.8-5.3,3.9-11.4,3-17.5
		c-1.4-9.3-5.2-17.9-9.5-26.2c-5.9-11.2-12.4-22.1-17.9-33.5c-8.2-16.9-18.4-32.5-28.8-48c-8.9-13.3-18.1-26.4-26.1-40.2
		c-7.5-13.1-15.3-25.9-24.2-38.2c-3.6-4.9-6.5-10.1-9.6-15.3c-6.4-10.6-7.8-22.1-5.7-34c2.2-13,4.4-26.1,7.5-39
		c2.9-12,4.8-24.2,6.9-36.4c0.4-2.7,1.2-5.3,1.5-8c0.9-10.8,1.5-21.6,2.3-32.5c0.1-1.5,0.1-3,0.3-4.5c0.9-10.5,1.8-21,2.9-31.4
		c0.9-9,2-17.9,3-26.9c0.8-7.5,2.2-15,2-22.4c-0.1-5.1,0-10.2,0.2-15.2c0.5-13.3-1.9-26.4-1.8-39.7c0-1.2-0.5-2.3-0.7-3.5
		c-0.9-6.5-2.1-13.1-2.5-19.6c-0.3-4.6-0.8-9-2.3-13.3c-0.7-2-1.2-4.1-1.5-6.1c-1.9-13.1-4.7-26-6.1-39.2
		c-1.5-13.8-3.4-27.5-3.1-41.4c0.1-3.6,0-7.2-0.1-10.9c-0.1-3.9,0.2-7.9-0.4-11.7c-1.4-9-1.3-18-1.3-27.1c0-5.4,0.7-10.8,1.3-16.2
		c1.2-10.5,2.5-20.9,4.1-31.3c1.5-9.8,3.2-19.6,5.2-29.3c0.8-4.1,2.6-8,3.8-12c2.5-8.4,6.3-16.3,10-24.2c0.8-1.6,1.9-3.1,3-4.5
		c1.6-2,3.7-2.9,6.3-2.9c3.6-0.1,6.5,1.1,8.6,4c1.2,1.7,2.5,3.5,3.3,5.4c3.6,8.6,7.6,17.1,10.4,26c3.4,10.6,7,21.1,9.1,32.1
		c1.6,8.6,4.1,17,5.8,25.5c3.3,16.5,6.5,33.1,9.6,49.6c2.3,12.1,4.4,24.3,6.4,36.4c0.9,5.3,1.6,10.7,2,16.1
		c1.2,15.1-1.6,30-2.2,45.1c0,0.9-0.4,1.8-0.5,2.7c-0.9,8.7-1.8,17.4-2.7,26c-0.4,4.5-0.8,9-1.3,13.5c-0.8,7.2-1.6,14.4-2.4,21.5
		c-0.7,6-1.4,12-2.1,17.9c-1.1,8.7-2.3,17.3-3.4,25.9c-0.2,1.8-0.5,3.6-0.9,5.3c-1.1,5.6-2.2,11.2-3.5,17.7
		c-3.8,5.4-8.2,11.5-12.4,17.8c-4.1,6.2-8.8,12.2-11.9,19.5c1.4,1,2.4,2.4,3.6,2.6c1.3,0.2,3.2-0.3,4.1-1.1c2.8-2.7,5.4-5.7,7.7-8.8
		c3.8-5,7.3-10.3,11-15.4c0.8-1.2,2.1-2,3.5-3.2c1.9,1.3,3.5,2.4,5.4,3.7c-0.7,2.9-1.2,5.5-1.9,8.1c-1.2,4.7-2.7,9.3-3.7,14
		c-0.6,2.6-0.8,5.3-0.8,8c0,2.4,1.6,3.2,5.6,2.9c6.1-9.2,6.7-20.8,11.6-30.8c2.7-0.9,4.9-0.7,6.8,1.5c1.4,2.4,1,5.2,1,7.9
		c0.1,5.1,0.1,10.3,0.2,15.4c0.1,1.8,0.3,3.6,0.8,5.3c0.5,1.9,2.9,3.2,5.5,3.1c1-0.9,2.4-2,3.6-3c2-10.5-2-20.7-0.4-31.3
		c1.6-0.9,3.4-1.9,5.6-3.1c1.4,2.8,2.7,5.2,3.8,7.6c2.8,6.3,5.5,12.7,8.4,19c0.7,1.6,1.8,3.1,3,4.4c0.5,0.6,1.5,0.8,2.7,1.3
		c1.4-0.8,3-1.6,4.2-2.2c0.9-5.6,0.9-5.6-0.8-9.1c-3.8-8.2-7.4-16.5-11.3-24.6c-1.7-3.5-2-6.7-1-10.4c1.9-7.3,3.4-14.7,3-22.3
		c-0.1-1.8,0-3.7,0.4-5.4c1.4-6.2,1.3-12.6,1.6-18.9c0.1-2.7,0.2-5.4,0.5-8.1c0.9-9,2.2-17.9,2.9-26.9c0.9-10.2,1.4-20.4,2-30.6
		c0.1-1.2,0.2-2.4,0.4-3.6c1.8-11.3,2.3-22.8,2.8-34.2c0.6-12.6,0-25.3,1.7-37.9c0.5-3.8,0.1-7.8-0.2-11.7
		C1964,1011.6,1963.5,1006.5,1963.2,1001.4z M1832.7,1214.5c-0.5,4.2-0.7,8.4-1.6,12.5c-1.7,7.7-1.2,15.6-2,23.4
		c-0.9,9.9-1,19.8-1.7,29.7c-0.8,12.3-2.1,24.6-3.9,36.8c-1.8,11.9-4.5,23.6-6.8,35.4c-2.4,12.7-4.8,25.4-7.1,38.1
		c-0.7,3.8-1.5,7.7-1.9,11.5c-1.5,14.1,2.9,26.8,10.3,38.5c3.4,5.3,6.9,10.6,10.6,15.7c7.2,10.1,13.3,20.8,19.2,31.6
		c3.6,6.6,7.6,13,11.7,19.3c5.7,8.9,11.6,17.6,17.5,26.3c3.5,5.3,7.3,10.3,10.5,15.8c5.6,9.6,10.9,19.4,16.3,29.2
		c5.7,10.6,11.4,21.2,16.9,31.9c2.2,4.3,4.3,8.7,5.5,13.3c3.7,14,0.4,26.1-12.6,34.6c-15.5,10.2-32.5,17-50.7,20.8
		c-4.4,0.9-8.9,1.4-13.4,1.8c-5.9,0.6-11.3-1.1-16.6-3.4c-1.3-0.6-2.6-1.6-3.7-2.6c-3.4-3.1-4.1-6.4-2.2-10.6
		c2.4-5.5,6.5-9.3,11.6-12.2c3.9-2.2,8-4.2,12-6.3c5.6-3,10.8-6.5,15.3-11.1c8.7-8.8,10.7-19.2,7.1-30.8c-1.2-3.7-2.9-7.3-4.8-10.7
		c-1.7-3.2-3.8-6.1-5.9-9.1c-7.3-10.3-14.8-20.5-22.1-30.8c-2.9-4.2-5.5-8.7-8.3-12.9c-6.8-10.3-13.5-20.7-20.6-30.8
		c-4.8-6.9-10.2-13.4-15.2-20.2c-8.5-11.3-16.9-22.6-25.3-34.1c-2.3-3.2-4.3-6.6-6.1-10c-4-7.4-8.1-14.8-11.3-22.6
		c-3.4-8.1-5.8-16.4-5.6-25.4c0.1-4.5-0.1-9-0.2-13.6c0-1.8,0.2-3.7-0.2-5.4c-2.4-12.2-1.1-24.6-1.4-36.9c-0.1-4.1,1.5-7.5,4-10.7
		c16.3-21.2,32.6-42.5,48.8-63.9c4.6-6,8.8-12.2,13.1-18.4c5.6-8.2,10.4-16.9,14.4-26c1.6-3.5,3.5-6.9,5.7-11.2
		C1832.4,1213,1832.7,1213.8,1832.7,1214.5z M1954.2,1038.2c-0.1,4.5-0.4,9-1.1,13.5c-0.8,4.7-0.5,9.6-0.5,14.4
		c0.1,13.6-1.4,27.1-3,40.5c-0.2,1.8-0.4,3.6-0.4,5.4c-0.3,12.4-1.6,24.6-3.4,36.8c-0.1,0.9-0.1,1.8-0.2,2.7
		c-0.7,9.9-1.3,19.8-2.2,29.7c-1.1,10.8-2.4,21.5-3.8,32.3c-1.1,8-6.5,11.3-13.9,11.3c-4.5,0-8.9-1.2-13.4-1.9
		c-0.9-0.1-1.7-0.6-2.5-1c-3.3-1.5-4.6-3.7-4-7.2c1.2-7.7,2.6-15.4,3.8-23.1c1.3-8.6,3-17.2,3.3-25.9c0.2-5.7,1.1-11.4,2.1-17
		c1.4-7.7,2.6-15.4,3.2-23.2c0.6-7.2,1.7-14.3,2.6-21.5c0.3-2.4,0.4-4.8,0.6-7.2c0.5-4.8,1.3-9.6,1.4-14.4
		c0.3-12.3,2.9-24.6,1.9-36.9c-0.8-10.8-2.2-21.6-4.1-32.2c-4.3-24.3-8.7-48.6-13.8-72.7c-4.5-21.2-8.9-42.5-16.2-62.9
		c-3-8.5-6.6-16.8-9.9-25.2c-1.7-4.3-4.7-7.8-7.8-11c-7-7.2-19.9-6.5-26.8,1.2c-1.2,1.3-2.3,2.8-3.1,4.4
		c-4.4,8.6-8.3,17.3-11.8,26.4c-5.5,14.5-7.6,29.7-10.2,44.8c-2.1,12.1-2.6,24.5-4.4,36.7c-1,6.9-2,13.8-1,20.7
		c1.1,7.8,1.1,15.6,1.4,23.4c0.1,3.6,0.1,7.2,0.1,10.9c-0.2,14.8,1.6,29.4,2.9,44.1c1.3,14.4,3.9,28.6,6.4,42.8
		c1.8,10.7,3.6,21.4,4.4,32.2c0.9,13.5,1.8,27.1-0.5,40.6c-0.8,4.7-1.4,9.5-2.1,14.3c-1.7,12-6.1,23.1-11,34.2
		c-8.6,19.6-22.1,35.8-34.5,52.8c-4.4,6.1-8.8,12.2-13.4,18.2c-6,7.9-12.2,15.7-18.2,23.7c-8.1,10.8-16.1,21.8-24.2,32.7
		c-3,4.1-6,8.3-9.2,12.3c-8.5,11-16,22.6-23.2,34.5c-6.1,10.1-10.5,20.9-12.5,32.7c-1,6-1.1,12-0.7,18c0.6,7.8,2.1,15.5,3,23.2
		c1.7,13.5,4.8,26.7,8,39.8c4.2,17.2,8.5,34.5,13,51.7c5.2,19.8,10.6,39.5,16.1,59.3c3.5,12.5,6,25.2,5.1,38.3
		c-0.2,3.4-0.8,6.5-2.1,9.7c-2.4,5.9-6.2,10.4-12.4,12.2c-6.9,2.1-13.9,4.1-20.9,5.7c-9.1,2-18.4,2.9-27.6,4.2
		c-8.6,1.2-16.8-0.3-25.2-0.6c-2.7-0.1-5.3-1-7.9-1.9c-6-2.1-10.6-5.7-12.2-12.3c0.7-8.6,5.8-13.5,13.8-15.9
		c4.3-1.3,8.6-2.6,13.2-2.7c7.6-0.1,14.8-2.4,21.9-5.2c6.6-2.6,9.9-7.7,10.4-14.6c0.4-5.7,0.1-11.5-2-17c-1.2-3.1-2.3-6.2-3.5-9.3
		c-3.2-8.2-6.3-16.3-7.7-25c-0.4-2.4-1.3-4.6-2-6.9c-7.1-21.8-13.2-43.8-17.6-66.3c-3.8-19.5-8.3-38.8-11.1-58.5
		c-0.9-6.5-2-13.1-3.8-19.5c-2.3-8.3-1.1-16.8-2.9-25.1c-0.3-1.4-0.4-3.1,0-4.5c1.7-5.9,0.8-12,1.5-18c1.1-10.1,2.3-20.2,4.7-30.2
		c4.2-17.4,11.2-33.7,18.8-49.8c1.2-2.4,2.5-4.8,4-7c7.1-10.5,14.3-20.9,21.3-31.4c7.9-11.8,17.3-22.4,26.2-33.4
		c2.8-3.5,5.5-7.2,8.3-10.7c3.9-4.9,7.9-9.8,11.9-14.7c1.1-1.4,2.5-2.7,3.5-4.2c5.4-8.4,12.5-15.4,18.6-23.3
		c6.1-7.8,12.1-15.8,17.7-24c4.4-6.5,7.4-13.7,9.8-21.3c2.8-9.1,1.9-17.9-1.8-26.4c-3.8-8.5-7.8-17-11.7-25.4
		c-5.5-11.8-12.5-22.7-20.1-33.2c-3.9-5.4-7.9-10.6-11.5-16.2c-6.4-9.9-14.4-18.5-22.2-27.3c-3.6-4.1-7.4-7.9-11.3-11.8
		c-4.1-4-7.5-8.6-11.1-13.1c-8.5-10.6-17.3-20.9-26.2-31.1c-7.9-9.1-16.2-17.9-24.4-26.6c-5.8-6.1-11.7-12.2-17.8-18
		c-4.1-3.9-8.8-7.3-13-11.2c-5.4-5-11.5-6.1-18.3-4.4c-7.2,5-9.6,11.9-9.8,20.4c-0.2,11,1.5,21.5,4.3,32.1
		c2.5,9.3,4.5,18.7,6.8,28.1c3.1,12.6,6.2,25.1,9.3,37.7c1.3,5.3,2.4,10.5,3.8,15.8c1.7,6.7,2.5,13.6,4.8,20.1
		c1.9,5.3,2.7,11.1,3.6,16.7c0.9,5.4,0.5,10.7-0.3,16.2c-2,13.8-6.6,26.8-11.3,39.9c-4.9,13.7-10.4,27-16.8,40
		c-2.1,4.3-3.3,9-5.2,13.5c-5.9,14.2-11.5,28.5-17.8,42.5c-6.4,14-13.5,27.6-20.5,41.3c-0.8,1.5-2.1,2.8-3.3,4.4
		c-10.8-1.2-20.5-4.6-29.6-10.8c0.6-4.2,1.7-7.9,3-11.5c4.7-13,9-26.2,14-39.1c3.5-9,7.8-17.6,11.7-26.4c0.6-1.4,1.4-2.7,2-4.1
		c7.7-18,15.4-36,23.2-54c2.7-6.4,5.6-12.6,8.3-19c3.7-8.9,4.3-18.1,1.3-27.4c-0.8-2.6-1.4-5.2-2.3-7.8c-3.2-9.4-6.5-18.8-9.8-28.2
		c-0.6-1.7-1-3.6-2-5c-4.1-6.1-5.7-13.3-8.4-19.9c-3.7-8.9-7.9-17.6-12-26.3c-8.9-19.1-18.2-38-26.7-57.3
		c-6.6-14.9-11.5-30.5-13.2-46.8c-0.6-6-0.7-12,0.6-18c1.1-5.3,1.7-10.7,2.9-16c1.8-7.7,5.7-14.6,9.4-21.5c0.6-1.1,1.3-2.1,2.1-2.9
		c9.4-9.9,19-19.3,33.2-22.2c6.5-1.3,12.9-3.3,19.6-2.6c5.1,0.6,10.1,1.7,15.1,2.5c7.5,1.2,14.6,3.6,21.7,5.9
		c14,4.5,28.3,8.4,42.1,13.6c8,3,16.1,4.8,24.2,7.3c5.9,1.9,12,1.6,17.9,0.9c5-0.6,8.8-3.7,11.6-7.9c1.9-2.9,2.5-6.3,1-9.5
		c-1.4-3-3.1-5.9-5-8.5c-2-2.6-4.4-4.9-6.8-7.3c-3.6-3.6-5.4-7.9-5.5-13c-0.2-4.2,0.1-8.4,1.5-12.5c1.2-3.4,2-6.9,3-10.4
		c0.4-1.4,0.9-2.9,0.9-4.4c-0.1-6.9-0.1-13.8-0.7-20.6c-0.4-4.8-2.5-9.2-5.4-13.2c-3.6-4.9-7.9-9.1-12.4-13.1
		c-1.1-1-2.4-1.9-3.8-2.5c-8.7-3.7-17.5-5.8-27.2-4.1c-8.7,1.6-16.8,4.8-25.2,7c-9.6,2.6-19.2,5-28.8,7.6
		c-7.2,1.9-13.7,0.5-19.8-3.5c-3.3-2.2-5.1-5.1-4.9-9.1c0.1-2.4,0.6-4.8,1.1-7.1c1.8-7.6,1.6-14.9-2.1-22c-1.9-3.7-3.3-7.7-5-11.6
		c-2-4.5-1.6-8.8,0.7-13c3.4-6.3,7.7-11.4,15.1-13.3c7.6-1.9,15-4.4,22.5-6.7c7.8-2.3,15.5-4.8,23.3-7c3.5-1,7-1.5,10.6-2.3
		c7.3-1.7,14.7-3.2,21.5-6.5c7.3-3.6,15-6.2,22.9-8.3c18.6-5.1,33.5-16.1,45.9-30.7c2.9-3.4,5.3-7.3,7.8-11.1
		c13.6-20.8,31.8-35.2,56.3-40.8c5.3-1.2,10.7-1.8,16-2.6c3-0.4,6,0,8.4,1.4c0.8,2,0,3.4-1.2,4.2c-3.4,2.5-6.8,4.9-10.5,7
		c-23.2,13.7-39.7,32.9-49,58.2c-2.2,6.1-2.1,12.4,0.2,18.6c3.9,10.4,14.6,18.6,28.2,15.3c2-0.5,4.1-1.1,6.1-1.7
		c8.1-2.5,16-5.3,24.2-7.5c6.1-1.6,12.2-3.2,18.6-3.1c0.9,0,1.8,0.1,2.7-0.1c14.9-2.5,28.6,2,41.9,7.8c4.1,1.8,7.9,4.4,11.7,6.7
		c1,0.6,1.8,1.6,2.5,2.5c0.5,0.7,0.6,1.6,1.1,2.9c-1.1,0.8-2,1.9-3.3,2.6c-2.7,1.5-5.8,1.4-8.8,1.4c-8.4,0-16.9-0.1-25.3,0
		c-10.6,0.1-20.9,2.4-31.1,5c-13.8,3.5-26.7,9.5-39.2,16.1c-8.8,4.7-17.5,9.5-25,16.1c-8.1,7.2-16.4,14.2-21.6,24.1
		c-6.5,12.4-11.9,25-11.5,39.4c0.1,3-0.4,6-0.7,9c-0.1,1.2-0.3,2.4-0.3,3.6c0.2,6.3,0.9,12.6,0.6,18.9c-0.4,10.2,4.3,18,10.7,25.1
		c2.8,3.1,6.3,5.7,9.8,7.9c3.9,2.4,8.3,3.1,13,2.3c10.7-1.7,19.1-7.2,25.2-16c2.9-4.2,5.7-8.6,7.8-13.2
		c4.7-10.4,12.3-18.5,20.2-26.3c3-3,6.8-4.9,10.5-7c13.6-7.7,28.5-11.4,43.6-14c3.5-0.6,7.3-0.7,10.8-0.1c12,2,23.5,6,33.6,12.7
		c8.1,5.4,14.6,12.8,19.3,21.2c8.4,15,15.9,30.5,19.4,47.5c1.7,8.5,3.2,17.2,4.4,25.8c1.9,13.1,3.6,26.2,5,39.4
		c1,8.7,1.9,17.4,1.9,26.1c0,10,1.5,19.8,2.7,29.7c1.3,9.8,2.6,19.7,3.1,29.6c0.2,4.2,1.2,8.3,1.6,12.5c0.9,9.3,1.3,18.6,2.4,27.9
		C1954.6,1008.1,1954.5,1023.2,1954.2,1038.2z"/>
	<path class="st0" d="M570,613.8c-1.1,0.4-2.1,1.2-2.9,2c-2.1,2.2-3.9,4.6-6,6.7c-3.1,3.2-6.4,6.3-9.7,9.4c-1.7,1.7-3.7,3.1-5.4,4.8
		c-6.1,6-13.3,10.3-21.2,13.4c-6.7,2.6-13.3,5.7-19.9,8.6c-7.7,3.4-13.5,8.9-17.4,16.4c-3.5,6.7-7.1,13.3-10.9,19.8
		c-5.8,9.9-11.1,20-15.4,30.7c-3.9,9.5-8.4,18.7-15.3,26.5c-1,1.1-1.9,2.4-2.7,3.6c-5.4,8.2-8.7,17.1-8.4,27.1
		c0.2,6.9-0.2,13.9-0.1,20.8c0,3.4-0.9,6.5-2.4,9.6c-1.3,2.7-2.8,5.3-4.1,8c-3.5,7-7.1,14.1-8.7,21.8c-2.6,12-5.9,24-6.8,36.3
		c-0.2,3-1,6-1.9,8.8c-5.4,15.4-11.9,30.3-20.1,44.4c-1.7,2.9-3.5,5.6-4,9c-0.1,0.5,0.2,1.1,0.4,2.2c1.1,0.7,2.6,1.6,3.9,2.4
		c3.9-2.2,4.6-6,6.6-8.9c10.3-14.7,16.9-31.2,22.7-48c0.7-2,1-4.1,1.3-6.2c1.2-11.1,3.8-21.9,5.9-32.8c0.7-3.8,2-7.6,3.5-11.2
		c2.4-5.8,4.9-11.7,7.8-17.3c4.2-7.9,6.5-16.1,6.2-25.1c-0.2-5.4,0.1-10.8,0-16.3c0-3.1,0.6-5.9,1.4-8.9c1.5-5.4,4.4-9.9,8-14
		c5.8-6.7,10.1-14.1,13.5-22.3c3.8-9.2,8.1-18.1,12.6-27c3.3-6.7,7.1-13.2,10.8-19.8c2.4-4.2,4.9-8.3,7.4-12.4c2.4-4,6-6.7,10.3-8.5
		c6.1-2.6,12.3-5,18.3-7.6c3.6-1.6,7.2-3.1,10.6-5.1c13.4-7.9,24.2-18.8,34.4-30.4c1-1.1,1.7-2.5,2.4-3.8c0.4-0.8,0.8-1.8,0.7-2.6
		c-0.1-1.1-0.5-2.4-1.1-3.3C573.1,613.3,571.4,613.3,570,613.8z"/>
	<path class="st0" d="M566.2,656.4c-0.7-0.5-1.6-0.7-2.6-1.1c-8.5,2.6-15.4,8.1-22.4,13.2c-9.7,7.1-16.8,16.1-20,28.1
		c-2,7.5-2.6,14.7-0.9,22.2c3,12.7,3.1,13.8,0.4,24c-1.3,4.9-3.6,9.6-5.6,14.3c-2.3,5.6-5.1,10.9-7,16.6
		c-3.5,10.3-5.6,20.7-3.8,31.8c0.9,5.8,2.3,11.1,4.8,16.3c1.1,2.2,2.2,4.3,2.8,6.7c2,7.8,7.3,13.1,13.1,17.9
		c4.7,3.9,10.6,5.6,16.3,7.5c3.6,1.2,6.2-1.1,6.6-5.2c0.1-0.9-0.3-1.7-0.7-3.6c-3.5-1.7-6.6-3.4-9.9-4.7c-7.2-2.8-11.8-8.1-14.7-15
		c-1.2-2.8-2-5.8-3.4-8.3c-3.3-5.7-4-11.9-4.1-18.3c-0.1-10.8,2.5-20.8,7-30.5c2-4.4,4.1-8.7,6-13.1c5.1-11.9,7.2-24.2,3.1-36.9
		c-0.3-0.9-0.6-1.7-0.8-2.6c-2.3-9.7,0.6-18.6,5.2-26.8c2.3-4.1,5.5-7.8,9.6-10.6c5.7-3.9,11.3-8,16.9-12c1.5-1,3-2.1,4.3-3.3
		C568.2,661.1,568.7,658.2,566.2,656.4z"/>
	<path class="st0" d="M486.2,955c1-3.8,1.6-7.6,2.3-11.5c2.7-15.2,6.5-29.9,14-43.6c5.7-10.5,13.2-18.5,24.8-22.3
		c1.9-0.6,3.8-1.6,5.2-2.2c1.1-2.7-0.2-4-1.6-5.2c-1.5-1.2-3.4-1.5-5.1-0.8c-5,2-10,4.1-14.9,6.5c-2.4,1.2-4.6,3-6.3,5
		c-3.1,3.6-6.2,7.4-8.7,11.5c-8,13.2-13.4,27.5-16.1,42.8c-1.1,6.2-2.4,12.4-3.8,18.5c-0.9,4.1-2.6,7.9-4.7,11.7
		c-3.4,6-6.6,12.2-9.6,18.4c-4.2,8.8-6.1,18.3-7.4,27.8c-0.8,5.6,0,11.4-1.4,17c-0.6,2.4,0.2,4.8,2.2,6.5c1.4,1.2,3.5,1.2,5,0.1
		c1.5-1.2,2.5-2.7,2.6-4.6c0.2-3.3,0.3-6.6,0.5-9.9c0.2-3,0.2-6,0.8-9c2.2-11.2,5.2-22.3,11.2-32.2c1.6-2.6,2.7-5.4,4.4-7.9
		C483,966.6,484.7,960.9,486.2,955z"/>
	<path class="st0" d="M423,1101.9c-1.7,7.1-1.3,14.4-1.4,21.6c0,2.4,0.4,4.8,1,7.1c1,4.1,2.2,8.1,3.4,12.2
		c1.6,5.2,3.6,10.2,6.6,14.8c1.6,2.5,3,5.3,4,8.1c3.5,9.3,6.7,18.7,10.3,28c1.4,3.7,2,7.5,2.3,11.4c0.6,9.3,1.4,18.6,2.2,27.9
		c0.3,3.3,1.1,6.5,1.6,9.3c1.8,2.3,3.7,2.9,5.9,1.8c1.8-0.9,2.3-2.6,2.4-4.5c0-0.3,0-0.6,0-0.9c0.8-13-2.3-25.8-2.3-38.7
		c0-0.9-0.4-1.8-0.7-2.6c-1.4-4.6-2.5-9.3-4.2-13.8c-3.4-9.3-5.9-19.1-11.1-27.6c-4.8-7.8-7.5-16.4-10.3-25
		c-2.1-6.5-2.8-13.1-1.6-19.6c1.5-8.3,0-16.9,3-25c0.7-1.8-0.6-2.9-4.1-3.7c-3.7,3.5-6.6,7.5-6.6,13.1
		C423.4,1097.7,423.4,1099.9,423,1101.9z"/>
	<path class="st0" d="M531.6,893.9c-4.9,6.1-9.8,12.1-14.6,18.3c-1.1,1.4-1.9,3.1-2.5,4.8c-2.6,7-5.3,14.1-7.6,21.2
		c-1.6,4.8-2.8,9.8-3.8,14.8c-2.1,11.1-6.4,21.1-13.7,29.9c-2.5,2.9-4.3,6.6-5.6,10.2c-3.6,9.6-4.5,19.8-5.3,30
		c-0.2,2.6,1.1,4.7,3.5,5.8c2.2,1,4.1,0.4,5.9-1.9c0.2-1.3,0.8-3.1,0.7-4.8c-0.3-7.7,1.6-14.9,3.7-22.1c1-3.5,2.4-6.8,4.5-9.8
		c1.7-2.5,3.4-5,5.2-7.3c3.2-4.1,5.7-8.4,7-13.5c1-3.8,2.1-7.5,3.1-11.3c2.3-9.3,4-18.8,8-27.7c0.7-1.6,1-3.4,1.4-5.2
		c1-5.2,3.5-9.5,6.6-13.7c2.7-3.6,5.4-7.2,7.8-11c0.9-1.4,1.2-3.3,1.9-5.1c-1.3-1.1-2.4-2-3.6-3.1
		C532.6,893.3,531.9,893.5,531.6,893.9z"/>
	<path class="st0" d="M456.4,939.2c2.3-11.5,4.3-23.1,9.2-33.9c0.6-1.4,1-2.8,1.4-4.3c1.5-5.6,4.1-10.7,6.9-15.7
		c5.1-8.9,10.2-17.8,17.9-24.8c1.6-1.4,2.9-3.1,4.2-4.8c0.6-0.7,0.9-1.5,1.3-2.4c1-2.3-1.2-5.2-3.7-4.7c-1.4,0.3-3.1,0.7-4.1,1.7
		c-6,6.3-12.8,11.9-17.4,19.5c-2.7,4.4-5.4,8.7-7.8,13.2c-2.9,5.3-5.6,10.7-7,16.6c-0.8,3.5-2.6,6.8-3.7,10.2
		c-1.5,4.6-3.2,9.1-4.3,13.8c-1.4,5.8-2.2,11.8-3.3,17.7c-0.2,1.2-0.4,2.4-0.4,3.6c0.1,6.1-1.5,11.9-3,17.7c-0.5,1.7-0.8,3.5-1,4.4
		c-0.2,3.4,1,5.3,3,5.9c2,0.7,4.2-0.2,5.4-2.2c0.7-1.3,1.5-2.7,1.9-4.1c1.8-7.3,4.3-14.5,4.2-22.1C455.8,942.8,456,941,456.4,939.2z
		"/>
	<path class="st0" d="M558.7,717.9c-1-5.7-1.8-11.3-1.8-17c0-1.2-0.1-2.5-0.7-3.5c-0.5-0.9-1.6-1.8-2.6-2.1
		c-1.5-0.5-3.1,0.1-3.9,1.5c-0.6,1-1.1,2.2-1.2,3.3c-0.2,3.6-0.6,7.2-0.3,10.8c0.8,9.3,1.9,18.5,2.8,27.8c0.8,7.8,2.2,15.6,1.9,23.3
		c-0.4,9.6-2.2,19.1-5.3,28.3c-2.5,7.4-4.3,14.9-6.4,22.2c2.4,3.9,5.3,4.4,8.7,2.8c2.6-2.5,3.3-5.8,4.3-8.9
		c3.5-10.9,6.9-21.7,8.9-33.1c1.1-6.6,1.5-13.2,0.7-19.7C562.5,741.6,560.8,729.7,558.7,717.9z"/>
	<path class="st0" d="M640.3,618.7c0.7-2.3-1.1-6.3-4.4-5.2c-3.8,1.4-7.5,3-12.3,1.2c-0.7-1-1.6-1.9-2.2-2.9c-2.6-4.5-6-8.2-10.5-11
		c-3.9-2.4-6.9-5.9-9.4-9.6c-3.9-5.7-5.7-11.9-2.4-18.7c0.8-1.6,1.3-3.4,2.1-5c3.4-7.1,8.2-11.9,16.9-10.3c0.9,0.2,1.8,0.3,2.8,0.5
		c2.3,1.7,4.7,3.4,7.4,5.3c1.1-1,2.2-1.6,2.7-2.5c1.1-2.4,0.7-4.9-1.2-6.7c-3-3-6.5-5.5-11.1-5.3c-2.7,0.1-5.4,0-8.1,0.3
		c-5,0.5-9.1,2.8-12.2,6.8c-3.9,5.1-6.6,10.7-8.6,16.8c-1.4,4.4-1.4,8.7-0.7,13.3c1.3,8,6,14,11.5,18.9c5.4,4.8,11.3,8.9,14.9,15.4
		c0.1,0.3,0.4,0.5,0.6,0.7c5.5,5.9,14.8,6.8,21.3,1.8C638.6,621.7,639.2,620.3,640.3,618.7z"/>
	<path class="st0" d="M704.2,646.3c1.2-2.3,0.8-3.9-0.9-5.1c-2.1-1.6-4.4-1.7-6.9-0.8c-8.8,3.1-17.7,5.7-26.3,9.3
		c-7.8,3.2-13.1,9.3-15.9,17.5c-1.1,3.1-2.5,6.1-3.5,9.3c-1.7,5.8-2.2,11.7-0.6,17c2.2,1.9,3.9,1.7,5.6,0.8c1.8-1,2.5-2.7,2.5-4.5
		c-0.2-6.8,2.3-12.9,4.4-19.2c2.1-6.4,6.4-10.7,12.4-13.5c1.9-0.9,3.9-1.6,5.9-2.3C688.6,651.9,696.2,649.2,704.2,646.3z"/>
	<path class="st0" d="M669.3,637.5c2.1-0.4,4.2-0.6,6.3-0.7c3.9-0.2,7.6-1.3,11.1-2.5c0.4-4.3-0.4-5.7-3.4-6
		c-8.2-0.8-16.1,0.5-23.9,2.8c-7.5,2.2-13.6,6.5-18.1,12.6c-3.4,4.5-6.3,9.5-8.9,14.5c-2.3,4.3-3.1,9.1-2.4,14
		c0.2,1.9,1.1,3.5,3,4.2c1.9,0.7,3.5,0.2,5.2-1.8c0.4-2.7,0.3-6.2,1.4-9.2C644.6,651.1,653.2,640.3,669.3,637.5z"/>
	<path class="st0" d="M708.9,656.2c-7.1,2.1-12.7,6.6-18,11.5c-8.4,7.6-11.7,17.2-10.4,28.4c0.4,3.2,1.5,5.1,3.7,5.6
		c2.3,0.5,4.1-0.5,5.4-2.3c0.5-0.7,0.8-1.6,1.3-2.8c-3.6-8.1-0.5-14.9,5.1-21.1c2-2.2,4.3-4.2,6.5-6.1c4.2-3.5,9.2-5.6,14.2-7.6
		c0.5-0.2,0.8-0.8,1.6-1.6c-0.1-1-0.2-2.4-0.4-4C714,654.7,711.5,655.4,708.9,656.2z"/>
	<path class="st0" d="M665.1,575.4c2.3,0.3,4.6,1.3,6.8,2.3c1.9,0.9,3.5,2.3,5.4,3.3c1.3,0.7,2.7,1.5,4.1,1.7c1,0.1,2.4-0.4,3.3-1
		c1.4-1,1.2-2.6,0.7-4.1c-0.2-0.6-0.4-1.2-0.9-1.6c-5.5-4.8-11.2-9.1-18.9-9.7c-3-0.2-5.9-0.8-8.9-1.1c-2.4-0.2-4.8-0.3-7.2-0.3
		c-1.8,0-3.8,0.5-4.6,2.3c-0.6,1.5-0.4,3.3-0.5,5.2c1.8,0.7,2.3,1.1,2.9,1.1C653.2,574.1,659.2,574.6,665.1,575.4z"/>
	<path class="st0" d="M657.9,619.8c3.6-2.7,7.6-3.3,11.9-3.3c2,0,4-0.6,6.1-1c0.3-1.6,0.7-2.7,0.7-3.8c0-0.8-0.5-1.6-1.1-3.2
		c-2.9-0.2-5.3-0.4-7.7-0.5c-1.8,0-3.6,0-5.4,0.2c-3.4,0.3-6.3,1.9-8.8,4.2c-1.8,1.6-3.3,3.5-2.8,6.3
		C652.8,621.3,655.5,621.6,657.9,619.8z"/>
	<path class="st0" d="M663.6,595.3c2.1,0.1,4.2-0.1,6.3-0.3c1.8-0.2,2.3-1.8,2-4.9c-5.7-2.9-7.2-3.3-11.9-3.3
		c-3.4,0-6.6,0.8-9.5,2.3c-2.4,1.2-4.6,2.8-5.6,6.1c0.7,0.9,1.4,2.4,2.5,3.2c1.6,1.1,3.6,0.7,5.1-0.3
		C655.9,595.5,659.7,595.2,663.6,595.3z"/>
	<path class="st0" d="M317.3,1008.9c-3-6.9-5.4-14.1-5.9-21.7c-0.6-9.4,0.1-18.7,1.8-27.9c2.5-13.3,5.4-26.5,8-39.8
		c0.1-0.5-0.2-1.2-0.4-2.1c-0.8-0.4-1.7-0.9-3-1.6c-1.1,1.3-2.3,2.3-2.8,3.6c-1.4,3.6-2.7,7.3-3.7,11.1c-2.4,9.3-4.7,18.7-6.7,28.1
		c-1,4.7-2,9.5-2,14.3c-0.1,26-1.9,16.8,6.2,41.5c0.1,0.3,0.2,0.6,0.3,0.8c2.5,6.2,2.6,12.9,3.8,19.4c0.4,2,0.1,4.2-0.4,6.3
		c-2,8.2-4.6,16.3-9.5,23.3c-5.6,8.1-8.6,17.3-10.8,26.7c-1.8,7.9-1.8,16.3-0.4,24.3c1.5,8.6,4.7,16.8,9.4,24.3
		c1.3,2,3.2,3.5,4.9,5.1c0.4,0.3,1.1,0.3,1.9,0.4c0.7-0.3,1.6-0.6,2.2-1.2c0.8-0.8,1.4-1.9,2.7-3.7c-1.5-3.1-2.8-5.8-4.2-8.5
		c-3.4-6.5-6.1-13.3-6.8-20.5c-1.6-14.8,1.5-28.8,10-41.3c4.3-6.3,7.3-13.2,9-20.6c1.2-4.9,3.2-9.9,2.3-15.1
		C321.9,1025.7,320.9,1017.1,317.3,1008.9z"/>
	<path class="st0" d="M369.9,1445.6c-4.3-1.1-8.7-2.4-13.1-2.8c-7.6-0.8-14.9,1.3-22.3,2.7c-10.4,2-19.1,7-27.4,13.1
		c-2.7,2-5.3,4-7.8,6.1c-6.4,5.5-12.5,11.2-16.4,18.9c-6.1,11.8-14.2,22.3-22.5,32.6c-4.7,5.9-9.8,11.3-15.8,16
		c-9.9,7.9-11.3,10.2-15.8,22.4c-0.4,1.1-0.3,2.3-0.5,3.8c1.6,0.9,3.1,1.7,4.1,2.3c3.9-1,5.7-3.8,6.7-6.4c2.3-6.3,7.2-10.1,12-14.2
		c4.1-3.5,8.3-7,11.8-11.1c10.8-12.9,21.4-26,29.1-41.1c1.5-2.9,3.5-5.7,5.8-7.9c4.3-4.2,9.1-7.9,13.6-11.8
		c12.4-10.7,26.9-15.6,43.1-15.4c5.4,0.1,10.8,0,16.3,0c1.8-1.7,2.1-3.2,1.4-4.6C371.9,1447,370.9,1445.8,369.9,1445.6z"/>
	<path class="st0" d="M345.2,1484.2c-4.2-0.6-8.4-0.3-12.5,0.8c-8,2.1-15.1,5.8-21.8,10.6c-7,5-12.9,10.8-16.8,18.6
		c-3,6-7,11.2-11.2,16.3c-5.2,6.3-11.5,11.5-18.1,16.2c-5.8,4.2-9.8,9.8-12.7,16.2c-1.4,3-2.4,6.1-3.7,9.3c0.3,1.1,0.3,1.5,0.4,1.7
		c2.4,4.3,5.8,4.8,8.1,1.2c1.3-2,2.3-4.2,3.2-6.5c2.6-6.3,6.4-11.5,12.1-15.4c6.2-4.3,11.7-9.3,16.8-15c5.3-5.9,9.9-12.1,13.5-19.1
		c1.2-2.4,2.7-4.7,4.5-6.7c9.7-10.9,21.1-18.9,36.2-20c2.2-0.2,4.1-0.9,5.4-2.9C348.2,1485.6,347.6,1484.5,345.2,1484.2z"/>
	<path class="st0" d="M417.6,1363.8c-2.3-4.7-3.2-9.5-2.2-14.8c0.7-3.7,1.7-7.7-0.1-11.8c-0.9-0.4-2-0.9-3-1.3c-1,0.7-1.9,1-2.4,1.7
		c-4.9,8.2-6.2,17-3,25.9c2.2,6.2,5.2,12.1,8.1,18.1c2.5,5.1,5.4,10,4.8,16.1c-0.2,2.3,1.5,3.8,4.2,4c5.1-1.9,5-6.8,6.2-11
		c-1.2-4.9-3-9.2-5.5-13.4C422.1,1373.1,419.9,1368.4,417.6,1363.8z"/>
	<path class="st0" d="M265.8,1599c0.2-1.7-0.2-3.5-0.3-5c-4-1.5-5.5-1.4-6.6,0.5c-0.8,1.6-1.6,3.3-1.8,5c-1,8.2-0.6,16.2,4.1,23.5
		c2.6,4.1,4.9,8.3,7.6,12.3c2.4,3.7,5.8,5.1,10.4,3.4c1.7-2.6,1.4-4.6,0.1-6.5c-2.3-3.5-4.6-7.1-7.1-10.4
		C267,1615.1,264.7,1607.6,265.8,1599z"/>
	<path class="st0" d="M548.1,1466c3.7-2,7.5-3.8,11.9-4c1.5-0.1,2.9-0.5,4.5-0.8c2-3.2,0.9-4.8-0.9-6.2c-2-1.6-4.6-1.9-6.9-1.4
		c-9.6,2.2-18.2,5.9-23.7,14.9c-5.5,9.1-8.9,19-12.5,28.9c-2.1,5.7-3.1,11.6-2.9,17.7c0.2,6,0.3,12.1-0.1,18.1
		c-0.7,10.9,0.7,21.7,2.5,32.3c0.9,5.3,0.8,10.1-0.8,15.1c-3.1,9.5-3.9,19.4-5.1,29.2c-0.6,5.1-0.2,10.2-0.3,15.3
		c0,2.5,0.5,4.8,1.9,6.9c1.2,1.8,3.4,2.6,5.5,1.9c1.7-0.6,3-2.4,2.8-4.2c-0.1-1.2-0.5-2.4-0.6-3.5c-0.2-4.2-0.9-8.5-0.2-12.6
		c1.3-8,1.8-16.1,4.1-24c3.2-10.8,3.7-21.8,1.2-33c-1.5-6.7-2.6-13.6-0.9-20.5c0.5-2,0.1-4.2,0.1-6.3c0-6-0.1-12,0-18.1
		c0-2.7,0.1-5.5,0.8-8.1c3-10.4,6.9-20.5,11.9-30.2C542.4,1470.2,544.9,1467.7,548.1,1466z"/>
	<path class="st0" d="M546.4,1512.5c-4,11.5-5.7,23.4-4.5,35.5c0.8,7.7,2.6,15.4,3.8,23.1c1.1,6.9,1.2,13.8,0.1,20.6
		c-1.3,8-3,15.9-4.2,23.9c-0.4,2.9-0.2,6,0.1,9c0.2,2.2,2,3.7,4.2,4c3,0.3,5.5-1.4,5.4-4.6c-0.1-10,2.6-19.6,3.6-29.4
		c1.1-10.7,1.5-21.6-1.3-32.3c-1.1-4-1.8-8.3-2-12.4c-0.3-7.5-0.3-15,0-22.6c0.2-7.3,2.1-14.2,6.4-20.3c1.6-2.2,2.9-4.5,4.5-7.1
		c-1.1-1.1-2-2.1-3.3-3.5C552.5,1501.8,548.5,1506.5,546.4,1512.5z"/>
	<path class="st0" d="M525.5,1289.4c2.8,5,6.7,9.1,11.3,12.7c4.5,3.5,8.3,7.9,12.5,11.7c6.4,5.7,10,12.6,10.1,21.2
		c0,0.3,0.3,0.5,0.4,0.9c1.9,2,4.2,1.8,7.4,0.4c1.8-7.6,1.7-14.7-3.2-20.8c-5.5-6.8-11-13.7-18.2-18.6c-7.7-5.2-13.2-12.3-17.3-20.4
		c-4.9-9.6-10.3-19-13.4-29.6c-1.1-3.6-2.6-7.3-5.4-9.9c-2.2,0.4-3.1,1.6-3.1,3.2c0,2.1,0.2,4.2,0.7,6.2
		C510.7,1261.9,517.9,1275.7,525.5,1289.4z"/>
	<path class="st0" d="M563.6,1638.3c1.3,8.1,4.1,15.7,9.7,21.9c5.5,6,11.9,10.9,18.8,15.2c2.7,1.7,5.5,2.4,8.5,2
		c1.4-0.2,2.9-0.8,3.9-1.7c1.4-1.4,1.3-3.2,0-5.4c-0.6-0.4-1.6-1.2-2.6-1.6c-4-1.4-7.4-3.8-10.8-6.4c-12.3-9.6-15.5-11.8-19.8-29.7
		c-0.1-0.5-0.7-1-1.2-1.8c-1.2,0-2.6,0-5.1,0C564.5,1633.8,563.2,1636.2,563.6,1638.3z"/>
	<path class="st0" d="M545,1341.3c-1.3-0.7-2.7-1.4-4.1-1.9c-8.6-2.7-14.1-8.8-18.2-16.5c-2.4-4.6-3.9-9.4-5.3-14.3
		c-0.7-2.6-1.8-5-3.2-7.4c-0.4-0.7-2.1-1.3-3.1-1.1c-1,0.2-2.2,1.4-2.4,2.3c-0.4,1.7-0.5,3.6-0.1,5.3c0.9,4.4,1.9,8.8,3.2,13.1
		c5.1,15.8,15.7,25.9,31.7,29.8c2.5-0.6,4.1-1.8,4.3-4.3C548.2,1344,547,1342.4,545,1341.3z"/>
	<path class="st0" d="M1915.8,813.9c-0.3-2.7-1-5.3-1.3-8c-2.1-17.4-8.6-32.3-22.3-43.9c-10.8-9.2-23.3-13.8-37.1-14.6
		c-15.7-0.8-28.8,5.8-40,16c-6.2,5.6-11.9,12-16.9,18.7c-9.2,12.3-20.9,21.7-33.5,30c-8.5,5.6-18.2,7.9-28.5,4.5
		c-3.4-1.1-6.8-2.3-10.3-3.2c-1.9-0.5-4-0.4-6.8-0.6c-1.4,3.8-2.7,6.5-3.4,9.4c-1.7,6.4-5.8,10.4-12.1,12.3
		c-1.4,0.4-2.8,1.1-4.3,1.4c-12.8,2.8-25.8,3.4-38.6,1.3c-19.1-3-37.6-8.4-55-17c-7.1-3.5-14.6-5.6-22.2-7.5
		c-10.9-2.8-21.5-1.5-32,1.8c-8,2.5-14.3,7.5-19.4,14.2c-6.9,9.2-10.6,19.6-11.6,30.9c-0.5,6-0.7,12.1,0.2,18
		c1.7,10.7,5.1,21.1,9.7,31c4.3,9.3,8,18.8,11.8,28.4c1.5,3.9,3.5,7.7,5.4,11.4c0.7,1.3,1.7,2.5,2.7,3.6c1.4,1.4,3.2,1.7,5,1
		c1.5-0.6,2.4-1.8,2.6-3.4c0.2-1.8,0.3-3.6,0.1-5.4c-0.7-7.2-1.2-14.4-2.5-21.5c-1.8-9.9-1.7-19.8-1.3-29.7
		c0.3-6.7,2.1-13.1,5.6-18.9c3.8-6.2,8.9-10.6,16.5-11.3c2.4-0.2,4.7-0.8,6.7-1.1c12.4,3,16.2,4.5,24.8,9.4c3.1,1.8,6.2,3.7,9.3,5.6
		c11.6,7,22.4,15.4,32.3,24.6c9,8.4,17.5,17.4,25.1,27.2c1.5,1.9,2.9,3.8,4.5,5.7c8.7,10.4,16.9,21.2,23.6,33
		c1.2,2.1,2.9,3.8,4.2,5.8c6.1,8.9,12.9,17.5,18.2,26.9c7.1,12.6,15.3,24.5,23.1,36.7c6.3,9.9,12.7,19.7,18.6,29.9
		c9.3,16.2,19.7,31.7,29.8,47.4c1,1.5,2,3,3.2,4.3c1.3,1.4,3.1,2,5,1.3c1.9-0.7,3.1-2.2,3.1-4.1c0-4.5,0.2-9.1-0.7-13.5
		c-2.7-13-4.4-26.1-5-39.3c-0.1-1.5-0.2-3-0.4-4.5c-0.9-7.5-1.9-14.9-2.6-22.4c-0.9-10.5-1-21-1.9-31.5c-1.5-18.7,0.8-37.3,1.7-55.9
		c0-0.3,0-0.6,0.1-0.9c1.5-8.9,3-17.8,4.4-26.7c0.9-5.6,1.8-11.3,2.3-17c1.2-16.4,5.2-32.1,11.6-47.2c5.5-13,13.6-23.9,24.9-32.6
		c7.9-6.1,16.9-7.6,26.3-7.7c3.9,0,7.7,1.3,11,3.6c9.6,6.8,18.6,14.3,24.3,24.9c0.7,1.3,1.3,2.8,2.1,4c1.2,1.7,2.4,3.5,3.9,4.9
		c3.5,3.4,8.8,1.8,9.7-3.1c0.4-2.3,0.4-4.8,0.1-7.2C1918.3,833.6,1917.1,823.7,1915.8,813.9z M1901.4,824.1
		c-4.8-5.1-10.4-9.1-16.3-12.8c-8.3-5.3-17.2-6.6-26.8-5c-15.8,2.7-27.5,11.4-37.3,23.5c-5.9,7.4-10.2,15.6-14,24.2
		c-7,15.8-10.6,32.5-11.9,49.8c-0.4,5.1-1.2,10.1-1.9,15.2c-1.1,7.7-2.4,15.4-3.6,23.2c-0.2,1.2-0.5,2.4-0.6,3.6
		c-0.8,15-4,29.9-1.9,45c0.2,1.5,0,3-0.1,4.5c-0.1,1.2-0.4,2.4-0.3,3.6c0.8,8.1,1.7,16.1,2.5,24.2c0.2,2.1,0.2,4.2,0.4,6.3
		c0.5,5.1,1,10.2,1.5,15.3c0.1,1.5,0.4,3,0.4,4.5c0.3,11.5,1.6,22.8,3.2,34.1c0.3,2.2,0.9,4.6-1.1,7.3c-1.6-2.2-3.1-4-4.3-5.9
		c-4.8-8-9.4-16.2-14.3-24.1c-5.8-9.5-11.6-19-17.6-28.4c-7.9-12.4-16.2-24.6-23.6-37.4c-5.7-9.9-12.9-18.9-19.4-28.3
		c-1-1.5-2.2-2.9-3.1-4.4c-6.1-11.5-14.6-21.4-22.4-31.7c-3.8-5-7.6-10.1-11.9-14.7c-9.4-10.2-18.5-20.7-29.5-29.2
		c-2.9-2.2-5.4-4.9-8.2-7c-13.6-10.1-27.8-19.2-43.8-25c-8.9-3.2-18.4-4.2-27.4-0.8c-9.3,3.5-16.4,10-20.2,19.5
		c-3.1,7.6-4.7,15.5-4.6,23.8c0,3.3,0,6.6,0,11c-3.1-2.5-4.5-4.8-5.2-7.4c-1.9-7-4.6-13.6-6.1-20.8c-2.4-11.6-1.8-22.8,2.5-33.7
		c3.1-8,7.8-14.9,15.3-19.5c4.5-2.8,9.4-4.1,14.5-4.6c11.3-1.1,22.2,1,32.5,5.8c6.8,3.1,13.6,6.5,20.6,9.2
		c6.7,2.5,13.7,4.4,20.7,6.4c8.7,2.5,17.6,4.4,26.6,5.1c8.1,0.6,16.3,0.3,24.4-0.1c4.8-0.3,9.5-1.5,14.2-2.6
		c9.6-2.2,17.1-7.2,21.2-16.6c0.5-1,1.4-1.8,2.3-3c2.7,0.5,5.4,0.7,8,1.4c9.4,3,18.5,1,27.4-1.9c6.4-2.1,11.9-5.7,16.8-10.3
		c5.7-5.3,11.9-10.2,17.6-15.5c2.6-2.4,4.8-5.4,7.2-8.1c5.5-6.4,10.7-13.1,16.6-19c8.5-8.5,19-13.7,31-15.5c0.9-0.1,1.8-0.2,2.7-0.1
		c20.5,2.8,36.4,12,45.1,31.6c3.8,8.6,6.4,17.5,6.6,27c0.1,3.6,0.4,7.1,0.6,10.6C1903.5,827.2,1902.5,825.2,1901.4,824.1z"/>
	<path class="st0" d="M1803,1153.6c-2.2,1.5-4.3,3.3-6.2,5.2c-18.9,19-38,37.8-55.5,58.1c-4.7,5.5-9.5,10.9-13.8,16.7
		c-10.9,14.7-21.4,29.8-32.4,44.5c-8,10.7-14.5,22.1-20.3,34.1c-5.7,11.9-11.4,23.9-17,35.9c-3.9,8.3-5,17.3-7.4,26
		c-0.1,0.3-0.1,0.6,0,0.4c0,1.4-0.1,2.3,0,3.2c0.4,3.9,5.1,6,8.2,3.7c1.4-1.1,2.7-2.4,3.8-3.8c3.7-4.8,7.3-9.6,10.9-14.4
		c13.5-18.1,27.3-36,43.3-52c1.3-1.3,2.5-2.7,3.6-4.1c12-15,23.7-30.4,37.3-44.1c1.1-1.1,1.9-2.3,2.9-3.5
		c9.1-10.9,15.8-23.4,23.1-35.5c1.7-2.8,2.8-6,4.1-9c4.8-11.7,9.6-23.4,14.4-35.1c2.1-5.3,4.3-10.6,6.1-16c0.7-2.2,1-4.7,0.9-7.1
		C1809,1153.9,1805.4,1152,1803,1153.6z M1787.2,1187.6c-2.3,6.5-4.5,13.1-7.1,19.5c-1.9,4.7-4.4,9.2-6.9,13.7
		c-2.8,5-5.7,9.9-8.8,14.7c-3.4,5.3-6.9,10.6-10.9,15.5c-4.3,5.4-9.3,10.2-13.8,15.5c-7.6,8.9-15,18-22.5,27.1
		c-1.5,1.9-2.9,3.9-4.5,5.6c-6.7,7.4-13.6,14.5-20,22c-6.1,7.1-11.7,14.5-17.4,21.8c-1.2,1.6-2.2,3.4-4.2,4.2
		c-1.2-2,0.1-3.2,0.7-4.4c3.2-7.1,6.6-14.2,9.8-21.3c8.2-18.2,19.1-34.8,30.8-50.9c7.6-10.5,15.2-20.9,23-31.2
		c3.8-5,8-9.8,12.1-14.6c8.5-9.7,17.1-19.4,25.9-28.9c4-4.4,8.5-8.3,13.9-12.5C1787.3,1185.4,1787.6,1186.6,1787.2,1187.6z"/>
	<path class="st0" d="M1695.2,688c5-16,13.1-29.6,27.6-38.8c4.8-3.1,9.1-6.8,13.9-10.3c-0.1-2.3-0.2-4.2-0.3-6.4
		c-2.3-0.9-4.2-2-6.2-2.4c-7.1-1.2-11.5-6.3-16-11.1c-3.7-4-4.3-9.1-4.1-14.4c0-0.9,0.1-2-0.3-2.6c-0.9-1.4-2.1-2.6-3.3-4
		c-4.3,0.9-6.4,3.1-8.8,5c-11.2,8.7-22.9,16.6-36.8,20.6c-3.8,1.1-7.5,2.2-11.4,2.8c-10.9,1.9-21.9,3.7-32.9,5.4
		c-9.6,1.5-18.9,4.2-27.4,8.8c-7.9,4.3-12.4,11.2-13.1,20.3c-0.6,8,4.7,16.4,15.5,15.7c1.2-0.1,2.4-0.1,3.6-0.3
		c10.7-1.8,21.4-3.4,32-5.6c12.3-2.5,24.6-2.2,36.9-1c12,1.2,16.8,5.4,18.7,17.1c0.1,0.9,0.1,1.8,0.5,2.7c0.7,1.6,1.5,3.2,2,4.3
		c2.9,1.6,5.2,1.5,7.3,0c0.4-0.6,0.9-1,1.1-1.5C1694.3,690.9,1694.8,689.5,1695.2,688z M1691.4,671.9c-0.1,0.2-0.5,0.4-1.2,0.9
		c-0.8-0.5-2-0.8-2.6-1.6c-4.2-6.1-10.4-8.7-17.4-10.4c-11.9-2.9-24-2.6-36-1.6c-7.8,0.7-15.4,2.6-23.1,4c-5,0.9-10.1,1.6-15.1,2.4
		c-2.5,0.4-4.7-0.5-6.7-2.5c-1.5-2.8-0.8-5.6,0.4-8.5c1.1-2.6,3-4.5,5.6-5.7c6.6-3.1,13.3-5.5,20.5-6.7c12.5-1.9,25-3.7,37.4-6.1
		c12.8-2.5,24.8-7.2,35.6-14.8c3.4-2.4,7-4.6,11-7.1c0.6,1.4,1.1,2.4,1.5,3.5c2.3,6.1,5.9,11.1,11.4,14.7c2.2,1.5,4.1,3.4,5.7,4.8
		c0.2,2.5-1.1,3.3-2.2,4.3c-2.3,1.9-4.6,3.9-6.8,5.9c-6.9,6-12.8,12.8-16.3,21.4C1692.7,669.9,1692,670.9,1691.4,671.9z"/>
	<path class="st0" d="M1782.1,845.4c-2.8,1.8-5.3,3.3-7.8,5c-5.9,4.1-12.3,6.1-19.5,5.9c-5.4-0.2-10.8-0.4-16-2.5
		c-2.8-1.1-5.7-2-10-0.9c-2.9,2.8-5.8,5.8-9,8.5c-6.7,5.7-13.9,10.3-23,11.5c-5.4,0.7-10.8,1-16.2,1.1c-2.1,0-4.2,0.3-6.2,0.8
		c-2.2,0.6-2.9,4.5-1.2,6.1c0.6,0.6,1.3,1.3,2.1,1.6c9.4,4.1,16.4,11.2,22.9,18.7c6.3,7.3,12.5,14.7,18.6,22.1
		c7.2,8.9,13.7,18.3,18.7,28.6c6.3,13,12.5,26,18.7,39.1c0.9,1.9,1.9,3.7,3.1,5.5c1.5,2.3,3.9,2.7,6.4,2.1c2-0.5,3.6-2.2,3.6-4.6
		c0-4.8-0.3-9.6-0.5-14.4c-0.1-3-0.7-6-0.5-9c0.2-5.7,0.7-11.4,1.2-17.1c0.7-8.4,1.4-16.8,2.3-25.1c0.5-5.1,0.9-10.2,2.1-15.2
		c4.5-18.7,8.1-37.7,14.7-55.8c1.2-3.1,1.7-6.4-0.1-10C1785.4,847,1783.8,846.2,1782.1,845.4z M1763.9,901.3
		c-2.8,11.1-4,22.5-5.1,33.8c-0.1,0.9,0.1,1.8-0.1,2.7c-1.8,7.4-2,14.9-2.1,22.4c0,1.5-0.6,2.9-2.7,3.6c-2.9-4.4-5.2-9.4-7.4-14.3
		c-4.3-9.7-10.4-18.4-16.6-26.9c-8.7-11.9-18.9-22.7-28.6-33.8c-1.4-1.6-3.1-2.8-5-4.4c0.9-0.6,1.5-1.3,2.1-1.5
		c11.1-2.4,21-7.1,29.3-15.1c1.5-1.5,3.1-2.8,4.8-4.3c1.9,0.4,3.6,0.7,5.3,1.3c5.5,1.9,11.2,2.2,16.9,2.1c5.2-0.1,10.2-0.4,14.9-3
		c1.1-0.6,2.3-0.7,3.1,0.6C1769.9,876.8,1767,889.1,1763.9,901.3z"/>
</g>
</svg>
