<?xml version="1.0" encoding="utf-8"?>
<!-- Generator: Adobe Illustrator 24.0.0, SVG Export Plug-In . SVG Version: 6.00 Build 0)  -->
<svg version="1.1" id="Layer_1" xmlns="http://www.w3.org/2000/svg" xmlns:xlink="http://www.w3.org/1999/xlink" x="0px" y="0px"
	 viewBox="0 0 1801 3354" style="enable-background:new 0 0 1801 3354;" xml:space="preserve">
<style type="text/css">
	.st0{fill:#FFFFFF;}
</style>
<g>
	<path class="st0" d="M473.6,130.4c24.6,49.2-37.3,49.2-20,89.5c-1.1,4.2-2.1,8.4-2.9,12.4c-0.5,5.1-1.7,10.6-3.8,16.5
		c-2.1,5.9-5,12.2-9,18.9c-2.3,1.8-4.9,3.9-7.8,6.1c0.5,4,1.3,8,2.2,12.1c5.1,24.4,10.4,50.5,16,78.2c0.9,4.3,1.7,8.7,2.6,13.1
		c-14.6,49.7,26.6,91,23.9,126.8c1,4.8,2,9.6,3,14.4c10.9,52.3,21,99.3,22.5,156.1c0.5,4.1,1,8.3,1.5,12.4
		c22.2,175.1,37.6,387.4,32.5,642.6c1.2,73.5,2.3,145.8,3.3,217.3c0.1,6,0.2,11.9,0.2,17.7c1.5,161,1.5,305.3,4.2,472.8
		c0,5.8,0,11.5,0.1,17.3c0.2,51.9,0.2,103.9,0.2,155.9c0,5.8,0,11.6,0,17.3c-2.9,95.5-2.9,219.2-2.1,332.4
		c-0.1,5.9-0.1,11.8-0.2,17.7c-0.9,76.9-2.1,154.6-3.6,233.6c15.5,202.6-93.1,445.3,35.1,495c4,1.6,8.2,2.9,12.9,4.1
		c37.4-18.5,78.6,43.3,119.9,43.3c-20.6-20.6,41.2-41.2,30.8-53.3c2.8-1.2,5.8-2.1,8.9-3.1c9.1-2.4,18.5-5.1,28.2-8
		c59.4-95.1-2.4-193.2-3.8-306.4c0-3.1,0-6.1,0-9.2c-5.7-13.2-4.9-25.7-1-38c1.3-4.1,2.9-8.2,4.8-12.2
		c32.5-37.6,60.1-53.3,90.7-48.9c4.4,0.6,8.8,1.7,13.3,3.1c31.3-17.2,103.2-70.6,113.6,1.3c1.5,6.3,2.5,13.7,3.3,22.1
		c8.2,8.1,16.4,14.5,24.5,19.9c4.1,2.7,8.1,5.1,12.2,7.1c45.4,13.3,107.3,33.9,146.7,83.6c4.4,2.9,8.7,5.8,13,8.8
		c21.6,15,42.7,31.5,64.3,49.6c82.6,4.1,70.8-89.2,27.3-109.1c59-6.1,10.3-95.5-25.8-109.9c-45.1-4.6,28-13.8,27.1-5.7
		c39.5-7.3-25.2-68.8-17.2-84.5c0,0,0,0,0.1-0.1c0,0,0-0.1,0-0.1l-0.4,0.5c14.9-65.2-19.2-20.3-30.5,3.6
		c31.3-72.7,36.9-235.4-11.4-237c-29.2-2.1,60.9-27.7,1.1-25.9c19.2-30.3,26.6-75.5,1.1-78.6c-4.2,0.4,28.4-148.1-42.1-118
		c-10-13.1,10.7-10.4,10.1-18.7c0,0-1-0.8-1-0.8c-16.4-31-46.5,40-23.5-38.1c-28.6-11.4-13.4-23.8,5.3-18.4
		c30.7,2.8,5.8-8.4,3.1-9.5c-15.3-11.7,5.9-28.4,1.7-44.5c50.1,2-3.8,20.5,30.2,53.1c-15.4,57.6,48.3-27.7,18-38.8
		c4-10.3-13.6-12.4-8.8-23c25.3-31.1-18.7-32.5-1.9-2c-37.9-13.6-79.5-45.4-42.5-48.3c-55.7-51.9,28.3-33.9,23.2-31.1
		c-20.2,60.8,13.9,40.6,25.9,43.8c-23.1-56.2,14.3-54.1-0.7-94.3c-9.5,29.8-14.8,6.9-13.6-0.7c-36.5-6.4-22.8-61-39.3-41.6
		c-19.9,17-11.1,17.4-21.3,14.8c23.8-45.2,24.6-35.2,10.1-66.9c19.9,14.1,16.9,15.4,31.2,5.9c47,57.4-27.1,58.7,34.1,78
		c30.8-80.6-29.6-230.9,2.9-219.7c-9.8-35.7-63.7-13.2-47.5-69.7c37.7,29.8,59,56.9,33.4-12.3c33.6-34.9,16.5-89.2,0.9-73.5
		c19.1-95.3,15.6-215.2,38.7-436.3c19.3-126,23.4-226.5,30.5-313.5c27.7-43.7-50.1,23.9-40.9-17.1c87.4-0.8,60-165.7,69.2-201.8
		c27.7-84.2,44.2-143.3-25.9-180.6c67.6,20.5,65.9-29.5,68-85.1c0.4-11.1,1-22.4,2.3-33.5c50.3-78.1-32.1-98.7-52.7-160.6
		c-41.2,20.6,20.6,103.1-51.7,99.7c-7.5-0.4-15.7-0.5-24.1,0.2c-41.8,3.4-87.9,26-96.4,115.7c-0.1,0.1,0,0.1-0.3,0.4c0,0,0,0,0.1,0
		c8.1,49.6,21.1,42.1-35.1,45.5c-12.6-65.6,71.4-76.9-32.1-40.8c18.9,29.2-0.6,30.4-7.2,18.2c-19.8-31.3-35.7,18.3-42.3,17.9
		c-32.8,2.8,42.5,38.4,22,46.9c-64.2-49.2-67.2-51.2-76.4-87c-3.5-1.1-7.7-2.2-12.3-3.3s-9.4-2.1-14.6-3
		c-41.9,36.9-103.7,16.2-145,16.2c20.6,0,41.2-20.6,41.2-41.2c-20.6,20.6-20.6-20.6-41.2-20.6c41.2,0,20.6-41.2,43.3-71.7
		c-0.1-3.6-0.8-7.3-2.4-11.1c-1.6-3.8-4.1-7.7-7.6-11.8c-0.6-4.6-1.7-8.8-2.9-13.1c31.4-77.9,10.8-98.5-60.7-161.1
		c-2.4-4.6-5-8.6-7.9-12.1c-8.7-10.5-19.7-16.5-31.9-20.8c1.7,28.6,1.8,49.9,1,63.9c0.1,4.8,0,8.8,0.3,12.1
		c7.1,122.6-13.5-1.1-6.7-1.3c-1.7-3.7-2.9-8-4.4-13.2c-1.9-14.7-3.4-36.6-3.8-65.5c-16.5-4-34.4-6.3-51.8-11.8
		c-5.1-1.6-9.9-3.6-14.2-6.7c-8-24.7-23.2-42.1-42-55.5c-3.1-2.2-6.4-4.3-9.7-5.8c-11.5-1.6-20.1,1.1-27.2,6
		c-3.6,2.5-6.8,5.6-10.2,9.6c-3.2,15-8.1,24.3-14.1,31.3c-1.7,3.2-3.5,5.9-5.4,8.9c-9.7,20.4-9.7,61.6-51.9,68
		C475.9,123.5,474.9,125.6,473.6,130.4z M661.8,2989.4c3,1.2,7.1-0.9,9.2,3.2C639.1,3011.6,653.2,2989.6,661.8,2989.4z
		 M615.3,3168.7c14.4,7.7,9.3,8.7,5.6,12.5C609.4,3172.2,611.9,3171.8,615.3,3168.7z M654.6,3196.2 M675.1,3294.9 M753.3,3218.1
		C730,3204.9,754.1,3212.1,753.3,3218.1L753.3,3218.1z M637.1,3219.4 M714.3,3210.1c-2.1-9.6,0.1-15.1,2.7-18.1c2.6-3,5.9-4.1,6-5.2
		c3.6,7.7,1.2,12.1-2.1,15.6C717.5,3206,713.4,3208.3,714.3,3210.1z M712.6,3170.4c-4.9,1.3-8.5,3.7-10.7,7s-3,7.8-2.6,13.8
		c-21.5-15.8-33.7-25.3-39.3-31.1C643.4,3143,686.8,3160.5,712.6,3170.4z M623.3,3139.3C660.9,3134.8,622.4,3170.1,623.3,3139.3
		L623.3,3139.3z M623,3138.9C585.9,3135.2,626.7,3124.2,623,3138.9L623,3138.9z M631.1,3115.3C675.9,3081.6,630,3136.5,631.1,3115.3
		L631.1,3115.3z M716.9,3087.3C686,3074.7,713,3078.9,716.9,3087.3L716.9,3087.3z M691.3,3071.7c-9,15.1-7.5,11.6-12.9,5.9
		C686.5,3060.6,687.1,3065.5,691.3,3071.7z M615.3,3070.7c0.1-0.6,0.6-2.7,1.1-4.8C642.1,3090.1,615.5,3097.9,615.3,3070.7z
		 M653.7,3060.9c-15.9-5.4-6-10.2-2.1-12.3C670.3,3055.7,656.1,3059.7,653.7,3060.9z M664.3,3036.3c-24.8-22.1,9.3-26.3,13.2-27.8
		C700.6,3013.4,653.8,3025.6,664.3,3036.3z M705.3,3003.2c4.8,12.6,1.1,14.3-4.9,15.5C685.1,2984,712.4,2981,705.3,3003.2z
		 M639.1,2946.7C683.5,2968.1,640.3,2959.3,639.1,2946.7L639.1,2946.7z M646.1,2887.8c1.9,3.3,3.8,6.6,5.7,10
		c-7.9,4.5-12.5,5.8-14.8,5.2c-2.3-0.6-2.4-3-1.4-5.7C637.8,2891.7,644.3,2884.7,646.1,2887.8z M666.4,2854.3c2.5,1.4,4,5.5,3,13.8
		c-6.3-8.8-6.3,11.8-5.9,11.8c-7-3-9.8-7.3-10.2-11.6c-0.4-4.2,1.7-8.4,4.4-11.2C660.5,2854.3,663.9,2852.9,666.4,2854.3z
		 M1295.9,3023.5C1314,3036.3,1292.6,3029,1295.9,3023.5L1295.9,3023.5z M1249.7,2968.7c-10.9,20.5,51.6-2.6,36,24.7
		c-12.8,36.6-43-11.5-49.1-15.9C1238.3,2933.2,1270.6,2973.2,1249.7,2968.7z M1292.1,2925.6c2.3,17.4-9.9,12.2-10.4,13.8
		C1272.8,2911.2,1293.8,2908.4,1292.1,2925.6z M1243.7,2925.6c66.8,28.2-44.7,22.2-48.6,16.5c75.9-16.2-6.9-32,40.8-35.3
		C1274.9,2907,1222.9,2916.9,1243.7,2925.6z M1182.7,2912.3c5.7,7,5.8,11.4,2.3,15.5c-4.3-5-7.5-8.4-9.8-10.9
		c-2.3-2.5-3.6-4.1-4.3-5.3c-1.2-2.4,0.6-3.3,4-7.3C1178.2,2907.4,1180.8,2910,1182.7,2912.3z M1197.2,2880.1
		C1181.9,2913.3,1186.8,2880.1,1197.2,2880.1L1197.2,2880.1z M1250.2,2892.9c-17.9-6,23.5-9.6,18.9-20.3
		C1289.9,2889,1257.5,2900.4,1250.2,2892.9z M1221.7,2870.1c9.8,8.5,8.1,15.4,1.6,17.1C1185,2841.4,1247.4,2848.7,1221.7,2870.1z
		 M1226.3,2190C1227.3,2245.6,1202.7,2193.4,1226.3,2190L1226.3,2190z M1215.3,1959.9c-13-12.8-10.4-9.6-5.4-16
		C1224.3,1954.8,1220.4,1955.5,1215.3,1959.9z M1042.2,474.2C1017.9,472.1,1044.7,462.3,1042.2,474.2L1042.2,474.2z M1108.3,535.4
		C1103.4,572.9,1102.1,532.6,1108.3,535.4L1108.3,535.4z M1028.5,562.6c8.3-8,28.8-1.7,26.2-22.5
		C1084.7,557.2,1036.7,572.4,1028.5,562.6z M1228.9,554.1C1222.8,580.8,1221.3,550.1,1228.9,554.1L1228.9,554.1z M1269.6,530.5
		C1254.9,588.9,1247.8,529.7,1269.6,530.5L1269.6,530.5z M950.3,592.5c32.4-12,2,105.9,1.2,24.4
		C884.7,653.2,937.8,609.9,950.3,592.5z M902.4,642.8c13.7,56.4-28.6-24.7-14.2-34.6C918,633.9,882.3,638.4,902.4,642.8z
		 M1082.5,632.7C1076.4,666.5,1073.7,629,1082.5,632.7L1082.5,632.7z M1018.3,634.7c0.7-16.4,14.2-18.6,19.5-18.8
		C1022.1,635.1,1022.4,629.4,1018.3,634.7z M1194.1,616c9.6,3.7,21.3,3.4,27.3,14.1C1201,627.4,1195.3,624,1194.1,616z
		 M1155.5,607.6C1135.3,635.8,1148.3,610,1155.5,607.6L1155.5,607.6z M1101.6,617C1078.9,608.4,1106.9,610.9,1101.6,617L1101.6,617z
		 M1038.6,615.7C1057.3,574.3,1058.6,625.8,1038.6,615.7L1038.6,615.7z M1112.1,591.9C1109.5,618.1,1103.3,588.3,1112.1,591.9
		L1112.1,591.9z M1136.4,592.2c12.1-18.5,13.2-14.3,18.8-7.9C1146.7,607.5,1140.5,598,1136.4,592.2z M1077.4,590.4
		c-16.6-2.7,3-8.2,1.4-8C1097.2,582.7,1078.6,590.9,1077.4,590.4z M1256.3,575.7C1221,579.5,1259.5,565.1,1256.3,575.7
		C1243.9,584.1,1247.7,580.4,1256.3,575.7z M972.2,574.6c65.6,26.2,13-35.2,55.8-12.2C980.7,652.9,988.4,641.1,972.2,574.6z
		 M983.7,549C961,541.8,986.3,541,983.7,549L983.7,549z M929.1,540.5c12.3,18.9,13,14,8.8,20.3C919.9,550.1,924.6,548.4,929.1,540.5
		z M796.4,571C793.2,590.7,788.7,566.6,796.4,571L796.4,571z M836.3,584.9c2.8-11,8.7-1.7,10.9-1.7
		C842.8,598,837.7,587.8,836.3,584.9z M892.9,584.6c-0.2-20.4,6.8-2.3,4.6-0.1C900.4,603.4,890.4,586,892.9,584.6z M857.4,603.4
		c14.2,10.4,9.5,10.2,4.6,15C847.9,606.9,851.7,607.2,857.4,603.4z M850.5,624C841.8,644.9,847.3,625.9,850.5,624L850.5,624z
		 M705.4,658.6c18.5-9,16.2-7.8,19.8-3.1C710.7,671.8,713.1,665.3,705.4,658.6z M837.1,663.8C861.8,685.1,836.2,670.6,837.1,663.8
		L837.1,663.8z M925.9,666.6C898.5,703.1,933.4,617.1,925.9,666.6L925.9,666.6z M1122.9,669.2
		C1166.2,700.4,1087.6,678.3,1122.9,669.2L1122.9,669.2z M1186.2,683.7C1162.3,672.2,1189.8,675.7,1186.2,683.7L1186.2,683.7z
		 M1091.6,721.8c10.2-8.8,16.8-18.7,9.6-32.6C1149.2,707.5,1108.1,719.3,1091.6,721.8z M1150.9,696.9
		C1180.8,708.1,1147.7,703.4,1150.9,696.9L1150.9,696.9z M1125.1,781.5c15.2-2.2,7.5-23.9,0.2-33.9c78.4,69.2-79.8,51.9-34.2-25.3
		c0,0,0.1-0.1,0.1-0.1c11.6,7.6,20.8,14.4,28.5,20.7c-0.3,0-0.7-0.4-1-0.2C1074.3,773.1,1123.6,764.4,1125.1,781.5z M1158.6,762.3
		c12.9,5.6,7.3,8.9,3.7,11C1150.6,765.8,1155.4,766.3,1158.6,762.3z M1148.1,846.4C1218.6,910.1,1123.5,850.2,1148.1,846.4
		L1148.1,846.4z M1193.9,854.5c14.7,9.6,10,9.1,5.9,14.2C1185.9,856.2,1188.7,858,1193.9,854.5z M1134.4,915.6
		C1120.2,871.6,1156.5,902.8,1134.4,915.6L1134.4,915.6z M1095.9,907.1C1127.9,906.4,1092.9,913,1095.9,907.1L1095.9,907.1z
		 M958.3,905.2c-4.3-6.6-6.5-15.6-0.1-26.6C970,879.7,962.6,896.1,958.3,905.2z M983.6,876.6c2.3-9.2,12.6,1.6,12,0.6
		C1008.8,896.4,984,888.6,983.6,876.6z M1049.4,890.4C1082.1,912.4,1045.7,896.2,1049.4,890.4L1049.4,890.4z M1026.1,897.7
		C996.1,894.9,1027.8,890.9,1026.1,897.7L1026.1,897.7z M1175.5,895.5C1125.7,883.5,1178.3,887.6,1175.5,895.5L1175.5,895.5z
		 M1040.6,872.8c1.8,2.4,3.6,4.8,5.1,6.9C1030.7,906.9,1036,871.8,1040.6,872.8z M1105.7,874.6c4.7,15.2-14.5,8.1-12.4,12.3
		C1083.9,883.8,1104.4,872.6,1105.7,874.6z M1227.8,829.6C1203.7,871,1220.5,825.7,1227.8,829.6L1227.8,829.6z M1089.2,841.8
		C1116.7,847.1,1086.8,847.7,1089.2,841.8L1089.2,841.8z M1009.6,863.4c13.7-45.6,1.5-54.3,45-56.6c14.3,5.6-8.3,20.3-13.6,11.5
		C1014.5,828.7,1051.4,888.6,1009.6,863.4z M913.5,858.5C936.8,870.4,909.2,865.3,913.5,858.5L913.5,858.5z M893.5,795.1
		c-12.3,27.4-13.6-4.1-0.3-0.3C929.7,772.5,913.6,807.5,893.5,795.1z M1057.4,747C1084.8,768.9,1012.2,816.4,1057.4,747L1057.4,747z
		 M968,773.2c-17.3-6.4-2.8-9.8-1.4-11.2C986.6,761.2,970.3,773.4,968,773.2z M1028.1,739.1c-7.6-27.6,13.5,3,9.8,1.9
		C1028.2,766.4,1029.2,740.5,1028.1,739.1z M1011.8,729.4c2.1,19.9-16.6-2.9-15.2-1.5C1012.5,696.5,1004.2,728.9,1011.8,729.4z
		 M957.6,721.1C977.4,721.9,955.8,728.7,957.6,721.1L957.6,721.1z M908.8,719.4C910.3,751.5,899.7,717.4,908.8,719.4L908.8,719.4z
		 M973.1,731.3c1.2-0.8,2.5-1.6,3.6-2.4C1023.6,771,969.7,737.5,973.1,731.3z M915.7,761.4c5.4,22.9-39.5-0.4-20.7-3
		C959.3,718.1,952.2,739.6,915.7,761.4z M880.4,784.5c-17.8-15.6-17.5-13.2-11-20.3C889.1,779.7,885.2,778.7,880.4,784.5z
		 M935.8,757.9c17.4,20.5,20.8,31.8,29.5,36.6C966.5,827.1,909.3,762.5,935.8,757.9z M1008.5,803C1035,764,1013.4,808.4,1008.5,803
		L1008.5,803z M937.2,802.6C930.9,830.1,931.8,797.7,937.2,802.6L937.2,802.6z M826.7,807C824.9,834.9,818.5,803.6,826.7,807
		L826.7,807z M860.5,815.3c2.2-14.1,7,1.2,7.2,2.4C865.6,834.8,860.1,813.6,860.5,815.3z M901.2,821.2
		C875.1,821.1,905.3,812.6,901.2,821.2L901.2,821.2z M974.8,816.6C963.6,839.2,969.1,815.8,974.8,816.6L974.8,816.6z M1144.7,810.1
		c-4.5-40,17.5-11.3,18.9-0.8c-0.1,0-0.2,0-0.2-0.1c-3.8,5.2-9.8,3.5-14.8,4.8C1129.2,841.5,1136.6,805.2,1144.7,810.1z
		 M1163.7,809.3C1192.6,730,1188.7,820.6,1163.7,809.3L1163.7,809.3z M1057.6,746.4C1039.9,711.5,1087,714.6,1057.6,746.4
		L1057.6,746.4z M1060.9,705.4c-31.3,17.5-22.3-18.2-15.7-23C1057.9,692.7,1042.4,707.7,1060.9,705.4z M976.1,669.4
		c40.4-31.8,31.7,44.7,10.6,33.7C1008.7,682,986.7,674.9,976.1,669.4z M961.1,673.7c2-31.2,7.1-3.6,14.1-4
		C971.4,674.2,966.3,673.9,961.1,673.7z M951.5,707.8C906.7,690.8,953,703,951.5,707.8L951.5,707.8z M1096.1,664.5
		c1.7,19.7,3.8,19.9,4.5,23.7C1082.7,673.5,1091.6,669.4,1096.1,664.5z M1252.8,665C1250.4,697.4,1245.4,660.7,1252.8,665
		L1252.8,665z M1149.4,659.4c31.7-12.5,30.3-4.5,33.2,0C1150.3,665.7,1152.5,667.4,1149.4,659.4z M1071.1,665.4
		c14.2,29.8-40-8.1-51.3,4.3C1041.5,649.7,1063.4,648.1,1071.1,665.4z M960.6,674C952,709,937.8,671.3,960.6,674L960.6,674z
		 M756.3,693.9C743.3,717.6,748.9,689.5,756.3,693.9L756.3,693.9z M887.1,705.2C856.8,686.7,892.6,698.9,887.1,705.2L887.1,705.2z
		 M814.6,707.5c8-5,10.7,1.3,11.9,1C839,722.6,810.3,711.1,814.6,707.5z M738.1,718.2c17.1,8.4,13,7.7,8,12.9
		C733.4,723.7,737,724.8,738.1,718.2z M855.2,723c10.1,13.9-3.6,20.8-1.3,23.8C841.2,725.1,853.8,725.4,855.2,723z M752,758.9
		c-9.1-22,82.6,4,22.2,2.9C761,762.9,754.9,758.7,752,758.9z M763.2,780.7C730.8,772.5,767,775.2,763.2,780.7L763.2,780.7z
		 M791.7,830c2.9-40.7,4.7-48.9,17.4-65.9c32.1,2.5,29.7,26,16.8,26c-8.6-38.4-22.1,3.9,0,0C799.6,812.7,804.8,839.1,791.7,830z
		 M828.6,842.5C796.5,821.8,832.9,839,828.6,842.5L828.6,842.5z M872.3,849c-13.4,28.7-11.9,21.9-12.3,12
		C837.1,824.3,858.6,837.8,872.3,849z M733.7,868.5C770.5,901.8,706.8,868.1,733.7,868.5L733.7,868.5z M933.4,874.8
		c22.2,11.1-4.4,6.9-0.9,16.4C938.7,927.3,909.8,872.7,933.4,874.8z M867.4,893.9c-5.9,14-10.2,14.3-15.6,14.1
		C832,895.1,873.3,889.6,867.4,893.9z M762.4,915.7C739.2,899.1,766.4,909.4,762.4,915.7L762.4,915.7z M907.7,915.9c0,0,0,0-10,3.8
		C899.6,918.5,904.8,915.8,907.7,915.9z M1024.1,922.4C955.3,890.3,1026.4,912,1024.1,922.4L1024.1,922.4z M1133.9,916.2
		C1095,981.6,1089,921,1133.9,916.2L1133.9,916.2z M1020.9,950.5c-8.8,12.6-12.8-8-7.1-7.5C1016.3,945.8,1018.8,948.4,1020.9,950.5z
		 M1031.7,939.4C1069.5,930.6,1031.4,947.2,1031.7,939.4L1031.7,939.4z M778.2,970.5C749,965.2,783.6,960.8,778.2,970.5L778.2,970.5
		z M790.6,981.3C773.1,1016.3,789.6,979.5,790.6,981.3L790.6,981.3z M768.5,1027.2C734.1,1019.8,773.5,1018.2,768.5,1027.2
		L768.5,1027.2z M787.1,1095.4c9.3,32.2-27.6,0.6-26.7-1.8C783.1,1044.9,768.8,1116.3,787.1,1095.4z M716,1107.5
		c12.3-17.7,9.6-15.9,16.1-12.1C718.8,1112.8,722.7,1111.3,716,1107.5z M753.2,1189.5C746.4,1216.3,748.5,1187.7,753.2,1189.5
		L753.2,1189.5z M687.9,1199.6c-29.9,19.2-21.8,11.6-22.6,26.8C633.7,1199.5,676.1,1191.8,687.9,1199.6z M743.2,1248.2
		c8-18.3,7.4-7.2,9.5-3.9C752.5,1263.3,744.4,1251.6,743.2,1248.2z M764.7,1249.3C796.8,1262.5,761.1,1255.2,764.7,1249.3
		L764.7,1249.3z M799.1,1251.5c12.8-12.1,27.1,3.4,31.8,2.9C842,1293,800.7,1253.2,799.1,1251.5z M784,1272.4
		C782.3,1299.4,772.8,1269.6,784,1272.4L784,1272.4z M770.5,1299.4c19.9,24.9,11.2,24.4-1.2,18.5
		C760.3,1306.2,771.6,1303,770.5,1299.4z M720.4,1319.7C752.4,1325.9,717.3,1327.1,720.4,1319.7L720.4,1319.7z M683.3,1333.5
		C664,1318.9,681.5,1324.6,683.3,1333.5L683.3,1333.5z M832.5,1331.6c49.3,19.6-24.6,45.1-33.3,37.7
		C821.3,1355.9,819,1336.1,832.5,1331.6z M1149.1,1279C1108.7,1258.4,1152,1255.5,1149.1,1279L1149.1,1279z M1053.1,1269.6
		C1084.7,1229,1069.2,1273.5,1053.1,1269.6L1053.1,1269.6z M1173.3,1253.2c44.1-39.2,29,2,19.6,16.4
		C1188.8,1259.3,1176.7,1262.4,1173.3,1253.2z M1144.4,1224.3C1122.3,1255.4,1141.7,1220.1,1144.4,1224.3L1144.4,1224.3z
		 M1109.8,1233.1c19.8,1.4-2.2,11.7,1,14C1074,1263.6,1113.7,1227.5,1109.8,1233.1z M1022.5,1238.1
		C1013.1,1262.4,1016.4,1236.3,1022.5,1238.1L1022.5,1238.1z M1040.6,1248.4c1.1-4.4,3.4-8.9,6.5-7.3c-1.8,5.7-3.2,9.2-4.3,11.4
		L1040.6,1248.4z M1112.6,1323.9C1141,1296.4,1114.3,1345,1112.6,1323.9L1112.6,1323.9z M1099.5,1326.3
		C1072.2,1304.7,1100,1325.2,1099.5,1326.3L1099.5,1326.3z M1131.6,1348.3C1127.4,1369.4,1125.2,1344.9,1131.6,1348.3L1131.6,1348.3
		z M1082.9,1430.6C1070.1,1454.5,1074.8,1427.7,1082.9,1430.6L1082.9,1430.6z M1112.7,1439.3
		C1151.9,1448.9,1106.5,1447.9,1112.7,1439.3L1112.7,1439.3z M992.4,1415.9C998.8,1450.7,980.4,1411.9,992.4,1415.9L992.4,1415.9z
		 M1035.6,1414.5c7.5-5.3-2.3-3.2,15.7-11.5C1051.4,1408.6,1034.9,1432.5,1035.6,1414.5z M950.2,1407.4
		C929.7,1403.1,953.2,1400.3,950.2,1407.4L950.2,1407.4z M983.3,1402.5C944.6,1401,991.5,1393.9,983.3,1402.5L983.3,1402.5z
		 M929.2,1386.6C923,1411.4,922.7,1383.2,929.2,1386.6L929.2,1386.6z M1098.3,1413.1C1060.4,1405.5,1100.3,1408.7,1098.3,1413.1
		L1098.3,1413.1z M1150.1,1403c10.7,6.2,3.5,8,0.5,9.9C1139.7,1405.9,1145.8,1403.7,1150.1,1403z M1106.2,1290.7
		C1097,1316.7,1100.4,1286.8,1106.2,1290.7L1106.2,1290.7z M908,1371C903.2,1323.6,943.5,1386.5,908,1371L908,1371z M907.6,1371.4
		c-10.9,70-35,21.9-29.1-4.8C885,1385.4,897.9,1369.6,907.6,1371.4z M696.6,1340C720.9,1325.3,699.2,1366.8,696.6,1340L696.6,1340z
		 M717.6,1351.7C742.7,1351.4,715.3,1359.7,717.6,1351.7L717.6,1351.7z M746.9,1344.9c-14-22.4,9.9-2,9.2,3.7
		C782.7,1356.2,730,1364.1,746.9,1344.9z M714.6,1376.3c16.9-17.1,12.4-14.8,21.7-9.9C716.9,1381.3,721,1381.8,714.6,1376.3z
		 M815,1402.8c-19-7.8-43.1,7.8-53.5,8.3C782.1,1378.8,807.3,1387.8,815,1402.8z M847.8,1407.1c19.5,10.9,39,20.7,29.3,29.5
		C852.9,1423.4,841,1415.2,847.8,1407.1z M751.6,1450.4c9.2-22,10.4-16.5,14.9-11.2C758.6,1468.4,754.7,1458.1,751.6,1450.4z
		 M928.9,1453.3c6-14.1,10.1-14.1,14.1-14.5C964.1,1482.9,931.9,1475.2,928.9,1453.3z M907.9,1447.7
		C882.8,1472.8,898.9,1445.1,907.9,1447.7L907.9,1447.7z M809.1,1450.4c11.5,11.9,8.5,12.1,5.4,15.5
		C797.7,1458.2,804.7,1457.6,809.1,1450.4z M760.4,1500.6c10.4-14,10.9-10.7,15.4-7.5C766.3,1509.7,765.8,1506.4,760.4,1500.6z
		 M859.3,1504.8C880.3,1508.5,855.2,1512.4,859.3,1504.8L859.3,1504.8z M650.6,1512.7C629.1,1504.1,647.7,1506.4,650.6,1512.7
		L650.6,1512.7z M951.5,1499c-1.7,64.3-40.3,40.5-29.8,17.5C947.5,1543.5,924.2,1507.5,951.5,1499z M974.7,1503.5
		C968.1,1524.8,967.6,1499.3,974.7,1503.5L974.7,1503.5z M740.9,1531.6C794.3,1528.6,737.6,1543.8,740.9,1531.6L740.9,1531.6z
		 M668.4,1532.2C662.4,1555.7,661.1,1533.5,668.4,1532.2L668.4,1532.2z M841.8,1527.4c64.5-17.7,15.4-0.3,20.5,26.8
		C850.4,1555.7,796.8,1521.3,841.8,1527.4z M911.7,1561.3c-19.5-9.9,7-3.2,4.6-7.5C944.9,1552.1,923.3,1567.2,911.7,1561.3z
		 M881,1554.9C864.7,1578.3,876.9,1550.9,881,1554.9L881,1554.9z M670,1563.3C702.3,1581,668.1,1566.4,670,1563.3L670,1563.3z
		 M795.5,1568.8c13.5-8.6,7.8-13.6,7.5-16.3C794.1,1533.1,829.5,1587.5,795.5,1568.8z M734.2,1586.8c16.4-16.7,15.8-14.3,22-10.3
		C743.6,1600.7,741.5,1592.8,734.2,1586.8z M817.2,1581.1c7.6,0.9,1.7,14,10.5,15C774.8,1618.6,796.4,1596.1,817.2,1581.1z
		 M1048.1,1589.4C1027.7,1579.3,1049.6,1583.6,1048.1,1589.4L1048.1,1589.4z M1024.2,1602.7c-12.9-10.1-7.2-13.1-2.7-16.2
		C1037.5,1598.2,1029.1,1599.9,1024.2,1602.7z M839.7,1610.7C827.9,1639.1,834.8,1608,839.7,1610.7L839.7,1610.7z M763.3,1624.9
		C748,1649.5,758.9,1619.9,763.3,1624.9L763.3,1624.9z M788.4,1637.7C820.5,1647.7,785.1,1645.4,788.4,1637.7L788.4,1637.7z
		 M1012.8,1668.2C988.3,1656.7,1015.8,1656.7,1012.8,1668.2L1012.8,1668.2z M1043.6,1685.8
		C1086.5,1673.9,1047.2,1712.4,1043.6,1685.8L1043.6,1685.8z M961,1695.4C931.6,1676.9,971.4,1680.8,961,1695.4L961,1695.4z
		 M1043.2,1685.5C1000.6,1692.9,1043.8,1663.2,1043.2,1685.5L1043.2,1685.5z M941.4,1705.3c-49.9,40.8,5.5,1.4-47.2-18.9
		C881.3,1635.1,950,1689.6,941.4,1705.3z M957.4,1723.2c-16.4-7.7-12.9-14.2-15.1-17.1C951.8,1707.6,953.2,1716.8,957.4,1723.2z
		 M985.5,1711.9C965.3,1756.8,977,1714.6,985.5,1711.9L985.5,1711.9z M961,1695.9C990.1,1707.9,956,1714.1,961,1695.9L961,1695.9z
		 M831.6,1720.3C820.2,1738.5,825,1716.8,831.6,1720.3L831.6,1720.3z M858.8,1681c9.2-13.1,9.9-9,13.9-5
		C863.7,1687.1,862,1684.8,858.8,1681z M717.9,1678.5c-29-33.4,23.2-0.7,24,1.2C729.5,1691.2,720.2,1676.1,717.9,1678.5z
		 M777.6,1675.8C747.2,1663.5,771.4,1659.6,777.6,1675.8L777.6,1675.8z M778.2,1676.2C849.3,1645.4,780,1709.7,778.2,1676.2
		L778.2,1676.2z M807.2,1729.1C799.6,1666.8,857.7,1675.1,807.2,1729.1L807.2,1729.1z M756.2,1693.2
		C751.1,1731.7,746,1690.2,756.2,1693.2L756.2,1693.2z M693.2,1693C715.2,1701.8,689,1700.3,693.2,1693L693.2,1693z M729.7,1697.4
		C734.4,1713.2,730.4,1708.5,729.7,1697.4C731.7,1741.6,714.3,1693.1,729.7,1697.4z M785.3,1702.7
		C768.1,1740,780.4,1699.3,785.3,1702.7L785.3,1702.7z M731.6,1748c11.1-14.1,25.3-21.6,29.2-21.1
		C743.5,1759.8,736.5,1751.7,731.6,1748z M807.1,1729.7c17,7.2,25.6,20.5,16.7,26.6C819.3,1746.8,804.1,1743.9,807.1,1729.7z
		 M858.6,1755.9C834,1744.3,862.4,1748.3,858.6,1755.9L858.6,1755.9z M937.1,1734.7c18.2,1.1,0.3,25.9,4.1,28.4
		C916.3,1761.2,937.5,1743.4,937.1,1734.7z M990.1,1749.2c0.1,0,0.1,0,0.1,0C1013,1715.9,1010,1791.1,990.1,1749.2z M1058.4,1759
		C1083.9,1731.3,1075.1,1761.9,1058.4,1759L1058.4,1759z M989.9,1749.2C994.1,1802.6,966.7,1746.9,989.9,1749.2L989.9,1749.2z
		 M942.1,1763.2C975.8,1727,961.2,1788.9,942.1,1763.2C942.1,1763.2,942.1,1763.2,942.1,1763.2z M1030.4,1805.3
		c-5.3,55.7-58.1-16.2-23.5-25C1021.4,1825.3,1003.9,1811.4,1030.4,1805.3z M960.9,1817.2C991.1,1818.8,963.9,1834.9,960.9,1817.2
		L960.9,1817.2z M941.5,1773.3C878.7,1798.8,915.4,1760.2,941.5,1773.3L941.5,1773.3z M661.9,1773.6c18.4,6.9,10.1,11.8,6.6,14.9
		C651.7,1779.6,657.7,1777.7,661.9,1773.6z M975.6,1789.9C960.5,1824.2,965.5,1785.8,975.6,1789.9L975.6,1789.9z M854.5,1792.4
		C899.4,1806.5,847.5,1806,854.5,1792.4L854.5,1792.4z M881.6,1825.1c-32.2-9.6-1-9.3-0.4-10.8C906.3,1808.6,881,1830,881.6,1825.1z
		 M727.7,1815.6C747.8,1818.8,724.1,1823.9,727.7,1815.6L727.7,1815.6z M798.8,1818.9C792.4,1839.7,793.4,1816.7,798.8,1818.9
		L798.8,1818.9z M914.7,1810.4c9.8-11.2,19.5-15.6,46.1,6.8C951.2,1852.6,940.9,1808.7,914.7,1810.4z M1046,1829.1
		C1025.1,1828,1047,1824,1046,1829.1L1046,1829.1z M1156.4,1825C1150.4,1848.6,1148.8,1820.5,1156.4,1825L1156.4,1825z
		 M991.4,1831.5C1013.9,1847.3,986,1838.7,991.4,1831.5L991.4,1831.5z M1075.7,1841C1039,1840.4,1078.1,1833.4,1075.7,1841
		L1075.7,1841z M977.7,1847.4C961.1,1838.3,981.3,1836.6,977.7,1847.4L977.7,1847.4z M1014.1,1860.4
		C1011.7,1823.4,1041,1861.9,1014.1,1860.4L1014.1,1860.4z M1057.2,1897.5c3.6-19.9-6.7-20.6,2.6-25.2
		C1093.4,1909.6,1046.3,1915.6,1057.2,1897.5z M1111.4,1871.4C1103.5,1900.7,1104.1,1867.7,1111.4,1871.4L1111.4,1871.4z
		 M1144.6,1865c22.2,33.9,14.2,29.4,5.8,35.8C1127.4,1861.6,1142.2,1822.2,1144.6,1865z M1103.5,1859.5
		C1115.7,1850.2,1111.6,1853.6,1103.5,1859.5C1127.6,1859.3,1100.7,1869.8,1103.5,1859.5z M1014.2,1860.7c0-0.1,0-0.1,0-0.2
		c30.1,13.1,27,17,20.3,32.4C995.9,1860.8,973,1851.2,1014.2,1860.7z M661.6,1871.5C655.2,1891.7,654.2,1868.3,661.6,1871.5
		L661.6,1871.5z M983.2,1906.2c13.5-12.4,10.2-9.3,18.6-13.4C1052.5,1946.8,993.3,1911.7,983.2,1906.2z M961.8,1912.1
		c-10.2-7.9-5-7-7-11.8C975.2,1905.7,965.9,1909.1,961.8,1912.1z M837.3,1895.1c13.8,9.5-5.8,13-1.6,16.3
		C800.7,1922.2,831.6,1902.3,837.3,1895.1z M869.3,1897.9c48.8,14.9,32.6,54,22.2,70.8c-21.1,24.1-3.5-24.6-3.2-21.7
		C905.4,1915.8,848.1,1908.1,869.3,1897.9z M835.5,1924.9C825.2,1948.4,829.6,1921.9,835.5,1924.9L835.5,1924.9z M799,1940.3
		c9.6-17,10.2-13.4,14.7-8.6C808.6,1952,803.9,1945.6,799,1940.3z M865.6,1944.8c5.7-17,9.3-9.4,12.2-6.1
		C873.9,1956,868.7,1948.1,865.6,1944.8z M834.8,1968.5c4.8-17.7-20.3-8.9-0.2-19.6c14.1,2.2,16,4.8,16.9,8.4
		C840.9,1995.7,831.7,1979.3,834.8,1968.5z M851.5,1985C878.6,1997.3,851.8,1994.1,851.5,1985L851.5,1985z M769.8,2014.6
		C792.1,1982.4,780.4,2024.4,769.8,2014.6L769.8,2014.6z M804.7,2007.4C795.4,2045.2,797.7,2003.1,804.7,2007.4L804.7,2007.4z
		 M771.1,2026.7C761,2051.1,765.3,2023.4,771.1,2026.7L771.1,2026.7z M766.2,2104C754,2128.7,760.7,2100.3,766.2,2104L766.2,2104z
		 M707,2133.9c9.4-14.6,10.9-10.2,14.3-5.3C710.2,2143,710.7,2139.2,707,2133.9z M933.2,2310.4c15.2-15.2,35.2-13.1,46.7,5
		C954.8,2319.1,948.1,2304.7,933.2,2310.4z M980.3,2315.8C1009.8,2335.2,973.6,2334.8,980.3,2315.8L980.3,2315.8z M928,2324.3
		c-2.5-2-4.9-4-7.1-6c10.1,5.1-10.5-15.5-0.4-8.1c3.7,1.7,7.3,2.7,11.4,1.1c-0.2,6.6-3,13.8,4.2,18.6
		C933.2,2328,930.5,2326.2,928,2324.3z M936.7,2330.1C959.8,2307,955.7,2340,936.7,2330.1L936.7,2330.1z M1060.4,2325.3
		C1088.8,2338.5,1057.5,2331.9,1060.4,2325.3L1060.4,2325.3z M1091,2348.7C1096.7,2326.2,1098.4,2351.9,1091,2348.7L1091,2348.7z
		 M1135.3,2343.2C1157.4,2348.2,1131.3,2349.8,1135.3,2343.2L1135.3,2343.2z M1174.3,2369.8c14.2-17.9,14.3-1.9,16.2,1.5
		C1183.9,2409.7,1179.5,2374.5,1174.3,2369.8z M1078.5,2370.7C1065.9,2395.4,1074.3,2367.4,1078.5,2370.7L1078.5,2370.7z
		 M1137.8,2364.5C1164.6,2367.7,1134.1,2371.9,1137.8,2364.5L1137.8,2364.5z M1109.1,2361.9
		C1102.5,2392.6,1100.2,2354.5,1109.1,2361.9L1109.1,2361.9z M1027.3,2381.5c8.8-20.4,33.3-57,31.6-24.2
		C992.9,2453.6,1012.3,2361.5,1027.3,2381.5z M1011.2,2350.5C983.2,2340.2,1013.9,2344,1011.2,2350.5L1011.2,2350.5z M990.5,2407.5
		c4.5-30.9-21.6-37.6-7.8-56.8C995.5,2373.7,1009.7,2402.8,990.5,2407.5z M970.6,2397.8C938.3,2394.6,971.6,2376.2,970.6,2397.8
		L970.6,2397.8z M962.2,2352.9C944.8,2387.1,957.1,2360.7,962.2,2352.9L962.2,2352.9z M861.2,2373.8
		C835.5,2360.8,864.6,2368.4,861.2,2373.8L861.2,2373.8z M871.6,2387.7c7.5-24.7,8.3,1.7,11.8,0.9
		C883.9,2411.1,869.8,2386.4,871.6,2387.7z M915.4,2405.8C880.6,2392,917.5,2396.9,915.4,2405.8L915.4,2405.8z M970.7,2398.4
		c5.5,5,9.8,12.5,19.1,9.7C968.4,2433.8,964.9,2411.6,970.7,2398.4z M909,2452.5c25.4-21.1,44-2,23.1,0.6
		C916.8,2452.6,912.5,2463.6,909,2452.5z M902.6,2469.6c19.6,2.3,9.9,9.3,6.5,13.4C891.8,2475,897.9,2472.5,902.6,2469.6z
		 M920.1,2492.8C912.7,2516.9,910.9,2488.7,920.1,2492.8L920.1,2492.8z M818.6,2495.3c14.1,4.1,0.8,7.6-0.3,7.9
		C804.8,2500.3,820.4,2495.4,818.6,2495.3z M981.1,2457.4c-27,37.3-62.2,29.6-34,7.6c36.8-21.4-25.5-47.4-33.5-32.3
		c35.8-60.3,118.5,37.7,46.8,71.7C931.7,2514.6,1000.7,2462.9,981.1,2457.4z M1037.8,2465.2c-20.9,39.7-58,39.8-26.6,6.1
		C993.5,2373.6,1029.9,2456.9,1037.8,2465.2z M982.9,2501.6c22.2,23,21.7,17.2,14.3,25.9C978.3,2519.8,965.9,2505.6,982.9,2501.6z
		 M1090.3,2505.4c-10.4,12.1-23.7,11.8-37.8,8.6C1060.7,2494.3,1084.7,2507.5,1090.3,2505.4z M1052.3,2514.3
		C1079.7,2566,1028.1,2519.6,1052.3,2514.3L1052.3,2514.3z M1024.6,2502.2C1007.1,2532.8,1016.6,2499,1024.6,2502.2L1024.6,2502.2z
		 M1022,2529.9c15,7.3,16,12,18.4,16.3C1014.6,2562.8,1009.6,2521.4,1022,2529.9z M1100.7,2557.7
		C1043.4,2557.9,1095.3,2531.7,1100.7,2557.7L1100.7,2557.7z M803.3,2554.4c9.4-11.9,12.4-8.8,15.9-4.6
		C808.1,2565.4,806.8,2558.8,803.3,2554.4z M1053.5,2559.3c9.9,26.4,10.7,23.4,6.1,31.1C1038.9,2564.3,1042.9,2567.9,1053.5,2559.3z
		 M1085.7,2577.8C1099.9,2557.4,1091.9,2581.4,1085.7,2577.8L1085.7,2577.8z M750.2,2580.4C772,2584.5,747.8,2587.6,750.2,2580.4
		L750.2,2580.4z M798,2587.2c16.7-19.8,19.8-13.8,25.5-7.8C807.6,2607.8,805.9,2592.7,798,2587.2z M1106.4,2567.3
		c-2.4-1.7-4.4-4.6-5.4-9.3c2.9,0.5,5.2,1.1,7.3,1.7c1.5-4.7,3-5.5,3.9,1.4c8,3.6,5.4,7.8,0.6,8.2c0.3,8.3,0.3,21-0.3,39.4
		c-3.3,0.8-6.2,2-7.6,3.8C1100.6,2612.2,1103.1,2583.7,1106.4,2567.3z M1160.6,2573.9C1148.5,2600.5,1150.3,2571,1160.6,2573.9
		L1160.6,2573.9z M709.5,2635.1c6.5-17.9,13.9,1.5,13.8-0.2C719.5,2658.3,710.8,2637.3,709.5,2635.1z M748.5,2645
		c20.2-17.9,6.1-24,8.8-36.3c28.9,16.8,6,32.1-8.7,36.5C716.8,2664.6,738.4,2587.7,748.5,2645z M1104.1,2778.1
		c0.2-3.1,2.1-7.4,6.9-12.2c1.9,7.5,1.9,12.2,0.9,15c-1,2.8-3,3.6-4.8,3C1105.4,2783.3,1103.9,2781.3,1104.1,2778.1z M649.8,2789.7
		C634.6,2812.2,643.8,2781,649.8,2789.7L649.8,2789.7z M1140.7,2774.9c21.4,8.5-23.4,46.2,5.7,31c24.5-2.5-21.5,28.5-20,20.3
		C1109.6,2805.8,1133.6,2777.2,1140.7,2774.9z M676,2825.6C663.1,2845.7,668.9,2822.4,676,2825.6L676,2825.6z M1156.2,2831.7
		C1197.5,2798.5,1154.1,2851.6,1156.2,2831.7L1156.2,2831.7z M1256.6,2826.5C1278.2,2836.3,1253.1,2832,1256.6,2826.5L1256.6,2826.5
		z M1234.9,2816.9c14.9,39.1-46.1-53.9-25.4-52.1C1215.5,2796.5,1266.3,2802.7,1234.9,2816.9z M1181.3,2736.4
		C1191.6,2682.4,1203.8,2740.6,1181.3,2736.4L1181.3,2736.4z M1189.7,2697c2.7-2.1,5.3-4.3,7.8-6.2
		C1231,2706.5,1189,2699.8,1189.7,2697z M694.5,2667.2C719.6,2689.3,660.6,2669.2,694.5,2667.2L694.5,2667.2z M1175,2634.1
		c3.1-0.8,6.6-1.7,9.4-2.7c4.7,2.7,7,5.5,7.8,8.2c0.8,2.7,0.2,5.3-1,7.7C1199,2632.6,1137.2,2673.8,1175,2634.1z M1246,2639.9
		c-17.9,19.7-37.7-29.2-46.2-33.2C1260.3,2586.2,1213.1,2628.6,1246,2639.9z M1226.9,2582.3c-10.6,8.9-19.6-3.3-19.2-7.8
		C1215.2,2555.6,1224.3,2581.4,1226.9,2582.3z M1233.4,2557.1c-13.1-9.3-11.2-9.3-7-14.8C1241.4,2552.3,1237.5,2552.1,1233.4,2557.1
		z M1206.7,2547c-26.8,38.5-42.7,9.6-15.6,5.7C1141.2,2526.2,1201.6,2532.9,1206.7,2547z M1151.1,2534.9
		C1128.1,2575.6,1143.1,2527.7,1151.1,2534.9L1151.1,2534.9z M1105.6,2514.2C1105.6,2560.7,1071.9,2517,1105.6,2514.2L1105.6,2514.2
		z M1106,2514c2.9-14.8-4.4-14.4-14.6-9.6C1049.6,2445.7,1183.3,2531.3,1106,2514z M1206,2494.3
		C1195.4,2535.2,1201.5,2491.6,1206,2494.3L1206,2494.3z M1182.2,2503.7C1170.3,2526.3,1177.1,2498.8,1182.2,2503.7L1182.2,2503.7z
		 M1150.5,2487.6C1162.9,2548.8,1133.7,2481.4,1150.5,2487.6L1150.5,2487.6z M1115.1,2441.3c0,0.1,0,0.2,0.1,0.3c0,0,0.1,0,0.1-0.1
		C1163.3,2552.5,1026.2,2408.4,1115.1,2441.3z M1206.2,2469.9c3.2,9.5,13.9,0,18.6,6.9C1200.8,2494.4,1197,2464.6,1206.2,2469.9z
		 M1171.4,2477.9C1133,2459.8,1170.2,2470.8,1171.4,2477.9L1171.4,2477.9z M1131.6,2458.2
		C1151.5,2467.1,1128.9,2463.7,1131.6,2458.2L1131.6,2458.2z M1218.3,2436.1c10.1,29-63.3,19.5-38.3,2.9
		C1196.2,2465.3,1202.9,2431.7,1218.3,2436.1z M1069.4,2456c-23.4,27-13.3-61.1,0.6-61.4C1089.8,2428.1,1077.8,2420.7,1069.4,2456z
		 M1108.1,2406.6C1132,2421.5,1108.8,2415.6,1108.1,2406.6L1108.1,2406.6z M1136.5,2408.9
		C1168.6,2426.8,1136.7,2415.1,1136.5,2408.9L1136.5,2408.9z M1189.6,2405.2C1182.8,2442.9,1182.5,2401.3,1189.6,2405.2
		L1189.6,2405.2z M1091.6,2386C1082.1,2407.5,1084.3,2385.4,1091.6,2386L1091.6,2386z M1206.5,2364
		C1231.8,2425.6,1183.9,2376.1,1206.5,2364L1206.5,2364z M1206.3,2363.6C1206.3,2363.6,1206.3,2363.6,1206.3,2363.6
		c-67.6-33-8.6-15.5-9.8-34.2C1194.7,2281.1,1232.5,2376,1206.3,2363.6z M1182.5,2306C1129,2347,1153.2,2300.1,1182.5,2306
		L1182.5,2306z M1093.9,2316.1C1058.3,2291.2,1095.4,2304.7,1093.9,2316.1L1093.9,2316.1z M1136.7,2298.2
		C1164.7,2303.9,1134.3,2305.4,1136.7,2298.2L1136.7,2298.2z M1030.5,2293.9c24.5,47.8-39.2-13.8,4.7-12.9
		C1089.2,2327.3,1038.1,2290.8,1030.5,2293.9z M1104.6,2273.4C1104.3,2301.5,1098,2269.8,1104.6,2273.4L1104.6,2273.4z
		 M1079.1,2255.9c5.8,9.3,5.3,12.9,6.3,16.4C1078.9,2301.4,1068.2,2247,1079.1,2255.9z M1117.7,2258.4c14.1,6.3,19,8,24.9-6
		C1157.2,2297.2,1107.8,2273.9,1117.7,2258.4z M1060.9,2237.1C1020.6,2297.1,1034.5,2243.7,1060.9,2237.1L1060.9,2237.1z
		 M1096.1,2242.9C1067,2230.5,1099.1,2232.2,1096.1,2242.9L1096.1,2242.9z M1096.3,2243C1096.3,2243,1096.3,2243,1096.3,2243
		C1136.9,2183,1111.5,2268.9,1096.3,2243z M1057.4,2193.6C1052.9,2204.4,1050,2209.5,1057.4,2193.6
		C1025.5,2259.5,1042.1,2171.7,1057.4,2193.6z M1149.9,2191.3C1135.2,2238.6,1147.4,2189.3,1149.9,2191.3L1149.9,2191.3z
		 M1128.6,2186C1124.9,2214,1118.8,2178.9,1128.6,2186L1128.6,2186z M1103.3,2181C1091.5,2203.2,1097.3,2177.6,1103.3,2181
		L1103.3,2181z M1028.2,2166.4C1062.4,2153,1012.4,2237.6,1028.2,2166.4L1028.2,2166.4z M1070.7,2166.3c-37.1,24.9-11.6-26-0.5-15.6
		C1096.4,2149,1071.5,2162,1070.7,2166.3z M1178,2175.1C1127.6,2178.8,1172.7,2148.4,1178,2175.1L1178,2175.1z M1152.8,2144.4
		c-1.5,25.5-22.6,5.9-26.9,12.9C1094.4,2166.7,1161.3,2122.5,1152.8,2144.4z M1117.8,2106C1153,2124.3,1113.7,2124.2,1117.8,2106
		L1117.8,2106z M1152.7,2108.6c-14.9-9.7-13.2-8.6-10.1-14.3C1155.5,2104.8,1153.5,2101.1,1152.7,2108.6z M1093.5,2080.5
		c2.4,119.2-18.2-4.5-9.2,3.1C1085.4,2080.3,1088.3,2078.5,1093.5,2080.5z M1068.3,2103.3c3.1,2.9,4.9,5.3,5,6.4
		c-12.4,5.1-25.7-2.6-33.1-14.4C1047.3,2097.1,1059.3,2085.2,1068.3,2103.3z M1120.4,2050.1
		C1164,2074.5,1123.3,2083.7,1120.4,2050.1L1120.4,2050.1z M1114.8,2032.2c2.6,0.4,5.6,2.3,7.1,5.3c1.5,3,1.6,7.1-1.7,11.9
		C1116.6,2055.4,1116.6,2034.8,1114.8,2032.2z M1182,2045.1C1162.3,2094.3,1169.9,2058.2,1182,2045.1L1182,2045.1z M1167,2016.9
		c28.7,11.4-5,16.3,0.1,27.6C1131.1,2079.6,1157.5,2009.9,1167,2016.9z M1075.3,2014.2c0,16.8-13.7,33.5-26,42.6
		C1059,2039,1045.2,1999.1,1075.3,2014.2z M1031.6,2152.2c-0.9,4.9-2.1,9.7-3.6,14.2c0,0,0.1,0,0.1,0
		c-23.7,49.5,10.2,145.2-25.8,56.1c-29.3,41.6-5.9,38.3,9.5,55.5c-50.5-11.9-63.6-16.2-24.4,10.1c71.1,79.1-6,0.4-51.4-8.1
		c-5.1-1.1-9.9-1.4-14.1-0.6c-52.7,2.8-73.3-59-136.4-80.6c-1.8-3.2-3.1-6.7-3.8-10.6c-1.3-7.8-0.3-17.2,4.1-29.6
		c-28.4,25.1-14.7-5.5-39.7-13.1c84-23.1,3.4-101.9,94.9-125.5c-40.5-9.9,17-25.3,18.8-9.5c36.8-21.6,68.1-25.4,93.7-18
		c5.1,1.6,10.1,3.7,14.8,6.3C992.9,2055.4,1013.5,2096.6,1031.6,2152.2z M1142.6,1992.5C1114.3,1985.5,1145.7,1986.4,1142.6,1992.5
		L1142.6,1992.5z M973.8,1983.5c0.9,1.8-0.5,2.4-2.6,4.1c-7.7-5.1-10.8-7.2-11.6-8.9c-0.8-1.6,0.7-2.8,2.5-5.6
		C969.5,1978.9,972.8,1981.7,973.8,1983.5z M945.1,1946.9C944.3,2000.7,937.6,1952.9,945.1,1946.9L945.1,1946.9z M1144.2,1962.6
		c-12.7-7.8-7.6-7.5-4-13.5C1151.6,1959.9,1148.8,1960,1144.2,1962.6z M975.4,1942.5C976.7,1978.6,963,1937.3,975.4,1942.5
		L975.4,1942.5z M917.9,1979.6c-14.4-22.1-9.8-68.5-7.9-81C937.9,1924,926.8,1963.9,917.9,1979.6z M1080.5,1909.4
		c13.4,8.2,14.9,12.2,15.1,18.2C1093.4,1964.5,1065.2,1905.2,1080.5,1909.4z M1160,1919.8c9.8-21.2,25-32.2,31.7-33.5
		C1204.8,1931.1,1169.4,1919.1,1160,1919.8z M1195.7,1870.9c-28.4-5.8,12.7-6.8,12.5-10.8C1219.9,1868,1195.1,1869.7,1195.7,1870.9z
		 M1171.4,1853.7c-3.1-16.5,17.6-19.7-3.5-33.6C1185.4,1816.3,1200.4,1830.3,1171.4,1853.7z M1117.1,1816.2
		C1112.2,1840.3,1109.5,1813.8,1117.1,1816.2L1117.1,1816.2z M1058.4,1799.1C1048.6,1827.6,1050.7,1794.6,1058.4,1799.1
		L1058.4,1799.1z M1167.8,1790.4C1211.8,1826.5,1141.7,1794.1,1167.8,1790.4L1167.8,1790.4z M1045.6,1784.8
		c-7.2,19.3-15.6-4.1-24.7-9.4C1004.3,1742.6,1047.4,1780.6,1045.6,1784.8z M1057.7,1759C1026.8,1775.6,1050.4,1749.4,1057.7,1759
		L1057.7,1759z M1155.7,1755c-12,8.1-11.7,5.9-14.1,1C1161.4,1728.7,1165.7,1745.1,1155.7,1755z M1178.5,1734.4
		C1182.7,1704.2,1193.8,1739.7,1178.5,1734.4L1178.5,1734.4z M1143.7,1735.2c-5.5-2.3-1.1-6.6-1.7-8
		C1164.4,1678.6,1163.1,1731.9,1143.7,1735.2z M1048.4,1718.3c2.7-8.9-3.4-7.5,2.7-8.9C1051.9,1753,1050.6,1720.2,1048.4,1718.3z
		 M1069.1,1728.3C1089.9,1731.2,1067,1734,1069.1,1728.3L1069.1,1728.3z M1112.9,1699.2C1101.3,1736,1106.3,1697.3,1112.9,1699.2
		L1112.9,1699.2z M1031.5,1749c-15.1-35.9-10.1-31.4-33.3-46.1C1013.2,1678.5,1051.5,1740.3,1031.5,1749z M1120.5,1683.1
		C1149.4,1708.4,1117.4,1691.5,1120.5,1683.1L1120.5,1683.1z M1083.3,1685.2c-13-6-7.2-10.3-4.4-12.6
		C1094.7,1678.6,1086.2,1683.4,1083.3,1685.2z M1214.7,1679.3C1179.9,1666.2,1219.1,1671.2,1214.7,1679.3L1214.7,1679.3z
		 M1156.8,1662.8c-25.2,19.6-34.9-15.6-18.1-5.4C1152.2,1652.4,1154.7,1656.4,1156.8,1662.8z M922,1651.5
		C953.7,1664.4,918.4,1658.3,922,1651.5L922,1651.5z M745.1,1654.3C722.1,1627.8,753,1646.7,745.1,1654.3L745.1,1654.3z
		 M827.9,1644.5C814.2,1661,823.2,1640.2,827.9,1644.5L827.9,1644.5z M956.2,1637.7c0-0.1,0.1-0.1,0.1-0.2c-0.1,0-0.2,0-0.3,0
		L956.2,1637.7C856.5,1579.9,1102.4,1617.3,956.2,1637.7z M1037.9,1629.1c-5.2-10.6-2.4-12.5,2.9-13.8
		C1062,1639.2,1030.7,1648.7,1037.9,1629.1z M1068.7,1620.8C1043.4,1650.2,1062.4,1621,1068.7,1620.8L1068.7,1620.8z M1176.4,1637.6
		C1153.5,1661.2,1177.3,1610.9,1176.4,1637.6L1176.4,1637.6z M1200.3,1626.9C1188.9,1653.4,1195,1623.6,1200.3,1626.9L1200.3,1626.9
		z M1120,1635.8c-13.9,11.4-12.8,8-14.8,2C1123.5,1595.3,1133.4,1621.5,1120,1635.8z M1093.3,1626.9c-2.8-19.1-4.7-23.4-7.8-28.3
		C1117.9,1576.6,1096.5,1630,1093.3,1626.9z M1152.6,1599.6c-3.1-15.5-5-13.6,0.2-16.8C1159.9,1598.3,1157.2,1597.2,1152.6,1599.6z
		 M912,1583.2C877.6,1556.8,938.4,1581.2,912,1583.2L912,1583.2z M1113.6,1569.7C1067.3,1545.8,1119.3,1564.6,1113.6,1569.7
		L1113.6,1569.7z M1171.4,1563.1C1152.2,1562.3,1173.9,1553.2,1171.4,1563.1L1171.4,1563.1z M1151.3,1558.4
		c-7.8,16.1-11.8,6.8-14.3,3.1C1144,1546,1148.1,1554.5,1151.3,1558.4z M1043.1,1550.6C1105.8,1544.8,1042.7,1579,1043.1,1550.6
		L1043.1,1550.6z M1043.1,1550.3C1043.1,1550.3,1043.1,1550.3,1043.1,1550.3C1029.2,1516.5,1068.6,1533,1043.1,1550.3z
		 M1194.5,1537.3C1183.1,1569.7,1184.7,1533.1,1194.5,1537.3L1194.5,1537.3z M1137.8,1535.3
		C1099.1,1520.3,1140,1529.4,1137.8,1535.3L1137.8,1535.3z M1004,1565.9c51.2-4.7-40.4,37.5-29-9.1c-32.2-6.4,32.8,22.9,29.5-45.1
		c0,0.1,0,0.2-0.1,0.2C1033,1516.3,999.6,1559.5,1004,1565.9z M1153.9,1506.7C1115.5,1525,1144.1,1481.7,1153.9,1506.7
		L1153.9,1506.7z M1077.3,1506.4c-11-10.4-8-10.2-4-13.7C1084.6,1501.1,1081.3,1502.8,1077.3,1506.4z M1154.4,1506.9
		C1203.1,1518.7,1152,1531.3,1154.4,1506.9L1154.4,1506.9z M1196,1500.1C1198.7,1549.6,1188.2,1499,1196,1500.1L1196,1500.1z
		 M1226,1502.1C1180.2,1481.9,1227.5,1481.2,1226,1502.1L1226,1502.1z M1144.9,1484.9C1178.6,1489.1,1142.4,1492.1,1144.9,1484.9
		L1144.9,1484.9z M1004.5,1511.4C956.8,1466.8,1017.7,1478.7,1004.5,1511.4L1004.5,1511.4z M918.8,1481.4
		C899.2,1525.4,912,1475.3,918.8,1481.4L918.8,1481.4z M833,1483.4c-7.4-1.2-12.8,6.8-19.2,0.9c15.1-2.7,14.6-17.4,20.9-27
		C847.6,1482.7,843.6,1483.2,833,1483.4z M850.9,1463.3C865.5,1481,849.2,1468,850.9,1463.3L850.9,1463.3z M1212.4,1471.8
		c-19-5.4-9.9-8.7-5.7-12.5C1225.6,1466,1216.4,1468.8,1212.4,1471.8z M1152.6,1467.6C1206.7,1470.4,1150.9,1472.2,1152.6,1467.6
		L1152.6,1467.6z M984.5,1471.1c-18.5-29-39-43.3-23.3-49.1C998.9,1446,1010.9,1452.2,984.5,1471.1z M1189.6,1445.7
		C1213.6,1405.5,1201.3,1455.5,1189.6,1445.7L1189.6,1445.7z M1226.2,1443.3C1178.3,1399.4,1229.7,1398.3,1226.2,1443.3
		L1226.2,1443.3z M1190.6,1402.8c-6.2,22-10.6,14-15.8,8.4C1182.7,1391.4,1187.7,1399.2,1190.6,1402.8z M1107.9,1398
		C1077.3,1383,1110.3,1393.7,1107.9,1398L1107.9,1398z M1125.7,1385.7C1095.4,1373.7,1128.9,1379.8,1125.7,1385.7L1125.7,1385.7z
		 M1211,1373.6c-23-0.8-19.8-5.6-14.8-10.8C1253.2,1376.7,1225.1,1395.2,1211,1373.6z M1171.9,1364.6
		C1142.4,1350.1,1175.5,1357.2,1171.9,1364.6L1171.9,1364.6z M1212.3,1351c-31.9-4-48.4-8.4-27.5-12.6
		C1191.5,1346.4,1206.5,1337.8,1212.3,1351z M1137.3,1334.5c9.8-15.4,14.7-16.8,19.7-19C1183.6,1323.5,1134.6,1341.7,1137.3,1334.5z
		 M1194.5,1329.5c-20.6-5-14.5-9.7-9.4-14.4C1202.7,1326.8,1200.5,1324.6,1194.5,1329.5z M1207.5,1285.6
		C1202.8,1310.3,1203.7,1284,1207.5,1285.6L1207.5,1285.6z M1173.4,1303.7c-2.1-12.7,13.9-19.4,14.1-23
		C1207.6,1288.7,1175.2,1296.6,1173.4,1303.7z M1149.5,1279.3C1183.6,1252,1160,1297.6,1149.5,1279.3L1149.5,1279.3z M1236,1260.5
		c-12.9,21.1-11.7,13.4-22.8,10.2C1232.5,1256.1,1227.8,1256.9,1236,1260.5z M1221.3,1221.5
		C1260.8,1253.2,1199.1,1253.3,1221.3,1221.5L1221.3,1221.5z M1178.3,1177.7C1210.7,1191.6,1124.8,1243.4,1178.3,1177.7
		L1178.3,1177.7z M1044.8,1183C1084.2,1181,1045.9,1187.7,1044.8,1183L1044.8,1183z M1142.9,1209.2c-17.1-12.5-14.4-9.4-9.2-13.4
		C1151.1,1203.4,1147.3,1204.7,1142.9,1209.2z M1064.5,1209.3c12.9-16.4,24.9-4.3,33.4-14C1120.5,1200.6,1070.4,1227,1064.5,1209.3z
		 M1202.2,1193.7c11.2,18.4-10.3,38-12.9,21.7C1196.4,1210.7,1195.9,1200.3,1202.2,1193.7z M1221.6,1220.8
		C1199.6,1115.9,1239.9,1196.9,1221.6,1220.8L1221.6,1220.8z M1178.3,1177C1137.3,1143.9,1182.3,1126.8,1178.3,1177L1178.3,1177z
		 M1094.9,1140.8C1097.6,1174.4,1087,1138.9,1094.9,1140.8L1094.9,1140.8z M1147.9,1152C1121.4,1141.2,1152.4,1145.8,1147.9,1152
		L1147.9,1152z M1206.2,1157.6C1177.2,1147.4,1210.4,1145,1206.2,1157.6L1206.2,1157.6z M1234,1134.9
		C1198.2,1167.9,1213.1,1133.6,1234,1134.9L1234,1134.9z M1247.6,1114.8c-16.2,11.4-8.2,2-16.7-0.2
		C1258.2,1092.1,1261,1106.1,1247.6,1114.8z M1194.5,1105.9C1212.1,1116.3,1191.8,1111.7,1194.5,1105.9L1194.5,1105.9z
		 M1182.8,1124.9c-45,2-8.7-12.3-16.5-35.3C1202.3,1114.5,1172.5,1120.1,1182.8,1124.9z M1128.5,1102.4c5.9,13.7,7.5,17.3,10.4,21.1
		C1114.5,1135.1,1118.7,1103.5,1128.5,1102.4z M1221.1,1096.8c-16.5-5.4-6-8-4.1-10.1C1229.8,1090,1224.6,1095.3,1221.1,1096.8z
		 M1188,1085.4c-26.9-8.3,0.3-8.8,1.3-12.4C1213.4,1072,1187.3,1088.9,1188,1085.4z M1143.5,1061.4c10.6,38.6-33.6-10.9-31.6-20.8
		C1123.2,1026.4,1141.2,1060.6,1143.5,1061.4z M1144.3,1027.4c18,19.4,16.6,16.4,2.9,17.6
		C1151.3,1038.3,1124.7,1036.6,1144.3,1027.4z M1099.9,1077.2C1068.2,1056.4,1103.9,1070.8,1099.9,1077.2L1099.9,1077.2z
		 M1243.2,1037.1c-3.1-16-1.8-14.4,3.3-15.7C1253.9,1034.8,1248.7,1032.2,1243.2,1037.1z M1225.6,1055.2
		c13.2-59.6,14.7,70.3-41.3-15C1176.9,993.6,1188.5,985.9,1225.6,1055.2z M1144.2,984.2c7.9,53.6,32.7,29.2-0.1,42.7
		C1134.2,1006.7,1137.7,985.1,1144.2,984.2z M1097.7,997.5c8.1-46,16.3-30.3,30.1-14.6C1115.2,991.6,1104.2,1011.4,1097.7,997.5z
		 M1227.3,994.6C1211.2,1017.9,1221.4,990.4,1227.3,994.6L1227.3,994.6z M1193.2,993.1c-13.8-5-7.1-6.7-4.6-11.4
		C1218.2,995.9,1206,997,1193.2,993.1z M1144.8,983.7C1178.2,941.9,1169.6,984.7,1144.8,983.7L1144.8,983.7z M1245,967.3
		C1217.3,968,1248.8,959,1245,967.3L1245,967.3z M1054,1082.7c14.2,60.8-50.7,116-4.1,116.3c-2,35.9-45.2-4.5-48,49.5
		c5,7.1-16,44-123.3,117c0.1-4.6,0.2-9.2,0.3-13.7l0.4,0.4c-0.1-0.2-0.1-0.3-0.2-0.5c-39.9-39.4-10.1-43.1-12.7-77.8
		c36.9,3.4,21.2-49.4-2.1-2.9c23.1-5.7-117.5-64.5-31.9-61.6c-42-20.9-17.4-74.2-49.2-44.4c-82-47.4,56-22.3,4.1-69.7
		C802.2,964.8,932.8,821.4,1054,1082.7z M1131.8,956.5c11.1-16,9.6-13,15.4-7C1134.9,964.3,1136.5,962.1,1131.8,956.5z
		 M1240.7,936.5C1219.6,968.1,1232.2,932.4,1240.7,936.5L1240.7,936.5z M1246.8,917.3c-6.2,13.7-11.1,8.4-13.4,4.1
		C1237.8,903.5,1243.6,914.4,1246.8,917.3z M1211.6,909.3C1162.6,897.9,1207.4,903.8,1211.6,909.3L1211.6,909.3z M1221.6,899.6
		c-19.2-14.5-13.4-12.8-7.4-19.1C1230.1,895.7,1227.2,892.7,1221.6,899.6z M1240.4,881.5c-32.8-16.7-0.5-36.7,10.2-33
		C1243.4,858.4,1230.5,866.6,1240.4,881.5z M1251,848.4C1256.6,792.9,1296.5,875.8,1251,848.4L1251,848.4z M1169.5,834.5
		c6.2-13.1,10.3-13.3,14.2-14.4C1208.8,836.1,1163.7,849.2,1169.5,834.5z M1241.2,802.3C1222.1,835.4,1220.5,806.2,1241.2,802.3
		L1241.2,802.3z M1277.2,800.9C1263.6,833.3,1271.9,803.5,1277.2,800.9L1277.2,800.9z M1218.2,799.3
		C1258.2,760.3,1216.1,815.2,1218.2,799.3L1218.2,799.3z M1279.3,780.4C1242.4,793.9,1266.4,766.6,1279.3,780.4L1279.3,780.4z
		 M1279.7,780.3C1282.5,750,1298.1,779.3,1279.7,780.3L1279.7,780.3z M1215.3,780.2c-6.3,11.8-16.4-7.4-17.9-5.3
		C1176.9,738.3,1215.4,769,1215.3,780.2z M1252.5,747.8C1239.3,779.3,1243.7,743.6,1252.5,747.8L1252.5,747.8z M1167.2,738.2
		C1163.8,766.9,1156.7,733.9,1167.2,738.2L1167.2,738.2z M1191.6,711.7c10.2,18.4,16.3,4.7,27,4.6
		C1206,754.2,1176.3,726.9,1191.6,711.7z M1271.8,730c-30.3-3.9-85.4-44-60.2-57.5C1234.3,690.2,1259.1,717.5,1271.8,730z
		 M1279.4,669.4C1310.9,684.4,1255.7,705.6,1279.4,669.4L1279.4,669.4z M1279.6,668.9C1253.3,632.5,1297.7,648,1279.6,668.9
		L1279.6,668.9z M1183.4,659.4C1256.5,623.8,1204.4,673.3,1183.4,659.4L1183.4,659.4z M1148.6,658.8
		C1092.8,633,1135.6,626.7,1148.6,658.8L1148.6,658.8z M1221.8,630.2C1280.7,587.7,1240.8,676.3,1221.8,630.2L1221.8,630.2z
		 M1290.6,613.4C1313.7,615.1,1288.5,621.5,1290.6,613.4L1290.6,613.4z M1207.8,607.7C1222.1,573.8,1215.9,612.7,1207.8,607.7
		L1207.8,607.7z M1192.2,596.3c-30.6,17.8-5.6-3-6.1-5.5c9.2-10,6.3-7,9.2-10C1206.8,589.4,1190.6,594.6,1192.2,596.3z
		 M1298.9,567.7C1321.7,626.6,1251,550.7,1298.9,567.7L1298.9,567.7z M1299,567.4C1265.4,490.1,1330.5,551,1299,567.4L1299,567.4z
		 M1215.2,533.2c-15.3-6.3-18.9-1-23.5,2.1C1176.1,516.2,1234.4,515.1,1215.2,533.2z M1238,512.7c-30.4,5-5.9-49.8-3.4-21.1
		C1229.5,509.2,1253.9,499.1,1238,512.7z M1283.9,499.6c-27.9,3.4-56.3-86.7-4.6-28.9C1276.6,481,1284.2,489.7,1283.9,499.6z
		 M1227.8,461.3C1198.6,447.6,1231.1,454.5,1227.8,461.3L1227.8,461.3z M1335.5,471c-7.8,19-10.2,4.2-13.2,1.8
		C1324.2,454.4,1334.5,467.8,1335.5,471z M1279.7,470.6c3.4-25.8,25.6-23.4,42.6-28.8C1302,465.9,1288.8,484,1279.7,470.6z
		 M1344,291.5C1372.9,301,1339.8,299.8,1344,291.5L1344,291.5z M1298.4,305.5c23.2-29.7,33.2-6.2,18.3,5.7
		C1325,324.4,1305.8,342.3,1298.4,305.5z M1322.9,330.6C1381.6,388.7,1310.9,375.4,1322.9,330.6L1322.9,330.6z M1204.3,352.5
		C1241.5,357.1,1199.2,360.9,1204.3,352.5L1204.3,352.5z M1228.7,381.2c-21.3-10.7,44.1-50.7,8.3-8.2
		C1252.3,418.9,1230.2,396.9,1228.7,381.2z M1301.3,398.8c12,5,5.6,7.9,2.9,11.4C1290.5,405.2,1299,401.1,1301.3,398.8z
		 M1165.9,376.3C1154.4,394.3,1159.9,371.6,1165.9,376.3L1165.9,376.3z M1172.5,366c-5.1-30.9,47.9,22.8,39.4,46.3
		C1146.5,413.9,1218.2,379.1,1172.5,366z M1212.8,413c170.8,47.6,30.3-99.7,65-47.1C1408.1,399.8,1261,498.7,1212.8,413z
		 M1204.1,429C1195,450.4,1198.3,425.1,1204.1,429L1204.1,429z M1130.1,436.8C1165.8,436.7,1133.6,447.5,1130.1,436.8L1130.1,436.8z
		 M1158.6,456.8c8.8-5.1,17.7-10.2,26.6-15.4C1183.6,457.1,1162.5,463.8,1158.6,456.8z M1179,484.4c-2.7-53.9,61.9-10.6-0.1,0.2
		C1178.9,484.5,1178.9,484.4,1179,484.4z M1178.8,484.8c5.4,6.6,17.5,13.5-0.5,19.4C1174.5,497.6,1173.7,491.1,1178.8,484.8z
		 M1178,504.3C1173.1,557.4,1141.1,474.7,1178,504.3L1178,504.3z M1096.2,490.1c21.8,5.1,25.9,17.1,16.7,23.1
		C1107.9,505.1,1094.4,503.1,1096.2,490.1z M1056.3,497.2c-8.9,20.4-14.6-4.9-8.8-5C1103.4,507.2,1050.7,532.7,1056.3,497.2z
		 M1134.5,518.8c20.8,18.5,7.6,17.5,5.3,30.2C1112.7,572.4,1137.7,521.2,1134.5,518.8z M982.6,516.9
		C946.6,500.3,985.6,510.4,982.6,516.9L982.6,516.9z M959.2,484.5c-25.7,26.4-24.8-17.8-12.8-6.8
		C957.9,475.5,959.1,478.8,959.2,484.5z M922.4,451.9c5.6-29,14.2,7.6,15.8,8.7C928.4,479,922.8,447.9,922.4,451.9z M789.7,460.9
		c-16.4-11.4-13.7-9.3-9.2-13.8C796.3,459.1,794.6,456.6,789.7,460.9z M737.6,374C734.1,407.1,731.5,371.2,737.6,374L737.6,374z
		 M675.5,415.4C654.2,394.1,676.5,405.6,675.5,415.4L675.5,415.4z M779.9,407.7C758.7,385.2,789,386.1,779.9,407.7L779.9,407.7z
		 M826.8,414.2 M806.7,376.9 M793.8,328.7 M807.1,313.1c-2.1-2.2-4.2-5.5-4.8-8.8c-0.7-3.2,0.2-6.3,4.2-7.9
		C806.5,296.4,806.5,296.4,807.1,313.1z M806.3,295.9c0,0.1,0,0.1,0.1,0.2c-36.1-18.1-22.8-16.9-5.2-29.1
		C801.5,276.9,814.7,284.5,806.3,295.9z M779.4,258.6c-76.8-2-41-8.2-13.4-16.7C778.6,252.1,776.7,251.6,779.4,258.6z M782.2,224.8
		C819.6,272,751.2,215.2,782.2,224.8L782.2,224.8z M749.3,121.2c4.2,6.2,7.8,15.4,7.4,16.2C745.5,138.4,745.5,138.4,749.3,121.2z
		 M796.7,174.9C773.9,229.3,740.1,142.8,796.7,174.9L796.7,174.9z"/>
	<path class="st0" d="M1112.8,2569.3c-0.1-3.4-0.3-6.1-0.6-8.2c-1.1-0.5-2.4-1-3.9-1.4c-0.6,1.9-1.3,4.6-1.9,7.6
		C1108.5,2568.9,1110.8,2569.4,1112.8,2569.3z"/>
	<path class="st0" d="M1228.9,2311.3c20.1-69.3-33.1-54.2-36.8-25.2l1,0.8C1232.1,2270.2,1220.7,2300.5,1228.9,2311.3z"/>
	<path class="st0" d="M1265.3,2761.3C1275.9,2791.2,1283.4,2743.4,1265.3,2761.3L1265.3,2761.3z"/>
	<path class="st0" d="M1174.2,2117C1183.9,2165.3,1188.4,2123.9,1174.2,2117L1174.2,2117z"/>
	<path class="st0" d="M1174.2,2117c0-0.2-0.1-0.4-0.1-0.6c-0.2,0-0.4,0.1-0.6,0.1c0.1,0.1,0.1,0.1,0.2,0.2
		C1173.9,2116.8,1174,2117,1174.2,2117z"/>
	<path class="st0" d="M785,126.2c-2.7,3.5-5.3,7-7.1,9.4C792.1,162.4,788.9,125.8,785,126.2z"/>
	<path class="st0" d="M931.4,1332.6C877.1,1238,894.9,1332.7,931.4,1332.6L931.4,1332.6z"/>
	<path class="st0" d="M878.9,1316.9c11.7,11.5-6.3,23.3,0.2,34.8C911.6,1334.3,892.9,1310.3,878.9,1316.9z"/>
	<path class="st0" d="M911.7,1282.1c21.5-9.2,0.2-12.9-1.5-15.5C904.6,1274.2,907.3,1283.6,911.7,1282.1z"/>
	<path class="st0" d="M956.4,1637.5C1031.4,1628.6,973.2,1603,956.4,1637.5L956.4,1637.5z"/>
	<path class="st0" d="M1115.1,2441.6C1068.1,2468.7,1122.4,2469.3,1115.1,2441.6L1115.1,2441.6z"/>
</g>
</svg>
