<svg xmlns="http://www.w3.org/2000/svg" xmlns:xlink="http://www.w3.org/1999/xlink" viewBox="0 0 2208.5 2208.5"><defs><style>.cls-1,.cls-2{fill:none;}.cls-1,.cls-3,.cls-5{stroke:#ffab00;stroke-miterlimit:10;}.cls-1,.cls-3{stroke-width:8.5px;}.cls-3,.cls-5{fill:#0b1a16;}.cls-4{clip-path:url(#clip-path);}.cls-5{stroke-width:7.84px;}.cls-6{clip-path:url(#clip-path-2);}</style><clipPath id="clip-path"><circle class="cls-1" cx="1393" cy="1104.25" r="553.13"/></clipPath><clipPath id="clip-path-2"><path class="cls-2" d="M1104.25,1657.38c-305.48,0-553.13-247.65-553.13-553.13s247.65-553.13,553.13-553.13c2.62,0,5.23.07,7.84.1V4.35c-2.61,0-5.22-.1-7.84-.1-607.51,0-1100,492.49-1100,1100s492.49,1100,1100,1100c2.62,0,5.23-.08,7.84-.1V1657.28C1109.48,1657.31,1106.87,1657.38,1104.25,1657.38Z"/></clipPath></defs><g id="Warstwa_2" data-name="Warstwa 2"><g id="Warstwa_4" data-name="Warstwa 4"><circle class="cls-3" cx="1104.25" cy="1104.25" r="1100"/><g class="cls-4"><line class="cls-1" x1="1104.25" y1="2200.77" x2="1104.25" y2="4.25"/><line class="cls-1" x1="996.6" y1="2195.49" x2="1211.9" y2="9.54"/><line class="cls-1" x1="889.99" y1="2179.67" x2="1318.51" y2="25.35"/><line class="cls-1" x1="785.44" y1="2153.48" x2="1423.06" y2="51.54"/><line class="cls-1" x1="683.96" y1="2117.17" x2="1524.54" y2="87.85"/><line class="cls-1" x1="586.53" y1="2071.09" x2="1621.97" y2="133.93"/><line class="cls-1" x1="494.09" y1="2015.68" x2="1714.41" y2="189.34"/><line class="cls-1" x1="407.52" y1="1951.48" x2="1800.98" y2="253.54"/><line class="cls-1" x1="327.66" y1="1879.1" x2="1880.84" y2="325.92"/><line class="cls-1" x1="255.28" y1="1799.24" x2="1953.22" y2="405.78"/><line class="cls-1" x1="191.08" y1="1712.67" x2="2017.42" y2="492.35"/><line class="cls-1" x1="135.67" y1="1620.23" x2="2072.83" y2="584.8"/><line class="cls-1" x1="89.59" y1="1522.8" x2="2118.91" y2="682.23"/><line class="cls-1" x1="53.28" y1="1421.32" x2="2155.22" y2="783.7"/><line class="cls-1" x1="27.09" y1="1316.77" x2="2181.41" y2="888.25"/><line class="cls-1" x1="11.28" y1="1210.16" x2="2197.22" y2="994.86"/><line class="cls-1" x1="5.99" y1="1102.51" x2="2202.51" y2="1102.51"/><line class="cls-1" x1="11.28" y1="994.86" x2="2197.22" y2="1210.16"/><line class="cls-1" x1="27.09" y1="888.25" x2="2181.41" y2="1316.77"/><line class="cls-1" x1="53.28" y1="783.7" x2="2155.22" y2="1421.32"/><line class="cls-1" x1="89.59" y1="682.23" x2="2118.91" y2="1522.8"/><line class="cls-1" x1="135.67" y1="584.8" x2="2072.83" y2="1620.23"/><line class="cls-1" x1="191.08" y1="492.35" x2="2017.42" y2="1712.67"/><line class="cls-1" x1="255.28" y1="405.78" x2="1953.22" y2="1799.24"/><line class="cls-1" x1="327.66" y1="325.92" x2="1880.84" y2="1879.1"/><line class="cls-1" x1="407.52" y1="253.54" x2="1800.98" y2="1951.48"/><line class="cls-1" x1="494.09" y1="189.34" x2="1714.41" y2="2015.68"/><line class="cls-1" x1="586.53" y1="133.93" x2="1621.97" y2="2071.09"/><line class="cls-1" x1="683.96" y1="87.85" x2="1524.54" y2="2117.17"/><line class="cls-1" x1="785.44" y1="51.54" x2="1423.06" y2="2153.48"/><line class="cls-1" x1="889.99" y1="25.35" x2="1318.51" y2="2179.67"/><line class="cls-1" x1="996.6" y1="9.54" x2="1211.9" y2="2195.49"/><line class="cls-1" x1="1104.25" y1="4.25" x2="1104.25" y2="2200.77"/></g><circle class="cls-1" cx="1393" cy="1104.25" r="553.13"/><circle class="cls-5" cx="1104.25" cy="1104.25" r="553.13"/><g class="cls-6"><line class="cls-1" x1="1104.25" y1="2200.77" x2="1104.25" y2="4.25"/><line class="cls-1" x1="996.6" y1="2195.49" x2="1211.9" y2="9.54"/><line class="cls-1" x1="889.99" y1="2179.67" x2="1318.51" y2="25.35"/><line class="cls-1" x1="785.44" y1="2153.48" x2="1423.06" y2="51.54"/><line class="cls-1" x1="683.96" y1="2117.17" x2="1524.54" y2="87.85"/><line class="cls-1" x1="586.53" y1="2071.09" x2="1621.97" y2="133.93"/><line class="cls-1" x1="494.09" y1="2015.68" x2="1714.41" y2="189.34"/><line class="cls-1" x1="407.52" y1="1951.48" x2="1800.98" y2="253.54"/><line class="cls-1" x1="327.66" y1="1879.1" x2="1880.84" y2="325.92"/><line class="cls-1" x1="255.28" y1="1799.24" x2="1953.22" y2="405.78"/><line class="cls-1" x1="191.08" y1="1712.67" x2="2017.42" y2="492.35"/><line class="cls-1" x1="135.67" y1="1620.23" x2="2072.83" y2="584.8"/><line class="cls-1" x1="89.59" y1="1522.8" x2="2118.91" y2="682.23"/><line class="cls-1" x1="53.28" y1="1421.32" x2="2155.22" y2="783.7"/><line class="cls-1" x1="27.09" y1="1316.77" x2="2181.41" y2="888.25"/><line class="cls-1" x1="11.28" y1="1210.16" x2="2197.22" y2="994.86"/><line class="cls-1" x1="5.99" y1="1102.51" x2="2202.51" y2="1102.51"/><line class="cls-1" x1="11.28" y1="994.86" x2="2197.22" y2="1210.16"/><line class="cls-1" x1="27.09" y1="888.25" x2="2181.41" y2="1316.77"/><line class="cls-1" x1="53.28" y1="783.7" x2="2155.22" y2="1421.32"/><line class="cls-1" x1="89.59" y1="682.23" x2="2118.91" y2="1522.8"/><line class="cls-1" x1="135.67" y1="584.8" x2="2072.83" y2="1620.23"/><line class="cls-1" x1="191.08" y1="492.35" x2="2017.42" y2="1712.67"/><line class="cls-1" x1="255.28" y1="405.78" x2="1953.22" y2="1799.24"/><line class="cls-1" x1="327.66" y1="325.92" x2="1880.84" y2="1879.1"/><line class="cls-1" x1="407.52" y1="253.54" x2="1800.98" y2="1951.48"/><line class="cls-1" x1="494.09" y1="189.34" x2="1714.41" y2="2015.68"/><line class="cls-1" x1="586.53" y1="133.93" x2="1621.97" y2="2071.09"/><line class="cls-1" x1="683.96" y1="87.85" x2="1524.54" y2="2117.17"/><line class="cls-1" x1="785.44" y1="51.54" x2="1423.06" y2="2153.48"/><line class="cls-1" x1="889.99" y1="25.35" x2="1318.51" y2="2179.67"/><line class="cls-1" x1="996.6" y1="9.54" x2="1211.9" y2="2195.49"/><line class="cls-1" x1="1104.25" y1="4.25" x2="1104.25" y2="2200.77"/></g><circle class="cls-3" cx="1104.25" cy="1104.25" r="553.13"/></g></g></svg>