<svg xmlns="http://www.w3.org/2000/svg" viewBox="0 0 1801 3354"><defs><style>.cls-1{fill:#ff8000;}</style></defs><g id="Warstwa_2" data-name="Warstwa 2"><g id="Warstwa_1-2" data-name="Warstwa 1"><path class="cls-1" d="M1482.8,2269.32c-.27,2.64,2.55,5.71,5.19,5.67,3,0,5.47-2.73,6-6.57a4.94,4.94,0,0,0-3.76-5.44C1486.73,2262.29,1483.21,2265.3,1482.8,2269.32Z"/><path class="cls-1" d="M1503.8,2244.71c3.17.15,5.61-2.75,5.6-6.64a4.61,4.61,0,0,0-4.4-4.84,5.69,5.69,0,0,0-5.63,5.32C1499,2241.76,1501,2244.57,1503.8,2244.71Z"/><path class="cls-1" d="M1463.52,2266.05a4.5,4.5,0,0,0-4.33,4.89,4.15,4.15,0,0,0,5,4,5.74,5.74,0,0,0,3.9-5.54C1467.87,2267.7,1465.6,2266,1463.52,2266.05Z"/><path class="cls-1" d="M1474.07,2293a3.72,3.72,0,1,0-1,7.35,4.22,4.22,0,0,0,4.59-3.22C1478,2295.21,1476.22,2293.22,1474.07,2293Z"/><path class="cls-1" d="M350,2246.5a40.35,40.35,0,0,0-8.52-6.9c-3.31-1.8-6.3-3.49-8.35-6.84-1.17-1.92-3.76-1.9-5.46-.68s-3,3.21-2.3,5.24c.93,2.61,2,5.67,4.08,7.26,4.8,3.73,10.15,6.77,15.35,10,2.48,1.53,6.11-.55,6.59-4.58C351.15,2249.38,351,2247.5,350,2246.5Z"/><path class="cls-1" d="M355,2273.62a4.76,4.76,0,0,0-3.8,5.23c.24,3.27,2.41,5.6,5.09,5.47a4.82,4.82,0,0,0,4.46-4.72C360.92,2275.93,358.27,2273.18,355,2273.62Z"/><path class="cls-1" d="M367.84,2268.56a4.16,4.16,0,0,0,4.34,4.73,4,4,0,0,0,3.75-4c.05-2.89-1.89-5.12-4.28-4.94C369.85,2264.44,368.16,2266.32,367.84,2268.56Z"/><path class="cls-1" d="M350,1117.91c-4-1-8.11-2.16-12.12-2-7.64.4-13.34-3.31-19.09-7.35-2.9-2-5.33-5.55-9.59-3.8-2.31.94-.75,4.62,4.25,10.23a35,35,0,0,0,15.22,10c5.32,1.73,11.32,1.39,18.16,2.07a36.87,36.87,0,0,0,3.61-1c1.78-.64,3.47-3.31,2.75-5A5.88,5.88,0,0,0,350,1117.91Z"/><path class="cls-1" d="M327.48,1095.65c2.72,1.75,5.54,3.33,8.25,5.1,4.87,3.18,10,3.23,15.13,1,1.08-.46,1.81-2.56,2-4,.12-.94-.91-2.15-1.66-3a3.37,3.37,0,0,0-2.12-1.09,19.71,19.71,0,0,1-11.24-4c-1.79-1.38-4.57-1.48-6.22-2-1.15,0-1.56,0-2,0-2.35-.09-4.32,1.1-4.74,3C324.38,1093,325.68,1094.5,327.48,1095.65Z"/><path class="cls-1" d="M1704.15,1640.15c-1.41-6.77-4.74-12.27-11.24-15.42-4.08-2-8.05-4.22-12.2-6a91.21,91.21,0,0,0-13.83-5.26c-22.51-5.7-43.29.13-63.33,10.16a14.86,14.86,0,0,0-3.77,3.11c-1.53,1.58-1.63,5.12-.2,6.91s3.44,2.09,5.58,1.36c.77-.27,1.52-.63,2.27-1,5.87-2.64,11.72-2.49,18.1-1.48,10,1.57,19,5.53,28.2,9.12a26.94,26.94,0,0,1,12.94,9.81l-12.31,18.71H1638q-123.93.11-247.86.19-69.4,0-138.8,0c-3.2,0-6.64,1-9.92-1.86a22.88,22.88,0,0,1-.77-4.31q0-22.93.28-45.86c0-1.13.73-2.26,1.33-4,8.65-1.88,17.44-3.92,26.28-5.69q85.6-17.14,171.22-34.2,92.89-18.59,185.79-37.17c4-.79,8-1.12,11.53-1.59a12.54,12.54,0,0,1,1.3,1.62,9.38,9.38,0,0,1,.87,2.29c1.28,7.94,4.73,9.62,11.89,9.64.83,0,1.65,0,2.48.06,10.84.1,15-3.15,17.48-13.49a24.09,24.09,0,0,0,.1-11c-1.37-6.44-2.46-13-3.57-19.45-1.39-8.08-6.22-13.35-13.61-16.25-7-2.74-12.9.36-15.65,7.41-3.16,8.1-4.44,16.62-5.52,24.69a17.92,17.92,0,0,1-2.66,1.66,34.29,34.29,0,0,1-4.75,1.36q-190.65,38-381.3,76a2.32,2.32,0,0,1-1.23-.05c-.35-.14-.62-.51-1.64-1.43a52.14,52.14,0,0,1-.61-6.44c.2-16.46-.65-32.94.36-48.61a25.23,25.23,0,0,1,2.55-2.4,20.47,20.47,0,0,1,3.25-1.77q175-72.75,350.07-145.45a2.72,2.72,0,0,1,1.21-.11,13.66,13.66,0,0,1,1.67.41,33.91,33.91,0,0,0,2.16,3.92c3.29,4.67,5.69,5.46,10.3,2.34a35.19,35.19,0,0,1,12.42-5.27,22.33,22.33,0,0,0,11.73-6.52c7.24-7.63,5.44-19.2-3.8-24a21.39,21.39,0,0,0-4.6-1.82c-6.8-1.71-13.58-3.57-20.46-4.85-4.94-.92-9.89-.37-14.25,2.67-3.75,2.62-5.53,6.18-4.67,10.67.6,3.16,1.77,6.22,2.73,9.46-4.06,3.64-8.92,4.95-13.39,6.83q-53.67,22.55-107.45,44.87-91.49,38.12-183,76.2-20,8.33-40.07,16.54c-1.79.73-3.67,2-6.42-.25a47.78,47.78,0,0,1-.59-5.26q-.47-25.41-.83-50.81c-.19-13.36.06-12.74,10.79-19.93q58.16-39,116.25-78.06,74.57-50.12,149.12-100.24c2.7-1.81,5.61-3.31,7.28-4.28,6.62,1,11.87,1.87,17.15,2.4,3.62.36,6.33-1.53,8.11-4.66a61.22,61.22,0,0,0,6.94-19.79c1.1-6.16-1.77-11.26-5.56-15.83a7.47,7.47,0,0,0-3.11-1.92c-6.69-2.43-13.65-.88-17.84,4.74a46.63,46.63,0,0,0-7.08,12.93,25.14,25.14,0,0,1-12,14.94c-2.15,1.21-4.08,2.81-6.13,4.19q-79.18,53.23-158.36,106.47-48.84,32.86-97.66,65.74c-2,1.3-3.71,3.5-7.25,2.1a52.12,52.12,0,0,1-.87-5.56c-1.51-24.31-1.65-48.73-5.68-72.84-.13-.82-.11-1.65-.2-2.47a8.69,8.69,0,0,1,3-7.76c2.1-2,4.08-4.1,6.13-6.15q26.73-26.71,53.47-53.45,64.37-64.47,128.72-129c2-2,4.21-3.84,6.56-6,1.62,1,2.92,2,4.33,2.78,11.83,6.32,22.25,16.2,37.19,14.72a5.48,5.48,0,0,1,2.38.6c7.58,3,15.49,1.78,23.3,2,5.55.16,9.13-2.45,12.38-6.74,5.58-7.39,6.43-16.15,7.1-24.65,1.13-14.39.93-28.87,3.2-43.19.57-3.62-.65-7-4.09-8.22-6.44-2.37-9.57-7.5-12.41-13.08-1.49-3-2.94-5.92-4.47-8.85-3.86-7.41-10.12-11.86-18-14.06-4-1.11-8.06-1.72-12.1-2.59-14.21-3-28.8-2-43.12-4-5.84-.83-9.65,2.5-12.31,8.24-4.72,10.19-8.14,20.62-7.62,32.05a22.46,22.46,0,0,1-.77,6.13c-1.24,5.17.19,9.59,2.72,14.15,5.58,10.08,10.72,20.4,16.12,30.8-1.88,2.2-3.35,4.17-5.07,5.9q-93.6,93.9-187.28,187.75c-.53.53-1.48.64-2.91,1.21a88.36,88.36,0,0,1-3.54-8.83c-3.8-13.19-10.26-25.22-16.15-37.5a17.4,17.4,0,0,0-2.07-3.07c-1.44-1.85-5.15-2.08-6.65-.35a29.6,29.6,0,0,0-2.89,4,152.84,152.84,0,0,0-17.81,40.73,288.56,288.56,0,0,0-6.14,29.06c-1.63,10.59-2.26,21.34-3.51,32-.95,8.17-4.73,11.78-13,11.85-20.24.18-40.48.09-60.73,0-1.39,0-2.78-.91-4.48-1.5,2.74-7.34,7.56-12.57,11.42-18.37q47.72-71.71,95.5-143.38,60.53-90.72,121.06-181.45c2.81-4.22,5.68-7.38,10.81-9.35,10-3.83,15.35-12,17.42-22.48a12.72,12.72,0,0,0-2.45-10.51c-4.43-5.91-10.79-7.68-17.64-6.66a35.17,35.17,0,0,0-15.85,6.65c-1.91,1.43-4,3.43-4.64,5.57-2.09,7.53-4.4,15.25.73,22.65a21.59,21.59,0,0,1,1.82,4.08c-6.41,11.88-228.74,345-236.12,353.88-11.93,1.72-41,1.41-49-.52-2.87-4.33-1.72-8.58.1-12.92,5.72-13.72,11.35-27.47,17-41.21q31.68-76.74,63.34-153.48,29.29-71,58.55-142c7.24-17.57,14.42-35.16,21.78-52.68,1.4-3.34,2.07-7.24,6.14-9.91,5.19.4,10.87-.22,15.56-4.22,6.88-5.88,13.29-12.24,21.34-16.79,4.92-2.78,5-10.2.81-14a23.54,23.54,0,0,0-8.23-5.29,50.53,50.53,0,0,1-20.2-11.47,16.66,16.66,0,0,0-8.89-3.81,55.14,55.14,0,0,0-13.52.19c-7.27.87-11.8,5.56-14.46,12.07a45.17,45.17,0,0,0-2.3,8.36c-1.75,8.92,0,16.44,8.78,21,3.33,1.76,6.32,3.89,7.1,8.45-1,2.75-2.15,5.86-3.41,8.9q-38.7,93.94-77.43,187.89-25.73,62.43-51.44,124.87c-7.72,18.7-15.57,37.36-23.37,56-.64,1.53-1.49,2.88-3.67,2-2.17-9.56-4.53-19.15-6.49-28.82-2.46-12.14-4.16-24.44-6.95-36.49-3.44-14.88-7.29-29.68-11.71-44.29a38.61,38.61,0,0,1-1-19.42q15.57-78.36,31-156.75c6.3-32,12.5-64,18.81-96,2.62-13.34,5.41-26.64,8.07-39.71a34.47,34.47,0,0,1,5.06-2.38c5.43-1.46,7.77-5.33,9.52-10.37,2.16-6.19,1-11.31-3.09-16.07-1.62-1.88-3.42-3.62-4.86-5.62-7.42-10.36-19.19-9.92-27.84-6.7a10.36,10.36,0,0,0-7.07,7.88,75.85,75.85,0,0,0-1.81,19.68c.2,5.52,3,9.34,7.9,11.6,2.54,1.16,5.18,2.11,8.16,3.3-.35,2.48-.55,4.48-.93,6.45q-10.86,55.93-21.77,111.87-9.59,49.23-19.16,98.47c-3.24,16.61-6.49,33.22-9.88,49.81-.51,2.5-.36,5.64-3.79,7.21-4.33-8.39-7.49-16.88-10.66-25.37-1.44-3.86-2.95-7.7-4.37-11.57q-5.1-14-10.15-27.93c-1.67-4.65-3.25-9.35-4.88-14q-3.25-9.36-6.51-18.71c-2-5.85-4-11.72-6-17.56-5.63-16-11.69-31.8-16.81-47.93-3.39-10.67-6.72-21.25-12.9-30.67a18.19,18.19,0,0,1-2.94-10.5c.08-26.45,0-52.9.08-79.35a70.31,70.31,0,0,1,.65-7c5.81-3.94,11.78-7.06,16.53-11.48s8.22-10.11,11.74-14.6c7.26-2.25,13.95-4.24,20.58-6.4A19.55,19.55,0,0,0,968.9,882c3.35-9.23,4.1-18.67,0-27.74a71.39,71.39,0,0,0-9.67-15.8c-9-10.93-20.46-17.85-35.1-18.35-5.37-.19-10.74-.28-16.09-.66-9.74-.7-18.75,1.62-27.53,5.71-19.85,9.24-35.18,23-43.7,43.48a55.19,55.19,0,0,0-4.11,15.45c-.74,7.36-.23,14.85-.39,22.28-.12,6.09,2.67,10.09,8.05,12.74,12.4,6.09,25.32,10,39.24,10.1,4.09,0,8.18,0,11.53,0,3.45,3.43,2.64,6.9,2.65,10.12.08,24,0,47.93.18,71.89a30.74,30.74,0,0,1-4,15.28c-3.69,6.89-7.32,14-9.51,21.45-5.74,19.43-12.95,38.32-19.85,57.33-5.36,14.74-10.85,29.46-15.37,44.46-6.34,21-15.05,41.07-23,61.45a29.13,29.13,0,0,1-2.12,4.48,17.29,17.29,0,0,1-2.68,2.58,42.32,42.32,0,0,1-1.92-5.27c-6.13-30.77-12.16-61.57-18.31-92.34q-16.86-84.42-33.79-168.82c-.95-4.77-2.21-9.57-1.95-14.17a22.9,22.9,0,0,1,3.25-2.84c2.16-1.2,4.43-2.19,6.67-3.24,7.34-3.42,9.39-6.59,9-14.37-.42-8.44-3.66-16.13-7.4-23.45-3.38-6.61-10.63-8-17-4.2-4.72,2.81-8.2,6.82-11.25,11.33s-5.54,9-9.81,12.64c-4.65,3.94-4.68,9.29-2.07,14.72,3.29,6.84,5.52,9.12,15.13,14.61.8,3.16,1.86,6.7,2.59,10.31q7.61,37.64,15.08,75.29,15.72,78.33,31.47,156.66c3.34,16.59,6.65,33.2,10,49.78a38,38,0,0,1-.71,19.52c-3.32,10.63-6,21.48-8.65,32.3-2,8-3.63,16.08-5.23,24.17-1.86,9.31-3,18.79-5.38,28a263.67,263.67,0,0,0-5.59,26.61c-.09.55-1.13,1-1.94,1.61a13.43,13.43,0,0,1-2.12-2.72c-53.44-127.13-106-254.63-158.73-381.21,2.46-5,4.68-8.88,6.37-13,1.87-4.59.67-8.79-2.33-12.74-6.81-9-16.24-12.39-27-13-9-.48-11.72,1.62-14.26,10.24A36.94,36.94,0,0,0,580,961.9c-.76,9,3.94,16.23,12.36,19.18a48.36,48.36,0,0,0,7.12,2.1c4.59.86,7.19,3.53,8.5,7.92a74.24,74.24,0,0,0,2.95,6.82q30.48,73.2,60.94,146.42,30.25,72.63,60.54,145.24c13.5,32.41,26.83,64.89,40.47,97.24,2.68,6.35,3.94,12.63,2.42,19.27-2.06,9-1.86,18.06-2.09,27.12-.28,10.74-.2,21.49-.4,32.23,0,1.79.63,4.07-2.42,5.47-2.08-2.85-4.33-5.72-6.36-8.73q-45.39-67.29-90.72-134.63-41.16-61.17-82.24-122.42-48.36-72-96.72-144c-1.8-2.69-3.25-5.63-4.82-8.38,1-2.36,1.61-4.34,2.58-6.12,3.79-6.94,3.94-14.34,2.34-21.72a66.48,66.48,0,0,0-10.66-24.9,33.07,33.07,0,0,0-15.55-11.72,12.29,12.29,0,0,0-15.73,6.13c-5.32,11.66-7.37,23.71-1.55,35.9,4.15,8.7,9.61,16.57,17.85,21.77a37.65,37.65,0,0,1,11.95,12.24c2.41,3.85,5.2,7.45,7.74,11.22q43.56,64.79,87.12,129.58,36.33,54,72.72,107.91,41.8,62.25,83.44,124.6,17.6,26.25,35.3,52.42c2.34,3.47,4.57,6.91,4.39,11.32-.39,9.91-.75,19.82-1.19,29.73a22.62,22.62,0,0,1-.78,3.6c-4.07,0-5.64-3.27-7.82-5.44q-36.9-36.7-73.64-73.59-73.66-73.56-147.38-147.08-49.11-49-98.18-98.13-31.12-31.11-62.24-62.22c-2.56-2.57-5.85-4.7-6.77-9.14a23.27,23.27,0,0,1,1.84-4.1c5.75-8.46,7.33-18.31,9.42-28a16.79,16.79,0,0,0,.5-6.12c-2.34-14.23-6.94-27.11-20.24-35.19-4.35-2.64-8.59-5-13.74-4.9s-9.82-.25-14.42-2.63c-2.56-1.33-5.44-1.2-8.42-1.05-6.55.32-13.14-.1-19.72-.3-2.88-.09-5.75-.57-8.63-.57a39.09,39.09,0,0,1-12.15-1.82,37.26,37.26,0,0,0-11-1.42c-4.59,0-7.24,4-6.19,8.63a17.52,17.52,0,0,0,.72,2.37c1.7,4.68,3,9.23,1.93,14.47-.53,2.5.82,5.6,1.9,8.19s2.89,4.88,4.45,7.41c-1.62,5.4-2.38,10.61-1.24,16.07.46,2.24-.39,4.9-1.16,7.19-2.22,6.61-1.44,13.19.61,19.47,2.44,7.49,6.92,14,11.31,20.54,4.94,7.38,12.71,11.69,18.29,18.29,5.09,1.61,10.17,3.23,15.26,4.81a22.58,22.58,0,0,0,2.39.5c5.2-.67,9.86-4.43,15.63-2,1.52.63,3.95-.62,5.87-1.3,3.1-1.1,6.06-2.57,9.17-3.64a16.12,16.12,0,0,0,9.72-8.94c1.16-2.49,2.62-4.85,4.3-7.92,3.34,3,6.17,5.4,8.77,8q81.57,81.42,163.08,162.9c20.18,20.14,40.49,40.14,60.67,60.27q69.33,69.12,138.61,138.31c8.48,8.47,17,16.89,25.36,25.48,1.65,1.69,3.46,4,3.7,6.16.74,6.49,1.15,13.09-.79,20.36a59.38,59.38,0,0,1-5.69-2.89q-20.18-13.29-40.29-26.69-58.2-38.91-116.35-77.88-66.48-44.37-133-88.63-64.95-43.32-129.82-86.75-28.33-18.93-56.63-37.93c-2-1.32-4.44-2.41-4.38-5.76,1.4-2.21,3.11-4.56,4.45-7.1A42.79,42.79,0,0,0,291,1237c2.63-9.09-.45-17.49-8.17-22.8-2.12-1.46-4.65-2.48-7-1.08-6.33,3.82-13.27,6.68-18.61,12.11-5.5,5.59-11.38,10.82-16.9,16.4a97.11,97.11,0,0,0-8,9.43c-2.19,2.85-2.32,6-.68,9.32,3.4,6.8,8.39,11.16,16.38,11.19,1.65,0,3.42-.3,4.94.17,7.9,2.47,14.55.31,20.55-5,.5-.44,1.56-.24,2.36-.34,12.17,6.92,486.4,323.55,493.88,329.81.79,6,2,12.4-.57,19.14-3.21-1.19-5.94-2.1-8.58-3.2q-48.66-20.12-97.29-40.27-120.23-49.59-240.49-99.14-73.29-30.21-146.56-60.48c-17.94-7.41-35.92-14.73-53.81-22.24-3.72-1.57-8-2.46-10.64-6.77,0-2.86.17-6.15,0-9.43-.54-8.21-3.72-15.3-10.19-20.46a50.87,50.87,0,0,0-27.1-11.27c-7.81-.75-15.07,1.26-18.78,9.07-4.54,9.57-6.38,19.58-2.73,30a21.93,21.93,0,0,0,6.79,10.18c11.78,9.43,24.86,12.41,39.24,7,2.91-1.1,5.55-1.46,8.36-.42,3.48,1.28,6.93,2.67,10.37,4.09,29.76,12.31,59.5,24.7,89.29,37q89.35,36.78,178.75,73.46,77.3,31.88,154.51,64,60.12,24.82,120.32,49.45a69.13,69.13,0,0,1,7.93,3.46c1.3.75,2.83,2.28,3,3.63.47,3.49,1.78,7.31-1.69,10.89a80.27,80.27,0,0,1-8.22-.61c-6.09-1.06-12.14-2.4-18.21-3.61q-65-12.88-130-25.74c-48.61-9.52-97.27-18.79-145.87-28.34q-97.22-19.1-194.37-38.44c-30-5.92-60-11.72-89.95-17.58-4.39-.86-8.85-1.54-12.9-4.22,0-3.5.27-6.8-.06-10-.83-8.26-4.25-15-11.86-19.16-6.49-3.52-14.13-2.86-19.23,2.57-3,3.16-6.38,4.93-10.14,6.71a82.27,82.27,0,0,0-12.68,7.59c-9,6.42-7.54,21.59,2.8,27.1,4,2.16,8.25,4.21,12.91,3.72s8.84.14,12.83,3c4.7,3.37,9.43,2.18,13.62-1.35,2.18-1.84,4.13-4,6.56-6.3q300.12,58.68,600.18,117.4c1.56.3,3,1.15,5.25,2a9.1,9.1,0,0,0,.29,3.39q-.45,3.94-.68,8a8.71,8.71,0,0,1-.63.79H555.67q-155.55,0-311.08.06c-28.1,0-56.19,0-84.28-.07-3.18,0-6.66.89-9.46-1.71-.4-3.24.1-7-1.39-9.62-3.39-5.93-.08-11.22.21-16.82.35-6.71,5-10.21,9.25-14,4-3.54,8.57-6.45,12.77-9.8,3.74-3,3.64-7.58-.17-10.54a13.75,13.75,0,0,0-4.28-2.37c-13.18-3.92-25.8-3.6-38.12,3.64-7.05,4.15-14.84,6.94-19.88,14-1.09,1.53-3.59,2-5.22,3.23-3.32,2.51-6.73,5.32-7.59,9.48a20.82,20.82,0,0,1-6.4,11.66A12.41,12.41,0,0,0,85.77,1659c.68,4.52-1.49,8-3.22,11.66-2.16,4.6,2,8.81.85,13.33-.42,1.59-1.33,3.08-1.58,4.68-.57,3.66-1.81,7.55-1.08,11,1.78,8.43,4.36,16.71,7,25,1,3.21,3.57,5.45,6.6,7.09,9.37,5,19.18,7.41,29.84,5.54,3.2-.57,6.5-.64,9.74-1a10.93,10.93,0,0,0,8.24-4.9c2.94-4.52,5.44-9.22,5.62-14.86.11-3.27-.23-7,1.19-9.69a24.92,24.92,0,0,0,1.94-19.12c-.19-.69.31-1.57.52-2.48,3.56-2.85,7.85-1.72,11.85-1.73q53.91-.16,107.82-.14,146.85,0,293.71,0,96-.06,192.09-.28c4.12,0,8.24.16,12.36.39a1.86,1.86,0,0,1,1,.47q.23,4.2.71,8.32a9,9,0,0,1-1.64,2.89c-.89.35-1.63.69-2.41,1a19.65,19.65,0,0,1-2.39.66L178,1813.92c-1.62.32-3.25.59-4.89.85s-3.26.48-4.9.71a4.67,4.67,0,0,1-1.23.09,6.63,6.63,0,0,1-1.28-.38c-3.14-1.56-4.58-4.4-5.46-7.73-1.45-5.49-5.26-9.27-9.58-12.57-3.79-2.89-7.5-3.21-11.38-.12-5.14,4.1-10.5,8.27-14.48,13.4-5.1,6.54-7.64,14.61-8.52,22.91-.7,6.55,3,11,9.48,12.47,4,.91,8,1.77,12,2.67a26.45,26.45,0,0,0,16.9-2,17.6,17.6,0,0,0,10.17-11.73c.33-1.1,1.35-2,2.35-3.37q299.53-60,599.54-120a17.73,17.73,0,0,1,3.49,0c3.18,2.83,1.73,6.33,1.86,9.46a6.52,6.52,0,0,1-4.42,6.75c-1.91.78-3.81,1.6-5.72,2.4l-210.47,87.52q-97.8,40.68-195.59,81.35-69.78,29-139.53,58.09c-3.35,1.39-6.86,2.41-10,3.49-4.64-4.53-8.71-8.57-12.86-12.52-3.75-3.57-8.49-4.91-13.43-5.82a12.17,12.17,0,0,0-9.36,2.29c-6.25,4.29-11.61,19.4-9.56,26.83a12.68,12.68,0,0,0,1.49,3.39c4.87,7.64,9.48,15.49,14.82,22.8,3.93,5.37,9.08,9.69,16.13,10.64a35.77,35.77,0,0,0,20.53-3.2,15.73,15.73,0,0,0,5.49-24c-1.92-2.45-5.38-3.8-5.82-7.23.82-.94,1.23-1.84,1.91-2.12q270.91-113.13,541.87-226.16c3.75-1.56,7.62-2.85,11.35-4.24.66,1.11,1.38,1.77,1.45,2.49,1.38,14.12,1.14,14.56-10.42,22.32q-67.9,45.58-135.78,91.2c-33.93,22.83-67.75,45.82-101.67,68.65q-56,37.71-112.14,75.27-63.79,42.82-127.5,85.76c-7,4.72-13.68,7.14-22,4a13.87,13.87,0,0,0-8.45.14,31.06,31.06,0,0,0-16.59,12.38,21.64,21.64,0,0,0-3.24,17.75c1.16,4.93,4.09,8.12,8.94,9.23a31.06,31.06,0,0,0,17-.88c10.74-3.54,15.89-12.63,22-20.89.77-5,4.49-7.59,8.31-10.14,3.44-2.29,6.75-4.76,10.18-7.06q64.77-43.58,129.56-87.12,54-36.35,107.87-72.76,75.11-50.43,150.29-100.71,38.07-25.55,76-51.24c2-1.31,4.09-2.37,6.76-3.91,1.42,5.68.74,10.65,1.15,15.52.51,6.25-1.53,11-6.19,15.36-7.87,7.29-15.29,15.08-22.88,22.69q-56,56.16-112,112.34-66.54,66.67-133.1,133.33-61.74,61.83-123.53,123.63c-2,2-4.27,3.65-6.17,5.26-6.48-3.28-12.26-6.36-18.18-9.15-3.95-1.85-6.95-4.22-8-8.76a19.69,19.69,0,0,0-2.46-5.63c-2-3.34-6.95-3.66-9.6-.76a9.73,9.73,0,0,0-1.58,1.9c-4.15,8-9.89,15.24-10.66,24.79-.3,3.62-1.91,7.13-3,10.93-1.65,1.16-3.42,2.22-5,3.53-5.76,4.84-9,11.17-7.91,18.54a18.32,18.32,0,0,1-3.89,15c-2.41,3.06-3,6.83-2.61,10.59,1.09,10.45,3.26,17.94,18.29,14.59a41,41,0,0,1,13.45-.9c7.72.91,12,7.45,10.71,15.17-.2,1.21-.8,2.36-1,3.58-.69,4.35,1.44,7.39,5.65,7.89,2.8.34,5.63.41,8,.57a13.87,13.87,0,0,1,1.88,2.51c2.3,6.22,6,10.66,13.09,11.61,1.78.23,3.53,1.88,5,3.23s2.44,3.31,3.87,4.77c2.3,2.37,7.32.84,7.91-2.44a21.68,21.68,0,0,0,.26-6.12,13.4,13.4,0,0,1,3.71-11.31c2.19-2.34,3.67-5.37,5.38-8-1.09-3.22-2-5.89-2.94-8.74,2.94-3,6-5.82,8.6-9a20.28,20.28,0,0,0,4.79-12.5c.12-3.67-2.12-6.13-4.47-8.5-3-3-3.88-6.8-1.44-10.11,4.33-5.85,3.89-12.41,4.1-19,.3-8.9-3.56-15-11.9-18.3-2.21-.87-4.9-1.21-5.45-4.79,2.3-2.48,4.72-5.28,7.33-7.9q81.4-81.57,162.86-163.12c20.13-20.18,40.12-40.5,60.25-60.68q56-56.15,112.13-112.21c13.14-13.15,26.2-26.39,39.37-39.51,1.58-1.58,2.92-4.17,6.57-2.64.37,7.11.76,14.49,1.14,21.86,1,19,1,15.48-7.78,28.78-21.89,33.06-44,66-66,99q-44.67,67-89.31,134.09-43,64.44-86,128.84c-12.38,18.56-24.88,37-37.09,55.71-3.38,5.18-7.19,8.78-13.71,9.14-3.25.18-6.41,1.64-9.67,2-10.63,1.24-18.17,7.43-24.69,15.17-5.48,6.49-4.21,16.25,3.25,20.31,8.87,4.83,18.34,7.54,28.38,2.58a48.91,48.91,0,0,1,9.22-3.3c7.89-2.07,12.14-6.57,12.84-14.48a28.55,28.55,0,0,0-.41-8.61,12.16,12.16,0,0,1,2.11-10.5c1.46-2,2.7-4.16,4.07-6.22q56.7-85.1,113.39-170.18,62.22-93.32,124.48-186.6,16.15-24.21,32.34-48.42c1.32-2,2.36-4.45,5.67-4.61,1.2,4.42.63,9,.7,13.47.26,18.57-.33,37.2,3.5,55.53.73,3.5,0,6.53-1.28,9.6q-5.85,14.33-11.79,28.63Q733,2065.75,702.73,2139q-44,106.52-87.87,213c-2,4.93-4.3,9.76-6.16,14-12.24,5.59-17.33,11-20.5,21.12-4.11,13.14,2.57,26,15.63,28.71a33.27,33.27,0,0,0,14.66-.23c6.64-1.72,10.69-7.42,14.61-12.79a5,5,0,0,0,.73-2.33c.71-7.23-.08-14-5.49-19.57-2.54-2.6-5-5.27-7.67-8.06,1.63-4.31,3-8.2,4.54-12q38.68-94,77.44-187.89,28.08-68.16,56.11-136.35c6.14-14.89,12.44-29.71,18.71-44.55.62-1.46,1.17-3.19,3.72-2.8,2.18,9.45,4.6,19,6.55,28.62,2.37,11.73,3.93,23.64,6.63,35.29,3.53,15.28,7.46,30.48,11.94,45.51a41.24,41.24,0,0,1,1,20.62q-15.69,78.33-31,156.74Q763,2343.55,749.89,2411c-.3,1.49-1.3,2.85-2.14,4.65-2.74-.19-5.18-.36-7.61-.55s-4.94-.58-7.41-.59c-5.79,0-9.29,3.27-9.76,9-.83,9.85,7.66,23.44,17,26.57a17.21,17.21,0,0,0,8.49.74,142.8,142.8,0,0,0,19.11-5.12,46.92,46.92,0,0,0,10.76-6c4.07-2.81,5.67-6.92,4.81-11.91-.8-4.63-3.76-7.19-8-8.46-3.87-1.16-7.79-2.21-12.19-3.45a81.26,81.26,0,0,1,.73-8.71q11.25-57.76,22.64-115.49,9.63-49.22,19.18-98.46c3.24-16.62,6.47-33.23,9.87-49.81.52-2.56.25-5.79,4-7.37,1.39,3.07,2.87,6,4.05,9,3.31,8.45,6.12,17.12,9.82,25.4,8.62,19.28,13.44,39.9,21.5,59.36.47,1.14.63,2.4,1,3.57,2.12,6.25,4.24,12.51,6.43,18.73,5.61,16,11.65,31.82,16.77,47.95,3.26,10.28,6.53,20.44,12.48,29.5a18.29,18.29,0,0,1,3,10.48c-.08,26.45,0,52.9-.1,79.34a53.54,53.54,0,0,1-1.06,7.48c-6.29,1.57-12.22,3.43-18.28,4.47-13.64,2.36-24.53,9.72-34.19,18.9-7,6.6-12.66,14.71-13.36,24.54-1.36,18.82,5.06,35.08,19.49,47.42C853.6,2528,862,2531.5,871,2530c11.35-1.91,22.83-4.28,31.33-13.31,1.4-1.49,3.09-2.72,5.32-4.67,16.31,9.29,30.42,9.36,46.29,1.41,15.61-7.81,23.92-21.08,28.78-37,1.83-6,2.53-12.72-.43-18.24-4.87-9.07-10.76-17.54-20.83-22.1-12.16-5.5-24.58-9.62-38.09-9.7-3.71,0-7.42-.24-11.12-.45-3-.18-4.74-1.68-5-4.45-.18-2-.2-4.12-.2-6.19,0-24.38,0-48.76-.17-73.13a27.37,27.37,0,0,1,4.18-15.23,60.25,60.25,0,0,0,5.36-11.12c3.12-8.51,5.84-17.17,8.82-25.73q17.67-51,35.46-102c3-8.56,6.6-16.91,9.95-25.35,3.66-9.2,7.29-18.42,11.12-27.56.65-1.55.87-4,4.41-4.08,6.67,31.4,12.6,63,19,94.49,6.32,31.16,12.37,62.37,18.57,93.56,6.27,31.51,12.89,63,18.85,95-2.36,1.07-4.12,2-6,2.66-2.71,1-5.62,1.49-8.19,2.74-7.91,3.85-12.22,13-10.56,21.8,1.52,8,7.44,13.35,16.4,14.39a160,160,0,0,0,16,1.22,50.51,50.51,0,0,0,26.11-6.5c9-5.1,12.25-20.49,2.67-28.72a37.78,37.78,0,0,0-14.16-7.35c-3.08-.93-6.62-.64-9.14-3.42-.31-1.13-.71-2.3-1-3.49q-8.6-42.49-17.17-85-13.46-66.78-26.87-133.57c-5-25.1-9.83-50.26-15.22-75.28a42.59,42.59,0,0,1,.91-21.86c2.13-7.12,4.09-14.29,5.79-21.53,2.27-9.63,4.29-19.32,6.25-29,1.88-9.31,3.09-18.78,5.47-28a182.47,182.47,0,0,0,5-24.24c.11-.95,1.22-1.79,2.42-3.46,2.11,4.42,4,8,5.57,11.75,4.19,9.88,8.25,19.82,12.37,29.74q35.42,85.24,70.85,170.49,33.76,81.22,67.58,162.44c1.56,3.76,3.68,7.38,3.49,11.78-2.35,3-4.85,5.76-6.89,8.84-7.65,11.56-6.31,19.31,4.57,27.7a6.82,6.82,0,0,0,2,1.37c2.33.66,4.76,1.76,7.06,1.56a51.13,51.13,0,0,0,28.33-11.29c8.33-6.73,11-19.73,6.22-29.24-4.06-8-11.19-11.19-20.45-9.24-2.72.58-5.54.7-8.81,1.1-1.91-4.12-3.76-7.76-5.33-11.53q-29.33-70.32-58.58-140.69-30.73-73.77-61.49-147.53-19.77-47.48-39.43-95c-.8-1.91-1.6-3.82-2.27-5.77a23,23,0,0,1-1.26-4.77c-.45-4.1.46-7.27,5.85-7.26,12.8,0,25.61.09,38.41-.14,5.08-.08,8.37,1.81,11.22,6.07,22.06,33,44.39,65.73,66.51,98.64q55.3,82.29,110.46,164.66,23.47,35,46.91,70c1.51,2.26,4.15,4.23,3,7.67-3,2.18-6.12,4.14-8.84,6.6-5.35,4.88-5.9,9.63-1.7,15.32,2.44,3.3,5.65,6,8.19,9.27,5.26,6.73,12,8.15,19.93,6.31a62,62,0,0,0,7.19-1.82,26.76,26.76,0,0,0,14-11.61c4.6-7.59,2-16-6.07-19.58a32.48,32.48,0,0,0-3.56-1.06c-8.12-2.59-14.85-6.92-19-14.72a71.42,71.42,0,0,0-4.18-6.14q-45.27-67.38-90.53-134.75-40.8-60.69-81.65-121.33-22.48-33.4-44.91-66.88c-1-1.57-2.84-3.11-1-6,2-.18,4.4-.57,6.8-.58,17.35,0,34.7,0,52,.06,14.69.09,16.58,1.72,17.33,16a291,291,0,0,0,5.93,42.92c3.92,19.17,10.56,37.32,20.83,54a39.09,39.09,0,0,0,3.62,5c1.16,1.34,4.57,1.31,5.68-.05a27.46,27.46,0,0,0,3.5-5c6.6-13.32,13-26.72,17-41.13.49-1.79.28-4.17,3.48-5.07,3,2.87,6.3,5.92,9.48,9.1q71,71,142,142,20.18,20.14,40.32,40.31c2,2,4.69,3.65,3.85,7.94-.95,1-2.43,2.39-3.75,3.93-3.23,3.75-6.58,7.42-9.52,11.39-4.4,5.93-4.73,12.16-.4,18.39a13.83,13.83,0,0,0,1.5,2,10.23,10.23,0,0,1,2.68,10.31c-2.41,8.79,1.19,15.28,7.52,20.79,2.48,2.16,5.15,4.1,7.76,6.11,3.24,2.5,7.06,4.35,9.12,8a8.45,8.45,0,0,1,.43,2.55c-1.11,6.47,1.1,11.1,6.88,14.48a27.44,27.44,0,0,1,11.25,12.9c3.17,7.38,9.23,12.58,13.13,19.34a8,8,0,0,0,1.76,1.72,5.93,5.93,0,0,0,8.7-1.09,10.34,10.34,0,0,0,1.87-3.16,34.25,34.25,0,0,1,8-15.13,9.62,9.62,0,0,0,1.88-4.5c.64-3.2,1.06-6.47,1.43-9.72s.56-6.39.82-9.45c.5-.45.77-.87,1.13-1,8-2.57,12.14-7.61,12-16.46-.07-5.42,1.31-6.07,6.55-7.13a128.61,128.61,0,0,0,13.21-3.1c6.26-2,8.69-5.77,7.58-12.3-.68-4-2.32-7.88-3.68-11.76-2-5.57-1.44-6.92,4.2-9.47,1.5-.67,3.18-1,4.62-1.73,4.49-2.34,6-7.61,2.63-11.49a50.12,50.12,0,0,0-9.36-7.89c-3.35-2.38-7.2-4.07-10.53-6.47-7.16-5.16-13.35-11.1-15-20.41-.74-4.2-3.17-7.54-6-10.67-3.19-3.56-6.76-5.7-11.86-5.44a39.58,39.58,0,0,1-12.29-1.09c-6.78-1.89-13-.77-19.37,1.54-2.71,1-5.45,1.89-8.21,2.72-7.13,2.15-12.49,6.15-15.06,13.46-.6,1.69-.86,4.15-4.41,4.21-4.33-4.23-9.09-8.78-13.76-13.43q-68.43-68.26-136.84-136.57c-14.33-14.29-28.48-28.79-43.18-42.69-5.71-5.4-8.06-10.7-6.43-18.55,1.58-7.64,2-15.55,2.54-23.37,1-16.49,1.79-33,2.67-49.49.11-2.06.15-4.18,3.08-5a39.65,39.65,0,0,1,4.08,2.14q135,90.16,269.93,180.4a16.69,16.69,0,0,1,2.5,2.61c1,4.28-.2,8.29-.89,12.34-.34,2-.93,4-1.07,6.08-.54,7.74,4.5,13.82,12.16,14.32,11.27.72,22.31-.75,32.67-5.42a39.7,39.7,0,0,0,9.12-6.22,15.08,15.08,0,0,0,5.37-13.28c-1.16-14-8.44-23.72-20.82-30-4.71-2.38-8.57-1.68-12.3,2s-7.14,8-12.25,10.27c-4.66-1.36-8.14-4.36-11.87-6.85q-41.26-27.47-82.47-55-92.79-61.87-185.6-123.72c-2.4-1.6-4.74-3.31-7.15-4.9a8.9,8.9,0,0,1-4.14-7.23c-.13-2.06-.19-4.13-.16-6.2q.39-26,.87-52a30.76,30.76,0,0,1,1-4.93c4.76-.08,8.32,2.16,12,3.67q61.3,25.17,122.53,50.55l148.84,61.46c17.55,7.25,35.15,14.42,52.66,21.77,3.73,1.56,7.94,2.49,10.89,6.34.38,2.51.66,5.38,1.28,8.17,1.39,6.24,4.69,10,11.68,10.73,10.66,1,21.23,2.9,31.85,4.31,3.8.5,7.32-.73,10.78-2.22,6.68-2.86,9.53-7.93,7.35-14.82-1.6-5.09-4.1-9.9-6.28-14.8-3.46-7.79-9.78-12-17.8-14-5.19-1.32-10.48-2.37-15.52-4.14-6.08-2.13-10.27-.15-14,4.58-2,2.46-2.76,6.17-7.1,7.06-2.66-1-5.76-2.09-8.8-3.35q-49.26-20.28-98.5-40.61L1353.8,1857q-51.54-21.26-103.06-42.53c-3.35-1.39-7.17-2.17-9.36-5.47-1-9.7-1.15-47-.2-55.7.08-.68.94-1.26,1.75-2.28,4.19.65,8.65,1.2,13.06,2,15.4,3,30.77,6.07,46.16,9.09q75.35,14.77,150.69,29.54,52.25,10.26,104.49,20.57c20.25,4,40.53,7.87,60.77,11.92,4.36.87,9,1.23,12.84,4.51-.26,3.71-.66,7.39-.74,11.08-.21,9.19,2.57,11.89,11.45,12.27,7.31.31,13.82-2.24,20.28-4.94,11.49-4.81,16.66-14.72,14-26.94-1.06-4.81-2.93-9.44-4.58-14.1a18.91,18.91,0,0,0-2.34-4.36c-2.84-4.1-7.79-5.27-11.93-2.42a126.84,126.84,0,0,0-10.57,8.54c-2.47,2.13-4.76,4.47-6.52,6.15a14.41,14.41,0,0,1-2.15.45,20.72,20.72,0,0,1-3.7-.19q-190.77-37.37-381.54-74.79c-2.83-.55-5.62-1.34-8.43-2a3.48,3.48,0,0,1-1.15-.44,9.1,9.1,0,0,1-1.17-1.23,10,10,0,0,1-.93-3q-.18-22.31-.15-44.61c0-1.48.85-3,1.39-4.71,2.47-.18,4.48-.45,6.49-.46q50.19-.08,100.39-.1,114,0,228,0c21.49,0,43,0,64.45.08a61.17,61.17,0,0,1,8.18,1.13c.2,1.92.67,3.21.4,4.32-2.27,9.47-.51,18.88-.09,28.35.69,15.49,12.28,26,26.51,30.75a8,8,0,0,0,8.16-1.66,37.79,37.79,0,0,0,6.81-8.63c1.57-2.83,2.29-6.19,3.08-9.39,4.4-17.65,7.93-35.46,9.25-53.62a67.07,67.07,0,0,0-.89-13.54c-.64-4.91-1.79-9.66.94-14.47C1704.73,1644.6,1704.55,1642.09,1704.15,1640.15Zm-57.46-138.41a3.24,3.24,0,0,1,5.17-1.13c1.45,1.39,3.44,2.9,3.8,4.65,1.77,8.45,3.06,17,4.53,25.51.12,4.25-1.87,6.57-5.56,6.52-1.78,0-3.38-.68-4-2.3-1.82-4.59-3.53-9.23-5.06-13.93C1643.42,1514.51,1644.17,1508.05,1646.69,1501.74Zm-44.87-133.31c7,1.64,13.78,3.2,20.52,4.83a7.75,7.75,0,0,1,3.36,1.42c1.1,1,2.47,2.47,2.48,3.74a5.07,5.07,0,0,1-2.34,3.88c-4.82,2.28-9.9,3.89-15.58,3.59a49.07,49.07,0,0,1-9.55-14.16C1600.37,1371,1601.38,1369.63,1601.82,1368.43Zm-65.77-130.12c1.59-1.61,5.43-.94,6.46,1.1a7.92,7.92,0,0,1,1.12,3.46,21.39,21.39,0,0,1-4.37,12.61c-.64.86-2,1.19-2.57,1.5-2.94.24-5.72-1.85-5.91-4.14A17.64,17.64,0,0,1,1536.05,1238.31ZM1422.2,1109.23c2-.79,3.41-1.65,4.86-1.82,8.18-.93,16.39-1.64,24.57-2.54a20.75,20.75,0,0,0,4.74-1.26,5.48,5.48,0,0,0,3.28-6,4.62,4.62,0,0,0-5.3-4c-7.77.94-15.51,2.11-23.27,3.14-4,.53-8,1.58-12.65.23-1.63-5.48.76-10.4,1.39-15.46,4.39-2,8.53-.71,12.56-.84,5.76-.19,11.53-.13,17.29-.35,2-.07,3.69-2.28,3.78-4.26s-1.61-4.23-3.57-4.45c-3.26-.38-6.55-.52-9.83-.67-5.29-.25-10.64.53-16.9-.78.54-2.37.73-3.59,1.12-4.76s1-2.22,1.67-3.8c1.38-.25,3-1,4.48-.75,13,2,26.32,1.52,39.25,4.36,2,.44,4,.81,6.06,1.19,7.88,1.48,13.39,5.71,16.61,13.24a56.55,56.55,0,0,0,6.82,11.73c2.68,3.57,6.13,6.56,9.42,10,0,3,.16,6.32,0,9.57-.62,10.69-1.2,21.4-2.13,32.07a81,81,0,0,1-2.53,13.33,10.82,10.82,0,0,1-3.19,5.11c-1,.86-3,.93-4.43.69-.59-.1-1.37-2-1.22-3,.73-4.48,1.8-8.89,2.65-13.34a54.7,54.7,0,0,0,.76-6.12,4.63,4.63,0,0,0-3.32-4.61c-1.83-.41-4.71.76-5.2,2.4-1.07,3.54-2,7.13-2.84,10.73-1,4.37-1.81,8.79-2.81,13.68-7.06.38-13-3.35-20.75-1.45,1.42-3.77,1.81-5.79,2.85-7.37,3.41-5.16,7.09-10.13,10.59-15.24a28.35,28.35,0,0,0,3.7-6.36,5.72,5.72,0,0,0-.93-4.44,4,4,0,0,0-5.54-1,25,25,0,0,0-6.28,5.76c-3.69,5-7,10.2-10.44,15.33-1.13,1.68-2.24,3.37-3.49,5.25-9.84-1-14.59-6.7-16.69-15.49a70.83,70.83,0,0,1,15.77-10.22,104.83,104.83,0,0,0,11.63-7,4.33,4.33,0,0,0,1.43-5.51,5.33,5.33,0,0,0-6.11-3,21,21,0,0,0-4.58,1.77c-5.71,3.28-11.35,6.68-17,10l-5.72,3.36C1427.5,1121.64,1425.41,1115.53,1422.2,1109.23Zm-102-82.58a49,49,0,0,1,11.07-5.11c1.49-.46,3.61,1.1,5.89,1.89-.82,7.23-3.43,11.74-8.64,14.31a15.4,15.4,0,0,1-5.89,1.27,5.16,5.16,0,0,1-5-4.54C1317.45,1031.53,1317.56,1028.31,1320.24,1026.65Zm-143-60.76a7.85,7.85,0,0,1-4-7.13c.06-3.7.42-7.36,2.66-11,10-5,18-3.56,25.09,4.22,4.27,4.67,10.22,6.66,17.52,7.48-1.63,2.23-2.35,3.63-3.44,4.63-4.54,4.16-9.12,8.27-13.82,12.25a6.56,6.56,0,0,1-8,.76c-2.11-1.23-4.18-2.55-6.16-4C1183.72,970.79,1180.61,968.1,1177.19,965.89Zm-145-44.65c0-1.24-.1-2.48,0-3.7.32-3.27.28-6.94,4.34-8s8.22-1.09,11.12,2.88c2.19,3,4.39,6,6.43,9.05,2.38,3.6.54,7.39-3.94,8.07-2.84.43-5.73.52-8.59.81C1032.66,931.27,1031.92,930.56,1032.23,921.24Zm-289.17,4.51c-2.43-3.64-2.28-6.64,1.28-8.21,4.47-2,7-5.19,9.18-9.35,1.85-3.62,4.08-7.17,9.65-8.77,3.94,6.11,5.2,12.43,6.86,19.33a106.48,106.48,0,0,1-18.82,10.94C748.35,930.94,745.38,929.24,743.06,925.75ZM609.41,973.2c-6.28,1.82-12.11-.58-17.55-3.32-3-1.5-3.9-8-2.06-11.22a5.25,5.25,0,0,1,2.83-2.09A13.29,13.29,0,0,1,596,956c6.95.19,12,1.48,16,5.49S614.91,971.61,609.41,973.2Zm-130.89,72.63c-8.49-2.69-13.27-9.28-17.85-16.22-5-7.59-4.89-15.52-2.11-23.71a19.77,19.77,0,0,1,2.36-4.32c1.44-2.22,4.45-3.07,6.46-1.55,2.61,2,5.4,3.92,7.34,6.48,5.87,7.73,8.84,16.79,10,26.31C485.31,1037.94,483.26,1042.44,478.52,1045.83Zm-174.39,23.92c2.37-2.53,5.82-2.26,9.2-.36l-20.57,22.17a4.75,4.75,0,0,1-.9-6.64A157,157,0,0,1,304.13,1069.75Zm-19,7.6c-.31-3.77-.65-6-.66-8.34,0-3,1.7-3.74,5-2.21.64.3,1,1.16,2.29,2.64C289.65,1072,287.88,1074.1,285.14,1077.35Zm71.52,83.92c-4.09,1.66-7.84,3.27-11.67,4.69-1.48.55-3.49,1.37-4.64.8-5.21-2.55-9.59-.84-13.13,2-1.6-.1-2.39-.14-3.17-.21-8.33-.72-14.29-5.82-19.74-11.35-6.08-6.19-11.17-13.22-14-21.57a18.06,18.06,0,0,1-.64-4.84c-.12-2,2.09-4.69,3.6-4.11,1.34.51,2.32,2,3.39,3.08.23.25.17.79.21,1.2.94,10.69,8.08,15.54,17.34,18.39,1.93.6,4.36.66,5.69,1.9,4.43,4.14,9.27,4.27,14.92,3.44,7.26-1,14.73-.79,21.12-4.82C360.53,1154.32,358.65,1157.89,356.66,1161.27Zm3.74-22.91c-9.88,4.69-19.74,8.65-32.73,7-2.53-1.86-6.38-5.19-12.24-5.74-5.63-.53-9.47-4.73-10.08-10.93-.08-.82-.29-1.63-.33-2.46-.25-4.59-2.55-7.63-6.71-9.54-1.38-.63-2.42-2-3.67-3.08,7.16-20,20.6-33.82,39.57-43.51,4.08.61,8.44,3.09,13.69,2.44,8.24-1,14.38,3.9,18.76,10,5.88,8.27,8.37,17.41,6.23,28.08C370.78,1121.08,366.05,1129.9,360.4,1138.36Zm-82.21,100.9c-5,7.46-10.29,14.67-15.71,22.32-5.18-.33-10.06-.46-14.89-1-4.53-.52-6.24-4.58-3.29-7.85,6.85-7.6,13.77-15.14,20.92-22.46a36.2,36.2,0,0,1,8-5.61c3-1.71,6.82.58,7.35,4.07A14.9,14.9,0,0,1,278.19,1239.26Zm-77.86,136.68c-.91,6.54-2.1,8.3-7,11.82a10.83,10.83,0,0,1-5.73,1.87c-4.44-.52-9-.93-13.18-2.47-9.25-3.45-11.81-7.8-11.72-19a25.94,25.94,0,0,1,.25-3.82c1.85-10.55,6.31-12.68,15.3-10.2a56.4,56.4,0,0,1,15.55,7.18,14.36,14.36,0,0,1,6.52,8.63A16.46,16.46,0,0,1,200.33,1375.94ZM157.8,1528.05c-2,2.5-3.6,5.33-5.42,8.07-1.63-.35-3-.28-3.85-.9-4.57-3.23-9.35-4.83-15-3.36-3.36.88-6.43-.3-9.18-2.39-2-1.55-2.63-4.64-1.15-6.52a18.13,18.13,0,0,1,8.81-6.37,40.45,40.45,0,0,0,18.14-11.44c5.94,1.44,8.84,5.15,10.16,10.18A13.73,13.73,0,0,1,157.8,1528.05Zm-50.54,115.69c5.19-1.68,9.94-2.62,14.92-1.43,4.37,1,8.89,1.73,12.15,5.47.91,4.67,1.82,9.4,3,15.74-5.4-1.91-9.48-3.88-13.78-4.75s-9-.76-13.46-.94c-4.27-.16-8.45,1.91-14.19,2.16C99.32,1652.53,105.29,1649.41,107.26,1643.74Zm24.93,80.45c-3.25.59-6.82,1.44-10.44,1.82a24.87,24.87,0,0,1-8.57-.12,68.51,68.51,0,0,1-12.63-4.63c-4.94-2.37-4-7.66-5-11.91-.37-1.51-.52-3.06-.83-4.91,4.46-2.92,8.83-5,13.83-5.59a67.16,67.16,0,0,1,27.69,2.87C135.07,1709.49,137.52,1717.19,132.19,1724.19Zm5.61-34.86c-14.69-1.17-28.46-2.86-42.56.39.15-2.87.42-5.25.35-7.62a60.06,60.06,0,0,0-.85-6.2c13-11.32,26.44-8.61,40.64-1.63.83,3.22,1.83,6.75,2.61,10.34C138.24,1685.75,137.92,1687,137.8,1689.33Zm.48-54.63c-1.18.46-1.62.82-1.92.72-5.05-1.64-10.08-3.33-14.84-4.92-1.09-4.35,1.38-6,4.19-6.76,6.31-1.75,11.33.18,14.8,6.63C139.77,1631.82,138.88,1633.55,138.28,1634.7Zm9.16-12.6c-1.74-1.38-3.05-2.07-3.85-3.13a3.17,3.17,0,0,1,.94-4.74c3.57-1.69,7-2,10.47.25C154.21,1618.55,151.24,1620.06,147.44,1622.1Zm.81,211.71a23.92,23.92,0,0,1-8.5.39c-3.56-.64-7-2.19-11-3.52a32,32,0,0,1,12.89-22.85c2.51-1.94,6-1.38,7.19,1.7,2.25,5.72,4.28,11.57,4.18,17.86C153,1830.47,151.17,1833.26,148.25,1833.81Zm58.14,158.87a40.22,40.22,0,0,1-4.9.91c-7.45.7-11.29-1.86-14-5.57-4.83-6.62-9.21-13.57-13.58-20.52a7.08,7.08,0,0,1-.79-4.7,48.92,48.92,0,0,1,2.58-8.19c.68-1.8,3.23-2.8,5.18-2.4,5.12,1.06,8.75,4.4,12.14,8,2.09,2.23,2.58,5,2.18,8-.56,4.18,1.52,7,4.79,9.29a101.44,101.44,0,0,1,8.81,6.73C212.1,1987.2,210.82,1991.52,206.39,1992.68Zm54.8,120.12c-4.09,3.88-9.28,5-14.86,4.23-2.36-.33-3.94-3.19-3.24-5.63a16.89,16.89,0,0,1,11.58-11.82c5-1.63,9.55.46,14.52,3.52C266.31,2106.64,264.08,2110.06,261.19,2112.8Zm72.06,80.83c2,2.37,3.92,4.71,6.17,7.43a11.14,11.14,0,0,1-10.46,2.58C328.21,2198.31,328.26,2198.33,333.25,2193.63Zm48.52,28.29c3.61.91,5.42,3.46,5.44,7.31,0,4.51.26,9.09-2.21,13.22a24.07,24.07,0,0,0-1.34,3.44c-2.79,7-2.68,13.46,2.78,19.5,2.91,3.2,2.47,5.8-.14,8.66a18.44,18.44,0,0,1-2.7,2.53c-6.23,4.53-9.08,10.31-7.48,18.19.35,1.71-.64,4-1.63,5.62-1.23,2.06-3.09,3.74-4.76,5.68l-7.08-.54c-4.35-9.55-4.35-9.55-14.6-14.9-.42-2.05-.76-4.48-1.42-6.83-3.19-11.3-11.71-18-23.44-18.24-4.92-.09-9.86.51-14.8.63-3,.08-5.12-3.43-3.94-6.19a11.53,11.53,0,0,1,1.74-3.25c4.73-5.32,5.82-11.55,5.1-18.41-.61-5.75.83-10.56,6.72-13.21a13,13,0,0,0,4.78-3.8c4.39-5.69,10.4-7.7,17.19-8.42,4.08-.43,8.11-1.43,12.2-1.78s7,2.81,6.43,7c-.34,2.42-1.47,4.74-1.73,7.15a32.77,32.77,0,0,0,.05,8.57,10.44,10.44,0,0,0,6.65,8.28,4.19,4.19,0,0,0,3.43-.32,4.85,4.85,0,0,0,1.69-3.06,9.44,9.44,0,0,0-.55-3.59c-1.68-6.43-1.7-6.42,2.47-15.13C374.59,2220.7,378.25,2221,381.77,2221.92Zm97.44,96.87c-.62.8-1.61,3.4-3,3.64-5.43.94-9.93,3.86-14.81,5.94-1.49.63-3.29,1.42-4.72,1.1-3.93-.88-8.94-1.18-10.55-5.26s2.86-6.35,5.43-8.68a23.93,23.93,0,0,1,7.44-4.17,80.2,80.2,0,0,1,9.47-2.72c8.53-2.18,10-1.12,10.74,7.8C479.24,2316.85,479.21,2317.26,479.21,2318.79Zm142.45,78.38a11.11,11.11,0,0,1-7.76,7.29,10.56,10.56,0,0,1-2.45.33c-9.23.52-14-4.43-12.84-13.53a16.44,16.44,0,0,1,6.68-11.64,42.18,42.18,0,0,1,13.4,8.69C621.29,2390.74,622.73,2393.79,621.66,2397.17Zm148.53,33.34c-1.14,1.35-1.9,3.06-3.15,3.58a102.94,102.94,0,0,1-13.81,4.88c-10.38,2.68-16-.67-19.59-11.1-.47-1.37,1.26-3.44,2.76-3.2s3.4.28,4.68,1.09c4.8,3,10,3.25,15.39,3C760.86,2428.6,765.44,2427.75,770.19,2430.51Zm299.16-1.52c5.06,2.35,5,8.9.29,12-5.73,3.75-12.31,4-17.94,4.71-6.51-.63-12.22-1-17.86-1.81a6.55,6.55,0,0,1-4.55-9.49c1.18-2.05,2.72-4.38,4.7-5.4C1045.7,2422.88,1057.65,2423.57,1069.35,2429Zm121-50.79a77.29,77.29,0,0,1,12.42-5.41c6.65-2.16,12.51,3.38,10.87,10.16-.57,2.35-1.44,5-3.08,6.64a34.72,34.72,0,0,1-21.31,10.1c-5.84,0-9.5-5.29-7.93-10.21A18.63,18.63,0,0,1,1190.31,2378.2Zm124.79-71.48c7.18,1.09,14.74,1.53,21.17,6.86-2.77,9.26-10.73,9.57-19.23,10.77a46.36,46.36,0,0,1-10.73-10.7,2.88,2.88,0,0,1,1-4.25C1309.75,2308.15,1312.67,2306.35,1315.1,2306.72ZM1193.82,1327c1.89-5.84,4.4-11.49,6.79-17.16.59-1.39,1.8-2.52,3.39-4.68,5.33,5.9,7.2,11.85,9.11,17.64a237.22,237.22,0,0,1,11.08,55.46c.61,7.72,1.17,15.44,1.75,23.11-1.58.85-2.62,1.88-3.67,1.89q-17.88.21-35.76.1a10.09,10.09,0,0,1-3.12-1.06c-.45-1-1.08-1.77-1-2.47C1183.83,1375.15,1186.13,1350.62,1193.82,1327ZM881.19,918.84c-10.78.1-21.23-2.47-31.47-5.8-4.87-1.59-7.43-4.83-7.86-9.94-.75-9.14-.42-18.22,3-26.8A81.68,81.68,0,0,1,868,844.59a59.13,59.13,0,0,1,27.56-13.26,92.44,92.44,0,0,1,30.77-.49c13.11,1.85,22.46,9.3,29.55,20.28,4.44,6.89,6.75,14,5.54,22.21-.94,6.31-3.86,10.74-10.1,12.72-3.14,1-6.21,2.25-9.37,3.15-5.69,1.63-10.63-2.61-10.12-8.78.13-1.49,1.28-2.89,2.44-5.34,3.66,1.6,6.2,3,8.91,3.82a5.69,5.69,0,0,0,7.45-4.55c.89-4.42,1.8-8.83,2.56-13.27a6.25,6.25,0,0,0-.27-3.6,5.41,5.41,0,0,0-2.68-2.18,2.36,2.36,0,0,0-2.21.55c-1.82,2.6-3.44,5.33-6.1,9.55-.34-5.84-.55-9.88-.81-13.91-.27-4.2-1.27-8.24-4.12-11.41a6,6,0,0,0-4.29-1.42c-1.95.08-3.4,2.75-2.85,4.72.88,3.16,2.1,6.26,2.75,9.47.51,2.48-.45,4.73-3,6.83-2.14-2.8-4-5.43-6.07-7.92-4.24-5.11-8.8-9.87-15.32-12.09-1.14-.39-2.55-1-3.52-.64a8.68,8.68,0,0,0-3.73,2.84,3.18,3.18,0,0,0,.81,4.4c1.91,1.54,4.19,2.61,6.17,4.07,7.42,5.47,13.52,11.92,16.05,21.74-1.67.25-2.86.8-3.79.51-6.25-2-12.17-4.82-19-4.88-9.93-.1-19.75.1-29.42,3.12-.58,2.91,1.8,3.24,3.54,3.45,8.18,1,16.38,2,24.6,2.47,6.43.35,12,2.76,17.44,5.75,6.75,3.74,8.5,9.82,5.4,16.88-2.43,5.54-6.57,9.38-11.73,12.31C901.71,916.93,891.55,918.74,881.19,918.84ZM813,1276.56c4.61-18.43,10.92-36.32,17.59-54.09,8.41-22.4,17.15-44.64,24.54-67.44,9.67-29.82,20.84-59.14,31.35-88.69,3.17-8.93,6.2-17.92,9.47-26.82.81-2.21,2.31-4.18,3.91-7,1.63,1.69,3,2.6,3.64,3.88,1.91,4.11,3.72,8.29,5.22,12.57,7.36,21,14.59,42.09,21.92,63.13,4.61,13.24,9.76,26.32,13.92,39.71,9.79,31.56,22.93,61.89,33.85,93a294.6,294.6,0,0,1,11.42,42.55c-12.24,1.72-102.64,2.29-170.7,1.22-2.4,0-4.79-.35-7.83-.58C811.94,1283.72,812.14,1280.06,813,1276.56Zm-22.14,106.28c.63-4.48,1.48-8.94,2.2-13.41,1.44-9,2.85-17.85,5.17-26.68,2.83-10.73,4.3-21.83,6.38-32.77a43.67,43.67,0,0,1,1.39-6,4.7,4.7,0,0,1,4.55-3.5c2.06,0,4.13-.08,6.19-.08H993.1c3.74,7.61,3.81,14.75,5.34,21.53,2.08,9.25,4,18.54,5.91,27.82.76,3.62,1.57,7.24,2.12,10.9,2,13.43,4,26.87,5.94,40.3-1.22,2.93-3.9,2.66-6.29,2.67-13.2.08-26.41.05-39.61.08-28.06.06-56.11,0-84.16.24-27.64.21-55.28.72-82.92,1-3.59,0-7.44,1.2-11.19-1.77C789.09,1396.56,789.91,1389.69,790.88,1382.84Zm-5.27,34.67c2.43-3.18,5.5-2.52,8.3-2.51,19.4.07,38.8.29,58.21.31q75.55.11,151.1.07,106.52,0,213-.16c2.81,0,5.63.32,9.93.58,0,7.1.09,12.84,0,18.58a34.07,34.07,0,0,1-.49,4.13c-3,2.74-6,2.09-8.78,2.09q-37.79.08-75.56,0l-272.5-.36c-23.95,0-47.9,0-71.85,0-3.63,0-7.33.35-10.89-.82-.47-1.61-1.09-2.75-1.07-3.88C785.15,1429.39,784.54,1423.19,785.61,1417.51ZM781,1677a119.5,119.5,0,1,1,119.5,119.5A119.64,119.64,0,0,1,781,1677Zm250.12,62.35c3-1.51,5.4.5,7.86,1.52q45.19,18.63,90.33,37.42,13.14,5.45,26.31,10.85c3.8,1.56,7.75,2.79,10.79,5.38,1.81,11.07,1.81,38.9-.23,49.58-6.5-4.2-12-7.7-17.52-11.35q-53.09-35.34-106.12-70.74a22.09,22.09,0,0,0-3.1-2C1030.25,1755.79,1028.31,1748.68,1031.12,1739.35Zm-1.89-17.75v-9.82c2.26-2.82,4.86-2.19,7.19-1.79,7.3,1.28,14.57,2.77,21.84,4.21q46.08,9.13,92.16,18.3c5.2,1,10.36,2.29,15.2,3.36,2.39,9.64,2.65,31,.69,42a3.3,3.3,0,0,1-1,.54,2.31,2.31,0,0,1-1.22-.12q-64.7-26.4-129.38-52.82a20.29,20.29,0,0,1-3.29-1.66A17.28,17.28,0,0,1,1029.23,1721.6ZM1166.46,1559q-66.66,27.73-132.79,55.19c-.6.25-1.48-.14-2.86-.31-1.14-4.68-.72-9.56-.13-14.43.33-2.68,2.35-4.23,4.44-5.63q13.88-9.3,27.77-18.61,47.77-32.12,95.57-64.2c2.3-1.54,4.85-2.72,7.5-4.2.75,1.69,1.57,2.75,1.67,3.88C1168.3,1518,1167.51,1550.86,1166.46,1559Zm-.17,56c-3.17,1-6.58,2.27-10.11,3q-52.08,10.5-104.19,20.81c-7.21,1.44-14.28,3.72-21.5,3.87-2.64-3.26-1.82-6.64-1.33-9.8.22-1.41,1.54-2.88,2.74-3.85a17.55,17.55,0,0,1,4.44-2.08q61.68-25.53,123.36-51c1.87-.78,3.85-1.3,5.77-1.93C1168.23,1581.48,1168.54,1597.3,1166.29,1615.08Zm-3.69-122.4c-7.63,4.93-15.12,10.09-22.65,15.16q-50.87,34.25-101.72,68.47c-2,1.34-4.15,2.43-6.91,4-1.55-7.77-1.09-14.75-.8-21.7.14-3.59,2.68-5.89,5-8.24q13.15-13.11,26.28-26.27c21-21,42-42.15,63-63.11,9.94-9.88,7-8.38,20.43-8.59,7-.1,14,.2,21.14.32.81,2,1.88,3.44,1.91,4.91.16,8.25.12,16.51,0,24.77A11.68,11.68,0,0,1,1162.6,1492.68Zm-51.9-36.11q-38,38.22-76.09,76.33c-.5.49-1.5.48-2.6.8-.44-1-1.24-2-1.3-3-.47-8.66-.7-17.34-1.24-26-.34-5.56.66-10.43,4-15.15,7.4-10.45,14.39-21.19,21.39-31.92,2.51-3.84,5.69-5.47,10.3-5.4,14,.21,28.09.12,42.13.2a26.92,26.92,0,0,1,4.32.86C1111.15,1455.06,1111.19,1456.07,1110.7,1456.57Zm-82,13.85c-1.32-5.44-.59-10.64-.57-17.18a63.2,63.2,0,0,1,7-.78,25.13,25.13,0,0,1,4.64.94C1037.35,1461.68,1035.64,1464.3,1028.74,1470.42Zm2.8,186c1.26-.37,2.78-.94,4.34-1.26q61.9-12.27,123.8-24.47c2-.39,4-.5,7.38-.91.65,13.67,1,26,.12,38.89-2.47.58-4.72,1.54-7,1.59-9.9.2-19.81.15-29.71.17q-45.2.12-90.38.21c-3.13,0-6.26-.27-9.28-.42-.15-2.94-.41-5.85-.75-8.73C1030.36,1660.19,1030.84,1658.64,1031.54,1656.39Zm-.72,27.47a2.44,2.44,0,0,1,1.28-.57q66.08,0,132.14.17c.69,0,1.38.77,2.07,1.18,1.82,9.32,1.71,27.44-.38,37-15-1.6-29.63-5.36-44.44-8.13-15.37-2.88-30.8-5.5-46.08-8.77-14.8-3.16-29.85-5.25-44.05-8.85a33.68,33.68,0,0,1-1.27-3.51C1030.42,1689.59,1030.67,1686.74,1030.82,1683.86Zm-1.67,198.49c1.49,1.16,2.67,1.7,3.3,2.63,3.18,4.68,6.67,9.2,9.25,14.77-4.3,2.33-8.11,1.68-13,.5C1027.94,1893.8,1027.22,1888.34,1029.15,1882.35Zm3.84-19.92c-2.14-3.12-3.76-6.37-3.6-10.28.11-2.47.17-4.94.29-7.4q.63-12.87,1.29-25.75c1.32.14,2.34-.07,2.75.34q39,38.69,77.81,77.52c.76.77,1,2.06,1.52,3.18-9.61,1.54-39.59,1.82-53.56.48-1-1.26-2.46-2.73-3.6-4.4C1048.23,1884.91,1040.64,1873.65,1033,1862.43Zm11.47-50.83c-3.5-3.49-7.18-6.83-10.46-10.52-1.55-1.76-3.08-4.09-3.36-6.32a91.61,91.61,0,0,1-.26-13.57c.08-3.22.52-6.43.88-10.55a61.44,61.44,0,0,1,6,3.07q60.64,40.5,121.25,81.08c10.68,7.15,8.89,5.36,9.77,16.73.6,7.79.23,15.66.14,23.49,0,1.56-.73,3.11-1.18,4.89a27.52,27.52,0,0,1-4.9,1.16c-3.28.18-6.59.1-9.88.08-22.34-.15-15.59,2.53-31.87-13.59Q1082.42,1849.71,1044.46,1811.6Zm-262.14-264c.54-23.93,1.28-47.86,2-71.79.22-7.37.63-14.72.91-21.31,2.54-3,5.15-2.46,7.55-2.46,14.87,0,29.73.09,44.6.1q81.76.06,163.54.1c4.47,0,8.94.26,13.33.4.74,1.72,1.58,2.79,1.61,3.9,1,27.64,2.17,55.28,2.62,82.93.13,7.62.2,41.26.23,82.24a130.47,130.47,0,0,0-236.57.32C782.16,1582.51,782.22,1551.65,782.32,1547.64ZM782.16,1732a130.48,130.48,0,0,0,236.54.29c0,40-.09,71.19-.17,74.38-.55,23.93-1.3,47.86-2,71.79-.21,7-.58,14-.93,22.24-3.63.28-6,.59-8.44.64-54.32,1.12-209.31.66-220.64-.65-.45-.94-1.38-2-1.41-3.08-1-26.81-2.23-53.62-2.66-80.44C782.29,1808.94,782.21,1774.07,782.16,1732Zm59.18,760.63c-5.6-12.87-2.91-23.39,6.73-33.17a22,22,0,0,1,15,11.26c1,1.72.08,4.88-1.85,5C850.81,2476.61,846,2484.22,841.34,2492.61Zm18.56,23.91c-1.69-.82-3.67-2.36-4.19-4a67.72,67.72,0,0,1-3.2-14.15c-.47-4.75,1.84-8.62,6.11-11.13a4.13,4.13,0,0,1,5.81,2.49,8.89,8.89,0,0,1,.32,1.17c.26,4.46.12,9,.84,13.36s2.3,8.55,3.47,12.73C865.66,2520,862.67,2517.87,859.9,2516.52Zm24.77-1.26c-1.35.32-3.71,0-4.35-.93-3.8-5.47-6.07-11.57-5.42-18.37.09-.9,1.48-1.66,2.36-2.58,1.33.52,2.64.7,3.47,1.43,4.52,4,6.6,9.24,7.75,15A4.85,4.85,0,0,1,884.67,2515.26ZM898.14,2500c-.13.27-.63.36-2,1.09-2.09-3.75-3.73-7.06-5.7-10.15-3.24-5.08-7.25-9-14-8.39-.9.08-2.1-1-2.83-1.83s1-2.93,2.76-3.42c7.27-2.07,14.32-1.28,19.47,4.29C900.57,2486.73,901.33,2493.33,898.14,2500Zm62.13-43.87c7.9,1.38,12.93,8.63,11,16.37-4.34,17-13.64,30.47-35.62,35a15.44,15.44,0,0,1-3.62.66c-12.77-.6-17.81-4.1-18.22-16.53-.2-6,.91-11.66,4.43-16.37s7.08-9.37,11.68-12.55c10-6.93,9.06-6.76,24.23-7A47.74,47.74,0,0,1,960.27,2456.1Zm-17.58-15.56c-.77,1.39-1.05,2.68-1.81,3.09a45.46,45.46,0,0,1-5.75,2.26,47.68,47.68,0,0,0-23.82,18.92c-1.8,2.74-3.75,5.38-5.95,8.52l-17.79-7.93c-1.77-2.14-.82-4.7-1.07-7.09a17.86,17.86,0,0,0-1.39-5.92,4.67,4.67,0,0,0-5.1-2.67c-2.29.36-4,1.83-4.17,4-.29,3.23.87,6.59-1,9.67-.41.69-.94,1.31-1.85,2.55-4.85-4.35-7.95-10-12.82-14.46,3.25-5,7.81-7,12.45-8.39C895.54,2436.25,918.63,2434,942.69,2440.54Zm45.08-363.31c-5.07,20-12,39.44-19.33,58.73-7.88,20.83-15.91,41.58-22.8,62.8-9.67,29.82-20.83,59.15-31.34,88.69-3.18,8.93-6.2,17.92-9.49,26.81-.81,2.2-2.38,4.13-4,6.82-1.58-1.74-3-2.71-3.57-4-2.25-5.32-4.38-10.69-6.29-16.14q-16.62-47.28-33.11-94.61c-1.23-3.5-2.71-6.94-3.69-10.51-5.24-19.15-13.09-37.37-20.17-55.85-7.82-20.44-15.14-41-20.77-62.16-1-3.56-1.31-7.28-1.91-10.72,3-3.07,6.45-2,9.57-2q48.3-.11,96.61,0c20.64,0,41.28,0,61.93,0,3.2,0,6.41.41,10.16.67C988.92,2070,988.67,2073.71,987.77,2077.23Zm6.6-26.66c-.14.67-1,1.19-1.59,1.78-9.08,1-169.59,1.3-185,.25-.8-1.8-2.2-3.86-2.65-6.11-1.85-9.3-2.92-18.78-5.19-28-4.67-18.84-7.51-38-10.05-57.16-.47-3.62-1.3-7.19-2.07-11.38,2.42-.55,4.33-1.37,6.23-1.36,27.64.25,55.28.68,82.92.93,22.27.21,44.55.28,66.82.34,19,.06,38,0,57,0,3.65,0,7.37-.4,11.62,1.33C1008.77,1985.45,1001.1,2017.92,994.37,2050.57Zm224.65-41.1c-2.63,11.22-5.51,22.37-10.58,32.8-.88,1.81-2.09,3.46-3.92,6.44-4.78-4.65-6.54-9.32-7.9-13.88-3.51-11.81-7.36-23.62-9.45-35.71-2.65-15.34-3.69-30.95-5.46-46.75,2-.87,3.37-2,4.8-2,11.92-.12,23.84,0,35.77,0a8.46,8.46,0,0,1,2.51,1c.34.91,1.18,2,1.1,3.12C1224.43,1972.93,1223.27,1991.4,1219,2009.47Zm7.23-74c-2.77,3.69-5.84,2.93-8.64,2.93q-50.77,0-101.56,0-126.94-.11-253.88-.2c-21.47,0-42.94.29-64.4.39-3.64,0-7.28-.24-11.63-.39-1.63-6.78-1-12.15-1.07-17.47a47.36,47.36,0,0,1,.44-5.43c3.59-2.74,7-1.86,10.19-1.87,32.21-.08,64.41,0,96.62-.07q85.47-.12,170.93-.3,74.31-.1,148.63-.07c4.42,0,9-.56,13.28,1a18.76,18.76,0,0,1,1,3.93C1226.3,1924,1226.25,1930.2,1226.25,1935.47Zm2.35-114.22c-.15,24.76-1.19,49.51-1.87,74.26a18.87,18.87,0,0,1-.71,3.47c-.79.58-1.43,1.44-2.12,1.48a340.13,340.13,0,0,1-39.83.22c-3.1-2.37-2.61-5-2.73-7.4-2.35-47-1.95-94.09-1.9-141.14q.06-62.52.2-125.05c.09-45.4.1-90.81.36-136.21.06-11.14.92-22.27,1.5-33.4a21.08,21.08,0,0,1,1.2-4.11c14.37-1.44,34-1.11,43.23.76a39.75,39.75,0,0,1,.88,5.58c.69,28.47,1.74,56.94,1.85,85.41.19,52.42-.28,104.84-.3,157.26C1228.33,1742,1228.82,1781.63,1228.6,1821.25ZM1492,2200.17c1.62-1.24,3.38-2.29,5.61-3.79,1.18,1.66,1.9,2.26,2.08,3,3.32,13.89,13.06,22.54,24.36,29.93,2,1.3,4,2.59,5.89,3.81-.55,1.34-.63,2.37-1.15,2.68-7.27,4.42-8.46,10.58-5.61,18.15,1.29,3.44,2.18,7,3.42,11.09-1.86,1.08-3.46,2.41-5.29,3a49.27,49.27,0,0,1-7.31,1.17c-6.92,1-11.13,5-12.65,11.8-.73,3.22-1.39,6.44-2,9.39-.77.84-1.23,1.84-1.87,2-8.12,1.83-11.31,6.54-11.29,15.09,0,5.9-2.56,11.87-4.39,17.67-.53,1.7-2.5,2.94-4.41,5-7.17-9.77-11.75-20.69-21.4-26.94-.14-3.06.15-5.61-.49-7.88a15.2,15.2,0,0,0-3.48-6.44c-4.12-4.14-5.46-9-5.17-15.06a55.56,55.56,0,0,0,11.07-15.72,8.08,8.08,0,0,1,7.82-5.09c6.76.06,13-2.21,19.28-4.15,4.68-1.45,6.36-5.18,4.61-9.78a54.67,54.67,0,0,0-3.94-7.64C1478.38,2218.88,1480.33,2209.08,1492,2200.17Zm-52.19,18.56c4.13-4.7,7.5-9.84,8.81-16.07,1-4.93,4.07-7.73,8.65-9.54,7.33-2.91,14.6-5.73,22.7-4.32a28.82,28.82,0,0,1,3.64,1.2c-3.63,4.78-7.51,9-10.35,13.86-2.92,5-3.67,10.78-3.71,16.69s2.93,11.06,4.6,16.43c-.45,2.48-2.17,3.46-4.29,3.8-1.62.27-3.29.2-4.93.39-8.29.93-14.93,4.14-18.18,12.57a17.73,17.73,0,0,1-6.9,8.4c-2.9,2-4.87,5.35-7.25,8.12-2.14,0-2.89-1.38-2.9-3.09a33.93,33.93,0,0,1,.72-4.86,20.61,20.61,0,0,0-4.21-16.21c-1.23-1.58-2.45-3.18-3.57-4.65,1.1-5.64,5-8.91,8.16-12.58C1433.75,2225.46,1436.8,2222.12,1439.78,2218.73Zm96-121.33c4.78-3.81,9.22-8,14.26-12.49,8.25,3.3,12.56,9.67,14.28,18.08a6.89,6.89,0,0,1-2.38,6.67c-1.84,1.58-3.85,3.28-6.08,4-8.17,2.71-16.47,5-26.56,3.05C1528.59,2108.68,1529.63,2102.33,1535.81,2097.4Zm69.3-141.83a4.58,4.58,0,0,1,5.15-2.53c4.44.81,9.2,1.08,13.16,3,4.73,2.24,9.12,5.61,11.65,10.57,1.85,3.62,3.46,7.37,5.89,12.6-3.22.91-5.2,2.1-7,1.88-10.89-1.29-22.23-.09-32.64-5.33C1599.5,1968.27,1602,1961.85,1605.11,1955.57Zm35.58-119a34.41,34.41,0,0,1,6.76-15.57,45.65,45.65,0,0,1,12.11-11.54c3.49,4.61,4.47,9,5.44,13.31,1.49,6.55-1.49,10.73-6.29,13.33-4.24,2.3-9.13,3.44-13.81,4.83C1642.32,1841.71,1640.24,1839.36,1640.69,1836.58Zm3.8-211.18c5.14-2.62,7.66-3.2,15-1.81,8.43,1.59,16.69,4,23.72,10.81l-7.63,7C1665.85,1634.6,1656,1628.76,1644.49,1625.4Zm36,109c-1.19,2.36-3.74,2.88-5.15,1.41a3.92,3.92,0,0,1-.17-5.7,50.53,50.53,0,0,1,5.73-4.95c1.41-.16,1.41-.46,2.35.95A32.73,32.73,0,0,1,1680.49,1734.4Zm10.64-60.43c-1,9.41-2.06,18.83-3.31,28.21-.44,3.23-1.54,6.38-2.45,10-6.48,3.14-13.92,5-19.07,12.82-5.64-6.68-3.61-12.87-4-18.81a63.39,63.39,0,0,0,5.54-3.36c3-2.3,3-5.84,0-8.32a27.91,27.91,0,0,0-3.26-1.71,3.81,3.81,0,0,1-1.77-4.2,3.31,3.31,0,0,1,3.23-3.08c1.63-.14,3.4.2,4.88-.32a7.05,7.05,0,0,0,3.62-2.85c1.08-1.94.4-4-1.23-5.57a9.17,9.17,0,0,0-2.06-1.32c-1.62-.85-2.56-2.23-2.15-4a4.43,4.43,0,0,1,4.48-3.5,18.73,18.73,0,0,0,3.68-.33c3.25-.81,4.47-2.68,3.94-6.47-.85-6.09-.9-6.1,5.49-10.47.65.45,1.71.79,1.89,1.39C1690.75,1659.24,1691.94,1666.51,1691.13,1674Z"/><path class="cls-1" d="M623.7,198.37a34.17,34.17,0,0,0,7.1,1c6,.2,12.08.11,18.12.26,2.34.06,6.31-.21,9.4,1.11-5.61,6.72-15.9,13.81-19.7,23.28-1.28,4.22,2.52,6.1,5.69,4.79,2.35-1.89,4.34-3.24,6-4.9,3.44-3.39,6.69-7,10.09-10.42,1-1,3.07-1.87,4.92-3.18.11,2.45-.17,7.15-.15,9.92,0,7.66-.17,15.31.07,23a67.52,67.52,0,0,0,1.59,11.9c.45,2.12,2.45,3.12,4.65,3.05a4.65,4.65,0,0,0,4.5-3.36,17.23,17.23,0,0,0,.79-4.73c.1-3.62,0-7.25,0-10.87.14-8.8-.24-17.63.26-28.16,8.25,6.47,15.57,18.84,20.14,18.69,2.7-.09,4.55-1.11,5.15-4.68.83-5-12.89-15.23-17.43-23.94,4.65-1.22,9.92-.69,13.83-.7,6.85,0,13.94.07,19.43,0a5.45,5.45,0,0,0,5.51-3.59,5.21,5.21,0,0,0-2.27-6.37c-12-3.12-23.82-.34-36-2.88,4.57-7.7,11.68-12.86,15.29-19.75,0-3.75-1.89-5-5-5.45-7,2.53-10.4,10.45-17.77,14.47-1.41-24.72-.62-38.16-3.19-40.94-2.44-3.77-7.83-2.55-8.41,1.44a81.28,81.28,0,0,0-.71,9.62c-.19,8.05-.21,16.11-.39,24.16-.47,5.22.23,7.44-1.22,6-3.8-3.88-6.22-7.31-9-10.12-2.25-2.28-4.47-4.61-6.86-6.75-1.36-1.23-4.14-.86-5.54.45a4.43,4.43,0,0,0-1.11,5.48,36.4,36.4,0,0,0,4,6c3,3.79,6.12,7.47,9.15,11.23,1,1.19,2.73,3.15,4.2,4.71-7.69-.1-19.28-.28-27.29-.34a62.08,62.08,0,0,0-7.22.29,5.31,5.31,0,0,0-4.5,4.92A5.55,5.55,0,0,0,623.7,198.37Z"/><path class="cls-1" d="M1082.82,200.39c5.48.1,12.58,0,19.43,0,3.91,0,9.18-.52,13.83.7-4.54,8.71-18.26,18.95-17.43,23.94.6,3.57,2.45,4.59,5.15,4.68,4.57.15,11.89-12.22,20.14-18.69.5,10.53.12,19.36.26,28.16.06,3.62-.09,7.25,0,10.87a17.23,17.23,0,0,0,.79,4.73,4.65,4.65,0,0,0,4.5,3.36c2.2.07,4.2-.93,4.65-3.05a68.47,68.47,0,0,0,1.59-11.9c.24-7.65,0-15.3.07-23,0-2.77-.26-7.47-.15-9.92,1.85,1.31,3.92,2.17,4.92,3.18,3.4,3.44,6.65,7,10.09,10.42,1.68,1.66,3.67,3,6,4.9,3.17,1.31,7-.57,5.69-4.79-3.8-9.47-14.09-16.56-19.7-23.28,3.09-1.32,7.06-1.05,9.4-1.11,6-.15,12.08-.06,18.11-.26a34.17,34.17,0,0,0,7.11-1,5.55,5.55,0,0,0,3.9-5.48,5.31,5.31,0,0,0-4.5-4.92,62.08,62.08,0,0,0-7.22-.29c-8,.06-19.6.24-27.3.34,1.48-1.56,3.24-3.52,4.21-4.71,3-3.76,6.16-7.44,9.15-11.23a36.4,36.4,0,0,0,4-6,4.43,4.43,0,0,0-1.11-5.48c-1.4-1.31-4.18-1.68-5.55-.45-2.38,2.14-4.6,4.47-6.85,6.75-2.79,2.81-5.21,6.24-9,10.12-1.45,1.47-.75-.75-1.22-6-.18-8-.21-16.11-.39-24.16a81.28,81.28,0,0,0-.71-9.62c-.58-4-6-5.21-8.41-1.44-2.57,2.78-1.78,16.22-3.19,40.94-7.37-4-10.72-11.94-17.77-14.47-3.15.49-5,1.7-5,5.45,3.61,6.89,10.72,12,15.29,19.75-12.21,2.54-24-.24-36,2.88a5.2,5.2,0,0,0-2.27,6.37A5.45,5.45,0,0,0,1082.82,200.39Z"/><path class="cls-1" d="M1408.49,2788.62c-11-13.32-23.82-24.5-39.5-32-22.12-10.52-44.83-12.57-68.09-3.71-15.66,6-28,16.2-38.43,29.13-2.44,3-4,6.91-7.77,8.79-.26-.41-.67-.77-.64-1.08a26.49,26.49,0,0,1,.82-5.74c11.9-35.27,35.62-59.32,69.8-73.44,13.61-5.62,27.65-6.6,42-4.28,1.56.26,3.09.72,4.66.85,1.9.15,4.38-2.1,5.06-4.39a4.84,4.84,0,0,0-2.77-5.86,32.63,32.63,0,0,0-7.92-2.44c-11.09-1.21-22.1-1.23-33.09,1.56-16.87,4.28-31.79,12.26-45.31,23-16.09,12.76-28.95,28.19-37.74,46.9-1.42,3.05-2,6.77-5.74,9.27-.93-1.51-1.8-2.7-2.45-4-2.8-5.69-5.11-11.67-8.37-17.08-11.85-19.69-28.2-34.15-50.2-41.7a67.56,67.56,0,0,0-43.25-.65,21.9,21.9,0,0,0-6.22,3.3c-.67.49-.91,2.23-.64,3.2a3.93,3.93,0,0,0,2.23,2.47,14.18,14.18,0,0,0,4.62-.18c6.31-.66,12.66-2.23,18.9-1.89a72.41,72.41,0,0,1,39.85,14c17.65,13,28.72,30.38,34.66,51.26.17.61-.28,1.4-.44,2.13-2.94.84-4.08-1.78-5.75-3.15-10.84-8.95-22.72-16-36.37-19.68-15.31-4.12-30.66-4-45.67,1.26-20.33,7.17-35.22,21-46.34,39.15a12.86,12.86,0,0,0-1.41,3.25,4.71,4.71,0,0,0,1.56,5.33c1.4,1.1,4.35,1.07,5.54-.17,1.64-1.7,3.06-3.61,4.63-5.38,5-5.64,9.57-11.73,15.09-16.79,12.74-11.66,27.76-18.19,45.33-18,21.44.2,39,9.09,54.07,23.84.45.45.48,1.32,1,2.69-3.32-.69-6.37-1.13-9.31-2a76.82,76.82,0,0,0-30.75-1.69c-31.92,4.24-58.75,18.48-80.06,42.78a66.23,66.23,0,0,0-6.11,8.76,4.88,4.88,0,0,0,1.08,6.41,5.74,5.74,0,0,0,7.58-.64,35.07,35.07,0,0,0,3-3.68c13.44-18.9,32.14-30.3,53.64-37.67a97.86,97.86,0,0,1,42.24-4.84,50.26,50.26,0,0,1,21.28,7c1.47.9,3.46,1.56,3.33,4.26-17.49-3.75-32,2.31-45.09,13.2-1.22,1-2.36,2.12-3.53,3.2-15.85,14.75-25.73,33.05-31.75,53.63a15.8,15.8,0,0,0-.49,3.51c-.14,2.24,1.77,4.48,4.24,5a4.12,4.12,0,0,0,5-2.34c1.47-3.23,2.55-6.64,3.78-10,6-16.25,14.58-30.8,27.37-42.69a52.5,52.5,0,0,1,21.4-12.48c9.37-2.67,18-1.23,25.51,5.53,3.5,3.17,5.34,6.64,3.93,11.58-.86,3-.82,6.29-1.4,9.41-9.19,49.71-22.73,98.14-42.92,144.57-22.65,52.08-51.9,100-90.58,141.81-24.14,26.12-51.25,48.64-81.92,66.69A293.55,293.55,0,0,1,913,3246.1c-1.69.23-3.11,0-4.12-2.33,1.24-4.46,2.45-9.45,4.05-14.32,1.11-3.37,2.91-6.52,4.14-9.86,1.9-5.2,3.81-10.41,5.3-15.73,4.59-16.41,7.15-33.38,14-49.16,2.83-6.55,5.5-13.17,8.29-19.74,3.88-9.13,7.64-18.28,9.82-28,1.81-8.12,3.86-16.22,6.45-24.12,4.44-13.57,9.74-26.86,14-40.47,3.19-10.18,6.55-20.32,8.31-31a221.48,221.48,0,0,1,18.78-60,78.13,78.13,0,0,0,3.94-9.94c3.15-9.82,6-19.72,9.22-29.54s5.14-20,3.58-30.44a17,17,0,0,1,3.14-12.38,59.17,59.17,0,0,1,4.41-5.59,100.48,100.48,0,0,0,19.22-32.63c2.65-7.48,5.5-14.9,8.15-22.38a134.52,134.52,0,0,0,7.32-30c2.78-24.84,6-49.64,8.8-74.47a52.74,52.74,0,0,1,4.13-16.05c5.4-11.93,10.74-23.88,16.36-35.7a58.36,58.36,0,0,0,4.58-13.43c1.76-8.57-.51-15.61-6.63-21.67a56.41,56.41,0,0,0-30.3-15.47c-11.3-2-22.76-3.4-34.21-4.4-7.85-.69-15.93-1.14-23.7-.13-16.09,2.09-32.41,2.74-48.23,6.82-5,1.29-10,2.64-15.07,3.49-19.7,3.31-38.44,9.68-56.75,17.46-5.11,2.17-10.18,4.43-15.15,6.89a240.84,240.84,0,0,0-43.79,28.5c-10.28,8.26-19.81,17.07-27.26,28-2,2.94-4.47,5.57-6.64,8.4-2.66,3.45-5.34,6.89-7.85,10.46-10.29,14.64-14.83,31.56-18.37,48.67-4.62,22.35-3.42,45-2.31,67.66a27.72,27.72,0,0,0,.92,5.87c5.43,19.48,10.46,39.1,16.59,58.36,3.13,9.84,6.17,19.66,8.59,29.68.65,2.7,1.38,5.37,2.15,8,2.67,9.15,5,18.34,5.59,27.92a64,64,0,0,0,2,11.73,262.52,262.52,0,0,0,18.4,51.46c5.64,11.49,9.44,23.51,12.5,35.85.86,3.47,1.3,7.15,2.81,10.33,6,12.58,10,25.86,14.58,39,3.9,11.24,8.28,22.31,12.16,33.55,3.49,10.12,6.54,20.4,9.88,30.57,1.49,4.52,3.48,8.88,4.8,13.44,5.1,17.56,12,34.43,19.52,51,2.11,4.62,4.47,9.17,5.2,15.76a277.56,277.56,0,0,1-80.36-21.6c-35.3-15.41-66.6-36.85-94.64-63.12-43.46-40.7-76.27-89.06-101.88-142.54a588.83,588.83,0,0,1-34.34-90,688.88,688.88,0,0,1-19-83.5c-.79-5,.39-8.42,3.9-11.61,7.46-6.76,16.12-8.26,25.5-5.61a52.42,52.42,0,0,1,21.42,12.46c12.81,11.86,21.42,26.42,27.4,42.66,1.09,3,2,6,3.14,9,1.06,2.69,3.27,3.93,5.54,3.44a5.36,5.36,0,0,0,4.28-6.16c-.27-1.55-.79-3.06-1.21-4.58a115,115,0,0,0-14.85-32.33c-7-10.75-15.57-20.14-26.26-27.29-10.87-7.28-22.7-11.25-36-8.6a13.38,13.38,0,0,1-3.18-.25c3.87-4.75,8.82-6.43,13.68-8.07,12.76-4.3,26-4.18,38.83-1.57,28.11,5.72,52.27,18.38,69.39,42.37a16.1,16.1,0,0,0,4.23,4c1.82,1.19,3.84.56,5.58-.57s2.56-3.69,1.59-5.25c-2.28-3.68-4.46-7.53-7.3-10.77a125.12,125.12,0,0,0-64-39.15c-16.36-4.22-32.92-4.88-49.45-.42-1.79.49-3.56,2.06-6,.33a24.87,24.87,0,0,1,2.59-3.49,80.7,80.7,0,0,1,31.41-18.8c18.65-5.82,36.82-4.43,54,5.52a70.29,70.29,0,0,1,17.61,14.06c3.94,4.45,7.5,9.24,11.32,13.79a14.69,14.69,0,0,0,4.28,3.95,4.26,4.26,0,0,0,6.15-4.33,13.63,13.63,0,0,0-2-5.46,90.2,90.2,0,0,0-26.67-28.45c-22.25-15.18-46.18-17.75-71.46-8.81-11,3.89-20.62,10.09-29.6,17.43-1.69,1.38-2.85,3.93-5.76,3.26-1.47-1.49-.38-3.07,0-4.43A95.43,95.43,0,0,1,595.29,2742c12-12.18,26.37-19.92,43.57-22.63,8.92-1.4,17.37.15,26,1.16a14.26,14.26,0,0,0,4.63.21,3.89,3.89,0,0,0,2.26-2.42,4.28,4.28,0,0,0-.56-3.26,6.35,6.35,0,0,0-2.87-2,62.37,62.37,0,0,0-36.21-3.4c-26.93,5.5-46.5,21.33-60.58,44.35-3.5,5.72-5.89,12.1-8.79,18.19-.7,1.45-1.49,2.73-3.87,2-1.07-2.2-2.31-4.65-3.47-7.14-12.69-27.27-32.78-47.48-59.08-61.65-16.81-9.06-34.74-13.44-53.91-11.31a62,62,0,0,0-11.47,2.77,4.73,4.73,0,0,0-2.87,5.81,5.74,5.74,0,0,0,6.18,4.37c1.56-.2,3.09-.76,4.65-1,11.52-1.5,22.93-1.45,34.17,2.07a114.44,114.44,0,0,1,44.82,26.24c15,14.11,26.38,30.64,32.18,50.66.55,1.9,1.23,3.79-.48,6.12-1.84-2.12-3.59-4.16-5.37-6.17-4.46-5.05-8.49-10.59-13.48-15-23.78-21.21-51.09-27.74-81.81-18.51-22.1,6.64-39.12,20.55-53.6,38a20.15,20.15,0,0,0-1.9,3,5.21,5.21,0,0,0,1.56,7.29,5,5,0,0,0,6.52-.54c2.75-2.86,5.32-5.89,8-8.83,12.22-13.53,26.71-23.57,44.33-28.8a69.78,69.78,0,0,1,53.15,4.79c15.73,8,27.45,20,35.86,35.42.28.49-.16,1.37-.39,2.83-2.46-1.68-4.66-3.16-6.85-4.66a81.56,81.56,0,0,0-24.67-11.56c-24.37-6.7-47.17-3.31-68.17,10.86a59.35,59.35,0,0,0-19.14,20.87,4.85,4.85,0,0,0,1.57,6.3c2.05,1.4,5.11,1.51,6.66,0s2.6-3,3.92-4.45c2.91-3.23,5.56-6.78,8.82-9.61,30.53-26.49,73.38-17.12,94.4,4a10.5,10.5,0,0,1,1.42,2.68c-.68.31-1.1.68-1.36.59-3-1-6-2.1-9-3-28.63-8.47-54.15-3.43-75.78,17.76-15.52,15.22-24.19,34.16-29.07,55a12.1,12.1,0,0,0,0,5.86,5.28,5.28,0,0,0,3.1,3.07,5.87,5.87,0,0,0,4.39-.71,7.52,7.52,0,0,0,2.68-3.76c1.15-3.38,1.84-6.9,2.9-10.31,5-16.18,12.81-30.69,25.26-42.49,17.47-16.56,37.9-20.4,60.64-14.4,6.89,1.82,13.59,4.24,19.14,9.12-5.11,8.38-9.92,16.55-15.06,24.51a16.16,16.16,0,0,1-5.35,4.52c-5.79,3.45-11.76,6.61-17.59,10-2.13,1.24-4.15,2.1-6.71,1.3-3.79-1.18-7.12.37-9.93,2.66a9.77,9.77,0,0,0-3.6,10.64c1.29,4.86,5.71,8.6,10.14,8.79a10.74,10.74,0,0,0,10.16-6.78c.43-1.1.39-2.37.81-3.47,1.82-4.75,3.93-5.92,11.49-6.16-2.66,7.23-5.26,14.19-8.39,21.07-4.54,1.77-8.94,3.5-13.34,5.24-3.75,1.48-7.29,2.27-11.43.54-4.81-2-9.38-.31-13.11,3.22-3.54,3.34-4.29,7.58-2.88,12.05,1.68,5.3,5.24,9,10.9,9.75,4.87.62,8.35-2.27,10.63-6.27,1.33-2.34,1.93-5.09,2.75-7.35a18.43,18.43,0,0,1,10.72-3.43c.31,7.54-2.59,13.52-4.6,19.41a60.11,60.11,0,0,0-6.74,3.57,14.16,14.16,0,0,0-4.07,4.2,13.46,13.46,0,0,0,1.94,15.45,14.85,14.85,0,0,0,17.52,2.93c4.61-2.39,7.17-8.41,5.85-14.34-.68-3-1.81-6-2.67-8.78,2.5-7.77,2.84-15.92,7.75-22.68,2.83,2.57,4.25,5.16,3,8.69a18.94,18.94,0,0,0-1.07,4.61c-.47,6.44,4.1,11.39,10.69,11.74A10.54,10.54,0,0,0,542,2931.19c.22-5.1-1.23-9.42-6.45-11.6-1.8-.75-3.54-1.62-5.09-2.34-2.49-5.9-4.8-11.35-7.09-16.79,1-2.81,1.9-5.44,2.92-8a74.84,74.84,0,0,1,3.39-7.6c.43-.79,1.73-1.11,2.63-1.64,2.35,3.1,2.4,6.19,1.61,9.36-.58,2.3-1.64,4.52-1.85,6.84-.71,7.6,7.78,13.35,14.67,10.09a10.94,10.94,0,0,0,3.83-17,57.59,57.59,0,0,0-5.93-5.32,10.54,10.54,0,0,1-.63-1.39c-.4-1.54-.66-3.11-1.16-4.61-3.87-11.72-3.12-22.59,5.78-32a30.75,30.75,0,0,1,3.93-2.89c.59,2.39,1,3.88,1.34,5.38.55,2.32,1.19,4.62,1.58,7a622.22,622.22,0,0,0,21.73,88.94c17,52.84,40.29,102.64,71.77,148.46,25.11,36.55,54.49,69.2,89.73,96.31,32.07,24.67,67.08,43.71,106.14,54.92a248.26,248.26,0,0,0,45.48,8.78c19.62,1.82,38.82-1.11,57.79-5.7,48.81-11.81,91.43-35.66,129.72-67.63,28.2-23.54,52.46-50.77,73.59-80.75,44-62.49,72.84-131.71,90.07-205.93,3.5-15.06,6.23-30.3,9.33-45.46.29-1.43.21-3.17,2.91-3.61a52.08,52.08,0,0,1,10,15.42,9,9,0,0,1,.32,4.64c-1,6.63-2.23,13.24-3.24,19.11-3,2.84-5.56,4.79-7.52,7.22-2.83,3.52-2.31,10.1.63,13.27,3.31,3.57,7.75,4.71,11.87,3,4.85-2,7.49-6.29,6.6-11.36-.47-2.71-1.92-5.29-2.14-8-.2-2.53-.6-5.67,3.36-7.29a58.67,58.67,0,0,1,7.47,18l-7.27,16.43c-1.85.81-3.28,1.49-4.75,2.08-5.25,2.12-6.72,6.45-6.54,11.55a10.54,10.54,0,0,0,10.79,10.4c6.59-.3,11.22-5.24,10.78-11.66a17.94,17.94,0,0,0-1.06-4.61c-1.25-3.53.13-6.13,3.26-9,4.28,7.56,5.57,15.73,7.46,23.43-1,3.31-2.35,6.27-2.85,9.36-1.35,8.29,4.51,15,12.87,14.86a15.14,15.14,0,0,0,5.77-1.18c4.58-2,7.92-5.29,8.34-10.66.44-5.58-1.13-10.21-6.44-13l-6.51-3.37c-1.39-5.44-2.86-10.77-4-16.17-.19-.85.86-2,1.46-3.23l9.27,3.25c.57,1.65,1,3.12,1.59,4.56a23.08,23.08,0,0,0,1.89,4.31c2.63,4,7.43,6.22,11.13,5.23,7.21-1.93,11.83-9.6,10-16.6-1.57-6-8.39-10.57-14.92-8.52-5.49,1.73-10,.95-14.79-1.25-3.58-1.63-7.38-2.76-11.4-4.23-2.58-6.67-5.17-13.29-7.63-20-.19-.5.54-1.34.86-2,6.26.7,9.29,4.09,11,10.34,2.14,7.72,11.85,9.23,17.22,3.35,5.51-6,3.85-14.3-3.68-17.61-1.74-.77-4-1.57-5.66-1-4,1.31-6.83-.58-9.94-2.41-5.13-3-10.49-5.64-15.55-8.76a19,19,0,0,1-6-5.46c-5-7.61-9.52-15.48-14.41-23.54,5.75-5.24,12.9-7.66,20.16-9.48,21.38-5.36,41-2,57.76,13.06a84.07,84.07,0,0,1,17.77,22.21,125.32,125.32,0,0,1,11.31,28.71,24,24,0,0,0,2.62,6.55c1.11,1.81,3.25,2.17,5.31,1.61a4.31,4.31,0,0,0,3.45-4.26,18.73,18.73,0,0,0-.26-4.74c-5.8-24.63-16.7-46.32-37.11-62.1a67.1,67.1,0,0,0-40.74-14.55,85.46,85.46,0,0,0-33.68,6.17c-1.29.52-2.77,1.48-3.69-.6,10.52-11.53,23.2-18.74,40.17-21.2,25.36-3.68,47.13,3.23,63.67,23.7,1,1.24,1.9,2.55,2.9,3.78a13.25,13.25,0,0,0,1.69,1.66,5.79,5.79,0,0,0,6.68,0,4.8,4.8,0,0,0,1.68-6.27,57.8,57.8,0,0,0-19.13-20.88c-27.32-18-55.69-18.68-84.66-4.29-4.59,2.28-8.67,5.57-13,8.27-.68.42-1.72.24-3.29.41a66.94,66.94,0,0,1,10-15.72c23.91-28.61,60.28-39.29,97.33-19.16,10.61,5.76,19.58,13.47,27.6,22.38a116.81,116.81,0,0,0,8.16,8.62c1.5,1.35,3.68,1.27,5.53,0,2.2-1.53,3.17-4.07,2.11-6.16A27.28,27.28,0,0,0,1408.49,2788.62ZM798.84,2914.23c-2.74-.21-2.64-2.07-3.06-3.43-6.37-20.85-12.28-41.85-19.17-62.53-7.05-21.15-7.59-42.8-7-64.68a165.49,165.49,0,0,1,7.67-44.4,102.79,102.79,0,0,1,18.93-35.45c5-6.12,9.59-12.64,14.75-18.65,7.8-9.09,17.4-16.22,26.86-23.42,18.16-13.81,38.49-23.51,59.73-31.59,14.9-5.67,30.3-9.08,45.77-12.67,18.22-4.24,36.66-6.65,55.16-8.65a147.41,147.41,0,0,1,27.31-.1c10.25.81,20.44,2.57,30.58,4.34a49.52,49.52,0,0,1,21.43,9.81c5.74,4.35,7.85,9.84,5.43,16.72-1.18,3.35-2.65,6.61-4.13,9.85-5.28,11.54-10.64,23-15.92,34.58a60.94,60.94,0,0,0-5,19.51c-1,9.86-2.52,19.66-3.67,29.5s-2.31,19.71-3.13,29.58c-1.47,17.49-4.67,34.52-11.63,50.77-2.65,6.19-4.46,12.72-6.83,19-4,10.56-10.24,19.6-18.5,28-1.61-1-2.44-1.28-2.92-1.85-18.56-22-42.16-29-70.31-25.28-27.68,3.65-52.4,15.15-77.41,26.22-11.66,5.16-22.64,11.27-32.52,19.53-11.32,9.46-22.11,19.28-29.69,32.16A19.32,19.32,0,0,1,798.84,2914.23Zm29.51,105.07c-.17.21-.71.13-1.8.3a64.46,64.46,0,0,1-3.33-5.61c-8.13-17.28-14-35.37-18.69-53.85a34.5,34.5,0,0,1-.95-10.57,153.4,153.4,0,0,1,2.35-20.08c1.85-9.16,7.12-16.74,13.09-23.69,8.84-10.28,19.3-18.8,30.38-26.55a42.39,42.39,0,0,1,7.17-4.22c18.16-7.91,36.15-16.31,54.66-23.36a119.56,119.56,0,0,1,53.68-7.8c12.84,1.16,23.19,7.66,32.85,15.42,4.09,3.29,6.49,8.21,7.74,13.18,2.42,9.65,3.78,19.46.83,29.36-2.84,9.49-5.31,19.1-8.37,28.52-2.07,6.39-4.86,12.55-7.35,18.8q-4.85,12.15-9.73,24.28c-.72,1.8-1.6,3.54-3,6.51-4.13-3.55-7-6.23-10.09-8.64a35.86,35.86,0,0,0-22-7.76c-13.51-.25-27-.33-40,4.31a53.59,53.59,0,0,0-6.68,2.42c-14.37,7.54-29.26,14.24-41.72,25a31.21,31.21,0,0,1-4.89,3.37A80.68,80.68,0,0,0,828.35,3019.3ZM849.53,3088c-5.3-14.39-11.32-26.4-14.24-39.65-2.75-12.46.59-22.64,10-31a42.09,42.09,0,0,1,3.61-3.09c9.4-6.59,18.58-13.53,28.32-19.57a238.86,238.86,0,0,1,27.21-14.52,58.74,58.74,0,0,1,23-5.17c6.33-.14,12.69-.3,19,.07,10.27.61,17.88,5.24,22.24,15,3.34,7.53,4.83,15.09,2.58,23.08-3.53,12.57-7.22,25.08-10.89,37.61-.56,1.91-2,2.28-3.59,1-1.84-1.51-3.49-3.26-5.44-4.58a32.77,32.77,0,0,0-15.47-5.49c-14.83-1.49-28.27,2.58-40.85,9.9a148.21,148.21,0,0,0-27.72,20.35C861.92,3077.09,856.23,3082,849.53,3088Zm14.06,38.85a65.75,65.75,0,0,1-6.88-16c-2.23-7.56.31-14,5.62-19.51a203.43,203.43,0,0,1,28.82-24.63,86.8,86.8,0,0,1,31.05-14.23,34.14,34.14,0,0,1,17.55.82,15,15,0,0,1,10.17,9.15,26.11,26.11,0,0,1,1.43,15.13c-.76,4.28-1.57,8.57-2.75,12.74-1.82,6.46-4,12.84-6.05,19.22a13.93,13.93,0,0,1-1.94,2.94c-3.05-1.22-5.89-2.5-8.82-3.52-13.21-4.62-25.8-1.91-37.92,3.8-9.29,4.37-18.33,9.27-27.51,13.88C865.75,3127,864.88,3126.76,863.59,3126.82Zm10.67,35.52q-2.65-6.62-5-13.33c-2.06-5.8-.89-9.86,3.84-13.65a17.6,17.6,0,0,1,3-2c10.61-5.31,21.09-10.93,32.46-14.52,6.23-2,12.55-1.53,18.81-.16,3.47.76,5.23,3.08,6,6.57a18.3,18.3,0,0,1-1,10.51c-2.35,6.26-5,12.42-8,19.74-7.94-5-15.12-4.41-22.38-1-4.31,2-8.7,3.86-13,5.87-3.91,1.83-7.77,3.78-12.21,6A28,28,0,0,1,874.26,3162.34Zm13.45,36.94c-3.89-5.93-6.34-12.46-6.13-19.72a7,7,0,0,1,3-4.77,105.93,105.93,0,0,1,25.8-11.82,5.74,5.74,0,0,1,7.63,5.24c.64,7.17-.06,14.18-3,20.4Zm6.49,21.32a25.54,25.54,0,0,1-2-4.24c-1-2.93-.54-5.67,2.12-7.24,4.66-2.75,9.62-5,14.47-7.43.28-.14.75.07,1.57.18.44.63,1.69,1.61,1.57,2.37-1.11,6.69-4.41,12.46-8.5,17.69C901.56,3224.35,895.77,3223.3,894.2,3220.6Z"/><path class="cls-1" d="M1730.53,1025.16c-45.19-199.52-109.89-378.74-192.32-532.69-40.66-75.92-85.4-144.87-133-204.92-48.11-60.7-99.56-112.86-152.93-155-54.45-43-111.46-76.06-169.44-98.22C1023.24,11.55,961.9,0,900.5,0S777.75,11.55,718.16,34.32c-58,22.16-115,55.21-169.44,98.22-53.37,42.15-104.82,94.31-152.93,155-47.6,60.05-92.35,129-133,204.92C180.36,646.42,115.66,825.64,70.47,1025.16,23.71,1231.63,0,1450.94,0,1677s23.71,445.37,70.47,651.84c45.19,199.52,109.89,378.74,192.32,532.69,40.65,75.92,85.4,144.87,133,204.92,48.11,60.7,99.56,112.86,152.93,155,54.45,43,111.46,76.06,169.44,98.22C777.75,3342.45,839.1,3354,900.5,3354s122.74-11.55,182.34-34.32c58-22.16,115-55.21,169.44-98.22,53.37-42.15,104.82-94.31,152.93-155,47.6-60,92.34-129,133-204.92,82.43-154,147.13-333.17,192.32-532.69C1777.29,2122.37,1801,1903.06,1801,1677S1777.29,1231.63,1730.53,1025.16ZM404.41,294.38c47.58-60,98.43-111.58,151.12-153.21C664.88,54.8,780.94,11,900.5,11s235.62,43.8,345,130.17c52.7,41.63,103.55,93.18,151.13,153.21q7.37,9.28,14.62,18.88c-4.65,0-9.38-.08-14.13-.08-43.49,0-77,0-120.48,0l-148.6,0c-28.6,0-87.92-.19-96.16,0-.54-1.29-2.14-5.08-2.83-6.94a172.08,172.08,0,0,0-46.22-68.38c-6.6-6-12-13-17.49-20-11.61-14.82-16.39-32-17.92-50.34q-1.2-14.43-2.86-28.82a68.87,68.87,0,0,0-9.49-27.2,39.89,39.89,0,0,0-69-.13,69.23,69.23,0,0,0-9.36,26c-1.23,8.76-2.58,17.59-2.68,26.4-.16,13.18-4,25.37-8.21,37.55a35.31,35.31,0,0,1-4.45,8.52c-7.37,10.58-15.14,20.78-24.75,29.58A168.94,168.94,0,0,0,772.48,305c-1,2.55-2.14,4.09-3.37,8.18-13.11.13-101.58-.05-144.27-.06q-55,0-109.94,0c-45,0-80.29.08-125.12.17Q397.06,303.7,404.41,294.38Zm581.86,25.5a65.35,65.35,0,0,0,1.39,8.32,116.09,116.09,0,0,0,9.07,26.17c5.88,11.93,12.06,23.71,20.75,33.9,2.94,3.46,3.45,7,1.92,11.17a135.81,135.81,0,0,1-13.84,28.09c-.85,1.29-2.23,2.24-3.76,3.73-1.34-1.13-2.75-1.91-3.58-3.09a194.51,194.51,0,0,1-33.37-80.75c-1.39-8.31-1.59-16.82-2.45-25.23a15,15,0,0,0-1.43-5.76,6.43,6.43,0,0,0-3.83-2.39c-1.76-.45-4.1,1.52-4.45,3.31a17.26,17.26,0,0,0-.44,3.57,202.58,202.58,0,0,0,8.91,55.84,204.87,204.87,0,0,0,28.41,57c1.59,2.25,2.86,4.72,4.5,7.47-11.9,14.86-27.29,23.79-43.18,30.88-3.43-1-3.35-3.29-4-5.05-3.54-9.08-4.94-18.68-6.42-28.2-2-13.11-3.54-26.31-5.34-39.46-1.86-13.55-3.7-27.1-5.71-40.63-1.83-12.34-3.84-24.66-5.86-37a14.21,14.21,0,0,0-1.83-5.63,5.19,5.19,0,0,0-4.06-2,4.86,4.86,0,0,0-3.32,2.92,18.9,18.9,0,0,0-.61,7.11c.78,7.6,1.7,15.19,2.81,22.74,2.11,14.33,4.4,28.62,6.6,42.93,1,6.37,2,12.73,2.82,19.11,1.32,10,2.21,20,3.86,29.89,2.05,12.27,4.69,24.43,7.19,37.25-7.88,4.63-17.16,5.34-26.23,6.06-15.7,1.25-31.28.31-45.74-5.18-2.16-3-.55-5.22.06-7.41a263.22,263.22,0,0,0,7.69-43.92c1.23-12.39,3.48-24.69,5.36-37,2.67-17.49,5.49-35,8.09-52.46.71-4.77,1-9.61,1.26-14.43a9.47,9.47,0,0,0-.74-4.69c-.66-1.27-2.12-2.78-3.36-2.91a5.73,5.73,0,0,0-4.08,2,9.29,9.29,0,0,0-1.62,4.44c-2.25,13.9-4.52,27.81-6.58,41.75C868,383.5,865,404.61,862,425.71c-1.19,8.36-2.27,16.73-3.49,25.09-1.05,7.18-3.36,14-6.42,22.21-17.83-8-33.23-16.89-45.11-31.77,1.87-3.08,3.37-5.89,5.19-8.47a199.24,199.24,0,0,0,35.28-91.39c.84-6.79,1-13.66,1.34-20.49a14.55,14.55,0,0,0-.45-3.57c-.35-1.78-2.71-3.74-4.46-3.28a7.17,7.17,0,0,0-3.84,2.42,10.21,10.21,0,0,0-1.29,4.56c-.56,4.79-1.06,9.6-1.43,14.41a173.41,173.41,0,0,1-19.73,67.89c-4.48,8.58-8.94,17.12-14.72,24.91a13.58,13.58,0,0,0-1.25,2.15c-3.87.5-5.11-1.29-6.14-2.88a135.06,135.06,0,0,1-13.84-28.09,10.33,10.33,0,0,1,1.95-11.16c9.42-11.18,16.1-24,22.26-37.2,3.77-8.07,6.13-16.59,8.13-25.22a40.18,40.18,0,0,0,.81-7.18c.15-3-1.35-5.16-3.54-5.54a4.85,4.85,0,0,0-5.56,3.51,64.93,64.93,0,0,0-1.92,7c-2.6,12.75-7.61,24.59-13.68,36-2.64,5-5.77,9.67-8.83,14.4-.8,1.24-2.18,2.1-3.7,3.5-.7-1.71-1.39-2.68-1.49-3.72A143.73,143.73,0,0,1,792.67,291a163.84,163.84,0,0,1,27.75-37.85,377.9,377.9,0,0,0,26.77-29.47c10.14-12.76,15-27.52,17.93-43,1.67-8.65,1.94-17.59,2.48-26.42a132.63,132.63,0,0,1,4.56-27.32c4.49-16.24,17.29-24.68,33.78-22,11.39,1.84,19.11,8.93,22.21,19.73,2.64,9.21,3.82,18.89,5.1,28.43,1.18,8.76,1,17.73,2.54,26.42,2.74,16,7.28,31.41,18.2,44.06,6.83,7.92,13.5,16,20.83,23.44,13.07,13.28,24.8,27.46,33.57,44A144.43,144.43,0,0,1,1025,373.81a10.32,10.32,0,0,1-1.17,2.9c-2.72-.15-3.66-2.08-4.76-3.7a148.6,148.6,0,0,1-20.66-44.74c-1-3.5-1.69-7-2.67-10.53s-3.15-5.13-5.94-4.63C987.32,313.56,985.9,316.06,986.27,319.88ZM1719.8,2326.41c-45,198.56-109.33,376.85-191.29,529.92-40.34,75.36-84.73,143.75-131.92,203.29-47.58,60-98.43,111.58-151.13,153.21-109.34,86.38-225.4,130.17-345,130.17s-235.62-43.79-345-130.17c-52.69-41.63-103.54-93.18-151.12-153.21-47.19-59.54-91.58-127.93-131.92-203.29-82-153.07-146.32-331.36-191.29-529.92C34.62,2120.74,11,1902.24,11,1677s23.62-443.74,70.2-649.41c45-198.56,109.33-376.85,191.29-529.92,34-63.55,70.93-122.13,110-174.64,35.83.1,61.95.14,97.93.18q50.13,0,100.26,0l118.36.11c18.93,0,37.85-.07,56.78,0a96.42,96.42,0,0,0,10.2,0c-2.44,10.29-3.11,25.44-3.61,36.21-.53,11.29,2.13,22.34,3.93,33.55a44,44,0,0,1-3.57,4.93c-6.13,6.38-12.25,12.77-18.59,18.94a411.46,411.46,0,0,1-42.62,35.59c-21.85,16.12-46.1,27.78-71.33,37.69a261.88,261.88,0,0,1-46.41,13.05,191.72,191.72,0,0,1-33.6,3.44,82.11,82.11,0,0,1-38.49-8.88c-15.29-7.74-28.21-18.88-36.85-33.94-8.82-15.37-13.91-31.45-8.24-49.64s17.53-30.36,34.4-38.15c7.56-3.49,15.53-4,23.66-2.53a67.09,67.09,0,0,1,30.27,14.24c15.36,12.32,17.58,16.76,16,38.69a7.9,7.9,0,0,1-.15,1.19c-2.36,10.12-6.54,19.16-16,24.47a18,18,0,0,1-9.09,2.55,26.14,26.14,0,0,1-15.5-6,9.54,9.54,0,0,1-3.76-7.27c-.1-4.05,0-8.07,3.14-11.27a11.06,11.06,0,0,0,1.92-3c1-2-1.11-5-3.52-5.26-3.58-.39-6.63.91-8.18,4a40.24,40.24,0,0,0-4,11.26c-1.39,8.16,1.33,15.09,7.89,20.32a39,39,0,0,0,19.92,8,25.9,25.9,0,0,0,17.31-4,39.34,39.34,0,0,0,15.83-17.73,68.32,68.32,0,0,0,5.8-23.29c1-15.22-4.35-27.51-16-37.29a95.62,95.62,0,0,0-26.69-16.34c-15.57-6.06-31.29-6.6-46.69,1.49-5.78,3-10.66,7.15-15.79,11-11.18,8.46-16.6,20.26-21,33.08-4,11.58-3.34,22.8-.36,34.35,6.16,23.91,20.88,41.37,40.81,54.94a75.52,75.52,0,0,0,13.65,7.68,110.45,110.45,0,0,0,53.22,8A268.91,268.91,0,0,0,621.39,505,319.29,319.29,0,0,0,688,473.86c28.67-17.6,53.83-39.46,77.55-63.13,1.35-1.35,2.43-3.2,4.49-2.79l20.33,36.28a37.3,37.3,0,0,1-3.06,4.64C778,459.43,769,470.32,759.13,480.38c-22.7,23.21-49.61,41-77.25,57.59-11.71,7-24.15,12.87-36.45,18.86-8.68,4.23-17.46,8.44-26.57,11.55-21.72,7.39-43.76,13.79-66.4,17.78-11.89,2.09-24,3.29-35.7,6-18.41,4.27-36.69,9.21-54.86,14.42a198,198,0,0,0-32.77,12.23c-20.67,10.12-39.71,22.92-58.79,35.63a47.37,47.37,0,0,0-8,7.36c-6.06,6.46-12.11,13-17.87,19.67a126.28,126.28,0,0,0-9.3,12.63c-16,24.15-22.9,51.24-24.91,79.76a82.57,82.57,0,0,0,.95,16.82,113.5,113.5,0,0,0,17.83,47c9.81,15,21.45,28.24,38,36.26,5.06,2.46,10.22,4.74,15.44,6.85,20,8.11,47.45,7.63,67.08-1.15,5.15-2.3,10.16-4.88,15.26-7.29,19.56-9.22,32-25.17,41.3-44a42.76,42.76,0,0,0,3.48-10.27c6.91-34.31-11.1-65.16-34.3-79.29-17.41-10.62-36.32-12.07-55.72-5.09-14.4,5.18-24.91,14.4-30.83,28.68a29.16,29.16,0,0,0-2.2,16.53c2.69,15.25,11.28,25.59,26.17,30.2,13.31,4.12,28.54-3.3,33.84-16.23,1.43-3.5,1.63-7-.31-10.48-1.24-2.2-6.23-2.51-7.34-.31-.89,1.75-1.24,3.77-2,5.63-1.8,4.67-4.5,8.75-9.44,10.37-8.76,2.86-17,1.38-23.41-5.31s-10.15-14.75-6.89-24.23a37.88,37.88,0,0,1,15.1-19.83,48.73,48.73,0,0,1,17.82-7.19c19-3.72,36.1.12,50,14.24a71.35,71.35,0,0,1,15,21.81c6.8,15.83,8.39,32,.38,47.88-6.23,12.32-14.61,23.14-25.92,31.38a44.7,44.7,0,0,1-6.17,3.78c-14,7-28.08,14.22-44.41,14.17-8.95,2.41-17.76.52-26.17-2-21.36-6.43-39.47-17.75-52.43-36.58a103.36,103.36,0,0,1-18.69-54c-1.14-21.64,3.21-42.49,11.57-62.42,5-11.93,11.36-23.2,20-32.93,17.52-19.79,38.31-35.53,61.37-48.35,3.51-1.95,7-4,10.58-5.81,7.21-3.55,14.29-7.58,21.84-10.21q22.79-7.93,46-14.46c9.66-2.69,19.65-4.2,29.53-6,10.68-2,21.42-3.63,32.1-5.6,15.84-2.93,31.22-7.66,46.76-11.87,27.85-7.56,53.2-20.62,78.62-33.66,14-7.18,26.66-16.57,39.75-25.21a291.38,291.38,0,0,0,49.93-41.78c8.35-8.72,16.13-18,24.21-27,1.3-1.45,2.79-2.73,4.21-4.11,8.35,6.45,15.92,13.1,24.27,18.54,8.69,5.65,18.13,10.14,27.21,15.12a20.35,20.35,0,0,1,0,3.77c-2.64,13-5.3,26-8.06,39-2.84,13.37-5.59,26.77-8.78,40.06-2.24,9.39-5.4,18.56-7.71,27.94-4.81,19.56-10.93,38.72-17.65,57.68a242.62,242.62,0,0,1-12.85,29.94c-6.47,12.59-14.42,24.18-22.26,35.9a89.6,89.6,0,0,1-32.88,29.52A66.48,66.48,0,0,1,707,758.15c-10-.1-18.78-3.46-27.75-7.3a54.83,54.83,0,0,1-25.32-21.52,105.48,105.48,0,0,1-6.74-11.44c-4.68-9.92-8.39-20.15-6.18-31.43a68.15,68.15,0,0,1,15.49-32.32c7.3-8.37,16.24-15,27-17.35,16.39-3.54,31.24.74,43.18,13,6.5,6.66,9.54,14.67,8.27,24.24-1.11,8.43-5.06,15.12-11.14,20.81-5.84,5.47-12.66,6.71-20.19,4.69-6.29-1.69-9.91-6.63-10-13.35a67.72,67.72,0,0,0-.12-7.13c-.26-2.28-4.07-3.61-5.8-2.08a10.94,10.94,0,0,0-3,3.61,20.78,20.78,0,0,0,8,25.38c12.9,8,25.91,8.25,37.93-2.17,8.42-7.29,13.89-16.28,15.32-27.86,1.5-12.06-1.41-22.37-9.27-31.33a55.85,55.85,0,0,0-34.13-19c-8.35-1.3-17-1.89-25,1.58-8.87,3.84-17.27,8.49-24.42,15.29-14.1,13.42-21.22,30.06-23.5,49a22.63,22.63,0,0,0,.21,7.21c2.06,9.87,4.64,19.54,9.92,28.35,15.81,26.37,19.52,26.72,41,37.15,12.91,6.28,26.58,6.86,40.16,4.55,24.68-4.21,43.67-18.25,58.28-37.93a253.61,253.61,0,0,0,36.28-67.88c13.56-38.79,25.46-77.93,33.76-118.22,3.49-16.93,7.92-33.68,11.25-50.66.29-1.43,1.24-2.74,2-4.3,13.08,2.54,25.73,4.44,38.68,4.56s25.36-2.77,38.56-4.34c.9,3.68,1.73,6.74,2.38,9.83,4,18.89,7.71,37.82,11.92,56.65,2.37,10.6,5.43,21,8.29,31.52,5.71,21,11.34,41.95,18.93,62.34,6.17,16.59,11.42,33.55,20.42,48.95,9.36,16,18.81,31.89,32.33,44.92,18,17.33,39,26.74,64.25,25.34,18.49-1,33.74-9.63,48-20.63a5.32,5.32,0,0,0,.85-.86c11.22-13.95,20.7-28.79,23.82-46.84a34,34,0,0,0,.71-9.57c-3.47-29.52-18.26-51.07-45.52-63.57a31.45,31.45,0,0,0-9.22-2.71c-20.58-2.45-38.23,3.62-52.21,19.11-8,8.84-11.07,19.23-9.35,31.28a43.09,43.09,0,0,0,12.61,25.39c10.6,10.61,22.73,13.27,36.33,7.26,7.63-3.37,12.09-9.29,13.83-17.19a15.32,15.32,0,0,0-3.49-13.5c-1.06-1.25-2.75-2.09-4.29-1.11-1.24.79-2.71,2.13-2.92,3.41-.38,2.33.2,4.8.21,7.2a11.61,11.61,0,0,1-6.62,10.75c-6,3.22-12.51,3.74-18.52.33-16.79-9.55-22.63-32.51-8.87-47.57,5.8-6.34,12.85-11.35,21.25-13.28,11.13-2.58,22-2.62,32.76,3.3,18.33,10.1,28.38,25.75,32.48,45.62a36.87,36.87,0,0,1-.09,14.35,65.58,65.58,0,0,1-7.57,20.27c-11.52,19.64-15.23,22.94-35.82,32.28-12.28,5.57-24.84,6.07-37.76,3.18-20.71-4.63-36.08-17-48.54-33.58-3.63-4.82-6.88-9.93-10.22-15A229,229,0,0,1,998,666.31a442.06,442.06,0,0,1-16.09-48.06c-5-18.23-10.29-36.4-15-54.7-3.51-13.62-6.6-27.36-9.39-41.14-2.38-11.78-5.45-23.46-6.32-35.93,8.83-4.75,18-8.94,26.29-14.37,8.71-5.68,16.64-12.54,25.34-19.22,5.22,4.22,9.34,9.69,13.75,14.81,17.4,20.26,36.59,38.57,58.61,53.73,14.25,9.81,28.5,19.61,43.55,28.22,14.71,8.43,30.31,15,45.52,22.32,9.47,4.59,19.45,7.7,29.4,10.93,5,1.62,10,3.06,15,4.47a413.59,413.59,0,0,0,47,10.72c11.92,1.88,23.93,3.44,35.66,6.2,16.43,3.87,32.78,8.24,48.88,13.31a198.68,198.68,0,0,1,31.25,12.75c18.25,9.4,35.89,19.88,51.83,33,11.86,9.79,23,20.26,31.71,33,15.65,22.87,23,48.57,24.46,76.06.31,6,.5,12.22-.65,18.07-4.21,21.22-11.86,40.75-27.3,56.84-13.68,14.25-30.4,22.3-49.07,26.72-15.32,3.62-30.42,1.05-45-4.34a140.52,140.52,0,0,1-20.76-9.71,62.86,62.86,0,0,1-14.28-11,126.38,126.38,0,0,1-14-18.12c-4.63-7.15-7.78-15.17-8.09-23.78-.84-23.46,8.65-42.73,26.91-56.64,18-13.73,38.17-13.43,58.18-3.61,7.86,3.85,12.75,10.55,17.1,18.12,6.21,10.83-1,29.11-14.63,33.45-11,3.49-19.89-.77-24.13-11.74a45.15,45.15,0,0,0-1.58-4.5c-1.15-2.2-6.08-2.06-7.37.09a9.74,9.74,0,0,0-1.07,8.15c2.32,7.13,6.36,13,13.3,16.39,11.19,5.45,21.63,3.72,32-2.74s19.1-24.48,14.46-38.17c-3.29-9.73-8.51-18.3-17.15-24.25-17.27-11.89-36-15.16-56.24-9.21-9.85,2.89-18.73,7.53-25.86,14.94A91,91,0,0,0,1296.94,772c-8.36,18-9.79,36.63-2.46,55.11,5.71,14.4,15.26,26.38,27.28,36.32,7.25,6,15.87,9.45,24.11,13.64,10.9,5.55,22.36,8.25,34.68,9.2,19.7,1.52,37.33-3.76,54.41-12.76,12-6.34,21.62-15.26,29.92-25.84A127.24,127.24,0,0,0,1479,825.2c8-16.12,12.46-33.11,11.78-51.2-.18-4.81-1.21-9.58-1.73-14.38-2.28-21.11-8.29-41.1-19.47-59.14-12.79-20.64-28.18-38.8-48.89-52.51a500.24,500.24,0,0,0-44.43-26.76,150,150,0,0,0-23.24-10c-31-10-62.23-19.22-94.79-23.36-23.59-3-46.49-9.66-69.06-17.09-20.7-6.81-40.09-16.74-59.42-26.69-10-5.16-19.19-11.81-28.83-17.61C1067,506,1038.57,479.59,1013.83,449a33,33,0,0,1-3-5.09l20.31-36.24a10.86,10.86,0,0,1,2.54,1.29c13.53,13.22,27.22,26.19,41.93,38.16,39.06,31.82,82.54,54.42,131.89,65.23,14.14,3.11,28.38,6.1,43,5.42,19.6-.9,38.3-5,54.63-16.65,4.25-3,8.19-6.49,12.19-9.86,14.35-12.08,23.18-27.54,28.07-45.51a56.75,56.75,0,0,0-1.45-35.5c-2.94-8-5.74-16.06-11.5-22.43-8.7-9.65-18.67-17.85-31.06-22.38-6.43-2.34-13.18-3.91-20.11-3.22-20.53,2.05-37.36,11.66-51.84,25.91a34.87,34.87,0,0,0-10,19c-2.79,15.73,0,30.75,9.18,43.78,7.05,10,17,16.41,29.94,14.38a45.58,45.58,0,0,0,15.76-5.7c14.69-8.69,13.07-23.39,7.13-33.59a7.41,7.41,0,0,0-7-4c-1.47.09-3.4.7-4.16,1.77s-.65,3.07-.18,4.41,2.15,2.44,2.78,3.86c3.42,7.82,2.66,15.25-5.92,19.35-11.68,5.58-17.62,5-27.21-4.19a32.28,32.28,0,0,1-4.85-6.86c-5.43-9.09-5.81-19.08-4.89-29.26a24.61,24.61,0,0,1,7-15,79.4,79.4,0,0,1,28.78-19.5c7.88-3.18,16.36-4.9,24.87-3.09,17.55,3.75,30.57,14,39,29.64,2.82,5.23,4.11,11.3,5.92,17.05,2.25,7.14,1.6,14.25-.2,21.44-4.9,19.59-15.94,34.9-31.69,47.21-14.83,11.6-31.76,17.24-50.31,17.92-12.91.47-25.71-1.42-38.4-3.74-19.48-3.57-38.08-9.93-56.34-17.59-27.7-11.61-53.27-26.59-76.15-46.09-2.76-2.35-5.74-4.44-8.46-6.83-12.41-10.87-24.85-21.71-35.73-34.2-2.91-3.34-3.55-6.5-2.69-11,3-15.45,4.23-30.94,1.57-46.76-.87-5.17-1.36-10-3.36-16.91,3.74,0,9-.18,12.48-.2q34.43-.15,68.85-.16c45.9,0,91.8.19,137.7.2,31,0,62-.12,93-.18,27.38-.06,44.77-.09,72.15-.19h.51c39,52.51,76,111.1,110,174.66,82,153.07,146.32,331.36,191.29,529.92,46.58,205.67,70.2,424.17,70.2,649.41S1766.38,2120.74,1719.8,2326.41Z"/></g></g></svg>