<svg xmlns="http://www.w3.org/2000/svg" viewBox="0 0 146 201"><defs><style>.cls-1{fill:#0b1a16;}.cls-2,.cls-3{fill:none;stroke:#ff8000;stroke-width:2px;}.cls-3{stroke-miterlimit:10;}</style></defs><g id="Warstwa_2" data-name="Warstwa 2"><g id="tlo"><rect class="cls-1" x="1" y="27" width="144" height="173" rx="24.52"/><rect class="cls-2" x="1" y="27" width="144" height="173" rx="24.52"/><rect class="cls-1" x="22.6" y="1" width="100.8" height="26"/><line class="cls-3" x1="73" y1="65.5" x2="73" y2="161.5"/><line class="cls-3" x1="39.3" y1="79.8" x2="106.7" y2="147.2"/><line class="cls-3" x1="39.3" y1="147.2" x2="106.7" y2="79.8"/><line class="cls-3" x1="54.95" y1="69.28" x2="91.05" y2="157.72"/><line class="cls-3" x1="28.78" y1="131.55" x2="117.22" y2="95.45"/><line class="cls-3" x1="28.78" y1="131.55" x2="117.22" y2="95.45"/><line class="cls-3" x1="28.78" y1="95.45" x2="117.22" y2="131.55"/><line class="cls-3" x1="54.95" y1="157.72" x2="91.05" y2="69.28"/><rect class="cls-3" x="22.6" y="1" width="100.8" height="26"/><path class="cls-1" d="M73,132.78c26,0,47-8.63,47-19.28S99,94.22,73,94.22s-47,8.63-47,19.28,21,19.28,47,19.28"/><path class="cls-2" d="M73,132.78c26,0,47-8.63,47-19.28S99,94.22,73,94.22s-47,8.63-47,19.28S47,132.78,73,132.78Z"/><circle class="cls-3" cx="73" cy="113.5" r="19"/><circle class="cls-3" cx="73" cy="113.5" r="8"/></g></g></svg>