<svg xmlns="http://www.w3.org/2000/svg" viewBox="0 0 146 201"><defs><style>.cls-1{fill:#0b1a16;}.cls-2,.cls-3{fill:none;stroke:#ff8000;stroke-width:2px;}.cls-2{stroke-miterlimit:10;}</style></defs><g id="Warstwa_2" data-name="Warstwa 2"><g id="tlo"><rect class="cls-1" x="22.6" y="1" width="100.8" height="26"/><rect class="cls-2" x="22.6" y="1" width="100.8" height="26"/><rect class="cls-1" x="1" y="27" width="144" height="173" rx="24.52"/><rect class="cls-3" x="1" y="27" width="144" height="173" rx="24.52"/><path class="cls-2" d="M55.68,122.24a5.15,5.15,0,0,0,2-4.38c-.27-6.73-8.69-6.65-11.9-11.45C41.91,100.63,44,93.48,51,86.48c6.33-6.33,17.07-7.91,24.65-3,8.7,5.68,6.39,17.18-.37,23.3-3.31,3-9.93,3.54-13.59.91a4.43,4.43,0,0,1-2-3.63c.19-4.12,5.6-6.09,8.93-5.93,10.84.54,13.3,12.65,10.6,20.74-3.6,10.79-15.61,21.2-28.21,18-3.07-.77-6.18-3-5.84-6.8C45.6,125.61,52.63,124.8,55.68,122.24Z"/><path class="cls-2" d="M40.37,84.57C51.42,64.71,86.66,65.24,93.22,90c3.67,13.83-5.62,34-9.38,38.68"/><path class="cls-2" d="M40.35,71.5C57,53.48,94.73,56.2,103,80.59,110.53,103,100,122,87,139.68c-7,9.52-17.41,27.75-31.35,26.17-9.87-1.11-13.68-13.8-13-22.64"/></g></g></svg>