<svg xmlns="http://www.w3.org/2000/svg" viewBox="0 0 1614.69 611.57"><defs><style>.cls-1{fill:#ffab00;}</style></defs><g id="Warstwa_2" data-name="Warstwa 2"><g id="tlo"><path class="cls-1" d="M566.33,220.55A282.32,282.32,0,0,0,312.46,47.05L358.21,1.3l1.3-1.3H305.8C137.18,0,0,137.17,0,305.78S137.18,611.57,305.8,611.57c155.66,0,282.3-126.64,282.3-282.3A279.9,279.9,0,0,0,566.33,220.55ZM305.8,606C140.26,606,5.59,471.31,5.59,305.78S140.26,5.59,305.8,5.59H346L302.39,49.23l-.54.54.54.54L346,94H305.8C189,94,94,189,94,305.78S189,517.61,305.8,517.61c129.76,0,235.32-105.56,235.32-235.32a234.25,234.25,0,0,0-36.6-125.93,236.62,236.62,0,0,0-78.45-76.27A277.12,277.12,0,0,1,582.51,329.27C582.51,481.85,458.38,606,305.8,606Zm26.72-352.51a58.19,58.19,0,0,0-23.94-6.3V99.54h50.93l-1.3-1.3L312.64,52.66A229,229,0,0,1,427.53,87.53ZM308.58,365.25a58.2,58.2,0,0,0,24.31-6.5l74.26,129.69A228.23,228.23,0,0,1,308.58,512Zm-5.59,0V512a204.87,204.87,0,0,1-97.23-25.9l72.94-127.4A58.32,58.32,0,0,0,303,365.24Zm188.55,52.11a232.34,232.34,0,0,1-79.41,68.55L337.73,356a59.78,59.78,0,0,0,17.88-17.88ZM534,308.57a228.49,228.49,0,0,1-39.25,104.21L358.4,333.24a58.27,58.27,0,0,0,6.51-24.67Zm.57-5.59H364.87a58.28,58.28,0,0,0-6.81-24.46l156.8-91.46a227.39,227.39,0,0,1,20.68,95.23C535.54,289.16,535.23,296.12,534.61,303ZM359.37,306.2a52.93,52.93,0,0,1-11.46,33.07A53.9,53.9,0,0,1,319.34,358a56.11,56.11,0,0,1-35-51.14,49,49,0,0,1,.32-6.05l.09-1.06a31,31,0,0,1,.67-4.16l0-.06c.52-2.27,1.07-4.62,1.8-6.85a60.67,60.67,0,0,1,2.56-6.39,45.87,45.87,0,0,1,2.84-5.2c1.27-2,2.66-4,4.13-5.85a47.92,47.92,0,0,1,3.95-4.44,50.84,50.84,0,0,1,4.62-4.12c1.65-1.29,3.51-2.6,5.68-4a51.82,51.82,0,0,1,8.38-4.26,53.89,53.89,0,0,1,28.56,18.73A52.92,52.92,0,0,1,359.37,306.2Zm-56.38-59a58.38,58.38,0,0,0-23.91,6.35l-73.32-128A205,205,0,0,1,303,99.57ZM99.57,303a204.84,204.84,0,0,1,26.71-98.67l127.33,74.27a58.3,58.3,0,0,0-6.77,24.4Zm0,5.59H246.8a58.25,58.25,0,0,0,6.47,24.6l-127,74.07a205,205,0,0,1-26.7-98.67ZM129.11,199.5a208.1,208.1,0,0,1,71.81-71.24l73.31,128a60,60,0,0,0-17.77,17.49ZM273.87,355.89l-73,127.41a208.13,208.13,0,0,1-71.82-71.24l127-74.05A59.89,59.89,0,0,0,273.87,355.89ZM512.46,182,355.21,273.72a59.86,59.86,0,0,0-17.84-17.49L432.23,90.56A231,231,0,0,1,512.46,182Z"/><path class="cls-1" d="M258.86,57.83a5.46,5.46,0,1,0-5.46-5.45A5.46,5.46,0,0,0,258.86,57.83Z"/><polygon class="cls-1" points="1605.58 156.6 1605.58 150.13 1518.76 150.13 1518.76 306.5 1605.58 306.5 1605.58 300.02 1525.46 300.02 1525.46 232.78 1592.63 232.78 1592.63 226.53 1525.46 226.53 1525.46 156.6 1605.58 156.6"/><rect class="cls-1" x="1081.81" y="150.13" width="6.7" height="156.38"/><rect class="cls-1" x="698.11" y="150.13" width="6.7" height="156.38"/><polygon class="cls-1" points="768.7 150.13 763.56 150.13 763.56 306.5 770.26 306.5 770.26 163.08 890.67 306.5 895.14 306.5 895.14 150.13 888.44 150.13 888.44 293.32 768.7 150.13"/><polygon class="cls-1" points="1041.83 156.6 1041.83 150.13 955.01 150.13 955.01 306.5 961.71 306.5 961.71 232.78 1028.65 232.78 1028.65 226.53 961.71 226.53 961.71 156.6 1041.83 156.6"/><polygon class="cls-1" points="1278.85 306.5 1278.85 150.13 1272.14 150.13 1272.14 293.32 1152.4 150.13 1147.26 150.13 1147.26 306.5 1153.96 306.5 1153.96 163.08 1274.38 306.5 1278.85 306.5"/><polygon class="cls-1" points="1383.83 156.6 1424.49 156.6 1424.49 306.5 1431.2 306.5 1431.2 156.6 1477.89 156.6 1477.89 150.13 1383.83 150.13 1383.83 156.6"/><rect class="cls-1" x="1337.6" y="150.13" width="6.7" height="156.38"/><path class="cls-1" d="M946.52,431.76c15-2.9,30.83-17.42,30.83-36.19,0-23.68-18.76-42.44-53.39-42.44H874.14V509.5h58.75c29.27,0,48.93-15.41,48.93-39.76C981.82,449.19,963.72,434.22,946.52,431.76ZM880.84,359.6h43.34c19.89,0,46.25,8.94,46.25,36,0,25.69-29,33.74-39.77,33.74H880.84ZM932,503H880.84V435.56h49.82c20.78,0,44.24,10.5,44.24,34.18C974.9,495.66,949.43,503,932,503Z"/><path class="cls-1" d="M1098.43,440.7c22.11-5.59,34.62-20.78,34.62-42.9,0-28.14-21-44.67-56.74-44.67h-51.6V509.5h6.7V443.38h43.79c32.16,0,47.36,19.21,50.49,42.89l3.12,23.23h6.7l-3.12-23.23C1129.48,465.05,1119.87,447.85,1098.43,440.7Zm-67-3.58V359.6h44.9c31.28,0,49.82,14.3,49.82,38.2,0,24.8-18.54,39.32-49.82,39.32Z"/><polygon class="cls-1" points="1547.01 447.62 1486.91 353.13 1479.09 353.13 1479.09 354.02 1543.66 455 1543.66 509.5 1550.36 509.5 1550.36 454.55 1614.69 354.02 1614.69 353.13 1606.88 353.13 1547.01 447.62"/><path class="cls-1" d="M1236.93,350.45c-36.41,0-61.21,24.34-61.21,58.75V509.5h6.71V456.11h109.24V509.5h6.7V409.42C1298.37,374.79,1273.57,350.45,1236.93,350.45Zm54.74,99.19H1182.43V408.3c0-29,21.66-51.38,54.73-51.38,32.84,0,54.51,22.57,54.51,51.83Z"/><path class="cls-1" d="M1423.91,440.7c22.12-5.59,34.63-20.78,34.63-42.9,0-28.14-21-44.67-56.74-44.67h-51.61V509.5h6.71V443.38h43.78c32.17,0,47.36,19.21,50.49,42.89l3.13,23.23h6.7l-3.13-23.23C1455,465.05,1445.36,447.85,1423.91,440.7Zm-67-3.58V359.6h44.9c31.27,0,49.82,14.3,49.82,38.2,0,24.8-18.55,39.32-49.82,39.32Z"/><polygon class="cls-1" points="704.81 353.13 698.11 353.13 698.11 509.5 780.99 509.5 780.99 503.02 704.81 503.02 704.81 353.13"/><rect class="cls-1" x="814.72" y="353.13" width="6.7" height="156.38"/><polygon class="cls-1" points="818.26 48.25 787.24 48.25 786.54 48.25 786.54 48.95 786.54 102.81 786.54 103.51 787.24 103.51 818.26 103.51 818.96 103.51 818.96 102.81 818.96 98.87 818.96 98.17 818.26 98.17 792.11 98.17 792.11 79.05 813.67 79.05 814.37 79.05 814.37 78.35 814.37 74.41 814.37 73.71 813.67 73.71 792.11 73.71 792.11 53.59 818.26 53.59 818.96 53.59 818.96 52.89 818.96 48.95 818.96 48.25 818.26 48.25"/><polygon class="cls-1" points="685.26 48.25 684.56 48.25 684.56 48.95 684.56 52.89 684.56 53.59 685.26 53.59 698.78 53.59 698.78 102.81 698.78 103.51 699.48 103.51 703.65 103.51 704.35 103.51 704.35 102.81 704.35 53.59 719.09 53.59 719.79 53.59 719.79 52.89 719.79 48.95 719.79 48.25 719.09 48.25 685.26 48.25"/><polygon class="cls-1" points="764.69 48.25 763.99 48.25 763.99 48.95 763.99 73.71 736.23 73.71 736.23 48.95 736.23 48.25 735.53 48.25 731.36 48.25 730.65 48.25 730.65 48.95 730.65 102.81 730.65 103.51 731.36 103.51 735.53 103.51 736.23 103.51 736.23 102.81 736.23 79.05 763.99 79.05 763.99 102.81 763.99 103.51 764.69 103.51 768.86 103.51 769.56 103.51 769.56 102.81 769.56 48.95 769.56 48.25 768.86 48.25 764.69 48.25"/></g></g></svg>