<svg xmlns="http://www.w3.org/2000/svg" viewBox="0 0 413.68 413.68"><defs><style>.cls-1,.cls-3{fill:#0b1a16;}.cls-2{fill:none;}.cls-2,.cls-3,.cls-4{stroke:#ff8000;stroke-miterlimit:10;}.cls-4{fill:#ff8000;}</style></defs><g id="Warstwa_2" data-name="Warstwa 2"><g id="tlo"><circle class="cls-1" cx="206.84" cy="206.84" r="206.84"/><line class="cls-2" x1="168.71" y1="373.51" x2="244.97" y2="40.17"/><line class="cls-2" x1="132.59" y1="360.85" x2="281.09" y2="52.83"/><line class="cls-2" x1="100.19" y1="340.47" x2="313.5" y2="73.21"/><line class="cls-2" x1="73.13" y1="313.39" x2="340.55" y2="100.29"/><line class="cls-2" x1="52.77" y1="280.97" x2="360.91" y2="132.71"/><line class="cls-2" x1="40.14" y1="244.84" x2="373.54" y2="168.85"/><line class="cls-2" x1="35.87" y1="206.8" x2="377.81" y2="206.89"/><line class="cls-2" x1="40.16" y1="168.76" x2="373.52" y2="244.92"/><line class="cls-2" x1="52.81" y1="132.63" x2="360.87" y2="281.05"/><line class="cls-2" x1="73.18" y1="100.22" x2="340.5" y2="313.46"/><line class="cls-2" x1="100.26" y1="73.16" x2="313.43" y2="340.53"/><line class="cls-2" x1="132.67" y1="52.79" x2="281.01" y2="360.89"/><line class="cls-2" x1="168.8" y1="40.15" x2="244.88" y2="373.53"/><line class="cls-2" x1="206.84" y1="35.87" x2="206.84" y2="377.81"/><path class="cls-3" d="M207.68,35.87c92.74,0,166.43,83.88,166.43,167.91,0,97.54-73.69,167.92-166.43,167.92h0a164.19,164.19,0,1,1,0-328.37h7.46l-7.46-7.46,7.46-7.47h-7.46a179.12,179.12,0,0,0,0,358.23h0c96.86,0,178.37-71.32,178.37-175.38,0-102.51-74.88-175.38-178.37-175.38"/><circle class="cls-4" cx="197.95" cy="36.28" r="0.75"/><circle class="cls-3" cx="206.68" cy="207.68" r="35"/><path class="cls-4" d="M220.48,239.83a35,35,0,0,1,0-64.3h0a35,35,0,1,0,0,64.32Z"/></g></g></svg>