<svg xmlns="http://www.w3.org/2000/svg" viewBox="0 0 960.13 1610.55"><defs><style>.cls-1{fill:#ded1a6;}</style></defs><g id="Warstwa_2" data-name="Warstwa 2"><g id="tlo"><path class="cls-1" d="M499.29,998.54c254.11,0,460.84-206.72,460.84-460.82C960.13,286.27,757.7,81.21,507.24,77L584.2,0H499.29C224,0,0,224,0,499.27S224,998.54,499.29,998.54Zm-3.34-594a95,95,0,0,0-40.88,10.86L333.84,203.66A336.77,336.77,0,0,1,496,160.47ZM449.3,418.69a96,96,0,0,0-30.36,29.87L208.35,325.74A341.4,341.4,0,0,1,328.08,207Zm-33.75,35.59A94.77,94.77,0,0,0,404,495.94H160.47A336.57,336.57,0,0,1,205,331.47Zm-11.62,48.3a94.8,94.8,0,0,0,11.05,42L205,667.06a336.71,336.71,0,0,1-44.51-164.48Zm14.36,47.76a96.39,96.39,0,0,0,30.42,30.53L328.07,791.57A341.32,341.32,0,0,1,208.35,672.79Zm36.17,33.87A94.86,94.86,0,0,0,496,595.39V838.07a336.84,336.84,0,0,1-162.12-43.19ZM410.53,500A89,89,0,0,1,496,411.18V588.74A89,89,0,0,1,410.53,500Zm92.06,95.44a94.77,94.77,0,0,0,41.54-11.1L666.94,798.78a375.09,375.09,0,0,1-164.35,39.31ZM549.89,581a96.36,96.36,0,0,0,30.53-30.54L805.14,681.51A380.1,380.1,0,0,1,672.86,795.76Zm33.85-36.3a94.94,94.94,0,0,0,11.11-42.1H874.29A375.06,375.06,0,0,1,809,676.07Zm11-48.74a94.85,94.85,0,0,0-11.62-41.77l258.89-151a375.17,375.17,0,0,1,34.53,157.65q0,17.76-1.62,35.12Zm-15-47.48a96.1,96.1,0,0,0-30.48-29.88L705.82,145.2a379.91,379.91,0,0,1,133.39,152Zm-36.25-33.17a95,95,0,0,0-40.93-10.77V160.43H584.2L507.4,83.62a374.91,374.91,0,0,1,192.83,58ZM499.29,6.64h68.87L494.59,80.21l73.57,73.58H499.29c-190.51,0-345.5,155-345.5,345.48s155,345.48,345.5,345.48c211.71,0,384-172.23,384-383.93,0-151-87.66-282-214.79-344.63,166.92,67.22,285,230.84,285,421.53,0,250.43-203.75,454.18-454.2,454.18-271.65,0-492.65-221-492.65-492.63S227.64,6.64,499.29,6.64Z"/><path class="cls-1" d="M422.46,92.16a7.68,7.68,0,1,0-7.68-7.67A7.67,7.67,0,0,0,422.46,92.16Z"/><polygon class="cls-1" points="932.24 1255.3 932.24 1248.78 844.84 1248.78 844.84 1406.2 932.24 1406.2 932.24 1399.68 851.59 1399.68 851.59 1331.99 919.2 1331.99 919.2 1325.69 851.59 1325.69 851.59 1255.3 932.24 1255.3"/><rect class="cls-1" x="404.98" y="1248.78" width="6.75" height="157.42"/><rect class="cls-1" x="18.72" y="1248.78" width="6.75" height="157.42"/><polygon class="cls-1" points="89.78 1248.78 84.6 1248.78 84.6 1406.2 91.35 1406.2 91.35 1261.82 212.57 1406.2 217.06 1406.2 217.06 1248.78 210.31 1248.78 210.31 1392.93 89.78 1248.78"/><polygon class="cls-1" points="364.73 1255.3 364.73 1248.78 277.33 1248.78 277.33 1406.2 284.08 1406.2 284.08 1331.99 351.46 1331.99 351.46 1325.69 284.08 1325.69 284.08 1255.3 364.73 1255.3"/><polygon class="cls-1" points="603.33 1406.2 603.33 1248.78 596.58 1248.78 596.58 1392.93 476.04 1248.78 470.87 1248.78 470.87 1406.2 477.61 1406.2 477.61 1261.82 598.83 1406.2 603.33 1406.2"/><polygon class="cls-1" points="709.01 1255.3 749.95 1255.3 749.95 1406.2 756.69 1406.2 756.69 1255.3 803.69 1255.3 803.69 1248.78 709.01 1248.78 709.01 1255.3"/><rect class="cls-1" x="662.47" y="1248.78" width="6.75" height="157.42"/><polygon class="cls-1" points="575.04 1130.86 575.04 1125.23 530.73 1125.23 530.73 1202.16 575.04 1202.16 575.04 1196.53 536.69 1196.53 536.69 1167.22 568.49 1167.22 568.49 1161.59 536.69 1161.59 536.69 1130.86 575.04 1130.86"/><polygon class="cls-1" points="433.41 1125.23 385.09 1125.23 385.09 1130.86 405.4 1130.86 405.4 1202.16 411.36 1202.16 411.36 1130.86 433.41 1130.86 433.41 1125.23"/><polygon class="cls-1" points="504.49 1202.16 504.49 1125.23 498.53 1125.23 498.53 1161.59 456.88 1161.59 456.88 1125.23 450.93 1125.23 450.93 1202.16 456.88 1202.16 456.88 1167.22 498.53 1167.22 498.53 1202.16 504.49 1202.16"/><path class="cls-1" d="M268.79,1532.29c15.07-2.92,31-17.54,31-36.43,0-23.84-18.89-42.73-53.75-42.73H195.92v157.42h59.15c29.46,0,49.25-15.51,49.25-40C304.32,1549.84,286.1,1534.77,268.79,1532.29Zm-66.12-72.63H246.3c20,0,46.55,9,46.55,36.2,0,25.86-29.23,34-40,34H202.67ZM254.17,1604h-51.5v-67.91h50.15c20.92,0,44.53,10.57,44.53,34.41C297.35,1596.61,271.71,1604,254.17,1604Z"/><path class="cls-1" d="M421.71,1541.29c22.26-5.62,34.85-20.91,34.85-43.18,0-28.33-21.13-45-57.12-45H347.49v157.42h6.75V1544h44.08c32.38,0,47.68,19.34,50.82,43.18l3.15,23.38H459l-3.15-23.38C453,1565.8,443.29,1548.48,421.71,1541.29Zm-67.47-3.6v-78h45.2c31.49,0,50.15,14.39,50.15,38.45,0,25-18.66,39.58-50.15,39.58Z"/><polygon class="cls-1" points="873.27 1548.26 812.78 1453.13 804.91 1453.13 804.91 1454.04 869.9 1555.68 869.9 1610.55 876.65 1610.55 876.65 1555.23 941.41 1454.04 941.41 1453.13 933.54 1453.13 873.27 1548.26"/><path class="cls-1" d="M561.13,1450.44c-36.65,0-61.61,24.51-61.61,59.14v101h6.74v-53.74h110v53.74H623V1509.81C623,1475,598,1450.44,561.13,1450.44Zm55.1,99.85h-110v-41.61c0-29.23,21.82-51.72,55.1-51.72,33.06,0,54.87,22.71,54.87,52.17Z"/><path class="cls-1" d="M749.36,1541.29c22.27-5.62,34.86-20.91,34.86-43.18,0-28.33-21.14-45-57.12-45h-52v157.42h6.75V1544H726c32.39,0,47.68,19.34,50.83,43.18l3.15,23.38h6.74l-3.15-23.38C780.62,1565.8,771,1548.48,749.36,1541.29Zm-67.46-3.6v-78h45.2c31.48,0,50.15,14.39,50.15,38.45,0,25-18.67,39.58-50.15,39.58Z"/><polygon class="cls-1" points="25.46 1453.13 18.72 1453.13 18.72 1610.55 102.15 1610.55 102.15 1604.03 25.46 1604.03 25.46 1453.13"/><rect class="cls-1" x="136.11" y="1453.13" width="6.75" height="157.42"/></g></g></svg>