<svg xmlns="http://www.w3.org/2000/svg" width="366.56" height="366.56" viewBox="0 0 366.56 366.56">
  <g id="Gruppe_8" data-name="Gruppe 8" transform="translate(-805 -385)">
    <circle id="Ellipse_27" data-name="Ellipse 27" cx="183" cy="183" r="183" transform="translate(805.56 385.56)" fill="#0a1a16"/>
    <g id="Warstwa_2" transform="translate(805 385)">
      <g id="Warstwa_4">
        <path id="Pfad_26" data-name="Pfad 26" d="M990.887,1637.805a3.66,3.66,0,0,0,.033-6.431,17.16,17.16,0,0,0-2.566-1.2,10.556,10.556,0,0,1-1.75-.833c-1-.7-.966-1.366.1-1.916a14.91,14.91,0,0,1,2.666-.95,7.209,7.209,0,0,0,3.216-1.533,2.385,2.385,0,0,0,.2-3.582,6.829,6.829,0,0,0-3.182-1.883c-1.333-.467-1.516-1.116-.7-2.25.083-.116.2-.233.283-.35a2.537,2.537,0,0,0,.083-3.2,11.96,11.96,0,0,0-1.983-2.016c-1.866-1.5-4.165-1.916-6.4-2.433-3.366-.8-3.032-.733-3.782-3.616a5.031,5.031,0,0,0-3.266-3.632,20.763,20.763,0,0,0-8.731-1.133,16.928,16.928,0,0,0-6,1.25,4.882,4.882,0,0,0-2.882,3.249c-.133.483-.25.966-.35,1.466a2.474,2.474,0,0,1-2.066,2.083c-1.566.333-3.1.783-4.649,1.2a9.838,9.838,0,0,0-4.132,2.349c-1.849,1.7-1.966,2.866-.55,4.948a.52.52,0,0,1,.083.117,1.1,1.1,0,0,1-.383,1.766,7.057,7.057,0,0,1-1.116.433,5.461,5.461,0,0,0-2.7,1.816,2.259,2.259,0,0,0,.05,3.133,5.01,5.01,0,0,0,1.55,1.15c.766.35,1.616.5,2.416.8a17.962,17.962,0,0,1,2.6,1.116.725.725,0,0,1,.117,1.267,7.24,7.24,0,0,1-1.633,1.016,27.916,27.916,0,0,0-2.883,1.266c-2.866,1.783-2.833,5.065.083,6.765a17.383,17.383,0,0,0,3.566,1.55c2.1.667,4.249,1.133,6.365,1.766a10.192,10.192,0,0,1,2.549,1.2c.666.433.567,1.149-.067,1.633-.317.233-.716.366-1.033.6a2.3,2.3,0,0,0-.233,3.732,6.475,6.475,0,0,0,3.016,1.6,32.327,32.327,0,0,0,9.464,1.316,33.531,33.531,0,0,0,10.13-1.3,6.4,6.4,0,0,0,3.266-1.749,2.053,2.053,0,0,0,.217-2.966,5.719,5.719,0,0,0-1.4-1.083c-.933-.633-1-1.4-.05-2a9.954,9.954,0,0,1,2.333-1c2.216-.633,4.465-1.133,6.665-1.833A18.8,18.8,0,0,0,990.887,1637.805Z" transform="translate(-783.181 -1334.077)" fill="#468354"/>
        <path id="Pfad_27" data-name="Pfad 27" d="M1430.991,1428.7c-.633-.4-1.3-.75-1.966-1.083-.9-.433-1.849-.783-2.733-1.25-1.9-1-2.149-1.983-.883-3.682a5.365,5.365,0,0,0,.533-5.932,8.9,8.9,0,0,0-6.431-5.165,13.379,13.379,0,0,1-5.915-2.783,16.536,16.536,0,0,0-9.064-3.666,16.025,16.025,0,0,0-11.447,2.616,10.766,10.766,0,0,0-3.3,3.632c-.683,1.216-1.416,2.416-2.149,3.6a5.891,5.891,0,0,1-2.716,2.3c-1.05.467-2.15.833-3.2,1.316a26.042,26.042,0,0,0-3.432,1.833,2.69,2.69,0,0,0-1.083,3.049,4.83,4.83,0,0,0,1.766,2.7,10.827,10.827,0,0,1,1.816,1.783,1.706,1.706,0,0,1-.366,2.633,10.945,10.945,0,0,1-1.55.883c-.883.483-1.8.883-2.633,1.433a3.166,3.166,0,0,0-.733,5.015,6.314,6.314,0,0,0,4.6,2.249c1.75.1,3.5.1,5.249.133a17.151,17.151,0,0,1,6.481,1.066c2.05.85,2.283,2.033.567,3.432a4.258,4.258,0,0,0-.417,6.265,11.918,11.918,0,0,0,4.8,3.266,31.637,31.637,0,0,0,10.03,1.8c1.449-.1,2.9-.133,4.349-.283a17.975,17.975,0,0,0,8.281-2.9,4.851,4.851,0,0,0,2.433-3.116,7.116,7.116,0,0,0-.117-2.516,4.318,4.318,0,0,1,2-4.665c1.283-.883,2.616-1.666,3.965-2.433a11.678,11.678,0,0,0,5.015-5.215A5.367,5.367,0,0,0,1430.991,1428.7Zm-.4,7.131a12.921,12.921,0,0,1-4.032,3.316,34.211,34.211,0,0,0-3.582,2.183c-2.216,1.516-3.382,3.532-2.716,6.3a3.531,3.531,0,0,1-1.8,4.182,16.8,16.8,0,0,1-6.848,2.533,31.374,31.374,0,0,1-8.1.067,8.168,8.168,0,0,1-.983-.317c1.516-.5,2.666-.833,3.765-1.283a5.7,5.7,0,0,0,3.782-6.031,4.379,4.379,0,0,1,2.682-4.6c.616-.316,1.3-.533,1.916-.866a20.16,20.16,0,0,0,2.449-1.45,2.344,2.344,0,0,0,1.1-2.466,2.489,2.489,0,0,0-2-1.816c-.533-.167-1.066-.267-1.583-.45-2.016-.716-2.433-1.916-1.283-3.7.966-1.5.783-2.416-.717-3.366-.55-.35-1.15-.617-1.716-.933a2.254,2.254,0,0,1-.55-3.932,11.5,11.5,0,0,1,1.35-.95c.667-.45,1.35-.866,1.983-1.349a2.241,2.241,0,0,0,.817-2.683,7.209,7.209,0,0,0-1.216-2.216,12.32,12.32,0,0,0-4.116-3.216,28.568,28.568,0,0,0-6.331-2.316,11.094,11.094,0,0,1-2.149-.683c-1.183-.533-1.266-1.349-.217-2.149a5.974,5.974,0,0,1,3.649-1.183,13.041,13.041,0,0,1,8.3,3.032,21.411,21.411,0,0,0,2.666,1.949,17.645,17.645,0,0,0,2.932,1.083c.8.266,1.666.383,2.449.716a7.754,7.754,0,0,1,4.382,4.865,3.512,3.512,0,0,1-.55,3.4,13.165,13.165,0,0,0-.933,1.367,2.8,2.8,0,0,0,.433,3.465,9.578,9.578,0,0,0,2.166,1.566c.966.517,2.016.883,3.032,1.316a4.066,4.066,0,0,1,1.566,6.615Z" transform="translate(-1145.558 -1170.913)" fill="#468354"/>
        <path id="Pfad_28" data-name="Pfad 28" d="M517.341,1450.727a4.045,4.045,0,0,0-.55-5.781,5.764,5.764,0,0,1-.833-.85,1.373,1.373,0,0,1,.467-2.266,10.045,10.045,0,0,1,2.366-.949,24.335,24.335,0,0,1,6.415-.567,39.363,39.363,0,0,0,4.2-.2,6.1,6.1,0,0,0,4.165-2.166,3.178,3.178,0,0,0-.7-5.032c-.833-.55-1.75-.95-2.633-1.433a10.888,10.888,0,0,1-1.433-.8,1.777,1.777,0,0,1-.433-2.849,12.462,12.462,0,0,1,1.483-1.483,12.886,12.886,0,0,0,1.016-.883,3.348,3.348,0,0,0-.5-5.415,6.2,6.2,0,0,0-1.166-.666c-1.566-.667-3.132-1.333-4.7-1.983a5.992,5.992,0,0,1-2.733-2.049,35.217,35.217,0,0,1-2.3-3.7,10.8,10.8,0,0,0-3.682-4.066,15.26,15.26,0,0,0-8.8-2.6c-4.132.067-7.964.95-11.213,3.6a15.277,15.277,0,0,1-6.448,3.049A8.7,8.7,0,0,0,483,1417.12a5.191,5.191,0,0,0,.583,5.4c.233.316.467.65.683.983a1.313,1.313,0,0,1-.183,1.783,8,8,0,0,1-1.666,1.233c-1.066.55-2.2.966-3.282,1.5a5.374,5.374,0,0,0-2.466,7.6,8.9,8.9,0,0,0,2.7,3.182c1.183.833,2.483,1.5,3.7,2.3a23.826,23.826,0,0,1,3.149,2.3,4.286,4.286,0,0,1,1.033,4.449c-.533,2.183.467,3.7,2.149,4.865a17.89,17.89,0,0,0,2.749,1.55c3.149,1.516,6.548,1.7,9.964,1.75a29.424,29.424,0,0,0,10.18-1.7A10.826,10.826,0,0,0,517.341,1450.727Zm-9.064-40.871a17.173,17.173,0,0,1-2.583.8,26.922,26.922,0,0,0-6.432,2.482,11.5,11.5,0,0,0-3.566,2.949,7.222,7.222,0,0,0-1.116,1.933,2.363,2.363,0,0,0,.816,2.949c.633.467,1.333.867,1.983,1.333a8.362,8.362,0,0,1,1.633,1.3,2.124,2.124,0,0,1-.683,3.416c-.65.367-1.35.667-1.983,1.083-1.433.916-1.616,1.85-.7,3.249a7.248,7.248,0,0,1,.467.767,1.917,1.917,0,0,1-.933,2.666,10.276,10.276,0,0,1-1.983.667c-1.066.267-2.049.683-2.349,1.833a2.549,2.549,0,0,0,1.366,2.783,20.334,20.334,0,0,0,2.366,1.3c.616.317,1.283.566,1.9.9a4.241,4.241,0,0,1,2.5,4.4,5.392,5.392,0,0,0,2.416,5.332,17.168,17.168,0,0,0,3.132,1.416,14.226,14.226,0,0,0,1.7.483l-.05.4a32.248,32.248,0,0,1-3.982.283c-2.2-.117-4.382-.333-6.565-.667a13.273,13.273,0,0,1-5.432-2.449,3.035,3.035,0,0,1-1.449-3.349c.05-.25.067-.5.117-.733a5.48,5.48,0,0,0-2.449-5.865,36.832,36.832,0,0,0-4.1-2.5,12.094,12.094,0,0,1-4.049-3.516,4.042,4.042,0,0,1-.833-3.1,3.834,3.834,0,0,1,2.383-3.049c1.05-.483,2.149-.866,3.166-1.383a9.442,9.442,0,0,0,2.083-1.433,2.858,2.858,0,0,0,.5-3.816,12.974,12.974,0,0,0-.766-1.1,3.6,3.6,0,0,1-.533-3.682,7.748,7.748,0,0,1,5.365-5.032c.483-.133.966-.25,1.466-.35a8.755,8.755,0,0,0,3.816-1.683c.65-.483,1.266-1,1.9-1.483a12.986,12.986,0,0,1,8.048-2.916,6.013,6.013,0,0,1,3.666,1.133C509.627,1408.439,509.544,1409.322,508.277,1409.855Z" transform="translate(-396.643 -1170.892)" fill="#468354"/>
        <path id="Pfad_29" data-name="Pfad 29" d="M516.359,490.5a24.9,24.9,0,1,0,24.859,25.043A24.948,24.948,0,0,0,516.359,490.5Zm23.31,25.043c-.483,9.7-4.965,16.8-13.746,21.094a2.9,2.9,0,0,1-2.3.133,38.522,38.522,0,0,1-8.581-3.949,20.339,20.339,0,0,1-8.114-10.164A22.419,22.419,0,0,1,512.11,498a28.03,28.03,0,0,1,8.4-5.2,2.665,2.665,0,0,1,1.9.017,23.212,23.212,0,0,1,15.6,13.9A22.756,22.756,0,0,1,539.669,515.543Z" transform="translate(-409.524 -408.774)" fill="#468354"/>
        <path id="Pfad_30" data-name="Pfad 30" d="M1436.258,490.5a24.9,24.9,0,1,0,24.959,24.993A24.773,24.773,0,0,0,1436.258,490.5Zm7.814,35.54a19.922,19.922,0,0,1-8.165,7.764,47.441,47.441,0,0,1-6.9,2.949,2.836,2.836,0,0,1-2.3-.133c-8.831-4.349-13.313-11.5-13.713-19.494.017-12.23,6.832-21.294,16.795-24.226a3.987,3.987,0,0,1,3.033.167c3.949,1.849,7.564,4.115,10.2,7.731A22.885,22.885,0,0,1,1444.073,526.04Z" transform="translate(-1176.234 -408.774)" fill="#468354"/>
        <path id="Pfad_31" data-name="Pfad 31" d="M1271.874,1673.446a10.617,10.617,0,0,0-2.616-1.1,42.9,42.9,0,0,0-5.015-.95c-2.682-.35-5.382-.583-8.064-.883a9.236,9.236,0,0,1-1.766-.367,4.778,4.778,0,0,1-3.282-3.432,5.651,5.651,0,0,1,.233-3.666,3.454,3.454,0,0,0-1.266-4.132,5.786,5.786,0,0,0-1.016-.633,10.823,10.823,0,0,0-6.131-1.116c-2.033.2-4.065.516-6.082.849a5.141,5.141,0,0,0-3.516,2.1,3.391,3.391,0,0,0,.183,4.282c.35.417.733.8,1.116,1.233a4.686,4.686,0,0,1-1.7,2.116,4.573,4.573,0,0,0,.466,7.448,14.665,14.665,0,0,0,2.833,1.333,16.166,16.166,0,0,0,2.2.483,5.729,5.729,0,0,1,3.916,2.283c.8,1.166.833,1.783-.15,2.782a5.765,5.765,0,0,1-1.8,1.316,35.3,35.3,0,0,1-4.149,1.3c-1.066.283-2.183.35-3.249.6a4.666,4.666,0,0,0-3.949,5.215c.017.25.033.5.067.75a3.033,3.033,0,0,1-1.549,3.183,21.745,21.745,0,0,1-3.149,1.333c-1.133.417-2.3.683-3.416,1.133a4.121,4.121,0,0,0-2.4,4.4,3.724,3.724,0,0,0,3.466,3.2,19.773,19.773,0,0,0,3.582-.017,23.438,23.438,0,0,0,10.93-3.449,6.6,6.6,0,0,0,2.716-3.3,15.805,15.805,0,0,0,.55-1.716,3.006,3.006,0,0,1,2.549-2.433,31.445,31.445,0,0,1,4.315-.5c1.45-.033,2.9.15,4.349.217a21.2,21.2,0,0,0,5.982-.217,5.625,5.625,0,0,0,4.765-5.049,3.12,3.12,0,0,1,1.55-2.432,11.236,11.236,0,0,1,2.016-.967c1.183-.4,2.416-.683,3.6-1.066a6.39,6.39,0,0,0,4.865-5.5A4.084,4.084,0,0,0,1271.874,1673.446Zm.05,5.882a4.788,4.788,0,0,1-3.116,2.633c-1.083.367-2.233.567-3.316.95a14.752,14.752,0,0,0-2.882,1.233,4.43,4.43,0,0,0-2.183,3.266c-.033.25-.133.483-.167.733a3.9,3.9,0,0,1-2.949,3.249,12.611,12.611,0,0,1-5.049.4c-3.1-.217-6.181-.633-9.264.117-.383.1-.783.183-1.166.283a4.365,4.365,0,0,0-3.449,3.382,10.745,10.745,0,0,1-.517,1.566,4.861,4.861,0,0,1-1.933,2.416,20.7,20.7,0,0,1-8.514,3.149c-1.083.167-2.183.25-3.282.333a9.3,9.3,0,0,1-1.8-.05,2.414,2.414,0,0,1-2.149-1.983,2.671,2.671,0,0,1,1.55-2.666,34.028,34.028,0,0,1,3.282-1.033,10.086,10.086,0,0,0,4.132-2.016,4.256,4.256,0,0,0,1.566-3.282,11.219,11.219,0,0,0-.017-1.5c-.267-2.066.966-3.349,3.049-3.716.733-.133,1.5-.167,2.216-.366,1.783-.5,3.549-1.016,5.3-1.633a6.287,6.287,0,0,0,2.816-2.416,2.654,2.654,0,0,0,.3-2.583,5.968,5.968,0,0,0-3.532-3.666,19.561,19.561,0,0,0-2.9-.766,8.651,8.651,0,0,1-3.732-1.466,3.065,3.065,0,0,1-.3-4.915,17.8,17.8,0,0,0,1.666-1.7,2.107,2.107,0,0,0-.067-2.982c-.25-.317-.567-.567-.833-.866a1.959,1.959,0,0,1-.05-2.483,4.161,4.161,0,0,1,2.833-1.533c1.766-.317,3.549-.566,5.332-.85a11.212,11.212,0,0,1,5.565,1.066c1.633.85,1.983,1.683,1.4,3.416a6.685,6.685,0,0,0,1.583,7.081,6.059,6.059,0,0,0,3.849,1.85c2.733.366,5.482.55,8.2.916,1.883.25,3.732.65,5.615,1.017a7.03,7.03,0,0,1,1.133.4c2.516.983,2.666,2.883,1.783,5.015Z" transform="translate(-1015.549 -1380.999)" fill="#468354"/>
        <path id="Pfad_32" data-name="Pfad 32" d="M703.79,1697.293c-1.1-.467-2.266-.8-3.4-1.183a17.186,17.186,0,0,1-2.416-.817c-2.116-1.05-2.649-2.1-2.449-4.165a5.68,5.68,0,0,0,.05-.75,4.4,4.4,0,0,0-3.082-4.5,12.82,12.82,0,0,0-2.633-.583,23.372,23.372,0,0,1-5.5-1.5,6.29,6.29,0,0,1-2.249-1.7,1.545,1.545,0,0,1-.183-1.933,4.463,4.463,0,0,1,2.366-2.216c.85-.283,1.733-.467,2.6-.733a34.028,34.028,0,0,0,3.416-1.1,4.944,4.944,0,0,0,2.283-1.883,4.661,4.661,0,0,0-.883-6.131c-.616-.567-1.183-1.183-1.916-1.9.55-.617.917-1.016,1.283-1.433a3.385,3.385,0,0,0,.15-4.4,4.741,4.741,0,0,0-2.833-1.85c-.933-.2-1.866-.4-2.8-.516-1.783-.217-3.582-.45-5.365-.516a8.97,8.97,0,0,0-4.215.933c-2.7,1.25-3.366,2.7-2.533,5.515a5.115,5.115,0,0,1-3.916,6.748,22.4,22.4,0,0,1-2.966.433,80.858,80.858,0,0,0-9.98,1.266,12.013,12.013,0,0,0-3.932,1.433,4.18,4.18,0,0,0-2,3.665,6.454,6.454,0,0,0,.916,3.449,6.855,6.855,0,0,0,4,2.982c1.383.433,2.8.767,4.165,1.25,1.75.633,3.066,1.682,3.1,3.782a4.357,4.357,0,0,0,1.866,3.132c1.666,1.433,3.716,1.683,5.8,1.683,1.549,0,3.1-.134,4.649-.25a25.306,25.306,0,0,1,6.148.2c1.949.316,3.182,1.166,3.632,3.2a7.32,7.32,0,0,0,3.832,4.932,27.1,27.1,0,0,0,12.546,3.166,7.156,7.156,0,0,0,1.783-.217,3.869,3.869,0,0,0,2.916-3.249A4.169,4.169,0,0,0,703.79,1697.293Zm.7,4.115a2.3,2.3,0,0,1-2.233,1.883,32.814,32.814,0,0,1-4.782-.25,21.37,21.37,0,0,1-7.931-2.649,5.95,5.95,0,0,1-3.032-3.732c-.033-.15-.083-.283-.117-.434-.433-2.266-1.933-3.332-4.065-3.882a26.344,26.344,0,0,0-7.914-.4c-1.45.066-2.9.217-4.349.217a6.927,6.927,0,0,1-3.865-1,3.606,3.606,0,0,1-1.783-2.649c-.35-3.032-2.283-4.532-5.032-5.265-1.166-.316-2.333-.566-3.466-.949a4.856,4.856,0,0,1-3.616-4.315,2.637,2.637,0,0,1,1.5-2.983,18.935,18.935,0,0,1,3.4-1.133,80.114,80.114,0,0,1,9.964-1.249,23.966,23.966,0,0,0,2.666-.383,6.565,6.565,0,0,0,5.049-8.681c-.617-1.75-.133-3,1.733-3.816a11.818,11.818,0,0,1,5.315-.883c1.783.283,3.549.533,5.332.866a4.155,4.155,0,0,1,2.516,1.233,1.889,1.889,0,0,1,0,2.916c-2.116,1.866-1.316,3.366.333,4.9.033.033.083.067.117.1,2.116,1.349,2.416,4.382-.633,5.848a18.292,18.292,0,0,1-2.982.95c-.916.266-1.866.417-2.749.733a5.991,5.991,0,0,0-3.516,3.482,2.865,2.865,0,0,0,.45,3.1,8.071,8.071,0,0,0,3.349,2.466,29.278,29.278,0,0,0,6.4,1.6,7.769,7.769,0,0,1,1.716.5,2.7,2.7,0,0,1,1.7,2.6,12.162,12.162,0,0,1-.033,1.349c-.217,2.5,1.066,4.1,3.132,5.149a16.9,16.9,0,0,0,2.666.949c1.05.35,2.116.6,3.149,1a2.716,2.716,0,0,1,1.616,2.816Z" transform="translate(-542.27 -1381.319)" fill="#468354"/>
        <path id="Pfad_33" data-name="Pfad 33" d="M976.842,300.179a24.877,24.877,0,1,0,24.176,25.809A24.858,24.858,0,0,0,976.842,300.179Zm-.667,48.169a23.331,23.331,0,0,1-23.393-23.26v-.15a23.31,23.31,0,1,1,23.393,23.41Z" transform="translate(-792.713 -250.161)" fill="#468354"/>
        <path id="Pfad_34" data-name="Pfad 34" d="M1697.887,1286.155a11.927,11.927,0,0,0-7.948,2.7,14.426,14.426,0,0,1-9.281,2.866c-1.85-.017-3.7-.117-5.448-.183-.65,0-1.2-.033-1.75,0a19.044,19.044,0,0,0-6.848,1.533,4.6,4.6,0,0,0-.9,7.914,8.7,8.7,0,0,0,1.9,1.2,23.411,23.411,0,0,1,5,3.3,3.46,3.46,0,0,1,.449,5.165,11.741,11.741,0,0,0-1.05,1.466c-1.7,2.966-.466,6.615,3.282,7.231a13.953,13.953,0,0,1,2.583.766c2.1.8,2.3,1.333,1.333,3.332a3.981,3.981,0,0,0,1.217,4.849c1.916,1.183,3.965,1.533,5.931.217a14.871,14.871,0,0,0,3.266-2.849,8.971,8.971,0,0,0,2.1-8c-.4-1.65-.883-3.282-1.416-4.9-.583-1.8-1.3-3.565-1.883-5.382a3.235,3.235,0,0,1,.9-3.316,6.845,6.845,0,0,1,3.816-2.266c.883-.15,1.783-.283,2.666-.367a18,18,0,0,0,6.4-1.533,5.634,5.634,0,0,0,3.166-3.049,12.492,12.492,0,0,0,.567-2.482,6.074,6.074,0,0,0-1.117-4.549A8.52,8.52,0,0,0,1697.887,1286.155Zm6.415,8.714a4.9,4.9,0,0,1-3.065,3.749,14.4,14.4,0,0,1-4.649,1.133c-1.25.133-2.482.316-3.716.5a7.414,7.414,0,0,0-3.882,1.849,5.512,5.512,0,0,0-2.066,5.332,17.135,17.135,0,0,0,.833,2.866,58.344,58.344,0,0,1,2.366,7.115,8.333,8.333,0,0,1-2.349,7.981,5.62,5.62,0,0,1-3.083,2.033,7.066,7.066,0,0,1-2.366.033,2.369,2.369,0,0,1-1.649-3.582,5.355,5.355,0,0,0,.633-1.95,2.955,2.955,0,0,0-2.032-2.882,15.641,15.641,0,0,0-3.7-1.166,3.185,3.185,0,0,1-2.249-4.915,5.535,5.535,0,0,1,.983-1.316c2.033-1.816,1.333-5.815-.433-7.165a27.982,27.982,0,0,0-5.1-3.449,10.617,10.617,0,0,1-2.049-1.233,2.976,2.976,0,0,1,.35-5.115,10.625,10.625,0,0,1,4.115-1.3c1.033-.15,2.1-.2,3.132-.283v.117c2.25.05,4.5.2,6.748.15a15.517,15.517,0,0,0,10.03-3.383,13.97,13.97,0,0,1,3.4-1.849,8.12,8.12,0,0,1,6.565.4A5.714,5.714,0,0,1,1704.3,1294.869Z" transform="translate(-1386.611 -1071.851)" fill="#468354"/>
        <path id="Pfad_35" data-name="Pfad 35" d="M319.8,1313.242a9.135,9.135,0,0,0-1.533-2.716,3.524,3.524,0,0,1,.45-5.282,23.434,23.434,0,0,1,5.148-3.366,8.053,8.053,0,0,0,1.516-.966,4.628,4.628,0,0,0-.916-8.148,20.193,20.193,0,0,0-7.931-1.466c-2,.017-4,.167-6,.183a14.366,14.366,0,0,1-9.147-2.816,12.541,12.541,0,0,0-7.6-2.766,9.1,9.1,0,0,0-6.915,3.116c-2.466,2.716-2.2,9,2.416,10.763a22.108,22.108,0,0,0,6.715,1.449,8.073,8.073,0,0,1,6.1,2.766,3.215,3.215,0,0,1,.8,2.933c-.217.866-.483,1.733-.783,2.583-.683,1.933-1.5,3.832-2.049,5.8a13.912,13.912,0,0,0-.666,4.565c.283,3.916,2.549,6.648,5.815,8.6a5.832,5.832,0,0,0,2.149.617,4.822,4.822,0,0,0,4.782-2.883,3.705,3.705,0,0,0-.25-3.316c-.783-1.4-.483-2.183,1-2.833a4.3,4.3,0,0,1,.417-.167c1.1-.317,2.2-.633,3.316-.933A4.363,4.363,0,0,0,319.8,1313.242Zm-3.849,4.332a36.835,36.835,0,0,0-3.716,1.149,3.106,3.106,0,0,0-1.783,4.716c1.05,2.066.133,3.732-2.133,3.949a4.8,4.8,0,0,1-3.632-1.1,10.928,10.928,0,0,1-3-3.7,6.627,6.627,0,0,1-.766-3.332,17.308,17.308,0,0,1,1.083-5.115c.483-1.366,1.033-2.716,1.533-4.082a18.292,18.292,0,0,0,.75-2.283,5.911,5.911,0,0,0-2.5-6.281,10.989,10.989,0,0,0-5.2-1.8c-1.333-.167-2.7-.233-4.016-.5a12.055,12.055,0,0,1-2.832-.95,4.86,4.86,0,0,1-2.882-5.282,6.184,6.184,0,0,1,4.165-5.015,9.406,9.406,0,0,1,9.5,2.1,13.362,13.362,0,0,0,5.082,2.466,23.365,23.365,0,0,0,7.9.566,32.77,32.77,0,0,1,6-.017,10.768,10.768,0,0,1,4.949,1.583,2.944,2.944,0,0,1,.283,4.765,5.711,5.711,0,0,1-1.483,1.016,28.937,28.937,0,0,0-5.315,3.366,5.321,5.321,0,0,0-2.116,5.432,6,6,0,0,0,1.1,2.083,15.066,15.066,0,0,1,1.283,2,3.046,3.046,0,0,1-2.249,4.266Z" transform="translate(-237.791 -1071.646)" fill="#468354"/>
        <path id="Pfad_36" data-name="Pfad 36" d="M1095.848,142.1a1.173,1.173,0,0,0-1.15,1.2v.083a1.016,1.016,0,0,0,1.1.95h.017a1.252,1.252,0,0,0,1.116-1.2A1.159,1.159,0,0,0,1095.848,142.1Z" transform="translate(-912.301 -118.424)" fill="#468354"/>
        <path id="Pfad_37" data-name="Pfad 37" d="M1007.371,991.622a19.367,19.367,0,0,1-.3,1.933,5.084,5.084,0,0,0,1.4,4.549,11.138,11.138,0,0,0,4,2.6,3.853,3.853,0,0,1,1.416.8,22,22,0,0,0,3.466,2.866,15.132,15.132,0,0,0,3.049,1.583c.65.25,1.316.483,1.949.783a6.538,6.538,0,0,0,3.816.516,15.174,15.174,0,0,1,1.933-.183,3.885,3.885,0,0,0,2.616-1,9.994,9.994,0,0,1,2.116-1.416,11.162,11.162,0,0,0,1.55-.916,3.983,3.983,0,0,0,1.9-2.9,24.312,24.312,0,0,0,.183-4.8,12.778,12.778,0,0,0-1.05-4.665,7.928,7.928,0,0,1-.533-4.682c.35-2.416.333-4.815-1.05-6.981a14.725,14.725,0,0,1-.85-1.6,3.792,3.792,0,0,1-.383-1.133,24.88,24.88,0,0,0-1.566-6.1,15.6,15.6,0,0,0-3.249-5.532c-.766-.8-1.466-1.65-2.166-2.5-.666-.816-1.283-1.666-1.9-2.516-.683-.933-1.283-1.916-2-2.816a16.518,16.518,0,0,1-2.783-4.265,1.691,1.691,0,0,0-1.066-1.15,2.111,2.111,0,0,0-.433.217,1.44,1.44,0,0,0-.35.483,36.152,36.152,0,0,1-3.4,6.7,12.8,12.8,0,0,1-2.049,2.766,33.237,33.237,0,0,0-4.749,5.615,4.011,4.011,0,0,0-.766,2.366c.017,1.6-.033,3.216,0,4.815a32.776,32.776,0,0,1-.466,5.982,8.383,8.383,0,0,0,.65,5.415A9.641,9.641,0,0,1,1007.371,991.622Zm6.448,2.4a9.66,9.66,0,0,0-.733,3.815,6.1,6.1,0,0,1-.2,1.233,3.473,3.473,0,0,1-.8-.167,7.866,7.866,0,0,1-2.783-2.233,3.233,3.233,0,0,1-.7-2.8,17.6,17.6,0,0,0,.266-3.732,6.631,6.631,0,0,0-.367-2.666,2.541,2.541,0,0,1,.283-2.283,49.252,49.252,0,0,1,2.716-4.149,14.211,14.211,0,0,0,2.466-6.548,4.863,4.863,0,0,1,.2-.65,2.613,2.613,0,0,1,.733.4,9.89,9.89,0,0,1,2.732,4.765,2.429,2.429,0,0,1,.067,1.033c-.466,1.583-.983,3.149-1.5,4.715a4.786,4.786,0,0,1-1.05,1.8,3.9,3.9,0,0,0-1.1,3.016,12.875,12.875,0,0,0,.067,1.8A4.65,4.65,0,0,1,1013.82,994.021Zm7.664,7.681c.217.866.417,1.733.667,2.8a3.838,3.838,0,0,1-.783.05,4.542,4.542,0,0,1-1.133-.383,24.273,24.273,0,0,1-4.9-3.4,2.418,2.418,0,0,1-.766-1.883,10.487,10.487,0,0,1,.683-4.115,6.144,6.144,0,0,0,.383-3.666,4.146,4.146,0,0,1,.833-3.666,8.517,8.517,0,0,0,1.716-3.949,1.442,1.442,0,0,1,.5-1.133,4.511,4.511,0,0,1,.533.45c.3.333.567.7.883,1.016a10.293,10.293,0,0,1,1.866,2.7c.35.717.716,1.433,1.083,2.149a2.963,2.963,0,0,1,.233,2.033c-.616,2.682-1.183,5.365-1.8,8.048a5.894,5.894,0,0,0,0,2.949Zm3.882,1.833c-.133.266-.3.5-.466.766a1.225,1.225,0,0,1-1.25-.9,7.594,7.594,0,0,1-.583-4.532c.433-2.149.933-4.3,1.433-6.431a2.078,2.078,0,0,1,.25-.467c.167.05.317.05.35.117a19.422,19.422,0,0,1,2.316,5.648,2.914,2.914,0,0,1-.067,1.466,8.066,8.066,0,0,1-1.45,3.249,4.677,4.677,0,0,0-.533,1.083Zm9.014-9c.217.217.467.35.516.533a6,6,0,0,1,.2,1.333,21.739,21.739,0,0,1-.233,4.032,2.767,2.767,0,0,1-1.233,1.966c-.2.133-.417.266-.633.4a34.619,34.619,0,0,0-3.416,2.149c-1.033.766-1.9.816-3.4.367a10.415,10.415,0,0,1,1.616-3.149,3.461,3.461,0,0,0,.733-1.783,2.054,2.054,0,0,1,1.633-1.75,5.264,5.264,0,0,0,3.616-3.116,6.733,6.733,0,0,1,.6-.983Zm-10.1-29.558a3.329,3.329,0,0,1,.283-.8c.317.167.483.2.567.3a18.557,18.557,0,0,1,4.365,6.765c.233.716.533,1.416.717,2.133a30.117,30.117,0,0,1,.666,3.232,5.987,5.987,0,0,0,.65,2.133c.417.733.783,1.516,1.183,2.266a7.53,7.53,0,0,1,.733,4.815,23.444,23.444,0,0,0-.2,2.383,6.367,6.367,0,0,0,.433,3.1,1.671,1.671,0,0,1-.117,1.583c-.516.916-1,1.849-1.533,2.766a3.815,3.815,0,0,1-3.033,1.8,8.036,8.036,0,0,1-.5-1.15,11.868,11.868,0,0,0-1.25-3.049,10.186,10.186,0,0,1-.633-1.366,7.622,7.622,0,0,0-1.233-2.216,6.212,6.212,0,0,1-.667-1.166,1.664,1.664,0,0,1-.133-1.166c.467-2.466.966-4.915,1.333-7.381a29.134,29.134,0,0,0,.4-6.131,9.79,9.79,0,0,0-.833-3.632c-.317-.683-.583-1.383-.85-2.083a7.175,7.175,0,0,1-.35-3.132Zm-10.547,3.432a19.056,19.056,0,0,0,.217-4.349,6.59,6.59,0,0,1,.933-3.582c.317-.567.683-1.116.983-1.683.5-.933.966-1.866,1.433-2.8.133-.267.267-.516.433-.833.266.133.383.133.45.217,1.25,1.683,2.516,3.366,3.732,5.082a5.363,5.363,0,0,1,.816,2.866q.05,1.274,0,2.549a7.22,7.22,0,0,0,.767,3.632,12.092,12.092,0,0,1,1.25,4.149,5.486,5.486,0,0,1,.083.9c-.15,1.75-.267,3.5-.483,5.232-.183,1.433-.467,2.866-.733,4.3a4.331,4.331,0,0,1-.267.783c-.2-.017-.333,0-.366-.05-.9-1.066-1.816-2.133-2.7-3.216a4.787,4.787,0,0,1-.95-2.166,10,10,0,0,0-2.183-4.882,22.676,22.676,0,0,0-2.932-3,1.337,1.337,0,0,1-.566-1.166A11.068,11.068,0,0,1,1013.736,968.412Zm-6.632,13.429a37.568,37.568,0,0,0,.5-9.564,6.957,6.957,0,0,1,1.65-5.248c.733-.817,1.366-1.716,2.083-2.549a5.205,5.205,0,0,1,.8-.6,3.755,3.755,0,0,1,.3,2.383c-.117,1.35-.3,2.682-.467,4.016a3.36,3.36,0,0,0,.183,1.766,5.773,5.773,0,0,1,.233,3.232,9.776,9.776,0,0,1-1.633,4.149c-.95,1.466-1.949,2.9-2.932,4.349-.083.117-.233.167-.416.3-.117-.167-.3-.317-.3-.467a6.968,6.968,0,0,1,0-1.766Z" transform="translate(-837.954 -793.463)" fill="#468354"/>
        <path id="Pfad_38" data-name="Pfad 38" d="M183.28,0A183.28,183.28,0,1,0,366.56,183.28,183.283,183.283,0,0,0,183.28,0ZM15.712,112.484C54.684,19.928,161.32-23.493,253.876,15.5A181.808,181.808,0,0,1,365.127,182.6c-.35-.017-.717-.017-1.066-.017l-14.812-.05c-.533,0-1.083-.05-1.65-.083-.033-.467-.083-.816-.083-1.166a154.778,154.778,0,0,0-.816-15.462,150.535,150.535,0,0,0-2.566-16.329,165.254,165.254,0,0,0-57.916-93.673,144.363,144.363,0,0,0-51.885-26.759,121.286,121.286,0,0,0-26.192-4.3,103.028,103.028,0,0,0-13.979.1c-.567.05-1.133,0-1.933,0a15.971,15.971,0,0,1,4.182-1.716c2.266-.8,4.532-1.566,6.8-2.383a4.664,4.664,0,0,0,2.166-1.8c.417-.583.233-1.016-.483-1.233a12.279,12.279,0,0,0-1.316-.267A114.083,114.083,0,0,0,185.9,16.079a164.183,164.183,0,0,0-40.488,4.865,178.68,178.68,0,0,0-41.8,15.762A131.165,131.165,0,0,0,80.96,51.418,193.915,193.915,0,0,0,58.766,73,175.659,175.659,0,0,0,33.807,110.6,162.741,162.741,0,0,0,16.828,181.03c0,.433-.05.883-.083,1.45-.866.033-1.65.1-2.449.1-3.766.017-8.514.017-12.28.033-.2,0-.4,0-.6.017a180.781,180.781,0,0,1,14.3-70.146Zm327.521,89.807c.933,1.55,2.016,2.982,2.966,4.532a9.95,9.95,0,0,1,1.183,2.566,4.9,4.9,0,0,1-2.183,5.732c-1.216.8-2.483,1.516-3.682,2.333a7.156,7.156,0,0,0-3.2,7.964c.183.883.367,1.766.583,2.649a8.991,8.991,0,0,1-3.216,9.68,7.493,7.493,0,0,0-2.4,3.032,5.367,5.367,0,0,0-.25,3.532c.267.916.517,1.833.766,2.749a6.09,6.09,0,0,1-1.616,6.365c-1.683,1.55-3.632,2.833-5.4,4.3a18.2,18.2,0,0,0-2.566,2.5,6.784,6.784,0,0,0-1.4,5.232c.15,1.233.367,2.466.617,3.7.816,4.032-.467,6.531-4.265,8.2-1.65.716-3.332,1.383-4.965,2.149a19.134,19.134,0,0,0-2.6,1.5,7.119,7.119,0,0,0-3.132,4.432c-.217.983-.4,1.966-.6,2.949-.65,3.466-2.766,5.8-5.7,7.531a17.834,17.834,0,0,1-4.949,1.733,24.064,24.064,0,0,0-5.5,1.966,6.5,6.5,0,0,0-3.032,3.2,35.457,35.457,0,0,0-1.25,3.682c-.25.816-.4,1.65-.666,2.466a7.35,7.35,0,0,1-5.049,4.949,23.446,23.446,0,0,1-6.082.9c-.35.017-.7.017-1.05.033a9.56,9.56,0,0,0-8.531,4.982c-.567,1-1.216,1.949-1.833,2.933a13.437,13.437,0,0,1-7,5.632,26.548,26.548,0,0,1-7.181,1.516c-2.949.233-5.882.6-8.814.9a8.03,8.03,0,0,0-6.548,4.449c-.483.883-.933,1.766-1.35,2.683a5.9,5.9,0,0,1-4.215,3.316,17.792,17.792,0,0,1-6.565.433c-1.933-.233-3.882-.467-5.832-.683a13.782,13.782,0,0,0-10.53,3.082c-.95.75-1.966,1.4-2.966,2.066a25.921,25.921,0,0,1-8.747,3.5,48.6,48.6,0,0,1-11.93,1.316,46.46,46.46,0,0,1-15-2.766,24.723,24.723,0,0,1-5.748-3.232c-.983-.7-1.949-1.4-2.966-2.066a10.932,10.932,0,0,0-6.531-1.933c-2.2.083-4.4.25-6.581.533a20.739,20.739,0,0,1-7.914-.233,5.988,5.988,0,0,1-4.349-3.366c-.367-.816-.8-1.616-1.2-2.416a8.063,8.063,0,0,0-6.548-4.682c-2.932-.317-5.882-.567-8.831-.783a39.521,39.521,0,0,1-6.865-.75A19.523,19.523,0,0,1,104.2,326.9a12.782,12.782,0,0,1-3.949-4.065c-.616-.966-1.266-1.933-1.833-2.932-1.966-3.482-5.015-5-8.931-5.115a38,38,0,0,1-5.665-.616,7.678,7.678,0,0,1-6.448-5.965c-.15-.533-.25-1.066-.383-1.616-.15-.583-.267-1.166-.433-1.749a8.3,8.3,0,0,0-5.682-6.1c-1.949-.633-3.932-1.15-5.915-1.716a12.385,12.385,0,0,1-6.681-4.615,9.56,9.56,0,0,1-1.683-3.666,13.191,13.191,0,0,1-.317-1.616c-.317-3.632-2.4-5.948-5.565-7.431-1.716-.8-3.5-1.5-5.232-2.283a13.77,13.77,0,0,1-2.216-1.25,5.55,5.55,0,0,1-2.466-5.732c.217-1.483.483-2.966.716-4.449.567-3.516-.933-6.115-3.649-8.164-1.766-1.316-3.532-2.633-5.265-4a5.7,5.7,0,0,1-2.033-3.266,6.424,6.424,0,0,1,.033-3.549c.267-.816.467-1.633.7-2.466a5.8,5.8,0,0,0-1.6-5.932c-.833-.866-1.783-1.616-2.549-2.533a8.444,8.444,0,0,1-1.749-7.481c.2-.983.433-1.966.633-2.932.8-3.7-.233-6.282-3.4-8.414-1.033-.7-2.083-1.383-3.182-2a5.173,5.173,0,0,1-2.066-6.9c.616-1.25,1.466-2.383,2.166-3.6.783-1.333,1.6-2.666,2.266-4.049a6.075,6.075,0,0,0,.267-4.265,23.458,23.458,0,0,0-1.366-3.8,22.162,22.162,0,0,1-2.216-7.6c-.017-.25-.017-.55-.017-.9,1.333-.117,2.6-.083,3.882-.117s2.516,0,3.766,0h3.982a11.863,11.863,0,0,1,.25,1.433,16.239,16.239,0,0,0,3.532,9.264c.567.766,1.15,1.516,1.666,2.316a6.055,6.055,0,0,1,.283,6.681c-.65,1.183-1.383,2.333-1.983,3.532a6.288,6.288,0,0,0-.467,4.532,5.812,5.812,0,0,0,1.566,2.516,25.45,25.45,0,0,0,2.316,2.133,6,6,0,0,1,2.416,5.532,7.443,7.443,0,0,1-.616,2.133,17.2,17.2,0,0,0-1.6,5.132,6.308,6.308,0,0,0,3.732,6.715c1.45.666,2.882,1.416,4.3,2.149a8.578,8.578,0,0,1,1.25.833,4.819,4.819,0,0,1,1.733,6.232c-.467,1.216-1,2.4-1.533,3.6a6.794,6.794,0,0,0,2.666,8.8,17.353,17.353,0,0,0,2.583,1.2c1.016.433,2.066.783,3.032,1.283a2.938,2.938,0,0,1,1.7,3.366c-.133.733-.3,1.466-.5,2.183a7.065,7.065,0,0,0,3.9,8.614c.766.35,1.6.55,2.416.833,1.233.417,2.5.766,3.682,1.283a4.722,4.722,0,0,1,2.982,5.2c-.017.25-.067.5-.083.75-.3,3.866,1.2,6.6,4.765,8.2a34.114,34.114,0,0,0,5.282,1.666A21.764,21.764,0,0,1,84.909,294a4.628,4.628,0,0,1,2.533,5,14.8,14.8,0,0,0-.133,2.1,6.28,6.28,0,0,0,3.182,5.465,15.487,15.487,0,0,0,6.381,2.066c1.55.167,3.1.233,4.632.417a33.4,33.4,0,0,1,3.832.633,7.493,7.493,0,0,1,5.748,5.548c.133.433.317.85.467,1.266a8.759,8.759,0,0,0,6.815,5.7,58.784,58.784,0,0,0,13.013.983,25.644,25.644,0,0,1,4.915.517,9.241,9.241,0,0,1,6.148,4.449c.133.217.233.45.367.667,1.783,3.1,4.282,5.248,9.564,4.7,1.3-.133,2.583-.317,3.866-.516a24.323,24.323,0,0,1,9.247.467,11.531,11.531,0,0,1,3.166,1.366,36.92,36.92,0,0,0,9.3,3.766,22.712,22.712,0,0,0,13.6-.8,35.368,35.368,0,0,0,6.431-2.9c3.282-1.949,6.915-2.249,10.614-2.049,2.049.1,4.065.483,6.115.75a10.242,10.242,0,0,0,5.415-.866,8.4,8.4,0,0,0,3.849-3.9,9.937,9.937,0,0,1,7.848-5.348,75.8,75.8,0,0,1,8.248-.3,43.851,43.851,0,0,0,9.081-1.15,8.442,8.442,0,0,0,5.932-5.082,7.523,7.523,0,0,0,.566-1.55,7.7,7.7,0,0,1,2.833-4.315,5.456,5.456,0,0,1,1.533-.9,16.843,16.843,0,0,1,5.115-1.116c2.049-.133,4.1-.333,6.132-.616a13.181,13.181,0,0,0,4.665-1.616A6.469,6.469,0,0,0,279.5,300.4c-.033-.65-.117-1.3-.167-1.949a4.244,4.244,0,0,1,2.049-4.065,17.4,17.4,0,0,1,5.882-2.166c1.5-.367,3.016-.75,4.482-1.266a10.365,10.365,0,0,0,2.5-1.35,7.019,7.019,0,0,0,3.266-6.815c-.05-.45-.083-.9-.133-1.35a4.641,4.641,0,0,1,2.6-4.849,13.121,13.121,0,0,1,2.366-.916c1.233-.4,2.5-.716,3.732-1.116a7.486,7.486,0,0,0,4.665-4.782,6.177,6.177,0,0,0-.083-4.132q-.3-1.075-.5-2.2a2.945,2.945,0,0,1,1.7-3.349c.966-.517,2.033-.833,3.032-1.3a21.129,21.129,0,0,0,2.949-1.466,6.705,6.705,0,0,0,2.416-8.248c-.45-1.066-.966-2.1-1.333-3.182a17.447,17.447,0,0,1-.683-2.749,3.677,3.677,0,0,1,1.4-3.6,27.327,27.327,0,0,1,5.965-3.466,10.989,10.989,0,0,0,2.233-1.466,5.9,5.9,0,0,0,1.8-5.2,15.085,15.085,0,0,0-1.616-5.282A7.443,7.443,0,0,1,327.4,222a6.067,6.067,0,0,1,2.416-5.532,26.5,26.5,0,0,0,2.7-2.6c1.683-1.833,1.733-3.966.9-6.182a20.817,20.817,0,0,0-1.166-2.266c-.183-.35-.433-.666-.633-1.016-1.8-3.132-1.566-5.465.616-8.331a52.574,52.574,0,0,0,3.2-4.9,10.985,10.985,0,0,0,1.266-4.3c.117-.883.233-1.766.35-2.733h8.664a5.585,5.585,0,0,1-.117,2.966,45.585,45.585,0,0,1-1.5,4.4c-.483,1.266-1.116,2.466-1.583,3.732a8,8,0,0,0,.717,7.048ZM189.661,26.509c1.816,1.066,3.666,2.066,5.432,3.2,1.35.866,2.583,1.9,3.849,2.866a9.826,9.826,0,0,1,.833.833c-.95-.167-1.616-.3-2.283-.383-2.932-.367-5.848-.883-8.8-1.05-4.2-.233-8.414-.3-12.63-.267A106.853,106.853,0,0,0,159.62,33.24a124.44,124.44,0,0,0-19.328,5.065A168.058,168.058,0,0,0,94.039,61.982,159.4,159.4,0,0,0,62.915,91.69,151.775,151.775,0,0,0,43,124.33a145.737,145.737,0,0,0-12.78,56.517c-.017.4-.033.8-.067,1.2a1.259,1.259,0,0,1-.183.367H18.428c0-1.983-.083-3.866.017-5.765.183-3.349.45-6.7.75-10.03a149.587,149.587,0,0,1,3.766-21.894,164.181,164.181,0,0,1,12.2-33.54A172.194,172.194,0,0,1,52.685,82.842,180.7,180.7,0,0,1,70.4,62.782a148.087,148.087,0,0,1,12.78-11.413A132.749,132.749,0,0,1,98.854,41.021a180.107,180.107,0,0,1,54.7-20.294,167.3,167.3,0,0,1,21.144-2.8,151.942,151.942,0,0,1,18.478-.117c3.049.167,6.082.6,9.114.916a6.6,6.6,0,0,1,.983.317c-.7.317-1.133.533-1.566.683-2.6.883-5.232,1.7-7.814,2.649-1.366.5-2.649,1.183-3.966,1.816a2.015,2.015,0,0,0-.5.333c-.866.783-.8,1.383.233,1.983ZM330.22,204.99c.566,1,1.183,1.983,1.666,3.016a4.311,4.311,0,0,1-.85,5.249,31.073,31.073,0,0,1-2.316,2.133,7.763,7.763,0,0,0-2.033,9.514,11,11,0,0,1,1.433,4.865,4.7,4.7,0,0,1-3,4.882c-1.45.683-2.9,1.383-4.282,2.183a12.665,12.665,0,0,0-2.616,2,5.722,5.722,0,0,0-1.35,6c.45,1.533,1.25,2.949,1.833,4.432a7.614,7.614,0,0,1,.566,2c.3,3.182-1.55,4.849-3.966,5.848-1.016.417-2.066.766-3.082,1.183a6.42,6.42,0,0,0-2.549,1.8,4.031,4.031,0,0,0-.983,3.349,11.42,11.42,0,0,0,.566,2.483,5.778,5.778,0,0,1-3.766,7.315c-1.15.333-2.3.683-3.466.966a8.594,8.594,0,0,0-4.549,2.483,5.46,5.46,0,0,0-1.5,4.549,13.7,13.7,0,0,1,.1,1.65,6.264,6.264,0,0,1-4.232,6.415,34.5,34.5,0,0,1-3.866,1.183c-1.2.333-2.449.55-3.666.866a11.9,11.9,0,0,0-4.732,2.5,4,4,0,0,0-1.55,3.282,24.516,24.516,0,0,0,.2,2.7,5.224,5.224,0,0,1-2.633,5.6,12.215,12.215,0,0,1-4.665,1.583c-2.1.233-4.182.467-6.282.583a15.882,15.882,0,0,0-5.532,1.3,9.031,9.031,0,0,0-4.5,4.849,18.626,18.626,0,0,0-.633,1.849,7.4,7.4,0,0,1-5.3,5.065,32.725,32.725,0,0,1-8.314,1.083c-1.849.033-3.716-.067-5.565.017a32.61,32.61,0,0,0-4.765.55,10.463,10.463,0,0,0-7.031,5.2c-.517.85-1.083,1.683-1.633,2.533a4.1,4.1,0,0,1-2.533,1.766,9.913,9.913,0,0,1-4.016.35c-1.333-.2-2.683-.383-4.015-.583a24.829,24.829,0,0,0-9.847.483,14.6,14.6,0,0,0-3.716,1.583,35.831,35.831,0,0,1-10.064,3.849,17.019,17.019,0,0,1-7.448,0,35.213,35.213,0,0,1-10.2-3.949c-3.416-1.983-7.2-2.383-11.047-2.183-1.949.1-3.882.433-5.815.716a11.259,11.259,0,0,1-3.882-.083,4.768,4.768,0,0,1-3.432-2.2c-.367-.6-.833-1.133-1.15-1.749a11.118,11.118,0,0,0-8.781-6.032,79.946,79.946,0,0,0-8.7-.267,35.8,35.8,0,0,1-8.181-1,7.374,7.374,0,0,1-5.665-5.432,10.152,10.152,0,0,0-3.2-5.148,8.116,8.116,0,0,0-2.133-1.35,16.211,16.211,0,0,0-5.4-1.216c-2.049-.117-4.1-.333-6.132-.566a12.215,12.215,0,0,1-4.665-1.583,5.2,5.2,0,0,1-2.649-5.582,27.284,27.284,0,0,0,.2-2.849,3.773,3.773,0,0,0-1.416-3.032,11.762,11.762,0,0,0-4.849-2.616c-1.949-.5-3.9-.933-5.832-1.433a9.072,9.072,0,0,1-4.3-2.366,5.07,5.07,0,0,1-1.65-3.882c.033-.75-.017-1.516.083-2.249a5.776,5.776,0,0,0-2.6-5.7A13.1,13.1,0,0,0,64.1,273.92c-.666-.2-1.35-.4-2.033-.567a5.947,5.947,0,0,1-4.1-3.682,5.146,5.146,0,0,1-.033-3.532c.183-.683.367-1.35.517-2.033a4.562,4.562,0,0,0-2.5-5.282,32.5,32.5,0,0,0-3.316-1.416c-.65-.283-1.3-.533-1.916-.85a5.375,5.375,0,0,1-2.249-7.231,27.6,27.6,0,0,0,1.866-4.415A5.792,5.792,0,0,0,49,238.9a12.027,12.027,0,0,0-2.466-1.933c-1.383-.816-2.833-1.516-4.282-2.2a4.764,4.764,0,0,1-3.149-5.232,10.484,10.484,0,0,1,1.35-4.432,7.823,7.823,0,0,0-2.149-9.847,21.7,21.7,0,0,1-2.3-2.166,4.251,4.251,0,0,1-.75-4.882c.3-.683.65-1.35,1.016-2,.317-.566.683-1.116.983-1.683a7.66,7.66,0,0,0-.433-8.381c-.966-1.466-2.033-2.849-2.982-4.332a13.191,13.191,0,0,1-1.849-7.614c3.066-.2,6.048-.05,9.031-.083s6,0,9.081,0c.167.833.3,1.55.467,2.266a8.664,8.664,0,0,0,5,6.2,8.35,8.35,0,0,1,1.8,1.05,1.833,1.833,0,0,1,.167,2.9c-.317.383-.75.666-1.1,1.016a2.371,2.371,0,0,0,.383,4.032,14.619,14.619,0,0,0,2.583,1.216,4.963,4.963,0,0,1,3.182,3.349,7.022,7.022,0,0,0,3.749,4.282,17.31,17.31,0,0,0,9.8,1.616,14.982,14.982,0,0,0,3.216-.716,9.443,9.443,0,0,0,2.533-1.25,2.712,2.712,0,0,0,.766-3.732c-.067-.133-.167-.25-.233-.383-.417-.85-.317-1.3.583-1.65a8.6,8.6,0,0,1,2.333-.517c1.949-.133,3.9-.267,5.848-.25a8.219,8.219,0,0,0,4.532-1.4c2.2-1.383,2.932-4.232.367-6.431-.383-.317-.833-.567-1.216-.883a2.148,2.148,0,0,1-.417-3.082,6,6,0,0,1,1.749-1.616,6.543,6.543,0,0,0,3.632-5.515c0-.1.083-.183.183-.417.45-.017.983-.067,1.516-.067h52.3c0,3.132,0,6.265-.017,9.4-.217-.017-.45,0-.666,0-4.815.033-9.631.033-14.446.083-3.766.033-7.514.2-11.28.183a72.048,72.048,0,0,0-12.28.75,19.136,19.136,0,0,0-5.882,1.733c-2.916,1.55-3.682,4.3-1.966,7.081a9.917,9.917,0,0,1,.567.883,1.57,1.57,0,0,1-.533,2.233,5.057,5.057,0,0,1-1.366.616c-.766.233-1.55.383-2.333.6a9.886,9.886,0,0,0-6.331,4.932,6.354,6.354,0,0,0,1.216,7.7,18.687,18.687,0,0,0,3.716,2.516,11.391,11.391,0,0,0,5.8,1.333c2.4-.133,4.815-.1,7.215-.1a40.632,40.632,0,0,1,10.414,1.2,7.65,7.65,0,0,1,3.582,2.116c1.983,2.033,1.883,5.4.133,6.915a5.246,5.246,0,0,0-.683.8,4.158,4.158,0,0,0-.45,4.532,6.453,6.453,0,0,0,4.132,3.466c2.049.633,4.132,1.2,6.182,1.866a10.305,10.305,0,0,1,4.132,2.383,4.44,4.44,0,0,1,.866,5.615c-.367.6-.783,1.166-1.116,1.783-1.1,2.016-1.233,3.949.283,5.882a8.188,8.188,0,0,0,5.065,2.949,31.807,31.807,0,0,0,8.531.217,28.242,28.242,0,0,0,6.665-1.066c2.1-.65,4.215-1.283,6.315-1.966a37.4,37.4,0,0,1,9.5-2.166c2.8-.15,5.615-.05,8.414-.05a26.079,26.079,0,0,1,7.081,1.216c2.466.7,4.865,1.55,7.3,2.316a39.55,39.55,0,0,0,17.362,1.516,7.614,7.614,0,0,0,3.732-1.5c2.766-2.216,3.516-4.615,1.55-7.731-.1-.167-.233-.333-.333-.5l-.55-.9a4.43,4.43,0,0,1,.85-5.615,10.305,10.305,0,0,1,4.132-2.383c1.566-.533,3.166-.95,4.749-1.45a19.353,19.353,0,0,0,2.566-.866c3.7-1.716,4.482-5.448,1.8-8.464l-.1-.1a4.351,4.351,0,0,1-1.116-2.866c-.117-2.733,1.8-4.9,4.6-5.8a24.753,24.753,0,0,1,7.231-1.233c3.466-.05,6.915-.15,10.364-.017,3.866.15,6.981-1.383,9.88-3.7a6.292,6.292,0,0,0,1.65-7,8.39,8.39,0,0,0-4.465-4.865c-1.15-.5-2.349-.833-3.532-1.233a14.394,14.394,0,0,1-2.116-.733,1.646,1.646,0,0,1-.733-2.533c.167-.3.4-.583.583-.883a4.576,4.576,0,0,0-1.783-6.8,13.308,13.308,0,0,0-2.9-1.2,43.5,43.5,0,0,0-9.947-1.366c-2.449-.067-4.9-.05-7.365-.1-2.666-.05-5.315-.117-7.964-.183v-.067H214.071c-.333-.017-.666,0-1,.017V184.1c2.316.017,4.632.017,6.948.017l45.437-.017h1.5a4.708,4.708,0,0,1,.217.833,6.192,6.192,0,0,0,3.366,5.032,6.984,6.984,0,0,1,1.8,1.55,2.221,2.221,0,0,1-.417,3.416c-.4.3-.833.55-1.216.883a3.752,3.752,0,0,0,.417,6.248,8.2,8.2,0,0,0,4.665,1.466c1.949-.017,3.916.1,5.865.25a8.244,8.244,0,0,1,2.449.6c.716.3.8.766.467,1.483-.067.133-.167.25-.233.383a2.813,2.813,0,0,0,.983,4.032,6.8,6.8,0,0,0,1.733.883,17.625,17.625,0,0,0,7.848.866,16.988,16.988,0,0,0,5.615-1.55,7.193,7.193,0,0,0,3.866-4.382,4.85,4.85,0,0,1,3.066-3.266,18.162,18.162,0,0,0,2.449-1.133c1.916-1.083,2.083-2.816.467-4.282a8.133,8.133,0,0,1-.883-.8,1.957,1.957,0,0,1,.217-3.132,3.263,3.263,0,0,1,.883-.55c3.849-1.55,5.782-4.465,6.115-8.681.417-.067.85-.117,1.266-.15q8.2-.025,16.4-.017a9.494,9.494,0,0,1,.966.1,11.466,11.466,0,0,1-1.45,6.815c-.916,1.483-1.883,2.966-2.932,4.349-2.416,3.132-2.666,6.215-.716,9.647ZM76.944,190.278a11.426,11.426,0,0,1-1.05-5.4,4.8,4.8,0,0,1,.083-.55c1.183-.3,20.394-.383,22.293-.083a4.545,4.545,0,0,1-2.133,3.982,18.621,18.621,0,0,0-2.5,1.9,3.912,3.912,0,0,0,.533,6.215,6.373,6.373,0,0,1,1.166.933,2.085,2.085,0,0,1-.367,3.349,6.89,6.89,0,0,1-3.782,1.3c-2.349.05-4.7.15-7.031.367a6.327,6.327,0,0,0-2.5.883,2.162,2.162,0,0,0-.783,3.316c.783,1.35.65,2.083-.783,2.733a14.283,14.283,0,0,1-7.648,1.1c.333-.45.517-.733.733-.966a5.994,5.994,0,0,0,.033-7.364,4.1,4.1,0,0,1-1.1-2.266,2.4,2.4,0,0,1,1.083-2.466c.666-.433,1.366-.833,2.016-1.3C77.444,194.427,77.977,192.794,76.944,190.278Zm-1.1-30.108c9.347-.583,22.01,8.1,22.41,22.227H76.094c-.083-7.464-.167-14.846-.25-22.227Zm87.291-13.346a47.6,47.6,0,0,1,5.548-.283c10.48.017,20.961,0,31.441.017a23.378,23.378,0,0,1,4.032.333,8,8,0,0,1,6.615,5.832,16.045,16.045,0,0,1,.8,5.465c-.083,2.8-.017,5.615-.033,8.431-.017,1.749-.017,3.5-.167,5.248-.15,1.883-.033,3.8-.033,5.715v5.4c0,1.55-.017,3.116-.017,4.665q0,13.771-.017,27.525a9.561,9.561,0,0,1-1.35,5.315,9.059,9.059,0,0,1-5.948,4.465,8.888,8.888,0,0,1-1.633.15q-18.944.025-37.906,0a7.67,7.67,0,0,1-5.682-2.333,11.006,11.006,0,0,1-2.066-2.566,10.138,10.138,0,0,1-1.166-4.615c-.033-1.55-.017-3.116-.017-4.665v-17h-.017V184.3c0-3.549.017-7.115-.017-10.664-.017-1.35-.183-2.7-.2-4.049-.033-4.315-.067-8.631,0-12.93a11.616,11.616,0,0,1,1.849-6.265,7.851,7.851,0,0,1,5.982-3.566Zm-.017-7.415a1.262,1.262,0,0,1,1.25-1.266,9.62,9.62,0,0,1,1.2-.033h35.773a7.23,7.23,0,0,1,1.2.05,1.33,1.33,0,0,1,1.183,1.183,3.644,3.644,0,0,1,.05.6c0,1.3,0,2.6-.017,3.916a4.63,4.63,0,0,1-.133.816c-.5.517-1.066.383-1.616.383-2.749,0-5.515.05-8.264-.033-4.449-.133-8.914.117-13.363.017-1.2-.033-2.4-.083-3.6-.133q-.675-.025-1.35,0c-3.649.05-7.315.117-10.963.15a7.261,7.261,0,0,1-1.033-.117c-.15-.25-.25-.333-.25-.417C163.152,142.808,163.086,141.109,163.119,139.409Zm-7.448,82.742a13.283,13.283,0,0,0,3.216,3.116A7.505,7.505,0,0,0,162.2,226.6a20.568,20.568,0,0,0,2.683.233q13.7.025,27.375.033c3.416,0,6.815,0,10.23-.033a9.443,9.443,0,0,0,5.165-1.383,13.069,13.069,0,0,0,3.566-3.4,9.745,9.745,0,0,0,1.033-1.983,12.994,12.994,0,0,0,.816-4.865c0-1.183,0-2.349-.017-3.532a9.039,9.039,0,0,0,1.483.317,7.215,7.215,0,0,1,6.248,9.3,13.635,13.635,0,0,1-2.833,5.248,23.261,23.261,0,0,1-9.331,6.665,24.953,24.953,0,0,1-5.032,1.483,37.907,37.907,0,0,1-6.281.533c-8.881.067-17.745.117-26.626.05a43.565,43.565,0,0,1-7.931-.666,24.06,24.06,0,0,1-12.78-6.881,13.859,13.859,0,0,1-3.916-6.481c-.716-2.916-.15-5.482,2.233-7.464a7.3,7.3,0,0,1,4.515-1.816,3.888,3.888,0,0,0,.966-.15c0,1.516,0,3.032.033,4.549a10.056,10.056,0,0,0,1.866,5.8Zm72.079,6.082a13.785,13.785,0,0,1,.15,1.649,5.51,5.51,0,0,1-2.083,4.765,15.247,15.247,0,0,1-5.265,2.466,9.45,9.45,0,0,0-6.281,4.965,22.366,22.366,0,0,1-1.5,2.6,8.928,8.928,0,0,1-5.765,4,15.374,15.374,0,0,1-7.281-.3c-3.432-.9-6.865-1.816-10.33-2.649a27.369,27.369,0,0,0-11.913-.033c-3.5.7-6.9,1.733-10.314,2.683a14.775,14.775,0,0,1-7.431.267,8.685,8.685,0,0,1-3.966-2.033,13.519,13.519,0,0,1-3-4.3,9.815,9.815,0,0,0-6.6-5.248,19.369,19.369,0,0,1-3.632-1.433c-2.249-1.166-3.682-2.932-3.582-5.615.033-.75.2-1.5.2-2.249a8.283,8.283,0,0,0-.25-2.5,11.259,11.259,0,0,0-5.448-6.348c-2.216-1.25-4.582-2.249-6.848-3.432a10.574,10.574,0,0,1-2.349-1.583,2.57,2.57,0,0,1-.483-3.3,7.444,7.444,0,0,1,2.333-2.7,19.568,19.568,0,0,1,5.865-2.633,38.386,38.386,0,0,1,8.014-1.233c4.349-.283,8.714-.417,13.063-.616.183,0,.367-.017.566-.033a35.483,35.483,0,0,1,.15,4.982v2.3a6.02,6.02,0,0,0-2.316.033,8.636,8.636,0,0,0-7.1,10.547,14.573,14.573,0,0,0,2.716,5.648,24.91,24.91,0,0,0,6.831,6.032,28.369,28.369,0,0,0,14.879,4.1c9.78.117,19.544.067,29.325,0a30,30,0,0,0,6.115-.65,26.9,26.9,0,0,0,14.446-8.131,15.278,15.278,0,0,0,3.849-7.048,8.542,8.542,0,0,0-5.282-10,7.123,7.123,0,0,0-4.2-.533v-7.265h.317c1.45.05,2.9.117,4.365.167a118.253,118.253,0,0,1,12.146.766A29.562,29.562,0,0,1,238,206.373a9.684,9.684,0,0,1,4.949,3.966,2.786,2.786,0,0,1-.583,3.782,11.959,11.959,0,0,1-2.283,1.433c-1.433.716-2.916,1.35-4.349,2.049a16.673,16.673,0,0,0-6,4.415c-1.4,1.833-2.449,3.766-1.983,6.215Zm-74.128-26.342c-.083,0-.167.017-.25.017a151.914,151.914,0,0,0-15.329.616,36.556,36.556,0,0,0-11.013,2.866,9.9,9.9,0,0,0-4.749,4.432,4.119,4.119,0,0,0,.117,4.282,5.206,5.206,0,0,0,1.5,1.633,37.52,37.52,0,0,0,3.632,2.116c1.066.55,2.2.983,3.282,1.483a14.318,14.318,0,0,1,4.749,3.349,7.13,7.13,0,0,1,1.866,6.515,7.069,7.069,0,0,0,3.8,7.631c1.566.65,3.149,1.283,4.765,1.816a8.1,8.1,0,0,1,5.215,4.2c.517,1.083,1.183,2.1,1.8,3.132a9.5,9.5,0,0,0,6.565,4.615,18.41,18.41,0,0,0,8.764-.55c3.366-.983,6.748-1.916,10.147-2.733a21.232,21.232,0,0,1,9.547-.067c2.932.616,5.832,1.466,8.714,2.316,3.3.966,6.581,1.75,10.047,1.1a8.908,8.908,0,0,0,5.9-3.249,32.414,32.414,0,0,0,2.883-4.565,8.407,8.407,0,0,1,5.248-4.182c1.616-.533,3.2-1.183,4.765-1.833,2.566-1.066,4.365-4.432,3.8-7.648a6.38,6.38,0,0,1,.483-4.532,10.659,10.659,0,0,1,4.4-4.4c1.7-.85,3.466-1.583,5.149-2.449a28.19,28.19,0,0,0,3.616-2.133,4.521,4.521,0,0,0,1.25-6.232,9.966,9.966,0,0,0-4.665-4.1,31.776,31.776,0,0,0-9.68-2.633c-3.382-.433-6.8-.55-9.464-.766h-7.448v-6.948c.333.017.683.017,1.016.017,11.13.2,22.26-.317,33.374.583a35.326,35.326,0,0,1,7.681,1.333,7.984,7.984,0,0,1,2.982,1.716,2.262,2.262,0,0,1,.733,2.949,18.106,18.106,0,0,1-1.016,1.833,2.849,2.849,0,0,0,.5,3.7,6.544,6.544,0,0,0,1.916,1.133c.833.333,1.733.5,2.6.75a8.738,8.738,0,0,1,5.465,4.182,5.037,5.037,0,0,1-.95,6.281,13.765,13.765,0,0,1-5.648,3.016,7.082,7.082,0,0,1-1.766.267c-2.5,0-5.015,0-7.514-.067a39.359,39.359,0,0,0-11.763,1.266,7.682,7.682,0,0,0-5.265,4.365,6.045,6.045,0,0,0,1.183,7.081,2.981,2.981,0,0,1,1.05,2.833,3.634,3.634,0,0,1-1.733,2.533,20.729,20.729,0,0,1-2.883,1.216c-2.133.733-4.3,1.333-6.431,2.1a8.489,8.489,0,0,0-4,3.066,5.584,5.584,0,0,0-.483,6.348c.367.666.783,1.283,1.166,1.933a3.759,3.759,0,0,1-1.15,5.4,7.572,7.572,0,0,1-2.866,1.233,21.184,21.184,0,0,1-4.482.433c-2.2,0-4.4-.15-6.6-.317a12.687,12.687,0,0,1-2.5-.45c-3.366-.966-6.715-2.033-10.1-2.932a51.834,51.834,0,0,0-6.765-1.4,43.844,43.844,0,0,0-6.448-.233,31.543,31.543,0,0,0-7.9.866c-3.216.933-6.5,1.7-9.681,2.733a38.255,38.255,0,0,1-14.246,1.666,10.2,10.2,0,0,1-5.465-1.416c-1.766-1.216-2.866-3.3-1.3-5.732.4-.633.8-1.283,1.15-1.933a5.535,5.535,0,0,0-.45-6.1,8.5,8.5,0,0,0-4.082-3.2c-2.116-.766-4.282-1.366-6.415-2.1a12.942,12.942,0,0,1-2.749-1.15c-2.283-1.4-2.533-3.582-.733-5.548a.724.724,0,0,1,.117-.1,5.655,5.655,0,0,0,1.566-3.8c.183-3.666-2.3-6.3-5.565-7.348a26.242,26.242,0,0,0-7.681-1.3c-3.5-.033-7.015-.1-10.53.033a12.5,12.5,0,0,1-8.881-3.416,4.927,4.927,0,0,1-1.133-5.632,7.366,7.366,0,0,1,3.782-3.916c1.15-.467,2.366-.8,3.532-1.233a11.726,11.726,0,0,0,2.7-1.25,2.835,2.835,0,0,0,.65-4.016,15.163,15.163,0,0,1-.85-1.416c-.666-1.5-.417-2.349.85-3.432a11.2,11.2,0,0,1,5.515-2.216,90.171,90.171,0,0,1,15.129-1.133c7.814-.1,15.645-.067,23.46-.083.233,0,.467,0,.7-.017A63.92,63.92,0,0,1,153.622,201.891Zm137.21-17.661a8.586,8.586,0,0,1-.4,4.665c-.233.666-.533,1.3-.75,1.966a3.819,3.819,0,0,0,1.166,4.482,28.285,28.285,0,0,0,2.466,1.716,2.708,2.708,0,0,1,1.016,3.982,7.284,7.284,0,0,1-.517.733c-1.949,2.683-1.933,5.232.083,7.848.117.15.233.317.433.616a6.849,6.849,0,0,1-1.016.2,14.027,14.027,0,0,1-6.448-1.133c-1.533-.683-1.7-1.383-.866-2.816a2.148,2.148,0,0,0-.7-3.232,6.008,6.008,0,0,0-2.5-.933c-2.283-.233-4.582-.35-6.881-.367a7.212,7.212,0,0,1-3.816-1.15,2.177,2.177,0,0,1-.367-3.749c.367-.333.8-.6,1.2-.9a3.784,3.784,0,0,0,.65-5.582,11.575,11.575,0,0,0-2.383-2.016,4.687,4.687,0,0,1-2.6-4.249c1.066-.283,20.394-.35,22.227-.083Zm-22.177-1.949c-.05-12.08,11.013-22.393,22.343-22.16-.083,7.464-.15,14.812-.233,22.127C289.4,182.563,269.971,182.563,268.655,182.28Zm62.148.217c-1.55.033-3.116,0-4.665,0h-9.281c-.117-.716-.25-1.333-.333-1.966a24.887,24.887,0,0,0-27.742-21.977,24.755,24.755,0,0,0-21.394,19.928c-.233,1.233-.367,2.483-.55,3.749-.45.417-1.033.25-1.55.25H218.353c-1.766,0-3.532,0-5.315.017q0-13.421-.033-26.842a11.276,11.276,0,0,0-.866-4.549,9.492,9.492,0,0,0-5.732-5.415c-.35-.15-.7-.317-1.033-.5a2.955,2.955,0,0,1-.133-.666c.017-.4.083-.8.1-1.2a31.368,31.368,0,0,0,.083-3.749c-.15-1.866-1-3.116-3.6-3.2a5.7,5.7,0,0,0-.75.067,3.642,3.642,0,0,1-.6.05c-2.149-.033-4.3-.117-6.448-.117-3.866-.017-7.714,0-11.58,0-1.25,0-2.5.017-3.766.017H167.718c-.8,0-1.6.033-2.4,0-2.416-.1-3.916,1.016-3.965,3.616-.017,1.2.117,2.4.15,3.6.017.5,0,.983,0,1.6-.517.217-.866.383-1.25.533a9.525,9.525,0,0,0-5.348,4.8,11.317,11.317,0,0,0-1.116,5.1q-.025,13.421-.033,26.859c-2.533-.017-5.049-.017-7.581-.017H101.487c-.483,0-.966-.05-1.433-.083-1.183-15.445-13.229-23.676-23.993-24.043a24.407,24.407,0,0,0-17.978,6.681c-5.032,4.649-7.448,10.564-8,17.378H31.924c-.017-.533-.083-1.066-.05-1.6.317-4.749.5-9.514,1.033-14.246a134.853,134.853,0,0,1,4.882-23.51,147.556,147.556,0,0,1,23.96-47.186A158.716,158.716,0,0,1,103.37,57.6a167.727,167.727,0,0,1,42.4-19.361,116.78,116.78,0,0,1,31.241-4.915,100.031,100.031,0,0,1,20.077,1.283c1.233.217,2.433.567,3.666.85.533.117,1.1.333,1.5-.267a1.215,1.215,0,0,0-.233-1.65c-1.5-1.4-3.032-2.766-4.6-4.082-.8-.666-1.733-1.2-2.6-1.8-.233-.167-.433-.35-.65-.533l.083-.217c2.016.3,4.049.55,6.048.883a171.654,171.654,0,0,1,31.507,8.264A155.83,155.83,0,0,1,317.691,112.3a161.92,161.92,0,0,1,12.88,34.89,160.065,160.065,0,0,1,4.1,24.126c.3,3.449.516,6.9.766,10.347,0,.25-.017.5-.033.75a38.389,38.389,0,0,1-4.6.083Zm14.912-.05H337.1c-.117-1.683-.267-3.282-.333-4.865a151.41,151.41,0,0,0-1.65-15.529,169.315,169.315,0,0,0-3.8-18.228A160.867,160.867,0,0,0,300.7,83.242a154.766,154.766,0,0,0-53.6-42.354,164.438,164.438,0,0,0-41.738-13.629c-1.533-.283-3.049-.533-4.582-.816-.033,0-.067-.067-.167-.2,2.016,0,3.965-.083,5.9.017a130.484,130.484,0,0,1,53.168,14.312,151.725,151.725,0,0,1,41.138,30.708,162.883,162.883,0,0,1,33.79,52.368,158.079,158.079,0,0,1,8.481,28.475,156.364,156.364,0,0,1,2.882,25.359c.033.85.067,1.7.017,2.549-.033.766-.167,1.55-.267,2.416Zm5.132,71.629A181.847,181.847,0,0,1,1.416,183.963h.633c3.766.017,6.348,0,10.1.017.8,0,3.766.067,4.515.1a3.276,3.276,0,0,1,.167.533,27.393,27.393,0,0,0,2.816,9.147,15.369,15.369,0,0,1,1.083,3.582,4.625,4.625,0,0,1-.55,3.349c-.65,1.133-1.35,2.216-2,3.332a41.308,41.308,0,0,0-2.383,4.165,6.593,6.593,0,0,0,2.533,8.181c.9.533,1.8,1.1,2.666,1.683a13.819,13.819,0,0,1,2.166,1.616,5.036,5.036,0,0,1,1.583,5.049c-.25.966-.4,1.966-.65,2.932a10.449,10.449,0,0,0,3.466,10.98,13.389,13.389,0,0,1,1.4,1.35,4.216,4.216,0,0,1,.95,4.065c-.25.866-.483,1.733-.716,2.616a7.626,7.626,0,0,0,2,7.748,38.4,38.4,0,0,0,3.566,2.982c.783.616,1.616,1.183,2.433,1.766a6.685,6.685,0,0,1,2.749,7.265c-.25,1.283-.5,2.549-.666,3.849a6.952,6.952,0,0,0,1.55,5.615,10.588,10.588,0,0,0,3.866,2.8c2.183,1,4.415,1.9,6.531,3.032a6.239,6.239,0,0,1,3.532,5.248,8.375,8.375,0,0,0,.133.9,12.438,12.438,0,0,0,7.3,9.664,28.139,28.139,0,0,0,4.682,1.583,20.941,20.941,0,0,1,5.315,2.016,4.929,4.929,0,0,1,1.716,1.65,12.739,12.739,0,0,1,1.633,4.482,9.83,9.83,0,0,0,4.915,7.2,13.676,13.676,0,0,0,4.849,1.5c1.933.25,3.882.367,5.832.567a6.514,6.514,0,0,1,4.732,2.616c.7.916,1.283,1.916,1.949,2.849.883,1.283,1.7,2.616,2.7,3.8,2.116,2.516,5.015,3.749,8.081,4.649,3.3.966,6.715,1,10.114,1.233,2.5.167,4.982.483,7.464.75a4.73,4.73,0,0,1,3.132,1.65,19.694,19.694,0,0,1,1.8,2.566c.55.9.966,1.866,1.5,2.783a6.165,6.165,0,0,0,2.982,2.649,17.427,17.427,0,0,0,8.4,1.15c1.8-.15,3.582-.433,5.365-.65,4-.467,7.7.15,10.814,2.916a7.373,7.373,0,0,0,1.083.816,51.382,51.382,0,0,0,5.365,3.016,42.428,42.428,0,0,0,14.929,3.066,47.463,47.463,0,0,0,12.83-1.233,27.708,27.708,0,0,0,9.331-3.666c1.5-.983,2.949-2.066,4.432-3.1a10.209,10.209,0,0,1,4.415-1.766,26.914,26.914,0,0,1,7.931.3,22.651,22.651,0,0,0,8.8-.2,7.428,7.428,0,0,0,5.315-4.016c.383-.816.8-1.616,1.216-2.416a6.86,6.86,0,0,1,5.865-4.082c2.249-.15,4.482-.417,6.715-.667a43.08,43.08,0,0,0,7.415-1.116c4.365-1.25,7.931-3.532,10.2-7.6.5-.916,1.1-1.783,1.683-2.666a7.391,7.391,0,0,1,5.882-3.682c.75-.05,1.5-.167,2.249-.2a21.544,21.544,0,0,0,6.5-1.116,9.074,9.074,0,0,0,5.882-5.8,22.265,22.265,0,0,0,.733-2.749c.666-3.449,2.5-5.832,6.015-6.765.783-.2,1.533-.467,2.3-.683,1.05-.3,2.149-.516,3.182-.9,4.949-1.8,8.181-5.115,9.047-10.447.1-.6.183-1.183.283-1.783a5.239,5.239,0,0,1,1.233-2.533,10.758,10.758,0,0,1,3.9-2.733c1.683-.766,3.432-1.4,5.1-2.216,3.582-1.766,5.865-4.432,4.965-9.214-.25-1.383-.517-2.766-.666-4.149a5.854,5.854,0,0,1,2.249-5.448c.966-.8,2-1.5,2.982-2.283a43.935,43.935,0,0,0,3.582-2.966,7.641,7.641,0,0,0,2.049-7.864c-.233-.866-.467-1.749-.716-2.616a4.163,4.163,0,0,1,.9-3.932,13.077,13.077,0,0,1,1.616-1.566,10.425,10.425,0,0,0,3.332-10.747c-.283-1.166-.533-2.349-.75-3.532a4.553,4.553,0,0,1,.533-3.049,8.288,8.288,0,0,1,3.216-3.082c1.016-.633,2.049-1.266,3.049-1.933a5.537,5.537,0,0,0,2.1-2.483,7,7,0,0,0,.083-5.7,21.331,21.331,0,0,0-2.982-4.849,8.225,8.225,0,0,1-1.066-8.9c.167-.367.35-.716.533-1.083a20.865,20.865,0,0,0,2.3-7.581,13.756,13.756,0,0,1,.283-1.566h1.7l14.962-.05c.283,0,.566,0,.833-.017a182.419,182.419,0,0,1-3.716,35.973,174.1,174.1,0,0,1-10.5,34.157Z" fill="#468354"/>
      </g>
    </g>
  </g>
</svg>
