<svg xmlns="http://www.w3.org/2000/svg" width="40.017" height="41.537" viewBox="0 0 40.017 41.537">
  <g id="Gruppe_7233" data-name="Gruppe 7233" transform="translate(2490 -8525)">
    <g id="tlo" transform="translate(-2489 8526)">
      <path id="Pfad_23" data-name="Pfad 23" d="M19.77,39.537a18.246,18.246,0,0,0,.315-36.489L23.132,0H19.77a19.769,19.769,0,1,0,0,39.537ZM19.069,22a3.661,3.661,0,0,1-.743-2.163,4,4,0,0,1,.027-.466A2.045,2.045,0,0,1,18.4,19.1c.035-.152.07-.3.119-.452a3.915,3.915,0,0,1,.169-.42,2.9,2.9,0,0,1,.187-.343c.084-.132.174-.26.27-.383a3.138,3.138,0,0,1,.26-.292,3.349,3.349,0,0,1,.3-.271c.119-.093.244-.18.372-.262a3.376,3.376,0,0,1,.566-.287,3.518,3.518,0,0,1,0,6.818A3.682,3.682,0,0,1,19.069,22Zm.57-5.985a3.762,3.762,0,0,0-1.619.43l-4.8-8.384a13.334,13.334,0,0,1,6.421-1.71Zm-1.849.561a3.805,3.805,0,0,0-1.2,1.183L8.25,12.9A13.518,13.518,0,0,1,12.99,8.2Zm-1.336,1.409A3.758,3.758,0,0,0,16,19.637H6.354a13.327,13.327,0,0,1,1.763-6.512Zm-.46,1.912a3.754,3.754,0,0,0,.438,1.663l-8.314,4.85A13.332,13.332,0,0,1,6.355,19.9Zm.569,1.891A3.817,3.817,0,0,0,17.767,23L12.99,31.342a13.515,13.515,0,0,1-4.74-4.7Zm1.432,1.341a3.756,3.756,0,0,0,1.645.443v9.609a13.337,13.337,0,0,1-6.419-1.71Zm1.906.443a3.752,3.752,0,0,0,1.645-.44l4.863,8.492A14.852,14.852,0,0,1,19.9,33.184ZM21.773,23A3.815,3.815,0,0,0,22.982,21.8l8.9,5.189a15.05,15.05,0,0,1-5.238,4.524Zm1.34-1.437a3.759,3.759,0,0,0,.44-1.667H34.618a14.851,14.851,0,0,1-2.585,6.869Zm.436-1.93a3.756,3.756,0,0,0-.46-1.654L33.34,12a14.855,14.855,0,0,1,1.367,6.242q0,.7-.064,1.391Zm-.594-1.88a3.805,3.805,0,0,0-1.207-1.183l6.2-10.825a15.043,15.043,0,0,1,5.282,6.018ZM21.52,16.444a3.762,3.762,0,0,0-1.621-.426V6.352h3.233L20.091,3.311a14.845,14.845,0,0,1,7.635,2.3ZM19.77.263H22.5L19.583,3.176,22.5,6.089H19.77a13.679,13.679,0,1,0,0,27.359A15.2,15.2,0,0,0,26.469,4.6a17.984,17.984,0,0,1-6.7,34.674,19.506,19.506,0,1,1,0-39.012Z" fill="none" stroke="#ff8000" stroke-linecap="round" stroke-linejoin="round" stroke-width="2"/>
      <path id="Pfad_24" data-name="Pfad 24" d="M416.13,79.5a1.349,1.349,0,1,0-.955-.394A1.35,1.35,0,0,0,416.13,79.5Z" transform="translate(-399.403 -74.805)" fill="#ff8000"/>
    </g>
    <circle id="Ellipse_45" data-name="Ellipse 45" cx="4" cy="4" r="4" transform="translate(-2473 8542)" fill="#ff8000"/>
  </g>
</svg>
