<?xml version="1.0" encoding="utf-8"?>
<!-- Generator: Adobe Illustrator 27.0.0, SVG Export Plug-In . SVG Version: 6.00 Build 0)  -->
<svg version="1.1" id="Ebene_1" xmlns="http://www.w3.org/2000/svg" xmlns:xlink="http://www.w3.org/1999/xlink" x="0px" y="0px"
	 viewBox="0 0 49.2 51.1" style="enable-background:new 0 0 49.2 51.1;" xml:space="preserve">
<style type="text/css">
	.st0{fill:none;}
	.st1{fill:#FFFFFF;stroke:#FFFFFF;stroke-width:1.5;stroke-linejoin:round;}
</style>
<path id="Pfad_25" class="st0" d="M24.5,50.4c12.6,0,22.9-10.2,22.9-22.9C47.5,15,37.5,4.8,25,4.6l3.8-3.8h-4.2
	C10.8,0.8-0.2,11.9-0.2,25.6C-0.2,39.2,10.8,50.4,24.5,50.4z"/>
<path id="Pfad_23" class="st1" d="M25.5,50.3c12.6,0,22.9-10.2,22.9-22.9c0-12.5-10-22.7-22.5-22.9l3.8-3.8h-4.2
	C11.9,0.8,0.8,11.9,0.8,25.5S11.9,50.3,25.5,50.3z M24.7,28.3c-0.7-1-1-2.2-0.9-3.4c0.2-1.6,1.3-2.9,2.7-3.6c2.4,0.6,3.8,3,3.2,5.4
	c-0.4,1.6-1.6,2.8-3.2,3.2c-0.1,0-0.5-0.3-0.6-0.4C25.4,29.2,25,28.8,24.7,28.3z M25.4,20.9c-0.7,0-1.4,0.2-2,0.5l-6-10.5
	c2.4-1.4,5.2-2.1,8-2.1V20.9z M23,21.5c-0.6,0.4-1.1,0.9-1.5,1.5L11,16.9c1.5-2.4,3.5-4.5,5.9-5.9L23,21.5z M21.4,23.4
	c-0.3,0.6-0.5,1.3-0.6,2.1h-12c0-2.9,0.8-5.7,2.2-8.2L21.4,23.4z M20.9,25.8c0,0.7,0.2,1.4,0.5,2.1L11,34c-1.4-2.6-2.2-5.4-2.2-8.2
	H20.9z M21.5,28c0.4,0.6,0.9,1.1,1.5,1.5L17,40c-2.4-1.4-4.5-3.5-5.9-5.9L21.5,28z M23.4,29.8c0.6,0.3,1.3,0.5,2.1,0.6v12
	c-2.8,0-5.6-0.8-8.1-2.1L23.4,29.8z M25.8,30.4c0.7,0,1.4-0.2,2.1-0.6L34,40.3c-2.5,1.3-5.3,1.9-8.2,2V30.4z M28,29.6
	c0.6-0.4,1.1-0.9,1.5-1.5l11.2,6.4c-1.7,2.4-4,4.3-6.6,5.7L28,29.6z M29.8,27.9c0.3-0.6,0.5-1.4,0.6-2.1h13.9
	c-0.3,3.1-1.5,6.1-3.2,8.6L29.8,27.9z M30.2,25.4c0-0.7-0.2-1.4-0.6-2.1l12.9-7.5c1.1,2.5,1.7,5.1,1.7,7.8c0,0.6,0,1.2-0.1,1.7
	L30.2,25.4z M29.5,23c-0.4-0.6-0.9-1.1-1.5-1.5l7.7-13.6c2.8,1.9,5.1,4.5,6.6,7.5L29.5,23z M27.8,21.4c-0.6-0.3-1.3-0.5-2-0.5V8.8h4
	L26,4.9C29.4,5,32.7,6,35.6,7.8L27.8,21.4z M25.5,1h3.4l-3.6,3.7l3.7,3.7h-3.4c-9.5,0-17.2,7.7-17.2,17.2s7.7,17.2,17.2,17.2
	c10.5,0,19.1-8.5,19.1-19.1c0-7.3-4.1-13.9-10.7-17.1C45.7,11.3,51.2,24.5,46.5,36c-3.5,8.4-11.8,14-21,14C12,50,1,39,1,25.5
	S12.1,1,25.5,1L25.5,1z"/>
<path id="Pfad_24" class="st1" d="M20.8,5.3c0.2,0,0.4-0.2,0.4-0.4S21,4.6,20.8,4.6s-0.4,0.2-0.4,0.4c0,0.1,0,0.2,0.1,0.3
	C20.5,5.2,20.6,5.3,20.8,5.3z"/>
</svg>
