<svg xmlns="http://www.w3.org/2000/svg" width="48.673" height="50.58" viewBox="0 0 48.673 50.58">
  <g id="Gruppe_213" data-name="Gruppe 213" transform="translate(-868.5 -136.5)">
    <path id="Pfad_25" data-name="Pfad 25" d="M24.791,49.58a22.88,22.88,0,0,0,.395-45.757L29.007,0H24.791a24.79,24.79,0,1,0,0,49.58Z" transform="translate(869 137)" fill="#0a1a16"/>
    <g id="tlo" transform="translate(869 137)">
      <path id="Pfad_23" data-name="Pfad 23" d="M24.791,49.58a22.88,22.88,0,0,0,.395-45.757L29.007,0H24.791a24.79,24.79,0,1,0,0,49.58Zm-.878-21.989a4.59,4.59,0,0,1-.932-2.712,5.015,5.015,0,0,1,.034-.584,2.564,2.564,0,0,1,.056-.348c.044-.19.088-.381.149-.567a4.911,4.911,0,0,1,.212-.526,3.632,3.632,0,0,1,.234-.429c.1-.165.218-.326.339-.481a3.935,3.935,0,0,1,.326-.366,4.2,4.2,0,0,1,.381-.34c.149-.117.306-.226.466-.329a4.234,4.234,0,0,1,.71-.359,4.412,4.412,0,0,1,0,8.55,4.618,4.618,0,0,1-1.975-1.508Zm.715-7.5a4.717,4.717,0,0,0-2.03.539L16.576,10.112a16.721,16.721,0,0,1,8.052-2.144Zm-2.319.7A4.772,4.772,0,0,0,20.8,22.272l-10.456-6.1a16.951,16.951,0,0,1,5.945-5.9Zm-1.676,1.767a4.713,4.713,0,0,0-.573,2.069H7.968a16.712,16.712,0,0,1,2.211-8.166Zm-.577,2.4A4.707,4.707,0,0,0,20.6,27.04L10.179,33.121a16.718,16.718,0,0,1-2.21-8.167Zm.713,2.371a4.786,4.786,0,0,0,1.51,1.516L16.289,39.3a16.947,16.947,0,0,1-5.944-5.9Zm1.8,1.682a4.71,4.71,0,0,0,2.063.555v12.05a16.725,16.725,0,0,1-8.05-2.144Zm2.39.556a4.706,4.706,0,0,0,2.063-.551l6.1,10.649a18.624,18.624,0,0,1-8.16,1.952Zm2.349-.715a4.785,4.785,0,0,0,1.516-1.516l11.158,6.507a18.873,18.873,0,0,1-6.568,5.673Zm1.681-1.8a4.714,4.714,0,0,0,.552-2.09H43.411a18.623,18.623,0,0,1-3.242,8.613Zm.546-2.42a4.71,4.71,0,0,0-.577-2.074l12.855-7.5a18.628,18.628,0,0,1,1.715,7.828q0,.882-.08,1.744Zm-.745-2.358a4.772,4.772,0,0,0-1.513-1.484L35.046,7.21a18.863,18.863,0,0,1,6.623,7.547Zm-1.8-1.647a4.717,4.717,0,0,0-2.032-.535V7.966h4.054L25.194,4.152a18.615,18.615,0,0,1,9.574,2.88ZM24.791.33h3.42L24.558,3.983l3.653,3.653h-3.42a17.154,17.154,0,1,0,0,34.308,19.062,19.062,0,0,0,8.4-36.175,22.552,22.552,0,0,1-8.4,43.481,24.46,24.46,0,1,1,0-48.921Z" fill="#ff8000" stroke="#ff8000" stroke-width="1"/>
      <path id="Pfad_24" data-name="Pfad 24" d="M415.161,77.563a.381.381,0,1,0-.27-.111A.381.381,0,0,0,415.161,77.563Z" transform="translate(-394.185 -72.987)" fill="#ff8000" stroke="#ff8000" stroke-width="1"/>
    </g>
  </g>
</svg>
