<svg xmlns="http://www.w3.org/2000/svg" width="204.049" height="380" viewBox="0 0 204.049 380">
  <g id="Gruppe_205" data-name="Gruppe 205" transform="translate(-623.759 -489)">
    <ellipse id="Ellipse_42" data-name="Ellipse 42" cx="101.717" cy="189.753" rx="101.717" ry="189.753" transform="translate(624.066 489)" fill="#0a1a16"/>
    <g id="Warstwa_2" data-name="Warstwa 2" transform="translate(623.759 489)">
      <g id="Warstwa_1" data-name="Warstwa 1" transform="translate(0 0)">
        <path id="Pfad_87" data-name="Pfad 87" d="M578.079,1970.639a7.433,7.433,0,0,1-.858-1.06,62.957,62.957,0,0,1-4.726-7.779,25.421,25.421,0,0,1-2.255-6.264c-.126-.646-.283-1.285-.446-1.922a5.071,5.071,0,0,0-.253-.632.819.819,0,0,0-1.206.154,4.706,4.706,0,0,0,.01.986,33.682,33.682,0,0,0,1.643,5.992,44.823,44.823,0,0,0,3.564,6.859,34.034,34.034,0,0,0,4.648,6.162,54.837,54.837,0,0,0,8.138,6.8,29.619,29.619,0,0,0,7.223,3.484c3.021,1.011,6.106,1.822,9.162,2.728a10.817,10.817,0,0,1,1.431.492,3.812,3.812,0,0,1,2.47,2.855,4.564,4.564,0,0,0,.68,1.517,3.586,3.586,0,0,0,4.082,1.588,3.539,3.539,0,0,0,2.188-1.769,9.568,9.568,0,0,0,.723-1.826,3.06,3.06,0,0,1,1.447-1.87,9.152,9.152,0,0,1,2.209-.978c3.115-.885,6.232-1.76,9.317-2.736a33.523,33.523,0,0,0,11.011-6.29,44.2,44.2,0,0,0,4.53-4.267,20.162,20.162,0,0,0,2.213-2.495,79.416,79.416,0,0,0,4.407-7.265,32.627,32.627,0,0,0,2.983-8.886,1.586,1.586,0,0,0-.063-1.174.719.719,0,0,0-.831-.221.835.835,0,0,0-.52.695c-.109.495-.211.991-.331,1.483-.229.933-.4,1.887-.717,2.791a37.741,37.741,0,0,1-1.963,4.6c-.713,1.4-1.553,2.725-2.381,4.057A29.884,29.884,0,0,1,641.4,1972a48.228,48.228,0,0,1-8.44,6.912,26.327,26.327,0,0,1-2.636,1.5,67.489,67.489,0,0,1-8.565,3.063,1.64,1.64,0,0,1-.353.024,1.36,1.36,0,0,1-.231-.1q-.18-.14-.346-.3a15.7,15.7,0,0,0-8.135-4.146,11.829,11.829,0,0,0-4.665.012,15.722,15.722,0,0,0-8.013,4.067c-.179.172-.379.321-.588.493a5.22,5.22,0,0,1-.758-.149c-2.233-.813-4.53-1.426-6.74-2.319a35.185,35.185,0,0,1-8.468-5.292A60.669,60.669,0,0,1,578.079,1970.639Zm27.14,10.507a12.669,12.669,0,0,1,11.537.613,8.208,8.208,0,0,1,2.831,2.2,5.137,5.137,0,0,1-2.056.694,8.2,8.2,0,0,0-2.979,1.456,4.292,4.292,0,0,0-1.763,2.575,3.261,3.261,0,0,1-.183.734,4.458,4.458,0,0,1-.685,1.167,1.918,1.918,0,0,1-3.049.024,2.755,2.755,0,0,1-.772-1.458c-.46-2.556-2.366-3.62-4.533-4.4a12.542,12.542,0,0,1-2.394-.767A12.294,12.294,0,0,1,605.22,1981.146Z" transform="translate(-508.29 -1734.19)" fill="#ff8000"/>
        <path id="Pfad_88" data-name="Pfad 88" d="M399.739,2832.7a7.8,7.8,0,0,1-2.893,4.171,24.107,24.107,0,0,1-2.2,1.345c-.656.379-1.347.7-1.994,1.094a5.979,5.979,0,0,0-1.782,1.63,3.473,3.473,0,0,0-.727,1.809,6.118,6.118,0,0,0,1.311,4.4,12.534,12.534,0,0,0,2.576,2.338,7.57,7.57,0,0,1,3.34,5.859c.029.349.075.7.113,1.047a.678.678,0,0,0,.192-.037.758.758,0,0,0,.233-.183c1.989-3.034,2.623-6.206,1.072-9.628-.147-.323-.294-.646-.409-.979a6.948,6.948,0,0,1-.331-4.019A13,13,0,0,1,399.2,2839c.351-.73.705-1.458,1.052-2.19a4.063,4.063,0,0,0,.167-2.959A6.7,6.7,0,0,0,399.739,2832.7Z" transform="translate(-346.177 -2518.584)" fill="#ff8000"/>
        <path id="Pfad_89" data-name="Pfad 89" d="M1337.761,2841.629c-.681-.435-1.4-.814-2.1-1.211-.573-.324-1.169-.609-1.72-.963a7.95,7.95,0,0,1-3.273-3.879c-.063-.168-.062-.4-.321-.437a1.047,1.047,0,0,0-.614.814,4.116,4.116,0,0,0,.1,2.821c.288.647.605,1.282.9,1.926.314.69.661,1.37.915,2.083a6.333,6.333,0,0,1,.3,3.574,10.979,10.979,0,0,1-.758,2.293,8.709,8.709,0,0,0-.846,3.958,10.521,10.521,0,0,0,1.9,5.672c.076.114.23.177.421.316.052-.462.092-.854.139-1.247a7.8,7.8,0,0,1,1.289-3.682,8.719,8.719,0,0,1,2.149-2.127,12.364,12.364,0,0,0,2.458-2.246,6.206,6.206,0,0,0,1.333-3.484,3.962,3.962,0,0,0-1.209-3.3A6.133,6.133,0,0,0,1337.761,2841.629Z" transform="translate(-1179.741 -2520.716)" fill="#ff8000"/>
        <path id="Pfad_90" data-name="Pfad 90" d="M1014.137,2948.118a5.571,5.571,0,0,1,2.547-2.9,9.128,9.128,0,0,0,.792-.545c-.6,0-1-.029-1.4.008-.451.041-.895.145-1.345.211a5.552,5.552,0,0,0-3.784,2.288c-.362.486-.732.968-1.12,1.435a5.219,5.219,0,0,1-3.052,1.847,9.576,9.576,0,0,1-3.763.1c-.694-.134-1.39-.273-2.094-.34a7.975,7.975,0,0,0-7.669,3.33,12.558,12.558,0,0,0-.8,1.287c-.044.079.052.236.1.423.516-.253.954-.506,1.421-.686,2.554-1,5.126-1.516,7.747-.206a8.252,8.252,0,0,0,.977.409,11.341,11.341,0,0,0,4.149.729,5.7,5.7,0,0,0,4.052-1.77,9.842,9.842,0,0,0,1.824-2.6C1013.21,2950.14,1013.7,2949.135,1014.137,2948.118Z" transform="translate(-881.604 -2616.397)" fill="#ff8000"/>
        <path id="Pfad_91" data-name="Pfad 91" d="M625.947,2955.3a20.879,20.879,0,0,0,3.991-1.418,3,3,0,0,1,1.761-.295,4.375,4.375,0,0,0,.758.032,9.84,9.84,0,0,1,4.525,1.084,1.831,1.831,0,0,0,1.318.368c-.338-.553-.571-1-.862-1.406a7.943,7.943,0,0,0-8.042-3.434c-.7.094-1.39.244-2.093.343a10.077,10.077,0,0,1-3.467-.139,5.274,5.274,0,0,1-3.16-1.944c-.441-.552-.873-1.114-1.309-1.671a5.1,5.1,0,0,0-2.745-1.8,7.377,7.377,0,0,0-3.382-.3,3.086,3.086,0,0,0,.483.379,5.773,5.773,0,0,1,2.822,3.232c.379.934.845,1.835,1.29,2.743a10.658,10.658,0,0,0,1.812,2.606,5.291,5.291,0,0,0,3.137,1.712A8.772,8.772,0,0,0,625.947,2955.3Z" transform="translate(-544.754 -2616.365)" fill="#ff8000"/>
        <path id="Pfad_92" data-name="Pfad 92" d="M1460.814,2703.394a6.857,6.857,0,0,0-2.979-1.055c-1.011-.1-2.022-.147-3.033-.207a1.176,1.176,0,0,0-1.083.36c.389.419.758.768,1.068,1.166a15.77,15.77,0,0,1,1.311,1.855,5.569,5.569,0,0,1,.758,3.357,12.627,12.627,0,0,1-1.552,5.039,14.983,14.983,0,0,0-1.5,3.641,5.319,5.319,0,0,0,.792,4.485c.072.109.233.159.406.272.11-.436.221-.823.306-1.216a11.177,11.177,0,0,1,3.033-5.513,18.7,18.7,0,0,1,1.672-1.546,9.716,9.716,0,0,0,2.879-4.213A5.46,5.46,0,0,0,1460.814,2703.394Z" transform="translate(-1293.469 -2404.511)" fill="#ff8000"/>
        <path id="Pfad_93" data-name="Pfad 93" d="M280.769,2714a10.468,10.468,0,0,1-1.163-2.956,8.212,8.212,0,0,1-.311-3.3,7.8,7.8,0,0,1,1.843-3.769c.4-.457.816-.895,1.3-1.418a2.226,2.226,0,0,0-.732-.277c-1.314.062-2.633.11-3.934.276a6.7,6.7,0,0,0-1.859.632,5.384,5.384,0,0,0-2.78,6.523,9.432,9.432,0,0,0,2.765,4.284,23.8,23.8,0,0,1,2,1.862,11.135,11.135,0,0,1,2.871,5.267c.1.43.22.852.335,1.293.157-.081.277-.1.327-.174a5.269,5.269,0,0,0,.847-4.608A15.291,15.291,0,0,0,280.769,2714Z" transform="translate(-238.376 -2404.654)" fill="#ff8000"/>
        <path id="Pfad_94" data-name="Pfad 94" d="M1136.345,2796.2c-.516.316-1.068.575-1.6.867-.931.506-1.878.995-2.78,1.547a7.667,7.667,0,0,0-2.516,2.591,5.29,5.29,0,0,0-.738,4.183c.41-.062.422-.43.571-.674a3.5,3.5,0,0,1,1.32-1.437,9.494,9.494,0,0,1,3.143-1.065c1.4-.144,2.8-.35,4.22-.369a9.13,9.13,0,0,0,2.974-.527,2.76,2.76,0,0,0,1.769-1.761,7.354,7.354,0,0,0,.379-3.436,11.363,11.363,0,0,0-3.52-6.726,2.34,2.34,0,0,0-1.2-.741,5.1,5.1,0,0,0,.053.6,16.293,16.293,0,0,1,.358,1.626A5.129,5.129,0,0,1,1136.345,2796.2Z" transform="translate(-1001.705 -2480.101)" fill="#ff8000"/>
        <path id="Pfad_95" data-name="Pfad 95" d="M563.339,2788.45a5.185,5.185,0,0,0-.612.379,11.083,11.083,0,0,0-3.675,5.632,7.8,7.8,0,0,0-.072,4.49,2.924,2.924,0,0,0,2.056,2.224,16,16,0,0,0,2.673.492c1.154.109,2.31.142,3.467.276a15.035,15.035,0,0,1,3.084.717,4.043,4.043,0,0,1,2.285,1.881c.145.252.16.614.543.672a4.9,4.9,0,0,0-.714-4.17,7.207,7.207,0,0,0-2.51-2.594c-1.039-.625-2.13-1.163-3.184-1.762a14.32,14.32,0,0,1-1.924-1.2,4.411,4.411,0,0,1-1.643-2.811,8.082,8.082,0,0,1,.238-3.444C563.421,2788.982,563.557,2788.75,563.339,2788.45Z" transform="translate(-495.887 -2479.927)" fill="#ff8000"/>
        <path id="Pfad_96" data-name="Pfad 96" d="M942.975,2847.921q-1.39-.379-2.78-.736a4.426,4.426,0,0,0-3.857.846c-.284.209-.543.452-.82.675a9.264,9.264,0,0,1-4.4,1.921c-.885.146-1.794.225-2.762.343a8.087,8.087,0,0,0,2.822,1.175,4.2,4.2,0,0,0,2.247.066c1.026-.264,2.065-.5,3.065-.844a4.084,4.084,0,0,1,2.957.075q1.339.53,2.654,1.122a5.046,5.046,0,0,0,2.046.506,5.3,5.3,0,0,0,3.735-.928,6.277,6.277,0,0,0,1.625-1.973,36.735,36.735,0,0,0,2.037-4.894,6.436,6.436,0,0,1,2.072-3.286,1.514,1.514,0,0,0,.253-.348c-.063-.036-.111-.089-.152-.083a5.7,5.7,0,0,0-4.01,2.462c-.505.7-.971,1.423-1.5,2.1A4.645,4.645,0,0,1,942.975,2847.921Z" transform="translate(-824.713 -2526.323)" fill="#ff8000"/>
        <path id="Pfad_97" data-name="Pfad 97" d="M678.124,2846.8c-.48-.652-.937-1.321-1.409-1.978a5.325,5.325,0,0,0-4.225-2.44,6.99,6.99,0,0,1,2.294,3.517,40.546,40.546,0,0,0,1.946,4.767,6.945,6.945,0,0,0,1.11,1.62,3.949,3.949,0,0,0,2.149,1.348,6.662,6.662,0,0,0,4.441-.436,23.419,23.419,0,0,1,2.372-1,4.238,4.238,0,0,1,3.1-.093,23.821,23.821,0,0,0,3.066.834,6.7,6.7,0,0,0,4.722-1.123c.025-.019.02-.08.042-.181-.306-.021-.6-.038-.9-.062a12.072,12.072,0,0,1-3.258-.645,9.892,9.892,0,0,1-3.246-1.913,4.558,4.558,0,0,0-4.513-1.037q-1.386.38-2.781.759a4.19,4.19,0,0,1-2.1-.015A4.74,4.74,0,0,1,678.124,2846.8Z" transform="translate(-597.396 -2527.042)" fill="#ff8000"/>
        <path id="Pfad_98" data-name="Pfad 98" d="M812.62,3062.9a10.621,10.621,0,0,0-1.06-.062,5.783,5.783,0,0,0-4.368,1.76,4.532,4.532,0,0,1-.436.424,13,13,0,0,1-1.413,1.137,6.515,6.515,0,0,1-7.294,0,8.886,8.886,0,0,1-1.735-1.46,5.735,5.735,0,0,0-4.786-1.834,7.734,7.734,0,0,1-4.133-.622.229.229,0,0,0-.115,0,.576.576,0,0,0,.067.253,4.867,4.867,0,0,0,3.185,1.864,4.977,4.977,0,0,1,3.774,2.514c.157.253.335.506.5.758a7.665,7.665,0,0,0,2.62,2.471,8.249,8.249,0,0,0,3.445,1.068,8.352,8.352,0,0,0,4.424-.717,7.836,7.836,0,0,0,3.55-3.2,8.432,8.432,0,0,1,.773-1.131,5.26,5.26,0,0,1,3.395-1.812,3.9,3.9,0,0,0,3.083-2.066,1.943,1.943,0,0,0-.522.138A5.26,5.26,0,0,1,812.62,3062.9Z" transform="translate(-699.576 -2719.108)" fill="#ff8000"/>
        <path id="Pfad_99" data-name="Pfad 99" d="M787,3062.049h.035a.168.168,0,0,0,0-.029Z" transform="translate(-697.836 -2718.921)" fill="#ff8000"/>
        <path id="Pfad_100" data-name="Pfad 100" d="M1015.294,3061.96h0l.043-.04a.384.384,0,0,1-.075.01h0l-.023.042Z" transform="translate(-900.221 -2718.834)" fill="#ff8000"/>
        <path id="Pfad_101" data-name="Pfad 101" d="M1160.263,3021.086a3.566,3.566,0,0,0-1.62,1.083,16.918,16.918,0,0,0-1.235,1.727c-.379.6-.669,1.249-1.011,1.869a13.076,13.076,0,0,1-5.642,5.763c-.953.469-1.9.951-2.832,1.459-.758.412-1.5.852-2.22,1.313a6.8,6.8,0,0,0-2.013,2.253c.462-.127.743-.194,1.011-.288a17.78,17.78,0,0,1,3.665-.955c1.555-.185,3.11-.36,4.669-.506,3.859-.366,5.814-2.232,6.644-5.242a21.179,21.179,0,0,0,.59-2.816,11.107,11.107,0,0,1,2.079-5.618c.037-.047-.026-.171-.057-.334A3.75,3.75,0,0,0,1160.263,3021.086Z" transform="translate(-1015.45 -2682.865)" fill="#ff8000"/>
        <path id="Pfad_102" data-name="Pfad 102" d="M527.481,3034.368c-.766-.489-1.555-.947-2.353-1.382-1.111-.605-2.248-1.161-3.359-1.769a10.022,10.022,0,0,1-2.5-1.953,16.184,16.184,0,0,1-2.693-3.837,17.193,17.193,0,0,0-1.734-2.848,4.5,4.5,0,0,0-3.689-1.77c-.126,0-.253.112-.4.184.4.683.821,1.313,1.154,1.984a11.876,11.876,0,0,1,.978,3.8,17.5,17.5,0,0,0,.838,3.539,6.136,6.136,0,0,0,2.921,3.546,8.489,8.489,0,0,0,3.021.957c.953.114,1.91.207,2.868.253a21.1,21.1,0,0,1,5.918,1.236c.274.1.559.159,1.011.287A6.318,6.318,0,0,0,527.481,3034.368Z" transform="translate(-453.482 -2682.92)" fill="#ff8000"/>
        <path id="Pfad_103" data-name="Pfad 103" d="M960.986,3090.093a17.093,17.093,0,0,0-1.921,1.478,6.1,6.1,0,0,1-4.521,1.39l-.758-.066c-.805-.07-1.609-.165-2.415-.2a6.132,6.132,0,0,0-5.02,2.022c-.409.446-.777.93-1.165,1.4a6.544,6.544,0,0,1-3.905,2.687,2.939,2.939,0,0,0,2.595.23,15.247,15.247,0,0,0,2.726-1.309,5.75,5.75,0,0,1,4.528-.632,19.858,19.858,0,0,0,2.825.528,6.2,6.2,0,0,0,4.24-.759,5.645,5.645,0,0,0,1.709-1.69c.655-1.023,1.344-2.03,1.9-3.107a5.232,5.232,0,0,1,3.067-2.541c.172-.064.335-.15.813-.364A5.957,5.957,0,0,0,960.986,3090.093Z" transform="translate(-836.114 -2742.497)" fill="#ff8000"/>
        <path id="Pfad_104" data-name="Pfad 104" d="M692.177,3098.78a2.7,2.7,0,0,0,2.343-.141,13.619,13.619,0,0,1-2.085-1.13,15.321,15.321,0,0,1-1.783-1.853c-.408-.448-.758-.948-1.185-1.379a6.111,6.111,0,0,0-4.642-1.862,23.2,23.2,0,0,0-2.716.228,6.608,6.608,0,0,1-5.615-1.669,8.628,8.628,0,0,0-1.566-1.192,6,6,0,0,0-4.025-1.011c-.106.018-.2.126-.321.2a1.163,1.163,0,0,0,.179.161,2.5,2.5,0,0,0,.281.1,5,5,0,0,1,3.17,2.63,10.168,10.168,0,0,0,.686,1.18c.487.768.94,1.564,1.492,2.283a4.992,4.992,0,0,0,3.593,2.031,7.575,7.575,0,0,0,2.415-.079c.983-.224,1.988-.35,2.976-.556a5.149,5.149,0,0,1,3.393.424c.408.2.8.432,1.212.633C690.7,3098.123,691.43,3098.475,692.177,3098.78Z" transform="translate(-595.636 -2742.235)" fill="#ff8000"/>
        <path id="Pfad_105" data-name="Pfad 105" d="M834.774,3208.451c-.6-.048-1.207-.117-1.809-.187a27.714,27.714,0,0,0-3.316-.371c-1.258.006-2.515.236-3.773.365-.653.068-1.305.149-1.96.195a5.2,5.2,0,0,1-3.9-1.372c-.292-.253-.6-.486-1.053-.843a5.464,5.464,0,0,0,.075.915,4.805,4.805,0,0,0,2.641,3.16,24.741,24.741,0,0,1,4.263,2.618,9.368,9.368,0,0,0,1.419.876,4.294,4.294,0,0,0,4.078.009,10.657,10.657,0,0,0,1.547-.958,25.1,25.1,0,0,1,4-2.468,6.794,6.794,0,0,0,1.278-.809,4.053,4.053,0,0,0,1.517-3.336c-.426.365-.7.587-.958.821A5.193,5.193,0,0,1,834.774,3208.451Z" transform="translate(-727.253 -2844.915)" fill="#ff8000"/>
        <path id="Pfad_106" data-name="Pfad 106" d="M1012.935,3193.312c-.253.166-.505.327-.749.506a10.68,10.68,0,0,1-4.624,1.749c-.839.159-1.7.2-2.553.294a8.854,8.854,0,0,0-4.991,2.317,17.585,17.585,0,0,0-3.9,5.445c.705-.347,1.1-.539,1.492-.735a14.335,14.335,0,0,1,4.875-1.547c1.1-.118,2.214-.2,3.311-.364,3.057-.466,5.388-1.93,6.54-4.928.289-.752.523-1.527.758-2.3a1.243,1.243,0,0,0-.019-.425C1013.013,3193.321,1012.961,3193.3,1012.935,3193.312Z" transform="translate(-884.314 -2833.616)" fill="#ff8000"/>
        <path id="Pfad_107" data-name="Pfad 107" d="M685.016,3196.238a8.543,8.543,0,0,0-4.424-2.157c-.944-.158-1.9-.208-2.855-.326a8.606,8.606,0,0,1-1.184-.228,9.328,9.328,0,0,1-4.5-2.318,5.273,5.273,0,0,0,0,.73,16.012,16.012,0,0,0,1.285,3.389,6.625,6.625,0,0,0,1.517,1.867,8.48,8.48,0,0,0,4.666,1.969c1.1.146,2.212.209,3.31.37a10.993,10.993,0,0,1,3.2.853c.773.37,1.548.735,2.322,1.105.178.085.355.183.505-.051A15.425,15.425,0,0,0,685.016,3196.238Z" transform="translate(-596.604 -2831.783)" fill="#ff8000"/>
        <path id="Pfad_108" data-name="Pfad 108" d="M394.569,2711.492a1.979,1.979,0,0,0-.528-.048,5.1,5.1,0,0,0-4.116,4.5,8.857,8.857,0,0,0,.159,3.465c.284,1.282.533,2.575.815,3.857a3.169,3.169,0,0,1,.018,1.5c-.075.292-.076.6-.126.9-.051.333-.115.666-.193,1.117a13.235,13.235,0,0,0,3.328-2.288,5.939,5.939,0,0,0,1.312-1.844,3.454,3.454,0,0,0,.058-3.079,11.988,11.988,0,0,0-.78-1.473,8.955,8.955,0,0,1-1.256-3.63c.159-.46.311-1,.531-1.5S394.291,2712.012,394.569,2711.492Z" transform="translate(-345.786 -2412.646)" fill="#ff8000"/>
        <path id="Pfad_109" data-name="Pfad 109" d="M1368.367,2711.315c-.206-.052-.481-.154-.661.207a6.5,6.5,0,0,1,1.264,3,8.74,8.74,0,0,1-1.312,3.55c-.268.487-.533.977-.758,1.486a2.929,2.929,0,0,0-.157,2.224,7.093,7.093,0,0,0,1.063,1.994,11.233,11.233,0,0,0,3.707,2.805c.062-.087.127-.132.115-.169a3.777,3.777,0,0,0-.091-.438,8.522,8.522,0,0,1,.033-4.2c.2-.834.379-1.675.59-2.51a9.392,9.392,0,0,0,.2-3.16A5.246,5.246,0,0,0,1368.367,2711.315Z" transform="translate(-1212.228 -2412.495)" fill="#ff8000"/>
        <path id="Pfad_110" data-name="Pfad 110" d="M500.878,2740.708a2.924,2.924,0,0,0-.048.487,6.236,6.236,0,0,0,2.236-3.358,4.364,4.364,0,0,0-.126-3.255,1.814,1.814,0,0,1-.1-.285,5.621,5.621,0,0,1,1.838-6.017,19,19,0,0,1,1.716-1.244,4.278,4.278,0,0,0,2.013-3.064.976.976,0,0,0-.092-.353.865.865,0,0,0-.2.076c-.191.166-.387.327-.56.506a7.292,7.292,0,0,1-4.053,2.21,8.636,8.636,0,0,0-2.544.949,4.457,4.457,0,0,0-2.114,5.561,21.008,21.008,0,0,0,1.39,2.856A5.553,5.553,0,0,1,500.878,2740.708Z" transform="translate(-442.357 -2423.29)" fill="#ff8000"/>
        <path id="Pfad_111" data-name="Pfad 111" d="M1233.332,2725.733a10.355,10.355,0,0,0-2.841-1.011,6.849,6.849,0,0,1-3.429-1.825c-.322-.312-.655-.616-1.212-1.138a4.184,4.184,0,0,0,1.819,3.479q.441.292.868.609c.4.3.815.6,1.2.922a5.326,5.326,0,0,1,1.915,4.57,6.7,6.7,0,0,1-.441,2.065,3.917,3.917,0,0,0-.063,2.528,6.85,6.85,0,0,0,1.924,3.372,1.4,1.4,0,0,0,.423.142c-.064-.235-.092-.379-.14-.505a4.779,4.779,0,0,1,.21-3.684c.2-.461.437-.908.655-1.361.413-.864.872-1.711,1.225-2.6A4.424,4.424,0,0,0,1233.332,2725.733Z" transform="translate(-1087.694 -2421.665)" fill="#ff8000"/>
        <path id="Pfad_112" data-name="Pfad 112" d="M823.507,2968.258c.662.252,1.35.423,2.022.632a7.39,7.39,0,0,1,2.6,1.211,5.542,5.542,0,0,0,3.059,1.264,5.1,5.1,0,0,0,2.768-1.082,8.355,8.355,0,0,1,2.985-1.439c.632-.19,1.264-.355,1.882-.585a4.267,4.267,0,0,0,2.543-2.528c-.411.23-.6.313-.758.429a5.533,5.533,0,0,1-4.757.868c-.44-.114-.885-.207-1.318-.345a9.767,9.767,0,0,0-5.23-.355c-.639.147-1.275.31-1.9.5a6.247,6.247,0,0,1-4.02.126,13.585,13.585,0,0,1-1.372-.614c-.293-.147-.521-.439-.923-.431A3.96,3.96,0,0,0,823.507,2968.258Z" transform="translate(-729.105 -2634.802)" fill="#ff8000"/>
        <path id="Pfad_113" data-name="Pfad 113" d="M1188.426,2923.984a11.661,11.661,0,0,1,3.143-1.5,11.178,11.178,0,0,0,7.068-6.013,7.487,7.487,0,0,0,.926-4.837,1.281,1.281,0,0,0-.193-.356c-.115.1-.222.145-.253.221a10.309,10.309,0,0,1-5.518,5.573c-.909.438-1.769.986-2.641,1.487a6.213,6.213,0,0,0-2.14,2.116,15.372,15.372,0,0,0-1.683,3.392,4.948,4.948,0,0,0-.528,1.649c.225-.253.443-.505.684-.737A8.5,8.5,0,0,1,1188.426,2923.984Z" transform="translate(-1053.112 -2587.233)" fill="#ff8000"/>
        <path id="Pfad_114" data-name="Pfad 114" d="M525.726,2925.377a20.49,20.49,0,0,0-2.034-4.558,7.138,7.138,0,0,0-2.425-2.461,26.132,26.132,0,0,0-2.781-1.543,8,8,0,0,1-1.453-.811,9.81,9.81,0,0,1-3.809-4.618c-.033-.094-.2-.139-.361-.245a5.743,5.743,0,0,0-.027,2.781,11.643,11.643,0,0,0,5.964,7.677,12.2,12.2,0,0,0,1.831.718,9.5,9.5,0,0,1,5.011,3.234.271.271,0,0,0,.087.07A.672.672,0,0,0,525.726,2925.377Z" transform="translate(-455.001 -2587.111)" fill="#ff8000"/>
        <path id="Pfad_115" data-name="Pfad 115" d="M641.164,2712.315a4.19,4.19,0,0,1-3.774,2.11c-.505.028-1.011,0-1.517.059a2.851,2.851,0,0,0-1.158.313,3.715,3.715,0,0,0-1.868,2.956,2.151,2.151,0,0,0,.95,2.088,8.179,8.179,0,0,0,2.907,1.252,15.916,15.916,0,0,1,1.622.379c1.686.59,3.318,1.276,4.132,3.187a5.013,5.013,0,0,0-.351-3.033,2.023,2.023,0,0,0-1.3-1.39c-.615-.221-1.255-.372-1.883-.556q-.586-.146-1.155-.35a1.44,1.44,0,0,1-1.011-1.373,1.4,1.4,0,0,1,.94-1.417,15.6,15.6,0,0,1,1.577-.521c.289-.082.6-.082.892-.159a1.535,1.535,0,0,0,1.244-1.361c.039-.3.1-.6.107-.9a2.069,2.069,0,0,1,1.03-1.752,1.817,1.817,0,0,0,.379-.253c.1-.11.37-.118.27-.434A2.574,2.574,0,0,0,641.164,2712.315Z" transform="translate(-561.534 -2412.405)" fill="#ff8000"/>
        <path id="Pfad_116" data-name="Pfad 116" d="M1092.7,2715.335a4.717,4.717,0,0,1-2.938-1.059,3.992,3.992,0,0,1-.838-1.054,2.1,2.1,0,0,0-2.166-1.012c.288.2.531.379.785.543a2.083,2.083,0,0,1,1.027,1.753c.007.253.055.506.078.759a1.647,1.647,0,0,0,1.419,1.552c.245.056.505.047.747.116a15.691,15.691,0,0,1,1.577.521,1.4,1.4,0,0,1,.94,1.417,1.448,1.448,0,0,1-1.011,1.371,11.842,11.842,0,0,1-1.155.35c-.632.184-1.264.342-1.883.558a1.7,1.7,0,0,0-1.039.842,5.674,5.674,0,0,0-.631,3.665c.79-1.952,2.382-2.617,4-3.226a14.2,14.2,0,0,1,1.47-.365c.539-.14,1.079-.272,1.6-.453a5.345,5.345,0,0,0,1.939-1.16,1.914,1.914,0,0,0,.506-.736,3.53,3.53,0,0,0-2.625-4.275A13.89,13.89,0,0,0,1092.7,2715.335Z" transform="translate(-964.321 -2413.314)" fill="#ff8000"/>
        <path id="Pfad_117" data-name="Pfad 117" d="M823.81,2781.19a3.3,3.3,0,0,0,1.558,2.179,10.036,10.036,0,0,1,3.059,3.325,6.979,6.979,0,0,0,3.474,2.825,4.1,4.1,0,0,0,3.254.054,6.989,6.989,0,0,0,3.539-2.737,12.077,12.077,0,0,1,.657-1.023,10.2,10.2,0,0,1,2.36-2.342,3.5,3.5,0,0,0,1.695-2.263,6.338,6.338,0,0,1-2.491,1.643,5.876,5.876,0,0,0-2.487,1.681,7.9,7.9,0,0,1-3.766,2.163,3.206,3.206,0,0,1-2.085,0,7.964,7.964,0,0,1-3.771-2.149,5.887,5.887,0,0,0-2.482-1.686A6.2,6.2,0,0,1,823.81,2781.19Z" transform="translate(-731.49 -2473.585)" fill="#ff8000"/>
        <path id="Pfad_118" data-name="Pfad 118" d="M977.9,2796.476a7.418,7.418,0,0,0,3.347-.956,7.619,7.619,0,0,1,2.745-.789,9.036,9.036,0,0,0,1.635-.282,3.163,3.163,0,0,0,2.226-1.882,3.789,3.789,0,0,0,.289-1.624,16.079,16.079,0,0,1,.21-3.61c.01-.049-.088-.126-.138-.183-.083.071-.2.12-.23.2a4.872,4.872,0,0,1-2.826,2.584c-.464.2-.91.436-1.363.656a3.82,3.82,0,0,0-1.9,1.871,6.633,6.633,0,0,1-1.23,1.7A12.834,12.834,0,0,1,977.9,2796.476Z" transform="translate(-867.722 -2478.792)" fill="#ff8000"/>
        <path id="Pfad_119" data-name="Pfad 119" d="M742,2785.689a2.245,2.245,0,0,0-.047.632,7.808,7.808,0,0,1,.221,2.4c.008.453-.03.909,0,1.361a3.259,3.259,0,0,0,2.616,3.12,5.59,5.59,0,0,0,1.037.2,9.373,9.373,0,0,1,3.887,1.145,6.518,6.518,0,0,0,2.684.666c-.3-.2-.513-.333-.714-.483a10.318,10.318,0,0,1-3.325-3.645,3.705,3.705,0,0,0-1.686-1.679c-.584-.3-1.164-.607-1.769-.866a4.534,4.534,0,0,1-2.5-2.3A4.428,4.428,0,0,0,742,2785.689Z" transform="translate(-658.35 -2477.515)" fill="#ff8000"/>
        <path id="Pfad_120" data-name="Pfad 120" d="M883.79,2531.882c-.455,1.178-.92,2.353-1.341,3.539-.287.809-.523,1.643-.758,2.465a3.02,3.02,0,0,0-.1.9,2.528,2.528,0,0,0,2.247,2.466,2.467,2.467,0,0,0,2.633-1.83,2.931,2.931,0,0,0-.01-1.643,46.884,46.884,0,0,0-2.382-6.438A4.625,4.625,0,0,0,883.79,2531.882Z" transform="translate(-781.967 -2245.34)" fill="#ff8000"/>
        <path id="Pfad_121" data-name="Pfad 121" d="M886.48,2364.443c-.264-.922-.54-1.844-.857-2.75-.379-1.1-.815-2.176-1.233-3.26-.071-.186-.175-.361-.316-.644-.149.292-.273.49-.356.705-.42,1.084-.849,2.165-1.235,3.261-.3.857-.559,1.731-.808,2.606a3.027,3.027,0,0,0-.106.9,2.528,2.528,0,0,0,2.226,2.486,2.613,2.613,0,0,0,2.686-3.3Z" transform="translate(-781.948 -2091.402)" fill="#ff8000"/>
        <path id="Pfad_122" data-name="Pfad 122" d="M872.49,2739.191a3.091,3.091,0,0,0,2.634,2.433,5.154,5.154,0,0,0,2.234-.053,2.9,2.9,0,0,0,2.423-2.437,2.76,2.76,0,0,0-2.174-2.022,5.95,5.95,0,0,0-2.991.015A2.733,2.733,0,0,0,872.49,2739.191Z" transform="translate(-774.017 -2434.918)" fill="#ff8000"/>
        <path id="Pfad_123" data-name="Pfad 123" d="M1248.921,2697.676a3.781,3.781,0,0,0-2.926-.3,5.953,5.953,0,0,1-3.714-.165,14.8,14.8,0,0,1-1.39-.576,3.753,3.753,0,0,0-2.366-.232c-.163.031-.3.2-.465.317a18.692,18.692,0,0,1,2.108.543,8.623,8.623,0,0,1,1.576.884,6.51,6.51,0,0,0,4.436,1.168,7.548,7.548,0,0,1,1.207-.033,1.279,1.279,0,0,1,1.383,1.1c.021.617-.427,1.174-.02,2.061.173-1.3,1.308-1.8,1.471-2.811A2.051,2.051,0,0,0,1248.921,2697.676Z" transform="translate(-1098.705 -2399.432)" fill="#ff8000"/>
        <path id="Pfad_124" data-name="Pfad 124" d="M476.861,2698.161a6.726,6.726,0,0,1,3.828-1.313c-.292-.216-.421-.38-.578-.417a3.966,3.966,0,0,0-2.644.345,6.724,6.724,0,0,1-5.127.562,3.4,3.4,0,0,0-1.347-.064,3.776,3.776,0,0,0-2.142,1.034,1.918,1.918,0,0,0-.445,1.529c.225.328.513.735.787,1.15s.514.816.781,1.242c.349-.688-.23-1.293-.1-1.938a1.227,1.227,0,0,1,1.2-.97,7.525,7.525,0,0,1,1.357.016A6.225,6.225,0,0,0,476.861,2698.161Z" transform="translate(-415.686 -2399.459)" fill="#ff8000"/>
        <path id="Pfad_125" data-name="Pfad 125" d="M760.374,2721.785a4.508,4.508,0,0,0,1.274-1.655,15.3,15.3,0,0,1-1.681.918,13.869,13.869,0,0,1-1.608.391q-.365.088-.723.208c-1.739.583-1.71,2.015-1.089,3.146a2.116,2.116,0,0,0,1.161.923c.705.253,1.432.458,2.155.665.209.059.394,0,.441-.3-.244-.288-.517-.583-.758-.9a1.92,1.92,0,0,1-.068-2.385A7.145,7.145,0,0,1,760.374,2721.785Z" transform="translate(-670.734 -2420.242)" fill="#ff8000"/>
        <path id="Pfad_126" data-name="Pfad 126" d="M1004.769,2720.789c.4.453.821.891,1.252,1.317,1.326,1.312,1.381,2.26.207,3.683-.15.182-.411.318-.288.692a5.462,5.462,0,0,0,2.291-.529,3.589,3.589,0,0,0,1.033-.623,2.032,2.032,0,0,0-.524-3.473,5.38,5.38,0,0,0-1.165-.325,5.185,5.185,0,0,1-2.815-1.251C1004.757,2720.532,1004.7,2720.714,1004.769,2720.789Z" transform="translate(-891.214 -2420.373)" fill="#ff8000"/>
        <path id="Pfad_127" data-name="Pfad 127" d="M833.9,2708.852a7.479,7.479,0,0,1-3.094.521,1.563,1.563,0,0,0-1.471.877,5.911,5.911,0,0,0-.352.825c-.407,1.093-.038,2.148.126,3.52a8.322,8.322,0,0,1,5.27-5.6c-.116-.081-.149-.126-.188-.126A.607.607,0,0,0,833.9,2708.852Z" transform="translate(-735.171 -2410.379)" fill="#ff8000"/>
        <path id="Pfad_128" data-name="Pfad 128" d="M931.284,2710.873a13.737,13.737,0,0,1,2.008,3.366,15,15,0,0,1,.221-1.531,3.542,3.542,0,0,0-.154-1.927,1.868,1.868,0,0,0-2.056-1.592,7.032,7.032,0,0,1-2.654-.471,4.169,4.169,0,0,0-.9-.088A11.053,11.053,0,0,1,931.284,2710.873Z" transform="translate(-822.958 -2410.195)" fill="#ff8000"/>
        <path id="Pfad_129" data-name="Pfad 129" d="M614.489,2702.545a3.457,3.457,0,0,0-2.405,4.553,1.1,1.1,0,0,0,.16-.245,5.954,5.954,0,0,1,3.088-3.564,1.644,1.644,0,0,0,.962-1l-1.207.166A3.744,3.744,0,0,0,614.489,2702.545Z" transform="translate(-542.771 -2404.657)" fill="#ff8000"/>
        <path id="Pfad_130" data-name="Pfad 130" d="M1156,2702.626a8.878,8.878,0,0,0,1,.681,5.658,5.658,0,0,1,2.62,3.021c.082.223.092.558.47.654a6.163,6.163,0,0,0-.278-2.435,3.076,3.076,0,0,0-2.623-2.207c-.447-.057-.892-.127-1.544-.221A2.7,2.7,0,0,0,1156,2702.626Z" transform="translate(-1025.011 -2404.508)" fill="#ff8000"/>
        <path id="Pfad_131" data-name="Pfad 131" d="M748.62,2692.559a1.642,1.642,0,0,0-1.011,1.059,15.331,15.331,0,0,0-.609,2.362,4.26,4.26,0,0,0,1.218-1.447,4.218,4.218,0,0,1,1.5-1.442,5.783,5.783,0,0,1,1.8-.73c.171-.037.37-.1.3-.433A9.618,9.618,0,0,0,748.62,2692.559Z" transform="translate(-662.579 -2395.602)" fill="#ff8000"/>
        <path id="Pfad_132" data-name="Pfad 132" d="M1020.691,2695.085a2.1,2.1,0,0,0,.953.957c-.192-.736-.346-1.363-.52-1.983a1.987,1.987,0,0,0-1.5-1.523c-.632-.157-1.264-.344-1.9-.467a5.849,5.849,0,0,0-1.04-.01c.053.134.058.2.094.224a1.384,1.384,0,0,0,.389.208A5.19,5.19,0,0,1,1020.691,2695.085Z" transform="translate(-901.797 -2395.701)" fill="#ff8000"/>
        <path id="Pfad_133" data-name="Pfad 133" d="M616.062,3025.829l-.07-.076-.033-.023v.057Z" transform="translate(-546.177 -2687.218)" fill="#ff8000"/>
        <path id="Pfad_134" data-name="Pfad 134" d="M1185.84,3025.65l.1-.048v-.072l-.034.038Z" transform="translate(-1051.494 -2687.043)" fill="#ff8000"/>
        <path id="Pfad_135" data-name="Pfad 135" d="M783.94,3059.129l.066.083.066.065a.584.584,0,0,1-.021-.109Z" transform="translate(-695.127 -2716.396)" fill="#ff8000"/>
        <path id="Pfad_136" data-name="Pfad 136" d="M1017.748,3059.27c.086-.116.022-.081-.044-.044a.659.659,0,0,1-.024.109Z" transform="translate(-902.386 -2716.45)" fill="#ff8000"/>
        <path id="Pfad_137" data-name="Pfad 137" d="M785.207,3060.5l-.207-.2A.279.279,0,0,0,785.207,3060.5Z" transform="translate(-696.071 -2717.419)" fill="#ff8000"/>
        <path id="Pfad_138" data-name="Pfad 138" d="M786.7,3061.961l.032-.031a.385.385,0,0,1-.075-.01Z" transform="translate(-697.537 -2718.834)" fill="#ff8000"/>
        <path id="Pfad_139" data-name="Pfad 139" d="M1016.212,3060.329l-.212.2A.278.278,0,0,0,1016.212,3060.329Z" transform="translate(-900.902 -2717.445)" fill="#ff8000"/>
        <path id="Pfad_140" data-name="Pfad 140" d="M1160.43,2507.055l.048.018-.031-.033Z" transform="translate(-1028.959 -2223)" fill="#ff8000"/>
        <path id="Pfad_141" data-name="Pfad 141" d="M1412.3,2507.036l.046-.02-.016-.017Z" transform="translate(-1252.294 -2222.966)" fill="#ff8000"/>
        <path id="Pfad_142" data-name="Pfad 142" d="M183.531,1665.45a.619.619,0,0,0,.109-.517c-.1-.3-.37-.295-.9.045C183.064,1665.521,183.326,1665.669,183.531,1665.45Z" transform="translate(-159.644 -1476.149)" fill="#ff8000"/>
        <path id="Pfad_143" data-name="Pfad 143" d="M183.072,1630.354a1.18,1.18,0,0,0,.348-.282c.014-.362-.216-.6-.444-.562a.4.4,0,0,0-.345.405C182.61,1630.162,182.859,1630.428,183.072,1630.354Z" transform="translate(-159.548 -1444.931)" fill="#ff8000"/>
        <path id="Pfad_144" data-name="Pfad 144" d="M161.593,1532.126c-.11-.118-.317-.143-.445-.2-.272.261-.344.505-.149.715.107.118.32.139.445.187C161.725,1532.571,161.794,1532.337,161.593,1532.126Z" transform="translate(-140.555 -1358.409)" fill="#ff8000"/>
        <path id="Pfad_145" data-name="Pfad 145" d="M170.678,1564.03c.3-.06.363-.3.315-.578-.188-.2-.393-.317-.641-.1a.369.369,0,0,0-.048.533A.456.456,0,0,0,170.678,1564.03Z" transform="translate(-148.699 -1386.163)" fill="#ff8000"/>
        <path id="Pfad_146" data-name="Pfad 146" d="M182.848,1697.278a.517.517,0,0,0-.336.2.285.285,0,0,0,.2.435.85.85,0,0,0,.324-.127C183.126,1697.55,183.014,1697.268,182.848,1697.278Z" transform="translate(-159.406 -1505.014)" fill="#ff8000"/>
        <path id="Pfad_147" data-name="Pfad 147" d="M176.68,1598.123c.3.014.409-.189.452-.449-.44-.561-.44-.561-.892-.019C176.272,1597.918,176.4,1598.11,176.68,1598.123Z" transform="translate(-153.966 -1416.329)" fill="#ff8000"/>
        <path id="Pfad_148" data-name="Pfad 148" d="M154.121,1502.019c.21.126.417.011.664-.369-.235-.357-.235-.357-.661-.39C153.908,1501.656,153.91,1501.894,154.121,1502.019Z" transform="translate(-134.504 -1331.208)" fill="#ff8000"/>
        <path id="Pfad_149" data-name="Pfad 149" d="M1611.526,1664.455c-.287.119-.321.346-.253.614.186.213.425.321.632.1a.632.632,0,0,0,.112-.529.353.353,0,0,0-.492-.186Z" transform="translate(-1431.176 -1475.886)" fill="#ff8000"/>
        <path id="Pfad_150" data-name="Pfad 150" d="M1613.093,1629.558c-.2.277-.3.556.211.846.3-.118.484-.282.4-.559A.435.435,0,0,0,1613.093,1629.558Z" transform="translate(-1432.653 -1444.949)" fill="#ff8000"/>
        <path id="Pfad_151" data-name="Pfad 151" d="M1634.7,1532.144c-.236.237-.316.505-.031.741a.39.39,0,0,0,.379,0,.7.7,0,0,0,.211-.481C1635.209,1532.092,1634.96,1532.063,1634.7,1532.144Z" transform="translate(-1451.479 -1358.561)" fill="#ff8000"/>
        <path id="Pfad_152" data-name="Pfad 152" d="M1625.332,1563.334c-.218.229-.111.453.075.652.505-.086.505-.086.565-.587C1625.776,1563.2,1625.563,1563.1,1625.332,1563.334Z" transform="translate(-1443.379 -1386.13)" fill="#ff8000"/>
        <path id="Pfad_153" data-name="Pfad 153" d="M1614.167,1697.749c.224-.027.318-.182.3-.435a.369.369,0,0,0-.414-.267.339.339,0,0,0-.3.416A.33.33,0,0,0,1614.167,1697.749Z" transform="translate(-1433.364 -1504.809)" fill="#ff8000"/>
        <path id="Pfad_154" data-name="Pfad 154" d="M1618.938,1597.462a.42.42,0,0,0-.586.267.379.379,0,0,0,.184.505.473.473,0,0,0,.412-.014C1619.24,1597.983,1619.213,1597.713,1618.938,1597.462Z" transform="translate(-1437.355 -1416.488)" fill="#ff8000"/>
        <path id="Pfad_155" data-name="Pfad 155" d="M1641.4,1501.735a.529.529,0,0,0,.264-.322.379.379,0,0,0-.288-.445c-.364-.109-.552.081-.642.414C1640.839,1501.71,1641.04,1501.9,1641.4,1501.735Z" transform="translate(-1456.937 -1330.924)" fill="#ff8000"/>
        <path id="Pfad_156" data-name="Pfad 156" d="M1076.182,1510.784a9.16,9.16,0,0,1,5.342.66,16.912,16.912,0,0,0,3.893,1.244,7.91,7.91,0,0,0,3.316.035c1.285-.274,2.558-.609,3.845-.877a8.76,8.76,0,0,1,2.39-.344,12.09,12.09,0,0,1,4.919,1.433c.662.365,1.313.758,1.992,1.088a12.8,12.8,0,0,0,7.16,1.562c.8-.09,1.607-.193,2.4-.359s1.567-.409,2.344-.632a10.517,10.517,0,0,1,4.8-.253,53.907,53.907,0,0,1,9.111,2.841c.039.014.061.077.126.172a11.045,11.045,0,0,1,0,1.137c-.353,3.474-.733,6.951-1.078,10.422-.264,2.67-.49,5.344-.737,8.014q-.161,1.74-.333,3.477c-.253,2.568-.527,5.136-.774,7.709-.241,2.52-.455,5.042-.693,7.562q-.436,4.612-.885,9.226c-.1,1.011-.192,2.016-.3,3.022a3.461,3.461,0,0,1-.16.566,2.013,2.013,0,0,1-.474.1,2.557,2.557,0,0,0-2.082,1.069c-.2.229-.349.5-.54.734a18.137,18.137,0,0,1-2.941,3.263c-.927.7-1.864,1.4-2.85,2.013a4.894,4.894,0,0,0-2.084,2.528q-.317.854-.606,1.719a24.513,24.513,0,0,1-1.584,3.776,25.037,25.037,0,0,0-1.5,3.646c-.49,1.381-1.028,2.75-1.619,4.092a10.766,10.766,0,0,1-1.168,1.946c-1.39,1.926-2.83,3.824-4.249,5.734q-.724.975-1.454,1.946a1.094,1.094,0,0,0-.26,1.078,6.237,6.237,0,0,0,.545.341c.076.039.195-.006.335-.016a7.978,7.978,0,0,0,1.5-1.85q2.362-3.16,4.694-6.352a12.879,12.879,0,0,0,1.121-1.8,33.365,33.365,0,0,0,1.983-4.764,21.735,21.735,0,0,1,1.337-3.22,23.411,23.411,0,0,0,1.79-4.345,2.6,2.6,0,0,1,.777-1.5c.292-.1.624-.222.958-.335a16.643,16.643,0,0,0,5.614-2.945c.347-.293.759-.505,1.126-.773a4.245,4.245,0,0,1,1.817-.729,15.131,15.131,0,0,1,5.435-.039,11.769,11.769,0,0,1,1.713.6c.126.047.2.208.366.4a4.02,4.02,0,0,1-.641.053c-.351-.035-.7-.111-1.05-.157a4.768,4.768,0,0,0-3.6.8,24.187,24.187,0,0,0-3.377,2.563,5.377,5.377,0,0,1-.605.478c-.715,0-1.422-.012-2.128,0a4.75,4.75,0,0,0-2.224.373,2.416,2.416,0,0,0-.491.487c.423.6.469.676,1,.581a12.729,12.729,0,0,1,3.175.016c.706.05,1.417.018,2.126.034,1.214.029,2.429.053,3.641.114a4.6,4.6,0,0,1,.91.212,1.056,1.056,0,0,1,.126,1.113,5.9,5.9,0,0,1-1.476,2.3c-.37-.265-.7-.49-1.019-.736-.6-.464-1.217-.912-1.782-1.418a2.908,2.908,0,0,0-2.712-.546.743.743,0,0,0-.632.581.577.577,0,0,0,.423.7l1.39-.156c1.572,1.377,3.135,2.739,4.689,4.109a3.007,3.007,0,0,1,.492.573,1.862,1.862,0,0,1,.222,1.318.669.669,0,0,1-.488.608,4.424,4.424,0,0,1-.505-.68,10.288,10.288,0,0,0-3.044-3.132,1.9,1.9,0,0,0-.4-.224.623.623,0,0,0-.713.053,2.034,2.034,0,0,0-.287.523c.288.291.531.543.781.787a12.2,12.2,0,0,1,2.7,3.253,5.676,5.676,0,0,0,.746.952c.224.276.464.537.671.823a1.067,1.067,0,0,1,.113,1.137,8.772,8.772,0,0,1-3.744,1.582c-.139.03-.324-.15-.491-.235a5.749,5.749,0,0,1,.822-1.834l.969-.409c.309-.806-.188-1.31-.581-1.815a4.629,4.629,0,0,0-.865-.672l-.758.693c.062.379.109.674.126.789-.82,1.757-1.629,3.335-2.3,4.971a4,4,0,0,1-2.921,2.615,5.094,5.094,0,0,0-2.559,1.543,11.916,11.916,0,0,0-1.915,2.539c-.639,1.15-1.3,2.29-1.942,3.436-.224.4-.443.8-.647,1.2-.039.08,0,.2,0,.351a.82.82,0,0,0,.894.578c.552-.183.709-.69.958-1.125a54.1,54.1,0,0,1,2.891-4.814,5.556,5.556,0,0,1,3.122-2.256,5.08,5.08,0,0,0,3.5-3.122c.126-.32.306-.621.433-.873a1.466,1.466,0,0,1,.379-.1,8.7,8.7,0,0,0,5.283-1.593,1.864,1.864,0,0,0,.953-2.328c-.084-.393-.224-.773-.349-1.2.185-.393.387-.8.569-1.215a2.664,2.664,0,0,0,.046-2.213,9.849,9.849,0,0,0-.664-1.182c-.151-.253-.339-.476-.527-.737.408-.659.783-1.256,1.151-1.859a3.845,3.845,0,0,0,.632-1.845,2.133,2.133,0,0,0-2.053-2.5c-.758-.095-1.516-.082-2.275-.126-.236-.016-.47-.079-.774-.133.116-.2.157-.37.262-.441.632-.428,1.29-.8,1.9-1.254a3.313,3.313,0,0,1,2.446-.59c.4.044.8.152,1.2.181a4.171,4.171,0,0,0,1.2-.028,1.617,1.617,0,0,0,1.3-1.336,1.4,1.4,0,0,0-.8-1.5,7.987,7.987,0,0,0-3.567-1.2c-.9-.078-1.818-.04-2.727-.073a7.846,7.846,0,0,1-.885-.137c0-.379-.025-.684,0-.979.153-1.56.335-3.118.479-4.676.253-2.721.466-5.445.724-8.166.253-2.619.545-5.232.792-7.851.253-2.72.475-5.445.718-8.166q.189-2.042.379-4.082c.158-1.611.331-3.221.478-4.834.134-1.462.233-2.928.364-4.391q.437-4.838.893-9.676a2.578,2.578,0,0,1,.36-1.457,1.79,1.79,0,0,1,.433-.069q.907.076,1.812.185a9.275,9.275,0,0,0,5.193-.758,10.357,10.357,0,0,0,3.655-2.654,30.926,30.926,0,0,0,2.266-3.041,7.09,7.09,0,0,0,1.125-3.726,15.113,15.113,0,0,0-.952-5.045,10.154,10.154,0,0,0-1.9-3.267,3.7,3.7,0,0,1-1-1.847,2.053,2.053,0,0,1,1.671-1.744c1.065-.28,2.109-.785,3.244-.287a.53.53,0,0,0,.15.019,1.108,1.108,0,0,0,1.2-.724c.145-.3-.016-.735.4-.931a3.794,3.794,0,0,1,1.746.833c.624.434.563,1.285,1.123,1.719.527-.2.713-.4.607-.7-.181-.505-.4-1.011-.6-1.517a11.253,11.253,0,0,0,1.137-.531.731.731,0,0,0,.27-.478c.014-.089-.168-.211-.278-.338a5.542,5.542,0,0,1-3.952-.028l-.379-.949c-.742-.576-1.616-.379-2.367-.682.107-.135.157-.262.231-.28.979-.239,1.962-.461,3.059-.715l.664-.6a2.641,2.641,0,0,1,1.217.653c.376.246.605.7,1.1.736.35-.379.351-.379.224-.738-.063-.178-.135-.355-.2-.522l1.077-.67-.3-.518c-1.011.119-2.071.48-3.107-.126a2.44,2.44,0,0,1-.164-.379,1.24,1.24,0,0,0-1.35-.976,14.739,14.739,0,0,1-1.517-.084c-.113-.011-.214-.143-.387-.268a2.3,2.3,0,0,1,1.355-.309c1.292-.14,1.292-.126,2.167-1.125,1.274.04,2.054.969,2.932,1.723.176-.085.379-.118.413-.212a.724.724,0,0,0,.021-.553,12.9,12.9,0,0,0-.84-1.081,9.27,9.27,0,0,0,.589-1.055c.061-.149-.037-.379-.1-.555-.019-.053-.168-.061-.253-.088-1.232,1.048-1.232,1.048-2.89.665l-.664-.9c-2.141-.253-2.446-.336-3.033-.885a2.867,2.867,0,0,1,1.864-.505,2.321,2.321,0,0,0,1.731-.551,3.7,3.7,0,0,1,2.37.733,1.212,1.212,0,0,0,1.178.325l.187-.464-.694-.8c.182-.307.333-.565.506-.862l-.439-.452a7.314,7.314,0,0,0-.719.3,2.43,2.43,0,0,1-1.615.267,1.13,1.13,0,0,1-.271-.126c-.148-.307-.3-.618-.426-.885-1.071-.474-2.3.146-3.286-.646a4.29,4.29,0,0,1,2.844-.929c.287-.336.54-.632.815-.959a6.54,6.54,0,0,1,1.322.488,12.206,12.206,0,0,1,1.34,1.153c.341.035.544-.159.5-.427a6.6,6.6,0,0,0-.393-1.13l.669-.708c-.177-.479-.5-.43-.788-.355a4.8,4.8,0,0,1-2.907-.126,1.653,1.653,0,0,0-1.739-1.118c-.2,0-.461.081-.6-.222a7.5,7.5,0,0,1,3.09.024l.72-.607a4.438,4.438,0,0,1,2.386,1.137l.4-.452c-.161-.379-.293-.69-.409-.965l.872-.986-.371-.52c-.828.292-1.5.992-2.443.667l-.575-.963c-1.04-.469-2.2-.265-3.185-.974a3.933,3.933,0,0,1,.817-.43,3.73,3.73,0,0,1,1.349-.167,2.484,2.484,0,0,0,1.853-.471c1.073-.065,1.666.7,2.475,1.011.432-.823-.523-1.053-.545-1.643a9.143,9.143,0,0,0,.6-1,.806.806,0,0,0-.059-.568c-.044-.1-.23-.148-.406-.253-.528.6-.925,1.4-1.965,1.251-.379-.221-.65-.657-1.189-.785a8.045,8.045,0,0,1-3.45-1.816,10.852,10.852,0,0,0-5.136-2.49,13.215,13.215,0,0,0-9.2,1.769,11.7,11.7,0,0,0-4.287,4.008,21.1,21.1,0,0,0-2.121,4.022c-.334.954-.658,1.917-.911,2.9a8.353,8.353,0,0,0-.391,2.539c.085,1.567.144,3.135.207,4.7a22.052,22.052,0,0,0,1.1,5.647c.66,2.125,1.336,4.244,2.008,6.365.077.241.185.471.253.714.407,1.409.817,2.818,1.2,4.235a3.865,3.865,0,0,1,.111,1.053,2.585,2.585,0,0,1-1.05,2.1,4.258,4.258,0,0,1-3.412.925,13.561,13.561,0,0,1-3.865-1.311,22.014,22.014,0,0,0-3.864-1.354,5.432,5.432,0,0,0-2.256-.127,11.516,11.516,0,0,0-3.791,1.011,9.705,9.705,0,0,1-3.492.968,6.679,6.679,0,0,0-.75.126,8.145,8.145,0,0,1-3.463-.135,25.046,25.046,0,0,1-3.033-.952,9.88,9.88,0,0,0-6.983-.036c-.955.331-1.875.758-2.807,1.156a10.284,10.284,0,0,1-2.918.79q-2.49.263-4.973.581a8.9,8.9,0,0,0-3.462,1.052c-.479.282-1.011.48-1.49.759a7.977,7.977,0,0,0-1.264.826c-.885.758-1.749,1.538-2.6,2.329a3.709,3.709,0,0,0-.442.653l.594.632C1074.289,1511.114,1075.231,1510.917,1076.182,1510.784Zm46.383,61.5c-.632.3-1.239.531-1.787.862-.379.228-.747.477-1.111.732a6.4,6.4,0,0,1-2.849,1.758l-.017.023a.088.088,0,0,0,0-.021.975.975,0,0,1-.253.021,20.032,20.032,0,0,0,3.491-3.374c.127-.157.265-.313.4-.471.353-.425.66-.885,1.011-1.309a.92.92,0,0,1,1.11-.379c.392.7.043,1.412.01,2.16Zm18.691-70.828a12.577,12.577,0,0,1,1.563,6.859,4.771,4.771,0,0,1-.571,2.03,16.894,16.894,0,0,1-2.887,3.889,8.835,8.835,0,0,1-6.271,2.626,18.727,18.727,0,0,1-6.088-1.1c-1.1-.368-2.192-.775-3.286-1.174a27.439,27.439,0,0,0-5.435-1.361,11.512,11.512,0,0,0-5.393.473,15.406,15.406,0,0,1-5.687.768,8.383,8.383,0,0,1-1.774-.285,28.655,28.655,0,0,1-5.284-2.268,20.042,20.042,0,0,0-3.864-1.321,14.412,14.412,0,0,0-2.376-.225,2.743,2.743,0,0,1,1.607-.552,11.248,11.248,0,0,1,5.929.87c.874.4,1.794.7,2.654,1.113a5.962,5.962,0,0,0,2.951.518c.354-.015.708-.047,1.062-.035a13.365,13.365,0,0,0,4.333-.589,15.96,15.96,0,0,1,7.948-.4c1.137.236,2.233.622,3.354.915,1.9.5,3.665,1.446,5.637,1.728a15.179,15.179,0,0,0,4.366.273,8.777,8.777,0,0,0,7.41-7.558,5.334,5.334,0,0,0-.821-3.918c-.482-.758-1.011-1.5-1.417-2.242.2-.546.632-.546.987-.717a4.766,4.766,0,0,1,1.351,1.68Zm-10.045-4.4c.023.253.014.505.014.758a.651.651,0,0,1-.038.146c-.7.415-.7.415-1.9.217a3.226,3.226,0,0,1-.226-.8c-.028-1.466-.111-2.938-.007-4.4a10.563,10.563,0,0,1,8.341-9.757,7.12,7.12,0,0,1,1.171-.086v3.087a.783.783,0,0,1-.643.505,9.851,9.851,0,0,0-3.091,1.566,8,8,0,0,0-2.315,2.768A11.2,11.2,0,0,0,1131.211,1497.056Zm.505,3.539a2.339,2.339,0,0,1-1.8.077,1.3,1.3,0,0,1-.279-1.208,5.809,5.809,0,0,1,1.855-.283,1.754,1.754,0,0,1,.222,1.421Zm3.255-10.464a5.94,5.94,0,0,1,3.194-1.877c.019.579,0,1.03.058,1.47a12.918,12.918,0,0,0,.306,1.29c-3,2.242-3.294,2.688-3.716,5.6-.351.083-.742.144-1.11.27a8.048,8.048,0,0,0-.909.431c-.116-.116-.24-.181-.242-.253a9.578,9.578,0,0,1,2.415-6.926Zm-.464,7.773a1.646,1.646,0,0,1,1.744,1.686,1.761,1.761,0,0,1-1.62,1.7,1.789,1.789,0,0,1-1.819-1.813,1.64,1.64,0,0,1,1.693-1.566Zm1.583-1.178a4.341,4.341,0,0,1,1.86-3.639,1.483,1.483,0,0,1,.419-.136,3.468,3.468,0,0,0,1.3,2.63c.023.36-.244.538-.483.707a5.539,5.539,0,0,1-2.9.974,1.578,1.578,0,0,1-.2-.53Zm2.641.966c.453.253.473.632.432,1.088a2.1,2.1,0,0,1-1.721.7l-.279-1.264Zm6.484-5.366c-.048.32-.066.463-.091.605-.017.1-.045.2-.075.33.15.327.315.681.505,1.1-.588.2-1.069-.126-1.554-.05-.547.082-1.1.152-1.643.253-.5.094-.984.223-1.517.346a6.536,6.536,0,0,1-.895-.505,1.2,1.2,0,0,1-.4-1.365,1.225,1.225,0,0,1,.988-.843,1.185,1.185,0,0,1,.3-.042c1.409.025,2.821.038,4.379.178Zm1.475-4.343c-.08.587-.126.974-.188,1.38-.061.044-.126.134-.221.154-.393.088-.789.174-1.188.229a4.6,4.6,0,0,0-2.1.805,3.793,3.793,0,0,1-1.829.669,1.708,1.708,0,0,1-1.834-1.264,1.534,1.534,0,0,1,.709-2.072,3.884,3.884,0,0,1,2.334-.459,5.2,5.2,0,0,1,.885.174,9.561,9.561,0,0,0,3.429.389Zm-.713-3.885c.126.359.262.725.379,1.06-.113.126-.17.244-.245.253a16.269,16.269,0,0,0-3.509.878,4.6,4.6,0,0,1-2.541.152,2.108,2.108,0,0,1-.569-1.813,1.764,1.764,0,0,1,1.865-1.609,4.747,4.747,0,0,1,1.052.117c1.172.306,2.336.633,3.565.966Zm.537-3.942c.253.307.106.6-.127.624a13.222,13.222,0,0,0-3.6,1.094c-.758.31-.937.232-2.109-.126a1.693,1.693,0,0,1-.052-2.18,1.744,1.744,0,0,1,1.969-.346c.048.013.095.031.144.047.624.2,1.24.444,1.877.593s1.28.21,1.892.3Zm-.023-4.608c.388.354.618.709.5,1.15-.941.365-1.834.7-2.716,1.058a5.519,5.519,0,0,1-2.275.193,2.1,2.1,0,0,1-.92-2.516l1.532-.7a4.1,4.1,0,0,1,.979.236,5.384,5.384,0,0,0,2.9.589Zm1.011-3.358c.29.067.574.154.805.217.2.357-.062.522-.169.789a2.653,2.653,0,0,1-.542.126,9.81,9.81,0,0,0-3.119.479,2.2,2.2,0,0,1-2.5-.618,2.257,2.257,0,0,1,.159-1.882,2.009,2.009,0,0,1,1.486-.847,6.108,6.108,0,0,1,1.264.622,6.42,6.42,0,0,0,2.619,1.12Zm-2.37-5.447c.622.379,1.172.733,1.734,1.063s1.256.379,1.783,1c-.164.151-.229.265-.3.273a8.99,8.99,0,0,0-2.474.619,2.63,2.63,0,0,1-2.545-.4,6.8,6.8,0,0,1-.243-.9,1.376,1.376,0,0,1,1.357-1.643,5.064,5.064,0,0,1,.69-.005Zm-18.6,5.494c.134-.325.346-.617.5-.937a12.743,12.743,0,0,1,4.748-5.2,6.859,6.859,0,0,1,.939-.488c.322-.147.672-.234.982-.4a10.723,10.723,0,0,1,6.067-.972,8.453,8.453,0,0,1,3.88,1.413c-.316.583-1.029.75-1.237,1.314-.19.513-.286,1.059-.444,1.667a7.17,7.17,0,0,1-.691-.229,8.636,8.636,0,0,0-6.216-.253,17.213,17.213,0,0,0-5.308,2.546,31.4,31.4,0,0,0-3.089,2.907c-.177.172-.333.365-.7.767A4.8,4.8,0,0,1,1126.534,1472.236Zm-1.557,8.381a2.713,2.713,0,0,1,.072-1.881,12.969,12.969,0,0,1,1.064-2.166,19.285,19.285,0,0,1,5.814-5.661,14.39,14.39,0,0,1,4.968-1.763,6.215,6.215,0,0,1,4.612,1,13.383,13.383,0,0,0-.55,1.595,9.063,9.063,0,0,0-.1,1.431c-.379.32-.729.187-1.064.146a13.224,13.224,0,0,0-8.182,1.565,18.36,18.36,0,0,0-6.066,5.16,5.574,5.574,0,0,1-.564.574Zm.149,2.567a1.732,1.732,0,0,1,.294-.687,16.936,16.936,0,0,1,8.383-7.128,11.419,11.419,0,0,1,5.055-.736,7.891,7.891,0,0,1,1.074.223c.058.869.114,1.71.173,2.6-.177.253-.506.148-.79.164a20.206,20.206,0,0,0-5.353.885,11.213,11.213,0,0,0-6.846,5.6c-.406.758-.807,1.506-1.352,2.528a6.611,6.611,0,0,1-.634-3.453Zm3.385,6.1a8.847,8.847,0,0,0-.689,3.413c-.253-.175-.379-.212-.412-.286a5.321,5.321,0,0,0-.264-.865,4.865,4.865,0,0,1-.061-4.256,12.514,12.514,0,0,1,3.351-5.337,9.152,9.152,0,0,1,1.994-1.363,13.627,13.627,0,0,1,5.2-1.517c.4-.028.8-.134,1.2-.166a2.474,2.474,0,0,1,.6.108c-.082.842-.159,1.629-.253,2.527-.126.221-.456.2-.744.212a10.141,10.141,0,0,0-4.732,1.436,11.29,11.29,0,0,0-5.179,6.09ZM1075.9,1508.78a11.967,11.967,0,0,1,5.857-2.654c1.6-.183,3.206-.4,4.813-.578a12.39,12.39,0,0,0,3.8-1c.6-.27,1.214-.505,1.815-.775a9.5,9.5,0,0,1,3.69-.738,9.11,9.11,0,0,1,4.126.81,13.622,13.622,0,0,0,4.717,1.028,10.713,10.713,0,0,0,1.652-.195,12.854,12.854,0,0,0,4.8-1.3,9.735,9.735,0,0,1,3.525-.809,3.916,3.916,0,0,1,1.347.126,19.817,19.817,0,0,1,3.856,1.361,10.989,10.989,0,0,0,4.171,1.311c1.719.589,4.449-.808,5.353-2.621.132-.265.269-.529.4-.787l2.568-.3c.267.138.612.346.979.505a2.791,2.791,0,0,0,3.317-.718,6.246,6.246,0,0,1,.466-.594,2.885,2.885,0,0,1,.677-.326c.161.219.289.368.388.536.379.655.718,1.34,1.137,1.969a4.725,4.725,0,0,1,.746,3.476,7.414,7.414,0,0,1-1.024,3,7.271,7.271,0,0,1-6.1,3.673,14.926,14.926,0,0,1-2.567-.186,16.246,16.246,0,0,1-4.369-1.213,13.141,13.141,0,0,0-2.575-.86c-1.229-.279-2.431-.657-3.69-.843a17.9,17.9,0,0,0-7.8.606,10.774,10.774,0,0,1-3.286.473,6.765,6.765,0,0,0-1.362.066,4.661,4.661,0,0,1-2.654-.394c-.884-.359-1.777-.731-2.663-1.1a11.1,11.1,0,0,0-5.764-1.011,12.428,12.428,0,0,0-2.371.468,22.72,22.72,0,0,0-3.938,1.576,7.268,7.268,0,0,1-6.429.336c-.522-.191-1.026-.43-1.543-.632a10.058,10.058,0,0,0-6.079-.651,4.559,4.559,0,0,1-.726.05c-.034-.084-.07-.169-.1-.253a7.568,7.568,0,0,1,.851-.835Z" transform="translate(-960.654 -1307.275)" fill="#ff8000"/>
        <path id="Pfad_157" data-name="Pfad 157" d="M94.395,1469.326c-.837,1.1-.837,1.1-.451,1.529a11.555,11.555,0,0,1,1-.622,10.736,10.736,0,0,1,1.054-.407,4.006,4.006,0,0,0,2.237.546,7.566,7.566,0,0,1,1.356.2,2.566,2.566,0,0,1,.632.415c-.979.725-2.164.445-3.16.988-.183.292-.391.632-.581.931-.916.295-1.555-.417-2.284-.542-.344.126-.45.366-.293.608a6.349,6.349,0,0,0,.7.785c-.049.425-.738.8-.068,1.336a11.336,11.336,0,0,1,1.137-.69,11.05,11.05,0,0,1,1.241-.416l.781.609a7.4,7.4,0,0,1,3.208.069c-.693.141-1.183.228-1.666.345-.547.126-.632.766-.885.938a5.948,5.948,0,0,1-3.318.071c-.095.158-.167.278-.253.42l.584.7-.451,1.305.667.359a3.048,3.048,0,0,1,2.686-1.668c.243.3.46.574.688.855.985.153,2.056.037,2.762.957-.394.45-.921.379-1.418.42-.594.051-1.22-.117-1.769.234a4.42,4.42,0,0,0-.241.393c-.083.175-.145.359-.216.539a2.327,2.327,0,0,1-1.531-.073c-.279-.114-.551-.253-.835-.353-.083-.029-.195.02-.36.043l-.227.44.476.758c-.19.443-.914.482-.686,1.11a.526.526,0,0,0,.68.161c.361-.176.7-.4,1.049-.6a3.65,3.65,0,0,1,1.911-.481l.833.505c2.175.1,2.242.118,2.9.747a7.324,7.324,0,0,1-3.1.632l-.682.949a3.459,3.459,0,0,1-1.537.214c-.68-.019-.906-.758-1.419-.929-.412.126-.439.409-.332.632a10.488,10.488,0,0,0,.66,1.075c-.306.561-.907.8-1.011,1.505l.517.434c.993-.765,1.754-1.825,3.105-1.759.758.976.758.976,1.868,1.091.452.046.909.077,1.357.148.091.015.158.18.273.321a3.685,3.685,0,0,1-1.714.218,1.339,1.339,0,0,0-1.643,1.18c-.015.084-.126.154-.092.12-1.117.772-2.261.075-3.3.309-.147.857.719.632.973,1.112-.134.268-.287.571-.464.923l.423.458a9.388,9.388,0,0,1,2.288-1.608l.794.7c1.165.345,2.339.169,3.412.92-.923.328-1.881.068-2.559.741l-.389.977a6.81,6.81,0,0,1-4.082-.049c-.071.245-.126.421-.183.632l1.49.822c-.322.632-.794,1.169-.541,1.883.183.233.394.3.72.052a3.194,3.194,0,0,1,2.735-2.4,9.694,9.694,0,0,0,.351,1.044,1.048,1.048,0,0,0,1.111.632c.253-.023.49-.126.739-.154a3.757,3.757,0,0,1,1.044-.019,16.33,16.33,0,0,1,1.906.505,2.4,2.4,0,0,1,.781.451,1.531,1.531,0,0,1,.379,2.043,6.98,6.98,0,0,1-.7.991,12.268,12.268,0,0,0-1.906,3.26,22.052,22.052,0,0,0-.653,2.49,10.164,10.164,0,0,0-.192,3.621,5.139,5.139,0,0,0,.758,2.286c.325.513.632,1.043.987,1.533a14.065,14.065,0,0,0,3.963,3.918,10.009,10.009,0,0,0,6.54,1.406c.748-.083,1.5-.17,2.262-.253a3.736,3.736,0,0,1,.379,1.81c.154,1.816.291,3.634.455,5.448.136,1.516.312,3.021.45,4.532.154,1.715.268,3.434.431,5.147.351,3.678.736,7.352,1.081,11.03.355,3.779.677,7.561,1.017,11.342q.155,1.737.331,3.474c.157,1.561.329,3.119.483,4.676q.3,3.02.578,6.044a1.04,1.04,0,0,1-.253,1.048c-.287,0-.632.018-.985,0a12.9,12.9,0,0,0-3.472.278,7.217,7.217,0,0,0-2.635,1.138,1.378,1.378,0,0,0-.2,2.219,1.72,1.72,0,0,0,1.359.568,12.525,12.525,0,0,0,1.505-.18,3.75,3.75,0,0,1,3.023.65c.562.427,1.186.774,1.769,1.179.095.066.107.253.185.447-.35.04-.645.086-.94.106-.657.042-1.317.053-1.973.11a2.162,2.162,0,0,0-2.119,2.713,5.157,5.157,0,0,0,.479,1.433c.219.453.546.853.8,1.292.169.3.289.623.431.933-.239.286-.45.505-.624.752a3.186,3.186,0,0,0-.406,3.428c.173.361.34.726.485,1.039-.142.505-.293.94-.379,1.39a1.825,1.825,0,0,0,.9,2.079,8.856,8.856,0,0,0,5.273,1.636,2.006,2.006,0,0,1,.5.091c.185.391.379.8.566,1.207a4.752,4.752,0,0,0,2.149,2.275,7.83,7.83,0,0,0,1.543.617,4.684,4.684,0,0,1,2.149,1.374,5.027,5.027,0,0,1,.656.834c.952,1.553,1.886,3.118,2.827,4.676.209.345.407.7.647,1.021a.614.614,0,0,0,.833.086,2.859,2.859,0,0,0,.473-.514,2.353,2.353,0,0,0-.139-.505c-.945-1.675-1.844-3.381-2.869-5.006a7.3,7.3,0,0,0-4.6-3.693,3.168,3.168,0,0,1-2.267-2.081,40.165,40.165,0,0,0-2.489-5.165c.173-1.155.173-1.155-.7-1.546a2.4,2.4,0,0,0-1.364,1.517,2.365,2.365,0,0,0-.016.87l1.025.412c.264.64.816,1.163.7,2a2.986,2.986,0,0,1-.9-.014q-1.285-.454-2.528-1.011a4.024,4.024,0,0,1-.766-.571,1.521,1.521,0,0,1,.473-1.465,16.721,16.721,0,0,0,1.3-1.673,8.627,8.627,0,0,1,1.7-2.123c.417-.369.816-.759,1.2-1.162a3.488,3.488,0,0,0,.368-.549.662.662,0,0,0-.885-.506.777.777,0,0,0-.273.126,10.554,10.554,0,0,0-3.125,3.051c-.183.332-.329.724-.814.885a1.942,1.942,0,0,1-.286-.517,1.91,1.91,0,0,1,.622-1.922c.458-.4.885-.827,1.351-1.223,1.146-.988,2.3-1.965,3.439-2.933l1.615.141a2.241,2.241,0,0,0,.126-.752.652.652,0,0,0-.379-.429,2.784,2.784,0,0,0-2.736.308c-.672.537-1.345,1.075-2.029,1.6-.31.237-.647.44-1.024.694a8.979,8.979,0,0,1-1.169-1.658,4.425,4.425,0,0,1-.334-1c-.083-.321.013-.6.423-.885.616-.052,1.368-.149,2.122-.171,1.366-.038,2.734-.006,4.1-.048a14.748,14.748,0,0,1,3.477-.014.979.979,0,0,0,.3-.007.592.592,0,0,0,.588-.6,1.2,1.2,0,0,0-1.073-.7,13.34,13.34,0,0,0-1.814-.135c-.653-.021-1.308,0-1.934,0a7.5,7.5,0,0,1-.632-.527,23.173,23.173,0,0,0-3.385-2.554,4.67,4.67,0,0,0-3.462-.785c-.452.053-.9.133-1.354.176-.107.01-.222-.074-.4-.143a3.524,3.524,0,0,1,1.972-.9,15.44,15.44,0,0,1,5.579.04,4.017,4.017,0,0,1,1.677.674c.538.379,1.093.735,1.618,1.131a13.723,13.723,0,0,0,3.838,2.118c.813.273,1.609.6,2.363.885a2.522,2.522,0,0,1,.708,1.379,28.709,28.709,0,0,0,1.9,4.629,24.667,24.667,0,0,1,1.175,2.794,44.789,44.789,0,0,0,1.881,4.642,12.111,12.111,0,0,0,1.517,2.443c.72.915,1.407,1.855,2.1,2.794,1.078,1.471,2.142,2.951,3.218,4.423.236.325.452.685.918.73.315-.063.612-.2.65-.538a1.9,1.9,0,0,0-.158-.713.988.988,0,0,0-.173-.252c-1.633-2.255-3.429-4.39-4.947-6.73a3.55,3.55,0,0,0-.379-.473,8.579,8.579,0,0,1-1.591-2.572c-.552-1.359-1.065-2.734-1.6-4.1-.388-.988-.718-2.008-1.2-2.953a37.685,37.685,0,0,1-2.032-4.906c-.179-.527-.387-1.044-.6-1.558a4,4,0,0,0-1.547-1.826c-.674-.447-1.318-.939-2-1.374a13.135,13.135,0,0,1-3.3-3.105c-.373-.48-.747-.96-1.1-1.451a2.88,2.88,0,0,0-2.542-1.39c-.081,0-.167-.095-.332-.2-.034-.282-.086-.626-.119-.972-.144-1.516-.277-3.026-.423-4.537-.155-1.613-.329-3.223-.483-4.836-.139-1.462-.253-2.926-.4-4.387-.253-2.519-.53-5.035-.772-7.554-.253-2.62-.471-5.244-.714-7.866-.111-1.209-.244-2.416-.367-3.625-.164-1.612-.334-3.223-.49-4.834-.143-1.461-.264-2.924-.411-4.385-.253-2.468-.512-4.929-.758-7.4a5.681,5.681,0,0,1,.027-.758c.321-.134.593-.262.873-.361.714-.253,1.447-.465,2.149-.759a32.966,32.966,0,0,1,6.122-1.738,10.039,10.039,0,0,1,4.8.253c1.068.309,2.149.589,3.238.809a11.109,11.109,0,0,0,4.531.061,20.391,20.391,0,0,0,5.878-2.374,9.456,9.456,0,0,1,7.852-1.175,34.685,34.685,0,0,0,3.4.779,8.5,8.5,0,0,0,3.615-.059,17.426,17.426,0,0,0,3.744-1.219,9.115,9.115,0,0,1,5.2-.66c.952.126,1.9.339,2.839.506a1.343,1.343,0,0,0,.379-.08l.393-.59a22.45,22.45,0,0,0-3.792-3.483c-.174-.1-.354-.2-.535-.289-.586-.3-1.173-.6-1.769-.885a6.753,6.753,0,0,0-2.149-.71c-1.956-.253-3.909-.532-5.869-.749a11.265,11.265,0,0,1-3.067-.815c-.8-.327-1.579-.687-2.379-1a9.986,9.986,0,0,0-7.554-.047,25.262,25.262,0,0,1-3.187.967,6.28,6.28,0,0,1-2.261.161,15.57,15.57,0,0,1-5.57-1.372,5.777,5.777,0,0,0-1.718-.573,8.079,8.079,0,0,0-3.907-.127,26.886,26.886,0,0,0-3.859,1.368,13.6,13.6,0,0,1-3.719,1.27,4.3,4.3,0,0,1-3.309-.736,2.842,2.842,0,0,1-1.221-3.033c.133-.589.343-1.162.506-1.743.112-.386.222-.775.321-1.165.114-.441.186-.895.325-1.327.819-2.552,1.706-5.084,2.467-7.655a22.686,22.686,0,0,0,1.11-6.865c-.016-.861-.04-1.725.025-2.582a9.322,9.322,0,0,0-.6-4.024,8.644,8.644,0,0,1-.335-1.011,16.332,16.332,0,0,0-2.78-5.53,8.1,8.1,0,0,0-1.146-1.408,14.267,14.267,0,0,0-9.558-4.061,9.587,9.587,0,0,0-3.738.536,11.968,11.968,0,0,0-3.939,2.233,7.579,7.579,0,0,1-3.033,1.664,2.913,2.913,0,0,0-1.48.885c-1.06-.223-1.06-.223-2.022-1.222-.449.195-.623.445-.461.72C93.892,1468.615,94.157,1468.972,94.395,1469.326Zm29.6,101.192a.638.638,0,0,1,.894-.072,2.327,2.327,0,0,1,.436.412q.819,1,1.643,2a18.414,18.414,0,0,0,3.208,3.047,1.18,1.18,0,0,1-.34-.041l.053.042c-.029-.012-.072-.018-.085-.04v-.01a6.788,6.788,0,0,1-2.712-1.713l-.032-.024a9.107,9.107,0,0,0-2.774-1.434A3.973,3.973,0,0,1,123.993,1570.519ZM98.5,1473.534l-.388-.632c.1-.11.149-.227.23-.253.436-.126.885-.221,1.317-.358a4.745,4.745,0,0,0,1.769-.838,3.159,3.159,0,0,1,1.635-.725c1.282.481,1.663.967,1.613,2.043a1.2,1.2,0,0,1-.94,1.229,2.536,2.536,0,0,1-1.331.117A13.007,13.007,0,0,0,98.5,1473.534Zm3.127,4.178a8.981,8.981,0,0,0-1.566-.505c-.183-.058-.363-.126-.494-.178-.192-.457.164-.717.148-1.092a2.309,2.309,0,0,1,.617-.126,4.808,4.808,0,0,0,2.336-.474,8.668,8.668,0,0,1,1.4-.4l1.335.732c.239,1.264.173,1.48-.771,2.48A4.432,4.432,0,0,1,101.628,1477.712Zm-1.345,3.382c-.09,0-.174-.092-.286-.154-.014-.126-.029-.269-.042-.394.1-.078.179-.188.253-.19a10.655,10.655,0,0,0,3.083-.67,5.8,5.8,0,0,1,1.464-.324,1.412,1.412,0,0,1,1.5,1.777,1.732,1.732,0,0,1-.144.427,3.623,3.623,0,0,1-.209.366,2.3,2.3,0,0,1-2.466.086A8.618,8.618,0,0,0,100.283,1481.094Zm.239,4.583c-.082-.01-.152-.126-.3-.241.072-.291.153-.621.264-1.075,1.312-.351,2.516-.7,3.737-.991a2.171,2.171,0,0,1,2.678.914,2.68,2.68,0,0,1-.411,2.428,4.443,4.443,0,0,1-2.477-.15A17.308,17.308,0,0,0,100.522,1485.677Zm-.172,4.1a1.187,1.187,0,0,1-.3-.17c-.072-.393-.15-.82-.235-1.275.708-.064,1.36-.1,2-.191a11.619,11.619,0,0,0,1.778-.379,4.3,4.3,0,0,1,2.248.071,1.633,1.633,0,0,1,1.412,1.218,1.987,1.987,0,0,1-.779,2.148,1.263,1.263,0,0,1-1,.261,3.641,3.641,0,0,1-1.441-.4A8.517,8.517,0,0,0,100.35,1489.779Zm15.143,8.528c-.006-.359-.04-.758-.016-1.137a11.217,11.217,0,0,0-.873-4.882,8.765,8.765,0,0,0-5.848-5.308c-.192-.062-.387-.112-.58-.173a1.394,1.394,0,0,1-.207-.127,15.628,15.628,0,0,0,.111-1.562,13.939,13.939,0,0,0-.182-1.491c.133-.293.4-.264.642-.253a7.149,7.149,0,0,1,2.762.758,10.453,10.453,0,0,1,6.334,9.267c.087,1.208.011,2.428-.008,3.642a2.151,2.151,0,0,1-.411,1.376,2.12,2.12,0,0,1-1.724-.106Zm1.184,2.528a2.228,2.228,0,0,1-1.82.017,1.748,1.748,0,0,1,.186-1.376,9.419,9.419,0,0,1,1.788.126,1.087,1.087,0,0,1-.154,1.234Zm-4.834-4.035a6.159,6.159,0,0,0-1.092-3.314,6.794,6.794,0,0,0-2.755-2.129,14.127,14.127,0,0,0,.372-1.493,10.056,10.056,0,0,0,.013-1.358,1.676,1.676,0,0,1,.436,0,7.278,7.278,0,0,1,4.509,4.378,12.832,12.832,0,0,1,.815,3.21,2.152,2.152,0,0,1-.173,1.541Zm1.834,2.99a1.726,1.726,0,0,1-1.7,1.749,1.8,1.8,0,0,1-1.7-1.78,1.676,1.676,0,0,1,1.671-1.61,1.549,1.549,0,0,1,1.734,1.642Zm-5.448-6.587a2.946,2.946,0,0,1,1.676,1.342,3.777,3.777,0,0,1,.632,2.682c-.446.489-.9.226-1.321.126a3.764,3.764,0,0,1-2.419-1.39,4.387,4.387,0,0,0,1.432-2.759Zm.7,6.491a2.3,2.3,0,0,1-1.7-.689c.082-.264.126-.455.2-.632a3.412,3.412,0,0,1,.276-.431,4.2,4.2,0,0,1,1.591.6,1.5,1.5,0,0,1-.374,1.155Zm-3.253-4.519a10.421,10.421,0,0,0-4.527-.54,3.018,3.018,0,0,1,.306-1.091c-.043-.267-.091-.557-.142-.863a1.571,1.571,0,0,1,.43-.16c1.2-.052,2.41-.088,3.616-.127a2.214,2.214,0,0,1,.451.018,1.227,1.227,0,0,1,1.144.832,1.318,1.318,0,0,1-.564,1.573,6.382,6.382,0,0,1-.714.358Zm46.478,15.5a12.445,12.445,0,0,0-5.4,1.314c-1.059.478-2.087,1.025-3.136,1.525a11.9,11.9,0,0,1-7.826.955c-1.137-.246-2.252-.575-3.385-.835a11.952,11.952,0,0,0-4.814-.052,42.447,42.447,0,0,0-7.541,2.251,21.074,21.074,0,0,1-5,1.2,9.185,9.185,0,0,1-8.233-2.933,18.148,18.148,0,0,1-2.409-3.307,5.955,5.955,0,0,1-.717-3.96,15.327,15.327,0,0,1,1.137-4.231,11.366,11.366,0,0,1,1.762-2.654l.954.554c-.008.165.023.285-.023.359-.417.693-.835,1.39-1.278,2.063a5.392,5.392,0,0,0-.866,3.612,9.988,9.988,0,0,0,1.471,4.266,1.983,1.983,0,0,0,.167.253,8.775,8.775,0,0,0,7.4,3.475,21.6,21.6,0,0,0,4.771-.833,2.244,2.244,0,0,0,.434-.134,23.406,23.406,0,0,1,3.562-1.263,18.278,18.278,0,0,1,7.457-1.04,17.761,17.761,0,0,1,4.148.858,7.929,7.929,0,0,0,2.385.379c.861.014,1.72.066,2.58.066a6.133,6.133,0,0,0,2.513-.459c1.39-.608,2.788-1.2,4.221-1.681a10,10,0,0,1,6.125-.006C152.522,1510.759,152.294,1510.677,152.149,1510.675Zm-31.426-5.028a3.577,3.577,0,0,0,1.2.046,12.165,12.165,0,0,0,4.631-1.347,19.884,19.884,0,0,1,3.7-1.351,3.906,3.906,0,0,1,1.189-.194,8.451,8.451,0,0,1,3.554.671,18.676,18.676,0,0,0,6.126,1.614,9.016,9.016,0,0,0,3.01-.279,14.819,14.819,0,0,0,2.889-.893,9.651,9.651,0,0,1,6.815-.07c.852.324,1.688.684,2.528,1.036a12.489,12.489,0,0,0,3.514.9c1.809.2,3.615.421,5.421.632a2.053,2.053,0,0,1,.451.061,13.65,13.65,0,0,1,5.8,3.434c-.282.322-.593.221-.871.157a9.605,9.605,0,0,0-6.214.713,17.739,17.739,0,0,1-3.467,1.091,5.752,5.752,0,0,1-3.687-.545c-1.285-.594-2.59-1.153-3.918-1.657a10.519,10.519,0,0,0-7.573-.156c-1.092.4-2.179.817-3.246,1.279a6.352,6.352,0,0,1-3.824.64,4.218,4.218,0,0,0-.91-.034,10.388,10.388,0,0,1-3.286-.463,17.968,17.968,0,0,0-6.14-.786,23.34,23.34,0,0,0-5.776,1.183,5.1,5.1,0,0,1-.863.271,6.208,6.208,0,0,0-1.575.529,16.374,16.374,0,0,1-6.951,1.286,5.885,5.885,0,0,1-3.621-1.38,10.646,10.646,0,0,1-1.494-1.285,8.338,8.338,0,0,1-1.8-4.906,3.752,3.752,0,0,1,.54-2.033c.54-.969,1.137-1.907,1.792-3a2.156,2.156,0,0,1,.639.228c.226.195.379.468.6.684a2.725,2.725,0,0,0,3.325.647c.322-.14.624-.328.885-.47l2.553.289a5.727,5.727,0,0,1,.344.576A5.331,5.331,0,0,0,120.723,1505.647Zm-.963-14.824a13.909,13.909,0,0,1-.806,1.839,14.111,14.111,0,0,0-1.955-5.48,12.4,12.4,0,0,0-4.2-3.853,12.069,12.069,0,0,0-5.424-1.427c-.042-.294-.08-.527-.106-.758-.068-.6-.126-1.2-.2-1.842.1-.047.226-.165.349-.158A17.294,17.294,0,0,1,114,1480.7a9.7,9.7,0,0,1,4.171,3.862c.336.564.632,1.153.938,1.735a8.187,8.187,0,0,1,.854,3.047,2.711,2.711,0,0,1-.206,1.477Zm1.652-6.376c-.179.671-.072,1.423-.58,2.078a3.409,3.409,0,0,1-.626-.988c-.192-.321-.341-.621-.506-.934a12.245,12.245,0,0,0-1.9-2.738,11.932,11.932,0,0,0-5.125-3.128,20,20,0,0,0-5.366-.872c-.292-.014-.584-.052-.872-.078.052-.869.1-1.66.155-2.6.217-.264.694-.277,1.137-.308a11.514,11.514,0,0,1,5.491.858A17.2,17.2,0,0,1,121,1482.3,2.543,2.543,0,0,1,121.412,1484.447Zm.02-3.927a3.559,3.559,0,0,1-.44-.412,18.245,18.245,0,0,0-6.812-5.435,13.006,13.006,0,0,0-6.937-1.166c-.353.032-.7.082-1.055.112a1.764,1.764,0,0,1-.334-.04c-.379-.468-.061-1.067-.235-1.578-.162-.474-.343-.942-.506-1.391.035-.323.292-.416.506-.521a7.063,7.063,0,0,1,5.154-.494,14.489,14.489,0,0,1,4.836,2.108,19.523,19.523,0,0,1,5.342,5.727A3.333,3.333,0,0,1,121.432,1480.521ZM103.5,1465.533a9.3,9.3,0,0,1,4.353-1.109,13.035,13.035,0,0,1,5,1.011,16.807,16.807,0,0,1,4.3,2.78,3.076,3.076,0,0,1,.536.533,19.321,19.321,0,0,1,2.808,5,2.091,2.091,0,0,1-.038.517c-.82-.812-1.494-1.492-2.181-2.149a13.772,13.772,0,0,0-5.666-3.383c-.82-.253-1.649-.468-2.481-.666a7.287,7.287,0,0,0-4.171.379c-.426.149-.839.336-1.314.528a8.332,8.332,0,0,0-.523-1.706,6.523,6.523,0,0,0-1.1-1.2C103.032,1465.748,103.286,1465.64,103.5,1465.533Zm-5.4,3.228a3.115,3.115,0,0,1,.676-.337,7.36,7.36,0,0,0,2.126-1.148,1.621,1.621,0,0,1,1.725-.126,1.127,1.127,0,0,1,.771,1.034,2.054,2.054,0,0,1-.253,1.379,2.669,2.669,0,0,1-2.676.307,6.352,6.352,0,0,0-2.2-.505c-.126,0-.253-.127-.412-.216C97.949,1468.994,97.993,1468.832,98.1,1468.762Z" transform="translate(-81.771 -1307.52)" fill="#ff8000"/>
        <path id="Pfad_158" data-name="Pfad 158" d="M841.18,1102.06a8.721,8.721,0,1,0,8.721,8.721A8.72,8.72,0,0,0,841.18,1102.06Zm0,15.924a7.2,7.2,0,1,1,7.2-7.2,7.2,7.2,0,0,1-7.2,7.2Z" transform="translate(-739.048 -977.818)" fill="#ff8000"/>
        <path id="Pfad_159" data-name="Pfad 159" d="M196.065,116.148c-5.12-22.605-12.45-42.91-21.789-60.352a156.033,156.033,0,0,0-15.069-23.217A106.954,106.954,0,0,0,141.88,15.018a73.523,73.523,0,0,0-19.2-11.128,56.816,56.816,0,0,0-41.317,0,73.437,73.437,0,0,0-19.2,11.128A107.043,107.043,0,0,0,44.842,32.578,156.033,156.033,0,0,0,29.773,55.794C20.434,73.238,13.1,93.543,7.984,116.148A335.012,335.012,0,0,0,0,190a335.012,335.012,0,0,0,7.984,73.852c5.12,22.605,12.45,42.91,21.789,60.352a156.033,156.033,0,0,0,15.069,23.217,106.953,106.953,0,0,0,17.327,17.561,73.524,73.524,0,0,0,19.2,11.128,56.816,56.816,0,0,0,41.317,0,73.436,73.436,0,0,0,19.2-11.128,107.046,107.046,0,0,0,17.327-17.561,155.746,155.746,0,0,0,15.069-23.217c9.339-17.448,16.67-37.747,21.789-60.352A335.03,335.03,0,0,0,204.049,190,335.011,335.011,0,0,0,196.065,116.148ZM30.877,56.385a162.022,162.022,0,0,1,10.817-17.54c.623,1.3,1.331,3.224,1.813,4.4.566,1.385,1.106,2.783,1.651,4.177.528,1.353,1.045,2.709,1.575,4.062s1.07,2.7,1.6,4.05,1.063,2.7,1.6,4.058c.546,1.395,1.085,2.792,1.634,4.186q.793,2.028,1.607,4.049a43.888,43.888,0,0,0,1.7,4.1,5.141,5.141,0,0,0,.818-1.4c-1.36-3.616-2.832-7.232-4.244-10.863q-2.153-5.518-4.33-11.026c-1.377-3.5-3.025-7.668-4.411-11.187q1.537-2.1,3.113-4.092a112.759,112.759,0,0,1,11.467-12.5c.625,2.21,3.636,13.778,5.179,19.714l4.624,17.788c.067.255.043.556.376.722a1.566,1.566,0,0,0,.974-.722c-.548-2.53-1.3-5.047-1.926-7.591s-1.309-5.1-1.974-7.645c-.68-2.589-1.37-5.175-2.046-7.764-.665-2.547-1.313-5.1-1.977-7.643-.637-2.44-1.392-5.539-1.987-7.981q2.188-1.965,4.419-3.727A73.6,73.6,0,0,1,78.818,6.276c.113,1.225.639,5.134.849,6.911.212,1.8.442,3.605.659,5.408.246,2.028.485,4.056.732,6.084.215,1.756.444,3.512.656,5.268.233,1.937.443,3.877.68,5.813.227,1.891.5,3.778.73,5.671.227,1.846.4,3.7.646,5.541a35.033,35.033,0,0,0,.537,3.746,2.138,2.138,0,0,0,1.232-.306c-.079-1.6-.365-3.2-.535-4.813-.177-1.67-.436-3.33-.648-5-.206-1.621-.4-3.244-.6-4.866q-.306-2.5-.613-5c-.2-1.621-.386-3.245-.59-4.866-.208-1.667-.429-3.331-.645-5-.21-1.62-.424-3.239-.627-4.86-.21-1.665-.4-3.333-.611-5-.19-1.511-.531-3.686-.653-5.255a56.7,56.7,0,0,1,21.418-4.513c0,1.745.018,7.737.017,10.658q-.009,17.035-.012,34.071a4.872,4.872,0,0,0,.071,1.409,1.5,1.5,0,0,0,1.17.1c.125-1.586.036-3.12.054-4.652.018-1.5,0-3,0-4.5V33.7c0-1.5-.008-3-.009-4.5V24.573c0-1.544-.014-3.088-.016-4.634v-4.5c0-1.544-.009-3.088-.012-4.634,0-1.5-.01-3-.007-4.5,0-1.456-.032-3.5.016-5.064a56.771,56.771,0,0,1,21.551,4.608c-.375,2.738-.993,7.628-1.32,10.182-.417,3.241-.849,6.479-1.255,9.722-.316,2.522-.595,5.047-.906,7.571-.318,2.567-.665,5.131-.987,7.7-.315,2.522-.613,5.045-.919,7.568-.07.583-.144,1.166-.213,1.73a1.546,1.546,0,0,0,1.165.471,4.5,4.5,0,0,0,.36-1.562q.651-5.267,1.3-10.537c.4-3.286.78-6.58,1.177-9.869.332-2.747.68-5.493,1.02-8.241.318-2.659.614-5.325.926-7.981.172-1.48.653-5,.847-6.238a74.243,74.243,0,0,1,15.653,9.619q2.332,1.841,4.616,3.908c-.441,2.144-2.292,8.867-3.1,11.972q-1.36,5.268-2.719,10.542-2.024,7.774-4.048,15.547a2.435,2.435,0,0,0-.035.4,1.509,1.509,0,0,0,.93.714c.27-.1.3-.333.359-.552l2.946-11.33q1.863-7.182,3.718-14.366c.793-3.043,2.5-9.677,3.079-11.886a112.8,112.8,0,0,1,11.376,12.412q1.637,2.064,3.231,4.254C160,41.364,155.4,53.015,153.168,58.7q-2.069,5.258-4.131,10.519c-.165.42-.314.846-.492,1.33.227.423.453.857.68,1.281.431-.123.465-.484.576-.761q1.537-3.852,3.048-7.727,3.18-8.112,6.355-16.226c.709-1.813,2.388-6.186,3.23-8.164a162.149,162.149,0,0,1,10.747,17.434q.349.65.692,1.309c-1.221,2.293-6.118,11.322-8.093,14.929q-4.83,8.847-9.67,17.69-4.079,7.478-8.142,14.955-5.149,9.448-10.31,18.892-6.324,11.6-12.642,23.2l-9.324,17.1q-3.2,5.86-6.388,11.721a5.255,5.255,0,0,1-.466.7c-.174-.091-.351-.179-.53-.263a3.125,3.125,0,0,1,.2-.5c1-2.581,2.021-5.154,3.034-7.731q4.232-10.771,8.462-21.545,4.717-11.971,9.449-23.936,4.489-11.4,8.951-22.816,3.9-9.95,7.8-19.9a17.758,17.758,0,0,0,.762-2.046c-.671.053-.671.053-1.763.781-3.409,8.7-6.844,17.5-10.3,26.285S128,122.769,124.5,131.662c-.836-.926-1.55-1.795-2.348-2.579-.772-.76-1.628-1.434-2.454-2.153a4.34,4.34,0,0,1,.128-1.628c.537-2.112,1.051-4.228,1.6-6.337q2.73-10.537,5.478-21.08,1.111-4.28,2.216-8.576c-.6.041-.6.041-1.549.606-1.079,3.9-2.058,7.9-3.116,11.887s-2.084,7.991-3.119,11.988-2.072,7.98-3.092,11.905a1.86,1.86,0,0,1-.233.085.22.22,0,0,1-.128-.01,40.305,40.305,0,0,0-4.495-2.266c-.668-.274-1.339-.543-2.059-.835a5.469,5.469,0,0,1-.046-.945c.3-2.43.636-4.857.94-7.287.227-1.846.428-3.695.657-5.54.317-2.565.659-5.127.972-7.692.274-2.246.523-4.5.779-6.717-.242-.257-.453-.074-.657-.027s-.432.108-.706.177c-.1.492-.227.971-.287,1.457-.218,1.711-.412,3.424-.619,5.136q-.333,2.771-.673,5.541-.355,2.906-.715,5.811c-.238,1.89-.486,3.78-.724,5.671-.125.99-.235,1.983-.361,2.973-.034.262-.105.519-.171.832-1.181-.092-2.243-.519-3.354-.68s-2.241-.316-3.326-.468c-.331-.262-.253-.6-.253-.906q-.01-4.225-.007-8.449v-13.9a4.55,4.55,0,0,0-.1-1.473,1.075,1.075,0,0,0-1.058-.113c-.283.34-.172.769-.173,1.162-.009,2.907,0,5.814,0,8.724v13.629c0,.4-.034.8-.054,1.258-1.191.283-2.366.34-3.512.534a33.322,33.322,0,0,1-3.365.688c-.534-3.045-.775-6.072-1.187-9.074-.419-3.059-.787-6.118-1.14-9.187-.348-3.018-.695-6.036-1.147-9.106l-1.36-.4a5.354,5.354,0,0,0,.071,1.38,10.3,10.3,0,0,0,.12,1.219c.133,1.033.274,2.067.407,3.1.255,1.979.513,3.957.758,5.937.211,1.711.4,3.424.6,5.135q.34,2.832.693,5.673c.213,1.711.434,3.419.644,5.13a6.272,6.272,0,0,1,0,.719c-1.133.627-2.379.953-3.493,1.535L86.269,125.8c-.3-.093-.33-.326-.386-.545q-1.485-5.731-2.974-11.462-2.921-11.206-5.833-22.4c-.126-.482-.257-.96-.384-1.431a3.978,3.978,0,0,0-1.413-.768c-.227.187-.077.364-.037.519q1.127,4.419,2.266,8.837,2.367,9.088,4.728,18.176c.739,2.856,1.448,5.719,2.176,8.578a4.279,4.279,0,0,1,.128,1.618c-.863.756-1.716,1.5-2.564,2.247-.808.714-1.378,1.653-2.224,2.525-3.519-8.934-6.983-17.71-10.431-26.49S62.435,87.622,58.986,78.817l-1.539-.829c-.239.272-.1.484-.024.68q1.055,2.732,2.123,5.456,4.778,12.168,9.558,24.335,4.508,11.469,9.024,22.935,2.791,7.094,5.583,14.188L90.094,161.8q2.693,6.842,5.391,13.681c.14.357.269.717.4,1.068-.189.087-.376.177-.561.272-.152-.238-.3-.477-.435-.724q-4.079-7.478-8.147-14.955-3.653-6.7-7.308-13.392-5.533-10.17-11.059-20.344c-2.3-4.226-4.634-8.437-6.938-12.663q-5.35-9.793-10.675-19.611-5.8-10.65-11.611-21.286Q35.521,67.21,31.9,60.576c-.409-.751-1.133-2.022-1.658-3,.208-.4.417-.8.629-1.191ZM13.9,98.418c1.936,1.985,7.1,7.4,9.543,9.97q7.138,7.5,14.275,15,5.118,5.38,10.233,10.763,7.175,7.559,14.343,15.124,6,6.321,12.025,12.627,5.308,5.575,10.61,11.154l5.821,6.118c.2.207.386.421.574.636q-.323.34-.623.7c-.249-.169-.477-.376-.715-.566q-5.778-4.551-11.556-9.111-10.754-8.47-21.514-16.933-9.738-7.67-19.469-15.347c-4.735-3.748-9.441-7.532-14.162-11.292a4.3,4.3,0,0,0-1.473-.987,1.132,1.132,0,0,0-.36.135c-.46.4-.518.773-.148,1.15a11.772,11.772,0,0,0,1.115,1q5.944,4.675,11.9,9.339,9.9,7.795,19.786,15.6,6.154,4.843,12.327,9.662l18.64,14.627q2.359,1.849,4.714,3.7c.035.027.068.058.1.087-.177.254-.347.513-.508.778-.169-.08-.331-.16-.485-.249Q77.906,175.8,66.927,169.481q-12.576-7.225-25.159-14.44c-1.142-.655-2.278-1.319-3.425-1.967a6.271,6.271,0,0,0-.98-.453.54.54,0,0,0-.605.206.631.631,0,0,0-.008.759,3.272,3.272,0,0,0,.636.5c1.133.664,2.282,1.313,3.425,1.968l23.045,13.195q11.815,6.774,23.621,13.562c.42.241.837.487,1.246.743q-.113.24-.227.485c-.211-.068-.4-.162-.591-.24q-2.889-1.19-5.788-2.393L57.078,171.038c-2.725-1.127-5.446-2.266-8.177-3.38-.446-.184-.894-.494-1.517-.2a.693.693,0,0,0-.136.68c.032.181.252.364.432.476a4.991,4.991,0,0,0,.753.313l27.329,11.223,11.714,4.807c.187.077.376.152.566.235-.063.185-.124.372-.18.559h-.02q-3.018-.829-6.038-1.653l-19.7-5.352c-1.182-.322-2.359-.662-3.539-.986-.435-.12-.874-.227-1.227-.31-.625-.043-.776.785-.48,1.109a1.889,1.889,0,0,0,.93.393c3.016.833,6.038,1.651,9.057,2.473q10.112,2.753,20.221,5.512c.152.042.313.07.466.12q-.062.307-.113.62c-.6-.076-1.2-.169-1.8-.258l-8.751-1.3c-1.974-.3-3.945-.613-5.919-.906-1.167-.174-2.336-.331-3.505-.485a2.277,2.277,0,0,0-.68,0,.506.506,0,0,0-.428.465.638.638,0,0,0,.267.576,1.737,1.737,0,0,0,.906.276c3.413.492,6.828.966,10.241,1.455q4.758.68,9.517,1.381c-.017.219-.028.44-.035.661a9.288,9.288,0,0,1-.988.039q-5.582-.041-11.163-.094c-.5,0-1-.011-1.5.015a.843.843,0,0,0-.591.144.679.679,0,0,0,.127,1.02,3.389,3.389,0,0,0,1.473.143c3.224.016,6.449.014,9.672.033,1,0,2,.054,2.993.1h0c.012.2.028.4.048.594-.793.113-1.593.212-2.389.318q-3.033.411-6.067.829a1.561,1.561,0,0,0-.632.206.68.68,0,0,0-.249.453.716.716,0,0,0,.453.64,2.1,2.1,0,0,0,.825-.039c1.621-.193,3.24-.412,4.859-.625.9-.113,1.8-.257,2.7-.359a4.423,4.423,0,0,1,.715-.017q.067.329.147.649a4.872,4.872,0,0,1-.54.16c-.741.215-1.492.392-2.235.6a7.379,7.379,0,0,0-1.028.352.989.989,0,0,0-.376.373.547.547,0,0,0,.415.813,4.126,4.126,0,0,0,.932-.142c1.055-.273,2.1-.576,3.156-.843a.62.62,0,0,1,.063-.011q.1.291.214.574c-.508.227-1.02.436-1.522.68a2.687,2.687,0,0,0-.546.391.705.705,0,0,0-.124.238.639.639,0,0,0,.385.651c.088.014.19.06.264.033.554-.2,1.1-.416,1.652-.625l.431-.164q.13.261.272.513c-.261.17-.516.34-.757.521a.677.677,0,0,0-.019,1.183c.467.1.983-.347,1.456-.6.151.227.308.442.47.656-.165.227-.479.431-.442.7-.02.323.262.55.605.624.2.026.443-.2.63-.323.008,0,.017-.009.026-.015.193.213.391.419.6.621a.448.448,0,0,1-.02.1.548.548,0,0,0,.493.655.351.351,0,0,0,.274-.062,14.758,14.758,0,0,0,19.3-.043l.327.1a.59.59,0,0,0,.573-.745,1.115,1.115,0,0,0-.037-.168c.174-.177.34-.358.509-.544.212.134.4.366.691.355.34-.046.534-.27.615-.68l-.47-.7c.138-.187.274-.378.4-.566a6.015,6.015,0,0,0,1.337.665c.376-.041.632-.2.667-.446a.83.83,0,0,0-.382-.732c-.3-.227-.628-.409-.928-.632.088-.16.172-.322.254-.486.786.22,1.506.715,2.307.871a2.757,2.757,0,0,0,.4-.113.6.6,0,0,0,.266-.466c.006-.3-.3-.488-.5-.605-.471-.266-.989-.453-1.481-.68a4.856,4.856,0,0,1-.44-.249q.1-.248.184-.5a.877.877,0,0,1,.106.02c1.055.269,2.105.559,3.159.833a6.91,6.91,0,0,0,.928.188.531.531,0,0,0,.557-.306.6.6,0,0,0-.168-.734,4.746,4.746,0,0,0-.985-.437c-.827-.241-1.669-.433-2.493-.67a2.606,2.606,0,0,1-.706-.238c.048-.195.092-.39.13-.587a12.9,12.9,0,0,1,1.306.087c1.8.227,3.6.472,5.4.71.539.071,1.077.165,1.62.2a3.276,3.276,0,0,0,.961.052.7.7,0,0,0,.453-.64.687.687,0,0,0-.25-.453,1.6,1.6,0,0,0-.633-.205c-1.3-.193-2.606-.381-3.906-.553-1.528-.2-3.059-.383-4.59-.585a.735.735,0,0,1-.142-.033c.017-.178.032-.357.043-.536a.906.906,0,0,1,.213-.036c1.042-.042,2.086-.088,3.128-.1,3.179-.019,6.358-.017,9.537-.032a3.52,3.52,0,0,0,1.449-.136.7.7,0,0,0,.1-1.057,1.863,1.863,0,0,0-.861-.122c-2.361,0-4.722.021-7.085.039-2,.016-3.99.039-5.987.049a1.839,1.839,0,0,1-.469-.028c-.007-.211-.017-.421-.033-.631a1.226,1.226,0,0,1,.2-.043c1.346-.194,2.694-.382,4.041-.576q3.368-.485,6.737-.974t6.736-.968c.764-.113,1.528-.2,2.291-.322a4.142,4.142,0,0,0,.782-.227.6.6,0,0,0,.322-.68.512.512,0,0,0-.474-.418,3.737,3.737,0,0,0-.811.029q-2.427.34-4.85.69-4.242.625-8.48,1.264c-2.064.312-4.125.637-6.189.948a2.341,2.341,0,0,1-.446.023c-.026-.17-.057-.34-.09-.506,1.644-.573,3.286-.946,4.914-1.392,1.706-.468,3.417-.921,5.123-1.387q2.625-.715,5.249-1.445c1.7-.47,3.408-.947,5.114-1.414,1.75-.479,3.5-.947,5.253-1.425,1.7-.465,3.278-.837,4.9-1.379a.627.627,0,0,0,.522-.7.6.6,0,0,0-.767-.539c-1.289.236-2.432.636-3.739.981-1.272.334-2.537.7-3.806,1.042q-1.97.536-3.942,1.064c-1.313.353-2.628.7-3.942,1.059-1.27.346-2.536.7-3.8,1.051-1.313.359-2.629.709-3.94,1.067-1.27.34-2.537.7-3.806,1.043l-3.66,1q-.078-.262-.164-.52c.242-.113.476-.212.71-.308l22.175-9.081q8.5-3.49,16.995-7a3.571,3.571,0,0,0,.625-.264c.185-.123.406-.291.44-.471a.664.664,0,0,0-.126-.68,1.327,1.327,0,0,0-1.262.085q-1.826.75-3.649,1.506-17.674,7.317-35.349,14.63c-.34.141-.68.267-1.02.393q-.1-.237-.214-.468c.083-.054.178-.1.261-.143q4.248-2.451,8.5-4.889l16.179-9.29q6.911-3.965,13.829-7.916,6.145-3.518,12.287-7.041a8.178,8.178,0,0,0,.925-.573.877.877,0,0,0,.249-.463c.1-.369-.271-.793-.622-.69a4.539,4.539,0,0,0-.99.423c-1.108.623-2.2,1.271-3.3,1.9l-32.361,18.581q-7.443,4.272-14.88,8.546c-.227.129-.461.246-.713.372q-.227-.38-.475-.743a1.572,1.572,0,0,1,.185-.174q4.606-3.616,9.22-7.226l9.97-7.818q5.146-4.035,10.292-8.066,7.017-5.511,14.027-11.03,4.765-3.739,9.536-7.478,7.226-5.686,14.441-11.385a10.414,10.414,0,0,0,1.011-.906c.411-.425.33-.842-.214-1.228a.811.811,0,0,0-.257-.075,2.468,2.468,0,0,0-1.148.7c-2.946,2.344-5.891,4.7-8.837,7.048q-6.613,5.254-13.238,10.49-7.38,5.787-14.773,11.588-9.473,7.455-18.94,14.919-5.564,4.385-11.119,8.779c-.312.245-.636.479-.983.733-.182-.221-.373-.436-.566-.645a6.844,6.844,0,0,1,.453-.544q4.366-4.592,8.74-9.177,5.26-5.527,10.513-11.059,8.45-8.885,16.9-17.766,5.258-5.527,10.52-11.052,7.081-7.46,14.154-14.928,3.33-3.512,6.665-7.01,4.362-4.593,8.724-9.191c.211-.221.435-.432.68-.668q2.567,8.674,4.655,17.882A333.764,333.764,0,0,1,202.806,190a333.763,333.763,0,0,1-7.953,73.577c-5.1,22.5-12.387,42.7-21.673,60.039a154.706,154.706,0,0,1-14.946,23.032A105.952,105.952,0,0,1,141.111,364c-12.388,9.786-25.537,14.748-39.088,14.748S75.328,373.788,62.936,364a105.856,105.856,0,0,1-17.122-17.358,154.708,154.708,0,0,1-14.946-23.032C21.577,306.269,14.29,286.069,9.2,263.573A333.985,333.985,0,0,1,1.246,190,333.763,333.763,0,0,1,9.2,116.423q2.1-9.27,4.693-18.009Zm6.458-18.988c4.9,6.655,49.525,68.053,72.2,99.234-.085.071-.17.144-.254.218C67.76,153.091,20.258,103.069,14.373,96.816q2.735-9,5.979-17.389ZM97.1,176.019c-.566-1.433-1.133-2.869-1.689-4.305q-3.315-8.484-6.632-16.969c-2.217-5.654-4.449-11.3-6.656-16.96-.156-.4-.44-.8-.3-1.28a1.827,1.827,0,0,1,.453.219,28.605,28.605,0,0,0,5.86,3.929,2.92,2.92,0,0,1,.4.34c2.981,11.582,6.081,23.226,9.023,34.915-.151.048-.3.1-.453.151Zm24.862-41.251a24.017,24.017,0,0,1-6.6,4.749,33.622,33.622,0,0,1-9.79,3.217,21.666,21.666,0,0,1-7.714-.16A33.219,33.219,0,0,1,86.5,138.167a21.143,21.143,0,0,1-4.233-3.406,7.614,7.614,0,0,1-1.5-1.966,5.824,5.824,0,0,1,1.323-1.86A21.765,21.765,0,0,1,86.941,127a32.211,32.211,0,0,1,11.518-4.346,22.417,22.417,0,0,1,8.659.255,31.956,31.956,0,0,1,11.649,5.08,18.412,18.412,0,0,1,4.242,4c.161.216.293.453.483.747a7.983,7.983,0,0,1-1.532,2.03Zm.581,1.6c0,.029,0,.074-.019.086a.172.172,0,0,1-.079.025Zm67.208-39.314a3.594,3.594,0,0,1-.271.326q-6.577,6.911-13.161,13.8-5.778,6.064-11.563,12.131-6.1,6.418-12.177,12.859-2.531,2.67-5.073,5.325l-12.317,12.916q-4.181,4.389-8.345,8.8-5.212,5.482-10.423,10.96-1.926,2.023-3.837,4.058c-.215.227-.421.47-.68.77-.086-.078-.174-.155-.263-.227.511-.747,1.02-1.5,1.547-2.231q35.294-48.459,70.59-96.91,3.247,8.4,5.976,17.424ZM102.024,203.539A13.539,13.539,0,1,1,115.563,190a13.539,13.539,0,0,1-13.539,13.539ZM101,175.251c-.113-.793-.227-1.586-.325-2.379-.227-1.891-.429-3.784-.656-5.674-.189-1.575-.4-3.149-.6-4.722q-.367-2.9-.728-5.8c-.241-1.933-.487-3.867-.724-5.8q-.4-3.307-.793-6.617c-.009-.079.05-.165.12-.38l3.852.421a1.041,1.041,0,0,1,.283.971q.014,4.831.011,9.665v19.875c0,.143-.008.284-.018.426-.147,0-.287.009-.426.019Zm-2.027.281a7.713,7.713,0,0,1-.235-.735q-2.845-10.929-5.68-21.866-1.349-5.2-2.682-10.409c-.053-.207-.075-.423-.139-.793,1.875.632,3.546,1.2,5.212,1.764.039.012.066.061.16.153.113.918.249,1.9.374,2.886.356,2.787.717,5.574,1.059,8.364.308,2.521.586,5.045.9,7.566.319,2.606.664,5.212.994,7.818.2,1.574.4,3.149.576,4.726a2.822,2.822,0,0,1,.008.417c-.18.037-.363.077-.544.111Zm3.815-30.3c0-.266.046-.532.07-.793a1.571,1.571,0,0,1,.4-.18c1.211-.131,2.423-.249,3.7-.377a1.953,1.953,0,0,1,.086.519c-.382,3.1-.782,6.2-1.162,9.305-.321,2.606-.615,5.212-.934,7.825-.2,1.663-.436,3.323-.642,4.985-.233,1.889-.453,3.778-.68,5.665-.113.945-.221,1.89-.34,2.832a1.246,1.246,0,0,1-.05.246c-.122-.01-.245-.018-.368-.025-.151-3.362-.21-23.339-.082-30Zm2.482,30.343c-.188-.042-.376-.08-.566-.113a3.217,3.217,0,0,1,.049-.764q.381-3.1.774-6.2c.318-2.516.647-5.03.959-7.547.227-1.843.429-3.69.658-5.533s.48-3.68.709-5.522.438-3.69.659-5.535c.032-.264.084-.525.129-.8a19.158,19.158,0,0,1,2.6-.854c.845-.307,1.7-.623,2.529-.928.258.2.188.415.13.633q-1.687,6.442-3.371,12.888-1.829,7.037-3.635,14.084c-.465,1.8-.914,3.6-1.4,5.394a4.281,4.281,0,0,1-.219.8Zm1.824.536c-.161-.059-.323-.113-.485-.167.016-.1.044-.191.069-.285q.526-2.039,1.06-4.079l7.818-30.024c.057-.218.13-.429.2-.644a3.852,3.852,0,0,1,.453-.322,28.458,28.458,0,0,0,5.538-3.692c.2-.165.349-.423.662-.4a2.763,2.763,0,0,1-.406,1.536c-.655,1.74-1.36,3.464-2.033,5.195l-7.648,19.513q-2.558,6.526-5.112,13.053a2.589,2.589,0,0,1-.117.314ZM81.776,136.392a.211.211,0,0,1,.026.078l-.113-.1C81.722,136.377,81.763,136.374,81.776,136.392ZM183.227,78.224q-36.306,49.738-72.616,99.464a1.257,1.257,0,0,1-.159.171c-.142-.1-.283-.195-.428-.288h0q.906-1.679,1.813-3.354l11.216-20.565q6.774-12.437,13.539-24.879,3.974-7.3,7.967-14.579,3.487-6.4,6.961-12.8,4.915-9.031,9.833-18.061,6.089-11.184,12.181-22.367c.227-.418.594-1.1,1.074-1.844a209.524,209.524,0,0,1,8.619,19.1ZM31.965,63.269q4.594,8.43,9.177,16.867l15.3,28.111q4.951,9.091,9.912,18.172c2.843,5.223,5.665,10.457,8.511,15.678q4.922,9.028,9.869,18.04,3.95,7.232,7.879,14.473c.5.918,1,1.833,1.491,2.754.02.039.037.079.054.12q-.235.148-.462.3c-.077-.092-.136-.191-.2-.281q-2.29-3.135-4.57-6.277-7.1-9.744-14.2-19.481-6.969-9.576-13.946-19.155-6.017-8.253-12.051-16.5L34.178,96.19c-3.4-4.638-10.99-15-13.286-18.147A209,209,0,0,1,29.52,58.96c.785,1.354,1.92,3.346,2.445,4.31Z" transform="translate(0 0)" fill="#ff8000"/>
      </g>
    </g>
  </g>
</svg>
