<svg xmlns="http://www.w3.org/2000/svg" width="204.049" height="380" viewBox="0 0 204.049 380">
  <g id="Gruppe_217" data-name="Gruppe 217" transform="translate(-78 -489)">
    <ellipse id="Ellipse_40" data-name="Ellipse 40" cx="101.744" cy="189.775" rx="101.744" ry="189.775" transform="translate(78 489)" fill="#0a1a16"/>
    <g id="Warstwa_2" data-name="Warstwa 2" transform="translate(78 489)">
      <g id="Warstwa_1" data-name="Warstwa 1" transform="translate(0 0)">
        <path id="Pfad_39" data-name="Pfad 39" d="M359.387,467.636c-1.01,1.322-1.988,2.677-3.109,3.912-.239.264-.459.547-.687.822-.938,1.126-1.871,2.26-2.817,3.379-.536.636-1.138,1.218-1.636,1.883-1.022,1.367-2.02,2.751-2.981,4.166a39.169,39.169,0,0,0-2.829,4.981c-.208.43-.421.86-.659,1.273a30.713,30.713,0,0,0-2.806,6.721c-.18.613-.35,1.23-.5,1.851-.315,1.281-.658,2.556-.914,3.85a24.55,24.55,0,0,0-.538,4.646,50.947,50.947,0,0,0,1.648,14.747c.456,1.7,1.034,3.36,1.581,5.029a20.339,20.339,0,0,0,.853,2.235q.985,2.115,2.063,4.184c.665,1.266,1.388,2.508,2.1,3.753.176.311.393.6.6.891q.65.927,1.31,1.847a20.546,20.546,0,0,0,1.347,1.813c.69.76,1.459,1.444,2.192,2.165a56,56,0,0,0,5.735,4.948c.946.709,1.872,1.446,2.806,2.165.594.46,1.175.933,1.8,1.339a46.888,46.888,0,0,0,4.9,2.825,77.44,77.44,0,0,0,9.884,3.734c.074.024.153.031.224.05,2.618.649,5.235,1.307,7.856,1.941.682.166,1.38.266,2.073.379.578.094,1.159.163,1.74.246,1.2.17,2.394.387,3.591.5,1.4.136,2.806.2,4.209.268,1.171.054,2.33.245,3.507.214,1.366-.036,2.73,0,4.1-.127,1.709-.165,3.429-.23,5.145-.334.156-.01.312-.018.467-.04,1.9-.266,3.791-.529,5.684-.805.464-.068.921-.17,1.378-.277,1.826-.43,3.655-.848,5.474-1.31a50.393,50.393,0,0,0,4.961-1.424c1.545-.566,3.1-1.092,4.637-1.687a36,36,0,0,0,5.811-2.84,26.989,26.989,0,0,0,4.265-2.958c.174-.159.382-.28.57-.422.94-.717,1.887-1.427,2.818-2.156a66.732,66.732,0,0,0,5.561-4.975,16.91,16.91,0,0,0,2.357-2.658c.667-1,1.382-1.942,2.06-2.922a11.3,11.3,0,0,0,.673-1.124c.868-1.611,1.741-3.221,2.581-4.854a30.264,30.264,0,0,0,1.531-3.242c.667-1.795,1.235-3.631,1.809-5.459a45.391,45.391,0,0,0,1.392-6.691c.2-1.3.361-2.619.449-3.935.084-1.2.066-2.4.07-3.607a28.5,28.5,0,0,0-.322-4.791,67.082,67.082,0,0,0-2.156-8.6c-.14-.46-.359-.888-.524-1.338a61.866,61.866,0,0,0-3.219-6.54,31.57,31.57,0,0,0-2.873-4.672c-.547-.732-1.072-1.48-1.625-2.206-.456-.6-.927-1.186-1.413-1.758-.673-.786-1.368-1.541-2.033-2.329q-1.416-1.682-2.8-3.4c-.772-.957-1.529-1.927-2.279-2.9-.8-1.035-1.552-2.114-2.388-3.118-1.09-1.309-2.254-2.554-3.36-3.85-.617-.721-1.191-1.483-1.771-2.237-.386-.5-.732-1.035-1.129-1.535q-2.126-2.646-4.162-5.358a87.694,87.694,0,0,1-5.629-8.284c-.685-1.167-1.43-2.3-2.149-3.443-.8-1.279-1.653-2.531-2.4-3.846a26,26,0,0,1-1.6-3.337c-.449-1.151-.857-2.316-1.33-3.458-.673-1.622-1.2-3.306-1.908-4.908-.875-1.977-1.489-4.043-2.2-6.078-.106-.3-.2-.609-.279-.921-.508-1.889-.973-3.8-1.532-5.669s-.956-3.8-1.356-5.71a13.474,13.474,0,0,1-.194-1.419c-.09-.92-.121-1.841-.233-2.754-.283-2.3-.836-4.567-.963-6.894a22.149,22.149,0,0,1-.441-3.567c-.29-2.552-.238-5.121-.422-7.68-.089-1.236-.017-2.484-.018-3.727,0-2.245,0-4.487-.013-6.733a8.327,8.327,0,0,1,1.108-4.242,3.481,3.481,0,0,1,1.683-1.611,6.707,6.707,0,0,0,1.844-1.266,3.427,3.427,0,0,0,.842-3.628,4.3,4.3,0,0,0-1.973-2.3,6.723,6.723,0,0,0-2.787-.856c-.624-.04-1.249-.07-1.873-.072-2.346-.008-4.692,0-7.038,0h-7.508a8.707,8.707,0,0,0-3.77.72,4.475,4.475,0,0,0-2.385,2.519,3.426,3.426,0,0,0,.859,3.623,6.877,6.877,0,0,0,1.846,1.266,3.4,3.4,0,0,1,1.614,1.51,8.1,8.1,0,0,1,1.154,3.986v1.2c0,2.726.043,5.451-.015,8.176s-.214,5.444-.329,8.169c0,.039-.011.079-.015.115-.059.679-.112,1.358-.181,2.036a14.022,14.022,0,0,1-.164,1.427,14.877,14.877,0,0,0-.286,2.261,7.189,7.189,0,0,1-.112.831,56.245,56.245,0,0,0-.868,6.546,14.176,14.176,0,0,1-.256,2.034c-.224,1.177-.488,2.346-.741,3.517-.067.313-.146.624-.232.931-.633,2.271-1.279,4.538-1.9,6.811a63.732,63.732,0,0,1-2.156,6.474c-.175.445-.375.88-.549,1.327q-.786,2.008-1.552,4.02c-.485,1.266-1.086,2.481-1.474,3.79a12.1,12.1,0,0,1-.765,1.751,32.409,32.409,0,0,1-2.16,3.85q-.886,1.343-1.735,2.712c-.841,1.351-1.67,2.71-2.5,4.069a74.283,74.283,0,0,1-4.714,6.738c-.727.942-1.387,1.94-2.132,2.866-1.194,1.483-2.432,2.929-3.479,4.531a6.356,6.356,0,0,1-.508.66c-1.214,1.412-2.415,2.837-3.656,4.223C361.153,465.292,360.281,466.473,359.387,467.636Zm7.155-6.673a9.113,9.113,0,0,0,.651-.85,53.13,53.13,0,0,1,3.495-4.521c.3-.366.585-.753.867-1.136q1.488-2.011,2.967-4.027c1.318-1.795,2.514-3.673,3.673-5.577.952-1.564,1.973-3.083,2.892-4.665a30.355,30.355,0,0,0,2.475-4.355,4.16,4.16,0,0,1,.522-.939,7.929,7.929,0,0,0,1.11-2.5,7.89,7.89,0,0,1,.44-1.238c.815-1.69,1.474-3.452,2.117-5.21q.119-.4.277-.79a52.2,52.2,0,0,0,2.305-6.294c.416-1.248.709-2.539,1.058-3.812s.691-2.544,1.046-3.813a23.29,23.29,0,0,0,.589-2.446c.192-1.143.457-2.271.689-3.407a3.565,3.565,0,0,0,.1-.59,74.165,74.165,0,0,1,.843-7.634c.059-.435.07-.878.123-1.314a2.97,2.97,0,0,1,.181-.932,3.835,3.835,0,0,0,.337-1.511c.089-1.726.167-3.441.258-5.161.064-1.2.176-2.4.2-3.6.04-1.841.027-3.682.036-5.528.009-1.8-.019-3.608.034-5.408a9.651,9.651,0,0,0-1.288-5.166,4.517,4.517,0,0,0-2.01-1.949,6.677,6.677,0,0,1-1.668-1.1,2.121,2.121,0,0,1-.561-2.5,3.1,3.1,0,0,1,1.607-1.672,6.875,6.875,0,0,1,3.166-.69c2.581.082,5.163.026,7.744.026s5.163.055,7.744-.026a6.84,6.84,0,0,1,3.165.69,3.119,3.119,0,0,1,1.653,1.784,2.107,2.107,0,0,1-.529,2.307,5.551,5.551,0,0,1-1.554,1.062,5.008,5.008,0,0,0-2.448,2.477,9.6,9.6,0,0,0-1.05,4.629q.058,3.968.045,7.939c-.007,1.522-.008,3.044.075,4.564q.2,3.6.4,7.2a3.667,3.667,0,0,0,.347,1.629,1.913,1.913,0,0,1,.156.69c.189,1.51.375,3.019.55,4.529.148,1.271.351,2.537.387,3.82a18.72,18.72,0,0,0,.582,3.664,5.936,5.936,0,0,1,.137.585,42.641,42.641,0,0,0,1.319,5.1c.4,1.422.754,2.86,1.139,4.287.167.617.348,1.23.55,1.841.643,1.932,1.272,3.866,2.1,5.732.673,1.53,1.211,3.126,1.815,4.69.129.335.3.654.43.985.209.517.437,1.027.6,1.559a8.061,8.061,0,0,0,1.122,2.5,3.82,3.82,0,0,1,.469.831,17.467,17.467,0,0,0,1.607,2.926q2.252,3.586,4.436,7.219a74.237,74.237,0,0,0,4.7,6.747c.1.127.212.239.3.373,1.206,1.881,2.693,3.533,4.064,5.285a9.672,9.672,0,0,1,.639.861,29.648,29.648,0,0,0,2.581,3.269c1.529,1.767,3.03,3.567,4.521,5.363.479.575.875,1.229,1.347,1.817q2.269,2.83,4.571,5.638c.681.825,1.425,1.6,2.126,2.4.362.419.709.854,1.037,1.3.752,1.024,1.5,2.05,2.229,3.094a38.453,38.453,0,0,1,3.052,5.261c.209.431.411.866.65,1.279a29.608,29.608,0,0,1,2.935,7.179c.5,1.852.993,3.7,1.338,5.6a32.213,32.213,0,0,1,.435,6.1c0,.321-.029.641-.026.962a42.749,42.749,0,0,1-.82,7.505,55.686,55.686,0,0,1-2.816,9.9,27.3,27.3,0,0,1-1.484,3.132c-.841,1.628-1.715,3.238-2.581,4.851a8.882,8.882,0,0,1-.613,1.024q-1.613,2.214-3.255,4.409a5.28,5.28,0,0,1-.625.714c-1.562,1.453-3.049,2.991-4.743,4.3-1.908,1.466-3.775,2.984-5.716,4.4a35.8,35.8,0,0,1-4.624,2.834,64.816,64.816,0,0,1-10.174,3.972c-1.264.405-2.569.677-3.857,1q-2.5.625-5.011,1.232a4.436,4.436,0,0,1-.8.173c-1.41.077-2.782.4-4.174.6-1.51.219-3.03.312-4.548.418-1.167.082-2.333.168-3.5.247-.272.018-.544.024-.816.024-1.053,0-2.105.023-3.157,0-.975-.024-1.949-.089-2.924-.153-.739-.049-1.474-.171-2.212-.183a37.915,37.915,0,0,1-4.772-.513,57.027,57.027,0,0,1-8.032-1.611c-1.571-.46-3.2-.758-4.766-1.237a75.537,75.537,0,0,1-7.946-2.9,40.434,40.434,0,0,1-6.665-3.76c-.974-.665-1.884-1.428-2.82-2.153-.872-.675-1.727-1.381-2.612-2.035-1.268-.945-2.4-2.048-3.591-3.093a26.167,26.167,0,0,1-4.237-4.957c-.292-.426-.608-.834-.91-1.253a8.929,8.929,0,0,1-.615-.878q-1.122-2.039-2.219-4.095c-.483-.92-.9-1.868-1.4-2.775a32.248,32.248,0,0,1-1.857-4.794,47.32,47.32,0,0,1-2.031-8.382,31.2,31.2,0,0,1-.541-5.611c.016-.805-.014-1.6-.025-2.4a28.026,28.026,0,0,1,.843-7.018c.449-1.863.932-3.725,1.517-5.549a24.631,24.631,0,0,1,2.05-4.71c.337-.587.652-1.187.945-1.8a39.514,39.514,0,0,1,2.784-4.868c.906-1.354,1.874-2.665,2.837-3.977.3-.414.683-.77,1.017-1.162q1.694-1.993,3.377-3.995c.306-.362.615-.725.915-1.094.874-1.078,1.786-2.128,2.6-3.249,1.01-1.381,2.066-2.712,3.2-3.99C364.293,463.631,365.412,462.293,366.542,460.963Z" transform="translate(-300.793 -318.145)" fill="#ff8000"/>
        <path id="Pfad_40" data-name="Pfad 40" d="M350.261,2075.857c.56.309,1.133.6,1.665.955,1.333.886,2.669,1.771,3.96,2.716a26.024,26.024,0,0,1,3.61,2.978c.747.781,1.434,1.619,2.186,2.4a29.793,29.793,0,0,1,3.9,5.32,9.869,9.869,0,0,1,1.381,3.051c.022.107.125.2.178.276a.729.729,0,0,0,.9-.093,2.634,2.634,0,0,0-.07-1.552,41.371,41.371,0,0,0-2.179-6.734,33.144,33.144,0,0,0-2.528-4.641,17.445,17.445,0,0,0-2.656-3.4c-.979-.886-1.987-1.744-3.037-2.544-2.263-1.726-4.618-3.318-6.788-5.163a18.961,18.961,0,0,1-4.751-5.828c-.453-.892-.908-1.785-1.315-2.7a10.573,10.573,0,0,0-2.861-3.808,17.126,17.126,0,0,1-3.186-3.415,8.944,8.944,0,0,1-1.576-3.858,12.389,12.389,0,0,1,.033-3.953c.133-.708.252-1.421.331-2.136a9.6,9.6,0,0,0-.33-3.567,4.025,4.025,0,0,1-.129-1.785,6.74,6.74,0,0,1,1.133-2.876c.575-.773,1.11-1.569,1.654-2.362a6.3,6.3,0,0,0,1.044-2.416,36.9,36.9,0,0,0,.512-3.682,38.928,38.928,0,0,1,.436-4.179,6.015,6.015,0,0,0-.021-2.51,1.168,1.168,0,0,0-1.623-.952,2.568,2.568,0,0,0-1.424,1.047,6.964,6.964,0,0,0-1.151,2.494c-.115.506-.219,1.02-.3,1.534a7.755,7.755,0,0,1-1.1,2.906,3.647,3.647,0,0,1-2.544,1.773,1.615,1.615,0,0,1-.773-.945,2.56,2.56,0,0,1-.207-.92,9.765,9.765,0,0,1,.153-1.668,8.467,8.467,0,0,1,1.356-3.185,12.533,12.533,0,0,0,2.194-5.778,7.591,7.591,0,0,1,1.381-3.8,14.811,14.811,0,0,0,1.134-1.98,4.515,4.515,0,0,0,.415-1.121,1.84,1.84,0,0,0-1.2-2.1,1.877,1.877,0,0,0-1.407.093,5.211,5.211,0,0,0-2.4,1.925,12.32,12.32,0,0,0-1.059,2.284,15.817,15.817,0,0,1-1.611,3.35,5.253,5.253,0,0,1-.69.815c-.094.094-.282.093-.419.134a2.236,2.236,0,0,1-.108-2.431c.178-.4.39-.791.55-1.2a4.636,4.636,0,0,0,.3-1.035c.107-.753.193-1.511.236-2.269a8.089,8.089,0,0,1,.909-3.331,9.793,9.793,0,0,0,.64-1.552,3.968,3.968,0,0,0,.178-1.178,2.423,2.423,0,0,0-2.116-2.254,1.575,1.575,0,0,0-1.229.38,2.764,2.764,0,0,0-.54.635,19.8,19.8,0,0,0-2.054,4.058,29.646,29.646,0,0,0-1.061,4.057,13.064,13.064,0,0,1-1.231,4,8.631,8.631,0,0,0-.46,1.354c-.071.213-.083.469-.4.56a4.6,4.6,0,0,1-.25-.529,5.225,5.225,0,0,1,.015-2.963,12.987,12.987,0,0,0,.336-1.4c.162-1.232.413-2.445.69-3.654a3.025,3.025,0,0,0,.053-1.429,11.074,11.074,0,0,1-.156-3.7,8.407,8.407,0,0,0-.03-1.317,2.354,2.354,0,0,0-.747-1.469,1.58,1.58,0,0,0-1.874-.325,3,3,0,0,0-.508.319,6.95,6.95,0,0,0-2.531,3.706,4.586,4.586,0,0,0-.168,2.254,4.159,4.159,0,0,1-.32,2.467c-.163.41-.345.813-.475,1.232a7.428,7.428,0,0,0-.143,4.149c.217.82.3,1.652.471,2.474a2.449,2.449,0,0,1-.208,1.408,1,1,0,0,1-.92.662,1.056,1.056,0,0,1-1.221-.908,12.56,12.56,0,0,1-.323-4.045,7.964,7.964,0,0,0-.2-3.1,5.118,5.118,0,0,0-.441-1.113,1.781,1.781,0,0,0-2.682-.547,2.57,2.57,0,0,0-.825,1.019,8.025,8.025,0,0,0-.83,3.476c.032.76.021,1.523.021,2.285a9.9,9.9,0,0,0,.17,2.031,6.533,6.533,0,0,1,.2,1.9,9.781,9.781,0,0,0,.145,2.387q.2,1.365.492,2.717a11.822,11.822,0,0,0,3.544,6.411c1.648,1.522,3.227,3.117,4.845,4.672a6.659,6.659,0,0,1,1.272,1.738,16.863,16.863,0,0,1,1.942,5.775c.074.595.115,1.2.236,1.784a20.272,20.272,0,0,0,2.513,6.965c.129.2.23.422.345.635a21.253,21.253,0,0,0,4.68,5.747c.562.513,1.143,1.006,1.7,1.522a23.738,23.738,0,0,1,5.062,6.367,13.468,13.468,0,0,0,2.813,3.718,28.267,28.267,0,0,0,2.2,1.867c1.282.959,2.577,1.909,3.924,2.771C347.975,2074.687,349.137,2075.24,350.261,2075.857Zm14.535,10.759c-.047-.191-.075-.3-.1-.408C364.868,2086.25,364.913,2086.354,364.8,2086.616Zm-25.7-21.65a27.849,27.849,0,0,0-5.19-6.579c-.393-.4-.8-.789-1.231-1.15a24.765,24.765,0,0,1-2.886-2.885,18.162,18.162,0,0,1-1.627-2.228c-.552-.881-1.009-1.821-1.52-2.729a15.336,15.336,0,0,1-1.4-4.2c-.23-1.012-.313-2.056-.511-3.076-.159-.825-.369-1.641-.594-2.451a20.208,20.208,0,0,0-1.507-3.532,7.1,7.1,0,0,0-1.413-1.934l-4.042-3.946c-.488-.475-1-.93-1.471-1.417a9.609,9.609,0,0,1-2.49-4.717c-.263-1.171-.473-2.355-.69-3.535a3.012,3.012,0,0,1-.045-.719,14.346,14.346,0,0,0-.274-3.221,22.05,22.05,0,0,1-.163-4.2,7.851,7.851,0,0,1,.756-2.767.806.806,0,1,1,1.582.311,10.317,10.317,0,0,1,.107,2.622,13.528,13.528,0,0,0,.262,4.42,3.448,3.448,0,0,0,.259.8,2.337,2.337,0,0,0,2.173,1.441,2.263,2.263,0,0,0,2.236-1.338,3.453,3.453,0,0,0,.333-1.634,10.967,10.967,0,0,0-.371-2.853,6.608,6.608,0,0,1,.323-4.687,5.624,5.624,0,0,0,.509-2.687,12.656,12.656,0,0,1-.031-1.561,5.144,5.144,0,0,1,2.51-4.142.743.743,0,0,1,.252-.04,1.276,1.276,0,0,1,.647,1.188,6.141,6.141,0,0,1-.056,1.2,6.526,6.526,0,0,0,.068,2.859,4.949,4.949,0,0,1-.14,2.6,16.6,16.6,0,0,0-.4,2.12,17.069,17.069,0,0,1-.454,2.11,5.916,5.916,0,0,0,.038,3.434,4.767,4.767,0,0,0,.575,1.185,1.2,1.2,0,0,0,2.092-.068,2.88,2.88,0,0,0,.383-1,5.957,5.957,0,0,1,.6-1.691,9.516,9.516,0,0,0,.853-2.492c.188-.9.337-1.811.533-2.711.115-.545.284-1.083.446-1.618.1-.345.274-.672.354-1.021a15.017,15.017,0,0,1,1.908-3.86c.078-.141.173-.274.211-.333,1.192.172,1.611.712,1.329,1.624a9.509,9.509,0,0,1-.706,1.652,9.014,9.014,0,0,0-.878,2.731,15.7,15.7,0,0,0-.23,2.151,6.089,6.089,0,0,1-.624,2.424c-.069.145-.129.295-.2.435a3.673,3.673,0,0,0-.23,2.911c.239.794.219.8,1.011,1.4a1.729,1.729,0,0,0,1.747-.547,7,7,0,0,0,.958-1.222,18.709,18.709,0,0,0,1.635-3.475c.146-.415.3-.828.479-1.231a4.283,4.283,0,0,1,1.705-1.966,2.475,2.475,0,0,1,.649-.3.886.886,0,0,1,.575.027c.157.079.247.287.383.46a4.655,4.655,0,0,1-.261.805,20.085,20.085,0,0,1-1.256,2.186,8.59,8.59,0,0,0-1.5,4.136,11.386,11.386,0,0,1-2.043,5.322,10.142,10.142,0,0,0-1.551,3.622,6.411,6.411,0,0,0,.192,3.553,1.988,1.988,0,0,0,2.486,1.3,4.944,4.944,0,0,0,3.044-2.371,8.918,8.918,0,0,0,1.175-3.257,15.354,15.354,0,0,1,.46-1.988,3.875,3.875,0,0,1,.92-1.67,3.689,3.689,0,0,1,.521-.383.45.45,0,0,1,.345.5,13.892,13.892,0,0,1-.139,1.912,19.637,19.637,0,0,0-.373,3.222,25.359,25.359,0,0,1-.567,4.16,6.233,6.233,0,0,1-1.175,2.48c-.559.781-1.1,1.573-1.661,2.356a8.087,8.087,0,0,0-1.17,3.621,2.985,2.985,0,0,0,.151,1.182,11.507,11.507,0,0,1,.13,5.354,9.742,9.742,0,0,0-.263,2.02,11.585,11.585,0,0,0,1.577,6.558,6.935,6.935,0,0,0,1.157,1.526c.9.86,1.78,1.734,2.684,2.584a9.853,9.853,0,0,1,2.595,3.561c.335.856.777,1.671,1.193,2.492a19.64,19.64,0,0,0,4.617,5.908c2.328,2.038,4.883,3.767,7.354,5.611.865.645,1.7,1.331,2.523,2.036a8.82,8.82,0,0,1,1.151,1.223,31.781,31.781,0,0,1,3.391,5.235c.273.534.51,1.087.742,1.641a1.622,1.622,0,0,1,.048.466c-.393-.08-.543-.439-.773-.7-.96-1.076-1.9-2.171-2.857-3.245a16.323,16.323,0,0,0-3.047-2.705c-.762-.512-1.459-1.12-2.2-1.67-.481-.359-.989-.68-1.47-1.035a59.125,59.125,0,0,0-6-3.53,9.089,9.089,0,0,1-.831-.48c-1.466-1.047-2.949-2.071-4.379-3.17A14.268,14.268,0,0,1,339.1,2064.966Z" transform="translate(-275.796 -1773.732)" fill="#ff8000"/>
        <path id="Pfad_41" data-name="Pfad 41" d="M1031,2055.483a15.81,15.81,0,0,0,2.135-2.894c.366-.667.724-1.339,1.1-2a18.924,18.924,0,0,0,2.245-7.3,18.548,18.548,0,0,1,2.217-6.806,5.966,5.966,0,0,1,1.09-1.428c1.646-1.584,3.27-3.192,4.928-4.761a10.759,10.759,0,0,0,3.2-5.269c.336-1.357.575-2.74.832-4.115a5.6,5.6,0,0,0,.093-2.03,2.806,2.806,0,0,1,.064-.831c.1-.753.264-1.5.3-2.26.055-1.2.047-2.405.029-3.607a7.534,7.534,0,0,0-.92-3.207,2.5,2.5,0,0,0-.513-.658,1.7,1.7,0,0,0-2.388-.209,1.754,1.754,0,0,0-.653.841,6.689,6.689,0,0,0-.511,3.526,14.671,14.671,0,0,1-.091,3.348,6.538,6.538,0,0,1-.269,1.291,1.018,1.018,0,0,1-1,.726,1.039,1.039,0,0,1-1.111-.735,2.775,2.775,0,0,1-.191-1.053,13.05,13.05,0,0,1,.368-2.245,8.16,8.16,0,0,0-.307-5.407c-.045-.115-.1-.221-.141-.332a4.866,4.866,0,0,1-.36-2.818,4.414,4.414,0,0,0-.007-1.071,6.238,6.238,0,0,0-1.183-3.107,6.009,6.009,0,0,0-1.889-1.823,1.562,1.562,0,0,0-2.071.293,2.325,2.325,0,0,0-.7,1.5,11.566,11.566,0,0,0,0,1.437,10.55,10.55,0,0,1-.168,3.464,3.269,3.269,0,0,0,.034,1.431c.207,1.017.4,2.039.605,3.058.134.667.285,1.329.412,2a9.163,9.163,0,0,1,.23,1.541,3.121,3.121,0,0,1-.551,2.081,2.085,2.085,0,0,1-.255-.489,8.067,8.067,0,0,0-.785-2.133,7.088,7.088,0,0,1-.474-1.231c-.208-.813-.386-1.637-.536-2.463a15.263,15.263,0,0,0-.939-3.469,4.6,4.6,0,0,1-.245-.678,8.817,8.817,0,0,0-1.231-2.593c-.178-.266-.323-.553-.5-.82a5.218,5.218,0,0,0-.567-.77,1.523,1.523,0,0,0-1.542-.45,2.545,2.545,0,0,0-1.8,1.469,2.5,2.5,0,0,0-.008,1.768,10.957,10.957,0,0,0,.678,1.667,10.669,10.669,0,0,1,.718,1.9,10.352,10.352,0,0,1,.237,1.9,9.428,9.428,0,0,0,.769,3.492c.075.142.136.291.214.43a2.416,2.416,0,0,1-.031,2.6,1.45,1.45,0,0,1-1.036-.829c-.422-.771-.848-1.544-1.216-2.341-.352-.762-.627-1.561-.946-2.339a5.208,5.208,0,0,0-2.409-2.738,4.2,4.2,0,0,0-1.114-.42,1.8,1.8,0,0,0-2.061,2.218,4.825,4.825,0,0,0,.435,1.114c.421.774.893,1.52,1.323,2.289a7.147,7.147,0,0,1,.682,1.4,15.31,15.31,0,0,1,.511,2.341,10.364,10.364,0,0,0,1.064,3.548c.414.777.869,1.533,1.332,2.281a8.2,8.2,0,0,1,1.279,4.44,2.254,2.254,0,0,1-1.007,1.94,4.044,4.044,0,0,1-2.744-2.176,8.712,8.712,0,0,1-.909-2.72,13.118,13.118,0,0,0-.281-1.413,7.091,7.091,0,0,0-1.108-2.385,2.7,2.7,0,0,0-1.293-1.035,1.217,1.217,0,0,0-1.8.972,2.9,2.9,0,0,0-.083.714,12.648,12.648,0,0,0,.115,1.917,21.566,21.566,0,0,1,.345,3.336,27.707,27.707,0,0,0,.433,3.695,7.849,7.849,0,0,0,1.344,3.313c.5.725,1.042,1.422,1.522,2.161a5.654,5.654,0,0,1,.92,4.791,9.337,9.337,0,0,0-.156,4.285,15.643,15.643,0,0,1,.306,4.541,8.774,8.774,0,0,1-.8,3,12.564,12.564,0,0,1-2.761,3.75c-.528.49-1.07.966-1.611,1.448a10.385,10.385,0,0,0-2.263,2.936c-.445.85-.845,1.726-1.247,2.6a17.5,17.5,0,0,1-4.343,5.839c-.72.637-1.438,1.28-2.2,1.862-1.784,1.357-3.608,2.666-5.4,4.019a22.552,22.552,0,0,0-3.19,2.732c-.562.621-1.023,1.332-1.565,1.974a23.67,23.67,0,0,0-2.866,4.717,28.932,28.932,0,0,0-1.571,3.767c-.452,1.324-.773,2.693-1.121,4.051a6.753,6.753,0,0,0-.16,1.3.515.515,0,0,0,.56.5.553.553,0,0,0,.616-.46,7,7,0,0,1,.857-2.1,29.79,29.79,0,0,1,4.206-5.983c.248-.26.469-.546.7-.822a23.079,23.079,0,0,1,3.233-3.216,67.8,67.8,0,0,1,6.264-4.448c.442-.274.907-.511,1.362-.762,1.192-.656,2.432-1.238,3.567-1.982,1.538-1.01,3.018-2.114,4.487-3.231a15.272,15.272,0,0,0,4.328-5.081,18.712,18.712,0,0,1,2.794-4.043c1.035-1.116,2.132-2.177,3.264-3.194A34.8,34.8,0,0,0,1031,2055.483Zm-35.711,30.98c-.206-.188-.115-.273.06-.337C995.328,2086.228,995.309,2086.33,995.286,2086.463Zm31.992-29.224a33.228,33.228,0,0,0-4.8,5.2,22.614,22.614,0,0,0-1.46,2.342,16.08,16.08,0,0,1-3.83,4.584,56.823,56.823,0,0,1-4.874,3.51,29.467,29.467,0,0,1-2.941,1.628,39.757,39.757,0,0,0-5.157,3.3c-.973.7-1.956,1.4-2.886,2.151a19.633,19.633,0,0,0-2.028,1.875c-1.091,1.172-2.119,2.4-3.186,3.6-.23.258-.379.617-.773.7a1.723,1.723,0,0,1,.048-.466c.176-.446.361-.892.575-1.321a31.958,31.958,0,0,1,3.631-5.649,9.915,9.915,0,0,1,1.254-1.292,51.752,51.752,0,0,1,4.287-3.292,55.675,55.675,0,0,0,6.042-4.751,18.041,18.041,0,0,0,4.167-5.683c.437-.945.885-1.885,1.331-2.825a9.462,9.462,0,0,1,2.126-2.737c.782-.747,1.561-1.5,2.357-2.23a9.413,9.413,0,0,0,2.876-5.035,10.944,10.944,0,0,0,.23-4.636,26.427,26.427,0,0,1-.372-2.977,8.133,8.133,0,0,1,.327-3.089,4.875,4.875,0,0,0-.012-2.6,7.467,7.467,0,0,0-1.311-2.933c-.32-.41-.561-.883-.9-1.278a8.7,8.7,0,0,1-1.9-4.718c-.144-1.151-.257-2.3-.311-3.467-.033-.716-.215-1.423-.3-2.138-.078-.634-.132-1.272-.168-1.911a1.767,1.767,0,0,1,.115-.523.482.482,0,0,1,.593.115,3.741,3.741,0,0,1,1.087,1.841,14.243,14.243,0,0,1,.46,1.987,8.915,8.915,0,0,0,1.175,3.257,4.943,4.943,0,0,0,3.044,2.372,1.987,1.987,0,0,0,2.486-1.3,6.421,6.421,0,0,0,.193-3.552,10.159,10.159,0,0,0-1.551-3.623,11.37,11.37,0,0,1-2.045-5.323,9.125,9.125,0,0,0-1.5-4.142,10.52,10.52,0,0,1-1.527-2.905,2.189,2.189,0,0,1,.385-.546.66.66,0,0,1,.69.011,3.789,3.789,0,0,1,1.885,1.611,11.8,11.8,0,0,1,.788,1.747,20.249,20.249,0,0,0,1.68,3.586,7.241,7.241,0,0,0,.961,1.219,2.091,2.091,0,0,0,.805.51,3.318,3.318,0,0,0,.847.092,2.07,2.07,0,0,0,1.117-1.452,3.851,3.851,0,0,0-.23-2.915c-.149-.283-.27-.581-.4-.877a5.364,5.364,0,0,1-.416-1.742,15.351,15.351,0,0,0-.518-3.557c-.168-.531-.4-1.042-.617-1.559-.242-.591-.534-1.167-.726-1.774a1.048,1.048,0,0,1,.538-1.326.9.9,0,0,1,.639-.194,2.771,2.771,0,0,1,.451.449c.284.435.521.9.8,1.344a13.046,13.046,0,0,1,.91,1.956,31.221,31.221,0,0,1,1.427,5.574,12.712,12.712,0,0,0,.927,2.839,14.144,14.144,0,0,1,.543,1.582,5.271,5.271,0,0,0,.328.9,1.234,1.234,0,0,0,2.231.072,4.849,4.849,0,0,0,.751-2.382,6.029,6.029,0,0,0-.221-2.14,12.787,12.787,0,0,1-.51-2.589c-.053-.475-.182-.942-.281-1.412-.107-.509-.23-1.014-.324-1.526a2.05,2.05,0,0,1,0-.594,9.413,9.413,0,0,1,.159-.947,6.061,6.061,0,0,0,.052-2.384,7.621,7.621,0,0,1-.079-1.438c.013-.575.1-.69.7-1.216a3.806,3.806,0,0,1,1.825,1.629,5.072,5.072,0,0,1,.895,3.3c-.032.319-.031.641-.044.96a5.393,5.393,0,0,0,.51,2.566,6.612,6.612,0,0,1,.323,4.688,9.653,9.653,0,0,0-.36,2.851,4.721,4.721,0,0,0,.243,1.409,2.277,2.277,0,0,0,2.315,1.57,2.448,2.448,0,0,0,2.223-1.559,9.087,9.087,0,0,0,.444-2.353,10.455,10.455,0,0,0-.026-3.235,7.024,7.024,0,0,1,.23-2.374.858.858,0,0,1,.847-.725,1.131,1.131,0,0,1,.719.754,8.47,8.47,0,0,1,.737,3.5,22.945,22.945,0,0,1-.415,4.66,2.945,2.945,0,0,0-.049.836,11.5,11.5,0,0,1-.273,2.981c-.243,1.134-.429,2.278-.771,3.4a9.656,9.656,0,0,1-2.531,4.027c-.764.764-1.567,1.5-2.344,2.242-.893.864-1.778,1.736-2.666,2.6a9.878,9.878,0,0,0-1.956,2.859,19.477,19.477,0,0,0-1.59,4.524,6.6,6.6,0,0,0-.152.825,24.783,24.783,0,0,1-1.112,5.279,25.28,25.28,0,0,1-3.919,6.847,40.009,40.009,0,0,1-2.974,2.96Z" transform="translate(-880.199 -1773.65)" fill="#ff8000"/>
        <path id="Pfad_42" data-name="Pfad 42" d="M1358.421,1976.267a8.638,8.638,0,0,1-2.623,3.067c-1.793,1.35-3.6,2.677-5.344,4.091a20.875,20.875,0,0,0-4.811,5.159,15.14,15.14,0,0,0-2.362,7.594c-.041,1.318.064,2.646.147,3.963a15.738,15.738,0,0,1-.076,3.6,8.829,8.829,0,0,1-2.567,5.178c-.46.439-.927.889-1.43,1.284a26.868,26.868,0,0,0-4.757,4.908,6.86,6.86,0,0,0-1.306,2.813,13.4,13.4,0,0,0-.328,2.861c.029,2.245.032,4.487.022,6.736a8.793,8.793,0,0,1-1.506,4.746,13.363,13.363,0,0,1-4.642,4.09c-1.162.7-2.281,1.474-3.411,2.226a4.851,4.851,0,0,0-.532.487,4.862,4.862,0,0,1-.631.557,6.286,6.286,0,0,0-1.595,1.611,16.52,16.52,0,0,0-2.357,4.168c-.182.486-.391.963-.582,1.447a.971.971,0,0,0-.032.24.7.7,0,0,0,.626.652,1.055,1.055,0,0,0,.306-.127,6.16,6.16,0,0,0,.51-.5,10.231,10.231,0,0,1,1.8-1.761c1.15-.735,2.314-1.437,3.452-2.186a10.725,10.725,0,0,1,3.322-1.35c1.124-.291,2.238-.622,3.352-.948a7.633,7.633,0,0,0,2.372-1.135c.42-.307.874-.57,1.291-.88a9.586,9.586,0,0,0,1.4-1.135,20.832,20.832,0,0,0,2.786-3.609,11.017,11.017,0,0,0,1.6-5.108c.033-.957-.023-1.917-.013-2.876a5.624,5.624,0,0,1,.124-1.307,5.732,5.732,0,0,1,1.695-3.117c.272-.23.489-.534.764-.765a26.526,26.526,0,0,0,4.042-4.75,5.921,5.921,0,0,0,1.075-2.393,15.258,15.258,0,0,0,.4-2.73,4.618,4.618,0,0,1,.847-2.708c.345-.488.682-.993,1.069-1.451.954-1.133,1.855-2.3,2.853-3.408a8.019,8.019,0,0,0,2.216-5.681c-.029-1.562-.037-3.126-.082-4.688a12.934,12.934,0,0,1,.805-5.3c.45-1.11.805-2.262,1.2-3.4a3.436,3.436,0,0,0,.184-.575,8.034,8.034,0,0,1,.769-2.27,10.586,10.586,0,0,0,.93-4.793,1.97,1.97,0,0,0-.127-.505A.634.634,0,0,0,1358.421,1976.267Zm-1,4.451a14.8,14.8,0,0,0-.991,2.7,3.129,3.129,0,0,1-.186.575c-.647,1.427-1,2.957-1.535,4.422a11.27,11.27,0,0,0-.564,4.027c.014,1.522.076,3.043.157,4.563a7.5,7.5,0,0,1-1.982,5.735c-1.15,1.236-2.176,2.565-3.228,3.876a16.472,16.472,0,0,0-1.022,1.483,4.736,4.736,0,0,0-.691,2.148c-.1,1.036-.268,2.061-.423,3.088a4.655,4.655,0,0,1-.895,2.077c-.641.871-1.281,1.744-1.956,2.592a13.434,13.434,0,0,1-1.071,1.135c-.65.653-1.339,1.271-1.956,1.956a6.776,6.776,0,0,0-1.873,4.676c0,.721-.021,1.444.006,2.164a10.359,10.359,0,0,1-2.126,6.5c-.534.749-1.151,1.435-1.739,2.149a.649.649,0,0,1-.08.088,13.273,13.273,0,0,1-4.965,3.054c-1.151.326-2.308.66-3.467.974a9.434,9.434,0,0,0-2.646,1.1c-.98.622-1.949,1.266-2.93,1.881-.221.139-.4.386-.706.361-.01-.082-.05-.172-.022-.223a8.99,8.99,0,0,1,.659-1.143,10.725,10.725,0,0,1,2.119-2.271,16.6,16.6,0,0,1,2.417-1.756,4.982,4.982,0,0,0,.673-.5,3.957,3.957,0,0,1,.684-.481,15.713,15.713,0,0,0,3.54-2.462,9.715,9.715,0,0,0,2.595-3.421,11.318,11.318,0,0,0,1.118-5.115c-.026-1,0-2,0-3.005a15.33,15.33,0,0,0-.059-1.562,12.755,12.755,0,0,1,.3-3.932,5.57,5.57,0,0,1,1.051-2.27,23.633,23.633,0,0,1,4.594-4.717,13.869,13.869,0,0,0,2.4-2.346,10.445,10.445,0,0,0,1.873-4.12,15.073,15.073,0,0,0,.23-4.425c-.048-1.2-.2-2.4-.207-3.593a14.06,14.06,0,0,1,1.956-7.09,18.85,18.85,0,0,1,4.912-5.377c1.751-1.4,3.525-2.772,5.284-4.163.394-.312.765-.649,1.209-1.028a3.683,3.683,0,0,1-.45,1.676Z" transform="translate(-1169.257 -1753.014)" fill="#ff8000"/>
        <path id="Pfad_43" data-name="Pfad 43" d="M159.041,2040.518a5.037,5.037,0,0,0-.594-.59c-.453-.394-.908-.788-1.381-1.162-.375-.3-.769-.575-1.162-.845-.426-.3-.861-.576-1.289-.871a4.539,4.539,0,0,0-.69-.476,17.737,17.737,0,0,1-2.713-1.763,9.014,9.014,0,0,1-2.711-3.016,8.493,8.493,0,0,1-1.266-4.335q0-2.825.02-5.652a18.2,18.2,0,0,0-.23-3.472,7.606,7.606,0,0,0-1.4-3.282,26.559,26.559,0,0,0-4.752-4.912,20.975,20.975,0,0,1-1.6-1.455,8.169,8.169,0,0,1-2.114-3.717,13.288,13.288,0,0,1-.37-4.767q.108-1.381.166-2.761a15.417,15.417,0,0,0-.28-3.7,16.083,16.083,0,0,0-4.385-8.138,48.613,48.613,0,0,0-5.157-4.319c-.92-.713-1.889-1.357-2.8-2.079a8.03,8.03,0,0,1-2.455-2.909c-.03-.067-.115-.106-.18-.161a.562.562,0,0,0-.746.136.722.722,0,0,0-.093.221,9.643,9.643,0,0,0,.511,4.027c.5,1.308.943,2.634,1.415,3.95.513,1.434.963,2.885,1.457,4.324a7.3,7.3,0,0,1,.41,1.749c.078.957.075,1.922.07,2.883-.007,1.443-.045,2.886-.067,4.328a8.207,8.207,0,0,0,2.369,5.868c1.179,1.266,2.2,2.646,3.286,3.986.176.218.321.46.483.69a5.131,5.131,0,0,1,.859,2.708,24.172,24.172,0,0,0,.359,2.615,6.083,6.083,0,0,0,1.175,2.607c.411.543.824,1.085,1.222,1.637a15.464,15.464,0,0,0,2.053,2.351q.884.814,1.707,1.694a4.375,4.375,0,0,1,.78,1.055,5.832,5.832,0,0,1,.769,3.464,9.2,9.2,0,0,0-.008,1.2,11.716,11.716,0,0,0,.2,2.868,12.786,12.786,0,0,0,2.211,4.764c.435.575.906,1.124,1.352,1.69a9.376,9.376,0,0,0,2.038,1.854c.329.23.674.435.994.677a9.528,9.528,0,0,0,3.243,1.522q1.793.5,3.591.985a7.836,7.836,0,0,1,2.2.942c.983.619,1.956,1.255,2.957,1.841a9.645,9.645,0,0,1,2.443,2.11,5.222,5.222,0,0,0,.479.538,2.7,2.7,0,0,0,.45.282c.443-.07.61-.317.69-.76-.206-.508-.418-.984-.594-1.473A17,17,0,0,0,159.041,2040.518Zm-1.515,2.121c-.471-.306-.955-.589-1.431-.884a9.81,9.81,0,0,0-2.646-1.113c-1.2-.322-2.391-.664-3.583-1a7.144,7.144,0,0,1-2.571-1.266,3.756,3.756,0,0,0-.395-.272,13.382,13.382,0,0,1-4.61-5.123,9.159,9.159,0,0,1-1.266-4.942c.03-.805.017-1.6,0-2.4a6.817,6.817,0,0,0-1.834-4.571c-.617-.683-1.316-1.29-1.956-1.956-.526-.548-1.027-1.119-1.514-1.7-.384-.46-.706-.974-1.1-1.43a6.666,6.666,0,0,1-1.535-3.592c-.1-.754-.193-1.51-.245-2.268a4.43,4.43,0,0,0-.658-2.037,13.727,13.727,0,0,0-.863-1.291c-1.064-1.353-2.109-2.722-3.292-3.979a7.645,7.645,0,0,1-2.082-6.053,44.235,44.235,0,0,0,.087-5.884,9.179,9.179,0,0,0-.532-2.578c-.535-1.465-.978-2.961-1.511-4.43-.45-1.24-.858-2.493-1.381-3.708a10.533,10.533,0,0,1-.336-1.126,1.61,1.61,0,0,1,.359.139c1.217.977,2.416,1.972,3.644,2.938a51.176,51.176,0,0,1,5.226,4.419,14.791,14.791,0,0,1,3.994,7.668,15.175,15.175,0,0,1,.115,4.179,30.427,30.427,0,0,0-.086,4.8,10.254,10.254,0,0,0,3.707,7.3c.55.466,1.11.92,1.671,1.375a24.156,24.156,0,0,1,3.607,3.851,6.017,6.017,0,0,1,1.273,2.943,15.441,15.441,0,0,1,.17,3.588c-.115,1.273-.045,2.562-.048,3.844a14.847,14.847,0,0,0,.137,2.514,10.846,10.846,0,0,0,4.372,7.2c.354.261.7.541,1.052.805a5.686,5.686,0,0,0,.9.6,8.025,8.025,0,0,1,1.905,1.238.75.75,0,0,0,.194.139,15.681,15.681,0,0,1,3.074,2.285,8.876,8.876,0,0,1,2.286,3.325C158.922,2043.569,158.229,2043.1,157.526,2042.639Z" transform="translate(-106.931 -1752.956)" fill="#ff8000"/>
        <path id="Pfad_44" data-name="Pfad 44" d="M819.325,94.633c.636.551,1.274,1.1,1.918,1.642,2,1.675,3.987,3.354,5.993,5.015.864.716,1.266.7,2.126.04l.093-.076,5.809-4.86c.8-.67,1.579-1.356,2.364-2.033a4.822,4.822,0,0,0,.07-.505q0-4.391-.017-8.781a9.074,9.074,0,0,0-.1-.95c-.446-.444-.858-.881-1.3-1.286-1.388-1.274-2.788-2.531-4.181-3.8-.948-.87-1.888-1.745-2.84-2.6a1.44,1.44,0,0,0-1.162-.533,9.032,9.032,0,0,0-.766.575q-3.607,3.271-7.2,6.558a4.588,4.588,0,0,0-1.1,1.24c-.137,1.2-.15,8.891-.014,10.027A3.9,3.9,0,0,0,819.325,94.633Zm8.3,4.991c-.008.063-.088.115-.134.174-.735-.471-5.122-4.228-6.769-5.8a49.4,49.4,0,0,1,4.823-2.363,11.379,11.379,0,0,1,2.042,1.841C827.682,94.238,827.706,98.967,827.623,99.624Zm8.228-5.574a.216.216,0,0,1-.055.1q-3.113,2.707-6.233,5.408a4.51,4.51,0,0,1-.375.263c-.08-.086-.167-.136-.173-.193-.083-.92-.06-5.336.03-6.153a20.061,20.061,0,0,1,1.973-1.862,14.465,14.465,0,0,1,2.506,1.139,23.827,23.827,0,0,1,2.33,1.132A.966.966,0,0,1,835.851,94.05Zm.52-8.443a1.482,1.482,0,0,1,.1.333c.067,1.458.011,5.753-.1,6.745-1.618-.717-3.1-1.487-4.592-2.133a8.447,8.447,0,0,1,.006-3.243,37.715,37.715,0,0,1,4.59-1.7ZM828.989,78.6a1.5,1.5,0,0,1,.123-.345,1.3,1.3,0,0,1,.334.136c1.051.845,5.941,5.352,6.336,5.832.007.2-.155.26-.3.315-1.414.543-2.83,1.084-4.3,1.645a18.811,18.811,0,0,1-2.1-2.017C828.978,83.373,828.916,79.533,828.989,78.6Zm-.626,6.773a2.064,2.064,0,0,1,.379.222c.508.448,1.007.909,1.487,1.345a10.475,10.475,0,0,1,.106,1.841c.04.591.067,1.191.1,1.793a26.01,26.01,0,0,1-2.048,1.821,1.026,1.026,0,0,1-.283-.1c-.6-.529-1.192-1.065-1.781-1.595a4.488,4.488,0,0,1-.018-1.8c.013-.593.03-1.2.045-1.763A6.214,6.214,0,0,1,828.363,85.372Zm-7.248-1.515q1.243-1.126,2.489-2.253,1.695-1.526,3.388-3.042a4.915,4.915,0,0,1,.473-.334c.078.107.156.165.165.23.08.625.037,4.832-.058,5.714l-1.956,1.947a33.8,33.8,0,0,1-4.734-1.759c-.07-.24.089-.37.235-.505Zm-.885,1.805c.093-.023.176-.074.23-.053,1.459.532,2.914,1.07,4.334,1.595a7.4,7.4,0,0,1,.156,3.186,10.858,10.858,0,0,1-2.291,1.157,25.692,25.692,0,0,1-2.341,1.107c-.077-.168-.138-.239-.138-.309q-.016-3.173-.017-6.349a1.762,1.762,0,0,1,.068-.334Z" transform="translate(-726.29 -67.172)" fill="#ff8000"/>
        <path id="Pfad_45" data-name="Pfad 45" d="M859.427,2469.807a15.542,15.542,0,0,1,.663-4.38c.248-.718.427-1.46.635-2.186a10.286,10.286,0,0,0,.413-2.362,29.078,29.078,0,0,0-.086-5.164c-.209-1.545-.518-3.08-.838-4.6a61.59,61.59,0,0,1-1.381-7.558,53.76,53.76,0,0,1-.056-5.648c.026-1,.171-2,.191-2.991a24.613,24.613,0,0,0-.184-4.8,30.3,30.3,0,0,0-2.059-7.134,8.5,8.5,0,0,1-.711-2.537,8.716,8.716,0,0,0-.311-1.4,1.686,1.686,0,0,0-.28-.442.489.489,0,0,0-.45.428,9.332,9.332,0,0,0-.312,1.406,7.755,7.755,0,0,1-.615,2.316,29.4,29.4,0,0,0-1.932,6.181,16.4,16.4,0,0,0-.414,3.092q-.015,1.742.025,3.487c.03,1.642.23,3.274.23,4.921a36.289,36.289,0,0,1-.725,7.282c-.183.9-.43,1.791-.622,2.691a37.069,37.069,0,0,0-1.13,8.8,16.66,16.66,0,0,0,.785,5.08,18.734,18.734,0,0,1,1,6.017c.013,1.238.144,2.477.23,3.714a4.356,4.356,0,0,0,.136.706,28.817,28.817,0,0,0,2.551,6.468,7.173,7.173,0,0,0,1.151,1.545,8.149,8.149,0,0,0,1.255-1.747,31.666,31.666,0,0,0,2.232-5.439,8.125,8.125,0,0,0,.406-2.721,7.623,7.623,0,0,1,.034-.84C859.318,2471.244,859.388,2470.526,859.427,2469.807Zm-.548-4.7a13.561,13.561,0,0,0-.664,4.373c0,.638-.091,1.275-.138,1.913a8.312,8.312,0,0,0-.063,1.079,9.362,9.362,0,0,1-.79,3.973c-.494,1.269-1.079,2.5-1.63,3.741a2.428,2.428,0,0,1-.308.372,26.865,26.865,0,0,1-2.466-6.267,7.607,7.607,0,0,1-.132-1.065c-.066-.8-.129-1.594-.175-2.393-.033-.559-.053-1.121-.052-1.681a12.715,12.715,0,0,0-.57-3.786c-.258-.842-.539-1.68-.749-2.531a11.063,11.063,0,0,1-.358-2.124,33.47,33.47,0,0,1,0-3.845,30.394,30.394,0,0,1,.519-3.682c.327-1.689.756-3.357,1.1-5.043a30.77,30.77,0,0,0,.762-6.789c-.022-1.161-.012-2.324-.058-3.485-.044-1.079-.179-2.156-.211-3.235a22.686,22.686,0,0,1,.251-5.031,29.061,29.061,0,0,1,2.111-6.98c.081.025.2.029.214.071.327.816.664,1.628.955,2.457a29.5,29.5,0,0,1,1.266,5.37,22.088,22.088,0,0,1,.1,4.2c-.04,1.036-.161,2.071-.208,3.116a42.438,42.438,0,0,0,.288,8.033c.292,1.986.87,3.906,1.223,5.875.261,1.458.575,2.907.763,4.372a28.2,28.2,0,0,1,.1,3.12,12.2,12.2,0,0,1-.685,4.487c-.175.446-.244.931-.4,1.385Z" transform="translate(-753.317 -2146.223)" fill="#ff8000"/>
        <path id="Pfad_46" data-name="Pfad 46" d="M749.927,2240.078a14.775,14.775,0,0,0,1.071-5.631,15.377,15.377,0,0,0-.6-5.107c-.307-.866-.657-1.719-.989-2.576-.434-1.118-.939-2.216-1.29-3.359a8.772,8.772,0,0,1,.268-5.547q.69-1.986,1.421-3.954a7.981,7.981,0,0,0,.429-3.426,16.188,16.188,0,0,0-.908-3.724,22.969,22.969,0,0,1-.779-3.633,3.8,3.8,0,0,1,.031-1.315,15.136,15.136,0,0,0,.2-2.753,10.5,10.5,0,0,0-.649-4.122c-.615-1.573-1.829-2.71-2.761-4.05a.323.323,0,0,0-.186-.144c-.185-.02-.373-.007-.641-.007a5.927,5.927,0,0,0-.223.813,19.775,19.775,0,0,1-1.215,4.755,9.251,9.251,0,0,0-.542,4.142c.115,1.194.3,2.383.488,3.567a19.789,19.789,0,0,1-.575,8.675c-.656,2.269-1.3,4.539-1.92,6.818a15.743,15.743,0,0,0-.654,4.257,61.705,61.705,0,0,0,.48,8.267c.115.83.192,1.67.359,2.49a21.7,21.7,0,0,0,1.432,4.568c.937,2.085,2.071,4.064,3.135,6.079.244.46.506.907.771,1.355q.8,1.343,1.6,2.677a.631.631,0,0,0,.582.363,3.489,3.489,0,0,0,.68-.22,5.392,5.392,0,0,0,0-.76,14.476,14.476,0,0,1-.079-2.877A15.367,15.367,0,0,1,749.927,2240.078Zm-1.45.208a13.834,13.834,0,0,0-.873,4.209c-.036.517-.044,1.036-.064,1.563-.115-.014-.214,0-.23-.035q-1.829-3.173-3.452-6.457a20.247,20.247,0,0,1-2.081-7.233c-.043-.479-.152-.951-.216-1.427a56.991,56.991,0,0,1-.3-7.8,12.054,12.054,0,0,1,.46-3.082c.575-2.167,1.188-4.325,1.818-6.477a22.4,22.4,0,0,0,1.064-6.5,24.052,24.052,0,0,0-.2-2.633c-.151-1.272-.323-2.542-.542-3.8a6.3,6.3,0,0,1-.046-1.665,12.193,12.193,0,0,1,.835-3.367,7.27,7.27,0,0,0,.521-2.094,5.314,5.314,0,0,1,.189-.739,7.5,7.5,0,0,1,2.218,5.113,17.55,17.55,0,0,1-.16,3.594,9.605,9.605,0,0,0,.03,2.51,27.957,27.957,0,0,0,1.248,4.878,7.444,7.444,0,0,1-.19,5.054c-.451,1.113-.843,2.249-1.266,3.375a9.9,9.9,0,0,0-.655,3.524c0,.24.009.483-.011.721a6.566,6.566,0,0,0,.575,3.039c.421,1.036.843,2.078,1.29,3.107a15.963,15.963,0,0,1,1,3.081,21.46,21.46,0,0,1,.268,2.142c.025.238,0,.481.014.722a15.653,15.653,0,0,1-1.252,6.677Z" transform="translate(-656.15 -1943.214)" fill="#ff8000"/>
        <path id="Pfad_47" data-name="Pfad 47" d="M966.745,2249.06c.223.305.522.318.968.166.148-.211.367-.492.554-.794,1.418-2.277,2.659-4.654,3.927-7.018.379-.705.752-1.418,1.064-2.153a30.5,30.5,0,0,0,1.119-2.91,32.8,32.8,0,0,0,.891-4.832c.1-.672.213-1.346.247-2.023.09-1.72.13-3.443.206-5.163a16.3,16.3,0,0,0-.625-4.983c-.618-2.279-1.266-4.548-1.922-6.817a20.031,20.031,0,0,1-.819-6.642c.093-1.726.355-3.425.618-5.126a7.683,7.683,0,0,0,.094-1.912,11.412,11.412,0,0,0-.792-3.5,13.453,13.453,0,0,1-.892-3.479c-.062-.431-.159-.858-.265-1.423-.324.019-.553-.034-.69.055a2.651,2.651,0,0,0-.583.594c-.445.567-.867,1.151-1.308,1.726a7.946,7.946,0,0,0-1.611,4.081,16.772,16.772,0,0,0,.115,4.552,4.389,4.389,0,0,1,.048,1.315,19.038,19.038,0,0,1-.65,3.294c-.271.838-.524,1.683-.75,2.531a8.17,8.17,0,0,0,.179,5.189c.489,1.266.941,2.554,1.381,3.842a8.81,8.81,0,0,1,.258,5.547,21.921,21.921,0,0,1-1.254,3.243,16.944,16.944,0,0,0-1.566,9,18.416,18.416,0,0,0,1.3,5.228,10.8,10.8,0,0,1,.475,1.605,24.539,24.539,0,0,1,.328,4.063,15.418,15.418,0,0,1-.075,1.675A2.066,2.066,0,0,0,966.745,2249.06Zm-.787-13.628a14.854,14.854,0,0,1,.777-6.868c.275-.71.593-1.4.87-2.111.425-1.081.834-2.167,1.24-3.254a2.323,2.323,0,0,0,.176-.69,13.121,13.121,0,0,0-.665-5.564c-.449-1.114-.813-2.261-1.266-3.374a7.055,7.055,0,0,1-.19-4.823c.266-.882.593-1.747.805-2.64a12.908,12.908,0,0,0,.428-5.463,11.405,11.405,0,0,1-.007-3.954,6.848,6.848,0,0,1,1.994-4.016.307.307,0,0,1,.3.309,9.837,9.837,0,0,0,.766,2.892,12.452,12.452,0,0,1,.69,3.4,2.971,2.971,0,0,1-.065.834c-.284,1.656-.51,3.322-.639,5-.043.559-.137,1.115-.148,1.674a17.624,17.624,0,0,0,.605,4.754c.428,1.667.958,3.307,1.4,4.969.4,1.507.88,2.991,1.14,4.542a17.586,17.586,0,0,1,.221,3.232c-.019,1.163-.024,2.326-.078,3.487-.044.92-.115,1.841-.243,2.752a32.314,32.314,0,0,1-.834,4.972,22.417,22.417,0,0,1-.78,2.27,37.536,37.536,0,0,1-2.115,4.312c-.641,1.108-1.213,2.256-1.819,3.385-.072.135-.166.259-.415.644-.038-.668-.091-1.067-.078-1.462a12.793,12.793,0,0,0-.31-2.741,9.273,9.273,0,0,0-.541-1.713A17.825,17.825,0,0,1,965.958,2235.431Z" transform="translate(-855.429 -1942.97)" fill="#ff8000"/>
        <path id="Pfad_48" data-name="Pfad 48" d="M1093.1,2115.974c.151-.743.432-1.464.545-2.21a46.206,46.206,0,0,0,.776-6.433,5.533,5.533,0,0,1,.082-.835,8.718,8.718,0,0,0-.445-4.143,3.871,3.871,0,0,0-.433-.724l-.575.146a1.8,1.8,0,0,0-.17.376c-.072.393-.115.792-.186,1.188-.2,1.185-.362,2.376-.6,3.552a23.861,23.861,0,0,1-1.634,4.51,11.96,11.96,0,0,1-2.115,3.336,6.716,6.716,0,0,0-1.458,3.492c-.134.747-.168,1.512-.23,2.269a4.319,4.319,0,0,1-.765,2.125c-.839,1.221-1.691,2.433-2.531,3.654a7.186,7.186,0,0,0-.488.829,19.594,19.594,0,0,0-1.656,4.624,10.213,10.213,0,0,0,.029,4.761c.533,2.1,1.063,4.193,1.7,6.259a33.814,33.814,0,0,1,1.164,4.776,12.2,12.2,0,0,1-1.251,7.918c-.479.879-.977,1.748-1.461,2.624a1.906,1.906,0,0,0-.248.541.919.919,0,0,0,.048.575c.083.152.293.23.515.4a14.907,14.907,0,0,0,2.157-2.083,4.893,4.893,0,0,1,.649-.7,4,4,0,0,0,1.176-1.5,10.526,10.526,0,0,1,.567-.92c.295-.476.6-.946.879-1.432a40.167,40.167,0,0,0,1.726-3.959,12.72,12.72,0,0,0,1.057-4.657,22.11,22.11,0,0,0,.012-2.283c-.052-.836-.219-1.666-.284-2.5a22.872,22.872,0,0,1-.1-2.762,11.3,11.3,0,0,1,.548-3.308,18.43,18.43,0,0,1,.97-2.2,14.515,14.515,0,0,0,1.619-6.226c.033-1.036-.01-2.083-.02-3.124-.009-1.082-.082-2.167-.011-3.243A21.143,21.143,0,0,1,1093.1,2115.974Zm-1.186-.287a7.544,7.544,0,0,0-.345,1.635,19.187,19.187,0,0,0-.181,4.18,16.519,16.519,0,0,1-.881,7.918c-.345.853-.744,1.683-1.151,2.506a10.275,10.275,0,0,0-.94,3.209c-.094.673-.153,1.351-.23,2.027a1.817,1.817,0,0,0-.007.359q.173,1.852.352,3.7a18.408,18.408,0,0,1-.146,5.14,1.8,1.8,0,0,1-.047.236,37.46,37.46,0,0,1-2.664,6.418,8.162,8.162,0,0,1-.562.764c-.178-.251-.07-.433-.008-.62a11.133,11.133,0,0,0,.507-4.142,22.2,22.2,0,0,0-.3-2.5,36.17,36.17,0,0,0-1.077-4.178c-.619-2.071-1.139-4.165-1.695-6.251a9.09,9.09,0,0,1,.115-4.627,14.7,14.7,0,0,1,2.432-5.307c.791-1.056,1.463-2.2,2.186-3.3a3.338,3.338,0,0,0,.552-1.446q.138-1.191.23-2.386a6,6,0,0,1,1.369-3.631,12.5,12.5,0,0,0,2.218-3.682c.433-1.076.839-2.163,1.25-3.247.071-.19.115-.385.365-.421a3.2,3.2,0,0,1-.088,1.3c-.147.989-.321,1.974-.46,2.963A17.274,17.274,0,0,1,1091.914,2115.688Z" transform="translate(-958.613 -1864.173)" fill="#ff8000"/>
        <path id="Pfad_49" data-name="Pfad 49" d="M614.789,2136.977a8.65,8.65,0,0,0,.33-3.211,22.534,22.534,0,0,0-.418-2.364,15.144,15.144,0,0,0-1.833-4.55c-.754-1.227-1.582-2.416-2.435-3.573a5.22,5.22,0,0,1-1.036-2.761,12.1,12.1,0,0,0-.639-3.651,6.052,6.052,0,0,0-.991-1.763,10.506,10.506,0,0,1-1.361-1.828,23.289,23.289,0,0,1-2.275-5.544c-.314-1.321-.505-2.673-.736-4.013a6.318,6.318,0,0,0-.326-1.579l-.64-.139a1.716,1.716,0,0,0-.3.43c-.224.849-.427,1.7-.635,2.556.1,1.678.189,3.357.312,5.034.044.6.182,1.186.266,1.78a22.191,22.191,0,0,0,.741,4.012,11.736,11.736,0,0,1,.629,3.65c.01.881-.013,1.762-.025,2.646-.014.921-.051,1.84-.045,2.761a15.094,15.094,0,0,0,1.666,6.815,11.421,11.421,0,0,1,1.214,3.124,16.485,16.485,0,0,1,.17,5.143,23.8,23.8,0,0,0-.3,2.744,14.51,14.51,0,0,0,1.075,6.583c.322.69.567,1.41.854,2.116a20.462,20.462,0,0,0,1.863,3.487,12.164,12.164,0,0,0,2.116,2.731c.663.575,1.215,1.274,1.828,1.906a2.945,2.945,0,0,0,.513.355,2.231,2.231,0,0,0,.5-.325.658.658,0,0,0,.048-.69,4.354,4.354,0,0,0-.276-.53c-.523-.946-1.08-1.875-1.567-2.839a11.177,11.177,0,0,1-1.245-4.359,19.765,19.765,0,0,1,.9-6.752Q613.818,2140.694,614.789,2136.977Zm-3.352,7.048a18.586,18.586,0,0,0-.805,3.871c-.056.555-.151,1.111-.17,1.668a11.172,11.172,0,0,0,.549,4.02,3.7,3.7,0,0,1,.083.546,1.888,1.888,0,0,1-.345-.268,10.236,10.236,0,0,1-.568-.921,39.629,39.629,0,0,1-2.4-5.885,6.567,6.567,0,0,1-.295-1.89,21.781,21.781,0,0,1,.167-4.31,13.819,13.819,0,0,0,.222-2.992,13.367,13.367,0,0,0-1.1-5.488c-.309-.605-.59-1.225-.879-1.841a13.579,13.579,0,0,1-1.078-3.548,20.624,20.624,0,0,1-.086-5.622,8.339,8.339,0,0,0,.012-1.677c-.1-.994-.255-1.981-.395-2.971a2.426,2.426,0,0,0-.138-.582,17.345,17.345,0,0,1-.953-4.2c-.124-.871-.283-1.738-.413-2.607-.047-.312-.059-.629-.086-.943l.2-.028a2.525,2.525,0,0,1,.2.405,35.681,35.681,0,0,0,1.956,4.772,8.441,8.441,0,0,0,1.45,2.054,6.312,6.312,0,0,1,1.3,2.665,3.392,3.392,0,0,1,.108.588c.083.835.173,1.67.23,2.508a3.663,3.663,0,0,0,.575,1.808c.793,1.2,1.558,2.427,2.4,3.6a15.075,15.075,0,0,1,2.363,5.595,9.6,9.6,0,0,1-.162,4.745c-.627,2.318-1.206,4.647-1.949,6.932Z" transform="translate(-533.426 -1864.5)" fill="#ff8000"/>
        <path id="Pfad_50" data-name="Pfad 50" d="M1481.1,1763.726a6.005,6.005,0,0,0-.985,3.279,14.4,14.4,0,0,1-.712,4.364,14.049,14.049,0,0,1-1.266,2.713,10.543,10.543,0,0,0-1.079,7.214,24.475,24.475,0,0,0,1.55,5.162c.5,1.22,1.1,2.4,1.518,3.654a1.335,1.335,0,0,0,.2.263,2.126,2.126,0,0,0,.61,0c.256-.068.327-.329.358-.575.02-.159.017-.32.024-.48.067-1.438.115-2.876.208-4.314a7.034,7.034,0,0,1,.664-2.661c.46-.933.894-1.879,1.381-2.8a14.562,14.562,0,0,1,1.175-1.956,15.2,15.2,0,0,0,2.12-4.285,6.8,6.8,0,0,0,.273-3.188,22.83,22.83,0,0,1-.321-4.542c.048-.757.154-1.512.2-2.269a5.841,5.841,0,0,1,1.8-3.947c.372-.364.733-.739,1.1-1.111a.737.737,0,0,0,.243-.649.641.641,0,0,0-.639-.54c-.505.283-1.065.586-1.611.909s-1.094.663-1.627,1.016c-.6.4-1.175.834-1.778,1.227A11.035,11.035,0,0,0,1481.1,1763.726Zm4.893-3.013c.05-.033.142,0,.318,0a19.4,19.4,0,0,0-.55,8.64,9.372,9.372,0,0,1-1.159,6,9.836,9.836,0,0,1-.709,1.114,20.927,20.927,0,0,0-1.771,2.991c-.37.754-.748,1.5-1.111,2.263a7.026,7.026,0,0,0-.7,2.406c-.072.792-.193,1.579-.316,2.554a6.248,6.248,0,0,1-.446-.88c-.442-1.5-.963-2.978-1.266-4.5a9.091,9.091,0,0,1,.849-6.411c.137-.245.259-.5.4-.74a14.773,14.773,0,0,0,1.64-4.745,15.187,15.187,0,0,0,.155-1.913c.157-2.208.115-1.926,1.206-3.682a6.931,6.931,0,0,1,1.976-2.071c.494-.35.985-.694,1.484-1.027Z" transform="translate(-1310.102 -1558.281)" fill="#ff8000"/>
        <path id="Pfad_51" data-name="Pfad 51" d="M217.512,1790.325c.246.293.532.335.958.1.072-.162.151-.3.2-.451a23.894,23.894,0,0,1,1.141-2.772,14.966,14.966,0,0,0,.69-1.789c.289-.873.523-1.764.805-2.638a14.573,14.573,0,0,0,.46-4.874,4.63,4.63,0,0,0-.2-1.059,12.051,12.051,0,0,0-1.17-2.884,13.366,13.366,0,0,1-1.342-3.2,15.34,15.34,0,0,1-.5-3.8,4.619,4.619,0,0,0-.426-2.1,10.581,10.581,0,0,0-3.3-4.055,48.55,48.55,0,0,0-5.549-3.56.762.762,0,0,0-.243-.029.6.6,0,0,0-.489.46.671.671,0,0,0,.188.661c.444.46.9.92,1.344,1.374a5.469,5.469,0,0,1,1.52,3.073c.15,1.026.215,2.071.273,3.106a25.978,25.978,0,0,1-.345,4.539,5.8,5.8,0,0,0,.091,2.26,15.311,15.311,0,0,0,2.08,4.692,26.353,26.353,0,0,1,1.381,2.246c.515.948.986,1.923,1.431,2.907a6.787,6.787,0,0,1,.467,1.48,31.536,31.536,0,0,1,.4,5.017A2.986,2.986,0,0,0,217.512,1790.325Zm-1.826-12.334a7.449,7.449,0,0,0-.714-1.11,13.664,13.664,0,0,1-1.851-3.622,4.956,4.956,0,0,1-.321-2.239c.1-1.077.209-2.153.287-3.231a23,23,0,0,0-.3-5.385,15.52,15.52,0,0,0-.425-1.557c.14,0,.268-.04.336.006.66.452,1.335.889,1.956,1.389a9.48,9.48,0,0,1,2.4,3.266,1.726,1.726,0,0,1,.147.576c.06.516.127,1.035.14,1.553a14.885,14.885,0,0,0,1.8,6.659c.392.74.723,1.515,1.048,2.288a5.9,5.9,0,0,1,.392,2.232,13.521,13.521,0,0,1-.543,4.149c-.267.88-.506,1.771-.8,2.646-.115.359-.169.779-.589,1.026-.1-.817-.23-1.611-.3-2.4a5.946,5.946,0,0,0-.557-2.077c-.665-1.4-1.4-2.786-2.119-4.168Z" transform="translate(-184.53 -1558.418)" fill="#ff8000"/>
        <path id="Pfad_52" data-name="Pfad 52" d="M1605.958,1723.181a.552.552,0,0,0-.773.048,1.106,1.106,0,0,0-.123.211,11.408,11.408,0,0,1-2.321,4.159c-.932,1.1-1.841,2.217-2.747,3.337a9.032,9.032,0,0,0-2.2,5.465c-.028.84-.092,1.677-.115,2.518a12.957,12.957,0,0,0,.014,1.552c.074.835.217,1.665.295,2.5a9.39,9.39,0,0,1-.846,4.792,4.442,4.442,0,0,0-.345,1.746c-.017.56.115.672.849.751.46-.5.87-.932,1.266-1.381a6.7,6.7,0,0,0,.437-.575c.822-1.129,1.627-2.272,2.47-3.385a9.381,9.381,0,0,0,1.94-5.08c.073-1,.175-2,.16-2.992a13.954,13.954,0,0,1,.656-3.646,5.291,5.291,0,0,1,.495-1.22,11.068,11.068,0,0,0,.993-2.693,12.934,12.934,0,0,0,.062-5.828A1.076,1.076,0,0,0,1605.958,1723.181Zm-.786,4.271a12.881,12.881,0,0,1-1.251,3.984,5.348,5.348,0,0,0-.557,1.321,17.511,17.511,0,0,0-.805,4.467,22.492,22.492,0,0,1-.207,3.107,7.629,7.629,0,0,1-1.6,3.823c-.443.565-.85,1.157-1.284,1.726a4.992,4.992,0,0,1-.448.446,1.951,1.951,0,0,1-.041-.453,12.263,12.263,0,0,0,.042-4.293,11.342,11.342,0,0,1-.131-1.794,27.667,27.667,0,0,1,.275-4.425,4.864,4.864,0,0,1,.23-.921,10.082,10.082,0,0,1,1.686-2.876c1.257-1.5,2.462-3.046,3.694-4.569a2.213,2.213,0,0,1,.362-.263A2.96,2.96,0,0,1,1605.172,1727.452Z" transform="translate(-1416.244 -1528.06)" fill="#ff8000"/>
        <path id="Pfad_53" data-name="Pfad 53" d="M123,1736.008a27.529,27.529,0,0,1,.191,3.349,9.594,9.594,0,0,0,2.24,6.067,19.772,19.772,0,0,1,1.787,2.4c.575.983,1.437,1.7,2.12,2.64l.778-.23a3.768,3.768,0,0,0-.23-2.164,9.762,9.762,0,0,1-.758-5.971,12.681,12.681,0,0,0,.217-2.387c0-1.036-.13-2.071-.168-3.113a8.129,8.129,0,0,0-1.174-3.983,16.276,16.276,0,0,0-1.162-1.671c-.92-1.158-1.873-2.294-2.818-3.434a11.335,11.335,0,0,1-2.036-3.646c-.062-.185-.144-.365-.2-.5-.319-.219-.575-.212-.934.137a12.938,12.938,0,0,0,1.036,8.605A11.878,11.878,0,0,1,123,1736.008Zm-1.163-9.11a1.715,1.715,0,0,1,.345.221c1.259,1.552,2.493,3.125,3.773,4.66a10.421,10.421,0,0,1,1.665,2.9,2.407,2.407,0,0,1,.163.575,25.614,25.614,0,0,1,.115,6.932,10.282,10.282,0,0,0,.081,3.7,3.053,3.053,0,0,1,.031.46c-.345.052-.423-.219-.55-.383-.345-.442-.628-.929-.989-1.352a8.738,8.738,0,0,1-2-5.293c-.025-.4-.051-.806-.038-1.2a15.465,15.465,0,0,0-.575-4.381,9.83,9.83,0,0,0-.893-2.346,11.837,11.837,0,0,1-1.176-4A1.915,1.915,0,0,1,121.834,1726.9Z" transform="translate(-106.683 -1528.21)" fill="#ff8000"/>
        <path id="Pfad_54" data-name="Pfad 54" d="M159.108,1488.734a7.66,7.66,0,0,0,.792,2.258,14.009,14.009,0,0,0,3.138,3.974c.736-.115.878-.2.873-.69a8.184,8.184,0,0,1,.46-2.71,4.334,4.334,0,0,0,.108-.59,17.146,17.146,0,0,1,.683-2.669,4.052,4.052,0,0,0,.216-1.053,17.237,17.237,0,0,0-.495-6.076c-.645-2.271-1.244-4.555-1.841-6.839a12.458,12.458,0,0,1-.582-3.545,2.645,2.645,0,0,0-.129-.637.723.723,0,0,0-1.007,0,2.78,2.78,0,0,0-.142.858,27.8,27.8,0,0,1,.063,3.84,30.885,30.885,0,0,1-.236,3.107,2.986,2.986,0,0,1-.268.92,11.16,11.16,0,0,0-.632,1.939,4.581,4.581,0,0,1-.345,1.022,12.108,12.108,0,0,0-.955,3.088,5.921,5.921,0,0,0-.03,2.028C158.857,1487.561,159.009,1488.142,159.108,1488.734Zm.92-3.37a8.679,8.679,0,0,1,.706-2.657c.262-.668.487-1.353.717-2.034a6.235,6.235,0,0,1,.19-.69,6.341,6.341,0,0,0,.658-2.637.292.292,0,0,1,.384.222,5.87,5.87,0,0,1,.168.575c.429,1.872.973,3.728,1.244,5.623a9.291,9.291,0,0,1-.4,4.973,10.892,10.892,0,0,0-.425,1.621c-.085.345-.144.7-.23,1.053-.115.46-.25.921-.4,1.459a2.945,2.945,0,0,1-.4-.331,10.176,10.176,0,0,1-2.215-7.176Z" transform="translate(-140.448 -1303.589)" fill="#ff8000"/>
        <path id="Pfad_55" data-name="Pfad 55" d="M1584.025,1488.922a15.043,15.043,0,0,1,.63,2.435c.085.472.209.936.336,1.4a5.8,5.8,0,0,1,.255,1.656,3.08,3.08,0,0,0,.069.712.605.605,0,0,0,.782.352,1.112,1.112,0,0,0,.3-.194,16.188,16.188,0,0,0,2.245-2.657,12.117,12.117,0,0,0,1.651-4.469,9.182,9.182,0,0,0-.628-5.164,19.613,19.613,0,0,1-.747-2.15c-.115-.46-.321-.9-.467-1.36a6.763,6.763,0,0,1-.311-1.151,36.267,36.267,0,0,1-.162-6.591,4.241,4.241,0,0,0-.115-.941c-.011-.069-.089-.127-.168-.23h-.845a4.233,4.233,0,0,0-.131.726,14.024,14.024,0,0,1-.711,4.006c-.613,2.281-1.176,4.575-1.809,6.849a16.988,16.988,0,0,0-.39,5.845A3.559,3.559,0,0,0,1584.025,1488.922Zm1.575-7.2c.253-.883.38-1.8.613-2.692a2.331,2.331,0,0,1,.46-1.179c.272.059.22.249.222.379a5.181,5.181,0,0,0,.352,1.637c.2.566.384,1.135.575,1.7a14.6,14.6,0,0,0,.514,1.469,9.1,9.1,0,0,1,.626,5.629,10.346,10.346,0,0,1-2.044,4.422,2.678,2.678,0,0,1-.414.345c-.211-.865-.394-1.64-.588-2.416-.177-.69-.336-1.4-.562-2.082a7.655,7.655,0,0,1-.38-2.114A15.917,15.917,0,0,1,1585.6,1481.722Z" transform="translate(-1404.677 -1304.137)" fill="#ff8000"/>
        <path id="Pfad_56" data-name="Pfad 56" d="M863.055,2183.681c.531.846,1.046,1.7,1.583,2.54a.676.676,0,0,0,1.188.042c.069-.1.115-.21.178-.311.734-1.142,1.457-2.292,2.209-3.422a9.76,9.76,0,0,0,1.514-3.753,5.991,5.991,0,0,0,.008-1.907,17.467,17.467,0,0,0-.575-2.2c-.275-.92-.575-1.828-.868-2.743a19.969,19.969,0,0,0-1.241-3.115,11.887,11.887,0,0,1-1.371-4.067c-.018-.17-.192-.323-.3-.488-.444.093-.529.307-.575.554-.092.469-.159.946-.289,1.4a12.559,12.559,0,0,1-.978,2.446,18.39,18.39,0,0,0-1.4,3.567c-.188.653-.423,1.291-.619,1.941-.24.805-.46,1.611-.69,2.416a4.541,4.541,0,0,0-.061,2.141,8.771,8.771,0,0,0,1.079,3.035C862.237,2182.408,862.651,2183.039,863.055,2183.681Zm-1.035-6.46c.145-.664.306-1.325.5-1.977.306-1.036.673-2.055.958-3.1a29.772,29.772,0,0,1,1.628-4.089c.238-.1.3.029.383.181a38.666,38.666,0,0,1,2.236,6.205,18.584,18.584,0,0,1,.746,2.656,3.923,3.923,0,0,1,.015,1.312,7.4,7.4,0,0,1-1.017,2.926c-.619.936-1.221,1.882-1.834,2.819-.085.13-.2.241-.383.468-.186-.23-.3-.345-.383-.468-.613-.937-1.215-1.885-1.834-2.819a7.583,7.583,0,0,1-1.064-3.284,2.416,2.416,0,0,1,.05-.833Z" transform="translate(-763.225 -1919.288)" fill="#ff8000"/>
        <path id="Pfad_57" data-name="Pfad 57" d="M688.209,2142.463a2.835,2.835,0,0,0,.107.454.586.586,0,0,0,.532.4.616.616,0,0,0,.6-.3,1.376,1.376,0,0,0,.165-.433,16.582,16.582,0,0,0,.389-2.071,8.485,8.485,0,0,0-.178-3.26,19.622,19.622,0,0,0-.818-2.32,21.7,21.7,0,0,1-1.8-6.406,9.051,9.051,0,0,1-.016-2.685,1.216,1.216,0,0,0-.053-.311l-.6-.345c-.15.115-.274.162-.329.255-.575.971-1.151,1.956-1.726,2.924a7.615,7.615,0,0,0-.805,2.071,7.4,7.4,0,0,0,.265,4.386,8.759,8.759,0,0,0,1.887,3.085c.3.309.56.653.859.963a4.96,4.96,0,0,1,1.308,2.45C688.071,2141.694,688.135,2142.081,688.209,2142.463ZM687,2137.419c-.181-.206-.359-.415-.54-.619a7.087,7.087,0,0,1-1.854-4.686,6.528,6.528,0,0,1,1.021-3.553c.03-.05.131-.057.2-.083.057.047.154.087.165.143.125.69.247,1.38.352,2.071a14.154,14.154,0,0,0,.872,3.033c.354.909.736,1.808,1.09,2.718a8.085,8.085,0,0,1,.53,2.155.781.781,0,0,1-.207.69c-.306-.354-.575-.673-.853-.988C687.519,2138,687.258,2137.713,687,2137.419Z" transform="translate(-606.064 -1884.586)" fill="#ff8000"/>
        <path id="Pfad_58" data-name="Pfad 58" d="M1060.606,2143.294a.691.691,0,0,0,.646.423.633.633,0,0,0,.591-.483c.06-.266.078-.542.127-.805a5.919,5.919,0,0,1,1.611-3.32,16.5,16.5,0,0,0,1.3-1.509,7.936,7.936,0,0,0,1.452-2.8,7.769,7.769,0,0,0-.667-6.02c-.565-1.027-1.183-2.019-1.805-3.01-.038-.059-.129-.084-.2-.126-.313-.062-.515.1-.754.478a6.394,6.394,0,0,1,.081,2.316q-.207,1.509-.506,3a21.373,21.373,0,0,1-1.254,3.651,22.486,22.486,0,0,0-.911,2.531,10.859,10.859,0,0,0,.244,5.561A.652.652,0,0,0,1060.606,2143.294Zm.69-4.037a9.938,9.938,0,0,1,.275-1.611,23.123,23.123,0,0,1,.805-2.194,21.517,21.517,0,0,0,1.29-3.762c.167-.8.256-1.617.391-2.424a3.455,3.455,0,0,1,.216-.547,5.092,5.092,0,0,1,1.118,2.495,6.428,6.428,0,0,1-.514,4.111,8.6,8.6,0,0,1-1.434,2.124c-.658.711-1.275,1.463-1.9,2.186a.307.307,0,0,1-.254-.38Z" transform="translate(-940.014 -1884.99)" fill="#ff8000"/>
        <path id="Pfad_59" data-name="Pfad 59" d="M571.483,2359.35c-.446-.66-.941-1.291-1.365-1.965-.444-.708-.828-1.452-1.266-2.222a1.416,1.416,0,0,0-.575.016.691.691,0,0,0-.336.452c-.121,1.16-.5,2.261-.713,3.4a7.747,7.747,0,0,0,.372,4.7,5.386,5.386,0,0,1,.253.673,6.675,6.675,0,0,0,1.36,2.374c.664.8,1.316,1.611,1.981,2.4a5.693,5.693,0,0,0,.46.435l.734-.256a2.67,2.67,0,0,0,.071-.419c-.012-1.079-.039-2.158-.043-3.236a10.451,10.451,0,0,1,.064-1.555A6.526,6.526,0,0,0,571.483,2359.35Zm-.246,4.317a22.841,22.841,0,0,0-.179,2.5,3.149,3.149,0,0,1-.1.449,8.039,8.039,0,0,1-2.027-8.859,2.642,2.642,0,0,1,.307.328c.434.669.848,1.351,1.287,2.017A5.069,5.069,0,0,1,571.237,2363.667Z" transform="translate(-502.818 -2088.47)" fill="#ff8000"/>
        <path id="Pfad_60" data-name="Pfad 60" d="M1185.58,2368.337v.513a.779.779,0,0,0,1.014.243c.5-.617,1.008-1.335,1.6-1.973a10.962,10.962,0,0,0,2.25-3.772,8.651,8.651,0,0,0,.345-4.718c-.212-1.137-.6-2.238-.71-3.4a.576.576,0,0,0-.246-.384,2.159,2.159,0,0,0-.61-.137c-.23.4-.406.666-.557.945a13.568,13.568,0,0,1-1.348,2.116,10.806,10.806,0,0,0-1.151,1.823,5.649,5.649,0,0,0-.551,1.572,5.707,5.707,0,0,0-.061,2.731,2.478,2.478,0,0,1,.038.716C1185.594,2365.859,1185.587,2367.1,1185.58,2368.337Zm1.915-8.6c.46-.7.9-1.414,1.355-2.116a1.236,1.236,0,0,1,.251-.217,8.027,8.027,0,0,1-1.938,8.765c-.2-.051-.186-.23-.192-.37a23.07,23.07,0,0,0-.178-2.5A5.018,5.018,0,0,1,1187.495,2359.734Z" transform="translate(-1051.164 -2088.088)" fill="#ff8000"/>
        <path id="Pfad_61" data-name="Pfad 61" d="M850.608,753.982c1.529,2.9,3.039,5.818,4.555,8.729.092.177.185.354.275.534a.728.728,0,0,0,1.38-.051c.2-.436.446-.85.667-1.277,1.343-2.592,2.676-5.193,4.043-7.77a2.969,2.969,0,0,0,.365-1.5c-.016-1.322,0-2.646,0-3.965h-.018c0-1.282-.03-2.565.01-3.844a4.205,4.205,0,0,0-.59-2.282c-1.478-2.612-2.921-5.245-4.372-7.871a3.343,3.343,0,0,0-.184-.308.708.708,0,0,0-1.266.048c-.108.167-.192.345-.29.525-.23.42-.472.837-.7,1.258-1.223,2.206-2.438,4.415-3.67,6.616a3.165,3.165,0,0,0-.45,1.591q.012,4.2-.016,8.411A2.368,2.368,0,0,0,850.608,753.982Zm4.848,5.71a2.6,2.6,0,0,1-.1.49c-.559-.788-3.186-5.733-3.615-6.788a14.387,14.387,0,0,1,2.111-3.346c.5.876,1,1.726,1.467,2.6a1.53,1.53,0,0,1,.132.69Q855.467,756.519,855.457,759.693Zm1.515.4c-.23-.007-.2-.2-.2-.333-.007-2.115,0-4.23-.007-6.345a1.956,1.956,0,0,1,.267-1.025c.444-.754.869-1.52,1.4-2.45.805,1.179,1.469,2.256,2.071,3.324a71.269,71.269,0,0,1-3.522,6.829Zm3.638-9.32a6.03,6.03,0,0,1-1.381-2.2,13.674,13.674,0,0,1,1.358-2.31,25.347,25.347,0,0,1,.023,4.512Zm-3.813-13a.739.739,0,0,1,.079-.221c.2-.077.27.09.345.212q1.581,2.749,3.153,5.505a3.991,3.991,0,0,1,.182.471c-.662,1.192-1.323,2.361-2.093,3.6-.265-.4-.467-.679-.646-.975-.309-.513-.622-1.024-.9-1.556a1.594,1.594,0,0,1-.143-.69C856.773,742,856.784,739.888,856.8,737.773Zm-.879,8.541c.033-.055.132-.07.2-.1.067.038.16.059.194.115.452.751.9,1.507,1.341,2.261a15.03,15.03,0,0,1-1.392,2.627c-.171-.052-.275-.051-.311-.1a14.942,14.942,0,0,1-1.414-2.479C855.021,747.82,855.465,747.064,855.918,746.314Zm-4.046-3.08q1.611-2.8,3.229-5.6c.033-.057.128-.079.25-.152a3.646,3.646,0,0,1,.094.568c.009,1.956.007,3.912.015,5.868a2.084,2.084,0,0,1-.273,1.15c-.438.711-.864,1.43-1.4,2.314-.82-1.3-1.479-2.476-2.108-3.644a3.529,3.529,0,0,1,.189-.506Zm-.208,3.2a1.215,1.215,0,0,1,.267.239c.368.619.724,1.245,1.132,1.956l-1.151,1.939c-.061.1-.128.2-.23.362A16.933,16.933,0,0,1,851.663,746.429Z" transform="translate(-754.089 -650.961)" fill="#ff8000"/>
        <path id="Pfad_62" data-name="Pfad 62" d="M861.9,1026.294a4.578,4.578,0,0,1-1.946-3.067,6.8,6.8,0,0,0-.338-1.025,4.856,4.856,0,0,0-3.572.01c-.115.392-.254.768-.333,1.151a4.634,4.634,0,0,1-1.31,2.385,8.378,8.378,0,0,1-1,.857,1.922,1.922,0,0,0-.836,1.64c-.008.641-.066,1.28-.09,1.92-.059,1.561-.108,3.121-.168,4.683a1.515,1.515,0,0,0,.406,1.1c.132.151.269.3.414.435a8.814,8.814,0,0,1,2.444,4.063c.1.345.23.678.377,1.115a3.069,3.069,0,0,0,.647.146,22.365,22.365,0,0,0,2.905-.057c.52-.37.534-.893.663-1.339a8.966,8.966,0,0,1,1.253-2.58,7.435,7.435,0,0,1,1.252-1.449,1.919,1.919,0,0,0,.721-1.694c-.066-.8-.029-1.6-.063-2.4-.049-1.119-.193-2.24-.167-3.357A2.712,2.712,0,0,0,861.9,1026.294Zm-3.174,14.037a2.586,2.586,0,0,1-1.673.069c-.274-.678-.5-1.358-.819-1.993a11.78,11.78,0,0,0-1.068-1.735c-.426-.575-.932-1.092-1.445-1.682a16.886,16.886,0,0,1,.036-3.523c.015-1.159.1-2.316.157-3.485.4-.38.785-.729,1.156-1.09a5.628,5.628,0,0,0,1.865-3.4.621.621,0,0,1,.1-.219,1.572,1.572,0,0,1,.2-.185h1.3a1.579,1.579,0,0,1,.23.427,5.619,5.619,0,0,0,1.795,3.311c.368.366.756.711,1.16,1.089.3,2.333.247,4.688.356,7.026A11.316,11.316,0,0,0,858.721,1040.33Z" transform="translate(-755.82 -906.188)" fill="#ff8000"/>
        <path id="Pfad_63" data-name="Pfad 63" d="M869.567,547.594c1.19-2.632,2.43-5.268,3.548-7.939-.089-.245-.143-.436-.223-.616q-1.353-3.008-2.712-6.013c-.2-.437-.407-.87-.633-1.293-.2-.375-.312-.394-.89-.237a81.843,81.843,0,0,0-3.727,8.277l3.5,7.78A.856.856,0,0,0,869.567,547.594Zm.2-12.219a12.36,12.36,0,0,1,1.629,3.575,4.564,4.564,0,0,1-1.588,0A11.834,11.834,0,0,1,869.77,535.376Zm-.059,4.928c.625.093,1.135-.144,1.623.122a11.911,11.911,0,0,1-1.478,3.58c-.054-.038-.152-.072-.155-.115A26.336,26.336,0,0,1,869.712,540.3Zm-1.582-5.063c.115.178.2.254.2.332q.015,1.539,0,3.079c0,.071-.06.143-.115.283a4.062,4.062,0,0,1-1.669.015c.548-1.285,1.038-2.442,1.583-3.711Zm.1,8.791a14.6,14.6,0,0,1-1.582-3.567c.512-.331,1.05-.089,1.558-.127a10.812,10.812,0,0,1,.024,3.691Z" transform="translate(-766.998 -471.239)" fill="#ff8000"/>
        <path id="Pfad_64" data-name="Pfad 64" d="M426.592,1128.086q-10.126-5.877-20.263-11.736a4.46,4.46,0,0,0-.621-.321.546.546,0,0,0-.671.335.588.588,0,0,0,.112.663,5.141,5.141,0,0,0,.586.386q8.7,5.057,17.4,10.111,8.5,4.941,16.992,9.895a15.167,15.167,0,0,0-.881,2.236c-13.483-3.7-26.99-7.428-40.444-11.062-.161.07-.252.083-.3.136-.423.446-.357.921.165,1.138a7.5,7.5,0,0,0,.9.286c.828.219,1.664.411,2.49.641,4.694,1.308,9.383,2.636,14.079,3.935q8.626,2.388,17.261,4.741l5.52,1.512a15.377,15.377,0,0,0-.308,2.445h-.154q-20.357-.014-40.713-.015a5.133,5.133,0,0,0-.65.079,2,2,0,0,0-.252,1.206c.049.679.112,1.357.173,2.034a34.245,34.245,0,0,0,2.55,9.957,38.973,38.973,0,0,0,7.9,11.966,45.354,45.354,0,0,0,6.827,5.831,54.765,54.765,0,0,0,13.142,6.735,67.268,67.268,0,0,0,14.317,3.409,73.862,73.862,0,0,0,8.505.648,97.95,97.95,0,0,0,10.168-.215c1.785-.168,3.574-.307,5.346-.575,2.312-.345,4.607-.788,6.88-1.361a59.889,59.889,0,0,0,16.052-6.464A46.476,46.476,0,0,0,500.4,1167a37.277,37.277,0,0,0,8.851-19.164c.151-1.029.2-2.071.288-3.107a1.763,1.763,0,0,0-.261-1.225c-1.018-.115-35.371-.183-41.505-.084a15.307,15.307,0,0,0-.308-2.437c.146-.036.291-.073.435-.115q7.722-2.122,15.444-4.25l23.33-6.443q.448-.124.9-.271a1.526,1.526,0,0,0,.313-.155.556.556,0,0,0,.2-.733,2.217,2.217,0,0,0-.472-.446c-1.64.442-3.22.863-4.8,1.293q-6.715,1.835-13.417,3.682-6.765,1.85-13.531,3.7-4.374,1.2-8.739,2.425a15.085,15.085,0,0,0-.9-2.27q17.5-10.157,34.988-20.314c.234-.46.188-.755-.112-.976a.643.643,0,0,0-.671-.009,2.011,2.011,0,0,0-.2.121q-2.439,1.418-4.882,2.836L476.331,1130.1q-5.342,3.1-10.68,6.2l-.016.009a15.116,15.116,0,0,0-1.867-2.5c.448-.575.937-1.113,1.434-1.646q2.995-3.213,5.978-6.436,3.827-4.142,7.64-8.3L488.8,1106.6c.751-.815,1.488-1.643,2.221-2.475.224-.261.506-.515.439-.92a.482.482,0,0,0-.729-.107,5.6,5.6,0,0,0-.689.644q-2.527,2.675-5.043,5.359-2.593,2.775-5.175,5.562l-10.184,10.957q-2.18,2.349-4.355,4.7c-.237.255-.5.487-.9.877.072-2.071-.345-3.912-.187-5.833.132-.259.273-.544.422-.826q2.256-4.28,4.513-8.559,5.677-10.783,11.348-21.57c.5-.95.911-1.947,1.356-2.926.027-.058-.017-.151-.038-.3l-.6-.23a7.764,7.764,0,0,0-.5.709c-.883,1.611-1.768,3.209-2.629,4.825q-3.9,7.331-7.78,14.672-3.07,5.809-6.12,11.629c-.166.314-.356.613-.58,1-.229-.311-.432-.547-.594-.806a6.052,6.052,0,0,0-2.143-2.168,4.912,4.912,0,0,1-.628-.527c.206-.779.4-1.511.594-2.24a12.388,12.388,0,0,1,.623-2.2c.336-.134.652-.281.985-.389a4.808,4.808,0,0,0,1.54-.843,4.319,4.319,0,0,0,.542-6.6c-.1-.115-.231-.215-.345-.323l-.52-.5c.139-.568.265-1.111.405-1.651q1.578-6.1,3.159-12.189,1.692-6.558,3.365-13.131c.414-1.627.808-3.261,1.205-4.892a1.042,1.042,0,0,0-.05-.307l-.53-.165a1.606,1.606,0,0,0-.491,1.011q-2.568,9.742-5.148,19.482-1.392,5.276-2.771,10.557c-.071.267-.1.558-.365.714A4.965,4.965,0,0,1,460,1105.5a3.251,3.251,0,0,1,.2-.421,2.408,2.408,0,0,0,.349-1.94,5.441,5.441,0,0,1,.008-2.269c.112-.508.153-1.036.259-1.538a2.923,2.923,0,0,0-.722-2.553,3.635,3.635,0,0,0-1.646-1.106,6.209,6.209,0,0,1-2.812-2.052,8.6,8.6,0,0,0-.965-1.046,1.989,1.989,0,0,0-2.943,0,9.992,9.992,0,0,0-1.041,1.137,6,6,0,0,1-2.646,1.909,5.107,5.107,0,0,0-.949.46,3.118,3.118,0,0,0-1.492,3.361c.02.115.058.23.076.352a9.425,9.425,0,0,1,.112,3.7,1.845,1.845,0,0,0,.224,1.273c.131.273.4.492.37.824a4.766,4.766,0,0,1-2.526,1.014c-.084-.24-.191-.491-.261-.752l-1.343-5.1q-2-7.594-4.009-15.187c-.876-3.325-1.746-6.651-2.63-9.975a4.024,4.024,0,0,0-.316-.683c-.4-.1-.611,0-.723.407.434,1.726.882,3.5,1.336,5.293s.918,3.567,1.377,5.343.918,3.567,1.375,5.343.914,3.567,1.371,5.343.91,3.567,1.364,5.346.992,3.529,1.343,5.347c-.215.186-.394.334-.56.49a4.446,4.446,0,0,0-1.343,2.352,4.277,4.277,0,0,0,1.587,4.364,4.594,4.594,0,0,0,1.633.92,9.527,9.527,0,0,1,.967.427c.359,1.506.8,2.951,1.119,4.456a17.1,17.1,0,0,0-1.857,1.482,18.606,18.606,0,0,0-1.447,1.932,4.674,4.674,0,0,1-.817-1.331q-3.045-5.753-6.072-11.52-3.429-6.5-6.871-12.99c-1.1-2.071-2.238-4.133-3.357-6.195a7.324,7.324,0,0,0-.421-.626.531.531,0,0,0-.783.318,9.757,9.757,0,0,0,.836,1.9q2.846,5.455,5.708,10.9,4.924,9.36,9.848,18.713c.448.845.9,1.687,1.343,2.538-.035.934-.062,1.855-.1,2.775-.038.806-.091,1.6-.141,2.4-.009.143.037.321-.224.38-.2-.2-.428-.42-.64-.65-2.014-2.186-4.017-4.372-6.034-6.546q-5.53-5.962-11.079-11.909-3.765-4.036-7.56-8.043a7.965,7.965,0,0,0-.765-.741c-.234-.19-.5-.2-.8.115a1.621,1.621,0,0,0,.52.954c.927,1.036,1.845,2.071,2.783,3.087q4.827,5.24,9.663,10.47,6.842,7.4,13.694,14.809c.367.4.725.8,1.052,1.229a15.042,15.042,0,0,0-1.888,2.531Q433.658,1132.2,426.592,1128.086Zm-25.373,29.486c-.1-.174-.182-.353-.264-.535a34.955,34.955,0,0,1-2.238-6.565,28.985,28.985,0,0,1-.807-5.095,4.11,4.11,0,0,1,.065-.606,5.441,5.441,0,0,1,.611-.07c.623,0,1.246.026,1.868.026,3.384,0,6.768-.008,10.153,0,2.762,0,5.523.038,8.282.047q5.673.021,11.346.023h8.361a15.34,15.34,0,0,0,.336,2.615l-3.172.873c-1.616.448-3.231.9-4.849,1.345-1.655.46-3.313.9-4.968,1.357-1.617.449-3.23.91-4.846,1.364l-4.961,1.38c-1.654.46-3.313.9-4.968,1.358-1.617.447-3.228.92-4.848,1.353-1.65.441-3.27,1-4.907,1.354A1.684,1.684,0,0,1,401.219,1157.572Zm7.529,10.72c-.729-.781-1.455-1.566-2.154-2.373a37.974,37.974,0,0,1-4.281-6.152,1.674,1.674,0,0,1-.32-.9c.292-.1.542-.21.8-.28.791-.213,1.588-.4,2.378-.617q5.82-1.574,11.639-3.156,9.1-2.47,18.189-4.947,2.139-.575,4.277-1.166a15.234,15.234,0,0,0,.973,2.383l-6.464,3.757q-4.02,2.337-8.033,4.688l-8.135,4.747c-2.675,1.563-5.347,3.132-8.066,4.724C409.268,1168.752,408.986,1168.545,408.749,1168.292Zm12.915,9.077c-3.1-1.178-9.954-5.848-11.207-7.642.44-.261.873-.526,1.313-.779l12.139-6.988q6.626-3.83,13.24-7.679,1.844-1.07,3.686-2.145a15.092,15.092,0,0,0,1.919,2.492q-4.066,4.387-8.127,8.776-2.862,3.093-5.716,6.193-3.384,3.661-6.774,7.316c-.156.166-.33.315-.473.452Zm11.243,4.282a59.662,59.662,0,0,1-9.674-3.44,2.331,2.331,0,0,1-.388-.295c.416-.46.783-.866,1.158-1.271.4-.437.808-.87,1.211-1.306.375-.407.745-.819,1.119-1.228s.752-.813,1.13-1.217c.405-.434.816-.863,1.221-1.3q.567-.608,1.129-1.22l1.2-1.313c.375-.407.749-.817,1.127-1.222s.762-.805,1.14-1.208q.608-.65,1.209-1.308c.375-.407.749-.817,1.119-1.224s.75-.816,1.128-1.221c.406-.433.819-.858,1.223-1.293.377-.406.744-.822,1.119-1.23.4-.436.81-.868,1.213-1.3.376-.406.748-.818,1.119-1.224s.762-.805,1.139-1.209c.355-.381.706-.766,1.058-1.151a14.73,14.73,0,0,0,2.41,1.747q-.957,1.816-1.911,3.637-3.535,6.712-7.074,13.425-1.726,3.276-3.459,6.549c-.152.307-.254.674-.67.819Zm9.146,1.773q-.928-.1-1.852-.245c-1.772-.27-3.533-.593-5.279-1.01a.552.552,0,0,1-.487-.4c1.036-2.119,2.226-4.229,3.338-6.381s2.265-4.3,3.4-6.443,2.279-4.29,3.405-6.443c.823-1.569,1.669-3.128,2.5-4.728a14.369,14.369,0,0,0,1.983.767q-.884,3.41-1.776,6.855c-.771,2.98-1.52,5.967-2.315,8.94-.8,3.005-1.505,6.042-2.422,9.032A2.408,2.408,0,0,1,442.052,1183.424Zm10.465-.179c0,.27.059.568-.254.821a68.418,68.418,0,0,1-7.171-.284,2.354,2.354,0,0,1-1.266-.282c.034-.208.05-.4.1-.59.482-1.9.96-3.8,1.455-5.694q2.4-9.2,4.819-18.387a14.165,14.165,0,0,0,2.332.3q-.007,8.99-.012,17.981c0,2.044,0,4.09,0,6.139Zm9.945.293a43.6,43.6,0,0,1-8.017.554.751.751,0,0,1-.708-.23,7.443,7.443,0,0,1-.044-1.593c0-3.488.017-6.975.022-10.463q.01-5.293.008-10.585,0-1.046-.015-2.09a14.194,14.194,0,0,0,2.47-.307q1.632,6.213,3.259,12.419,1.528,5.859,3.033,11.727C462.517,1183.161,462.6,1183.355,462.461,1183.538Zm9.04-1.381c-1.744.424-3.506.743-5.278,1.018-.616.1-1.231.172-1.851.249a.585.585,0,0,1-.593-.2c-.074-.23-.185-.531-.264-.837q-1.879-7.193-3.758-14.393-1.231-4.731-2.444-9.462a14.442,14.442,0,0,0,1.979-.765c.163.289.326.575.471.877.472.967,1.007,1.9,1.507,2.851.522.986,1.037,1.974,1.558,2.96q.752,1.427,1.509,2.852.783,1.48,1.558,2.959l1.507,2.852c.52.986,1.035,1.975,1.557,2.962.5.95,1.031,1.887,1.51,2.85a23.648,23.648,0,0,1,1.491,3.006,2.761,2.761,0,0,1-.458.216Zm1.751-.537c-.729-1.135-1.3-2.4-1.97-3.62-.687-1.256-1.332-2.539-2-3.809q-.97-1.852-1.944-3.7-1.007-1.9-2.014-3.8-.977-1.85-1.95-3.7-1.007-1.9-2-3.806-.52-.98-1.043-1.956a14.756,14.756,0,0,0,2.413-1.748l1.369,1.476q1.412,1.523,2.822,3.049c.917.986,1.838,1.965,2.751,2.953s1.816,1.987,2.731,2.974c.941,1.016,1.895,2.019,2.837,3.035.914.986,1.821,1.981,2.734,2.968.941,1.017,1.9,2.019,2.827,3.046.9.986,1.867,1.9,2.677,2.978a45.461,45.461,0,0,1-10.24,3.657Zm11.455-4.172c-1.007-1.088-1.936-2.108-2.874-3.122s-1.887-2.027-2.828-3.043-1.88-2.034-2.82-3.05q-1.37-1.481-2.741-2.959-1.408-1.527-2.812-3.058t-2.819-3.051c-.942-1.016-1.877-2.039-2.838-3.036-.464-.482-.9-.992-1.356-1.5a15.029,15.029,0,0,0,1.915-2.487q4.02,2.336,8.041,4.667,4.176,2.416,8.359,4.832l8.058,4.651q2.7,1.553,5.4,3.119c.185.107.448.151.489.531a47.606,47.606,0,0,1-11.177,7.5Zm-16.932-32.65q5.531.01,11.06,0,6.544-.01,13.094-.024,2.333,0,4.669-.017,1.981,0,3.962-.014l7.241-.044c.224,0,.475-.032.621.218.194,2.846-1.7,10.051-3.455,12.886-1.308-.284-2.6-.717-3.906-1.084-1.278-.359-2.562-.69-3.841-1.047-1.315-.365-2.627-.749-3.943-1.114-1.278-.355-2.562-.69-3.84-1.046-1.316-.364-2.628-.745-3.944-1.109s-2.639-.706-3.955-1.071c-1.278-.354-2.552-.731-3.829-1.087-1.316-.367-2.634-.719-3.951-1.083-1.278-.353-2.552-.726-3.833-1.068-.826-.22-1.646-.469-2.482-.69a15.273,15.273,0,0,0,.33-2.608Zm.01,4.107q7,1.906,14.008,3.8l17.4,4.717c1.468.4,2.942.777,4.409,1.178.285.077.612.107.8.46-.076.168-.146.356-.241.528a40.125,40.125,0,0,1-6.813,8.974,5.23,5.23,0,0,1-.56.422c-.275-.155-.515-.286-.75-.425q-3.047-1.788-6.093-3.579-7.47-4.372-14.945-8.728-4.436-2.586-8.881-5.159a15.135,15.135,0,0,0,.972-2.384l.7.188Zm-4.738-20.381c.009.959,0,1.92,0,2.876a3.874,3.874,0,0,1-.276,1.4,14.806,14.806,0,0,0-1.782-1.366c.6-1.1,1.169-2.233,1.791-3.317.3.081.266.269.267.4Zm-14.225-8.694c.169.254.3.436.415.628a4.82,4.82,0,0,0,4.943,2.22,5.218,5.218,0,0,0,2.976-2c.143-.187.256-.4.4-.628.56.044.868.46,1.265.829-.256,1.463-.731,2.859-1.068,4.291-.284,1.21-.783,2.972-1.086,4.372a14.239,14.239,0,0,0-6.922-.011c-.686-2.877-1.494-5.693-2.182-8.53C447.834,1120.442,448.372,1120.252,448.822,1119.831Zm-1.6-.429a13.7,13.7,0,0,1-.758-2.676,3.291,3.291,0,0,1,1.932,1.79A2.009,2.009,0,0,1,447.222,1119.4Zm2.9-.321a2.746,2.746,0,0,1,.394-.345,8.694,8.694,0,0,1,2.3-.812,1.1,1.1,0,0,1,.461-.035,7.158,7.158,0,0,1,3.092,1.162,1.718,1.718,0,0,1-.56,1.333,4.38,4.38,0,0,1-2.534,1.346,4.17,4.17,0,0,1-2.457-1.243A2.008,2.008,0,0,1,450.126,1119.08Zm8-.356a3,3,0,0,1,1.629-1.931,5.239,5.239,0,0,1-.607,2.574C458.681,1119.335,458.45,1118.933,458.129,1118.725Zm-4.942,11.656a13.124,13.124,0,0,1,8.975,3.567q-.137.206-.281.405a5.485,5.485,0,0,1-2.079,1.71,22.338,22.338,0,0,0-3.646,2.146,4.142,4.142,0,0,1-1.688.785c-.419.083-.826.223-1.22.333-.141-.026-.257-.037-.369-.069-2.163-.637-1.455-.248-3.372-1.556a26.127,26.127,0,0,0-2.763-1.56,5.943,5.943,0,0,1-2.041-1.569q-.251-.314-.47-.643A13.121,13.121,0,0,1,453.187,1130.381Zm7.954-7.857a7.07,7.07,0,0,1,1.653,2.819c-.858,1.825-1.9,3.594-2.843,5.484a14.274,14.274,0,0,0-2.267-.981.2.2,0,0,0,.076-.093q.754-2.837,1.5-5.678c.172-.656.336-1.315.518-1.97a1.627,1.627,0,0,1,.212-.337A2.371,2.371,0,0,1,461.141,1122.524Zm1.936-13.21a3.873,3.873,0,0,1,.285-.568,3.031,3.031,0,0,1,.964,3.093,3.315,3.315,0,0,1-1.091,1.67,2.053,2.053,0,0,1-1.224.595C462.009,1113.221,462.172,1112.483,463.077,1109.314Zm-14.92-12.426c.178-.078.364-.142.541-.222a6.743,6.743,0,0,0,2.632-1.935c.224-.281.463-.541.7-.805a4.246,4.246,0,0,1,.406-.428,1.061,1.061,0,0,1,1.49-.032,3.64,3.64,0,0,1,.413.422c.237.266.48.527.7.805a6.762,6.762,0,0,0,2.728,2c.143.063.292.115.435.174a2.4,2.4,0,0,1,1.529,1.755c-.051.258-.112.575-.175.881a12.318,12.318,0,0,0-.242,3.816,3.7,3.7,0,0,1,.026.6.8.8,0,0,1-.407.69,2.117,2.117,0,0,1-1-1.266c-.169-.4-.313-.818-.455-1.231a2.967,2.967,0,0,0-1.041-1.419,13.167,13.167,0,0,0-1.477-.96,3.4,3.4,0,0,0-2.509-.271,4.652,4.652,0,0,0-3.409,2.646c-.172.4-.3.824-.463,1.231a2.694,2.694,0,0,1-.774,1.181,1.484,1.484,0,0,1-.3.144.894.894,0,0,1-.448-.691,1.317,1.317,0,0,1-.01-.357,12.979,12.979,0,0,0-.394-4.914,2.362,2.362,0,0,1,1.5-1.8Zm9.638,8.7a4.078,4.078,0,0,1-.321.29,13.618,13.618,0,0,0-2.61,2.552,5.243,5.243,0,0,1-.722.78,1.354,1.354,0,0,1-1.911-.017,3.323,3.323,0,0,1-.488-.513,15.278,15.278,0,0,0-2.835-2.83,1.271,1.271,0,0,1-.176-.258,1.7,1.7,0,0,1,.189-.354,5.173,5.173,0,0,0,1.031-1.992,3.818,3.818,0,0,1,2.949-2.756c.112-.03.224-.053.319-.074a3.925,3.925,0,0,1,1.753.66,3.294,3.294,0,0,1,1.505,1.906,7.558,7.558,0,0,0,.509,1.335C457.2,1104.733,457.5,1105.111,457.794,1105.587Zm-13.829,8.4a3.555,3.555,0,0,1-1.8-2.26c-.056-.191-.1-.387-.152-.6a4.04,4.04,0,0,1,1-2.223.509.509,0,0,1,.125.07.567.567,0,0,1,.132.192c.417,1.583.83,3.166,1.231,4.717-.175.257-.357.189-.535.1Zm2,.8c-.642-2.046-1.093-4.113-1.652-6.149a2.847,2.847,0,0,1-.034-.509,12.113,12.113,0,0,1,1.7-.77c.547-.282,1.119-.548,1.679-.82a10.944,10.944,0,0,1,2.514,2.194c.224.275.448.55.678.825.075.091.152.182.234.268a2.649,2.649,0,0,0,4.2.033c.351-.372.662-.785.988-1.182a9.737,9.737,0,0,1,2.586-2.144c.508.252,1.058.542,1.62.8.528.243,1.071.452,1.629.691a2.578,2.578,0,0,1,0,.5q-.766,2.955-1.55,5.9a4.542,4.542,0,0,1-.18.445,7.656,7.656,0,0,0-3.414,2.928c-.27.139-.43-.023-.589-.106a6.455,6.455,0,0,0-6.267-.03,4.851,4.851,0,0,1-.486.184,8.175,8.175,0,0,0-3.653-3.075Zm.273,7.008c.328.07.373.264.424.46q.825,3.189,1.657,6.38c.1.4.217.792.343,1.228a14.4,14.4,0,0,0-2.224.963c-.377-.839-.878-1.629-1.3-2.464-.5-1-1.028-1.972-1.56-2.992a6.171,6.171,0,0,1,2.656-3.585Zm-2.8,6.282c.5.357.6.906.867,1.331.253.4.448.844.685,1.258.143.252.257.524.4.786a14.86,14.86,0,0,0-1.757,1.343,4.236,4.236,0,0,1-.285-1.448q-.022-1.322-.017-2.646a4.021,4.021,0,0,1,.11-.633Zm-.112,6.788a6.466,6.466,0,0,0,2.495,2.233,35.135,35.135,0,0,1,4.141,2.469,5.429,5.429,0,0,0,3.328.944,5.722,5.722,0,0,0,3.307-1.035,27.021,27.021,0,0,1,3.835-2.294,6.538,6.538,0,0,0,2.625-2.3,14.027,14.027,0,0,1-.563,19.146,13.113,13.113,0,0,1-18.631-.012,14.027,14.027,0,0,1-.54-19.146Z" transform="translate(-351.163 -953.829)" fill="#ff8000"/>
        <path id="Pfad_65" data-name="Pfad 65" d="M870.478,410.348a2.855,2.855,0,0,0,.359.316.677.677,0,0,0,.784.009,3.661,3.661,0,0,0,.449-.395c.855-.894,1.712-1.787,2.552-2.695a4.235,4.235,0,0,0,.426-.656,17.053,17.053,0,0,0-3.1-3.538,4.957,4.957,0,0,0-.636-.451c-.747.359-.75.355-3.081,2.859A2.187,2.187,0,0,0,867.44,407a4.78,4.78,0,0,0,.4.566C868.712,408.5,869.6,409.426,870.478,410.348Zm1.266-1.5c.058-.721.09-1.131.127-1.611h1.4a3.257,3.257,0,0,1-1.529,1.611Zm1.128-2.674a1.8,1.8,0,0,1-.5.178,3.733,3.733,0,0,1-.68-.13c-.036-.442-.068-.843-.115-1.362a2.575,2.575,0,0,1,1.3,1.313Zm-2.249-1.267a1.456,1.456,0,0,1,.107,1.18c-.345.389-.705.321-1.293-.007Zm-.836,2.43c.261-.023.526-.007.973-.007v1.523a3.111,3.111,0,0,1-1.466-1.344,2.894,2.894,0,0,1,.492-.168Z" transform="translate(-769.219 -356.579)" fill="#ff8000"/>
        <path id="Pfad_66" data-name="Pfad 66" d="M673.816,2687.927a3.008,3.008,0,0,0-1.557,1.434c-.65,1.33-1.319,2.646-1.97,3.982-.475.97-.927,1.956-1.406,2.919a3.362,3.362,0,0,1-.419.585,26.346,26.346,0,0,1-3.385,3.734c-.612.516-1.236,1.019-1.88,1.5-1.224.9-2.448,1.807-3.707,2.661a15.687,15.687,0,0,0-3.388,3.037,15.226,15.226,0,0,0-2.261,3.813,7.017,7.017,0,0,0-.779,2.991,1.129,1.129,0,0,1-.035.237l-.69,4.142a22.827,22.827,0,0,1-.429,2.482,15.242,15.242,0,0,1-2.118,4.555,9.526,9.526,0,0,1-3.107,2.958c-.805.455-1.567.971-2.382,1.4a13.672,13.672,0,0,1-2.3,1.047c-.267-.107-.529-.2-.782-.314a41.159,41.159,0,0,1-4.091-2.269,8.394,8.394,0,0,1-2.466-2.257,13.578,13.578,0,0,1-2.821-6.788c-.02-.2-.082-.392-.115-.59-.245-1.823-.657-3.622-.826-5.458a4.91,4.91,0,0,0-.314-1.15c-.145-.415-.318-.823-.5-1.224a16.254,16.254,0,0,0-2.163-3.6,13.629,13.629,0,0,0-3.107-2.823c-1.511-.989-2.937-2.087-4.4-3.144a27.01,27.01,0,0,1-5.092-5.238,1.613,1.613,0,0,1-.194-.3c-.487-1.009-.96-2.024-1.452-3.03-.634-1.294-1.287-2.58-1.921-3.873a2.976,2.976,0,0,0-1.564-1.426.91.91,0,0,0-1.322.408,3.082,3.082,0,0,0-.435,1.956c.151.949.244,1.912.474,2.842a41.069,41.069,0,0,0,1.822,6.213,20.76,20.76,0,0,0,2.575,4.737,22.3,22.3,0,0,0,3.13,3.318c.882.754,1.736,1.543,2.62,2.3a15.6,15.6,0,0,1,4.205,6.2,20.447,20.447,0,0,1,1.312,4.358,5.848,5.848,0,0,0,.16.7c.437,1.456.861,2.917,1.331,4.362.4,1.216.866,2.408,1.277,3.62a13.21,13.21,0,0,0,2.516,4.339,4.17,4.17,0,0,1,.5.675,7.742,7.742,0,0,0,1.629,1.911c.286.265.65.469.8.885a1.527,1.527,0,0,1-.214.282,18.464,18.464,0,0,0-3.222,3.546,9.42,9.42,0,0,0-1.675,7.061,5.984,5.984,0,0,0,.23.931,18.914,18.914,0,0,0,2.011,3.815.926.926,0,0,0,.876.46l.362-.472a19.1,19.1,0,0,0-.981-1.856,3.476,3.476,0,0,1-.507-1.939,2.056,2.056,0,0,1,.485-1.449,7.755,7.755,0,0,1,3.52-2.416,10.7,10.7,0,0,0,1.484-.474,66.478,66.478,0,0,1,6.328-2.252,1.5,1.5,0,0,1,1.049,0c.984.338,1.982.632,2.963.977,1.018.359,2.023.759,3.033,1.137a9.571,9.571,0,0,0,1.353.487,7.429,7.429,0,0,1,3.66,2.186A2.842,2.842,0,0,1,654,2750.2c-.381.7-.757,1.406-1.161,2.159l.407.5a1.274,1.274,0,0,0,.991-.7c.259-.451.489-.921.787-1.349a8.124,8.124,0,0,0,1.036-2.159,8.587,8.587,0,0,0,.17-4.623,11.75,11.75,0,0,0-3.079-5.35c-.618-.674-1.292-1.3-1.949-1.956a4.876,4.876,0,0,1,.92-.971c.44-.46.879-.931,1.284-1.424.354-.432.649-.913.992-1.354a13.049,13.049,0,0,0,2.141-3.732c.575-1.7,1.245-3.379,1.8-5.09a37.882,37.882,0,0,0,1.084-3.933,24.361,24.361,0,0,1,1.6-5.02,15,15,0,0,1,3.849-5.454c.921-.775,1.8-1.59,2.708-2.378a19.006,19.006,0,0,0,3.743-4.206,23.126,23.126,0,0,0,2.991-7.045c.091-.389.221-.769.329-1.15a38.961,38.961,0,0,0,.932-4.707,3.111,3.111,0,0,0-.446-1.956A.9.9,0,0,0,673.816,2687.927Zm-41.92,45.927c-.547-.74-1.072-1.5-1.629-2.225a11.576,11.576,0,0,1-1.688-3.164c-.644-1.808-1.353-3.593-1.858-5.447q-.5-1.849-.966-3.71a24.775,24.775,0,0,0-2.355-6.266,17.435,17.435,0,0,0-3.682-4.547c-1.048-.93-2.116-1.841-3.159-2.773a17.963,17.963,0,0,1-4.674-6.894,42.827,42.827,0,0,1-2.112-7.619c-.085-.431-.175-.863-.23-1.3a.581.581,0,0,1,.36-.69.939.939,0,0,1,.71.566c.5.958,1.013,1.91,1.488,2.877.668,1.365,1.3,2.747,1.964,4.117a3.923,3.923,0,0,0,.5.813,39.711,39.711,0,0,0,3.383,3.739c1.064.979,2.244,1.809,3.386,2.684.794.607,1.637,1.15,2.475,1.7a13.253,13.253,0,0,1,3.057,2.689,22.567,22.567,0,0,1,1.851,2.94,10.39,10.39,0,0,1,.681,1.536,4.453,4.453,0,0,1,.314,1.15c.178,1.956.639,3.869.87,5.817.042.357.1.713.154,1.067a5.684,5.684,0,0,0,.182.952,18.994,18.994,0,0,0,2.091,4.572,11.462,11.462,0,0,0,3.763,3.641c1.111.635,2.186,1.344,3.349,1.877.065.03.108.115.207.219-.082.092-.17.206-.273.305a.639.639,0,0,1-.208.115,22.187,22.187,0,0,0-3.2,1.635,12.5,12.5,0,0,0-2.023,1.283,4.428,4.428,0,0,1-.482.317A9,9,0,0,1,631.9,2733.855Zm7.182,7.625c-1.057.358-2.124.69-3.169,1.086-1.006.379-2,.779-3.032,1.1a9.094,9.094,0,0,0-3.178,2.089c-.23.207-.46.421-.847.771a6.924,6.924,0,0,1,1.1-4.641,14.789,14.789,0,0,1,3.743-4.157,3.717,3.717,0,0,1,.353-.2c.182.129.382.253.561.4a14.985,14.985,0,0,0,3.629,2.3,6.637,6.637,0,0,1,1.55.806C639.639,2741.386,639.335,2741.392,639.077,2741.479Zm3.463-1.157a1.13,1.13,0,0,1-.933.039,23.615,23.615,0,0,1-6.129-3.248,2.463,2.463,0,0,1-.281-.352,4.558,4.558,0,0,1,1.474-1.137c.529-.288,1.044-.594,1.566-.889.278-.158.556-.32.843-.461.792-.385,1.588-.761,2.384-1.139.178-.084.361-.156.561-.243.23.1.449.2.663.3.724.345,1.448.683,2.167,1.036.323.157.638.335.952.511.523.293,1.035.6,1.566.888a4.7,4.7,0,0,1,1.467,1.12,2.7,2.7,0,0,1-.377.443,15.315,15.315,0,0,1-3.614,2.12c-.782.306-1.541.671-2.311,1.012Zm8.71-1.863a17.222,17.222,0,0,1,2.828,3.393,7.019,7.019,0,0,1,1.108,4.443c-.23.145-.359-.059-.477-.183a14.071,14.071,0,0,0-2.036-1.664,5.874,5.874,0,0,0-1.933-.92,17.556,17.556,0,0,1-2.023-.73c-1.15-.46-2.331-.821-3.493-1.241-.324-.115-.725-.1-1.015-.56,1.061-.52,2.1-.95,3.052-1.52s1.822-1.275,2.761-1.942A5.765,5.765,0,0,1,651.25,2738.459Zm23.215-48.176c-.369,1.555-.619,3.134-1.068,4.678-.38,1.307-.746,2.612-1.247,3.88a17.924,17.924,0,0,1-4.677,6.891c-.625.562-1.252,1.123-1.9,1.664a26.341,26.341,0,0,0-3.586,3.536,7,7,0,0,0-.552.782c-.311.513-.6,1.043-.9,1.56a20.915,20.915,0,0,0-1.726,4.2c-.543,1.677-.833,3.415-1.354,5.095-.438,1.413-.848,2.834-1.4,4.208-.241.593-.46,1.2-.648,1.808a11.292,11.292,0,0,1-2,3.531c-.361.476-.69.977-1.059,1.452a9.017,9.017,0,0,1-.856,1c-.46.444-.955.849-1.537,1.36a25.917,25.917,0,0,0-3.088-2.014c-1-.654-2.2-.935-3.23-1.712a2.459,2.459,0,0,1,.4-.319,36.742,36.742,0,0,0,3.956-2.266,9.243,9.243,0,0,0,2.186-2.043,13.04,13.04,0,0,0,2.232-3.82c.166-.45.368-.887.522-1.342a8.18,8.18,0,0,0,.345-1.265c.327-1.974.629-3.951.94-5.927a1.205,1.205,0,0,0,.033-.238,7,7,0,0,1,1.036-3.534,18.389,18.389,0,0,1,1.819-2.959,11.953,11.953,0,0,1,3.047-2.7,56.956,56.956,0,0,0,5.05-3.67,29.355,29.355,0,0,0,3.071-3.039,20.381,20.381,0,0,0,3.2-5.323l1.854-3.769a1.131,1.131,0,0,1,.906-.775,1.82,1.82,0,0,1,.256.474A1.368,1.368,0,0,1,674.465,2690.283Z" transform="translate(-539.996 -2384.439)" fill="#ff8000"/>
        <path id="Pfad_67" data-name="Pfad 67" d="M882.267,3093.123c-.239-.013-.437-.036-.634-.03s-.392.037-.544.053c-.345.222-.644.42-.948.609s-.647.32-.819.726c-.024.51-.051,1.064-.076,1.619a1.317,1.317,0,0,0,.366.983,2.6,2.6,0,0,0,4.152,0,1.212,1.212,0,0,0,.362-.863c-.015-.634-.053-1.266-.084-1.941Zm-1.742,1.841a5.3,5.3,0,0,1,1.006-.7c.345,0,.507.079.6.426-.5.3-.961.575-1.373.82-.336-.119-.292-.309-.237-.547Zm2.321,1.361a1.8,1.8,0,0,1-1.1.6c-.193.028-.388-.014-.522-.354l1.444-.813c.254.258.3.427.182.562Z" transform="translate(-779.664 -2743.111)" fill="#ff8000"/>
        <path id="Pfad_68" data-name="Pfad 68" d="M886.094,1068.632a1.848,1.848,0,0,0-.4-.072,1.893,1.893,0,0,0-.395.115,3.209,3.209,0,0,1-1.446,1.828c-.1.38-.064.641.22.813a.657.657,0,0,0,.682-.032c.345-.18.69-.372,1-.542.51.271.888.677,1.441.652.446-.156.527-.46.381-.931A3.336,3.336,0,0,1,886.094,1068.632Z" transform="translate(-783.7 -947.509)" fill="#ff8000"/>
        <path id="Pfad_69" data-name="Pfad 69" d="M886.635,1123.3c-.389-.278-.69-.705-1.2-.741a.927.927,0,0,0-.23.038c-.3.357-.3.357-.29.877a2.955,2.955,0,0,1,1.249,1.693.769.769,0,0,0,1-.066c.1-.793.819-1.241,1.331-1.893l-.411-.63C887.407,1122.5,887.094,1122.988,886.635,1123.3Z" transform="translate(-784.684 -995.391)" fill="#ff8000"/>
        <path id="Pfad_70" data-name="Pfad 70" d="M196.065,116.148c-5.12-22.605-12.45-42.91-21.789-60.352a156.03,156.03,0,0,0-15.069-23.217A106.954,106.954,0,0,0,141.88,15.018a73.523,73.523,0,0,0-19.2-11.128,56.816,56.816,0,0,0-41.317,0,73.437,73.437,0,0,0-19.2,11.128A107.043,107.043,0,0,0,44.842,32.578,156.033,156.033,0,0,0,29.773,55.795C20.434,73.238,13.1,93.543,7.984,116.148A335.013,335.013,0,0,0,0,190a335.013,335.013,0,0,0,7.984,73.852c5.12,22.605,12.45,42.91,21.789,60.352a156.036,156.036,0,0,0,15.069,23.217,106.955,106.955,0,0,0,17.327,17.561,73.523,73.523,0,0,0,19.2,11.128,56.815,56.815,0,0,0,41.317,0,73.435,73.435,0,0,0,19.2-11.128,107.045,107.045,0,0,0,17.327-17.561,155.739,155.739,0,0,0,15.069-23.217c9.339-17.448,16.67-37.747,21.789-60.352A335.031,335.031,0,0,0,204.049,190,335.013,335.013,0,0,0,196.065,116.148Zm-1.216,147.428c-5.1,22.5-12.387,42.7-21.673,60.039a154.705,154.705,0,0,1-14.946,23.032,105.989,105.989,0,0,1-17.122,17.358c-12.389,9.786-25.538,14.748-39.084,14.748s-26.7-4.962-39.088-14.748a105.851,105.851,0,0,1-17.122-17.358,154.709,154.709,0,0,1-14.946-23.032c-9.29-17.342-16.578-37.542-21.673-60.039A333.969,333.969,0,0,1,1.246,190,333.763,333.763,0,0,1,9.2,116.423c5.1-22.5,12.387-42.7,21.673-60.039A154.708,154.708,0,0,1,45.819,33.353,105.99,105.99,0,0,1,62.94,15.994C75.329,6.209,88.479,1.246,102.024,1.246s26.7,4.962,39.088,14.748a105.856,105.856,0,0,1,17.122,17.358A154.709,154.709,0,0,1,173.18,56.385c9.29,17.342,16.578,37.542,21.673,60.039A333.762,333.762,0,0,1,202.806,190,333.762,333.762,0,0,1,194.849,263.577Z" transform="translate(0 0)" fill="#ff8000"/>
        <path id="Pfad_71" data-name="Pfad 71" d="M1232.219,688.582a3.867,3.867,0,0,0,3.083,2.736,13.567,13.567,0,0,0,2.4.115c.724.02,1.45-.017,2.17.029a1.4,1.4,0,0,1,1.442,1.177,5.1,5.1,0,0,1-.871.31c-.473.089-.971.062-1.434.183a7.061,7.061,0,0,0-1.794.649,2.422,2.422,0,0,0-1.233,2.562,4.217,4.217,0,0,0,3.245,3.9c.625.151,1.266.223,1.9.345.937.185,1.129.46.744,1.313a2.445,2.445,0,0,0,.7,2.943,5.669,5.669,0,0,0,1.1.71q.345.216.69.421V707c-.031,2.46,1.19,3.5,3.567,3.026.189-.037.376-.084.64-.143a10.075,10.075,0,0,1,.15,2.2c0,3.178-.039,6.357-.038,9.535a4.961,4.961,0,0,1-.77,3.1.6.6,0,0,0-.06.778.568.568,0,0,0,.765.092,3.649,3.649,0,0,1,2.348-.326c.429.061.831.292,1.257.388a.633.633,0,0,0,.527-.153c.1-.121.08-.364.086-.553a.4.4,0,0,0-.115-.211,4.889,4.889,0,0,1-.775-3.221c.014-.522,0-1.046,0-1.569q0-4.586.008-9.171a8.449,8.449,0,0,1,.089-.859c.53.086,1,.2,1.467.23a2.459,2.459,0,0,0,2.729-2.288,10.278,10.278,0,0,0,.016-1.085V705.9c.375-.176.7-.316,1.02-.479a3.3,3.3,0,0,0,1.533-1.645,2.071,2.071,0,0,0-.115-1.967.9.9,0,0,1-.083-.23.665.665,0,0,1,.514-.92,7.931,7.931,0,0,1,.829-.152c.513-.1,1.036-.163,1.535-.311a4.32,4.32,0,0,0,3.166-3.969,2.6,2.6,0,0,0-1.13-2.4,3.9,3.9,0,0,0-1.893-.726c-.48-.052-.964-.082-1.438-.167a7.067,7.067,0,0,1-.948-.324,1.567,1.567,0,0,1,1.483-1.167c.721-.04,1.446-.013,2.17-.028a21.9,21.9,0,0,0,2.287-.089,3.9,3.9,0,0,0,2.945-2.082,2.423,2.423,0,0,0-.067-2.84,2.13,2.13,0,0,1-.13-2.479,5.389,5.389,0,0,0,.565-1.58,2.252,2.252,0,0,0-2.813-2.6c-.427.1-.846.224-1.229.327a1.926,1.926,0,0,1-.254-.158c-1.167-1.068-1.74-1.122-3.1-.316a3.714,3.714,0,0,1-.867.412c-.774.216-1.339-.329-1.036-1.063a5.987,5.987,0,0,1,1.008-1.475c.438-.522,1-.946,1.406-1.489a6.112,6.112,0,0,0,.995-6.13,4.51,4.51,0,0,0-5.672-2.747c-.45.173-.912.312-1.371.46a1.206,1.206,0,0,1-1.742-.906c-.1-.306-.152-.628-.266-.927a2.853,2.853,0,0,0-3.006-2.132,6.684,6.684,0,0,0-1.084.047,2.559,2.559,0,0,0-2.214,1.63c-.19.484-.325.991-.5,1.481a1.209,1.209,0,0,1-1.7.813c-.46-.147-.921-.285-1.371-.46a4.431,4.431,0,0,0-5.583,2.5,5.732,5.732,0,0,0-.029,4.8,7.806,7.806,0,0,0,1.708,2.456,13.953,13.953,0,0,1,1.083,1.132,3.028,3.028,0,0,1,.548.92c.258.763-.258,1.315-1.023,1.085a5.8,5.8,0,0,1-1.169-.606,2.027,2.027,0,0,0-2.466.153c-.213.168-.405.362-.6.542-.4-.115-.745-.23-1.094-.316a2.284,2.284,0,0,0-2.889,2.905,4.612,4.612,0,0,0,.441,1.12,2.212,2.212,0,0,1-.115,2.691A2.193,2.193,0,0,0,1232.219,688.582Zm18.656,18.22q.031,8.384.037,16.767a3.027,3.027,0,0,1-.067.412h-1.089V722.4q.033-6.937.069-13.872c0-.321-.013-.643-.007-.964a5.326,5.326,0,0,0-1.1-3.732l1.629-1.826,1.386,1.887.345-.254c-.115.154-.23.3-.335.46A4.6,4.6,0,0,0,1250.876,706.8Zm-16.163-25.824c.271.071.526.206.8.275a1.622,1.622,0,0,0,1.853-.46c.541-.638.736-.607,1.439-.2a6.953,6.953,0,0,0,1.171.61,2.1,2.1,0,0,0,2.239-.48,1.942,1.942,0,0,0,.379-2.134,4.791,4.791,0,0,0-1.523-2.138,6.738,6.738,0,0,1-1.989-2.972,4.216,4.216,0,0,1,.844-4.287,2.818,2.818,0,0,1,3.265-.9c.494.17.993.327,1.489.492a2.391,2.391,0,0,0,3.238-1.619c.142-.418.238-.851.4-1.266a1.974,1.974,0,0,1,1.266-1.209,2.11,2.11,0,0,1,2.655,1.023,7.187,7.187,0,0,1,.438,1.244,2.434,2.434,0,0,0,3.443,1.775,8.742,8.742,0,0,0,1.151-.377,3.2,3.2,0,0,1,4.241,2.071,5.135,5.135,0,0,1-1.256,5.348c-.388.46-.889.827-1.258,1.3a6.243,6.243,0,0,0-.92,1.538,1.822,1.822,0,0,0,.391,2.122,2.092,2.092,0,0,0,2.244.451,7.4,7.4,0,0,0,1.169-.614c.662-.381.9-.419,1.354.141a1.655,1.655,0,0,0,2.053.482,7.1,7.1,0,0,1,.69-.23,1.046,1.046,0,0,1,1.347,1.189,3.818,3.818,0,0,1-.44,1.24,3.22,3.22,0,0,0,.091,3.635,1.413,1.413,0,0,1-.141,1.966,2.663,2.663,0,0,1-1.932,1.1c-.642.032-1.283.077-1.924.1-.806.027-1.611,0-2.416.055a2.755,2.755,0,0,0-2.186,1.336,1.468,1.468,0,0,0,.437,2.2,3.723,3.723,0,0,0,1.826.54,6.922,6.922,0,0,1,1.757.353,1.427,1.427,0,0,1,.92,1.933,3.018,3.018,0,0,1-2.6,2.5c-.4.068-.806.085-1.191.184a5.687,5.687,0,0,0-1.359.469,1.61,1.61,0,0,0-.805,2.053c.044.153.115.3.17.45a1.467,1.467,0,0,1-.644,1.948c-.273.166-.588.259-.876.4a1.635,1.635,0,0,0-1,1.644c.017.4.067.805.05,1.206-.033.813-.429,1.326-1.046,1.416a1.871,1.871,0,0,1-1.956-.893,1.172,1.172,0,0,1-.043-.115,3.514,3.514,0,0,1,1.568-3.613c.46-.23.944-.452,1.391-.718.239-.141.488-.395.276-.69a.871.871,0,0,0-.606-.242c-.275-.015-.554.115-.832.107a2.994,2.994,0,0,1-2.67-2.264,1.461,1.461,0,0,1,.376-1.338,3.978,3.978,0,0,1,2.589-1.4c1.52-.153,3.04-.319,4.56-.482a5.475,5.475,0,0,0,.714-.1c.291-.071.514-.23.506-.575a.575.575,0,0,0-.613-.6,12.376,12.376,0,0,0-1.322.094c-1.239.133-2.474.3-3.715.406a5.187,5.187,0,0,0-2.783,1.035,2.513,2.513,0,0,1-.434.185c-.022-.281-.054-.5-.055-.715,0-1.328.026-2.658-.009-3.984a3.012,3.012,0,0,1,.827-2.2,7.625,7.625,0,0,1,1.315-1.235,12.579,12.579,0,0,1,6.274-2.256,10.329,10.329,0,0,1,1.912.159c.437.056.863.19,1.3.269.554.1.859,0,.9-.316.067-.472-.3-.625-.636-.752-.44-.165-.9-.286-1.51-.478.424-.3.748-.5,1.051-.74.441-.345.883-.69,1.291-1.076a.47.47,0,0,0,.063-.741.556.556,0,0,0-.766-.031c-.237.152-.48.294-.713.452a17,17,0,0,1-4.922,2.227,13.66,13.66,0,0,0-6.249,3.337,6.79,6.79,0,0,1-.115-.826v-6.159a4.29,4.29,0,0,1,.71-2.516,26.878,26.878,0,0,1,2.2-2.866c.92-1.007,1.972-1.893,2.963-2.836.312-.3.753-.492.823-.987-.122-.336-.366-.46-.667-.311a5.543,5.543,0,0,0-.92.575,23.52,23.52,0,0,0-4.457,4.223c-.139.177-.313.326-.606.627-.021-.535-.044-.879-.046-1.223-.008-1.852,0-3.7-.019-5.556a3.6,3.6,0,0,0-.115-1.07.681.681,0,0,0-.519-.381.694.694,0,0,0-.506.405,3.692,3.692,0,0,0-.115,1.072c-.014,1.726-.013,3.462-.016,5.192v1.508a5.848,5.848,0,0,1-.667-.6,23.812,23.812,0,0,0-4.464-4.217,4.4,4.4,0,0,0-.92-.557.561.561,0,0,0-.519.129.533.533,0,0,0,.029.519,7.8,7.8,0,0,0,.879.821,29.285,29.285,0,0,1,4.183,4.334,6.545,6.545,0,0,1,1.5,4.464c-.087,1.712-.018,3.461-.017,5.191v.8c-.185,0-.29.033-.33,0a14.22,14.22,0,0,0-5.952-3.056,17.827,17.827,0,0,1-5.14-2.33,3.933,3.933,0,0,0-.831-.479.6.6,0,0,0-.521.16.547.547,0,0,0-.047.525,5.856,5.856,0,0,0,.932.927c.437.345.92.635,1.524,1.052l-.734.245c-.306.1-.62.183-.914.309s-.607.327-.491.719.46.383.806.318c.276-.054.557-.093.826-.174a8.24,8.24,0,0,1,5.324.292,10.823,10.823,0,0,1,4.447,2.57,3.707,3.707,0,0,1,1.128,2.813c-.063,1.439-.015,2.883-.015,4.64a7.253,7.253,0,0,0-4.858-1.583c-.881-.052-1.757-.2-2.636-.3a5.876,5.876,0,0,0-.841-.047.556.556,0,0,0-.575.505.521.521,0,0,0,.408.64,5.572,5.572,0,0,0,.831.133q2.278.247,4.558.483a3.848,3.848,0,0,1,2.5,1.331,1.482,1.482,0,0,1,.266,1.878,2.755,2.755,0,0,1-3.106,1.706c-.318-.039-.69-.159-.837.23-.168.442.209.647.515.825a6.821,6.821,0,0,0,1.085.525,2.353,2.353,0,0,1,1.522,2.005,10.583,10.583,0,0,1,.143,1.077,1.422,1.422,0,0,1-1.428,1.577c-.965.1-1.475-.268-1.6-1.2a5.527,5.527,0,0,1,.013-.962c.06-1.36-.132-1.686-1.339-2.256a4.42,4.42,0,0,1-.439-.2,1.461,1.461,0,0,1-.715-2.019c.552-1.483.1-2.4-1.439-2.818a16.048,16.048,0,0,0-1.661-.293,3.076,3.076,0,0,1-2.727-2.666,1.286,1.286,0,0,1,.663-1.627,6.651,6.651,0,0,1,1.592-.486c.467-.1.965-.083,1.424-.211a3.024,3.024,0,0,0,1.057-.536,1.354,1.354,0,0,0,.345-1.841,2.757,2.757,0,0,0-2.318-1.522c-.842-.052-1.689-.016-2.531-.051a16.9,16.9,0,0,1-2.158-.169,2.645,2.645,0,0,1-1.824-1.457,1.274,1.274,0,0,1,.062-1.473,3.4,3.4,0,0,0,.557-1.061,3.165,3.165,0,0,0-.238-2.345,6.117,6.117,0,0,1-.583-1.444A1.033,1.033,0,0,1,1234.713,680.978Z" transform="translate(-1093.484 -588.638)" fill="#ff8000"/>
        <path id="Pfad_72" data-name="Pfad 72" d="M251.884,688.828a3.889,3.889,0,0,0,3.151,2.661,14.954,14.954,0,0,0,2.286.1c.723.016,1.449-.014,2.17.024a1.4,1.4,0,0,1,1.43,1c-.166.421-.5.451-.816.495-.478.067-.969.069-1.436.176a6.773,6.773,0,0,0-1.59.518,2.621,2.621,0,0,0-1.415,3.036,4.271,4.271,0,0,0,3.53,3.658c.552.107,1.111.186,1.668.268.756.115.985.568.69,1.292a2.44,2.44,0,0,0,.818,3.1,6.7,6.7,0,0,0,.92.553l.708.413c0,.534-.013,1.015,0,1.5a2.533,2.533,0,0,0,3.194,2.646c.338-.053.674-.115,1.047-.178.03.259.063.417.063.575.007,3.943.017,7.885,0,11.828a5.133,5.133,0,0,1-.245,1.421,4.363,4.363,0,0,1-.5.956c-.153.255-.28.513-.078.78.249.33.565.212.869.075.037-.017.075-.031.115-.047a3.766,3.766,0,0,1,3.041.022,1.947,1.947,0,0,0,.46.152.494.494,0,0,0,.557-.6,1.334,1.334,0,0,0-.2-.43,4.647,4.647,0,0,1-.72-2.876c.007-.6,0-1.208,0-1.811q0-4.646.009-9.293c0-.23.047-.46.079-.763.479.083.9.183,1.332.23a2.474,2.474,0,0,0,2.876-2.379c.027-.28.01-.563.013-.845v-.961c.212-.129.374-.242.549-.331s.377-.144.552-.241A2.742,2.742,0,0,0,278.352,702c-.266-.759-.129-1.047.637-1.214.55-.115,1.117-.159,1.667-.276a4.279,4.279,0,0,0,3.607-3.726,2.641,2.641,0,0,0-1.381-2.95,7.113,7.113,0,0,0-1.7-.552c-.506-.115-1.041-.107-1.552-.213a3,3,0,0,1-.725-.392,1.634,1.634,0,0,1,1.453-1.053c.723-.039,1.447-.014,2.171-.03a22.58,22.58,0,0,0,2.287-.084,3.887,3.887,0,0,0,2.956-2.071,2.42,2.42,0,0,0-.046-2.84,2.143,2.143,0,0,1-.151-2.479,5.881,5.881,0,0,0,.586-1.7,2.264,2.264,0,0,0-2.8-2.521c-.415.137-.843.23-1.283.353-.135-.124-.25-.23-.367-.335a2.015,2.015,0,0,0-2.829-.23,5.557,5.557,0,0,1-.851.446.84.84,0,0,1-1.107-1.23,10.983,10.983,0,0,1,1.018-1.337c.422-.484.939-.892,1.323-1.4a6.084,6.084,0,0,0,.969-6.238,4.491,4.491,0,0,0-5.612-2.664c-.45.173-.914.31-1.373.46a1.208,1.208,0,0,1-1.757-.878c-.087-.266-.132-.547-.23-.812a2.894,2.894,0,0,0-3.149-2.267,6.424,6.424,0,0,0-1.083.063,2.526,2.526,0,0,0-2.107,1.6c-.192.483-.33.987-.5,1.478a1.2,1.2,0,0,1-1.688.842c-.46-.146-.92-.282-1.371-.46a4.423,4.423,0,0,0-5.593,2.478,5.708,5.708,0,0,0-.046,4.794,7.723,7.723,0,0,0,1.7,2.463c.345.334.69.672,1.011,1.035a4.023,4.023,0,0,1,.543.793.928.928,0,0,1-.026,1.125.888.888,0,0,1-1.115.139c-.289-.138-.57-.294-.843-.46a2.024,2.024,0,0,0-2.741.223c-.146.127-.289.257-.43.383-.473-.132-.9-.248-1.32-.369a2.256,2.256,0,0,0-2.75,2.468,5.651,5.651,0,0,0,.564,1.7,2.2,2.2,0,0,1-.158,2.585A2.179,2.179,0,0,0,251.884,688.828Zm18.6,18.707c.04,5.427.044,10.854.058,16.281a1.419,1.419,0,0,1-.081.295h-1.078V723.3l.021-8.443c0-2.416-.018-4.824.018-7.237a5.144,5.144,0,0,0-1.118-3.672L270,702.171l1.726,1.642A5.2,5.2,0,0,0,270.489,707.535Zm-16.14-26.4c.27.071.526.206.8.275a1.627,1.627,0,0,0,1.852-.46c.54-.633.735-.6,1.439-.194a6.865,6.865,0,0,0,1.171.609,2.091,2.091,0,0,0,2.238-.484,1.939,1.939,0,0,0,.375-2.134,5.279,5.279,0,0,0-1.7-2.307,6.426,6.426,0,0,1-1.814-2.8,4.247,4.247,0,0,1,.766-4.2,2.91,2.91,0,0,1,3.347-.985c.5.159.993.327,1.489.491a2.4,2.4,0,0,0,3.238-1.623c.168-.492.321-.991.511-1.474a1.764,1.764,0,0,1,1.151-.993,2.1,2.1,0,0,1,2.653,1.025,7.308,7.308,0,0,1,.437,1.245,2.435,2.435,0,0,0,3.446,1.77,8.427,8.427,0,0,0,1.145-.377,3.2,3.2,0,0,1,4.237,2.083c.744,2.061.061,3.783-1.26,5.347-.389.46-.889.827-1.258,1.3a6.218,6.218,0,0,0-.92,1.538,1.82,1.82,0,0,0,.395,2.12,2.1,2.1,0,0,0,2.246.448,7.564,7.564,0,0,0,1.168-.616c.66-.38.893-.417,1.354.147a1.653,1.653,0,0,0,2.053.476c.23-.078.452-.174.69-.23a1.043,1.043,0,0,1,1.343,1.193,3.824,3.824,0,0,1-.445,1.236,3.094,3.094,0,0,0,.115,3.623,1.428,1.428,0,0,1-.091,1.879,2.572,2.572,0,0,1-1.886,1.175c-.681.04-1.362.092-2.043.115-.805.029-1.611,0-2.416.056a2.737,2.737,0,0,0-2.18,1.338,1.469,1.469,0,0,0,.448,2.2,3.8,3.8,0,0,0,1.827.537,6.9,6.9,0,0,1,1.756.354,1.43,1.43,0,0,1,.92,1.936,2.991,2.991,0,0,1-2.487,2.471c-.356.068-.724.077-1.071.168a7.384,7.384,0,0,0-1.594.517,1.59,1.59,0,0,0-.8,2.05c.045.154.115.3.171.45a1.467,1.467,0,0,1-.65,1.947c-.273.165-.588.259-.876.4a1.644,1.644,0,0,0-1,1.648,10.448,10.448,0,0,1,.037,1.326c-.086.994-.633,1.4-1.638,1.287a1.41,1.41,0,0,1-1.394-1.6,9.458,9.458,0,0,1,.164-1.2,2.338,2.338,0,0,1,1.411-1.826,8.231,8.231,0,0,0,1.48-.8.724.724,0,0,0,.176-.61c-.016-.107-.3-.193-.481-.244-.106-.031-.23.029-.354.044a2.829,2.829,0,0,1-3.156-1.841,1.5,1.5,0,0,1,.274-1.683,3.983,3.983,0,0,1,2.591-1.4c1.52-.153,3.04-.318,4.558-.483a2.491,2.491,0,0,0,.822-.154.815.815,0,0,0,.377-.529.487.487,0,0,0-.48-.575,5.154,5.154,0,0,0-.961.036c-1.4.147-2.794.332-4.195.45a5.2,5.2,0,0,0-2.783,1.035,2.451,2.451,0,0,1-.432.181c-.022-.281-.053-.5-.054-.716,0-1.329.026-2.658-.009-3.985a3.021,3.021,0,0,1,.828-2.2,7.665,7.665,0,0,1,1.316-1.233,12.546,12.546,0,0,1,6.275-2.254,9.913,9.913,0,0,1,1.911.16c.557.076,1.1.23,1.657.318a.426.426,0,0,0,.528-.371.667.667,0,0,0-.215-.508,2.765,2.765,0,0,0-.756-.357c-.328-.115-.667-.2-1.151-.345.345-.258.6-.435.838-.619a16.316,16.316,0,0,0,1.332-1.036c.412-.384.46-.69.215-.92-.3-.282-.582-.155-.868.043-.2.138-.413.248-.613.384a16.937,16.937,0,0,1-4.922,2.226,13.712,13.712,0,0,0-6.251,3.337,7.505,7.505,0,0,1-.115-.832c0-2.014.009-4.027,0-6.038a4.506,4.506,0,0,1,.776-2.742,35.21,35.21,0,0,1,2.459-3.112c.805-.891,1.755-1.656,2.632-2.483.313-.294.755-.49.819-.987a.449.449,0,0,0-.67-.306,5.618,5.618,0,0,0-.92.575,23.694,23.694,0,0,0-4.448,4.225,4.016,4.016,0,0,1-.42.422c-.021.02-.074,0-.23,0v-1.035c0-1.852,0-3.7-.017-5.555a3.559,3.559,0,0,0-.122-1.07.677.677,0,0,0-.522-.376.7.7,0,0,0-.5.407,3.784,3.784,0,0,0-.108,1.073c-.014,1.726-.013,3.462-.016,5.193v1.507a6.109,6.109,0,0,1-.671-.6,23.855,23.855,0,0,0-4.465-4.216,4.317,4.317,0,0,0-.92-.556.561.561,0,0,0-.519.132.543.543,0,0,0,.035.52,7.942,7.942,0,0,0,.88.822,29.281,29.281,0,0,1,4.183,4.334,6.589,6.589,0,0,1,1.5,4.464c-.083,1.807-.016,3.622-.018,5.434,0,.189-.026.377-.062.848a15.442,15.442,0,0,0-7.03-3.6,14.174,14.174,0,0,1-4.027-1.9,7.524,7.524,0,0,0-1.14-.669.582.582,0,0,0-.518.165.536.536,0,0,0-.043.525,4.631,4.631,0,0,0,.838.853c.469.367.977.69,1.618,1.129-.345.115-.541.173-.739.242-.345.115-.69.222-1.019.367a.537.537,0,0,0-.383.664c.1.328.382.384.69.33a8.094,8.094,0,0,0,.945-.192,8.233,8.233,0,0,1,5.324.294,10.792,10.792,0,0,1,4.446,2.571,3.705,3.705,0,0,1,1.125,2.815c-.063,1.438-.015,2.882-.015,4.313-.156.016-.259.061-.3.028a6.255,6.255,0,0,0-3.356-1.2c-1.321-.115-2.639-.263-3.959-.395a5.037,5.037,0,0,0-.72-.039.559.559,0,0,0-.575.51.521.521,0,0,0,.414.636,5.529,5.529,0,0,0,.82.137q2.278.249,4.558.484a3.846,3.846,0,0,1,2.494,1.332,1.482,1.482,0,0,1,.261,1.879,2.756,2.756,0,0,1-3.113,1.7c-.319-.039-.69-.157-.835.239-.162.443.215.647.521.824a6.908,6.908,0,0,0,1.085.524,2.354,2.354,0,0,1,1.52,2.008c.063.357.115.717.143,1.077a1.422,1.422,0,0,1-1.434,1.574c-.948.1-1.476-.272-1.6-1.206a4.8,4.8,0,0,1,.024-1.082,1.817,1.817,0,0,0-1.241-2.093,3.926,3.926,0,0,1-.552-.242,1.425,1.425,0,0,1-.7-2.016,1.881,1.881,0,0,0-1.454-2.821c-.544-.136-1.106-.2-1.661-.292a3.08,3.08,0,0,1-2.725-2.668,1.291,1.291,0,0,1,.667-1.626,6.715,6.715,0,0,1,1.594-.483c.467-.1.965-.084,1.423-.212a3,3,0,0,0,1.057-.539,1.359,1.359,0,0,0,.345-1.841,2.77,2.77,0,0,0-2.32-1.52c-.805-.051-1.611-.022-2.416-.052-.681-.024-1.362-.076-2.042-.125a2.6,2.6,0,0,1-1.941-1.293,1.331,1.331,0,0,1-.047-1.677,3.157,3.157,0,0,0,.138-3.728,3.764,3.764,0,0,1-.415-1.125A1.058,1.058,0,0,1,254.349,681.131Z" transform="translate(-222.754 -588.791)" fill="#ff8000"/>
      </g>
    </g>
  </g>
</svg>
