<svg xmlns="http://www.w3.org/2000/svg" width="204.049" height="380" viewBox="0 0 204.049 380">
  <g id="Gruppe_206" data-name="Gruppe 206" transform="translate(-351 -489)">
    <ellipse id="Ellipse_41" data-name="Ellipse 41" cx="101.717" cy="189.753" rx="101.717" ry="189.753" transform="translate(351 489)" fill="#0a1a16"/>
    <g id="Warstwa_2" data-name="Warstwa 2" transform="translate(351 489)">
      <g id="Warstwa_1" data-name="Warstwa 1" transform="translate(0 0)">
        <path id="Pfad_73" data-name="Pfad 73" d="M1482.785,2263.695a.722.722,0,0,0,.656.717.855.855,0,0,0,.758-.83.625.625,0,0,0-.475-.687A.85.85,0,0,0,1482.785,2263.695Z" transform="translate(-1318.951 -2006.609)" fill="#ff8000"/>
        <path id="Pfad_74" data-name="Pfad 74" d="M1499.891,2234.681c.4.02.709-.347.708-.839a.583.583,0,0,0-.556-.611.719.719,0,0,0-.712.673A.657.657,0,0,0,1499.891,2234.681Z" transform="translate(-1333.404 -1980.311)" fill="#ff8000"/>
        <path id="Pfad_75" data-name="Pfad 75" d="M1459.723,2266.049a.569.569,0,0,0-.547.618.525.525,0,0,0,.632.505.725.725,0,0,0,.493-.7A.6.6,0,0,0,1459.723,2266.049Z" transform="translate(-1298.326 -2009.391)" fill="#ff8000"/>
        <path id="Pfad_76" data-name="Pfad 76" d="M1470.135,2292.927a.47.47,0,1,0-.126.929.534.534,0,0,0,.58-.407A.492.492,0,0,0,1470.135,2292.927Z" transform="translate(-1307.405 -2033.201)" fill="#ff8000"/>
        <path id="Pfad_77" data-name="Pfad 77" d="M328.314,2233.16a5.1,5.1,0,0,0-1.077-.872,2.5,2.5,0,0,1-1.055-.864.476.476,0,0,0-.69-.086.606.606,0,0,0-.291.662,1.979,1.979,0,0,0,.516.918,22.061,22.061,0,0,0,1.94,1.263c.313.194.772-.07.833-.578A1.05,1.05,0,0,0,328.314,2233.16Z" transform="translate(-284.079 -1978.646)" fill="#ff8000"/>
        <path id="Pfad_78" data-name="Pfad 78" d="M351.651,2273.58a.6.6,0,0,0-.48.661.668.668,0,0,0,.643.691.609.609,0,0,0,.564-.6A.67.67,0,0,0,351.651,2273.58Z" transform="translate(-311.405 -2016.079)" fill="#ff8000"/>
        <path id="Pfad_79" data-name="Pfad 79" d="M367.805,2264.873a.526.526,0,0,0,.549.6.505.505,0,0,0,.474-.505.556.556,0,0,0-.541-.625A.593.593,0,0,0,367.805,2264.873Z" transform="translate(-326.151 -2007.875)" fill="#ff8000"/>
        <path id="Pfad_80" data-name="Pfad 80" d="M313.443,1106.011a5.582,5.582,0,0,0-1.532-.253,3.77,3.77,0,0,1-2.413-.929c-.367-.253-.674-.7-1.212-.48-.292.119-.095.584.537,1.293a4.425,4.425,0,0,0,1.924,1.264,11.573,11.573,0,0,0,2.3.262,4.586,4.586,0,0,0,.456-.127.572.572,0,0,0,.348-.632A.743.743,0,0,0,313.443,1106.011Z" transform="translate(-269.208 -979.275)" fill="#ff8000"/>
        <path id="Pfad_81" data-name="Pfad 81" d="M325.114,1088.666c.344.221.7.421,1.043.645a1.918,1.918,0,0,0,1.912.126c.137-.058.229-.324.253-.506.015-.119-.115-.272-.21-.379a.426.426,0,0,0-.268-.138,2.49,2.49,0,0,1-1.421-.505,2.325,2.325,0,0,0-.786-.253h-.253a.551.551,0,0,0-.6.379A.577.577,0,0,0,325.114,1088.666Z" transform="translate(-283.726 -964.493)" fill="#ff8000"/>
        <path id="Pfad_82" data-name="Pfad 82" d="M262.153,902.008a2.105,2.105,0,0,0-1.257-1.553c-.456-.2-.9-.425-1.365-.6a9.481,9.481,0,0,0-8.632.494,1.637,1.637,0,0,0-.422.313.549.549,0,0,0-.022.7.563.563,0,0,0,.624.137,2.468,2.468,0,0,0,.254-.1,3.774,3.774,0,0,1,2.025-.149,16.378,16.378,0,0,1,3.155.919,3,3,0,0,1,1.448.988l-1.377,1.885h-1.83l-27.728.019H211.5a1.545,1.545,0,0,1-1.11-.187,2.1,2.1,0,0,1-.086-.434q0-2.31.031-4.62a1.455,1.455,0,0,1,.149-.4c.968-.189,1.951-.395,2.94-.573q9.576-1.726,19.155-3.445l20.785-3.744c.447-.08.895-.113,1.29-.16a1.277,1.277,0,0,1,.145.163.89.89,0,0,1,.1.231c.143.8.529.969,1.33.971.093,0,.185,0,.277.006,1.213.01,1.678-.317,1.955-1.359a2.192,2.192,0,0,0,.011-1.108c-.153-.649-.275-1.31-.4-1.959a2.125,2.125,0,0,0-1.523-1.637,1.309,1.309,0,0,0-1.751.746,9.764,9.764,0,0,0-.617,2.487,2.052,2.052,0,0,1-.3.167,4.17,4.17,0,0,1-.531.137l-42.656,7.656a.289.289,0,0,1-.138-.005,1.039,1.039,0,0,1-.183-.144,4.742,4.742,0,0,1-.068-.649c.022-1.658-.073-3.318.04-4.9a2.694,2.694,0,0,1,.285-.242,2.378,2.378,0,0,1,.364-.178q19.577-7.328,39.163-14.651a.336.336,0,0,1,.135-.011,1.708,1.708,0,0,1,.187.041,3.351,3.351,0,0,0,.242.395c.368.47.637.55,1.152.236a4.177,4.177,0,0,1,1.389-.531,2.584,2.584,0,0,0,1.312-.657,1.426,1.426,0,0,0-.425-2.417,2.552,2.552,0,0,0-.515-.183c-.761-.172-1.519-.36-2.289-.489a2.232,2.232,0,0,0-1.594.269.973.973,0,0,0-.522,1.075,9.274,9.274,0,0,0,.305.953,5.058,5.058,0,0,1-1.5.688q-6,2.272-12.021,4.52-10.235,3.84-20.472,7.675-2.237.839-4.483,1.666a.63.63,0,0,1-.718-.025,4.356,4.356,0,0,1-.066-.53q-.053-2.56-.093-5.118c-.021-1.346.007-1.283,1.207-2.008q6.506-3.928,13-7.863l16.682-10.1c.3-.182.628-.333.814-.431.741.1,1.328.188,1.919.242a.931.931,0,0,0,.907-.469,5.776,5.776,0,0,0,.776-1.993,1.826,1.826,0,0,0-.622-1.595.857.857,0,0,0-.348-.194,1.8,1.8,0,0,0-2,.478,4.579,4.579,0,0,0-.792,1.3,2.6,2.6,0,0,1-1.342,1.505c-.241.122-.456.283-.686.422L221.991,874.8q-5.464,3.31-10.925,6.622c-.224.131-.415.353-.811.211a4.755,4.755,0,0,1-.1-.56,64.029,64.029,0,0,0-.635-7.337c-.015-.083-.012-.166-.022-.249a.832.832,0,0,1,.336-.782c.235-.2.456-.413.686-.619L216.5,866.7q7.2-6.494,14.4-12.994c.224-.2.471-.387.734-.6.181.1.327.2.484.28,1.323.637,2.489,1.632,4.16,1.483a.667.667,0,0,1,.266.06,8.155,8.155,0,0,0,2.607.2,1.634,1.634,0,0,0,1.385-.679,4.169,4.169,0,0,0,.794-2.483c.126-1.45.1-2.908.358-4.35a.681.681,0,0,0-.458-.828,2.481,2.481,0,0,1-1.388-1.318c-.167-.3-.329-.6-.5-.891a3.064,3.064,0,0,0-2.014-1.416c-.448-.112-.9-.173-1.354-.261-1.59-.3-3.222-.2-4.824-.4a1.289,1.289,0,0,0-1.377.83,6.319,6.319,0,0,0-.852,3.228,2.051,2.051,0,0,1-.086.618,1.744,1.744,0,0,0,.3,1.425c.624,1.015,1.2,2.055,1.8,3.1-.21.222-.375.42-.567.594q-10.471,9.459-20.951,18.912a1.23,1.23,0,0,1-.326.122,8.417,8.417,0,0,1-.4-.889,23.385,23.385,0,0,0-1.807-3.778,1.75,1.75,0,0,0-.232-.309.58.58,0,0,0-.744-.035,3.01,3.01,0,0,0-.323.4,14.663,14.663,0,0,0-1.992,4.1,26.569,26.569,0,0,0-.687,2.927c-.182,1.067-.253,2.15-.393,3.223-.106.823-.529,1.187-1.454,1.194-2.264.018-4.529.009-6.794,0a1.947,1.947,0,0,1-.5-.151,8.85,8.85,0,0,1,1.278-1.85q5.339-7.224,10.684-14.443l13.543-18.277a2.375,2.375,0,0,1,1.209-.942,2.889,2.889,0,0,0,1.949-2.265,1.186,1.186,0,0,0-.274-1.059,2.076,2.076,0,0,0-1.973-.671,4.178,4.178,0,0,0-1.773.67,1.3,1.3,0,0,0-.519.561,2.3,2.3,0,0,0,.082,2.281,2.079,2.079,0,0,1,.2.411c-.717,1.2-25.589,34.752-26.415,35.646a26.9,26.9,0,0,1-5.482-.052,1.174,1.174,0,0,1,.011-1.3c.64-1.382,1.27-2.767,1.9-4.151q3.544-7.73,7.086-15.46,3.277-7.152,6.55-14.3c.81-1.77,1.613-3.542,2.437-5.307a1.766,1.766,0,0,1,.687-1,2.5,2.5,0,0,0,1.741-.425,15.464,15.464,0,0,1,2.387-1.691.842.842,0,0,0,.091-1.41,2.685,2.685,0,0,0-.921-.533,5.837,5.837,0,0,1-2.26-1.155,1.973,1.973,0,0,0-.995-.384,6.837,6.837,0,0,0-1.512.019,1.929,1.929,0,0,0-1.618,1.216,4.2,4.2,0,0,0-.257.842,1.681,1.681,0,0,0,.982,2.115,1.2,1.2,0,0,1,.794.851c-.112.277-.241.59-.381.9q-4.329,9.463-8.662,18.926-2.878,6.289-5.755,12.578c-.864,1.884-1.742,3.763-2.614,5.641-.072.154-.167.29-.411.2-.243-.963-.507-1.929-.726-2.9-.275-1.223-.465-2.462-.777-3.676-.385-1.5-.816-2.99-1.31-4.461a3.518,3.518,0,0,1-.112-1.956q1.742-7.893,3.468-15.789c.7-3.224,1.4-6.447,2.1-9.67.293-1.344.605-2.683.9-4a4.074,4.074,0,0,1,.566-.24,1.461,1.461,0,0,0,1.065-1.045,1.413,1.413,0,0,0-.346-1.619c-.181-.189-.383-.365-.544-.566a2.732,2.732,0,0,0-3.114-.675,1.091,1.091,0,0,0-.791.794,6.907,6.907,0,0,0-.2,1.982,1.274,1.274,0,0,0,.884,1.169c.284.117.579.212.913.332-.039.25-.062.451-.1.65q-1.215,5.634-2.435,11.269-1.073,4.959-2.143,9.919c-.362,1.673-.726,3.346-1.105,5.018-.057.252-.04.568-.424.726a21.785,21.785,0,0,1-1.193-2.556c-.161-.389-.33-.776-.489-1.165q-.571-1.41-1.135-2.813c-.187-.468-.364-.942-.546-1.41q-.364-.943-.728-1.885c-.224-.589-.447-1.18-.671-1.769-.63-1.612-1.308-3.2-1.881-4.828a11.594,11.594,0,0,0-1.443-3.089,1.7,1.7,0,0,1-.329-1.058c.009-2.664,0-5.329.009-7.993a6.407,6.407,0,0,1,.073-.705,15.268,15.268,0,0,0,1.849-1.156,12.091,12.091,0,0,0,1.313-1.471c.812-.227,1.561-.427,2.3-.645a2.093,2.093,0,0,0,1.429-1.273,3.279,3.279,0,0,0,0-2.794,7.108,7.108,0,0,0-1.082-1.592,5.376,5.376,0,0,0-3.927-1.848c-.6-.019-1.2-.028-1.8-.066a6.717,6.717,0,0,0-3.08.575,8.815,8.815,0,0,0-4.889,4.38,5.128,5.128,0,0,0-.46,1.556c-.083.741-.026,1.5-.044,2.244a1.3,1.3,0,0,0,.9,1.283,10.926,10.926,0,0,0,4.39,1.017h1.29c.386.346.3.7.3,1.02.009,2.417,0,4.828.02,7.241a2.86,2.86,0,0,1-.447,1.539,11.053,11.053,0,0,0-1.064,2.161c-.642,1.957-1.449,3.86-2.221,5.775-.6,1.485-1.214,2.967-1.719,4.478-.709,2.115-1.684,4.137-2.573,6.19a2.823,2.823,0,0,1-.237.451,1.855,1.855,0,0,1-.3.26,3.994,3.994,0,0,1-.215-.531c-.686-3.1-1.36-6.2-2.048-9.3q-1.886-8.5-3.78-17.005a5.318,5.318,0,0,1-.218-1.427,2.5,2.5,0,0,1,.364-.286c.242-.121.5-.221.746-.326.821-.344,1.05-.664,1.007-1.447a5.457,5.457,0,0,0-.828-2.362,1.359,1.359,0,0,0-1.9-.423,3.858,3.858,0,0,0-1.259,1.141,5.9,5.9,0,0,1-1.1,1.273,1.064,1.064,0,0,0-.232,1.483c.368.689.618.919,1.693,1.471.089.319.208.675.29,1.039q.851,3.791,1.687,7.584,1.759,7.89,3.521,15.78.56,2.507,1.119,5.014a3.461,3.461,0,0,1-.079,1.966c-.371,1.071-.671,2.164-.968,3.254-.224.806-.406,1.62-.585,2.435-.208.938-.336,1.893-.6,2.82a24.281,24.281,0,0,0-.625,2.681c-.01.055-.126.1-.217.162a1.382,1.382,0,0,1-.237-.274c-5.978-12.806-11.858-25.649-17.757-38.4.275-.5.524-.894.713-1.309a1.148,1.148,0,0,0-.261-1.283,3.976,3.976,0,0,0-3.02-1.309c-1.007-.048-1.311.163-1.6,1.032a3.4,3.4,0,0,0-.173.728,1.8,1.8,0,0,0,1.383,1.932,5.882,5.882,0,0,0,.8.212,1.1,1.1,0,0,1,.951.8,7.1,7.1,0,0,0,.33.687q3.41,7.374,6.817,14.749,3.384,7.316,6.773,14.63c1.51,3.265,3,6.536,4.527,9.795a2.815,2.815,0,0,1,.271,1.941,12.292,12.292,0,0,0-.234,2.732c-.031,1.082-.022,2.165-.045,3.246,0,.18.07.41-.271.551-.233-.287-.484-.576-.711-.879Q151.9,877.3,146.832,870.52q-4.6-6.161-9.2-12.331l-10.82-14.505c-.2-.271-.364-.567-.539-.844.112-.238.18-.437.289-.617a2.793,2.793,0,0,0,.262-2.188,6.369,6.369,0,0,0-1.193-2.508,3.687,3.687,0,0,0-1.74-1.181,1.44,1.44,0,0,0-1.76.618,3.736,3.736,0,0,0-.173,3.616,5.2,5.2,0,0,0,2,2.193,4.012,4.012,0,0,1,1.337,1.233c.27.388.582.75.866,1.13l9.746,13.052q4.064,5.439,8.135,10.87,4.676,6.27,9.335,12.551,1.969,2.644,3.949,5.28a1.789,1.789,0,0,1,.491,1.14c-.044,1-.084,2-.133,2.995a2.088,2.088,0,0,1-.087.363c-.455,0-.631-.329-.875-.548q-4.128-3.7-8.238-7.413-8.24-7.41-16.488-14.815-5.494-4.936-10.983-9.885l-6.963-6.267c-.286-.259-.654-.473-.757-.921a2.235,2.235,0,0,1,.206-.413,7.158,7.158,0,0,0,1.054-2.82,1.529,1.529,0,0,0,.056-.616,4.569,4.569,0,0,0-2.264-3.545,3.048,3.048,0,0,0-1.537-.494,3.521,3.521,0,0,1-1.613-.265,1.981,1.981,0,0,0-.942-.106c-.733.032-1.47-.01-2.206-.03-.322-.009-.643-.057-.965-.057a4.832,4.832,0,0,1-1.359-.183,4.6,4.6,0,0,0-1.231-.143.672.672,0,0,0-.692.869,1.639,1.639,0,0,0,.081.239,2.358,2.358,0,0,1,.216,1.457,1.434,1.434,0,0,0,.213.825,5.588,5.588,0,0,0,.5.746,2.913,2.913,0,0,0-.139,1.619,1.365,1.365,0,0,1-.13.724,2.772,2.772,0,0,0,.068,1.961,8.35,8.35,0,0,0,1.265,2.069,23.781,23.781,0,0,0,2.046,1.842c.569.162,1.138.325,1.707.485a2.7,2.7,0,0,0,.267.05c.582-.067,1.1-.446,1.749-.2.17.063.442-.062.657-.131.347-.111.678-.259,1.026-.367a1.745,1.745,0,0,0,1.087-.9c.13-.251.293-.488.481-.8.374.3.69.544.981.806q9.125,8.2,18.244,16.409c2.258,2.029,4.53,4.043,6.787,6.071q7.756,6.963,15.506,13.932c.949.853,1.9,1.7,2.837,2.566a1.2,1.2,0,0,1,.414.621,4.793,4.793,0,0,1-.088,2.051,6.945,6.945,0,0,1-.637-.291q-2.258-1.339-4.507-2.688-6.511-3.92-13.016-7.845-7.437-4.469-14.879-8.927-7.266-4.364-14.523-8.738-3.169-1.907-6.335-3.821c-.224-.133-.5-.243-.49-.58.157-.223.348-.459.5-.715a4.1,4.1,0,0,0,.385-.806,1.9,1.9,0,0,0-.914-2.3.775.775,0,0,0-.783-.109,9.936,9.936,0,0,0-2.082,1.22c-.615.563-1.273,1.09-1.891,1.652a10.1,10.1,0,0,0-.895.95.767.767,0,0,0-.076.939,1.974,1.974,0,0,0,1.832,1.127,2.143,2.143,0,0,1,.553.017,2.429,2.429,0,0,0,2.3-.5c.056-.044.175-.024.264-.034,1.361.7,54.414,32.591,55.251,33.222a3.39,3.39,0,0,1-.064,1.928c-.359-.12-.665-.212-.96-.322q-5.444-2.027-10.884-4.057-13.45-5-26.9-9.987-8.2-3.043-16.4-6.092c-2.007-.746-4.018-1.484-6.02-2.24a2.15,2.15,0,0,1-1.19-.682c0-.288.019-.619,0-.95a2.672,2.672,0,0,0-1.14-2.061,6.039,6.039,0,0,0-3.032-1.135,1.978,1.978,0,0,0-2.1.914,3.514,3.514,0,0,0-.305,3.022,2.212,2.212,0,0,0,.76,1.026,4.614,4.614,0,0,0,4.39.705,1.4,1.4,0,0,1,.935-.042c.389.129.775.269,1.16.412q4.994,1.86,9.989,3.727,10,3.7,20,7.4,8.648,3.211,17.285,6.447,6.726,2.5,13.46,4.981a8.182,8.182,0,0,1,.887.349.635.635,0,0,1,.336.366c.053.351.2.736-.189,1.1q-.461-.01-.92-.062c-.681-.107-1.358-.242-2.037-.364l-14.543-2.593c-5.438-.959-10.882-1.893-16.319-2.855q-10.876-1.924-21.744-3.872-5.034-.895-10.063-1.771a4.077,4.077,0,0,1-1.443-.425,9.116,9.116,0,0,0-.007-1.007,2.288,2.288,0,0,0-1.327-1.93,1.884,1.884,0,0,0-2.151.259,3.6,3.6,0,0,1-1.134.676,9.468,9.468,0,0,0-1.419.765,1.569,1.569,0,0,0,.313,2.73,2.731,2.731,0,0,0,1.444.375,2.139,2.139,0,0,1,1.435.3,1.249,1.249,0,0,0,1.524-.136c.244-.185.462-.4.734-.635q33.575,5.911,67.143,11.826a4.633,4.633,0,0,1,.587.2.83.83,0,0,0,.032.342q-.05.4-.076.806a.933.933,0,0,1-.07.08H133.672q-17.4,0-34.8.006-4.715,0-9.428-.007c-.356,0-.745.09-1.058-.172a2.486,2.486,0,0,0-.155-.969c-.379-.6-.009-1.13.023-1.694.039-.676.559-1.029,1.035-1.41.447-.357.959-.65,1.429-.987A.6.6,0,0,0,90.7,898.8a1.594,1.594,0,0,0-.479-.239,5.624,5.624,0,0,0-4.265.367,6.35,6.35,0,0,0-2.224,1.41c-.122.154-.4.2-.584.325a1.779,1.779,0,0,0-.849.955,2.049,2.049,0,0,1-.716,1.175,1.188,1.188,0,0,0-.477,1.112,1.83,1.83,0,0,1-.36,1.175c-.242.463.224.888.1,1.343a4.661,4.661,0,0,0-.177.471A2.935,2.935,0,0,0,80.541,908a24.145,24.145,0,0,0,.783,2.518,1.345,1.345,0,0,0,.738.714,5.539,5.539,0,0,0,3.338.558c.358-.057.727-.064,1.09-.1a1.251,1.251,0,0,0,.922-.494,2.736,2.736,0,0,0,.629-1.5,2.139,2.139,0,0,1,.133-.976,2.288,2.288,0,0,0,.217-1.926c-.021-.069.035-.158.058-.25a2.108,2.108,0,0,1,1.326-.174q6.031-.016,12.062-.014h32.858q10.74-.006,21.489-.028c.461,0,.922.016,1.383.039a.216.216,0,0,1,.112.047q.026.423.079.838a.887.887,0,0,1-.183.291c-.1.035-.182.07-.27.1a2.434,2.434,0,0,1-.267.066L91.422,919.512c-.181.032-.364.06-.547.086s-.365.048-.548.071a.574.574,0,0,1-.138.009.8.8,0,0,1-.143-.038,1.114,1.114,0,0,1-.611-.779,2.438,2.438,0,0,0-1.072-1.266,1.01,1.01,0,0,0-1.273-.012,9.128,9.128,0,0,0-1.62,1.35,4.216,4.216,0,0,0-.953,2.308c-.078.66.336,1.108,1.061,1.256.447.092.895.178,1.342.269a3.257,3.257,0,0,0,1.891-.2,1.843,1.843,0,0,0,1.138-1.182,1.431,1.431,0,0,1,.263-.34Q123.72,915,157.282,908.956a2.219,2.219,0,0,1,.39,0c.356.285.194.638.208.953a.659.659,0,0,1-.494.68c-.214.079-.426.161-.64.242L133.2,919.646,111.32,927.84q-7.806,2.921-15.609,5.852c-.375.14-.767.243-1.119.352-.519-.456-.974-.863-1.439-1.261a2.965,2.965,0,0,0-1.5-.586,1.478,1.478,0,0,0-1.047.231,3.058,3.058,0,0,0-1.069,2.7,1.216,1.216,0,0,0,.167.341c.545.77,1.061,1.56,1.658,2.3a2.721,2.721,0,0,0,1.8,1.072,4.4,4.4,0,0,0,2.3-.322,1.628,1.628,0,0,0,.955-1.076,1.465,1.465,0,0,0-.34-1.342c-.215-.247-.6-.383-.651-.728.092-.095.138-.185.214-.214q30.307-11.4,60.619-22.781c.42-.157.852-.287,1.27-.427.074.112.154.178.162.251.154,1.422.128,1.467-1.166,2.248q-7.6,4.591-15.19,9.187c-3.8,2.3-7.579,4.615-11.374,6.915q-6.265,3.8-12.545,7.582-7.136,4.313-14.264,8.639a2.726,2.726,0,0,1-2.461.4,1.716,1.716,0,0,0-.945.014,3.467,3.467,0,0,0-1.856,1.247,2,2,0,0,0-.362,1.788,1.209,1.209,0,0,0,1,.93,3.842,3.842,0,0,0,1.9-.089,5.136,5.136,0,0,0,2.461-2.1c.086-.5.5-.765.93-1.021.385-.231.755-.479,1.139-.711q7.246-4.39,14.494-8.776,6.041-3.661,12.068-7.329,8.4-5.08,16.813-10.145,4.259-2.574,8.5-5.161c.224-.132.458-.239.756-.394a7.749,7.749,0,0,1,.129,1.563,1.694,1.694,0,0,1-.692,1.547c-.88.734-1.71,1.519-2.56,2.285l-12.53,11.316q-7.444,6.716-14.89,13.43-6.907,6.228-13.819,12.453c-.224.2-.478.368-.69.53-.725-.33-1.372-.641-2.034-.922a1.329,1.329,0,0,1-.895-.882,1.89,1.89,0,0,0-.275-.567.73.73,0,0,0-1.074-.077,1.015,1.015,0,0,0-.177.191,6.325,6.325,0,0,0-1.193,2.5,5.585,5.585,0,0,1-.336,1.1c-.185.117-.383.224-.559.355a1.924,1.924,0,0,0-.885,1.868,1.714,1.714,0,0,1-.435,1.511,1.331,1.331,0,0,0-.292,1.067c.122,1.053.365,1.807,2.046,1.47a5.08,5.08,0,0,1,1.5-.091,1.261,1.261,0,0,1,1.2,1.528c-.022.122-.089.238-.112.361a.638.638,0,0,0,.632.795c.313.034.63.041.895.057a1.415,1.415,0,0,1,.21.253,1.7,1.7,0,0,0,1.464,1.17,1.234,1.234,0,0,1,.559.325c.164.136.273.333.433.48a.581.581,0,0,0,.885-.246,1.97,1.97,0,0,0,.029-.616,1.269,1.269,0,0,1,.415-1.139,5.591,5.591,0,0,0,.6-.806c-.122-.324-.224-.593-.329-.88.329-.3.671-.586.962-.906a1.931,1.931,0,0,0,.536-1.259,1.133,1.133,0,0,0-.5-.856.7.7,0,0,1-.161-1.018,2.86,2.86,0,0,0,.459-1.914,1.755,1.755,0,0,0-1.331-1.844c-.247-.088-.548-.122-.61-.482.257-.25.528-.532.82-.8q9.106-8.216,18.219-16.431c2.252-2.033,4.488-4.079,6.74-6.112q6.265-5.656,12.544-11.3c1.47-1.324,2.931-2.658,4.4-3.98.177-.159.327-.42.735-.266.041.716.085,1.46.128,2.2.112,1.914.112,1.559-.87,2.9-2.449,3.33-4.922,6.648-7.383,9.972q-5,6.749-9.991,13.507-4.81,6.491-9.621,12.978c-1.385,1.87-2.783,3.727-4.149,5.612a1.9,1.9,0,0,1-1.534.921c-.364.018-.717.165-1.082.2A4.322,4.322,0,0,0,120.368,970a1.256,1.256,0,0,0,.364,2.046,3.591,3.591,0,0,0,3.175.26,5.87,5.87,0,0,1,1.031-.332,1.6,1.6,0,0,0,1.436-1.459,2.6,2.6,0,0,0-.046-.867,1.13,1.13,0,0,1,.236-1.058c.163-.2.3-.419.455-.627l12.685-17.142q6.961-9.4,13.926-18.8,1.807-2.439,3.618-4.877c.148-.2.264-.448.634-.464a4.892,4.892,0,0,1,.078,1.357,26.27,26.27,0,0,0,.392,5.594,1.435,1.435,0,0,1-.143.967q-.654,1.443-1.319,2.884-3.381,7.391-6.767,14.77-4.922,10.73-9.83,21.456c-.224.5-.481.983-.689,1.41a3.345,3.345,0,0,0-2.293,2.127,2.15,2.15,0,0,0,1.749,2.892,4.124,4.124,0,0,0,1.64-.023,3.115,3.115,0,0,0,1.634-1.288.469.469,0,0,0,.082-.235,2.152,2.152,0,0,0-.614-1.971c-.284-.262-.559-.531-.858-.812.182-.434.336-.826.508-1.209q4.327-9.469,8.663-18.926,3.141-6.866,6.277-13.735c.687-1.5,1.392-2.993,2.093-4.488.069-.147.131-.321.416-.282.244.952.515,1.914.733,2.883.265,1.181.44,2.381.742,3.555.395,1.539.835,3.07,1.336,4.584a3.757,3.757,0,0,1,.112,2.077q-1.755,7.89-3.468,15.789-1.489,6.8-2.956,13.594a2.325,2.325,0,0,1-.239.469c-.307-.019-.58-.036-.851-.055s-.553-.058-.829-.059a.968.968,0,0,0-1.092.907,2.969,2.969,0,0,0,1.9,2.676,2.127,2.127,0,0,0,.95.075,17.4,17.4,0,0,0,2.138-.516,5.436,5.436,0,0,0,1.2-.6,1.1,1.1,0,0,0-.357-2.052c-.433-.117-.871-.223-1.364-.348a7.387,7.387,0,0,1,.082-.877q1.259-5.818,2.533-11.633,1.077-4.958,2.146-9.918c.362-1.674.724-3.347,1.1-5.017.058-.258.028-.583.447-.743.155.309.321.6.453.906.37.851.685,1.725,1.1,2.559.964,1.942,1.5,4.019,2.405,5.979.053.115.07.242.112.36.237.63.474,1.26.719,1.887.628,1.612,1.3,3.205,1.876,4.83a11.127,11.127,0,0,0,1.4,2.972,1.711,1.711,0,0,1,.336,1.056c-.009,2.664,0,5.329-.011,7.992a4.9,4.9,0,0,1-.119.753c-.7.158-1.367.345-2.045.45a7.631,7.631,0,0,0-3.825,1.9,3.749,3.749,0,0,0-1.495,2.472,5.244,5.244,0,0,0,2.18,4.777,3.51,3.51,0,0,0,2.694.788,6.136,6.136,0,0,0,3.5-1.341c.157-.15.346-.274.6-.471a5.481,5.481,0,0,0,5.178.142,5.867,5.867,0,0,0,3.22-3.727,2.2,2.2,0,0,0-.048-1.837,4.875,4.875,0,0,0-2.33-2.226,11.365,11.365,0,0,0-4.261-.977c-.415,0-.83-.024-1.244-.045-.336-.018-.53-.169-.559-.448-.02-.2-.022-.415-.022-.623,0-2.456,0-4.912-.019-7.366a2.554,2.554,0,0,1,.468-1.534,5.837,5.837,0,0,0,.6-1.12c.349-.857.653-1.73.987-2.592q1.977-5.137,3.967-10.274c.336-.862.738-1.7,1.113-2.554.409-.927.816-1.855,1.244-2.776.073-.156.1-.4.493-.411.746,3.163,1.41,6.346,2.126,9.518.707,3.139,1.384,6.282,2.077,9.424.7,3.174,1.442,6.346,2.109,9.569-.264.108-.461.2-.671.268-.3.1-.629.15-.916.276a1.978,1.978,0,0,0-1.181,2.2,1.9,1.9,0,0,0,1.835,1.449q.891.1,1.79.123a6.153,6.153,0,0,0,2.921-.655,1.736,1.736,0,0,0,.3-2.893,4.409,4.409,0,0,0-1.584-.74c-.345-.094-.741-.065-1.023-.344-.035-.114-.079-.232-.112-.352q-.962-4.28-1.921-8.562-1.506-6.727-3.006-13.455c-.559-2.528-1.1-5.063-1.7-7.583a3.881,3.881,0,0,1,.1-2.2c.238-.717.458-1.439.648-2.169.254-.97.48-1.946.7-2.921.21-.938.346-1.892.612-2.82a16.8,16.8,0,0,0,.559-2.442c.012-.1.136-.181.271-.349.236.445.448.806.623,1.183.469,1,.923,2,1.384,3l7.926,17.173q3.777,8.182,7.56,16.363a2.561,2.561,0,0,1,.39,1.187c-.263.3-.543.58-.771.891-.856,1.164-.706,1.945.511,2.79a.774.774,0,0,0,.224.138,2.578,2.578,0,0,0,.79.157,6.088,6.088,0,0,0,3.169-1.137,2.326,2.326,0,0,0,.7-2.945,1.984,1.984,0,0,0-2.288-.931c-.3.058-.62.071-.986.111-.214-.415-.421-.782-.6-1.161q-3.281-7.083-6.553-14.172-3.438-7.431-6.879-14.861-2.212-4.783-4.411-9.569c-.089-.193-.179-.385-.254-.581a2.136,2.136,0,0,1-.141-.481c-.05-.413.051-.732.654-.731,1.432,0,2.865.009,4.3-.014a1.387,1.387,0,0,1,1.255.611c2.468,3.324,4.966,6.621,7.441,9.936q6.186,8.289,12.357,16.586,2.626,3.526,5.248,7.051c.169.228.464.426.336.773a11.557,11.557,0,0,0-.989.665.953.953,0,0,0-.19,1.543c.273.332.632.6.916.934a2.135,2.135,0,0,0,2.23.635,7.6,7.6,0,0,0,.8-.183,2.943,2.943,0,0,0,1.566-1.169,1.261,1.261,0,0,0-.679-1.972,3.881,3.881,0,0,0-.4-.107,3.4,3.4,0,0,1-2.126-1.483,7.224,7.224,0,0,0-.468-.619l-10.128-13.573q-4.564-6.113-9.134-12.222-2.515-3.364-5.024-6.737c-.112-.158-.318-.313-.112-.6.224-.018.492-.057.761-.058q2.911,0,5.817.006c1.643.009,1.855.173,1.939,1.612a26.578,26.578,0,0,0,.663,4.323,15.667,15.667,0,0,0,2.33,5.439,3.977,3.977,0,0,0,.4.5.546.546,0,0,0,.635-.005,2.786,2.786,0,0,0,.392-.5,22.4,22.4,0,0,0,1.9-4.143c.055-.18.031-.42.389-.511.336.289.7.6,1.061.917l15.886,14.3q2.258,2.029,4.511,4.06c.224.2.525.368.431.8-.106.1-.272.241-.42.4-.361.378-.736.747-1.065,1.147a1.355,1.355,0,0,0-.045,1.852,1.414,1.414,0,0,0,.168.2.962.962,0,0,1,.3,1.038,1.841,1.841,0,0,0,.841,2.094c.277.218.576.413.868.615a3.3,3.3,0,0,1,1.02.806.775.775,0,0,1,.048.257,1.25,1.25,0,0,0,.77,1.459,2.875,2.875,0,0,1,1.259,1.3,19.324,19.324,0,0,0,1.469,1.948.859.859,0,0,0,.2.173.714.714,0,0,0,.514.139.678.678,0,0,0,.46-.249,1.024,1.024,0,0,0,.209-.318,3.352,3.352,0,0,1,.895-1.524.92.92,0,0,0,.21-.453c.072-.322.119-.652.16-.979s.063-.644.092-.952c.056-.045.086-.088.126-.1a1.578,1.578,0,0,0,1.342-1.658c-.008-.546.147-.611.733-.718q.748-.12,1.478-.312c.7-.2.972-.581.848-1.239a6.918,6.918,0,0,0-.412-1.185c-.224-.561-.161-.7.47-.954.168-.068.356-.1.517-.174a.7.7,0,0,0,.294-1.157,5.508,5.508,0,0,0-1.047-.795c-.375-.24-.805-.41-1.178-.652a3.3,3.3,0,0,1-1.678-2.056,2.143,2.143,0,0,0-.671-1.075,1.652,1.652,0,0,0-1.327-.548,4.907,4.907,0,0,1-1.375-.11,3.78,3.78,0,0,0-2.167.155c-.3.1-.61.19-.918.274a2.285,2.285,0,0,0-1.685,1.356c-.067.17-.1.418-.493.424-.484-.426-1.017-.884-1.539-1.353q-7.655-6.876-15.308-13.757c-1.6-1.439-3.186-2.9-4.831-4.3a1.723,1.723,0,0,1-.719-1.869,15.949,15.949,0,0,0,.284-2.354c.112-1.661.2-3.324.3-4.985.012-.208.017-.421.345-.5a4.644,4.644,0,0,1,.456.215q15.1,9.082,30.2,18.172a1.774,1.774,0,0,1,.28.263,2.759,2.759,0,0,1-.1,1.243,5.533,5.533,0,0,0-.12.613,1.34,1.34,0,0,0,1.36,1.442,8.349,8.349,0,0,0,3.655-.546,4.5,4.5,0,0,0,1.02-.627,1.449,1.449,0,0,0,.6-1.338,3.577,3.577,0,0,0-2.329-3.022,1.156,1.156,0,0,0-1.376.2,4.8,4.8,0,0,1-1.37,1.034,5.034,5.034,0,0,1-1.328-.69q-4.616-2.767-9.226-5.54-10.38-6.232-20.763-12.462c-.268-.161-.53-.333-.8-.494a.883.883,0,0,1-.463-.728c-.015-.208-.021-.416-.018-.625q.044-2.619.1-5.238a2.829,2.829,0,0,1,.112-.5,3.492,3.492,0,0,1,1.342.37q6.858,2.535,13.708,5.092l16.651,6.191c1.963.73,3.932,1.453,5.891,2.193a2.62,2.62,0,0,1,1.218.639c.043.253.074.542.143.823a1.311,1.311,0,0,0,1.307,1.081c1.193.1,2.375.292,3.563.434a2.5,2.5,0,0,0,1.206-.224c.747-.288,1.066-.8.822-1.493a13.57,13.57,0,0,0-.7-1.491,2.718,2.718,0,0,0-1.991-1.41c-.581-.133-1.172-.239-1.736-.417a1.343,1.343,0,0,0-1.566.461c-.224.248-.309.621-.794.711-.3-.1-.644-.21-.984-.337q-5.511-2.043-11.019-4.091l-14.456-5.378-11.529-4.284a2.067,2.067,0,0,1-1.047-.551,48.236,48.236,0,0,1-.022-5.611c.009-.068.105-.127.2-.23.469.065.968.121,1.461.2,1.723.3,3.442.611,5.164.916l16.858,2.976q5.845,1.033,11.689,2.072c2.265.4,4.534.793,6.8,1.2a3.085,3.085,0,0,1,1.436.454c-.029.374-.074.744-.083,1.116-.023.926.288,1.2,1.281,1.236a5.741,5.741,0,0,0,2.269-.5A2.2,2.2,0,0,0,259,920.137a11.332,11.332,0,0,0-.512-1.42,1.852,1.852,0,0,0-.262-.439.992.992,0,0,0-1.335-.244,13.984,13.984,0,0,0-1.183.86c-.276.215-.533.45-.729.619a1.765,1.765,0,0,1-.241.045,2.6,2.6,0,0,1-.414-.019q-21.342-3.764-42.683-7.534c-.317-.055-.629-.135-.943-.2a.418.418,0,0,1-.129-.044.974.974,0,0,1-.131-.124.936.936,0,0,1-.1-.3q-.02-2.247-.017-4.493a1.659,1.659,0,0,1,.155-.474c.276-.018.5-.045.726-.046q5.615-.008,11.231-.01h25.507q3.606,0,7.21.008a7.537,7.537,0,0,1,.915.114,1.425,1.425,0,0,1,.045.435,9.089,9.089,0,0,0-.01,2.856c.077,1.56,1.374,2.619,2.966,3.1a.97.97,0,0,0,.913-.167,3.9,3.9,0,0,0,.762-.869,3.583,3.583,0,0,0,.345-.946,29.04,29.04,0,0,0,1.035-5.4,6.1,6.1,0,0,0-.1-1.364,1.96,1.96,0,0,1,.105-1.458A.868.868,0,0,0,262.153,902.008Zm-6.428-13.942a.356.356,0,0,1,.256-.192.391.391,0,0,1,.322.078c.162.14.385.292.425.468.2.851.342,1.712.507,2.57a.563.563,0,0,1-.622.657.451.451,0,0,1-.447-.232c-.2-.462-.395-.93-.566-1.4A2.522,2.522,0,0,1,255.725,888.066Zm-5.02-13.428c.783.165,1.542.322,2.3.487a.919.919,0,0,1,.376.143c.123.1.276.249.277.377a.506.506,0,0,1-.262.391,3.9,3.9,0,0,1-1.743.362,4.945,4.945,0,0,1-1.068-1.426C250.543,874.9,250.656,874.759,250.706,874.638Zm-7.358-13.107a.548.548,0,0,1,.723.111.743.743,0,0,1,.125.348,2.022,2.022,0,0,1-.489,1.27.779.779,0,0,1-.288.151.6.6,0,0,1-.661-.417A1.679,1.679,0,0,1,243.348,861.531Zm-12.736-13a2.749,2.749,0,0,1,.544-.183c.915-.094,1.834-.165,2.749-.256a2.531,2.531,0,0,0,.53-.127.544.544,0,0,0,.367-.6.458.458,0,0,0-.2-.315.56.56,0,0,0-.391-.088c-.869.095-1.735.212-2.6.316a3.537,3.537,0,0,1-1.415.023,3.241,3.241,0,0,1,.156-1.557,3.594,3.594,0,0,1,1.405-.085c.644-.019,1.29-.013,1.934-.035a.475.475,0,0,0,.423-.429.469.469,0,0,0-.4-.448c-.365-.038-.733-.052-1.1-.068a11.673,11.673,0,0,1-1.891-.079c.06-.239.082-.362.125-.479s.112-.224.187-.383a1.674,1.674,0,0,1,.5-.076c1.454.2,2.944.153,4.391.439.224.044.448.082.678.12a2.331,2.331,0,0,1,1.858,1.334,5.594,5.594,0,0,0,.763,1.181,12.521,12.521,0,0,0,1.054,1.007c0,.3.018.637,0,.964-.069,1.077-.134,2.156-.238,3.23a7.444,7.444,0,0,1-.283,1.343,1.081,1.081,0,0,1-.357.515.737.737,0,0,1-.5.07c-.066-.01-.153-.2-.136-.3.082-.451.2-.9.3-1.344a4.993,4.993,0,0,0,.085-.617.474.474,0,0,0-.371-.464c-.2-.041-.527.077-.582.242-.12.357-.224.718-.318,1.081-.112.44-.2.885-.314,1.378-.79.038-1.454-.337-2.321-.146a4.357,4.357,0,0,1,.319-.742c.381-.52.793-1.02,1.185-1.535a2.805,2.805,0,0,0,.414-.641.53.53,0,0,0-.1-.447.48.48,0,0,0-.62-.1,2.714,2.714,0,0,0-.7.58c-.413.5-.783,1.027-1.168,1.544-.126.169-.251.339-.39.529a1.919,1.919,0,0,1-1.867-1.56,8.069,8.069,0,0,1,1.764-1.03,12.023,12.023,0,0,0,1.3-.705.411.411,0,0,0,.16-.555.616.616,0,0,0-.683-.3,2.5,2.5,0,0,0-.512.178c-.639.33-1.27.673-1.9,1.007l-.64.339A5.156,5.156,0,0,1,230.611,848.528ZM219.2,840.21a5.777,5.777,0,0,1,1.238-.515c.167-.046.4.111.659.19a1.622,1.622,0,0,1-.967,1.442,1.883,1.883,0,0,1-.659.128.558.558,0,0,1-.559-.457.747.747,0,0,1,.292-.788Zm-16-6.12a.779.779,0,0,1-.447-.718,1.893,1.893,0,0,1,.3-1.108,2.279,2.279,0,0,1,2.807.425,3.119,3.119,0,0,0,1.96.753,3.677,3.677,0,0,1-.385.467c-.508.419-1.02.833-1.546,1.234a.8.8,0,0,1-.9.077c-.236-.124-.468-.257-.689-.4-.373-.233-.72-.5-1.1-.726Zm-16.221-4.5c0-.125-.011-.25,0-.373.036-.329.031-.7.486-.806a1.138,1.138,0,0,1,1.244.29c.245.3.491.6.719.912.266.363.06.744-.441.813-.318.043-.641.053-.961.082-1,.093-1.078.021-1.044-.918Zm-32.35.454c-.272-.367-.255-.669.143-.827a2,2,0,0,0,1.027-.942,1.6,1.6,0,0,1,1.08-.884,5.53,5.53,0,0,1,.767,1.947,12.29,12.29,0,0,1-2.105,1.1c-.317.126-.649-.045-.908-.4Zm-14.948,4.78a2.91,2.91,0,0,1-1.963-.334.89.89,0,0,1-.23-1.13.587.587,0,0,1,.317-.211,1.646,1.646,0,0,1,.377-.057,2.587,2.587,0,0,1,1.79.553A.656.656,0,0,1,139.684,834.826Zm-14.643,7.316a3.76,3.76,0,0,1-2-1.634,2.365,2.365,0,0,1-.236-2.388,1.936,1.936,0,0,1,.264-.435.549.549,0,0,1,.723-.156,4.051,4.051,0,0,1,.821.653,5.069,5.069,0,0,1,1.119,2.65A1.314,1.314,0,0,1,125.041,842.142Zm-19.509,2.41a.867.867,0,0,1,1.029-.036l-2.3,2.233a.448.448,0,0,1-.1-.669,16.223,16.223,0,0,1,1.373-1.528Zm-2.126.765c-.035-.38-.073-.6-.074-.84,0-.3.19-.377.559-.223.072.03.112.117.256.266-.236.258-.434.469-.741.8Zm8,8.453c-.458.167-.877.329-1.306.473-.166.055-.39.138-.519.081a1.4,1.4,0,0,0-1.469.2c-.179-.01-.267-.014-.355-.021a3.672,3.672,0,0,1-2.208-1.143,5.742,5.742,0,0,1-1.566-2.173,1.65,1.65,0,0,1-.072-.487c-.013-.2.234-.472.4-.414a1.27,1.27,0,0,1,.379.31c.026.025.019.079.023.121.105,1.077.9,1.565,1.94,1.852a1.831,1.831,0,0,1,.637.191,1.967,1.967,0,0,0,1.669.347,6.143,6.143,0,0,0,2.363-.486c.515.448.3.808.082,1.148Zm.418-2.308a6.806,6.806,0,0,1-3.662.705,2.755,2.755,0,0,0-1.369-.578,1.184,1.184,0,0,1-1.128-1.1c-.009-.083-.032-.164-.037-.248a1.065,1.065,0,0,0-.751-.961,1.972,1.972,0,0,1-.411-.31,8.065,8.065,0,0,1,4.427-4.383,5.5,5.5,0,0,0,1.532.246,2.327,2.327,0,0,1,2.1,1.007,3.219,3.219,0,0,1,.7,2.828,7.384,7.384,0,0,1-1.4,2.794Zm-9.2,10.164c-.559.751-1.151,1.478-1.758,2.248-.579-.033-1.125-.046-1.666-.1-.507-.052-.7-.461-.368-.791.766-.766,1.54-1.525,2.34-2.262a4.076,4.076,0,0,1,.895-.565.586.586,0,0,1,.822.41,1.384,1.384,0,0,1-.265,1.061Zm-8.71,13.768a1.354,1.354,0,0,1-.783,1.19,1.3,1.3,0,0,1-.641.188,7.046,7.046,0,0,1-1.474-.249c-1.035-.347-1.321-.786-1.311-1.914a2.355,2.355,0,0,1,.028-.385c.207-1.063.706-1.277,1.712-1.028a6.664,6.664,0,0,1,1.74.723,1.474,1.474,0,0,1,.729.869,1.5,1.5,0,0,1,0,.6Zm-4.757,15.322c-.224.252-.4.537-.606.813a1.428,1.428,0,0,1-.431-.091,2.093,2.093,0,0,0-1.678-.338,1.266,1.266,0,0,1-1.027-.241.457.457,0,0,1-.129-.657,2.032,2.032,0,0,1,.986-.642,4.615,4.615,0,0,0,2.029-1.153,1.381,1.381,0,0,1,1.137,1.026A1.277,1.277,0,0,1,89.162,890.716ZM83.508,902.37a3.322,3.322,0,0,1,1.669-.144,2.427,2.427,0,0,1,1.359.551c.1.47.2.947.336,1.585a13.651,13.651,0,0,0-1.542-.479,10.812,10.812,0,0,0-1.506-.095c-.478-.016-.945.192-1.587.218C82.62,903.255,83.288,902.941,83.508,902.37Zm2.789,8.1c-.364.06-.763.145-1.168.183a3.087,3.087,0,0,1-.959-.012,8.217,8.217,0,0,1-1.413-.467c-.553-.239-.447-.771-.559-1.2-.041-.152-.058-.308-.093-.495a3.792,3.792,0,0,1,1.547-.563,8.305,8.305,0,0,1,3.1.289C86.619,908.993,86.893,909.768,86.3,910.474Zm.628-3.511a17.039,17.039,0,0,0-4.761.039c.017-.289.047-.529.039-.768a5.493,5.493,0,0,0-.1-.625c1.454-1.14,2.958-.867,4.546-.164.093.324.2.68.292,1.041A2.027,2.027,0,0,1,86.924,906.962Zm.054-5.5c-.132.046-.181.083-.215.073-.565-.165-1.128-.336-1.66-.5-.122-.438.154-.6.469-.681a1.367,1.367,0,0,1,1.656.668C87.145,901.169,87.045,901.343,86.978,901.459ZM88,900.19a2.575,2.575,0,0,1-.431-.315.3.3,0,0,1-.07-.261.324.324,0,0,1,.175-.217,1.227,1.227,0,0,1,1.171.025C88.76,899.832,88.428,899.985,88,900.19Zm.091,21.326a2.965,2.965,0,0,1-.951.039,10.262,10.262,0,0,1-1.231-.354,3.164,3.164,0,0,1,1.442-2.3.527.527,0,0,1,.8.171,4.335,4.335,0,0,1,.468,1.8A.643.643,0,0,1,88.094,921.516Zm6.5,16a4.953,4.953,0,0,1-.548.092,1.624,1.624,0,0,1-1.566-.561c-.54-.667-1.03-1.367-1.519-2.067a.652.652,0,0,1-.088-.473,4.576,4.576,0,0,1,.289-.825.555.555,0,0,1,.579-.242,2.667,2.667,0,0,1,1.358.806.872.872,0,0,1,.244.806.918.918,0,0,0,.536.936,11.362,11.362,0,0,1,.986.678C95.236,936.967,95.093,937.4,94.6,937.519Zm6.131,12.1a2.075,2.075,0,0,1-1.662.426.45.45,0,0,1-.362-.567,1.8,1.8,0,0,1,1.3-1.191,2.076,2.076,0,0,1,1.624.354A10.581,10.581,0,0,1,100.728,949.619Zm8.061,8.142c.224.239.439.474.69.748a1.347,1.347,0,0,1-1.17.26C108.226,958.232,108.231,958.234,108.79,957.76Zm5.428,2.85a.7.7,0,0,1,.609.736,2.246,2.246,0,0,1-.247,1.332,2.285,2.285,0,0,0-.15.347,1.6,1.6,0,0,0,.311,1.964.526.526,0,0,1-.016.872,1.982,1.982,0,0,1-.3.255,1.619,1.619,0,0,0-.837,1.832.835.835,0,0,1-.182.566,4.6,4.6,0,0,1-.532.572l-.792-.054c-.487-.962-.487-.962-1.633-1.5-.047-.206-.085-.451-.159-.688a2.612,2.612,0,0,0-2.622-1.837c-.55-.009-1.1.051-1.656.063a.457.457,0,0,1-.441-.623,1.128,1.128,0,0,1,.195-.327,2.114,2.114,0,0,0,.571-1.854,1.136,1.136,0,0,1,.752-1.331,1.443,1.443,0,0,0,.535-.383,2.706,2.706,0,0,1,1.923-.848c.456-.043.907-.144,1.365-.179a.618.618,0,0,1,.719.705c-.038.244-.164.477-.194.72a2.975,2.975,0,0,0,.006.863,1.081,1.081,0,0,0,.744.834.513.513,0,0,0,.384-.032.478.478,0,0,0,.189-.308.865.865,0,0,0-.062-.362c-.188-.648-.19-.647.276-1.524C113.414,960.487,113.824,960.517,114.218,960.61Zm10.9,9.758c-.069.081-.18.343-.336.367a8.038,8.038,0,0,0-1.657.6,1.07,1.07,0,0,1-.528.111c-.44-.089-1-.119-1.18-.53s.32-.64.607-.874a2.767,2.767,0,0,1,.832-.42,9.785,9.785,0,0,1,1.059-.274c.954-.219,1.119-.113,1.2.786C125.122,970.172,125.118,970.214,125.118,970.368Zm15.936,7.9a1.2,1.2,0,0,1-.868.734,1.307,1.307,0,0,1-.274.033c-1.033.052-1.566-.446-1.436-1.363a1.628,1.628,0,0,1,.747-1.172,4.8,4.8,0,0,1,1.5.875A.8.8,0,0,1,141.054,978.263Zm16.616,3.358c-.128.136-.213.308-.352.361a12.41,12.41,0,0,1-1.545.491,1.611,1.611,0,0,1-2.192-1.118c-.053-.138.141-.346.309-.322a1.57,1.57,0,0,1,.524.11,3.113,3.113,0,0,0,1.722.3A2.819,2.819,0,0,1,157.67,981.621Zm33.467-.153a.65.65,0,0,1,.032,1.209,4.849,4.849,0,0,1-2.007.475c-.728-.063-1.367-.1-2-.182a.726.726,0,0,1-.522-.362.6.6,0,0,1,.013-.593,1.425,1.425,0,0,1,.526-.544,4.7,4.7,0,0,1,3.956,0Zm13.536-5.116a9.17,9.17,0,0,1,1.389-.545.9.9,0,0,1,1.216,1.024,1.383,1.383,0,0,1-.345.669,4.075,4.075,0,0,1-2.384,1.017.822.822,0,0,1-.887-1.028,1.926,1.926,0,0,1,1.006-1.136Zm13.96-7.2a4.762,4.762,0,0,1,2.368.691c-.31.933-1.2.964-2.151,1.085a4.962,4.962,0,0,1-1.2-1.078.267.267,0,0,1-.053-.237.3.3,0,0,1,.165-.191,1.78,1.78,0,0,1,.867-.27Zm-13.572-98.687c.211-.588.492-1.157.76-1.729a3.1,3.1,0,0,1,.379-.471,4.324,4.324,0,0,1,1.019,1.777,21.825,21.825,0,0,1,1.24,5.587c.068.778.131,1.555.2,2.328-.177.086-.293.189-.411.19q-2,.021-4,.01a1.212,1.212,0,0,1-.349-.107c-.05-.1-.121-.178-.112-.249A26.271,26.271,0,0,1,205.062,870.465ZM170.088,829.35a12.175,12.175,0,0,1-3.521-.584,1.088,1.088,0,0,1-.879-1,5.337,5.337,0,0,1,.336-2.7,8.334,8.334,0,0,1,2.589-3.194,6.94,6.94,0,0,1,3.083-1.336,11.469,11.469,0,0,1,3.442-.05,4.642,4.642,0,0,1,3.306,2.043,2.907,2.907,0,0,1,.62,2.237,1.463,1.463,0,0,1-1.13,1.281c-.351.1-.695.227-1.048.317a.853.853,0,0,1-1.132-.884,2.006,2.006,0,0,1,.273-.538c.409.161.694.3,1,.385a.7.7,0,0,0,.536-.054.574.574,0,0,0,.3-.4c.1-.445.2-.89.286-1.337a.57.57,0,0,0-.03-.363.6.6,0,0,0-.3-.22.285.285,0,0,0-.247.055c-.2.262-.385.537-.682.962-.038-.588-.062-1-.091-1.4a1.725,1.725,0,0,0-.461-1.149.72.72,0,0,0-.48-.143.386.386,0,0,0-.319.475c.1.318.235.63.308.954a.657.657,0,0,1-.336.688c-.239-.282-.447-.547-.679-.8a3.9,3.9,0,0,0-1.714-1.218.753.753,0,0,0-.394-.064.965.965,0,0,0-.417.286.3.3,0,0,0,.091.443c.214.155.469.263.69.41a3.946,3.946,0,0,1,1.8,2.19,1.353,1.353,0,0,1-.424.051,7.781,7.781,0,0,0-2.126-.492,11.613,11.613,0,0,0-3.291.314c-.065.293.2.326.4.348.915.1,1.832.2,2.752.249a4.876,4.876,0,0,1,1.951.579,1.159,1.159,0,0,1,.6,1.7,2.785,2.785,0,0,1-1.312,1.24A7.433,7.433,0,0,1,170.088,829.35Zm-7.628,36.033a46.766,46.766,0,0,1,1.968-5.449c.941-2.256,1.919-4.5,2.745-6.793,1.082-3,2.331-5.957,3.507-8.934.355-.9.694-1.8,1.059-2.7a5.34,5.34,0,0,1,.437-.705,2.219,2.219,0,0,1,.407.391,13.286,13.286,0,0,1,.584,1.266c.823,2.115,1.632,4.24,2.452,6.359.516,1.334,1.092,2.651,1.557,4,1.1,3.179,2.565,6.234,3.787,9.368a27.351,27.351,0,0,1,1.278,4.286c-1.369.173-11.482.231-19.1.123-.269,0-.536-.035-.876-.058C162.341,866.1,162.363,865.736,162.46,865.384Zm-2.477,10.706c.07-.451.166-.9.246-1.351a25.234,25.234,0,0,1,.578-2.687c.317-1.081.481-2.2.714-3.3a4.033,4.033,0,0,1,.156-.6.519.519,0,0,1,.509-.353c.23,0,.462-.008.693-.008h19.73a7.826,7.826,0,0,1,.6,2.169c.233.932.447,1.868.661,2.8.085.365.176.729.237,1.1q.336,2.029.664,4.059c-.136.3-.436.268-.7.269-1.477.008-2.955.005-4.431.008-3.139.006-6.277,0-9.415.024-3.092.021-6.184.072-9.276.1a1.867,1.867,0,0,1-1.252-.178c.1-.666.187-1.358.3-2.048Zm-.59,3.492c.272-.32.615-.254.929-.253,2.17.007,4.341.029,6.512.031q8.452.011,16.9.007,11.916,0,23.828-.016c.314,0,.63.032,1.111.058,0,.715.01,1.293,0,1.872a3.111,3.111,0,0,1-.055.416,1.316,1.316,0,0,1-.982.211q-4.228.008-8.453,0l-30.485-.036h-8.038a4.228,4.228,0,0,1-1.218-.083,1.445,1.445,0,0,1-.12-.391,10.652,10.652,0,0,1,.069-1.816Zm-.513,26.138c0-6.648,5.985-12.037,13.369-12.037s13.369,5.389,13.369,12.037-5.985,12.037-13.369,12.037-13.36-5.393-13.369-12.037ZM186.861,912c.336-.152.6.05.879.153q5.055,1.877,10.105,3.77,1.47.549,2.943,1.093a4.532,4.532,0,0,1,1.207.542,19.377,19.377,0,0,1-.026,4.994c-.727-.423-1.342-.776-1.96-1.143q-5.939-3.56-11.872-7.126a2.52,2.52,0,0,0-.347-.2A1.475,1.475,0,0,1,186.861,912Zm-.211-1.788v-.989a.769.769,0,0,1,.8-.18c.817.129,1.63.279,2.443.424q5.155.92,10.31,1.844c.582.1,1.159.23,1.7.338a12.288,12.288,0,0,1,.077,4.231.382.382,0,0,1-.112.055.286.286,0,0,1-.136-.012L187.263,910.6a2.376,2.376,0,0,1-.368-.167A1.848,1.848,0,0,1,186.65,910.213ZM202,893.834q-7.457,2.793-14.855,5.559c-.067.025-.166-.014-.32-.031a3.673,3.673,0,0,1-.015-1.454c.037-.27.263-.426.5-.567l3.107-1.875q5.344-3.235,10.691-6.467c.257-.155.543-.274.839-.423a1.492,1.492,0,0,1,.187.391A41.581,41.581,0,0,1,202,893.834Zm-.019,5.641c-.355.1-.736.229-1.131.3q-5.826,1.058-11.656,2.1a15.438,15.438,0,0,1-2.405.39,1.027,1.027,0,0,1-.149-.987.738.738,0,0,1,.307-.388,2.063,2.063,0,0,1,.5-.209q6.9-2.572,13.8-5.137c.209-.079.431-.131.646-.194a9.557,9.557,0,0,1,.092,4.136Zm-.413-12.329c-.854.5-1.691,1.016-2.534,1.527l-11.38,6.9c-.224.135-.464.245-.773.4a7.915,7.915,0,0,1-.09-2.186c.016-.362.3-.593.559-.83q1.471-1.321,2.94-2.646c2.349-2.115,4.7-4.246,7.048-6.357,1.112-1,.783-.844,2.286-.865.783-.01,1.566.02,2.365.032a1.63,1.63,0,0,1,.214.495c.018.831.013,1.663,0,2.5a1.155,1.155,0,0,1-.635,1.044Zm-5.806-3.637q-4.251,3.85-8.512,7.689c-.056.049-.168.048-.291.081a.986.986,0,0,1-.145-.3c-.053-.872-.078-1.746-.139-2.619a2.091,2.091,0,0,1,.447-1.526c.828-1.052,1.61-2.134,2.393-3.215a1.271,1.271,0,0,1,1.152-.544c1.566.021,3.142.012,4.713.02a3.32,3.32,0,0,1,.483.086c-.051.186-.047.288-.1.339ZM186.59,884.9a6.51,6.51,0,0,1-.064-1.73,7.869,7.869,0,0,1,.783-.079,3.086,3.086,0,0,1,.519.095,2.874,2.874,0,0,1-1.234,1.722Zm.313,18.736c.141-.037.311-.095.486-.127q6.925-1.236,13.85-2.465c.224-.039.447-.05.826-.092a29.97,29.97,0,0,1,.013,3.917,4.442,4.442,0,0,1-.783.16c-1.108.02-2.216.015-3.324.017l-10.111.021c-.35,0-.7-.027-1.038-.042-.017-.3-.046-.589-.084-.879.038-.123.092-.279.17-.506Zm-.081,2.767a.289.289,0,0,1,.143-.057q7.392,0,14.783.017c.077,0,.154.077.232.119a10.676,10.676,0,0,1-.042,3.727c-1.678-.161-3.315-.54-4.972-.819-1.719-.29-3.446-.554-5.155-.883-1.656-.318-3.339-.529-4.928-.891a3.186,3.186,0,0,1-.142-.354c.041-.276.069-.563.086-.853Zm-.187,19.994a1.81,1.81,0,0,1,.369.265,10.31,10.31,0,0,1,1.035,1.488,2.05,2.05,0,0,1-1.454.05,3.68,3.68,0,0,1,.055-1.8Zm.43-2.007a1.582,1.582,0,0,1-.4-1.036c.012-.249.019-.5.032-.745q.07-1.3.144-2.594c.148.014.262-.007.308.034q4.363,3.9,8.7,7.809a1.1,1.1,0,0,1,.17.32,40.593,40.593,0,0,1-5.992.048c-.112-.127-.275-.275-.4-.443-.852-1.124-1.7-2.258-2.556-3.388Zm1.283-5.12c-.392-.352-.8-.688-1.17-1.06a1.271,1.271,0,0,1-.376-.637,8.31,8.31,0,0,1-.029-1.367c.009-.324.058-.648.1-1.063a7.144,7.144,0,0,1,.671.309q6.784,4.079,13.564,8.167c1.195.72.995.54,1.093,1.685.067.785.026,1.577.016,2.366a2.023,2.023,0,0,1-.132.493,3.373,3.373,0,0,1-.548.117c-.367.018-.737.01-1.105.008-2.5-.015-1.744.255-3.565-1.369q-4.266-3.807-8.512-7.645ZM159.023,892.68c.06-2.41.143-4.821.224-7.231.025-.742.07-1.483.1-2.147a.952.952,0,0,1,.845-.248c1.664,0,3.326.009,4.989.01l18.3.01c.5,0,1,.026,1.491.04.083.173.177.281.18.393.112,2.784.243,5.568.293,8.354.015.768.022,4.156.026,8.284a15.323,15.323,0,0,0-26.465.032c.007-3.976.013-7.084.025-7.488Zm-.013,18.58a15.325,15.325,0,0,0,26.462.029c0,4.029-.01,7.171-.019,7.492-.062,2.411-.145,4.821-.224,7.232-.023.705-.065,1.41-.1,2.24-.406.028-.671.059-.944.064-6.077.113-23.416.067-24.683-.065-.05-.095-.154-.2-.158-.31-.112-2.7-.249-5.4-.3-8.1C159.024,919.01,159.015,915.5,159.01,911.26Zm6.62,76.618a2.582,2.582,0,0,1,.753-3.341,2.449,2.449,0,0,1,1.678,1.134c.112.173.009.491-.207.5a2.823,2.823,0,0,0-2.224,1.7Zm2.076,2.409a.885.885,0,0,1-.469-.4,6.248,6.248,0,0,1-.358-1.425,1.113,1.113,0,0,1,.684-1.121.509.509,0,0,1,.39-.011.435.435,0,0,1,.26.262.836.836,0,0,1,.036.118,11.668,11.668,0,0,0,.094,1.346,11.2,11.2,0,0,0,.388,1.282c-.38.3-.715.087-1.025-.049Zm2.771-.127a.613.613,0,0,1-.487-.094,2.552,2.552,0,0,1-.606-1.851c.01-.091.166-.167.264-.26a1.441,1.441,0,0,1,.388.144,2.513,2.513,0,0,1,.867,1.511.5.5,0,0,1-.426.547Zm1.507-1.539c-.015.027-.071.036-.224.11-.234-.378-.417-.711-.638-1.023a1.657,1.657,0,0,0-1.566-.845c-.1.008-.235-.1-.317-.184s.112-.3.309-.345a2.2,2.2,0,0,1,2.178.432A1.468,1.468,0,0,1,171.984,988.621Zm6.951-4.419a1.351,1.351,0,0,1,1.231,1.649,4.59,4.59,0,0,1-3.985,3.525,1.893,1.893,0,0,1-.4.067c-1.429-.061-1.992-.413-2.038-1.665a2.349,2.349,0,0,1,.5-1.649,5.691,5.691,0,0,1,1.307-1.264c1.119-.7,1.014-.681,2.711-.705a5.882,5.882,0,0,1,.685.039Zm-1.967-1.567c-.086.14-.117.27-.2.311a5.417,5.417,0,0,1-.643.228,5.275,5.275,0,0,0-2.665,1.906c-.2.276-.42.542-.666.858l-1.99-.8c-.2-.216-.092-.474-.12-.714a1.653,1.653,0,0,0-.156-.6.538.538,0,0,0-.571-.269.486.486,0,0,0-.467.4c-.032.325.1.664-.112.974-.046.07-.105.132-.207.257-.543-.438-.889-1.007-1.434-1.457a2.332,2.332,0,0,1,1.393-.845,15.393,15.393,0,0,1,7.839-.26Zm5.043-36.6a50.522,50.522,0,0,1-2.162,5.916c-.882,2.1-1.78,4.188-2.551,6.326-1.082,3-2.33,5.958-3.506,8.934-.356.9-.694,1.8-1.062,2.7a4.563,4.563,0,0,1-.447.687c-.177-.175-.336-.273-.4-.4-.252-.536-.49-1.077-.7-1.626q-1.859-4.763-3.7-9.53c-.138-.353-.3-.7-.413-1.059a56.694,56.694,0,0,0-2.256-5.626,58.367,58.367,0,0,1-2.324-6.261,9.74,9.74,0,0,1-.214-1.08c.336-.309.722-.2,1.071-.2q5.4-.011,10.808,0h6.928c.358,0,.717.041,1.137.068a11.528,11.528,0,0,1-.2,1.152Zm.738-2.685c-.016.068-.112.12-.178.179-1.016.1-18.972.131-20.7.025a2.837,2.837,0,0,1-.3-.615c-.207-.937-.327-1.891-.581-2.82a47.84,47.84,0,0,1-1.124-5.758c-.053-.365-.145-.724-.232-1.146a3.81,3.81,0,0,1,.7-.137c3.092.025,6.184.068,9.276.094,2.491.021,4.984.028,7.475.034,2.126.006,4.251,0,6.377,0a3.442,3.442,0,0,1,1.3.134,93.857,93.857,0,0,1-2.018,10.007Zm25.132-4.14a14.524,14.524,0,0,1-1.184,3.3c-.1.182-.234.348-.439.649a2.9,2.9,0,0,1-.884-1.4,29.246,29.246,0,0,1-1.057-3.6c-.3-1.545-.413-3.118-.611-4.709a1.823,1.823,0,0,1,.537-.2c1.334-.012,2.667,0,4,0a1.013,1.013,0,0,1,.281.1c.038.092.132.2.123.314a33,33,0,0,1-.771,5.535Zm.809-7.454c-.31.372-.653.3-.967.3H196.362l-28.4-.02c-2.4,0-4.8.029-7.2.039-.407,0-.814-.024-1.3-.039a6.318,6.318,0,0,1-.12-1.76,4.3,4.3,0,0,1,.049-.547,1.73,1.73,0,0,1,1.14-.188c3.6-.008,7.206,0,10.809-.007q9.562-.012,19.122-.03,8.313-.01,16.627-.007a4.717,4.717,0,0,1,1.486.1,1.74,1.74,0,0,1,.112.4c.016.609.01,1.234.01,1.765Zm.263-11.506c-.017,2.494-.133,4.987-.209,7.48a1.732,1.732,0,0,1-.079.349c-.088.058-.16.145-.237.149a42.237,42.237,0,0,1-4.456.022c-.347-.239-.292-.5-.305-.745-.263-4.734-.218-9.478-.213-14.217q.007-6.3.022-12.6c.01-4.573.011-9.147.04-13.72.007-1.122.1-2.243.168-3.364a1.962,1.962,0,0,1,.134-.414,22.661,22.661,0,0,1,4.836.077,3.639,3.639,0,0,1,.1.562c.077,2.868.195,5.735.207,8.6.021,5.28-.031,10.56-.034,15.841,0,3.988.051,7.98.027,11.971Zm29.467,38.166c.181-.125.378-.231.628-.382.132.167.213.228.233.3a5.2,5.2,0,0,0,2.725,3.015l.659.384c-.062.135-.07.239-.129.27a1.281,1.281,0,0,0-.628,1.828c.144.347.244.705.383,1.117a3.471,3.471,0,0,1-.592.3,6.109,6.109,0,0,1-.818.118,1.517,1.517,0,0,0-1.415,1.189c-.082.324-.155.649-.224.946-.086.085-.138.185-.209.2a1.361,1.361,0,0,0-1.263,1.52,5.716,5.716,0,0,1-.491,1.78c-.059.171-.28.3-.493.5-.8-.984-1.314-2.084-2.394-2.714a3.439,3.439,0,0,0-.055-.794,1.49,1.49,0,0,0-.389-.649,1.758,1.758,0,0,1-.578-1.517,5.635,5.635,0,0,0,1.238-1.584.912.912,0,0,1,.875-.513,7.776,7.776,0,0,0,2.157-.418.672.672,0,0,0,.516-.985,5.332,5.332,0,0,0-.441-.77C236.9,960.3,237.114,959.317,238.42,958.419Zm-5.839,1.87a3.489,3.489,0,0,0,.986-1.619,1.321,1.321,0,0,1,.968-.961,5.074,5.074,0,0,1,2.539-.435,3.464,3.464,0,0,1,.407.121,15,15,0,0,0-1.158,1.4,3.049,3.049,0,0,0-.415,1.681,5.072,5.072,0,0,0,.515,1.655.494.494,0,0,1-.48.383c-.181.027-.368.02-.551.039a2.212,2.212,0,0,0-2.034,1.266,1.841,1.841,0,0,1-.772.846,4.625,4.625,0,0,0-.811.818.286.286,0,0,1-.324-.311,3.1,3.1,0,0,1,.081-.49,1.927,1.927,0,0,0-.471-1.633c-.138-.159-.274-.32-.4-.468a2.739,2.739,0,0,1,.913-1.267c.33-.344.671-.68,1-1.021Zm10.74-12.222c.535-.384,1.031-.806,1.6-1.258a2.367,2.367,0,0,1,1.6,1.821.657.657,0,0,1-.266.672,2.17,2.17,0,0,1-.68.4,6.167,6.167,0,0,1-2.971.307A1.878,1.878,0,0,1,243.321,948.067Zm7.753-14.287a.53.53,0,0,1,.576-.255,6.278,6.278,0,0,1,1.472.3,2.636,2.636,0,0,1,1.3,1.065c.207.365.387.742.659,1.269a2.88,2.88,0,0,1-.783.189,11.384,11.384,0,0,1-3.652-.537,2.653,2.653,0,0,1,.424-2.034Zm3.98-11.987a3.3,3.3,0,0,1,.756-1.568,4.923,4.923,0,0,1,1.355-1.162,2.988,2.988,0,0,1,.609,1.341,1.1,1.1,0,0,1-.7,1.343,8.55,8.55,0,0,1-1.545.486.372.372,0,0,1-.471-.438Zm.425-21.272a2.283,2.283,0,0,1,1.678-.182,5.126,5.126,0,0,1,2.654,1.089l-.854.705a12.4,12.4,0,0,0-3.478-1.611Zm4.027,10.979a.377.377,0,1,1-.6-.432,5.553,5.553,0,0,1,.641-.5c.158-.016.158-.046.263.1a3.075,3.075,0,0,1-.309.836Zm1.19-6.087c-.112.948-.23,1.9-.37,2.842a8.974,8.974,0,0,1-.274,1.007,4.4,4.4,0,0,0-2.133,1.291c-.631-.673-.4-1.3-.447-1.895q.319-.155.62-.338a.475.475,0,0,0,0-.838,3.277,3.277,0,0,0-.365-.172.369.369,0,0,1-.2-.423.356.356,0,0,1,.361-.31,2.542,2.542,0,0,0,.546-.032.782.782,0,0,0,.405-.287.423.423,0,0,0-.138-.561,1.042,1.042,0,0,0-.23-.133.348.348,0,0,1-.241-.4.488.488,0,0,1,.5-.352,2.346,2.346,0,0,0,.412-.033.5.5,0,0,0,.441-.652c-.1-.614-.1-.615.614-1.055.073.045.191.08.211.14a5,5,0,0,1,.285,2.209Z" transform="translate(-70.34 -715.776)" fill="#ff8000"/>
        <path id="Pfad_83" data-name="Pfad 83" d="M620.31,141.826a4.319,4.319,0,0,0,.9.126c.758.025,1.527.014,2.29.033a3.255,3.255,0,0,1,1.188.14c-.709.849-2.01,1.745-2.49,2.942-.162.533.319.771.719.605a9.723,9.723,0,0,0,.758-.619c.435-.428.845-.885,1.275-1.317a7.109,7.109,0,0,1,.622-.4c.014.31-.021.9-.019,1.254,0,.968-.021,1.935.009,2.907a8.53,8.53,0,0,0,.2,1.5.532.532,0,0,0,.588.385.588.588,0,0,0,.569-.425,2.183,2.183,0,0,0,.1-.6c.013-.458,0-.916,0-1.374.018-1.112-.03-2.228.033-3.559,1.043.818,1.968,2.381,2.545,2.362a.6.6,0,0,0,.651-.591c.1-.632-1.629-1.925-2.2-3.026a6.915,6.915,0,0,1,1.748-.088c.866,0,1.762.009,2.456,0a.689.689,0,0,0,.7-.454.658.658,0,0,0-.287-.805c-1.517-.394-3.011-.043-4.55-.364.578-.973,1.476-1.625,1.932-2.5,0-.474-.239-.632-.632-.689-.885.32-1.314,1.321-2.246,1.829-.178-3.124-.078-4.823-.4-5.174a.574.574,0,0,0-1.063.182,10.269,10.269,0,0,0-.09,1.216c-.024,1.017-.027,2.036-.049,3.053-.059.66.029.94-.154.758-.48-.49-.786-.924-1.138-1.279-.284-.288-.565-.583-.867-.853a.574.574,0,0,0-.7.057.56.56,0,0,0-.14.693,4.605,4.605,0,0,0,.506.758c.379.479.773.944,1.156,1.419.126.15.345.4.531.6-.972-.013-2.437-.035-3.449-.043a7.842,7.842,0,0,0-.913.037.671.671,0,0,0-.569.622A.7.7,0,0,0,620.31,141.826Z" transform="translate(-550.094 -116.755)" fill="#ff8000"/>
        <path id="Pfad_84" data-name="Pfad 84" d="M1077.723,141.939c.693.013,1.59,0,2.456,0a6.858,6.858,0,0,1,1.748.088c-.574,1.1-2.308,2.4-2.2,3.026a.6.6,0,0,0,.651.591c.578.019,1.5-1.544,2.546-2.362.063,1.331.015,2.447.033,3.559.008.458-.011.916,0,1.374a2.176,2.176,0,0,0,.1.6.588.588,0,0,0,.569.425.532.532,0,0,0,.588-.385,8.648,8.648,0,0,0,.2-1.5c.03-.967,0-1.934.009-2.907,0-.35-.033-.944-.019-1.254a6.83,6.83,0,0,1,.622.4c.43.435.84.885,1.275,1.317.212.21.464.379.758.619.4.166.885-.072.719-.605-.48-1.2-1.781-2.093-2.49-2.942a3.256,3.256,0,0,1,1.188-.14c.759-.019,1.527-.008,2.289-.033a4.321,4.321,0,0,0,.9-.126.7.7,0,0,0,.493-.693.671.671,0,0,0-.569-.622,7.84,7.84,0,0,0-.912-.037c-1.011.008-2.477.03-3.45.043.187-.2.41-.445.532-.6.379-.475.779-.94,1.156-1.419a4.6,4.6,0,0,0,.506-.758.56.56,0,0,0-.14-.693.576.576,0,0,0-.7-.057c-.3.27-.581.565-.866.853-.353.355-.658.789-1.138,1.279-.183.186-.095-.095-.154-.758-.023-1.011-.027-2.036-.049-3.053a10.308,10.308,0,0,0-.09-1.216.574.574,0,0,0-1.063-.182c-.325.351-.225,2.05-.4,5.174-.931-.506-1.354-1.509-2.246-1.829-.4.062-.632.215-.632.689.456.871,1.355,1.517,1.932,2.5-1.543.321-3.033-.03-4.55.364a.658.658,0,0,0-.287.805.689.689,0,0,0,.694.469Z" transform="translate(-955.831 -116.613)" fill="#ff8000"/>
        <path id="Pfad_85" data-name="Pfad 85" d="M497.472,2620.834a12.9,12.9,0,0,0-4.079-4.045,7.211,7.211,0,0,0-7.031-.469,9.855,9.855,0,0,0-3.969,3.681c-.252.379-.413.873-.8,1.111-.027-.052-.069-.1-.066-.137a4.058,4.058,0,0,1,.085-.725,13.942,13.942,0,0,1,7.208-9.282,6.525,6.525,0,0,1,4.337-.541c.161.033.319.091.481.108.2.019.452-.266.523-.555a.66.66,0,0,0-.286-.741,2.958,2.958,0,0,0-.818-.308,7.833,7.833,0,0,0-3.417.2,11.7,11.7,0,0,0-4.679,2.907,16.267,16.267,0,0,0-3.9,5.927,2.389,2.389,0,0,1-.593,1.172c-.1-.191-.186-.341-.253-.506-.289-.719-.528-1.475-.864-2.159a10.32,10.32,0,0,0-5.184-5.27,5.777,5.777,0,0,0-4.466-.083,2.164,2.164,0,0,0-.642.417.547.547,0,0,0-.066.4.476.476,0,0,0,.23.312,1.205,1.205,0,0,0,.477-.023,10.382,10.382,0,0,1,1.952-.239,6.667,6.667,0,0,1,4.115,1.77,12.137,12.137,0,0,1,3.579,6.478.805.805,0,0,1-.045.269c-.3.106-.421-.225-.594-.4a9.586,9.586,0,0,0-3.756-2.487,6.479,6.479,0,0,0-4.716.159,9.877,9.877,0,0,0-4.785,4.948,1.828,1.828,0,0,0-.146.411.679.679,0,0,0,.161.673.424.424,0,0,0,.572-.021c.169-.215.316-.456.478-.68.516-.713.988-1.482,1.558-2.122a6.06,6.06,0,0,1,4.681-2.275,7.3,7.3,0,0,1,5.584,3.013,1.474,1.474,0,0,1,.1.34c-.343-.087-.658-.143-.961-.253a6.529,6.529,0,0,0-3.175-.214,12.448,12.448,0,0,0-8.268,5.407,8.68,8.68,0,0,0-.631,1.107.714.714,0,0,0,.112.81.517.517,0,0,0,.783-.081,4.36,4.36,0,0,0,.31-.466,11.1,11.1,0,0,1,5.539-4.761,8.384,8.384,0,0,1,4.362-.611,4.57,4.57,0,0,1,2.2.885c.152.114.357.2.344.538-1.806-.474-3.3.292-4.656,1.668-.126.126-.244.268-.365.4a15.533,15.533,0,0,0-3.279,6.779,2.415,2.415,0,0,0-.051.444.635.635,0,0,0,.438.632.408.408,0,0,0,.516-.3c.152-.408.263-.839.39-1.264a14.261,14.261,0,0,1,2.826-5.4,5.309,5.309,0,0,1,2.21-1.578,2.285,2.285,0,0,1,2.634.7,1.5,1.5,0,0,1,.406,1.463c-.089.38-.085.8-.145,1.19a98.271,98.271,0,0,1-4.432,18.271,66.258,66.258,0,0,1-9.354,17.923,39.887,39.887,0,0,1-8.46,8.428,26.869,26.869,0,0,1-11.429,4.853c-.175.029-.321,0-.425-.295.128-.563.253-1.194.418-1.81.115-.426.3-.824.428-1.246.2-.657.393-1.315.547-1.988a55.343,55.343,0,0,1,1.446-6.213c.292-.828.568-1.664.856-2.495a23.9,23.9,0,0,0,1.014-3.539c.187-1.026.4-2.05.666-3.049.459-1.715,1.006-3.395,1.446-5.115a34.038,34.038,0,0,0,.858-3.918,32.7,32.7,0,0,1,1.939-7.583,11.264,11.264,0,0,0,.407-1.256c.325-1.241.62-2.492.952-3.733a10.074,10.074,0,0,0,.37-3.847,2.522,2.522,0,0,1,.324-1.565,7.38,7.38,0,0,1,.455-.706,13.566,13.566,0,0,0,1.985-4.124c.274-.945.568-1.883.842-2.829a20.208,20.208,0,0,0,.756-3.792c.287-3.139.62-6.274.909-9.412a7.89,7.89,0,0,1,.427-2.028c.558-1.508,1.109-3.018,1.689-4.512a8.556,8.556,0,0,0,.473-1.7,3.227,3.227,0,0,0-.685-2.739,5.539,5.539,0,0,0-3.129-1.955,33.446,33.446,0,0,0-3.533-.556,9.358,9.358,0,0,0-2.447-.016,33.772,33.772,0,0,0-4.981.862,15.84,15.84,0,0,1-1.556.441,22.689,22.689,0,0,0-5.86,2.207c-.528.274-1.051.56-1.564.871a25,25,0,0,0-4.522,3.6,15.609,15.609,0,0,0-2.815,3.539c-.206.372-.462.7-.686,1.062-.275.436-.551.871-.811,1.323a18.357,18.357,0,0,0-1.9,6.151,41.278,41.278,0,0,0-.238,8.551,4.223,4.223,0,0,0,.1.742c.561,2.462,1.08,4.942,1.713,7.376.323,1.244.637,2.485.887,3.751.067.341.142.679.222,1.011a19.356,19.356,0,0,1,.577,3.529,9.756,9.756,0,0,0,.206,1.482,38.3,38.3,0,0,0,1.9,6.5,25.974,25.974,0,0,1,1.291,4.531,8.115,8.115,0,0,0,.29,1.306c.62,1.59,1.033,3.269,1.506,4.929.4,1.42.855,2.819,1.256,4.24.36,1.279.675,2.578,1.02,3.864.154.572.359,1.122.5,1.7a55.21,55.21,0,0,0,2.016,6.445,7,7,0,0,1,.537,1.992,24.673,24.673,0,0,1-8.3-2.73,34.779,34.779,0,0,1-9.773-7.978,60.726,60.726,0,0,1-10.521-18.015,85.349,85.349,0,0,1-3.546-11.375,103.938,103.938,0,0,1-1.962-10.553,1.667,1.667,0,0,1,.4-1.467,2.289,2.289,0,0,1,2.633-.709,5.3,5.3,0,0,1,2.212,1.575,14.178,14.178,0,0,1,2.83,5.391c.113.38.207.758.324,1.138.109.34.338.5.572.435a.68.68,0,0,0,.442-.779c-.028-.2-.082-.387-.125-.579a16.248,16.248,0,0,0-1.533-4.086,11.161,11.161,0,0,0-2.712-3.449,4.161,4.161,0,0,0-3.718-1.086,1.138,1.138,0,0,1-.328-.032,2.736,2.736,0,0,1,1.413-1.02,6.324,6.324,0,0,1,4.01-.2,11.006,11.006,0,0,1,7.166,5.356,1.865,1.865,0,0,0,.437.5c.188.151.4.071.576-.072a.6.6,0,0,0,.164-.664,10.431,10.431,0,0,0-.754-1.361,12.814,12.814,0,0,0-6.609-4.948,8.13,8.13,0,0,0-5.107-.053c-.185.062-.368.26-.62.042a3.19,3.19,0,0,1,.267-.441,8.21,8.21,0,0,1,3.244-2.376,5.647,5.647,0,0,1,5.576.7,7.744,7.744,0,0,1,1.818,1.777c.407.563.775,1.168,1.169,1.743a1.7,1.7,0,0,0,.442.5.375.375,0,0,0,.452-.04.594.594,0,0,0,.183-.507,1.976,1.976,0,0,0-.207-.69,10.819,10.819,0,0,0-2.754-3.6,6.638,6.638,0,0,0-7.379-1.113,10.029,10.029,0,0,0-3.057,2.2c-.175.174-.294.5-.595.412-.152-.189-.039-.388,0-.56a12.881,12.881,0,0,1,2.386-5,7.537,7.537,0,0,1,4.5-2.86,7.931,7.931,0,0,1,2.685.146,1.22,1.22,0,0,0,.478.027.467.467,0,0,0,.233-.306.643.643,0,0,0-.058-.412.67.67,0,0,0-.3-.253,5.354,5.354,0,0,0-3.739-.43c-2.781.7-4.8,2.7-6.256,5.605-.362.723-.608,1.529-.908,2.3-.072.183-.154.345-.4.253-.11-.278-.238-.587-.358-.9a15.727,15.727,0,0,0-6.1-7.792,7.962,7.962,0,0,0-5.567-1.429,5.433,5.433,0,0,0-1.184.35.638.638,0,0,0-.3.734.616.616,0,0,0,.638.553c.161-.026.319-.1.48-.127a6.694,6.694,0,0,1,3.529.262,11.576,11.576,0,0,1,4.628,3.316,14.824,14.824,0,0,1,3.323,6.4.912.912,0,0,1-.05.773c-.19-.268-.371-.525-.555-.78a20.108,20.108,0,0,0-1.392-1.9c-2.456-2.681-5.276-3.506-8.448-2.34a11.85,11.85,0,0,0-5.535,4.8,2.725,2.725,0,0,0-.2.379.782.782,0,0,0-.078.5.674.674,0,0,0,.239.419.449.449,0,0,0,.673-.068c.284-.362.549-.744.826-1.116a9.975,9.975,0,0,1,4.578-3.64,6.032,6.032,0,0,1,5.489.606,9.746,9.746,0,0,1,3.7,4.476c.029.062-.017.173-.04.358l-.707-.589a7.832,7.832,0,0,0-2.548-1.461,6.952,6.952,0,0,0-7.04,1.372,7.157,7.157,0,0,0-1.977,2.637.7.7,0,0,0,.162.8.5.5,0,0,0,.688,0c.16-.191.268-.379.4-.562a12.9,12.9,0,0,1,.911-1.215c3.153-3.348,7.578-2.164,9.749.506a1.441,1.441,0,0,1,.147.339c-.07.039-.114.086-.14.074-.31-.126-.62-.265-.93-.379-2.957-1.071-5.592-.434-7.826,2.244a15.047,15.047,0,0,0-3,6.952,1.859,1.859,0,0,0,0,.74.619.619,0,0,0,.32.388.511.511,0,0,0,.453-.09.967.967,0,0,0,.277-.475c.119-.427.19-.872.3-1.3a12.892,12.892,0,0,1,2.609-5.371,5.443,5.443,0,0,1,6.262-1.82,4.395,4.395,0,0,1,1.976,1.152c-.528,1.06-1.024,2.092-1.555,3.1a1.812,1.812,0,0,1-.552.572c-.6.436-1.214.835-1.816,1.264a.7.7,0,0,1-.693.165.949.949,0,0,0-1.025.336,1.4,1.4,0,0,0-.372,1.345,1.321,1.321,0,0,0,1.047,1.111,1.132,1.132,0,0,0,1.049-.857c.044-.139.04-.3.084-.439.188-.6.406-.748,1.187-.779-.275.914-.543,1.793-.866,2.663-.469.224-.923.443-1.378.662a1.221,1.221,0,0,1-1.18.068,1.079,1.079,0,0,0-1.354.406,1.617,1.617,0,0,0-.3,1.523,1.468,1.468,0,0,0,1.126,1.232c.5.079.862-.287,1.1-.793a6.6,6.6,0,0,0,.284-.929,1.68,1.68,0,0,1,1.107-.433,7.606,7.606,0,0,1-.475,2.453,5.873,5.873,0,0,0-.7.451,1.679,1.679,0,0,0-.42.531,2,2,0,0,0,.2,1.952,1.335,1.335,0,0,0,1.809.37,1.807,1.807,0,0,0,.6-1.812c-.07-.379-.187-.758-.276-1.11a10.818,10.818,0,0,1,.8-2.866,1.073,1.073,0,0,1,.31,1.1,2.843,2.843,0,0,0-.11.582,1.283,1.283,0,0,0,1.1,1.484.983.983,0,0,0,.78-.361,1.477,1.477,0,0,0,.342-.93,1.423,1.423,0,0,0-.666-1.466c-.186-.095-.366-.205-.526-.3-.257-.746-.5-1.435-.732-2.123.1-.354.2-.687.3-1.011s.219-.649.35-.961c.044-.1.179-.14.272-.207a1.536,1.536,0,0,1,.166,1.183,6.939,6.939,0,0,0-.191.864c-.073.96.8,1.687,1.515,1.275a1.357,1.357,0,0,0,.633-.954,1.618,1.618,0,0,0-.238-1.194,6.561,6.561,0,0,0-.612-.672,1.507,1.507,0,0,1-.065-.176c-.041-.194-.068-.393-.12-.582a4.386,4.386,0,0,1,.6-4.044,3.261,3.261,0,0,1,.406-.365c.061.3.1.49.138.68.057.293.123.583.163.884a93.509,93.509,0,0,0,2.244,11.241,79.333,79.333,0,0,0,7.411,18.763,50.464,50.464,0,0,0,9.266,12.173,31.111,31.111,0,0,0,10.961,6.941,21.581,21.581,0,0,0,4.7,1.11,14.99,14.99,0,0,0,5.968-.721,31.3,31.3,0,0,0,13.4-8.547,50.563,50.563,0,0,0,7.6-10.206,82.65,82.65,0,0,0,9.3-26.027c.361-1.9.643-3.829.963-5.745.03-.181.022-.4.3-.457a6.884,6.884,0,0,1,1.033,1.949,1.38,1.38,0,0,1,.033.586c-.1.839-.23,1.674-.335,2.416a9.88,9.88,0,0,0-.777.913,1.683,1.683,0,0,0,.065,1.677.95.95,0,0,0,1.226.38,1.33,1.33,0,0,0,.682-1.436c-.049-.342-.2-.668-.221-1.011-.021-.32-.062-.717.347-.921a8.4,8.4,0,0,1,.771,2.275l-.751,2.076c-.191.1-.339.188-.49.263a1.415,1.415,0,0,0-.675,1.46,1.489,1.489,0,0,0,.333.942.992.992,0,0,0,.781.373,1.28,1.28,0,0,0,1.113-1.474,2.7,2.7,0,0,0-.109-.582,1.11,1.11,0,0,1,.337-1.137,12.863,12.863,0,0,1,.77,2.961,11.48,11.48,0,0,0-.294,1.183c-.139,1.048.466,1.9,1.329,1.878a1.318,1.318,0,0,0,.6-.149,1.549,1.549,0,0,0,.861-1.348,1.66,1.66,0,0,0-.665-1.643l-.672-.426c-.144-.688-.3-1.361-.413-2.043-.02-.108.089-.253.151-.408l.957.411c.059.209.1.395.164.576a3.289,3.289,0,0,0,.2.545,1.075,1.075,0,0,0,1.149.661,1.833,1.833,0,0,0,1.033-2.1,1.254,1.254,0,0,0-1.541-1.077,1.662,1.662,0,0,1-1.527-.157c-.37-.206-.762-.349-1.177-.535-.266-.843-.534-1.68-.788-2.528-.02-.063.056-.169.089-.253.646.088.959.517,1.136,1.307a.964.964,0,0,0,1.778.423,1.486,1.486,0,0,0-.38-2.225.756.756,0,0,0-.584-.127c-.413.166-.705-.073-1.026-.3-.53-.379-1.083-.713-1.606-1.107a2.177,2.177,0,0,1-.62-.69c-.516-.962-.983-1.957-1.488-2.975a4.337,4.337,0,0,1,2.082-1.2,5.372,5.372,0,0,1,5.965,1.65,10.559,10.559,0,0,1,1.835,2.807,18.086,18.086,0,0,1,1.168,3.629,3.45,3.45,0,0,0,.271.828.42.42,0,0,0,.548.2.53.53,0,0,0,.356-.538,2.889,2.889,0,0,0-.027-.6,14.1,14.1,0,0,0-3.832-7.848,6.2,6.2,0,0,0-4.207-1.839,7.411,7.411,0,0,0-3.478.78c-.133.065-.286.187-.381-.076a6.386,6.386,0,0,1,4.148-2.679,6.1,6.1,0,0,1,6.575,3c.1.157.2.323.3.478a1.571,1.571,0,0,0,.174.21.511.511,0,0,0,.69,0,.688.688,0,0,0,.174-.792,7.337,7.337,0,0,0-10.718-3.182,16.574,16.574,0,0,0-1.342,1.045c-.07.053-.178.03-.34.052a8.887,8.887,0,0,1,1.033-1.987c2.469-3.616,6.225-4.965,10.051-2.422a11.5,11.5,0,0,1,2.85,2.829q.4.57.843,1.089a.39.39,0,0,0,.571,0,.7.7,0,0,0,.218-.779A3.579,3.579,0,0,0,497.472,2620.834Zm-62.957,15.875c-.283-.027-.273-.261-.316-.433-.658-2.635-1.268-5.289-1.98-7.9a28.423,28.423,0,0,1-.723-8.175,25.2,25.2,0,0,1,.792-5.611,14.137,14.137,0,0,1,1.955-4.481c.516-.773.99-1.6,1.523-2.357a19.107,19.107,0,0,1,2.774-2.96,23.209,23.209,0,0,1,6.168-3.992,31.115,31.115,0,0,1,4.727-1.6,39.6,39.6,0,0,1,5.7-1.093,12.437,12.437,0,0,1,2.82-.013,28.211,28.211,0,0,1,3.158.549,4.746,4.746,0,0,1,2.213,1.24,1.944,1.944,0,0,1,.561,2.114c-.122.423-.274.835-.427,1.245-.545,1.459-1.1,2.906-1.644,4.37a9.113,9.113,0,0,0-.516,2.466c-.1,1.246-.26,2.485-.379,3.728s-.239,2.491-.323,3.739a24.347,24.347,0,0,1-1.2,6.417c-.274.782-.461,1.607-.705,2.4a10.533,10.533,0,0,1-1.91,3.539c-.166-.126-.252-.162-.3-.234a6.842,6.842,0,0,0-7.261-3.2c-2.859.461-5.411,1.915-7.994,3.314a13.715,13.715,0,0,0-3.358,2.469,15.275,15.275,0,0,0-3.066,4.064A2.392,2.392,0,0,1,434.515,2636.709Zm3.047,13.279c-.018.026-.073.016-.186.038q-.186-.344-.344-.709a43.61,43.61,0,0,1-1.93-6.806,5.3,5.3,0,0,1-.1-1.336,23.527,23.527,0,0,1,.243-2.538,7.249,7.249,0,0,1,1.352-2.995,18.24,18.24,0,0,1,3.137-3.355,4.3,4.3,0,0,1,.74-.533c1.875-1,3.733-2.062,5.645-2.952a10.3,10.3,0,0,1,5.543-.986,5.916,5.916,0,0,1,3.392,1.948,3.26,3.26,0,0,1,.8,1.666,8.376,8.376,0,0,1,.086,3.71c-.293,1.2-.548,2.414-.864,3.6-.214.807-.5,1.586-.759,2.376q-.5,1.536-1,3.069c-.074.228-.165.448-.31.823-.426-.448-.723-.788-1.042-1.092a3.308,3.308,0,0,0-2.272-.98,9.45,9.45,0,0,0-4.131.545,4.862,4.862,0,0,0-.69.305,21.472,21.472,0,0,0-4.308,3.16,3.319,3.319,0,0,1-.5.426,9.066,9.066,0,0,0-2.494,2.611Zm2.187,8.683a46.532,46.532,0,0,1-1.471-5.011,4.313,4.313,0,0,1,1.033-3.918,4.706,4.706,0,0,1,.373-.391c.971-.833,1.919-1.71,2.925-2.473a23.578,23.578,0,0,1,2.81-1.835,5.155,5.155,0,0,1,2.375-.654c.654-.018,1.31-.038,1.962.009a2.541,2.541,0,0,1,2.3,1.9,5.039,5.039,0,0,1,.266,2.917c-.365,1.588-.746,3.17-1.125,4.753-.058.241-.207.288-.371.126-.19-.191-.36-.412-.562-.579a3.018,3.018,0,0,0-1.6-.694,5.9,5.9,0,0,0-4.218,1.252,15.894,15.894,0,0,0-2.862,2.572C441.029,2657.292,440.441,2657.913,439.75,2658.671Zm1.452,4.91a9.385,9.385,0,0,1-.71-2.022,2.769,2.769,0,0,1,.58-2.466,22.849,22.849,0,0,1,2.976-3.113,8.313,8.313,0,0,1,3.206-1.8,2.911,2.911,0,0,1,1.812.1,1.708,1.708,0,0,1,1.05,1.156,3.993,3.993,0,0,1,.148,1.913c-.078.541-.162,1.083-.284,1.61-.188.816-.413,1.622-.625,2.429a1.837,1.837,0,0,1-.2.372c-.315-.154-.608-.316-.911-.445a4.206,4.206,0,0,0-3.916.48c-.959.552-1.893,1.171-2.841,1.754-.063.046-.153.015-.286.022Zm1.1,4.49q-.274-.837-.516-1.686a1.547,1.547,0,0,1,.4-1.725,1.846,1.846,0,0,1,.31-.253,21.347,21.347,0,0,1,3.352-1.835,3.032,3.032,0,0,1,1.942-.02c.358.1.54.389.62.83a2.8,2.8,0,0,1-.1,1.328c-.243.791-.516,1.57-.826,2.495a1.885,1.885,0,0,0-2.311-.126c-.445.253-.9.488-1.342.742-.4.231-.8.478-1.261.758a3.728,3.728,0,0,1-.26-.513Zm1.389,4.669a4.966,4.966,0,0,1-.633-2.492.924.924,0,0,1,.31-.6,10.12,10.12,0,0,1,2.664-1.494.5.5,0,0,1,.531.087.777.777,0,0,1,.257.575,5.96,5.96,0,0,1-.31,2.578Zm.67,2.694a3.606,3.606,0,0,1-.207-.536.8.8,0,0,1,.219-.915c.481-.348.993-.632,1.494-.939.029-.017.077.009.162.023.045.08.174.2.162.3a5.5,5.5,0,0,1-.878,2.235c-.193.3-.791.17-.953-.171Z" transform="translate(-342.946 -2312.29)" fill="#ff8000"/>
        <path id="Pfad_86" data-name="Pfad 86" d="M196.065,116.148c-5.12-22.605-12.45-42.91-21.789-60.352a156.036,156.036,0,0,0-15.069-23.217A106.953,106.953,0,0,0,141.88,15.018a73.523,73.523,0,0,0-19.2-11.128,56.816,56.816,0,0,0-41.317,0,73.436,73.436,0,0,0-19.2,11.128A107.042,107.042,0,0,0,44.842,32.578,155.942,155.942,0,0,0,29.773,55.795C20.434,73.238,13.1,93.543,7.984,116.148A335.012,335.012,0,0,0,0,190a335.013,335.013,0,0,0,7.984,73.852c5.12,22.605,12.45,42.91,21.789,60.352a155.939,155.939,0,0,0,15.069,23.217,106.951,106.951,0,0,0,17.327,17.561,73.521,73.521,0,0,0,19.2,11.128,56.815,56.815,0,0,0,41.317,0,73.438,73.438,0,0,0,19.2-11.128,107.045,107.045,0,0,0,17.327-17.561,155.75,155.75,0,0,0,15.069-23.217c9.339-17.448,16.669-37.747,21.789-60.352A335.031,335.031,0,0,0,204.049,190,335.013,335.013,0,0,0,196.065,116.148ZM45.819,33.353A105.99,105.99,0,0,1,62.94,15.994C75.329,6.209,88.479,1.246,102.024,1.246s26.7,4.962,39.088,14.748a105.815,105.815,0,0,1,17.123,17.358q.835,1.051,1.656,2.139c-.527,0-1.063-.009-1.6-.009H127.8c-3.24,0-9.961-.022-10.895,0-.061-.146-.242-.576-.321-.786a19.5,19.5,0,0,0-5.237-7.747,17.878,17.878,0,0,1-1.982-2.266,10.326,10.326,0,0,1-2.03-5.7q-.136-1.635-.324-3.265a7.8,7.8,0,0,0-1.075-3.082,4.519,4.519,0,0,0-7.818-.015,7.844,7.844,0,0,0-1.06,2.946,23.573,23.573,0,0,0-.3,2.991,13.468,13.468,0,0,1-.93,4.254,4,4,0,0,1-.5.965,19.7,19.7,0,0,1-2.8,3.351,19.141,19.141,0,0,0-5,7.43,7.781,7.781,0,0,0-.382.927c-1.485.015-11.509-.006-16.345-.007H58.337c-5.1,0-9.1.009-14.176.019Q44.986,34.408,45.819,33.353Zm65.923,2.889a7.4,7.4,0,0,0,.158.943,13.151,13.151,0,0,0,1.028,2.965,18.122,18.122,0,0,0,2.351,3.841,1.168,1.168,0,0,1,.218,1.266,15.388,15.388,0,0,1-1.568,3.183,3.125,3.125,0,0,1-.426.423,2.277,2.277,0,0,1-.406-.35,22.037,22.037,0,0,1-3.781-9.149c-.157-.942-.18-1.906-.278-2.859a1.7,1.7,0,0,0-.162-.653.729.729,0,0,0-.434-.271.5.5,0,0,0-.5.375,1.955,1.955,0,0,0-.05.4,22.951,22.951,0,0,0,1.009,6.327,23.211,23.211,0,0,0,3.219,6.458c.18.255.324.535.51.846a12.5,12.5,0,0,1-4.892,3.5c-.389-.113-.38-.373-.453-.572a15.043,15.043,0,0,1-.727-3.195c-.227-1.485-.4-2.981-.605-4.471-.211-1.535-.419-3.07-.647-4.6-.207-1.4-.435-2.794-.664-4.192a1.61,1.61,0,0,0-.207-.638.588.588,0,0,0-.46-.227.551.551,0,0,0-.376.331,2.141,2.141,0,0,0-.069.806c.088.861.193,1.721.318,2.576.239,1.624.5,3.243.748,4.864.113.722.227,1.442.319,2.165.15,1.133.25,2.266.437,3.386.232,1.39.531,2.768.815,4.22a6.8,6.8,0,0,1-2.972.687,11.85,11.85,0,0,1-5.182-.587c-.245-.34-.062-.591.007-.84a29.822,29.822,0,0,0,.871-4.976c.139-1.4.394-2.8.607-4.192.3-1.982.622-3.965.917-5.944.08-.54.113-1.089.143-1.635a1.073,1.073,0,0,0-.084-.531.626.626,0,0,0-.381-.33.649.649,0,0,0-.462.227,1.052,1.052,0,0,0-.184.5c-.255,1.575-.512,3.151-.745,4.73-.355,2.4-.695,4.789-1.034,7.18-.135.947-.257,1.9-.4,2.843a12.277,12.277,0,0,1-.727,2.516,12.893,12.893,0,0,1-5.111-3.6c.212-.349.382-.667.588-.96a22.573,22.573,0,0,0,4-10.354c.1-.769.113-1.548.152-2.321a1.649,1.649,0,0,0-.051-.4.5.5,0,0,0-.505-.372.812.812,0,0,0-.435.274,1.157,1.157,0,0,0-.146.517c-.063.543-.12,1.088-.162,1.633A19.647,19.647,0,0,1,92.631,45.7a20.818,20.818,0,0,1-1.668,2.822,1.537,1.537,0,0,0-.142.244.611.611,0,0,1-.7-.326,15.3,15.3,0,0,1-1.568-3.183,1.17,1.17,0,0,1,.221-1.264A18.59,18.59,0,0,0,91.3,39.773a14.323,14.323,0,0,0,.921-2.857,4.553,4.553,0,0,0,.092-.813.528.528,0,0,0-1.031-.23,7.355,7.355,0,0,0-.218.793,15.137,15.137,0,0,1-1.55,4.079c-.3.566-.654,1.1-1,1.631a2.573,2.573,0,0,1-.419.4,1.927,1.927,0,0,1-.169-.421,16.284,16.284,0,0,1,1.881-9.381,18.562,18.562,0,0,1,3.144-4.288,42.821,42.821,0,0,0,3.033-3.339,10.807,10.807,0,0,0,2.031-4.872,23.316,23.316,0,0,0,.281-2.993,15.026,15.026,0,0,1,.517-3.1,3.215,3.215,0,0,1,3.827-2.493,2.99,2.99,0,0,1,2.516,2.235,22.585,22.585,0,0,1,.578,3.221c.134.992.113,2.009.288,2.993a9.9,9.9,0,0,0,2.062,4.992c.774.9,1.53,1.813,2.36,2.656a21.552,21.552,0,0,1,3.8,4.985,16.363,16.363,0,0,1,1.882,9.38,1.169,1.169,0,0,1-.133.329c-.308-.017-.415-.236-.539-.419a16.835,16.835,0,0,1-2.341-5.069c-.113-.4-.191-.793-.3-1.193s-.357-.581-.673-.525C111.861,35.526,111.7,35.809,111.742,36.242Zm83.107,227.335c-5.1,22.5-12.387,42.7-21.673,60.039a154.652,154.652,0,0,1-14.946,23.032,105.946,105.946,0,0,1-17.123,17.358c-12.388,9.787-25.537,14.748-39.088,14.748s-26.7-4.961-39.088-14.748a105.853,105.853,0,0,1-17.122-17.358,154.65,154.65,0,0,1-14.946-23.032c-9.29-17.342-16.578-37.542-21.673-60.039A334.243,334.243,0,0,1,1.246,190,333.763,333.763,0,0,1,9.2,116.423c5.1-22.5,12.387-42.7,21.673-60.039A158.255,158.255,0,0,1,43.335,36.6c4.059.011,7.019.016,11.1.02H65.79l13.41.012c2.145,0,4.288-.008,6.433,0a10.926,10.926,0,0,0,1.156,0,25.322,25.322,0,0,0-.409,4.1,18.6,18.6,0,0,0,.445,3.8,4.982,4.982,0,0,1-.4.559c-.695.723-1.388,1.447-2.106,2.146a46.62,46.62,0,0,1-4.829,4.032,34.919,34.919,0,0,1-8.082,4.27,29.67,29.67,0,0,1-5.258,1.479,21.721,21.721,0,0,1-3.807.39A9.3,9.3,0,0,1,57.978,56.4,9.8,9.8,0,0,1,53.8,52.559a6.634,6.634,0,0,1,2.964-9.946,4.389,4.389,0,0,1,2.681-.287,7.6,7.6,0,0,1,3.43,1.613c1.74,1.4,1.992,1.9,1.813,4.383a.9.9,0,0,1-.017.135A3.947,3.947,0,0,1,62.86,51.23a2.039,2.039,0,0,1-1.03.289,2.962,2.962,0,0,1-1.756-.68,1.081,1.081,0,0,1-.426-.824A1.614,1.614,0,0,1,60,48.738a1.253,1.253,0,0,0,.218-.34c.113-.227-.126-.566-.4-.6a.864.864,0,0,0-.927.453,4.56,4.56,0,0,0-.453,1.276,2.3,2.3,0,0,0,.894,2.3,4.419,4.419,0,0,0,2.257.906,2.934,2.934,0,0,0,1.961-.453,4.457,4.457,0,0,0,1.794-2.009A7.74,7.74,0,0,0,66,47.639a4.808,4.808,0,0,0-1.813-4.225,10.833,10.833,0,0,0-3.024-1.851,6.125,6.125,0,0,0-5.29.169,13.106,13.106,0,0,0-1.789,1.246,7.364,7.364,0,0,0-2.379,3.748,6.534,6.534,0,0,0-.041,3.892,10.638,10.638,0,0,0,4.624,6.225,8.555,8.555,0,0,0,1.547.87,12.514,12.514,0,0,0,6.03.906,30.467,30.467,0,0,0,6.533-1.4,36.174,36.174,0,0,0,7.547-3.528,48.381,48.381,0,0,0,8.786-7.152c.153-.153.275-.363.509-.316l2.3,4.11a4.227,4.227,0,0,1-.347.526c-1.055,1.2-2.074,2.431-3.193,3.571a42.624,42.624,0,0,1-8.752,6.525c-1.327.793-2.736,1.458-4.13,2.137a26.473,26.473,0,0,1-3.01,1.309,50.738,50.738,0,0,1-7.523,2.014c-1.347.237-2.719.373-4.045.68-2.086.484-4.157,1.043-6.216,1.634a22.433,22.433,0,0,0-3.713,1.386,58.792,58.792,0,0,0-6.661,4.037,5.367,5.367,0,0,0-.906.834c-.687.732-1.372,1.473-2.025,2.229a14.307,14.307,0,0,0-1.054,1.431,18.3,18.3,0,0,0-2.822,9.037,9.355,9.355,0,0,0,.108,1.906,12.859,12.859,0,0,0,2.02,5.325,10.944,10.944,0,0,0,4.305,4.108c.573.279,1.158.537,1.749.776a10.421,10.421,0,0,0,7.6-.13c.583-.261,1.151-.553,1.729-.826a10.082,10.082,0,0,0,4.679-4.985,4.845,4.845,0,0,0,.394-1.164A8.643,8.643,0,0,0,53.85,83.7a7.053,7.053,0,0,0-6.313-.577,5.647,5.647,0,0,0-3.493,3.249,3.3,3.3,0,0,0-.249,1.873A4.069,4.069,0,0,0,46.76,91.67a3.224,3.224,0,0,0,3.834-1.839,1.3,1.3,0,0,0-.035-1.187c-.14-.249-.706-.284-.832-.035-.1.2-.14.427-.227.638a1.79,1.79,0,0,1-1.07,1.175,2.422,2.422,0,0,1-2.652-.6A2.6,2.6,0,0,1,45,87.075a4.292,4.292,0,0,1,1.711-2.247,5.521,5.521,0,0,1,2.019-.815,5.9,5.9,0,0,1,5.665,1.613,8.084,8.084,0,0,1,1.7,2.471,6.161,6.161,0,0,1,.043,5.425A9.741,9.741,0,0,1,53.2,97.078a5.064,5.064,0,0,1-.7.428,11.211,11.211,0,0,1-5.032,1.605,5.354,5.354,0,0,1-2.965-.227,10.624,10.624,0,0,1-5.94-4.144,11.71,11.71,0,0,1-2.118-6.118,15.973,15.973,0,0,1,1.311-7.072,13.271,13.271,0,0,1,2.266-3.731,26.081,26.081,0,0,1,6.953-5.478c.4-.221.793-.453,1.2-.658a22.479,22.479,0,0,1,2.474-1.157q2.582-.9,5.212-1.638c1.094-.3,2.226-.476,3.346-.68,1.21-.227,2.427-.411,3.637-.634,1.795-.332,3.537-.868,5.3-1.345a46.209,46.209,0,0,0,8.907-3.814,48.673,48.673,0,0,0,4.5-2.856,33.013,33.013,0,0,0,5.657-4.734c.946-.988,1.827-2.039,2.743-3.059.147-.164.316-.309.477-.466.946.731,1.8,1.484,2.75,2.1.985.64,2.054,1.149,3.083,1.713a2.307,2.307,0,0,1,0,.427c-.3,1.473-.6,2.946-.913,4.419-.322,1.515-.633,3.033-.995,4.539-.254,1.064-.612,2.1-.874,3.166-.545,2.216-1.238,4.387-2,6.535a27.491,27.491,0,0,1-1.456,3.392A41.565,41.565,0,0,1,87.5,81.659,10.151,10.151,0,0,1,83.777,85,7.532,7.532,0,0,1,80.1,85.9a8.1,8.1,0,0,1-3.144-.827,6.212,6.212,0,0,1-2.869-2.438,11.946,11.946,0,0,1-.764-1.3,5.667,5.667,0,0,1-.7-3.561,7.722,7.722,0,0,1,1.755-3.662,5.756,5.756,0,0,1,3.059-1.966,5.028,5.028,0,0,1,4.892,1.473,3.163,3.163,0,0,1,.937,2.746,3.828,3.828,0,0,1-1.262,2.358,2.276,2.276,0,0,1-2.287.531,1.486,1.486,0,0,1-1.133-1.513,7.669,7.669,0,0,0-.014-.808.438.438,0,0,0-.657-.236,1.24,1.24,0,0,0-.34.409,2.354,2.354,0,0,0,.906,2.875,3.348,3.348,0,0,0,4.3-.246,4.834,4.834,0,0,0,1.736-3.156,4.3,4.3,0,0,0-1.05-3.55A6.328,6.328,0,0,0,79.6,70.879a5.057,5.057,0,0,0-2.832.179A9.235,9.235,0,0,0,74,72.79a8.827,8.827,0,0,0-2.662,5.552,2.563,2.563,0,0,0,.024.817,10.124,10.124,0,0,0,1.124,3.212c1.791,2.988,2.212,3.027,4.645,4.209a7.347,7.347,0,0,0,4.55.516,10.285,10.285,0,0,0,6.6-4.3,28.733,28.733,0,0,0,4.11-7.691,104.483,104.483,0,0,0,3.825-13.394c.4-1.918.9-3.816,1.275-5.74a2.29,2.29,0,0,1,.227-.487A24.038,24.038,0,0,0,102.1,56a34.468,34.468,0,0,0,4.369-.492c.1.417.2.764.27,1.114.453,2.14.874,4.285,1.351,6.418.269,1.2.615,2.379.939,3.571.647,2.379,1.285,4.753,2.145,7.063a34.671,34.671,0,0,0,2.314,5.546,22.74,22.74,0,0,0,3.663,5.089,9.4,9.4,0,0,0,7.279,2.871,9.725,9.725,0,0,0,5.438-2.337.6.6,0,0,0,.1-.1,11.68,11.68,0,0,0,2.7-5.307,3.853,3.853,0,0,0,.08-1.084,8.514,8.514,0,0,0-5.157-7.2,3.563,3.563,0,0,0-1.045-.307,6.513,6.513,0,0,0-5.915,2.165,4.151,4.151,0,0,0-1.059,3.544,4.882,4.882,0,0,0,1.429,2.877,3.428,3.428,0,0,0,4.116.823,2.632,2.632,0,0,0,1.567-1.948,1.736,1.736,0,0,0-.4-1.53.374.374,0,0,0-.486-.126.713.713,0,0,0-.331.386,5.058,5.058,0,0,0,.024.816,1.315,1.315,0,0,1-.75,1.218,2.1,2.1,0,0,1-2.1.037,3.508,3.508,0,0,1-1-5.39,4.742,4.742,0,0,1,2.408-1.5,5,5,0,0,1,3.712.374,7.229,7.229,0,0,1,3.68,5.169,4.178,4.178,0,0,1-.01,1.626,7.43,7.43,0,0,1-.858,2.3,6.69,6.69,0,0,1-4.058,3.657,6.572,6.572,0,0,1-4.278.36,9.369,9.369,0,0,1-5.5-3.8c-.411-.546-.779-1.125-1.158-1.7a25.945,25.945,0,0,1-2.5-4.7,50.088,50.088,0,0,1-1.823-5.445c-.567-2.065-1.166-4.124-1.7-6.2-.4-1.543-.748-3.1-1.064-4.661a31.316,31.316,0,0,1-.716-4.071c1-.538,2.039-1.013,2.979-1.628.987-.644,1.885-1.421,2.871-2.178a12.815,12.815,0,0,1,1.558,1.678,34.841,34.841,0,0,0,6.64,6.087c1.614,1.111,3.229,2.222,4.934,3.2,1.667.955,3.434,1.7,5.157,2.529a25.8,25.8,0,0,0,3.331,1.238c.566.184,1.133.347,1.7.506a46.86,46.86,0,0,0,5.325,1.215c1.35.213,2.711.39,4.04.7,1.861.438,3.714.934,5.538,1.508a22.51,22.51,0,0,1,3.541,1.445,32.657,32.657,0,0,1,5.872,3.739,18.423,18.423,0,0,1,3.593,3.739,16.472,16.472,0,0,1,2.771,8.617,8.464,8.464,0,0,1-.074,2.047A12.427,12.427,0,0,1,164.451,96a10.933,10.933,0,0,1-5.559,3.027,8.731,8.731,0,0,1-5.1-.492,15.92,15.92,0,0,1-2.352-1.1,7.122,7.122,0,0,1-1.618-1.246,14.318,14.318,0,0,1-1.586-2.053,5.322,5.322,0,0,1-.917-2.694,7.409,7.409,0,0,1,3.049-6.417,5.933,5.933,0,0,1,6.592-.409,4.7,4.7,0,0,1,1.937,2.053,2.861,2.861,0,0,1-1.658,3.79,2.043,2.043,0,0,1-2.734-1.33,5.12,5.12,0,0,0-.179-.51.564.564,0,0,0-.835.01,1.1,1.1,0,0,0-.121.923,2.957,2.957,0,0,0,1.507,1.857,3.517,3.517,0,0,0,3.626-.31,4.141,4.141,0,0,0,1.638-4.325,5.225,5.225,0,0,0-1.943-2.747,7.166,7.166,0,0,0-6.372-1.043,6.5,6.5,0,0,0-2.93,1.693,10.31,10.31,0,0,0-1.958,2.791,7.656,7.656,0,0,0-.279,6.244,10.252,10.252,0,0,0,3.091,4.115,14.091,14.091,0,0,0,2.732,1.545,10.209,10.209,0,0,0,3.929,1.042,11.111,11.111,0,0,0,6.165-1.446,10.609,10.609,0,0,0,3.39-2.928,14.415,14.415,0,0,0,1.6-2.546,11.9,11.9,0,0,0,1.335-5.8c-.02-.545-.137-1.085-.2-1.629a15.752,15.752,0,0,0-2.206-6.7,18.7,18.7,0,0,0-5.539-5.949,56.676,56.676,0,0,0-5.034-3.032,17,17,0,0,0-2.633-1.133,59.5,59.5,0,0,0-10.74-2.647,42.15,42.15,0,0,1-7.824-1.936A46.851,46.851,0,0,1,128,61.642c-1.133-.585-2.174-1.338-3.266-2a37.82,37.82,0,0,1-9.867-8.776,3.735,3.735,0,0,1-.34-.577l2.3-4.106a1.231,1.231,0,0,1,.288.146c1.533,1.5,3.084,2.967,4.751,4.323a35.447,35.447,0,0,0,14.943,7.39,18.65,18.65,0,0,0,4.872.614,11.2,11.2,0,0,0,6.189-1.886c.481-.34.928-.735,1.381-1.117a9.926,9.926,0,0,0,3.18-5.156,6.43,6.43,0,0,0-.164-4.022,7.445,7.445,0,0,0-1.3-2.541,8.9,8.9,0,0,0-3.519-2.536,5.166,5.166,0,0,0-2.278-.365,9.6,9.6,0,0,0-5.873,2.936,3.951,3.951,0,0,0-1.133,2.153,6.42,6.42,0,0,0,1.04,4.96,3.4,3.4,0,0,0,3.392,1.629,5.164,5.164,0,0,0,1.786-.646,2.6,2.6,0,0,0,.808-3.806.84.84,0,0,0-.793-.453.678.678,0,0,0-.471.2.619.619,0,0,0-.02.5c.053.152.244.276.315.437a1.5,1.5,0,0,1-.671,2.192,2.236,2.236,0,0,1-3.083-.475,3.656,3.656,0,0,1-.549-.777,5.3,5.3,0,0,1-.554-3.315,2.788,2.788,0,0,1,.793-1.7,9,9,0,0,1,3.261-2.209,4.823,4.823,0,0,1,2.818-.35,6.366,6.366,0,0,1,4.419,3.358,10.962,10.962,0,0,1,.671,1.932,4.373,4.373,0,0,1-.023,2.429A9.968,9.968,0,0,1,142,57.414a20.15,20.15,0,0,1-4.351-.424A30.918,30.918,0,0,1,131.271,55a32.56,32.56,0,0,1-8.628-5.222c-.313-.266-.65-.5-.958-.774a41.507,41.507,0,0,1-4.048-3.875,1.313,1.313,0,0,1-.3-1.246,14.7,14.7,0,0,0,.178-5.3,14.505,14.505,0,0,0-.381-1.916c.424,0,1.02-.02,1.414-.023q3.9-.017,7.8-.018c5.2,0,10.4.022,15.6.023,3.512,0,7.024-.014,10.537-.02,3.1-.007,5.072-.01,8.174-.022h.058a159.129,159.129,0,0,1,12.463,19.789c9.29,17.342,16.578,37.542,21.673,60.039A333.763,333.763,0,0,1,202.8,190.01,333.669,333.669,0,0,1,194.849,263.577Z" transform="translate(0 0)" fill="#ff8000"/>
      </g>
    </g>
  </g>
</svg>
