<?xml version="1.0" encoding="utf-8"?>
<!-- Generator: Adobe Illustrator 27.0.0, SVG Export Plug-In . SVG Version: 6.00 Build 0)  -->
<svg version="1.1" id="Ebene_2_00000093895920235337877440000017302919780405111225_"
	 xmlns="http://www.w3.org/2000/svg" xmlns:xlink="http://www.w3.org/1999/xlink" x="0px" y="0px" viewBox="0 0 38.1 38.1"
	 style="enable-background:new 0 0 38.1 38.1;" xml:space="preserve">
<g id="Capa_1">
	<path d="M19,0L19,0C8.5,0,0,8.5,0,19l0,0c0,10.5,8.5,19,19,19l0,0c10.5,0,19-8.5,19-19l0,0C38.1,8.5,29.5,0,19,0z M24.3,11.6h-2.5
		c-0.9,0-1.1,0.4-1.1,1.3V15h3.6L24,18.9h-3.2v11.6h-4.6V19h-2.4v-4h2.4v-3.1c0-2.9,1.5-4.4,5-4.4h3.2L24.3,11.6L24.3,11.6z"/>
</g>
</svg>
