<?xml version="1.0" encoding="utf-8"?>
<!-- Generator: Adobe Illustrator 27.0.0, SVG Export Plug-In . SVG Version: 6.00 Build 0)  -->
<svg version="1.1" id="Ebene_2_00000003092088634677559230000010926952440534556056_"
	 xmlns="http://www.w3.org/2000/svg" xmlns:xlink="http://www.w3.org/1999/xlink" x="0px" y="0px" viewBox="0 0 38.1 38.1"
	 style="enable-background:new 0 0 38.1 38.1;" xml:space="preserve">
<g id="Capa_1">
	<g>
		<path d="M27.2,12.9c-0.2-0.5-0.4-0.8-0.8-1.2s-0.7-0.6-1.2-0.8c-0.4-0.1-0.9-0.3-1.9-0.4c-1.1-0.1-1.4-0.1-4.2-0.1s-3.1,0-4.2,0.1
			c-1,0.1-1.6,0.2-1.9,0.4c-0.5,0.2-0.8,0.4-1.2,0.8c-0.4,0.4-0.6,0.7-0.8,1.2c-0.1,0.4-0.3,0.9-0.4,1.9c-0.1,1.1-0.1,1.4-0.1,4.2
			s0,3.1,0.1,4.2c0.1,1,0.2,1.6,0.4,1.9c0.2,0.5,0.4,0.8,0.8,1.2c0.4,0.4,0.7,0.6,1.2,0.8c0.4,0.1,0.9,0.3,1.9,0.4
			c1.1,0,1.4,0.1,4.2,0.1s3.1,0,4.2-0.1c1,0,1.6-0.2,1.9-0.4c0.5-0.2,0.8-0.4,1.2-0.8c0.4-0.4,0.6-0.7,0.8-1.2
			c0.1-0.4,0.3-0.9,0.4-1.9c0-1.1,0.1-1.4,0.1-4.2s0-3.1-0.1-4.2C27.5,13.8,27.3,13.2,27.2,12.9z M19,24.4c-3,0-5.4-2.4-5.4-5.4
			s2.4-5.4,5.4-5.4s5.4,2.4,5.4,5.4S22,24.4,19,24.4z M24.6,14.7c-0.7,0-1.2-0.6-1.2-1.2s0.6-1.2,1.2-1.2s1.2,0.6,1.2,1.2
			S25.3,14.7,24.6,14.7z"/>
		<path d="M19,15.5c-1.9,0-3.5,1.6-3.5,3.5s1.6,3.5,3.5,3.5s3.5-1.6,3.5-3.5S21,15.5,19,15.5z"/>
		<path d="M19,0C8.5,0,0,8.5,0,19l0,0c0,10.5,8.5,19,19,19s19-8.5,19-19l0,0C38.1,8.5,29.5,0,19,0z M29.4,23.3
			c0,1.1-0.2,1.9-0.5,2.5c-0.3,0.7-0.6,1.3-1.2,1.9s-1.2,0.9-1.9,1.2c-0.7,0.3-1.4,0.4-2.5,0.5s-1.5,0.1-4.3,0.1s-3.2,0-4.3-0.1
			s-1.9-0.2-2.5-0.5c-0.7-0.3-1.3-0.6-1.9-1.2s-0.9-1.2-1.2-1.9c-0.3-0.7-0.4-1.4-0.5-2.5S8.5,21.8,8.5,19s0-3.2,0.1-4.3
			s0.2-1.9,0.5-2.5c0.3-0.7,0.6-1.3,1.2-1.9s1.2-0.9,1.9-1.2s1.4-0.4,2.5-0.5s1.5-0.1,4.3-0.1s3.2,0,4.3,0.1
			c1.1,0.1,1.9,0.2,2.5,0.5c0.7,0.3,1.3,0.6,1.9,1.2s0.9,1.2,1.2,1.9c0.3,0.7,0.4,1.4,0.5,2.5c0,1.1,0.1,1.5,0.1,4.3
			S29.4,22.2,29.4,23.3z"/>
	</g>
</g>
</svg>
