<?xml version="1.0" encoding="UTF-8"?><svg id="Ebene_2" xmlns="http://www.w3.org/2000/svg" viewBox="0 0 98.03 98.03"><g id="Capa_1"><path d="M49.02,0C21.95,0,0,21.95,0,49.02s21.95,49.02,49.02,49.02,49.02-21.95,49.02-49.02S76.09,0,49.02,0Zm26.94,43.41c-1.83,0-3.63-.24-5.4-.65-3.06-.7-5.88-1.94-8.49-3.66-.14-.09-.28-.28-.43-.22-.18,.08-.09,.32-.09,.49,0,7.03,.03,14.06-.01,21.09-.03,4.92-1.59,9.31-4.81,13.06-3.42,3.98-7.76,6.29-12.97,6.93-4.02,.49-7.83-.24-11.45-2.02-.59-.29-1.14-.63-1.67-1.02-.16-.15-.33-.29-.49-.44,0,0,0,0,0,0-.39-.17-.71-.45-1.04-.71-3.23-2.56-5.51-5.79-6.76-9.72-.44-1.37-.71-2.77-.84-4.2-.1-1.04-.11-2.07-.04-3.11,.16-2.38,.72-4.67,1.7-6.85,1.03-2.28,2.43-4.3,4.22-6.05,2.08-2.04,4.48-3.56,7.23-4.55,1.72-.62,3.49-.99,5.31-1.13,1.32-.1,2.63-.07,3.95,.09,.18,.02,.28,.06,.28,.27-.01,.73-.01,1.46-.02,2.19,.01,.01,.11,5.55,.11,8.08,0,.09,0,.18,0,.27-.01,.25-.14,.34-.38,.27-.69-.2-1.41-.29-2.12-.33-1.11-.06-2.21,.1-3.24,.48-3.48,1.29-5.6,3.78-6.04,7.46-.44,3.62,.99,6.52,4.01,8.61,.25,.17,.51,.34,.75,.54,.06,.05,.11,.1,.17,.16,.7,.28,1.4,.56,2.15,.71,2.36,.47,4.59,.11,6.64-1.16,2.37-1.46,3.77-3.6,4.26-6.33,.09-.52,.11-1.04,.11-1.57,0-14.12,0-28.23,0-42.35,0-.66-.09-.58,.56-.58,3.26,0,6.51,0,9.77,0,.08,0,.15,0,.23,0,.33,0,.34,0,.34,.34,0,.75,.31,2.53,.34,2.67,1.41,7.14,9.73,11.5,12.29,11.89,.71,.11,1.42,.19,2.13,.19,.3,0,.31,0,.31,.29,0,.66,.13,7.49,.13,9.99,0,.57-.08,.6-.65,.6Z"/></g></svg>