<?xml version="1.0" encoding="UTF-8"?><svg id="Ebene_2" xmlns="http://www.w3.org/2000/svg" viewBox="0 0 38.06 38.06"><g id="Capa_1"><path d="M19.03,0C8.52,0,0,8.52,0,19.03H0c0,10.51,8.52,19.03,19.03,19.03s19.03-8.52,19.03-19.03h0C38.06,8.52,29.54,0,19.03,0Zm8.06,14.89c.26,5.85-4.1,12.38-11.83,12.38-2.35,0-4.54-.69-6.38-1.87,2.21,.26,4.41-.35,6.16-1.72-1.82-.03-3.36-1.24-3.89-2.89,.65,.12,1.29,.09,1.88-.07-2-.4-3.38-2.2-3.34-4.13,.56,.31,1.2,.5,1.89,.52-1.85-1.24-2.38-3.68-1.29-5.56,2.05,2.52,5.12,4.17,8.57,4.35-.61-2.6,1.37-5.11,4.05-5.11,1.2,0,2.28,.5,3.04,1.31,.95-.19,1.84-.53,2.64-1.01-.31,.97-.97,1.79-1.83,2.3,.84-.1,1.64-.32,2.39-.65-.56,.84-1.26,1.57-2.08,2.15Z"/></g></svg>