<?xml version="1.0" encoding="utf-8"?>
<!-- Generator: Adobe Illustrator 24.0.0, SVG Export Plug-In . SVG Version: 6.00 Build 0)  -->
<svg version="1.1" id="Warstwa_1" xmlns="http://www.w3.org/2000/svg" xmlns:xlink="http://www.w3.org/1999/xlink" x="0px" y="0px"
	 viewBox="0 0 2200 2200" style="enable-background:new 0 0 2200 2200;" xml:space="preserve">
<style type="text/css">
	.st0{fill:#0B1A16;}
	.st1{fill:#DED1A6;}
</style>
<circle class="st0" cx="1100" cy="1100" r="1100"/>
<path class="st1" d="M1100,0C492.5,0,0,492.5,0,1100s492.5,1100,1100,1100s1100-492.5,1100-1100S1707.5,0,1100,0z M2181.1,948.5
	c-2.1,0-4.1,0.5-5.9,1.3c-7.6,3.8-16.1,5.5-24.5,5c-1.5-0.1-3,0.5-4.5,0.7c-6.3,0.6-12.7,0.6-19.1,0c0.2-2.1,1.6-2.8,2.7-3.8
	c4.1-3.5,8.3-7,12.4-10.6s8-7.3,12.2-10.8c6.6-5.5,13.7-10.2,22.1-11.9C2178.2,928.5,2179.7,938.5,2181.1,948.5z M2130.4,966.1
	c4.5,0.2,9,0.3,13.6,0.2s9-0.7,13.5-0.7c5.1,0.2,10.3-0.9,14.9-3c3.1-1.6,6.6-2.6,10.1-3c1.6,12.4,3,24.8,4.1,37.3
	c-3.1,0.2-6.6,0.5-8.3,0.7c-8.9,1.2-18,1.5-26.8,4.1c-2.6,0.8-5.3,1.3-8,1.6c-12.5,1.4-24,5.7-35.2,11.2
	c-9.2,4.5-18.5,8.9-27.8,13.1c-3.8,1.7-7.9,3.4-12,3.7c-7.8,0.5-15.7,0.5-23.5,0c-5.5-0.3-10.7-2.6-14.7-6.3c-2.6-2.1-5.3-4-8.2-5.7
	c-4.4-2.7-8.8-5.2-13.2-7.9c-0.9-0.5-2.2-1-1.9-2.6c0.4-0.4,0.8-1.1,1.3-1.2c3.2-0.8,6.4-2,9.7-2.3c8.7-0.5,16.5-3.7,23.6-8.3
	c6.9-4.4,14.2-8,21.9-10.6c6-2.2,11.7-4.9,17.1-8.2c4.4-2.6,8.9-5.2,13.4-7.5c7.4-3.7,15.1-6,23.5-5.5
	C2122,965.5,2126.2,965.9,2130.4,966.1z M2174.4,906.9c-9.4,3.9-19,7.5-26.8,14.6c-3.8,3.5-7.8,6.6-11.4,10.3
	c-9.1,9.3-19.9,16.7-31.9,22c-11.4,5-22.1,11-32.9,17.2c-2.8,1.8-5.8,3.2-8.9,4.4c-10,3.4-19.6,8.1-28.3,14c-4,2.7-8.6,4.4-13.4,5.1
	c-8.1,0.9-16,3.1-23.4,6.5c-3.9,1.7-8,2.6-12.3,2.7c-11,0.4-21.5,2.8-31.1,8.5c-1.6,0.9-3.2,1.7-4.8,2.4c-7.2,3.2-14.3,6.5-21.6,9.5
	c-4.5,1.9-5.8,1.7-11.2-0.4c3.1-3.8,7.2-6.5,11.9-7.8c4.1-1.2,8-2.7,11.8-4.5c8.9-4.4,17.7-9.2,26.5-13.8c3.2-1.7,6.5-3.3,9.8-4.7
	c9.4-4.1,18.9-8.1,28.3-12c4.5-1.8,8.6-4.3,12.4-7.4c7.2-5.9,14.6-11.7,21.7-17.8c5.8-4.9,11.3-10,16.9-15
	c6.7-6.1,13.1-12.6,20.2-18.2c10.6-8.2,19-18.5,28.3-28c1.8-2.1,3.4-4.3,4.8-6.6c2.6-3.7,4.9-7.6,7.6-11.2c2.7-3.6,4.7-7.8,5.7-12.2
	c1.8-7.9,6-15.2,6.6-23.4c0.2-0.9,0.5-1.8,0.9-2.6c2.4-6.2,4.6-12.5,7.1-18.6c3.4-8.3,6.8-16.5,11.7-23.8c8,27.7,14.9,55.7,20.7,84
	C2171.1,889,2172.9,897.9,2174.4,906.9L2174.4,906.9z M1656.5,936.7c-1.7-5.8-3.5-11.5-5.1-16.8c1.2-2.2,2.8-1.9,4.2-1.4
	c2,0.6,4,1.4,5.9,2.3c6.6,3.1,13.6,4.9,20.6,6.7c5.2,1.3,10.5,2.5,15.1,5.8c3.2,2.3,6.9,2,10.2-0.2c3-2,6-4.1,8.8-6.4
	c6.2-5.3,12.7-10.2,19.6-14.5c9.5-5.9,17.9-13.2,26.3-20.6c12.3-10.7,24.6-21.3,37.8-30.9c2.4-1.8,4.9-3.4,7.4-5.1l1,0.9
	c-5.4,14-10.3,28.3-16.3,42c-4.6,10.5-10.6,20.3-16.1,30.3c-1,1.5-2.1,3-3.3,4.3c-0.5,0.7-1.1,1.4-1.8,2.1c-6.3,5.5-10,13.8-17.7,18
	c-7.4,4.1-13.9,9.6-20.8,14.3c-1,0.7-2.1,1.2-3.2,1.8c-8.7,4.2-17.4,8.3-26.1,12.4c-2.7,1.4-5.5,2.4-8.4,3.2
	c-8.3,1.9-16.1,5.1-23.8,8.6c-3.2,1.5-6.4,3.2-10.6,3.3c-0.2-2.1-0.5-4.1-0.5-6.2c0-10.3,0.1-20.5,0.3-30.8
	C1660.3,951.9,1658.8,944.3,1656.5,936.7L1656.5,936.7z M1729.2,859.7c2.7,0.9,5.6-0.4,6.8-3c0.6-1.1,1-2.2,1.5-3.3
	c4.5-11,10.6-20.9,19.3-29.2c5.2-5,10.1-10.4,15.1-15.6c3.4-3.5,4.8-7.5,3.3-12.4c-1.6-5.5-2.7-11.1-5.2-16.3
	c-2.3-4.6-4.2-9.3-6.2-14.1c-0.4-0.9-1.5-2-0.1-2.8c6.3,4.2,12.3,8.8,18.9,12.5c6.8,3.8,13.8,7.5,21.6,10c2.8-1.5,6-2.8,8.6-4.7
	c6.1-4.5,12.1-9,17.8-13.9c4-3.6,8.6-6.6,13.5-8.9c2.5-1.1,4.9-2.3,7.4-3.4c7.2-3.2,14.1-6.8,20.1-12.1c3.6-3.2,7.4-6.2,11.3-9
	c3.6-2.7,7.3-5.3,11.2-7.6c4.4-2.7,9.5-4.1,14.7-3.8c5.2,0.3,10.2-1,15.2-2.2c17-4.2,33.9-8.8,50.8-13c8.8-2.2,17.6-4.2,26.4-6.1
	c10.9-2.2,21.7-5.3,32.2-9.1c11-4.1,22.3-7.6,33.7-10.5c12-3.1,24.2-5.2,36.2-7.8c0.4-0.1,0.9-0.2,1.3-0.3l1,2.4
	c14.6,34.4,27.4,69.6,38.3,105.4c-5.5,0.5-10.9,1.7-16.2,3.5c-14.3,4.9-29.1,7.9-43.8,10.9c-4.2,0.7-8.4,1.1-12.6,1.3
	c-6.3,0.4-12.7,0.5-19,1c-14.8,1.2-29.5,1.6-44.2-0.1c-10.9-1.2-21.9-0.8-32,3.8c-7.4,3.5-15.1,6.1-23,7.9
	c-5.9,1.3-11.5,3.8-16.4,7.3c-8.2,5.7-16.4,11.3-23.9,17.9c-2.2,2.1-4.8,3.7-7.7,4.7c-9.5,3-19.1,5.6-28.7,8.3
	c-1.5,0.3-3,0.5-4.5,0.5c-9.3,0-18.7,0.4-28,1.3c-3.3,0.5-6.7,0.2-9.8-1c-7.6-3.2-15.8-3.6-23.9-4c-4.8-0.3-8.7,1.3-12.6,4.1
	c-15.6,10.9-30,23.4-44.4,35.7c-7.3,6.3-14.6,12.7-22.8,17.8c-7.9,5-15.4,10.6-22.5,16.8c-1.7,1.3-3.4,2.5-5.2,3.6
	c-8.8-3.6-17.9-5.9-27-8.1c-4.9-1.2-9.7-2.8-14-6.2c2.4-5,5.4-9.7,9-13.9c3.6-4.1,6.6-8.6,9.1-13.5c1.7-3.2,3.6-6.3,5.6-9.3
	c6.9-10.6,13-21.8,18.3-33.3c3.5-8,7.8-15.7,12.8-22.9c3.7-5.2,6.2-11.1,7.4-17.3c1-6.3,3.5-12.3,7.1-17.5
	c4.9-6.8,9.7-13.8,14.6-20.6c0.2-0.3,1.1-0.3,1.9-0.5c7.4,7.6,9.5,17.8,13.4,27.2c1.8,4.5,3.3,9.1,2.6,14.7
	c-4.4,4.7-8.8,10.2-14,14.8c-8.9,7.7-14.4,17.8-20.2,27.6c-1.8,3-2.6,6.7-3.6,10.2c-0.8,2.7,0.7,5.5,3.4,6.4
	C1729.2,859.6,1729.2,859.6,1729.2,859.7L1729.2,859.7z M2023.6,518.1c29.2,46.2,54.8,94.5,76.7,144.5c-1.3,0.1-2.6,0.3-3.9,0.5
	c-4.8,0.8-9.4,2.2-14.1,3.1c-17.8,3.1-35.3,7.9-52.2,14.4c-10.1,3.9-20.6,6.9-31.3,8.9c-2.1,0.4-4.1,0.8-6.2,1.4
	c-13.1,3.3-26.3,6.7-39.4,10.1c-10.8,2.8-21.6,5.5-32.5,8.1c-5,1.4-10.2,1.4-15.1-0.2c-0.2-0.8-0.2-1.7-0.2-2.5
	c2.7-11.5,3.4-23.2,5.4-34.8c1.7-10.1,0.7-20.5,3.1-30.6c0.8-3.3,1.6-6.4,3.6-9.1c1.2-1.7,2.6-3.4,3.7-5.2c2.8-4.7,7-8.4,11.9-10.8
	c5.5-2.6,10.1-6.5,14.8-10.4c3.7-3.1,7.4-6.2,11.1-9.2c5.9-4.7,11.5-9.7,16.1-15.8c1.8-2.4,3.8-4.7,6-6.8c3.3-3.1,6-6.8,7.8-11
	c2.7-5.8,6.1-11.1,10.2-16c5.1-5.9,9.9-12.2,14.8-18.3C2016.8,524.7,2019.8,521,2023.6,518.1L2023.6,518.1z M2023.7,809.8
	c-0.2,1.3-0.4,2.6-0.7,3.9c-1.8,5.5-4.5,10.6-8,15.1c-9.1,11.7-17.9,23.6-27.6,34.7c-6.5,7.5-14.2,14-21.5,20.7
	c-4.9,4.5-10.1,8.6-15.2,12.9c-2.3,2-4.5,4.1-6.5,6.3c-5.4,6.1-10.7,12.3-16,18.4c-3.7,4.4-7.8,8.4-12.1,12.2
	c0.7-3.6,2.1-7.1,4.1-10.2c4.4-7.9,8.9-15.8,13.4-23.6c6.3-11,10.6-23,15.5-34.7c0.9-2.6,1.4-5.2,1.5-7.9c0.6-8.8,3.4-17.3,8-24.7
	c3.4-5.3,7.3-10.3,11.1-15.3c0.6-0.7,1.3-1.3,2.1-1.7c10.8-6.1,22.1-9.5,34.6-7.4c3.6,0.6,7.2,0.6,10.8,0.9L2023.7,809.8z
	 M1663.6,1009.2c9.2-4.6,18.3-9.1,28.3-11.7c7-1.8,13.8-4.3,20.3-7.6c5.9-3.1,11.9-5.8,18-8.5c6-2.8,11.7-6.2,17-10.3
	c3.1-2.3,6.4-4.5,9.8-6.5c5.2-3,9.9-7,13.7-11.7c2.7-3.2,5.4-6.5,8.3-9.5c5-5.4,8.6-11.6,12.3-17.9c9.8-16.5,16.4-34.2,22.7-52.2
	c1.7-4.5,3.6-8.9,5.8-13.2c0.6-1.3,1.8-2.3,3-3.8c2.4,0.4,4.7,1.1,7,1.8c3.9,1.5,8.2,2.2,12.4,2c9.3-0.2,18.7-0.2,28-0.7
	c4.5-0.4,9-1.2,13.3-2.4c6.7-1.7,13.3-3.8,20-5.7c7.3-1.9,14.1-5.6,19.5-10.8c7.2-6.9,15.8-12.1,24.2-17.4c1.2-0.6,2.5-1.1,3.9-1.5
	c-0.1,1-0.3,2-0.5,2.9c-0.6,1.4-1.4,2.7-2.1,4c-4.5,8.3-8.2,16.8-8.7,26.4c-0.3,3.6-1.2,7.1-2.7,10.5c-6.1,15.1-13.3,29.7-21.6,43.8
	c-4,6.7-7.6,13.7-10.7,20.9c-3.9,9.2-9.2,16.9-17.4,22.6c-7.2,5-14.2,10.3-21.7,14.7c-14.4,8.2-28.1,17.6-41,28.1
	c-1.4,1.1-3,2-4.7,2.6c-5.1,1.9-9.8,4.8-13.6,8.7c-7.2,7-15.6,12.3-24.4,17c-16.3,8.6-32.6,17.2-48.8,25.8c-2.9,1.7-6.2,2.4-9.6,2
	c-6-0.8-11.8-1.8-17-5.4c-10.2-7-20.5-13.8-29.8-22.1c-2.2-2-4.7-3.8-6.9-5.8c-2.7-2.4-5.3-4.9-6.7-8.1
	C1663.3,1009.7,1663.4,1009.3,1663.6,1009.2L1663.6,1009.2z M1862.5,981.7c10.7-6.2,21.4-12.3,32-18.7c19.7-11.8,37.2-27,51.8-44.8
	c5-6,10.6-11.5,16.8-16.4c6.1-4.9,11.6-10.6,17.8-15.4c13.8-10.7,23.6-24.8,34.2-38.3c1.5-1.9,2.8-3.9,4.4-5.8
	c7.8-9.4,14-19.6,16.6-31.7c0.7-0.5,1.6-0.9,2.5-1.2c11.7-0.8,23.5-1.3,35.2-2.2c5.4-0.5,10.8-1.3,16.1-2.4c14.8-3,29.3-7,43.6-11.8
	c1.3-0.5,2.7-1.6,4.6-0.1c-1.3,2.5-2.7,5.1-3.9,7.7s-2.6,5.5-3.7,8.2c-4,10.1-8,20.2-12,30.3c-0.9,8.2-5.3,15.3-7.1,23.3
	c-0.6,2.5-2.1,5-3.5,7.2c-2.4,3.8-4.9,7.6-7.6,11.2c-2.6,3.7-5.5,7.2-8.5,10.5c-6,6.4-12.1,12.7-18.4,18.7
	c-7.5,7-15.6,13.3-22.9,20.5c-11.8,11.7-25.2,21.5-37.8,32.4c-4.6,3.9-9.8,7.1-15.4,9.3c-9.2,3.8-18.3,7.7-27.5,11.7
	c-2.2,1-4.4,2.1-6.5,3.2c-9.3,5.1-18.5,10.2-27.8,15.2c-2.4,1.3-4.9,2.3-7.5,3.1c-6.7,2-12.7,5.6-17.8,10.4c-1.5,1.4-3.2,2.7-4.8,4
	c-6.2-0.5-11.3-3.4-15.9-6.5c-7.4-5-15.5-7.9-24-10c-8-2-15.8-4.6-23.4-7.7C1848.5,990.4,1855.3,985.8,1862.5,981.7L1862.5,981.7z
	 M2017.5,508.5c-4.5,4.1-8.7,8.6-12.5,13.5c-3,3.7-6.2,7.4-9.2,11.2c-5.2,6.6-11.2,12.8-15,20.4c-3.3,6.4-7.6,12.3-12.7,17.5
	c-1.9,2-3.5,4.2-5.2,6.2c-1.3,1.7-2.8,3.2-4.3,4.6c-13.6,11.3-26.9,23-42.6,32.5c0-2.4,0.1-4.9,0.4-7.3c1-5,2.6-9.9,3.5-15
	c1.8-9.4,5.6-17.6,13-24.1c7-6.1,10.6-14.5,12.9-22.9c-0.7-3.2-2.4-4.7-5-5.1c-4.7,2.5-5,2.4-6.6,6.8c-2.4,6.4-6.6,11.5-11.2,16.3
	c-1.4,1.6-2.9,3.1-4.5,4.4c-2.3,2-4,4.5-4.9,7.4c-3.1,8.2-5,16.8-7,25.2c-1.2,5.6-2,11.3-2.6,17c-1,9-1.9,18-2.6,27
	c-0.5,7.8-0.3,15.7-1,23.5c-0.7,8.7-1.8,17.4-3.3,26c-1.1,6.5-1.2,13.2-3.8,19.5c-1.1,0.7-2,1.4-3.1,2c-6.1,3.3-11.8,7.3-17,11.9
	c-9.3,8.1-19.2,15.6-31.2,19.7c-6.6,2.2-12.3,6.3-17.5,11.1c-3.8,3.5-7.7,6.8-11.8,9.8c-2.9,2.3-6.1,4.2-9.6,5.5
	c-8.9-3.4-17.9-7.2-25.2-13.6c-6.5-5.7-14-9.4-21.2-13.9c-4.3-2.7-8.6-2.2-12.8,0.2c-3.9,2.3-7.2,5.5-9.6,9.4
	c-2.3,3.9-4.8,7.6-7.6,11.2c-6.6,8.5-11.7,17.6-13.7,28.2c-0.9,5.1-2.9,9.9-5.9,14.1c-6.1,8.4-10,17.8-14.7,27
	c-5.4,10.5-11.2,20.7-16.9,31c-1.4,2.7-3,5.3-4.5,7.8c-3.9,6.4-7.6,13-11.9,19.2c-3.4,5-7.5,9.5-13.3,11.9c-3.2,1.3-5.2,3.9-7.3,6.5
	c-2.9,3.9-6.1,7.5-9.7,10.7c-6.2,5.3-12.8,10-19.3,15c-2,1.5-4.3,1.9-6.8,2.2c-4.8,0.6-9.6,1.3-14.3,2.2c-4.1,0.9-8.4,0.9-12.6,0.1
	c-5-1-10-2-15.1-2.8c-4-0.6-7.8-2.3-11-4.8c-0.3-9.9,0.2-19.8,0.1-29.7c-0.2-10.3,0-20.5,0-30.8c0-9.9,0-19.9,0-29.2
	c2.8-4.2,5.2-7.7,7.4-11.2c2.5-4.1,5.1-8.2,7.2-12.5c1.1-2.1,1.7-4.5,1.8-6.9c0.2-8.1,0.5-16.3-1.5-24.3c-2.4-9.5-2.7-19.1-2.2-28.7
	c0.6-10.8,1.1-21.7,1.7-32.5c0.2-0.8,0.6-1.5,1-2.1c2.5-0.6,5.4-1.6,8.3-2c3-0.5,6-0.7,9-0.7c10.3,0,20.5,0,30.8,0.2
	c6.9,0.2,13.9-0.8,20.5-3c7.7-2.5,15.5-5,23.2-7.5c8.6-2.8,17.2-5.6,25.8-8.4c5.4-1.8,10.8-4,16.3-5.4c11.7-3,23.4-6,35.2-8.5
	c6-1.3,10-3.9,11.1-10.2c1.6-8.8,5.4-16.7,10-24.2c7.2-11.6,12.6-24,17.2-36.8c3-8.2,6.6-16.2,12.2-23.1c8.2-10,17.6-19.1,27.9-27.1
	c9.4-7.1,18.8-14.2,27.4-22.2c2.9-2.7,6.1-4.9,9.2-7.3c4-3.2,8.2-6.2,12.1-9.5c7.1-6.1,15.1-11.1,23.8-14.8
	c5.8-2.5,11.6-5.1,17.4-7.6c5-2.1,9.7-5,13.7-8.7c4.4-4.1,9.4-7.6,14.8-10.3c8.7-4.3,16.5-10.1,23.2-17.2c3.4-3.5,7-6.8,10.8-9.9
	c4.4-3.8,8.9-7.4,13.4-11.1c9.2,12.4,18.1,25,26.8,37.8C2009.3,495.9,2013.4,502.2,2017.5,508.5L2017.5,508.5z M1649,993.1
	c0,6.4-1.5,12.6-3.5,18.6c-0.9,2.2-2.1,4.3-3.7,6.2c-6.2,8.1-12.7,16.2-18.9,24.3c-2.1,2.7-4.2,5.1-8.2,6.1
	c-7.5-3.2-24.8-13.4-30.2-17.8c0.6-1,1.2-1.9,2-2.7c5.8-4.8,11.6-9.6,17.4-14.4c3.5-2.9,6.2-6.6,8.1-10.8c3.5-7.3,7.7-14.4,12.5-21
	c4.5-6.4,8.2-13.4,10.8-20.8c2.2-6.5,5.4-12.6,9.3-18.3c1.8-0.4,2.4,0.6,2.7,1.8c1.3,5.6,1.9,11.3,1.9,17
	C1649,972,1649,982.6,1649,993.1z M1293.3,1244.4c2,0.8,4,1.3,6.1,1.7c2.9,0.6,5.9,0.8,8,2.5c0.6,5.8-4.2,10.8-0.1,16.7
	c5.8,1.2,12.4,0.4,18,3.2c3.8,4.9,4.5,11.6,9.6,15.2c1,0.2,2,0.2,3,0.2c1.5-0.3,2.9-0.7,4.3-1.3c4.5-1.8,8.9-3.8,13.3-5.7
	c1.3-0.6,2.6-1.6,4.7-0.3l4.4,8.3c1.4,2.7,2.7,5.4,4.3,8c0.9,1.4,2.4,2.5,3.8,3.8l33.5-12.3c1.4,1.6,2.7,2.9,3.7,4.3
	c3.5,4.5,6.9,9.2,10.5,13.6c1.3,1.5,3.2,2.5,5,4c6.2-3.7,12.1-7.4,18.1-10.8c6.2-3.5,11.8-8.2,19.3-11c1,1.3,1.8,2.6,2.8,3.7
	c4.7,5.5,9.4,11,14.1,16.5c2.2,2.6,4.4,5,8.2,6.1c7.5-1.3,14.2-5.8,21.4-8.6c7.5-2.9,14.5-7.2,22.7-9.5c1,1.5,2,3.1,2.9,4.8
	c3.1,6.5,6.1,13.1,9.1,19.7c2.3,4.9,4.7,9.7,8.6,13.5c1.3,0.2,2.5,0.4,3.8,0.5c8.2-0.1,16.4,0.4,24.4-0.6c9.3-1.1,18.7-0.6,28-1.1
	c1.4-0.1,2.8,0.6,4.2,1c0.7,12.1,1.4,23.9,2,35.6c0.2,4.2,0.5,8.4,3,12.5c1.6,0.7,3.2,1.3,4.8,1.7c11.5,2.5,23,4.9,34.5,7.2
	c2.6,0.5,5.3,0.8,7.7,2.7c0.2,1.2,0.2,2.3,0.2,3.5c-2.1,13.4-4.2,26.8-6.2,40.2c-0.5,3.2-1.2,6.6,0.9,9.7c1.9,1.5,4.3,2.2,6.8,1.9
	c7.5-0.3,15-0.7,22.6-1.2c4.2-0.3,8.3-1.2,12.6,0.4c0.7,1.7,1.2,3.4,1.7,5.2c0.8,3.8,1.4,7.7,2.2,11.5c0.9,4.1,2,8.2,3.1,12.2
	c0.6,2.9,2.9,5.2,5.9,5.7c8.3-2.1,16.6-5.8,25.1-8.7s16.7-6.7,25.8-9c5.4,14.4,7,29.6,12.9,42.7c4.4,3,7.7,1.7,10.8-0.4
	c6.2-4.3,12.4-8.6,18.6-13l12.7-8.9c2.3,2.1,4.3,3.9,6.2,5.8c6.9,6.8,13.7,13.6,20.7,20.3c5.8,5.5,8.1,5.4,13.7,0.2
	c1.5-1.4,3-3,4.5-4.5c6-6,12-11.9,18-17.8c1.2-1.2,2.4-2.8,5.1-2.4c0.9,1,2.1,2.2,3.2,3.6c5.5,7.2,11,14.4,16.4,21.6
	c1.9,2.4,3.9,4.7,7.8,4.9c2.3-1.1,5-2.3,7.7-3.7c6.4-3.4,12.8-6.9,19.2-10.2c1.2-0.7,2.5-1.8,4.5-0.3c1.3,5.4,2.7,11.3,4.2,17.1
	s2.2,11.8,6.2,17.2c9.2,1.4,18.1-3.1,28.1-2.6c0.2,4.5,0,9-0.7,13.5c-0.5,3-0.6,6-0.5,9c0.1,2.7,1.7,4.4,4.2,5.3
	c0.9,0.3,1.7,0.5,2.6,0.6c5.4,0.7,10.8,1.4,16.1,2.1c2.3,0.3,4.8,0.4,7,2.6c-1.2,4.4-2.5,9-3.7,13.6s-3.5,9-2.1,14.2
	c7.2,4.3,15.9,5.6,22.8,10.8c-1.4,9.8-8.3,17.7-8.3,27.9c6.5,6.3,14.7,9.8,22.3,14.2c-3.2,5.6-6.5,11.1-9.8,16.6
	c-5.9-2.6-13-3.1-18.7-7.1c-0.1-7.2,3-13.9,1.4-20.8c-3.2-6.8-11.4-7.7-16-13.2c0-5.1,0-10.2,0-15.3c0-3.9-1.3-7.1-5.5-9.4
	c-3.2-0.1-7.1-0.2-11-0.4c-1.8-0.2-3.7-0.6-5.5-1c0-3.1,0-5.8,0-8.4c0-4.2,0.2-8.5,0.1-12.7c0-3.6-1.5-6.4-5.7-8
	c-1.8,0.4-4.2,1-6.5,1.5c-2.6,0.6-5,2.4-8.4,0.9c-0.4-1.7-0.9-3.6-1.2-5.6c-0.8-4.8-1.3-9.6-2.2-14.3c-0.3-2.7-2.8-4.6-5.4-4.2
	c-0.2,0-0.4,0.1-0.6,0.1c-3.2,0.8-6.4,1.9-9.5,2.8l-12.2,3.6c-1.8-2.5-3.4-4.7-4.9-6.9c-2.5-3.8-4.9-7.7-7.6-11.3
	c-1-1.3-2.7-2.1-4.7-3.6c-10.8,6.4-18.7,16-28.6,23.7c-1.6-1.4-2.9-2.7-4.2-3.9c-6.9-6.8-13.8-13.5-20.6-20.3
	c-1.7-1.7-3.2-3.6-6.4-3.8c-4.5,1.7-8.1,5.5-12,8.7c-4.2,3.4-8.1,7.2-12.2,10.8c-3.8,3.3-7.3,7-11.4,10c-0.9-0.5-1.8-1.1-2.6-1.8
	c-8.2-7.5-16.4-15.1-24.7-22.7c-2.7-2.4-5.5-4.7-8.2-7.2c-3.1-2.8-6.5-3-10-1.3c-3,1.4-6,2.9-8.9,4.4c-8.6,4.5-17,9.1-25.6,13.6
	c-1.7,0.7-3.4,1.3-5.2,1.7c-5.2-8.6-9.4-17.2-14.1-25.7s-8.6-17.2-14-24.8c-5.1-1.6-9.5-0.9-13.9,0.3c-8.2,2.2-16.3,4.4-24.5,6.6
	c-1.7,0.4-3.5,0.8-5.1,1.1c-2.3-2.7-2.5-5.8-3.3-8.7c-2.7-9.9-5.4-19.8-8-29.7c-1.3-4.8-3.7-7.8-9-8.7c-9.2-1.5-18.3-3.5-27.5-5.3
	c-3.2-0.6-6.5-1.1-9.5-3.2c0-2.5,0-4.9,0-7.3c0.2-11.2,0.4-22.3,0.6-33.5c0.1-1.5,0.2-3,0.1-4.5c-0.1-3.2-2.7-5.7-5.9-5.8
	c-2.4-0.2-4.8-0.2-7.2-0.1c-10,0.2-19.9,0.3-29.9,0.5c-2.1,0-4.1-0.1-7.3-0.3c-0.5-4.4-1-8-1.3-11.5c-0.8-9.3-1.4-18.7-2.2-28
	c-0.1-1.5-0.5-3-1-4.4c-0.7-2.1-2.7-3.5-4.8-3.4c-2.1,0-4.2,0.3-6.2,0.8c-4.1,1-8.1,2.2-12.2,3.4c-5.8,1.6-11.6,3.3-17.6,5
	c-9.2-10.1-16.5-21.6-25.4-32c-12.5,4-22.3,12.5-34,17.5c-3.1-2.9-5.9-5.5-8.7-8.2c-4.3-4.2-8.7-8.4-13-12.6c-2.1-2.3-5.5-3-8.3-1.8
	c-1.7,0.6-3.4,1.2-5.1,1.9c-6.1,2.7-12.1,5.5-18.2,8.2c-1.6,0.6-3.3,1.2-5,1.6c-1.1-1.2-1.9-2-2.7-2.9c-4.4-5.3-8.8-10.7-13.2-16.1
	c-1.6-1.9-3.2-3.6-5.8-4.1c-8.8,0.4-16.2,6.2-25.1,6.9c-4.9-6.9-7.4-14.7-11.4-21.5c-7.6-2.4-14.6,2.3-21.7,1.1
	c-3.3-6.1-3-13.2-6.8-18.8c-3.2-1.2-6.3-2.4-9.3-3.6c-3.3-1.3-7.3-0.9-10-3.8c-1.8-5.7,2.6-11.2,0.2-17.6c-5.7-4.4-12.6-6.8-20-8.1
	c4.3-5.1,8.3-10.3,12.1-15.7c4.9,2.2,10.3,1.7,14.6,5.2c-0.6,2.5-1.2,4.7-1.8,7C1288.1,1239.7,1289.4,1242.6,1293.3,1244.4
	L1293.3,1244.4z M1199.6,1359.4c3.6-2.4,8.3-2.3,11.8,0.3c3.8,2.7,5.5,7.3,4.5,11.8c-1.2,4.1-4.6,7.2-8.8,7.9
	c-3.1,0.5-6.4,0-9.2-1.4c-1.2-2.2-2.2-4.6-3-7C1193.6,1366.4,1195.6,1361.7,1199.6,1359.4L1199.6,1359.4z M1188.8,1344.3
	c-4,0.1-7-3.3-6.9-7.7c0.1-4.8,3.3-8.2,7.6-8.1c4,0.1,7,3.3,7,7.7C1196.6,1340.5,1193.2,1344.1,1188.8,1344.3L1188.8,1344.3z
	 M1195.5,1309.4c-2.7-1.1-3.1-2.8-3-4.6c0.1-1.4,0.6-2.8,1.4-4.1c0.8-1.3,2.6-1.8,3.9-1c1,0.6,1.7,1.5,2,2.6
	C1200.4,1305.2,1199.6,1306.2,1195.5,1309.4L1195.5,1309.4z M1089.7,1325.7c-2.4,3.2-4,3.6-8.3,1.6c-0.5-3,0.8-5.1,3.2-6.7
	c1.5-1.1,3.5-0.9,4.9,0.2C1090.9,1322,1091,1324,1089.7,1325.7L1089.7,1325.7z M979.2,1289c-2.9,2.3-5.8,2.3-8.6,0.3
	c-1.1-2.6,0.1-4.2,2-5.3c2.1-1.3,4.7-1.1,6.6,0.4c1.3,1.1,1.4,3,0.4,4.2C979.5,1288.8,979.3,1288.9,979.2,1289z M954,1246
	c-80.7-80.6-80.8-211.3-0.2-291.9c38.8-38.8,91.4-60.6,146.2-60.6v413C1045.2,1306.6,992.7,1284.8,954,1246z M904.7,982.7
	c0.2-2.2,0.8-4.1,3.4-4.5c3.9,2.7,4.8,5,3.5,8.6c-0.6,1.6-3,2.2-4.5,1.2C905.1,986.8,904.6,984.8,904.7,982.7z M900.4,959.6
	c-2.9-0.2-5-2-6.5-4.8c-1.3-2.5-1-5.4,0.7-7.7c1.6-2.6,4.7-4,7.8-3.4c0.3,0,0.6,0.1,0.9,0.2c3,1.1,5.5,6.2,4.7,9.8
	C907.2,957.2,904,959.7,900.4,959.6z M917.9,970.6c-1.2-1.2-2.7-2.2-4-3.4c1.5-2.7,3.1-4.9,4.2-7.3c3.3-7.4,1.5-17-4.4-21.5
	c-4.1-3.1-8.5-5.7-14-5.8c-1.5,0-2.9-0.2-4.7-0.3c-0.4-3-0.7-5.7-1.2-8.3c-1.9-9-8.5-14.5-17.8-15c-1.2-0.1-2.4-0.2-3.6-0.3
	c-4.9-0.6-9.7,0.8-13.6,3.8c-0.9,0.7-1.8,1.6-3.3,0.7c-0.3-0.7-0.7-1.4-1.1-2.3s-0.5-1.8-0.8-2.6c-3.8-8-8.7-14.6-18.8-14.4
	c-0.6,0-1.2-0.1-1.8-0.3c-4.7-1.4-9-0.1-13.2,1.7c-2.2,1-4.2,2.3-6.6,3.6c-1.6-2.5-3.4-4.9-5.3-7.2c-7.2-7.9-15.5-13.4-27-10.4
	c-1.2,0.2-2.4,0.4-3.6,0.5c-5.8,0.6-11.2,3.1-15.3,7.2c-1.2,1.1-2.5,2.2-3.8,3.3c0.2-2.2,0.6-4.4,1.2-6.6
	c5.4-17.3,10.8-34.5,16.4-51.8c11.6-36.2,23.2-72.4,34.9-108.5c12.8-39.6,25.5-79.3,38.3-118.9c15.8-49.1,31.6-98.2,47.3-147.3
	c9.8-30.4,19.6-60.9,29.4-91.3c11.5-35.6,22.9-71.2,34.4-106.8c11.6-36.2,23.3-72.4,35-108.6c13.9-43.1,27.8-86.2,41.6-129.2
	c1.4-4.3,2.7-8.6,4-13c0,0,0-0.1,0-0.1c10.9-0.6,21.8-1,32.8-1.3c-1.3,11.7-2.5,23.4-3.7,35.2c-1.4,14.1-2.8,28.2-4.3,42.3
	c-1.5,14.4-3.2,28.8-4.7,43.2c-1.4,13.8-2.7,27.6-4.1,41.4c-1.6,15-3.4,29.9-4.9,44.9c-1.5,14.1-2.7,28.2-4.1,42.3
	c-0.7,6.6-1.5,13.2-2.2,19.8c-1,8.7-1.9,17.4-2.8,26.1c-0.8,8.1-1.5,16.2-2.3,24.3c-1.6,14.7-3.4,29.4-4.9,44
	c-1.5,14.4-2.7,28.8-4.1,43.2c-0.6,6.3-1.3,12.6-2,18.9c-1,9.3-2,18.6-3.1,27.9c-0.6,5.7-1.3,11.4-1.8,17.1
	c-0.8,8.4-1.5,16.8-2.4,25.2c-1.6,15.6-3.4,31.2-5,46.8c-0.9,8.4-1.6,16.8-2.5,25.2c-1.4,13.2-3,26.3-4.4,39.5
	c-1.5,14.4-2.8,28.8-4.2,43.2c-0.6,6-1.2,12-1.8,18c-1.6,14.4-3.3,28.8-4.8,43.1c-1.5,14.1-2.7,28.2-4.1,42.3
	c-0.7,6.9-1.5,13.8-2.3,20.7c-1,9-1.9,18-2.9,27c-0.9,8.1-1.7,16.2-2.5,24.3c-0.9,9-1.9,18-2.8,27c-0.8,8.4-1.5,16.8-2.5,25.2
	c-1.3,12-2.7,24.1-4,36.2c-21.7,15-40.5,33.8-55.5,55.6C921.8,975.5,920.1,972.7,917.9,970.6L917.9,970.6z M881.2,935.4
	c-2.8,4.1-8.1,5.9-12.8,4.2c-4.7-1.7-7.6-6.4-7.1-11.3c0.5-3.7,2.1-6.9,5.7-8.6c1.9-0.9,3.9-1.4,6.4-2.2c2.2,1.5,4.4,3,6.4,4.7
	C883.4,925.7,884,931.2,881.2,935.4L881.2,935.4z M842.8,923.8c-2.5,5-7.8,8.4-15,7.4c-6.2-0.7-11.1-5.6-11.8-11.8
	c-1.1-6.4,2.4-12.8,8.3-15.4c0.8-0.4,1.7-0.6,2.5-0.8c1.4-0.4,2.9-0.6,3.8-0.8c3.9,0.8,6.5,2.9,9,5
	C844.5,911.5,845.8,918.3,842.8,923.8L842.8,923.8z M802.8,910.6c-0.4,1.7-0.7,3.5-1.3,5.2c-2.4,7.4-9.2,12.5-16.9,12.8
	c-8.1,0.3-15.8-4.4-18.9-11.5c-3.5-8.1-0.7-17.2,6.5-22.4c7.6-5.6,14.9-3.9,23.3,1.9C800,899.5,802,904.3,802.8,910.6L802.8,910.6z
	 M701,881.4c-0.8-2.3-1.6-4.5-2.2-6.7c-1.7-6.5-5.3-12.3-10.3-16.8c-9.5-8.5-20.1-13.3-33.1-8.7c-2,0.7-4,1.2-6.1,1.7
	c-1,0.3-2.2,1.2-3.1-0.2c0.6-2.7,1.2-5.3,1.7-7.9c3-14.2-1.5-26.2-11.2-36.4c-1.4-1.6-3.1-2.9-5.1-3.7c-6.2-2.2-11.8-6.2-18.5-7.2
	c-0.5-0.1-0.8-0.8-1.5-1.5c1.8-2.9,3.8-5.8,5.6-8.8c7.4-12.8,7.2-25.9,1.1-39c-1.5-3.2-3.6-6.6-6.3-8.7c-5.1-3.7-10.4-7-16-10
	c-2.3-1.3-5-1.8-8.4-3c16.8-30.1,33.7-59.7,50.4-89.3s33.6-59.3,50.4-89s33.5-59.4,50.3-89.1s33.6-59.3,50.5-89
	c17-29.9,34-59.9,50.9-89.8c16.8-29.7,33.6-59.4,50.3-89.1c16.8-29.7,33.4-59.5,50.4-89c19.3-33.5,41.6-73.2,48-86.2
	c13.4-1.3,26.8-2.4,40.3-3.3c-0.5,1.4-1,2.7-1.4,4.1c-5.7,17.5-11.3,35-17,52.5c-10.4,32.4-20.9,64.8-31.3,97.3
	c-13.9,43.1-27.8,86.1-41.8,129.2c-11.3,35-22.7,70-34,105c-10.2,31.9-20.3,63.8-30.5,95.7c-12.7,39.3-25.3,78.7-38,118
	C825,643.9,815,675.2,805,706.5c-6.6,20.4-13.3,40.7-19.9,61.1c-11.8,36.5-23.5,72.9-35.2,109.4c-0.5,1.6-0.8,3.6-2.8,4.3
	C730.9,872.8,727.8,869.7,701,881.4z M745.3,913.7c-3.3,11.3-14.8,18.6-25.7,16.3c-12.2-2.3-20.3-13.9-18.2-26.1
	c1.5-8.5,6.2-14.2,13.7-17.8c2-0.8,4.1-1.5,6.2-2c3.1,0.7,5.5,1.1,7.8,1.7c10.2,2.9,16.5,10.2,17.3,20.8
	C746.5,909,746.1,911.4,745.3,913.7L745.3,913.7z M465.1,633.7c-5.1-0.8-10.3-0.6-15.3,0.8c-9.8,2.4-18.4,8.1-24.5,16.2
	c-1,1.3-1.4,3.3-3.5,3.5c-1.4-3.1-2.7-6.1-4.1-9.1c-3.4-7-8.3-12.5-15.9-15.3c-5-1.9-9.9-4.2-15.3-6.5c0.7-1.3,1.6-2.5,2.5-3.7
	c10.4-11.7,20.9-23.5,31.3-35.2c11.9-13.3,23.8-26.6,35.6-39.9c17.4-19.6,34.8-39.3,52.2-59c10.4-11.7,20.8-23.5,31.2-35.2
	l54.7-61.6c10-11.3,20-22.6,30.1-33.9c17.6-19.9,35.2-39.8,52.8-59.7c10.8-12.2,21.7-24.4,32.5-36.6c15.8-17.9,31.6-35.7,47.3-53.6
	c16.8-19,33.7-37.9,50.5-56.9c20.4-23,40.8-46.1,61.1-69.3c15.8-17.9,31.7-35.6,47.5-53.5c0.5-0.5,1-1,1.4-1.5
	c19.8-3.3,39.7-6.1,59.7-8.4c-0.8,1.3-1.5,2.5-2.3,3.8c-11.3,20-22.6,39.9-33.9,59.9c-21.8,38.3-43.5,76.7-65.3,115
	s-43.5,76.6-65.1,115c-19.8,34.9-39.6,69.8-59.5,104.7c-14,24.7-28,49.4-41.9,74.1c-29.2,51.5-58.4,103-87.6,154.4
	c-15,26.5-30.1,53-45.1,79.5c-0.5,1.1-1.2,2.1-2,3c-1.1,1.1-2.5,1.7-3.9,0.3c-0.1-0.3-0.1-0.6-0.1-0.9c0.4-1.8,0.9-3.5,1.4-5.2
	c3.5-12.1,1.2-23.3-5.5-33.8c-4.3-6.8-10.1-12.3-17.8-14.7c-14.4-4.5-28.6-4.6-41.4,5.1c-1,0.7-2,1.4-3.6,0.2
	c-0.1-1.4-0.3-3.2-0.5-5C500.4,649.5,484.3,636.8,465.1,633.7L465.1,633.7z M491.6,676.1c0.1,14.4-11.9,31.6-31.9,31.3
	c-18.6-0.2-31.4-15.4-31.3-31.9c0.1-17.1,14.4-31.1,32-31.3C478.1,643.1,491.5,660.2,491.6,676.1L491.6,676.1z M404,680.6
	c-9.2,10.9-25.5,11.5-34.6,6.1c-9.3-5.5-16.9-16.9-12.8-31.8c3.4-12.4,15.5-22.4,33.3-19.2c2.2,0.5,4.4,1.2,6.6,2c3,3,5.3,5,7.3,7.2
	C412.8,654.6,412.4,670.8,404,680.6L404,680.6z M532.2,677.2c11.5-0.1,29.8,11.2,29.7,30.7c-0.1,17.8-14.8,30-29.3,29.2
	c-16,1.1-30.8-13-30.4-30C502.7,690.5,515.6,677.3,532.2,677.2L532.2,677.2z M558.6,747.4c8.8-12.1,23.5-14.3,32.9-10.9
	c3.1,1.1,6.1,2.5,8.9,3.7c2.4,3.6,4.7,6.8,6.6,10.2c10.3,18-1,36.3-14.7,41.1c-12.5,4.4-25.4,1-33.8-10.2
	C551,771.2,551.5,757.1,558.6,747.4L558.6,747.4z M596.7,807.9c7.9-3.3,15-3.2,25.9,0.7c2.7,2.9,5.3,5.4,7.6,8.2
	c13,16,5.8,40.6-13.9,46c-15.6,4.3-30.1-1.9-36.3-18.4C574.9,830.5,582.4,813.9,596.7,807.9L596.7,807.9z M636.5,881.9
	c1.1-9.4,6.1-16.1,14.1-20.8c2.2-1.1,4.4-2,6.7-2.8c3.9,0.6,6.8,1.1,9.8,1.5c10.8,1.7,20.8,10.5,21.5,25.4
	c0.6,13-11.1,24.7-24.2,25.7c-14.4,1-26.9-9.8-27.9-24.2C636.4,885.2,636.4,883.5,636.5,881.9L636.5,881.9z M1281.6,23.5
	c10,11.4,20.1,22.7,30.2,34c11.2,12.7,22.5,25.3,33.7,37.9c16.6,18.8,33.2,37.5,49.8,56.3c11.8,13.3,23.7,26.6,35.5,39.9
	c17.2,19.4,34.4,38.9,51.6,58.3c11,12.4,22.1,24.8,33.1,37.2c17.4,19.6,34.8,39.3,52.2,59c10.4,11.8,20.8,23.5,31.2,35.2
	c17.2,19.4,34.4,38.9,51.6,58.3c13.6,15.4,27.2,30.7,40.8,46.1c0.7,1,1.3,2.1,1.8,3.3c-1.3,1-2.6,1.9-3.9,2.7
	c-4.3,2.3-8.5,4.5-12.9,6.6c-14.4,6.9-28.6,14.2-41.9,23.3c-4.8,3.2-9.9,5.8-15.2,7.9c-12.3,5-25.3,8.1-37.2,14
	c-0.5,0.3-1.1,0.5-1.7,0.6c-8.3,1.3-16.6,3.1-25,3.9c-7.5,0.7-15,1.5-22.3,3.5c-1.9,0.5-4.1,0.1-6.4,0.1
	c-20.7-36.4-41.2-72.7-61.7-108.8c-20.7-36.5-41.4-73-62.1-109.5l-61.6-108.7c-20.7-36.5-41.4-73-62.1-109.5
	c-19-33.4-37.8-66.9-56.9-100C1241.9,17.5,1261.8,20.2,1281.6,23.5L1281.6,23.5z M1932.3,398c1.1,0,2.2-0.1,3.3-0.2
	c12.3,14.6,24.2,29.6,35.7,44.8l-1.2,1.1c-3.8,3.4-7.7,6.8-11.5,10.2c-4.5,4-9.2,7.8-13.4,12.1c-5.5,5.7-11.8,10.3-18.9,13.8
	c-5.5,2.6-10.5,5.9-15,10c-4.5,4.1-9.7,7.3-15.3,9.6c-6.7,2.9-13.3,5.7-19.9,8.8c-3.9,1.6-7.6,3.6-11.1,6
	c-10.2,7.5-20.1,15.4-30.1,23.1c-0.2,0.2-0.4,0.4-0.7,0.6c-6.5,5.4-12.7,11.1-19.6,16.1c-13.2,9.6-25.4,20.5-36.3,32.7
	c-4.4,4.6-8,9.9-10.8,15.5c-2.6,5.5-5.3,10.9-7.2,16.6c-3.9,12.2-9.8,23.4-16.2,34.3c-3.9,6.8-7.1,14-9.4,21.5
	c-0.5,1.7-1.2,3.3-1.7,4.5c-0.7,0.4-1.4,0.7-2.2,1c-18.2,4.4-36.4,8.5-54,15c-15.6,5.8-31.4,10.6-47.2,15.7
	c-5.5,1.8-11.2,2.6-17,2.5c-8.8-0.1-17.5-0.1-26.3,0c-9.8,0-19.1,2.2-28.4,5.2c-3.8,1.2-7.1,3.3-9.8,6.3c-2,2.3-3.9,4.6-5.7,7
	c-6.8,9.2-13.7,18.4-20.4,27.7c-8.5,11.7-17,23.4-25.3,35.3c-12.9,18.7-26.6,36.6-45.1,50.2c-0.7,0.5-1.4,1.2-2.1,1.8
	c-13.5,11.7-29,20.8-45.8,26.9c-12.4,4.6-22.9,12-33.8,19c-1,0.7-1.9,1.5-2.6,2.5c-5.4,7-12.4,12.3-19.4,17.6
	c-1.2,0.9-2.4,1.9-3.5,2.9c-7,6.2-14,12.5-21,18.6c-3,2.6-6,5.1-9.2,7.4c-1.1,0.7-2.4,1.1-3.7,1.4c1.9-2.9,3.7-5.8,5.8-8.6
	c5.3-7,11.3-13.3,15.7-21c2.4-4.2,4.7-8.6,5.3-13.4c1.3-9.8,2.5-19.7,3.2-29.6c0.3-5.7,1.3-11.4,2.8-16.9c1.8-6.4,3.3-12.8,4.9-19.3
	c1.1-4.4,2-8.8,3.1-13.2c2.6-10.8,5.2-21.7,8-32.5c1.6-7.1,2.3-14.3,2-21.5c-0.1-6.3-0.2-12.7-0.2-19c0-1.5,0.2-2.9,0.4-4.8
	c3-1,5.8-2.1,8.6-3c8.6-2.8,17-6.1,25.3-9.9c16.4-7.8,31.3-18.2,46.8-27.5c7.2-4.5,13.3-10.5,17.8-17.7c7.5-11.4,16.3-21.7,25.2-32
	c3.4-3.8,6.5-7.9,9.3-12.2c6-10.1,12.4-20,17-30.9c0.7-1.5,1-3.4,3.5-4.1c0.7,3.3,1.3,6.5,2,9.7c0.8,3.8,1.2,7.8,2.7,11.4
	c2.5,6.4,5.1,13,8.7,18.8c3.8,6.1,4.2,11.8,1.1,17.9c-2.4,4.9-5,9.6-7.6,14.4c-6.3,11.4-13.8,22-22.3,31.8
	c-5.7,6.6-10.6,13.9-15.6,21.1c-4.5,6.4-8.5,13.2-12.9,19.7c-6.1,9-10.2,19.1-14.8,28.2c0.1,0.8,0.3,1.7,0.6,2.5
	c1.9,3.6,4.2,4.5,7.2,2.6c1.5-0.9,2.8-2.2,3.8-3.7c1.3-2.1,2.4-4.2,3.4-6.4c2.7-5.1,5-10.4,8-15.2c5.8-9.2,11.8-18.2,18-27.2
	c3.6-5.2,7.4-10.3,11.6-15.1c15.4-17.8,27.5-37.4,34.9-59.8c1.7-4.5,4-8.8,6.9-12.7c5-7.2,10.3-14.1,15.6-21.1
	c1.1-1.3,2.4-2.5,3.8-3.5c5.7,3.1,11,7,15.7,11.4c2.8,2.8,6.7,4.3,10.7,4.2c4.5,0,9,0,13.5-1c10.6-2.5,21.6-2.9,32.3-1
	c5,0.9,10.2,0.3,15.3,0.2c2.2-0.1,4-1.8,4.4-3.9c0.5-2.5-0.7-5-3-6c-0.8-0.4-1.7-0.7-2.6-0.8c-7.9,0.2-15.6-1.2-23.4-1.7
	c-8.7-0.6-17.5,0.2-26,2.2c-4.1,1-8.5,1.1-12.6,0.3l-15-11.2c1.3-0.4,2.7-0.6,4.1-0.7c6.2,0.5,11.9-1.2,17.7-3.2
	c6.8-2.3,13.8-4.4,20.8-6.1c15.2-3.8,28.7-10.8,41.1-20.3c1.2-0.9,2.3-1.9,3.3-3.1c1.7-2.2,1.6-5.4-0.4-7.4
	c-1.8-1.8-4.6-2.1-6.6-0.6c-1.5,1-2.8,2.2-4.3,3.3c-10.2,8-22,13.9-34.6,17.3c-7.9,2-15.6,4.6-23.3,7.2c-3.9,1.5-8.1,2.3-12.3,2.3
	c-4.8,0-9.7,0.7-14.2,2.3c-3.6,0.9-6.5,3.4-8.2,6.7c-5.1,10.8-13,19.5-20.8,28.3c-0.9,0.9-1.9,1.8-2.9,2.6
	c-4.9-7.5-8.8-14.9-10.7-23.1c-1.4-6.2-2.4-12.4-4-18.6c-2.9-11.5-1.2-22.7,2.3-33.8c0.2-0.5,0.8-0.8,1.3-1.3
	c3.7-0.9,7.4-2,11.2-2.8c4.1-0.8,8.3-1.3,12.5-1.9c4.8-0.6,9.6-1.2,14.3-1.8c4.2-0.6,8.4-1.1,12.5-1.9c3-0.5,5.9-1.3,8.7-2.3
	c8-2.8,15.8-6,23.8-8.7c12.4-4.2,24.2-9.2,34.9-16.9c7.2-5,14.8-9.3,22.8-13c6-2.9,12-5.8,17.9-8.8c10-4.9,19.5-11,28-18.3
	c6.4-5.5,13.2-10.5,20.3-15.1c2.3-1.5,4.4-3.1,6.7-4.7c13.3-9.4,26.6-18.9,39.9-28.2c3.5-2.3,7.2-4.4,11-6.2c8.1-4,16.2-8,24.5-11.6
	c12.7-5.5,25.7-10.3,39.5-12.8c9.5-1.7,19-3.6,28.4-5.5C1900.5,400.8,1916.2,397.8,1932.3,398z M1516.1,556.1
	c-1.1,6.1-1.8,11.8-3.1,17.4c-1.3,5.9-3.1,11.6-5.2,17.3c-2.4,6.2-5.4,12.1-8.4,18.1c-7,14.1-14.5,27.9-25.3,39.5
	c-8.6,9.3-16.4,19.3-23.5,29.9c-4,6.1-9.2,11.3-15.3,15.2c-11,6.9-22.1,13.6-33.2,20.3c-1.2,0.8-2.6,1.6-4.8,0.6
	c-2.5-2.9-3.1-7.2-4.4-11.1c-6.5-20.1-12.8-40.3-19.2-60.4c-5.1-15.8-10.4-31.5-15.5-47.3c-12.6-39-25-78.1-37.5-117.2
	c-9.8-30.4-19.7-60.8-29.5-91.3c-12.9-40.2-25.8-80.4-38.7-120.6c-12-37.3-24-74.7-36.1-112c-9.5-29.3-18.9-58.6-28.5-87.8
	c-6-18.6-12-37.2-18.1-55.9c13.2,0.8,26.4,1.9,39.5,3.2C1311.7,195.1,1413.9,375.8,1516.1,556.1L1516.1,556.1z M1160.1,15.6
	c6.2,19.5,12.5,39.1,18.8,58.6c15.3,47.7,30.7,95.3,46,143c17.3,53.7,34.5,107.4,51.7,161.1c11.3,35,22.5,70.1,33.9,105.1
	c15.9,49.4,31.8,98.8,47.6,148.2c9.1,28.1,18.1,56.3,27.2,84.4c0.5,1.7,0.8,3.5,1.1,5.3c-5.7,3.7-11.9,5.3-17.9,7.2
	c-7.2,2.4-14.1,5.3-20.8,8.7c-5,2.4-7.8,6-9.8,11.1c-5.4,13.5-12,26.4-19.9,38.6c-13.5,20.8-28.8,40.2-44.9,59
	c-4.2,4.7-8,9.8-11.3,15.2c-6,10.1-13.2,19.5-21.5,27.9c-5.8,6.1-11.5,12.4-17.2,18.6c-0.7,0.8-1.2,2.1-2.8,1.6
	c-1.5-3.3-1.7-6.9-2-10.5c-0.2-2.4-0.3-4.8-0.5-7.2c-1.1-10.8-2.2-21.6-3.3-32.4c-0.8-7.8-1.6-15.6-2.5-23.4
	c-1.5-13.2-3-26.4-4.4-39.5c-0.9-8.4-1.5-16.8-2.3-25.2c-0.6-6.3-1.3-12.6-2-18.9c-0.9-8.4-2.1-16.8-2.9-25.2
	c-1.5-14.7-2.7-29.4-4.2-44.1c-1.7-16.8-3.6-33.6-5.3-50.4c-0.7-6.6-1.3-13.2-2-19.8c-1.7-16.8-3.5-33.6-5.2-50.4
	c-0.2-1.5-0.4-3-0.6-4.5c-0.9-8.4-1.9-16.8-2.8-25.2c-0.8-8.1-1.5-16.2-2.4-24.3c-1.6-15-3.2-30-4.8-45c-0.8-8.1-1.5-16.2-2.4-24.3
	c-1.5-14.4-3.3-28.8-4.8-43.1c-1.5-14.7-2.8-29.4-4.3-44.1c-1.5-14.1-3.2-28.1-4.7-42.2c-1.5-14.4-2.8-28.8-4.2-43.2
	c-0.7-6.6-1.4-13.2-2.1-19.8c-1.5-13.5-3.1-26.9-4.5-40.4c-1.6-15-2.9-30-4.3-45c-0.6-6-1.3-12-1.9-18c-1.7-15.3-3.4-30.6-5-45.9
	c-1.3-12.9-2.5-25.8-3.9-38.7c-1.7-16.2-3.4-32.4-5.2-48.6c0-0.4-0.1-0.7-0.2-1c11,0.3,21.9,0.7,32.8,1.2
	C1159,11.9,1159.5,13.8,1160.1,15.6L1160.1,15.6z M1228.9,917.5c8.3-8.8,16.4-17.7,24.7-26.5c5.6-5.9,10.6-12.4,15-19.3
	c3.8-5.8,7.8-11.5,12.1-16.9c8.6-10.9,17.6-21.5,26.2-32.3c16.1-20,29.6-42,40.3-65.3c0.7-1.5,1.5-3.1,3-6.3
	c0.1,11.7,1.1,21.6-1.2,31.5c-1.7,7-3.1,14.1-4.8,21.2c-2.3,9.1-4.8,18-7.2,27.1c-1.9,7.3-3.8,14.6-5.6,21.9
	c-1.1,4.7-2.6,9.4-2.8,14.2c-0.2,7.9-1.1,15.6-1.8,23.4c-0.6,8.5-3.7,16.6-8.9,23.3c-9.6,12.4-19.2,24.8-30.6,35.7
	c-2.7,2.5-5.2,5-7.6,7.8c-3.4,3.8-6.7,7.7-9.7,11.8c-13.5-17.4-29.5-32.7-47.6-45.3C1225.2,921,1228.1,918.3,1228.9,917.5
	L1228.9,917.5z M1279.8,982c6.9-7.9,15.4-14,24.1-19.8c10.7-7.3,21.3-14.8,30.9-23.6c7.7-7.2,16.1-13.7,24.1-20.5
	c4.3-3.7,8.7-7.5,12.7-11.6c2.3-2.4,4.9-4.5,7.7-6.2c3.2-1.8,6.2-3.7,9.2-5.8c4.9-3.5,10.4-6.2,16.1-8.2
	c15.6-5.2,29.7-13.3,43.4-22.3c1.8-1.2,3.4-2.5,5.1-3.8c13.2-10.1,25.6-21,36.1-34.1c5.7-7.1,11.7-13.9,16.5-21.5
	c13.2-20.6,28.6-39.6,42.8-59.5c0.6-0.8,1.2-2.1,3.2-1c-0.3,3.7-0.8,7.5-1,11.4c-0.5,9.9-1.2,19.8,0.9,29.7
	c1.5,7.1,2.3,14.3,3.2,21.4c0.4,3.6,0.4,7.3-1.6,10.6c-5.1,8.5-9.9,17.3-17,24.5c-10.2,10.3-20.4,20.6-30.6,30.8
	c-3.2,3.2-6.6,6.2-10.1,9c-6.4,5.1-12.3,10.7-17.8,16.7c-5.4,5.7-9.5,12.5-12.1,20c-2.1,6.3-4,12.6-5.9,19c-1,3.5-2,7-4.6,9.7
	c-0.6,0.7-1,1.5-1.3,2.3c-1.6,3.9,1.3,7.4,5.5,6.9c2.4-0.3,4.6-1.5,6.2-3.3c2.2-2.5,3.7-5.5,4.6-8.7c1.9-6,3.7-12.1,5.6-18.2
	c2.6-8.2,6.5-15.6,12.7-21.7c4.1-4,8.4-7.8,12.7-11.6c5.4-4.8,11-9.4,16.2-14.4c6.1-5.9,11.7-12.2,17.6-18.2c1-1,2.1-1.8,3.4-2.9
	c1.2,8.7,0.8,66.3-0.4,77.1c-9.3,6-19,12-29.1,17.4c-0.8,0.4-1.7,0.7-2.6,0.9c-10.8,3.9-21.1,9.1-30.6,15.5
	c-8.1,5.4-16.4,9.9-26.2,11.7c-8.1,1.5-15.4,5.6-21,11.7c-6.2,6.5-12.4,13.2-18.7,19.7c-2.3,2.4-4.6,4.9-7.4,6.6
	c-4.7,2.7-9.6,5.2-14.5,7.4c-3.8,1.7-7.9,2.9-12.1,3.4c-4.8,0.7-9.4,1.8-14,3.3c-4.6,1.6-9.4,2.3-14.2,2.1
	c-12.4-0.5-24.7-1.6-36.7-4.8c-1.7-0.4-5.3-1-8-1.6C1296.8,1011.6,1289.1,996.3,1279.8,982z M1424.1,1013.1
	c5.1-6.3,10.8-12.2,17.1-17.4c1.9-1.5,4-2.7,6.2-3.5c3.3-1.4,6.8-2.4,10.4-3.1c4.5-0.7,8.7-2.4,12.6-4.8c4.6-2.8,9.4-5.5,14-8.4
	c7.9-5,16.3-9.2,25.1-12.3c3.4-1.3,6.6-2.9,9.8-4.6c3.7-2,7.3-4.1,12.8-7.3c-3.4,9-5.8,15.8-6.2,23.1c-3.7,10.8-4.9,22.4-10.8,32.5
	c-1.2,2.1-2.2,4.3-3,6.6c-4,11.6-11.3,21.2-18.4,31c-0.5,0.5-1,0.9-1.5,1.2c-3.2,1-6.3,0.5-9.6-0.6c-4-1.3-8.1-2.5-12.2-3.4
	c-11-2.4-21.1-7-30.8-12.8c-3.1-1.9-6.3-3.6-9.3-5.6s-6.4-3.5-8.5-7.2C1422.5,1015.4,1423.3,1014.2,1424.1,1013.1L1424.1,1013.1z
	 M1511.6,1037.2c3.8-5.1,6.9-10.6,9.2-16.5c1-2.5,2-5.1,3.2-7.5c6.9-13.6,10.8-28.1,13.3-43c0-0.6,0.2-1.2,0.3-1.8
	c2.5-7.1,5-14.1,7.4-20.9c0.8-0.1,1.2-0.3,1.4-0.2c9,3.8,18.7,4.3,28,6.4c5.9,1.2,12.1,1.1,18-0.2c2.9-0.7,5.9-1.2,8.9-1.3
	c6.7,0.1,12.3-2.6,17.3-6.7c4-3.2,8-6.5,12.1-9.5c1.2-0.7,2.5-1.2,3.9-1.6c-0.2,1.4-0.6,2.7-1.1,4c-3.1,6.8-6.5,13.6-9.5,20.5
	c-2.5,5.8-5.4,11.4-8.9,16.7c-5,7.2-9.7,14.6-13.2,22.6c-1.5,3.3-3.7,6.2-6.6,8.5c-4.6,3.9-9.1,7.9-13.5,12c-3.2,3.2-7,5.8-11.1,7.7
	c-3.3,1.5-6.9,2.2-10.5,2c-6-0.3-12.1,0.1-18.1,0.1c-5.8,0.1-11.4,1.6-16.4,4.5c-4.8,2.6-9.6,5-14.3,7.4
	C1509.8,1039.1,1511,1038.1,1511.6,1037.2L1511.6,1037.2z M1635,934.2c0.2-0.4,0.3-0.7,0.5-1.1
	C1636.4,934.2,1635.6,934.1,1635,934.2z M1710.2,194.9c58,39.2,112.1,83.8,161.6,133.3c19.1,19.1,37.6,39,55.3,59.5l-0.9,0.1
	c-2.7,0.4-5.4,0.7-8.1,0.8c-12.4,0.2-24.5,2.8-36.7,4.9c-1.8,0.3-3.5,0.5-5.3,0.8c-1.6-1.1-3.1-2.1-4.6-3.1
	c-18.5-14-37-28-55.6-42.1c-33.4-25.3-66.8-50.7-100.2-76.1c-46.6-35.4-93.2-70.9-139.8-106.3c-31.5-23.9-63-47.8-94.5-71.7
	c-14.6-11.1-29.1-22.2-43.7-33.2c29.5,9.6,58.6,20.4,87.2,32.5C1589.8,121.8,1651.8,155.5,1710.2,194.9L1710.2,194.9z M1409.2,52.9
	c28.1,21.4,56.2,42.8,84.3,64.1c34.4,26.1,68.7,52.2,103.1,78.3c41.6,31.5,83.2,63.1,124.8,94.6c35.1,26.6,70.2,53.2,105.3,79.9
	c8.9,6.7,17.9,13.4,26.7,20.2c2.6,2,5.5,3.7,7.4,7.1c-1.7,0.4-2.7,0.7-3.8,0.9c-10.7,1.9-21.2,4.7-31.4,8.5
	c-12.2,4.6-23.8,10.4-35.5,15.8c-6.1,2.7-11.9,5.9-17.4,9.7c-17,12-34,24-51,36.1c-5.2,3.7-10.1,7.7-15.1,11.5
	c-1.4,1-2.4,2.7-5.1,2.5c-2-2.1-4.3-4.4-6.5-6.8c-10.8-12.2-21.7-24.4-32.4-36.6c-9.4-10.6-18.8-21.2-28.2-31.9
	c-16.8-19-33.6-38-50.3-57c-10.8-12.2-21.7-24.4-32.5-36.6c-16.6-18.8-33.2-37.5-49.8-56.3c-11.6-13.1-23.3-26.1-35-39.2
	c-16.2-18.3-32.3-36.7-48.5-55c-21.8-24.6-43.7-49.2-65.6-73.8c-18.4-20.8-36.8-41.7-55.2-62.5c7.5,1.4,15,2.8,22.4,4.3
	C1350,36.8,1379.7,44.2,1409.2,52.9L1409.2,52.9z M1114.9,8.6c0,2.8,0.2,5.6,0.7,8.3c0.9,8.7,1.9,17.4,2.8,26.1s1.5,17.4,2.4,26.1
	c1.7,16.5,3.4,33,5.2,49.5c0.8,7.5,1.5,15,2.3,22.5c0.9,7.8,1.9,15.6,2.7,23.4c0.9,9,1.6,18,2.4,27c1.7,17.1,3.5,34.2,5.3,51.3
	c0.7,6.6,1.3,13.2,2,19.8c1,8.7,2,17.4,2.9,26s1.6,17.4,2.4,26.1c0.6,6.3,1.4,12.6,2.1,18.9c0.9,7.8,1.9,15.5,2.7,23.3
	c0.9,8.7,1.6,17.4,2.4,26.1c0.7,6.9,1.3,13.8,2.1,20.7c0.9,8.1,2,16.1,2.8,24.2s1.5,16.2,2.2,24.3c0.6,6.6,1.3,13.2,2,19.8
	c1.6,14.4,3.2,28.8,4.7,43.1s2.8,28.8,4.2,43.2c0.7,6.6,1.4,13.2,2.1,19.8c0.9,7.8,1.9,15.5,2.7,23.3c0.9,9,1.6,18,2.5,27
	c0.6,6.6,1.3,13.2,2,19.8c1,9.3,2.1,18.6,3.1,27.8c0.8,8.1,1.5,16.2,2.4,24.3c0.9,9,2,18,2.9,27c0.8,8.1,1.6,16.2,2.3,24.3
	c0.6,6.3,1.2,12.6,1.9,18.9c0.9,7.5,2,14.9,2.8,22.4c0.9,8.7,1.5,17.4,2.3,26.1c0.7,7.2,1.4,14.4,2.2,21.6
	c1.5,13.8,3.1,27.5,4.6,41.3c1.2,10.8,2.2,21.6,3.4,32.4c-67.4-39.5-150.9-39.3-218.1,0.5c0.4-3.9,0.8-7.7,1.2-11.6
	c0.8-8.4,1.5-16.8,2.5-25.2c1.5-13.8,3.2-27.5,4.6-41.3c0.9-8.4,1.5-16.8,2.3-25.2c0.7-6.9,1.3-13.8,2-20.7
	c1.5-14.1,3.2-28.1,4.7-42.2c0.9-8.4,1.5-16.8,2.3-25.2c0.7-6.6,1.4-13.2,2.1-19.8c0.9-7.8,2-15.5,2.7-23.3c0.9-9,1.6-18,2.4-27
	c0.6-6.6,1.3-13.2,2-19.8c1-9,2.1-18,3-26.9c0.8-8.1,1.5-16.2,2.3-24.3c0.6-6.3,1.3-12.6,2-18.9c1.5-13.5,3.2-26.9,4.6-40.4
	c1.6-15,2.8-30,4.2-45c0.6-6.6,1.3-13.2,2.1-19.8c1.6-14.1,3.2-28.1,4.7-42.2c1.5-14.4,2.8-28.8,4.2-43.2c0.6-6.6,1.3-13.2,2-19.8
	c1.5-13.5,3.2-26.9,4.6-40.4c0.9-8.7,1.6-17.4,2.4-26.1c0.6-6.6,1.3-13.2,2-19.8c1.7-16.2,3.5-32.4,5.2-48.5
	c0.8-7.5,1.6-15,2.3-22.5c1-9.3,2-18.6,2.9-27.9c0.8-7.8,1.5-15.6,2.3-23.4c1-10.2,2.2-20.4,3.3-30.6c0.7-7.2,1.3-14.4,2.1-21.6
	c1.6-15,3.3-30,4.9-44.9c1.2-10.8,2.3-21.6,3.3-32.4c0.3-2.1,0.5-4.3,0.6-6.4c5.2-0.1,10.5-0.1,15.7-0.1
	C1104.9,8.5,1109.9,8.5,1114.9,8.6z M901.4,26.5l-0.5,0.5c-12.4,14.4-25.3,28.4-37.9,42.6c-16.8,19-33.6,38-50.3,57
	c-11.7,13.1-23.3,26.1-34.9,39.3c-20.8,23.5-41.6,47-62.4,70.6c-16.2,18.3-32.5,36.6-48.7,54.8c-16.6,18.8-33.2,37.5-49.8,56.3
	c-16,18.1-32,36.1-48.1,54.2c-19,21.4-38,42.9-57.1,64.4c-10.2,11.5-20.4,23.1-30.6,34.6c-15.4,17.4-30.7,34.9-46.1,52.3
	c-12.2,13.8-24.4,27.6-36.5,41.4c-8,9-16.1,18-24.1,27.1c-2.1,2.6-4.8,4.7-7.7,6.1c-6.6,3.1-12.2,8-16.2,14.1c-0.7,1-1.3,2-3.3,1.5
	c-2.1-6.8-8.1-10.6-13.7-14.6s-12.1-5-18.9-4.8c-7.3,0.1-13,4.2-18.9,7.4c-0.3-0.4-0.6-0.7-0.8-1.2c-0.2-0.5-0.4-1.1-0.5-1.7
	c-0.7-10.3-7.3-16.2-15.5-20.7c-5.9-3.4-12.9-3.9-19.2-1.5c-2.1,0.8-4,2.4-6.5,2.2c-1.1-10.9-2-13.7-5.9-18s-5.3-4.7-17.2-7
	c0.5-1.4,1.1-2.8,1.5-4.2c3.2-10.7-1.7-20-12.2-23.7c-2-0.7-3.9-1.4-6.5-2.3c1.3-1.6,2.2-2.6,3-3.8c6-8.5,5.3-17.2-1.8-24.6
	c-1.4-1.5-3.8-2.1-4.1-4.5c7.2-9.9,6.8-14.2-2.4-25.9l28.1-21.3c9.4-7.1,18.8-14.2,28.2-21.3s18.7-14.3,28.1-21.4
	s18.8-14.2,28.2-21.3s18.8-14.2,28.2-21.3s18.8-14.2,28.2-21.3s18.7-14.3,28.1-21.4s18.8-14.2,28.2-21.3s18.8-14.2,28.1-21.3
	s18.8-14.2,28.1-21.4c9.6-7.3,19.2-14.6,28.8-21.9c9.4-7.1,18.8-14.2,28.2-21.3l28.1-21.3c9.4-7.1,18.8-14.2,28.2-21.3
	c9.4-7.1,18.8-14.2,28.1-21.4c9.4-7.1,18.7-14.3,28.1-21.4s18.8-14.2,28.2-21.3c9.4-7.1,18.8-14.2,28.1-21.4
	c9.4-7.1,18.7-14.3,28.1-21.3c9.4-7.1,18.8-14.1,28.1-21.3c6-4.6,12.1-9.1,18.4-14c29.9-8.9,60.1-16.4,90.7-22.7
	C887.1,29.2,894.2,27.9,901.4,26.5z M337.7,655.9c0,11-9.5,19.7-20.8,19.4c-9.4,0.1-20.3-8.5-19.6-21.5c0.5-11.1,9.8-19.8,20.9-19.4
	C330.6,634.6,337.7,644.4,337.7,655.9z M271.1,645.6c-2.8,0.5-5.5-0.4-7.8-1.5c-5.5-2.6-8.8-6.8-9.3-13.2c-0.7-9.8,7.8-17,17.6-15
	c2.3,0.5,4.4,1.8,6.5,2.7c1.4,2.4,2.7,4.8,3.9,7.3C285.8,634.8,280.6,643.8,271.1,645.6L271.1,645.6z M195.1,535.2
	c1.4-3,5.3-5,8.1-4.2c3.7,0.8,6.2,4.3,5.8,8c-0.2,2.8-0.7,3.4-5.7,7.3c-1.8-0.4-3.6-1-5.3-1.8C194.7,542.7,193.5,538.6,195.1,535.2
	L195.1,535.2z M193.6,507.3c0.6-1,1.4-1.8,2.4-2.4c0.4-0.3,1.1-0.2,2.3-0.4c1.5,0.5,2.9,1.2,4.1,2.1c0.8,0.9,1.1,2,0.8,3.2
	c-0.4,1-1.3,1.9-2.4,2.3c-2,0.8-4.2,0.4-5.9-0.9C193.9,510.2,192.9,508.9,193.6,507.3L193.6,507.3z M207.7,565.3
	c1.7-0.6,3.4-0.9,5.2-0.8c4.1,0.2,8.5,5,8.8,8.9c0.2,3.8-3.8,7.3-7.8,6.7c-3.9-0.5-7.4-2.9-9.1-6.5c-1.5-3.1-0.2-6.7,2.8-8.2
	C207.6,565.4,207.7,565.3,207.7,565.3L207.7,565.3z M225.2,597c1.9-1.4,4.2-2,6.7-3.1c2.4,1.6,4.8,2.8,6.7,4.6c3.8,3.6,3.9,9,0.6,13
	c-3.4,4.2-9.4,5.4-13.7,2.6C220,610.5,219.7,601,225.2,597z M328.2,328.2c99.5-99.6,217.4-179,347-233.9
	c28-11.8,56.5-22.5,85.4-31.9c-21,15.9-41.9,31.8-62.9,47.7c-32.2,24.5-64.4,49-96.5,73.6c-41.6,31.6-83.2,63.2-124.8,94.7
	c-33.6,25.5-67.2,51.1-100.9,76.8c-26.7,20.3-53.4,40.5-80.1,60.7c-34.7,26.4-69.2,53.1-104.1,79.3c1.2-1.8,2.3-3.5,3.5-5.2
	C234.1,431.8,278.7,377.7,328.2,328.2L328.2,328.2z M94.3,675.2c24.8-58.5,54.6-114.7,89.2-168c-0.5,4.1,0.9,8.3,3.8,11.3
	c1.2,1.3,2.4,2.5,3.6,3.8c-10.5,12.5-11.8,25.7,8.2,35.6c-1,1.5-2.1,2.9-3,4.3c-3.5,5.6-3.4,11.4-0.4,17.2
	c2.8,5.5,7.9,9.4,13.9,10.8c1.7,0.4,3.7,0,5,2.4c-4.6,9.1-6.4,18.6,1.6,27.3c7.6,8.3,16.9,7.9,26.5,3.9c1.3,13.8,1.8,15.6,4.5,20.2
	c4,6.7,10.1,10,17.4,12s13.5-0.9,20.4-3.8c0.7,3.5,1.4,6.7,2,9.9c1.2,7.2,5.3,13.7,11.2,18c7.8,5.7,16.4,8.7,26.3,6.2
	c6.8-1.6,12.9-5.3,17.6-10.5c1-1.1,1.8-2.5,3.9-1.8c1,2.3,2,4.8,3.2,7.2c7.5,14.6,25.1,23,41.1,19.9c8.9-1.7,16.5-5.6,22.5-12.5
	c1.3-1.5,2.1-3.7,4.5-3.8c0.3,0.3,0.7,0.4,0.8,0.6c0.9,2.2,1.6,4.5,2.6,6.7c7,16,19.2,25.1,36.8,26.7c10.7,0.9,20.3-2,29-8.2
	c1.3-0.9,2.4-2.9,5-1.5c0.1,1.2,0.3,2.7,0.5,4.2c2.5,21.9,24.9,38.9,47,34.9c2-0.4,4.1-1.2,6.4,0.4c-0.5,1.6-1.2,3.2-1.5,4.9
	c-2.2,9.6-2.2,19.1,2.2,28.3c5.6,11.6,14.4,19.1,26.9,22.2c2.1,0.6,4.2,1.4,6.2,2.3c-12.7,16.2-15.5,32.9-5.1,50.8
	c1.5,2.3,3.2,4.4,5.2,6.3c2.1,2.2,4.4,4.1,6.8,5.8c2.3,1.5,4.7,2.8,7.2,3.7c2.8,1.1,5.7,2,8.7,2.5c2.7,0.5,5.4,0.7,8.1,0.5
	c3-0.2,6-0.7,8.9-1.3c2.5-0.5,5-1.3,7.4-2c1.4,2,0.2,3.3,0,4.7c-0.6,6-1.1,12.1,0.7,18c6.7,22.4,31.2,33.1,50.5,24.3
	c3.3-1.5,6.2-3.6,9.3-5.5c1-0.6,2-1,3.4-1.8c0.5,2,0.9,3.4,1.3,4.8c4.5,13.1,13.5,21.5,27.1,23.8s24.9-2.6,33.3-13.7
	c1.1-1.4,2.3-2.7,3.7-4.3c1.2,1.6,2.1,2.7,2.9,4c10.6,15.3,32.6,16.8,45,6.8c1.6-1.3,2.9-3.1,5.5-2.9c0.6,0.5,1.2,1.1,1.8,1.7
	c10.7,11.2,23.1,12.5,35.7,3.8c1.1-0.8,2-2.3,3.7-1.7c2.4,3.6,4.4,7.3,7.1,10.5s6.8,4.7,11,6s8.3-0.7,12.2-0.4
	c6.1,14,6.1,14,16.5,20.7c-1,1.9-1.8,3.8-2.5,5.8c-1.9,7.5-1,14.5,5.3,19.8c2.7,2.3,6.1,3.5,9.7,3.3c-13.4,25.7-21.5,53.9-23.7,82.8
	c-2.2-2.1-4.8-3.6-7.7-4.5c-2.2-0.6-4.5-0.9-7-1.4c0-2.8,0.3-5.2-0.1-7.6c-1.2-7.3-4.7-13.4-12.1-15.6c-6.1-1.8-12.5-1.8-18.3,1.9
	c-1.2,0.8-1.9,2.4-4.1,1.9c-1.6-1.9-3.3-4-5.1-6c-2.7-2.9-6.2-4.9-10.1-5.6c-4.4-0.8-9-0.1-13.1,1.9c-6.8,3.1-11.5,7.5-13.7,14.6
	c-0.1,0.2-0.4,0.3-0.9,0.6c-2.1-1.5-4.2-3.3-6.5-4.7c-7.2-4.3-14.5-5.7-22.2-1.1c-1,0.6-2.2,1-3.3,1.6c-3.9,1.8-7,4.8-9,8.6
	c-1,1.8-2,3.6-3.2,5.6c-3.2-1.3-5.9-2.4-8.7-3.4c-6.3-2.3-13.2-2.3-19.5-0.1c-4.2,1.4-7,4.6-10.2,7.3c-6,5.1-10,11.2-10.6,19.2
	c-0.1,1.5-0.5,3-2.5,3.5c-1.8-0.9-3.6-1.9-5.6-2.7c-7.8-3.4-15.9-3.2-24-1.3c-2.3,0.6-4.5,1.6-6.4,3.2c-5.7,4.9-11.6,9.7-14.5,17
	c-0.5,0.9-1.2,1.7-1.9,2.4c-2.1-1.8-4-3.8-6.1-5.3c-12.6-9.5-26.1-12-40.8-5.2c-2.5,1.1-4.7,2.7-6.5,4.8c-2.7,3.2-5.7,6.1-9.4,10.1
	c-1-3.4-1.5-5.5-2.2-7.4c-5.6-14.2-15.6-23.4-30.8-26.3c-1.2-0.2-2.5-0.7-3.5-0.4c-6.7,1.7-13.9,0.8-20.3,4c-0.7,0.3-1.7,0.2-3,0.3
	c0.2-2.6,0.3-4.9,0.5-7.2c0.9-15.9-6-28-18.8-36.9c-4.8-3.3-10-5.5-16.1-4.7c-2.4,0.1-4.8,0.1-7.2-0.1c-8.2-0.4-16.3,2.2-22.8,7.3
	c-2.1,1.6-4.2,3.4-6.8,5.4c-1.2-3.4-2.1-6.5-3.3-9.5c-6.2-16.3-22-26.9-39.5-26.5c-6.6,0.1-12.3,2.8-18,5.5
	c-7.7,3.6-13.9,9.9-17.6,17.6c-1.1,2.2-2,4.4-3,6.8c-0.8-0.5-1.5-1-2.2-1.6c-1.2-1.4-2.1-3-3.4-4.2c-9.3-9.4-19.9-15.7-33.8-13.5
	c-1.2,0.1-2.4,0.1-3.6,0.1c-11.2,0.5-20.2,5.6-27.5,13.9c-6.5,7-10.3,16.1-10.8,25.6c-0.1,1.4,0.4,3-1.7,4c-2.1-1.4-4.2-3-6.5-4.4
	c-7.4-4.4-15.2-7.5-24.1-4.9c-1.4,0.4-3,0.2-4.5,0.4c-8.8,1.1-16.8,5.5-22.4,12.5c-5.6,6.8-8.2,14.6-9.2,23.2c-0.3,1.5-0.6,3-1,4.5
	c-9-5.5-20-6.8-30.1-3.7c-10.7,3.1-16.3,11.6-20.6,21.1c-3.9-3.1-7.1-6.3-10.9-8.7c-4.2-2.7-9.3-2.4-14.1-2.6
	c-4.4-0.2-8.8,1.4-12.9,3.8c-4.3,2.5-6.6,6.8-10.3,10.5c-1.1-1.1-2-1.9-2.7-2.8s-1.3-2-2.1-2.9c-6.6-7.4-15.6-8.9-24.4-4
	c-1,0.5-1.9,1.7-3.6,0.3c-0.4-1.3-0.9-3-1.4-4.7c-3.5-10.1-12.6-14.8-22.9-12.2c-1.9,0.5-3.8,2-5.8,0.6c0.3-13.1-0.8-21.1-19.8-25.1
	c-0.2-0.8-0.4-1.6-0.5-2.5c-0.1-0.9,0-1.8,0-2.7c0.3-11.2-11.9-16.6-19.7-13.9c-3.7,1.3-6.2,3.6-8.6,6.3c-0.2,0.2-0.3,0.4-0.5,0.6
	C13.3,930.1,42.2,798.3,94.3,675.2L94.3,675.2z M878.8,1098.1c-0.9,0.7-2,1.1-3.2,0.9c-3.7-0.7-4.7-3.1-3.7-8.6
	c5.3,0.3,6.8,1.2,7.7,4.6C879.8,1096.1,879.5,1097.2,878.8,1098.1L878.8,1098.1z M859.5,1071.3c-1.4,6.1-2.8,7.8-6.7,8
	c-4.4,0.2-8-2.3-8.5-6.3c-0.2-1.8,0.1-3.6,0.7-5.2c0.4-1.5,0.9-1.6,5.9-4.2C855.6,1064.6,858.4,1066.9,859.5,1071.3L859.5,1071.3z
	 M826,1071.1c-1.3,5.7-7.8,9.2-13.4,7.6c-7.2-2.1-10-11-6.5-16.1c1.2-1.7,2.6-3.2,4.3-5.3c3.2,0.2,5.6,0,7.9,0.5
	C824.2,1059,827.4,1064.8,826,1071.1L826,1071.1z M779.8,1093.1c-6.2,3.1-12,1.5-16.4-2.9c-4.5-4.3-5.5-11.1-2.5-16.5
	c1.6-3.1,4.1-5.5,7.2-7.1c2.1,0,4.5,0.1,6.8,0c5.2-0.2,11,3.9,12.6,10.8c1.3,6.4-1.9,12.8-7.8,15.5L779.8,1093.1z M744.7,1110.8
	c-3.9,4.5-9,7-14.9,6.7c-7.5,0.3-14.4-4.1-17.3-11.1c-2.7-6.7-0.6-16.1,4.4-21c2.5-2.4,5.9-3.1,9-3.8c5.1-1.2,10.1-0.9,14.8,1.9
	C749.7,1088.8,753.1,1101.1,744.7,1110.8L744.7,1110.8z M701,1128.2c0.4,12.5-9.5,22.9-22,23.3c-0.2,0-0.4,0-0.6,0
	c-12.2,0-22.9-10.2-22.6-22.4c0.3-15.3,7.7-21.6,22.4-22.8C690.1,1105.3,701.7,1117.1,701,1128.2z M638.8,1152.4
	c-3.9,9.4-11.2,14.7-21.4,15.8c-0.9,0.1-1.8,0-2.7,0c-14.9,0.7-28.8-13.7-25.6-31.1c1.9-10.3,8-16.8,18-19.2
	c10.3-2.4,19.8-1,27.2,7.6C641.1,1133.5,642.8,1142.6,638.8,1152.4L638.8,1152.4z M570.7,1130.1c0.4,19.5-20.5,33-37.2,27.2
	c-12-4.2-19.8-13.4-20.9-25.7c-1-11.4,6.2-24.4,16.2-29.1c2.2-1,4.4-1.9,6.7-2.7c1.4-0.6,2.9-0.8,4.4-0.6c8.3,1.6,16.6,3.4,22.7,9.9
	C568.2,1114.6,571.1,1122.3,570.7,1130.1L570.7,1130.1z M511,1083.9c0.5,17.2-14.8,28.6-28.9,28.2c-15.8-0.4-29.1-13.3-28.9-28.8
	c0.2-16.6,14-30.8,30.1-29.6C497.2,1054.7,511.8,1066.2,511,1083.9z M439.6,1062.2c-0.2,17-14,29.5-30.3,29.6
	c-14,0.1-29.4-12-29.7-30.3c-0.2-14.2,13.9-31.2,29.2-29.2C423.6,1031.5,439.8,1043.6,439.6,1062.2L439.6,1062.2z M363.6,1074.1
	c-0.1,16.8-15.5,31.7-31.5,30.7c-18.6,0.6-31.6-15.2-31.8-31.2c-0.2-16.6,13.5-32,31.3-32.2C349.1,1041.2,363.7,1056.7,363.6,1074.1
	L363.6,1074.1z M287.4,1102.8c-0.4,14.3-10.1,28.2-27.2,28.1c-18.4-0.1-27.2-12.5-28.2-27.1c-0.9-14.1,12.8-28.4,26.1-28.5
	C273.8,1075.3,287.3,1087.9,287.4,1102.8L287.4,1102.8z M219.9,1137.2c-2.6,9.3-10.2,14.9-20.1,14.8c-9.1-0.1-16.1-5.1-19-13.8
	c-2.8-8.2-0.1-17.3,6.8-22.5c3.7-2.9,5.2-3.5,14.3-5.2c2.7,1.2,5.5,2.3,8.1,3.7C218.2,1118.7,222.4,1128.2,219.9,1137.2
	L219.9,1137.2z M159.9,1143c-2.1,5.2-6.1,8-11.6,8.7c-0.9,0.1-1.8,0.1-2.4,0.1c-11.6-0.2-18.7-11.9-13.6-21.7c3.3-6.5,12-9.4,18.5-6
	c2.4,1.2,4.6,2.8,6.4,4.8C161,1132.5,162,1138.2,159.9,1143L159.9,1143z M110.5,1135.8c0,6.3-3.8,10.4-9.8,10.4
	c-5.7-0.1-10.2-4.7-10.3-10.3c-0.4-5.3,3.7-10,9-10.3c0.3,0,0.6,0,0.9,0C106.5,1125.7,110.5,1129.8,110.5,1135.8L110.5,1135.8z
	 M73.2,1123.4c-3.2,1.8-7.1,2-10.5,0.5c-3.1-1.3-4.5-3.9-4.4-7.2c0.9-3,3.2-5.3,6.1-6.3c2.7-0.7,5.5-0.4,7.9,0.8
	c2.3,0.9,4,2.9,4.4,5.3C77.3,1118.8,75.5,1122.2,73.2,1123.4L73.2,1123.4z M46,1099.8c-2.6,2-5.1,3.3-7.9,2.2
	c-1.6-0.7-3.1-1.7-4.3-3c-1.9-2.2-1.5-5.8,0.5-8.3c2.2-2.6,5.9-3.5,9-2.1c1.1,0.5,2,1.3,2.7,2.3C47.7,1093.6,47.6,1096.5,46,1099.8z
	 M25,1074c-0.7,0.6-1.5,1-2.3,1.3c-2.7,0.8-5.2-0.1-6.1-2.2s0.5-4.2,3.4-5.4c0.7-0.2,1.4-0.4,2.2-0.6c2-0.1,3.7,1.2,4.4,3
	C26.8,1071.6,26.2,1073.1,25,1074z M30.7,1320c-14.8-72.4-22.2-146.1-22.2-220c0-6.5,0.1-13.1,0.2-19.6c1.3,1.7,3,3.2,5,4.1
	c2.6,1.3,5.6,1.9,8.4,2.9c-2.7,18,7,28.4,25.7,25.5c0.1,2.4,0.2,4.8,0.3,7.1c0.2,3.7,1.7,7.1,4.3,9.7c3.5,3.7,7.7,6,12.8,5.9
	c4.4-0.1,8.8-0.8,13.8-1.4c0.3,1.2,0.7,2.6,1.1,4c0.5,2.1,1.1,4.1,1.8,6.1c4.1,10.5,15.9,15.7,26.4,11.6c2.7-1,5.2-2.7,7.2-4.7
	c1.7-1.7,3.1-3.7,4.7-5.5c8.9,13.3,10.8,12.8,15.1,14.9c6.5,3.2,13.5,3.1,20.2,0.8c6.5-2.2,8.2-3.9,16-14.4c1.7,2.2,3.3,4.3,5,6.3
	c6.1,7.3,15.3,11.3,24.9,10.8c16.1-0.7,28.1-12.1,30.4-28.3c0.2-1.1-0.2-2.4,2.1-3.2c7.6,5.9,16.4,10.3,26.9,9.8
	c10.4-0.2,20.3-4.6,27.4-12.1c5.9-6,7.5-9.8,11.7-27c2.5,1.9,4.9,3.7,7.3,5.4c17.3,11.9,37.4,10.3,52.8-2.3c4.8-3.9,8-8.9,10.9-14.2
	c1.2-2.3,1.4-5.2,4.1-7.2c1,1.1,2.1,2.1,3,3.2c12.6,15.6,38.3,20.8,57,6.1c1.4-1.1,2.8-2.3,4.2-3.4c0.9-0.6,1.9-1.1,2.9-1.6
	c0.3,0.7,0.6,1.4,0.8,2.2c0.2,0.9,0.2,1.8,0.5,2.7c3.1,11,9.4,19.4,19.6,24.9c10.4,5.6,21.1,6.9,32.3,3c1.8-0.6,3.6-2.4,5.9-1
	c0,2.7,0,5.4,0,8.1c0.2,15.4,6.6,27.5,19.9,35.3c13.6,7.9,27.6,7.8,41.4,0.1c4.7-2.7,8.9-6.4,12.3-10.6c0.7-0.9,1.3-2.1,3.5-1.6
	c2.1,5.8,4.9,11.8,9.7,16.5c4.7,4.7,10.6,8.1,17,9.9c6.4,1.9,13.2,1.8,19.6-0.1c6.4-1.8,12.3-5.3,16.9-10
	c4.8-4.8,7.2-10.9,10.5-16.9c2.8,2,5.2,3.9,7.6,5.5c8.1,5.6,18.3,7.2,27.7,4.4c13.1-3.6,21.1-12.3,24.2-25.5c0.8-3.5,1.3-7,2-10.8
	c2.6,1,4.8,2,7.1,2.6c4.1,1,8.2,2.2,12.5,1.4c13.2-2.4,22.7-9.2,27-22.4c0.5-1.4,0.5-3,2.3-3.6c15.4,3.8,28.7,2.4,36.7-19.3
	c15.5,9.2,22,8,35-2.4c9.6,7.8,9.6,7.8,24.7,9.2c0.3,1.4,0.6,2.8,0.8,4.2c0.4,5.6,3.5,9.6,7.8,12.7c5.1,3.7,10.8,3.8,16.3,1.2
	c0.4-0.2,0.8-0.4,1.2-0.6c1,26.3,6.8,52.2,17.2,76.4c-3.5-1.2-7.2-1.3-10.7-0.3c-2.2,0.7-4,2.8-6.7,2.2c-1.5-2.3-3-4.5-4.7-6.6
	c-5.7-6.5-15.4-8.6-22.2-4.7c-4.4,2.6-8.7,5.5-10.7,10.7c-0.5,1-1.2,2-1.9,2.8c-3.2-1-6-2-9-2.6c-6-1.2-11.9-0.1-16,4.3
	c-4.9,5.2-9.1,11.3-8.7,19.2c0.1,2,1,4.2-1.2,6.4c-7.7-0.2-16-0.6-23,5.9c-1.8,2.6-3.4,5.3-4.9,8c-1.3,2.7-2.3,5.5-3,8.5
	c-0.8,3.1,0.5,6.5-0.6,9.7c-3.9,0.9-7.5,1.4-10.9,2.6c-8.8,3.3-16,8.4-18.1,18.4c-0.5,2.1-1.1,4.1-1.8,6.1c-1.5,4.3-1.4,9,0.1,13.3
	c0.9,2.8,1.9,5.6,3.1,8.9c-3.2,0.6-6.1,1.2-9,1.7c-5.7,1.1-11,3.5-15.4,7.2c-3.8,3-6.6,7-8.2,11.6c-2.3,6.2-3.3,12.9-2.8,19.5
	c0,1.5-0.1,2.9-0.3,4.4c-2.6-0.5-4.7-0.8-6.7-1.2c-13.3-2.7-24.5,1.7-33.9,10.8c-4.3,4.2-7.6,9.2-8,15.8c-0.2,3.5-1.5,7-2.4,11.2
	c-1.9-1.6-3.4-3-5-4.3c-11.7-9.7-24.8-11.9-39-7.4c-2.6,0.9-4.9,2.2-7,4c-5.1,4.2-10.4,8.2-14.5,13.4c-0.1,0.2-0.6,0.1-1.4,0.1
	c-1.2-2.1-2.4-4.4-3.8-6.7c-5.1-8.6-12.2-15.2-21.8-18c-10.6-3.1-21.4-4.4-31,3.4c-0.8,0.5-1.6,0.9-2.4,1.2
	c-8.7,4.5-14.5,11.6-17.9,20.7c-0.8,2.2-1.7,4.4-2.7,7c-2.8-2.3-4.9-4.4-7.4-6.2c-11.2-8.1-23.5-10.5-36.9-6.7
	c-14.9,4.2-22.6,15.3-27.5,28.9c-2,5.4-2.4,11.4-1,17c0.4,1.4,1,2.9-0.4,4.6c-5.1-1-10.2-2.4-15.5-3c-5.4-0.6-10.9-0.1-16.1,1.5
	c-5.4,1.6-9.6,5-14,8.2c-4.1,3-7.6,6.8-10.3,11.2c-2.9,4.6-4.8,9.8-5.6,15.2c-0.9,5.4-1.1,10.9,0.5,16.2c1.6,5.1,3.6,10,5.6,15.4
	c-10.8-0.8-21-0.6-30,6.7c-8.3,6.6-14.7,13.8-17.1,24.6c-2.5,11.2,1.5,20.7,5.8,30.2c-0.9,0.5-1.5,1-2,1c-5.6-0.2-10.5,2-15.4,4.7
	c-11.7,6.4-17.8,15.8-17.2,29.4c0.1,2.3,1.1,4.8-0.5,7c-21.4-4.6-37.3,6.7-38.3,28.6c-11.9-4-12.3-4.1-18.3-2.5
	c-5.3,1.4-5.8,1.8-14.1,12.3c-1.5-1.4-2.9-2.9-4.5-4.2c-7.3-6.1-18-5.5-24.6,1.2c-1.7,1.6-3.4,3.3-5.3,5.2c-2.5-4-3.8-8.2-7.6-10.6
	c-3.3-2.2-7-3.6-10.9-3.9c-4.4-0.3-7.9,2.5-12.1,3.4c-0.9-1.6-1.5-2.9-2.4-4.1c-4.6-6.8-12.5-8.8-19.8-5.1c-6,3.1-7.9,8.2-8.4,14.4
	C92.2,1534.7,53.1,1429.4,30.7,1320z M902.2,1201c-0.7,1.4-2.1,2.2-3.6,2.1c-3.4,0-5.5-1.8-6.5-5.6c5-3,6.5-3,9.2-0.5
	C902.5,1197.9,902.9,1199.6,902.2,1201z M871,1197.8c-2.6,2.1-6.3,2.5-9.3,1c-3.1-1.5-4.7-4.9-3.9-8.3c0.3-1.4,1.2-2.7,2.2-4.8
	c2.2-0.3,4.4-0.5,6.7-0.4c3.1,0.2,5.8,2.3,6.6,5.3C874.1,1193.2,873.2,1196.1,871,1197.8L871,1197.8z M841,1215.6
	c-4.1,4.6-10.8,5-15.1,0.7c-1.6-1.7-2.9-3.8-3.7-6c-1.1-3-0.3-5.9,2-9.5c2.1-1.1,4.2-2,6.4-2.7c3.2-1,6.7-0.4,9.3,1.8
	C844.9,1204.1,845.8,1210.2,841,1215.6L841,1215.6z M726.2,1336.5c-1.5-5.1-0.9-10.2,2.5-14.6c1.1-1.4,2.2-2.9,3.3-4.3
	c4.1-4.9,10.3-7.7,16.7-7.6c12.5-0.5,22.5,9,23,22.9c0.3,9.3-7.3,18.3-16.7,21.5c-7.9,2.7-19.4-0.9-24.7-8.9
	C728.5,1342.7,727.1,1339.7,726.2,1336.5z M709.5,1402.7c-12.9,3.9-26.8-2.6-31.8-15.2c-1.9-4.8-3.8-9.7-2-14.9
	c3.6-10.5,13-21.1,26.5-20.7c12,0,24.8,7.9,25.8,24.9C728.9,1390.3,719.5,1399.7,709.5,1402.7L709.5,1402.7z M759.9,1288.2
	c-1.2-2.7-1.6-5.8-2.3-8.7c0.1-3.4,1.3-6.7,3.5-9.2c4.6-5.7,10-9.4,17.7-9.2c12.4,0.3,19.3,12.5,16.2,23
	c-2.6,8.7-8.8,13.6-17.7,14.6C769.9,1299.3,762.9,1295.1,759.9,1288.2L759.9,1288.2z M789.7,1238.8c0.4-2.3,1-4.5,1.7-6.8
	c2.7-1.6,5.5-3.1,8.3-4.4c5.8-2.3,11.9-0.2,15.8,5.1c3.1,4.2,3.1,11.2,0,16.1c-3.2,4.9-9.1,7.3-14.8,5.9
	C793.9,1253.3,788.9,1247.5,789.7,1238.8L789.7,1238.8z M641.9,1433.2c-12.5,4-26.1-0.8-33.2-11.8c-7.3-11.2-6.4-25.9,2.3-36.1
	c1.6-1.8,3.1-3.7,4-4.7c4.7-1.3,8.1-2.4,11.6-3.3c13.7-3.4,27.9,3.7,33.3,16.7C666.2,1408.8,660,1427.4,641.9,1433.2L641.9,1433.2z
	 M583.1,1412.7c-7.4,11.9-19.6,16-32.1,12.9c-14-3.5-21.5-16.6-21.7-27c-0.1-8.7,2.6-16,8.7-22.1c1.9-1.9,4-3.7,6.1-5.6
	c3.8-0.7,6.8-1,9.7-1.7c8.8-2.3,22.8,3.2,28.4,12C588.8,1391.6,589.6,1402.3,583.1,1412.7L583.1,1412.7z M352.6,1532.3
	c0.5-15.4,9.3-27.1,28.6-26.9c13.5,0.1,26.3,11,26.6,27.5c-0.4,14-11.1,27.2-28,27.3C366.8,1560.3,352,1549.9,352.6,1532.3
	L352.6,1532.3z M364.9,1588.3c0.1,11.2-8.9,20.5-20.1,20.6c-0.1,0-0.2,0-0.3,0c-11.1,0-19.8-8.8-20-20.1
	c-0.3-10.3,6.1-21.5,20.7-20.8C359,1568.8,365.3,1578.8,364.9,1588.3L364.9,1588.3z M393.9,1468.6c0.6-17.5,11.9-31.2,31.8-31.1
	c17.5,0.1,31.7,13.9,31.4,31.8c0.4,16.1-14,31.6-31.9,31.3C406.2,1500.4,393.4,1484.3,393.9,1468.6L393.9,1468.6z M458.3,1404.3
	c3.4-7.4,10-11.2,17-14c14.5-5.6,30.8,1,37.3,15.1c6.5,14.7,0.8,31.6-13.1,38.9c-5.2,2.7-8.7,3.6-13.9,3.6
	C462.3,1447.6,448.9,1424.8,458.3,1404.3L458.3,1404.3z M316.9,1622.5c-0.9,7.1-6.4,12.7-13.5,13.8c-6.2,0.8-12.5-2-15.3-7.3
	c-2.9-5.6-2.2-11.1,1.5-16.1c1.4-1.9,3.4-3.3,5.3-5c3-0.1,5.1-0.3,7.2-0.3c1.5,0,3,0.2,4.4,0.7
	C313,1610.3,317.6,1616.7,316.9,1622.5z M271.6,1649.4c-2,4.8-9.1,6.8-13.9,4c-3.3-1.9-5.4-4.7-5.5-8.6c0.1-2.1,0.2-4.2,0.5-6.2
	c2.4-1.4,4.3-2.9,6.5-3.6c3.8-1.4,8-0.3,10.6,2.8C272.9,1641.1,273.3,1645.2,271.6,1649.4z M233.5,1645.4c-0.4,5.6-7,10.2-12.5,8.7
	c-2.4-0.6-4.3-2.5-4.7-5c-0.7-2.7,0.3-5.5,2.4-7.4c2.2-2,5.1-3.2,8.2-3.3c3.7,0,6.7,3,6.7,6.7
	C233.5,1645.2,233.5,1645.3,233.5,1645.4L233.5,1645.4z M197.2,1641.2c-0.2,2.6-1.6,5-3.8,6.4c-2.4,1.8-5.8,1.9-8.3,0.2
	c-2.7-2-3.8-5.5-2.6-8.7c1.2-2.8,3.9-4.7,7-4.6C192.9,1634.7,194.4,1636,197.2,1641.2L197.2,1641.2z M165.5,1630.5
	c0.1,2.1-1,4.1-2.9,5.2c-1.6,1-3.5,0.9-5-0.2c-1.3-1.3-1.5-3.3-0.4-4.9c1.1-1.9,2.6-3.3,5-3.3C164,1627.2,165.5,1628.6,165.5,1630.5
	C165.5,1630.5,165.5,1630.5,165.5,1630.5L165.5,1630.5z M328.2,1871.8c-49.5-49.5-94.1-103.6-133.3-161.6
	c-14.2-21-27.6-42.5-40.3-64.4c3,1.5,6.4,1.8,9.6,0.8c2-0.6,3.9-1.4,5.8-2.1c2,3.3,3.8,6.4,5.8,9.3c2.2,3.1,5.5,4.8,9,5.7
	c3.9,1,7.9,1.1,11.5-0.8c3.1-1.6,6-3.8,9.3-5.9c0.9,1.5,1.6,2.8,2.4,4c5.1,7.5,12.6,10.1,21.3,7.4c3.7-1.2,7.1-3.4,9.8-6.3
	c1.4-1.4,1.6-4,4.3-4.2c2.1,2.2,4,4.5,6.3,6.4c5.9,5.2,12.9,6.7,20.2,4.1s12-7.9,13.4-15.8c0.4-2,0.6-4,0.9-6.1
	c11.8,4.6,14.8,5.3,20.3,4.7c7.3-0.8,13.9-4.7,18.3-10.6c4.4-5.7,5.1-12.6,6-20c7.4,2.6,14.3,4.7,21.6,3.4
	c7.5-1.2,14.4-5.2,19.1-11.2c9.2-11.4,9.4-23.7,3-37.1c4.6-0.8,8.8,0,12.9-0.5c8.8-1.1,16.9-5.2,23-11.6c3-3,5.5-6.5,7.3-10.3
	c1.7-3.9,3.5-7.8,3.5-12.1c0-4.5,0.1-9.1-0.7-13.5c-0.7-4-2.5-7.8-4-11.9h13c22.7,0,43.9-20.9,41.1-46.4c-0.3-2.9-1-5.9-0.3-8.9
	c2.8-0.6,5,0.6,7.2,1.2c18.2,5.2,41-4.9,48.6-25.1c0.6-1.7,1.1-3.4,1.8-5.1c0.4-1.1,0.5-2.4,2-2.6c21.2,19.2,47.3,18,66.2-5.5
	c2.8,1.3,3,4.4,4.5,6.6c9.1,13.7,21.7,21.1,38.2,19.7c15.9-1.4,27.7-9.7,34.2-24.6c1.9-4.1,3.2-8.5,3.6-13c0.2-1.2,0.6-2.4,1-3.6
	c2.7,1.9,4.8,3.6,7.1,4.9c14.6,9.2,33.6,7.1,45.8-5.2c9.6-9.8,13-21.4,10.6-34.8c-0.2-1.4-1.2-2.9,0.4-4.2c2.3,0.3,4.7,0.9,7,1
	c15.9,1,30.5-9,35.3-24.2c2.6-8.5,1.5-16.7-2.1-24.7c-1-2.1-2.8-3.8-2.7-6.5c3-0.8,6-1.4,8.8-2.3c15.7-5.1,24.3-19.9,21.4-36.2
	c-0.3-2-0.4-4-0.5-5.9c20-7.3,23.7-16.8,21.4-35.4c22.2-2.7,22.3-7.8,28.4-21.1c4.6,0.1,9.2,1.1,13.4,0.2s8-3.7,12-5.7
	c1.6,1.8,3.1,3.7,4.8,5.3c4.3,4,9.5,5.2,15.1,4.3c4.8-0.7,8.9-3.7,11.1-8c14.7,25.8,34.6,48.4,58.4,66.2c-3.6,0.8-6.9,2.8-9.4,5.6
	c-1.3,1.6-2.5,3.3-4,5.3c-8-5.9-16.2-7.6-24.5-1.8c-7.7,5.4-9.6,13.4-8.2,22.5c-3.3,0.7-6.5,1.5-9.7,2.5c-6.6,2.5-11.6,7-12.5,14.2
	c-1,8.1-0.7,16.4,5.9,22.7c0.2,0.2,0.1,0.5,0.2,1.3c-2.2,1.7-5.2,2.4-7.7,4c-6.7,4.3-11,9.9-11,18.4c-0.1,6.6,1.1,12.6,4.9,17.9
	c0.7,0.9,1.2,2,1.9,3.2c-2.6,2.1-5.1,4.4-7.5,6.8c-7.1,7.8-11.1,16.5-7.3,27.3c0.3,1.2,0.6,2.3,0.8,3.5c1.3,6.3,4.9,11.8,10,15.7
	c1.4,1.1,2.6,2.3,3.8,3.4c-0.3,0.7-0.4,1-0.6,1.2c-1.6,1.3-3.4,2.6-4.9,3.9c-9.7,8.6-14.8,18.8-11.3,32.2c1.5,5.6,3.2,11,6.6,15.7
	c0.6,1.1,1.1,2.2,1.5,3.3c-2.9,1.1-5.4,2.1-7.9,3.1c-5.6,2.4-10.7,5.7-14.5,10.6c-7.6,9.8-11.2,20.6-6.7,32.9
	c0.8,2.3,1.6,4.6,2.2,6.9c0.3,1,1.4,2.2-0.1,3.1c-0.3,0.1-0.6,0.1-0.9,0.2c-0.9-0.1-1.8-0.3-2.7-0.4c-16-3.3-29.2,1.5-39.8,13.7
	c-1.3,1.3-2.3,2.8-3,4.5c-2,5.7-3.7,11.4-5.5,17.2c-0.4,1.4-0.8,2.8-1.2,4.1c-0.8-0.1-1.1,0-1.3-0.1c-1.5-0.9-3-2-4.6-2.9
	c-15.3-9.3-30.3-8.6-45.2,0.9c-3.1,1.9-5.7,4.5-7.6,7.6c-1.8,3.1-3.5,6.3-5.1,9.5c-3.3,6.6-4.8,13.6-3.6,21c0.2,1.5,0.5,3,0.6,4.5
	c0.1,1.7,1.7,3.3,0.4,5.1c-1.8,1.2-3.5-0.1-5.2-0.4c-10.4-1.9-20.5-1-29.8,4.4c-13.1,7.6-19.4,19.2-20,34.3
	c-0.5,8.5,1.8,16.9,6.5,24.1c1,1.5,2.2,2.9,3.1,4.4c0.6,1.1,1,2.3,1.4,3.5c-2.6,0.6-4.7,0.9-6.7,1.4c-8.6,1.9-16.4,6.5-22.2,13.2
	c-4.7,5.3-7.2,11.8-9.3,18.4c-2.6,8.1-2.3,16.9,0.7,24.9c3.2,8.7,8.3,16,16.2,21.2c1.6,1.1,4.1,1.5,4.3,4.4
	c-2.8,1.6-5.6,3.2-8.5,4.8c-13,7-19.7,28.3-17.6,39.2c0.2,0.9,0.5,1.8,0.7,2.6c2.5,10.2,8.4,17.9,16.8,23.9c1.6,1.1,4.2,1.3,4.4,4
	c-2.7,2-5.7,3.6-7.8,6c-2.3,2.8-4.3,5.8-5.8,9.1c-1.5,2.9-2.6,6.1-3.3,9.3c-0.4,3.3-0.5,6.6-0.2,9.9c0.2,3.6,1.3,7.2,3.3,10.2
	c1.7,2.7,3.4,5.4,5.4,8.4c-6.4,2.3-12.8,3.7-16.8,9.1c-3.6,4.9-6.5,10.1-7.5,16.2c-1.1,6.6,2.5,12,4.2,17.8
	c-4.5,1.4-8.6,2.5-12.4,4.1s-6,4.9-8.1,8.3c-2.4,3.7-1.4,8.1-2.2,11.9c-5,0-9.5-0.4-13.8,0.1s-7.5,3.6-10.3,6.8
	c-3.1,3.6-2.2,8.6-4.5,12.4c-17.3-7.6-21.4-6.8-32.2,6.5c-1.7-1.1-3.5-2.1-5.4-3.1c-6.9-3.2-15.1-0.5-18.7,6.2
	c-3,5.2-2.7,10.4-0.4,15.6c0.2,0.5,0.4,0.9,0.7,1.3c-17.4-10.4-34.4-21.2-51.2-32.5C431.7,1965.9,377.7,1921.2,328.2,1871.8
	L328.2,1871.8z M951.8,1297.2c-0.1,4.1-4,7.5-8.5,7.4c-4.1-0.1-7.4-3.4-7.4-7.4c-0.1-4.3,4.1-7.5,9.5-7.2
	C949.1,1290.2,951.9,1293.5,951.8,1297.2L951.8,1297.2z M852.8,1626.8c-10.9,1.4-20.2-2.7-27-11.4c-5.9-7.5-7.5-16.2-5.8-25.6
	c0.4-3,1.9-5.8,4.1-7.8c1.5-1.4,3-2.9,4.4-4.5c10.2-11.3,31.4-12,42.6,1c4.6,5.1,7,11.8,6.9,18.7
	C878.8,1611.5,867.9,1624.9,852.8,1626.8L852.8,1626.8z M868.8,1542.2c-0.2-16.5,10.4-28.8,26.8-28.8c14.1,0,25.7,12.3,25.3,26.5
	c-0.4,16.4-13.8,26.1-27,25.7C880.4,1565.3,868.6,1554.2,868.8,1542.2L868.8,1542.2z M895.1,1491.6c-3.7-3.6-5.6-8.8-5-14
	c0.8-8.5,3.5-15.8,11.4-20.4c12.9-7.4,26.4-0.4,31.2,8.7c6.2,11.5,1.5,26.1-10.3,31.3c-3,1.3-6.3,1.7-9.5,2.4
	C905.6,1499.7,899.9,1496.6,895.1,1491.6L895.1,1491.6z M919,1434.3c-6.8,3.7-13.5,2.6-19.5-1.9c-7.3-5.4-8.9-12.4-5.4-21.8
	c3.5-9.6,11.2-12.9,17.9-12.7c8.7,0.3,15,6.2,16.8,15.1c0.3,1.5,0.5,3,0.8,4.3C928.8,1424.8,925.6,1430.7,919,1434.3z M899.5,1369.4
	c1.6-2.9,2.9-5.7,4.6-8.1c3.2-4.5,8.9-6.6,14.3-5.1c4.7,1.3,9.9,5.8,10.3,12.2c0.6,8.2-3.2,13.3-10.5,15.6
	c-6.2,1.9-13.2-1.5-16.4-7.8C900.9,1373.9,900.1,1371.7,899.5,1369.4L899.5,1369.4z M923.6,1337.9c-4.2-0.1-7.6-1.6-9.6-5.5
	c-0.8-1.6-1.4-3.3-2.3-5.6c1.2-2.2,2.5-4.4,4-6.5c3-4,8.5-5.2,12.9-2.9c4.5,2.3,7.1,7.4,6.1,11.9
	C933.6,1334.5,928.9,1338.2,923.6,1337.9L923.6,1337.9z M657.1,1943.3c3.3-4.9,9-7.6,14.8-7c5.6,0.2,10.5,4,12,9.4
	c0.4,1.1,0.7,2.3,1.2,4.4c-0.8,2.6-1.6,5.2-2.7,7.7c-3.3,7-12.8,9.2-18.5,7.2c-7.5-2.9-11.3-11.3-8.4-18.8
	C656.1,1945.1,656.5,1944.2,657.1,1943.3z M657.9,1990.5c-0.1,5.4-5.3,10.1-10.8,9.8s-10.7-5.1-10.5-10.3c0.2-5.3,5.3-9.9,10.8-9.8
	S658,1985.1,657.9,1990.5z M669.8,1899.2c0.3-11.6,10.1-19,21.1-19.1c12.6-0.1,20,9.8,20,20c0.1,11.3-9,20.6-20.3,20.7
	c-0.1,0-0.1,0-0.2,0C679,1921,669.5,1911.1,669.8,1899.2z M693.8,1862c-16.1,0.2-28-12.2-28.1-28.1c-1.8-14.2,15.3-27.2,27.2-27.1
	c15.5,0,28.7,12.4,28.2,28.1C720.5,1852.1,707.3,1861.9,693.8,1862L693.8,1862z M700.2,1788.2c-18.1-0.4-30.6-14.7-31-32.4
	c-0.4-17,16.5-31.6,32.5-30.7c15.4-0.5,31.1,13.7,31,31.2C732.5,1772.2,720.7,1788.7,700.2,1788.2L700.2,1788.2z M701.4,1697.8
	c-5.9-9.7-6.1-19.8,0.2-29.9c5.7-9.2,15.3-15.2,26.1-15.2c16.3,0,29.6,13.2,29.6,29.5c0,0.5,0,1.1,0,1.6
	c-0.6,13.8-9.9,24.6-23.2,27.8C723.4,1714.3,709.7,1711.5,701.4,1697.8L701.4,1697.8z M752,1620.6c0.5-1.7,0.9-3.5,1.5-5.2
	c0.5-1.1,1-2.2,1.5-3.3c3.1-2.5,6-5,9.2-7.3c12.1-9,35.5-6.9,43,12.8c6.7,17.5-2.9,34.1-19,38.8C767.1,1662.5,746,1642.1,752,1620.6
	z M623.4,2010.4c-0.6,4.3-3.6,7.8-7.8,8.9c-2.4,0.6-4.9-0.3-6.3-2.3c-2.1-2.7-2.3-6.3-0.5-9.2c2-3.1,4.2-5.9,8-5.8
	c4,0.2,7,3.7,6.7,7.6C623.5,2009.9,623.5,2010.1,623.4,2010.4z M589.5,2025.8c-0.4,3.6-3.6,6.2-7.2,5.8c-0.2,0-0.4,0-0.5-0.1
	c-4-0.3-7-3.9-6.7-7.9c0.3-4,3.9-7,7.9-6.7c2.5,0.2,4.6,1.3,6.6,4.2C589.7,2022.7,589.7,2024.3,589.5,2025.8z M549.7,2032.4
	c-0.8-2.3-0.3-4.8,1.3-6.7c0.7-0.6,1.5-1,2.3-1.4c0.8,0.2,1.6,0.6,2.3,1.1c2.2,2.4,2,6.1-0.5,8.3c-0.1,0.1-0.3,0.2-0.4,0.3
	c-1.5,1-3.6,0.7-4.6-0.9C549.9,2033,549.8,2032.7,549.7,2032.4z M675.1,2105.7c-41.6-17.6-82.1-37.8-121.1-60.5
	c3.2-0.3,6.2-1.7,8.6-3.8c1.8-1.5,3.4-3.2,5-4.8c16.2,10.9,28.8,5.8,34.3-10.6c1,0.3,2,0.7,3,1.1c12.8,7.6,26.4-1,28.8-13
	c0.4-2,1.1-4,1.8-6.2c3,0.8,5.6,1.3,8.1,2.1c5,1.6,9.5,0.3,14-1.8c8.9-4,13.6-16.5,10.5-23.6c-0.8-2.3-1.5-4.6-2.1-6.9
	c3.9-0.8,7.5-1.4,10.9-2.3c14.8-4.2,24.1-21.9,16.4-37c-0.5-0.8-0.9-1.5-1.3-2.4c-0.3-1.1-0.5-2.2-0.6-3.4c3.4-0.8,6.4-1.2,9.2-2.1
	c17.3-5.1,25-23.2,21.6-36.9c-1.8-7.4-6-14-11.9-18.8c-1.1-0.9-2.7-1.6-2.4-3.8c2.4-1.4,5-2.8,7.5-4.4c11.6-7.9,17.5-19,17.5-33
	c0-12.1-5.1-22.1-14.5-30c-1.8-1.5-4.4-2.1-5-5.2c2.9-1.4,5.9-2.8,8.8-4.4c10.4-5.3,17.9-14.8,20.8-26.1c3.2-12.2,1.7-24-5.3-34.7
	c-1.9-3-4-5.9-6-8.8c0.6-0.5,0.8-0.7,1.1-0.8c2-0.6,4.1-1.2,6.1-1.8c15.2-4.6,24.5-14.7,28.7-29.9c1.8-6.4,1.8-13.2,0.1-19.7
	c-0.4-1.7-0.9-3.6,1.3-5c1.7,0.2,3.4,0.4,5.1,0.8c16.3,4.1,39.4-6.5,45.7-28.2c1-3.4,1.8-6.9,2.8-11c3.3,1.8,6,3.6,9,5
	c19.3,9.6,42.7,2.4,53.3-16.4c6.8-12.5,7.3-25.2,1.5-38.2c-0.5-1-1.5-2.1-0.1-3.2c3.6,0.3,7.2,0.5,10.7,0.5
	c11.5-0.6,20.9-5.3,28-14.4c10-12.7,11-33.4-1.3-47.7c-1.1-1.2-3-2.1-2.4-4.3c2.5-1.1,5-2.1,7.4-3.3c16.8-8.5,23.5-29.1,14.9-45.8
	c-1.2-2.4-2.7-4.6-4.4-6.6c-2.5-2.9-6-5-9-7.4c-1.1-0.9-2.8-1.3-2.9-3.5c0.9-0.8,2-1.8,3.2-2.8c15.3-13.3,13.5-34.9,3-45.3
	c-1.3-1.4-2.4-2.9-3.5-4.4c5.2-6.2,10.1-12,10.1-20.7s-3.8-15-9.6-21.2c2.5-1.7,4.9-3,7-4.7c7-5.8,10.6-13,8.3-22.3
	c-0.3-1.7-0.5-3.3-0.6-5c14-6.5,11.7-4.8,19.3-17.3c2.5,0.6,5.1,1.3,7.7,1.8c4.8,1,9.8-0.1,13.8-3c4.3-2.8,6.7-7.7,6.5-12.8
	c25.5,14.9,53.9,24.3,83.3,27.7c-2.7,2.7-4.5,6.2-5.3,9.9c-0.4,2-0.7,4-1,5.9c-2-0.1-3.9-0.1-5.9,0c-1.8,0.2-3.6,0.7-5.3,1.3
	c-8,2.9-12.2,9.6-12.2,18.1c-0.1,5.6,2,11,5.8,15.1c-2.6,2.5-5.2,4.7-7.3,7.1c-5.5,6.2-6.3,13.7-2.4,20.9c0.6,1.1,1.2,2.1,1.8,3.2
	c2.2,4.7,6.2,8.4,11.1,10.1c1.3,0.4,3,0.7,3.1,2.7c-1.4,2-2.9,3.9-4.1,5.9c-2.4,3.9-3.6,8.4-3.5,12.9c0,1.8,0.4,3.6,1.1,5.2
	c3.7,7.7,8.2,14.8,16.8,18.1c0.5,0.2,0.8,0.8,1.1,1.2c-1.2,4.4-2.8,8.7-3.4,13.1c-1.2,8.7,0.2,16.8,7.4,23c1.3,1.2,2.6,2.5,3.8,3.9
	c4.1,4.5,9.8,7.3,15.8,7.9c1.7,0.2,3.4,0.6,5.7,1c-0.9,2.2-1.5,3.9-2.3,5.4c-3.2,6.2-3.3,12.8-2.8,19.4c0.2,4,1.6,7.8,4,10.9
	c5,6,10,12.2,17.7,15.1c1.3,0.5,3,0.8,3,2.8c-0.1,0.3-0.3,0.6-0.4,0.8c-0.6,0.7-1.2,1.4-1.8,2c-8.1,8.7-11.3,19-10.1,30.8
	c0.9,8.1,3.4,15.1,10.3,20.3c3,2.2,5.7,4.8,7.9,7.8c-3.2,1.3-6,2.4-8.7,3.6c-12.8,5.9-19.9,16.2-22.9,29.7c-0.4,2.4-0.3,4.8,0.2,7.1
	c1.2,6.5,2.6,12.9,3.9,19.5c-2.3,1.9-5.1,0.8-7.7,0.9c-14.8,0.3-26.1,6.8-34.2,18.9c-3.8,5.6-6.3,11.6-4.8,18.7c0.4,2,0,4.2,0,6.3
	c-0.1,7,2.1,13.8,6.2,19.5c1.5,2.2,3.4,4.2,5.1,6.4c0.7,1,1.3,2.1,1.8,3.3c-2.2,0.8-3.8,1.6-5.5,2c-6.7,2-12.7,5.9-17.2,11.3
	c-10.6,12-14.8,25.3-8.4,40.8c0.2,0.6,0.4,1.2,0.6,1.7c3.9,10.6,12.1,19.1,22.7,23.4c1.6,0.7,3.2,1.4,5.1,2.3
	c-0.6,0.8-1.2,1.6-1.9,2.3c-14.7,11.8-19.6,26.8-15.4,45.1c4.7,20.2,22.1,30.8,35.3,32c2.9,0.2,5.9,0.6,9.4,1
	c-3.4,6.1-7,11.2-8.9,17.2c-2,6.5-0.2,12.6,0.5,18.8s3.6,11.5,7.4,16.3c4,4.9,9.2,8.8,15.1,11.2c5.9,2.6,12.3,2.1,19.7,3.6
	c-4.9,5.9-4.8,12.3-5.1,18.5c-0.4,12.1,4.3,21.7,15,27.9c2.6,1.5,5.4,2.6,8.5,4.1c-0.7,1-1.4,2-2.2,2.8c-8,6.9-9,16-7.7,25.6
	c0.8,6.3,4.2,11.1,9,15.2c1.7,1.4,4.6,1.9,4.9,5.2c-1.3,1-2.8,2.1-4.1,3.3c-4.1,3.5-6.2,8-7.2,13.2c-0.8,4.6,0.6,8.3,3,12
	c0.6,1.2,1,2.4,1.4,3.6c-1.8,0.6-3.2,1-4.6,1.4c-10.5,3.7-15.3,13-12.3,23.7c0.6,1.9,1,3.9,1.5,5.7c-0.7,0.4-1,0.6-1.2,0.7
	c-0.6,0.1-1.2,0-1.8-0.1c-5.2-1.6-9.5,0.5-13.6,3.2s-6.2,6.5-7.2,11.1c-0.4,2-0.9,4-1.4,6c-2.2,0.1-4.5,0.2-6.7,0.5
	c-5.4,1-9.3,4-11.2,9.4c-2,5.6-1.4,10.7,2.4,15.3c1.4,1.6,2.9,3,4.6,4.3l0.3,0.2c-69-0.9-137.8-8.2-205.5-22
	C809.8,2154.9,741.2,2133.6,675.1,2105.7z M1143.8,2097c0.3-6.3,4.1-9.9,10.5-9.7s10.1,4.1,9.8,10.2c-0.3,5.6-5.1,10-10.7,9.9
	C1145.9,2106.6,1143.4,2102.9,1143.8,2097L1143.8,2097z M1144.2,2130.2c-0.2,1.8-0.2,2.7-0.4,3.5c-0.7,3.5-3.6,6.2-6.7,6.2
	c-3.5-0.1-7.3-3.1-7.5-6.5c-0.2-2.4,0.1-4.7,0.7-7c0.6-2.4,2.7-4.2,5.1-4.4c2.7-0.6,5.5,0.7,6.8,3.2
	C1143.1,2126.9,1143.7,2128.5,1144.2,2130.2z M1154.7,2067.2c-3.3,0.4-6.7-0.5-9.3-2.6c-4.5-3.5-7.5-8-6.4-14
	c1.3-7,6.9-12.5,12.9-13.5c8.5-1.4,16,4.4,16.5,14.6C1168.3,2059.6,1162.5,2066.1,1154.7,2067.2L1154.7,2067.2z M1146.6,2018.5
	c-10.9,0.2-21.5-10.3-20.8-20.8c0.6-10.7,10.7-20.9,20.6-20.3c11.2,0,20.9,9.3,20.7,20.8C1166.7,2009.4,1157.7,2018.3,1146.6,2018.5
	L1146.6,2018.5z M1143.5,1939.7c-0.7,18.8-15,27.2-28,27c-14.3-0.1-28-13-27.7-25.8c0.5-16.6,12.8-28.8,28.5-29.1
	C1127.8,1911.6,1144.2,1921.6,1143.5,1939.7L1143.5,1939.7z M1115,1869.3c0.2,14.6-12.7,31-32.6,30.4c-17.2-0.5-31.3-16-30.8-30.7
	c0.7-19.5,15.3-32.8,32.1-32.5C1105.3,1837,1116.1,1854.8,1115,1869.3z M1073.8,1820.7c-6.8,1.3-13.3-0.3-19.2-3.5
	c-4.4-2.6-8.2-6.2-11.1-10.4c-3.2-4.5-3.2-9.6-3.2-14.1c-0.8-12.7,4.4-21.6,14.5-27.8c16.9-10.3,40.4,0.3,43.8,19.8
	C1102,1804.8,1089.5,1817.6,1073.8,1820.7L1073.8,1820.7z M1058.5,1719.7c-0.4-2.4-0.1-4.8,0.8-7.1c0.9-2.2,1.7-4.5,2.7-6.7
	c5.2-11.4,14.8-17.4,27.2-17.1c14.3-0.4,26.3,12,27.6,24.9c1.5,15.2-6.9,27.7-21,31.7C1078.8,1750.2,1060.7,1738.4,1058.5,1719.7
	L1058.5,1719.7z M1102.8,1663c-0.4-1.1-0.6-2.3-0.6-3.5c1.4-11.8,4.9-22.3,16.2-28.5c14.2-7.7,32-2.4,39.7,11.8
	c0.6,1.1,1.1,2.2,1.5,3.3c7,17.3-5.9,40.2-27.6,39.5C1118.2,1685.6,1106.3,1676.3,1102.8,1663L1102.8,1663z M1144.5,1609.3
	c-7.7,0.7-15.4-1.9-21-7.3c-1.5-2.9-2.8-5.2-4-7.7c-6.1-13-0.5-28.5,12.5-34.6c13-6.1,28.5-0.5,34.6,12.5c6.1,13,0.5,28.5-12.5,34.6
	C1151.1,1608.3,1147.8,1609.2,1144.5,1609.3L1144.5,1609.3z M1135.4,1540.9c-2.7,1.2-5.8,1.4-8.7,2c-4.3-0.1-8.5-1.3-12.2-3.4
	c-3.5-2-6.3-4.6-7.4-8.7c-0.4-1.7-1.2-3.4-1.8-5.1c-2.8-9.6,1.1-19.8,9.6-25c8.8-5.4,20.1-4.3,27.5,2.8
	C1153.1,1513.3,1152.7,1533.1,1135.4,1540.9L1135.4,1540.9z M1110.4,1480.7c-3.3,5-8.9,7.8-14.8,7.5c-4.6,0.2-8.6-1.7-12.4-4.3
	c-0.8-0.5-1.4-1.1-1.9-1.9c-2.8-5.4-5.2-10.9-3.9-17.2c2.8-13.9,18.8-19.5,29.5-10.3C1114.6,1461,1116.2,1472.3,1110.4,1480.7
	L1110.4,1480.7z M1074.8,1440.8c-7.6-0.1-13.8-5.7-13.7-12.6c0.1-10.7,6.1-15.9,14.4-16.1c7.7-0.2,14.1,6.8,13.9,14.7
	C1089.3,1434.7,1082.8,1441,1074.8,1440.8L1074.8,1440.8z M1064.1,1395.3c-2.1,0.4-4.2,0.3-6.2-0.2c-2.9-0.7-5.4-2.6-6.7-5.3
	c-0.1-2.2-0.1-4.3,0-6.5c0.5-5.3,5-9.4,10.3-9.4c5.7,0.2,10.3,4.5,10.9,10.1C1072.8,1389.3,1069.3,1394.1,1064.1,1395.3
	L1064.1,1395.3z M1055.7,1350.6c0.2-2.8,1.5-5.5,3.6-7.4c2.7-2.6,6.9-2.7,9.7-0.2c2.7,2.5,3.2,6.6,1.1,9.7c-3,4.5-8.2,5.1-12.2,1.3
	C1057.1,1353,1056.3,1351.9,1055.7,1350.6L1055.7,1350.6z M1122.2,2159.7c0,3.7-3.1,6.8-6.9,6.7c0,0,0,0,0,0c-4.8-0.1-7.9-3.5-7.5-8
	c0.5-4,3.9-7,8-6.9C1119.5,2151.7,1122.4,2155.3,1122.2,2159.7L1122.2,2159.7z M1088.2,2176.3c0.3-1.7,2.4-3.3,3.9-2.8
	c3.2,0.9,5,4.2,4.1,7.3c0,0.1-0.1,0.2-0.1,0.3c-0.6,1.5-2,2.5-3.7,2.5c-0.7-0.2-1.4-0.5-2.1-0.9
	C1088.5,2181,1087.7,2178.6,1088.2,2176.3L1088.2,2176.3z M1319.9,2169.3c-72.1,14.7-145.5,22.1-219.1,22.2c2.4-1.6,4.2-3.8,5.2-6.5
	c1-2.5,1.6-5.1,2.5-8.1c1.5,0.1,3,0.3,4.4,0.4c5.3,0.4,10.2-0.8,14.2-4.5c4-3.4,6.2-8.3,6.2-13.6c0-2.6-1.3-5.4,0.9-8.1
	c7.7-0.5,14.6-2.9,18.5-10.5c3.8-7.3,2.1-14.5-0.7-21.9c3.3-0.9,6.2-1.5,9.1-2.5c8.9-3,14.6-11.6,13.8-21
	c-0.2-5.8-3.1-11.2-7.7-14.8c-1.3-1.1-3.3-1.7-3-4c2.6-2,5.2-4.1,7.6-6.4c6.5-6.8,8.9-14.8,7-24.1c-1.6-8-6.2-13.6-13-17.7
	c-1.2-0.7-2.8-1.2-2.5-3.4c11.7-8,17.2-19,14.6-33.3c-1-6-3.8-11.6-8-16c-6.4-6.6-14.6-9.2-23.7-10.2c0.6-3.6,3-5.7,4.3-8.3
	c9.7-18.4,2.9-41-13.5-51c-4.3-2.8-9.2-4.7-14.2-5.5c-2.5-0.4-5.3-0.3-7.4-2.2c2.6-4.5,5.3-8.5,7.4-12.8c8.4-17,2.5-36.6-7.7-47
	c-5.2-5.4-11.4-8.8-18.1-11.7c-1.3-0.6-2.9-1-2.9-2.9c2.8-3.1,6-6,8.4-9.4c2.4-3.5,4.3-7.2,5.7-11.2c1.1-3.8,1.7-7.7,1.6-11.6
	c0.2-4.2-0.2-8.4-1.2-12.5c-1.2-4-3-7.9-5.4-11.4c-2.2-3.5-5.1-6.5-8.3-10.4c8.9-2.5,16.5-5.8,22.5-12.1c6.3-6.6,9.7-14.5,11.3-23.3
	c1.5-8.6-1.5-16.6-4.6-25.1c2.9-0.1,5.2-0.4,7.6-0.3c10.2,0.5,18.9-3.3,26.7-9.5c11.6-9.2,17.1-26.5,13.2-40.8
	c-2.5-9.7-8.3-18.3-16.5-24.2c-1-0.7-1.9-1.4-1.4-3.1c2.5-1.2,5.2-2.5,7.8-4c15.2-8.8,22.2-27,16.8-43.8
	c-3.6-11-10.9-18.6-21.4-23.2c-2.2-1-4.4-1.7-7.1-2.8c1-1.4,1.7-2.4,2.4-3.2c9.6-11.4,10.9-24.2,5-37.2
	c-5.6-12.2-15.8-18.6-29.5-19.1c-1.7,0-3.4-0.4-5.7-0.7c0.9-3,1.8-5.6,2.5-8.2c1.3-5,1.3-10.2-0.1-15.2c-2.9-11-9.7-18.5-20.4-22.4
	c-1.9-0.7-4.2-0.7-5.5-3.5c0.6-4.5,2.3-9.4,0.9-14.6c-1.3-5.3-4.2-10.1-8.1-13.8c-3.8-3.7-9.1-4.4-13.4-6.7c1.8-4.3,3.6-8.1,4.9-12
	c1.4-4.4,0.8-9.2-1.6-13.1c-2-3.6-4.7-6.8-7.1-10.2c8.1-9.9,8.1-9.9,8.3-24.7c2.7-0.6,5.1-1,7.3-1.7c5-1.6,9-5.3,11-10.1
	c2.1-4.5,1.7-9.7-0.9-13.9c28,0,55.8-5.4,81.7-16.1c-1.3,3.7-1.3,7.7-0.2,11.4c0.6,2,1.4,3.9,2.2,6.1c-1.1,0.8-2,1.6-2.9,2.2
	s-2,1.3-3,2c-7,5.1-11,17.5-3.4,26.5c2.2,2.6,4.3,5,7.4,6.6c1.3,0.7,2.4,1.6,3.6,2.3c-0.9,3.7-1.9,6.8-2.4,10.1
	c-1,6.4,0.6,12.6,5.5,16.4c5.6,4.4,11.9,8.5,19.8,7.5c1.3-0.2,2.8,0.4,4.4,0.7c-0.1,2.8-0.1,5.7,0.1,8.5c0.9,7.4,2.7,14.3,10.5,17.7
	c1.3,0.7,2.6,1.5,3.8,2.4c3.4,2,7.3,3,11.2,2.9c2.1,0,4.1-0.2,6.5-0.3c0.8,3.7,1.3,7.3,2.5,10.7c3.3,9.6,8.6,17.3,19.5,19.2
	c1.2,0.2,2.3,0.8,3.5,1c6.9,1.6,13.7,1.8,20.4-1.3c1-0.5,2.1-1.4,3.8,0.1c0.5,1.8,0.9,3.7,1.2,5.5c0.6,8,4.5,14.3,9.8,19.9
	c1.8,1.9,4.1,4,6.5,4.7c6.8,2.1,13.6,5.2,21.1,4.2c1.7-0.2,3.6-0.7,4.8,0.5c-0.2,6.3-0.6,12.3-0.4,18.2c0.3,7.9,4,14.4,9.2,20.2
	c5,5.5,10.8,9.5,18.6,10c2.9,0.2,6,0.5,8.6,3.1c-1.5,1.9-3.1,3.7-4.4,5.7c-7.7,11-10.4,23-6.3,36.1c0.6,2.3,1.7,4.5,3.1,6.4
	c4.2,4.7,7.4,10.3,12.6,14.2c1.2,0.9,2.4,1.9,1.7,3.7c-2.9,1.7-5.9,3.2-8.6,5c-12.9,9.1-18.7,21.7-17.8,37.4
	c0.3,4.2,1.3,8.3,4.2,11.7c0.8,0.9,1.4,1.9,1.9,3c5.1,10.9,13.6,17.4,25.1,20.4c1.2,0.3,2.3,0.7,2.6,2.6c-1.4,1.6-3,3.4-4.5,5.2
	c-5.9,7.3-9.4,15.7-9.4,25c0,19.1,8,29.9,24.9,38.5c4.9,2.5,10.3,3.6,15.8,3.4c2.7-0.1,5.4-0.3,8.1-0.3c1.1,0.1,2.1,0.4,3.1,0.8
	c-7.3,26-1.6,36.6,11.8,50.8c5,5.3,11.7,8.2,19,10c11.9,2.9,22.6-0.6,33.1-5.6c1.7,3-0.2,5.7,0.2,8.3c0.5,3,0.6,6,1.3,9
	c0.5,2.7,1.4,5.2,2.7,7.6c1.6,2.6,3.3,5,5.3,7.3c1.7,2.1,3.5,4.2,5.5,6c2.2,2,4.7,3.8,7.3,5.3c2.4,1.3,4.9,2.3,7.6,2.9
	c3,0.6,6,1,9,1c2.7,0.1,5.4,0,8.1-0.5c2.9-0.6,5.8-1.8,8.7-2.6c2.5-0.7,4.3-3.1,7.6-3.1c0.3,5.5,0.9,10.4,3.7,15
	c2.7,4.4,4.8,9.1,8.9,12.4s8.5,5.9,13.7,6.6c5,0.7,10,0.4,15.1,0.6c-5.3,20.6,6.2,36.8,28.4,39.1c-0.8,1.9-1.6,3.9-2.2,5.9
	c-1.3,4.7-1.2,9.7,0.4,14.2c1.5,4.3,4.9,7.8,9.2,9.4c1.3,0.4,2.1,1.6,1.9,2.9c-0.5,0.7-1,1.4-1.6,2c-8.8,7.4-7.7,21.9,0.7,27.8
	c1.4,1,3,2.2,2.9,4.3c-15,9.1-16,16.8-10.3,30.6c-2,1.2-3.7,1.9-5.2,3c-3,2.1-5.1,5.3-5.7,8.9c-1,6.2,0.8,11.5,5.7,15.3
	c2.8,2.2,6.3,3.5,9.9,3.6C1532.4,2108.7,1428.2,2147.2,1319.9,2169.3L1319.9,2169.3z M1223.7,1397.7c-0.2-7.6,6.4-14.3,14.3-14.2
	c7.2,0,14.1,6.5,14.2,13.6c0,8.6-5.8,15-14.4,14.9C1230,1412.1,1224,1406,1223.7,1397.7L1223.7,1397.7z M1258,1423.6
	c0-11.7,10.3-19.7,22.3-17.2c10.6,2.2,19.2,15.2,13.6,26.8c-3.3,7-12.8,11.9-20.4,10.4c-0.6-0.1-1.2-0.3-1.7-0.5
	C1264.5,1440.5,1258,1431.4,1258,1423.6L1258,1423.6z M1422.2,1745.5c-8.8,2.2-16.7,0.6-24.1-4.2c-5.5-3.6-8.4-9.4-10.8-15.2
	c-7.1-17.1,6.1-40.2,28-39.4c16.4-0.6,28.3,13.6,29.5,25.3C1446.4,1728.3,1437.5,1741.6,1422.2,1745.5L1422.2,1745.5z
	 M1465.8,1744.6c19.3,0,32.2,16,31.6,31.3c0.3,17.2-12.8,31-31.3,32c-20.2-2.1-31-11.9-31.6-31.5
	C1434.1,1757.4,1449.6,1744.6,1465.8,1744.6L1465.8,1744.6z M1385.4,1670.8c-3.4-1.2-6.6-2.9-9.6-5c-5.6-4-9.3-9.1-9.3-16.6
	c0-6.3-0.6-12.5,2.2-18.6c6-13.2,21.2-19.1,35-15c11.3,3.3,20.7,15.6,19.6,28.3C1423.9,1661.9,1404.3,1677.7,1385.4,1670.8
	L1385.4,1670.8z M1402.2,1597.8c-4.2-0.1-8.4-0.9-12.3-2.5c-7.7-2.9-13.4-8-14.9-16.7c-0.6-3.5-1.3-7.1-1.9-10.6
	c-0.1-13.1,9.3-27.1,27.2-28.8c11.9-1.1,22.7,5,28.4,17C1438.2,1576,1423.4,1597.2,1402.2,1597.8L1402.2,1597.8z M1397,1513.4
	c-5.2,8.6-13.3,12.8-24.3,12.8c-6.8,0.3-12.3-4.2-17-9.2c-7.4-7.9-9.1-17.6-4.8-27.7c4.1-9.8,12-15,22.4-15.6s18.8,4,24,13.1
	C1402.4,1495.6,1402.2,1504.9,1397,1513.4L1397,1513.4z M1328.6,1476.2c-10.1,0.5-22-12.8-21.9-22.7c0.2-13.3,9.8-22.9,22.6-23.4
	c12.1-0.5,22.6,10.1,22.8,22.2S1342.7,1475.5,1328.6,1476.2L1328.6,1476.2z M1529.6,1794c15.8,0.1,27.4,11.5,27.6,27.4
	c0.9,13.3-11.4,28-27.4,27.5c-15.3-0.5-26.9-9.2-27.4-27.1C1501.9,1807.6,1513.5,1793.9,1529.6,1794z M1629.6,2045.4
	c-2.9-1.2-4.7-2.7-5.2-5.3c-0.3-1.8,0.8-3.6,2.6-4.2c2.8-0.3,5.4,1.3,6.3,4C1633.8,2041.9,1633,2043.2,1629.6,2045.4L1629.6,2045.4z
	 M1631.7,2012.8c-0.3-3.8,2.9-7.6,6.9-8.2c3.5-0.4,7.3,3.3,7.5,7.4c0.3,3.8-2.5,7.1-6.3,7.5
	C1635.7,2019.9,1632,2016.9,1631.7,2012.8L1631.7,2012.8z M1638.8,1982.7c-1.3-2-2.3-4.2-3-6.5c-1.3-4.7,3.3-9.1,8-7.8
	c4.5,1.3,7.6,5.3,7.7,10c0.2,3.1-1.7,6-4.6,7C1643.8,1986.2,1640.6,1985.1,1638.8,1982.7L1638.8,1982.7z M1641.1,1949.7
	c-5,0.1-9.5-4.4-9.7-9.8c-0.2-5.9,4.3-10.8,10.2-11c0.1,0,0.2,0,0.4,0c5.1-0.1,9.6,4.4,9.7,9.8c0.2,5.9-4.4,10.8-10.3,11
	C1641.2,1949.6,1641.1,1949.6,1641.1,1949.7L1641.1,1949.7z M1619.5,1915.3c-8.1,0.1-14.8-6.3-15-14.5c0,0,0-0.1,0-0.1
	c-0.1-9.1,6.3-16.1,14.7-16c7.8,0.2,14.2,7.2,14.1,15.7C1633.2,1908.8,1627.3,1915.1,1619.5,1915.3L1619.5,1915.3z M1605.9,1857.7
	c-0.5,11.3-10.1,20.1-21.4,19.6c0,0,0,0-0.1,0c-11-1.2-19.7-6.9-19.1-21.4c0.4-11.1,9.6-19.8,20.7-19.6
	C1597.3,1836.6,1606.5,1847.3,1605.9,1857.7L1605.9,1857.7z M1871.9,1871.8c-49.5,49.5-103.6,94.1-161.6,133.3
	c-21.9,14.8-44.3,28.7-67.2,41.9c1-2.2,1.4-4.6,1-7c-0.4-2.9-1.2-5.8-1.8-8.6c15.6-7.2,20.3-19.7,8.2-35.1
	c15.7-8.8,16.6-24.9,0.3-38c2.2-2,4.4-4,6.5-6c9.1-9.2,6.9-28.8-9.4-33.5c-2.6-0.7-5.2-1.3-8.4-2c0.9-1.8,1.8-3.3,2.4-4.9
	c7.8-18.6-3.5-36.8-23.7-38.2c-1.4-0.1-2.8-0.4-4.8-0.8c0.9-2.5,1.7-4.4,2.3-6.3c5.6-16.6-3.4-34.6-20-40.2
	c-6.6-2.2-13.8-2.2-20.4,0.1c-1.9,0.7-3.9,1.3-5.7,1.9c-0.5-0.6-0.8-0.9-0.8-1.1c-0.2-2.7-0.3-5.4-0.5-8
	c-0.8-15.2-8.1-26.3-21.7-33.1c-10.6-5.3-21.4-5.4-32.4-0.8c-1.8,0.7-3.4,2.6-6,1.4c0.1-1.8,0.2-3.6,0.4-5.4
	c1.8-17.4-4.1-31.4-18.6-41.4c-9.3-6.5-20.9-8.9-32-6.7c-1.7,0.3-3.4,1.5-5.1-0.6c0.8-2.2,1.5-4.5,2-6.8
	c2.8-14.9-0.2-28.1-11.2-39.1c-5.3-5.3-11.7-8.5-18.7-10.7c-1.4-0.4-2.9-0.8-3-2.6c2.6-3.4,5.2-6.7,7.7-10.1s3.5-7.6,4.5-11.7
	c1.2-4.1,1.5-8.4,0.9-12.6c-0.6-4.2-1.7-8.2-3.3-12.2c-1.7-3.8-4-7.4-6.7-10.7c-2.6-3.2-5.9-5.8-9.3-9c1.7-1,2.9-1.8,4.2-2.5
	s2.7-1.4,4-2.2c14.1-8.4,22.7-27.7,17.6-44.8c-5.2-17.5-17.2-27.1-34.8-30.2c-1.6-0.3-3.7,0.7-4.8-2c0.6-0.8,1.2-1.8,1.9-2.7
	c0.9-1.2,1.9-2.4,2.6-3.7c7.4-12.5,7.8-25.3,0.9-37.9c-6.8-12.3-17.6-18.8-31.8-19c-3.3,0.1-6.6,0.3-9.9,0.8
	c-1.2,0.1-2.3,0.4-3.1-0.9c0.3-3.3,0.8-6.6,0.7-9.9c0.1-8.9-3.5-17.4-9.8-23.6c-10.3-10.5-25.4-12.5-38.5-6.9
	c-2.2,0.9-3.9,3.1-7,2.3c-0.7-2.4-1.3-5-2.1-7.5c-3.8-12-12-19.3-24.1-22.2c-4.4-1-9.1-0.9-13.4,0.4c-1.6,0.5-3.4,0.3-5.5,0.4
	c-0.9-5.2-3.2-10.1-6.5-14.1c-3.5-4.1-8.1-6-13-7.7s-10.1,0.5-14.6,0.1c-0.6-0.7-1-0.9-1-1.2c-0.2-1.2-0.3-2.4-0.4-3.6
	c-0.6-11.3-6.4-18.5-17.1-21.9c-1.4-0.4-3-0.3-3.8-2.6c2.9-8.6,1.5-16.8-5.7-24c1.7-1.4,3.1-2.5,4.4-3.6c5.7-4.8,7.1-11.1,5.7-18
	c-0.8-4.3-3.6-8-7.6-9.9c20.9-11.5,39.8-26.3,55.9-44c1.4,1.1,2.8,2.1,4.4,2.9c2.5,1,5.2,1.5,7.7,2.5c1.5,0.7,3,1.5,4.3,2.5
	c-0.8,5.6-1.6,10.6-2.3,15.3c0.8,4.1,3.4,6,6.9,6.7c5,1.1,10,2,15.3,3.1c0.8,2,1.6,3.9,2.2,5.8c1.1,3.4,1.9,7,3.2,10.4
	c1.2,3.1,2.6,6.2,7.2,7.3c3.4-0.7,7.5-1.6,11.6-2.2c2.1-0.2,4.1-0.2,6.2-0.1c1.3,2.3,2.5,4.4,3.7,6.5c2.4,4.2,4.7,8.4,7.3,12.5
	c1.1,1.7,2.8,3,4.4,4.6c8.5-1.9,15.8-6.8,24.1-8c4.2,3,6.8,7.1,10,10.7c2.8,3.2,5.4,6.5,8.3,9.6c1.4,1.4,3.3,2.4,5.1,3.6
	c2.5-1,4.8-1.8,7-2.8c6-2.7,12-5.6,18.1-8.3c1.9-0.8,3.9-1.4,5.7-2c5.8,3.6,9.9,8.5,14.5,12.8c2.7,2.5,5.2,5,7.9,7.4
	c3,2.7,6.5,3,10.2,1.7c1.7-0.7,3.3-1.6,4.8-2.5c5.7-3.3,11.4-6.7,17.2-10c1.5-0.9,3-2.2,5.5-1.4c3,2.7,5.4,6.6,8.3,10.1
	c4.2,5.2,8.3,10.3,12.6,15.5c1.5,1.9,3.1,3.7,6.1,4.3c5.1-1.5,10.6-3.1,16.1-4.6s10.7-4,16.9-3.8c0.4,1.5,0.7,3,0.9,4.5
	c0.8,9.6,1.6,19.2,2.3,28.8c0.2,3.7,0.7,7.2,2.7,10.2c2.8,2.4,6.5,3.5,10.2,3.2c5.7-0.3,11.4-0.7,17.1-0.9c6-0.2,12-0.2,18.1-0.3
	c0.5,0,1,0.5,1.8,1c1.2,2.7,0.6,5.7,0.6,8.7c0.1,10.9,0.1,21.7,0.2,32.6c0,2.3,0.4,4.7,0.7,7.4c2.1,0.9,3.9,2.1,5.9,2.5
	c9.4,2,18.9,3.9,28.4,5.7c3.5,0.7,7.1,1.1,10.6,2.9c1,3.5,2,6.9,3,10.4c3,10.1,6,20.2,9,30.3c1,3.4,2.8,6,6.9,6.5
	c6.2-1.7,12.5-3.6,18.9-5.2c6.6-1.7,13.1-4.4,20.2-5.1c1,1.7,2.1,3.2,2.9,4.7c3.8,6.9,7.4,13.8,11.2,20.7
	c4.4,7.9,8.8,15.8,13.2,23.7c1.2,2.1,2.4,4.2,5.9,4.9c1.6-0.7,3.9-1.6,6-2.7c11.2-5.8,22.5-11.7,33.7-17.6c1.8-0.9,3.7-1.7,5.7-2.5
	c8.4,7.6,16.4,14.9,24.5,22.1c3.6,3.2,7.2,6.4,11,9.4c1.7,1.2,3.5,2.3,5.4,3.2c3.9-0.4,5.7-2.5,7.8-4.2c8.2-7.2,16.3-14.4,24.4-21.6
	c1.1-1,2.1-2.2,4.5-1.9c1.6,1.5,3.6,3.2,5.5,5.1c5.8,5.7,11.5,11.5,17.3,17.3c2.4,2.3,4.8,4.6,8.5,4.4c3.5-0.8,5.8-3.2,8.2-5.5
	c4.8-4.6,9.6-9.2,14.4-13.7c1.1-1,2.1-2.2,4.4-1.7c1.3,1.8,2.9,4,4.5,6.2c1.9,2.7,3.7,5.5,5.6,8.2c1.4,2,3.3,3.6,5.9,3.8
	c6.9-0.8,12.9-4.8,20.1-5.8c1,3.2,1.8,6.5,2.3,9.9c0.5,3.3,1.2,6.5,2.2,9.7c0.6,1.9,2,3.6,2.8,4.9c1.2,0.3,1.9,0.6,2.4,0.5
	c4.4-0.9,8.8-1.9,13.6-3c0.3,1.4,0.5,2.9,0.7,4.3c0.1,3.9-0.1,7.8,0,11.8c0,2.1,0.1,4.2,0.4,6.3c0.5,3.1,3.1,5.4,6.3,5.6
	c3.3,0.2,6.7,0,10,0.1c1.6,0.2,3.2,0.5,4.8,1c1.1,7.4-0.9,14.4,1.4,21.8l15.1,9.3c0.4,3.7-0.3,7.2-0.8,10.8c-0.7,4.7-1.9,9.6,1,13.9
	c6.9,3.2,14.1,5.9,21.5,8c-8.5,13.8-17.2,27.5-26.3,40.9C1966,1768.4,1921.3,1822.4,1871.9,1871.8L1871.9,1871.8z M2105.8,1524.8
	c-16.2,38.3-34.5,75.6-55,111.7c-4.3-2.7-8.7-5.2-13-7.9c-1.4-1-2.7-2.1-4-3.3l10-25.3c-0.3-1-0.8-1.9-1.3-2.8
	c-0.5-0.7-1.2-1.3-2.1-1.7c-3-1.4-6.1-2.7-9.1-4.1c-4-1.9-8.4-3.2-12.4-6.3c2.5-8.7,5-17.3,7.3-25c-0.9-3.7-2.8-5.2-5.3-5.7
	c-4.1-0.9-8.3-1.6-12.5-2.2c-4.7-0.6-9.3-1.5-13.8-2.8c-0.2-0.7-0.3-1.5-0.3-2.2c0.8-6.3,1.7-12.6,2.5-18.8c0.6-2.6-0.6-5.4-2.9-6.7
	c-9.8-1.6-19.6,2.5-30.2,2.5c-4-11.5-4.8-24-9-36.1c-1.6-0.3-3.3-1.2-4.9-0.9c-2.1,0.5-4,1.2-5.8,2.3c-7,3.5-14,7.2-21,10.7
	c-2.1,1-4.3,1.8-6.6,2.8c-1.4-1.7-2.6-3.1-3.7-4.5c-5.4-7.2-10.9-14.5-16.3-21.7c-2-2.7-4.3-5.1-8.1-5.5c-3.6,0.8-6,3.6-8.6,6.1
	c-7.1,7-14.2,14-21.4,20.9c-1.2,1.2-2.4,2.8-4.6,2.6c-8-8.1-16.1-16.2-24.2-24.3c-5.4-5.3-8.2-5.6-14.3-1.8
	c-1.3,0.8-2.5,1.7-3.7,2.6c-7.2,5-14.3,10-21.6,15c-1.1,0.8-2.3,2.1-4.5,0.9c-0.5-1.6-1.3-3.5-1.8-5.5c-2.4-9-4.8-18.1-7.1-27.1
	c-1-4-2.7-7.3-5.5-9.3c-3.2-1-5.5,0.1-7.7,0.9c-13.1,4.5-26.2,9.1-39.3,13.7c-2,0.7-3.8,1.8-6,0.7c-0.3-0.5-0.8-1-1-1.5
	c-1.4-7.1-2.8-14.2-4.2-21.3c-0.6-3-1-6-3.2-8.2c-3.1-2-6.5-1.2-9.7-1.2s-6.6,0.1-10,0.2s-6.6,0.1-10,0.3s-6.5,0.4-9.5,0.6
	c-1.7-2.7-0.7-5.1-0.3-7.4c2.1-13.1,4.3-26.2,6.3-39.3c0.3-1.7-0.3-3.5-0.5-5.1c-2.5-1.8-5.5-3.1-8.6-3.7
	c-10.9-2.4-21.8-4.8-32.6-7.3c-3.2-0.7-6.5-1.2-9.7-3c-0.2-2.5-0.5-4.8-0.6-7.2c-0.3-8.8-0.3-17.5-0.7-26.2
	c-0.2-3.9-0.7-7.8-1.4-11.7c-0.4-2.2-2.2-3.8-4.3-4.1c-1.2-0.2-2.4-0.3-3.6-0.3c-16.6,0.3-33.2-0.2-49.8,1.3c-2.4,0.2-4.8,0-7.1,0
	c-0.7-1.1-1.4-2.3-2-3.5c-4.7-10.8-9.5-21.5-14.2-32.3c-1-2.3-2.2-4.3-5.9-5c-15.1,5.2-30.2,12.9-46.1,19.4c-1.5-1.5-3-2.9-4.3-4.5
	c-4.9-5.7-9.7-11.5-14.5-17.3c-2-2.7-5.2-4.2-8.5-4.2c-12.3,4.6-23.1,13.8-35.7,19.6c-6.7-5.2-9.1-13.8-15.3-18.5
	c-3.2-0.9-5.8,0-8.4,0.9c-7.1,2.6-14.1,5.2-21.3,7.7c-1.9,0.6-3.7,2.2-6.5,0.8c-2.8-6.1-5.7-12.7-9.1-20.1c-10,0.3-17.7,7-27.1,8.5
	c-1.2-2.4-2.3-4.5-3.4-6.7s-2-4.3-2.9-6.3c-5.4-2.3-11.4-0.4-16.3-4.3c0.6-2.6,1.3-5.2,1.8-7.8c0.4-2.1,0.4-4.2-1.5-6.2
	c-3.1-1.9-7.1-2.3-10.8-3.4c-2.2-0.6-4.8-0.5-6.2-2.6c-0.3-4.7,4.2-8.5,1.2-14c-6-2.9-12.4-5-19-6.1c19.5-30.6,30.9-65.6,33.1-101.8
	c4.6,3.1,11.8,8,16,10.9c4,2.7,8,5.3,11.9,8.2c3.6,2.9,8.6,3.5,12.8,1.3c3.8-1.8,7.6-3.7,11.3-5.6c2.9-1.5,5.8-3.1,9.4-3
	c7.6,11,13.7,22.8,21.8,33.3l7.3,1.3c11.6-6.2,20.6-15.7,32-22.7c0.8,1,1.4,2.2,1.9,3.3c1.4,6.2,2.7,12.4,4.2,18.5
	c0.6,2.6,1.3,5.2,2.3,7.8c1.1,2.3,3.7,3.4,6.1,2.7c1.7-0.6,3.3-1.5,4.8-2.5c7.5-5.1,14.9-10.3,22.3-15.5c2.7-1.9,5.4-3.7,8.5-5.8
	c1,1.7,2,2.8,2.5,4.1c2.7,8.3,5.1,16.7,7.7,25.1c2.3,7.5,4.7,15,7.2,22.4c2,5.7,6.2,7,11.3,3.7c1.7-1.2,3.4-2.5,5-3.8
	c15.2-12.4,30.3-24.9,45.4-37.4c2.3-1.9,4.7-3.8,7-5.7c2.6-2,4.6-4.8,8.2-6.2c0.9,1.6,1.7,3.2,2.4,4.9c2.6,8,5,16.1,7.6,24.2
	c3,9.5,6,19,9,28.5c0.8,2.6,1.7,5.2,5.8,6.4c6.1-3.5,12.9-7.3,19.6-11.2c7.1-4,14.2-8,21.3-11.9c6.8-3.8,13.7-7.5,20.9-11.5
	c1.1,2,2,3.5,2.7,5.1c7.4,17.2,14.7,34.4,22,51.6c1.1,2.8,2.4,5.5,3.9,8.2c0.8,1.4,2.6,2.2,4.1,3.5c3.4-2,6.6-3.7,9.6-5.7
	c14.8-9.8,29.6-19.8,44.4-29.6c1.4-0.9,2.6-2.6,5.2-1.6c0.5,1.1,1.1,2.4,1.7,3.8c5,12,9.9,24,14.8,36c1,2.5,2.2,4.9,3.6,7.3
	c1.5,2.6,4.8,3.5,7.5,2.1c0.7-0.4,1.2-0.9,1.7-1.5c1.1-1.5,2-3,2.9-4.6c10.6-18.3,21.2-36.5,31.8-54.8c0.9-1.5,1.9-2.9,3.6-5.6
	c1.3,3.8,2.1,6.1,2.8,8.3c5.7,16.8,11.4,33.7,17.1,50.6c0.6,2,1.4,4,2.3,5.9c2,4,5.6,4.7,9,2.1c1.6-1.4,3.2-2.8,4.6-4.3
	c4.9-4.9,9.8-9.8,14.7-14.8c1-1,2-2.3,4.3-1.5c3.7,8.2,7.5,16.7,11.4,25.2c2.9,6.3,5.8,12.6,9,18.8c2.7,5.2,5.8,5.4,9.8,1
	c1.8-2,3.5-4.1,5.1-6.3c11-14.7,22-29.5,33.1-44.2c1.4-1.7,2.9-3.2,4.4-4.7c1.9,1.7,3.6,3,5,4.5c5.6,5.5,11.1,11.1,16.7,16.6
	c5.2,5.1,10.4,10.1,15.8,14.9c1.2,1.1,3.1,1.6,4.8,2.5c8.4-6.6,14.1-15.2,21-22.7s13.4-15.4,20.2-22.7c3.2,0.7,4,3.2,5.3,5.1
	c7.3,10.7,14.5,21.5,21.7,32.3c2.3,3.5,4.5,7.2,8.8,9.1c1.1-0.4,2.2-0.9,3.2-1.5c21.1-15.5,42.3-31.1,63.4-46.7
	c1.1-0.8,2.2-2.2,4.5-1.2c0.9,2,2.1,4.4,3.1,6.9c3.4,8.1,6.6,16.2,10.1,24.2c1.1,2.2,2.4,4.3,3.8,6.3c2.4-0.2,4.5,0,6.5-0.5
	c4-1.1,7.9-2.4,11.9-3.7c-3.2,23.2-7.1,46.2-11.8,69C2154.8,1390.2,2133.6,1458.8,2105.8,1524.8L2105.8,1524.8z M2182.6,1240.1
	c-3.2,1.1-6.5,2.1-9.7,3.1c-1.5,0.3-3,0.6-4.5,0.7c-0.9-2-1.7-3.6-2.4-5.2c-3.8-9.2-7.5-18.4-11.3-27.6c-0.7-1.7-1.5-3.3-2.5-4.8
	c-1.4-2.1-4.1-2.9-6.4-1.9c-2.7,1.4-5.2,3-7.7,4.8c-17.4,12.5-34.7,25.1-52,37.7c-3.4,2.4-6.5,5.2-10,7.1c-0.7-0.4-1-0.4-1.2-0.7
	c-9.6-14.6-19.2-29.2-28.8-43.8c-1.2-1.8-2.2-3.6-4.5-4.2c-3.7,0-5.9,2.7-8.1,5.2c-6,6.8-11.9,13.6-17.9,20.4
	c-6.3,7.2-12.7,14.5-19.3,21.9c-1.5-1.2-2.7-2-3.8-3.1c-10.1-10-20.1-20-30.1-30c-1.1-1.1-2.1-2.2-3.2-3.2c-2.7-2.2-5.7-2.2-8.2,0.1
	c-1.7,1.7-3.4,3.5-4.8,5.4c-5.2,6.7-10.3,13.4-15.4,20.1c-7.1,9.4-14.2,18.8-21.2,28c-0.6-0.3-1.1-0.3-1.2-0.5
	c-7.1-15-14.1-30-21.1-45l-3.3-1.5c-6,1.7-9.1,6.9-13.3,10.7c-4.4,4-8.3,8.6-13,12c-2.8-1.2-3-3.4-3.6-5.4
	c-6-18.3-12.1-36.7-18.2-55c-0.6-2-1.4-4-2.4-5.8c-1.6-2.7-5.2-3.6-7.9-2c-0.5,0.3-1,0.7-1.4,1.1c-1.4,1.6-2.6,3.3-3.6,5.2
	c-5.6,9.3-11.1,18.7-16.5,28.1c-5.3,9.1-10.6,18.3-15.9,27.4c-0.7,1.2-1.4,2.8-3.7,2.3c-0.6-1.2-1.4-2.4-1.9-3.8
	c-3.5-8.7-6.8-17.4-10.3-26.1c-1.7-4.2-3.4-8.4-5.2-12.5c-0.9-2.1-2.2-3.6-4.6-4c-3.2,0-5.4,2.4-7.9,4
	c-14.9,9.7-29.8,19.6-44.6,29.3c-2.2,1.5-4.6,2.8-7.3,4.6c-1.5-3.1-2.9-5.7-4.1-8.5c-4.6-10.8-9.2-21.7-13.7-32.5
	c-2.9-6.9-5.8-13.9-8.7-20.9c-1.1-2.6-2.7-4.8-6.8-4.9c-2.8,1.4-6.3,3-9.8,4.8s-6.8,3.8-10.3,5.7c-3.2,1.7-6.4,3.4-9.6,5.1
	c-3.4,1.9-6.8,3.8-10.3,5.7s-6.9,3.8-10.4,5.5s-6.5,4.1-10.7,5.2c-0.8-2-1.6-3.6-2.1-5.3c-3.2-10.4-6.4-20.8-9.6-31.1
	c-2.1-6.6-4.5-13.1-6.2-19.9c-1.8-7.1-6.9-8.8-12.7-3.9c-3.9,3.3-8.2,6.2-12.1,9.4c-15.7,12.7-31.5,25.4-47.2,38.1
	c-1.6,1.3-2.9,3.1-5.8,3.1c-0.8-2.3-1.8-4.8-2.7-7.3c-4.2-12.9-8.3-25.8-12.6-38.7c-0.7-2.3-1.6-4.5-2.7-6.7
	c-1.3-2.7-4.4-3.8-7.1-2.6c-0.2,0.1-0.4,0.2-0.6,0.3c-2.1,1.2-4.1,2.6-6,4c-8.1,5.8-16.2,11.6-24.3,17.3c-1.1,0.6-2.2,1.2-3.3,1.6
	c-1.8-3.7-2.2-7.3-3-10.8c-1.5-5.8-2.7-11.8-4.2-17.6c-0.8-3.1-2.6-5.4-6.7-5.6c-1.2,0.7-2.3,1.4-3.4,2.2
	c-9.1,7-18.1,14.1-27.2,21.1c-1.6,1.2-2.9,3.2-5.9,2.6c-2.9-4.5-6-9.2-9.1-14c-3.3-5-6.6-10.1-10-15.1c-1.9-2.7-3.9-5.4-6.7-5.6
	c-10.4,1.7-17.6,8.2-26.6,11.7c-4.7-3.1-9.2-6.1-13.7-9.1c-3.8-2.5-7.4-5.2-11.2-7.6c-1.3-0.8-6.4-3.9-10.4-6.1c0-1.1,0-2.1,0-3.2
	c0-19.9-2.7-39.7-8.2-58.9c3.6,0.5,7.1,1.1,10.7,1.5c8.1,1,16.2,2,24.3,2.7s16.2,0.2,24.1-2.7c3.7-1.4,7.5-2.3,11.4-2.7
	c6.3-0.8,12.4-2.7,18-5.7c3-1.5,5.8-3.2,8.8-4.6c3.3-1.5,6.6-3.2,10.2-2.6c6.5,4,13,7.9,19.3,11.9c10.4,6.7,21.9,11.5,34,14.3
	c4.1,1,8.1,2.1,12.2,3.4c9.5,3,19,3,28.1-1.7c7.3-3.7,14.7-7.2,21.8-11c4.6-2.4,9.5-3.8,14.6-4.2c11.5-1.2,22.8,1.6,33.6,1.3
	c9.3,5.4,17.8,10.5,26.4,15.5c1.3,0.8,2.6,1.5,4.1,2c11.1,3.3,14,2.5,20.7-5.4c0.6-0.7,1.1-1.4,1.7-2.2c7.2-9.3,14.5-18.6,21.7-27.8
	c0.9-1.1,1.8-2.5,3.5-2.2c18,17.1,20.4,18.9,42.2,34c5.3,3.6,10.8,6.6,17.2,7.6c9.1,1.4,18,1.5,26.1-4c3.7-2.5,8-4.3,12-6.4
	c13.4-7,26.8-14,40-21.1c5.9-3.1,11.4-6.9,16.3-11.4c2.8-2.7,5.9-5.2,9.2-7.3c6.8-4.4,14.1-6.7,22.3-4.1c9.2,2.9,18.4,5.7,27.7,8.5
	c3.8,1.1,7.3,2.8,10.7,4.8c10.5,6.5,21.9,11.6,33.8,15c6.1,1.9,12.7,1.6,18.5-1.1c9.7-4.2,19.5-8,28.9-13c5.6-3,11.4-5.6,18.1-4.8
	c1.5,0.1,3-0.2,4.4-0.7c4-1.1,7.8-0.3,11.4,1.3c10.8,4.8,20.9,10.8,30.3,18c6,4.6,12.5,7.2,20,7.3c7,0,13.9,0,20.8,0.1
	c7,0.1,13.8-1.5,20.1-4.7c10.3-5,20.7-9.9,31.1-14.8c7.7-3.6,15.5-6.7,24-7.9c3.9-0.4,7.8-1.1,11.6-2.1c7.5-2.2,15.3-3.5,23.1-3.9
	c2.7-0.1,7.8-0.7,12-1.4c2.5,30.3,3.8,60.8,3.8,91.3C2191.6,1146.9,2188.6,1193.7,2182.6,1240.1L2182.6,1240.1z"/>
</svg>
