<?xml version="1.0" encoding="utf-8"?>
<!-- Generator: Adobe Illustrator 24.0.0, SVG Export Plug-In . SVG Version: 6.00 Build 0)  -->
<svg version="1.1" id="Warstwa_1" xmlns="http://www.w3.org/2000/svg" xmlns:xlink="http://www.w3.org/1999/xlink" x="0px" y="0px"
	 viewBox="0 0 2200 2200" style="enable-background:new 0 0 2200 2200;" xml:space="preserve">
<style type="text/css">
	.st0{fill:#0B1A16;}
	.st1{fill:#F7B221;}
</style>
<circle class="st0" cx="1100" cy="1100" r="1100"/>
<path class="st1" d="M1100,0C492.5,0,0,492.5,0,1100s492.5,1100,1100,1100s1100-492.5,1100-1100S1707.5,0,1100,0z M30.7,880
	c28.6-139.6,84.4-272.2,164.2-390.3C313.4,314.3,480.2,176.9,675.1,94.3c66-27.9,134.6-49.2,204.9-63.6c145.2-29.6,294.8-29.6,440,0
	c139.6,28.6,272.2,84.4,390.3,164.2c175.5,118.5,312.9,285.3,395.5,480.2c27.9,66,49.2,134.6,63.6,204.9
	c14.8,72.4,22.2,146.1,22.2,220c0,32.6-1.4,65.3-4.3,97.7c-2.1-0.2-4.2-0.5-6.3-1c-17.5-4.6-34.6-10.5-49.8-20.7
	c-9.8-6.6-20.3-11.8-31-16.7c-16.4-7.5-33.4-12.1-51.6-10.8c-2.4,0.2-7.8,0-10.2,0.2c-7.8,0.7-15.6,1.7-23,4.3
	c-5.7,2-11.3,4.1-16.9,6.5c-4.4,1.9-8.8,4-13,6.3c-11.3,6.3-22.3,13.1-33,20.5c-1.9,1.4-4,2.6-6.3,3.6c-13.9,5.1-28.1,9.1-43.2,7.6
	c-3.6-0.4-7.2-0.9-10.7-1.3c-16.2-1.7-31.2-7.4-45-15.5c-10.1-6-20.5-11.5-30.5-17.7c-6.1-3.8-12.7-7-19.4-9.5
	c-12.2-4.6-24.7-7.9-37.9-6.8c-2.4,0.2-4.8-0.1-7.2,0.2c-5.7,0.7-11.6,0.8-16.9,2.6c-10.2,3.5-20.8,6.4-30.3,11.8
	c-5.3,3-10.8,5.6-16.5,7.7c-1.4-1.2-2.7-2.4-4-3.7c-8.9-10.2-17.7-20.5-26.6-30.8c-8.8-10.3-17.6-20.6-26.4-30.9
	c-5.3-6.2-10.7-12.3-16-18.4c-9.6-11.2-19.2-22.5-28.8-33.7c-9-10.5-18.2-20.9-27.2-31.5c-13.6-15.8-27.1-31.5-40.6-47.3
	c-4.5-5.3-9.1-10.5-13.6-15.8c-9.8-11.4-19.6-22.9-29.3-34.3c-4.9-5.7-9.8-11.4-14.7-17.1c-9.4-11-18.8-22-28.2-33
	c-9-10.5-18-21.1-27-31.6c-9.2-10.7-18.4-21.5-27.7-32.2c-8.4-9.8-16.9-19.6-25.4-29.4c-10.4-12.1-20.8-24.2-31.2-36.3
	c-8.4-9.8-16.9-19.6-25.3-29.5c-12.9-15.1-25.8-30.3-38.7-45.4c-8.6-10.1-17.4-20-26-30.1c-13.3-15.5-26.7-31.1-40-46.7
	c-12.4-14.4-24.8-28.7-37.2-43.1c-16.3-19-32.5-38-48.7-57c-0.6-0.7-1.2-1.3-1.9-1.9c-1.9-1.6-4.7-1.6-6.7,0
	c-0.7,0.6-1.3,1.2-1.9,1.9c-8.1,9.3-16.2,18.7-24.2,28.1c-15.9,18.5-31.6,37.2-47.5,55.7c-13.3,15.5-26.9,30.9-40.3,46.5
	c-16.1,18.7-32,37.6-48.1,56.4c-12.8,14.9-25.6,29.6-38.4,44.4c-14.9,17.3-29.9,34.7-44.7,52.1c-4.9,5.7-9.7,11.5-14.6,17.2
	c-8,9.4-16,18.8-24.2,28.1c-9.6,11.2-19.3,22.3-28.9,33.5c-12,14-23.8,28-35.8,41.9c-10.2,11.9-20.6,23.6-30.8,35.5
	c-16.1,18.7-32.1,37.6-48.1,56.3c-8.6,10.1-17.2,20.1-25.9,30.1c-9.8,11.4-19.6,22.9-29.4,34.3c-5.9,6.9-11.8,13.7-17.6,20.6
	c-8.2,9.6-16.5,19.2-24.7,28.8c-9,10.5-18.2,20.9-27.2,31.4s-18,21.1-27,31.6c-1.5,1.8-3.4,3.3-5.3,5.1c-3.2-1.4-6.4-2.6-9.2-4.1
	c-10.9-5.8-22.3-10.6-34.1-14.3c-2-0.7-4-1.3-6-1.8c-7.7-1.6-15.5-1.9-23.3-2.2c-16.9-0.8-32.1,4.6-46.9,11.6
	c-9.2,4.4-17.9,9.9-26.8,14.9c-1.3,0.7-2.6,1.5-3.9,2.3c-7.9,5.6-16.5,10.1-25.6,13.3c-20.3,7.7-41,11.7-62.8,6.8
	c-10.6-2.4-20.9-5.6-29.8-12.3c-9.4-7-19.8-12.6-30-18.5c-10.8-6.2-22.8-9.5-34.3-13.8c-0.3-0.1-0.6-0.1-0.9-0.2
	c-18.6-3.1-40.1-4.3-58.4,1.4c-5.2,1.6-10.3,3.3-15.3,5.4c-10,4.2-19.9,8.6-29.1,14.5c-10.9,7-21.9,13.7-34.4,17.8
	c-9.5,3.1-18.6,7.1-28.7,7.8h-0.2c-2.9-32.4-4.3-65-4.3-97.7C8.5,1026.1,15.9,952.4,30.7,880z M1760,1320c1,4.7,2.3,9.3,3.9,13.9
	c4.6,12.1,6.6,25.1,6,38.1c-0.7,12.3-2.3,24.5-7.2,36.1c-5.7,13.3-9.7,27.2-12.1,41.5c-1.4,9-1,18-0.1,27c0.7,7.5,1.9,14.9,3,22.3
	c1.5,9.2,3.5,18.3,4.7,27.6c2,15,2.7,29.9-1.8,44.7c-2.2,7.5-4.9,14.9-8,22.1c-0.7,1.4-1.5,2.7-2.4,3.9c-0.8-0.6-1.6-1.3-2.3-2
	c-4.9-7.3-47.5-82.1-49.7-87.2c1.6-5,3.3-10.2,4.8-15.3c2.3-7.5,2.7-15.5,1.2-23.2c-0.8-3.8-1-7.8-1.6-11.6
	c-1.4-9.6-5.2-18.5-8.2-27.7c-1.7-5.1-3-10.4-4-15.7c-1.9-11.2-0.3-22.2,2-33.1c0.8-3.2,1.9-6.3,3.3-9.3c3.3-7.4,6.9-14.7,10.2-22.2
	c4.6-10.2,8.2-20.8,9.6-31.8c1-8.3,0.6-16.8-0.1-25.2c-1.1-13.3-5.2-25.8-10.8-38c-4.7-10.4-8.6-21.2-11.6-32.3
	c-3.1-10.9-2.8-22-2-33.2c0.1-0.6,0.4-1.1,0.8-1.6c0.1-0.2,0.4-0.4,0.7-0.6c1.4-0.6,2.3,0.4,3.1,1.2c2.8,3.2,5.5,6.4,8.2,9.6
	c12.2,14.1,24.4,28.3,36.6,42.4c7.3,8.4,14.5,16.9,21.7,25.4c0.5,0.7,1,1.5,1.4,2.3c0.1,1.2,0.1,2.4,0,3.6
	C1755.1,1287.9,1756.3,1304,1760,1320z M1847.6,1382c-0.3-2.4-0.8-4.7-1.3-7.1c-0.3-1.5-0.6-3,0.3-4.3c0.6,0.2,1.3,0.2,1.6,0.5
	c17.1,19.8,34.2,39.7,51.3,59.7c-1.6,3.6-3.1,6.8-4.6,10c-4.8,9.9-7,20.5-9,31.1c-0.3,1.5-0.5,3-0.9,4.4
	c-4.7,16.7-3.5,33.4-0.5,50.1c0.8,3.8,2.1,7.5,3.9,11c8.4,18.6,12.7,38.3,15.3,58.3c1.8,13.9-0.1,27.6-4.7,40.9
	c-4.3,12.5-8.6,25-13.9,37.2s-8.8,25.2-7.9,38.6c1.1,16.8,2.1,33.6,6.7,50c3.4,12.2,5.9,24.6,8.6,36.9c1.3,6.5,1.5,13.2,0.5,19.8
	c-0.9,6.8-2.8,13.5-4.3,20.3c-0.2,0.7-1.2,1.2-1.9,1.9c-0.8-0.5-1.5-1.2-2.1-1.9c-24.7-42.7-49.5-85.6-74.3-128.5
	c1-2.2,2.2-4.3,3.4-6.4c7.3-10.8,12.8-22.5,17.7-34.5c2.9-7.3,4.8-14.9,5.5-22.7c0.6-6.3,1.2-12.6,1.4-18.9
	c0.3-10.6-1.7-21-2.4-31.4c-1.1-15.7-6-30.7-8.8-46c-1.5-8.3-2.9-16.6-4.2-24.9c-0.3-1.8-0.3-3.6-0.1-5.4c1.4-8.9,1.1-18,3-26.9
	c1.7-7.9,2.6-16,3.9-24c0.9-5.4,2.3-10.6,4.4-15.6c4.2-10.3,8.3-20.7,10.8-31.6C1847.7,1409.1,1848.6,1395.5,1847.6,1382
	L1847.6,1382z M1949,1675.5c0.2,6.6,1.4,13.2,3.6,19.5c3.5,11.2,7.1,22.4,10.3,33.7c1.6,5.5,2.8,11.1,3.7,16.8
	c1.1,7.1,0.3,14.5-2.2,21.2c-21.7,28.1-44.8,55.1-69.2,81.1c0.8-1.8,1.5-3.7,2.1-5.6c1.7-5.5,3.1-11,4-16.7c1.3-9.3,1.9-18.7,0-27.9
	c-2.7-13.6-6.1-27-9.3-40.5c-1.4-5.6-2.4-11.2-3.2-16.8c-1-8.1-1.3-16.2-2-24.3c-1-12,0.4-23.5,5-34.5c5.4-12.8,9.9-25.9,14.8-38.8
	c6.8-17.6,8.2-35.7,5.5-54.1c-1.9-12.8-4.9-25.4-8.8-37.8c-1.2-4-2.7-8-4.5-11.8c-3.6-7.3-6-15.1-7-23.2
	c-1.4-12.4-1.8-24.6,1.1-36.8c0.6-2.3,1.2-4.7,1.6-7c1.7-10.4,4.6-20.6,8.5-30.4c0.4-1.1,0.7-2.3,2.8-2.4c1,0.8,2,1.8,2.9,2.7
	c3.8,4.3,7.4,8.7,11.2,13c11.2,13,22.3,26.1,33.7,39c3.8,4.3,6.6,9.4,8.2,14.9c3.8,12.7,6.5,25.7,9.3,38.6
	c1.6,7.7,2.1,15.5,1.3,23.3c-0.3,3.3-1,6.5-1.6,9.8c-2.2,12.5-5.4,24.7-10.6,36.3c-2.3,5.2-4.5,10.5-6.5,15.9
	c-2.8,7.3-4.5,15-5,22.8C1948.6,1662.2,1949,1668.9,1949,1675.5z M238.2,1769.8c-3-5.9-4.4-12.4-4.1-19c0.3-7.2,1.6-14.4,3.8-21.3
	c3.3-11.3,6.9-22.5,10.4-33.7c2.2-6.9,3.8-13.9,3.8-21.2c0.1-6.3,0.1-12.7,0.1-19c0-1.8-0.2-3.6-0.5-5.4c-2-10.7-5.3-21.1-9.9-30.9
	c-7.2-15.1-10.9-31.3-13.1-47.7c-0.9-6.3-0.9-12.7,0.2-18.9c2.6-15.5,6.2-30.7,10.8-45.8c1.3-4.3,3.5-8.3,6.5-11.8
	c9.7-11.1,19.2-22.5,28.8-33.7c5.9-6.8,11.9-13.6,17.9-20.4c1-1.1,1.9-2.4,4.1-1.8c3.3,7.3,5.8,14.9,7.6,22.8
	c1.1,4.7,1.6,9.5,2.9,14.1c3.3,11.2,3.4,22.6,2.4,34.1c-0.8,9.3-2.5,18.4-6.9,26.9c-2.3,4.6-4.1,9.4-5.5,14.3
	c-4.5,15.3-8.2,30.8-9.5,46.8c-1.1,12.6,0.3,25.3,4.2,37.3c4.9,14.9,9.8,29.8,16.4,44c4.5,9.8,5.8,20.2,6.2,30.8
	c0.2,5.4-0.6,10.8-1.1,16.2c-0.8,9-1.6,18-3.7,26.8c-2.7,11.4-5.5,22.8-8.1,34.2c-1.6,6.4-2.6,13-3,19.6
	c-0.4,12.5,1.9,24.6,5.6,36.4c0.8,2.1,1.7,4.2,2.8,6.2C282.8,1824.4,259.9,1797.7,238.2,1769.8z M312.3,1839.1
	c-2.5-9.9-5-19.8-4.7-30.2c0.4-6,1.3-12,2.8-17.8c3-13.2,6.2-26.4,9.2-39.6c1.6-7,2.9-14.2,2.9-21.4c0-2.4,0.1-4.8,0.5-7.2
	c2.9-16.9-0.1-33-6.7-48.5c-5.1-11.9-9.5-24.1-13.7-36.3c-4.5-13-6.8-26.3-5.4-40c0.7-7.2,2.1-14.3,3.5-21.3
	c2.7-13.6,6.3-27,12.2-39.6c3.7-7.8,5.2-16,5.8-24.5c0.4-6,0.3-12,0.3-18.1c0-5.1-0.6-10.2-2-15.2c-1.3-4.9-2.4-9.9-3.3-15
	c-2.2-11.5-6.2-22.5-12-32.7c4.6-6.9,44.9-54.3,52.1-61.3c1.5,0.5,1.3,1.8,1.1,2.8c-4.1,21.2-1.7,42,5.1,62.3c2,6,4.1,12,6.7,17.8
	c3.6,8.1,4.6,16.8,6.3,25.3c0.9,4.4,1,9,2,13.4c2.1,9.5,2.3,19.1,3.1,28.7c0.4,5.9-0.6,12-1.7,17.9c-2.2,11.8-4.3,23.7-7.5,35.3
	c-2.1,8.2-3.4,16.5-4.1,24.9c-1,11.1-2.7,22.1-2.1,33.3c0.8,16.7,3.6,32.9,11.1,48c4.2,8.3,8.1,16.8,13.5,24.5
	c1.2,1.9,2.3,3.9,3.3,5.9c-5,8.8-10,17.8-15.1,26.6c-5,8.6-10,17.2-15,25.8c-5.1,8.9-10.2,17.8-15.3,26.6c-5,8.6-9.8,17.3-15,25.8
	s-9.4,18-15.7,26.5C313.4,1840.4,312.5,1839.9,312.3,1839.1z M442.2,1273.6c-0.4-1.7-0.6-3.5-0.7-5.2c0.8-1.2,1.4-2.2,2.2-3.1
	c22-25.6,43.9-51.2,65.9-76.7c0.6-0.6,1.3-1.1,2-1.5c2,0.2,2.6,1.6,2.7,3.2c0.5,12,0.7,23.9-3.1,35.7c-3.6,11.2-7.7,22.2-12.3,32.9
	c-4,9.4-7.4,19-8.3,29.4c-0.5,5.1-1.1,10.1-1.5,15.2c-0.8,12,2,23.2,5.8,34.4s8.7,21.8,13.9,32.3c3.6,7,5.6,14.7,6,22.5
	c0,1.5,0.1,3,0.3,4.5c2,8.5,0.1,16.8-1.9,25c-1.5,6.1-3.7,12.1-5.8,18c-3,8.2-4.9,16.8-5.7,25.5c-0.1,1.8-0.7,3.5-0.9,5.3
	c-0.7,6-1,12,0.7,17.9c1.9,6.3,3.6,12.7,5.7,19.9c-5.3,9.3-10.9,19.3-16.6,29.2s-11.5,19.8-17.3,29.6s-10.9,20-17.7,29.8
	c-0.9-1-1.8-2.1-2.5-3.3c-4.7-9.8-7.7-20.2-10.5-30.7c-0.4-1.8-0.6-3.6-0.6-5.4c-0.1-8.1-0.3-16.3,0-24.4c0.2-4.5,0.9-9,1.9-13.4
	c2.7-12.1,4.3-24.2,5.8-36.5c0.8-6.9,1.4-13.7,1.6-20.7c0.4-11.6-2.1-22.7-5.4-33.7c-2.3-7.8-5.2-15.4-8.1-23
	c-2.7-6.7-4.4-13.8-5.1-21c-0.4-5.1-1.3-10.2-1.5-15.2c-0.4-12.1,1.5-24.1,5.7-35.4c4.6-12.5,7.1-25.6,7.5-38.8
	C444.4,1288.5,444.4,1280.9,442.2,1273.6z M523,1190c-0.2-2.6-1.7-5.1-2.6-7.6c-0.6-1.6-1.1-3.3-1.7-4.8
	c14.6-17.1,28.9-33.8,43.3-50.4c0.4-0.4,1-0.7,1.5-1c1.8,0.1,1.4,1.6,1.5,2.6c0.1,1.8,0,3.6,0,5.4c-0.1,85-0.2,169.9-0.3,254.9
	c0,3.6-0.3,7.2,0,10.8c0.4,5.7-1.1,11.4-4.2,16.3c-5.2,8.8-10.2,17.7-15.3,26.6c-8.9,15.4-17.8,30.8-26.7,46.2
	c-1.3,2.2-2,5.1-5.2,5.8c-2-3.4-3-7.3-3.1-11.2c-0.7-14.2,1.4-28.3,6.3-41.7c2.6-7,4.7-14.3,6.6-21.6c2.5-9.8,2.2-19.7,0.9-29.6
	c-0.2-1.5-0.6-3-0.8-4.4c-0.8-7.5-3.1-14.8-6.7-21.4c-5.3-10.1-9.9-20.7-13.5-31.5c-4.6-13.1-6-27.1-4-40.8
	c1.6-11.9,4.9-23.6,9.8-34.6c4.7-10.5,8.5-21.2,11.6-32.3C523.9,1214.1,523.8,1202.1,523,1190L523,1190z M624.8,1296.8
	c0.3,5.1-1,10.2-3.7,14.6c-10.4,17.7-20.5,35.5-30.7,53.2c-3.9,6.8-7.9,13.6-11.8,20.3c-1,2-2.5,3.8-4.2,5.2
	c-0.2-1.8-0.5-2.9-0.5-4.1c0-90.7,0-181.6,0-272.5c16-18.6,31.6-37.7,48.3-55.8c0.3-0.3,1.1-0.2,2.1-0.4c0.1,3,0.2,6,0.2,9
	c0,69.6,0,139.2,0,208.9C624.7,1282.3,624.5,1289.6,624.8,1296.8L624.8,1296.8z M695.2,972.6c2-2.6,3.4-4.9,5.2-7
	c14.2-16.4,28.5-32.7,42.8-49c0.3-0.4,1-0.5,1.6-0.7c1.8,0.8,1.4,2.4,1.4,3.8c0,9.6,0,19.3,0,28.9c0,45.2,0,90.4,0.1,135.6
	c0,2.1-0.1,4.2,0,6.3c0.1,3-0.7,6-2.4,8.5c-7.9,13.5-15.7,27.1-23.5,40.7c-7.1,12.3-14.1,24.5-21.2,36.8c-0.7,1.3-1.6,2.4-2.3,3.5
	c-2.2-0.1-2-1.5-2.1-2.6c-0.2-1.8-0.1-3.6-0.1-5.4l0.5-193.5C695.2,976.7,695.2,974.9,695.2,972.6L695.2,972.6z M867.1,790.3
	c0,28.9,0,57.8,0.1,86.8c0,5.3-0.8,10-3.6,14.6c-5.7,9.6-11.1,19.3-16.6,29c-8.1,14.1-16.3,28.1-24.5,42.2c-1.4,2.7-3.1,5.2-4.9,7.5
	c-0.6-0.8-1.2-1.2-1.2-1.6c0-45.8,0-91.5,0-136.6c7.5-10.7,43.5-52.3,49.4-57.2c1.7,0.3,1.4,1.7,1.4,2.7
	C867.2,781.8,867.1,786.1,867.1,790.3z M1140.1,568.2c-1.1,0.8-1.6,1.5-2,1.5c-24.3,0.1-48.7,0.2-73,0.3c-1.3-0.1-2.5-0.4-3.8-0.7
	c0.3-1.2,0.7-2.4,1.2-3.6c11.9-20.9,23.9-41.7,35.8-62.5c0.4-0.7,1.2-1.2,2.8-2.6C1114.6,523.5,1127.2,545.9,1140.1,568.2
	L1140.1,568.2z M1135.6,541.2c4.3,3.4,6.7,7.5,9.4,11.2c1.1,1.5,1,3.5-0.1,5C1141.2,553.7,1138.5,549,1135.6,541.2L1135.6,541.2z
	 M1055.9,558.1c-0.3-6.8,0.1-7.4,8.9-16.3C1064.2,545.7,1060.9,551.8,1055.9,558.1L1055.9,558.1z M1058,578.7c28.3,0,56.7,0,85,0
	c1.1,0.1,2.1,0.4,3.2,0.7c0.5,0.6,1,1.2,1.4,1.8c16.8,29.2,33.6,58.4,50.4,87.7c0.4,0.8,0.6,1.6,0.8,2.5c-0.6,0.4-1,1-1.5,1
	c-64.2,0.1-128.4,0.1-192.5,0.2c-0.9-0.2-1.7-0.4-2.5-0.9c0.2-0.9,0.4-1.8,0.8-2.7c16.8-29.3,33.6-58.5,50.5-87.7
	c0.4-0.7,1-1.3,1.5-1.8C1056,579.1,1057,578.9,1058,578.7L1058,578.7z M1154.3,564.6c1.3,0.3,2,0.2,2.3,0.6
	c15.7,18.2,31.3,36.3,46.5,54c0.9,9.5,0.9,30.8,0,37.6c-1.5,0.5-2.1-0.7-2.6-1.6c-11.9-20.5-23.7-41.1-35.6-61.6
	c-3-5.2-5.8-10.5-9-15.6C1153.2,573.9,1152.6,569.7,1154.3,564.6L1154.3,564.6z M1045,578.2c-10.4,17.6-20.5,35.3-30.7,53
	c-4.3,7.5-8.7,15.1-13,22.6c-0.7,1.2-1.6,2.4-2.4,3.5c-1.8-12.9-1.6-25.2-1.5-37.4c8.6-10.1,17-19.9,25.3-29.7
	c7.4-8.6,14.8-17.2,22-25.5c2.2,0.1,2.6,1,2.8,2.3C1048,570.9,1047.1,574.8,1045,578.2z M998.8,681.8c67.8,0,135.7,0,203.5,0
	c1,0.1,2.1,0.4,3.1,0.7c1.3,2,2.9,4.2,4.3,6.5c16.7,29.3,33.4,58.6,50,87.9c0.1,0.2-0.1,0.6-0.4,1.7c-0.9,0.4-1.8,0.6-2.8,0.8
	c-104,0-208,0-312,0c-0.8-0.1-1.6-0.3-2.3-0.7c-1.3-1.7-0.7-3,0.1-4.3c6.6-11.5,13.2-23,19.9-34.4c9-15.7,18-31.3,27-47
	c2.1-3.6,3.9-7.4,6.7-10.5C996.8,682.1,997.8,681.9,998.8,681.8z M1213.6,633.5c0.6,0.1,1.3,0.1,1.7,0.4
	c3.8,3.5,43.8,50.4,49.2,57.6c0.7,6.4,0.5,64.2-0.2,70.3c-2.3,0.3-3-1.6-3.8-3c-4.4-7.5-8.8-15-13.2-22.6
	c-11.4-19.8-22.8-39.7-34.1-59.3C1212.1,663.8,1212.3,639.2,1213.6,633.5z M988.1,676.6c-16.3,28-32.8,56.4-49.4,84.7
	c-0.2,0.4-1,0.4-1.6,0.7c-0.3-0.4-0.9-0.8-0.9-1.3c0-22.9,0-45.8,0-68.5c7.2-10.1,45.1-54,50.7-58.7c0.4,0.3,1.2,0.7,1.2,1.1
	C988.1,648.4,988.1,662.3,988.1,676.6z M937.3,788.3c108.8,0,217.6,0,326.4,0c0.8,0.1,1.7,0.3,2.5,0.6c4.9,6.4,50.3,85,53.8,93.1
	c-0.8,0.4-1.6,0.7-2.5,0.8c-145,0-290-0.1-434.9-0.2c-0.5,0-1-0.6-1.5-0.9c3.7-8.5,49-86.9,53.7-93
	C935.6,788.6,936.5,788.4,937.3,788.3z M1384.5,865.8c0.1,11.5,0.1,22.9,0.1,34.3c0,11.8,0.1,23.5,0.1,35.2c0,11.4,0.2,22.8,0,34
	c-2.1,1-2.5-0.5-3-1.3c-4.7-7.7-9.3-15.5-13.8-23.3c-8.6-14.8-17.1-29.8-25.8-44.5c-8.2-14-8.3-14-8.3-30.5c0-29.2,0-58.5,0-87.7
	c0-2.4,0.2-4.7,0.4-7.1c1,0.2,1.7,0,2,0.4c16.6,17.8,32,36.8,48.1,55.5C1384.9,842.4,1384.4,854.1,1384.5,865.8L1384.5,865.8z
	 M1454.8,1041.6c0-39.2,0-78.3,0-117.5c0-2.7,0.2-5.3,0.3-7.8c1.8-0.9,2.7,0.1,3.4,0.9c6.7,7.7,13.5,15.4,20.2,23.2
	c6.5,7.5,13,15,19.4,22.6c2.5,3,4.9,6,7.6,9.3c-0.2,69.2,0.4,138.4,0.4,207.6c-2.8,0-3.3-1.5-4-2.7c-10.8-18.8-21.5-37.6-32.3-56.4
	c-3.7-6.5-7.3-13.2-11.4-19.4c-3-4.6-3.8-9.2-3.8-14.5C1454.9,1071.7,1454.8,1056.7,1454.8,1041.6z M1567.6,1114.3
	c0,54.9,0,109.7,0.1,164.6c0,2.6,0.8,5.4-1.3,8.3c-1.5-2.1-2.9-4-4.1-6c-14.2-24.5-28.2-49.1-42.4-73.6c-2.5-4.1-3.8-8.8-3.7-13.7
	c0.2-16.9,0.2-33.8,0-50.6c-0.1-11.1-0.7-22.2-0.9-33.2c-0.2-13-0.2-25.9-0.2-38.9c-0.1-25.6-0.2-51.2-0.2-76.8c0-3,0.2-6,0.3-10.9
	c3.2,3.5,5.1,5.3,6.8,7.4c9.2,10.7,18.5,21.5,27.7,32.2c4.5,5.2,8.9,10.6,13.6,15.7c3.1,3.3,4.7,7.8,4.5,12.3
	C1567.5,1072.1,1567.6,1093.2,1567.6,1114.3z M1564.6,1304.8c0.5,0.7,0.4,1.6-0.3,2.1c-0.1,0.1-0.2,0.1-0.3,0.2l-406.6,0.1
	c53.5-14.9,99.3-49.8,127.6-97.6h3.6l123.9-0.1c9.9,0,19.9,0.4,29.8-0.1c18.7-0.9,37.3-0.8,55.9-0.9c3.9,0,7.8,0,12,2.1
	C1528.4,1241.7,1546.6,1273.2,1564.6,1304.8L1564.6,1304.8z M1290.2,1019.6c44.4,105-4.7,226.1-109.7,270.6
	c-25.5,10.8-52.9,16.3-80.6,16.3l0,0v-413l0,0C1183,893.5,1257.9,943.2,1290.2,1019.6L1290.2,1019.6z M1499.1,1191
	c1.2,2,2.1,4.2,3.1,6.2c-1.4,2.9-3.8,2.2-5.7,2.2c-13.3,0-26.5,0-39.8,0l-165.8-0.2c15.4-29.6,23.7-62.5,24.2-95.9
	c1.8,0,3.5,0,5.2,0c39.2,0,78.4,0,117.6,0c3.3,0,6.6,0.1,9.4,0.2c0.9,0.7,1.7,1.5,2.4,2.3C1466.2,1134.2,1482.6,1162.6,1499.1,1191z
	 M1445.9,1076.7c-2.7-1.4-3.7-3.6-4.8-5.5c-4.7-8.1-9.3-16.2-13.9-24.3c-11-19-22-38-33.7-58.2c0-47.7,0-95.6,0-143.5
	c0-0.5,0.5-1,0.8-1.7c0.8,0.3,1.6,0.7,2.2,1.3c16.5,19.1,33,38.3,49.3,57.4L1445.9,1076.7z M1401.4,1021.8c4.7,8.1,9.3,16.2,14,24.3
	c4.5,7.8,9.3,15.5,13.6,23.5s9.5,15.2,13,23.5c-3.2,2-6.3,1.2-9.2,1.2c-37.7,0.1-75.4,0.1-113.1,0c-1.6,0-3.2,0-4.7,0.1
	c-0.8-33.6-9.5-66.4-25.4-96c1.2,0,2.5-0.1,3.8-0.1c28,0,56.1,0,84.1,0c3.3,0,6.6,0.1,9.9,0.2
	C1392.9,1006,1396.9,1014.1,1401.4,1021.8L1401.4,1021.8z M1340.7,916.5c4.9,8,9.3,16.2,14,24.3c4.5,7.8,9.3,15.5,13.6,23.5
	s9.8,15.1,12.6,23.7c-3.1,2.1-6.2,1.3-9.1,1.3c-27.4,0.1-54.9,0-82.3,0c-1.7,0-3.3-0.1-5,0c-28.2-46.9-73.3-81.4-126-96.3
	c89,0,165.3,0.2,168.5,0.6C1332.3,900.5,1336,908.8,1340.7,916.5z M1325.2,854.7c0,3,0,6-0.1,9c-0.1,1.1-0.4,2.2-0.7,3.3
	c-2.1-0.5-2.6-2-3.3-3.2l-40.7-70.5c-0.2-0.3-0.3-0.5-0.5-0.8c-6.2-10.7-6.2-10.7-6.2-23c-0.1-13.3-0.1-26.5-0.3-39.8
	c-0.1-7.2-0.6-14.4-0.8-21.7c-0.1-1.7,0.2-3.5,0.3-5.2c0.8,0,1.2-0.1,1.3,0c1.4,1.1,2.7,2.4,3.9,3.7c15.5,18,31,36.1,46.4,54.2
	c0.5,0.7,0.8,1.4,1.1,2.2C1324.7,793.8,1325.2,824.2,1325.2,854.7L1325.2,854.7z M928.2,720.1c-1.3,16.2-0.7,32.5-0.9,48.8
	c-0.1,13-0.1,13-6.4,23.8c-13.7,23.7-27.4,47.5-41.1,71.3c-0.7,1.3-1.3,2.7-3.1,3c-1.6-2.8-0.9-5.9-0.9-8.9c0-24.4,0-48.8,0-73.3
	c0-6.9-0.3-13.8-0.5-22.2c1.2-1.5,2.5-3.5,4.1-5.3c16.2-17.8,30.6-37.1,47.5-54.3c0.1-0.1,0.5,0,1.4,0.1
	C928.6,708.8,928.6,714.5,928.2,720.1L928.2,720.1z M1041.6,893c-52.6,14.9-97.6,49.3-125.8,96.1c-1.3,0-2.7,0.2-4,0.2
	c-27.4-0.1-54.9,0-82.3-0.1c-3,0-6,0.7-8.8-0.9c-0.1-0.3-0.2-0.6-0.2-0.9c0-0.6,0.1-1.2,0.3-1.7c7-12.3,13.8-24.7,21-36.9
	c10.9-18.4,21-37.2,32.1-55.1C876.7,893.3,952.7,893.1,1041.6,893z M839.7,998.3c8.4-0.1,16.9,0,25.3,0h26.2h19.3
	c-15.9,29.6-24.6,62.5-25.5,96.1c-17.8-0.1-35.5,0-53.3,0c-21.4,0-42.8,0-64.2,0c-2.7,0-5.3-0.3-7.8-0.4c-0.2-1.1-0.5-1.8-0.3-2.2
	c7.9-15.3,50.3-87.7,54.5-93.1C822.3,997.8,831,998.4,839.7,998.3z M757.9,1074.4c-0.9,1.1-1.8,2.1-2.8,3.1V903.1
	c4.4-7.2,11-13.1,16.4-19.9c5.6-7,11.4-14,17.5-20.7c5.8-6.3,10.8-13.5,17.3-19.5c0.6,1.3,1.1,1.8,1.1,2.4c0,47.9,0,95.8,0,143.3
	C790.8,1017.6,774.4,1046,757.9,1074.4L757.9,1074.4z M763,1103.3c39.5,0,79,0,118.5,0c1.2,0,2.4,0,3.5,0c0.4,33.5,8.7,66.3,24.2,96
	c-33.8,0-67.6,0-101.4,0.1c-33.8,0-67.6,0.1-101.3,0.1c-2.3,0-4.7-0.3-7.6-0.5c0.1-1.3,0.4-2.5,0.8-3.7c1.2-2.4,2.4-4.8,3.8-7.2
	c15.2-26.4,30.5-52.7,45.7-79c1-1.8,2.4-3.4,3.4-4.8C756.4,1102.8,759.7,1103.3,763,1103.3L763,1103.3z M701.6,1208.6
	c13.9,0.3,27.7,0,41.6,0.4c9.6,0.3,19.2,0.9,28.8,0.6c9.3-0.4,18.7,0,28,0c38,0,76,0,114,0c0.3,0,0.6,0,1,0
	c28.4,47.8,74.1,82.8,127.7,97.7l-405,0.1c-1.1-0.4-1.6-1-1-2c2.9-6.8,47.4-84.4,54.4-94.9C694.4,1208.7,698,1208.5,701.6,1208.6
	L701.6,1208.6z M685.9,1075.2c0,2.7,0,5.4,0,8.1c0.1,14.1-0.2,28.3-0.8,42.4c-0.5,11.4-0.2,22.8-0.3,34.3s-0.2,22.9,0.1,34.4
	c0.1,4.5-1.1,9-3.5,12.8c-8.7,14.8-17.3,29.7-25.9,44.6c-5.4,9.4-10.8,18.8-16.2,28.2c-1.3,2.3-2.8,4.5-4.8,7.7
	c-0.7-1.8-1.1-2.3-1.1-2.8c0-79.9,0-159.7,0-239.7c4.4-7.8,11.2-13.5,16.6-20.3c5.5-7.1,11.8-13.7,17.7-20.5
	c5.7-6.6,11-13.4,18-20.2c0.3,3.1,0.6,5.1,0.6,7.1C686.2,1019.2,686,1047.2,685.9,1075.2L685.9,1075.2z M1082.8,1316.2
	c10,0.2,20,0,30,0.2c3.8,0.1,7.5,0.1,11.3-0.2h446.6c0.5,0.4,0.9,0.9,1.2,1.4c16.9,29.2,33.8,58.5,50.6,87.7
	c0.7,1.3,1.3,2.7,1.9,3.9c-1.5,2.7-3.8,1.7-5.8,1.7c-22.9,0.1-45.8,0.1-68.8,0.1h-271.4c-114,0-228,0-342,0
	c-114.6,0-229.2,0-343.8,0.1c-3.9,0-7.8,0-11.8-0.1c-1.5,0-2.9-0.3-4.7-0.6c0.3-1.3,0.7-2.5,1.3-3.7c17.4-30.3,34.8-60.6,51.9-90.2
	l0.5-0.3L1082.8,1316.2z M1577.1,1057.2c0.8,0.3,1.5,0.3,1.9,0.7c16,18.4,32,36.8,47,54.2c0.6,1.7,0.7,2,0.8,2.2
	c0.1,0.3,0.1,0.6,0.1,0.9c0,2.4,0.1,4.8,0.1,7.2c0,88.3,0,176.6-0.1,264.9c0,0.6-0.2,1.2-0.4,1.7c-0.1,0.2-0.4,0.3-0.9,0.7
	c-1.6-2.5-3.4-4.9-4.9-7.5c-13.4-23.2-26.7-46.5-40.3-69.6c-3-5.2-4.5-11.1-4.4-17.1c0.2-76.6,0.3-153.1,0.2-229.7
	C1576.3,1063,1575.7,1060,1577.1,1057.2L1577.1,1057.2z M574.2,1420.2c350.9,0,701.7,0,1052.6,0c1.3,0.1,2.6,0.3,3.9,0.6
	c1.3,1.5,2.6,3.2,3.7,4.9c11.5,19.8,22.9,39.6,34.3,59.5c3.2,5.5,6.4,10.9,9.6,16.4c1.5,2.6,3.5,5,3.1,8.9
	c-4.2,6.4-10.2,11.5-17.3,14.6c-5.8,2.6-12,4-18.4,4.1c-14.8,0.6-28.7-2.9-42-8.9c-8.2-3.7-16.4-7.7-24.3-12.1
	c-14.2-8-29.6-13.6-45.7-16.6c-10.1-1.9-20.4-1.4-30.6-0.1c-14.9,2-28.3,8.1-40.8,16.2c-6.6,4.2-13.1,8.6-19.8,12.6
	c-5,2.9-10.1,5.5-15.3,7.8c-9.6,4.4-19.2,8.5-29.7,10.5c-9.2,1.7-18.4,3.1-27.8,2.7c-6.9-0.4-13.7-2-20.1-4.8
	c-12.3-5-24-11.2-35.1-18.5c-9.8-6.4-20.2-12-30.4-17.8c-5-2.8-10.3-5-15.9-6.3c-5.6-1.3-11-3.4-16.6-4.2
	c-9.2-1.3-18.5-1.9-27.8,0.4c-8.2,2.1-16.5,3.7-24.1,7.6c-5.6,2.9-11.1,6.1-16.6,9.2c-10.7,6.1-21.4,12.4-32.2,18.3
	c-12.5,6.9-26.1,11-40,13.8c-11.1,2.2-22.1,0.3-33-2.9c-17.5-5.2-33.6-13.2-49-22.8c-7.7-4.7-15.5-9.3-23.4-13.7
	c-5.5-3.1-11.4-5.4-17.6-7c-2.9-0.8-5.9-1.4-8.8-2.1c-11.4-2.9-23.4-2.7-34.8,0.5c-1.1,0.4-2.3,0.7-3.5,1
	c-12.2,1.8-23,7.1-33.3,13.3c-10.8,6.5-21.6,13.1-32.4,19.7c-9,5.5-18.8,9.4-28.7,13.1c-9.3,3.5-19,3.7-28.5,2.5
	c-12.6-1.4-24.9-4.6-36.6-9.4c-14.9-6.2-28.3-14.8-41.8-23.3c-7.8-5.1-16.2-9.4-25-12.6c-9.2-3-18.7-4.7-28.3-5
	c-16.7-0.8-32.2,3.5-47.5,9.5c-9.6,3.7-18.4,9-27.5,13.7c-8.8,4.6-18,8.5-27.4,11.7c-10.6,3.5-21.9,4.6-33,3.4
	c-12.6-1-24-7.7-31-18.2c-0.5-3.5,0.9-5.5,2.1-7.6c9.2-15.9,18.6-31.7,27.8-47.6c5.3-9.1,10.5-18.3,15.7-27.4
	c1.3-2.3,2.9-4.6,4.5-7.1C571.3,1420.5,572.7,1420.3,574.2,1420.2L574.2,1420.2z M1682.1,1231.4c3.3,10.3,7.1,20.5,11.6,30.4
	c4.2,9,6.9,18.7,7.8,28.6c0.3,3.6,1,7.2,1.3,10.7c1,10.4-1,20.4-4.1,30.2c-3.5,11.2-8.1,22.1-13.7,32.4c-6.2,11.1-7.9,23.2-8.9,35.6
	c-1.2,14.8,3,28.7,8.1,42.2c4.8,13,7.1,26.8,6.6,40.7c-0.2,5.7-0.4,6.3-3.4,12.7c-2.2-0.3-2.9-2.1-3.7-3.6
	c-10.1-17.5-20.2-35-30.2-52.5c-4.5-7.8-8.9-15.7-13.5-23.5c-2.6-4.4-3.8-9.5-3.7-14.6c0-73.8-0.1-147.6-0.2-221.4
	c0-15.4-0.1-30.7-0.1-46.1c0-2.3,0.3-4.7,0.5-8c6.5,5.5,10.7,11.8,15.6,17.4c5.2,5.8,10.2,11.9,15.3,17.8
	c4.9,5.7,9.8,11.4,14.5,16.8c0,1,0.3,1.7,0.1,2.1c-3.8,6.5-4.3,13.6-4.4,20.9C1677.3,1210.8,1678.9,1221.3,1682.1,1231.4
	L1682.1,1231.4z M1729.5,1615.2c-14.3,10.1-29,19.6-45,26.8c-7.2,3.3-14.4,6.4-22.2,7.3c-6.6,0.8-13.2,0.6-19.9,0.8
	c-9.4,0.3-18.7-1.2-27.5-4.5c-7.3-2.8-14.5-5.8-21.6-9.1c-6-2.8-11.7-6.3-17.6-9.3c-13.8-7-28.2-12.8-43.5-14.7
	c-19.1-2.4-37.9-0.5-55.5,8.2c-10,5-19.3,11.2-28.7,17.2c-6.8,4.4-14,8.3-21.4,11.6c-9.4,4.1-18.7,8.2-28.9,10.1
	c-9.2,1.8-18.4,3-27.8,2.7c-6.9-0.4-13.8-1.9-20.1-4.7c-12.3-5-24.1-11.2-35.2-18.4c-10.3-6.7-21.2-12.7-32-18.6
	c-4.3-2.2-8.8-4-13.4-5.3c-5.7-1.9-11.6-3.4-17.5-4.5c-8.6-1.6-17.4-1.6-26.1-0.2c-15.3,2.8-29.3,9-42.5,17.1
	c-11,6.8-22.3,13.2-33.7,19.2c-12.3,6.4-25.6,10.8-39.3,13.2c-10.8,2-21.5,0.2-32.1-3c-17.5-5.2-33.6-13.2-49.1-22.7
	c-7.7-4.7-15.5-9.3-23.4-13.7c-5.5-3.1-11.4-5.4-17.6-7c-2.6-0.7-5.3-1.3-7.9-2c-12-3.1-24.7-2.9-36.6,0.5c-2.9,0.8-5.9,1.4-8.8,2
	c-9.8,2.2-18.6,6.9-27.2,12c-10.9,6.5-21.7,13.1-32.4,19.7c-9.3,5.7-19.4,9.7-29.5,13.5c-9,3.3-18.4,3.4-27.7,2.3
	c-12.6-1.4-24.9-4.6-36.6-9.3c-14.9-6.2-28.3-14.8-41.8-23.3c-7.8-5.1-16.2-9.4-25-12.6c-9.2-3-18.7-4.7-28.3-5
	c-16.7-0.8-32.2,3.5-47.5,9.4c-9.6,3.7-18.4,9-27.5,13.6c-8.5,4.5-17.4,8.4-26.5,11.4c-7.7,2.6-15.8,4-23.9,4
	c-3.6-0.1-7.2-0.2-10.9-0.1c-11.8,0.4-22.5-3.1-33.1-7.9c-16-7.3-30.7-16.7-45-26.8c-3.2-2.2-6.3-4.5-9.8-7.1
	c2.9-8.1,7.9-14.9,12-22.2c4.2-7.7,8.7-15.2,13-22.7c4.2-7.3,8.2-14.8,12.7-21.9s7.6-15,13.5-21.8c2.8,2.1,5.4,4,7.9,6.1
	c12.1,10.5,26.5,14.2,42,13c10.5-0.8,21-2.5,30.7-7c7.9-3.6,16-7.1,23.6-11.3c15.4-8.5,31.3-15.5,48.5-19.5
	c9.3-2.2,18.6-1.6,27.9-1.1c3.3,0.3,6.6,0.8,9.8,1.5c6,0.8,11.8,2.8,17,5.9c10,6.2,20,12.4,29.9,18.7c6,4,12.4,7.4,19.1,10.1
	c1.1,0.4,2.2,0.9,3.3,1.5c12.3,6.4,25.8,10.4,39.6,11.8c9.2,1,18.7,0.7,28,0.3c5.4-0.2,10.5-2.5,15.4-4.9
	c12.2-5.9,24.1-12.5,35.5-19.7c9.6-6.2,19.8-11.4,29.7-17.2c5.5-3.1,11.5-5.3,17.7-6.6c8.5-1.9,16.9-4.1,25.8-4.1
	c12.1-0.1,24,3.3,34.2,9.9c15.8,10.1,32,19.3,48.5,28.1c13.5,7.2,27.8,11.1,42.8,13.5c10.1,1.6,19.7,0.1,29.5-1.5
	c15.4-2.6,29.3-9,42.8-16.5c14-7.7,27.7-15.9,41.2-24.4c9.4-6.1,20.5-9.2,31.7-9c7.2,0.2,14.5,0.4,21.4,2.7c0.6,0.2,1.1,0.4,1.7,0.5
	c13.1,2,24.3,8.5,35.5,15.1c16.3,9.7,32.1,20.2,49.4,28.3c8.4,4.1,17.6,6.3,27,6.4c12,0.1,24-1.3,35.7-4.4
	c5.5-1.6,10.9-3.5,16.2-5.7c3.9-1.5,7.8-3.1,11.6-5c5.4-2.7,10.7-5.6,15.8-8.7c10.3-6.2,20.5-12.7,30.7-19.1
	c5.7-3.6,12-5.3,18.7-6.3c7.4-1.2,14.9-1.7,22.5-1.7c6.6,0.2,13.2,1.2,19.6,3c15.2,4.2,29.3,10.8,43.1,18.4
	c11.6,6.4,23.6,12.2,36.6,15.2c5.8,1.4,11.8,2.4,17.8,2.8c15.2,0.9,29.3-2.8,41.2-12.9c2.5-2.1,5.2-4.1,7.8-6.2
	c0.8,0.5,1.5,1.2,2.1,1.9c15.9,27.3,31.7,54.7,47.6,82.1c0.7,1.4,1.3,2.8,1.9,4.3C1735.7,1610.6,1732.6,1612.9,1729.5,1615.2
	L1729.5,1615.2z M1743.3,1616.8c1.4,0.9,2.1,1.2,2.3,1.6c16.1,27.9,32.3,55.8,48.3,83.8c0.4,0.9,0.6,1.8,0.8,2.7
	c-0.7,0.5-1.5,0.9-2.4,1.2c-4.5,0.6-9,1.2-13.4,1.6c-14.7,1.4-28,6.9-40.4,14.6c-7.7,4.7-15,10.1-22.5,15.2
	c-12.9,8.9-26.8,16.2-41.5,21.8c-13.8,5-28.2,5.6-42.8,3.6c-13.1-1.7-24.9-6.8-36.7-12.3c-5.7-2.7-11.4-5.5-16.9-8.7
	c-12.9-7.5-26.9-12.2-41.3-15.4c-9.4-2.1-19-3.3-28.7-1c-2.9,0.7-6,0.7-9,1.1c-11.9,1.7-22.4,6.7-32.6,12.8
	c-6.7,4-13.3,8.4-19.9,12.5c-17.5,11-36.2,19.5-56.8,22.3c-11.9,1.6-24.2,2.5-35.8-1.7c-9-3.3-18-6.9-26.3-11.9
	c-10.6-6.4-21.1-12.9-31.6-19.3c-2.3-1.4-4.7-2.7-7-4.1c-15.1-8.9-32-12.1-49-14.4c-4.2-0.6-8.5-0.3-12.6,0.8
	c-8.7,2.3-17.7,3.7-26,7.6c-3,1.4-6,2.8-8.8,4.5c-14.1,8-28.1,16.4-42.4,24.2s-29.5,12-45.4,14.5c-3,0.5-6,0.5-9,0
	c-5.7-0.8-11.3-1.9-16.8-3.4c-14.2-4-27.9-9.9-40.6-17.4c-10.6-6.3-21.1-12.8-32-18.8c-5.3-2.8-10.9-5.1-16.6-6.9
	c-5.4-1.8-11.1-2.7-16.6-4.2c-4.1-1.1-8.4-1.4-12.6-0.8c-19.9,2.4-39,7.3-56.1,18.5c-10.3,6.7-21,13-31.6,19.4
	c-8.3,5-17.3,8.5-26.3,12c-4.8,1.7-9.9,2.6-15.1,2.6c-13.4,0.4-26.6-0.8-39.2-5.1c-13.2-4.4-25.8-10.3-37.5-17.8
	c-9.9-6.4-19.7-12.9-30.2-18.2c-9.2-4.6-19.1-7.5-29.3-8.4c-3.9-0.4-7.8-1.1-11.7-1.2c-9-0.2-18.1,1-26.7,3.7
	c-12.2,3.3-24,8-35.2,14c-9.8,5.3-19.8,10.2-30.1,14.5c-16.2,6.8-33.1,8.5-50.5,6.2c-9.1-1.2-17.5-4.3-25.7-8.1
	c-15.9-7.4-30.6-16.9-44.8-27.1c-7.9-5.6-16.3-10.3-25.2-14.1c-11-4.6-22.6-6.2-34.3-7.4c-1.7-0.2-3.3-0.6-5.4-1
	c0.4-1.3,0.9-2.6,1.5-3.8c16-27.7,31.9-55.3,48-83c0.3-0.5,1-0.7,1.5-1.1c2.9-0.1,4.8,2.1,7,3.5c9.4,6,18.5,12.5,28.1,18.1
	c8.3,4.9,17,9.1,25.7,13.2c7.4,3.4,15.4,5.2,23.5,6.4c6.8,1,13.6,2.5,20.6,1.8c13-1.3,25.6-3.7,37.4-9.6c9.7-4.8,19.4-9.6,29-14.7
	c12.1-6.2,24.9-10.9,38.1-13.9c9.2-2.2,18.5-1.6,27.9-0.9c3,0.2,6,0.8,8.9,1.3c6,0.8,11.8,2.8,17,5.8c9.7,6,19.5,12,29.1,18.2
	c6.5,4.3,13.5,8,20.7,11c3.1,1.2,6.1,2.7,9,4.1c8.2,3.9,17,5.8,25.9,7.8s18,1.7,27,2c8.2,0.2,16.3-1.7,23.6-5.4
	c12.2-5.9,24.1-12.5,35.6-19.6c11-6.8,21.9-13.9,33.7-19.3c2.7-1.2,5.6-2.3,8.4-3.1c4.9-1.4,9.9-2.7,14.9-3.8
	c17.8-3.9,34.7-2.2,50.3,7.8c16,10.3,32.5,19.7,49.3,28.6c13.2,7,27.3,10.8,42,13.2c10.1,1.6,19.7,0.2,29.5-1.4
	c15.1-2.5,28.8-8.7,42-16c14.2-7.9,28.2-16.2,42-24.8c9.6-6.1,20.1-9.4,31.7-9.2c7.2,0.2,14.5,0.3,21.4,2.6c0.6,0.2,1.1,0.4,1.7,0.5
	c13.4,2.1,24.9,8.7,36.3,15.5c16,9.5,31.6,19.9,48.6,27.8c8.7,4.2,18.2,6.5,27.8,6.6c12.1,0.1,24.1-1.4,35.7-4.5
	c5.2-1.5,10.3-3.3,15.3-5.4c3.9-1.5,7.8-3.2,11.6-5.1c5.4-2.7,10.7-5.5,15.8-8.6c9.8-5.9,19.5-12.1,29.1-18.2
	c6.8-4.3,14.1-6.5,22-7.5c6.9-1,13.8-1.5,20.7-1.5c6.6,0.1,13.2,1.1,19.6,2.9c15.2,4.2,29.4,10.8,43.1,18.4
	c11.9,6.6,24.1,12.5,37.4,15.5c7.9,1.8,16,3.4,24.2,2.7c14.1-1.2,28-3.6,41.1-9.6c17.1-7.8,32.9-17.6,48.3-28.3
	C1737.6,1620.4,1740.4,1618.7,1743.3,1616.8L1743.3,1616.8z M435.6,1291.1c-0.5,11.1-2.1,22.2-4.7,33c-0.5,2.1-1.1,4.1-1.9,6
	c-3.5,8-5.6,16.6-6.4,25.3c-0.7,9-0.6,18.1,0.2,27.1c1,11.8,4.4,23,9,33.9c4.7,11.1,8,22.8,9.6,34.7c1,7.7,0.7,15.7,0.2,23.4
	c-0.4,7.2-1.8,14.3-2.9,21.5c-1.4,8.6-2.6,17.3-4.4,25.8c-1.5,6.9-1.7,13.7-1.8,20.7c0,4.5,0.2,9,0.2,13.6c0,4.8,1.2,9.5,2.1,14.2
	c2.7,13.4,8.5,25.7,13.9,39.2c-15.9,28.6-32.6,56.5-48.7,84.8c-0.9,1.4-1.9,2.7-2.9,4c-2.4,0.4-3.3-1-4-2.2c-3.3-5.1-6-10.5-8-16.2
	c-5.3-15.1-9.1-30.6-11.5-46.4c-1-7.8-1.1-15.6-0.3-23.4c0.8-9,1.2-18,3.2-26.9c1.5-6.4,2.6-13,3.9-19.5c2-10,4.2-20,6.1-30.1
	c1.2-7.5,1.2-15,0.1-22.5c-1.5-11.6-2.9-23.3-4.9-34.8c-1.8-10.4-4-20.6-8.3-30.4c-7.8-17.4-11.8-36.2-11.8-55.2
	c0.1-12.9,3.4-25,7.6-37c1.1-2.8,2.7-5.4,4.8-7.6c12.9-15.1,26-30,39-45.1c5.1-5.9,10.1-12,15.2-17.9c1.3-1.5,2.4-3.6,4.8-3.8
	C434.9,1282.9,435.8,1287,435.6,1291.1z M324.9,1844.5c2.5-5.4,70.7-122.8,74-127.4c4.7-2.6,9.9-2.3,14.9-1.7
	c11.7,1.4,23.2,3.7,33.9,9c3.5,1.7,7,3.5,10.3,5.6c7.3,4.8,14.4,9.8,21.7,14.6c14.4,9.5,29.3,18,45.8,23.3
	c25.4,8.1,50.5,7.1,74.7-4.5c9.5-4.6,18.8-9.4,28.2-14.2c11.5-6,23.7-10.5,36.3-13.4c2.3-0.6,4.7-0.9,7.1-1
	c6.9-0.2,13.9-0.3,20.8-0.1c11,0.4,21.4,2.9,30.8,9c9.6,6.2,19.3,12.3,29,18.4c3.3,2.1,6.8,3.9,10.3,5.6
	c13.8,6.7,27.8,13.1,43.2,15.3c7.7,1.1,15.4,2.5,23.3,2.3c9.8-0.2,19.1-2,27.8-6.7c9-4.8,18.2-9.4,27.1-14.5s17.5-10.6,26.2-15.9
	c1.5-0.9,3.1-1.8,4.7-2.8c13.4-8.2,28.5-11.4,43.7-13.7c13.3-2,25.7,1.7,37.2,8.4c6.2,3.6,12.3,7.6,18.6,11.2
	c11,6.3,22,12.5,33,18.7c12.5,7,26.1,11,40.2,13.1c10.2,1.4,20.5,1.1,30.6-1c16.9-3.2,32.1-10.1,46.8-18.6
	c12.5-7.3,25.1-14.4,37.4-22c16.3-10.2,33.5-12.7,52-7.5c1.4,0.4,2.9,0.8,4.4,1c11.5,2.1,21.7,7.2,31.5,13.1
	c12.6,7.6,25.2,15.3,38,22.7c5.7,3.3,11.8,6.1,17.7,9c10.9,5.3,22.6,6.3,34.4,5.1c9.3-0.8,18.5-2.5,27.5-4.9
	c2.9-0.7,5.8-1.6,8.6-2.7c8.8-3.9,17.7-7.6,26.2-12.2c7.4-4,14.3-8.9,21.5-13.4c4.6-2.9,9.3-5.6,13.8-8.6c8.6-5.6,18.2-7.9,28.2-8.4
	c7.8-0.4,15.7-0.4,23.5,0.1c4.7,0.3,9.4,1.7,14.1,3c12.6,3.5,24.2,9,35.7,15.1c8.2,4.4,16.5,8.7,25.1,12.4c17.3,7.3,35.2,9.2,54,6.5
	s35-10.9,50.9-20.1c9.6-5.5,18.8-12,27.9-18.3c12.9-8.8,26.8-14.9,42.4-16.8c3.9-0.5,7.8-1.2,11.6-1.3c3.2-0.1,6.5,0.6,9.4,0.9
	c3.5,3.5,5.3,7.3,7.4,10.9c17.7,30.5,35.3,61,52.9,91.6c4.4,7.6,8.8,15.1,13.2,22.6c0.7,1.3,1.2,2.7,2.8,6.2
	c-3.9-1.7-5.8-2.4-7.6-3.4c-8.4-4.6-16.8-9.3-25.3-14c-8-4.4-16.7-6.7-25.6-8.4c-11.6-2.1-23.4-2.7-35.1-1.8
	c-15.7,1.1-30.9,6.1-44.2,14.6c-8.2,5.1-16,10.7-24,16.1c-12.8,8.6-26.4,15.8-40.7,21.4c-6.4,2.6-13.3,4-20.2,4
	c-2.7,0-5.4,0.1-8.1,0.2c-15.4,1-29.9-2.8-43.8-9.2c-7.9-3.7-15.8-7.4-23.4-11.7c-14.2-8-29.6-13.6-45.7-16.6
	c-10.1-1.9-20.4-1.4-30.6-0.1c-14.9,2-28.3,8.1-40.8,16.2c-6.6,4.2-13.1,8.6-19.8,12.6c-4.9,2.9-10.1,5.4-15.3,7.8
	c-9.6,4.4-19.2,8.5-29.7,10.5c-9.2,1.7-18.4,3.1-27.8,2.7c-6.9-0.4-13.7-2-20.1-4.8c-12.3-5-24-11.2-35.1-18.5
	c-9.8-6.4-20.2-12-30.4-17.8c-5-2.8-10.3-5-15.9-6.3c-5.6-1.3-11-3.4-16.6-4.2c-9.2-1.3-18.5-2-27.8,0.4c-8.2,2.1-16.5,3.7-24.1,7.6
	c-5.6,2.9-11.1,6.1-16.6,9.2c-10.7,6.1-21.4,12.4-32.2,18.3c-12.5,6.9-26.1,11-40,13.8c-11.1,2.2-22.1,0.3-33-2.9
	c-17.5-5.2-33.6-13.2-49-22.8c-7.7-4.7-15.5-9.3-23.4-13.7c-5.5-3.1-11.4-5.4-17.6-7c-2.9-0.7-5.9-1.4-8.8-2.1
	c-11.4-2.9-23.4-2.7-34.8,0.5c-1.1,0.4-2.3,0.7-3.5,1c-12.2,1.8-23,7.1-33.3,13.3c-10.8,6.5-21.6,13.1-32.4,19.7
	c-9,5.5-18.8,9.4-28.7,13.1c-9.3,3.5-19,3.7-28.6,2.5c-12.6-1.4-24.9-4.6-36.6-9.4c-14.9-6.2-28.3-14.8-41.8-23.3
	c-7.8-5.1-16.2-9.4-25-12.6c-9.2-3-18.7-4.7-28.3-5c-16.7-0.8-32.2,3.6-47.5,9.5c-9.6,3.7-18.4,9-27.5,13.7
	c-8.5,4.5-17.4,8.3-26.5,11.4c-7.7,2.6-15.8,4-24,4c-3.6-0.1-7.2-0.2-10.8-0.1c-11.8,0.4-22.5-3.1-33.1-8
	c-16.2-7.4-31.2-17-45.7-27.4c-11.8-8.6-24.6-15.3-38.9-18.5c-15.4-3.5-31-3.5-46.6-1c-9.9,1.6-19.5,3.7-28.4,8.4
	c-8.5,4.5-16.9,9.3-25.3,13.9c-2,1.1-3.9,2.7-6.4,2.5C325.1,1845.5,324.7,1844.9,324.9,1844.5z M1833.4,1429.4
	c-2.1,6.6-4.6,13.1-7.3,19.4c-3.9,9.3-5.5,19.1-7.2,28.8c-0.6,3.2-1.1,6.5-1.5,9.8c-1.2,9-2.8,17.9-3.5,26.8
	c-0.6,7.2-0.7,14.4,0.9,21.6c3,13.8,5.3,27.8,8.2,41.6c1.6,7.7,3.2,15.3,3.4,23.2c0.2,4.5,1,9,1.4,13.5c0.9,12.8-1.1,25.2-4.1,37.6
	c-2.3,9.3-5,18.6-8.1,27.7c-1.8,5.4-4.7,10.4-7.3,15.5c-0.7,1.4-2.3,2.5-3.8,4c-1-0.9-1.9-1.9-2.7-3c-16.7-28.6-33.3-57.2-49.9-86.5
	c1.9-4.6,3.4-8.6,5.2-12.4c4.7-10.2,7.2-21.1,10-31.8c0.2-0.6,0.3-1.2,0.3-1.8c0.6-13.5,1.6-27-0.8-40.5
	c-2.8-15.7-5.3-31.5-7.4-47.3c-2.1-15.2,0.1-30,4.7-44.6c2-6.3,4.2-12.6,6.7-18.7c7.1-17.7,9.1-36.2,7.9-55
	c-0.7-9-2.8-17.9-6.1-26.3c-3.8-10.5-6-21.5-6.6-32.6c-0.4-5.7-1.1-11.4,0.4-17c0.3-0.8,0.7-1.5,1.1-2.2c2.4-0.3,3.4,1.4,4.5,2.8
	c18.3,21.2,36.6,42.4,54.9,63.7c2.6,3,4.6,6.4,5.9,10.1C1841.6,1380.3,1841.2,1404.8,1833.4,1429.4z M30.7,1320
	c-7.7-37.6-13.3-75.6-17-113.8c3.2,0.2,6.5,0,9.6-0.6c17.7-4.3,34.6-10.5,49.8-20.8c12-8.2,25-14.5,38.3-20.2
	c18.4-8,40.3-8.7,59.7-6.1c9.7,1.3,18.4,5.5,27.5,8.7c4,1.4,7.8,3.1,11.4,5.3c11.3,6.9,22.5,14,33.7,21.2c3.7,2.6,7.8,4.6,12.1,5.9
	c5.5,1.5,11.1,2.8,16.5,4.5c8.7,2.7,17.3,5.2,26.5,2.7c1.5-0.3,3-0.3,4.5-0.2c8.2-0.2,16.2-1.6,24-4.1c14.2-4.3,27.7-10.2,40-18.6
	c2.7-1.9,5.7-3.4,8.5-5.1c3.9-2.3,7.9-4.4,11.7-6.8c8-4.9,16.2-9.3,25.4-11.7c6.4-1.7,12.5-4.3,19.3-4.7c20.4-1.1,39.4,4,57.6,12.8
	c4.1,2,8.2,3.8,12.2,5.9c1.3,0.8,2.5,1.8,3.6,2.9c-1.1,1.6-1.9,2.9-2.8,4c-4.5,5.3-9.1,10.4-13.6,15.7c-12.5,14.7-24.9,29.4-37.5,44
	c-19.2,22.4-38.5,44.8-57.8,67.2c-15.1,17.6-30.2,35.2-45.3,52.8c-4.3,5-8.7,10-13,15.1c-8.8,10.3-17.6,20.6-26.4,30.9
	c-9.6,11.2-19.2,22.4-28.8,33.6c-8.6,10.1-17.3,20.1-25.9,30.2c-9,10.5-18.1,21-27.1,31.5c-8.4,9.8-16.7,19.8-25.1,29.6
	c-9.6,11.2-19.4,22.3-29,33.5c-9.8,11.4-19.6,22.9-29.4,34.3c-3,3.5-6,7.1-9,10.6c-14.8-27.9-28.3-56.4-40.6-85.4
	C66.3,1458.8,45.1,1390.2,30.7,1320z M165.7,1657.7c-0.3,1.8-0.7,3.6-0.9,5.4c-8.8-14.5-17.2-29.3-25.3-44.2c0.3-0.3,0.6-0.7,0.9-1
	c5.9-6.8,11.9-13.6,17.9-20.4c1-1.1,2.1-2.3,4.2-1.2c2.5,7.6,4,15.5,4.5,23.5C167.5,1632.4,168.1,1645.1,165.7,1657.7L165.7,1657.7z
	 M170.2,1672c1.1-0.7,2.1-1.6,2.7-2.8c0.5-1.1,0.7-2.3,0.7-3.5c0.3-2.7,0.4-5.4,0.7-8.1c2.4-18,2.6-36-1.8-53.8
	c-1.4-5.8-2.6-11.7-4-18.1c11.8-14.9,25-28.9,37.2-43.8c5.7-7,11.9-13.7,17.8-20.4c0.4-0.4,0.9-0.8,1.5-1c0.2-0.1,0.5,0,1.1,0
	c0.1,1.1,0.1,2.3,0,3.4c-1.7,7.9-3.3,15.9-5.3,23.8c-2.5,9.9-2.3,19.8-0.7,29.6c2.8,17,7.3,33.5,14.7,49.2
	c5.9,12.7,9.1,26.1,8.4,40.3c-0.3,6.3-0.1,12.6-1.9,18.8c-3.2,11-6,22.1-9.5,33c-2.7,8.3-4.8,16.8-6.2,25.4c-0.4,3-0.6,6.1-0.4,9.1
	c-10.5-14-20.6-28.2-30.4-42.7C186.4,1697.7,178.2,1684.9,170.2,1672L170.2,1672z M1320,2169.3c-145.2,29.6-294.8,29.6-440,0
	c-70.2-14.4-138.9-35.7-204.9-63.6c-11.1-4.7-22.1-9.6-33-14.6c4.5-1.5,9-3,13.4-4.6c17-6.2,34.4-5,51.7-1.7c5,1,9.9,2.9,14.2,5.7
	c9.9,6.4,19.8,12.6,29.9,18.7c5.7,3.4,11.6,6.4,17.5,9.4c3.2,1.6,6.5,3.1,9.9,4.4c5.3,2,10.7,4.2,16.2,5.7
	c12.2,3.2,24.9,4.7,37.5,4.3c7.6,0,15-1.6,21.9-4.9c8.4-4.1,16.7-8.4,24.8-13c10.5-6,20.6-12.5,31-18.6c9.9-5.8,20-10.8,31.5-13.2
	c8.3-1.8,16.5-3.3,25-3.4c10.9,0,21.6,3.1,30.8,9c13.5,8.5,27.2,16.7,41.2,24.4c9.3,5,18.5,10.2,28.7,13.1
	c15.1,4.3,30.3,7.7,46.2,4.8c13.4-2.5,26.4-5.9,38.6-12.3c17.1-9,33.9-18.5,50.1-28.9c15.9-10.3,33.1-12.1,51.2-8
	c3.2,0.7,6.4,1.5,9.7,2.3c5.9,1.2,11.6,3.4,16.8,6.3c9.9,5.8,20.1,11,29.7,17.1c11.4,7.3,23.3,13.9,35.5,19.8
	c5.2,2.5,10.5,4.9,16.3,5.1c9,0.3,18.2,0.7,27.1-0.4c13.8-1.6,27.2-5.1,39.6-11.8c1.1-0.6,2.2-1,3.3-1.5c7-2.8,13.7-6.4,19.9-10.6
	c9.6-6.2,19.4-12.2,29.1-18.2c5.7-3.4,12.1-5.6,18.7-6.2c2.4-0.3,4.8-0.8,7.1-1.1c9.6-0.9,19.3-1.6,28.7,0.9
	c7.8,2.1,15.7,4.4,23.3,7.2c-11,5.1-22.1,10-33.3,14.8C1458.9,2133.7,1390.2,2155,1320,2169.3z M1569.5,2085.7
	c-2.2-1-4.2-1.9-6.2-2.7c-16-6.6-32.5-10.8-50.1-9.8c-8.1,0.4-16.2,1.7-24,4.1c-9.9,3-18.8,7.9-27.5,13.4
	c-13.5,8.5-26.9,17.1-41.8,23.3c-11.7,4.8-24,8-36.6,9.4c-9.6,1.2-19.3,1-28.6-2.5c-9.9-3.7-19.7-7.6-28.7-13.1
	c-10.8-6.6-21.6-13.2-32.4-19.7c-10.4-6.2-21.2-11.6-33.3-13.4c-1.2-0.3-2.3-0.6-3.5-1c-11.4-3.2-23.3-3.4-34.8-0.5
	c-2.9,0.8-5.9,1.4-8.8,2.1c-6.1,1.6-12,3.9-17.6,7c-7.9,4.4-15.7,8.9-23.4,13.7c-15.5,9.5-31.5,17.6-49,22.8
	c-10.9,3.2-21.9,5.1-33,2.9c-13.9-2.8-27.5-6.9-40-13.8c-10.8-5.9-21.5-12.2-32.2-18.3c-5.5-3.1-11-6.3-16.6-9.2
	c-7.6-3.9-15.9-5.5-24.1-7.6c-9.3-2.4-18.6-1.7-27.8-0.4c-5.6,0.8-11.1,2.8-16.6,4.2c-5.6,1.3-10.9,3.4-15.9,6.3
	c-10.2,5.8-20.6,11.4-30.4,17.8c-11.1,7.3-22.8,13.5-35.1,18.5c-6.4,2.7-13.2,4.3-20.1,4.8c-9.4,0.4-18.6-0.9-27.8-2.7
	c-15.6-3.1-29.5-10.1-43.5-17.3c-1.1-0.5-2-1.3-3.1-1.9c-6.6-4.2-13.2-8.4-19.8-12.7c-20.3-13.2-42.5-17.8-66.4-15.7
	c-1.5,0.2-3,0.4-4.5,0.7c-12.2,2.6-24,6.5-35.4,11.7c-49-23.4-96.2-50.3-141.2-80.7c-27.2-18.4-53.5-38-79.1-58.8h0.4
	c11.2,0.4,22.1,2.7,32.5,7c7.8,3.3,15.1,7.5,22,12.4c15.3,10.7,31.2,20.5,48.2,28.5c13.1,6.1,26.9,8.6,41,9.9
	c8.4,0.8,16.8-0.9,25-2.8c13.3-3,25.5-9,37.4-15.5c12.1-6.7,24.8-12.3,37.9-16.9c17.2-5.8,34.4-5,51.7-1.8c5.1,0.9,9.9,2.9,14.2,5.7
	c10.2,6.5,20.4,12.9,30.7,19.1c5.1,3.1,10.5,5.9,15.9,8.6c3.5,1.7,7.1,3.3,10.8,4.7c5.3,2.2,10.7,4.1,16.1,5.8
	c11.7,3,23.7,4.5,35.7,4.4c9.9,0,18.9-2.5,27.8-6.6c17.2-8.1,33-18.7,49.4-28.3c10.9-6.5,21.9-12.7,34.7-14.7
	c0.6-0.1,1.2-0.3,1.7-0.5c7.2-2.4,14.7-2.7,22.3-2.9c10.9-0.2,21.7,2.9,30.9,8.8c13.6,8.5,27.3,16.7,41.2,24.4
	c13.5,7.5,27.3,14,42.7,16.7c10.1,1.7,20,3.3,30.4,1.6c14.7-2.4,28.8-6.3,42-13.3c16.8-8.9,33.3-18.3,49.2-28.6
	c15.7-10,32.6-11.7,50.4-7.7c4.7,1,9.4,2.2,14,3.6c3.5,1,6.8,2.3,10.1,3.8c11.3,5.1,21.6,12,32.1,18.4c11.3,7,22.8,13.5,34.7,19.3
	c5.4,2.7,11,5.3,17.1,5.6c9,0.4,18.2,0.7,27.1-0.3c13.5-1.6,26.7-4.9,38.8-11.3c1.3-0.7,2.7-1.3,4.1-1.9c7-2.8,13.7-6.4,19.9-10.5
	c9.9-6.3,19.9-12.5,29.9-18.7c5.2-3.2,11-4.8,17-5.8c3-0.5,5.9-1.1,8.9-1.3c9.3-0.6,18.7-1.2,27.9,1c13.2,3,26,7.7,38.1,13.9
	c9.6,5,19.3,9.9,29,14.6c12.9,6.3,26.8,9.1,41,9.4c5.7,0.1,11.4-1,17-1.8c8.1-1.2,16-3,23.4-6.4c8.7-4.1,17.5-8.3,25.7-13.2
	c10.9-6.5,21.3-13.7,31.9-20.7c14.3-9.6,31.1-15,48.3-15.6c-25.5,20.8-51.8,40.4-79,58.8C1665.3,2035.4,1618.3,2062.3,1569.5,2085.7
	L1569.5,2085.7z M1871.8,1871.8c-22.9,22.9-46.8,44.8-71.8,65.7c-11.6-0.5-22.4,0.2-33,3c-13.6,3.6-25.8,10-37.1,18.1
	c-14.4,10.4-29.5,19.9-45.7,27.4c-10.5,4.8-21.3,8.3-33.1,7.9c-3.6-0.1-7.2,0-10.8,0.1c-8.2,0-16.3-1.3-24-4
	c-9.1-3.1-18-6.9-26.5-11.4c-9.1-4.7-17.9-9.9-27.5-13.6c-15.3-6-30.8-10.3-47.5-9.4c-9.6,0.3-19.2,2-28.3,5
	c-8.8,3.2-17.2,7.4-25,12.6c-13.5,8.5-26.9,17-41.8,23.3c-11.7,4.8-24,7.9-36.6,9.3c-9.3,1.2-18.7,1-27.7-2.3
	c-10.2-3.8-20.3-7.8-29.6-13.5c-10.8-6.6-21.6-13.2-32.4-19.7c-8.6-5.1-17.3-9.8-27.2-12c-2.9-0.7-5.9-1.2-8.8-2
	c-11.9-3.5-24.6-3.6-36.6-0.5c-2.6,0.7-5.3,1.3-7.9,2c-6.1,1.6-12,3.9-17.6,7c-7.9,4.4-15.7,9-23.4,13.7
	c-15.5,9.5-31.6,17.5-49.1,22.7c-10.6,3.1-21.3,5-32.1,3c-13.7-2.4-26.9-6.8-39.3-13.2c-11.4-6-22.7-12.4-33.7-19.3
	c-13.2-8.2-27.1-14.3-42.5-17.1c-8.6-1.4-17.5-1.4-26.1,0.2c-5.9,1.1-11.8,2.6-17.5,4.5c-4.6,1.3-9.1,3.1-13.4,5.3
	c-10.8,5.9-21.7,11.9-32,18.6c-11.1,7.3-22.9,13.4-35.2,18.4c-6.4,2.7-13.2,4.3-20.1,4.7c-8.7,0.3-17.5-0.5-26-2.3
	c-16.5-3.2-31.5-10.2-46-18.3c-6.8-3.8-13.3-8.3-19.9-12.6c-12.5-8.1-25.8-14.3-40.8-16.4c-10.2-1.5-20.6-1.9-30.6-0.2
	c-15.8,2.9-30.9,8.3-45,16c-8.5,4.6-17.1,9-25.8,13c-13.3,6-27.2,9.6-42.1,8.7c-3.3-0.2-6.6-0.1-9.9-0.3s-6.6-0.8-9.8-1.3
	c-6.6-1-12.6-3.9-18.7-6.6c-15.8-7-30.3-16.2-44.2-26.3c-14.4-10.3-29.7-18-47.5-20.9c-8.1-1.3-16.2-1.2-24.6-1
	c-24.9-20.9-48.9-42.8-71.9-65.8c-3.4-3.4-6.8-6.8-10.1-10.3l0.9-0.2c1.5-0.3,2.8-0.9,4.1-1.7c6-3.4,12-7,18-10.3
	c7.9-4.4,15.8-8.8,23.9-12.8c3.8-1.8,7.8-3.2,11.9-4.1c12-3,24.4-4.2,36.7-3.7c2.1,0.1,4.2,0.2,6.3,0.6c9.5,1.4,18.8,4.2,27.6,8.1
	c6.3,3,12.3,6.5,17.9,10.5c15.6,10.8,31.7,20.8,49,28.8c13.1,6,27,8.4,41.1,9.6c8.2,0.7,16.2-1,24.2-2.8c13.3-3,25.6-9,37.4-15.5
	c13.8-7.6,27.9-14.2,43.1-18.4c6.4-1.8,13-2.8,19.6-2.9c7.2,0,14.4,0.5,21.6,1.6c7,1,13.5,2.8,19.5,6.5
	c10.2,6.4,20.4,12.9,30.7,19.1c5.1,3.1,10.5,5.9,15.9,8.6c3.8,1.9,7.7,3.5,11.6,5.1c5,2.1,10.1,3.9,15.3,5.4
	c11.7,3,23.7,4.5,35.7,4.5c9.7-0.1,19.2-2.3,27.8-6.6c17.5-8.2,33.5-19,50.2-28.8c10.7-6.3,21.4-12.4,33.9-14.3
	c0.9-0.2,1.8-0.4,2.6-0.8c7-2.3,14.2-2.5,21.4-2.6c11.5-0.2,22,3.1,31.7,9.2c13.8,8.7,27.8,16.9,42,24.8c13.2,7.3,26.9,13.5,42,16
	c9.8,1.7,19.4,3,29.5,1.4c14.7-2.4,28.8-6.2,42-13.2c16.8-8.9,33.3-18.3,49.3-28.6c15.6-10.1,32.6-11.8,50.3-7.8
	c5,1.1,10,2.4,14.9,3.8c2.9,0.8,5.7,1.9,8.4,3.1c11.8,5.4,22.7,12.5,33.7,19.3c11.5,7.2,23.4,13.7,35.6,19.6
	c7.3,3.7,15.4,5.5,23.6,5.4c9-0.2,18,0,27-2s17.7-3.9,25.9-7.8c3-1.4,6-2.9,9-4.1c7.2-3,14.2-6.7,20.7-11
	c9.6-6.2,19.4-12.2,29.1-18.2c5.2-3.1,11-5,17-5.8c3-0.5,5.9-1.1,8.9-1.3c9.3-0.7,18.6-1.3,27.9,0.9c13.2,3,26,7.7,38.1,13.9
	c9.9,5.2,19.8,10.2,29.9,15c12.9,6,26.9,9.2,41.1,9.2c5.4,0.1,10.8-0.9,16.1-1.8c9.8-1.5,19.4-4.4,28.4-8.6
	c16.5-7.7,31.8-17.2,46.6-27.6c7.4-5.3,15.3-9.7,23.6-13.2c9.5-3.8,19.6-6,29.8-6.5c8.4-0.3,16.9,0.2,25.2,1.6
	c8.7,1.2,17.1,3.6,25,7.3c11.7,5.6,22.8,12.3,33.9,18.9c3.1,1.9,6.5,3.4,10,4.5C1878.9,1864.7,1875.4,1868.3,1871.8,1871.8
	L1871.8,1871.8z M1975.8,1751.5c-0.1-6.5-1-12.9-2.8-19.1c-3.5-13.1-7.4-26.1-11.6-39c-4.3-13.2-4.6-26.7-3.3-40.2
	c1-9.3,3.7-18.4,7.8-26.8c7.6-15.6,12-32.2,14.8-49.2c1.6-9.8,1.8-19.8-0.7-29.6c-2-7.9-3.6-15.8-5.3-23.8c-0.1-1.2-0.1-2.3,0-3.5
	c0.9,0.2,1.6,0.2,1.9,0.5c16.6,19.1,33.2,38.2,49.8,57.3c2.2,2.5,4.1,5.2,6,7.7c-0.3,1.5-0.4,2.7-0.7,3.8
	c-4.3,15.1-7.5,30.4-6.7,46.2c0.1,1.2,0,2.4,0,3.6c-0.5,9.4,2,18.6,2.4,27.9c0,0.6,0.2,1.2,0.5,1.7c0.6,0.8,1.3,1.6,2.1,2.3
	c-8.1,13.1-16.4,26-25,38.8C1995.7,1724.2,1985.9,1737.9,1975.8,1751.5L1975.8,1751.5z M2034.2,1651.5c-1.2-18.1-1.2-36.1,3.8-53.8
	c0.2-0.8,1-1.3,1.8-2.4c1.6,1.3,3.2,2.7,4.7,4.2c5.5,6.2,10.9,12.5,16.3,18.7c-8,14.9-16.4,29.5-25.2,44
	C2035.2,1658.7,2034.5,1655.1,2034.2,1651.5L2034.2,1651.5z M2105.7,1524.8c-12.2,28.8-25.6,57-40.3,84.8
	c-4.8-5.6-9.6-11.2-14.4-16.8l-30-35c-8.8-10.3-17.7-20.6-26.5-30.9c-8.8-10.3-17.6-20.7-26.4-31c-8.4-9.8-16.9-19.6-25.3-29.5
	c-9.4-11-18.8-22-28.2-33c-8.6-10.1-17.4-20-26-30.1c-9.6-11.2-19.1-22.5-28.7-33.7c-9.4-11-18.9-21.9-28.3-32.9
	c-15.9-18.5-31.7-37.1-47.6-55.7c-9.2-10.8-18.5-21.4-27.7-32.2c-13.1-15.3-26.3-30.7-39.4-46c-6.5-7.6-12.9-15.1-19.3-22.7
	c-1-1.1-2-2.3-1.2-4.6c0.8-0.5,2-1.3,3.3-1.9c3-1.4,6.1-2.7,9-4.2c17.9-9.3,36.8-14.8,57.2-14.2c2.1-0.1,4.2,0.1,6.3,0.4
	c10,2.3,20.1,4.7,29.2,9.4c10.7,5.5,21.2,11.5,31.3,18c11.2,7.3,23.2,12.7,35.6,17.4c13.5,5.1,27.8,5.1,41.7,7.1
	c0.6,0.1,1.2,0.1,1.8-0.1c5.2-1.5,10.8-1.2,15.8-3.5c2.1-1,4.7-1.1,7-1.7c8.5-2.2,16.6-4.9,24-10c9.4-6.4,19.4-12.1,29-18.3
	c4.8-3.1,10-5.7,15.4-7.5c7.7-2.6,15.3-5.3,23.2-7.5c9.4-2.6,22.1-2,31.8-2c9.1,0.1,18,1.9,26.4,5.4c14.6,5.6,28.8,12.2,41.8,21.3
	c15.5,10.8,33,17.3,51.3,21.8c2.9,0.6,5.8,0.8,8.7,0.7C2175.8,1315.9,2148.6,1423.3,2105.7,1524.8L2105.7,1524.8z"/>
<path class="st1" d="M529.8,560.3c2.5,13.3,6.9,26.2,12.9,38.3c6.5,12.9,15.5,22.9,27.8,30s25.8,10.5,39.9,9
	c13.5-1.4,26.8-4,39.4-9.4c1.9-0.8,3.9-1.5,5.8-2.4c12.7-5.6,25.4-11,36.9-19c11.1-7.8,22.4-15.3,32.6-24.2
	c6.2-5.2,12.1-10.8,17.8-16.7c8.6-9.3,15.3-20.3,19.7-32.2c5.8-15.5,1.8-30.9-10.5-41.8c-2.5-2.2-5-4.3-7.8-6.8
	c5.6-5.5,12-9.4,17.7-13.5c7.5-1.1,14.2,0.5,21,2.3c8.4,2.3,16.9,4.4,25.3,6.7c4.6,1.3,9.5,2.3,13.7,4.4c8.7,4.2,17.1,8.9,25.3,14
	c6.7,4.1,12.9,8.9,18.5,14.4c10.2,10.4,17.4,23.2,22.1,36.9c3.7,10.8,5.5,22.2,8.2,33.3c0.3,1.5,0.7,2.9,1.2,4.3
	c1,2.4,3.8,3.6,6.2,2.6c1.3-0.5,2.4-1.6,2.8-3c0.4-1.4,0.4-3,0.7-4.4c0.4-2.1,0.9-4.1,1.6-6.1c0.4-1,1.4-1.7,2.5-2.8
	c1.6,2.2,2.8,3.8,4,5.5c1.5,2.2,3.2,4.4,4.9,6.5c1.3,1.3,3.3,1.7,5.1,1c1.8-0.5,3.1-2.1,3.2-4c0.2-3.3,0-6.6,0-9.9
	c0-1.7,0.4-3.4,0.6-5.8c2.2,1.2,3.7,2,5.2,3s2.8,2.4,4.3,3.4c1.5,1.1,3.5,1.3,5.1,0.3c1-0.8,1.9-1.8,2.6-2.9
	c-0.8-5.1-6-7.6-5.5-12.6c1-2.2,2.9-2.1,4.7-1.8c3,0.5,5.9,1.2,8.8,1.6c0.8,0.1,1.6-0.6,2.7-1c1.1-2.2,1.4-4.5-0.6-7.6
	c-2.2-1-5.2-2.4-8.1-3.8c-8.8-4.3-17-9.5-22-18.1c-4.3-7.2-7.9-14.9-10.5-22.9c-4.3-13.2-9.4-26-18.2-37
	c-8.4-10.4-17.4-19.8-29.6-26c-11.8-6-23.8-11.7-36.6-15.3c-1-0.3-2.5-0.2-2.5-1.8c0.3-0.5,0.6-1,1-1.5c0.9-0.8,1.8-1.5,2.8-2.3
	c13.8-10.2,28.8-18.8,44.6-25.6c5.2-2.3,10.4-4.9,15.9-6.4c16.6-4.5,33.3-8.2,50.7-8.3c14.8-0.1,29.5,1.3,44.2,2.1
	c0.9,0,1.8,0.1,2.7,0.3c12.6,2.9,25.2,5.7,37.8,8.9c7.3,1.9,14.3,4.8,21.6,6.5c8.8,2.1,17.5,4.6,26,7.6c5.7,2,11.6,3.4,17.6,4
	c5.1,0.4,10.2,1.1,15.2,1.9c12.8,2,25.9,2,38.7,0.1c5.7-0.8,11.3-1.7,17-2.3c10.5-1,20.9-2.8,31.1-5.3c3.2-0.9,6.4-1.6,9.7-1.9
	c5.2-0.3,10.1-1.7,15-3c3.2-0.8,6.4-1.7,9.6-2.6c9.3-2.6,18.9-3.8,28.4-5c9.3-1.1,18.7-1.8,28,0c18.5,3.6,36,9.9,51.8,20.5
	c8.2,5.6,16.3,11.3,24.5,17.1c0.6,0.6,1.1,1.3,1.4,2c-0.3,0.6-0.7,1.1-1.2,1.6c-13.1,9.1-23.2,20.9-31.6,34.3
	c-2.9,4.6-5.7,9.3-9,13.6c-5.2,6.6-10.3,13.4-16.2,19.3c-9.1,9.2-19.8,15.7-33.1,17.1c-9.9,1-19.7,2.7-29.7,2.8
	c-2.7-0.1-5.4,0.1-8.1,0.4c-1.5,0.3-2.8,0.9-4,1.8c-2.1,1.7-1.8,5.1,0.6,6c3.1,1.1,6.3,1.8,9.5,2.7c2.2,0.6,3.9,1.6,4.2,4.2
	c-0.6,2.8-2.5,4.7-4.7,6.3c-1.4,1.1-3,2-4.3,3.2c-2.1,1.8-2,3.3,0,6.9c5.2,3.2,10.5-2.6,15.6,0c0,0.7,0.1,1.1,0,1.2
	c-1.6,1.7-3.3,3.4-5,5c-1.9,1.7-2.3,4.4-1,6.6c1,1.8,3.1,2.5,5.5,1.8c2.9-0.8,5.7-2,8.6-2.8c2-0.7,4.2,0.1,5.2,1.9
	c-0.2,1.3-0.5,2.6-0.9,3.8c-1,1.8-2.2,3.6-3.4,5.3c-1,1.6-1.7,3.5-0.7,5.1c0.8,1.3,2.6,2.1,3.6,2.9c3.5-1,4.9-3.4,6.5-5.6
	c5.6-7.7,13.5-12.8,20.1-19.4c1.2-0.9,2.5-1.7,3.9-2.3c2.3-1.3,4.7-2.8,7.1-3.9c3.2-1.6,6.6-3,9.9-4.2c3.4-1.2,6.9-2,10.4-2.9
	c7.9-2,15.6-4.3,23.8-4.8c8.1-0.5,16.1-2.4,23.6-5.8c4.4-2,8.7-4.2,13-6.3c14.5-7,26.9-17.7,35.9-31c0.8-1.2,1.2-2.9,3.6-2.5
	c2.7,3.3,5.5,6.8,8.4,10.2c9,10.6,17.8,21.3,27.8,30.8c7,6.6,14.4,12.8,21.5,19.3c7.8,7.2,16.4,13.3,24.8,19.5
	c11.7,8.7,25.1,14.4,38.3,20.2c15.7,6.9,32.3,11.7,48.7,16.6c20.5,6.1,41.2,11.4,61.3,18.8c15.8,5.8,31.6,11.8,47.1,18.6
	c5.5,2.5,10.7,5.5,15.6,9.1c8.2,5.8,15.3,12.7,22.5,19.5c11.8,11.3,21.1,24.9,27.3,40c3.6,8.6,7,17.3,10.2,26.1
	c4.1,12,8.8,23.7,14.2,35.1c4,8.1,6.9,16.8,12.4,24c4.2,5.5,8.7,10.8,13,16.2c11.2,14.1,25.5,23.7,42.5,29.4c1.4,0.5,2.9,1,4.2,1.6
	c7.5,3.4,15.6,4.1,23.5,4.9c3.6-2.7,3-5.9,2.3-9.1l-2.5-2.8c-11.7-12.9-21-27.3-25.6-44.2c-2.9-10.4-6.7-20.7-6.2-31.8
	c0.1-1.8-0.6-3.6-0.8-5.3c-0.3-2.4-0.6-4.8-0.8-7.2c-1-8.7-1.5-17.4-2.9-26c-1.5-9.2-3.6-18.3-5.6-27.4c-0.7-3.2-1.6-6.4-2.5-9.6
	c-2.4-7.8-5.1-15.5-7.2-23.3c-2.2-7.5-5.4-14.7-9.6-21.4c-7.8-13-17.7-24.3-27.7-35.6c-9.6-10.9-21.4-19.5-31.7-29.6
	c-0.6-0.6-1.5-1-2.2-1.6c-10.1-8.2-21.3-14.7-32.8-20.7c-8.5-4.5-17.1-8.9-25.5-13.6c-12.7-6.9-26-12.7-39.7-17.3
	c-16.5-5.7-32.9-11.5-48.2-20.2c-8.7-4.9-17.3-9.8-25.4-15.5c-11.6-8.1-22.7-16.9-33.9-25.5c-2.4-1.8-4.6-3.9-6.4-6.3
	c-7.2-9.3-14.2-18.7-20-29c-4.1-7.3-7.5-15.1-12.6-21.9c-0.6-0.9-0.6-2.2-0.9-3.4c3.9-3.2,7.7-6.2,11.2-9.5
	c10.2-9.9,18.9-21.1,25.9-33.5c4.1-7,8.4-14,13.1-20.6c6.3-8.9,13.8-16.9,23-22.8c13.2-8.5,27.1-15.8,42.5-19.5
	c4.1-1,8.2-1.7,12.3-2.8c2.1-0.7,4.1-1.6,6-2.5c-0.3-2-0.2-3.9-0.8-5.4c-0.8-1.8-2.8-2.2-4.6-2.1c-2.1,0.1-4.2,0.6-6.2,0.7
	c-0.7,0-1.4-0.4-2.7-0.8c3.1-3.3,6.7-5,9.6-7.4c2.5-2.1,3.3-4.1,2.5-6.2c-0.9-2.4-3.4-3.4-6.9-2.5s-6.9,2.1-10.4,3
	c-1.8,0.5-3.6,0.6-5.2-1.3c0.6-6.6,7.4-9.9,9.3-15.8c-0.3-2.1-1-3.6-3-4.2c-1.8-0.5-3.7-0.1-5,1.1c-2.1,1.7-4.1,3.5-6.3,5.2
	c-1,0.7-2.1,1.2-3.5-0.5c0.4-1.7,0.8-3.7,1.4-5.6c1.2-3.7,2.5-7.4,3.6-11.2c0.1-0.6,0-1.2-0.1-1.8c-0.8-2.2-3.2-3.5-5.5-3.1
	c-1.5,1.2-2.9,2.6-4.1,4c-2.6,3.3-5.1,6.7-7.4,10.2c-2.4,3.8-5.8,7-9.8,9.1c-16.5,8.7-33.2,17.3-50.6,24.1
	c-11.6,4.3-22.8,9.4-33.7,15.2c-9.9,5.4-19.2,11.3-27.2,19.3c-4.1,4-7.9,8.3-11.9,12.4c-1,1-1.8,2.5-3.8,1.9
	c-9.6-13.3-19.1-26.9-29.1-40.1c-6.5-8.6-13.4-17-20.7-25.1c-14-15.5-30.9-27.8-47.7-40c-5.1-3.7-10-7.8-15.5-10.9
	c-12.6-7.2-25.3-14.1-38.2-20.6c-11.8-6-24-11.3-35.9-17.2c-7.6-3.8-15.4-6.9-23.5-9.2c-21.4-6.2-43-11.9-64.9-15.9
	c-9.2-1.7-18.4-3.2-27.7-4.1c-8.4-0.8-16.8-0.9-25.2-1.7c-9.3-0.8-18.7-1-28-0.7c-9.3,0.3-18.5-2.9-27.9-0.4
	c-1.6,0.4-3.6-0.4-5.4-0.4c-4.8-0.1-9.6-0.4-14.4-0.2s-9.6,1.1-14.4,1.1c-10.9-0.1-21.6,1.9-32.4,2.9c-4.5,0.4-8.9,1.4-13.4,2
	c-7.8,0.9-15.4,2.7-23.1,4.1c-13.3,2.4-26.7,4.7-39.4,9.4c-2,0.7-4,1.2-6,1.8c-11.7,3.9-23.6,7.2-35.1,11.7
	c-15.1,5.9-30.2,12.2-44.2,20.7c-5.1,3.1-10.5,6-15.8,8.8c-8.8,4.6-17.3,9.7-25.6,15.3c-5.2,3.6-10.3,7.3-15.8,10.5
	c-7.6,4.4-14.4,9.9-21.1,15.5c-9.9,8.3-19.8,16.7-29.6,25.2c-1.8,1.6-3.5,3.3-5.2,5c-6.3,6.5-12.3,13.2-19.2,19.1
	c-3.7,3.1-6.6,7-9.8,10.6s-6.2,7.4-10.6,11c-1.7-2.9-3-4.9-4.2-7c-9.5-15.5-21-29.5-34.4-41.8c-12.7-11.6-26.6-21.6-40.4-31.8
	c-1.2-0.9-2.5-1.7-3.8-2.4c-11.3-6.2-22.7-12.5-34.1-18.6c-3-1.4-6-2.7-9.2-3.7c-0.5-0.2-1.2,0.1-1.8,0.2c-1.9,1.2-3.1,2.7-2.5,5.7
	c3.7,4.7,11.6,6,13.3,13.6c-0.8,0.4-1.7,1.2-2.2,1c-2.5-0.9-5-2-7.4-3.2c-1.9-1-3.5-2.3-5.4-3.2c-1.6-1-3.6-1-5.2-0.1
	c-1.7,1-2.4,2.6-1.8,5.2c3.9,5.3,12,7.4,14.5,14.5c-1.6,2.1-3.5,2-5.2,1.5c-4.4-1.2-8.7-2.4-12.9-3.9c-2.6-0.9-5.1-1.9-7.9-1.2
	c-0.6,0.2-1.1,0.5-1.6,0.9c-1.5,1.9-1.2,3.9,0,6.2c5.4,4.1,13.1,5,18.2,10.3c-2.6,3.5-2.6,3.6-3.9,3.9c-2.9,0.7-5.9,1.4-8.8,2.1
	c-2.3,0.5-4.6,1.2-6.9,2.1c-1.8,0.6-3,2.3-2.9,4.2c0,1.9,1.1,3.6,2.9,4.2c2.6,0.8,5.2,1.3,7.9,1.5c7.2,0,14.5,0.6,21.5,2
	c7.1,1.5,14.2,2.8,21.2,4.2c2.4,0.5,4.7,1.2,6.9,2.2c11.4,5,20.8,12,25,24.4c2.2,6.5,5.3,12.8,7.8,19.3c4.5,12,11.4,22.6,19.2,32.6
	c1.8,2.4,3.8,4.5,5.7,6.7c-0.3,1-0.6,1.9-1.1,2.9c-7.1,10.1-14.3,20.1-21.5,30.1c-0.9,1-1.9,1.9-3.1,2.7c-4.9-2.6-9.5-4.9-13.9-7.5
	c-10.6-6.4-30.5-4.6-39.8,1.8c-9.1,6.2-17,13.5-23.1,22.6c-6.3,9.6-11.8,19.6-16.4,30.1c-4.8,10.8-9.3,21.5-11.7,33.1
	c-3.3,15.6-6.3,31.3-6.2,47.4c0,4.8,0,9.7,0.1,14.5C528.8,553.8,529.2,557.1,529.8,560.3z M869.9,454.5c2.4,1.3,4.5,3,6.4,5
	c6.9,7.1,13.9,14.3,19.2,22.7c4.3,6.9,7,14.7,9.8,22.3c2.8,7.3,5.9,14.5,9,21.7c3.5,8,9.1,15,16.3,20.2c1.2,0.9,2.3,1.9,3.1,2.7
	c0.2,0.7,0.4,1,0.3,1.3c-0.9,2.2-1.8,4.4-2.7,6.6c-0.8,0.4-1.7,0.6-2.7,0.7c-5.4-0.2-8.5,2.2-9.4,7.6c-0.1,0.5-0.6,1-1.2,2
	c-6.8-3-6.8-3-15.3-1.4c-2-2.7-2.5-5.9-3.3-9.1c-1.1-5-2.7-9.9-4.5-14.6c-3.8-8.9-8.5-17.4-13.9-25.3c-5.3-7.7-12.3-14-19.8-19.6
	c-10.4-7.8-21.8-14-33.2-20c-6.7-3.5-14.1-5.3-21.5-6.5c-9.5-1.6-18.6-4.9-27.9-7.5c-0.5-0.1-0.9-0.7-1.4-1.1
	c5.5-7.1,27.3-22.9,40.6-29.5C836.4,436.9,853.5,445,869.9,454.5z M1397.6,506c-9.6,8.7-20.8,14.3-32.2,19.7
	c-7.7,3.7-16.2,4.5-24.5,5.8c-4.2,0.6-8.4,1-12.4,2c-7.3,1.8-14.5,3.9-21.8,5.9c-1.2,0.3-2.3,0.7-3.4,1.3
	c-8.8,5.1-18.6,8.8-25.4,16.9c-0.7,0.8-1.5,1.5-2.4,2.1c-2.2,0.6-3.1-0.8-4.3-1.6c-2.2-1.5-4.6-2.7-7.3-4.3
	c-0.7-2.3-1.4-5.2-2.5-7.9s-4.1-3.3-6.7-4.2v-11.8c1.8-2.2,4.4-1.9,6.7-1.9c6.9-0.2,13.8-1.2,20.5-3c15.3-3.7,26.8-13.3,36.8-24.9
	c8.5-9.9,15.5-20.7,22.5-31.6c5.8-8.8,12.9-16.8,20.9-23.6c2.7-2.5,5.9-4.5,9.4-5.9c1.1,0.5,2.1,1,3,1.7
	c12.5,11.8,24.2,24.4,35,37.7c1.5,1.8,2.7,4,4.3,6.5C1409.8,492.9,1404.3,500,1397.6,506z M1819.7,809.8c-8.7-9.8-15.1-21-20.5-32.9
	c-3.2-7.1-6.5-14.2-9.6-21.5c-1.5-3.6-2.4-7.5-3.8-11.1c-4.2-10.6-8.6-21.2-12.9-31.8c-4.9-12-11.8-23.1-20.3-32.9
	c-10.1-11.6-21.5-21.9-34-30.9c-6.4-4.6-13.6-7.9-20.8-11c-14.7-6.3-29.4-12.4-44.5-17.6c-18-6.2-36-11.8-54.4-16.5
	c-6.4-1.6-12.6-4-18.9-6c-6.9-2.2-13.8-4.3-20.7-6.5c-3.2-0.9-6.3-2-9.3-3.4c-12.2-6-24.5-11.7-36.3-18.3
	c-10-5.6-18.6-13.3-27.4-20.6c-1.6-1.3-3-3-4.7-4.3c-12.2-8.7-21.7-20-31.6-30.9c-11.2-12.3-21.3-25.4-31.6-38.4
	c-13.3-16.8-28.2-32.2-43.7-46.9c-1.6-1.4-3.2-2.7-4.9-3.9c-10.5-8.1-21.5-15.5-32.9-22.3c-12.3-7.1-25.5-12.4-39.3-15.6
	c-9.9-2.6-20.2-3.7-30.4-3.4c-3.9,0.1-7.8,0.6-11.7,1c-5.1,0.5-10.2,0.8-15.2,1.8c-7.1,1.3-14.1,3.2-21.2,4.7
	c-5.9,1.2-11.8,2.2-17.7,3.5c-5,1.1-9.9,2.5-14.9,3.4c-7.1,1.3-14.2,2.4-21.4,3.3c-8,1-16.2,1.8-24.2,2.6c-1.8,0.2-3.6,0.7-5.4,0.7
	c-4.8,0.2-9.6,0.2-14.4-0.1c-7.5-0.6-14.9-2-22.4-2.5c-6.6-0.5-13.1-1.9-19.4-4c-8.5-3-17.2-5.5-26-7.5c-7-1.5-13.9-3.8-20.8-6
	c-12-3.9-24.4-6.7-36.9-8.6c-4.2-0.6-8.3-1.1-12.5-1.4c-6.9-0.5-13.7-1.7-20.7-1.5c-7.5,0.2-15.1-0.2-22.6-0.2
	c-8.4,0.1-16.8,1.1-25,3c-3.2,0.7-6.5,1.5-9.7,2c-12.6,2-24.3,6.6-35.6,12.6c-2.7,1.4-5.5,2.5-8.2,3.7c-10.8,4.9-20.6,11.3-30.3,18
	c-10.2,7-20.2,14.2-30.5,21c-7.1,4.6-13.8,9.6-20.4,14.9c-4.2,3.4-8.7,6.5-13,9.7c-13.2,10-26.4,20-39.6,30.1
	c-5.3,4-10.3,8.3-15.5,12.5c-2.6,2.1-5,4.3-9,4.9c-9.8-6.4-19.5-13.5-28.9-21c0.2-1,0.5-1.9,1-2.7c11.5-14,22.9-28,34.5-41.8
	c3.8-4.3,7.7-8.4,11.9-12.4c11.6-11.4,23.5-22.5,35.1-33.9c7.3-7.2,15.2-13.8,23.1-20.3c12.3-10.2,24.6-20.3,37-30.4
	c9.6-7.8,20.2-14.2,30.8-20.7c13.1-8.1,26.6-15.4,40.5-22.1c4.9-2.3,9.8-4.6,14.9-6.5c15.8-5.9,31.6-11.8,48.2-15.3
	c18.3-3.8,37-5.6,55.7-5.3c15.1,0.2,30,2.3,44.8,5.1c17.2,3.2,34.3,6.2,51.7,8c13.2,1.4,26.3,3.1,39.4,4.7c1.8,0.2,3.6,0.2,5.4,0.3
	c19.6,0.8,39.2-0.1,58.6-2.5c7.8-1,15.7-0.7,23.5-1c5.1-0.2,10.2-0.5,15.3-0.6c4.2-0.1,8.4,0.1,12.6,0c9.9-0.1,19.8-0.1,29.7,0.8
	c16.7,1.5,32.5,5.8,47.2,14.3c10.7,6.2,20.5,13.7,30.2,21.4c1.2,1,2.3,2,3.3,3.1c7.8,8.4,15.7,16.7,23.2,25.3
	c3.3,3.9,6.2,8.1,8.8,12.6c8.4,14,16.9,27.8,24.3,42.3c4.3,8.3,8.3,16.7,12.6,25c11.9,23.4,24,46.7,39.2,68.1
	c4.6,6.4,9.2,12.7,14,18.9c2.5,3.1,5.2,5.9,8.3,8.3c8.8,7.3,18.2,13.8,28.2,19.5c13.4,7.6,27.7,13.2,41.8,19.4
	c6.1,2.6,12.4,4.6,18.9,6.2c13.8,3.3,27.3,7.4,41.1,10.7c17,4.1,33.9,8.4,51.1,11.4c26.2,4.5,49.1,15.8,70.3,31.2
	c23.1,16.8,39,39.2,49.5,65.5c3.1,7.8,4.8,16.1,6.6,24.4c2.6,12.3,4.7,24.8,7.1,37.2c1.1,5.9,2.3,11.8,3.4,17.7
	c2.3,12.6,7.6,24.1,12.7,35.7c3.4,7.8,8.5,14.5,14,20.9c1.5,1.8,3.8,3,4.1,6.7C1835.6,827.2,1827.5,818.7,1819.7,809.8L1819.7,809.8
	z M1481.7,333.8c9.3-10.3,20.3-18.9,32.4-25.6c14.6-7.9,30.1-13.7,45.5-19.9c9.4-4,18.7-8.4,27.6-13.3c6.6-3.5,13.1-7.2,19.7-10.8
	l8.8,8.5c0.2,1.6,0.6,3.9,1,6.5l5.9,4.1l-1.7,10.2c-8.1,4-15.9,7.8-23.8,11.6c-15.3,7.3-27.3,18.5-37.6,31.7
	c-5.4,7.2-10.3,14.8-14.6,22.8c-6.1,10.7-13.6,20.7-22.1,29.5c-2.3,2.3-4.9,4.5-7.5,6.5c-1.3,0.8-2.6,1.6-4,2.2
	c-3.6-2.5-5.4-6-7.3-9.3c-8.6-15.2-18-29.9-28.2-44.1c-0.2-0.5-0.3-0.9-0.4-1.4C1477,339.6,1479.1,336.5,1481.7,333.8L1481.7,333.8z
	 M663.6,357.5c-6-8.7-11-18-14.8-27.8c-2.6-6.4-5.4-12.8-7.6-19.3c-3.3-10-10-17-18.3-22.8c-6.7-4.6-14.3-7.8-22.3-9.3
	c-7.1-1.4-14.1-2.8-21.2-4.2c-0.8-0.3-1.6-0.6-2.3-1c-1.4-2.5,1-3.9,1.5-5.8s1-4.1,1.7-6.8c4.1-2.9,10.2-5.3,8.3-12.4
	c2.2-1.9,4.3-3.2,5.8-5s2.1-4.1,3.3-6.7c1.7,0.6,3.1,1,4.4,1.7c8.7,4.2,17.2,8.6,24.5,15.2c2.5,2.1,5.2,4.1,8,5.9
	c14.6,10.1,27.9,22,39.7,35.3c8.1,9.3,15.5,19.2,21,30.3c0.8,1.6,1.4,3.3,2.3,5.5c-9,12-17.1,23.9-26.8,34.8
	C667.2,363,665.5,360.1,663.6,357.5z M645.8,417.7c3-4.9,6.5-9.4,9.8-14.1c5.2-7.4,10.6-14.7,15.5-22.3c5.2-8.1,10.8-16,16.8-23.5
	c8.3-10.4,16.2-21,24.5-31.4c6.2-8.1,13.2-15.7,20.8-22.5c2.9-2.6,5.7-5.4,8.4-8.2c16-16.9,34.3-31.2,52-46.2
	c0.7-0.6,1.4-1.1,2.2-1.6c19.3-11.7,37.6-25.1,57.5-35.8c17-9.1,34.2-18,52.3-24.5c19.8-7.1,39.7-14.3,60.4-18.6
	c12.3-2.6,24.8-4.7,37.3-6.7c11.9-1.9,23.8-3.5,35.7-4.9c5.4-0.6,10.8-0.4,16.2-0.7c3.6-0.2,7.2-0.7,10.8-1c1.8-0.2,3.6-0.4,5.4-0.4
	c14.5,0,29-0.6,43.4,0.4c12.3,0.9,24.7,0.3,36.9,2.4c1.8,0.3,3.6,0.4,5.4,0.3c15.5,0.1,30.6,3.1,45.5,6.4c17.9,4,35.8,8.1,53.3,13.8
	c6,2,11.9,4.3,17.7,6.8c11,4.9,21.8,10.4,32.8,15.2c6.9,3.1,13.6,6.5,20.1,10.3c6.8,3.9,13.8,7.5,20.6,11.4c3.4,1.9,6.8,3.9,10,6.2
	c9.2,6.8,18.4,13.6,27.4,20.6c15.5,12,29.5,25.9,41.6,41.3c12.2,15.7,23.7,32,34.8,48.4c2.2,3.2,4.6,6.4,6.9,9.5
	c10.4,14.1,19.8,28.8,28.3,44.1c3.7,6.6,7.6,13,11.8,19.3c5,7.5,9.3,15.5,13.7,23.4c6.1,10.8,13.2,20.9,21.2,30.4
	c2.7,3.2,5.7,6.2,8.9,9c15.4,13.5,32,25.7,49.4,36.4c2.3,1.4,4.8,2.6,7.2,3.9c5.3,2.9,10.6,5.8,15.9,8.6c2.6,1.5,5.4,2.8,8.2,3.9
	c10.2,3.7,20.5,7,30.6,10.9c12.6,4.9,25.2,9.9,37.2,16.4c11.1,6,22.2,12.2,33.3,18c10.4,5.4,20.1,12.2,28.7,20.2
	c8,7.4,16.3,14.2,23.8,22.2c10.9,11.7,21.5,23.6,29.8,37.4c3.5,5.6,6.2,11.7,7.9,18.1c1.8,7.3,4.5,14.4,6.8,21.5
	c1.6,4.5,2.7,9.2,3.3,14c0.4,3,1.1,5.9,2.1,8.8c1.8,5.8,2.9,11.7,3.4,17.7c0.8,9.6,2.1,19.1,3.2,28.7c0.2,1.5,0.4,3,0.4,4.5
	c-0.4,10.8,3.4,20.7,5.9,30.9c1.9,8.2,4.9,16.2,8.9,23.6c1.3,2.4,2.8,4.7,4.1,7c0.8,1.5,1.5,3.1,2.8,5.7c-1.7-0.5-2.6-0.6-3.1-1
	c-9.7-9.5-18.6-19.6-24.4-32.2c-6.8-15.1-11.7-31-14.4-47.4c-2.5-13.9-4.9-27.8-7.7-41.7c-5.6-27.5-18-51.6-36.7-72.5
	c-13.6-15.4-30.1-28-48.4-37.2c-13.7-6.9-27.8-13.5-43.1-15.9c-14.9-2.4-29.5-6.1-44.1-9.4c-14.1-3.2-28-7-42-10.5
	c-4.7-1.2-9.4-2-14-3.5c-7.7-2.5-15.3-5.4-22.9-8.4c-5.3-2.1-10.5-4.5-15.8-6.8c-18.7-8.2-35.6-19.1-49.4-34.2
	c-9.3-10.3-17.5-21.6-24.5-33.5c-7.5-12.7-15-25.4-22.2-38.3c-2.8-5-5.2-10.2-7.6-15.4c-6.3-14-13.5-27.6-21.4-40.8
	c-3.1-5.1-6.3-10.3-9.2-15.6c-7.4-13.6-16.9-25.6-27.3-37c-11.9-13.2-25.6-24.8-40.6-34.4c-6.6-4.3-13.6-7.7-21-10.3
	c-3.1-1.1-6.3-2.1-9.4-3.3c-8.5-3.3-17.6-4.1-26.5-5.3c-12.2-1.7-24.6-1.6-37-1.5c-4.5,0-9-0.2-13.5,1c-2,0.5-4.2,0.2-6.3,0.3
	c-7.5,0.1-15.1,0.2-22.6,0.4c-4.5,0.1-9-0.1-13.4,1.3c-0.9,0.2-1.8,0.3-2.7,0.3c-10.5,0.5-21.1,1.7-31.6,1.4s-21-0.7-31.4-2.5
	c-1.5-0.2-3-0.4-4.5-0.5c-13.8-0.8-27.5-3.2-41.2-5.1c-14-1.9-27.9-4.8-41.8-7.1c-8.6-1.5-17.3-1.8-26-2.6c-3-0.3-6-0.7-9-0.9
	c-3-0.2-6-0.3-9-0.1c-4.2,0.2-8.4,0.9-12.6,1.2c-19.6,1.3-38.9,3.8-57.5,10.5c-9.6,3.5-19.4,6.6-29,10.1c-4.5,1.6-8.9,3.6-13.3,5.7
	c-34.4,16.3-66.5,36.9-95.5,61.5c-8.3,7-17,13.5-25.3,20.4c-6,5-11.8,10.3-17.5,15.7c-13,12.5-26.2,25-38.8,37.9
	c-13,13.5-25.1,27.7-36.2,42.8c-2.3,3.1-4.5,6.4-7.8,8.5c-11-6.1-31.3-21.5-36.9-28.1c0.4-1.4,0.9-2.7,1.6-4
	C635.2,435.9,640.3,426.7,645.8,417.7L645.8,417.7z M537.9,530.4c0.8-10.5,2.6-20.9,4.2-31.3c0.7-4.5,1.6-8.9,2.8-13.2
	c1.5-5.5,2.8-11.1,5.2-16.3c5.9-13.2,11.8-26.4,19.9-38.5c5.4-8.4,12.6-15.4,21.1-20.7c8.7-5.4,22-5.8,31.2-1.3c3,1.4,6,2.9,8.8,4.5
	c1.5,1.1,3,2.2,4.3,3.5c-4.5,11.8-12.8,21.3-17.3,32.5c0.2,3.6,2.2,5.7,4.7,7.6c7.2,5.4,14.5,10.9,21.7,16.2
	c16.7,12.3,33.5,24.6,50.3,36.9c2.7,1.9,5.1,4.2,8.6,4.7c3.5-0.4,5.9-2.7,8.5-4.8c6.8-5.5,13.7-10.9,20.5-16.2
	c1.1-0.7,2.3-1.3,3.6-1.8c7,3.4,12.8,9,16.4,15.9c3.7,7.2,3.5,14.5,0.9,21.9c-4.5,12.5-11.8,23.8-21.3,33.1
	c-16.2,16.2-34.4,30.3-54.2,41.9c-18.2,10.7-37.7,19-58.9,21.9c-10.7,1.5-21.6,2-32.3-1.2c-7.5-2.3-14.4-6.2-20.2-11.6
	c-10.7-9.7-16.8-21.9-21.5-35C539.1,563.7,536.7,547,537.9,530.4z"/>
<path class="st1" d="M568.6,534c6.1,2.5,14.9,0.5,18.9-4.8c3.6-4.7,5.7-9.9,3.3-16c-2.8-7.3-10.4-11.6-18.1-10.2
	c-7.7,1.4-13.4,8.7-13.3,16.9C559.4,526.5,562.8,531.6,568.6,534z M570.8,514c1.4-0.8,2.8-1.5,4.3-2.1c0.8,0.1,1.5,0.3,2.3,0.5
	c5.4,2.8,6.1,7.3,1.9,11.4c-3,2.9-6.8,2.7-9.4-0.3c-2.4-2.6-2.2-6.7,0.4-9.1C570.5,514.3,570.7,514.1,570.8,514z"/>
<path class="st1" d="M657.6,592.9c9.2-0.3,16.4-7.9,16.2-17.1c-0.2-8.8-6.9-15.4-15.6-15.2c-9.4,0.2-17.3,8.4-16.9,17.5
	C641.5,586,649,593.4,657.6,592.9z M658,569.7c4.2,1.1,6.8,3.2,6.3,7.6c-0.5,3.4-3.1,6-6.5,6.5c-1.2,0.1-2.4-0.1-3.5-0.6
	c-1.6-0.6-1.8-1-4.2-5.5C650.6,572.8,653.6,570.5,658,569.7L658,569.7z"/>
</svg>
