<?xml version="1.0" encoding="utf-8"?>
<!-- Generator: Adobe Illustrator 24.0.0, SVG Export Plug-In . SVG Version: 6.00 Build 0)  -->
<svg version="1.1" id="Warstwa_1" xmlns="http://www.w3.org/2000/svg" xmlns:xlink="http://www.w3.org/1999/xlink" x="0px" y="0px"
	 viewBox="0 0 2200 2200" style="enable-background:new 0 0 2200 2200;" xml:space="preserve">
<style type="text/css">
	.st0{fill:#0B1A16;}
	.st1{fill:#D6D9C7;}
</style>
<circle class="st0" cx="1100" cy="1100" r="1100"/>
<path class="st1" d="M1751.2,1734.1c-7.6-13-15.4-26-22.9-39.1c-7-12.4-15.1-24.1-23.2-35.7c-1.8-2.5-3.5-5-7.1-5.2
	c-3.3,0.5-5.7,2.9-8.3,5c-15.7,12.3-31.4,24.6-47,37c-1.8,1.4-3.9,2.7-6.5,4.5c-0.7-6.7-1.5-12.7-1.8-18.7
	c-0.9-13.6-3.7-26.9-8.4-39.7c-3.8-10.5-9.5-20.2-14.2-30.3c-9.3-20.1-23.5-36.5-39-51.8c-5.8-5.7-12.1-11-17.8-16.7
	c-8.1-8.1-16.8-15.6-24.1-24.6c-1.7-2.1-3.9-3.8-5.8-5.8c-5.9-6.4-11.8-12.9-17.7-19.4c-3.2-3.6-6-7.6-9.3-11.1
	c-7.8-8.4-15.6-16.8-24.7-23.9c-4.5-3.5-8.7-7.5-13.8-10.2c-16.6-8.7-33-17.7-51.3-22.4c-3.2-0.8-6.3-2-9.5-3
	c-12.6-3.8-23.9-10.3-34.6-17.6c-9.7-6.7-18.5-14.7-26.1-23.8c-3-3.4-5.9-6.9-9-10.2c-4.7-5.2-8.7-10.8-12.2-16.9
	c-8.7-14.7-14.2-30.6-18.3-47.1c-1.7-6.7-3.5-13.4-5.4-20.1c-0.4-1.3-1.6-2.3-2.3-3.2c-3.1-0.2-4.8,1.1-4.9,3.5
	c-0.2,2.7,0,5.4,0.6,8.1c5,21.5,7.6,43.3,9.9,65.2c1.5,14.1,3.4,28.1,6.9,41.9c1.7,6.7,3.8,13.3,4.9,20.2c1,6.2,3.2,12.2,5.5,18.2
	c4.6,12.2,11.1,23.4,18.3,34.3c8.4,12.6,17.5,24.6,29.6,34c3.3,2.6,6.5,5.4,9.7,8.2c7.6,6.5,14.8,13.3,20.4,21.7
	c5.5,8,10.1,16.5,13.7,25.5c6.3,16.3,12.5,32.7,18.6,49.1s13.9,32.1,25.6,45.5c8.2,9.4,16.7,18.3,26.6,25.9c1,0.7,2,1.3,3.1,1.8
	c1.7,0.7,3.7,0.1,4.8-1.5c0.9-1.3,0.9-3-0.2-4.2c-2.6-2.9-5.4-5.7-8.2-8.4c-18.1-17.3-33.1-36.8-41.4-60.8
	c-4.3-12.6-8.9-25-13.6-37.4c-5-13.3-10.7-26.3-18.5-38.2c-5.7-8.6-12-16.6-20.2-23.1c-5.9-4.7-11.6-9.7-17.1-14.8
	c-4.3-3.8-8.3-7.9-12-12.3c-8.3-10-15.5-20.8-21.7-32.3c-4.7-8.7-9.3-17.6-11.3-27.6c-1.1-5.6-2.4-11.2-4.1-16.7
	c-4.7-15-7-30.6-9.5-46c-0.3-2,0-4.1,0-7.2c3.1,4.8,5.2,8.8,8,12.3c4.9,6.1,10.1,12,15.2,17.9c11.2,12.8,23.7,24,38.5,32.6
	c10.4,6.1,21.5,11.1,33,14.7c7.2,2.3,14.3,4.8,21.4,7.3c10,3.5,19.1,9,28.6,13.5c3.5,1.7,6.9,3.8,10,6.2c12,9.3,23.2,19.6,32.4,31.6
	c13.7,17.8,29.8,33.2,45.2,49.4c8.5,8.9,18,16.9,27,25.4c8.8,8.2,16.9,17.3,24.1,27c3.7,5.2,7.1,10.5,10.1,16.1
	c3.7,6.6,6.9,13.4,10.3,20.2c9.2,18.1,14.3,38,15,58.3c0.1,2.7,0.5,5.4,0.8,8.1c0.6,5.7,0.9,11.4-0.4,17.1
	c-1.2,5.3-1.6,10.7-2.7,16.1c-1.3,6.8-1.4,13.8-4.1,20.6c-2.7,1.1-5.4,2.5-8.2,3.4c-3.2,0.9-6,2.9-8,5.6c-1,1.4-2.1,2.9-2.9,3.9
	c-13.2,4.2-13.4,4.4-19.1,19c-4.5,1.1-9.1,2.5-12.8,5.7s-4.5,8.4-7,12.6c-1.3,0.2-2.5,0.4-3.7,0.5c-4.6,0.4-8.8,3-11.1,7
	c-2.8,4.6-5.1,9.5-7.5,14.1c0.5,2.2,0.6,4,1.3,5.6c1.5,3.3,3.3,6.4,5.1,10.1c0.1,10.1,1.9,20.1,11.8,26.7c0.4,2.8,0.8,5.4,1,8.1
	c0.8,7.7,4.9,12.8,12.2,15.2c1.7,0.6,3.4,0.9,4.9,1.3c0.8,1.8,1.4,3.2,2,4.6c2.2,5.7,6.4,9.3,11.9,11.8c4.7,2.1,9.7,3.5,14.8,4.1
	c2,0.2,4.1,0.6,6.2,0.9c4.4,9.7,11.9,14.4,21.8,15c2,2.4,4.1,4.8,6.3,7c5,4.5,12.6,4.2,17.2-0.7c1.6-1.9,3-3.9,4.3-6
	c6.9-2.3,13.3-5.6,18-11.4c1-1.1,2.3-1.9,3.7-2.4c2.7-1.3,5.5-2.4,8.3-3.3c8.1-2.6,13.7-7.4,14.4-15.3c2.7-4.6,5.1-8.1,6.9-11.8
	c2-4.1,3.2-8.5,5.1-12.5s1.4-8.2,2.3-12.8c4.8-1.6,7.6-5.6,10.8-9.2c4.3-5,8.5-10.2,12.9-15.2c3.1-3.5,5.1-7.3,5.2-12.2
	c0.1-3,1-5.9,1.4-8.9c2.7-17.6,5-35.2,8.1-52.8c1.4-7.9,0.6-14.9-3.6-21.7C1752.3,1736.2,1751.8,1735.1,1751.2,1734.1z
	 M1738.7,1732.2c-0.8,0.7-1.7,1.2-2.6,1.8c-0.9,0.3-1.9,0.5-2.8,0.7c-3.2-3.3-5.9-7-8.1-11c-0.6-5.7-1.3-11.6-2-17.6
	C1729.3,1714.4,1733.8,1723.4,1738.7,1732.2L1738.7,1732.2z M1699.2,1666.4c3,3.4,5.4,7.3,7.1,11.5c-4.6,1.1-8.7,0.7-12.9,0.4
	C1694,1672.6,1694.6,1671.5,1699.2,1666.4L1699.2,1666.4z M1695.4,1688c2.7,0,5.4,0,8.1,0.1s5.5-0.1,7.8,2.2
	c3.2,9,1.8,18.8,3.6,29.4c-12.4-0.5-23.8-1-35.1-1.6c-2.4-0.3-4.7-0.8-7-1.5c3.2-8.3,10.6-22.7,14.8-28.6H1695.4z M1641,1709.5
	c11.5-9.1,23.1-18.1,34.7-27.2c0.7-0.4,1.5-0.8,2.2-1c1.2,1.4,0,2.4-0.4,3.3c-3.3,6.7-6.8,13.4-10.2,20s-6.6,13.3-10.4,20.8
	c-5.9-5-11.7-9.2-16.8-14C1640.5,1710.6,1640.6,1709.8,1641,1709.5z M1635.3,1720c3.2,2.6,5.4,4.1,7.4,5.8c3.6,3.1,7.2,6.4,11,9.8
	c-2.4,14.1-4.6,28.1-7.2,42c-2.5,13.6-4.2,27.4-7.2,40.2c-1.4,2-3.8,3-6.2,2.7c-2.5-0.1-2.5-0.2-7.7-3.4c0-3,0.2-6.3-0.2-9.5
	s-1.7-6.3-3-10.9C1626.6,1772.7,1629.8,1747,1635.3,1720L1635.3,1720z M1677.4,1882.4c-0.5,1.1-1.1,2.1-1.8,3.1
	c-2.7,3-3.9,6.9-3.4,10.9c0.1,0.9,0.1,1.8,0,2.7c-0.3,8.6-4.4,14.2-12.5,16.9c-2.8,1-5.8,1.6-8.8,2.4c-0.8,1.9-1.5,3.5-2.3,5.1
	c-0.9,1.3-1.8,2.6-2.8,3.9c-1.7-2.1-3.1-3.7-4.3-5.3s-2.3-3.4-3.3-4.8c-15.2-2.5-13.7-0.6-20.8-14.4c-3.3-2.6-7.3-2.5-11.2-2.4
	c-4.7,0.1-8.9-1.2-13.1-2.9c-4-1.5-7.1-4.8-8.2-9c-0.6-2-0.8-4.1-1.4-6.2c-0.5-1.1-1.1-2.2-1.8-3.3c-1.3,0.1-2.5,0.1-3.7,0.2
	c-5.7,0.3-8.6-1.6-10-6.9c-0.4-1.8-0.6-3.6-0.6-5.4c0-5.6-1.8-10.1-7.4-12.3c-0.5-0.3-0.9-0.7-1.3-1.1c-2.4-3.1-2.9-6.8-2.9-10.4
	c0-5.1-1.6-10.2-4.5-14.4c-0.8-1.4-1.5-2.8-2.1-4.3c1.8-4.3,2.9-9,6.8-12.9l12.4-2.6c3-2,3.2-4.9,3.8-7.5c1.2-5.2,4.5-7.6,9.6-8.1
	c0.9-0.1,1.8,0,2.7-0.2c5.4-0.7,7.1-2.5,7.7-8.2c0.1-0.9,0.1-1.8,0.1-2.7c0-4.2,1.9-6.8,6.2-7.4c6.3-0.8,10-5.1,12.9-10.3l5.2-1.2
	c0.4,0.9,0.9,1.5,0.8,2c-1.3,8.3-2.6,16.6-4,25.1c-1.9-0.4-3.8-0.6-5.7-0.8c-1.9,0.1-3.5,1.3-4.1,3c-0.6,1.8,0.1,3.7,1.7,4.8
	c4,2.3,7.6,4.8,10.3,9.6c0,2.3,0,5.3,0,8.3c-0.1,6.2,3,10.3,8.6,12.5c2.3,0.9,4.6,1.4,7,1.7c2.7,0.3,5.4,0.1,8.5,0.1l6.3,3.9
	c7.4,12.4,7.7,12.7,21.4,14.7c2,2.9,2.3,6.5,3.4,9.9c1.2,3.4,3.5,6.3,6.6,8.3L1677.4,1882.4z M1707.4,1865.9
	c-2,4.7-4.1,9.3-6.3,13.9c-0.8,1.6-1.7,3.1-2.9,4.5c-2.9,3-4.6,7-4.8,11.2c-2.9,3.3-6,5.3-10.9,4.5c-0.4-1.9-0.8-3.8-1.1-5.7
	c0.8-1.3,1.4-2.3,2.1-3.2c2.2-2.9,3.3-6.5,3-10.1c-0.2-3.6,0-7.2,0-11.1c3.8-1.7,7.3-3.3,10.8-4.8c3.3-1.3,6.7-2.5,11.5-4.2
	C1708.5,1862.6,1708,1864.3,1707.4,1865.9L1707.4,1865.9z M1709.7,1837.5c-7.2,7.5-15.3,14.5-23.6,22.1l-5-1.9
	c-2.1-2.6-2.8-5.5-3.4-8.5c-1.2-6.5-4.2-9.5-10.3-10.8c-0.9-0.2-1.8-0.2-2.7-0.2c-3.4,0.1-6.5-1.9-7.9-5c-0.9-1.9-1.9-3.8-3.2-5.5
	c-1.6-1.7-3.2-3.2-5-4.7c0.7-4.5,1.2-9.3,2-14c2.7-16,5.5-32.1,8.1-48.1c1-6.2,1.8-12.5,2.7-18.8c0.8-5.4,1.7-10.7,6-15.4l49,3.1
	c3.5,3.1,5.5,6.9,7.6,10.1C1719.3,1772.5,1714.5,1804.7,1709.7,1837.5L1709.7,1837.5z M1748,1756.4c-1.9,11.3-3.8,22.5-5.7,33.8
	c-1.7,9.8-3.4,19.6-4.8,29.4c-0.3,2.7-1.3,5.3-3,7.4c-4.8,5.8-9.5,11.7-14.3,17.5c-1.4,1.9-3.6,3.1-6,3.1c0.4-3.4,3.7-5.3,5.4-9.8
	c4.3-29.9,8.8-61.4,13.2-92.8c4-2.7,8.2-2.4,12-2.9C1748.4,1746.8,1748.8,1751.4,1748,1756.4L1748,1756.4z"/>
<path class="st1" d="M723.3,1474.9c7-6.7,14.2-13.3,22.6-18.1c8.7-4.9,17.6-9.3,26.8-13.1c8.9-3.7,18-6.9,27.3-9.6
	c15-4.7,29.2-11.7,42-20.8c9.9-6.9,19-15.1,26.8-24.3c2.4-2.8,4.7-5.5,7.2-8.1c5.6-5.9,10.5-12.5,14.6-19.5c0.7-1.3,1.6-2.5,3.2-4.9
	c0.1,2,0.1,3.9,0,5.9c-1.5,9.5-2.9,19.1-4.8,28.5c-1.7,8.3-4.4,16.3-6.1,24.6c-3.3,16.9-9.9,33-19.3,47.5c-1.7,2.5-3.1,5.2-4.8,7.7
	c-7.5,11-15.4,21.6-25.8,30.2c-6.5,5.3-12.9,11-19.2,16.6c-2.5,2.2-4.9,4.6-7,7.1c-8,9.9-14.7,20.7-19.9,32.3
	c-7.7,16.8-13.3,34.3-19.7,51.6c-3.8,10.2-7.7,20.3-13.5,29.6c-8.1,13.2-18.4,24.7-29.5,35.4c-3,2.9-5.8,6.1-8.6,9.2
	c-0.3,0.4-0.2,1.1-0.4,2.3l3.6,3.2c1.5-0.5,3-1.2,4.3-2.1c14.6-11.3,27.2-24.9,37.6-40.2c6.7-9.8,11-20.8,15.2-31.8
	c6.2-16.4,12.1-32.9,18.7-49.1c6.9-17,16.4-32.3,30.7-44.2c1.8-1.6,3.7-3.1,5.6-4.6c9.6-8.2,19.2-16.5,27-26.6
	c7.4-9.6,14-19.7,19.9-30.2c4.8-8.7,9.3-17.6,11.5-27.5c1.4-6.5,2.9-12.9,4.8-19.3c6.1-20.3,8.4-41.3,10.8-62.3
	c0.9-8.1,1.5-16.2,2.8-24.3c1.6-10.1,3.9-20.1,5.8-30.2c0.4-2.7,0.6-5.4,0.5-8.1c-0.1-2.3-1.6-3.1-6.1-3c-1.6,4.8-3.6,9.7-4.7,15
	c-4.1,19.9-10.4,39.1-21.1,56.6c-2.7,4.4-5.6,8.6-8.9,12.6c-4,4.9-8.3,9.6-12.5,14.3c-7.7,8.6-16,16.6-25.6,22.9
	c-12.3,8.2-25.4,15.1-39.9,18.9c-8.5,2.1-16.8,5-24.7,8.7c-6.2,3-12.4,6.2-18.8,8.9c-12.8,5.3-23.4,13.8-33.3,23.1
	c-8.7,7.9-16.8,16.6-24,25.9c-6.3,8.1-13.2,15.7-20.8,22.7c-3.1,2.9-6,6-8.7,9.2c-7.4,8.8-16,16.5-24.5,24.1
	c-12.4,11.1-23.9,23.1-34.5,35.9c-3.9,4.6-7.4,9.6-10.4,14.8c-7.6,14.1-15.4,28-21.1,43.1c-5,13-7.9,26.7-8.7,40.5
	c-0.4,6.2-1.1,12.4-2.1,18.5c-2.2-1.6-4-2.7-5.6-4c-15.7-12.3-31.3-24.6-47-36.9c-2.8-2.2-5.4-4.9-8.9-5.5c-2.5,0.2-4.8,1.7-6.1,3.9
	c-5.8,8.5-11.9,16.8-17.2,25.5c-10.3,17-20.2,34.3-30.3,51.6c-1.5,2.6-2.6,5.5-4,8.1c-1.6,3-2.1,6.3-1.6,9.7
	c0.8,5.7,1.5,11.4,2.3,17c2.7,17.6,5.6,35.2,8.3,52.7c0.5,3.1,1.3,5.9,3.4,8.2c8.5,9.3,15.2,20.3,25.8,27.7
	c-0.4,5.2,0.9,10.4,3.6,14.9c0.8,1.3,1.4,2.7,1.7,4.2c1.2,6.1,4.4,11.2,8.5,15.8c0.2,8.1,5.4,12.4,12,15.5c1.3,0.6,3,0.6,4.3,1.2
	c3.3,1.5,6.5,3.1,9.7,4.7c4.7,6.3,11.4,9.8,18.6,12c0.9,1.4,1.7,2.8,2.6,4c5.6,7.3,13.8,7.9,20.1,1.4c1.7-1.7,3.2-3.6,4.9-5.7
	c10.6-0.2,17.7-6.2,22.4-15.2c3.1-0.4,5.8-0.8,8.5-1.1c4.5-0.6,8.8-2,12.9-4.1c4.8-2.3,8.5-5.6,10.6-10.7c0.8-1.9,1.8-3.7,2.6-5.5
	c1.5-0.4,2.7-0.6,3.8-0.9c7.9-2.2,12.1-7.5,13-15.5c0.3-2.7,0.7-5.3,1.1-8c10-6.6,11.6-16.6,11.7-26.1c2.2-4.8,4-8.6,5.7-12.4
	c0.9-2.3,0.7-4.9-0.6-7c-1.5-2.9-3-5.9-4.7-8.7c-2.8-4.9-6.7-8.5-12.7-9.2c-1.2-0.1-2.3-0.4-3.3-0.5c-7.2-14.1-5.6-13.4-20.6-18.8
	c-1.9-4.2-2.3-9.1-5.9-12.8s-8.8-3.7-13.3-6.2c-2.6-5.2-6.9-8.5-12.9-9.9c-2.2-0.5-4.2-2.2-6.3-3.4c-1.7-10.4-3.3-20.5-5.2-30.6
	c-1.7-9-2.3-17.9-0.5-27c0.2-1.5,0.2-3,0.2-4.5c0.6-14.8,3.6-29.3,8.9-43.1c5.7-14.7,13.3-28.4,20.8-42.2c0.3-0.5,0.7-1,1-1.5
	c8-12.2,17.8-22.8,28.1-33c6.2-6.2,13.2-11.6,19.3-17.7c13.8-13.6,27-27.7,40.3-41.6c2.1-2.2,4-4.5,5.8-6.9
	C706.6,1492.4,714.6,1483.4,723.3,1474.9z M521.8,1681.4c0.8,0.2,1.6,0.5,2.3,0.8c12.7,9.1,31.7,24.3,35.9,28.8
	c-4.7,5.4-10.9,9.2-16.1,13.8c-2.2-0.2-2.5-1.6-3-3c-1-2.5-1.9-5-3.1-7.4c-4.8-9.4-9.6-18.7-14.4-28
	C522.7,1685,521.5,1683.6,521.8,1681.4z M500.5,1665.8c4.1,3.4,5.1,7.5,7.6,12.4c-3.3,0.2-5.4,0.4-7.4,0.4s-4.1-0.2-6.7-0.3
	C494.9,1673.2,498.4,1670.3,500.5,1665.8z M487.1,1697.3c0.3-2.3,0.7-4.5,1.3-6.8c5.5-2.8,10.5-3.2,24.5-2.1
	c5.3,8.7,9.7,18.2,14.6,28c-1.5,0.6-3,1-4.5,1.3c-12.2,0.8-24.5,1.5-37.8,2.3C485.9,1711.6,486.5,1704.4,487.1,1697.3L487.1,1697.3z
	 M475.7,1705.7c1.7,1.7,1,3.5,0.8,5c-0.4,4.2-1.1,8.3-1.8,13.1c-2.2,4.1-5,7.9-8.4,11.2l-5.2-2.4
	C466.1,1723.4,470.8,1714.7,475.7,1705.7z M479.9,1844.4c-4.8-5.8-9.5-11.6-14.3-17.5c-1.5-1.9-2.5-4.1-2.9-6.5
	c-3.5-21.4-7.1-42.7-10.7-64.1c-0.8-4.9-0.3-9.5,2.7-13.8c4.3-0.5,8.6,0.2,12.5,2.1c4.5,31.7,9,63.3,13.3,93.1
	c1.8,4.6,5,6.4,5.4,9.8C483.5,1847.5,481.3,1846.3,479.9,1844.4L479.9,1844.4z M518.2,1899c-0.9,0.6-1.4,1.1-1.9,1.2
	c-3.6,0.5-6.3-1.3-9.2-4c-0.9-4.6-2.4-9.4-6.3-13.1c-0.8-0.9-1.4-1.9-1.9-3c-2.3-4.9-4.5-9.8-6.6-14.8c-0.4-1-0.3-2.2-0.5-3.9
	c7.7,2.1,14,5.3,21.4,8.3c0.2,2.5,0.3,5,0.3,7.6c-0.4,6.2-0.1,12.1,4.9,16.2C518.3,1895.8,518.3,1897.5,518.2,1899z M519.4,1857.6
	l-5.4,2.1c-8-6.8-15.6-14.1-23.6-21.8c-4.8-32.1-9.6-64.6-14.6-98l6.9-9.9l49.6-3.2c2.8,2.8,4.6,6.5,5.2,10.5
	c0.9,5.7,1.9,11.3,2.8,17c2.2,13.7,4.5,27.3,6.7,41c1.5,9.2,3,18.4,4.5,27.9c-3.7,2.6-6.7,6.2-8.5,10.4c-1.1,2.9-4,4.8-7.1,4.7
	c-3-0.1-6,0.8-8.6,2.4c-2.6,1.7-4.7,3.9-4.8,7.2C522.2,1851.3,521.1,1854.6,519.4,1857.6L519.4,1857.6z M584.4,1816.6c0-3,0-6,0-9.2
	c1.8-3.5,4.6-6.3,8-8.3c1.1-0.6,2.1-1.2,3-2c1.2-1,1.6-2.7,0.9-4.1c-0.7-1.2-2-2.6-3.2-2.8c-1.9-0.3-4,0.2-6.6,0.4
	c-1.3-8.4-2.7-16.7-3.9-25c-0.1-0.5,0.4-1.1,0.8-2l4.8,1.1c0.7,0.7,1.3,1.5,1.9,2.3c2.2,4.4,6.5,7.4,11.4,8c4.3,0.7,6.3,3.3,6.2,7.5
	c0,0.6,0,1.2,0.1,1.8c0.7,7,2,8.3,8.7,9.2c1.5,0.1,3,0.2,4.5,0.6c3,0.7,5.4,3,6.4,5.9c1,2.8,0.9,6,3.5,8.8c3.6,2.1,8.5,1.2,13.5,3.4
	c3.5,2.4,4.2,7.5,6.3,11.4c0,0.7-0.1,1.4-0.3,2.1c-3.7,6.3-6.2,12.9-6.5,20.4c-0.1,2.6-1.3,5.2-2,7.8c-7.2,2.7-9.7,8-9.2,15.1
	c0,1.2-0.2,2.4-0.5,3.6c-1.4,5.2-4.3,7.2-10,6.8c-0.9,0-1.8-0.1-2.7-0.1c-0.3,0-0.5,0.2-1.4,0.6c-0.6,1.1-1.1,2.3-1.6,3.5
	c-0.6,2-0.9,4.1-1.5,6.1c-1.1,3.5-3.7,6.3-7.1,7.7c-4.5,1.9-9,3.4-14,3.3c-3.9-0.1-7.9-0.2-11.7,2.8c-0.5,1.2-1.4,2.8-2,4.5
	c-1.9,5.5-5.9,8.1-11.5,8.6c-2.1,0.2-4.2,0.4-5.5,0.6c-4.7,2.4-4.4,8.1-8.9,9.7c-3.9-0.8-2.4-5.2-4.2-6.7c-2.6-2.3-5.3-2.7-8-3.4
	c-9.2-2.3-14.9-9-14.2-18.3c0.6-5.5-1.3-11-5.2-14.9v-15.6c2-2.8,4.5-5.4,6.1-8.6s2.2-6.8,3.3-10.6c1.4-0.4,2.9-0.7,4.4-0.8
	c6.9,0.2,11.3-3.4,14.6-9c0.8-1.3,1.4-2.7,2.2-4.3l6.7-4.6c3.4,0,6.1,0,8.8,0c3-0.1,6-0.9,8.6-2.4
	C581.8,1825.1,584.4,1821.6,584.4,1816.6L584.4,1816.6z M578.1,1798.1c-4.3,5.4-3.2,12.2-3.4,18.9c-3.9,4.1-8.2,4.5-13.3,2.3
	c-0.6-1.4-1.1-2.9-1.4-4.3c-4.5-26.1-9-52.3-13.5-78.2c5-6.3,11.1-11.6,18.1-15.5c2.7,8.4,3.7,17,5,25.6c1.3,8.3,2.7,16.7,4.1,25
	C575,1780.3,576.5,1788.9,578.1,1798.1L578.1,1798.1z"/>
<path class="st1" d="M453.5,1561c17-9.2,33.8-18.8,51.4-26.8c12.9-5.9,25.4-12.6,37.5-20.1c9.2-5.8,18.2-11.9,27.7-17.2
	c9.5-5.4,18.2-11.9,26.1-19.4c11.9-11.1,23.1-23,34.2-34.9c7.8-8.4,15.5-17,24.4-24.2c9.9-7.9,20.4-15.1,31.3-21.5
	c5.5-3.2,10.7-6.8,16.1-10.1c2.8-1.7,5.7-3.4,8.6-4.9c7.5-3.8,15.2-7.5,22.7-11.4c2.4-1.3,4.7-2.7,6.8-4.4
	c6.1-4.4,11.8-9.3,17.1-14.7c7.3-7.6,15.5-14.4,23-21.8c4.3-4.2,9-8,14-11.4c11.7-8,23.5-15.9,35.2-23.9c1-0.6,2-1.4,2.8-2.2
	c7.6-7.8,15.3-15.6,20.7-25.1c4.8-8.4,9.1-17.1,13-25.9c2.7-5.7,4.6-11.8,5.8-18c1.8-10.7,2.6-21.6,3.8-32.3c0.2-1.5,0.1-3-0.2-4.5
	c-0.6-2.8-2-5-5.1-5.4c-3.6,0.4-5.5,2.6-7,5.4c-3.9,7.8-8.9,15.1-13.5,22.5c-5.8,9.3-13,17.4-20.3,25.5c-2.1,2.2-4.3,4.2-6.8,6
	c-4.5,3.5-9.2,6.9-13.9,10.2c-16.4,11.4-32.4,23.2-48.3,35.2c-11.9,8.8-22.8,18.9-32.5,30.1c-2,2.2-4.1,4.4-6.4,6.3
	c-8.5,7.7-17.5,14.9-27,21.3c-4.7,3.2-9.1,6.9-14.6,9c-6.8,2.6-13.3,5.7-20.2,7.9c-8,2.5-16,5.2-24.3,6.9
	c-13.6,2.8-27.2,5.3-40.9,7.7c-8.3,1.6-16.7,2.6-25.1,3c-1.5,0-3,0.3-4.4,0.6c-1.6,0.4-2.9,2.6-2.8,4.3s1.6,3.7,3.2,4
	c1.8,0.3,3.6,0.4,5.4,0.4c6.6-0.1,13.3-0.7,19.8-1.8c10.7-1.9,21.5-3.4,32.1-5.6c11.2-2.3,22.6-4,33.4-8c4.8-1.8,9.7-3.3,14.6-4.8
	c9.6-2.9,18.6-7.4,26.6-13.2c7-5.2,14.3-10.1,21.1-15.6c6.1-5,11.7-10.5,17.3-16c3.9-3.8,7.4-7.9,11.2-11.8
	c13.9-14,30.8-24.3,46.1-36.6c7.7-6.2,16.4-11.3,24.4-17.2c7.8-5.8,15.7-11.4,22.1-18.7c6.5-7.2,12.3-14.9,17.5-23
	c1.7-2.8,3.3-5.8,6.8-8.8c-1,9.6-2.1,18-5.4,25.8c-3.5,8.3-7.3,16.6-11.3,24.7c-5,10.2-12.9,18.2-20.5,26.4c-2,1.9-4.1,3.5-6.4,4.9
	c-6,4.1-12,8.1-18,12.2c-4,2.7-7.9,5.6-11.8,8.4c-4.6,3.4-9.6,6.4-13.8,10.3c-10.3,9.7-20.2,19.9-30.4,29.8
	c-5.8,5.7-12.4,10.5-19.7,14.3c-13.6,7.1-27.5,13.7-40.4,22.3c-11.8,7.9-24.1,15-35.4,23.5c-6.6,4.9-12.2,10.8-18,16.5
	c-9.9,9.7-19,20.2-28.7,30.2c-5.4,5.7-11,11.2-17,16.3c-8.5,7.2-17.2,14.3-27.3,19.3c-1.3,0.7-2.5,1.7-3.8,2.5
	c-10.3,6.4-20.5,12.8-30.8,19c-4.1,2.5-8.3,4.9-12.7,7c-15.8,7.6-31.7,14.9-46.9,23.6c-7.1,4-14.5,7.5-21.2,12.1
	s-13.6,7.8-20.6,11.3c-2.2,0.9-4.4,2.1-6.4,3.4c-10.6,8-22,15-31.3,24.6c-1.3,1.2-2.7,2.2-4.2,3.2c-2.1-1.4-3.9-2.6-5.5-3.8
	c-10.4-8.2-20.8-16.6-31.2-24.8c-1.5-1-3.1-2-4.7-2.9c-1.5,0.5-2.8,1.2-4.2,2c-13.6,10.6-27.1,21.3-40.6,31.9
	c-2.5,1.8-4,4.7-3.9,7.8c0,1.5-0.1,3-0.1,4.5c0,19,0,38.1-0.2,57.1c-0.2,5.2,2,10.2,6,13.5c9.3,8.1,18.5,16.5,27.8,24.7
	c2.7,2.4,5.5,4.7,8.4,6.8c1.8,1.1,3.6,2,5.6,2.9c1.4-0.7,2.8-1.4,4.1-2.3c14.2-12.1,28.5-24.1,42.3-37c0.1-3.2,0.2-6.2,0.2-9.2
	c0.1-18.4,0.1-36.9,0.2-55.3c0-2.4,0.2-4.8,0.4-6.9c1-1.3,1.7-2.3,2.6-3.1c10.5-10.2,22.9-17.7,34.6-26.2c0.2-0.2,0.5-0.3,0.8-0.5
	c9.8-3.9,19.1-9,27.7-15.2C452.9,1561.2,453.2,1561.1,453.5,1561z M302.3,1665.4c-0.3-1.1-0.6-2.1-0.7-3.2
	c-0.7-21.6-0.3-39.6,1-45.8c1.8-0.3,2.8,1,3.8,2c8.1,8,17.4,14.6,25.2,23.4c-9.3,7.9-18.2,15.6-27.2,23.1
	C304,1665.2,303.3,1665.1,302.3,1665.4z M334.2,1697.6c-0.2,0.9-0.5,1.7-0.9,2.5c-6.1-3.8-21.5-17.6-26.4-23.6
	c7.6-7.6,16.1-14.2,24.2-21.2c0.7-0.5,1.5-0.8,2.4-1c0.2-0.1,0.5,0.2,1.2,0.4C335.8,1668.9,334.4,1683.2,334.2,1697.6z
	 M335.2,1593.6c0.1,3.9,0,7.8,0,11.8s0,7.8,0,11.8s0.5,7.7-0.6,12.1c-10-7.7-18.5-16.2-28-24.8c9.3-8.4,18.2-15.5,28-22.7
	C335.8,1586.1,335.1,1589.9,335.2,1593.6L335.2,1593.6z M345.3,1582.7c5.4,2.5,22.9,15.9,29.5,22.6c-9.6,7.9-18.6,15.5-27.7,23
	c-0.4,0.3-1.1,0.3-1.6,0.4C344.5,1621.4,344.4,1592.6,345.3,1582.7L345.3,1582.7z M371.1,1679c-7.3,6.3-14.6,12.6-22,18.8
	c-1.2,0.9-2.4,1.7-3.7,2.4c-1-7.8-1-37.6,0.1-46.8c9.4,8.4,17.9,16,26.2,23.4C371.4,1677.9,371.5,1678.7,371.1,1679z M376.3,1665.5
	c-0.8-0.1-1.8,0-2.3-0.4c-7.9-7-15.7-14-23.5-21c-0.9-1-1.7-2-2.4-3.1c1.4-1.6,2.9-3.1,4.4-4.6c8.1-6.5,15.3-14.2,24.1-20.2
	C377.4,1624.6,377.2,1658,376.3,1665.5L376.3,1665.5z"/>
<path class="st1" d="M1907.8,1615.9c0-2.7-0.1-5.4-0.1-8.2c0.1-3.1-1.3-6-3.8-7.8c-13.6-10.6-27-21.3-40.6-31.9
	c-1.3-1-3.2-1.4-5-2.1c-4.7,3.6-9.2,7.1-13.7,10.6s-8.8,7.3-13.5,10.7s-8.5,7.6-13.3,10c-1.1-0.5-1.8-0.6-2.2-1
	c-8.9-9.6-20-16.5-30.3-24.4c-3.1-2.4-6.5-4.4-10.2-5.8c-4.7-2-9.6-4-13.7-7c-7.2-5.1-15-9.1-22.6-13.3c-10-5.6-19.9-11.4-30.4-16
	c-9.2-3.9-18.1-8.3-26.8-13.3c-17.7-10.4-35.1-21.3-52.6-32c-2.1-1.3-4-2.8-5.9-4.2c-11.2-8.3-20.8-18.4-30.7-28.1
	c-11.4-11.2-21.5-23.6-33.3-34.5c-9.4-8.5-19.5-16.2-30.2-23c-8.6-5.6-17.3-11-26-16.4c-2-1.3-4.2-2.5-6.3-3.6
	c-7.5-3.8-15.1-7.6-22.7-11.4c-8.1-4.1-15.4-9.5-21.8-16c-9.6-9.6-19.3-19.1-29.1-28.6c-1.8-1.6-3.6-3.2-5.6-4.5
	c-7.8-5.6-15.7-11.2-23.6-16.8c-4.7-3.3-9.5-6.4-14.3-9.6c-1.8-1.2-3.8-2.1-5.2-3.6c-5.8-6.5-12.2-12.7-17.1-19.9
	c-8-11.8-14.1-24.7-18-38.4c-1.7-5.8-2.4-11.8-3.5-17.7c-0.1-0.4,0.4-0.9,0.7-1.6c3.1,2.8,4.8,6.3,7,9.5c9,13.3,18.7,26,32.1,35.3
	c4,2.8,7.7,5.8,11.6,8.6c7.4,5.2,14.9,10.3,22.2,15.7s14.4,10.9,21.7,16.4c12,9.2,23.6,18.8,33.3,30.6c1.6,1.8,3.3,3.5,5.1,5.1
	c10.3,9.3,21.2,18,32.7,25.8c5.5,3.8,11.3,7.1,17.3,9.8c3.8,1.7,8,2.7,11.9,4.3c14.6,6,30,9,45.4,12.1c10.6,2.1,21.4,3.7,32.1,5.5
	c7.1,1.3,14.4,1.9,21.6,1.8c1.5,0.1,3-0.2,4.3-0.8c1.2-0.8,2.1-2,2.5-3.4c0.5-1.6-1-3.9-2.6-4.3c-1.4-0.4-2.9-0.6-4.4-0.7
	c-3.3-0.3-6.7-0.2-9.9-0.7c-10.7-1.5-21.6-2.7-32.2-4.9c-15.3-3.2-30.9-5.7-45.7-10.9c-6.5-2.3-13.1-4.6-19.5-7.2
	c-6.6-2.9-12.9-6.6-18.7-11c-13.1-9.7-26.5-19.1-36.7-32.1c-1.2-1.4-2.5-2.7-3.8-3.8c-3.5-3.3-7.1-6.6-10.7-9.8s-7.2-6.4-11.1-9.4
	c-6-4.6-12.1-9-18.1-13.6c-3.6-2.7-7.1-5.7-10.7-8.3c-11.8-8.4-23.6-16.8-35.4-25.2c-5-3.5-9-8-13-12.6c-6.6-7.4-12.5-15.5-17.7-24
	c-3.5-6-7.1-11.9-10.6-17.9c-1.6-2.7-3.4-5-7.4-5.6c-2.8,0.8-4.8,3.3-4.9,6.2c-0.2,1.8-0.2,3.6,0,5.4c0.4,5.1,0.8,10.2,1.4,15.3
	c1,8.1,2.2,16.1,4.7,23.9c3.1,9.6,7.4,18.5,11.8,27.4c5.8,11.8,14.3,21.6,23.3,31c1.9,1.9,4,3.6,6.3,5.1
	c8.2,5.7,16.2,11.7,24.6,16.9c11.8,7.4,22.6,16.2,32.2,26.2c6.1,6.2,12.7,12,18.9,18.1c5.5,5.6,11.9,10.3,18.8,14
	c7.5,3.9,15.2,7.5,22.7,11.4c3.2,1.7,6.3,3.5,9.4,5.4c8,4.9,15.9,9.8,23.8,14.8c14.6,9.2,28.4,19.5,39.9,32.4
	c11.3,12.7,22.9,24.9,35,36.7c10.2,9.9,21,19.1,33.5,26.1c2.4,1.3,4.7,2.7,7,4.2c18.7,12.7,38.5,24,59,33.5
	c12,5.7,23.9,11.6,35.4,18.2c6.3,3.6,13,6.6,18.9,10.7c6.5,4.6,13.6,7.8,20.6,11.4c2.7,1.3,5.3,2.7,7.9,4.3
	c6.2,4.2,12.5,8.5,18.5,13.1c5.5,4.2,11,8.4,15.5,14.4c0,2.8,0,5.8,0,8.8c0,18.4,0.1,36.9,0.2,55.3c0,2.4,0.3,4.8,0.5,7.4
	c14.2,12.3,28.4,24.5,42.6,36.7c0.9,0.6,1.8,1.1,2.8,1.5c4.1,0,6.5-2.5,9-4.6c11.1-9.7,22.2-19.6,33.4-29.3
	c4.5-3.9,6.2-8.4,6.2-14.3C1907.7,1651,1907.8,1633.4,1907.8,1615.9z M1827.3,1602.8l27.2-21.2c1,9.7,0.9,39.4,0,47.5
	c-5.7-3.2-10-7.7-14.8-11.7s-9.3-7.7-13.8-11.5C1825.5,1604.3,1826.3,1603.5,1827.3,1602.8z M1824.1,1665.8
	c-0.4-0.7-0.9-1.2-0.9-1.7c-0.2-15.3-0.3-30.7-0.3-46c0-0.5,0.5-1,0.9-1.9c9.7,7.7,18.7,15.9,27.4,23.6c0.4,2.6-0.9,3.6-2,4.5
	c-7.6,6.9-15.2,13.7-22.8,20.4C1825.7,1665.2,1824.9,1665.5,1824.1,1665.8L1824.1,1665.8z M1854.8,1699.4c-0.2,0.2-0.4,0.4-0.6,0.4
	c-0.3,0.1-0.6,0-0.9-0.2c-7.7-6.3-15.3-12.7-23-19c-0.8-0.8-1.6-1.7-2.2-2.6c3.8-4.9,19.7-19.1,26.2-23.4
	C1855.5,1660.5,1855.8,1688.3,1854.8,1699.4L1854.8,1699.4z M1865.1,1582.6c0.8,0.2,1.7,0.1,2.2,0.5c8.5,6.8,16.9,13.6,25.9,20.8
	c-8.1,8.7-19.9,19.2-27.5,24.6C1864.5,1622.7,1864.2,1598.2,1865.1,1582.6L1865.1,1582.6z M1867,1699.9c-0.4-0.4-1-0.8-1-1.2
	c-0.6-14.7-1.6-29.3-0.8-45.8c10.8,7.8,19.2,15.8,27.9,23.3C1889.2,1681.6,1874.1,1695.3,1867,1699.9L1867,1699.9z M1897.5,1665.2
	c-0.3,0-0.7,0.2-0.9,0.1c-9.3-7.6-18.5-15.3-28.2-23.3c6.5-7.3,23.6-22.4,28.8-25.7c0.3,0.4,1,0.8,1,1.3
	C1899,1630,1898.5,1659.8,1897.5,1665.2L1897.5,1665.2z"/>
<path class="st1" d="M1141.5,2004.9c-12.8-24.8-22.3-50.8-30.4-77.5c-4.8-15.7-7.7-31.6-6.1-48.2c1.4-13.8,2.4-27.7,3.7-41.5
	c0.3-2.7,0.8-5.4,1.4-8c3.4-15.3,6.8-30.6,10.3-45.9c1-4.1,2.2-8.1,3.6-12.1c3.6-10.6,6.9-21.2,8.4-32.4c1.2-9,2-18,3.5-26.9
	c3.2-19,2.2-38,0.4-56.9c-1.1-12-2.7-24-3.2-36c-0.2-5.1-0.6-10.2-0.6-15.3c0-3.9,0.7-7.8,0.8-11.7c0.1-7,1.5-13.8,3-20.6
	c2.7-12.1,5.1-24.2,7.2-36.4c0.9-5.3,0.6-10.9,1.5-16.2c2.4-15.1,1.2-30.1-1.4-45c-0.6-3.6-1.4-7.1-2.4-10.6
	c-3.8-13.7-7.8-27.2-10.7-41.1c-3-14.9-5-29.7-4.1-44.9c0.2-2.7,0.3-5.4,0.2-8.2c-0.1-7.6,0.9-15.1,3-22.3c0.7-2.6,1.2-5.2,1.8-7.6
	c-2.6-2.9-3.3-3.4-4.4-3.4c-1.9,0.1-3.5,1.1-4.4,2.7c-0.8,1.3-1.4,2.7-1.8,4.1c-2,8.5-4.3,17-3.7,25.9c0,2.1,0,4.2-0.3,6.3
	c-0.5,10-1.1,20,0.4,29.8c2.5,15.8,5.3,31.5,10,46.8c3,9.8,6.3,19.6,7.2,29.9c0.5,5.7,1.3,11.4,1.6,17.1c0,3.9-0.2,7.8-0.7,11.7
	c-0.8,9.9-1.3,19.9-2.8,29.7c-1.6,10.4-4,20.7-6.5,31c-1.8,8-2.9,16-3.3,24.2c-1.3,16.3,0.9,32.6,1.7,48.8c0,0.6,0.1,1.2,0.2,1.8
	c3,15.8,3.4,31.8,3.1,47.8c-0.1,5.1-1,10.2-1.5,15.3c-0.8,6.6-1.6,13.2-2.3,19.8c-1.4,12-3.6,23.9-7.7,35.3
	c-2.9,7.9-5.2,16.1-6.8,24.4c-2.2,11.2-4.7,22.4-7.1,33.6c-0.3,1.5-0.7,2.9-1.1,4.4c-0.4,1.1,0,2.8-2,3.5c-1.2-5.8-2.5-11.4-3.6-17
	c-3.4-16.8-6.7-33.7-12.5-50c-3.1-8.5-5.2-17.4-6.2-26.4c-0.8-8.7-2.2-17.3-3.4-26c-0.4-3.3-1.2-6.6-1.4-9.8
	c-1-16.6-0.8-33.3,2-49.7c1.7-10.5,0.7-21.1,2.9-31.5c0.6-19.1-0.2-38-5.5-56.5c-0.6-2.3-1.1-4.7-1.5-7.1
	c-1.8-9.8-3.6-19.5-4.4-29.5c-0.5-6.6-0.9-13.2-1.5-19.8c-0.7-6.9-0.5-13.8,0.5-20.7c1.3-8,2.1-16.1,4.8-23.9
	c4.8-14.6,8.5-29.6,11.1-44.8c1.4-7.1,2.3-14.3,2.6-21.5c0.3-11.5-0.3-22.9-0.8-34.4c-0.3-6.6-2.3-13-3.7-19.5
	c-0.3-1.2-0.9-2.3-1.6-3.2c-0.9-1.6-2.7-2.6-4.5-2.5c-2,0.1-3.3,1.3-4.1,3.9c0.7,2.6,1.6,5.8,2.2,9c1.1,5,1.9,10.1,2.4,15.2
	c0.5,8.1,0.5,16.3,0.5,24.5c0,4.8,0.2,9.8-0.7,14.5c-3.2,16.6-5.7,33.3-11.1,49.4c-1.9,5.1-3.3,10.3-4.4,15.7
	c-2.1,12.2-4.6,24.3-3.6,36.8c0.5,5.7,1,11.4,1.3,17.1c1.1,16.6,3.9,33,8.3,49c3.5,13,3.5,26.3,4,39.5c0.3,7.2-0.9,14.4-1.3,21.7
	c-0.2,2.4,0.1,4.9-0.3,7.2c-2.6,13.7-3.4,27.6-3.5,41.5c-0.1,10.6-0.2,21.1,1.8,31.6c0.9,4.7,1.5,9.5,1.9,14.3
	c1.2,15.8,5,31,10.4,45.8c1.1,3.1,2.1,6.3,2.8,9.5c3.6,15.6,7.1,31.2,10.5,46.8c0.8,4.1,1.4,8.3,1.8,12.5c1.1,11.1,2,22.2,3.1,33.3
	c1.1,12.1,1.5,24.2-1.5,36c-2.1,8.5-4.2,17-6.9,25.3c-7.8,24.2-16.8,47.8-28.6,70.4c-4.2,8.4-7.4,17.2-9.7,26.3
	c-3.9,13.8-3.6,28.4,0.7,42c5.7,18,17,31.1,35.8,36.5c6.5,1.9,13.2,1.5,19.8,1.4c16.2-0.2,28.9-7.4,38.6-20.3c9-12.2,12-26.3,12-41
	c0-7.3-1.1-14.5-3.4-21.4C1148.7,2021.6,1145.7,2013,1141.5,2004.9z M1144.5,2059.2c-0.4,8.2-2.8,16.1-6.8,23.2
	c-8.4,14.7-21.6,22-38.1,21.9c-16.1-0.1-29.1-7.4-37.2-21.8c-4.1-7.1-6.4-15.1-6.9-23.2c-0.9-13.6,1.7-27.2,7.6-39.6
	c5.3-11.5,10.7-23,15.6-34.7c7.3-17.6,13.9-35.4,18.8-53.8c0.7-2.6,1.5-5.2,2.6-8.9l5.7,19.2c5.5,18.2,12.2,36,19.9,53.4
	c3.6,8.3,7.5,16.5,11.3,24.7C1142.8,2031.9,1145.4,2045.6,1144.5,2059.2z"/>
<path class="st1" d="M1462.3,1868.3c-1.3-0.7-2.6-1.5-4-2.3c-0.2-2.2-0.3-4.3-0.5-6.4c-0.6-6.1-1.8-12-4.9-17.3
	c-6-10.4-15.1-16.2-27.3-16.6c-10.9-0.4-20.3,3.8-28.1,10.8c-10.5,9.2-17.3,20.9-19.4,34.9c-0.3,1.2-0.7,2.5-1.2,3.7
	c-2.1-1-3.7-1.8-5.3-2.4c-4-1.4-7.9-3.3-12-4.1c-15.1-2.9-28.2,0.5-38.1,13c-0.9,1.2-1.7,2.4-2.8,3.9c-0.6-0.3-1.2-0.6-1.7-1
	c-16.1-19.7-25.4-41.6-22.8-67.5c0.3-3.3,0.3-6.6,0.5-10c0.2-2.7-0.1-5.5,0.6-8.1c2.7-10.3,3.1-20.9,4.9-31.3c1.1-6,2.2-11.8,2-18
	s-0.3-12.1,1.1-18c0.4-2,0.1-4.2-0.1-6.3c-0.2-3.6-1-7.2-0.8-10.8c0.4-11.9-1.9-23.4-4.4-34.9c-0.3-1.5-0.7-2.9-1-4.4
	c-2.4-12.2-5.3-24.2-11.1-35.3c-1-1.9-1.8-3.8-2.6-5.8c-3-8-7.9-14.9-13-21.7c-2.2-2.8-4.3-5.8-6.2-8.9c-3.1-5.2-5.9-10.6-8.8-15.8
	c-8.5-15.4-12.2-32.1-13.2-49.4c-0.6-10.2-0.5-20.5-1.6-30.7c-0.9-8.2-2.4-16-5.7-23.7c-5.8-13.7-12.7-26.7-22-38.4
	c-6.5-8-11.9-16.7-16.3-26c-7.2-15.5-11.6-31.7-12.3-48.8c-0.1-2.4-0.3-4.8-0.7-7.2c-1.6-9.2-3.3-18.4-5-27.6
	c-0.4-2.1-0.9-4.1-1.6-6.1c-0.7-2.2-2.2-3.6-5.2-3.6l-3.7,2.7c-0.2,1-0.2,2.1-0.2,3.1c1.5,8.6,3.2,17.2,4.6,25.8
	c0.8,4.8,1.8,9.5,2,14.3c0.5,15.1,3.8,30,9.7,44c3.2,7.8,6.4,15.7,11.2,22.7c3.7,5.5,7.6,10.9,11.7,16.1c9,11.2,14.5,24.3,20.1,37.4
	c0.9,2.6,1.6,5.2,1.9,7.9c1.7,9.2,2.5,18.6,2.2,27.9c-0.2,7.8,0.4,15.7,1.8,23.4c2.1,12.2,4.9,24.3,10.3,35.5
	c4,8.1,8.5,16,13.1,23.8c1.9,3.1,4.1,6,6.4,8.8c4.6,5.6,8.3,11.9,11.2,18.6c1.6,3.9,3.5,7.7,5,11.6c1.8,4.2,3.3,8.4,4.4,12.8
	c3,12.6,5.6,25.3,8.3,38c0.3,1.5,0.4,3,0.5,4.5c0.4,13.9,0.9,27.7,0.3,41.6c-0.2,5.1-0.3,10.3-1.5,15.3c-1.2,5.3-1.9,10.7-2.2,16.1
	c0,1.5-0.2,3-0.5,4.5c-1.9,8.2-3.2,16.6-3.9,25c-1.1,12.7-1.4,25.4,2.1,37.8c5,17.6,12.3,34.1,25.9,47c0.8,0.8,1.9,1.6,1.2,3.4
	c-1.2,0.3-2.6,0.7-4,1.1c-3.4,1.2-6.9,2.2-10.2,3.7c-7.4,3.1-13.3,8.3-18.5,14.3c-3.3,3.9-7.2,7.3-11.6,9.9
	c-3.6,2.2-6.8,4.9-9.7,8.1c-8.2,8.8-11.7,19.7-11.7,31.5c0,7,2.1,13.7,5,20.1c1.1,2.4,2.3,4.9,3.5,7.4c-0.9,1.4-1.7,2.8-2.6,3.9
	c-8.8,11.4-11.7,24.3-10.1,38.4c1.3,10.6,5.8,19.7,14.1,26.5c7.3,6.1,15.8,8.8,25.3,7c4.4-0.9,8.7-2.3,12.9-3.4
	c3.4,2.1,6.6,4.4,10,6.1c8.3,4.2,16.7,4.8,25.2,0.4c1.6-0.8,3.3-1.5,4.9-2.4c12.9-6.7,22.1-16.6,25.8-31c0.4-1.4,0.6-3,2.5-3.8
	c1.8,0.5,3.9,1,5.9,1.5c5,1.3,10.3,1.2,15.2-0.5c8.2-2.5,15.2-7.8,19.7-15.1c4.6-7.2,7.6-15.1,7.5-23.9c0-2,0.3-4.1,0.6-6.6
	c2.5,0.4,4.6,0.6,6.6,1c8.3,1.8,17.1,0.7,24.7-3c17.3-8,23.9-27.6,15.6-43.3c-0.7-1.3-1.4-2.6-2.2-4c1.2-1,2-1.8,3-2.6
	s2-1.4,2.8-2.2c11.4-10.4,17-23.4,15.7-38.8C1478.9,1884.1,1473.6,1874.2,1462.3,1868.3z M1455.9,1930.5c-1.6,1.2-3.7,1.8-5.7,2.6
	c-1.4,0.5-2.9,0.8-4.3,1.4c-1.9,0.9-2.7,3.9-1.3,5.4c1.2,1.4,2.5,2.6,3.9,3.8c8.6,7.3,8.7,22.1-0.5,30.7c-7.2,6.7-15.9,9.8-25.8,7.8
	c-3.8-0.8-7.6-1.9-11.2-2.8c-1.5-2.4-2.7-4.5-4.1-6.4c-1.6-2.2-3.4-4.3-5.3-6.1c-1.2-0.9-2.7-1.3-4.1-1.2c-1.9,0.1-3.5,1.6-3.7,3.5
	c0,2.7,2.1,4.2,3.6,6c10.5,12,8.8,34.4-4.4,45.9c-8.8,7.6-18.7,8.4-29.3,1.8c-1-1.9-2.1-4-3.2-6.1c-1.5-3-3.9-5.4-6.9-7
	c-1.3-0.6-2.9-0.9-4.3-0.6c-1.9,0.4-3.1,1.8-3.1,4.5c0.9,1.3,1.9,2.5,3.1,3.7c5.9,5.3,6.6,11.9,4.8,19.1c-1.3,4.7-3.5,9.1-6.6,12.8
	c-5.7,7.3-13,12.6-22,15.1c-8,2.2-14.8,0-20.7-6.5c1.4-2.1,2.8-3.9,4.1-5.9c1.8-2.9,0.8-4.8-3.8-6.6c-1.6,1.5-3.4,3.1-5.1,4.6
	c-3.7,3.6-8.1,6.4-12.9,8.1c-9.7,3.3-20.5,0.1-26.8-8c-5.2-6.4-7.9-14.5-7.6-22.7c-0.1-8.8,2.6-17.5,7.6-24.7
	c4.9-7,11.3-11.6,19.7-13.4c1.2-0.2,2.4-0.4,3.5-0.7c2.1-0.5,3.6-2.4,3.5-4.6c-0.2-2.4-2.3-4.2-4.7-4.1c-0.1,0-0.3,0-0.4,0.1
	c-2.7,0.2-5.3,0.7-7.9,1.6c-3.1,1-6.1,2.4-9.6,3.8c-0.8-0.8-2-1.4-2.5-2.3c-5-9.8-6.2-20-3-30.7c4.2-14,17.4-25.3,34.5-26.4
	c4.5-0.3,9,0.3,13.7,0.5c2.9-2.4,2.9-2.4,2.5-6.5c-0.4-0.4-0.8-0.8-1.3-1.2c-3.3-1.5-6.9-2.2-10.6-2.2c-2.1,0-4.2-0.1-6.4-0.1
	c0.4-1,0.4-1.7,0.8-1.9c9-7.3,19.3-11.1,31-10.5c6.1,0.2,12,2,17.1,5.3c9.5,6.1,13.6,15,12.4,26.2c-0.1,0.9-0.4,1.8-0.6,2.6
	c-0.3,1.9-0.1,3.7,1.6,4.9c1.8,1.4,4.4,1.3,6-0.3c3.8-7,3.1-14.4,0.9-21.7c-2.3-7.6-7.2-14.2-13.8-18.6c-4.2-2.9-9-5-14-6.1
	c-1.8-0.3-3.5-0.9-5.2-1.4c-0.2-0.1-0.4-0.4-0.6-0.6c-1-1.8-0.4-3.5,0.4-5.1c3.7-7.5,10.3-11,18-12.2c10.6-1.8,21.5,1.3,29.6,8.4
	c5.2,4.5,8.6,10.1,9.1,17.1c0.1,1.8,0.4,3.6,0.6,4.9c1.8,2.3,3.8,2.7,5.9,1.7c1.8-0.8,2.4-2.6,2.7-4.4c0.5-4.2-0.4-8.5-2.4-12.3
	c-5.1-10.4-3.6-20.6,0.6-30.6c2.9-7,6.8-13.5,12.7-18.5c6.1-5.3,13.1-8.5,21.4-8.4c11.6,0,21.6,8.3,23.8,19.7
	c0.4,2.1,0.5,4.2,0.5,6.3c-0.1,1.2-0.3,2.5-0.6,3.7c-6.2,1.9-13.6,1-17.7,8.1c0.9,1.3,1.5,2.9,2.6,3.6c1.3,0.6,2.8,0.8,4.3,0.6
	c1.5-0.1,2.9-0.9,4.3-1.3c14-3.5,26.4,4.6,28.3,19.1C1472.5,1909.2,1467.6,1921.3,1455.9,1930.5L1455.9,1930.5z"/>
<path class="st1" d="M1026.6,1325.9c-3.7,1.5-4.3,4.3-4.7,6.9c-2.4,14-6,27.7-6.6,42c-0.2,5.1-0.9,10.2-2.1,15.2
	c-4.5,18.3-11.1,35.7-23,50.7c-3.2,4-6.1,8.3-9.1,12.4c-8.3,11.7-13.9,24.7-19,38c-0.5,1.4-0.8,2.9-1,4.4
	c-2.1,11.6-3.2,23.3-3.2,35.1c0.1,12.8-2.1,25.2-5.5,37.5c-3.2,11.8-9.5,22.2-15.2,32.8c-1.8,3.5-4,6.8-6.5,9.8
	c-10.8,12.7-16.6,27.9-22.7,43c-0.3,0.8-0.6,1.7-0.8,2.6c-1.9,8.2-3.9,16.4-5.7,24.7c-1.4,6.5-3.6,13-3.5,19.5
	c0.1,13-3.1,25.9-0.4,38.8c0.1,0.9,0.1,1.8,0,2.7c-0.3,9.4,0.4,18.7,2.2,27.9c1.5,7.4,1.9,15,3.4,22.3c1.2,5.9,1.9,12,2,18
	c0,2.1,0.1,4.2,0.3,6.3c1.1,6.3,0.5,12.6-0.3,18.9c-2.3,17.9-10.2,33.3-21,47.4c-0.9,0.9-1.9,1.8-2.9,2.5c-1-1.2-1.7-2.1-2.4-3
	c-7.5-10.5-17.9-14.7-30.5-14.9c-7.5-0.1-14.2,2.4-20.9,5.3c-1.6,0.7-3,2.2-5.3,1c-0.2-1.2-0.4-2.7-0.7-4.1
	c-4.4-18.6-14-33.3-32.2-41.1c-9-3.9-18.2-4.5-27.2-0.3c-9.6,4.4-16,11.7-18.5,22.1c-0.8,3.5-1.2,7.1-1.7,10.7
	c-0.3,1.7-0.5,3.5-0.7,5c-2.3,1.2-4.5,2.5-6.7,3.9c-2.2,1.6-4.2,3.4-6.1,5.3c-5.8,6.3-8.3,13.9-8.6,22.3c-0.5,15.1,5,27.7,16.4,37.7
	c1.6,1.4,3.3,2.7,5.2,4.2c-1,1.9-2.1,3.7-2.9,5.6c-4,9.5-3.8,18.8,1.1,27.9c3.5,6.4,9.1,11.5,15.8,14.3c7.7,3.6,16.5,4.5,24.8,2.5
	c2-0.5,4-1.6,6.2,0.5c0.1,2.7,0,5.7,0.4,8.7c1.3,11.6,6,21.6,15,29c8.4,6.8,17.9,9.9,28.8,6.7c1.6-0.5,3.3-1.7,5.5-0.6
	c0.5,1,0.9,2,1.2,3c2,8.5,6.5,15.4,12.5,21.6c5.6,5.8,12.5,9.3,19.7,12.6s14.1,2.9,21.1,0.1c3-1.3,6-2.9,8.8-4.6
	c1.4-0.9,2.7-1.9,4-3c2.7,1,5,2,7.3,2.7c10.8,3.2,21,1.8,30-5.2c6.1-4.6,10.6-10.9,12.9-18.2c4.7-15.6,3.1-30.4-5.7-44.3
	c-1.6-2.5-4.2-4.4-4.6-7.8c1.1-2.3,2.3-4.8,3.4-7.2c2.9-6.4,5-13.2,4.8-20.1c-0.6-16.7-7.3-30.4-22-39.3c-3.9-2.3-7.4-5.2-10.3-8.7
	c-8.2-9.8-18.4-16.4-31-19.1c-1.1-0.2-2.4-0.3-2.9-2.4c1.4-1.5,3.1-3.2,4.7-4.9c1.7-1.7,3.3-3.5,4.8-5.4
	c13.1-19.1,21.5-39.8,20.8-63.4c-0.1-10.3-1.2-20.5-3.2-30.5c-1.2-5.6-1.5-11.3-2.2-17c-0.1-2.1-0.4-4.2-0.8-6.3
	c-1.9-7.6-2.8-15.5-2.4-23.3c0.1-1.8,0-3.6-0.1-5.4c-0.8-17.2-0.4-34.3,3.7-51.2c0.5-2,1.1-4.1,1.4-6.2c2.1-12.6,4.9-24.9,11-36.2
	c0.8-1.6,1.4-3.3,2-5c2.5-6.8,6.2-13.2,10.9-18.7c9.3-11,15.7-23.7,21.4-36.7c7.2-16.7,10.9-34.7,10.9-52.8c0-6,0.1-12.1,0.5-18.1
	c0.5-6.9,1-14,3.6-20.4c5.3-13.2,11-26.2,20-37.4c10.4-13.1,19-27.2,24.6-43c2.9-7.9,5.1-16.1,6.5-24.4c1-6.3,0.9-12.7,1.8-18.9
	c1.7-11.6,4-23.2,6-34.8c0.1-1.9,0.1-3.8,0-5.8L1026.6,1325.9z M909.5,1916.2c-3.4,0.2-6.3,0.3-9.3,0.5c-3,0.1-5.9,0.9-8.6,2.3
	c-1.8,4.3-1.8,4.3,1.6,7.5c3.5-0.2,7-0.7,10.6-0.7c11.1,0,20.7,3.7,28.5,11.7c9.7,9.9,12.4,21.8,9.8,35.1c-0.9,4.4-2.2,8.8-5.3,12.5
	c-3.7,0-6.4-2.1-9.4-3.2c-3.4-1.3-6.9-2.4-10.6-1.8c-2.3,0.4-3.9,2.5-3.6,4.9c0.2,1.4,1.1,2.6,2.4,3.2c0.8,0.4,1.7,0.6,2.6,0.9
	c0.9,0.2,1.8,0.2,2.7,0.4c7.4,1.7,14,6.1,18.4,12.3c7.8,10.7,9.9,22.6,7.1,35.3c-1.9,8.5-6.5,15.6-14.5,19.8
	c-8.3,4.3-16.4,3.4-24.2-1.2c-2.8-1.8-5.4-3.9-7.9-6.1c-1.6-1.3-3.1-2.8-4.4-3.9c-3.5-0.2-4.8,1.5-4.9,4.9l4.8,7.2
	c-5.3,6.2-12,8.9-19.5,6.8c-15-4.1-25.4-13.7-29.8-28.8c-2-6.7-0.9-13.2,4.7-18.3c1.2-1.2,2.2-2.4,3.2-3.7c0.1-2.6-0.8-4.2-2.8-4.6
	c-1.4-0.3-3-0.2-4.3,0.4c-3,1.5-5.4,4-7,6.9c-1.2,2.1-2.2,4.3-3.3,6.3c-10.3,6.6-20.3,6-29.2-1.5c-13.5-11.4-15.1-33.9-4.8-45.9
	c1.5-1.8,2.8-3.8,3.9-5.3c-0.3-2.8-1.7-3.9-3.5-4.4c-1.8-0.5-3.7,0.1-4.9,1.6c-2.9,3.5-5.6,7.1-9.1,11.6c-7.1,3.8-15.5,4.9-23.3,3
	c-5.9-1.4-11.3-4.6-15.2-9.3c-7.5-8.6-7-22.4,1.6-29.3c1.4-1.3,2.8-2.6,4-4.1c0.4-3.2-1.1-5.1-3.2-5.3c-8.8-1.1-13.8-7-18.1-13.7
	c-5.2-7.9-6.6-16.8-5.1-26.1c0.8-4.8,3.1-9.3,6.4-12.8c5.7-6.3,12.8-7.5,20.7-6c2.1,0.4,4,1.3,6.1,1.7c1.2,0.2,2.4,0,3.4-0.6
	c1.1-0.8,1.8-2.2,2.7-3.3c-3.7-7.7-11.1-6.7-17.5-8.3c-1.9-9.2,0.4-17,7-23.2c8.1-7.5,17.6-8.7,27.8-4.6c7.4,2.9,13.6,8.2,17.5,15
	c2.3,3.9,4.4,7.9,6.3,12c2.8,6.2,3.1,12.9,2.5,19.6c-0.4,2.1-0.9,4.1-1.8,6c-1,3.2-2.2,6.2-3.1,9.4c-0.4,1.8-0.5,3.6-0.4,5.4
	c-0.1,1.9,0.9,3.6,2.5,4.6c2.1,1.1,4,0.8,6-1.3c0.3-1,0.5-2,0.6-3.1c0.1-10.5,5.6-17.7,14.2-22.7c9.9-5.8,20.4-7.2,31.3-3
	c5.2,1.8,9.4,5.8,11.6,10.9c0.4,1.2,0.6,2.5,0.7,3.8c-1.7,2.7-4,2.4-6,2.8c-8.1,1.6-15.4,5.8-20.9,11.9c-4.4,5-7.3,11.2-8.5,17.8
	c-1.1,5.8-0.3,11.8,2.1,17.2c1.3,0.2,2.8,0.8,4.1,0.6c2.2-0.2,3.8-2.2,3.6-4.4c0,0,0,0,0-0.1c-0.1-1.2-0.4-2.4-0.7-3.6
	c-2-10.7,3.9-22.3,13.6-27.3c6.2-3.3,13.1-4.8,20.1-4.5C891.8,1904.5,901,1908.3,909.5,1916.2z"/>
<path class="st1" d="M1087.2,391c-2.5,14.6-5.1,29.1-8,43.6c-3.4,17.2-7.7,34.2-12.9,50.9c-8,25.4-17.9,50-32.2,72.7
	c-8.4,13.3-14.9,27.7-19.3,42.8c-3.4,12.5-5.6,25.3-6.3,38.3c0.6,11.2,1.8,22.3,5.3,33c6,19.2,18.5,35.8,35.4,46.7
	c10.1,6.6,21.4,11.4,33.2,14.2c9.5,2.3,19,3.8,28.6,1.3c5.3-1.3,10.7-2.3,15.8-4c12.7-4.3,24.4-10.4,34.4-19.5
	c22.4-20.4,30.6-46.5,29.9-75.8c-0.3-10.3-2-20.5-4.9-30.3c-4.1-13.9-8.8-27.5-16.5-40c-6.3-10.3-12-21-17.5-31.7
	c-6.1-11.8-10.5-24.4-14.9-36.9c-8.9-25.1-14.5-51.1-19.7-77.1c-3.7-18.6-6.4-37.5-8.1-56.4c-1.2-13.5-2.4-27-3.2-40.6
	c-0.3-6.6-0.9-13.2-1.6-19.9c-0.3-1.8-0.8-3.5-1.6-5.1c-1.1-2.3-4.8-2.5-5.9-0.2c-1,1.8-1.6,3.9-1.8,5.9c-0.8,9-1.3,18.1-2,27.1
	c-0.2,2.7-0.2,5.4-0.5,8.1c-0.9,9.9-1.8,19.8-2.8,29.7C1089.2,375.4,1088.5,383.2,1087.2,391z M1094,409.1c2-13.1,3.9-26.2,6-40.2
	c1.4,9.6,2.9,18.4,4,27.2c1.8,15,4.7,29.8,7.8,44.5c4.5,21.9,10.5,43.4,17.8,64.5c4.2,12,9.6,23.4,14.9,34.9
	c6.1,13.2,14,25.4,20.8,38.1c12.6,23.5,18,48.7,15.1,75.2c-2.7,24.4-14.4,43.8-34.9,57.7c-11.9,7.9-25.3,13.1-39.4,15.2
	c-4.2,0.7-8.4,0.7-12.6-0.1c-18.2-3.2-34.7-10.1-48.6-22.7c-10.4-9.3-18-21.3-22-34.7c-5.8-19-4.8-38.1-0.7-57.2
	c3.4-15.5,9.8-29.8,17.9-43.3c17-28.2,30.1-58.6,38.9-90.4C1085.4,455.3,1090.4,432.3,1094,409.1L1094,409.1z"/>
<path class="st1" d="M455,950.2c-20.3-29.9-44.5-56.4-71.9-79.9c-22-18.9-45.7-35.8-70.7-50.5c-23.8-14-48.9-25.7-75-35
	c-4.1,3.2-4.7,4.7-2.8,7.6c1.3,2,2.9,3.8,4.4,5.7c8.5,11,17.4,21.7,25.5,33c21.4,30,39.6,62.2,54.2,96
	c11.6,26.2,20.6,53.5,26.9,81.5c2.5,10.9,4,22,4.5,33.1c0.2,4.8,0.8,9.6,1.6,14.4c3.6,21,11.6,39.9,26,55.9
	c8.6,9.9,19.7,17.2,32.2,21.1c8.1,2.5,16.6,3.3,25,2.3c19.1-2.1,42.6-18.9,51-40.4c4.6-11.8,7-24.4,7.2-37.1
	c0.2-15.8-2.9-31.2-7.6-46.2C478.4,989.7,468,969.3,455,950.2z M482.4,1061.2c-0.2,9.4-1.9,18.7-5,27.5c-7,19.8-21.1,32.1-41.5,36.5
	c-14.4,3-27.5-1.2-39.4-9.6c-7.6-5.5-14.1-12.4-19.1-20.3c-10.1-15.5-15.9-33.4-16.9-51.9c-0.6-9-2.2-18-3.9-26.8
	c-7.2-38.8-20.6-75.6-37.7-111.2c-16.2-33.5-35.6-65.3-58-95c-2-2.6-4-5.2-6-7.8c19.8,6.9,37.5,16.6,54.9,26.9
	c17.4,10.3,34.1,21.7,50,34.3c21.3,17,41.3,35.2,59.1,56c10.7,12.3,20.6,25.3,29.5,39c12.2,19.2,22.5,39.3,28.6,61.3
	C480.9,1033.4,482.8,1047.3,482.4,1061.2L482.4,1061.2z"/>
<path class="st1" d="M1962.3,796.7c1.2-1.3,2.3-2.8,3.2-4.4c0.7-1.3,0.9-2.8,0.7-4.3c-0.4-1.2-1.9-2.1-3.1-3.4
	c-19.7,6.9-38.8,15.3-57.3,25c-26.6,14.2-51.9,30.9-75.6,49.8c-32.4,25.7-60.8,55.2-84.2,89.3c-17.5,25.6-30.6,53.3-36.6,84.1
	c-3.4,16.9-3,34.4,1.2,51.1c5.4,21.6,18.4,37,38.3,46.7c7.9,3.8,16.7,5.7,25.5,5.4c7.9-0.3,15.6-2.1,22.8-5.4
	c13.6-6.2,24.2-15.8,32.7-27.9c12.4-17.8,18.4-37.8,20.2-59.3c0.3-4.2,0.2-8.5,0.7-12.7c2-15.3,5.2-30.3,9.5-45.1
	c11.8-41.5,29.4-80.5,51.2-117.5C1926.2,842.9,1943.2,819,1962.3,796.7z M1849,990.6c-4.2,15.8-6.7,31.9-9.4,47.9
	c-0.4,2.7-0.2,5.4-0.4,8.1c-2.4,24.2-11.1,45.6-28.6,62.9c-3.9,3.8-8.2,7.1-13,9.7c-21.3,11.6-43.3,7.6-60.3-7.8
	c-9.9-8.9-15-20.3-17.6-33c-3.9-19.3-2.3-38.4,2.9-57.3c4.7-17,11.8-32.9,20.4-48.2c17.2-30.5,39.4-57.1,64.7-81.1
	c30.7-29.1,65.3-53.9,102.8-73.7c9.9-5.2,20-10,30-14.9c1.2-0.6,2.5-1.8,4.3-1c-0.3,0.8-0.7,1.5-1.1,2.2c-22,28-41.2,58.2-57.3,90
	C1870.6,925.3,1857.8,957.2,1849,990.6z"/>
<path class="st1" d="M599.8,589.6c20-0.8,34.4-10.4,43-28.2c5.1-10.4,7.1-22,5.8-33.4c-0.5-5.1-0.2-10.2-0.1-15.3
	c0.1-3.6,0.3-7.2,0.6-10.9c0.8-9.6,1.2-19.3,2.5-28.8c2.5-17.9,5.7-35.7,10-53.3c8.3-34.4,18.8-68,33.3-100.4
	c6.8-15.2,14.2-30,23.9-43.6c5.9-8.4,12.1-16.6,20.8-22.5c1-0.7,1.9-1.5,2.7-2.4c2-2,1.7-3.6-1.2-6.9c-3.5-0.2-6.1,2.1-8.8,4
	c-5.9,4.2-11.8,8.4-17.5,12.9c-8,6.4-16.1,12.7-23.8,19.5c-21.3,18.9-39.9,40.3-57.3,62.9c-22.7,29.4-42.5,61-58.9,94.3
	c-10.3,20.8-18.9,42.5-25.6,64.7c-3.8,12.9-4.7,26.1-3.7,39.4c1.1,15.3,8.7,27.3,19,38c1.4,1.2,2.9,2.2,4.6,2.9
	C578.7,587.6,589.3,590,599.8,589.6z M560,558.6c-2.7-6.1-4.7-12.4-5-19.2c-0.5-10.2,0.5-20.5,3.1-30.4
	c8.3-31.1,21.2-60.2,36.6-88.4c12-22,25.5-43.1,40.3-63.4c18.8-25.9,40-50,63.4-71.9c1.3-1.2,2.7-2.4,4.1-3.5l1.1,0.8
	c-0.7,1.3-1.3,2.6-2,3.9c-15.7,26.7-27.1,55.2-36.5,84.6c-7.7,23.8-13.8,48.1-18.3,72.8c-3.1,16.9-5.4,33.9-6.9,51.1
	c-1.3,14.8-1.1,29.5-1.1,44.3c0.1,17.3-11,33.5-27.4,38.7c-15.8,5.1-30.4,1.5-43.5-8.4C564.2,566.8,561.8,562.8,560,558.6L560,558.6
	z"/>
<path class="st1" d="M1463.1,255.3c3.2,2.8,6.2,5.7,9.1,8.8c6.5,7.6,12.2,15.8,17.2,24.4c6.6,11.5,12.5,23.5,17.7,35.7
	c15.5,35.6,26.4,72.5,34.5,110.4c3.8,17.7,6.6,35.6,8.4,53.6c1,10.5,1.4,21.1,1.9,31.6c0.1,2.7-0.1,5.4-0.5,8.1
	c-1.5,11.7,1,22.8,5.7,33.5c4,9.3,10.9,16.9,19.7,21.8c19,10.4,37.8,8.2,56.1-1.9c1.5-1,2.9-2.2,4-3.6c1.4-1.5,2.7-3.3,4.1-4.8
	c8-8.9,12-19.4,13.1-31.1c1.6-16.2-0.9-31.9-6-47.2c-8.4-25.2-18.9-49.6-31.6-73c-22-41-49-79.2-80.2-113.7
	c-20.9-23.2-44.8-43-70.4-60.9c-2.2-1.5-4.4-3.2-7.3-2.9c-2.9,3.2-3.3,4.8-1.2,6.8C1459.3,252.3,1461.3,253.6,1463.1,255.3z
	 M1496.9,280.9c13.2,12.4,25.3,24.2,36.5,36.9c17.6,19.9,33.7,41.1,48.2,63.3c19.6,29.9,36.7,61,49.5,94.4
	c5.1,12.9,9.2,26.2,12.4,39.7c3.2,14.1,2.8,28.2-2.7,41.8c-3.2,7.8-8.4,13.9-16.1,17.6c-7.4,3.5-15.2,5.8-23.5,5.6
	c-22.3-0.4-40-18.7-39.8-40.9c0-5.4,0.2-10.9,0.2-16.3c0-23.3-2.7-46.3-6.5-69.2c-4.5-27.4-11-54.4-19.4-80.8
	c-9.5-30-21-59.1-37.1-86.3c-0.6-1-1.1-2.1-1.6-3.2C1496.8,282.5,1496.8,281.7,1496.9,280.9z"/>
<path class="st1" d="M2019.4,1453c-7.4-1-13.4,2.6-19.5,6.7l-7.9-4.4c-6.4-3.6-13.3-5.5-20.4-7c-8.4-1.7-16.8-1.4-25.2-1.5
	c-6.3-0.1-12.8,0.3-18.9-0.7c-9.3-1.4-17.7-6.1-25.8-10.6c-8.7-4.9-16-11.7-22.4-19.5c-4-4.9-8.3-9.6-13-13.9
	c-8.5-7.7-17.2-15.2-26.2-22.2c-25.5-19.5-42.5-48-47.5-79.7c-2.1-12.8-4-25.6-3.8-38.6c-0.1-1.5-0.4-3-1-4.3
	c-0.7-1.9-3.9-2.5-5.4-1c-0.9,0.8-1.5,1.8-1.9,2.9c-0.5,2.3-0.9,4.7-1.1,7.1c-0.6,7.3,1.1,14.4,1.4,21.7c0.6,12.2,3.3,23.9,6.8,35.5
	c4.7,15.6,12.5,29.4,22.4,42.2c3.7,4.8,7.9,9.2,12.4,13.2c7.2,6.4,14.8,12.4,22.2,18.7c9.8,8.4,19.7,16.8,27.8,27.1
	c5.6,7.1,12.5,13.2,20.2,18.1c9.6,6.3,20.2,10.9,31.3,13.8c2.3,0.7,4.7,1.2,7.1,1.4c5.4,0.2,10.9,0.1,16.3,0
	c9.4-0.1,18.7-0.3,27.9,2.1c7.1,1.8,13.6,4.6,19,9.2c-2,16.4,2.9,26.3,14.8,30.8c10.6,4.1,22.5,0.1,28.6-9.4
	c6-9.3,5.3-20.6-2.2-29.4C2031.1,1456.1,2025.5,1453.8,2019.4,1453z M2016.6,1490.7c-7.7-0.1-13.9-6.3-13.8-13.6
	c0.2-7.8,6.6-13.9,14.4-13.7c7.8,0.2,13.9,6.6,13.7,14.4l0,0C2030.8,1485.2,2024.6,1490.8,2016.6,1490.7L2016.6,1490.7z"/>
<path class="st1" d="M331.1,1420.7c3.5-4.2,7.2-8.1,11.1-11.9c4.9-4.5,10.1-8.6,15.1-12.9c7.8-6.7,16.1-12.9,23.3-20.1
	c15.7-15.6,26.2-34.3,32.8-55.6c4.6-14.9,5.4-30.2,7.2-45.5c0.3-3.3,0.3-6.7,0-10c-0.1-2.1-0.5-4.2-1.1-6.2
	c-0.5-2.1-2.5-3.6-4.7-3.3c-2.8,1-3.5,3.3-3.4,5.8c0.4,7.9-1,15.6-1.8,23.4c-1.2,12.9-3.4,25.7-7.9,38
	c-7.3,19.9-18.1,37.4-34.5,51.2c-8.5,7.2-17,14.6-25.6,21.6c-7.9,6.5-15.2,13.8-21.7,21.8c-4.8,5.8-10.4,11-16.6,15.3
	c-7.2,5.2-15.3,8.4-23.4,11.7c-4.7,2-9.9,2.9-15,2.7c-7.5-0.3-15.1-0.1-22.6,0c-12.9,0.3-25.1,3-36.4,9.5c-1.8,1.1-3.6,2.1-5.7,3.2
	c-1.9-1.1-3.6-2.3-5.4-3.3c-5.5-3.3-12.1-4.2-18.3-2.5c-12.8,3.7-20.3,17.1-16.6,30s17.1,20.3,30,16.6l0,0
	c12-3.8,17.4-15.6,16.7-24.2c-0.2-2.4-0.5-4.7-0.8-7.3c5.9-4.3,12.5-7.5,19.6-9.2c9.2-2.2,18.6-2,27.9-1.9c6.3,0,12.8,0.6,19-0.5
	c11.7-2,22.4-7,32.6-13S323.5,1429.7,331.1,1420.7z M182.9,1490.7c-7.9-0.1-14-6-13.9-13.4c0.1-7.8,6.4-14,14.2-13.9
	s14,6.4,13.9,14.2C197.1,1485,190.7,1490.7,182.9,1490.7L182.9,1490.7z"/>
<path class="st1" d="M1714.4,1377.1c-0.2,8.8-0.6,17.5-1,26.2c-0.7,13.1,0.9,25.8,5.8,38.1c3.4,8.7,9,16.4,16.3,22.4
	c8.5,7,17.5,12.8,28.7,14.6c1.2,0.3,2.3,0.6,3.5,1c6.8,1.9,12.9,5,17.7,10.3c2.4,2.7,5,5.2,7.7,7.6c2.7,2.4,5.6,4.6,8.6,6.6
	c3.2,2.1,6.3,1.5,7.9-1.2c1.5-2.4,1-4.9-2.1-6.9c-4.2-3-8.1-6.3-11.6-10.1c-2.8-2.8-5.7-5.3-8.5-8.1c-2.1-2.2-4.7-3.8-7.6-4.8
	c-5.7-2-11.3-4.2-17.2-5.7c-12.7-3.1-21.7-11.3-29.5-21.1c-0.5-0.7-1-1.5-1.3-2.3c-7.3-14.7-10-31.2-7.6-47.5
	c1.7-12.3,2.1-24.7-1.1-36.8c-1.9-7.3-3.7-14.6-5.9-21.8c-1.8-6.1-3.2-12.3-2.7-18.7c0.4-5.7,0.7-11.5,1.8-17
	c2.7-13.6,6.4-27,14.5-38.7c2-3,3.5-6.3,5.1-9.1c-0.8-3.4-2-4.6-4-4.8c-1.9-0.2-3.7,0.6-4.7,2.2c-3.3,4.7-6.7,9.3-9.5,14.3
	c-4.7,8.2-7.5,17.1-9.8,26.2c-4.6,18.2-5.2,36.2,0.8,54.4C1712,1356.1,1714.7,1366.4,1714.4,1377.1z"/>
<path class="st1" d="M412.9,1477.3c-7.2,6.4-13.3,14-21.5,19.4c-1.8,1.3-2.3,3.8-1.2,5.7c1.1,2.3,3.7,3.4,6.1,2.6
	c1.4-0.6,2.7-1.3,4-2.1c5.1-2.9,8.9-7.3,12.7-11.5c6.4-7,14.4-10.8,23.3-13c0.6-0.2,1.2-0.3,1.8-0.4c14.7-2.9,25.5-11.9,35-22.7
	c2.2-2.5,4.1-5.3,5.4-8.3c4.1-9.7,7.7-19.5,8-30.4c0.3-8.4,0.1-16.9-0.6-25.3c-1.4-15.7,0.6-31.5,5.8-46.3
	c2.9-8.4,3.8-16.9,3.9-25.8c0.3-15.4-3.4-29.9-8.9-44.1c-3.3-8.8-8.1-16.9-14.3-24c-1-1.1-2.4-1.7-3.9-1.9c-1.9-0.2-3.4,1-4.3,3.7
	c0.6,3.3,2,6.5,4.1,9.1c5.6,7.7,9,16.4,11.7,25.3c2.1,7.2,3.6,14.6,4.6,22.1c1.5,9.6,0.7,19.3-2.1,28.6c-2.2,7.2-3.9,14.6-5.9,21.8
	c-3.2,11.6-2.8,23.4-1.2,35.1c2.1,15.6,0.6,30.6-5.7,45.1c-2.6,6.1-6.7,11.4-11.9,15.6c-2.1,1.7-4.3,3.3-6.4,5
	c-3.8,2.9-8.2,5.1-12.9,6.3c-6.1,1.7-12.1,3.8-18.1,5.8C417.7,1473.7,415.1,1475.3,412.9,1477.3z"/>
<path class="st1" d="M211.2,1314c9.8-4.7,19.4-9.8,28.7-15.4c9.7-5.6,18.4-12.7,25.8-21.1c3.6-4.1,6.9-8.4,10.7-12.3
	c9.9-10.3,17.4-22.4,24.2-34.9c3.3-6,7.2-11.9,8.7-18.8c0-0.6,0-1.2-0.1-1.9c-1-2.4-2.7-3.8-5.9-3.2c-0.8,0.8-1.5,1.6-2.1,2.5
	c-2.4,4.2-4.6,8.5-6.9,12.8c-7.2,13-14.6,25.8-25.2,36.3c-1,1.1-2,2.3-2.9,3.5c-11.1,14.8-25.4,25.7-41.7,34
	c-7.8,4-15.7,7.8-23.5,11.7c-1.9,0.9-3.7,2-5.5,3.2c-8.2,5.6-16.4,11.3-24.6,17c-9.4,6.5-18.7,13.2-28.9,18.6
	c-10.6,5.5-21.7,7.2-33.3,6.3c-6-0.4-11.9-1.1-17.9-1.5c-3.9-0.3-4.7,0.5-6.7,5.6c0.6,2.7,2.6,4.1,5,4.6c2.1,0.4,4.2,0.5,6.3,0.6
	c3.3,0.2,6.8-0.2,9.9,0.5c9.8,2.4,19.2,0.1,28.6-1.8c7.8-1.6,14.7-5.6,21.3-9.8c9.5-5.9,18.5-12.5,27.7-18.8S201,1318.8,211.2,1314z
	"/>
<path class="st1" d="M2109.7,1350.9c-5.7,0.4-11.4,0.8-17,1.3c-12.3,1.2-24-0.3-35.1-6.4c-6.7-3.5-13.1-7.4-19.3-11.8
	c-6.8-5-13.7-10-20.7-14.6c-6.8-4.5-13.2-9.5-20.6-13c-11.5-5.4-22.7-11.3-33.6-17.8c-7.5-4.5-14.4-10-20.3-16.4
	c-4.7-5.1-9-10.6-13.7-15.6c-3.9-4.2-7.4-8.7-10.7-13.5c-7.1-10.2-12.9-21.2-18.8-32c-1-1.7-2.1-3.3-3.3-4.8c-3.4-0.1-5.1,1.3-5.9,4
	c0.2,3,1.1,5.9,2.6,8.4c1.4,2.7,2.7,5.4,4.1,8.1c7,12.7,14.3,25.2,24.1,36.1c2.6,2.9,5.2,5.9,7.7,8.9c9.2,11,19.6,20.4,32.2,27.5
	c10.5,6,21.2,11.5,32,17c2.2,1,4.3,2.2,6.3,3.4c11.2,7.7,22.5,15.2,33.5,23.3c7.8,5.7,16.2,10.6,25,14.6c9.7,4.5,20.3,5.6,30.9,5.5
	c0.9,0,1.8-0.1,2.7-0.3c4.1-1.4,8.4-1,12.6-1.2c2.1,0,4.2-0.2,6.3-0.5c2.7-0.3,4.9-2.2,5.6-4.8
	C2115.3,1352.6,2113.3,1350.7,2109.7,1350.9z"/>
<path class="st1" d="M723.1,1792c0.3-2.4,0.4-4.8,0.5-7.2c0.6-11.5,4-22.7,10-32.5c6.2-10,13.1-19.6,20.7-28.5
	c2.2-2.8,4.6-5.6,7.2-8.1c5-4.8,10.3-9.3,15.3-14.2c7.9-7.9,16.1-15.6,21.7-25.5c4.2-7.3,8.3-14.7,11.9-22.4
	c7-14.7,13.1-29.8,16.2-46c1.9-10.1,4.7-20,5.2-30.3c0.2-3.1-0.7-5.3-4.1-6.2l-3.4,1.4c-0.8,2.2-2.1,4.5-2.2,6.8
	c-0.2,7.4-2.6,14.2-4.1,21.3c-2.7,12.4-5.7,24.6-11.1,36.3c-3.9,8.5-8.2,16.8-12.2,25.3c-6.3,13.1-16,23.3-25.9,33.4
	c-6.8,6.9-14.7,12.6-20.7,20.2c-5.4,6.9-10.9,13.7-16.2,20.7c-10.8,14.3-17.4,30.3-18.7,48.3c-0.2,2.4-0.2,4.8,0,7.2
	c0,2.5,1.9,4.7,4.5,4.9C720.3,1797.1,722.7,1795.2,723.1,1792z"/>
<path class="st1" d="M1485.6,1776.1c-1.1-8.4-3.7-16.5-7.7-24c-5.8-10.7-12.9-20.4-20.5-29.8c-4-4.9-7.9-10-12.6-14.2
	c-9-8.1-17.5-16.6-25.7-25.5c-1.8-2-3.4-4.2-5.1-6.3c-4.6-6-7.8-12.9-11.4-19.6c-9.3-17.4-16.7-35.5-20.4-55
	c-1.4-7.4-4.2-14.5-4.3-22.2c0-2.3-1.3-4.6-1.9-6.6c-5-2.4-5-2.4-7.7,1.9c-0.1,13.2,3.6,25.3,6.3,37.7c0.8,4.1,1.8,8.2,3,12.3
	c5.8,17.3,14,33.4,22.7,49.3c2.4,4.5,5.4,8.8,8.8,12.6c7.8,8.4,15.7,16.8,24.2,24.5c5.2,4.6,10,9.6,14.3,15
	c4.4,5.4,8.8,10.8,12.6,16.6c6.8,10,13.1,20.4,14.9,32.7c0.6,3.9,0.8,7.8,1.2,11.7c0.2,1.8,0.2,3.6,0.5,5.4c0.4,2.5,2.6,4.3,5.1,4.2
	c2.5,0,4.6-2,4.8-4.5c0.2-2.1,0.3-4.2,0.1-6.3C1486.7,1782.6,1486.1,1779.3,1485.6,1776.1z"/>
<path class="st1" d="M79.9,1182.5c1.7,0.7,3.4,1.1,5.2,1.6c12.6,3.8,25.6,3.9,38.5,4c20.3,0.3,40.3-2.6,59.9-7.7
	c27.4-7.1,53.2-17.6,76.5-33.9c4.4-3.1,8.7-6.5,12.9-10c1.6-1.4,2.9-3,4-4.8c0.7-1.4,0.5-3.1-0.6-4.2c-1.1-1.5-3.5-2.2-4.8-1.4
	c-1.8,1.1-3.5,2.3-5.2,3.6c-5.4,3.8-10.6,8-16.2,11.5c-23.5,14.7-48.9,24.5-76,30.5c-13.8,3-27.9,5.1-42,6.1
	c-15.1,1.1-30.1-0.7-44.9-4c-1.5-0.3-2.9-0.8-4.4-1c-3.4-0.5-5.7,0.7-6.6,3.3S76.7,1181.2,79.9,1182.5z"/>
<path class="st1" d="M1973.7,1154.2c-14.6-6.6-28.3-15-40.8-25c-1.4-1.1-2.9-2.1-4.5-3c-1.4-0.8-3.7,0-4.8,1.5c-1,1.3-1.5,3-0.5,4.2
	c1.7,2.5,3.8,4.7,6.1,6.6c7.5,5.5,15,11.3,23,16c37.7,22,80.6,33.6,124.2,33.6c4.5,0,9,0,13.6,0c9.1,0.1,18-2,26.7-4.2
	c2-0.5,4-1.4,5.6-2.7c1-0.8,1.4-2.6,1.5-4c0-1.9-1.3-3.5-3.1-4c-1.5-0.3-3-0.3-4.5,0c-8.5,2.2-17.1,3.2-25.8,4.3
	c-7.8,1-15.7,1.1-23.5,0.4c-11.7-0.9-23.4-2.5-34.9-4.7C2011.9,1169.2,1992.3,1162.8,1973.7,1154.2z"/>
<path class="st1" d="M671,1098.5c-11.1-2.9-22-6.5-32.2-11.8c-16.1-8.4-31-18.8-44.5-30.9c-2.3-1.9-4.8-3.7-7.4-5.1
	c-2.9-1.7-5.6-1.2-7.3,1s-1.1,5,1.6,7.1c2.4,1.9,4.9,3.6,7.2,5.5c13.3,11.5,27.3,21.9,42.8,30.2c2.9,1.7,5.8,3.2,8.8,4.5
	c19.7,7.9,39.8,14.3,61.3,14.5c0.6,0,1.2,0,1.8,0.1c10.8,1.3,21.5,3.2,32.4,3.5c0.9,0,1.8,0.2,2.7,0.3l22.4,2.8
	c1.2-0.2,2.4-0.2,3.5-0.5c1.8-0.5,3-2.1,3-4c0-1.6-0.9-3-2.3-3.6c-1.4-0.6-2.8-1-4.3-1.3c-4.8-0.8-9.6-1-14.3-2.1
	c-11.8-2.8-23.9-3.3-35.8-4.7C697.2,1102.4,683.9,1101.8,671,1098.5z"/>
<path class="st1" d="M1437.7,1120.2h0.2c6.7-0.6,12.8-0.6,18.7-1.7c10.1-1.9,20.4-1.7,30.5-3.6c4.2-0.8,8.4-1.2,12.6-1.4
	c6.6-0.2,13.2-1,19.8-2.2c28.6-5,54-16.9,76.8-34.5c3.1-2.4,6.2-4.8,9.2-7.3c4.7-3.8,9.4-7.5,14.1-11.4c1.7-1.3,2.3-3.7,1.4-5.7
	c-1.1-2.3-3.7-3.4-6.1-2.5c-0.6,0.2-1.1,0.4-1.7,0.7c-2.3,1.5-4.6,2.9-6.8,4.5c-4.5,3.5-8.9,7.3-13.3,10.8c-15,12-31.2,21.6-49.4,28
	c-10.2,3.6-20.8,6.3-31.6,7.8c-11.9,1.7-24,2.6-36,3.8c-10.5,1.1-20.8,3.4-31.3,4.2c-3,0.4-5.9,1-8.8,2c-2.2,0.5-3.5,2.7-3,4.9
	C1433.5,1118.8,1435.5,1120.3,1437.7,1120.2z"/>
<path class="st1" d="M2143.6,1269.9c-1.8-0.3-3.6-0.6-5.4-0.6c-4.2-0.3-8.5,0-12.6-0.8c-24.5-4.6-46.8-13.9-65.1-31.4
	c-5.5-5.2-11.8-9.5-18.7-12.7c-15.6-7.6-32-12.5-48.8-16.4c-1.5-0.3-3-0.3-4.5-0.1c-1.5,0.2-2.8,1.4-3.1,2.9
	c-0.5,1.5,0.2,3.2,1.6,3.9c2.7,1.3,5.5,2.5,8.3,3.4c6,2,12.2,3.6,18.2,5.5c17.1,5.2,32.9,14,46.2,25.8c23.1,20.4,51,29.2,83.1,30
	c-0.9,0.1-0.3,0.1,0.3,0c2.5-0.3,4.3-2.5,4.3-5C2147.4,1272.2,2145.8,1270.3,2143.6,1269.9z"/>
<path class="st1" d="M143.4,1246.8c7-6.3,14.5-11.9,23.3-15.5c7.8-3.2,15.7-6.2,23.7-9c5.4-1.9,11-3.2,16.5-5
	c2.8-0.9,5.9-1.5,7.9-4.8c-0.1-3.4-1.8-4.8-4.6-4.9c-1.2,0-2.4,0.1-3.6,0.4c-13.9,3-27.4,7.3-40.5,12.7
	c-10.4,4.2-19.9,10.3-28.2,17.8c-12.9,12-28.5,20.7-45.5,25.5c-9.9,2.8-19.8,5.3-30.2,5.3c-2.4,0.1-4.8,0.5-7.1,1.2
	c-1.7,0.5-2.6,2.4-2.5,4.4c-0.1,1.6,0.8,3,2.3,3.6c1.7,0.6,3.4,1,5.2,1c2.1,0,4.2-0.8,6.3-0.8c13,0.4,25-3.7,37-7.7
	C118.4,1265.9,131.6,1257.5,143.4,1246.8z"/>
<path class="st1" d="M734.4,1196.3c-0.1,1.3-0.6,2.8-0.2,4.1c0.4,1.6,2.2,2.1,3.7,2c8.2-0.2,16.4-0.6,24.2-3
	c12.7-4,24.7-10.1,35.3-18.2c2.7-2,5.2-4.2,7.4-6.6c5.6-6,10.9-12.1,16.4-18.1c10.6-11.2,19.6-23.8,26.8-37.4
	c3.8-7.5,8-14.9,12-22.3c0.6-1.2,1-2.5,1.4-3.8c-1.2-2.8-2.8-4.5-5.5-4.4c-2.9,1-4.4,3.3-5.7,5.7c-2.4,4.5-4.8,9.1-7.2,13.6
	c-6.5,12.6-13.7,24.9-23.1,35.7c-5.4,6.1-10.8,12.2-16.4,18.2c-3.1,3.3-6.2,6.6-9.5,9.7c-6,5.7-13.2,9.7-20.4,13.3
	c-8.6,4.3-17.5,8.1-27.5,8.3C742,1193.1,738,1194.2,734.4,1196.3z"/>
<path class="st1" d="M1351.6,1118.4c5.1,10,11.3,19.3,18.5,27.9c5.7,6.6,11.1,13.5,17.1,20c6.3,6.8,12.6,13.9,20.8,18.8
	s16.1,9.5,25,12.7c9.6,3.5,19.4,4.2,29.4,4.7c1.5,0.1,3.2-0.5,3.6-2.1c0.3-1.3-0.2-2.8-0.3-4c-4.2-2.4-8.4-2.8-12.6-3.4
	c-4.5-0.6-9.1-1.1-13.3-2.5c-9.5-3.2-18.4-7.7-26.6-13.4c-4.2-2.9-8.1-6.2-11.7-9.9c-6.1-6.2-12.1-12.7-17.8-19.4
	c-8-9.5-15.7-19.2-21.3-30.3c-4-7.8-8.2-15.5-12.4-23.2c-1.1-1.8-2.5-3.4-4-4.8c-0.6-0.6-1.6-0.7-2.3-0.9c-2.6,0.8-4.4,2.2-4.7,5.5
	c0.5,1,1,2.4,1.7,3.7C1344.2,1104.6,1347.9,1111.4,1351.6,1118.4z"/>
<path class="st1" d="M600.1,1179c8.4,6.2,15.4,13.5,19.5,23.3c0.6,1.4,1.3,2.7,1.9,4.1c8.5,18.3,20.9,33.1,38.2,43.7
	c4.6,2.8,9.4,5.5,14,8.4c7.8,4.9,14.7,10.6,19,19c0.6,1.1,1.3,2,2.1,2.9c1.5,1.6,4.1,1.7,5.7,0.3c2.1-1.4,2.8-4.2,1.5-6.4
	c-3.2-6.5-7.8-12.3-13.3-17c-6.7-5.7-14.4-10-21.9-14.5c-16.8-10.1-28.8-24.5-37-42.2c-2.2-4.9-4.7-9.9-8-14.1
	c-7.6-9.6-17.8-16.3-27.5-23.3c-0.8-0.5-1.6-0.8-2.5-1c-2.7-0.6-4.7,0.3-5.8,4.1c0.7,1.1,1.5,2,2.3,2.9
	C592.1,1172.5,596,1176,600.1,1179z"/>
<path class="st1" d="M1499.1,1272.1c-0.7,1.3-1.3,2.7-1.6,4.2c-0.5,1.9,0.9,4,3,5c1.7,0.8,3.7,0.3,4.9-1.1c0.6-0.6,1.2-1.4,1.6-2.2
	c4.7-9.3,12.4-15.4,21.1-20.6c3.9-2.3,7.8-4.7,11.6-7c17.6-10.7,30.2-25.7,38.8-44.3c1.4-3,3.1-5.9,4.4-8.9c1.6-3.3,3.7-6.2,6.3-8.8
	c4-4.2,8.3-7.9,13-11.2c4.5-3.1,8.5-6.9,11.8-11.2c-1.4-3.7-3.5-4.6-6.1-3.7c-1.7,0.6-3.3,1.5-4.7,2.6c-3.2,2.3-6.3,4.7-9.4,7
	c-10.8,7.7-19.1,17.3-24.2,29.7c-4.7,11.3-12.1,20.8-20.8,29.3c-6.3,6.2-13.7,10.8-21.2,15.3c-5.4,3.3-10.6,7-15.7,10.7
	C1506.4,1261,1502.5,1266.3,1499.1,1272.1z"/>
<path class="st1" d="M138,1104.9c0.7,0.5,1.5,0.9,2.4,1.3c6.7,2.8,13.3,5.9,20.1,8.1c9.1,3.1,18.5,5.4,28.1,6.8
	c7,0.9,13.9,0,20.8-0.3c13-0.6,25.7-4.1,37.3-10.1c9.8-5,18.1-12,26.3-19.1c2.9-2.6,5.7-5.4,8.3-8.3c0.9-1.2,1.4-2.6,1.2-4.1
	c-0.2-1.3-1.5-2.4-2.8-4.4c-2.1,1.2-4.2,2.4-6.2,3.8c-4.9,4-9.8,8-14.6,12.1c-12,10.2-26.7,16.8-42.2,19.3
	c-19.7,3.2-38.4,0.6-56.7-6.6c-4.8-1.9-9.5-3.8-14.3-5.6c-1.4-0.5-2.9-0.9-4.4-1.1c-2.2-0.2-4.2,1.2-4.8,3.3
	C135.9,1101.9,136.5,1103.8,138,1104.9z"/>
<path class="st1" d="M1922.2,1087.1c6.8,5.9,13.5,12.1,20.9,17.3c10.4,7.4,22.2,12.4,34.7,14.8c6.6,1.2,13.2,1.2,19.8,2
	c7.6,1,15.1,0.1,22.4-1.6c10-2.2,20-4.7,29.2-9.5c2.2-1,4.5-1.8,6.8-2.5c1.7-0.6,3.4-1.3,5-2.1c2.4-1,3.5-3.7,2.4-6.1
	c-0.9-2-3.1-3.2-5.2-2.7c-1.2,0.2-2.4,0.6-3.5,1c-4.2,1.6-8.5,3.1-12.7,4.8c-15.8,6.6-32.2,10.2-49.4,8.6c-3.6-0.3-7.2-1-10.7-1.4
	c-14.2-1.7-26.5-8.1-37.7-16.4c-5.8-4.3-11.1-9.3-16.7-13.8c-1.7-1.3-3.4-2.5-5.2-3.5c-0.4-0.3-1.2-0.1-2.3-0.2
	c-0.9,1.1-1.9,2.4-2.7,3.4C1917.7,1083,1920,1085.2,1922.2,1087.1z"/>
<path class="st1" d="M317.4,1354.2c1.1-0.2,2.1-0.4,3.1-0.9c10.6-7.1,20.3-15.1,27.4-25.9c3.5-5.3,7-10.6,10.2-16
	c4.3-7.3,8-14.9,9.8-23.2c1.2-5.3,2.3-10.6,3.3-15.9c0.4-2.1,0.6-4.2,0.6-6.3c0.1-6.6,0.1-13.3,0-19.9c-0.1-1.8-0.3-3.6-0.8-5.3
	c-0.4-1.7-2.3-2.7-4.3-2.7c-1.9,0-3.5,1.3-3.8,3.2c-0.4,2.7-0.5,5.4-0.5,8.1c0.5,13.7-2,27-5.6,40.1c-1,3.8-2.5,7.4-4.4,10.8
	c-4.2,7.3-8.7,14.5-13.4,21.5s-10.2,13.5-17.5,18.1c-1.8,1.2-3.5,2.4-5.1,3.8C312.3,1347,312.5,1349.6,317.4,1354.2z"/>
<path class="st1" d="M1836.5,1300.8c6.3,13.4,14.4,25.9,24.1,37.1c5.8,6.6,12.9,11.7,20.5,16c0.3,0.1,0.6,0.1,0.9,0.1
	c5.4-3,6.1-6.7,1.8-10.3c-2.8-2.3-5.8-4.3-8.6-6.6c-2.4-1.9-4.6-3.9-6.7-6.1c-8.7-9.7-15.4-20.8-21.7-32.2c-1.2-2.1-2.1-4.4-2.7-6.7
	c-1.9-7.6-3.5-15.2-5.2-22.9c-1.6-7.1-1-14.4-1.2-21.6c0-2.4-0.3-4.8-0.7-7.2c-0.3-1.6-1.8-2.6-3.3-2.4c-1.4,0.2-2.8,0.8-3.8,1.8
	c-0.9,1.2-1.4,2.7-1.3,4.2c-0.2,12.6-1,25.3,2.5,37.7C1832.7,1288.2,1833.6,1294.8,1836.5,1300.8z"/>
<path class="st1" d="M578.1,1024.3c11.4,6.2,23.8,10.5,36.6,12.7c6.8,1.2,13.8,1.6,20.6,2.6c11.3,1.7,22.3,0.3,33.2-2.5
	c3.2-1,6.2-2.3,9-4c1.6-0.9,3-2.6,2.5-4.4c-0.4-1.6-1.7-2.9-2.9-4.9c-2.5,0.9-3.9,1.3-5.3,1.9c-6.2,2.5-12.7,3.9-19.4,4.1
	c-19.7,0.9-39.3-2.1-57.8-8.7c-7.1-2.6-13.9-5.8-19.6-11c-0.6-0.6-1.3-1.2-2.1-1.7c-2.3-1.4-5.2-0.7-6.6,1.6
	c-0.1,0.2-0.2,0.3-0.3,0.5c-0.4,1.1-0.5,2.2-0.5,3.3C568.7,1018.7,573.3,1021.7,578.1,1024.3z"/>
<path class="st1" d="M1626,1009c-0.2,0.2-0.5,0.4-0.7,0.6c-6.5,6.2-14.6,9.6-22.9,12.5c-9.2,3-18.6,5.2-28.2,6.4
	c-17,2.2-33.7,3-49.9-4.2c-3.2,0.9-4.5,2.4-4.5,4.8c0,1.9,1.1,3.6,2.8,4.4c2.6,1.5,5.4,2.7,8.2,3.6c9.1,2.3,18.3,3.8,27.8,3.2
	c14.2-1,28.2-2.5,41.9-6.9c8.1-2.6,16-5.6,23.2-10.1c3.3-2.1,6.3-4.6,9.2-7.3c1.9-1.7,2.1-4.6,0.4-6.5c0,0,0,0,0,0
	C1631.4,1007.2,1628.7,1007.1,1626,1009z"/>
<path class="st1" d="M532.7,1262.1c2.9,11.2,9.1,20.3,17.3,28.2c3.9,3.7,8.1,7.2,12.2,10.8c6.5,5.6,12,11.9,14.5,20.3
	c0.3,0.9,0.7,1.7,1.1,2.4c1.1,2.1,3.7,2.9,5.9,1.8c0.1-0.1,0.3-0.2,0.4-0.2c1.2-0.7,1.9-2.2,2.8-3.2c-2.7-11.7-9.2-20.4-17.8-28
	c-5.7-5-11.1-10.3-16.4-15.6c-3.7-3.6-6.6-7.9-8.4-12.8c-3.8-11.4-8.3-22.7-9.6-34.8c-0.3-2.1-1.1-4.1-2.2-5.8
	c-0.8-0.8-2-1.2-3.2-1.1c-1.1,0.3-2.1,1-2.8,2c-0.5,0.8-0.7,1.7-0.7,2.6c0.2,3.9,0,7.9,0.9,11.7
	C528.5,1247.6,530.8,1254.8,532.7,1262.1z"/>
<path class="st1" d="M1613.2,1321.9c0.1,0.5,0.3,0.9,0.5,1.3c3.4,4.1,7,3.9,9-0.5c0.5-1.1,0.8-2.3,1.2-3.4c1.9-5.1,5-9.7,8.9-13.5
	c2.8-2.7,5.8-5.3,8.7-7.9c3.8-3.5,7.7-6.8,11.2-10.5c4.6-4.8,8.8-10,11.3-16.3c4.3-10.7,7.5-21.7,9.6-33c0.8-4.3,1.4-9-1-13.6
	l-3.8-0.6c-2.2,1.5-3.6,3.9-3.6,6.6c-0.7,10.1-4.5,19.3-7.3,28.9c-2.4,8.5-7,16.1-13.4,22.2c-4.6,4.4-9.2,8.7-14,12.9
	C1622,1302.1,1615.4,1310.8,1613.2,1321.9z"/>
<path class="st1" d="M622.2,1150.4c5.9,1.3,11.8,2.1,17.8,2.6c9,0.5,18.1,0.3,27.1,0.3c2.7-0.1,5.4-0.4,8-0.9
	c1.9-0.3,3.4-1.7,3.7-3.5c0.1-2.2-1.6-4.1-3.8-4.2c-2.1-0.2-4.2-0.3-6.3-0.2c-12.9-0.2-25.9,0.3-38.7-2.3
	c-5.3-1.1-10.5-2.5-15.8-3.5c-6.2-1.2-12.2-3.5-17.7-6.7c-2.6-1.5-5.3-2.8-8.1-4c-1.7-0.7-3.7-0.9-5.1,0.3c-1,0.9-1.6,2.4-2.5,3.9
	c1.2,1.6,1.5,2.5,2.2,3c7.8,4.6,15.4,9.6,24.3,11.8C612.2,1148,617.2,1149.5,622.2,1150.4z"/>
<path class="st1" d="M1542.4,1153.4c7.5-0.1,15.1-0.1,22.6-0.8c9-0.9,17.8-3.2,26.5-5.4c9.5-2.4,17.8-7.3,25.9-12.5
	c0.5-0.3,0.7-1,1.8-2.5c-0.9-1.5-1.6-3.4-2.8-4.2c-1.3-0.7-2.9-0.8-4.3-0.2c-3.3,1.4-6.6,3-9.7,4.8c-4.2,2.4-8.7,4.2-13.4,5.3
	c-4.4,1-8.8,2.2-13.2,3.1c-5.9,1.3-11.8,2.2-17.8,2.8c-9,0.6-18.1,0.5-27.1,0.7c-1.8,0-3.6-0.1-5.4,0.1c-2.2,0.1-4,1.7-4.3,3.9
	c2.2,3.6,2.8,4.3,6,4.5C1532.1,1153.2,1537.3,1153.5,1542.4,1153.4z"/>
<path class="st1" d="M1011.2,1296l-2.3-1.2C1009.5,1295.5,1010.3,1296,1011.2,1296z"/>
<path class="st1" d="M1007.6,1294.2l-2.3-1.1C1005.8,1293.8,1006.7,1294.2,1007.6,1294.2z"/>
<path class="st1" d="M1053.4,657.5c0.1,1.9,0.1,4,0.3,6.1c0.2,1.5,0.7,2.9,1,4.4c3.7,17.1,19,33.5,42.2,37c1.8,0.3,3.6,0.3,5.4,0
	c16.4-2.4,29.6-10.2,38-24.7c7-12.1,8.4-25,3.2-38.3c-4.3-11.1-12.8-20.1-23.7-24.9c-8-3.7-16.4-6.2-25.4-4.5
	c-10.3,1.9-19.6,5.8-27.2,13.3C1058.5,634.5,1053.5,644.8,1053.4,657.5z M1101.5,694.7c-7.5,0.2-12.7-4-12.9-10.8
	s4.8-11.8,11.9-11.8c6.1-0.1,11.2,4.8,11.4,10.9c0,0.2,0,0.4,0,0.6C1111.9,690.4,1108.1,694.5,1101.5,694.7z M1074.4,631.2
	c24.3-21.2,52.4-6.1,60.1,12.1c5.8,13.7,4,26.6-5.5,38.2c-1.8,2-3.8,3.9-5.8,5.7c-0.3,0.3-1,0.3-1.9,0.4c-0.1-2.1-0.1-4.2-0.3-6.3
	c-1.1-10.7-10-18.9-20.7-19.1c-10.3-0.3-19.9,8.1-21.2,18.6c-0.2,2.1-0.2,4.2-0.4,6.6c-2.6,0.2-3.7-1.8-5-3.1
	c-7.6-7.1-11.7-17.2-11.2-27.6C1062.6,646.8,1066.9,637.5,1074.4,631.2z"/>
<path class="st1" d="M439.9,994.6c-16-30.7-36.9-57.9-60.8-82.9c-10.9-11.3-22.9-21.5-35-31.4c-2.8-2.2-5.4-4.9-10.5-5.7
	c-1.1,1.3-2.5,2.5-3.1,4.1c-0.8,1.8,0.4,3.5,1.6,4.9c0.9,1.2,2.1,2.2,3,3.4c5.2,6.7,10.8,13,15.4,20.1c17.6,26.7,29.3,56,37.2,86.9
	c2.8,11.1,5.1,22.3,5.8,33.8c0.4,7.5,1.1,15,1.5,22.6c0.5,10.1,3.5,19.5,7,28.9c3.8,10.1,10.8,17.3,19.8,22.8c6.5,4,13.5,5,20.6,1.2
	c3-1.5,5.7-3.4,8-5.8c5.8-5.9,9.3-13.6,10.2-21.8c1.1-9.6,0.8-19.3-1.1-28.8C455.7,1028.4,448.6,1011.2,439.9,994.6z M437.7,1094.9
	c-1.6,0.7-3.2,1.3-4.9,1.7c-2.3-1-4.5-1.6-6.1-2.8c-4.7-3.4-5.7-9.9-2.3-14.5c1.8-2.4,4.5-4,7.5-4.3c5.5-0.4,8.8,1.5,10.9,6.1
	C445,1085.8,442.8,1092,437.7,1094.9z M451.5,1071.9c-2.7,0.5-3.3-1.7-4.6-2.7c-10.5-8.3-23.1-6.7-30.9,4c-1.2,1.6-2.2,3.3-3.5,5.2
	c-0.7-0.8-1.3-1.7-1.9-2.7c-3.9-9.9-6.7-20.1-6.4-30.8s-1.3-21-2.9-31.5c-3.1-20.4-8.9-40-16.2-59.2c-5-13-10.9-25.6-17.9-37.6
	c-0.9-1.5-1.7-3.1-2.5-4.6c13.2,11.7,25.3,24.7,36,38.8c14.8,19.1,27.4,39.8,37.6,61.8c5.7,12,9.8,24.7,12.3,37.8
	C452,1057.5,452.3,1064.8,451.5,1071.9L451.5,1071.9z"/>
<path class="st1" d="M1866.5,874.5c-5.4,0.9-8.5,4-11.7,6.7c-14.3,12-28.4,24.3-41,38.2c-17.7,19.5-33.7,40.2-46.9,63
	c-10.4,17.8-19,36.3-24.4,56.3c-3.1,11.4-4.1,23.2-3.2,35c0.7,10,4.5,18.8,12.2,25.5c7.1,6.2,15.3,8.8,24.2,4.3
	c7.6-3.9,14.4-9,18.7-16.6c5.8-10.3,9.4-21.6,10.6-33.4c0.9-8.7,1.2-17.4,1.8-26.2c0.2-2.7,0.3-5.4,0.7-8.1
	c2.8-18.5,7.4-36.7,13.9-54.2c6.3-17.6,14.3-34.6,23.7-50.8c5.8-9.9,12.7-19.2,20.4-27.6c2-2.2,4.6-4.1,4.3-8.1L1866.5,874.5z
	 M1771.3,1094.9c-1.3,0.6-2.7,1.1-4.1,1.4c-5.2-0.9-7.9-3.3-9.9-7c-3.3-6.2,2.1-14.5,8.6-14.4c5.3,0.1,9.8,2.6,11.2,7.2
	C1778.7,1087.2,1776.4,1092.3,1771.3,1094.9L1771.3,1094.9z M1825.7,929.9c-12.1,23.7-20.7,49-25.7,75.2c-2.5,13-4.9,26.1-4.3,39.5
	c0.4,10.7-2.4,20.9-6.2,30.9c-0.6,1-1.2,2-2,2.9c-10.4-16.9-23.8-18.9-38.7-5.8c-1.5-7.7-0.8-15.2,0.5-22.6
	c2.7-14.7,7.8-28.5,14.3-41.9c14.1-28.8,32.2-55.4,53.9-79.1c5.4-6,11.1-11.8,16.6-17.7l0.8,1.1
	C1831.9,918.2,1828.7,924,1825.7,929.9L1825.7,929.9z"/>
<path class="st1" d="M620,525.2c-6.5-10.7-19.9-16.9-32.9-12c-3.1,1.2-5.9,3.1-8.9,4.5c-5.4,2.5-8,7.2-9.8,12.4
	c-0.8,2.9-1.3,5.9-1.3,8.9c-1,15.2,12.2,29.4,28.7,28.7c7.2,0.2,13.7-2.6,19.2-7.8C624.6,551,626.7,536.5,620,525.2z M594,557
	c-1.6-0.1-3.2-0.8-4.3-2c-1.1-1.2-1.6-2.8-1.4-4.4c0.5-1.8,2.2-3.3,3.1-4.5c4.8-0.6,6.6,1.9,8.2,5.2C598.5,555.2,596.8,557,594,557
	L594,557z M607.8,554.4c-0.2-2.6-0.6-5.1-1.2-7.7c-1.2-5.5-6-9.5-11.6-9.8c-5.5-0.3-10,1.9-12.7,6.9c-1,1.8-1.7,3.8-2.6,6.1
	c-2.2-2-2.9-4.5-3.1-7.1c-0.3-3.9-0.6-8,1.4-11.5c1.8-3.1,3.7-6.4,6.4-8.6c7-5.7,20.2-3.5,26.1,3.9c3.7,4.5,5.3,10.4,4.3,16.1
	C614.1,547.7,612.5,552,607.8,554.4L607.8,554.4z"/>
<path class="st1" d="M1604.6,567.9c16.3,0.1,28.8-13.9,28.3-28c0.7-18.4-13.7-26.7-28.9-28.5c-17.6,0.8-27.7,14.1-28,27.6
	C1575.7,554,1588.2,567.8,1604.6,567.9z M1610.1,555.1c-1.1,1.2-2.6,1.9-4.3,1.9c-2.7,0-4.4-1.8-5.3-4.8c0.5-4,2.8-6.2,7.8-6.2
	c1,1.4,2.7,2.9,3.2,4.7C1611.9,552,1611.1,554,1610.1,555.1z M1585.5,534.8c1.7-8.1,7.3-13,15.4-14.7c13.6-2.7,21.4,6.9,22.5,17.4
	c0.4,4.2,0.4,8.4-2.4,12.1c-1.8,0-1.3-1.6-1.8-2.4c-0.6-1-0.9-2.2-1.5-3.3c-2.8-5-7.3-7.2-12.7-6.9c-5.6,0.3-10.4,4.3-11.6,9.8
	c-0.5,2.5-0.9,5.1-1.2,7.7C1584.8,549.7,1583.9,542.4,1585.5,534.8z"/>
<path class="st1" d="M2017.1,1471.1c-2.8,0.2-5,2.4-5.3,5.2c-0.1,2.5,1.7,4.7,4.2,5c3.1,0,5.7-2.5,5.8-5.6
	C2021.6,1473.2,2019.6,1471.2,2017.1,1471.1z"/>
<path class="st1" d="M182.8,1471.1c-2.5,0.2-4.4,2.2-4.6,4.7c0.1,2.8,2.2,5.1,5,5.4c2.5,0.1,4.7-1.7,5-4.2
	C188.3,1473.9,185.9,1471.2,182.8,1471.1z"/>
<path class="st1" d="M1100,0C492.5,0,0,492.5,0,1100s492.5,1100,1100,1100s1100-492.5,1100-1100S1707.5,0,1100,0z M1676.2,1052.6
	c0.9,19.7,4.3,39,12.2,57.2c8.3,19.3,20.5,35.5,37.9,47.5c15.4,10.6,32.5,15.2,51.3,14.4c21.8-0.9,40.4-9.4,57.2-22.3
	c23.4-18,38.8-42,49.4-69.2c1-2.5,1.8-5.1,2.8-7.8c2.3,1.8,2.5,4.3,2.8,6.7c0.5,4.5,1,9,1.4,13.5c0.1,1.5,0.2,3,0.1,4.5
	c-1.6,34-13.4,63.5-38,87.4c-18.5,18-40.7,28.9-66.1,33.2c-7.1,1.3-14.4,1.9-21.6,1.7c-11.1-0.6-22.2-1.7-33-5.1
	c-37-11.8-63.4-35.3-79-70.8c-4.6-10.5-7.5-21.7-8.6-33.2c-0.5-5.4-1.4-10.8-1.2-16.2c1.2-29.9,10.7-56.7,30.2-79.7
	c1.4-1.5,3-3,4.6-4.4c1.8,2.7,0.8,5.1,0.4,7.3C1676.9,1029.1,1675.6,1040.8,1676.2,1052.6z M1887.2,1034.7
	c-3.3,16-8.2,31.6-14.4,46.7c-8.9,22.2-22,41.6-40.3,57.2c-11,9.5-23.9,16.5-37.9,20.6c-10.5,3.1-21.5,3.9-32.3,2.2
	c-20.6-3.4-37-14-49.9-30.3c-19.8-25.1-26-54.6-26.9-85.7c1.7-10.1,1.3-20.4,3.3-30.6c3.3-16.3,8.5-32.1,15.6-47.2
	c8.1-16.9,18.1-32.9,29.6-47.7c5-6.5,10.5-12.5,15.5-18.9c7-9.1,14.6-17.7,22.8-25.8c14.1-14.1,29.2-27.2,45-39.3
	c38.7-29.8,80.4-54.6,124.1-76.3c28.7-14.3,58.1-26.9,88-38.4c24-9.2,48.3-17.3,73-24.4c3.2-0.9,6.4-1.7,9.6-2.8
	c0.5-0.2,0.9-0.4,1.4-0.7c2.8,7,5.5,14,8.2,21c-0.8,0.2-1.6,0.4-2.4,0.7c-3.7,1.2-7.5,2.4-11.2,3.7c-26.7,9.7-50.6,24.3-72.7,41.9
	c-30.2,24.1-55.6,52.8-77.1,84.8c-22,32.6-39.3,68.1-51.5,105.5c-5.7,17.2-10.2,34.8-13.4,52.6
	C1891.3,1014,1889.2,1024.4,1887.2,1034.7L1887.2,1034.7z M1136,18.1c0.3,3.6,0.7,7.2,1,10.8c0.8,9.6,1.3,19.3,2.4,28.9
	c2,17.1,4.2,34.1,6.5,51.2c1.9,14.3,3.7,28.7,6.2,43c4.3,24.7,8.5,49.3,13.5,73.8c5.4,26.3,10.9,52.6,17.4,78.6
	c7.3,29.3,15.3,58.4,24.8,87c6.8,20.6,13.9,41.2,22.9,61c5.1,11.3,9.9,22.7,14.8,34.1c12.1,28.7,19.4,59.2,21.6,90.3
	c1.1,15.4,0.2,30.8-1.9,46.1c-2.7,20.7-8.4,40.9-17,59.9c-11.8,26-28.3,48.4-50.7,66.3c-20.5,16.6-45.1,27.5-71.2,31.7
	c-5.1,0.9-10.1,1.5-15.3,1.8c-12.1,0.7-24.2,0.6-36.1-1.7c-7.7-1.3-15.4-3-22.9-5.2c-12.4-3.8-24.3-9.3-35.2-16.3
	c-27.9-17.5-48.2-41.8-62.7-71.1c-13.5-27.2-19.8-56.3-21.5-86.4c-0.6-11.2-0.3-22.4,0.9-33.5c2.1-20.7,6.4-41.2,12.9-61
	c5.2-16.1,12.2-31.5,19-47c7-16,14.1-32.1,19.5-48.8c5.7-17.5,11.5-35,16.7-52.6c5.5-18.5,10.7-37.1,15.3-55.9
	c5.2-21.1,9.8-42.3,14.3-63.6c3.6-17.1,6.8-34.3,10-51.5c2.9-16,5.6-32.1,8.2-48.2c2.2-13.7,4.2-27.4,6-41.2
	c1.5-11.7,2.8-23.4,4-35.1c1.7-16.5,3.2-33,4.8-49.6c0.1-1.7,0.2-3.5,0.1-5.2c6-0.2,12.1-0.3,18.1-0.4c-0.1,3.6-0.2,7-0.4,10.3
	c-1,18.7-2,37.4-3,56.1c-0.7,13-1.5,25.9-2.2,38.9c0,0.6-0.1,1.2-0.2,1.8c-1,11.1-2,22.2-3,33.4c-0.9,9.9-1.5,19.9-2.5,29.8
	c-1.5,14.7-3.1,29.4-4.7,44.1c-1.4,12.6-2.7,25.2-4.3,37.8c-2,14.7-4.4,29.2-6.4,43.9c-3.1,23-7.3,45.9-11.7,68.7
	c-5.4,27.6-12.9,54.7-24,80.6c-8.9,20.8-18.2,41.5-27.6,62.1c-12.8,28.2-23.4,57-26.7,88c-0.8,7.8-1.3,15.6,0.1,23.5
	c0.8,4.8,1.7,9.5,2.3,14.3c1.6,12.3,4.8,24.3,9.6,35.8c12.1,29.4,31,53,58.6,69.3c18.3,10.8,38.3,16,59.3,18.1
	c8.5,0.8,16.9-0.8,25.2-2.3c27.5-5.1,51.4-17.5,70.9-37.6c17.6-18.1,29.4-39.7,36.3-64c3-10.8,4.4-21.9,6.2-32.9
	c1-6.6,1.2-13.3,0.7-19.9c-0.3-5.1-1.1-10.2-1.9-15.3c-3.9-23.7-11.6-46.2-21.4-68.1c-8.4-18.8-17.1-37.4-25.3-56.2
	c-10.1-23-18.8-46.5-24.6-70.9c-3.3-14.4-6.4-28.9-9.1-43.4c-3.5-19.6-6.7-39.3-9.7-59c-2.3-15.5-4.2-31.1-6.1-46.7
	c-2.2-18.3-4.5-36.5-6.4-54.8c-1.7-16.2-2.9-32.5-4.2-48.7c-1.3-15.6-2.4-31.3-3.6-46.9c-0.1-0.9-0.1-1.8-0.2-2.7
	c-1-13.9-2.1-27.7-2.8-41.6c-0.8-15.1-1.3-30.3-2-45.4c6,0.1,12,0.2,18,0.4C1135.6,12.1,1135.7,15.1,1136,18.1z M1109.7,8.6
	c0.3,9.7,0.4,19.8,0.9,29.8c0.8,17.5,1.9,35,2.9,52.5c0.8,13.6,1.6,27.1,2.4,40.7c0.5,7.2,1.1,14.4,1.7,21.7
	c0.7,8.1,1.2,16.3,2,24.4c1.5,14.1,3.4,28.2,4.6,42.3c1.3,15.3,3.5,30.6,5.3,45.9c2.6,21.3,5.7,42.5,9.1,63.6
	c4.5,27.7,9.9,55.2,17,82.4c4.1,15.8,9.4,31.3,15.8,46.3c1.2,2.8,2,5.7,3.1,8.5c1.7,4.5,3.4,9,5.4,13.4c2.6,5.8,5.5,11.4,8.1,17.2
	c3.8,8.2,7.1,16.7,11.2,24.8c7.4,14.9,13.6,30.3,18.4,46.2c3.3,10.4,5.3,21.1,6.2,31.9c1,12.3,0.6,24.7-1,37
	c-2.1,14.8-5.8,29-12,42.5c-12.9,28.1-32.6,50-60.7,63.5c-21.4,10.3-44,14.8-67.7,10.5c-21.8-3.9-41.6-12.8-58.4-27.3
	c-19.7-17-33.2-38.2-40.9-63c-2.8-9.2-4.8-18.7-6-28.3c-2.4-18-1.7-36.3,2.2-54c2.8-13,6.8-25.7,12.1-37.9c6.5-15,13-29.9,20.1-44.6
	c7.6-15.8,14.4-31.9,20.4-48.4c5.1-13.9,10.2-27.8,13.4-42.3c2.4-10.9,5.1-21.7,7.5-32.6c4.8-21.2,8.3-42.6,11.7-64.1
	c2.4-15.2,4.2-30.5,6.1-45.7c2.3-18.3,4.7-36.5,6.6-54.8c1.7-15.6,2.8-31.3,4.2-46.9c0.7-8.1,1.3-16.2,1.9-24.4
	c1-12.6,2.2-25.3,3-37.9c1.1-18.4,1.8-36.8,2.6-55.2c0.1-1.8,0.3-3.6,0.4-5.4c0.7-10.8,1-21.7,1-32.3c3.3,0,6.5-0.1,9.8-0.1
	S1106.4,8.5,1109.7,8.6L1109.7,8.6z M521,1017.2c-0.2-1.5-0.4-3-0.5-4.5c0.1-1,0.4-2,0.7-2.9c2.1,2.1,3.7,3.5,5.1,5.1
	c14.6,17.1,24.3,37.8,28,60c1.4,8.6,2.6,17.3,2,26.1c-1.8,25.3-9.4,48.5-24.8,68.8c-19.7,26-45.6,42.4-77.5,47.7
	c-43.9,7.2-81.8-5.8-112.4-38.3c-16.8-17.8-26.8-39.3-30.8-63.4c-2.1-12.5-2.2-25.3-0.2-37.8c0.4-1.8,1-3.5,1.6-5.2
	c2.1,0.7,1.7,2.4,2.3,3.6c0.5,1.1,0.9,2.2,1.3,3.4c9.1,23.7,22.1,44.9,40.9,62.3c14.4,13.4,30.9,23.3,50.2,27.6
	c23.4,5.2,45.7,1.9,65.9-11.5c14.6-9.8,26.5-23.2,34.4-38.9c8.6-16.6,13.4-34.1,15.7-52.6C524.8,1050,523.8,1033.6,521,1017.2z
	 M514.3,1053.4c-0.2,2.7-0.8,5.4-0.9,8.1c-0.6,10.6-2.5,21-5.8,31.1c-5.8,18.8-15,35.6-29.6,49c-13.6,12.5-29.5,19.7-48.1,20.5
	c-13.6,0.6-26.4-2.6-38.6-8.2c-14.2-6.6-26.2-16.2-36.5-27.8c-13.4-15.2-23.7-32.9-30.3-52.1c-5.4-15.4-10.5-30.8-13-47.1
	c-1.5-10.1-3.6-20.2-5.7-30.2c-9.2-42.8-24.1-83.5-45.7-121.6c-15.8-28-34.2-54.1-56.1-77.7c-20-21.6-42-40.8-67-56.5
	c-17-10.6-34.8-19.4-54-25.2c-1.4-0.4-2.9-0.9-4.3-1.3c2.7-7,5.4-14,8.2-21c2.3,1,4.7,1.9,7.2,2.6c15.3,4.8,30.7,9.1,45.8,14.3
	c50.1,17,98.6,38.1,145.2,63.2c42.1,22.7,82.2,48.5,118.6,79.7c12.1,10.4,24.1,21.1,34.5,33.4c8.2,9.7,16.7,19.1,24.5,29.1
	c16.4,21.1,30.5,43.4,40,68.6c7.5,20,10.6,40.8,11.9,62C514.6,1048.6,514.5,1051,514.3,1053.4z M2105.7,1524.9
	c-234.6,555.5-875.1,815.5-1430.6,580.9C137.7,1878.7-126.3,1269.3,75.7,722c1.6,0.6,3.2,1.2,4.9,1.7c11.5,3.8,22.6,8.6,33.3,14.2
	c20.3,10.8,39.2,24,56.4,39.3c18.1,16.1,34.5,33.9,49.2,53.1c22.4,29.4,40.8,61.5,54.8,95.7c10.4,24.8,18.3,50.6,23.4,77
	c2.7,14.5,4.5,29.2,8.4,43.5c1.1,4,0.1,7.7-1.4,11.4c-5.8,14.6-7.4,29.8-6.5,45.3c0.8,14.8,4.1,29.3,9.7,43.1
	c6.9,17.1,17.3,32.7,30.5,45.7c10.7,10.7,23.2,19.5,36.9,25.8c22.6,10.3,46.3,15,71.4,12c17.9-2.2,34.9-7,50.6-15.9
	c30-16.8,50.8-41.4,62.3-73.7c4.9-14,7.4-28.7,7.4-43.5c0-9.1-0.9-18.1-2.8-27c-3.6-17.5-10.7-34.1-20.9-48.8
	c-7.1-10.2-15.1-19.6-25-27.3c-2.6-2-4.6-4.9-5.5-8.1c-1.2-4-2.7-8-4.4-11.9c-5.6-12.7-12.1-25-19.6-36.7
	c-11.5-18.2-25.1-34.8-39-51.1c-13-15.2-27.2-29.2-42.5-42c-27-22.9-56.1-42.9-86.6-61c-27.8-16.5-56.5-31.5-85.9-44.9
	c-24.2-11.1-48.7-21.2-73.7-30.3c-21.3-7.8-42.8-14.8-64.6-21c-2.1-0.6-4.3-1.1-6.5-1.4c1.4-3.4,2.8-6.8,4.2-10.1
	C258.4,285.4,633.3,25.9,1055.9,9.4c-0.7,7.8-1.3,15.6-2.1,23.4c-0.8,8.7-1.7,17.4-2.7,26.1c-1.4,11.7-3,23.4-4.6,35
	c-2,14.7-3.8,29.3-6.1,43.9c-3,18.5-6.7,36.8-9.8,55.2c-5.3,31.2-12.3,62.2-19.5,93c-6.7,28.5-14.3,56.8-22.9,84.8
	c-8.3,27.1-17.5,54-29.2,79.9c-3,6.6-5.8,13.3-8.4,20c-3.3,8.7-6.2,17.7-9.6,26.4c-9.8,24.7-15.7,50.9-17.5,77.4
	c-1.2,15.7-0.8,31.4,1.2,47c3.7,27.5,11.2,53.7,24.4,78.2c10.7,20.1,24.9,38,42.1,52.9c20.2,17.4,44.3,29.8,70.3,36
	c13,3.2,26.2,4.2,39.5,4.2c11.2,0.1,22.3-0.9,33.3-3.2c40.2-8.9,72.8-29.8,98.4-62c11.2-14.3,20.4-30,27.2-46.9
	c10.3-24.9,16.1-51.4,17-78.3c0.5-12.7,0-25.4-1.3-38c-2-17.5-5.3-34.6-10.9-51.2c-5.6-16.3-11.5-32.4-17.3-48.6
	c-0.4-1.1-0.9-2.2-1.4-3.3c-14.8-31.8-26.3-64.9-36.2-98.5c-8.3-28.1-15.8-56.4-22.4-84.9c-6.6-28.5-12.9-57.1-17.8-86
	c-3.2-18.7-7-37.4-9.9-56.1c-3.4-22.4-6.2-44.8-9.2-67.3c-0.8-5.7-1.4-11.4-1.9-17.1c-0.8-8.1-1.5-16.2-2.3-24.3
	c-0.5-5.1-1-10.2-1.6-15.3c-0.1-0.8-0.2-1.6-0.4-2.5c422.4,17.3,796.9,276.5,961.8,665.8c1.4,3.3,2.8,6.6,4.1,10
	c-0.3,0-0.7,0.1-1,0.1c-3.2,0.7-6.4,1.6-9.6,2.6c-52.2,15.3-103,34.8-152,58.5c-41.9,20.4-82.3,43.3-120.1,70.7
	c-26.5,19.2-51.6,39.9-73.2,64.6c-15.6,17.7-30.6,35.8-43.1,55.9c-9.4,15.2-18,30.7-23.6,47.8c-1.1,3.4-3.3,6.5-6.1,8.7
	c-18,15-31.7,34.4-39.8,56.3c-7.9,21-10.3,43.7-6.7,65.9c4.1,28.3,17.3,54.6,37.7,74.7c25.1,25.1,55.7,37.6,90.8,39.7
	c5.7,0.3,11.4-0.6,17.1-0.9c15.7-1.1,31.1-5.3,45.2-12.3c30.2-14.7,52.3-37.6,65.6-68.6c8.8-20.5,12.8-41.9,10.3-64.5
	c-1-9.1-2.4-18-6-26.4c-2-4.8-2-9.2-0.8-14.1c1.8-7.9,3.3-16,4.7-24c2.8-16.1,5.9-32,10.3-47.7c11-38.7,27.4-75.6,48.7-109.8
	c22-35.4,48.6-66.9,81-93.3c24.8-20.2,51.8-36.4,82.5-46.2c0.8-0.3,1.6-0.6,2.4-0.9c19,51.4,34,104.2,45,157.9
	c29.6,145.2,29.6,294.8,0,440C2154.9,1390.1,2133.6,1458.8,2105.7,1524.9z"/>
<path class="st1" d="M1001.7,1291.2c0.5,0.7,1.4,1.2,2.3,1.2l-0.5-0.3l0.5,0.3l0,0l0.8,0.4l0.5,0.2l0,0l2.4,1.2h-0.1l0.8,0.4
	l0.5,0.3l0-0.1l2.9,1.3l-0.5-0.1l0.8,0.4l0.5,0.1l-0.1-0.2l0.5,0.2l-0.4-0.1c0.4,0.6,0.8,1.1,1.7,0.6c1.5,0.7,3.1,1.3,4.7,2
	c-0.1,0.1-0.2,0.1-0.3,0.2l1.3,0.2l1.8,0.7c0.4,0.5,0.8,1,1.5,0.6c1.6,0.6,3.1,1.2,4.7,1.7l-0.1,0.2l0.8,0.2l-0.2-0.2
	c23,8.1,47.1,12.2,71.5,12.1c118.7,0,215-96.3,215-215s-96.3-215-215-215s-215,96.3-215,215C885,1180.6,930,1254.4,1001.7,1291.2z
	 M893.5,1100c0-83,49.7-157.9,126.1-190.3c6.2-2.7,12.6-5,19-7c41.6,14.5,75.3,38.5,101.4,72.9c27.6,36.4,41,77.7,42.3,123
	c0.2,8.8-0.8,17.7-1.5,26.5c-0.5,5.3-1.3,10.6-2.5,15.7c-2,8.6-4,17.3-6.8,25.7c-2.7,8.1-5.9,16.1-9.6,23.9
	c-3.1,6.7-6.7,13.2-10.6,19.5c-4.8,7.5-9.9,14.8-15.4,21.8c-4.6,5.8-9.5,11.4-14.8,16.6c-5.5,5.5-11.2,10.6-17.3,15.4
	c-6.8,5.3-13.9,10.2-21.1,14.9c-12.6,8.1-26.3,14.2-40.6,19.6C953.9,1272.5,893.4,1191.8,893.5,1100z"/>
</svg>
