<svg xmlns="http://www.w3.org/2000/svg" width="795.04" height="101.066" viewBox="0 0 795.04 101.066"><g transform="translate(-970.77 -5380)"><path d="M0,0V17.643H10.044V16.351H1.351V9.63H8.559V8.338H1.351V1.291h8.694V0Z" transform="translate(1377.921 5380)" fill="#ff7f00"/><path d="M0,0V1.291H4.614V17.643H5.968V1.291H10.98V0Z" transform="translate(1343.971 5380)" fill="#ff7f00"/><path d="M-12.326,0V8.338h-9.487V0h-1.358V17.643h1.358V9.63h9.487v8.013h1.358V0Z" transform="translate(1382.488 5380)" fill="#ff7f00"/><path d="M635.914-143.9a31,31,0,0,1,10.9,1.872,24.382,24.382,0,0,1,8.444,5.265,23.26,23.26,0,0,1,5.44,8.1,27.521,27.521,0,0,1,1.92,10.346v42.061h-5.68V-97.876H614.978v21.623H609.3v-42.061a27.408,27.408,0,0,1,1.932-10.347,23.365,23.365,0,0,1,5.452-8.1,24.436,24.436,0,0,1,8.42-5.265A30.577,30.577,0,0,1,635.914-143.9Zm25.709,66.647v-41.061a26.528,26.528,0,0,0-1.848-9.972,22.264,22.264,0,0,0-5.207-7.757,23.387,23.387,0,0,0-8.1-5.049,30,30,0,0,0-10.554-1.808,29.582,29.582,0,0,0-10.46,1.808,23.444,23.444,0,0,0-8.078,5.049,22.37,22.37,0,0,0-5.219,7.758,26.413,26.413,0,0,0-1.859,9.971v41.061h3.68V-98.876h43.965v21.623ZM.5-142.777H6.18v66.523H.5Zm4.68,1H1.5v64.523H5.18Zm21.622-1h2.975l47.2,54.48v-54.48h5.68v66.523H79.961l-.149-.172L32.483-130.831v54.577H26.8Zm2.518,1H27.8v64.523h3.68V-133.5L80.417-77.253h1.238v-64.523h-3.68v56.161Zm73.863-1h36.664v5.4H108.864v25.771h25.273v5.4H108.864v29.954h-5.68Zm35.664,1H104.184v64.523h3.68v-29.954h25.273v-3.4H107.864v-27.771h30.983Zm14.133-1h5.68v66.523h-5.68Zm4.68,1h-3.68v64.523h3.68Zm21.622-1h2.975l47.2,54.48v-54.48h5.68v66.523h-2.693l-.149-.172-47.329-54.406v54.577h-5.68Zm2.518,1h-1.518v64.523h3.68V-133.5L232.9-77.253h1.238v-64.523h-3.68v56.161l-.878-1.013Zm73.863-1h5.68v66.523h-5.68Zm4.68,1h-3.68v64.523h3.68Zm14.134-1h42v5.4H297.57v61.124h-5.68v-61.124h-17.41Zm41,1h-40v3.4h17.41v61.124h3.68v-61.124h18.908Zm14.039-1h36.663v5.4H335.2v25.771h25.367v5.4H335.2v24.554h30.983v5.4H329.517Zm35.663,1H330.517v64.523h34.663v-3.4H334.2v-26.554h25.367v-3.4H334.2v-27.771h30.983Zm41.653-1h5.68v61.124H443.5v5.4H406.833Zm4.68,1h-3.68v64.523H442.5v-3.4H411.514Zm44.929-1h5.68v66.523h-5.68Zm4.68,1h-3.68v64.523h3.68Zm21.622-1H505.43c7.009,0,12.87,1.829,16.95,5.29a16.527,16.527,0,0,1,4.422,5.824,17.284,17.284,0,0,1,1.5,7.171,14.7,14.7,0,0,1-1.116,5.624,16,16,0,0,1-2.933,4.621,17.32,17.32,0,0,1-6.964,4.677,18.735,18.735,0,0,1,3.533,1.413,18.626,18.626,0,0,1,4.74,3.511,16.493,16.493,0,0,1,3.344,4.935,15.226,15.226,0,0,1,1.267,6.108c0,10.377-8.439,17.349-21,17.349H482.745Zm26.429,65.523a27.282,27.282,0,0,0,8.225-1.188,18.8,18.8,0,0,0,6.305-3.332A14.8,14.8,0,0,0,529.173-93.6a14.231,14.231,0,0,0-1.184-5.709,15.494,15.494,0,0,0-3.143-4.636,17.912,17.912,0,0,0-9.67-5.074l-.02-.983a15.955,15.955,0,0,0,8.354-4.912,15,15,0,0,0,2.751-4.332,13.706,13.706,0,0,0,1.04-5.243,16.292,16.292,0,0,0-1.411-6.759,15.538,15.538,0,0,0-4.158-5.473c-3.9-3.306-9.534-5.053-16.3-5.053H483.745v64.523Zm37.035-65.523h22.4a37.3,37.3,0,0,1,10.295,1.32,22.116,22.116,0,0,1,7.732,3.856,16.715,16.715,0,0,1,4.859,6.215,19.994,19.994,0,0,1,1.671,8.3,18.445,18.445,0,0,1-3.565,11.453,18.619,18.619,0,0,1-8.858,6.2,18.622,18.622,0,0,1,7.7,6.458,26.643,26.643,0,0,1,4.345,11.861l1.58,10.864h-5.784l-1.561-10.73a21.937,21.937,0,0,0-1.888-6.547,16.479,16.479,0,0,0-3.723-5.086,16.215,16.215,0,0,0-5.579-3.311,22.449,22.449,0,0,0-7.5-1.191H551.89v26.865h-5.68Zm47.005,65.523-1.415-9.73a25.659,25.659,0,0,0-4.173-11.422,17.569,17.569,0,0,0-8.513-6.615l-1.432-.521,1.462-.429c8.4-2.465,13.026-8.544,13.026-17.118a19,19,0,0,0-1.582-7.886,15.725,15.725,0,0,0-4.572-5.846,21.126,21.126,0,0,0-7.385-3.677,36.315,36.315,0,0,0-10.018-1.281h-21.4v64.523h3.68v-26.865h17.443a23.445,23.445,0,0,1,7.838,1.248,17.211,17.211,0,0,1,5.92,3.516,17.477,17.477,0,0,1,3.95,5.392,22.929,22.929,0,0,1,1.976,6.839h0l1.435,9.868Zm89.094-65.523h22.4a37.3,37.3,0,0,1,10.295,1.32,22.116,22.116,0,0,1,7.732,3.856,16.715,16.715,0,0,1,4.859,6.215,19.994,19.994,0,0,1,1.671,8.3,18.444,18.444,0,0,1-3.565,11.453,18.619,18.619,0,0,1-8.858,6.2,18.622,18.622,0,0,1,7.7,6.458,26.644,26.644,0,0,1,4.345,11.861l1.58,10.864h-5.784l-1.561-10.73a21.935,21.935,0,0,0-1.888-6.547,16.482,16.482,0,0,0-3.723-5.086,16.216,16.216,0,0,0-5.579-3.311,22.448,22.448,0,0,0-7.5-1.191H687.989v26.865h-5.68Zm47.005,65.523-1.415-9.73a25.657,25.657,0,0,0-4.173-11.422,17.569,17.569,0,0,0-8.513-6.615l-1.432-.521,1.462-.429c8.4-2.465,13.026-8.544,13.026-17.118a19,19,0,0,0-1.582-7.886,15.725,15.725,0,0,0-4.572-5.846,21.126,21.126,0,0,0-7.385-3.677,36.314,36.314,0,0,0-10.018-1.281h-21.4v64.523h3.68v-26.865h17.442a23.445,23.445,0,0,1,7.838,1.248,17.21,17.21,0,0,1,5.92,3.516,17.475,17.475,0,0,1,3.95,5.392,22.931,22.931,0,0,1,1.976,6.839h0l1.435,9.868Zm6.817-65.523h5.922l23.876,37.294,23.783-37.294h5.829v1.209l-.08.124L768.769-100.1v23.847h-5.68v-23.66L736.13-141.567Zm5.375,1h-4.319l26.9,41.568v22.955h3.68V-100.4l.08-.124,26.636-41.257h-4.225l-24.33,38.151ZM636.1-139.5a24.586,24.586,0,0,1,8.925,1.593,20.155,20.155,0,0,1,6.905,4.424,19.583,19.583,0,0,1,4.444,6.7,22.347,22.347,0,0,1,1.567,8.38v16.132H613.978v-16.319a21.913,21.913,0,0,1,1.586-8.354,19.244,19.244,0,0,1,4.5-6.633,20.371,20.371,0,0,1,6.993-4.357A25.611,25.611,0,0,1,636.1-139.5Zm20.842,36.225v-15.132a21.353,21.353,0,0,0-1.5-8.007,18.59,18.59,0,0,0-4.217-6.356,19.162,19.162,0,0,0-6.565-4.2A23.591,23.591,0,0,0,636.1-138.5a24.617,24.617,0,0,0-8.692,1.5,19.375,19.375,0,0,0-6.653,4.143,18.248,18.248,0,0,0-4.267,6.29,20.918,20.918,0,0,0-1.512,7.975v15.319Zm-169.517-35.1h18.1a22.488,22.488,0,0,1,12.149,3.194,12.823,12.823,0,0,1,4.226,4.4,13.141,13.141,0,0,1,1.628,6.568,12.015,12.015,0,0,1-6.049,10.428,20.647,20.647,0,0,1-10.363,2.99H487.426Zm19.689,26.584a19.589,19.589,0,0,0,9.832-2.837,12.42,12.42,0,0,0,3.975-3.841,10.562,10.562,0,0,0,1.606-5.74,12.155,12.155,0,0,0-1.5-6.075,11.832,11.832,0,0,0-3.9-4.061,21.488,21.488,0,0,0-11.6-3.031h-17.1v25.584Zm43.775-26.584h17.723a31.216,31.216,0,0,1,8.32,1.026,18,18,0,0,1,6.225,3,13.037,13.037,0,0,1,3.9,4.834,15.1,15.1,0,0,1,1.335,6.432,15.632,15.632,0,0,1-1.334,6.551,13.223,13.223,0,0,1-3.9,4.922,17.858,17.858,0,0,1-6.227,3.053,30.712,30.712,0,0,1-8.322,1.044H550.89Zm17.723,29.86a29.72,29.72,0,0,0,8.05-1.006,16.869,16.869,0,0,0,5.881-2.877,12.232,12.232,0,0,0,3.609-4.552,14.642,14.642,0,0,0,1.243-6.135,14.108,14.108,0,0,0-1.242-6.009,12.047,12.047,0,0,0-3.607-4.465,17.01,17.01,0,0,0-5.882-2.826,30.225,30.225,0,0,0-8.052-.989H551.89v28.86Zm118.376-29.86h17.723a31.216,31.216,0,0,1,8.32,1.026,18,18,0,0,1,6.225,3,13.038,13.038,0,0,1,3.9,4.834,15.1,15.1,0,0,1,1.335,6.432,15.632,15.632,0,0,1-1.334,6.551,13.222,13.222,0,0,1-3.9,4.922,17.858,17.858,0,0,1-6.227,3.053,30.712,30.712,0,0,1-8.322,1.044H686.989Zm17.723,29.86a29.72,29.72,0,0,0,8.05-1.006,16.869,16.869,0,0,0,5.881-2.877,12.234,12.234,0,0,0,3.609-4.552,14.644,14.644,0,0,0,1.243-6.135,14.109,14.109,0,0,0-1.242-6.009,12.048,12.048,0,0,0-3.607-4.465,17.009,17.009,0,0,0-5.882-2.826,30.224,30.224,0,0,0-8.052-.989H687.989v28.86ZM487.426-107.3h20.625a23.677,23.677,0,0,1,6.32.84,18.393,18.393,0,0,1,5.547,2.524A11.931,11.931,0,0,1,525.4-93.789a11.965,11.965,0,0,1-1.591,6.178,12.065,12.065,0,0,1-4.073,4.075,22.076,22.076,0,0,1-11.31,2.884h-21Zm21,25.648a20.62,20.62,0,0,0,10.78-2.732,11.078,11.078,0,0,0,3.743-3.735,10.982,10.982,0,0,0,1.451-5.669,10.97,10.97,0,0,0-5.049-9.323A17.4,17.4,0,0,0,514.1-105.5a22.674,22.674,0,0,0-6.053-.8H488.426v24.648Z" transform="translate(970.27 5557.319)" fill="#ff7f00"/><path d="M0-114.84H794.976V-215.874H0Z" transform="translate(970.802 5595.874)" fill="none"/></g></svg>